<?xml version="1.0" encoding="UTF-8" standalone="no"?>
<!-- Created with Inkscape (http://www.inkscape.org/) -->

<svg
   xmlns:dc="http://purl.org/dc/elements/1.1/"
   xmlns:cc="http://creativecommons.org/ns#"
   xmlns:rdf="http://www.w3.org/1999/02/22-rdf-syntax-ns#"
   xmlns:svg="http://www.w3.org/2000/svg"
   xmlns="http://www.w3.org/2000/svg"
   xmlns:sodipodi="http://sodipodi.sourceforge.net/DTD/sodipodi-0.dtd"
   xmlns:inkscape="http://www.inkscape.org/namespaces/inkscape"
   version="1.1"
   id="svg2"
   width="1776"
   height="1776"
   viewBox="0 0 1776 1776"
   sodipodi:docname="Avatar_7_4_F.svg"
   inkscape:version="0.92.1 r15371">
  <metadata
     id="metadata8">
    <rdf:RDF>
      <cc:Work
         rdf:about="">
        <dc:format>image/svg+xml</dc:format>
        <dc:type
           rdf:resource="http://purl.org/dc/dcmitype/StillImage" />
        <dc:title></dc:title>
      </cc:Work>
    </rdf:RDF>
  </metadata>
  <defs
     id="defs6" />
  <sodipodi:namedview
     pagecolor="#ffffff"
     bordercolor="#666666"
     borderopacity="1"
     objecttolerance="10"
     gridtolerance="10"
     guidetolerance="10"
     inkscape:pageopacity="0"
     inkscape:pageshadow="2"
     inkscape:window-width="1366"
     inkscape:window-height="692"
     id="namedview4"
     showgrid="false"
     inkscape:zoom="1.5033982"
     inkscape:cx="972.2781"
     inkscape:cy="57.426572"
     inkscape:window-x="0"
     inkscape:window-y="27"
     inkscape:window-maximized="1"
     inkscape:current-layer="svg2" />
  <path
     style="fill:#000000;stroke-width:1.33333337"
     d="m 0,887.91398 v -888 H 888.00003 1776 v 888 888.00002 h -234 c -207.1111,0 -234,-0.2299 -234,-2 0,-1.1 0.6,-2 1.3333,-2 0.8231,0 1.3334,-6.8889 1.3334,-18 0,-11.1111 0.5103,-18 1.3333,-18 0.8444,0 1.3333,-9.7777 1.3333,-26.6667 0,-23.1912 0.2692,-26.6666 2.0656,-26.6666 2.2266,0 31.2678,-28.5962 31.2678,-30.7887 0,-0.7275 1.2,-2.6109 2.6666,-4.1852 1.4667,-1.5743 2.6667,-3.8048 2.6667,-4.9568 0,-1.152 1.1399,-2.8064 2.5331,-3.6764 2.6778,-1.6724 6.8002,-8.9052 6.8002,-11.9311 0,-1.4869 15.4535,-1.7952 90,-1.7952 59.1111,0 90,-0.4576 90,-1.3333 0,-0.7333 2.3646,-1.3333 5.2547,-1.3333 2.89,0 5.6255,-0.6 6.0787,-1.3334 0.4532,-0.7333 2.2457,-1.3333 3.9834,-1.3333 1.7376,0 4.0594,-0.9 5.1594,-2 1.1,-1.1 3.5074,-2 5.35,-2 1.8424,0 3.7206,-0.6 4.1738,-1.3333 0.4532,-0.7334 1.9887,-1.3334 3.412,-1.3334 1.4235,0 2.588,-0.6 2.588,-1.3333 0,-0.7333 0.9287,-1.3333 2.0636,-1.3333 1.1351,0 3.4539,-1.5 5.153,-3.3334 1.699,-1.8333 3.855,-3.3333 4.791,-3.3333 2.2202,0 26.6591,-24.4389 26.6591,-26.6591 0,-0.936 1.5,-3.092 3.3333,-4.791 1.8334,-1.6991 3.3334,-4.0179 3.3334,-5.153 0,-1.1349 0.6,-2.0636 1.3333,-2.0636 0.7333,0 1.3333,-2.1 1.3333,-4.6666 0,-2.5667 0.6,-4.6667 1.3334,-4.6667 0.7333,0 1.3333,-0.9428 1.3333,-2.0952 0,-1.1524 0.9,-2.9953 2,-4.0953 1.1,-1.1 2,-3.4218 2,-5.1594 0,-1.7377 0.6,-3.5302 1.3333,-3.9834 0.7334,-0.4532 1.3334,-3.7532 1.3334,-7.3334 0,-3.5801 0.6,-6.8801 1.3333,-7.3333 1.8497,-1.1432 1.8497,-1310.85679 0,-1312.00002 -0.7333,-0.45323 -1.3333,-3.75323 -1.3333,-7.33333 0,-3.58011 -0.6,-6.88011 -1.3334,-7.33334 -0.7333,-0.45322 -1.3333,-2.24577 -1.3333,-3.98345 0,-1.73767 -0.9,-4.0594 -2,-5.1594 -1.1,-1.1 -2,-3.50745 -2,-5.34988 0,-1.84244 -0.6,-3.72071 -1.3333,-4.17393 -0.7334,-0.45323 -1.3334,-1.98864 -1.3334,-3.41203 0,-1.42339 -0.6,-2.58797 -1.3333,-2.58797 -0.7333,0 -1.3333,-1.2 -1.3333,-2.66667 0,-1.46667 -0.6,-2.66667 -1.3334,-2.66667 -0.7333,0 -1.3333,-0.96 -1.3333,-2.13333 0,-1.17333 -2.1,-4.23333 -4.6667,-6.8 -2.5666,-2.56667 -4.6712,-5.35667 -4.6766,-6.2 -0.015,-2.16411 -11.1602,-12.86069 -13.4374,-12.89548 -1.0373,-0.0159 -3.6802,-2.11585 -5.8733,-4.66667 -2.1929,-2.55081 -5.0429,-4.63785 -6.3333,-4.63785 -1.2903,0 -2.346,-0.6 -2.346,-1.33333 0,-0.73334 -1.0676,-1.33334 -2.3723,-1.33334 -1.3048,0 -3.2373,-1.2 -4.2944,-2.66666 -1.2269,-1.70233 -3.4516,-2.66667 -6.1517,-2.66667 -2.5298,0 -4.5382,-0.80382 -4.9971,-2 -0.4487,-1.16915 -2.4465,-2 -4.8093,-2 -2.2231,0 -4.0419,-0.6 -4.0419,-1.33333 0,-0.73334 -2.7,-1.33334 -6,-1.33334 -3.3,0 -6,-0.6 -6,-1.33333 0,-0.76712 -4.1333,-1.33333 -9.7333,-1.33333 -5.3534,0 -10.3555,-0.62213 -11.1159,-1.3825 -1.9355,-1.93547 -1287.60185,-1.93101 -1288.24701,0.005 -0.25264,0.75785 -4.27394,1.37797 -8.93622,1.37797 -4.66226,0 -8.84768,0.6 -9.3009,1.33333 -0.45323,0.73333 -3.18864,1.33333 -6.0787,1.33333 -2.89005,0 -5.25464,0.6 -5.25464,1.33334 0,0.73333 -1.81882,1.33333 -4.04184,1.33333 -2.36277,0 -4.36068,0.83085 -4.80932,2 -0.45902,1.19618 -2.46742,2 -4.99714,2 -2.70011,0 -4.92472,0.96434 -6.1517,2.66667 -1.05712,1.46666 -2.94602,2.66666 -4.19757,2.66666 -1.25155,0 -3.45544,1.5 -4.89755,3.33334 -1.4421,1.83286 -3.48105,3.33286 -4.53102,3.33286 -1.04996,0 -3.3636,1.56365 -5.14144,3.4748 -1.77783,1.91113 -4.59318,4.00037 -6.25632,4.64276 -1.66316,0.64237 -3.56191,2.52871 -4.21947,4.19187 -0.65755,1.66314 -3.62705,5.4239 -6.59889,8.35724 -2.97184,2.93333 -5.42308,5.99034 -5.44722,6.79334 -0.0241,0.80302 -1.24385,2.546 -2.71052,3.87332 -1.46666,1.32732 -2.66666,3.52031 -2.66666,4.87332 0,1.353 -0.6,2.46002 -1.33334,2.46002 -0.73333,0 -1.33333,1.12653 -1.33333,2.50341 0,1.37687 -0.9,3.25033 -2,4.16325 -1.1,0.91292 -2,3.05098 -2,4.75124 0,1.70026 -0.6,3.4622 -1.33333,3.91543 -0.73334,0.45323 -1.33334,2.58864 -1.33334,4.74536 0,2.15672 -0.6,3.92131 -1.33333,3.92131 -0.73333,0 -1.33333,3.25 -1.33333,7.22222 0,3.97222 -0.62482,7.4305 -1.38849,7.68506 -1.93554,0.64517 -1.91861,1312.21257 0.0169,1312.85777 0.75434,0.2515 1.37154,2.7718 1.37154,5.6007 0,2.8289 0.6,5.5144 1.33333,5.9676 0.73334,0.4532 1.33334,2.7964 1.33334,5.2072 0,4.7339 3.42126,12.7928 5.43098,12.7928 0.67963,0 1.23568,1.5 1.23568,3.3333 0,1.8334 0.6,3.3334 1.33334,3.3334 0.73333,0 1.33333,1.2 1.33333,2.6666 0,1.4667 0.6,2.6667 1.33333,2.6667 0.73334,0 1.33334,0.8315 1.33334,1.8476 0,1.0161 0.81149,3.4117 1.80332,5.3235 2.64537,5.0989 26.35436,28.8289 28.80345,28.8289 1.15149,0 3.22008,1.5 4.59685,3.3333 1.37679,1.8334 3.61919,3.3334 4.98314,3.3334 1.36394,0 2.4799,0.6 2.4799,1.3333 0,0.7333 1.2,1.3333 2.66667,1.3333 1.46667,0 2.66667,0.6 2.66667,1.3334 0,0.7333 1.12653,1.3333 2.50341,1.3333 1.37687,0 3.25033,0.9 4.16325,2 0.91292,1.1 3.38639,2 5.49659,2 2.11021,0 3.83675,0.6 3.83675,1.3333 0,0.7334 2.36458,1.3334 5.25464,1.3334 2.89005,0 5.62546,0.6 6.07869,1.3333 0.53765,0.87 36.01384,1.3333 102.07869,1.3333 85.1152,0 101.25464,0.2928 101.25464,1.8368 0,1.0102 0.9,2.5836 2,3.4966 1.1,0.9129 2,2.6538 2,3.8689 0,1.2149 1.2,3.074 2.66667,4.1311 1.46667,1.057 2.66667,2.946 2.66667,4.1976 0,1.2514 1.5,3.4554 3.33333,4.8974 1.83333,1.4422 3.33465,3.4358 3.33627,4.4302 0.004,2.1984 28.24853,30.4748 30.44082,30.4748 1.12076,0 1.55624,5.9241 1.55624,21.1701 0,17.1912 0.3759,21.482 2,22.8299 1.60122,1.3289 2,5.3336 2,20.0845 0,10.8449 0.54852,18.7637 1.33334,19.2488 0.73333,0.4532 1.33333,2.8887 1.33333,5.412 v 4.588 H 237.33334 0 Z m 476.83356,883.70972 c -2.35791,-16.2056 -3.51436,-36.139 -3.5078,-60.4629 l 0.008,-28.0865 -9.66667,-7.8122 c -19.19901,-15.516 -32.95973,-34.2813 -49.21106,-67.1088 -5.1989,-10.5016 -10.78092,-20.7016 -12.40452,-22.6666 -2.54126,-3.0756 -6.48875,-8.5374 -21.38442,-29.5874 -1.46666,-2.0726 -6.31837,-8.7672 -10.78157,-14.8769 -39.21435,-53.6801 -39.66605,-54.4817 -40.33208,-71.5677 -0.56923,-14.6027 1.52495,-21.7032 8.76432,-29.7164 13.81057,-15.2866 33.09696,-18.41 53.68267,-8.6936 6.46958,3.0534 24.18662,20.2034 34.98933,33.8693 3.62308,4.5833 7.19965,8.3333 7.94795,8.3333 0.74829,0 5.24873,-2.1 10.00096,-4.6666 4.75222,-2.5667 9.74981,-4.6667 11.10573,-4.6667 1.35592,0 2.83613,-0.6 3.28936,-1.3333 0.45323,-0.7334 2.23956,-1.3334 3.96964,-1.3334 6.35405,0 7.36369,-1.197 7.36369,-8.7306 0,-3.9116 0.6,-7.4828 1.33334,-7.936 0.73333,-0.4532 1.34821,-1.8387 1.36638,-3.0787 0.0748,-5.1028 8.74838,-14.2281 17.64835,-18.5676 4.83132,-2.3557 9.08683,-4.7727 9.45668,-5.3712 0.36987,-0.5984 0.0977,-7.3643 -0.60471,-15.0353 -0.70244,-7.671 -1.8944,-22.0472 -2.6488,-31.9472 -0.75438,-9.9 -1.99781,-25.5 -2.76317,-34.6667 -2.32717,-27.8727 -1.57276,-52.073 1.68611,-54.087 0.65586,-0.4054 1.19249,-1.8179 1.19249,-3.139 0,-1.321 1.45276,-4.5426 3.22835,-7.1591 l 3.22834,-4.7572 -3.644,-5.7622 c -7.63122,-12.0671 -23.69998,-42.6963 -30.47813,-58.0955 l -4.25491,-9.6667 h -10.37316 c -16.74969,-0.01 -40.03497,-3.1407 -49.03982,-6.6018 -1.46667,-0.5637 -5.06667,-1.7537 -8,-2.6446 -28.649,-8.6998 -56.78343,-28.3011 -76.50152,-53.298 -5.2244,-6.623 -9.49891,-12.422 -9.49891,-12.8867 0,-0.4646 -1.78812,-3.4943 -3.97361,-6.7326 -4.7064,-6.9735 -9.59932,-17.4029 -13.5418,-28.8647 -6.49424,-18.8803 -8.19299,-30.5538 -8.19299,-56.3009 0,-33.50381 3.57653,-48.92691 17.89976,-77.18943 5.49483,-10.84235 15.18649,-24.25087 24.8064,-34.31991 9.28063,-9.71393 9.91675,-10.74891 9.09699,-14.8008 -0.48478,-2.39611 -1.39744,-7.35655 -2.02816,-11.02321 -0.63071,-3.66667 -2.1275,-12.36667 -3.3262,-19.33334 -10.00206,-58.13032 -10.02068,-142.89777 -0.0409,-186 1.18852,-5.13733 2.68982,-12.03733 3.33616,-15.33733 2.39348,-12.22011 3.8143,-18.31677 7.30216,-31.33333 1.965,-7.33334 4.07039,-15.43334 4.67863,-18 1.39228,-5.87524 5.89188,-22.38627 8.72065,-32 2.24527,-7.63063 2.65364,-9.09104 6.97834,-24.95572 2.31665,-8.49838 16.5958,-39.02394 20.75881,-44.37762 0.85536,-1.1 2.69577,-4.1 4.0898,-6.66666 21.09584,-38.84131 73.555,-95.77936 120.62588,-130.92474 11.21625,-8.37458 52.28227,-35.67333 60.25277,-40.0532 4.7627,-2.61713 11.70843,-6.55617 15.43496,-8.75341 6.00226,-3.53907 47.52112,-24.05876 54.45563,-26.91339 1.46667,-0.60376 7.3094,-3.25569 12.98385,-5.89317 5.67446,-2.63748 10.60668,-4.79543 10.9605,-4.79543 0.35381,0 3.851,-1.46724 7.77154,-3.26053 3.92054,-1.79329 10.68832,-4.53599 15.03951,-6.09487 4.3512,-1.55889 9.11127,-3.34157 10.57793,-3.96152 1.46667,-0.61993 4.16667,-1.51776 6,-1.99513 1.83334,-0.47739 5.13334,-1.37548 7.33334,-1.99576 14.94132,-4.21265 20.79489,-5.71679 26.66666,-6.85225 3.66667,-0.70906 9.06667,-1.80759 12,-2.44118 2.93334,-0.63358 8.63334,-1.79989 12.66667,-2.5918 4.03333,-0.7919 11.83333,-2.38309 17.33333,-3.53596 5.5,-1.15288 13.3,-2.68822 17.33334,-3.41189 4.03333,-0.72367 10.63333,-1.92412 14.66666,-2.66768 4.03334,-0.74355 10.63332,-1.67511 14.66662,-2.07013 4.0334,-0.39502 8.0355,-1.29267 8.8937,-1.99478 2.5493,-2.08564 42.3131,-2.81878 59.773,-1.10208 8.8,0.86526 21.4,1.85467 28,2.19872 6.6,0.34406 12.57,1.18459 13.2667,1.86787 0.6966,0.68327 4.781,1.24231 9.0762,1.24231 4.2953,0 10.3253,0.55654 13.4,1.23677 3.0748,0.68023 11.8904,2.23591 19.5904,3.45707 7.7,1.22116 16.1,2.71256 18.6667,3.31422 2.5667,0.60167 7.96667,1.77534 11.99997,2.60814 11.6662,2.40885 18.7123,4.17752 28,7.02838 4.7667,1.46312 10.7667,3.14418 13.3334,3.73568 4.1968,0.96718 15.092,3.83263 30,7.89003 2.9333,0.79835 7.5833,2.03913 10.3333,2.75729 13.9253,3.6366 17.2861,4.59804 29,8.2962 6.9667,2.19943 14.7667,4.87692 17.3333,5.94999 25.7365,10.75977 52.5884,24.78559 71.1628,37.17108 17.0019,11.33705 18.0198,12.05672 32.9736,23.31353 5.425,4.08379 17.8909,12.90074 27.702,19.59322 9.852,6.72038 26.1189,19.68129 36.3338,28.94952 16.8706,15.30716 49.8288,51.227 58.8281,64.11438 2.0168,2.88814 9.3668,12.93307 16.3333,22.32206 6.9666,9.38898 12.6664,17.32733 12.6664,17.64077 0,0.31344 2.0374,3.75473 4.5274,7.64732 9.8582,15.41079 19.7396,42.13744 27.473,74.30768 0.617,2.56667 1.7694,7.13628 2.5607,10.15469 0.7915,3.01842 1.4389,7.07656 1.4389,9.0181 0,1.94153 0.5327,4.57192 1.1838,5.8453 0.6509,1.27339 2.1985,7.11524 3.439,12.98191 1.2406,5.86667 2.7631,12.76667 3.3836,15.33333 0.6204,2.56667 1.8215,8.26667 2.6691,12.66667 0.8476,4.4 2.0725,10.4 2.7219,13.33333 5.6849,25.67739 5.5416,22.9709 4.7846,90.27014 -0.8164,72.58408 -3.7921,121.70464 -8.2052,135.44224 -0.8112,2.52533 0.3732,4.46165 6.9327,11.33333 8.8281,9.24825 19.0905,22.46107 19.0905,24.57885 0,0.76024 0.8544,2.09138 1.8988,2.95807 2.4754,2.0544 11.6171,21.03643 15.4516,32.08404 6.412,18.47351 8.5714,32.67492 8.5146,56.00002 -0.087,35.5382 -7.183,60.1615 -25.5542,88.6667 -9.904,15.3673 -18.9038,25.5648 -33.3664,37.807 -14.7505,12.486 -29.1722,20.9436 -46.2777,27.1396 -8.6559,3.1353 -12.3132,4.2294 -25.6667,7.678 -7.9235,2.0463 -26.505,4.042 -37.6346,4.042 h -10.2107 l -14.4082,28.7226 c -7.9245,15.7975 -15.8343,30.8241 -17.5773,33.3926 -1.743,2.5685 -3.1691,5.2132 -3.1691,5.8772 0,0.664 1.7322,3.7874 3.8494,6.9408 7.3539,10.9534 11.6156,28.9186 10.2136,43.056 -1.956,19.725 -5.0396,55.3518 -6.1172,70.6775 -0.6188,8.8 -1.5188,20.5199 -1.9999,26.044 l -0.8748,10.044 7.1229,3.2893 c 14.4262,6.662 22.2063,16.897 23.4744,30.8811 0.6393,7.0509 1.0339,7.8593 4.1854,8.5761 7.4626,1.6972 15.7899,4.8456 22.7163,8.5883 3.9803,2.1508 8.0114,3.9105 8.9579,3.9105 0.9467,0 4.0933,-3.211 6.9927,-7.1357 7.6529,-10.3593 29.3738,-32.1544 34.8126,-34.9315 9.3904,-4.7946 24.6518,-6.9505 32.5266,-4.5946 18.6844,5.5897 28.5806,16.0864 30.7934,32.6618 1.2416,9.3002 1.216,11.1818 -0.2448,18 -2.6193,12.2251 -4.5308,15.1634 -57.3705,88.188 -1.6291,2.2515 -4.2023,5.6802 -5.7181,7.6195 -10.6624,13.6397 -13.675,18.7375 -23.7515,40.1925 -1.8943,4.0334 -5.2721,10.3334 -7.5063,14 -2.2341,3.6667 -4.9621,8.3135 -6.0621,10.3264 -5.5349,10.128 -26.177,32.8232 -37.5879,41.3266 l -4.902,3.653 -0.068,19.6803 c -0.063,18.2268 -1.6823,47.7101 -3.6283,66.0559 l -0.8178,7.7086 -14.8314,-0.3753 -14.8314,-0.3755 0.2916,-4.6666 c 0.1603,-2.5667 1.023,-13.0667 1.9171,-23.3334 0.8941,-10.2666 1.6629,-26.0536 1.7085,-35.0821 l 0.083,-16.4155 -16.6666,-0.3144 c -20.562,-0.3877 -27.4545,-2.1044 -47.675,-11.874 -3.1213,-1.508 -5.9687,-2.4481 -6.3276,-2.0892 -0.359,0.359 -0.9778,3.6052 -1.3754,7.2139 -0.3975,3.6088 -1.2667,9.5613 -1.9317,13.228 -0.6649,3.6667 -1.9022,11.1667 -2.7494,16.6667 -1.4387,9.3386 -3.7023,19.0837 -6.6807,28.7613 -0.6931,2.252 -1.2602,5.3667 -1.2602,6.9213 0,1.5547 -0.6,3.1975 -1.3334,3.6507 -0.7333,0.4532 -1.3423,2.1387 -1.3534,3.7453 -0.011,1.6068 -0.8542,5.3214 -1.8737,8.2547 l -1.8536,5.3333 -15.4596,0.3756 c -14.6572,0.3562 -15.4597,0.2383 -15.4597,-2.2705 0,-1.4555 0.5449,-4.0245 1.2108,-5.7089 1.8021,-4.5591 7.058,-22.2938 8.4154,-28.3962 4.5029,-20.2436 5.2347,-23.9605 8.4001,-42.6666 1.2409,-7.3334 2.5511,-18.5502 2.9116,-24.9264 l 0.6553,-11.593 -11.6764,-11.7404 c -18.9386,-19.0422 -40.2187,-47.2649 -47.56,-63.0762 -7.0865,-15.2624 -7.6901,-17.548 -7.6901,-29.1188 0,-12.3102 3.3943,-24.5323 11.301,-40.6931 3.3378,-6.8223 3.4559,-7.6059 1.5554,-10.3192 -4.3482,-6.2079 -15.1402,-16.4909 -21.5231,-20.5079 -7.8134,-4.9173 -21.3179,-11.3584 -23.8142,-11.3584 -0.9577,0 -2.1525,-0.4112 -2.6551,-0.9137 -0.5026,-0.5027 -3.1526,-1.6936 -5.8889,-2.6467 -9.81,-3.4168 -9.177,-6.142 -8.6459,37.2271 0.2627,21.45 1.0461,41.8795 1.7409,45.3989 0.6948,3.5195 1.2632,8.6606 1.2632,11.4247 0,5.1745 2.9278,16.9559 5.6767,22.8431 0.8561,1.8333 4.729,7.9246 8.6066,13.5364 3.8775,5.6116 7.0501,10.8116 7.0501,11.5554 0,0.744 0.4527,1.5526 1.0061,1.7971 1.6006,0.7069 12.5088,18.0619 16.0819,25.5861 1.7913,3.772 3.8733,9.2583 4.6266,12.1916 0.7534,2.9334 1.8004,26.9334 2.3268,53.3334 0.5264,26.4 1.5754,51 2.331,54.6666 0.7557,3.6667 1.8096,8.9167 2.3419,11.6667 l 0.9679,5 h -22.0318 c -18.8601,0 -22.1483,-0.3036 -22.8411,-2.1091 -0.4451,-1.16 -0.8093,-26.9897 -0.8093,-57.3994 0,-48.2323 -0.2742,-55.8208 -2.148,-59.4443 -1.1814,-2.2845 -8.2786,-13.5048 -15.7717,-24.9339 -22.4645,-34.2648 -23.0297,-35.8229 -28.7173,-79.1677 -0.7497,-5.7133 -1.363,-20.168 -1.363,-32.1215 0,-11.9533 -0.3937,-30.8289 -0.8749,-41.9454 -0.8066,-18.6363 -1.0716,-20.212 -3.3995,-20.212 -5.6665,0 -9.6875,3.5716 -11.4788,10.1961 -4.4963,16.6268 -6.2762,21.7819 -10.50147,30.4139 -6.9614,14.2216 -16.8488,25.3545 -31.0787,34.9936 -6.8397,4.633 -22.0239,12.8492 -26,14.0685 -1.4667,0.4499 -5.3667,1.8371 -8.6667,3.0829 -8.3172,3.1399 -14.4584,4.4454 -30.6666,6.5188 -11.8521,1.5163 -16.1479,1.5039 -28,-0.081 -20.6015,-2.7544 -29.2996,-5.2165 -45.3334,-12.8319 -15.12676,-7.1846 -25.37302,-14.6193 -36.962,-26.8194 -9.81144,-10.329 -14.5912,-18.1911 -17.55451,-28.8751 -0.91528,-3.3 -2.22349,-7.8425 -2.90713,-10.0947 -0.68364,-2.252 -1.24299,-5.663 -1.24299,-7.5798 0,-7.916 -2.98944,-11.5848 -11,-13.4998 l -3.66667,-0.8765 v 11.8459 c 0,33.8129 -3.63945,84.1913 -7.528,104.2049 -4.38058,22.546 -7.20865,29.0115 -26.5364,60.6667 -8.45818,13.8529 -13.02465,22.5682 -14.18705,27.0769 -0.99093,3.8435 -2.88265,60.3348 -3.65865,109.2564 l -0.09,5.6669 h -28.66666 c -28.06556,0 -28.66667,-0.057 -28.66667,-2.7495 0,-2.5981 1.11189,-6.6056 6.63607,-23.9172 1.28705,-4.0333 3.01252,-9.7333 3.83437,-12.6666 0.82187,-2.9334 3.00223,-10.1167 4.84525,-15.9631 2.69464,-8.5477 3.3506,-13.3789 3.34906,-24.6667 -0.003,-16.413 2.32668,-42.3561 4.10124,-45.6854 0.6787,-1.2735 1.23401,-3.1799 1.23401,-4.2366 0,-2.8768 12.99853,-27.1302 20.19896,-37.6885 2.09057,-3.0655 3.80104,-5.9037 3.80104,-6.3075 0,-0.4036 1.96804,-3.8954 4.37341,-7.7597 7.22971,-11.6145 7.23891,-11.6413 11.10994,-32.3592 2.05001,-10.9717 3.5625,-32.4956 5.27028,-75 0.84633,-21.064 0.71182,-24.3333 -1.0011,-24.3333 -2.48602,0 -18.29797,4.9468 -21.4011,6.6953 -1.27339,0.7176 -3.19347,1.3047 -4.26686,1.3047 -2.98565,0 -15.61249,7.3317 -19.91689,11.5646 -4.83764,4.7574 -14.16089,16.9507 -14.1886,18.5566 -0.012,0.6666 2.79057,6.9121 6.22684,13.8788 6.86931,13.9268 7.52721,15.539 9.52124,23.3333 2.83447,11.0793 3.95777,20.0333 2.79077,22.2457 -0.65153,1.2351 -1.1846,4.0932 -1.1846,6.3514 0,2.2581 -0.48812,5.1476 -1.0847,6.421 -4.40115,9.394 -14.42776,28.2464 -16.47764,30.9819 -1.37384,1.8333 -5.59323,7.5036 -9.37644,12.6007 -3.7832,5.097 -7.81966,10.4862 -8.96988,11.9758 -1.15024,1.4898 -8.30118,9.113 -15.89098,16.9407 l -13.79965,14.2321 0.75897,12.4587 c 1.13388,18.6132 3.4755,34.2567 8.15168,54.4587 3.92059,16.9376 4.46511,19.1708 5.93332,24.3333 0.7821,2.75 1.95122,6.95 2.59806,9.3333 0.64684,2.3834 1.87133,6.0868 2.72109,8.2299 2.72545,6.8737 1.62352,7.4368 -14.55499,7.4368 h -14.7415 l -1.47092,-3.6667 c -0.80902,-2.0166 -1.94847,-5.7666 -2.53214,-8.3333 -2.00553,-8.8195 -6.94853,-27.336 -8.00849,-30 -0.58356,-1.4667 -1.44392,-5.6667 -1.91191,-9.3333 -0.46798,-3.6667 -1.34441,-9.6667 -1.9476,-13.3334 -0.60318,-3.6666 -1.87636,-11.7666 -2.82926,-18 -0.95291,-6.2333 -1.91656,-11.5796 -2.14147,-11.8805 -0.22489,-0.3011 -3.26265,0.8249 -6.75056,2.5023 -3.48791,1.6772 -7.54165,3.4986 -9.00832,4.0478 -1.46667,0.5491 -4.24275,1.6266 -6.16907,2.3943 -10.09505,4.0235 -21.48758,5.7628 -35.08905,5.3571 -11.97627,-0.3572 -14.21479,-0.1 -14.78363,1.7008 -0.52184,1.6518 1.92807,37.5294 5.09031,74.5449 l 0.28477,3.3333 -14.9315,0.3764 -14.93152,0.3763 z m 65.68467,-116.5766 c 12.35008,-5.3207 13.74806,-6.0894 24.14844,-13.2798 10.97716,-7.589 31.57706,-26.295 36.29602,-32.959 l 2.99363,-4.2276 -3.73283,2.4217 c -2.05305,1.332 -4.74322,3.2556 -5.97816,4.2747 -9.2857,7.6629 -27.26069,20.0944 -32.02254,22.1469 -8.06194,3.4748 -21.12647,3.3324 -28.88562,-0.3149 -7.29052,-3.427 -15.65645,-11.3427 -19.11729,-18.0886 -2.48011,-4.8342 -2.85285,-5.0309 -9.94472,-5.2492 -9.20375,-0.2832 -19.43851,-5.5436 -25.58868,-13.1521 -4.19003,-5.1835 -31.35315,-46.9661 -31.35315,-48.2277 0,-0.6142 -14.48118,-19.1955 -15.95892,-20.4775 -0.42268,-0.3667 -7.33316,-8.4667 -15.35662,-18 -8.02348,-9.5333 -14.92555,-17.6333 -15.33794,-18 -0.41238,-0.3667 -5.45553,-6.2119 -11.20701,-12.9895 -14.28287,-16.8308 -22.62765,-21.5725 -26.20425,-14.8896 -2.50491,4.6806 0.81716,10.7498 20.73368,37.8791 5.39324,7.3464 25.97065,35.8027 41.45914,57.3333 1.05508,1.4667 4.60158,6.2667 7.88111,10.6667 3.27953,4.4 5.96909,8.7581 5.9768,9.6848 0.008,0.9265 0.58103,2.7265 1.27404,4 0.69301,1.2733 4.00444,8.0152 7.35873,14.9819 7.61104,15.8077 9.3084,18.7289 16.6568,28.6666 12.28036,16.6076 29.0844,29.1911 42.05778,31.4944 9.17478,1.6291 25.67461,-0.1718 33.85156,-3.6946 z M 1286,1653.8821 c 5.1333,-2.534 11.7352,-6.8634 14.6707,-9.621 9.6199,-9.0366 24.6626,-28.6812 24.6626,-32.2074 0,-0.688 0.45,-1.4508 1,-1.6953 0.55,-0.2444 3.3156,-5.2444 6.1456,-11.1111 2.83,-5.8666 5.68,-11.7085 6.3334,-12.9818 0.6532,-1.2735 1.1877,-2.9523 1.1877,-3.7308 0,-1.2842 7.6723,-13.9967 10.7083,-17.743 4.2669,-5.2653 8.3788,-10.8724 15.3104,-20.8777 4.3182,-6.2333 8.2196,-11.6333 8.6696,-12 0.45,-0.3667 5.2402,-6.9667 10.645,-14.6667 5.4048,-7.7 10.2043,-14.3 10.6655,-14.6666 1.5877,-1.2623 18.3259,-26.0067 20.5639,-30.4 2.7156,-5.3308 1.71,-9.3135 -2.6266,-10.4019 -5.225,-1.3113 -13.496,5.2044 -26.2434,20.6748 -6.4024,7.7699 -17.1188,20.4271 -23.8143,28.1271 -6.6953,7.7 -13.4696,15.5 -15.0537,17.3333 -1.5842,1.8333 -4.6678,5.7215 -6.8526,8.6401 -2.1846,2.9188 -4.7124,6.2188 -5.6173,7.3334 -1.6276,2.0049 -7.1665,10.575 -25.6431,39.6766 -12.4306,19.5788 -20.093,25.4227 -34.3426,26.1919 -5.7657,0.3112 -7.9034,1.0089 -8.9695,2.928 -5.2349,9.4232 -9.1782,13.6831 -16.8751,18.23 -7.4958,4.4281 -9.478,5 -17.3313,5 -12.0068,0 -20.0642,-3.6444 -35.8599,-16.2196 -10.4144,-8.2912 -17.6341,-13.2573 -18.3021,-12.5893 -1.3875,1.3874 25.8296,27.1232 36.3021,34.3264 14.3242,9.8524 28.6075,16.4764 38,17.623 11.3935,1.3911 23.1377,-0.4685 32.6667,-5.1724 z M 565.18263,1612.914 c 19.52533,-13.7955 30.19944,-21.5073 30.81737,-22.2652 0.36667,-0.4496 10.56667,-7.9984 22.66667,-16.7748 32.37326,-23.4815 32,-23.1457 32,-28.7796 0,-4.2521 -4.30891,-13.45 -11.01146,-23.5052 -8.46725,-12.7025 -20.86404,-16.0057 -31.40712,-8.3683 -3.01694,2.1855 -15.25697,13.4839 -27.20005,25.1076 -11.94309,11.6236 -27.62192,26.776 -34.84184,33.6718 -7.21992,6.8958 -13.96992,14.1676 -15,16.1596 -2.7454,5.3089 -2.33371,14.3152 0.89657,19.6138 5.23754,8.5911 8.81142,10.7116 18.14507,10.7664 6.02065,0.036 7.95131,-0.692 14.93479,-5.6261 z m 678.10747,2.6667 c 9.6059,-6.2838 12.9937,-19.7068 7.0991,-28.1275 -4.3616,-6.2308 -71.635,-71.476 -78.3525,-75.9904 -4.1221,-2.7701 -13.5831,-2.8632 -18.7629,-0.1847 -8.4678,4.3788 -21.2738,25.1671 -21.2738,34.5342 0,4.8912 -0.056,4.842 33.3333,29.2997 7.7,5.6404 14.9,10.9867 16,11.8809 1.1,0.8942 4.1,3.0856 6.6667,4.87 7.4008,5.1451 29.9321,21.8008 30.6667,22.6696 3.948,4.6698 18.1622,5.2748 24.6234,1.0482 z m -731.67682,-24 c 0.70021,-0.9167 2.08636,-3.7667 3.08032,-6.3334 0.99395,-2.5666 3.75051,-7.5933 6.12569,-11.1704 3.64795,-5.4937 4.11422,-7.0465 3.00287,-10 -2.49619,-6.6336 -16.90876,-34.572 -21.69235,-42.05 -2.63806,-4.1238 -4.79648,-7.7802 -4.79648,-8.1252 0,-0.3449 -2.60009,-4.6834 -5.77797,-9.6413 -3.17788,-4.9579 -6.02788,-9.6229 -6.33333,-10.3669 -1.69456,-4.1275 -10.05511,-16.6806 -11.4715,-17.224 -2.32885,-0.8938 -14.24714,2.8206 -20.86972,6.5041 -6.08389,3.3837 -11.49076,11.3333 -11.52554,16.9456 -0.0285,4.6005 4.35401,12.1831 30.50258,52.7749 21.22475,32.9483 25.44695,38.1174 32.15962,39.3708 5.7396,1.0719 6.29237,1.0222 7.59581,-0.6842 z m 768.88672,0.3317 c 2.3539,0 7.7964,-5.3601 13.2075,-13.0015 2.7276,-3.8517 4.9592,-7.3089 4.9592,-7.6826 0,-1.1296 12.5909,-19.9474 13.6666,-20.4254 0.55,-0.2445 1,-1.0037 1,-1.6872 0,-1.5258 9.6119,-16.3625 11,-16.9794 0.55,-0.2446 1,-1.0728 1,-1.8408 0,-0.768 2.0604,-4.2643 4.5787,-7.7695 11.3273,-15.7669 13.0032,-25.1345 6.0132,-33.6144 -4.6251,-5.6112 -11.1376,-9.0139 -22.4188,-11.7137 -3.8634,-0.9246 -4.9387,-0.5952 -7.6667,2.3484 -1.7452,1.883 -3.173,3.8613 -3.173,4.3962 0,0.5348 -4.8816,8.9972 -10.8479,18.8052 -5.9663,9.8082 -11.8929,19.633 -13.1702,21.833 -8.1858,14.0986 -11.9819,21.0536 -11.9819,21.952 0,0.566 -2.1,5.1297 -4.6667,10.1417 -2.5667,5.012 -4.6667,9.6845 -4.6667,10.3836 0,0.6991 1.443,3.1628 3.2066,5.4749 2.9679,3.8912 7.3636,12.6218 9.3364,18.5436 0.6637,1.9924 1.6679,2.3287 4.9776,1.6667 2.2803,-0.456 4.8211,-0.8299 5.6461,-0.8308 z m -723.33175,-53.2867 c 15.17336,-14.9584 16.8365,-17.8776 13.51948,-23.7298 -1.453,-2.5635 -7.2124,-15.4186 -15.22477,-33.9819 -2.66275,-6.1691 -7.33141,-16.7696 -10.12963,-23 -1.31744,-2.9333 -3.62209,-8.1039 -5.12145,-11.49 -4.15024,-9.3729 -9.33919,-11.8433 -24.87607,-11.8433 -6.90293,0 -12.88117,0.5977 -13.33581,1.3333 -0.45323,0.7333 -1.87639,1.3333 -3.16257,1.3333 -2.78068,0 -8.36439,5.8352 -10.5859,11.0628 -2.92841,6.891 -2.00124,10.7903 3.85376,16.2075 3.7271,3.4485 7.56731,9.4952 12.20284,19.2143 8.88236,18.6232 24.80682,50.8057 26.81023,54.1821 7.67211,12.9301 9.26712,15.3333 10.17659,15.3333 0.57286,0 7.71585,-6.5797 15.8733,-14.6216 z m 686.45585,12.2883 c 0.4806,-1.2833 3.3185,-6.2333 6.3065,-11 2.9879,-4.7667 7.5851,-13.1667 10.2159,-18.6667 2.6307,-5.5 7.8203,-16.3 11.5323,-24 3.712,-7.7 8.0302,-16.8773 9.5961,-20.394 1.5658,-3.5166 5.2196,-8.6964 8.1194,-11.5105 4.563,-4.4283 5.2724,-5.9041 5.2724,-10.9689 0,-4.5444 -0.9003,-6.9444 -4.0282,-10.7391 -6.1288,-7.4353 -10.5353,-9.0541 -24.6462,-9.0541 -10.5247,0 -12.8896,0.4256 -16.67,3 -4.5629,3.1072 -5.1089,3.865 -8.4058,11.6666 -1.0847,2.5667 -3.8664,8.8667 -6.1816,14 -2.3151,5.1334 -4.7178,10.5334 -5.3392,12 -0.6215,1.4667 -2.4481,5.6667 -4.0591,9.3334 -3.0844,7.0198 -5.6619,12.9362 -9.0036,20.6666 -1.1095,2.5667 -3.1411,7.0352 -4.5147,9.93 -1.3736,2.895 -2.192,6.2259 -1.8187,7.4022 0.8371,2.6376 29.541,30.6678 31.4048,30.6678 0.7403,0 1.7392,-1.05 2.2197,-2.3333 z m -342.68687,-33.6348 c 3.0822,-0.017 6.9822,-0.5551 8.6667,-1.1947 1.6845,-0.6396 5.4627,-1.8988 8.3961,-2.7984 17.7098,-5.4312 36.6042,-18.982 42.5798,-30.5376 2.744,-5.3061 2.4177,-5.8232 -2.6678,-4.2268 -3.7688,1.1831 -9.9628,2.8136 -21.2454,5.5927 -2.9333,0.7225 -7.2444,1.8977 -9.5802,2.6117 -4.2613,1.3024 -17.7479,3.2116 -33.5568,4.7504 -10.0731,0.9806 -32.8414,-1.8813 -49.5296,-6.2257 -2.5667,-0.6683 -7.0667,-1.8149 -10,-2.5483 -2.9334,-0.7333 -7.7334,-1.9338 -10.6667,-2.6678 -13.13474,-3.287 -12.66666,-3.2668 -12.66666,-0.5439 0,6.3415 21.20846,24.5064 34.66666,29.6919 4.5941,1.77 9.0483,3.5477 16.3961,6.544 2.0511,0.8364 6.5511,1.5916 10,1.6784 3.4488,0.087 8.0706,0.566 10.2706,1.0649 2.2,0.4989 6.1,0.4423 8.6666,-0.1253 2.5667,-0.5682 7.1885,-1.0474 10.2706,-1.0648 z m -304.95844,-16.1975 c 0.37833,-0.4576 2.61733,-1.9986 4.97554,-3.4242 l 4.28766,-2.5923 -3.47638,-5.2423 c -7.3045,-11.015 -14.40476,-19.5513 -17.12138,-20.5841 -2.8799,-1.0949 -5.20276,-8.4781 -6.4993,-20.6581 -0.31224,-2.9334 -1.5615,-11.0334 -2.77614,-18 -1.21464,-6.9667 -2.81427,-16.8667 -3.55474,-22 -0.74046,-5.1334 -1.8958,-12.9334 -2.56741,-17.3334 -0.67161,-4.4 -1.8016,-11.9 -2.51107,-16.6666 -0.70948,-4.7667 -2.24378,-14.3667 -3.4096,-21.3334 -1.1658,-6.9666 -2.73582,-16.8666 -3.48893,-22 -3.01117,-20.5246 -3.62757,-24.1841 -4.83785,-28.7214 -1.79327,-6.723 -8.13212,-15.7731 -12.7035,-18.1371 -3.63464,-1.8795 -4.10602,-1.8249 -6.90028,0.8002 -6.73186,6.3243 -7.19441,15.0194 -3.40766,64.0583 0.76446,9.9 1.94988,25.8 2.63426,35.3334 2.38699,33.2504 2.7279,35.2505 6.43387,37.7469 8.48973,5.7191 11.66921,10.3971 19.6558,28.9197 2.17141,5.036 7.75836,17.4752 12.76743,28.4264 2.11982,4.6344 3.85422,8.6819 3.85422,8.9943 0,0.3124 2.12192,5.1619 4.71536,10.7765 l 4.71538,10.2084 4.26342,-3.8694 c 2.34488,-2.1283 4.57296,-4.244 4.9513,-4.7018 z m 602.64551,2.592 c 0.023,-0.4989 1.7768,-4.6989 3.8966,-9.3333 7.991,-17.4704 13.9254,-30.8565 16.1488,-36.4264 0.5855,-1.4667 2.389,-5.6477 4.0078,-9.2912 1.6188,-3.6436 3.4189,-7.8436 4.0003,-9.3333 1.9237,-4.9302 9.0986,-13.7594 13.1039,-16.1254 4.665,-2.7556 4.872,-3.7102 7.7867,-35.9168 2.9883,-33.0189 4.1941,-49.5948 5.1908,-71.3572 0.7918,-17.289 0.6206,-19.9102 -1.603,-24.5331 -4.9967,-10.3885 -10.8871,-10.3883 -18.1886,6e-4 -4.8723,6.9325 -7.4685,17.2634 -11.6997,46.5564 -0.7415,5.1333 -1.8819,12.9333 -2.5342,17.3333 -0.6523,4.4 -1.8031,12.2 -2.5572,17.3334 -3.1898,21.7117 -4.2487,28.1104 -4.9646,30 -0.4167,1.1 -1.3163,6.5 -1.9989,12 -0.6827,5.5 -1.8069,13.9 -2.4983,18.6666 -0.6913,4.7667 -1.8813,13.1667 -2.6443,18.6667 -1.7448,12.5759 -3.5069,16.9028 -7.2679,17.8468 -1.813,0.4549 -6.2607,5.5017 -11.4159,12.9532 -7.4685,10.7953 -8.18,12.3564 -6.1495,13.4927 1.2628,0.7068 5.4011,3.8248 9.1962,6.9289 6.0705,4.9653 7.0953,5.3915 8.5243,3.5444 0.8933,-1.1547 1.6433,-2.5075 1.6667,-3.0063 z m -39.237,-46.2044 c 9.2315,-12.2094 8.8315,-11.318 10.8178,-24.1068 0.978,-6.2966 2.4347,-15.6485 3.2371,-20.7818 3.2884,-21.0379 3.7775,-24.2978 4.6512,-31 0.5019,-3.85 0.3862,-6.9708 -0.2571,-6.9351 -0.6433,0.036 -4.4696,2.4319 -8.503,5.3248 -9.7299,6.9787 -40.6948,27.5788 -49.0179,32.6103 -3.6393,2.2 -13.8937,7.6 -22.7876,12 -8.894,4.4 -15.9826,8.5805 -15.7527,9.29 0.23,0.7094 3.9747,2.7121 8.3216,4.4504 4.3468,1.7384 11.6952,4.9078 16.3297,7.0434 4.6345,2.1355 8.6321,3.8828 8.8836,3.8828 1.8587,0 15.875,10.6159 22.9545,17.3856 l 8.6316,8.254 2.8853,-4.2645 c 1.5869,-2.3455 5.9096,-8.2644 9.6059,-13.1531 z m -518.00174,-0.5553 c 10.17605,-9.816 19.40071,-15.3285 35.28111,-21.0832 13.31456,-4.8248 13.24577,-5.2488 -2.11786,-13.0505 -14.26225,-7.2426 -16.66989,-8.657 -37.38076,-21.9584 -11.26766,-7.2366 -15.82374,-10.3236 -30.3724,-20.5791 l -3.20436,-2.2588 0.86731,4.6317 c 1.36427,7.2856 5.60113,36.8978 7.33969,51.2983 0.53122,4.4 1.78958,9.4893 2.79636,11.3096 2.48642,4.4953 15.16046,21.3571 16.05302,21.3571 0.39418,0 5.22624,-4.35 10.73789,-9.6667 z m 264.17937,-3.7705 c 17.3167,-3.5046 26.1154,-5.3916 30.7684,-6.5988 2.75,-0.7136 7.25,-1.8783 10,-2.5883 11.3215,-2.9231 29.0847,-8.5537 30.2667,-9.5941 0.6966,-0.6132 2.6112,-1.115 4.2546,-1.115 1.6434,0 3.3588,-0.6 3.812,-1.3333 0.4533,-0.7333 1.8259,-1.3333 3.0504,-1.3333 1.9,0 14.69187,-4.3183 23.61627,-7.9724 1.4667,-0.6006 4.7667,-1.8227 7.3334,-2.716 2.5666,-0.8934 6.4666,-2.3639 8.6666,-3.2679 2.2,-0.904 6.1,-2.3943 8.6667,-3.3116 7.9745,-2.8501 9.3158,-3.4671 36,-16.5573 31.0545,-15.2342 36.8043,-18.4547 53.3333,-29.8728 25.2648,-17.4528 36.8685,-26.6815 52.3506,-41.6354 9.7956,-9.4613 10.431,-10.4309 11.7957,-18 3.5501,-19.6904 9.6792,-33.467 19.7744,-44.4478 7.316,-7.9578 21.9921,-16.2188 28.8134,-16.2188 4.5743,0 5.2068,-0.6934 12.4676,-13.6667 1.5391,-2.75 4.0775,-7.25 5.6409,-10 5.4324,-9.5555 11.2601,-21.0578 15.7066,-31 6.8262,-15.2634 10.608,-24.3419 14.7188,-35.3333 1.6456,-4.4 3.5024,-9.2 4.1262,-10.6667 0.6238,-1.4667 3.3395,-9.5667 6.0348,-18 2.6953,-8.4333 5.3498,-16.5333 5.8988,-18 0.549,-1.4667 3.2469,-9.8667 5.9953,-18.6667 2.7483,-8.8 5.2941,-16.9 5.6573,-18 0.3632,-1.1 1.1495,-3.8 1.7474,-6 0.598,-2.2 2.0765,-7.3 3.2857,-11.3333 1.2091,-4.0333 2.7508,-9.5833 3.4258,-12.3333 0.6751,-2.75 1.8,-7.25 2.4998,-10 2.216,-8.7084 7.7944,-32.8622 9.6229,-41.66672 2.3854,-11.48557 6.0415,-34.51529 7.3164,-46.08528 0.697,-6.32519 0.5031,-6.90905 -3.0672,-9.23745 -5.7638,-3.75891 -14.5932,-13.26171 -18.4727,-19.8815 -5.0142,-8.5562 -6.7345,-14.7067 -9.9184,-35.46244 -1.4615,-9.52722 -5.3655,-34.6381 -6.8407,-44 -0.6355,-4.03333 -1.7759,-10.78333 -2.5341,-15 -0.7582,-4.21666 -1.8869,-10.81666 -2.5081,-14.66666 -0.6212,-3.85 -1.7718,-9.7 -2.5568,-13 -0.7851,-3.3 -2.1216,-9.6 -2.97,-14 -0.8484,-4.4 -2.0682,-10.1 -2.7106,-12.66667 -0.6424,-2.56667 -1.5049,-6.30007 -1.9167,-8.29643 -0.8602,-4.1702 -5.5461,-9.0369 -8.7011,-9.0369 -1.1818,0 -2.7186,-0.51427 -3.4153,-1.1428 -0.6967,-0.62855 -6.0667,-3.08591 -11.9333,-5.46082 -15.7634,-6.38117 -26.046,-12.46041 -33.2455,-19.65517 -6.5024,-6.49807 -14.0879,-16.58359 -14.0879,-18.73101 0,-0.64679 -1.142,-3.5398 -2.5379,-6.4289 -3.2096,-6.64313 -5.3369,-17.44448 -6.9421,-35.24797 -1.5352,-17.02644 -3.2111,-29.55515 -4.9047,-36.66667 -3.2555,-13.66953 -4.5966,-18.91674 -5.6226,-22 -0.6101,-1.83333 -1.4554,-4.92744 -1.8785,-6.87578 -0.4231,-1.94835 -3.9219,-6.75056 -7.7751,-10.67158 -7.125,-7.25048 -28.5062,-24.61278 -34.4203,-27.95056 -1.7886,-1.00948 -4.4521,-2.80006 -5.9188,-3.9791 -2.5938,-2.08514 -12.5988,-7.37632 -19.3333,-10.22454 -1.8333,-0.77536 -10.8333,-2.41704 -20,-3.64818 -9.1667,-1.23114 -17.264,-2.60756 -17.9941,-3.05872 -1.2582,-0.77755 -3.5996,-1.22784 -22.6726,-4.36051 -4.4,-0.72268 -13.7909,-1.83465 -20.8686,-2.47104 -7.0778,-0.63639 -14.8453,-1.59123 -17.2613,-2.12185 -2.4159,-0.53063 -29.62497,-1.4891 -60.46467,-2.12995 -30.8396,-0.64084 -66.5292,-1.68316 -79.3101,-2.31625 -47.7975,-2.36766 -113.71422,3.59758 -167.42863,15.15172 -15.92528,3.42558 -27.23664,5.60569 -44,8.48042 -7.89685,1.35423 -13.57041,2.72664 -24,5.80552 -6.31679,1.86476 -31.8594,14.38542 -41.33333,20.26106 C 609,577.41199 604.2,580.16593 602,581.25782 c -2.2,1.09188 -4.3,2.2862 -4.66667,2.65404 -0.36666,0.36783 -4.23925,2.46879 -8.60576,4.66879 -6.1363,3.09169 -8.20229,4.9083 -9.09817,8 -2.11327,7.29294 -5.15508,22.53602 -6.38571,32 -0.6675,5.13333 -1.48805,11.13333 -1.82345,13.33333 -0.33539,2.2 -1.32123,14.8 -2.19073,28 -0.86952,13.2 -2.33534,27 -3.25735,30.66667 -3.99081,15.87057 -15.32245,33.73564 -27.50751,43.36737 -7.46868,5.90364 -27.10764,15.94649 -31.27972,15.99561 -6.15209,0.0724 -17.42742,15.96615 -21.73453,30.63702 -0.96883,3.3 -2.29151,7.73953 -2.93928,9.86562 -0.64779,2.12611 -1.18487,24.32611 -1.19353,49.33334 -0.0144,41.60185 -0.2501,46.37462 -2.77215,56.13437 -1.51601,5.86667 -3.25313,12.76667 -3.86025,15.33333 -3.33416,14.09544 -8.04667,22.78186 -17.27514,31.8427 -3.44917,3.38652 -8.62746,7.27334 -11.5073,8.6374 -2.87984,1.36405 -6.13608,2.94008 -7.23608,3.50228 -1.1,0.56221 -1.87323,2.44617 -1.7183,4.18657 0.66252,7.44189 4.24539,26.21159 7.73042,40.49774 1.25225,5.1333 2.57518,11.5871 2.93986,14.3417 0.36467,2.7546 1.19966,5.34 1.85552,5.7453 0.65587,0.4054 1.1925,2.4734 1.1925,4.5956 0,2.1222 0.53121,5.2368 1.18048,6.9213 1.07213,2.7816 3.01782,9.5773 6.98497,24.3961 0.78528,2.9333 1.96931,6.3752 2.63116,7.6486 0.66187,1.2734 1.20339,3.5315 1.20339,5.0181 0,1.4865 0.54582,3.7447 1.21294,5.0181 0.66712,1.2733 3.43828,9.5152 6.15814,18.3152 2.71984,8.8 5.4259,17.2 6.01346,18.6667 0.58758,1.4666 2.66452,7.1666 4.61546,12.6666 1.95093,5.5 4.03849,11.2 4.63901,12.6667 0.60052,1.4667 1.81297,4.7667 2.69432,7.3333 0.88135,2.5667 2.10132,5.8667 2.71105,7.3334 1.7318,4.1657 5.10984,12.2408 7.11158,17 9.0894,21.6102 18.91193,40.9864 31.01338,61.1781 l 4.50186,7.5115 8.33106,0.5471 c 21.12744,1.3874 40.00016,19.2784 47.57128,45.0966 3.70234,12.6253 5.42646,20.7907 5.42646,25.6994 0,4.44 2.03522,7.2527 10.83022,14.9673 13.47494,11.8196 34.13454,27.7454 45.16978,34.8201 3.3,2.1156 6.2,4.2965 6.44444,4.8465 0.24445,0.55 1.0073,1 1.69525,1 0.68795,0 3.48795,1.4514 6.22223,3.2254 13.0018,8.4352 51.03057,27.6009 67.63808,34.0882 10.87501,4.248 20.71386,7.974 24.66666,9.3414 2.56667,0.8877 5.86667,2.1054 7.33334,2.706 9.8192,4.0205 25.22924,9.1545 64.09466,21.3538 2.2521,0.7068 5.3667,1.2852 6.9213,1.2852 1.5547,0 3.1583,0.5367 3.5637,1.1926 0.4053,0.6558 2.9907,1.5114 5.7453,1.9014 2.7546,0.3899 10.7084,1.8776 17.675,3.3059 14.4709,2.9669 32.5207,3.5964 42.8983,1.4963 z m -64.8983,-97.9591 c -10.2894,-2.5005 -13.3646,-4.1488 -15.1817,-8.1368 -1.12,-2.4581 -1.0444,-4.2729 0.3132,-7.5201 2.5953,-6.2075 6.935,-8.061 16.3634,-6.989 4.3112,0.4902 30.3055,1.3002 57.7652,1.8 l 49.9268,0.9088 2.5521,4.3724 c 2.2036,3.7752 2.3245,4.922 0.8855,8.3963 -3.4393,8.3031 -4.9472,8.5356 -57.2911,8.8387 -37.6556,0.218 -48.969,-0.124 -55.3334,-1.6703 z m 2,-56.7252 c -36.9154,-2.088 -79.89554,-5.8103 -113.99996,-9.8729 -10.101,-1.2032 -19.14975,-3.8705 -32,-9.4325 C 688.21645,1275.4963 680,1263.2807 680,1254.375 c 0,-4.5275 3.38448,-13.244 5.71839,-14.7272 2.60533,-1.6557 13.83162,-1.2167 15.33104,0.5995 0.75677,0.9167 2.18024,4.964 3.16325,8.9941 1.58584,6.5013 2.36277,7.5978 6.89216,9.7265 11.82037,5.5553 27.29964,7.7324 81.56183,11.4716 12.46666,0.859 25.22528,2.1422 28.35246,2.8515 7.3741,1.6726 119.4548,1.7005 124.8862,0.031 2.2521,-0.6922 17.2947,-1.9647 33.428,-2.8279 36.52557,-1.9541 54.08577,-3.3908 62.66667,-5.127 3.6667,-0.7419 9.9667,-1.9246 14,-2.6281 16.3277,-2.8482 20,-6.1276 20,-17.8601 0,-5.2323 0.6938,-7.8736 2.6079,-9.9281 5.2073,-5.5894 14.1411,-5.0816 19.9307,1.1328 2.3765,2.5509 2.7947,4.6721 2.7947,14.1748 0,10.2592 -0.3309,11.656 -4.0379,17.044 -6.0216,8.752 -16.7385,15.3946 -29.2182,18.1101 -21.432,4.6633 -32.9797,6.2415 -57.4105,7.8459 -9.9,0.6502 -31.20007,2.1514 -47.33337,3.3361 -35.2738,2.5901 -92.2676,3.4708 -120.6667,1.8645 z m 36,-114.4939 c -1.1,-0.7391 -3.2373,-1.353 -4.7495,-1.3642 -6.7892,-0.05 -33.6731,-17.7704 -34.1284,-22.495 -0.7464,-7.7447 2.5505,-12.1921 9.0382,-12.1921 5.2729,0 11.3881,4.9243 17.9689,14.4696 6.9267,10.0471 11.1345,12.1971 23.8708,12.1971 12.7792,0 17.2514,-2.3038 24.1786,-12.4551 9.413,-13.794 19.302,-18.0161 25.058,-10.6985 1.5199,1.9323 2.7604,4.4823 2.7568,5.6667 -0.02,6.5205 -21.1116,21.705 -35.9727,25.8979 -6.7345,1.9 -25.663,2.5577 -28.0207,0.9736 z m -52,-9.1365 c -13.49134,-6.4988 -20.77022,-21.7368 -16.17048,-33.8521 0.63954,-1.6845 1.92929,-5.4627 2.8661,-8.396 3.47783,-10.8897 9.68568,-14.4057 15.95588,-9.037 2.758,2.3615 3.596,8.1904 1.5003,10.437 -0.6498,0.6966 -2.1245,4.5545 -3.2771,8.573 -1.9404,6.7652 -1.9264,7.5961 0.1888,11.2179 1.2565,2.1513 4.6812,5.2483 7.6105,6.8823 6.7039,3.7395 7.6831,8.3576 2.8061,13.2346 -3.8907,3.8907 -5.1424,3.9932 -11.4801,0.9403 z m 116.3534,1.3318 c -0.9056,-0.5752 -2.027,-2.9478 -2.4919,-5.2725 -0.8865,-4.4329 -1.0855,-4.1616 9.2338,-12.5932 3.3505,-2.7376 3.7619,-3.9295 3.7619,-10.8988 0,-4.3037 -0.6429,-8.4678 -1.4286,-9.2535 -2.2835,-2.2836 -1.6692,-9.5975 1.0098,-12.0219 3.1809,-2.8787 8.6288,-2.8168 11.1354,0.1266 4.5936,5.3941 8.9001,23.7109 6.5897,28.028 -0.8233,1.5382 -1.4968,3.8295 -1.4968,5.0918 0,3.4119 -6.168,10.8653 -12.0798,14.5972 -5.1809,3.2706 -11.1033,4.1845 -14.2335,2.1963 z m -101.0806,-63.5193 c -3.7958,-3.7958 -3.9244,-5.479 -1.4093,-18.4502 6.3142,-32.5649 5.7787,-74.3612 -1.2591,-98.27712 -1.1869,-4.03333 -2.4801,-8.6922 -2.8737,-10.35304 -0.3937,-1.66084 -1.2441,-3.34624 -1.8899,-3.74535 -2.08,-1.28556 -1.2685,-9.40308 1.1592,-11.59502 2.2151,-1.99992 6.4944,-2.97019 11.0878,-2.51395 5.2988,0.52628 11.7414,18.33651 14.5447,40.20738 3.7597,29.3336 4.2416,38.9208 2.7318,54.345 -1.3836,14.1349 -2.0122,19.4547 -4.7972,40.6005 -1.5361,11.6638 -10.3993,16.6768 -17.2943,9.7818 z m -231.27276,-9.9894 c -1.83334,-0.6263 -6.29074,-1.1986 -9.90534,-1.2717 -3.6146,-0.073 -8.5646,-0.7329 -11,-1.4662 -2.4354,-0.7333 -6.678,-1.9876 -9.428,-2.7872 C 573.00695,1094.9964 560,1088.9533 560,1087.6799 c 0,-0.6046 -0.85632,-1.0992 -1.90293,-1.0992 -2.72668,0 -10.09707,-9.3972 -10.09707,-12.8737 0,-3.6063 5.88513,-8.4597 10.258,-8.4597 1.77744,0 5.44652,1.7727 8.15352,3.9392 5.78697,4.6317 14.72047,8.7486 25.31328,11.6655 5.70915,1.5721 14.26555,2.1064 34.2752,2.1404 27.99319,0.048 33.65527,-0.7729 49.53599,-7.1781 6.43905,-2.5971 7.12804,-2.6368 11,-0.6345 4.06954,2.1044 4.691,3.5936 4.15398,9.9545 -0.46206,5.473 -8.36636,9.8476 -24.68997,13.6643 -14.63807,3.4226 -49.48959,5.8495 -55.33333,3.8533 z m 525.33333,0 c -1.8333,-0.6263 -6.2637,-1.1986 -9.8453,-1.2717 -6.7897,-0.1385 -11.6495,-1.1944 -26.1547,-5.6823 -12.7854,-3.9558 -15.4464,-6.8131 -14.8143,-15.9073 0.081,-1.1678 2.0976,-3.1669 4.481,-4.4423 4.1645,-2.2286 4.5768,-2.2141 10.5831,0.3735 14.3437,6.1794 22.9831,7.4343 50.4169,7.3229 27.2407,-0.1107 34.0364,-1.1246 47.6085,-7.1034 3.5153,-1.5486 8.6063,-4.5882 11.3133,-6.7548 2.707,-2.1665 6.3761,-3.9392 8.1535,-3.9392 4.3729,0 10.258,4.8534 10.258,8.4597 0,8.5897 -17.1667,19.9352 -38,25.1141 -13.7115,3.4086 -48.0956,5.8478 -54,3.8308 z m -502.79456,-45.6963 c -7.05572,-2.0772 -18.5042,-10.2371 -23.38143,-16.6652 -10.87798,-14.3369 -12.70852,-32.1252 -4.97822,-48.37642 5.21808,-10.96985 12.15366,-17.91391 23.15421,-23.18252 7.63477,-3.6566 10.01607,-4.14623 20,-4.11227 9.38223,0.0319 12.63601,0.64259 18.9002,3.54722 10.56017,4.89662 18.95044,13.09661 24.09989,23.55333 3.86155,7.84148 4.33324,10.03636 4.33324,20.16346 0,9.4926 -0.57865,12.5982 -3.51356,18.8575 -4.94008,10.5357 -11.9942,17.7686 -22.26296,22.8271 -7.66717,3.7769 -10.31184,4.3759 -20.18985,4.5727 -6.25183,0.1246 -13.52451,-0.4086 -16.16152,-1.1849 z m 488.60126,0.3059 c -14.0537,-2.9514 -26.9435,-13.5037 -33.4057,-27.3475 -3.186,-6.8253 -3.7287,-9.6642 -3.6958,-19.3333 0.032,-9.3929 0.6415,-12.63383 3.5603,-18.92872 4.4814,-9.6652 13.7588,-18.95791 23.4725,-23.51109 6.472,-3.03368 9.3743,-3.56024 19.6234,-3.56024 10.9071,0 12.8589,0.40906 20.944,4.38933 35.2572,17.35704 34.6781,67.62012 -0.9721,84.37622 -8.8885,4.1777 -20.7731,5.7537 -29.5266,3.9153 z M 732.41843,987.98034 c -2.33654,-1.42468 -4.97739,-3.97244 -5.86856,-5.66168 C 720.21909,970.31865 701.55771,953.6373 685.33333,945.47535 661.53127,933.50131 644.75839,930.18275 612,930.96621 c -28.76361,0.6879 -38.7936,2.74582 -55.33333,11.35312 -10.37911,5.4013 -27.1895,19.70246 -27.3024,23.22708 -0.0171,0.53117 -1.91403,1.93954 -4.2156,3.12973 -5.43563,2.81088 -11.25762,1.63404 -15.32763,-3.09828 -4.15507,-4.83121 -3.97715,-8.65421 0.72052,-15.48205 8.22437,-11.95372 19.59545,-21.44456 35.21464,-29.39183 23.66377,-12.04048 44.62259,-16.24479 74.91047,-15.02697 27.0342,1.08698 41.11468,3.57414 59,10.42173 1.65,0.63171 4.35,1.66829 6,2.30351 23.38776,9.00381 47.59554,28.81758 60.95554,49.89137 5.23116,8.25153 5.21628,12.91007 -0.0581,18.18447 -4.75224,4.75224 -8.21287,5.11974 -14.14568,1.50225 z m 298.73767,0.23732 c -3.4683,-2.80939 -5.8228,-7.19943 -5.8228,-10.8568 0,-7.80265 24.9009,-36.09599 40.4467,-45.95703 19.4002,-12.30602 40.3565,-20.26812 62.22,-23.63977 14.9689,-2.3084 45.1235,-2.93969 57.3333,-1.20027 10.501,1.49599 32.259,7.24174 35.3334,9.33064 0.7333,0.49828 3.4333,1.7216 6,2.71851 18.1249,7.03981 42.6666,30.41668 42.6666,40.64147 0,4.04886 -7.249,11.32624 -11.2822,11.32624 -3.4446,0 -10.0511,-2.55115 -10.0511,-3.88128 0,-1.42422 -9.8853,-11.44799 -16,-16.22414 -10.2248,-7.9865 -24.2573,-14.37592 -38.6667,-17.606 -9.1338,-2.04749 -51.3457,-2.71017 -60.6666,-0.95238 -12.1275,2.28705 -19.3851,4.07234 -26,6.39576 -7.0421,2.47344 -27.3786,12.83442 -29.948,15.25785 -0.9779,0.92227 -4.3896,3.72331 -7.5816,6.22453 -5.8352,4.5723 -15.8472,16.0082 -20.0781,22.93344 -2.4324,3.98134 -8.7273,7.87115 -12.6595,7.82256 -1.3197,-0.0163 -3.6793,-1.0663 -5.2434,-2.33333 z M 727.71189,908.51475 c -0.4029,-0.4029 -6.0529,-1.34842 -12.55556,-2.10117 -11.34682,-1.31349 -18.09546,-1.83183 -67.15633,-5.15803 -12.1,-0.82036 -40.10039,-1.3078 -62.22308,-1.08322 -38.80283,0.3939 -40.3528,0.3118 -43.89689,-2.32526 -8.41628,-6.26232 -7.72671,-8.88624 6.03629,-22.9689 13.92437,-14.2478 28.92237,-24.34419 46.08368,-31.0227 5.45091,-2.12128 19.28123,-4.24546 21.60032,-3.31757 1.31983,0.52807 5.69968,1.53293 9.73301,2.23304 4.03334,0.70009 9.2889,1.60997 11.67903,2.02195 2.39013,0.41198 4.67553,1.28277 5.07869,1.93508 0.40315,0.6523 2.20572,1.18601 4.00574,1.18601 1.8,0 4.31458,0.5572 5.58797,1.23824 1.27339,0.68103 8.31524,3.47833 15.64857,6.21625 24.9819,9.32703 49.19288,21.1551 68.56651,33.49759 8.58723,5.47073 9.38541,6.4314 9.41308,11.32931 0.0299,5.29622 -4.67601,9.05194 -11.34211,9.05194 -3.0395,0 -5.85601,-0.32965 -6.25892,-0.73256 z m 295.28511,-2.24913 c -1.6483,-1.7546 -2.997,-4.69692 -2.997,-6.53849 0,-4.58534 3.1457,-7.24574 20.6667,-17.47811 7.9719,-4.65567 44.1937,-22.00557 52,-24.90752 4.4,-1.63567 8.9,-3.42936 10,-3.98596 1.1,-0.5566 5.6,-2.05851 10,-3.33757 4.4,-1.27906 9.0418,-2.87571 10.3152,-3.54811 1.2734,-0.6724 3.3308,-1.22255 4.572,-1.22255 1.2412,0 4.0994,-0.55886 6.3514,-1.24192 11.9636,-3.62861 21.3049,-4.27382 29.428,-2.03265 4.4,1.21396 9.3589,2.519 11.0197,2.90009 1.6609,0.38108 3.3463,1.22124 3.7454,1.86702 0.3991,0.64577 1.6482,1.17413 2.7758,1.17413 4.1702,0 24.1482,14.557 35.4591,25.83733 9.8404,9.81378 11.6635,12.30259 11.6463,15.89891 -0.027,5.61324 -1.1087,7.09073 -6.9915,9.54873 -4.2011,1.75534 -10.3202,1.9361 -41.9533,1.2393 -23.5332,-0.51839 -45.5413,-0.23659 -60.3681,0.77294 -44.1099,3.00338 -56.6927,4.00251 -68,5.39952 -25.3165,3.12783 -24.3963,3.1393 -27.6697,-0.34509 z M 449.33333,1153.8959 c 0,-1.8433 -0.56272,-4.3933 -1.25049,-5.6667 -1.41471,-2.6192 -7.04647,-18.2682 -9.47037,-26.3152 -0.88356,-2.9333 -2.13283,-6.3752 -2.77615,-7.6486 -0.64331,-1.2734 -1.16965,-4.3879 -1.16965,-6.9213 0,-2.5333 -0.50087,-4.9156 -1.11304,-5.294 -0.61218,-0.3783 -3.42348,1.7504 -6.24735,4.7304 -5.01143,5.2886 -5.31185,5.404 -12.55363,4.8259 -5.51917,-0.4407 -9.63892,-1.9045 -16.08598,-5.7156 -11.14611,-6.5889 -13.87295,-9.0462 -20.00832,-18.0305 -2.77454,-4.0629 -6.05451,-8.2252 -7.28883,-9.2496 -3.49084,-2.8971 -7.83275,-12.4912 -14.1938,-31.3634 -5.30451,-15.7375 -5.84239,-18.5213 -5.84239,-30.2373 0,-14.3316 1.38158,-17.57293 9.98644,-23.42935 6.9477,-4.72856 13.78647,-3.81264 21.15503,2.83328 4.12979,3.72477 5.07175,6.42677 6.87048,19.70777 3.13413,23.141 13.73027,43.5604 28.54835,55.0145 4.34149,3.3559 8.15316,5.8421 8.47038,5.5249 0.84622,-0.8462 -5.02386,-17.9188 -6.4679,-18.8113 -0.67619,-0.4179 -1.22944,-1.9957 -1.22944,-3.5061 0,-1.5105 -1.15808,-6.4251 -2.5735,-10.9213 -3.38901,-10.7656 -6.63226,-24.2694 -10.76982,-44.84175 -0.81119,-4.03334 -2.0408,-9.89195 -2.73246,-13.01914 -0.69165,-3.12718 -1.25756,-7.49646 -1.25756,-9.70949 0,-8.378 -3.01678,-12.42479 -12.81806,-17.19437 -10.72627,-5.21972 -21.19192,-12.4197 -25.70864,-17.68659 -1.75636,-2.04805 -3.94422,-3.72375 -4.86188,-3.72375 -3.29446,0 -20.21412,22.75648 -25.23636,33.9422 -8.01008,17.84034 -11.37506,33.96229 -11.37506,54.49919 0,23.4143 2.58224,35.1972 12.56642,57.3414 13.38944,29.6968 45.2062,57.9211 75.43358,66.9161 4.03334,1.2003 8.71156,2.734 10.39607,3.4084 1.68451,0.6743 4.98451,1.2682 7.33333,1.3198 2.34883,0.052 5.4706,0.6093 6.93727,1.2396 1.46667,0.6303 5.51667,1.1881 9,1.2396 5.90064,0.087 6.33333,-0.1352 6.33333,-3.2577 z M 1348,1154.7607 c 8.4981,-1.5803 16.7189,-3.7632 21,-5.5762 1.65,-0.6988 4.35,-1.7902 6,-2.4254 14.1321,-5.4406 30.3529,-16.5471 42.4337,-29.0546 18.5824,-19.2386 27.9724,-36.7616 35.1342,-65.5649 5.6828,-22.8551 0.1026,-63.16323 -11.5667,-83.55895 -2.098,-3.66667 -4.1515,-7.71667 -4.5633,-9 -0.4119,-1.28334 -1.279,-2.33334 -1.9267,-2.33334 -0.6479,0 -1.1779,-0.78866 -1.1779,-1.75258 0,-0.96394 -3.6132,-6.04507 -8.0293,-11.2914 -7.5357,-8.9525 -8.2324,-9.44628 -11.3333,-8.03339 -1.8172,0.82797 -3.304,1.91477 -3.304,2.41511 0,0.50032 -2.85,2.26968 -6.3334,3.93189 -3.4833,1.66221 -7.4568,3.60748 -8.8297,4.3228 -1.3731,0.71532 -5.7331,1.63463 -9.6887,2.04288 -7.8364,0.80879 -7.4349,0.26832 -9.1833,12.36469 -0.8965,6.20239 -2.3293,15.30247 -4.4087,28 -1.0629,6.49146 -2.6693,13.87319 -7.1089,32.66669 -0.6929,2.9333 -1.7817,7.7333 -2.4197,10.6667 -1.6608,7.6367 -3.486,14.0946 -5.2132,18.4452 -0.8251,2.0782 -1.186,4.2867 -0.8022,4.9079 0.3839,0.6211 0.1574,1.4633 -0.5033,1.8717 -0.6607,0.4083 -1.6297,3.5998 -2.1533,7.0921 -0.5238,3.4924 -1.514,7.3997 -2.2008,8.6831 -1.8744,3.5026 -0.4414,2.8813 7.2177,-3.1292 14.0041,-10.9897 24.5773,-31.8537 27.6377,-54.5375 1.918,-14.2153 4.0774,-18.80887 10.553,-22.44831 6.5678,-3.69135 11.9094,-3.65616 17.4504,0.11493 8.6048,5.85643 9.9864,9.09778 9.9864,23.42938 0,11.716 -0.5379,14.4998 -5.8424,30.2373 -6.3611,18.8721 -10.703,28.4662 -14.1938,31.3634 -1.2344,1.0244 -4.5144,5.1867 -7.2889,9.2496 -6.1353,8.9843 -8.8621,11.4416 -20.0083,18.0305 -6.4284,3.8001 -10.572,5.2754 -16.0446,5.7126 -7.1968,0.5748 -7.5094,0.4538 -12.734,-4.929 l -5.356,-5.5183 -2.3766,8.379 c -1.307,4.6084 -2.8529,9.5789 -3.4352,11.0455 -0.5822,1.4667 -2.7322,8.0667 -4.7778,14.6667 -2.0455,6.6 -4.2194,12.57 -4.8308,13.2667 -0.6114,0.6966 -1.1116,3.0022 -1.1116,5.1234 0,3.8506 0.011,3.8556 7,3.1719 3.85,-0.3767 10.3,-1.2985 14.3333,-2.0486 z m -498.48327,574.3764 c -3.5309,-3.79 -3.5597,-5.2946 -0.1834,-9.587 3.1786,-4.0409 3.3866,-7.1066 0.6667,-9.8266 -2.9802,-2.98 -2.4534,-8.9187 1.0859,-12.2438 2.4136,-2.2673 4.7205,-2.899 10.588,-2.899 7.1357,0 10.6177,1.5049 7.6811,3.3198 -0.7452,0.4607 -1.355,2.6294 -1.355,4.8195 0,3.9704 -4.9941,10.5273 -8.0181,10.5273 -0.81,0 -1.1018,0.6 -0.6486,1.3334 0.4532,0.7333 2.1956,1.3333 3.872,1.3333 4.1746,0 7.9408,4.3888 6.8137,7.94 -1.1901,3.7497 -5.5184,6.4056 -12.169,7.4671 -4.6506,0.7422 -5.916,0.4105 -8.3333,-2.184 z m 13.2697,-3.3674 c 1.512,-1.8218 1.398,-2.4233 -0.7583,-4 -5.2551,-3.8426 -11.1971,-0.4774 -7.3474,4.1612 2.1563,2.5982 5.877,2.5242 8.1057,-0.1612 z m -2.0014,-19.8528 c 1.0639,-4.2386 -0.112,-7.3362 -2.785,-7.3362 -1.1461,0 -2.4296,0.9013 -2.8523,2.0029 -1.1778,3.0693 0.664,8.6637 2.8523,8.6637 1.072,0 2.3253,-1.4986 2.785,-3.3304 z m -77.32348,12.2558 c -1.43927,-1.0524 -2.1995,-2.9894 -1.92151,-4.8956 0.59488,-4.0795 3.75717,-5.1226 4.69201,-1.5478 1.27858,4.8894 8.58687,5.1858 10.41472,0.4224 0.86195,-2.2462 -5.01874,-8.217 -8.10678,-8.231 -2.8445,-0.013 -6.27836,-5.3674 -6.15796,-9.602 0.15845,-5.573 4.59085,-9.0028 11.68464,-9.0418 6.11008,-0.033 8.6,1.7723 8.6,6.2371 0,3.8487 -3.38028,4.0493 -5.37664,0.3191 -2.12654,-3.9735 -7.17046,-2.9494 -7.69403,1.5621 -0.33592,2.8945 0.45053,3.8781 4.66667,5.8368 7.28809,3.3857 9.73733,5.9271 9.73733,10.1035 0,7.8746 -13.75868,13.7946 -20.53845,8.8372 z m 23.5491,0.8618 c -1.24108,-0.5013 -1.29272,-1.3478 -0.20606,-3.3782 0.79746,-1.49 1.24266,-6.6916 0.98934,-11.5591 -0.45144,-8.6737 -0.39428,-8.8499 2.87274,-8.8499 3.19781,0 3.34961,0.3772 3.73392,9.2778 0.22032,5.1028 1.08173,10.0985 1.91426,11.1016 2.57999,3.1088 -4.04124,5.5338 -9.3042,3.4078 z m 13.91858,-0.053 c -2.02543,-0.5251 -2.13046,-0.956 -0.6667,-2.7352 1.0654,-1.2951 1.7375,-5.7647 1.7375,-11.5553 v -9.4434 l 8.8359,-0.3342 c 6.6221,-0.2506 9.2613,0.1781 10.5335,1.711 2.2922,2.762 3.9872,20.9696 2.0731,22.2695 -1.9778,1.3431 -5.0492,1.2283 -7.4314,-0.2779 -1.5839,-1.0013 -1.6518,-1.5944 -0.3333,-2.9129 1.8777,-1.8777 2.1997,-11.5323 0.4753,-14.2533 -0.6266,-0.9888 -2.2674,-1.5776 -3.6462,-1.3086 -2.1455,0.4188 -2.5069,1.7354 -2.5069,9.1312 0,10.4128 -1.2398,11.7398 -9.0708,9.7091 z m 52.4898,-0.3193 c -1.5574,-0.9855 -1.5996,-1.5904 -0.2265,-3.2448 1.515,-1.8255 1.4384,-18.8411 -0.1328,-29.5031 -0.3005,-2.0389 0.4701,-2.766 3.2736,-3.0885 l 3.6667,-0.4219 v 15.8219 c 0,10.8229 0.5231,16.3449 1.6555,17.4773 3.059,3.0591 -4.0451,5.6112 -8.2364,2.9591 z m 18.8551,-0.1447 c -4.5385,-1.8215 -7.4471,-9.6957 -5.6229,-15.2229 2.1272,-6.4458 5.5251,-8.9658 11.4188,-8.4686 3.6273,0.306 5.756,1.4406 7.7604,4.1363 3.9023,5.2484 1.791,8.1611 -6.3003,8.6917 -6.8736,0.4508 -8.143,2.7459 -3.3684,6.0902 2.0473,1.434 3.7284,1.6389 6.0868,0.7422 4.0482,-1.539 4.4181,-1.5392 4.4181,-6e-4 0,4.4757 -7.8246,6.6676 -14.3925,4.0317 z m 8.0784,-15.4003 c 1.4533,-1.4532 -0.5988,-4.5362 -3.0192,-4.5362 -2.4204,0 -4.4725,3.083 -3.0192,4.5362 0.4383,0.4384 1.797,0.7971 3.0192,0.7971 1.2222,0 2.5809,-0.3587 3.0192,-0.7971 z m 40.0456,14.6316 c -2.3477,-1.1577 -5.2684,-3.6306 -6.4903,-5.4957 -2.6477,-4.0408 -3.0517,-14.4381 -0.7284,-18.7435 4.1575,-7.7042 19.706,-11.2469 24.7756,-5.6449 2.6102,2.8843 1.9258,6.7163 -1.1996,6.7163 -1.0972,0 -2.6372,-1.2 -3.4221,-2.6667 -2.1619,-4.0395 -7.2079,-3.3263 -11.3576,1.6053 -3.0725,3.6515 -3.4961,5.1459 -2.9163,10.2894 1.1271,9.9997 11.4055,16.3164 14.2739,8.772 0.7642,-2.0102 2.3178,-3.3334 3.9135,-3.3334 1.9394,0 3.0802,-1.4489 4.2714,-5.4248 1.9515,-6.5133 5.4532,-9.2521 11.7784,-9.2122 7.0132,0.044 10.8458,3.6608 11.6749,11.017 0.6245,5.5404 0.2859,6.5678 -3.3694,10.2231 -2.502,2.502 -5.4331,4.0636 -7.6272,4.0636 -4.6533,0 -10.8728,-3.7325 -12.0492,-7.2313 -0.915,-2.7214 -0.941,-2.7176 -1.5195,0.2196 -1.3011,6.6054 -11.4535,9.0644 -20.0081,4.8462 z m 35.3863,-3.0064 c 1.9017,-1.2053 2.6468,-11.973 1.0116,-14.6189 -1.4962,-2.4208 -5.8945,-1.8061 -7.4158,1.0365 -1.7287,3.2302 -1.7548,6.9288 -0.08,11.3342 1.3386,3.5206 3.367,4.224 6.4841,2.2482 z m 14.7913,4.5052 c -0.05,-0.3666 -0.1318,-5.9166 -0.1818,-12.3333 -0.089,-11.4328 -0.027,-11.6667 3.0909,-11.6667 3.0103,0 3.2034,0.5002 3.5824,9.2778 0.2203,5.1028 1.0818,10.0985 1.9143,11.1016 1.15007,1.3858 1.05387,2.1148 -0.4006,3.0352 -2.0299,1.2845 -7.8518,1.7102 -8.0052,0.5854 z m 14.32367,-0.2718 c -2.2823,-0.5899 -2.2948,-0.7828 -0.2018,-3.0956 1.8625,-2.0582 2.1239,-4.5224 1.5782,-14.8828 -0.3596,-6.8291 -0.8688,-13.6164 -1.1315,-15.0831 -0.3698,-2.0644 0.3504,-2.762 3.189,-3.0885 l 3.6667,-0.4219 v 15.8219 c 0,10.8229 0.5231,16.3449 1.6555,17.4773 2.9752,2.9753 -2.2915,4.9437 -8.7561,3.2727 z m -196.41381,-31.7192 c -0.46182,-1.2035 -0.20034,-2.8275 0.58108,-3.609 2.03148,-2.0314 5.88054,-0.1748 5.34989,2.5807 -0.59107,3.0692 -4.86355,3.8099 -5.93097,1.0283 z m 183.51444,-1.3426 c 0,-3.8417 4.4959,-4.7721 5.8616,-1.2131 1.0922,2.8462 -0.1321,4.5464 -3.2737,4.5464 -1.8716,0 -2.5879,-0.9226 -2.5879,-3.3333 z m -126.329,-10.3333 c -0.7273,-0.9167 -1.6688,-4.3667 -2.0924,-7.6667 -0.4235,-3.3 -2.3099,-13.2 -4.1919,-22 -6.702,-31.3381 -8.5976,-42.1009 -7.787,-44.2135 1.7859,-4.654 9.7336,-2.4265 9.7336,2.7282 0,1.698 0.542,4.8269 1.2044,6.953 0.6624,2.126 3.498,14.8156 6.3013,28.199 2.8033,13.3833 5.5613,24.3333 6.1289,24.3333 0.5676,0 1.0321,-8.3885 1.0321,-18.6412 v -18.6413 l 3.3303,-0.8359 c 6.9933,-1.7552 7.3363,-0.8475 7.3363,19.4099 0,18.2077 0.076,18.7085 2.8437,18.7085 2.7884,0 2.8315,-0.3355 2.2197,-17.2769 -0.3431,-9.5023 -0.2076,-17.9503 0.3011,-18.7735 0.5087,-0.8231 2.6527,-1.2984 4.7644,-1.0564 3.3245,0.3811 3.9655,1.1556 4.7785,5.7735 0.5164,2.9333 0.9735,10.2478 1.0158,16.2546 0.042,6.0067 0.5573,11.2183 1.1446,11.5812 0.5873,0.363 4.8199,-11.1516 9.4058,-25.588 10.9079,-34.3381 10.588,-33.5812 14.1916,-33.5812 3.7074,0 6.5482,3.1896 5.6344,6.3263 -0.375,1.2872 -2.901,9.2404 -5.6132,17.6737 -2.7122,8.4334 -6.2984,19.9558 -7.9691,25.6054 l -3.0378,10.2718 7.4936,0.3948 c 7.3215,0.3856 7.5029,0.4906 7.8993,4.566 0.4714,4.8464 0.9037,4.7127 -23.0724,7.1356 -8.0666,0.8152 -19.0411,2.0546 -24.3878,2.7543 -12.9228,1.6911 -17.0222,1.6043 -18.6078,-0.3945 z"
     id="path12"
     inkscape:connector-curvature="0" />
</svg>
