<?xml version="1.0" encoding="UTF-8" standalone="no"?>
<!-- Created with Inkscape (http://www.inkscape.org/) -->

<svg
   xmlns:dc="http://purl.org/dc/elements/1.1/"
   xmlns:cc="http://creativecommons.org/ns#"
   xmlns:rdf="http://www.w3.org/1999/02/22-rdf-syntax-ns#"
   xmlns:svg="http://www.w3.org/2000/svg"
   xmlns="http://www.w3.org/2000/svg"
   xmlns:sodipodi="http://sodipodi.sourceforge.net/DTD/sodipodi-0.dtd"
   xmlns:inkscape="http://www.inkscape.org/namespaces/inkscape"
   version="1.1"
   id="svg2"
   width="1910"
   height="1971"
   viewBox="0 0 1910 1971"
   sodipodi:docname="Avatar_7_4_F_1_N.svg"
   inkscape:version="0.92.1 r15371">
  <metadata
     id="metadata8">
    <rdf:RDF>
      <cc:Work
         rdf:about="">
        <dc:format>image/svg+xml</dc:format>
        <dc:type
           rdf:resource="http://purl.org/dc/dcmitype/StillImage" />
        <dc:title></dc:title>
      </cc:Work>
    </rdf:RDF>
  </metadata>
  <defs
     id="defs6" />
  <sodipodi:namedview
     pagecolor="#ffffff"
     bordercolor="#666666"
     borderopacity="1"
     objecttolerance="10"
     gridtolerance="10"
     guidetolerance="10"
     inkscape:pageopacity="0"
     inkscape:pageshadow="2"
     inkscape:window-width="1366"
     inkscape:window-height="692"
     id="namedview4"
     showgrid="false"
     inkscape:zoom="0.16933252"
     inkscape:cx="594.04642"
     inkscape:cy="799.37559"
     inkscape:window-x="0"
     inkscape:window-y="27"
     inkscape:window-maximized="1"
     inkscape:current-layer="svg2" />
  <path
     style="fill:#000000;stroke-width:1.07315421"
     d="m 512.52541,1968.7378 c -2.04925,-9.3795 -3.08168,-26.6874 -3.55842,-59.6539 l -0.54614,-37.766 -10.75531,-8.8873 c -19.95267,-16.4873 -32.14058,-32.9532 -50.81739,-68.6546 -11.87617,-22.7017 -14.18805,-26.1799 -53.09078,-79.876 -26.29411,-36.2926 -31.47201,-43.9637 -35.70211,-52.8919 -3.26941,-6.9006 -3.37779,-7.594 -3.37779,-21.6168 0,-16.9755 1.31917,-21.0221 9.81385,-30.1035 9.17233,-9.806 18.76584,-14.0056 32.03916,-14.0254 10.26562,-0.015 20.24873,2.7953 27.87785,7.8486 6.68893,4.4306 23.61673,21.186 33.67188,33.3291 4.27655,5.1645 8.24649,9.3901 8.82208,9.3901 0.57559,0 4.52234,-1.7504 8.77055,-3.8898 8.42639,-4.2434 17.2496,-7.566 23.74282,-8.9409 5.12315,-1.0849 6.00268,-2.4 6.02354,-9.0068 0.009,-2.8619 0.68419,-6.7253 1.50035,-8.5852 0.81614,-1.8599 2.07206,-4.9271 2.79092,-6.816 1.90602,-5.0081 11.18955,-13.2648 20.28524,-18.0414 l 7.92619,-4.1625 -0.65814,-9.1806 c -0.36198,-5.0493 -1.90106,-24.3924 -3.42018,-42.9848 -4.90425,-60.0227 -5.26946,-87.6553 -1.23466,-93.4158 0.99103,-1.4149 1.80188,-3.3364 1.80188,-4.2699 0,-0.9337 1.4533,-3.9891 3.22956,-6.79 l 3.22956,-5.0924 -5.5053,-9.3207 c -7.73974,-13.1037 -24.26031,-44.776 -30.40777,-58.296 l -5.1755,-11.3824 -17.2945,-0.6164 c -29.18523,-1.0403 -53.34281,-6.7977 -77.39113,-18.4443 -42.58939,-20.626 -76.6379,-60.6911 -90.60781,-106.6187 -5.70994,-18.7721 -5.97617,-21.1714 -5.97466,-53.8453 10e-4,-34.2505 0.78052,-40.2002 7.72735,-59.0235 8.36725,-22.6723 21.28431,-43.6849 37.6759,-61.2887 9.702,-10.4195 10.09612,-11.244 8.74906,-18.3027 -9.60154,-50.31212 -12.80961,-84.10016 -12.82667,-135.09327 -0.016,-47.7192 1.82165,-66.85783 10.22186,-106.45883 8.10734,-38.2205 29.26855,-116.39334 35.34354,-130.56467 20.02267,-46.70764 49.38583,-87.83863 95.45583,-133.71168 29.0266,-28.90262 48.50977,-44.65374 87.01342,-70.34601 31.61943,-21.09865 40.57099,-26.25794 77.80368,-44.84304 50.81406,-25.36442 83.06125,-38.74788 113.21777,-46.98846 18.19787,-4.97276 96.03375,-20.7798 113.21777,-22.99246 5.60723,-0.722 11.12795,-1.79114 12.26826,-2.37587 3.60303,-1.84754 34.52462,-2.90385 54.2673,-1.8538 28.5906,1.52063 48.30874,3.15422 53.65768,4.44538 2.6561,0.64112 9.417,1.53565 15.0242,1.98784 20.8361,1.68028 67.2811,10.85654 97.4514,19.25375 10.4422,2.90636 31.9502,8.72711 47.7954,12.935 37.593,9.98328 53.9371,15.4702 74.69,25.07428 32.6662,15.11731 55.1739,28.61899 90.7413,54.43296 11.8047,8.56753 27.206,19.6604 34.225,24.65078 19.9224,14.16446 37.1739,29.12165 56.9957,49.41586 24.1766,24.75283 35.984,38.69579 56.4419,66.65103 24.9852,34.14143 31.8921,46.63005 41.6961,75.39262 5.6046,16.44255 13.7602,46.93183 15.0841,56.39072 0.4544,3.24629 2.0385,10.49008 3.5205,16.09731 4.5623,17.26233 14.7162,67.54883 15.927,78.87683 1.9149,17.91546 -0.3658,135.187 -3.4227,175.99734 -0.9994,13.33959 -3.1514,30.16049 -4.8903,38.22369 -0.5031,2.3325 0.5498,4.1234 6.1993,10.5446 10.4721,11.9028 19.1805,22.8518 20.5328,25.8159 0.6731,1.4756 2.3212,4.1698 3.6622,5.987 3.9345,5.3317 13.7724,26.9749 17.2962,38.0512 6.1737,19.4052 7.1542,26.9472 7.1112,54.692 -0.03,19.3964 -0.4764,27.573 -1.9329,35.4141 -10.3589,55.7704 -53.6219,108.1071 -106.3998,128.7152 -23.3034,9.0992 -40.7593,12.7158 -66.0365,13.6817 l -16.6715,0.6372 -13.6186,26.9448 c -7.4902,14.8197 -16.0704,31.2203 -19.0671,36.4459 l -5.4484,9.5009 4.3053,7.1329 c 7.3306,12.1449 10.9992,25.4238 11.0136,39.8642 0,5.017 -0.9914,19.9875 -2.2142,33.2678 -1.2227,13.2802 -3.1947,36.9433 -4.3822,52.5845 -1.1874,15.6412 -2.3592,29.924 -2.604,31.7394 -0.4241,3.147 -0.087,3.4795 7.2377,7.1346 8.8306,4.4065 15.8784,10.1401 19.4823,15.8492 2.9841,4.7269 5.9073,14.0618 5.9073,18.8638 0,4.7369 2.7936,7.5013 9.0958,9.0011 2.9369,0.699 10.4617,3.651 16.722,6.5601 6.2602,2.9092 11.9222,5.2894 12.5822,5.2894 0.6599,0 4.7115,-4.2256 9.0036,-9.3901 10.3537,-12.4586 28.8073,-30.7672 34.9143,-34.6401 6.5488,-4.1533 18.5572,-6.7333 29.1,-6.2524 7.0457,0.3214 9.6266,1.0114 16.5132,4.4151 16.1412,7.9779 23.6861,20.634 23.8251,39.9651 0.082,11.3247 -2.1448,18.1911 -9.9001,30.5362 -7.1355,11.3586 -33.9317,49.1509 -56.1339,79.1693 -12.3638,16.7163 -16.3593,23.1088 -23.4684,37.5477 -11.5774,23.5142 -21.0984,39.2763 -30.5041,50.4992 -8.2858,9.8868 -23.1154,24.6215 -29.8717,29.6806 l -4.0243,3.0134 -0.019,11.9456 c -0.04,24.7868 -3.7253,84.98 -5.3654,87.6337 -0.4903,0.7932 -5.4609,0.9188 -15.9078,0.4016 l -15.1947,-0.752 v -2.8329 c 0,-1.558 0.6953,-11.2653 1.5451,-21.5715 0.8497,-10.3063 1.8793,-27.9618 2.2878,-39.2344 l 0.7427,-20.4959 -3.4952,-0.6989 c -1.9222,-0.3845 -8.8674,-0.7027 -15.4339,-0.7072 -19.391,-0.013 -27.2607,-1.7809 -46.162,-10.3692 -7.8625,-3.5725 -10.8263,-4.479 -11.4334,-3.4967 -0.4507,0.7293 -1.1507,4.0285 -1.5555,7.3317 -2.9098,23.7412 -11.3721,65.052 -15.1422,73.9191 -0.8241,1.9384 -1.4984,4.3876 -1.4984,5.443 0,2.8655 -3.389,12.3797 -4.7321,13.2844 -0.6436,0.4337 -144.0055,0.7959 -318.58215,0.8049 l -317.41191,0.016 -1.13454,-2.9512 c -1.91329,-4.9768 -10.57374,-37.7915 -12.67439,-48.0236 -1.09059,-5.3121 -3.3097,-18.351 -4.93135,-28.9752 -1.62167,-10.6242 -3.24794,-19.8747 -3.61395,-20.5566 -0.45647,-0.8505 -4.61889,0.4255 -13.25335,4.0627 -18.93246,7.9751 -26.48342,9.6292 -44.25228,9.6933 -8.24293,0.03 -16.14707,0.4951 -17.56478,1.0341 -2.54919,0.9692 -2.56979,1.0952 -1.86812,11.4219 1.7577,25.8686 4.96003,68.616 5.30434,70.8068 0.35618,2.2663 0.003,2.4146 -5.74576,2.4146 -3.36888,0 -10.51883,0.3119 -15.88878,0.6931 -9.67415,0.6867 -9.76868,0.6695 -10.32527,-1.878 z m 59.69057,-124.8642 c 14.54264,-3.082 31.2323,-12.1595 47.91669,-26.0621 13.98221,-11.6509 34.11511,-32.4964 28.46502,-29.4725 -1.18284,0.6329 -8.3997,5.8183 -16.03746,11.5228 -24.55071,18.3366 -32.938,22.0053 -46.57331,20.3713 -11.89373,-1.4253 -23.12174,-9.2233 -31.84335,-22.1158 -3.2054,-4.7383 -3.58629,-4.9561 -9.7973,-5.6054 -18.32237,-1.915 -25.21665,-8.0729 -46.40272,-41.4462 -19.06228,-30.0277 -23.6331,-36.0769 -55.05473,-72.8614 -28.81205,-33.7295 -38.41451,-43.5599 -43.67971,-44.7163 -4.05297,-0.8902 -7.50782,1.6756 -7.50782,5.5757 0,5.7443 4.10563,11.9731 45.13288,68.4729 35.38027,48.7231 37.49999,51.763 37.49999,53.7782 0,2.4682 17.00835,35.7422 22.3953,43.8127 5.86399,8.785 19.70753,23.7103 26.86586,28.965 5.37328,3.9443 14.66487,8.9076 19.30715,10.3132 4.63524,1.4035 21.63671,1.0949 29.31351,-0.5321 z m 801.88522,-1.4481 c 14.013,-5.1273 25.4782,-14.5498 38.6858,-31.7936 6.6489,-8.6805 10.5208,-15.4313 19.4308,-33.8769 11.1141,-23.0087 12.626,-25.6723 20.8417,-36.7197 4.5139,-6.0696 13.9404,-19.0038 20.9479,-28.7427 7.0073,-9.7389 16.8406,-23.2606 21.8516,-30.0483 5.011,-6.7877 12.9045,-18.1351 17.5413,-25.2166 7.0476,-10.7635 8.3782,-13.4876 8.113,-16.6092 -0.4023,-4.7359 -3.8494,-6.8067 -8.5836,-5.1563 -4.5861,1.5987 -14.5756,11.2422 -27.5463,26.5922 -6.2342,7.3779 -17.1868,20.1753 -24.3391,28.4385 -19.9106,23.0038 -27.548,33.3047 -44.9716,60.6555 -22.7957,35.7835 -28.0956,40.6317 -46.4757,42.5148 -6.7738,0.694 -7.0555,0.8466 -10.3153,5.5867 -8.2571,12.0068 -17.8439,19.3585 -28.4306,21.8022 -7.161,1.653 -18.5006,7e-4 -26.3494,-3.8395 -3.1187,-1.5258 -12.7722,-8.0855 -21.4519,-14.577 -8.6799,-6.4915 -16.281,-11.8027 -16.8913,-11.8027 -3.3166,0 22.5139,24.9308 37.2521,35.9544 7.6194,5.6991 25.4819,15.182 33.6852,17.8828 8.4791,2.7916 28.029,2.2398 37.0054,-1.0446 z m -768.64177,-45.6353 c 20.76367,-14.243 83.54076,-60.6151 88.69126,-65.5145 4.29477,-4.0853 4.61258,-4.7608 4.16967,-8.8634 -0.56686,-5.2506 -6.96158,-18.4574 -12.45893,-25.7309 -5.41395,-7.1633 -11.29369,-11.0443 -17.9211,-11.8292 -10.70011,-1.2673 -11.65082,-0.5168 -64.96167,51.2763 -17.12755,16.6399 -31.49052,31.4705 -32.46291,33.5195 -2.13075,4.4903 -2.26276,13.4466 -0.26854,18.2193 1.81943,4.3545 7.83789,11.3386 10.80713,12.5412 1.21274,0.4912 5.67562,0.9237 9.91751,0.961 7.3854,0.065 7.99991,-0.1291 14.48758,-4.5793 z m 725.98677,3.5059 c 10.7482,-4.0609 16.9197,-19.951 11.6438,-29.98 -2.1889,-4.161 -33.0067,-35.0577 -64.4268,-64.5919 -21.9574,-20.6395 -24.3312,-22.1151 -33.5434,-20.8524 -2.5248,0.3459 -6.0106,1.3634 -7.7461,2.2609 -7.232,3.7398 -20.4938,24.5271 -22.1147,34.6643 -0.6389,3.9952 -0.3648,4.6823 3.4531,8.6569 2.2809,2.3745 17.6689,14.2552 34.1954,26.4016 16.5266,12.1463 36.0436,26.5425 43.3712,31.9917 7.3275,5.4492 14.5713,10.4893 16.0974,11.2005 3.4709,1.6177 15.0471,1.7685 19.0701,0.2484 z m -776.99311,-36.9555 c 3.1121,-5.9024 6.49934,-12.3226 7.5272,-14.2672 l 1.86883,-3.5356 -9.83749,-19.5372 c -9.17039,-18.2124 -36.66251,-65.4355 -42.71318,-73.3683 -3.16448,-4.1488 -4.74016,-4.0701 -17.8153,0.8906 -11.85733,4.4986 -19.17301,12.7652 -19.13389,21.6206 0.0241,5.4687 11.35882,24.6314 41.37711,69.9535 13.25026,20.0054 19.0693,26.7768 24.35228,28.3376 7.33091,2.1658 8.25092,1.5197 14.37444,-10.094 z m 822.65821,8.9679 c 2.6033,-1.3685 11.9516,-12.7878 15.4718,-18.8992 1.6134,-2.8011 5.8581,-9.3984 9.4326,-14.6608 3.5745,-5.2623 7.8743,-12.0232 9.5551,-15.0242 1.6807,-3.0008 4.9404,-7.9708 7.2438,-11.0442 2.3033,-3.0734 4.1879,-5.8336 4.1879,-6.1337 0,-0.3002 2.6669,-4.637 5.9264,-9.6375 12.4127,-19.0428 12.3542,-29.2416 -0.2225,-38.8342 -5.0065,-3.8185 -16.1255,-7.9519 -21.3914,-7.9519 -4.5584,0 -4.7034,0.2002 -25.266,34.8775 -16.1851,27.2951 -32.021,57.7664 -32.021,61.6146 0,0.9516 1.715,4.2768 3.811,7.3892 3.3961,5.0429 6.1599,10.5485 9.1811,18.2892 0.9139,2.3414 1.3667,2.4617 6.6041,1.7545 3.0926,-0.4177 6.4618,-1.2004 7.4871,-1.7393 z m -785.42792,-49.8288 c 13.92302,-13.0485 22.1624,-22.7682 22.1537,-26.134 -0.0107,-3.9618 -34.91612,-82.617 -38.17236,-86.0158 -3.88358,-4.0535 -10.13052,-5.5508 -23.06004,-5.527 -9.67151,0.018 -12.11402,0.3924 -16.61872,2.5487 -8.65272,4.1421 -14.79573,14.3679 -12.97917,21.6057 0.3393,1.3519 3.16924,5.4134 6.28875,9.0257 4.4468,5.1492 9.46116,14.1811 23.21618,41.8167 19.64991,39.4793 26.55294,51.8828 28.87474,51.8828 0.26254,0 4.89617,-4.1413 10.29692,-9.2028 z m 748.19542,-1.5287 c 5.5732,-9.4871 21.8548,-41.8397 32.9444,-65.4624 2.7445,-5.8462 7.372,-13.3227 10.8487,-17.5276 5.0501,-6.1077 6.0628,-8.0231 6.0628,-11.4666 0,-5.4829 -1.279,-8.5768 -5.5622,-13.4552 -5.7977,-6.6032 -11.134,-8.3368 -25.6798,-8.342 -13.0992,0 -16.7212,1.0926 -21.6762,6.5679 -1.8673,2.0632 -35.5231,77.4414 -37.3861,83.7326 -0.9843,3.3241 -0.7259,3.9421 3.9238,9.3846 6.4712,7.5747 28.2311,27.5475 29.5308,27.1055 0.5527,-0.1881 3.6998,-4.9296 6.9938,-10.5368 z m -371.25382,-27.8864 c 16.54407,-1.757 38.70252,-12.1455 51.86162,-24.3141 7.6666,-7.0895 14.4695,-17.5545 11.4116,-17.5545 -0.9258,0 -10.0107,2.2026 -20.1886,4.8948 -32.81935,8.6811 -57.97131,10.9632 -81.81297,7.423 -6.04917,-0.8982 -21.56458,-4.2333 -34.47867,-7.4115 -13.06192,-3.2145 -23.90602,-5.3734 -24.43996,-4.8656 -2.99456,2.8485 9.65649,16.8758 23.5045,26.0615 11.56825,7.6736 29.9704,14.6877 42.91771,16.3586 10.48933,1.3537 13.42821,1.298 31.22477,-0.5922 z m -329.29142,-16.398 c 2.50958,-2.2304 5.76928,-4.605 7.2438,-5.2769 1.47451,-0.6718 2.68094,-1.6741 2.68094,-2.2273 0,-1.951 -12.34844,-18.5766 -18.08663,-24.3514 -6.44812,-6.4891 -8.19382,-9.8375 -9.25993,-17.761 -0.39707,-2.9512 -2.58156,-17.1973 -4.85441,-31.6581 -2.27285,-14.4607 -7.33059,-47.0578 -11.23941,-72.4379 -8.5878,-55.7608 -9.44818,-60.2635 -12.76146,-66.7849 -2.95369,-5.8137 -9.19893,-12.6602 -12.50572,-13.7098 -3.0624,-0.9719 -6.74448,1.6824 -9.20399,6.635 -1.79264,3.6098 -2.02773,6.4987 -1.94964,23.9581 0.11275,25.2057 6.38674,109.4793 8.57505,115.1819 0.32022,0.8345 2.75605,3.0784 5.41295,4.9864 7.23498,5.1958 10.81597,11.5226 26.13253,46.1706 7.69715,17.4119 15.46378,34.7309 17.25914,38.4865 l 3.26431,6.8285 2.36481,-1.9921 c 1.30066,-1.0957 4.41809,-3.8171 6.92766,-6.0476 z m 651.84134,-8.4062 c 2.9705,-6.7293 10.2222,-23.3298 16.1147,-36.8899 11.0944,-25.5302 15.1489,-32.4227 22.4957,-38.2415 2.3758,-1.8816 4.7436,-4.5366 5.262,-5.8999 2.3794,-6.2585 8.4318,-77.1658 9.2993,-108.9487 0.6153,-22.5402 0.5637,-23.3546 -1.7816,-28.1995 -4.415,-9.12 -11.215,-9.655 -17.5274,-1.3789 -7.0205,9.2042 -9.0072,17.6865 -17.3918,74.252 -3.3245,22.429 -6.5125,42.5787 -7.0844,44.7772 -0.5719,2.1984 -2.7099,16.2031 -4.7512,31.1215 -5.385,39.355 -4.9311,37.7265 -12.4488,44.6738 -6.646,6.1418 -18.125,21.9793 -18.1172,24.9962 0,0.9712 3.965,4.7204 8.8054,8.3313 7.4272,5.5407 9.0289,6.3373 10.2626,5.1036 0.804,-0.804 3.8922,-6.9678 6.8627,-13.6972 z m -49.6542,-35.014 c 5.3325,-7.2162 10.4568,-14.5929 11.3875,-16.3926 1.4134,-2.7333 12.3148,-68.4137 12.3344,-74.3147 0,-1.0329 -0.4408,-1.878 -0.9871,-1.878 -0.5463,0 -14.4303,8.9876 -30.8532,19.9726 -16.4229,10.9849 -33.1487,21.6298 -37.1685,23.6555 l -7.3085,3.6828 5.3068,4.7714 c 7.7462,6.9644 10.213,12.8946 9.6205,23.1282 -0.471,8.1364 -0.4581,8.1836 2.8348,10.4401 1.8195,1.2466 7.8927,6.359 13.496,11.3609 5.6034,5.0018 10.5151,9.0042 10.915,8.8942 0.3998,-0.11 5.0899,-6.1042 10.4223,-13.3204 z m -557.28999,-0.6037 6.09732,-5.6753 -1.9868,-3.7148 c -2.89742,-5.4172 -2.70234,-16.2909 0.39809,-22.1896 3.00608,-5.7191 9.88921,-12.3756 15.33758,-14.8325 2.31268,-1.0429 4.18775,-2.1849 4.16683,-2.538 -0.0209,-0.3529 -4.00501,-3.0208 -8.85353,-5.9285 -9.77416,-5.8616 -34.04363,-21.8414 -44.6235,-29.3815 l -6.83286,-4.8697 0.64319,3.1351 c 1.05656,5.1499 2.79383,16.861 6.06168,40.862 1.7001,12.4866 3.83821,24.491 4.75135,26.6765 2.46253,5.8937 15.95265,24.1317 17.84949,24.1317 0.49161,0 3.63763,-2.5539 6.99116,-5.6754 z m 299.19258,-10.532 c 25.40881,-5.2159 62.29231,-15.493 73.09701,-20.3676 1.1805,-0.5326 5.5267,-1.9827 9.6584,-3.2225 38.098,-11.4323 107.0085,-43.3827 137.0919,-63.5626 9.2105,-6.1783 22.4894,-15.6105 29.5086,-20.9602 15.5418,-11.8451 37.8428,-31.9763 40.8137,-36.8427 1.1974,-1.9614 3.0041,-7.671 4.0148,-12.688 5.2152,-25.8881 16.0395,-43.5802 33.0702,-54.0526 7.7161,-4.7447 11.8064,-6.3673 19.1542,-7.598 4.5907,-0.7691 6.8408,-3.9506 20.5511,-29.059 17.2963,-31.6756 32.0214,-68.0405 48.8759,-120.7017 22.3619,-69.8695 32.8563,-112.0426 39.4873,-158.6863 l 2.955,-20.7859 -4.2519,-3.3025 c -11.9531,-9.284 -21.6249,-22.2134 -25.1471,-33.6167 -1.1457,-3.7095 -3.348,-14.6099 -4.8941,-24.2233 -14.1212,-87.80567 -22.0801,-129.60793 -25.9114,-136.09386 -2.0378,-3.44965 -0.8295,-2.78945 -23.2775,-12.71784 -19.9902,-8.84118 -26.6004,-12.65399 -34.8577,-20.10565 -11.575,-10.44587 -19.5289,-24.35266 -23.2493,-40.6498 -0.8094,-3.54495 -2.7391,-17.93873 -4.2886,-31.98622 -3.8674,-35.06499 -10.3826,-61.94761 -17.1668,-70.83247 -4.9031,-6.42143 -28.0997,-25.7733 -42.2549,-35.2515 -19.6966,-13.18853 -24.9135,-15.14843 -49.4935,-18.5939 -6.7877,-0.95135 -13.7462,-2.19256 -15.4632,-2.75812 -5.7051,-1.87898 -27.703,-5.22583 -52.1456,-7.93361 -44.1161,-4.88725 -206.05484,-8.28808 -241.45965,-5.07076 -39.08088,3.55128 -66.92598,7.55822 -102.48623,14.74804 -12.98517,2.62536 -31.57756,6.22869 -41.31644,8.00734 -9.73887,1.77864 -22.34757,4.66328 -28.01931,6.41038 -10.56861,3.2553 -36.79913,15.64615 -49.24779,23.26372 -3.83653,2.34764 -11.8047,6.83761 -17.70705,9.97766 -15.02043,7.99102 -16.07963,9.14703 -18.73181,20.44391 -3.68882,15.71237 -6.37324,35.62303 -8.67586,64.34997 -1.20641,15.05099 -2.67635,30.45129 -3.26653,34.22289 -2.42203,15.47842 -12.61419,34.42861 -25.1722,46.80251 -7.51803,7.40787 -25.26651,17.78785 -35.3717,20.68676 -8.77962,2.5187 -15.02233,8.93584 -21.41846,22.01694 -8.45455,17.29088 -9.15667,21.87367 -9.23099,60.25068 -0.10216,52.77513 -1.05179,66.81823 -5.77345,85.38193 -5.30378,20.8524 -9.59091,29.5916 -19.27373,39.289 -4.61687,4.6238 -10.18215,8.924 -14.1226,10.9122 -9.2988,4.692 -9.51473,5.0825 -7.97359,14.4218 3.09883,18.7792 11.64892,57.9976 12.92218,59.2727 0.55987,0.5607 1.01796,2.5288 1.01796,4.3734 0,1.8447 1.46737,8.3882 3.26081,14.5413 1.79346,6.153 4.74271,16.2579 6.5539,22.4554 21.44434,73.3772 45.98662,134.5044 71.18642,177.3034 l 7.40365,12.5743 4.89442,0.572 c 18.25558,2.1334 25.39436,5.3751 36.57577,16.6083 6.09682,6.1251 9.17962,10.3415 12.59874,17.2312 5.21719,10.5131 9.42389,24.4083 11.42446,37.7363 0.83681,5.575 2.21032,10.3969 3.43041,12.0431 4.60533,6.2133 35.93654,31.5148 56.76569,45.8411 18.51976,12.738 60.98447,35.1587 85.85233,45.3287 33.82798,13.8344 105.26308,38.2676 111.88256,38.2676 1.38323,0 3.819,0.6742 5.41283,1.4982 2.4656,1.2748 25.8995,6.0822 36.16567,7.4193 1.7707,0.2306 9.2008,0.4917 16.51134,0.5801 11.09113,0.1341 15.97743,-0.3905 29.51174,-3.1688 z m -72.85194,-101.8973 c -11.88686,-1.1388 -19.09894,-3.565 -22.4557,-7.5543 -1.51989,-1.8063 -2.76342,-4.237 -2.76342,-5.4014 0,-2.8262 2.45266,-7.4231 5.36857,-10.0619 2.75458,-2.4929 -2.0454,-2.4364 59.55726,-0.701 24.19962,0.6817 49.63424,1.2397 56.52134,1.2398 l 12.522,3e-4 2.2338,3.6144 c 3.8816,6.2805 2.1113,13.9361 -3.8563,16.6769 -1.7313,0.7951 -10.3963,1.7855 -20.20206,2.309 -20.6462,1.1023 -74.94321,1.0262 -86.92549,-0.1218 z m -14.48758,-62.222 c -54.39701,-3.8636 -105.74031,-8.7073 -120.19327,-11.3388 -13.83207,-2.5186 -29.98048,-9.2045 -35.50747,-14.701 -9.47174,-9.4194 -12.26113,-21.5297 -7.27475,-31.5836 l 2.53893,-5.1193 7.34039,-0.3195 c 4.51786,-0.1967 7.92686,0.1672 8.86558,0.9462 0.83887,0.6963 2.51914,4.5382 3.73393,8.5376 2.47167,8.1374 3.76183,9.6639 10.79965,12.777 10.25058,4.5343 27.38049,6.9125 77.64903,10.7801 15.93634,1.2262 32.11414,2.7403 35.95066,3.3648 9.3487,1.5216 127.91575,1.5542 137.36375,0.037 3.8365,-0.6157 15.4266,-1.6477 25.7557,-2.2931 46.7461,-2.921 66.7417,-4.6166 77.7525,-6.5931 20.5036,-3.6807 25.7964,-5.1617 29.5012,-8.2546 3.2317,-2.6979 3.5681,-3.5917 4.379,-11.6361 1.0077,-9.9959 2.2689,-12.5655 7.3506,-14.9768 6.2142,-2.949 14.0377,-0.4763 18.0972,5.7197 1.5042,2.2957 1.8823,5.1182 1.841,13.7408 -0.047,9.7881 -0.3345,11.3339 -2.9342,15.77 -6.3287,10.7991 -18.5452,18.2854 -36.184,22.1738 -22.7128,5.0068 -37.0943,6.5166 -108.9251,11.4355 -28.8003,1.9721 -117.78733,2.9612 -137.90033,1.5327 z m 43.99932,-123.2271 c -16.35038,-4.5664 -38.63355,-20.2264 -38.63355,-27.1507 0,-7.2355 5.15371,-11.4412 12.36307,-10.0887 4.34506,0.8152 10.16664,6.136 17.93838,16.3953 7.11459,9.3918 11.36449,11.3588 24.54742,11.3614 13.48945,0 17.03396,-1.8753 26.6472,-14.1188 7.40415,-9.4301 13.58178,-14.093 18.68289,-14.1023 3.8134,-0.011 10.3559,6.1806 10.3559,9.7939 0,6.1037 -23.3125,23.0028 -37.39529,27.1075 -9.33185,2.72 -26.23238,3.113 -34.50602,0.8024 z m -53.65771,-9.825 c -10.58945,-5.7383 -17.19639,-15.7637 -17.32206,-26.2846 -0.0978,-8.1857 4.87492,-22.6107 9.33767,-27.087 3.72946,-3.7408 5.69683,-4.2097 9.39638,-2.2394 5.07061,2.7007 6.42825,7.953 3.51292,13.5906 -0.83272,1.6103 -2.25995,5.7844 -3.17162,9.2755 -1.48343,5.6807 -1.48674,6.7078 -0.0315,9.7744 0.89437,1.8848 4.49474,5.6546 8.00082,8.3773 7.6489,5.9399 8.43302,9.4983 3.23778,14.6935 -3.91182,3.9119 -5.58011,3.8989 -12.9604,-0.1 z m 125.08332,0.8522 c -0.9188,-1.3119 -1.6706,-3.922 -1.6706,-5.8003 0,-2.8365 1.1192,-4.4034 6.6046,-9.247 6.3839,-5.6369 6.6214,-6.0341 7.1065,-11.884 0.3332,-4.0176 -0.1115,-7.9273 -1.3227,-11.6304 -3.0929,-9.4559 -0.18,-15.9304 7.1671,-15.9304 5.5997,0 9.4101,6.2436 12.3039,20.1602 1.4949,7.1895 1.4748,8.3769 -0.2491,14.7456 -2.2467,8.2996 -6.9681,14.2805 -14.8354,18.7928 -6.8575,3.9331 -12.6906,4.2396 -15.1043,0.7935 z m -105.31549,-65.0733 c -5.79318,-3.5808 -6.34351,-6.7563 -3.78181,-21.8216 3.36073,-19.7644 4.36568,-31.6682 4.37651,-51.8398 0.0143,-26.5298 -2.39154,-44.4787 -8.16025,-60.8817 -4.18104,-11.8885 -4.42153,-16.2151 -1.08663,-19.5501 2.20156,-2.2015 3.784,-2.7377 8.07927,-2.7377 4.60618,0 5.62849,0.4062 7.42646,2.9512 8.42285,11.922 16.27009,59.1256 14.85211,89.3401 -0.88388,18.8339 -5.4682,54.7673 -7.48458,58.6665 -3.54022,6.8461 -8.9994,9.1006 -14.22108,5.8731 z m -254.25203,-13.012 c -2.36093,-0.5311 -6.48662,-0.9935 -9.1682,-1.0276 -9.38651,-0.119 -28.20281,-6.8026 -44.20554,-15.7018 -3.29235,-1.831 -7.71692,-7.2135 -9.22378,-11.2209 -1.40319,-3.7317 0.9566,-7.8304 5.84331,-10.1493 3.86493,-1.8341 4.0936,-1.8228 8.36423,0.4121 2.41487,1.2637 6.98633,3.9377 10.15881,5.9424 3.17248,2.0047 10.41627,5.2111 16.09732,7.1256 10.24187,3.4516 10.54272,3.4852 35.59951,3.9768 29.28599,0.5746 40.26725,-0.5172 53.60648,-5.3301 12.12042,-4.3732 14.80236,-4.6558 19.04849,-2.0066 3.1069,1.9383 3.48775,2.7104 3.48775,7.0697 0,7.6708 -5.01911,11.4694 -20.97033,15.8705 -16.18667,4.466 -57.6528,7.5103 -68.63805,5.0392 z m 561.25962,-0.072 c -3.5414,-0.5545 -9.5779,-1.4789 -13.4144,-2.0542 -10.2338,-1.5346 -27.3074,-7.1871 -30.939,-10.2429 -5.6674,-4.7688 -5.1669,-12.9536 0.9865,-16.1357 3.9908,-2.0637 6.0661,-1.7656 17.66,2.5372 12.6707,4.7024 25.2339,5.9317 53.9064,5.2745 30.5035,-0.6992 38.8029,-2.6934 54.97,-13.2089 10.5101,-6.8361 12.7154,-6.9758 19.0485,-1.2075 4.1992,3.8247 3.2406,7.879 -3.379,14.2905 -9.7894,9.482 -27.1188,16.5842 -48.0309,19.685 -10.8876,1.6144 -42.9941,2.2855 -50.8081,1.062 z m -534.03997,-48.782 c -6.8635,-2.1996 -19.86886,-11.7727 -24.77275,-18.2348 -6.17177,-8.1329 -8.67748,-15.5217 -9.19012,-27.0999 -0.96746,-21.8502 9.0941,-38.4679 29.81604,-49.2441 5.64316,-2.9346 6.53932,-3.0694 20.40791,-3.0694 14.31968,0 14.60033,0.046 21.90297,3.6394 15.3174,7.5361 27.44267,24.1923 28.99025,39.8234 2.214,22.3622 -8.42674,41.6534 -28.25372,51.2227 -7.82987,3.779 -8.70587,3.9558 -21.04775,4.2501 -9.1768,0.2188 -14.30764,-0.1512 -17.85283,-1.2874 z m 523.43477,0.4249 c -13.0753,-3.0695 -26.7274,-14.5975 -33.4746,-28.266 -4.1969,-8.5023 -4.2121,-8.5803 -4.2121,-21.4874 0,-12.5728 0.1081,-13.1745 3.6709,-20.4419 4.61,-9.4032 15.2043,-20.1923 24.2311,-24.6768 5.9361,-2.9489 7.4886,-3.2261 19.8778,-3.5486 11.6787,-0.304 14.194,-0.053 19.2033,1.9221 18.1919,7.1706 29.4182,21.2018 32.4737,40.5869 3.0843,19.5679 -8.6784,41.9092 -26.9362,51.1611 -10.1007,5.1184 -24.7543,7.1169 -34.8339,4.7506 z m -414.36383,-73.0329 c -3.68811,-2.0398 -7.05492,-5.5214 -10.85548,-11.2257 -5.21602,-7.8287 -19.74183,-21.3922 -30.73923,-28.703 -16.4811,-10.9562 -36.94874,-18.603 -56.06232,-20.9454 -19.97564,-2.448 -57.33385,-1.0917 -71.83023,2.6078 -18.31209,4.6731 -35.48938,16.0024 -52.37929,34.5467 -4.37614,4.8049 -12.8904,4.4744 -18.06596,-0.7012 -6.63316,-6.6331 -4.61471,-13.1549 8.33026,-26.9154 16.40256,-17.4361 43.60489,-31.0845 71.57456,-35.9115 11.28638,-1.9479 43.75967,-2.2231 59.46178,-0.504 38.54442,4.2201 70.78388,19.0086 95.7652,43.9283 11.04803,11.0208 20.93965,24.7123 22.02201,30.4818 1.71181,9.1247 -9.35047,17.6948 -17.2213,13.3416 z m 318.85013,-0.9887 c -3.5881,-2.8224 -6.0257,-7.4705 -6.0257,-11.4902 0,-5.945 16.5334,-27.2005 30.7469,-39.5287 16.2722,-14.1138 38.3957,-25.154 63.0996,-31.4882 17.1686,-4.4021 31.831,-5.6921 58.5526,-5.1515 22.3067,0.4512 23.5367,0.5924 37.5727,4.3094 28.4732,7.5403 52.0372,21.9187 65.112,39.7302 5.412,7.3726 6.9805,12.2839 5.0903,15.939 -2.4302,4.6997 -7.7143,8.458 -11.8918,8.458 -5.2048,0 -6.9733,-1.1687 -15.7506,-10.409 -13.1972,-13.8932 -26.4356,-21.8069 -46.4463,-27.7648 -8.9807,-2.6739 -11.2191,-2.8754 -37.4535,-3.3721 -27.0413,-0.512 -28.3308,-0.4406 -41.7972,2.3144 -30.249,6.1884 -55.927,20.7419 -72.9184,41.328 -3.6764,4.4542 -7.7495,9.6338 -9.0514,11.5106 -5.1032,7.3561 -13.4594,9.8467 -18.8392,5.6149 z m -328.1694,-85.7381 c -12.12801,-3.6597 -78.65711,-7.6803 -139.84917,-8.4514 l -54.73086,-0.6898 -3.52484,-2.6439 c -7.66886,-5.7521 -5.85888,-10.2963 10.3952,-26.0988 18.69845,-18.17887 39.45586,-30.32043 57.09521,-33.39641 8.85011,-1.54341 9.47598,-1.50746 24.07179,1.379 8.242,1.62991 16.04027,3.53261 17.32949,4.22812 1.28922,0.69541 3.3234,1.2645 4.52038,1.2645 3.28974,0 41.5341,15.36714 58.85311,23.64803 14.85108,7.10086 37.63655,19.98306 43.34618,24.50656 5.20423,4.123 4.50582,12.7414 -1.27478,15.7306 -3.25894,1.6853 -11.50076,1.9511 -16.23171,0.5235 z m 319.6304,-2.16 c -5.9487,-7.0697 -4.6963,-10.2067 7.4084,-18.5565 8.3595,-5.7664 51.115,-27.16841 67.5428,-33.80973 25.1405,-10.16363 51.7956,-17.39454 64.1206,-17.39454 6.8232,0 21.3629,3.19736 26.5221,5.83249 1.497,0.76451 4.9339,2.3751 7.6377,3.57896 7.7489,3.4503 25.2827,17.28669 36.1322,28.51282 9.4528,9.781 9.9267,10.4962 9.9267,14.9823 0,5.1276 -1.5096,7.1738 -6.9775,9.4579 -2.4136,1.0081 -16.3556,1.3758 -55.802,1.4719 -55.2353,0.1344 -86.3811,1.7968 -131.0897,6.997 -10.1247,1.1775 -19.3779,2.1411 -20.5628,2.1411 -1.1849,0 -3.3712,-1.4462 -4.8585,-3.2137 z m -616.00491,267.7288 c 0.34341,-0.8949 -0.10292,-3.6716 -0.99194,-6.1706 -10.34812,-29.0888 -14.71827,-42.764 -14.72086,-46.0649 -0.002,-2.1785 -0.53224,-4.288 -1.17895,-4.6877 -0.64672,-0.3997 -3.56577,1.6243 -6.4868,4.4975 l -5.31095,5.2243 -7.10109,-0.1741 c -5.81988,-0.1427 -8.47355,-0.871 -14.70799,-4.0365 -11.37309,-5.7747 -17.5848,-10.9709 -25.31396,-21.1756 -3.83653,-5.0652 -8.26705,-10.8424 -9.84559,-12.8381 -3.26752,-4.1311 -8.60624,-16.8835 -14.43893,-34.4897 -3.47458,-10.4881 -4.05726,-13.7172 -4.45774,-24.7042 -0.25339,-6.9515 -0.14418,-14.3263 0.2427,-16.3885 1.42414,-7.5915 11.46128,-15.5083 19.66147,-15.5083 4.70793,0 13.02097,4.7091 15.79984,8.9502 0.9535,1.4552 2.89012,9.0108 4.30361,16.7903 4.19348,23.0797 9.52754,36.351 19.67111,48.942 5.2914,6.5681 16.81814,16.5356 19.1224,16.5356 1.68111,0 -0.6568,-8.665 -4.51687,-16.7409 -1.43871,-3.01 -2.61583,-6.0659 -2.61583,-6.791 0,-0.7251 -1.91929,-8.3181 -4.26506,-16.8734 -5.19972,-18.9639 -12.68289,-53.7285 -13.98797,-64.9839 -1.54173,-13.2965 -2.19146,-14.0243 -22.83678,-25.5802 -4.59723,-2.5732 -11.73629,-7.7207 -15.86457,-11.4388 -4.12827,-3.7182 -7.93543,-6.7603 -8.46035,-6.7603 -3.56932,0 -23.08691,27.8267 -28.46989,40.5903 -8.2706,19.6104 -10.69306,34.5246 -9.93202,61.148 0.61807,21.6216 2.03722,28.5001 9.84633,47.7239 6.74708,16.6094 14.28034,28.07 27.63895,42.0476 13.39752,14.0184 26.13173,23.5293 41.11223,30.706 20.62332,9.88 56.14165,17.3688 58.1055,12.251 z m 958.70811,0.055 c 39.0508,-5.9759 69.9906,-24.7994 94.4785,-57.4804 10.2854,-13.7267 20.3832,-37.7564 24.1591,-57.4911 3.1137,-16.2737 1.1978,-43.7956 -4.4221,-63.5247 -4.873,-17.1069 -15.8173,-37.1203 -28.0438,-51.2821 -5.5348,-6.4109 -8.0109,-7.1355 -12.4501,-3.6437 -5.8529,4.6038 -19.7078,10.5585 -26.3029,11.3047 -3.9133,0.4428 -7.1674,1.4428 -8.0877,2.4853 -0.9193,1.0415 -2.9216,10.6106 -4.9682,23.7443 -3.2893,21.1081 -12.6617,64.8089 -17.0316,79.4134 -1.1479,3.8365 -2.3401,8.1828 -2.6492,9.6584 -0.309,1.4756 -1.5697,6.5021 -2.8014,11.1701 -1.2317,4.6679 -2.0064,8.7203 -1.7215,9.0051 1.0211,1.0212 12.556,-8.8148 17.2444,-14.7046 9.8249,-12.3428 15.9944,-27.438 19.7592,-48.3457 1.2145,-6.7448 3.1685,-14.2239 4.3423,-16.6203 2.7635,-5.6425 8.6773,-9.4505 15.5671,-10.0241 4.702,-0.3913 6.0245,0 10.69,3.1466 8.6731,5.8536 9.7033,8.5774 9.6807,25.593 l -0.019,14.4876 -5.673,16.3954 c -7.2359,20.9127 -10.9115,29.0538 -15.4432,34.2063 -1.9975,2.271 -6.1511,7.5787 -9.2303,11.7947 -3.0791,4.2161 -7.1605,8.8352 -9.0697,10.2646 -7.4039,5.5436 -16.7862,10.5099 -22.829,12.0838 -10.1662,2.648 -11.7161,2.3182 -18.2789,-3.8886 -3.2175,-3.0429 -6.0785,-5.3041 -6.358,-5.0246 -0.2794,0.2794 -1.939,5.3045 -3.6879,11.1668 -1.7489,5.8622 -5.6197,17.7987 -8.6019,26.5255 -2.982,8.7267 -5.422,17.0571 -5.422,18.5119 0,3.2355 2.1549,3.3701 17.1705,1.0724 z m 462.5295,-289.7887 V 68.293413 H 951.88779 C 106.48075,68.293413 0,68.113349 0,66.683682 0,65.254015 106.59998,65.073951 952.96094,65.073951 H 1905.9219 V 1013.7424 c 0,631.7301 -0.3586,948.6683 -1.0732,948.6683 -0.7146,0 -1.0731,-316.4016 -1.0731,-947.0586 z M 138.43689,272.19271 c 0,-1.7707 0.39928,-3.21946 0.8873,-3.21946 0.488,0 0.67466,1.44876 0.41477,3.21946 -0.25988,1.77071 -0.65916,3.21947 -0.88729,3.21947 -0.22812,0 -0.41478,-1.44876 -0.41478,-3.21947 z"
     id="path12"
     inkscape:connector-curvature="0" />
</svg>
