<?xml version="1.0" encoding="UTF-8" standalone="no"?>
<!-- Created with Inkscape (http://www.inkscape.org/) -->

<svg
   xmlns:dc="http://purl.org/dc/elements/1.1/"
   xmlns:cc="http://creativecommons.org/ns#"
   xmlns:rdf="http://www.w3.org/1999/02/22-rdf-syntax-ns#"
   xmlns:svg="http://www.w3.org/2000/svg"
   xmlns="http://www.w3.org/2000/svg"
   xmlns:sodipodi="http://sodipodi.sourceforge.net/DTD/sodipodi-0.dtd"
   xmlns:inkscape="http://www.inkscape.org/namespaces/inkscape"
   version="1.1"
   id="svg2"
   width="1293.3333"
   height="1293.3333"
   viewBox="0 0 1293.3333 1293.3333"
   sodipodi:docname="CD_Svg_1.svg"
   inkscape:version="0.92.1 r15371">
  <metadata
     id="metadata8">
    <rdf:RDF>
      <cc:Work
         rdf:about="">
        <dc:format>image/svg+xml</dc:format>
        <dc:type
           rdf:resource="http://purl.org/dc/dcmitype/StillImage" />
        <dc:title></dc:title>
      </cc:Work>
    </rdf:RDF>
  </metadata>
  <defs
     id="defs6" />
  <sodipodi:namedview
     pagecolor="#ffffff"
     bordercolor="#666666"
     borderopacity="1"
     objecttolerance="10"
     gridtolerance="10"
     guidetolerance="10"
     inkscape:pageopacity="0"
     inkscape:pageshadow="2"
     inkscape:window-width="731"
     inkscape:window-height="480"
     id="namedview4"
     showgrid="false"
     inkscape:zoom="0.18247424"
     inkscape:cx="646.66663"
     inkscape:cy="646.66663"
     inkscape:window-x="0"
     inkscape:window-y="27"
     inkscape:window-maximized="0"
     inkscape:current-layer="svg2" />
  <path
     style="fill:#000000;stroke-width:1.33333325"
     d="m 574.58782,1292.9153 c -2.56667,-0.2925 -11.99573,-1.1652 -20.95348,-1.9394 -73.31682,-6.3366 -148.37407,-27.862 -217.04651,-62.246 C 172.28979,1146.4665 53.346593,993.42388 14.022033,813.68895 -2.0276068,740.33322 -4.3693968,660.72476 7.3575732,587.13341 24.728873,478.12174 71.560233,375.74402 143.72463,289.0223 c 16.58945,-19.93596 61.95399,-64.18578 82.8632,-80.82708 36.34149,-28.92356 64.60802,-47.32697 103.33333,-67.27693 77.24157,-39.79222 153.85868,-61.168869 241.33333,-67.333509 24.53821,-1.72929 75.85596,-0.98293 98.66666,1.435 79.98172,8.47804 150.95657,29.583889 221.22177,65.784869 57.5541,29.65216 102.143,62.31064 149.55848,109.54161 52.6527,52.44804 85.0692,97.42097 117.2566,162.67604 40.6355,82.38221 60.4799,162.79773 62.845,254.66666 1.3251,51.4749 -2.9328,97.01925 -13.6494,145.99999 -39.3076,179.65753 -158.4504,332.90505 -322.70588,415.08055 -65.9897,33.0141 -130.7284,52.1573 -208.52657,61.6613 -15.72752,1.9213 -90.24382,3.7483 -101.33333,2.4845 z m 67.95817,-23.898 c 83.8092,-3.0458 177.17123,-30.0518 255.18343,-73.8146 76.1796,-42.7348 144.70558,-104.8849 194.61338,-176.5062 51.1133,-73.35142 85.917,-160.73802 98.9072,-248.34088 5.8208,-39.25418 7.8033,-96.73444 4.6447,-134.66666 -10.1442,-121.82361 -56.7302,-235.41257 -135.3422,-329.99999 -13.4183,-16.14512 -45.4741,-48.91439 -62.30168,-63.68824 C 905.30982,160.40251 789.91731,110.60935 665.40102,98.372291 624.93559,94.395481 564.46926,96.084831 522.57065,102.36279 453.69841,112.6824 383.11993,137.10061 321.25449,172.01265 252.80251,210.64161 187.0332,268.53938 140.62659,331.0223 90.449583,398.58176 54.666593,476.34792 37.399733,555.36232 c -2.33986,10.70737 -2.36818,11.66937 -0.34663,11.77503 7.95389,0.41572 412.331667,0.16512 412.616547,-0.2557 0.19584,-0.28932 4.69319,-5.71209 9.99409,-12.05061 17.59599,-21.04029 38.04639,-36.76283 64.92408,-49.91449 55.95821,-27.38121 119.01547,-26.85683 175.33333,1.4581 18.88439,9.4945 35.33491,21.41647 50.61769,36.6835 47.4578,47.40885 67.60518,114.79602 54.00598,180.63422 -8.56667,41.47368 -32.93951,82.58494 -65.09908,109.80681 -60.53164,51.2377 -143.10819,62.1518 -213.72489,28.2478 -30.28155,-14.53857 -52.25767,-32.26691 -73.46773,-59.26709 l -3.00138,-3.82072 -203.66528,0.0925 c -112.01591,0.0509 -205.250137,0.13253 -207.187167,0.18156 l -3.52188,0.089 2.57582,11.66666 c 26.60119,120.48459 91.999537,230.87431 185.801267,313.62501 99.18314,87.4981 228.47516,139.4722 361.27832,145.2303 13.23025,0.5737 27.055,0.8584 30.72167,0.6328 3.66666,-0.2257 15.94784,-0.7476 27.2915,-1.1598 z M 433.25449,771.64463 c 0,-0.39105 -1.43147,-3.54105 -3.18104,-7 -8.13587,-16.08484 -14.6898,-41.61502 -16.99672,-66.20893 -2.65664,-28.32238 3.21003,-65.49854 14.32049,-90.74674 2.58163,-5.86667 5.01983,-11.41667 5.41822,-12.33333 0.57768,-1.32918 -40.05544,-1.66667 -200.66177,-1.66667 -190.626857,0 -201.425477,0.12467 -202.122637,2.33333 -4.58018,14.51058 -7.73583,99.61031 -4.91024,132.41675 1.58806,18.4381 4,39.30621 4.88326,42.24991 0.3972,1.32378 41.93073,1.66667 201.875267,1.66667 110.75635,0 201.37517,-0.31995 201.37517,-0.71099 z M 158.72734,736.99574 c -43.03215,-12.07134 -57.20056,-65.86096 -24.97891,-94.831 3.68506,-3.31318 8.96315,-7.17848 11.72908,-8.58956 16.85945,-8.60105 43.19345,-8.79293 62.11032,-0.45257 l 7,3.08627 v 7.84604 7.84604 l -7.66667,-3.7541 c -28.49996,-13.95541 -58.42577,-8.09957 -70.3237,13.76084 -3.11303,5.71968 -3.96388,9.17016 -4.42428,17.94196 -0.80428,15.32334 1.91033,22.88164 11.75316,32.72447 6.44637,6.44637 9.02789,8.01852 17.2848,10.52648 13.28001,4.03368 25.06901,3.13016 40.61778,-3.113 l 11.42558,-4.5876 v 7.75313 7.75314 l -11,3.54572 c -13.81603,4.45344 -32.77064,5.56116 -43.52716,2.54374 z m 76.88726,-0.19412 c -0.33176,-0.61197 -0.5485,-25.11266 -0.48165,-54.446 l 0.1216,-53.33333 24.63812,-0.36459 c 14.14044,-0.20925 27.61546,0.25351 31.62597,1.08608 17.43465,3.61942 34.46743,17.44195 40.53979,32.89907 4.28876,10.91699 4.29629,29.8236 0.0163,40.71556 -5.77276,14.69052 -17.2059,25.53707 -32.82009,31.13619 -5.39011,1.93284 -12.06365,2.48913 -34.85168,2.90514 -15.50176,0.283 -28.45645,0.0139 -28.78821,-0.59812 z m 61.64801,-16.5948 c 14.57707,-6.76268 22.81271,-19.48814 23.02328,-35.57486 0.15692,-11.98815 -3.14293,-21.29566 -10.41946,-29.38891 -9.4472,-10.50757 -16.01992,-12.71543 -39.61193,-13.3062 l -19.66667,-0.49247 v 41.60095 41.60095 l 19.66667,-0.51679 c 17.66503,-0.46419 20.41386,-0.86343 27.00811,-3.92267 z m 334.88234,23.16696 c 17.57411,-6.37032 32.21678,-20.97966 38.88282,-38.79436 4.01597,-10.73248 4.01597,-32.38178 0,-43.11426 -6.7015,-17.90943 -20.97339,-32.18132 -38.88282,-38.88282 -10.73248,-4.01597 -32.38178,-4.01597 -43.11426,0 -17.75771,6.64472 -32.2381,21.12511 -38.88282,38.88282 -4.02773,10.76392 -4.01638,32.37904 0.0227,43.17878 7.35679,19.67075 23.46531,34.36778 44.41728,40.52523 8.65713,2.5442 28.15693,1.61203 37.55713,-1.79539 z"
     id="path12"
     inkscape:connector-curvature="0" />
</svg>
