<?xml version="1.0" encoding="UTF-8" standalone="no"?>
<!-- Created with Inkscape (http://www.inkscape.org/) -->

<svg
   xmlns:dc="http://purl.org/dc/elements/1.1/"
   xmlns:cc="http://creativecommons.org/ns#"
   xmlns:rdf="http://www.w3.org/1999/02/22-rdf-syntax-ns#"
   xmlns:svg="http://www.w3.org/2000/svg"
   xmlns="http://www.w3.org/2000/svg"
   xmlns:sodipodi="http://sodipodi.sourceforge.net/DTD/sodipodi-0.dtd"
   xmlns:inkscape="http://www.inkscape.org/namespaces/inkscape"
   version="1.1"
   id="svg2"
   width="1293.3333"
   height="1836"
   viewBox="0 0 1293.3333 1836"
   sodipodi:docname="CD_Stat.svg"
   inkscape:version="0.92.1 r15371">
  <metadata
     id="metadata8">
    <rdf:RDF>
      <cc:Work
         rdf:about="">
        <dc:format>image/svg+xml</dc:format>
        <dc:type
           rdf:resource="http://purl.org/dc/dcmitype/StillImage" />
        <dc:title></dc:title>
      </cc:Work>
    </rdf:RDF>
  </metadata>
  <defs
     id="defs6" />
  <sodipodi:namedview
     pagecolor="#ffffff"
     bordercolor="#666666"
     borderopacity="1"
     objecttolerance="10"
     gridtolerance="10"
     guidetolerance="10"
     inkscape:pageopacity="0"
     inkscape:pageshadow="2"
     inkscape:window-width="731"
     inkscape:window-height="529"
     id="namedview4"
     showgrid="false"
     inkscape:zoom="0.12854031"
     inkscape:cx="646.66663"
     inkscape:cy="918"
     inkscape:window-x="75"
     inkscape:window-y="63"
     inkscape:window-maximized="0"
     inkscape:current-layer="svg2" />
  <path
     style="fill:#000000;stroke-width:1.33333337"
     d="M 554.00243,1784.1388 C 280.73096,1704.2206 60.969464,1639.9436 29.335781,1630.6818 L 0.669114,1622.2887 0.334557,902.24391 0,182.19915 51.250479,170.82647 102.50096,159.4538 258.25169,205.03266 c 140.36054,41.07507 395.526,115.70221 525.08408,153.56906 l 49.33333,14.419 v 97.9738 97.97379 l -9.09732,0.89924 c -5.00352,0.49459 -11.45352,1.29733 -14.33333,1.78387 l -5.23602,0.88462 v -80.68046 -80.68047 l -4.33334,-1.38348 c -2.38333,-0.76092 -46.63333,-13.74379 -98.33333,-28.85081 -51.7,-15.10703 -129.7,-37.91014 -173.33333,-50.67359 C 484.3691,317.50378 375.7735,285.74011 286.67888,259.6813 197.58427,233.62247 122.58427,212.34381 120.01223,212.39535 c -2.57206,0.0515 -5.87646,0.57442 -7.34311,1.16195 -3.43133,1.37456 -57.648952,-14.69902 499.99998,148.23213 60.13334,17.56945 111.28333,32.56875 113.66667,33.33175 l 4.33333,1.38726 -0.0337,97.56327 -0.0337,97.56327 -11.6329,4.4839 c -61.48174,23.69811 -123.59947,69.79918 -165.53047,122.84943 -96.29357,121.82857 -114.66526,283.19899 -48.31652,424.39469 40.66304,86.5344 117.60109,159.827 206.87436,197.0724 l 18.00626,7.5124 0.33739,215.1142 c 0.18556,118.313 0.78604,215.5631 1.3344,216.1114 0.76332,0.7633 41.55601,-7.5968 69.32821,-14.2084 l 3,-0.7142 V 1565.465 1366.6792 l 3,0.7101 c 1.65,0.3906 7.2,1.1039 12.33334,1.5851 5.13333,0.4812 10.38333,1.1671 11.66666,1.5243 2.21023,0.615 2.33333,12.3113 2.33333,221.6907 v 221.0414 l -48.99999,-14.4145 c -26.95,-7.928 -49.73732,-14.4371 -50.63848,-14.4647 -1.22911,-0.037 -1.7288,6.4084 -2,25.7992 L 731.33577,1836 Z M 837.33575,1358.869 C 688.49309,1346.4191 559.45759,1251.086 505.40603,1113.635 461.32996,1001.5512 470.39448,878.32558 530.41656,773.63498 560.00788,722.02176 610.17876,670.511 662.62765,637.89299 c 67.16368,-41.76911 150.11811,-62.81804 227.40385,-57.70165 57.30161,3.79342 103.47348,16.19942 153.8565,41.33993 63.0789,31.47564 118.8417,82.67753 156.4554,143.65869 28.7987,46.68975 47.4886,99.98742 55.0944,157.11168 2.8221,21.19592 3.1938,66.51182 0.7272,88.66666 -18.4241,165.4847 -137.533,300.4295 -298.82924,338.5595 -38.94038,9.2054 -81.7671,12.5392 -120.00001,9.3412 z m 77.91298,-16.5388 c 60.58966,-8.1496 116.31787,-29.4081 165.42037,-63.1022 129.2622,-88.6999 189.814,-249.1813 151.4106,-401.28566 -12.2856,-48.65947 -33.0564,-92.31723 -63.1188,-132.66824 C 1085.458,633.19304 945.71046,576.54151 808.13137,598.99926 c -96.99476,15.83297 -182.47076,67.6963 -241.07558,146.27484 -23.79679,31.90718 -41.05353,64.45714 -53.85668,101.58546 -4.80072,13.92172 -13.19668,44.47978 -13.19668,48.03076 0,0.9823 36.0606,1.41132 118.62605,1.41132 H 737.2545 l 6.92552,-10.33333 c 14.67411,-21.89476 41.29755,-43.92617 65.01156,-53.79833 5.4711,-2.27763 15.69172,-5.69702 22.71249,-7.59863 11.51999,-3.12027 15.10588,-3.45749 36.76503,-3.45749 21.71436,0 25.22784,0.33236 36.89272,3.48988 54.48936,14.7495 94.16846,54.43768 108.78038,108.80518 3.1066,11.55924 3.4721,15.37502 3.5338,36.89272 0.059,20.71328 -0.3373,25.52815 -2.8963,35.15866 -7.7363,29.1146 -19.67922,50.0293 -40.40093,70.751 -28.25094,28.2509 -59.62002,42.1417 -98.72798,43.7184 -22.18233,0.8943 -35.66855,-0.8674 -54.51502,-7.1215 -32.49002,-10.7817 -59.89215,-31.7295 -78.08871,-59.6958 l -6.57796,-10.1097 -118.33333,-0.017 c -93.78885,-0.014 -118.33259,0.3285 -118.32975,1.6495 0.001,0.9166 1.76026,8.5667 3.90732,17 32.97161,129.5081 131.14415,231.2765 259.10891,268.5995 25.14996,7.3354 50.09137,11.7607 82.3135,14.6047 11.49879,1.0148 55.43766,-0.562 69.91298,-2.509 z m -23.08762,-234.6523 c 35.57772,-6.2307 67.25291,-25.9168 89.10145,-55.3763 25.54194,-34.4395 33.23094,-80.36312 20.53234,-122.63354 -6.39502,-21.28751 -16.66552,-38.66259 -32.85495,-55.58231 -52.88152,-55.2668 -140.13758,-57.55148 -195.44466,-5.11744 -10.04924,9.52721 -21.49286,23.31668 -21.49286,25.89872 0,0.82683 2.74106,1.43461 6.46998,1.43461 6.31488,0 6.61948,-0.19028 12.7063,-7.93784 13.99715,-17.81613 42.73783,-35.71754 66.82372,-41.6218 16.92995,-4.15009 43.11091,-4.14492 60,0.012 25.61727,6.30499 52.72811,23.64927 68.7537,43.9855 10.19959,12.94309 20.31105,33.41592 24.14945,48.89561 4.1915,16.90368 4.2007,43.09223 0.021,59.83599 -11.38523,45.6091 -46.11774,80.6286 -92.25742,93.0198 -9.33992,2.5083 -14.73387,3.0437 -30.66667,3.0437 -15.9328,0 -21.32675,-0.5354 -30.66667,-3.0437 -26.30705,-7.065 -51.37575,-22.8763 -66.68138,-42.0573 -5.87594,-7.3638 -6.05219,-7.4653 -12.97111,-7.4653 -3.85783,0 -7.01423,0.534 -7.01423,1.1867 0,2.2479 11.61021,16.8313 20.12937,25.2841 19.91238,19.7572 45.7301,33.1557 73.64948,38.2216 13.05145,2.3681 34.24585,2.3758 47.71316,0.017 z m -166.22933,-89.988 c -9.77557,-28.89414 -9.76476,-65.90783 0.0277,-94.62179 1.85698,-5.44512 3.3763,-10.09841 3.3763,-10.34065 0,-0.24226 -52.34999,-0.28716 -116.33333,-0.0997 l -116.33335,0.34055 -1.74568,12.66667 c -2.35259,17.07033 -2.56954,66.28445 -0.37324,84.66662 0.96382,8.0667 2.02025,15.1167 2.34767,15.6667 0.32742,0.55 52.7003,1 116.38417,1 H 729.0709 Z m -148.27185,-14.2528 c -8.32481,-2.5521 -17.88895,-10.50112 -22.01566,-18.29784 -2.23498,-4.22259 -2.92056,-7.83282 -2.94426,-15.50428 -0.0269,-8.72973 0.49145,-10.93155 4.08128,-17.33334 9.32809,-16.63497 30.21686,-22.75689 51.51592,-15.09785 6.06567,2.18119 6.37189,2.53141 6.37189,7.28747 v 4.99617 l -7.54813,-3.45564 c -13.73065,-6.2861 -30.07771,-4.10843 -38.72156,5.15828 -12.09741,12.96915 -8.01653,34.4764 8.10197,42.69944 7.55675,3.85516 20.57952,3.82924 29.36832,-0.0585 3.55944,-1.57451 6.69544,-2.86275 6.9689,-2.86275 0.27344,0 0.49717,2.0436 0.49717,4.54134 0,4.22237 -0.44481,4.6947 -6.33333,6.7249 -9.41323,3.2454 -21.11472,3.7249 -29.34251,1.2026 z m 50.3425,-33.67983 v -34.78896 h 16.42466 c 19.85804,0 28.11429,2.08921 35.86402,9.07525 17.87565,16.11411 14.87952,44.16886 -5.94957,55.7097 -6.70106,3.71284 -7.86113,3.90154 -26.67245,4.33734 l -19.66666,0.4556 z m 36.29193,25.15236 c 10.56896,-2.93528 18.31617,-13.62573 18.31617,-25.27465 0,-11.64892 -7.74721,-22.33938 -18.31617,-25.27466 -2.72723,-0.75742 -9.9086,-1.38049 -15.9586,-1.38457 l -11,-0.007 v 26.66667 26.66666 l 11,-0.008 c 6.05,-0.004 13.23137,-0.62715 15.9586,-1.38458 z m 90.37473,31.55787 c 0,-0.2754 -1.53308,-3.9673 -3.40684,-8.2042 -6.45091,-14.5866 -9.13859,-28.88835 -9.13859,-48.62832 0,-19.73999 2.68768,-34.0417 9.13859,-48.62835 1.87376,-4.23691 3.40684,-7.92881 3.40684,-8.20423 0,-0.27541 -2.95689,-0.50076 -6.57087,-0.50076 h -6.57086 l -2.88594,7.66667 c -7.07101,18.7846 -8.40953,26.59167 -8.51528,49.66667 -0.0872,19.02812 0.32193,23.6055 3.02875,33.88512 1.72128,6.5368 4.2448,14.4868 5.60785,17.6666 2.45459,5.7264 2.54241,5.7816 9.19231,5.7816 3.69273,0 6.71405,-0.2254 6.71404,-0.5008 z m 131.54738,-20.2165 c 14.20959,-6.94322 22.32102,-20.24946 22.32102,-36.61602 0,-11.72304 -2.88564,-19.35742 -10.50411,-27.79016 -15.62991,-17.30044 -44.43201,-17.30044 -60.06192,0 -7.61846,8.43274 -10.5041,16.06712 -10.5041,27.79016 0,11.38761 2.76812,19.04285 9.76917,27.01661 12.16225,13.85201 32.22845,17.78481 48.97994,9.59941 z"
     id="path3682"
     inkscape:connector-curvature="0" />
</svg>
