<?xml version="1.0" encoding="UTF-8" standalone="no"?>
<!-- Created with Inkscape (http://www.inkscape.org/) -->

<svg
   xmlns:dc="http://purl.org/dc/elements/1.1/"
   xmlns:cc="http://creativecommons.org/ns#"
   xmlns:rdf="http://www.w3.org/1999/02/22-rdf-syntax-ns#"
   xmlns:svg="http://www.w3.org/2000/svg"
   xmlns="http://www.w3.org/2000/svg"
   xmlns:sodipodi="http://sodipodi.sourceforge.net/DTD/sodipodi-0.dtd"
   xmlns:inkscape="http://www.inkscape.org/namespaces/inkscape"
   version="1.1"
   id="svg2"
   width="1293.3333"
   height="1836"
   viewBox="0 0 1293.3333 1836"
   sodipodi:docname="CD_Stat_1.svg"
   inkscape:version="0.92.1 r15371">
  <metadata
     id="metadata8">
    <rdf:RDF>
      <cc:Work
         rdf:about="">
        <dc:format>image/svg+xml</dc:format>
        <dc:type
           rdf:resource="http://purl.org/dc/dcmitype/StillImage" />
        <dc:title></dc:title>
      </cc:Work>
    </rdf:RDF>
  </metadata>
  <defs
     id="defs6" />
  <sodipodi:namedview
     pagecolor="#ffffff"
     bordercolor="#666666"
     borderopacity="1"
     objecttolerance="10"
     gridtolerance="10"
     guidetolerance="10"
     inkscape:pageopacity="0"
     inkscape:pageshadow="2"
     inkscape:window-width="731"
     inkscape:window-height="480"
     id="namedview4"
     showgrid="false"
     inkscape:zoom="0.12854031"
     inkscape:cx="646.66663"
     inkscape:cy="918"
     inkscape:window-x="0"
     inkscape:window-y="27"
     inkscape:window-maximized="0"
     inkscape:current-layer="svg2" />
  <path
     style="fill:#000000;stroke-width:1.33333337"
     d="M 554.00239,1784.1388 C 280.73096,1704.2206 60.96947,1639.9436 29.33578,1630.6818 L 0.66912,1622.2887 0.33456,902.24386 0,182.19911 l 51.25048,-11.37268 51.25048,-11.37268 155.75073,45.57887 c 140.36054,41.07507 395.526,115.7022 525.0841,153.56905 l 49.3333,14.419 v 97.9738 97.97379 l -9.0973,0.89924 c -5.0035,0.49459 -11.4535,1.29733 -14.3333,1.78387 l -5.2361,0.88462 v -80.68046 -80.68047 l -4.3333,-1.38348 c -2.3833,-0.76092 -46.6333,-13.74379 -98.3333,-28.85081 -51.7,-15.10703 -129.7,-37.91014 -173.3334,-50.67359 -43.6333,-12.76345 -152.22889,-44.52712 -241.32351,-70.58593 -89.09461,-26.05882 -164.09461,-47.33748 -166.66665,-47.28594 -2.57206,0.0515 -5.87646,0.57442 -7.34311,1.16195 -3.43133,1.37456 -57.64895,-14.69902 499.99997,148.23212 60.1334,17.56945 111.2833,32.56875 113.6667,33.33175 l 4.3333,1.38726 -0.034,97.56327 -0.034,97.56327 -11.6329,4.4839 c -61.4817,23.69811 -123.5995,69.79918 -165.5305,122.84943 -96.2935,121.82857 -114.6652,283.19904 -48.3165,424.39474 40.6631,86.5344 117.6011,159.827 206.8744,197.0724 l 18.0062,7.5124 0.3374,215.1142 c 0.1856,118.313 0.7861,215.5631 1.3344,216.1114 0.7634,0.7633 41.556,-7.5968 69.3282,-14.2084 l 3,-0.7142 V 1565.465 1366.6792 l 3,0.7101 c 1.65,0.3906 7.2,1.1039 12.3334,1.5851 5.1333,0.4812 10.3833,1.1671 11.6666,1.5243 2.2103,0.615 2.3334,12.3113 2.3334,221.6907 v 221.0414 l -49,-14.4145 c -26.95,-7.928 -49.7373,-14.4371 -50.6385,-14.4647 -1.2291,-0.037 -1.7288,6.4084 -2,25.7992 L 731.33519,1836 Z m 283.3334,-425.2698 c -148.8427,-12.4499 -277.8782,-107.783 -331.9298,-245.234 -44.076,-112.0838 -35.0115,-235.30947 25.0106,-340.00007 29.5913,-51.61322 79.7622,-103.12398 132.2111,-135.74199 67.1636,-41.76911 150.1181,-62.81804 227.4038,-57.70165 57.3016,3.79342 103.4735,16.19942 153.85651,41.33993 63.0789,31.47564 118.8417,82.67753 156.4554,143.65869 28.7987,46.68975 47.4886,99.98742 55.0944,157.11168 2.8221,21.19592 3.1938,66.51181 0.7272,88.66671 -18.4241,165.4847 -137.533,300.4295 -298.82921,338.5595 -38.9404,9.2054 -81.7671,12.5392 -120,9.3412 z m 77.9129,-16.5388 c 60.5897,-8.1496 116.31791,-29.4081 165.42041,-63.1022 129.2622,-88.6999 189.814,-249.1813 151.4106,-401.28571 -12.2856,-48.65947 -33.0564,-92.31723 -63.1188,-132.66824 C 1085.458,633.19299 945.71049,576.54146 808.13139,598.99921 c -96.9948,15.83297 -182.4708,67.6963 -241.0756,146.27484 -23.7968,31.90718 -41.0535,64.45714 -53.8567,101.58546 -4.8007,13.92172 -13.1967,44.47978 -13.1967,48.03076 0,0.9834 40.1653,1.41132 132.47,1.41132 h 132.47 l 6.2363,-7.93784 c 13.9972,-17.81613 42.7379,-35.71754 66.8237,-41.6218 16.93,-4.15009 43.1109,-4.14492 60,0.012 25.6173,6.30499 52.7282,23.64927 68.7537,43.9855 10.1996,12.94309 20.3111,33.41592 24.1495,48.89561 4.1915,16.90368 4.2007,43.09224 0.021,59.83604 -11.3852,45.6091 -46.1178,80.6286 -92.2574,93.0198 -16.2803,4.3722 -45.0532,4.3722 -61.3334,0 -26.307,-7.065 -51.3757,-22.8763 -66.6814,-42.0574 l -5.9568,-7.4652 h -132.3476 c -104.9911,0 -132.3468,0.3445 -132.344,1.6666 10e-4,0.9167 1.7603,8.5667 3.9074,17 32.9716,129.5082 131.1441,231.2766 259.1089,268.5996 25.1499,7.3354 50.0913,11.7607 82.3135,14.6046 11.4988,1.0149 55.4376,-0.5619 69.9129,-2.5089 z m -160.5796,-315.8627 c 0,-0.2754 -1.5331,-3.9673 -3.4068,-8.2042 -6.4509,-14.5867 -9.1386,-28.8884 -9.1386,-48.62837 0,-19.73999 2.6877,-34.0417 9.1386,-48.62835 1.8737,-4.23691 3.4068,-7.9318 3.4068,-8.21085 0,-0.27908 -58.05,-0.35442 -129,-0.16743 l -129,0.33996 -1.7457,12.66667 c -2.3526,17.07033 -2.5695,66.28447 -0.3732,84.66667 0.9638,8.0667 2.0202,15.1167 2.3477,15.6667 0.5843,0.9816 257.7712,1.4797 257.7712,0.4992 z m -177.0092,-23.0304 c -8.3248,-2.5521 -17.8889,-10.5012 -22.0156,-18.2979 -2.235,-4.2226 -2.9206,-7.8328 -2.9443,-15.50427 -0.027,-8.72973 0.4915,-10.93155 4.0813,-17.33334 9.3281,-16.63497 30.2169,-22.75689 51.5159,-15.09785 6.0657,2.18119 6.3719,2.53141 6.3719,7.28747 v 4.99617 l -7.5481,-3.45564 c -13.7307,-6.2861 -30.0777,-4.10843 -38.7216,5.15828 -12.0974,12.96915 -8.0165,34.47638 8.102,42.69948 7.5567,3.8551 20.5795,3.8292 29.3683,-0.058 3.5595,-1.5745 6.6955,-2.8628 6.9689,-2.8628 0.2735,0 0.4972,2.0436 0.4972,4.5414 0,4.2223 -0.4448,4.6946 -6.3333,6.7248 -9.4133,3.2454 -21.1148,3.725 -29.3426,1.2026 z m 50.3425,-33.67988 v -34.78896 h 16.4247 c 19.858,0 28.1143,2.08921 35.864,9.07525 17.8757,16.11411 14.8795,44.16889 -5.9495,55.70969 -6.7011,3.7129 -7.8612,3.9015 -26.6725,4.3374 l -19.6667,0.4556 z m 36.292,25.15238 c 10.5689,-2.9353 18.3161,-13.6257 18.3161,-25.27467 0,-11.64892 -7.7472,-22.33938 -18.3161,-25.27466 -2.7273,-0.75742 -9.9086,-1.38049 -15.9586,-1.38457 l -11,-0.007 v 26.66667 26.66663 l 11,-0.01 c 6.05,0 13.2313,-0.6271 15.9586,-1.3845 z m 221.9221,11.3414 c 14.2096,-6.9433 22.321,-20.2495 22.321,-36.61607 0,-11.72304 -2.8856,-19.35742 -10.5041,-27.79016 -15.6299,-17.30044 -44.432,-17.30044 -60.0619,0 -7.6185,8.43274 -10.5041,16.06712 -10.5041,27.79016 0,11.38757 2.7681,19.04287 9.7691,27.01657 12.1623,13.8521 32.2285,17.7848 48.98,9.5995 z"
     id="path12"
     inkscape:connector-curvature="0" />
</svg>
