<?xml version="1.0" encoding="UTF-8" standalone="no"?>
<!-- Created with Inkscape (http://www.inkscape.org/) -->

<svg
   xmlns:dc="http://purl.org/dc/elements/1.1/"
   xmlns:cc="http://creativecommons.org/ns#"
   xmlns:rdf="http://www.w3.org/1999/02/22-rdf-syntax-ns#"
   xmlns:svg="http://www.w3.org/2000/svg"
   xmlns="http://www.w3.org/2000/svg"
   xmlns:sodipodi="http://sodipodi.sourceforge.net/DTD/sodipodi-0.dtd"
   xmlns:inkscape="http://www.inkscape.org/namespaces/inkscape"
   version="1.1"
   id="svg2"
   width="1293.3333"
   height="1293.3333"
   viewBox="0 0 1293.3333 1293.3333"
   sodipodi:docname="CD_Svg.svg"
   inkscape:version="0.92.1 r15371">
  <metadata
     id="metadata8">
    <rdf:RDF>
      <cc:Work
         rdf:about="">
        <dc:format>image/svg+xml</dc:format>
        <dc:type
           rdf:resource="http://purl.org/dc/dcmitype/StillImage" />
        <dc:title></dc:title>
      </cc:Work>
    </rdf:RDF>
  </metadata>
  <defs
     id="defs6" />
  <sodipodi:namedview
     pagecolor="#ffffff"
     bordercolor="#666666"
     borderopacity="1"
     objecttolerance="10"
     gridtolerance="10"
     guidetolerance="10"
     inkscape:pageopacity="0"
     inkscape:pageshadow="2"
     inkscape:window-width="731"
     inkscape:window-height="480"
     id="namedview4"
     showgrid="false"
     inkscape:zoom="0.18247424"
     inkscape:cx="646.66663"
     inkscape:cy="646.66663"
     inkscape:window-x="0"
     inkscape:window-y="27"
     inkscape:window-maximized="0"
     inkscape:current-layer="svg2" />
  <path
     style="fill:#000000;stroke-width:1.33333325"
     d="m 574.58786,1292.9153 c -2.5667,-0.2925 -11.9958,-1.1652 -20.9535,-1.9394 -73.31684,-6.3366 -148.37409,-27.862 -217.04653,-62.246 C 172.28979,1146.4665 53.34659,993.42398 14.02203,813.68896 -2.0275999,740.33323 -4.3693999,660.72477 7.3575701,587.13342 24.72887,478.12175 71.56023,375.74403 143.72463,289.02231 c 16.58945,-19.93596 61.95399,-64.18578 82.8632,-80.82708 36.34149,-28.92356 64.60802,-47.32696 103.33333,-67.27692 77.24157,-39.79222 153.85868,-61.168869 241.3333,-67.333509 24.5382,-1.7293 75.856,-0.98294 98.6667,1.43499 79.9817,8.47805 150.9566,29.583899 221.2217,65.784879 57.5541,29.65216 102.1431,62.31063 149.55854,109.5416 52.6527,52.44804 85.0692,97.42097 117.2566,162.67604 40.6355,82.38221 60.4799,162.79773 62.845,254.66666 1.3251,51.4749 -2.9328,97.01925 -13.6494,145.99999 -39.3076,179.65762 -158.4504,332.90504 -322.70584,415.08054 -65.9898,33.0141 -130.7284,52.1573 -208.5266,61.6613 -15.7275,1.9213 -90.2438,3.7483 -101.3333,2.4845 z m 67.9581,-23.898 c 83.8092,-3.0458 177.1712,-30.0518 255.1834,-73.8146 76.1797,-42.7348 144.70564,-104.8849 194.61344,-176.5062 51.1133,-73.35142 85.917,-160.73804 98.9072,-248.34087 5.8208,-39.25418 7.8033,-96.73444 4.6447,-134.66666 -10.1442,-121.82361 -56.7302,-235.41257 -135.3422,-329.99999 -13.4183,-16.14512 -45.4741,-48.91439 -62.30164,-63.68824 -92.9411,-81.59821 -208.3336,-131.39137 -332.8498,-143.628429 -40.4655,-3.97681 -100.9318,-2.28746 -142.8304,3.990499 -68.87225,10.31961 -139.45073,34.73782 -201.31617,69.64986 -68.45198,38.62895 -134.22129,96.52672 -180.6279,159.00964 -50.17701,67.55946 -85.96,145.32562 -103.22686,224.34002 -2.33988,10.70745 -2.36819,11.66947 -0.34663,11.77613 1.21077,0.0639 84.39459,0.1505 184.85293,0.19247 l 182.65153,0.0763 10.2488,-15.19248 c 11.18573,-16.58135 31.9843,-39.49576 46.94256,-51.71806 46.01664,-37.5999 108.72794,-57.27239 166.50554,-52.23277 19.8479,1.73123 42.5097,6.39683 59.5618,12.26259 16.5831,5.70437 44.1614,19.85216 58.7716,30.15002 18.8608,13.2939 46.3142,41.38766 58.9702,60.34575 58.2315,87.22785 53.254,199.87809 -12.4044,280.73174 -12.5367,15.43816 -34.5929,35.49209 -51.1971,46.54949 -80.6187,53.68747 -182.944,53.58907 -263.18552,-0.25307 -16.29088,-10.93118 -39.93826,-32.53659 -51.61232,-47.15559 -6.92163,-8.6677 -19.85989,-27.73958 -20.866,-30.7579 -0.38884,-1.1665 -45.38944,-1.51441 -182.44385,-1.41048 -100.06024,0.0759 -183.51255,0.17347 -185.44958,0.21688 l -3.52188,0.079 2.57583,11.66666 c 26.60118,120.48457 91.99953,230.87429 185.80126,313.62499 99.18314,87.4981 228.47516,139.4722 361.27836,145.2303 13.2302,0.5737 27.055,0.8584 30.7216,0.6328 3.6667,-0.2257 15.9479,-0.7476 27.2915,-1.1598 z m 11.9599,-372.57015 c 86.3509,-18.75559 151.1341,-83.77165 169.6442,-170.25404 2.6913,-12.57408 3.1044,-18.23009 3.1044,-42.50414 0,-31.99708 -1.6492,-43.37535 -9.9558,-68.68648 -24.5006,-74.65648 -87.7728,-130.35325 -166.0926,-146.20665 -18.7022,-3.78568 -64.345,-3.47476 -83.5036,0.56883 -46.2275,9.75674 -88.46453,33.96831 -119.19165,68.3243 -8.96061,10.01888 -22.34057,28.02685 -21.47048,28.89696 0.71724,0.71724 22.03464,1.08239 22.53899,0.38607 0.24553,-0.339 4.78352,-5.80243 10.08442,-12.14095 17.59599,-21.04029 38.04642,-36.76283 64.92412,-49.91449 55.9582,-27.38121 119.0154,-26.85683 175.3333,1.4581 18.8844,9.4945 35.3349,21.41647 50.6177,36.6835 47.4578,47.40885 67.6052,114.79602 54.0059,180.63422 -8.5666,41.47368 -32.9395,82.58494 -65.099,109.80681 -60.5317,51.23774 -143.1082,62.15181 -213.7249,28.2478 -30.2838,-14.53965 -52.25725,-32.26641 -73.47188,-59.27235 -2.88668,-3.6747 -3.43334,-3.82098 -13.8281,-3.69993 -5.95243,0.0693 -11.06539,0.36881 -11.36212,0.66555 -0.81171,0.8117 13.62933,20.56001 21.14449,28.91537 17.16476,19.08379 42.29601,38.06865 66.18101,49.99513 19.2079,9.59101 39.4155,15.74405 69.5369,21.17333 1.8333,0.33044 15.3333,0.45351 30,0.27346 21.863,-0.2684 29.1738,-0.87194 40.5847,-3.3504 z M 391.92116,771.63358 c 0,-0.39714 -2.04041,-6.584 -4.53424,-13.74859 -16.10477,-46.26782 -16.36265,-98.73176 -0.72524,-147.54853 2.34359,-7.31618 4.54989,-14.05486 4.90292,-14.97482 0.51277,-1.33627 -35.70428,-1.67267 -180.0776,-1.67267 -170.94431,0 -180.7593,0.12627 -181.45597,2.33333 -4.58018,14.51058 -7.73583,99.61031 -4.91024,132.41675 1.58806,18.4381 4,39.30621 4.88327,42.24991 0.39687,1.32268 37.79739,1.66667 181.2086,1.66667 99.38967,0 180.7085,-0.32492 180.7085,-0.72205 z M 158.72734,736.99575 c -43.03215,-12.07134 -57.20056,-65.86096 -24.97891,-94.831 3.68506,-3.31318 8.96315,-7.17848 11.72908,-8.58956 16.85945,-8.60105 43.19345,-8.79293 62.11032,-0.45257 l 7,3.08627 v 7.84604 7.84604 l -7.66667,-3.7541 c -28.49996,-13.95541 -58.42577,-8.09957 -70.3237,13.76084 -3.11303,5.71968 -3.96388,9.17016 -4.42428,17.94196 -0.80428,15.32334 1.91033,22.88164 11.75316,32.72447 6.44637,6.44637 9.02789,8.01852 17.2848,10.52648 13.28001,4.03368 25.06901,3.13016 40.61778,-3.113 l 11.42558,-4.5876 v 7.75313 7.75314 l -11,3.54572 c -13.81603,4.45344 -32.77064,5.56116 -43.52716,2.54374 z m 76.88726,-0.19412 c -0.33176,-0.61197 -0.5485,-25.11266 -0.48165,-54.446 l 0.1216,-53.33333 24.63812,-0.36459 c 14.14044,-0.20925 27.61546,0.25351 31.62597,1.08608 17.43465,3.61942 34.46743,17.44195 40.53979,32.89907 4.28876,10.91699 4.29629,29.8236 0.0163,40.71556 -5.77276,14.69052 -17.2059,25.53707 -32.82009,31.13619 -5.39011,1.93284 -12.06365,2.48913 -34.85168,2.90514 -15.50176,0.283 -28.45645,0.0139 -28.78821,-0.59812 z m 61.64801,-16.5948 c 14.57707,-6.76268 22.81271,-19.48814 23.02328,-35.57486 0.15692,-11.98815 -3.14293,-21.29566 -10.41946,-29.38891 -9.4472,-10.50757 -16.01992,-12.71543 -39.61193,-13.3062 l -19.66667,-0.49247 v 41.60095 41.60095 l 19.66667,-0.51679 c 17.66503,-0.46419 20.41386,-0.86343 27.00811,-3.92267 z m 135.99188,51.43781 c 0,-0.39105 -1.43147,-3.54105 -3.18104,-7 -8.13587,-16.08484 -14.6898,-41.61502 -16.99672,-66.20893 -2.65664,-28.32238 3.21003,-65.49854 14.32049,-90.74674 2.58163,-5.86667 5.01983,-11.41667 5.41822,-12.33333 0.54596,-1.25619 -1.94955,-1.66667 -10.13235,-1.66667 H 411.8264 l -2.60305,6.07265 c -3.92954,9.16723 -10.31136,30.52545 -12.92627,43.26068 -1.78405,8.68875 -2.33276,18.02259 -2.35149,40 -0.0276,32.3734 2.00344,45.65905 10.88013,71.17081 6.78901,19.51173 5.46607,18.16252 17.80901,18.16252 5.84087,0 10.61976,-0.31995 10.61976,-0.71099 z m 198.89047,-28.27085 c 17.5741,-6.37032 32.2168,-20.97966 38.8828,-38.79436 4.016,-10.73248 4.016,-32.38178 0,-43.11426 -6.7015,-17.90943 -20.9734,-32.18132 -38.8828,-38.88282 -10.7325,-4.01597 -32.3818,-4.01597 -43.1143,0 -17.7577,6.64472 -32.2381,21.12511 -38.8828,38.88282 -4.0277,10.76392 -4.0164,32.37904 0.023,43.17878 7.3568,19.67075 23.4653,34.36778 44.4173,40.52523 8.6571,2.5442 28.1569,1.61203 37.5571,-1.79539 z"
     id="path12"
     inkscape:connector-curvature="0" />
</svg>
