<?xml version="1.0" encoding="UTF-8" standalone="no"?>
<!-- Created with Inkscape (http://www.inkscape.org/) -->

<svg
   xmlns:dc="http://purl.org/dc/elements/1.1/"
   xmlns:cc="http://creativecommons.org/ns#"
   xmlns:rdf="http://www.w3.org/1999/02/22-rdf-syntax-ns#"
   xmlns:svg="http://www.w3.org/2000/svg"
   xmlns="http://www.w3.org/2000/svg"
   xmlns:sodipodi="http://sodipodi.sourceforge.net/DTD/sodipodi-0.dtd"
   xmlns:inkscape="http://www.inkscape.org/namespaces/inkscape"
   version="1.1"
   id="svg2"
   width="1293.3333"
   height="1293.3333"
   viewBox="0 0 1293.3333 1293.3333"
   sodipodi:docname="CD_Svg_Inside.svg"
   inkscape:version="0.92.1 r15371">
  <metadata
     id="metadata8">
    <rdf:RDF>
      <cc:Work
         rdf:about="">
        <dc:format>image/svg+xml</dc:format>
        <dc:type
           rdf:resource="http://purl.org/dc/dcmitype/StillImage" />
        <dc:title></dc:title>
      </cc:Work>
    </rdf:RDF>
  </metadata>
  <defs
     id="defs6" />
  <sodipodi:namedview
     pagecolor="#ffffff"
     bordercolor="#666666"
     borderopacity="1"
     objecttolerance="10"
     gridtolerance="10"
     guidetolerance="10"
     inkscape:pageopacity="0"
     inkscape:pageshadow="2"
     inkscape:window-width="731"
     inkscape:window-height="480"
     id="namedview4"
     showgrid="false"
     inkscape:zoom="0.18247424"
     inkscape:cx="646.66663"
     inkscape:cy="646.66663"
     inkscape:window-x="0"
     inkscape:window-y="27"
     inkscape:window-maximized="0"
     inkscape:current-layer="svg2" />
  <path
     style="fill:#000000;stroke-width:1.33333325"
     d="m 574.58781,1292.9153 c -2.5667,-0.2925 -11.9957,-1.1652 -20.9535,-1.9394 -73.3168,-6.3366 -148.37403,-27.862 -217.04647,-62.246 C 172.2898,1146.4665 53.346597,993.42398 14.022037,813.68899 -2.0276026,740.33326 -4.3694026,660.7248 7.3575774,587.13345 24.728877,478.12178 71.560237,375.74406 143.72464,289.02234 c 16.58945,-19.93596 61.95399,-64.18578 82.8632,-80.82708 36.34149,-28.92356 64.60802,-47.32697 103.33333,-67.27693 77.24157,-39.79222 153.85864,-61.168869 241.33334,-67.333509 24.5382,-1.72929 75.8559,-0.98293 98.6666,1.435 79.9818,8.47804 150.9566,29.583889 221.2218,65.784869 57.5541,29.65216 102.1431,62.31064 149.55849,109.54161 52.6527,52.44804 85.0692,97.42097 117.2566,162.67604 40.6355,82.38221 60.4799,162.79773 62.845,254.66666 1.3251,51.4749 -2.9328,97.01925 -13.6494,145.99999 -39.3076,179.65759 -158.4504,332.90501 -322.70589,415.08051 -65.9897,33.0141 -130.7284,52.1573 -208.5266,61.6613 -15.7275,1.9213 -90.2438,3.7483 -101.3333,2.4845 z m 67.9582,-23.898 c 83.8092,-3.0458 177.1712,-30.0518 255.1834,-73.8146 76.1797,-42.7348 144.70559,-104.8849 194.61339,-176.5062 51.1133,-73.35142 85.917,-160.73801 98.9072,-248.34084 5.8208,-39.25418 7.8033,-96.73444 4.6447,-134.66666 -10.1442,-121.82361 -56.7302,-235.41257 -135.3422,-329.99999 -13.4183,-16.14512 -45.4741,-48.91439 -62.30159,-63.68824 -92.9411,-81.59822 -208.3336,-131.39137 -332.8499,-143.628439 -40.4654,-3.97681 -100.9317,-2.28746 -142.8304,3.990499 -68.8722,10.31961 -139.45067,34.73782 -201.31611,69.64986 -68.45198,38.62896 -134.22129,96.52673 -180.6279,159.00965 -50.177013,67.55946 -85.960003,145.32562 -103.226863,224.34002 -2.33988,10.70745 -2.3682,11.66947 -0.34663,11.77613 1.21077,0.0639 84.394593,0.1505 184.852933,0.19247 l 182.65153,0.0763 10.2488,-15.19248 c 11.18573,-16.58135 31.98434,-39.49576 46.94254,-51.71806 46.0167,-37.5999 108.7279,-57.27239 166.5056,-52.23277 19.8479,1.73123 42.5096,6.39683 59.5618,12.26259 16.583,5.70437 44.1614,19.85216 58.7715,30.15002 18.8608,13.2939 46.3142,41.38766 58.9703,60.34575 58.2315,87.22785 53.2539,199.87809 -12.4044,280.73174 -12.5368,15.43816 -34.5929,35.49209 -51.1971,46.54949 -80.6187,53.68743 -182.944,53.58903 -263.1856,-0.25307 -16.2908,-10.93118 -39.9382,-32.53659 -51.61228,-47.15559 -6.92163,-8.6677 -19.85989,-27.73958 -20.866,-30.7579 -0.38884,-1.1665 -45.38944,-1.51441 -182.44385,-1.41048 -100.06024,0.0759 -183.512553,0.17347 -185.449583,0.21688 l -3.52188,0.079 2.57582,11.66666 c 26.60119,120.48457 91.999543,230.87426 185.801273,313.62496 99.18314,87.4981 228.4752,139.4722 361.2783,145.2303 13.2303,0.5737 27.055,0.8584 30.7217,0.6328 3.6666,-0.2257 15.9478,-0.7476 27.2915,-1.1598 z m -369.62484,-183.6138 -14.33333,-6.7731 v -55.1374 -55.13732 h 15.33333 15.33333 v 62.00002 c 0,34.1 -0.45,61.9597 -1,61.9105 -0.55,-0.049 -7.44999,-3.1375 -15.33333,-6.8627 z m 368.49354,-0.4771 -15.1731,-7.2374 h -81.1602 -81.1602 v -15.3333 -15.3334 h 59.3333 c 32.6333,0 59.3333,-0.2104 59.3333,-0.4677 0,-0.2572 -0.6561,-2.3499 -1.4581,-4.6503 l -1.4581,-4.1827 -48.7125,-0.3496 -48.7125,-0.3497 -12.892,-31.6181 c -7.0906,-17.39002 -13.3138,-32.04002 -13.8294,-32.55562 -0.5155,-0.5155 -0.9374,22.8626 -0.9374,51.95152 v 52.8889 h -15.3333 -15.33334 v -13.0296 -13.0296 l -46.25267,-21.3037 c -25.43896,-11.7171 -46.88896,-21.3038 -47.66666,-21.3038 -0.94568,0 -1.47531,9.2737 -1.59912,28 -0.10187,15.4 -0.25182,30.85 -0.33334,34.3334 l -0.14821,6.3333 H 313.2545 298.58784 v -58.633 -58.63302 l 9.66666,4.4552 c 5.31667,2.4504 33.27486,15.3352 62.1293,28.633 28.85444,13.29782 52.70443,24.17782 52.99999,24.17782 0.29556,0 0.53738,-11.1 0.53738,-24.66672 v -24.6666 h 98.04364 98.0437 l -0.377,15 -0.377,15 -59.6667,0.347 c -32.8166,0.1909 -59.6666,0.6127 -59.6666,0.9373 0,0.3246 0.6963,2.11842 1.5473,3.98632 l 1.5474,3.396 h 48.2999 48.3 l 9.6377,23.6667 c 5.3008,13.0167 11.5195,28.1667 13.8194,33.6667 l 4.1816,10 0.3486,-53 0.3486,-53.00002 h 15.3181 15.318 v 62.00002 c 0,34.1 -0.45,61.9568 -1,61.9041 -0.55,-0.053 -7.8279,-3.3528 -16.1731,-7.3334 z m 26.5064,-22.5707 v -15.3334 h 62.6667 62.6667 v -24 -24.00002 h -47.291 -47.2911 l -0.3756,15.58482 -0.3757,15.5847 -12,3.0176 c -6.6,1.6596 -13.35,3.3579 -15,3.774 l -3,0.7564 v -34.6921 -34.69202 h 160.6667 160.6667 v 15.3333 15.3333 h -59.9307 -59.9306 l 1.3944,4.00002 1.3944,4 h 58.5362 58.5363 v 15.3334 15.3333 h -57.9531 c -55.9319,0 -58.0012,0.09 -59.3334,2.579 -3.7659,7.0367 -6.1889,6.7543 57.9531,6.7543 h 59.3334 v 15.3334 15.3333 h -160.6667 -160.6667 z m 167.8692,-13.87 c 5.2053,-12.7618 9.4642,-24.2203 9.4642,-25.4634 0,-2.5943 -18.3129,-48.01832 -20.1309,-49.93332 -0.7155,-0.7537 -1.2025,19.4665 -1.2025,49.93332 0,30.4669 0.487,50.6871 1.2025,49.9334 0.6614,-0.6967 5.4614,-11.7082 10.6667,-24.47 z M 654.50591,896.44718 c 86.3509,-18.75559 151.1341,-83.77165 169.6442,-170.25404 2.6913,-12.57408 3.1044,-18.23009 3.1044,-42.50414 0,-31.99708 -1.6493,-43.37535 -9.9558,-68.68648 -24.5006,-74.65648 -87.7729,-130.35325 -166.0926,-146.20665 -18.7022,-3.78568 -64.3451,-3.47476 -83.5036,0.56883 -46.2275,9.75674 -88.4646,33.96831 -119.1917,68.3243 -8.9606,10.01888 -22.34056,28.02685 -21.47047,28.89696 0.71724,0.71724 22.03467,1.08239 22.53897,0.38607 0.2455,-0.339 4.7835,-5.80243 10.0844,-12.14095 17.596,-21.04029 38.0464,-36.76283 64.9241,-49.91449 55.9582,-27.38121 119.0155,-26.85683 175.3333,1.4581 18.8844,9.4945 35.335,21.41647 50.6177,36.6835 47.4578,47.40885 67.6052,114.79602 54.006,180.63422 -8.5667,41.47368 -32.9395,82.58494 -65.0991,109.80681 -60.5316,51.23774 -143.1082,62.15181 -213.7249,28.2478 -30.2837,-14.53965 -52.2572,-32.26641 -73.4718,-59.27235 -2.8867,-3.6747 -3.4334,-3.82098 -13.8281,-3.69993 -5.9525,0.0693 -11.06541,0.36881 -11.36214,0.66555 -0.81171,0.8117 13.62934,20.56001 21.14444,28.91537 17.1648,19.08379 42.296,38.06865 66.1811,49.99513 19.2078,9.59101 39.4155,15.74405 69.5368,21.17333 1.8334,0.33044 15.3334,0.45351 30,0.27346 21.8631,-0.2684 29.1739,-0.87194 40.5848,-3.3504 z M 391.92117,771.63361 c 0,-0.39714 -2.04041,-6.584 -4.53424,-13.74859 -16.10477,-46.26782 -16.36265,-98.73176 -0.72524,-147.54853 2.34359,-7.31618 4.54989,-14.05486 4.90292,-14.97482 0.51277,-1.33627 -35.70428,-1.67267 -180.0776,-1.67267 -170.944323,0 -180.759303,0.12627 -181.455973,2.33333 -4.58019,14.51058 -7.73583,99.61031 -4.91024,132.41675 1.58805,18.4381 4,39.30621 4.88326,42.24991 0.39687,1.32268 37.7974,1.66667 181.208613,1.66667 99.38967,0 180.7085,-0.32492 180.7085,-0.72205 z M 158.72735,736.99578 c -43.03215,-12.07134 -57.20056,-65.86096 -24.97891,-94.831 3.68506,-3.31318 8.96315,-7.17848 11.72908,-8.58956 16.85945,-8.60105 43.19345,-8.79293 62.11032,-0.45257 l 7,3.08627 v 7.84604 7.84604 l -7.66667,-3.7541 c -28.49996,-13.95541 -58.42577,-8.09957 -70.3237,13.76084 -3.11303,5.71968 -3.96388,9.17016 -4.42428,17.94196 -0.80428,15.32334 1.91033,22.88164 11.75316,32.72447 6.44637,6.44637 9.02789,8.01852 17.2848,10.52648 13.28001,4.03368 25.06901,3.13016 40.61778,-3.113 l 11.42558,-4.5876 v 7.75313 7.75314 l -11,3.54572 c -13.81603,4.45344 -32.77064,5.56116 -43.52716,2.54374 z m 76.88726,-0.19412 c -0.33176,-0.61197 -0.5485,-25.11266 -0.48165,-54.446 l 0.1216,-53.33333 24.63812,-0.36459 c 14.14044,-0.20925 27.61546,0.25351 31.62597,1.08608 17.43465,3.61942 34.46743,17.44195 40.53979,32.89907 4.28876,10.91699 4.29629,29.8236 0.0163,40.71556 -5.77276,14.69052 -17.2059,25.53707 -32.82009,31.13619 -5.39011,1.93284 -12.06365,2.48913 -34.85168,2.90514 -15.50176,0.283 -28.45645,0.0139 -28.78821,-0.59812 z m 61.64801,-16.5948 c 14.57707,-6.76268 22.81271,-19.48814 23.02328,-35.57486 0.15692,-11.98815 -3.14293,-21.29566 -10.41946,-29.38891 -9.4472,-10.50757 -16.01992,-12.71543 -39.61193,-13.3062 l -19.66667,-0.49247 v 41.60095 41.60095 l 19.66667,-0.51679 c 17.66503,-0.46419 20.41386,-0.86343 27.00811,-3.92267 z m 135.99189,51.43781 c 0,-0.39105 -1.43148,-3.54105 -3.18105,-7 -8.13587,-16.08484 -14.6898,-41.61502 -16.99672,-66.20893 -2.65664,-28.32238 3.21003,-65.49854 14.32049,-90.74674 2.58163,-5.86667 5.01978,-11.41667 5.41818,-12.33333 0.546,-1.25619 -1.94951,-1.66667 -10.13231,-1.66667 h -10.85669 l -2.60305,6.07265 c -3.92954,9.16723 -10.31136,30.52545 -12.92627,43.26068 -1.78405,8.68875 -2.33276,18.02259 -2.35149,40 -0.0276,32.3734 2.00344,45.65905 10.88013,71.17081 6.78901,19.51173 5.46607,18.16252 17.80901,18.16252 5.84087,0 10.61977,-0.31995 10.61977,-0.71099 z m 198.8904,-28.27085 c 17.5742,-6.37032 32.2168,-20.97966 38.8829,-38.79436 4.0159,-10.73248 4.0159,-32.38178 0,-43.11426 -6.7015,-17.90943 -20.9734,-32.18132 -38.8829,-38.88282 -10.7324,-4.01597 -32.3817,-4.01597 -43.1142,0 -17.7577,6.64472 -32.2381,21.12511 -38.8828,38.88282 -4.0278,10.76392 -4.0164,32.37904 0.023,43.17878 7.3568,19.67075 23.4653,34.36778 44.4172,40.52523 8.6572,2.5442 28.157,1.61203 37.5572,-1.79539 z"
     id="path12"
     inkscape:connector-curvature="0" />
</svg>
