<?xml version="1.0" encoding="UTF-8" standalone="no"?>
<!-- Created with Inkscape (http://www.inkscape.org/) -->

<svg
   xmlns:dc="http://purl.org/dc/elements/1.1/"
   xmlns:cc="http://creativecommons.org/ns#"
   xmlns:rdf="http://www.w3.org/1999/02/22-rdf-syntax-ns#"
   xmlns:svg="http://www.w3.org/2000/svg"
   xmlns="http://www.w3.org/2000/svg"
   xmlns:sodipodi="http://sodipodi.sourceforge.net/DTD/sodipodi-0.dtd"
   xmlns:inkscape="http://www.inkscape.org/namespaces/inkscape"
   version="1.1"
   id="svg2"
   width="1653.3333"
   height="2337.3333"
   viewBox="0 0 1653.3333 2337.3333"
   sodipodi:docname="Creature_1_4.svg"
   inkscape:version="0.92.1 r15371">
  <metadata
     id="metadata8">
    <rdf:RDF>
      <cc:Work
         rdf:about="">
        <dc:format>image/svg+xml</dc:format>
        <dc:type
           rdf:resource="http://purl.org/dc/dcmitype/StillImage" />
        <dc:title></dc:title>
      </cc:Work>
    </rdf:RDF>
  </metadata>
  <defs
     id="defs6" />
  <sodipodi:namedview
     pagecolor="#ffffff"
     bordercolor="#666666"
     borderopacity="1"
     objecttolerance="10"
     gridtolerance="10"
     guidetolerance="10"
     inkscape:pageopacity="0"
     inkscape:pageshadow="2"
     inkscape:window-width="745"
     inkscape:window-height="480"
     id="namedview4"
     showgrid="false"
     inkscape:zoom="0.10096977"
     inkscape:cx="-401.42373"
     inkscape:cy="1129.0508"
     inkscape:window-x="0"
     inkscape:window-y="27"
     inkscape:window-maximized="0"
     inkscape:current-layer="svg2" />
  <path
     style="fill:#000000;stroke-width:1.33333325"
     d="m 716.99053,2335.4866 c -19.25678,-6.0182 -32.70949,-22.3006 -40.52604,-49.0503 -4.02686,-13.7807 -4.9328,-51.2227 -1.92745,-79.6608 4.09216,-38.7221 15.67657,-99.1123 27.7453,-144.6377 5.11735,-19.3036 4.89475,-19.9178 8.92088,24.6165 5.21698,57.7067 9.36846,77.9424 27.34336,133.2808 14.15435,43.5763 17.25204,57.6364 16.31496,74.0525 -1.2385,21.6966 -9.23508,34.9335 -24.56985,40.671 -3.91375,1.4642 -7.2434,2.6222 -7.39923,2.5732 -0.15582,-0.049 -2.81169,-0.8794 -5.90193,-1.8452 z m 118.72019,-0.8895 c -14.9041,-5.6607 -22.79059,-18.9608 -24.02064,-40.5095 -0.93678,-16.4109 2.158,-30.4636 16.30838,-74.0525 18.1196,-55.8159 22.01712,-74.76 27.28362,-132.6141 1.53538,-16.8667 3.22858,-33.0542 3.76269,-35.9723 l 0.97108,-5.3056 3.03704,11.3056 c 13.59338,50.6025 25.94713,115.6828 29.66885,156.2972 2.28493,24.9352 0.96509,60.2613 -2.72772,73.0084 -6.54772,22.6019 -17.73591,38.1627 -32.48928,45.1869 -11.26744,5.3646 -13.83766,5.6778 -21.79402,2.6559 z M 38.760491,2334.421 c 0.536457,-0.9167 8.56495,-13.3667 17.841093,-27.6667 32.450275,-50.0249 37.505875,-60.2571 57.314616,-116 13.88765,-39.0807 22.00884,-53.7947 35.19945,-63.7748 8.91103,-6.7421 8.85107,-6.7127 16.63829,-8.1895 33.05286,-6.2682 49.01567,35.0643 28.82278,74.631 -16.25203,31.8448 -70.06326,82.4769 -141.458162,133.1009 -13.455846,9.5411 -16.203749,11.0528 -14.358067,7.8991 z m 1472.002009,-9.752 c -39.7309,-28.4427 -75.3007,-57.8672 -100.8616,-83.4364 -33.0767,-33.0872 -46.8289,-57.491 -46.8552,-83.145 -0.021,-20.4724 8.7844,-34.943 23.5279,-38.6652 16.5316,-4.1734 31.7389,3.5394 44.4501,22.5442 7.5177,11.24 12.0891,21.7294 23.5864,54.121 17.988,50.6784 25.152,64.8632 58.2483,115.3334 16.4994,25.1608 16.2082,24.677 14.8294,24.6294 -0.5932,-0.02 -8.2096,-5.142 -16.9253,-11.3814 z m -1016.82002,6.5266 c -26.91854,-3.0749 -59.69532,-14.9554 -108.21108,-39.2228 -28.77147,-14.3914 -87.24063,-47.8092 -83.75982,-47.8725 0.38267,-0.013 16.58267,2.6473 36,5.8984 56.45116,9.4517 72.20178,10.3047 122.2849,6.6215 48.95591,-3.6002 68.44438,-1.3424 84.33856,9.7708 12.80349,8.9521 18.16247,25.6449 12.06805,37.5909 -3.67532,7.2041 -12.84925,16.4301 -19.92892,20.042 -10.08002,5.1424 -30.53923,8.5713 -42.79169,7.1717 z m 558.88172,-0.4976 c -21.2832,-2.8741 -35.3417,-11.8653 -43.5127,-27.8285 -5.5091,-10.7629 0.4491,-27.9511 12.6451,-36.4785 15.8942,-11.1132 35.3827,-13.371 84.3386,-9.7708 50.5916,3.7205 64.9813,2.9398 122.2849,-6.6342 19.4173,-3.2441 35.6173,-5.8926 36,-5.8857 3.5538,0.065 -55.6395,33.8573 -85.495,48.8079 -59.3933,29.742 -98.7124,41.5101 -126.2609,37.7898 z M 457.27582,2137.8406 c -74.7601,-6.524 -197.3282,-55.6387 -351.33333,-140.7836 -23.812421,-13.1652 -66.913642,-38.5011 -66.387138,-39.0239 0.484713,-0.4813 46.449157,7.1493 75.720468,12.5705 55.08247,10.2015 95.09655,15.9198 132,18.8639 25.21427,2.0116 84.29191,1.6996 130,-0.6865 50.03305,-2.6119 98.21112,-2.6111 116.59646,0 42.24053,6.0033 75.03879,24.2374 87.37084,48.5736 4.26445,8.4154 7.311,21.85 7.34288,32.3802 0.0201,6.637 -0.72679,8.9106 -5.64352,17.18 -10.68055,17.9636 -26.73947,31.7578 -46.41981,39.8732 -21.83247,9.0031 -52.96449,13.3443 -79.24685,11.0507 z m 615.33338,-0.5163 c -41.9588,-4.6683 -71.8813,-21.6157 -89.00004,-50.4076 -4.9168,-8.2695 -5.6636,-10.5431 -5.6435,-17.18 0.032,-10.5303 3.0784,-23.9648 7.3428,-32.3803 12.2909,-24.2548 45.27154,-42.5902 87.37094,-48.5736 18.2828,-2.5984 67.9558,-2.6066 115.9298,-0.02 42.9612,2.317 106.6858,2.6358 131.3333,0.6571 36.2704,-2.9117 75.7344,-8.5703 131.3333,-18.8312 29.5166,-5.4473 75.2407,-13.0325 75.716,-12.5607 0.6647,0.66 -45.8186,27.7712 -77.716,45.3278 -38.7458,21.3258 -114.6406,59.2586 -148.9642,74.4534 -71.953,31.8532 -130.0938,51.4184 -171.1875,57.6071 -17.4331,2.6253 -42.4682,3.4704 -56.5149,1.9075 z M 723.94248,1992.8135 c -13.17586,-2.4003 -29.69931,-6.7811 -46,-12.1961 -13.70228,-4.5519 -59.01456,-23.293 -58.22553,-24.082 0.21961,-0.2196 8.4602,1.9036 18.31241,4.7182 24.48815,6.9959 42.59845,10.3223 73.48237,13.497 26.82053,2.757 40.33627,5.8474 46.43075,10.6166 2.70753,2.1187 3.05932,3.0514 1.87381,4.9675 -0.80273,1.2975 -2.90273,2.7628 -4.66667,3.2564 -5.19021,1.4523 -21.14866,1.0547 -31.20714,-0.7776 z m 86.24848,0.5208 c -10.25296,-3.172 -0.60158,-11.4156 17.75152,-15.1621 5.13333,-1.048 19.53333,-2.8795 32,-4.07 26.23457,-2.5054 41.98779,-5.4555 67.93099,-12.7216 10.22872,-2.8648 18.76092,-5.0455 18.96046,-4.8459 0.65606,0.656 -37.58498,16.7364 -52.54892,22.0969 -33.51919,12.0074 -71.39915,18.6302 -84.09405,14.7027 z m -273.22908,-63.3021 c -38.13961,-10.2715 -66.21097,-51.3764 -76.44908,-111.9447 -3.10292,-18.3568 -4.77068,-69.8097 -2.97593,-91.8121 l 1.07228,-13.1453 9.18995,24.4786 c 22.31948,59.4512 33.38601,74.3962 82.38874,111.2631 21.15329,15.9145 29.12632,23.1998 34.52865,31.5506 10.37651,16.0398 9.79719,27.9775 -1.96954,40.5851 -6.13162,6.5697 -7.66146,7.4733 -15.47114,9.1385 -10.94153,2.333 -21.37398,2.2938 -30.31393,-0.1133 z m 461.70408,0.1293 c -6.9941,-1.4989 -8.7631,-2.5832 -14.8045,-9.0737 -11.6647,-12.5319 -12.2871,-24.8047 -2.06,-40.6136 5.5774,-8.6215 13.2442,-15.5668 37.04184,-33.556 46.2751,-34.9807 57.86,-50.8229 79.8914,-109.2504 l 9.2078,-24.4193 1.0874,14.4193 c 1.7479,23.1772 0.1342,71.8248 -2.9993,90.4193 -13.1478,78.0204 -56.2621,123.026 -107.36464,112.0744 z M 187.6592,1876.7543 c -0.8593,-4.4 -5.81679,-29 -11.01666,-54.6668 -42.29797,-208.7838 -60.55912,-336.8306 -70.9262,-497.3333 -2.19704,-34.0144 -2.20929,-129.1719 -0.0199,-153.9999 5.0506,-57.2727 13.29522,-89.5236 26.91157,-105.2711 l 3.98132,-4.6045 4.76715,4.6045 c 2.62193,2.5324 7.13545,9.4045 10.03002,15.2711 8.12051,16.4585 12.89694,38.1019 17.50786,79.3334 2.79446,24.9884 2.04349,126.6809 -1.45726,197.3332 -3.76444,75.9742 -5.01494,166.396 -2.9688,214.6666 2.82898,66.738 6.23183,110.275 18.23084,233.2504 4.03831,41.3879 7.15786,76.1879 6.93235,77.3335 -0.22551,1.1456 -1.11308,-1.5171 -1.97236,-5.9171 z m 1188.95,5.4817 c 0,-1.2628 3.5865,-39.3128 7.97,-84.5557 16.2549,-167.7686 17.9784,-196.5212 17.8776,-298.2594 -0.063,-63.1228 -0.7048,-92.5174 -3.0444,-139.3334 -3.8062,-76.1616 -5.0176,-151.8577 -2.9126,-181.9998 4.2203,-60.4328 13.9,-98.3375 28.7714,-112.6667 l 4.8433,-4.6667 3.9257,4.6667 c 13.544,16.1003 21.7627,48.3668 26.8296,105.3333 2.1903,24.6237 2.1599,119.4878 -0.049,153.9999 -8.3171,129.9333 -21.7173,236.0547 -47.6473,377.3333 -8.2735,45.078 -35.2031,181.0361 -36.0274,181.8891 -0.2952,0.3054 -0.5368,-0.4778 -0.5368,-1.7406 z m -614.66672,-7.6556 c -9.78831,-5.937 -15.2342,-11.3886 -30.27527,-30.3072 -28.5776,-35.9447 -40.53301,-47.5535 -73.05806,-70.9407 -7.33334,-5.273 -13.93334,-10.1423 -14.66667,-10.8207 -2.99776,-2.7732 43.72787,19.7591 57.95897,27.9493 29.8066,17.1542 58.83653,41.4999 70.73984,59.3252 7.34451,10.9984 10.10753,22.2949 6.36785,26.0347 -2.56242,2.5624 -11.91797,1.8824 -17.06666,-1.2406 z m 25.3179,0.822 c -1.11514,-1.3437 -1.39466,-4.0658 -0.83601,-8.1417 2.69064,-19.6304 30.39988,-47.462 73.51811,-73.8428 13.86103,-8.4805 66.9457,-34.7174 62.66666,-30.9728 -0.73333,0.6418 -10.84101,8.2431 -22.46151,16.8919 -26.43308,19.6733 -39.67119,32.7051 -62.41223,61.4394 -17.26343,21.813 -22.98804,27.6547 -33.12626,33.804 -5.53641,3.3582 -14.87666,3.8007 -17.34876,0.822 z m -12.80976,-108.5275 c -2.28718,-1.3946 -6.88306,-6.0422 -10.21305,-10.3282 -6.19249,-7.9701 -17.26737,-19.0916 -24.14157,-24.2432 -5.90558,-4.4257 -2.51795,-3.4072 8.32474,2.5031 18.85628,10.2783 34.20806,24.6493 33.24474,31.1209 -0.5433,3.6499 -2.3856,3.8918 -7.21486,0.9474 z m 10.54976,0.309 c -2.34942,-6.1225 13.99172,-22.2153 32.59167,-32.0964 11.76983,-6.2525 14.73157,-7.1824 8.86357,-2.7825 -6.93382,5.1989 -16.66054,14.9549 -24.03518,24.1076 -6.13326,7.6119 -12.68228,13.0083 -15.78692,13.0083 -0.42611,0 -1.16102,-1.0067 -1.63314,-2.237 z M 12.273038,1756.7542 c -1.84986,-22.1735 -6.5733602,-122.3261 -10.5959602,-224.6667 -2.22479001,-56.6014 -2.23967001,-251.7579 -0.023,-301.3332 C 8.1001178,1086.591 17.621318,993.76223 33.450005,920.75427 43.499158,874.40371 54.187801,846.7935 66.823189,834.54679 l 4.28352,-4.15174 4.13123,6.51294 c 9.67247,15.24881 12.56791,34.54524 12.58116,83.84628 0.0166,61.64327 -3.26637,92.39023 -25.19848,236.00003 -32.444319,212.4428 -37.570504,270.511 -46.022671,521.3332 -3.25453,96.5798 -3.0861,93.5162 -4.32494,78.6667 z m 1540.510562,2.2136 c -0.096,-5.3825 -0.7734,-25.7825 -1.5055,-45.3333 -0.7321,-19.5508 -2.2416,-61.347 -3.3544,-92.8803 -6.7873,-192.3225 -13.6244,-264.8409 -43.3064,-459.3332 -18.3643,-120.3327 -22.3467,-152.1226 -25.3047,-202.00006 -3.36,-56.65338 -0.2312,-96.45314 9.224,-117.33333 5.5264,-12.20402 6.6916,-12.64239 13.3963,-5.04 8.6768,9.83863 15.6848,25.07833 22.5583,49.05597 36.1938,126.25822 50.6866,393.40792 38.0824,701.98392 -2.9494,72.2044 -7.3106,159.4936 -8.527,170.6667 l -1.0886,10 z m -783.76751,-78.1705 c -6.5834,-2.863 -15.65787,-11.8911 -29.52732,-29.3764 -15.79175,-19.9088 -25.86359,-29.7176 -46.02321,-44.8215 -8.69564,-6.5148 -15.3678,-11.8452 -14.82704,-11.8452 3.1198,0 44.00413,21.5973 56.19988,29.6879 16.99197,11.2724 38.57013,31.9325 42.89096,41.0664 3.44841,7.2897 3.82241,15.2653 0.77073,16.4364 -3.00173,1.1518 -4.65716,0.9516 -9.484,-1.1476 z m 18.40411,0.741 c -3.05123,-1.9321 -1.07734,-12.4301 3.75237,-19.9565 8.87263,-13.8268 32.75083,-33.5952 57.34997,-47.4791 11.58746,-6.54 43.12661,-21.7485 40.75327,-19.6516 -0.73334,0.6479 -8.36312,6.4008 -16.95508,12.7843 -19.29303,14.334 -29.04296,23.8604 -45.32313,44.2843 -14.2051,17.8205 -23.03792,26.5277 -29.75948,29.3362 -5.23184,2.186 -7.22476,2.3246 -9.81792,0.6824 z m -214.14439,-15.5821 c -49.72133,-4.9759 -119.14973,-22.7377 -193.30419,-49.4533 l -25.20875,-9.082 53.92315,-0.8152 c 67.19842,-1.016 77.21366,-2.1464 135.87579,-15.3354 38.23723,-8.5969 54.05063,-11.1641 68.83406,-11.1749 13.06994,-0.013 29.53513,3.9265 37.8339,9.0443 10.27382,6.3357 17.66186,18.7206 17.7847,29.8134 0.0625,5.6415 -7.02478,18.5475 -14.03476,25.5575 -7.67438,7.6744 -23.72839,15.5929 -38.12692,18.8059 -9.80983,2.189 -33.64975,3.633 -43.57698,2.6397 z m 387.96275,-0.5912 c -29.46209,-3.8528 -50.7437,-16.3151 -59.93215,-35.0956 -4.15886,-8.5004 -4.52775,-11.9665 -2.17742,-20.4592 6.44612,-23.2921 36.32308,-34.0019 77.52747,-27.7904 6.9927,1.0541 27.39274,5.2169 45.33334,9.2505 58.6622,13.189 68.6774,14.3194 135.8758,15.3354 l 53.9232,0.8152 -25.2088,9.082 c -37.32,13.4452 -71.8955,24.0653 -109.3042,33.5737 -55.0232,13.9855 -90.37904,18.6437 -116.03724,15.2884 z M 760.72694,1559.9662 c -5.12674,-2.0496 -18.9598,-12.4503 -24.94677,-18.7565 -3.02261,-3.1839 -13.76888,-16.2888 -23.8806,-29.1222 -29.45524,-37.3832 -46.94541,-54.0686 -87.29042,-83.2742 -9.9,-7.1666 -18.59844,-13.59 -19.32986,-14.2744 -5.64198,-5.2792 66.2852,30.57 85.8266,42.7768 41.53919,25.948 71.33404,53.3324 83.57164,76.8104 3.72373,7.144 4.59828,10.3161 4.59828,16.6781 0,6.4025 -0.47719,8.1116 -2.57901,9.2364 -3.1711,1.6972 -11.63759,1.6577 -15.96986,-0.075 z m 28.8822,0.092 c -1.79461,-1.1049 -2.33333,-3.246 -2.33333,-9.2735 0,-6.34 0.87829,-9.5218 4.59828,-16.6588 12.18016,-23.3678 41.06109,-50.0581 81.99372,-75.7745 19.39106,-12.1825 93.15865,-49.1736 87.40795,-43.8311 -0.7333,0.6814 -8.23329,6.2348 -16.66662,12.3411 -41.81907,30.2799 -61.76159,49.1313 -89.38572,84.4955 -21.29612,27.263 -28.54504,35.033 -39.96158,42.8336 -7.60995,5.1996 -10.5438,6.4277 -16.29986,6.8226 -3.86073,0.2651 -8.0695,-0.1646 -9.35284,-0.9549 z m -348.99999,-11.7797 c -1.83333,-1.3152 -13.81663,-9.5462 -26.62955,-18.2911 -81.98707,-55.9569 -116.62087,-95.5203 -165.07135,-188.5665 -11.66364,-22.3994 -49.94556,-103.9999 -48.79029,-103.9999 0.30764,0 15.65673,12.1025 34.10911,26.8947 105.2346,84.3601 144.66244,128.928 177.55063,200.6974 9.13394,19.9323 12.25796,27.6799 25.2985,62.7411 4.705,12.65 8.17468,22.9809 7.71042,22.9577 -0.46428,-0.023 -2.34414,-1.1182 -4.17747,-2.4334 z m 680.38215,1.6028 c 0.4144,-0.6704 5.639,-14.3316 11.6103,-30.3582 37.0065,-99.3228 65.2262,-139.6766 149.3409,-213.5557 15.3977,-13.5241 83.2191,-68.5464 84.4912,-68.5464 1.1123,0 -36.9235,81.198 -48.0923,102.6665 -49.4135,94.9819 -83.2088,133.5486 -167.4378,191.0771 -26.9765,18.4249 -31.4695,21.2363 -29.9123,18.7167 z M 762.52653,1437.5331 c -15.03527,-3.7058 -33.34799,-20.7162 -61.84408,-57.4456 -27.67192,-35.667 -50.06748,-57.5346 -87.47981,-85.4172 -16.17357,-12.0539 -30.87357,-22.955 -32.66667,-24.2249 -2.91,-2.0608 -2.61573,-2.0445 2.73984,0.1516 12.79674,5.2474 50.81736,23.6064 67.33334,32.5131 75.57739,40.7573 128.66666,91.7556 128.66666,123.5989 0,6.4377 -2.28325,10.6897 -5.76191,10.7301 -0.86428,0.013 -2.77142,0.2616 -4.23809,0.5592 -1.46667,0.2978 -4.50384,0.088 -6.74928,-0.4652 z m 30.86292,-0.1734 c -5.06775,-1.5114 -6.06856,-3.2999 -6.09323,-10.8888 -0.10173,-31.2922 52.63512,-82.1116 127.31292,-122.6842 21.99633,-11.9507 76.81192,-37.8442 73.33332,-34.6409 -0.7333,0.6753 -11.4665,8.6108 -23.8515,17.6344 -12.38499,9.0237 -27.08499,20.0242 -32.66666,24.4457 -16.93985,13.4189 -39.59868,36.4667 -55.90195,56.8616 -8.50005,10.6334 -19.88305,24.8738 -25.29557,31.6452 -22.06205,27.6015 -43.30309,41.6634 -56.83733,37.627 z M 473.18603,1310.2896 c -43.71485,-29.8285 -45.64585,-31.2242 -71.91021,-51.9742 -76.39695,-60.357 -122.01229,-118.7964 -180.22656,-230.8944 -19.52533,-37.59828 -21.03732,-40.72096 -48.74214,-100.66673 -26.82568,-58.04355 -26.66299,-57.67175 -24.72271,-56.49883 0.93028,0.56236 23.89141,18.81348 51.02475,40.55804 133.17599,106.72682 195.72159,172.11382 238.55199,249.38922 12.16884,21.9552 30.7536,60.916 39.69608,83.2182 7.72381,19.2629 34.55133,91.6487 34.11836,92.0578 -0.20155,0.1905 -17.20685,-11.1446 -37.78956,-25.1891 z m 582.08977,25.2719 c 0,-1.0348 28.7666,-78.0447 34.4186,-92.1406 17.8515,-44.5208 43.1502,-92.3581 67.2199,-127.1057 32.9224,-47.5277 87.0787,-103.015 161.6949,-165.66874 13.1204,-11.017 97.6746,-78.75612 100.2802,-80.3378 1.897,-1.15152 1.4211,-0.0597 -24.8932,57.11228 -20.995,45.6151 -44.6029,93.56526 -61.3788,124.66676 -11.8601,21.988 -35.4638,61.7878 -43.0956,72.6666 -3.0868,4.4 -10.5941,15.1342 -16.683,23.8538 -23.8072,34.093 -64.9581,76.0621 -107.563,109.7016 -24.5301,19.3683 -31.8709,24.7213 -64,46.6691 -37.0854,25.3337 -46,31.2605 -46,30.5827 z m -324.52304,-74.8514 c -22.57242,-5.6894 -50.36271,-24.908 -80.25303,-55.4997 -17.85421,-18.2731 -25.75704,-27.78 -65.25964,-78.5059 -89.62369,-115.0871 -122.82211,-146.78702 -253.2976,-241.8646 -56.46435,-41.14562 -61.96275,-45.23399 -61.4816,-45.71513 0.96198,-0.962 80.83829,36.11366 128.14826,59.48174 72.35373,35.73807 111.6386,58.01859 163.10144,92.50343 86.76097,58.13786 152.00841,118.12856 186.68475,171.64436 9.43523,14.5613 20.76116,38.2503 23.58254,49.3245 2.64157,10.3684 2.96018,25.8364 0.74722,36.2766 l -1.61114,7.6011 -7.58575,2.8892 c -9.65425,3.6769 -22.65107,4.4162 -32.77545,1.8644 z m 81.18972,1.0696 c -1.46667,-0.3658 -5.78026,-1.8257 -9.58574,-3.2441 -6.84609,-2.5519 -6.93556,-2.6585 -8.48148,-10.1052 -3.93873,-18.9726 -0.91262,-37.2237 9.89456,-59.6761 24.78954,-51.5013 75.18825,-105.1877 154.83934,-164.9402 79.46214,-59.61074 170.60304,-110.31566 313.89194,-174.62928 12.7739,-5.73343 23.4174,-10.23235 23.6521,-9.99759 0.4465,0.4464 -1.4686,1.86876 -57.544,42.73967 -81.7902,59.61321 -114.9908,86.38189 -153.1669,123.494 -30.975,30.1118 -54.1629,57.1193 -104.13074,121.2836 -39.50263,50.7259 -47.40546,60.2328 -65.25967,78.5059 -23.51798,24.0699 -41.40402,38.0072 -62.01209,48.3218 -15.0662,7.5409 -31.79246,10.8178 -42.09732,8.2475 z m -306,-347.3224 c 1.04118,-1.12736 38.97679,-22.39286 56,-31.39182 68.11899,-36.00962 140.3353,-55.40754 179.39489,-48.18698 12.37611,2.28784 23.27177,9.24429 23.27177,14.8581 0,4.36342 -3.93481,10.28706 -9.5214,14.33396 -12.57612,9.1101 -30.81516,12.94424 -69.81193,14.6756 -54.72894,2.42984 -68.8054,4.0539 -98.66666,11.38355 -14.45528,3.54813 -62.1122,18.15472 -79.0112,24.21648 -1.27717,0.45812 -2.02213,0.50812 -1.65547,0.11107 z m 524.66672,-9.20983 c -60.95594,-20.09664 -79.72065,-23.46483 -147.46371,-26.46915 -41.18375,-1.82645 -58.92444,-5.46652 -71.68161,-14.70776 -5.58659,-4.0469 -9.5214,-9.97054 -9.5214,-14.33396 0,-3.73677 6.69408,-9.40443 14.79008,-12.52226 9.42788,-3.63075 32.63512,-4.7958 49.56194,-2.48811 32.94129,4.491 76.45476,18.4972 117.08006,37.68593 22.11784,10.44703 80.43834,42.59079 76.56794,42.20096 -0.7333,-0.0739 -13.9333,-4.28841 -29.3333,-9.36565 z M 484.60915,816.83201 c 0,-0.75422 26.83037,-15.93699 53.02004,-30.003 61.39458,-32.97394 126.37157,-54.53738 171.64662,-56.96311 24.1352,-1.29311 41.53835,2.72935 50.86848,11.75741 3.66905,3.55027 4.05624,4.57331 3.05379,8.06864 -2.11763,7.38379 -7.60086,12.80752 -18.00902,17.81364 -14.25713,6.8574 -29.77701,9.64024 -62.57991,11.22111 -79.13227,3.81357 -98.334,6.85937 -152,24.11035 -50.30533,16.17069 -46,14.86084 -46,13.99496 z m 571.33335,-7.53683 c -69.33684,-22.82741 -88.90004,-26.51996 -158.00003,-29.82248 -22.36666,-1.06897 -45.16903,-2.81077 -50.67194,-3.87067 -20.25253,-3.90074 -34.97205,-10.8554 -40.64497,-19.20386 -4.36494,-6.42358 -4.27176,-10.92871 0.31692,-15.32295 26.53596,-25.41159 120.3307,-7.23553 213.66672,41.40549 19.9293,10.38594 58.8174,32.03264 60.6,33.7324 2.0622,1.96639 0.023,1.40815 -25.2667,-6.91793 z M 362.60915,797.89931 C 299.87902,788.39095 259.75769,772.26405 222.95505,741.76485 194.933,718.54233 175.14664,689.18154 164.7675,655.42094 c -6.80857,-22.14655 -8.65484,-35.71724 -8.70704,-64 -0.0499,-27.00246 1.32226,-40.17596 6.73542,-64.66666 13.97993,-63.24922 45.3997,-122.64112 112.85853,-213.33333 18.31553,-24.62356 57.3155,-73.90822 59.60465,-75.32298 0.76337,-0.4718 1.34452,0.50351 1.33725,2.24428 -0.0211,5.05554 -3.69006,36.39748 -7.24508,61.89023 -9.48705,68.03097 -10.40477,107.04984 -3.35004,142.43358 9.62434,48.27187 28.53787,82.46595 89.25217,161.36047 29.3603,38.1519 40.29303,53.5144 49.62591,69.73346 26.6192,46.25998 17.93785,86.34446 -22.97183,106.06792 -16.01028,7.71892 -32.34878,12.13039 -64.63162,17.45082 -1.46667,0.24172 -8.06667,-0.37902 -14.66667,-1.37942 z m 812.00005,-1.08785 c -41.7495,-7.91205 -65.6455,-19.33267 -77.8389,-37.20155 -7.241,-10.61148 -9.959,-20.14006 -9.9423,-34.85564 0.032,-28.45269 11.4863,-50.00066 60.0188,-112.91136 46.5822,-60.38271 64.6793,-87.65955 78.1257,-117.7553 14.0722,-31.49613 19.861,-61.33064 19.9206,-102.66667 0.039,-26.77625 -1.2956,-42.72501 -7.0829,-84.66666 -4.3764,-31.71653 -7.865,-61.53608 -7.7994,-66.66667 0.041,-3.19013 0.2461,-3.10421 4.7771,2 17.493,19.70586 62.7938,79.23164 87.7025,115.24188 51.3448,74.22875 77.4318,133.67047 86.351,196.75812 2.5055,17.7216 2.1274,59.75424 -0.6776,75.33333 -4.7856,26.57961 -13.7134,49.96335 -26.6585,69.82264 -25.3807,38.93745 -67.8444,69.97553 -116.8426,85.40388 -13.9654,4.39736 -46.9997,11.42859 -63.3869,13.49167 -3.6666,0.46161 -7.5666,1.03397 -8.6666,1.27192 -1.1,0.23793 -9.2,-0.93188 -18,-2.59959 z"
     id="path12"
     inkscape:connector-curvature="0" />
</svg>
