<?xml version="1.0" encoding="UTF-8" standalone="no"?>
<!-- Created with Inkscape (http://www.inkscape.org/) -->

<svg
   xmlns:dc="http://purl.org/dc/elements/1.1/"
   xmlns:cc="http://creativecommons.org/ns#"
   xmlns:rdf="http://www.w3.org/1999/02/22-rdf-syntax-ns#"
   xmlns:svg="http://www.w3.org/2000/svg"
   xmlns="http://www.w3.org/2000/svg"
   xmlns:sodipodi="http://sodipodi.sourceforge.net/DTD/sodipodi-0.dtd"
   xmlns:inkscape="http://www.inkscape.org/namespaces/inkscape"
   version="1.1"
   id="svg2"
   width="1653.3333"
   height="2337.3333"
   viewBox="0 0 1653.3333 2337.3333"
   sodipodi:docname="Creature_4_7_1.svg"
   inkscape:version="0.92.1 r15371">
  <metadata
     id="metadata8">
    <rdf:RDF>
      <cc:Work
         rdf:about="">
        <dc:format>image/svg+xml</dc:format>
        <dc:type
           rdf:resource="http://purl.org/dc/dcmitype/StillImage" />
        <dc:title></dc:title>
      </cc:Work>
    </rdf:RDF>
  </metadata>
  <defs
     id="defs6" />
  <sodipodi:namedview
     pagecolor="#ffffff"
     bordercolor="#666666"
     borderopacity="1"
     objecttolerance="10"
     gridtolerance="10"
     guidetolerance="10"
     inkscape:pageopacity="0"
     inkscape:pageshadow="2"
     inkscape:window-width="1024"
     inkscape:window-height="704"
     id="namedview4"
     showgrid="false"
     inkscape:zoom="0.10096977"
     inkscape:cx="826.66663"
     inkscape:cy="1168.6666"
     inkscape:window-x="0"
     inkscape:window-y="27"
     inkscape:window-maximized="1"
     inkscape:current-layer="svg2" />
  <path
     style="fill:#000000;stroke-width:1.33333325"
     d="m 238.33333,2327.4438 c -65.14568,-23.3248 -116.14214,-49.5822 -127.94691,-65.8782 -11.45822,-15.8176 -2.49608,-29.2327 16.95194,-25.3747 18.51908,3.6737 36.91965,16.6363 68.15491,48.0125 12.19537,12.2504 27.5734,27.1682 34.1734,33.1506 6.59999,5.9824 11.69999,10.861 11.33333,10.8414 -0.36667,-0.02 -1.56667,-0.3577 -2.66667,-0.7516 z M 1399,2317.4072 c 6.6,-6.0095 22.2,-21.1602 34.6667,-33.6683 24.5809,-24.6628 36.2034,-34.1375 50.6666,-41.3035 12.2346,-6.0617 21.381,-8.0268 28.4731,-6.117 15.7979,4.254 13.5851,20.9289 -4.6797,35.2644 -18.575,14.5788 -67.3935,37.9745 -111.1267,53.2562 l -10,3.4943 z m -637.81416,-7.7016 c -6.50004,-1.5356 -8.87824,-4.2626 -6.72479,-7.7108 2.35195,-3.766 14.90502,-11.7275 34.33564,-21.7766 15.50088,-8.0166 16.99383,-8.5144 25.53663,-8.5144 8.5428,0 10.03575,0.4978 25.53663,8.5144 19.56398,10.118 31.98616,18.0144 34.38716,21.8591 1.52613,2.4437 1.38456,3.0889 -1.12336,5.1197 -4.42487,3.583 -16.14228,4.3839 -39.4671,2.6976 -14.75222,-1.0665 -25.65218,-1.1421 -35.33333,-0.2448 -16.41125,1.5211 -30.85368,1.5427 -37.14748,0.056 z m -372.85251,-55.653 c -83.69109,-32.3057 -115.16531,-46.9309 -147.24617,-68.4212 -25.62428,-17.165 -44.86059,-37.0686 -52.06124,-53.867 -11.52896,-26.896 -0.37633,-56.5922 25.86559,-68.8722 22.1697,-10.3745 44.23413,-6.8109 60.3539,9.7476 8.50459,8.7362 11.99379,17.3115 19.85703,48.8024 12.827,51.37 20.76334,63.2884 73.23089,109.975 29.82648,26.54 28.15176,24.9782 26.61905,24.8237 -0.70714,-0.071 -3.68572,-1.056 -6.61905,-2.1883 z m 852.75297,-5.3929 c 4.7192,-4.2957 15.7867,-14.1387 24.5943,-21.8733 30.9387,-27.1698 47.8795,-47.5791 57.2571,-68.9808 2.0642,-4.7107 5.7815,-17.0107 8.2608,-27.3334 9.9526,-41.4382 13.4786,-49.8833 25.3624,-60.7444 15.5378,-14.2006 36.2455,-16.6481 57.3395,-6.777 26.1132,12.2198 37.244,41.9765 25.7404,68.8136 -12.2137,28.4932 -52.7437,59.7921 -112.7441,87.065 -19.6732,8.9426 -64.8144,27.2539 -82.4771,33.4567 l -11.9138,4.1839 z M 20.96346,2218.3705 c 1.76688,-2.9333 10.31139,-16.3124 18.98779,-29.7312 32.67046,-50.5277 45.91158,-74.9041 66.41559,-122.2688 23.24928,-53.7063 34.39728,-71.5567 52.355,-83.8317 14.5092,-9.9179 33.39131,-10.6492 40.32257,-1.5619 5.78694,7.5871 7.72466,13.9949 7.67892,25.3936 -0.0748,18.6401 -8.1634,37.8404 -26.11904,62 -18.97797,25.5352 -104.47108,107.6283 -155.56216,149.3756 l -7.2912,5.9577 z m 1566.64094,-14.1657 c -53.5056,-45.9316 -120.5208,-110.9699 -138.4192,-134.3359 -26.2843,-34.3137 -34.19,-65.3529 -21.7764,-85.4984 4.6309,-7.5152 8.7091,-9.5 19.5197,-9.5 10.6687,0 19.6714,3.9788 30.1631,13.3307 14.1639,12.6253 24.9967,31.3578 45.2125,78.1837 20.3612,47.1624 33.1835,70.7792 66.2494,122.0223 18.3342,28.4132 22.1928,34.63 21.493,34.63 -0.2773,0 -10.3762,-8.4746 -22.4421,-18.8324 z m -843.68017,-5.2079 c -7.60996,-1.5636 -22.43292,-8.7892 -35.59091,-17.3492 -14.18268,-9.2265 -43.36524,-31.3011 -53.32662,-40.3377 l -7.9933,-7.2512 32.65996,0.124 32.65996,0.124 21.21115,-5.6348 c 33.63761,-8.9359 45.77254,-7.5067 53.9196,6.3509 3.11824,5.3039 3.53592,7.4317 3.53592,18.0143 0,10.6569 -0.46303,12.977 -4.13686,20.7298 -2.27526,4.8014 -6.12125,10.9899 -8.54664,13.7523 -8.26557,9.414 -22.04873,14.0137 -34.39226,11.4776 z m 125.5184,0.1441 c -6.23499,-1.5582 -15.64794,-7.4441 -19.84831,-12.411 -2.02769,-2.3978 -5.54093,-8.2595 -7.8072,-13.0262 -3.65787,-7.6937 -4.12047,-10.0138 -4.12047,-20.6666 0,-10.5826 0.41768,-12.7104 3.53592,-18.0143 8.13658,-13.8397 19.66523,-15.1811 54.31064,-6.3191 l 22.15344,5.6667 31.64667,-0.1736 c 17.40568,-0.096 31.33414,0.332 30.95217,0.95 -1.56153,2.5267 -25.04807,21.6644 -39.81976,32.4468 -35.00301,25.5499 -56.6023,35.1467 -71.0031,31.5473 z M 445.6617,2136.7894 C 381.33044,2088.4061 315.4162,2033.3089 266.3376,1986.8937 195.67385,1920.0649 143.68845,1848.7616 112.29131,1775.6032 90.30157,1724.365 79.96399,1681.0484 78.69407,1634.8237 c -1.3075,-47.5924 5.95253,-82.3876 25.82816,-123.7865 24.06521,-50.1255 55.57772,-82.4936 114.70133,-117.8152 14.75393,-8.8143 15.03463,-8.9155 30.66666,-11.0496 54.57934,-7.4516 91.06359,1.7653 113.19499,28.5963 19.51172,23.6549 28.65565,56.4211 26.86529,96.2685 -0.99596,22.1665 -5.8433,52.5002 -17.15192,107.3333 -21.75169,105.4693 -26.46525,138.9369 -26.46525,187.9111 0,49.3046 6.93017,87.8866 25.38037,141.2988 10.0925,29.217 23.97232,60.888 50.89135,116.1234 23.83913,48.9159 42.88994,89.9495 42.11904,90.7204 -0.22038,0.2203 -8.79844,-5.9153 -19.06239,-13.6348 z m 718.005,13.6698 c 0,-1.944 20.8898,-46.693 42.3668,-90.7554 45.4132,-93.1704 61.8767,-137.9302 71.6022,-194.6666 3.9937,-23.2982 5.0263,-40.5972 4.3533,-72.9302 -0.9764,-46.913 -5.2174,-76.1105 -24.9449,-171.7365 -13.9655,-67.6952 -16.9496,-86.252 -18.2405,-113.428 -3.2685,-68.8062 25.7909,-115.0138 78.8631,-125.401 12.4733,-2.4412 41.4121,-2.0999 61.2354,0.7224 17.7304,2.5242 19.71,3.439 50.0979,23.1521 44.0849,28.5984 72.2873,59.3901 93.6869,102.2878 13.4471,26.9562 21.5543,53.1835 25.798,83.4579 2.9578,21.1003 1.9592,63.514 -2.0217,85.8755 -14.6209,82.1269 -55.6849,164.9992 -119.6755,241.5196 -53.4712,63.9413 -144.164,144.3353 -258.7877,229.4002 -2.3833,1.7687 -4.3333,2.8947 -4.3333,2.5022 z m -403.33338,-72.2116 c -24.92292,-2.3792 -36.61832,-3.8243 -48.66666,-6.0136 -16.93428,-3.0771 -53.71627,-11.925 -52.91299,-12.7283 0.31688,-0.3169 11.30195,0.6477 24.41124,2.1435 18.73504,2.1377 32.39396,2.7254 63.83508,2.7469 41.45406,0.028 56.25473,1.1908 61.85249,4.8587 3.07877,2.0172 3.13299,2.2517 0.89853,3.8856 -1.30788,0.9562 -5.16189,2.3341 -8.56449,3.0618 -7.06968,1.512 -32.89513,2.805 -40.8532,2.0454 z m 76.47052,-0.5658 c -5.60788,-0.6385 -12.43129,-2.0948 -15.16315,-3.2362 -4.1594,-1.7379 -4.70022,-2.3968 -3.3262,-4.0524 3.54435,-4.2707 11.53154,-5.0186 64.6855,-6.057 41.75323,-0.8156 57.52973,-1.626 72.66029,-3.7324 10.62984,-1.4797 19.51242,-2.505 19.7391,-2.2784 0.7294,0.7295 -49.32358,12.5596 -61.73273,14.5908 -28.849,4.7222 -60.18293,6.6648 -76.86281,4.7656 z m -182.72052,-19.5554 c 0.9625,-0.3852 2.11251,-0.3379 2.55556,0.1053 0.44306,0.4431 -0.34445,0.7583 -1.75,0.7004 -1.55326,-0.064 -1.8692,-0.38 -0.80556,-0.8056 z m -62.87033,-39.1527 c -29.63038,-4.9732 -73.74125,-28.6012 -138.87966,-74.3908 -20.65532,-14.5199 -45.7423,-33.6468 -63.07831,-48.0924 l -13.74496,-11.4533 4.62996,-0.407 c 2.54648,-0.2238 20.49407,0.8262 39.88352,2.3334 57.54649,4.473 80.92652,3.5584 120.55371,-4.7167 11.96584,-2.4987 31.69787,-6.6185 43.84895,-9.1551 12.1511,-2.5366 27.9011,-4.9986 35,-5.471 31.63771,-2.1059 53.2583,11.0853 62.41886,38.083 1.9611,5.7798 2.48826,11.288 2.48826,26 0,18.03 -0.15037,19.04 -4.40893,29.6115 -16.88865,41.9243 -50.86885,64.0099 -88.7114,57.6584 z m 418.36741,-0.4884 c -24.14463,-5.5136 -44.51384,-22.7903 -56.45404,-47.8828 -7.48795,-15.736 -9.45971,-23.5655 -9.45971,-37.5624 0,-23.4079 4.78725,-37.6169 16.68525,-49.5237 8.15942,-8.1655 14.79711,-11.7683 26.95299,-14.6296 15.94651,-3.7536 26.54841,-2.3639 97.60911,12.794 40.3924,8.6161 66.5178,9.7561 122.7527,5.3564 18.7,-1.4631 36.7,-2.6527 40,-2.6436 l 6,0.017 -5.3334,4.6408 c -32.6079,28.3739 -95.7714,73.5996 -137.562,98.496 -44.1599,26.3077 -77.2137,36.4137 -101.1909,30.9383 z M 795.23787,1895.7357 c -2.8025,-0.9808 -5.8025,-2.7373 -6.66667,-3.9035 -0.86416,-1.1661 -8.17121,-5.7718 -16.23788,-10.2348 -8.06667,-4.4629 -15.16356,-8.5917 -15.77088,-9.1749 -0.60731,-0.5832 5.09269,0.7873 12.66667,3.0456 13.60208,4.0557 14.1468,4.1068 44.43754,4.1709 31.90183,0.068 31.27336,0.1455 53.29024,-6.6152 8.82718,-2.7104 6.81946,-1.0793 -10.4509,8.4906 -7.9717,4.4173 -15.62414,9.2446 -17.00543,10.7272 -1.38128,1.4826 -4.75897,3.2838 -7.506,4.0026 -7.30232,1.911 -30.77113,1.5863 -36.75669,-0.5085 z M 394,1800.7848 c -1.28334,-0.3355 -2.33334,-1.471 -2.33334,-2.5234 0,-1.5797 0.46514,-1.623 2.66667,-0.2481 1.46667,0.9159 2.66667,2.1209 2.66667,2.6779 0,0.5569 -0.15,0.943 -0.33334,0.858 -0.18333,-0.085 -1.38333,-0.4291 -2.66666,-0.7644 z m 839.7506,-1.8403 c 2.7713,-3.0623 3.2494,-3.1696 3.2494,-0.7295 0,1.0144 -1.2552,2.1727 -2.7894,2.5739 -2.6766,0.7 -2.6952,0.6253 -0.46,-1.8444 z m -828.03447,-5.6157 c 3.63946,-4.0916 9.88945,-13.4588 13.88886,-20.816 3.99942,-7.3572 7.51206,-13.1363 7.80588,-12.8426 0.83658,0.8367 -10.19208,20.4736 -16.67052,29.6827 -3.2175,4.5737 -7.15309,9.0132 -8.74572,9.8655 -1.66919,0.8933 -0.0929,-1.6012 3.7215,-5.8896 z m 819.66687,5.0265 c -4.7359,-3.3171 -15.6171,-20.7465 -25.0282,-40.0897 -4.8653,-10 -8.6068,-18.4208 -8.3144,-18.7132 0.2923,-0.2923 2.8186,4.4221 5.614,10.4766 8.4801,18.367 18.974,36.3064 25.4535,43.5132 6.5117,7.2427 6.8919,8.0468 2.2751,4.8131 z m -549.38185,-14.6388 c -8.50797,-3.698 -34.14021,-22.8363 -33.01764,-24.6527 0.30984,-0.5013 4.78177,-1.6653 9.93761,-2.5868 7.36687,-1.3165 12.16215,-3.3574 22.39324,-9.5312 7.16043,-4.3208 14.56438,-7.8677 16.45322,-7.8822 1.9874,-0.016 4.78693,1.4134 6.64501,3.3913 7.07836,7.5345 3.86124,33.5736 -5.01019,40.5519 -4.01438,3.1577 -11.10377,3.4469 -17.40125,0.7097 z m 258.45031,-1.8861 c -8.33122,-8.9187 -10.85128,-30.0232 -4.5907,-38.4455 4.20828,-5.6615 9.0527,-5.4291 18.85125,0.904 12.51451,8.0885 17.51293,10.3361 26.98744,12.1355 4.74863,0.9018 9.10616,2.0609 9.6834,2.5757 1.25235,1.1171 -15.76983,14.8375 -26.34988,21.2391 -4.88545,2.9558 -9.78609,4.7553 -14.07311,5.1672 -6.03988,0.5804 -6.89873,0.2881 -10.5084,-3.576 z m -506.65541,-24.7932 c 0,-0.7334 2.04177,-5.2334 4.53728,-10 2.4955,-4.7667 4.53728,-8.0667 4.53728,-7.3334 0,0.7334 -2.04178,5.2334 -4.53728,10 -2.49551,4.7667 -4.53728,8.0667 -4.53728,7.3334 z m 9.29844,-20 c 0,-0.7334 0.85748,-2.8334 1.9055,-4.6667 1.04803,-1.8333 1.90551,-2.7333 1.90551,-2 0,0.7333 -0.85748,2.8333 -1.90551,4.6667 -1.04802,1.8333 -1.9055,2.7333 -1.9055,2 z m 752.12211,-2.7238 c -2.234,-4.903 -1.8078,-5.949 0.6078,-1.4917 1.128,2.0815 1.8015,4.034 1.4965,4.3389 -0.3049,0.305 -1.2519,-0.9762 -2.1043,-2.8472 z m -748.12211,-6.6096 c 0,-0.7333 0.85748,-2.8333 1.9055,-4.6666 1.04803,-1.8334 1.90551,-2.7334 1.90551,-2 0,0.7333 -0.85748,2.8333 -1.90551,4.6666 -1.04802,1.8334 -1.9055,2.7334 -1.9055,2 z m 744.12211,-2.7237 c -2.234,-4.9031 -1.8078,-5.9491 0.6078,-1.4917 1.128,2.0814 1.8015,4.034 1.4965,4.3389 -0.3049,0.3049 -1.2519,-0.9763 -2.1043,-2.8472 z m -740.17577,-6.6096 c 0,-0.7333 0.58162,-2.2333 1.2925,-3.3333 0.71088,-1.1 1.29249,-1.4 1.29249,-0.6667 0,0.7333 -0.58161,2.2333 -1.29249,3.3333 -0.71088,1.1 -1.2925,1.4 -1.2925,0.6667 z m 736.79057,-1.3849 c -1.2866,-3.353 -0.9071,-4.218 0.6647,-1.5151 0.7783,1.3384 1.1341,2.7143 0.7908,3.0575 -0.3433,0.3433 -0.9983,-0.3508 -1.4555,-1.5424 z m -2.6667,-6.6667 c -1.2866,-3.3529 -0.9071,-4.218 0.6647,-1.5151 0.7783,1.3384 1.1342,2.7143 0.7909,3.0575 -0.3433,0.3433 -0.9983,-0.3508 -1.4556,-1.5424 z m -375.98787,-4.7141 c -1.93388,-1.5212 -8.06572,-8.4224 -13.62634,-15.336 -5.68664,-7.0703 -13.8247,-15.3194 -18.5998,-18.8536 -4.66928,-3.456 -8.27984,-6.4934 -8.02346,-6.7498 0.79937,-0.7993 19.70854,9.151 27.40609,14.4215 9.37452,6.4188 17.88449,14.9423 20.57088,20.6035 3.79868,8.005 -0.696,11.4452 -7.72737,5.9144 z m 13.37872,1.8768 c -6.33627,-6.3363 15.56862,-28.151 41.82642,-41.6543 12.51026,-6.4335 12.49322,-6.292 -0.45917,3.8136 -4.99245,3.8951 -13.91461,13.0555 -19.82704,20.3563 -11.6168,14.3448 -18.82716,20.1974 -21.54021,17.4844 z m -364.84805,-5.1111 c 0,-0.7333 0.58161,-2.2333 1.29249,-3.3333 0.71088,-1.1 1.2925,-1.4 1.2925,-0.6667 0,0.7333 -0.58162,2.2333 -1.2925,3.3333 -0.71088,1.1 -1.29249,1.4 -1.29249,0.6667 z m 723.4572,-1.3849 c -1.2866,-3.353 -0.9071,-4.218 0.6647,-1.5151 0.7783,1.3384 1.1342,2.7143 0.7909,3.0575 -0.3433,0.3433 -0.9983,-0.3508 -1.4556,-1.5424 z m -720.79053,-5.2818 c 0,-0.7333 0.58161,-2.2333 1.29249,-3.3333 0.71088,-1.1 1.29249,-1.4 1.29249,-0.6667 0,0.7334 -0.58161,2.2334 -1.29249,3.3334 -0.71088,1.1 -1.29249,1.4 -1.29249,0.6666 z m 718.12393,-1.3849 c -1.2867,-3.3529 -0.9071,-4.218 0.6647,-1.5151 0.7782,1.3384 1.1341,2.7143 0.7908,3.0575 -0.3433,0.3433 -0.9983,-0.3508 -1.4555,-1.5424 z m -715.45727,-5.2817 c 0,-0.7334 0.58162,-2.2334 1.2925,-3.3334 0.71088,-1.1 1.29249,-1.4 1.29249,-0.6666 0,0.7333 -0.58161,2.2333 -1.29249,3.3333 -0.71088,1.1 -1.2925,1.4 -1.2925,0.6667 z m 712.79057,-1.385 c -1.2866,-3.3529 -0.9071,-4.218 0.6647,-1.515 0.7783,1.3384 1.1341,2.7142 0.7908,3.0574 -0.3433,0.3434 -0.9983,-0.3508 -1.4555,-1.5424 z m -710.1239,-5.2817 c 0,-0.7333 0.58161,-2.2333 1.29249,-3.3333 0.71088,-1.1 1.2925,-1.4 1.2925,-0.6667 0,0.7333 -0.58162,2.2333 -1.2925,3.3333 -0.71088,1.1 -1.29249,1.4 -1.29249,0.6667 z m 707.4572,-1.3849 c -1.2866,-3.353 -0.9071,-4.218 0.6647,-1.5151 0.7783,1.3384 1.1342,2.7143 0.7909,3.0575 -0.3433,0.3433 -0.9983,-0.3508 -1.4556,-1.5424 z m -704.79053,-5.2818 c 0,-0.7333 0.58161,-2.2333 1.29249,-3.3333 0.71088,-1.1 1.29249,-1.4 1.29249,-0.6667 0,0.7334 -0.58161,2.2334 -1.29249,3.3334 -0.71088,1.1 -1.29249,1.4 -1.29249,0.6666 z m 702.12393,-1.3849 c -1.2867,-3.3529 -0.9071,-4.218 0.6647,-1.5151 0.7782,1.3384 1.1341,2.7143 0.7908,3.0575 -0.3433,0.3433 -0.9983,-0.3508 -1.4555,-1.5424 z m -515.49811,-4.7371 c -17.44156,-3.381 -40.11409,-20.9512 -54.03707,-41.8761 -14.97229,-22.502 -28.0566,-55.0257 -34.50515,-85.7696 -5.1106,-24.3652 -10.18458,-73.1005 -10.07388,-96.7592 l 0.0505,-10.8065 12.67611,31.3334 c 23.7785,58.7767 34.65255,74.5383 78.75489,114.1527 12.96912,11.6493 26.49796,24.6835 30.06408,28.9647 14.13052,16.964 19.10238,34.4224 13.24734,46.5172 -4.44074,9.1734 -9.1744,12.899 -18.28446,14.3909 -8.93108,1.4625 -9.61663,1.4568 -17.89243,-0.1475 z m 311.49621,0.077 c -12.24702,-2.1022 -20.33251,-14.0852 -19.18126,-28.4274 1.39667,-17.3996 10.18544,-29.2812 45.0939,-60.9629 45.78566,-41.5533 55.67006,-56.0475 80.75406,-118.4141 l 11.0542,-27.4844 0.058,10.8953 c 0.073,13.7825 -3.3779,56.7011 -5.9219,73.6389 -8.1374,54.1774 -27.0421,99.4964 -52.5085,125.875 -19.1147,19.7994 -39.4007,28.3036 -59.34859,24.8796 z m -495.45537,-0.6216 c 0,-0.7334 0.58162,-2.2334 1.2925,-3.3334 0.71088,-1.1 1.29249,-1.4 1.29249,-0.6666 0,0.7333 -0.58161,2.2333 -1.29249,3.3333 -0.71088,1.1 -1.2925,1.4 -1.2925,0.6667 z m 696.79057,-1.385 c -1.2866,-3.3529 -0.9071,-4.218 0.6647,-1.515 0.7783,1.3384 1.1341,2.7142 0.7908,3.0574 -0.3433,0.3434 -0.9983,-0.3508 -1.4555,-1.5424 z m -694.1239,-5.2817 c 0,-0.7333 0.58161,-2.2333 1.29249,-3.3333 0.71088,-1.1 1.2925,-1.4 1.2925,-0.6667 0,0.7333 -0.58162,2.2333 -1.2925,3.3333 -0.71088,1.1 -1.29249,1.4 -1.29249,0.6667 z m 691.4572,-1.3849 c -1.2866,-3.353 -0.9071,-4.218 0.6647,-1.5151 0.7783,1.3384 1.1342,2.7143 0.7909,3.0575 -0.3433,0.3433 -0.9983,-0.3508 -1.4556,-1.5424 z m -688.79053,-5.2818 c 0,-0.7333 0.58161,-2.2333 1.29249,-3.3333 0.71088,-1.1 1.29249,-1.4 1.29249,-0.6667 0,0.7334 -0.58161,2.2334 -1.29249,3.3334 -0.71088,1.1 -1.29249,1.4 -1.29249,0.6666 z m 686.12393,-1.3849 c -1.2867,-3.3529 -0.9071,-4.218 0.6647,-1.5151 0.7782,1.3384 1.1341,2.7143 0.7908,3.0575 -0.3433,0.3433 -0.9983,-0.3508 -1.4555,-1.5424 z m -683.45727,-5.2817 c 0,-0.7334 0.58162,-2.2334 1.2925,-3.3334 0.71088,-1.1 1.29249,-1.4 1.29249,-0.6666 0,0.7333 -0.58161,2.2333 -1.29249,3.3333 -0.71088,1.1 -1.2925,1.4 -1.2925,0.6667 z m 680.79057,-1.385 c -1.2866,-3.3529 -0.9071,-4.218 0.6647,-1.515 0.7783,1.3384 1.1341,2.7142 0.7908,3.0574 -0.3433,0.3434 -0.9983,-0.3508 -1.4555,-1.5424 z m -678.07025,-5.2817 c 0,-0.7333 0.85748,-2.8333 1.90551,-4.6667 1.04803,-1.8333 1.90551,-2.7333 1.90551,-2 0,0.7334 -0.85748,2.8334 -1.90551,4.6667 -1.04803,1.8333 -1.90551,2.7333 -1.90551,2 z m 673.41665,-6.1777 c -1.5788,-3.7991 -2.6505,-7.1274 -2.3816,-7.3962 0.2688,-0.2689 1.7806,2.6194 3.3594,6.4183 1.5788,3.7991 2.6505,7.1273 2.3816,7.3961 -0.2689,0.269 -1.7806,-2.6193 -3.3594,-6.4182 z m -354.84448,-3.7131 c -6.30471,-3.3865 -18.11137,-16.1437 -33.14267,-35.8108 -14.39414,-18.8333 -23.78438,-27.8729 -46.47398,-44.7389 -8.95583,-6.6572 -16.03801,-12.3492 -15.73819,-12.6491 1.30204,-1.302 50.65933,24.2633 63.72573,33.0077 18.02162,12.0606 36.00627,29.0272 42.67012,40.2551 4.30627,7.2555 4.98646,9.4652 4.66667,15.1601 l -0.37435,6.6667 -5.33333,0.308 c -3.20533,0.1851 -7.19533,-0.6923 -10,-2.1988 z m 22.93333,0.9575 c -4.78668,-4.7867 2.34568,-20.4552 15.93519,-35.0067 18.6586,-19.9795 43.92221,-37.7344 78.95141,-55.486 11.83237,-5.9963 20.6134,-10.0243 19.5134,-8.9512 -1.1,1.0729 -8.34068,6.8015 -16.0904,12.73 -21.44994,16.4091 -33.09218,27.9959 -52.81764,52.5663 -9.91612,12.3516 -20.5184,24.473 -23.56062,26.9365 -10.11734,8.1925 -18.26946,10.8729 -21.93134,7.2111 z m -337.55915,-0.4 c 0,-0.7334 0.58161,-2.2334 1.29249,-3.3334 0.71088,-1.1 1.2925,-1.4 1.2925,-0.6666 0,0.7333 -0.58162,2.2333 -1.2925,3.3333 -0.71088,1.1 -1.29249,1.4 -1.29249,0.6667 z m 2.66667,-6.6667 c 0,-0.7333 0.58161,-2.2333 1.29249,-3.3333 0.71088,-1.1 1.29249,-1.4 1.29249,-0.6667 0,0.7333 -0.58161,2.2333 -1.29249,3.3333 -0.71088,1.1 -1.29249,1.4 -1.29249,0.6667 z m 662.12393,-1.3849 c -1.2867,-3.353 -0.9071,-4.218 0.6647,-1.5151 0.7782,1.3384 1.1341,2.7143 0.7908,3.0575 -0.3433,0.3433 -0.9983,-0.3508 -1.4555,-1.5424 z m -659.40361,-5.2818 c 0,-0.7333 0.85748,-2.8333 1.9055,-4.6666 1.04803,-1.8334 1.90551,-2.7334 1.90551,-2 0,0.7333 -0.85748,2.8333 -1.90551,4.6666 -1.04802,1.8334 -1.9055,2.7334 -1.9055,2 z m 655.40361,-4.0516 c -1.2867,-3.3529 -0.9071,-4.218 0.6647,-1.515 0.7782,1.3384 1.1341,2.7142 0.7908,3.0574 -0.3433,0.3434 -0.9983,-0.3508 -1.4555,-1.5424 z m -649.33445,-9.2817 c 0.99934,-3.0589 5.7549,-22.7467 18.51884,-76.6667 23.83076,-100.6709 44.58165,-167.2595 62.53331,-200.6667 8.03296,-14.949 13.69791,-31.1814 16.05358,-46 1.10746,-6.9667 3.23648,-38.4667 4.73114,-70 7.58559,-160.0347 16.88662,-303.60193 23.45224,-362.00001 3.60664,-32.07927 4.57575,-28.59464 3.89352,14 -0.84278,52.6185 -3.05912,94.01094 -12.09186,225.82951 -2.53126,36.9396 -6.40764,93.9396 -8.61419,126.6667 -2.20655,32.7271 -4.88451,64.0038 -5.95101,69.5038 -2.45292,12.6497 -8.11719,27.0652 -18.02855,45.8824 -21.64262,41.0894 -38.5391,95.2145 -68.71526,220.1177 -5.66947,23.4666 -11.73571,45.6666 -13.48054,49.3333 -1.74482,3.6667 -2.78038,5.4667 -2.30122,4 z m 643.49285,-4.4945 c -1.4988,-3.6066 -7.3417,-25.6707 -12.9842,-49.0314 -30.0762,-124.5187 -47.0918,-178.9678 -68.8162,-220.2081 -10.2384,-19.4359 -15.5192,-32.8493 -17.9003,-45.4671 -1.0517,-5.5728 -3.4309,-32.6323 -5.2873,-60.1323 -1.8564,-27.5 -5.7518,-84.5 -8.6566,-126.6667 -5.983,-86.8524 -10.0201,-154.15585 -11.9954,-199.98121 -1.4267,-33.09884 -1.8113,-75.59138 -0.6739,-74.45391 0.3718,0.37177 1.5592,7.22177 2.6387,15.22221 6.2089,46.0166 15.2981,180.69721 23.2973,345.21291 2.2107,45.4667 4.9325,88.6667 6.0483,96 2.2704,14.9213 8.3247,32.3574 16.4355,47.3333 19.4031,35.8266 39.7936,103.3672 68.8332,228.0001 5.5532,23.8334 10.7134,44.761 11.4672,46.5056 0.7537,1.7448 1.1338,3.409 0.8446,3.6982 -0.2892,0.2892 -1.7521,-2.4251 -3.2509,-6.0316 z M 98.70125,1374.1861 C 78.43412,1345.4653 50.23188,1219.5559 29.75412,1066.3704 25.01439,1030.9145 16.3467,957.26815 15.08167,941.70375 l -0.7044,-8.66666 1.90088,9.33333 c 1.04548,5.13333 5.25258,28.53333 9.34911,52 15.00046,85.92888 23.81715,125.85428 48.72966,220.66668 16.45794,62.6358 22.07213,86.8926 26.69707,115.3476 2.86194,17.6081 3.7126,41.5904 1.60859,45.35 -1.12394,2.0084 -1.57604,1.8317 -3.96133,-1.5486 z m 1426.95075,0.8047 c -1.9172,-6.0404 -0.7149,-28.532 2.5988,-48.6204 4.4048,-26.7025 10.1139,-51.0147 26.9265,-114.6667 23.1599,-87.682 32.8072,-131.4969 47.853,-217.33328 13.3373,-76.08956 13.62,-76.54571 5.9101,-9.53792 -22.9299,199.2884 -55.904,360.8519 -79.6267,390.1482 l -2.6329,3.2516 z M 175.66667,1334.397 c 0,-0.2632 19.34457,-14.7727 42.98794,-32.2433 66.66069,-49.257 93.68624,-71.7038 124.36067,-103.2913 20.69913,-21.3153 27.62704,-29.255 62.67187,-71.8253 34.88268,-42.3733 48.0507,-56.9513 62.45684,-69.1442 27.87039,-23.5887 49.7952,-32.8267 66.17898,-27.8846 5.91469,1.7841 6.00258,1.8966 7.02341,8.99 2.53573,17.6197 -6.56295,39.0774 -29.41581,69.3721 -10.51846,13.9437 -45.60256,48.5898 -66.28198,65.4544 -54.31221,44.2932 -103.91826,76.364 -179.31526,115.9293 -28.41873,14.913 -90.66666,45.5629 -90.66666,44.6429 z m 1228.00003,-23.7687 c -55.6148,-27.8574 -74.9214,-38.2216 -108.6667,-58.3346 -113.6565,-67.742 -198.1138,-148.7733 -207.3955,-198.9824 -0.7422,-4.0148 -0.8664,-10.2924 -0.2843,-14.3687 l 1.0336,-7.2388 7.6595,-1.9413 c 26.2697,-6.6579 62.5508,19.2703 113.6534,81.2224 79.1461,95.9494 101.7976,118.1058 180,176.0662 16.1333,11.9573 36.9833,27.4102 46.3333,34.3398 14.8075,10.9744 18.1408,13.7004 16.6667,13.6303 -0.1834,-0.01 -22.2334,-10.9855 -49,-24.3929 z M 223.96645,1160.3672 C 139.42076,1099.4878 110.7919,1064.0273 54.42625,950.37042 29.50017,900.10893 25.67891,891.8295 28.05528,893.23319 c 3.61573,2.13578 61.17634,50.06759 74.87504,62.34987 62.50875,56.04544 92.40564,94.06964 118.59332,150.83234 9.55121,20.7025 30.31749,72.6687 28.98776,72.5398 -0.4646,-0.045 -12.40983,-8.4096 -26.54495,-18.588 z m 1163.67755,-7.6905 c 36.2779,-92.194 64.3951,-131.8778 142.0227,-200.44721 21.099,-18.63702 71.3965,-60.24032 72.045,-59.59174 0.2578,0.25771 -6.87,15.75299 -15.8394,34.43395 -54.4398,113.3833 -84.9026,157.0449 -142.2056,203.8196 -13.2555,10.82 -64.3068,48.1458 -65.8502,48.1458 -0.2998,0 4.1224,-11.8622 9.8275,-26.3604 z M 332.33333,1079.7205 C 302.38256,1071.5991 266.09806,1044.8777 201.48561,983.35883 167.09532,950.61514 70.3801,849.97827 62.52511,838.7637 c -1.12955,-1.61265 6.61521,4.14005 17.21058,12.78379 80.16662,65.40016 95.71882,77.04018 161.38121,120.78565 26.09764,17.38672 51.89764,34.92806 57.33334,38.98066 33.85116,25.2383 53.21642,48.1076 53.21642,62.8456 0,5.5163 -0.25616,5.9289 -4.16666,6.711 -5.55374,1.1108 -7.32498,0.9765 -15.16667,-1.1499 z M 1280,1080.8249 c -2.5766,-0.5496 -3,-1.4942 -3,-6.6939 0,-9.7651 6.5219,-20.2554 22.6667,-36.4586 17.6615,-17.7255 28.3588,-25.6886 86,-64.01871 65.65,-43.65582 82.7592,-56.45528 163.2909,-122.15924 10.6101,-8.65648 18.3787,-14.43648 17.2636,-12.84444 -3.0372,4.33617 -29.1412,32.3264 -71.7723,76.95817 -56.8149,59.48132 -109.0521,108.53772 -141.4337,132.82152 -30.4924,22.8671 -58.8019,35.4274 -73.0152,32.3952 z M 716.99999,936.25335 c 2.56667,-2.20477 12.0314,-9.1468 21.03273,-15.42672 16.27265,-11.35286 16.36131,-11.44341 15.53169,-15.86564 -0.75338,-4.01586 -0.20649,-5.07438 5.63394,-10.9046 8.08513,-8.07101 17.8949,-11.52432 32.4683,-11.42974 5.5,0.0357 16,0.0532 23.33334,0.0389 7.33333,-0.0143 17.53333,-0.0312 22.66666,-0.0376 14.37311,-0.0181 23.66706,3.28248 31.61034,11.22576 6.0633,6.06331 6.58378,7.06388 5.81265,11.17435 -0.81671,4.35341 -0.54761,4.71637 7.53169,10.15876 13.47803,9.07909 33.35043,23.98956 32.75989,24.58009 -0.29904,0.29903 -6.50714,-1.58836 -13.7958,-4.19419 -29.61742,-10.5888 -33.75967,-11.41193 -60.58543,-12.03944 -13.56667,-0.31734 -25.56667,-0.577 -26.66667,-0.577 -1.1,0 -13.1,0.25966 -26.66667,0.577 -26.86754,0.62848 -31.39746,1.53239 -60.49238,12.07078 -7.23748,2.62146 -13.53748,4.74192 -14,4.71212 -0.46252,-0.0297 1.25905,-1.8581 3.82572,-4.06288 z M 13.10526,928.92598 c 0.064,-1.55327 0.37992,-1.8692 0.80556,-0.80556 0.38516,0.96249 0.33779,2.11251 -0.10527,2.55556 -0.44305,0.44305 -0.75819,-0.34445 -0.70029,-1.75 z m 1601.33324,0 c 0.064,-1.55327 0.38,-1.8692 0.8056,-0.80556 0.3852,0.96249 0.3379,2.11251 -0.1053,2.55556 -0.4431,0.44305 -0.7583,-0.34445 -0.7004,-1.75 z M 389.66666,863.88042 c -9.98529,-4.65996 -13.35209,-12.92875 -12.41526,-30.49172 0.66576,-12.48136 5.76374,-26.13553 15.06833,-40.35826 8.19725,-12.53008 29.69524,-32.8273 58.59978,-55.32668 14.60254,-11.36667 40.09442,-31.73419 56.64862,-45.26115 31.66514,-25.87461 54.12656,-44.12287 64.0235,-52.01444 3.25875,-2.59843 5.38697,-3.82441 4.7294,-2.72441 -1.23341,2.06328 -20.38513,28.81524 -44.86308,62.66666 -19.18668,26.53396 -35.10709,50.62475 -53.74918,81.33334 -28.18451,46.42754 -38.5528,60.75065 -52.04211,71.89274 -12.71787,10.50488 -26.86612,14.54653 -36,10.28392 z m 829.68344,-0.12293 c -11.2811,-4.30691 -24.46,-15.9197 -36.3765,-32.05373 -7.5639,-10.24091 -14.3071,-20.82462 -34.4047,-54 -16.0317,-26.4637 -32.5282,-51.29623 -51.3734,-77.33334 -24.5899,-33.97436 -43.6716,-60.60692 -44.8992,-62.66666 -1.5308,-2.56847 9.3923,6.06765 51.3688,40.61374 18.6991,15.38912 46.8991,38.07726 62.6667,50.41807 56.6594,44.34583 69.7204,58.07295 81.1254,85.26313 3.0332,7.23152 3.5136,10.27847 3.5272,22.37172 0.01,8.36891 -0.6658,15.60888 -1.6785,18 -3.8406,9.06781 -18.6425,13.7062 -29.9558,9.38704 z M 9,860.29441 c 0,-6.9219 46.81229,-54.70513 88.66499,-90.50401 2.19907,-1.88099 -4.12756,4.98002 -14.05918,15.24669 -9.93162,10.26667 -27.15211,28.93672 -38.26774,41.489 C 23.24075,851.47939 9,864.71306 9,860.29441 Z m 1602.3931,-4.44332 c -4.1343,-3.36772 -16.6691,-16.47859 -27.8551,-29.13524 -11.1859,-12.65665 -28.7831,-31.68461 -39.1047,-42.28436 -15.7526,-16.17701 -17.0534,-17.79264 -8.1,-10.05956 40.2783,34.78789 84.8066,80.9123 83.0884,86.06668 -0.2914,0.8742 -3.7496,-1.10176 -8.0286,-4.58752 z m -908.39311,-1.91048 c 2.64811,-2.46204 28.24165,-21.03979 37.0635,-26.90352 8.91256,-5.92401 9.01764,-6.06345 8.29762,-11.01035 -0.67558,-4.64138 -0.21252,-5.54088 6.28813,-12.21505 5.98709,-6.14688 8.4604,-7.63987 16.84537,-10.16851 8.74392,-2.6369 11.53823,-2.86366 25.33334,-2.05585 8.52796,0.49939 16.40537,0.90796 17.50537,0.90796 1.1,0 8.97741,-0.40857 17.50537,-0.90796 13.79511,-0.80781 16.58942,-0.58105 25.33334,2.05585 8.38497,2.52864 10.85828,4.02163 16.84537,10.16851 6.53371,6.70809 6.96368,7.55007 6.23788,12.21505 -0.66481,4.273 -0.32399,5.27928 2.31592,6.83783 3.63744,2.14745 36.2437,25.55548 41.09545,29.50241 2.45868,2.00016 -1.73964,0.93908 -16,-4.04385 -37.3329,-13.04504 -35.94992,-12.86227 -95.33333,-12.59836 -58.84768,0.26153 -54.42931,-0.357 -92,12.8792 -10.26666,3.61696 -18.06666,6.01844 -17.33333,5.33664 z M 287.5661,835.38925 c -51.93285,-25.09996 -74.01514,-131.65048 -56.44418,-272.35216 4.58757,-36.73553 16.14945,-91.27726 30.66678,-144.66666 7.04567,-25.9114 22.19538,-76.79371 22.71103,-76.27805 0.248,0.248 -0.73339,24.71202 -2.18085,54.36447 -5.92406,121.35863 -2.31288,160.84316 22.91753,250.58024 24.61552,87.55015 26.79725,97.79944 26.82117,126 0.0299,35.15308 -7.87786,53.65144 -27.07816,63.34372 l -7.51388,3.79299 z m 1035.9967,0.93116 c -8.4906,-4.29336 -16.4185,-12.44444 -20.0179,-20.58147 -6.2121,-14.04342 -8.6716,-35.77608 -6.5679,-58.03518 1.9005,-20.10994 5.7663,-36.95654 20.1591,-87.85111 33.8239,-119.60489 36.39,-149.49288 27.2012,-316.81555 -0.6569,-11.96202 -0.6525,-11.98312 1.4123,-6.66667 7.1995,18.53749 34.1607,119.76588 41.7265,156.66666 22.6903,110.66499 21.3774,214.99509 -3.5029,278.37524 -11.7971,30.05189 -25.3543,46.41524 -46.0317,55.5598 l -6.9828,3.08809 z m -740.634,-42.28332 c 4.59823,-11.55 15.39811,-39 23.99975,-61 20.67215,-52.87219 29.48393,-73.53496 48.04747,-112.66667 17.54844,-36.99187 24.7551,-50.82497 43.7618,-83.99999 7.35249,-12.83334 13.36869,-23.93334 13.36933,-24.66667 6.5e-4,-0.73333 -7.19548,-11.53333 -15.99137,-24 C 667.19382,446.71192 620.17624,365.2123 576.88864,281.0371 562.82123,253.68219 481.98487,85.523892 482.65949,85.018662 483.12053,84.673372 616.1595,194.48576 638.5105,213.66044 c 41.25345,35.3909 100.40289,89.92526 136.81838,126.14326 l 38.99556,38.78406 39.04005,-38.77533 C 889.85377,303.57056 949.64605,248.4217 989.72427,214.04222 1012.2989,194.67748 1145.5586,84.680612 1146.0198,85.030822 c 0.4444,0.3374 -74.6474,157.390368 -87.4631,182.927558 -10.4796,20.882 -57.9368,109.88369 -63.99283,120.01251 -37.88701,63.36785 -48.60045,80.58594 -62.05571,99.73287 -8.76079,12.46667 -15.93294,23.26667 -15.93811,24 -0.005,0.73333 6.00628,11.83333 13.35877,24.66667 7.3525,12.83333 16.72224,29.63333 20.82167,37.33333 9.93039,18.65239 35.25309,72.08556 45.17978,95.33333 C 1004.9425,690.14321 1053,812.0263 1053,813.77681 c 0,0.62629 -15.75,-10.04471 -35,-23.71333 -19.25003,-13.66863 -43.10002,-30.55116 -53.00002,-37.51676 -48.37996,-34.0399 -109.32519,-83.38022 -141.53189,-114.582 l -8.86521,-8.58862 -19.13479,17.63456 c -19.69574,18.15156 -71.43045,61.05768 -95.28281,79.02271 -14.14065,10.6504 -124.30181,89.00372 -125.13513,89.00372 -0.26496,0 3.28043,-9.45 7.87865,-21 z M 397.40768,650.48586 c -3.42568,-2.94664 -3.74102,-3.9921 -3.74102,-12.40296 0,-18.59328 10.1488,-31.50221 48.66667,-61.90235 11.36666,-8.97111 29.06666,-23.19232 39.33333,-31.6027 23.46476,-19.22213 22.80717,-18.72334 21.36717,-16.20742 -0.6296,1.1 -7.37984,10.58397 -15.00054,21.07549 -14.6138,20.11901 -29.56796,42.63112 -45.54587,68.56508 -19.05519,30.92877 -34.19641,41.8363 -45.07974,32.47486 z m 816.78942,0.56156 c -7.5142,-3.97146 -17.5198,-15.94832 -29.3119,-35.08673 -17.2503,-27.99704 -23.4924,-37.40966 -41.2749,-62.23966 -9.1977,-12.84283 -17.2629,-24.2506 -17.9226,-25.3506 -1.5614,-2.60324 -1.5554,-2.5987 21.3123,16.1738 10.2667,8.42808 28.8667,23.44922 41.3333,33.38032 26.3986,21.02938 32.6788,26.9921 39.4415,37.44739 15.0313,23.23866 6.2996,46.1812 -13.5777,35.67548 z"
     id="path12"
     inkscape:connector-curvature="0" />
</svg>
