<?xml version="1.0" encoding="UTF-8" standalone="no"?>
<!-- Created with Inkscape (http://www.inkscape.org/) -->

<svg
   xmlns:dc="http://purl.org/dc/elements/1.1/"
   xmlns:cc="http://creativecommons.org/ns#"
   xmlns:rdf="http://www.w3.org/1999/02/22-rdf-syntax-ns#"
   xmlns:svg="http://www.w3.org/2000/svg"
   xmlns="http://www.w3.org/2000/svg"
   xmlns:sodipodi="http://sodipodi.sourceforge.net/DTD/sodipodi-0.dtd"
   xmlns:inkscape="http://www.inkscape.org/namespaces/inkscape"
   version="1.1"
   id="svg2"
   width="1653.3333"
   height="2337.3333"
   viewBox="0 0 1653.3333 2337.3333"
   sodipodi:docname="Creature_0.svg"
   inkscape:version="0.92.1 r15371">
  <metadata
     id="metadata8">
    <rdf:RDF>
      <cc:Work
         rdf:about="">
        <dc:format>image/svg+xml</dc:format>
        <dc:type
           rdf:resource="http://purl.org/dc/dcmitype/StillImage" />
        <dc:title></dc:title>
      </cc:Work>
    </rdf:RDF>
  </metadata>
  <defs
     id="defs6" />
  <sodipodi:namedview
     pagecolor="#ffffff"
     bordercolor="#666666"
     borderopacity="1"
     objecttolerance="10"
     gridtolerance="10"
     guidetolerance="10"
     inkscape:pageopacity="0"
     inkscape:pageshadow="2"
     inkscape:window-width="1024"
     inkscape:window-height="704"
     id="namedview4"
     showgrid="false"
     inkscape:zoom="0.10096977"
     inkscape:cx="826.66663"
     inkscape:cy="1168.6666"
     inkscape:window-x="0"
     inkscape:window-y="27"
     inkscape:window-maximized="1"
     inkscape:current-layer="svg2" />
  <path
     style="fill:#000000;stroke-width:1.33333325"
     d="m 480.92103,2328.2023 c -78.0527,-30.4372 -111.6525,-48.9927 -140.0942,-77.3666 -46.8678,-46.7562 -67.44055,-106.5062 -93.90263,-272.724 -4.68835,-29.449 -5.21039,-33.6517 -4.03404,-32.4754 0.34972,0.3497 10.17497,27.2997 21.8339,59.8889 24.24797,67.7783 35.14377,95.7552 48.99497,125.8043 23.0065,49.9106 44.9599,82.5705 77.179,114.8181 19.4338,19.4511 34.4451,31.7909 75.9442,62.4287 38.8434,28.677 38.9997,28.795 38.0788,28.7545 -0.3667,-0.016 -11.1667,-4.124 -24,-9.1285 z m 639.99997,6.6386 c 1.8333,-1.4233 17.8594,-13.2961 35.6136,-26.384 39.5684,-29.1688 56.6738,-43.234 75.777,-62.3094 30.081,-30.0372 51.9693,-61.8243 73.2193,-106.3322 15.8999,-33.3022 28.8047,-66.4114 60.1225,-154.2532 7.9513,-22.3021 14.6697,-39.9108 14.9298,-39.1304 0.6246,1.8735 -7.7165,54.1791 -15.0478,94.3634 -21.4246,117.4321 -41.6524,168.5073 -83.1979,210.0744 -27.0172,27.0313 -61.3747,46.4745 -128.7499,72.8606 -32.5913,12.7638 -36.5142,14.098 -32.6666,11.1108 z m -870.00002,-65.5274 c -35.08363,-28.2598 -80.9469,-69.0011 -85.61282,-76.0518 -4.4308,-6.6953 -3.44887,-9.2304 3.20981,-8.2864 4.95724,0.7027 36.58646,8.2054 37.19815,8.8236 0.17011,0.172 3.9094,8.2336 8.30955,17.9147 10.103,22.2284 14.14861,28.2692 31.14058,46.4979 17.95507,19.2617 20.33108,21.9058 19.65381,21.871 -0.31116,-0.016 -6.56574,-4.862 -13.89908,-10.769 z m 1110.00002,7.5497 c 1.8333,-2.1428 9.5304,-10.5385 17.1046,-18.6571 16.8052,-18.0132 21.8331,-25.545 31.6718,-47.4456 l 7.6424,-17.012 10.7906,-2.9685 c 5.9348,-1.6327 15.4883,-3.7255 21.2302,-4.6507 12.5582,-2.0237 13.87,-0.827 8.1464,7.432 -6.3642,9.1835 -55.4123,52.1 -97.2527,85.095 -1.8304,1.4434 -1.6213,0.881 0.6667,-1.7931 z M 0.92099693,2248.276 c 0,-3.1404 13.53221007,-39.986 28.02859007,-76.3165 26.3908,-66.1399 81.136963,-184.5498 100.345663,-217.0364 18.14378,-30.6856 34.97002,-40.174 44.54588,-25.1196 4.27003,6.7129 14.4957,36.1372 20.9586,60.3081 4.06268,15.1943 12.78792,54.7327 12.78792,57.9485 0,1.4426 -26.93281,18.3826 -55.33333,34.8031 -29.98156,17.3347 -41.88611,25.4624 -58.463733,39.9151 -10.7715,9.3908 -29.61025,34.9209 -57.55633,78 -27.8811801,42.9789 -35.31326007,52.9754 -35.31326007,47.4977 z M 1613.3183,2240.4449 c -3.5659,-4.95 -15.4356,-22.8 -26.3772,-39.6666 -48.4737,-74.7226 -57.8565,-84.2579 -116.0201,-117.9075 -27.3131,-15.8016 -55.3334,-33.3535 -55.3334,-34.6608 0,-3.3664 8.6586,-42.8432 12.662,-57.73 6.6332,-24.6651 16.8138,-53.9623 21.0846,-60.6765 2.0842,-3.2768 4.9889,-5.993 6.9297,-6.4802 15.1452,-3.8012 30.012,13.9671 57.0781,68.2182 20.3039,40.6968 64.3198,138.9197 80.9175,180.5701 14.5976,36.6311 27.9948,73.0804 27.9948,76.1644 0,3.0353 -3.0057,0.4013 -8.936,-7.8311 z m -879.86227,-11.6666 c 0.4048,-1.4667 3.1215,-11.7795 6.0372,-22.9174 14.8207,-56.6142 27.1555,-90.192 40.9858,-111.5716 3.2639,-5.0453 5.6356,-9.9517 5.2706,-10.903 -1.0276,-2.678 -23.65,-19.8203 -42.5729,-32.2602 -25.5483,-16.7954 -51.6555,-30.9825 -113.5891,-61.7264 -30.8,-15.289 -55.3046,-27.8334 -54.4548,-27.8765 2.8165,-0.1427 79.3251,22.1897 107.1215,31.2681 58.2821,19.0351 90.8459,34.2446 119.0906,55.6232 l 10.424,7.89 10.2427,-7.8772 c 27.4582,-21.117 60.5097,-36.5776 118.9093,-55.6226 27.6786,-9.0264 104.23747,-31.4043 107.10627,-31.3067 0.8582,0.029 -25.7396,13.6792 -59.10617,30.3333 -63.907,31.8976 -82.1736,41.8587 -109.3334,59.6214 -18.3982,12.0326 -41.1302,29.2449 -42.157,31.9206 -0.3624,0.9443 1.2207,4.5018 3.5178,7.9055 5.8929,8.7316 16.1528,29.9187 21.7104,44.8328 9.0847,24.3791 28.8755,94.8288 25.8378,91.9755 -0.4047,-0.3802 -8.9365,-15.0802 -18.9595,-32.6667 -10.0231,-17.5865 -23.2154,-39.4755 -29.3163,-48.6421 -11.396,-17.1227 -26.8968,-37.3334 -28.6332,-37.3334 -1.7156,0 -17.1526,20.1108 -28.6571,37.3334 -6.1232,9.1666 -17.5768,28.0666 -25.4524,42 -17.8531,31.585 -24.9703,43.4361 -24.0221,40 z m -135.0837,-104.0708 c -70.3555,-28.2872 -102.2463,-48.5735 -125.8948,-80.0834 -23.8069,-31.7208 -37.7478,-68.8489 -52.1214,-138.8125 -4.3349,-21.1001 -19.5208,-109.6463 -19.37,-112.9425 0.095,-2.083 4.7388,10.337 22.0733,59.0405 30.0806,84.5145 47.6298,124.0992 70.4318,158.8687 24.3412,37.1164 50.355,61.99 110.7631,105.9078 27.3231,19.8646 28.538,20.8083 26.6,20.6654 -0.6967,-0.052 -15.3136,-5.7412 -32.482,-12.644 z m 393.9487,11.5578 c 0.6966,-0.6489 11.46657,-8.5825 23.93327,-17.6305 62.3747,-45.2697 87.6219,-69.1209 112.0524,-105.8565 24.1409,-36.3002 39.3245,-70.3563 72.2259,-162 20.6069,-57.3984 21.5027,-59.8014 21.6224,-58 0.049,0.7333 -2.6196,17.8333 -5.9295,38 -18.0102,109.7342 -31.0426,157.565 -53.1803,195.1802 -25.8974,44.0035 -58.106,66.8702 -139.9696,99.3723 -16.7817,6.6628 -30.85167,12.1141 -31.26667,12.1141 -0.415,0 -0.1846,-0.5308 0.5121,-1.1796 z m -684.0667,-219.6182 c -100.51473,-31.0434 -141.1858,-39.3728 -182.66668,-37.41 -28.922993,1.3685 -49.421233,5.6117 -95.206703,19.7081 -16.43036,5.0585 -30.09463007,8.9761 -30.36504007,8.7057 -0.99344,-0.9934 44.81039007,-28.3358 63.16289007,-37.7048 32.54719,-16.6153 52.233843,-21.3944 82.760233,-20.0906 27.36162,1.1686 47.70936,6.5161 85.09652,22.3637 26.71013,11.3219 110.87608,53.2856 106.55208,53.1251 -0.7333,-0.027 -13.9333,-3.941 -29.3333,-8.6972 z m 989.99997,1.2906 c 26.0759,-13.8761 75.1688,-37.785 94.0265,-45.7921 38.253,-16.2425 64.2148,-22.7007 91.2572,-22.7007 25.6338,0 42.4098,4.1307 70.0496,17.2478 18.8386,8.9402 73.5312,41.4189 69.7476,41.4189 -0.4858,0 -11.5778,-3.3324 -24.6488,-7.4055 -49.263,-15.3506 -71.5457,-20.0836 -101.0988,-21.4738 -40.6853,-1.914 -76.9206,5.2333 -169.871,33.5068 -22.9743,6.9882 -42.1518,12.6929 -42.6168,12.6772 -0.465,-0.016 5.4545,-3.3811 13.1545,-7.4786 z M 771.73833,1815.7783 c -26.8207,-16.19 -39.5523,-29.4547 -51.5098,-53.6667 -5.7548,-11.6524 -23.4467,-59.7105 -23.2662,-63.2 0.023,-0.44 6.4728,12.1317 14.3334,27.9372 7.8605,15.8055 18.4696,35.0055 23.5757,42.6667 9.1694,13.758 27.0462,33.0968 44.0495,47.6521 4.4,3.7665 7.6901,6.8697 7.3113,6.8961 -0.3788,0.027 -6.9011,-3.7021 -14.4939,-8.2854 z m 72.516,1.5625 c 18.0028,-15.8008 35.0221,-34.2805 44.0496,-47.8295 5.106,-7.6634 15.71,-26.8634 23.5644,-42.6666 7.8544,-15.8032 14.3044,-28.3444 14.3333,-27.8694 0.1496,2.4535 -16.8962,49.9982 -21.3503,59.5507 -13.033,27.952 -29.3418,44.3273 -61.9304,62.1835 l -6.6666,3.6528 z m -258.63,3.6321 c 1.4465,-0.9929 8.93,-5.5844 16.63,-10.2032 31.8901,-19.1293 43.6652,-33.0516 48.8702,-57.7816 2.8159,-13.3792 2.486,-44.9381 -0.8177,-78.2098 -1.4927,-15.0334 -2.6772,-28.2334 -2.6321,-29.3334 0.1192,-2.9094 1.847,1.6367 11.9085,31.3334 19.0309,56.17 23.7787,79.6858 19.8401,98.2677 -2.1011,9.9131 -5.3074,15.6245 -12.4857,22.2412 -10.4759,9.6564 -26.9057,15.3535 -63.7721,22.1132 -21.5336,3.9484 -20.9226,3.8936 -17.5412,1.5725 z m 433.99337,-1.5676 c -37.99747,-7.2061 -52.49757,-12.2616 -63.18517,-22.0296 -20.0687,-18.3416 -18.8057,-43.3408 5.9202,-117.1849 10.0434,-29.9948 13.0982,-38.0481 13.1801,-34.7459 0.027,1.1 -1.1664,14.3 -2.6527,29.3334 -8.4835,85.807 -1.1868,106.4622 48.04087,135.9914 17.9026,10.739 19.791,12.038 17.2967,11.8996 -1.0799,-0.06 -9.4499,-1.5288 -18.6,-3.264 z M 479.58763,1615.5211 c -72.1561,-28.1539 -104.0556,-45.8054 -130.028,-71.9504 -41.151,-41.4248 -59.1239,-91.489 -81.89646,-228.1258 -7.27217,-43.6335 -8.57696,-52.2871 -7.73995,-51.3333 0.67596,0.7703 10.83126,28.7621 26.36311,72.6667 38.972,110.1634 64.9534,158.5569 108.6752,202.4205 21.1065,21.1748 28.6686,27.2368 94.5366,75.7837 5.8174,4.2878 10.0174,7.7431 9.3333,7.6788 -0.6841,-0.064 -9.3438,-3.2774 -19.2438,-7.1402 z m 654.08957,-0.5386 c 62.8571,-46.3277 74.9523,-55.99 93.723,-74.8709 44.5241,-44.7853 70.4003,-92.8405 109.4888,-203.3333 15.849,-44.8013 25.6936,-71.9081 26.3906,-72.6667 0.7583,-0.8252 0.4499,1.2297 -7.1053,47.3333 -18.5828,113.396 -34.21,166.536 -60.7757,206.6667 -10.0062,15.1156 -33.4522,38.1761 -49.811,48.9919 -13.9943,9.2525 -48.0194,26.5485 -68.9808,35.065 -17.7115,7.196 -52.1223,20.6098 -52.8713,20.6098 -0.3495,0 4.1243,-3.508 9.9417,-7.7958 z m -577.92237,-56.2713 c 2.05,-1.1472 9.4517,-3.9359 77.3117,-29.1275 15.8468,-5.8828 35.3468,-13.4777 43.3334,-16.8777 21.0457,-8.9592 56.5655,-27.2769 71.0127,-36.6215 11.4249,-7.3897 12.324,-8.2744 10.5286,-10.3596 -39.4617,-45.8304 -69.4663,-109.0774 -114.3057,-240.9466 -8.2897,-24.3793 -32.7621,-100.5849 -35.325,-109.9999 -1.2753,-4.6848 9.3165,13.3616 46.5625,79.3332 47.7064,84.4996 62.6689,109.4677 87.0931,145.3333 20.4976,30.0996 40.4082,55.3436 61.5207,78 l 8.076,8.6667 8.093,-8.6667 c 41.3841,-44.3176 76.4384,-95.7775 131.2437,-192.6666 45.0315,-79.61 63.91837,-112.5475 64.31137,-112.1545 0.5534,0.5534 -23.73277,76.9827 -35.42647,111.4878 -44.5801,131.5445 -74.9713,195.6467 -114.5503,241.6133 -1.7955,2.0852 -0.8963,2.9703 10.5285,10.3631 15.8027,10.2256 53.6652,29.4083 77.4301,39.2292 10.0495,4.1529 35.2496,13.7769 56.00007,21.3865 40.6094,14.8923 59.7282,22.1295 59.7282,22.6096 0,0.166 -3.45,0.12 -7.6667,-0.1026 -100.51877,-5.298 -142.92317,-10.1371 -185.21747,-21.1371 -20.3262,-5.2864 -33.2675,-10.2003 -51.4492,-19.5352 l -13,-6.6745 -13,6.6745 c -17.4451,8.9568 -30.6185,14.0611 -48.6353,18.8444 -37.5849,9.9788 -85.4353,16.1529 -155.0313,20.0037 -13.9334,0.771 -28.9311,1.6559 -33.3282,1.9666 -5.1982,0.3672 -7.2404,0.1425 -5.838,-0.6423 z m 107.8328,-105.7945 c -95.4527,-37.0966 -159.179,-66.2238 -205.3466,-93.8574 -35.9258,-21.5034 -59.7566,-40.0838 -85.569,-66.7166 -32.2781,-33.304 -52.5207,-62.506 -74.9646,-108.144 -34.55355,-70.2622 -57.63578,-153.2269 -85.34423,-306.75371 -11.62061,-64.38745 -33.34367,-199.87633 -32.2256,-200.99438 0.52055,-0.52056 20.24407,54.44701 50.83095,141.66105 51.83338,147.79536 77.96068,213.16674 112.70798,281.99994 38.5267,76.3199 73.8943,126.5966 127.9101,181.8305 38.5813,39.4512 74.8847,69.8586 146.3784,122.6051 53.4409,39.4275 83.5847,62.2487 82.1136,62.1663 -0.6367,-0.036 -17.0576,-6.2443 -36.491,-13.7968 z m 270.3723,4.682 c 6.6045,-5.0488 20.8477,-15.6988 31.6515,-23.6667 106.31407,-78.4072 133.72217,-100.4979 175.09127,-141.1217 62.0205,-60.9031 100.2365,-114.8509 143.5897,-202.6987 34.7672,-70.4496 56.0548,-124.30925 111.9855,-283.33327 32.8552,-93.41468 46.2709,-130.81661 46.7507,-130.33681 0.5122,0.51226 -11.8548,81.41614 -19.5159,127.67014 -33.2724,200.88434 -59.0317,300.74314 -98.0463,380.08704 -22.4374,45.6309 -42.6832,74.8381 -74.9632,108.144 -50.4041,52.0061 -113.5771,88.7977 -242.9156,141.4728 -30.77347,12.533 -83.37717,32.9628 -84.87427,32.9628 -0.4188,0 4.6421,-4.1308 11.2466,-9.1796 z m -202.3723,-384.7101 c -20.3334,-3.6693 -37.8937,-11.4321 -55.6614,-24.606 -35.2252,-26.1178 -66.1496,-68.19794 -121.6283,-165.50427 -16.4383,-28.83176 -37.3769,-67.13264 -37.3769,-68.36969 0,-1.18778 13.5844,13.50322 45.9594,49.70302 69.6617,77.89167 102.6724,108.94525 140.719,132.37612 36.1548,22.26582 86.7326,34.64192 124.1056,30.36792 60.4255,-6.9103 102.112,-29.26649 161.709,-86.72353 14.68037,-14.1533 41.30617,-42.80831 82.40657,-88.68718 15.11,-16.86666 29.1203,-32.16666 31.1342,-33.99999 l 3.6614,-3.33334 -1.7009,3.33334 c -12.1232,23.75822 -55.6648,100.26917 -71.676,125.94859 -50.34807,80.75021 -87.30497,116.21881 -132.98497,127.62961 -18.2446,4.5575 -44.6876,4.2078 -68,-0.8992 -9.5334,-2.0885 -18.8334,-3.7978 -20.6667,-3.7984 -1.8333,-7e-4 -10.8333,1.6201 -20,3.6017 -20.4296,4.4164 -45.1698,5.6375 -60,2.9613 z M 390.57083,829.35392 c -10.3248,-3.56771 -17.9877,-10.53432 -24.3618,-22.14826 -4.7365,-8.63009 -5.9205,-12.53134 -8.5647,-28.2209 -2.9015,-17.21582 -3.0104,-20.09264 -2.0014,-52.8731 1.6774,-54.49914 5.891,-91.25677 28.6583,-249.99999 13.1716,-91.83807 14.6282,-100.32975 29.1598,-170 8.4127,-40.33333 17.1664,-81.73052 19.4528,-91.99375 5.0644,-22.73318 16.7682,-62.00536 19.2049,-64.44209 1.4787,-1.47867 2.2161,-1.21575 4.4089,1.57194 3.8073,4.84016 6.5156,34.49142 10.4307,114.19723 4.8822,99.39395 9.8234,138.64709 22.155,176 12.4115,37.59523 29.3526,67.0388 85.1555,148 16.4058,23.80213 58.8487,90.36186 59.5156,93.33333 0.5043,2.24699 -53.3823,44.68088 -84.9722,66.91273 -50.2775,35.38362 -103.8692,67.9032 -126.5579,76.79571 -13.1611,5.15829 -22.585,6.01109 -31.6835,2.86715 z m 824.99497,1.34869 c -4.0453,-0.59613 -12.1453,-3.10509 -18,-5.57547 -21.3682,-9.01625 -74.1595,-41.18196 -118.6121,-72.27018 -34.6519,-24.2341 -90.07387,-67.63375 -89.54077,-70.1173 0.6211,-2.89349 42.70507,-69.00444 58.11497,-91.29466 56.7451,-82.08075 73.3785,-110.85768 86.2377,-149.19721 12.5247,-37.34244 17.5631,-77.12115 22.4783,-177.46945 3.8281,-78.15411 6.6494,-108.75761 10.4742,-113.62017 2.1341,-2.71307 2.8598,-2.96101 4.3385,-1.48234 2.3608,2.36082 13.9815,41.21292 19.0734,63.76917 2.2349,9.9 10.9941,51.3 19.4649,92 14.4665,69.50726 16.2064,79.60024 28.6584,166.24148 22.971,159.83328 27.6078,200.12613 29.2791,254.42518 1.0089,32.78046 0.9,35.65728 -2.0014,52.8731 -2.6443,15.68956 -3.8283,19.59081 -8.5647,28.2209 -6.4742,11.79638 -14.0248,18.56239 -24.884,22.29852 -4.1683,1.43411 -7.9349,2.53432 -8.3701,2.4449 -0.4352,-0.0895 -4.101,-0.65034 -8.1464,-1.24647 z"
     id="path12"
     inkscape:connector-curvature="0" />
</svg>
