<?xml version="1.0" encoding="UTF-8" standalone="no"?>
<svg
   xmlns:dc="http://purl.org/dc/elements/1.1/"
   xmlns:cc="http://creativecommons.org/ns#"
   xmlns:rdf="http://www.w3.org/1999/02/22-rdf-syntax-ns#"
   xmlns:svg="http://www.w3.org/2000/svg"
   xmlns="http://www.w3.org/2000/svg"
   viewBox="0 0 3948 3104"
   height="3104"
   width="3948"
   id="svg2"
   version="1.1">
  <metadata
     id="metadata8">
    <rdf:RDF>
      <cc:Work
         rdf:about="">
        <dc:format>image/svg+xml</dc:format>
        <dc:type
           rdf:resource="http://purl.org/dc/dcmitype/StillImage" />
        <dc:title></dc:title>
      </cc:Work>
    </rdf:RDF>
  </metadata>
  <defs
     id="defs6" />
  <path
     id="path12"
     d="m 1867.8997,3102.7404 c -123.9565,-3.3987 -268.4564,-21.096 -386,-47.2746 -42.0708,-9.3697 -115.6013,-28.9589 -142,-37.8298 -95.5954,-32.1242 -154.9041,-58.2984 -224.6666,-99.1508 -31.261,-18.3063 -70.3929,-46.6382 -98,-70.953 -43.89003,-38.656 -51.26857,-45.8121 -71.41205,-69.2594 -23.20385,-27.0098 -35.9794,-44.4987 -57.95247,-79.3334 -13.26634,-21.0316 -18.67777,-31.2232 -28.3186,-53.3333 -19.57181,-44.8857 -25.91436,-62.4836 -33.67656,-93.4381 -7.78816,-31.058 -10.6863,-50.8 -14.72956,-100.337 -2.13325,-26.1358 -2.13341,-29.48 -0.003,-56.6666 1.24536,-15.8904 3.46393,-38.7866 4.93016,-50.8803 3.07776,-25.3859 13.08872,-68.8855 21.20164,-92.1253 l 5.39258,-15.4472 -4.75929,-17.2195 c -3.76719,-13.6299 -5.46375,-23.8899 -8.13875,-49.2193 -1.8587,-17.6 -3.80608,-33.1015 -4.3275,-34.4479 -0.75286,-1.9439 -19.74511,19.732 -92.24415,105.278 -50.21285,59.2492 -108.84219,128.4241 -130.2874,153.7221 l -38.99132,45.9963 -145.00869,101.0101 c -79.75478,55.5556 -145.31059,101.0322 -145.67959,101.0591 -0.36901,0.027 -12.06901,-9.624 -26,-21.4465 -13.931,-11.8224 -75.25647,-63.7907 -136.27883,-115.485 L 0,2411.9694 l 2.4002,-4.8482 c 1.32011,-2.6667 35.55205,-74.7484 76.07098,-160.1818 l 73.67114,-155.3333 55.39528,-65.3333 c 86.86802,-102.4524 164.15054,-193.6388 500.8378,-590.9433 l 314.3479,-370.9432 41.5882,-28.8944 c 22.8735,-15.892 41.7558,-29.0351 41.9606,-29.207 0.2048,-0.1718 -4.1428,-15.2449 -9.6613,-33.49567 -7.7825,-25.73848 -11.2226,-39.9138 -15.3333,-63.18323 -8.0325,-45.4696 -9.1074,-53.9692 -11.2998,-89.34409 -1.7949,-28.96266 -1.8026,-36.23819 -0.068,-64 2.1608,-34.57488 2.3425,-35.96726 10.7865,-82.65591 11.8213,-65.36315 32.3937,-119.52929 67.6045,-178 20.5713,-34.16032 21.7148,-35.78391 48.3655,-68.66667 38.487,-47.48712 89.8127,-91.09713 148.5665,-126.23288 262.3875,-156.91186 711.0859,-184.2342 1035.3337,-63.04396 123.6476,46.21427 217.4652,109.55115 283.1656,191.16682 25.1266,31.21324 27.01,33.898 46.9816,66.96984 23.233,38.47237 39.2551,73.75881 51.978,114.47352 8.9864,28.75724 11.6147,40.31549 19.8592,87.33333 6.1686,35.17805 8.68,78.7896 6.7186,116.66667 -1.805,34.85538 -3.5467,49.11485 -11.4006,93.33333 -4.7365,26.66751 -7.8888,39.82383 -15.763,65.78989 l -9.8427,32.45661 4.9031,3.5434 c 2.6966,1.9489 21.6649,15.2076 42.1517,29.4637 l 37.2485,25.9204 77.3334,91.3349 c 42.5333,50.2343 97.7069,115.3701 122.6078,144.7464 24.9011,29.3762 63.3248,74.7114 85.3862,100.7447 22.0614,26.0333 66.8109,78.8333 99.4433,117.3333 166.444,196.3719 351.4653,414.6909 432.2941,510.0929 l 53.1726,62.7594 42.6777,89.9073 c 23.4728,49.4489 57.3736,120.8072 75.3352,158.5739 17.9615,37.7666 32.9435,69.3545 33.2932,70.1953 0.5017,1.2063 -264.4752,227.5249 -271.044,231.5007 -1.0964,0.6636 -14.3972,-7.8207 -37.4335,-23.8779 -19.6529,-13.6988 -43.2326,-30.1179 -52.3993,-36.4867 -9.1667,-6.3688 -58.4465,-40.6524 -109.5108,-76.1858 l -92.8443,-64.6063 -123.024,-145.2697 c -136.5434,-161.2338 -137.4149,-162.2534 -138.1038,-161.5644 -0.2687,0.2686 -2.2607,16.0448 -4.4266,35.0582 -3.0818,27.0532 -4.9521,38.1547 -8.6014,51.0568 l -4.6634,16.4871 4.6814,12.8463 c 7.2956,20.021 19.022,69.9574 21.8518,93.0558 1.3664,11.152 3.5412,33.8663 4.8332,50.476 2.246,28.8774 2.2454,31.5522 -0.017,61.0904 -3.5756,46.6686 -6.4932,66.2827 -14.7176,98.9392 -7.7579,30.8044 -14.1859,48.6183 -33.998,94.2198 -8.6641,19.9422 -14.2876,30.4109 -28.0859,52.2852 -22.6786,35.9524 -34.5918,52.1552 -59.24,80.5708 -19.718,22.7318 -29.3624,32.0221 -74.1328,71.4102 -21.1816,18.6352 -65.1938,50.3144 -91.3333,65.7402 -59.5167,35.1226 -118.8981,62.5025 -189.2937,87.2808 -165.2207,58.1552 -366.8698,92.6794 -574.7063,98.3953 -54.6613,1.5033 -53.664,1.5047 -114,-0.1497 z m 105.2834,-41.1835 c 250.6232,-7.1123 485.848,-59.8105 643.7536,-144.2225 36.8804,-19.7152 49.5734,-27.4335 80.0266,-48.662 31.6802,-22.0839 73.0947,-56.9986 96.4123,-81.2811 41.4644,-43.1799 80.2169,-99.4089 102.3061,-148.444 30.0912,-66.7981 42.4836,-116.5011 46.9844,-188.4427 3.0678,-49.0341 -2.3202,-104.4174 -15.2749,-157.0126 l -7.4173,-30.1142 5.3482,-25.2192 c 2.9415,-13.8705 8.6506,-44.1192 12.6867,-67.2192 l 7.3385,-42 1.2594,-82.6666 1.2593,-82.6667 -5.1571,-35.3333 c -2.8364,-19.4334 -5.0024,-35.5098 -4.8133,-35.7254 0.1891,-0.2157 42.8988,49.8843 94.9104,111.3334 52.0117,61.4489 154.0404,181.9946 226.7304,267.8793 72.69,85.8847 134.2168,157.8847 136.7263,160 2.5094,2.1153 44.6472,41.946 93.6396,88.5127 48.9922,46.5666 89.5452,84.8537 90.1176,85.0824 1.0641,0.425 183.5661,-196.4608 184.771,-199.3339 0.3655,-0.8716 -34.9354,-69.4483 -78.4466,-152.3927 l -79.1112,-150.808 -111.9136,-132.274 c -61.5524,-72.7506 -247.2416,-292.1738 -412.6426,-487.6073 -165.4008,-195.4333 -309.3469,-365.5333 -319.8801,-378 -14.7151,-17.4162 -29.8541,-32.8247 -65.3575,-66.5203 -25.4134,-24.1196 -46.3714,-44.52008 -46.5733,-45.33447 -0.202,-0.8144 3.2663,-13.48024 7.7071,-28.14629 8.1089,-26.78017 17.2157,-70.92147 21.8685,-105.99891 5.3545,-40.36797 5.3688,-101.38041 0.032,-140 -11.8109,-85.47972 -33.4675,-149.2826 -73.0439,-215.19726 -64.6385,-107.65659 -163.0778,-185.33627 -299.09,-236.01598 -302.8996,-112.86395 -712.8968,-72.67882 -926.9296,90.85131 -85.2852,65.16157 -149.3338,156.33183 -181.035,257.69527 -13.5773,43.4129 -22.0962,91.23224 -25.0795,140.77909 -1.5981,26.54087 -1.5984,35.55663 0,62.85684 2.0359,34.82388 3.397,45.45165 11.3167,88.36407 3.4627,18.76236 8.2032,38.41185 13.7207,56.8728 l 8.4302,28.20613 -46.1342,43.7939 -46.1346,43.7938 -165.296,195.2568 c -561.92719,663.7763 -696.20943,822.6452 -699.36215,827.41 -4.72975,7.1483 -157.93656,299.5441 -157.93656,301.4227 0,1.9474 183.47272,200.7592 184.82828,200.2805 0.57628,-0.2035 43.76423,-40.8699 95.9732,-90.3699 l 94.92543,-90 212.7502,-251.3333 c 117.01261,-138.2333 218.42942,-258.078 225.3707,-266.3215 6.94128,-8.2433 12.81631,-14.7921 13.05563,-14.5529 0.23932,0.2393 -1.92212,16.884 -4.8032,36.9881 l -5.23835,36.553 1.33436,80 1.33436,80 6.57692,39.3333 c 3.6173,21.6333 9.32171,52.3651 12.67646,68.2927 l 6.09954,28.9592 -8.01729,33.7074 c -8.71971,36.6606 -12.31883,61.7802 -14.95465,104.374 -1.65467,26.7387 0.3058,63.6868 5.34136,100.6667 8.15068,59.8564 34.91113,132.8928 68.52523,187.0236 20.60013,33.1736 33.18723,50.2716 57.64953,78.3097 40.1906,46.0656 97.915,94.0555 153.4518,127.5743 36.7381,22.1728 100.5518,53.1032 141.7872,68.7239 150.7591,57.1101 344.796,92.7468 534.6667,98.1961 20.9,0.5999 40.0774,1.184 42.6166,1.2983 2.5391,0.1146 26.5391,-0.4147 53.3334,-1.1751 z m 263.7162,-494.9508 c -24.0122,-30.0309 -54.0552,-74.3993 -56.2212,-83.0293 -0.4652,-1.8538 -3.0806,-5.6824 -5.8121,-8.508 -4.9771,-5.1487 -12.4541,-15.2432 -45.7563,-61.7736 -22.6881,-31.7002 -34.7949,-49.7187 -43.21,-64.3091 -3.6666,-6.3575 -11.4666,-17.8601 -17.3333,-25.5615 -21.8827,-28.7262 -40.7772,-54.906 -49.4273,-68.4852 -26.2892,-41.2696 -47.0816,-70.6666 -49.9822,-70.6666 -0.6914,0 -1.2572,-0.8607 -1.2572,-1.9127 0,-2.7323 -14.271,-23.5731 -24.583,-35.8997 -4.8214,-5.7635 -12.1607,-16.2635 -16.3096,-23.3334 -10.3508,-17.6385 -31.0919,-48.6536 -39.4444,-58.983 -3.7971,-4.6959 -19.2606,-26.8379 -34.3632,-49.2046 -41.3708,-61.2692 -79.7648,-114.7156 -88.8763,-123.7206 -1.6996,-1.6796 -3.0901,-3.9536 -3.0901,-5.0531 0,-3.6355 -5.509,-12.9797 -19.785,-33.5596 -7.7578,-11.1833 -14.8946,-20.3333 -15.8597,-20.3333 -4.996,0 -5.0261,1.29 -4.8852,209.6922 0.075,111.2975 0.4089,202.6312 0.7416,202.9639 0.3327,0.3327 32.9711,1.0712 72.5299,1.6411 l 71.925,1.0361 -0.2693,82 c -0.1481,45.1 -0.6375,85.6716 -1.0875,90.1592 -0.7144,7.1248 -1.2718,8.3871 -4.3973,9.9571 -2.8055,1.4093 -18.4236,1.9513 -72.2459,2.5074 l -68.6666,0.7096 -0.8274,60.6667 c -0.8013,58.7605 -1.526,69.2853 -5.5534,80.6667 l -1.8874,5.3333 -89.3637,0.3427 -89.3637,0.3426 -0.9951,-49.0093 c -0.5472,-26.9552 -1.3732,-59.8093 -1.8355,-73.0093 l -0.8405,-24 -70,-0.9512 c -38.5,-0.5232 -75.6447,-1.1232 -82.5437,-1.3334 l -12.5438,-0.3821 0.2888,-62.6667 c 0.3096,-67.179 1.8379,-113.5725 3.8062,-115.5408 2.816,-2.816 19.5168,-3.7978 88.9925,-5.2324 40.3333,-0.8328 73.4,-1.5994 73.4816,-1.7037 0.5533,-0.7081 1.85,-369.0072 1.8508,-525.7249 l 9e-4,-190.8685 15.6667,-0.8046 c 30.4791,-1.5652 31.1667,-1.8252 56.4381,-21.3362 17.015,-13.1368 50.1327,-35.4556 52.6104,-35.4556 1.0167,0 6.6948,-3.3 12.6182,-7.3334 5.9233,-4.0333 11.2194,-7.3333 11.7692,-7.3333 3.6762,0 42.8554,53.3536 84.463,115.0207 15.2226,22.5613 36.8956,53.4613 48.1624,68.6667 21.2212,28.6394 25.4359,34.8244 36.2844,53.2472 3.5415,6.014 10.3875,16.1723 15.2134,22.574 16.4592,21.8338 23.5836,31.8248 44.0861,61.8248 11.2764,16.5 33.7152,48.9 49.864,72 16.1487,23.1 40.3871,58.714 53.8631,79.1423 13.476,20.4283 26.764,39.6283 29.5289,42.6667 2.7649,3.0384 9.4288,12.1244 14.8085,20.191 5.3796,8.0667 12.9419,18.9458 16.805,24.1758 3.863,5.2298 10.999,16.0298 15.8578,24 4.8588,7.97 11.206,16.9324 14.105,19.9164 2.899,2.984 5.8621,7.5665 6.5846,10.1833 0.8108,2.9364 2.3266,5.0228 3.9592,5.4497 1.7106,0.4474 2.6454,1.8218 2.6454,3.8895 0,1.8188 2.0837,5.4657 4.8328,8.4581 7.4444,8.1032 15.6738,19.2355 19.6594,26.5939 1.986,3.6667 8.1388,12.0667 13.6731,18.6667 12.3396,14.7161 20.8657,27.1824 28.6044,41.8233 7.3319,13.8716 13.6507,21.5117 15.9465,19.2812 2.9544,-2.8701 3.9038,-66.4356 5.3131,-355.7712 0.7609,-156.2 1.9636,-291.4668 2.6727,-300.5928 1.0829,-13.9353 1.9194,-17.939 5.2236,-25 l 3.9342,-8.4073 h 89.6187 89.6187 l -1.0346,474.3334 c -0.569,260.8834 -1.4158,492.2372 -1.882,514.1196 l -0.8473,39.7863 -3.3333,2.7188 c -3.1039,2.5316 -4.6051,2.6693 -21.8047,2.0005 -25.726,-1.0004 -33.332,0.2776 -49.7428,8.3579 -7.4511,3.6688 -15.2491,8.4735 -17.3289,10.6771 -2.0799,2.2036 -4.8575,4.0065 -6.1724,4.0065 -3.8796,0 -12.7843,5.0652 -26.0871,14.8388 -6.858,5.0387 -13.2649,9.1612 -14.2375,9.1612 -0.9725,0 -8.6048,-8.55 -16.9604,-19 z"
     style="fill:#000000;stroke-width:1.33333337" />
</svg>
