<?xml version="1.0" encoding="UTF-8" standalone="no"?>
<svg
   xmlns:dc="http://purl.org/dc/elements/1.1/"
   xmlns:cc="http://creativecommons.org/ns#"
   xmlns:rdf="http://www.w3.org/1999/02/22-rdf-syntax-ns#"
   xmlns:svg="http://www.w3.org/2000/svg"
   xmlns="http://www.w3.org/2000/svg"
   viewBox="0 0 3948 3104"
   height="3104"
   width="3948"
   id="svg2"
   version="1.1">
  <metadata
     id="metadata8">
    <rdf:RDF>
      <cc:Work
         rdf:about="">
        <dc:format>image/svg+xml</dc:format>
        <dc:type
           rdf:resource="http://purl.org/dc/dcmitype/StillImage" />
        <dc:title></dc:title>
      </cc:Work>
    </rdf:RDF>
  </metadata>
  <defs
     id="defs6" />
  <path
     id="path12"
     d="m 1867.8967,3102.7404 c -123.9565,-3.3987 -268.4564,-21.096 -386,-47.2746 -42.0708,-9.3697 -115.6013,-28.9589 -142,-37.8298 -95.5954,-32.1242 -154.9041,-58.2984 -224.6666,-99.1508 -31.261,-18.3063 -70.3929,-46.6382 -98,-70.953 -43.8901,-38.656 -51.2686,-45.8121 -71.4121,-69.2594 -23.2038,-27.0098 -35.9794,-44.4987 -57.9525,-79.3334 -13.2663,-21.0316 -18.6777,-31.2232 -28.3186,-53.3333 -19.5718,-44.8857 -25.9143,-62.4836 -33.6765,-93.4381 -7.7882,-31.058 -10.6863,-50.8 -14.7296,-100.337 -2.1332,-26.1358 -2.1334,-29.48 0,-56.6666 1.2454,-15.8904 3.464,-38.7866 4.9302,-50.8803 3.0777,-25.3859 13.0887,-68.8855 21.2016,-92.1253 l 5.3926,-15.4472 -4.7593,-17.2195 c -3.7672,-13.6299 -5.4637,-23.8899 -8.1387,-49.2193 -1.8587,-17.6 -3.8061,-33.1015 -4.3275,-34.4479 -0.7529,-1.9439 -19.7451,19.732 -92.2442,105.278 -50.2128,59.2492 -108.8422,128.4241 -130.2874,153.7221 l -38.9913,45.9963 -145.0087,101.0101 c -79.7548,55.5556 -145.3106,101.0322 -145.6796,101.0591 -0.369,0.027 -12.069,-9.624 -26,-21.4465 -13.931,-11.8224 -75.2565,-63.7907 -136.2788,-115.485 L 0,2411.9694 l 2.4002,-4.8482 c 1.3201,-2.6667 35.552,-74.7484 76.071,-160.1818 l 73.6711,-155.3333 55.3953,-65.3333 c 86.868,-102.4524 164.1505,-193.6388 500.8378,-590.9432 l 314.3479,-370.9432 41.5882,-28.8944 c 22.8735,-15.8919 41.7558,-29.0351 41.9606,-29.2069 0.2048,-0.1719 -4.1428,-15.24504 -9.6613,-33.49574 -7.7825,-25.7385 -11.2226,-39.9138 -15.3333,-63.1833 -8.0325,-45.4696 -9.1074,-53.9692 -11.2998,-89.3441 -1.7949,-28.9626 -1.8026,-36.2381 -0.068,-64 2.1608,-34.5748 2.3425,-35.9672 10.7865,-82.6559 11.8213,-65.36312 32.3937,-119.52926 67.6045,-177.99997 20.5713,-34.16032 21.7148,-35.78391 48.3655,-68.66667 38.487,-47.48712 89.8127,-91.09713 148.5665,-126.23288 262.3875,-156.91186 711.0859,-184.2342 1035.3337,-63.04395 123.6476,46.21426 217.4652,109.55114 283.1656,191.16681 25.1266,31.21324 27.01,33.898 46.9816,66.96984 23.233,38.47237 39.2551,73.75881 51.978,114.47352 8.9864,28.75724 11.6147,40.31549 19.8592,87.3333 6.1686,35.1781 8.68,78.7896 6.7186,116.6667 -1.805,34.8554 -3.5467,49.1149 -11.4006,93.3333 -4.7365,26.6675 -7.8888,39.8239 -15.763,65.7899 l -9.8427,32.45664 4.9031,3.5434 c 2.6966,1.9489 21.6649,15.2076 42.1517,29.4638 l 37.2485,25.9203 77.3334,91.3349 c 42.5333,50.2343 97.7069,115.3701 122.6078,144.7464 24.9011,29.3762 63.3248,74.7114 85.3862,100.7447 22.0614,26.0333 66.8109,78.8333 99.4433,117.3333 166.444,196.3718 351.4653,414.6908 432.2941,510.0928 l 53.1726,62.7594 42.6777,89.9073 c 23.4728,49.4489 57.3736,120.8072 75.3352,158.5739 17.9615,37.7666 32.9435,69.3545 33.2932,70.1953 0.5017,1.2063 -264.4752,227.5249 -271.044,231.5007 -1.0964,0.6636 -14.3972,-7.8207 -37.4335,-23.8779 -19.6529,-13.6988 -43.2326,-30.1179 -52.3993,-36.4867 -9.1667,-6.3688 -58.4465,-40.6524 -109.5108,-76.1858 l -92.8443,-64.6063 -123.024,-145.2697 c -136.5464,-161.2338 -137.4179,-162.2534 -138.1068,-161.5644 -0.2687,0.2686 -2.2607,16.0448 -4.4266,35.0582 -3.0818,27.0532 -4.9521,38.1547 -8.6014,51.0568 l -4.6634,16.4871 4.6814,12.8463 c 7.2956,20.021 19.022,69.9574 21.8518,93.0558 1.3664,11.152 3.5412,33.8663 4.8332,50.476 2.246,28.8774 2.2454,31.5522 -0.017,61.0904 -3.5756,46.6686 -6.4932,66.2827 -14.7176,98.9392 -7.7579,30.8044 -14.1859,48.6183 -33.998,94.2198 -8.6641,19.9422 -14.2876,30.4109 -28.0859,52.2852 -22.6786,35.9524 -34.5918,52.1552 -59.24,80.5708 -19.718,22.7318 -29.3624,32.0221 -74.1328,71.4102 -21.1816,18.6352 -65.1938,50.3144 -91.3333,65.7402 -59.5167,35.1226 -118.8981,62.5025 -189.2937,87.2808 -165.2207,58.1552 -366.8698,92.6794 -574.7063,98.3953 -54.6613,1.5033 -53.664,1.5047 -114,-0.1497 z m 105.2834,-41.1835 c 250.6232,-7.1123 485.848,-59.8105 643.7536,-144.2225 36.8804,-19.7152 49.5734,-27.4335 80.0266,-48.662 31.6802,-22.0839 73.0947,-56.9986 96.4123,-81.2811 41.4644,-43.1799 80.2169,-99.4089 102.3061,-148.444 30.0912,-66.7981 42.4836,-116.5011 46.9844,-188.4427 3.0678,-49.0341 -2.3202,-104.4174 -15.2749,-157.0126 l -7.4173,-30.1142 5.3482,-25.2192 c 2.9415,-13.8705 8.6506,-44.1192 12.6867,-67.2192 l 7.3385,-42 1.2594,-82.6666 1.2593,-82.6667 -5.1571,-35.3333 c -2.8364,-19.4334 -5.0024,-35.5098 -4.8133,-35.7254 0.1891,-0.2157 42.8988,49.8843 94.9104,111.3334 52.0117,61.4489 154.0404,181.9946 226.7304,267.8793 72.69,85.8847 134.2168,157.8847 136.7263,160 2.5094,2.1153 44.6472,41.946 93.6396,88.5127 48.9922,46.5666 89.5452,84.8537 90.1176,85.0824 1.0641,0.425 183.5661,-196.4608 184.771,-199.3339 0.3655,-0.8716 -34.9354,-69.4483 -78.4466,-152.3927 l -79.1112,-150.808 -111.9136,-132.274 c -61.5524,-72.7506 -247.2416,-292.1738 -412.6426,-487.6072 -165.4008,-195.4333 -309.3469,-365.5333 -319.8801,-378 -14.7151,-17.4162 -29.8541,-32.8247 -65.3575,-66.5203 -25.4134,-24.1196 -46.3714,-44.52004 -46.5733,-45.33444 -0.202,-0.8144 3.2663,-13.4803 7.7071,-28.1463 8.1089,-26.7802 17.2157,-70.9215 21.8685,-105.9989 5.3545,-40.368 5.3688,-101.3804 0.032,-140 -11.8109,-85.47976 -33.4675,-149.28264 -73.0439,-215.1973 -64.6385,-107.65659 -163.0778,-185.33627 -299.09,-236.01598 -302.8996,-112.86394 -712.8968,-72.67881 -926.9296,90.85131 -85.2852,65.16157 -149.3338,156.33183 -181.035,257.69527 -13.5773,43.4129 -22.0962,91.2322 -25.0795,140.7791 -1.5981,26.5409 -1.5984,35.5566 0,62.8568 2.0359,34.8239 3.397,45.4517 11.3167,88.3641 3.4627,18.7624 8.2032,38.4119 13.7207,56.8728 l 8.4302,28.2061 -46.1342,43.79394 -46.1346,43.7938 -165.296,195.2568 c -561.9272,663.7762 -696.2095,822.6451 -699.3622,827.4099 -4.7297,7.1483 -157.9365,299.5441 -157.9365,301.4227 0,1.9474 183.4727,200.7592 184.8282,200.2805 0.5763,-0.2035 43.7643,-40.8699 95.9732,-90.3699 l 94.9255,-90 212.7502,-251.3333 c 117.0126,-138.2333 218.4294,-258.078 225.3707,-266.3215 6.9412,-8.2433 12.8163,-14.7921 13.0556,-14.5529 0.2393,0.2393 -1.9221,16.884 -4.8032,36.9881 l -5.2384,36.553 1.3344,80 1.3344,80 6.5769,39.3333 c 3.6173,21.6333 9.3217,52.3651 12.6764,68.2927 l 6.0996,28.9592 -8.0173,33.7074 c -8.7197,36.6606 -12.3188,61.7802 -14.9547,104.374 -1.6546,26.7387 0.3058,63.6868 5.3414,100.6667 8.1507,59.8564 34.9111,132.8928 68.5252,187.0236 20.6002,33.1736 33.1873,50.2716 57.6496,78.3097 40.1906,46.0656 97.915,94.0555 153.4518,127.5743 36.7381,22.1728 100.5518,53.1032 141.7872,68.7239 150.7591,57.1101 344.796,92.7468 534.6667,98.1961 20.9,0.5999 40.0774,1.184 42.6166,1.2983 2.5391,0.1146 26.5391,-0.4147 53.3334,-1.1751 z m -272.6167,-783.1536 c -13.4271,-4.2576 -23.352,-11.9111 -28.0013,-21.5927 -3.1598,-6.5797 -3.3023,-20.5342 -0.2814,-27.552 3.1766,-7.3792 14.9026,-19.1594 21.6278,-21.7278 l 5.7328,-2.1894 0.461,-11.6382 c 0.4252,-10.7312 0.8507,-12.2694 5.4611,-19.7354 2.75,-4.4533 5,-9.0334 5,-10.178 0,-1.313 -2.0479,-2.6324 -5.5496,-3.5753 -6.5171,-1.7548 -19.2787,-13.7355 -23.4363,-22.002 -12.3714,-24.5981 -1.981,-52.5091 24.0798,-64.6835 15.4609,-7.2226 30.3888,-7.5792 53.5728,-1.2796 7.3166,1.9882 16.3198,3.1287 28.6666,3.6319 9.9,0.4035 18.9766,1.2384 20.1702,1.8555 2.2342,1.1549 4.0194,7.157 2.9544,9.9326 -0.3859,1.0056 -5.8456,1.8144 -15.2611,2.2607 -8.0631,0.3821 -14.9528,0.9876 -15.3107,1.3455 -0.3577,0.3577 0.6712,3.8785 2.2867,7.8238 4.5108,11.0168 4.3052,26.1759 -0.4875,35.9347 -8.7178,17.7516 -29.671,30.572 -49.9654,30.572 -7.9492,0 -11.0532,3.324 -11.0532,11.8368 0,3.6529 0.747,7.1233 1.7044,7.9179 0.9374,0.778 9.1874,2.6741 18.3333,4.2137 41.1431,6.9253 54.9301,14.3164 58.7779,31.5093 5.348,23.8976 -21.0698,51.1786 -55.3236,57.1312 -14.1106,2.4522 -36.7152,2.5484 -44.1587,0.1883 z m 52.8177,-14.0539 c 7.123,-2.1212 15.2207,-8.0302 20.1038,-14.6702 3.5277,-4.7971 4.3977,-7.3454 4.769,-13.9702 0.8692,-15.5041 -4.5156,-19.1276 -37.8929,-25.4989 -20.5895,-3.9303 -24.8872,-3.7231 -32.2283,1.5537 -22.3308,16.0518 -16.8546,45.7915 9.6851,52.5979 2.9768,0.7635 6.0123,1.6475 6.7456,1.9647 2.3056,0.997 23.7775,-0.476 28.8177,-1.977 z m -13.2073,-112.3172 c 6.7905,-2.0345 14.8455,-11.1245 17.8987,-20.1988 3.0141,-8.9581 2.9632,-22.3133 -0.12,-31.4828 -3.1346,-9.322 -12.8948,-19.4892 -19.9864,-20.8194 -13.5402,-2.5402 -23.6224,2.557 -30.6584,15.4994 -7.6191,14.0152 -5.9792,37.0335 3.449,48.4143 7.4248,8.9625 17.9298,12.0291 29.4172,8.5873 z m -469.6104,64.3802 c -6.2333,-1.3903 -12.9833,-3.1756 -15,-3.9674 l -3.6667,-1.4396 v -27.3662 -27.3664 h 6.5034 c 3.5856,0 7.1161,0.7477 7.869,1.6666 0.751,0.9167 2.0452,6.4667 2.8759,12.3334 2.3838,16.8349 4.068,22.8586 7.1848,25.697 5.3797,4.8991 12.5589,6.303 32.2336,6.303 17.6511,0 19.0293,-0.193 25.3333,-3.5468 3.6667,-1.9508 8.66,-5.5143 11.0963,-7.919 7.4785,-7.3816 8.8648,-11.2141 8.8853,-24.5628 0.016,-10.5809 -0.3542,-12.5026 -3.0782,-15.9693 -4.9951,-6.3568 -13.7035,-11.804 -40.7555,-25.4928 -33.7723,-17.0895 -42.1887,-22.5981 -48.0456,-31.4468 -9.0706,-13.7036 -10.5408,-28.5355 -4.451,-44.9008 5.9141,-15.8928 29.0224,-33.0143 49.0154,-36.3167 13.4717,-2.2252 49.3593,0.5519 64.3333,4.9783 2.1067,0.6227 2.3334,2.9481 2.3334,23.9332 v 23.2435 h -5.2382 c -2.8809,0 -6.0848,-0.8468 -7.1198,-1.8818 -1.035,-1.0349 -2.8756,-6.8369 -4.0903,-12.8932 -2.7044,-13.4833 -4.6891,-16.6693 -12.6641,-20.3298 -9.2206,-4.2322 -31.4398,-4.129 -40.871,0.1898 -12.6182,5.7782 -19.2533,15.2191 -20.3567,28.965 -0.8659,10.7866 1.9371,18.8158 8.6155,24.6796 4.4454,3.903 24.3599,14.217 53.3302,27.6202 20.7852,9.6164 34.8948,25.8451 37.6658,43.3226 1.3206,8.3296 -2.0469,23.5338 -7.1346,32.2126 -4.9312,8.4122 -18.354,20.3995 -27.783,24.8118 -11.6788,5.4652 -18.4112,6.5948 -43.6872,7.3304 -18.3773,0.5348 -23.8662,0.224 -33.3333,-1.8876 z m 953.3333,0.4537 c -25.4862,-5.4739 -49.6858,-24.9663 -63.8849,-51.4583 -9.8675,-18.4106 -11.19,-24.2418 -11.2948,-49.8017 -0.1053,-25.6843 1.552,-34.7115 9.3021,-50.6667 11.5839,-23.8474 35.6164,-43.1952 63.211,-50.8889 6.7874,-1.8924 13.4368,-2.4101 30.6666,-2.3879 22.1968,0.029 37.7016,2.0356 52.3334,6.7736 l 6.3333,2.0508 v 23.2263 23.2261 h -6.5911 c -5.2994,0 -6.9977,-0.5806 -8.6666,-2.9633 -1.1416,-1.6299 -2.0756,-4.2037 -2.0756,-5.7199 0,-1.5161 -0.9315,-6.3325 -2.0699,-10.7033 -3.7737,-14.4883 -11.8588,-19.1273 -35.2635,-20.2333 -28.1365,-1.3298 -49.4753,8.8981 -64.3916,30.863 -8.8544,13.0388 -10.5942,20.4644 -11.288,48.1748 -0.8945,35.733 2.0834,50.4008 13.4724,66.3612 15.9056,22.2896 30.919,29.0916 64.4119,29.1824 26.5993,0.072 29.5997,-2.0564 33.0639,-23.4562 2.5768,-15.9176 3.2409,-16.8387 12.1417,-16.8387 h 7.3165 l -0.3633,24.2968 -0.3635,24.2968 -11.5157,2.9445 c -6.3336,1.6196 -16.1271,3.586 -21.7631,4.3699 -14.0473,1.9539 -42.219,1.6076 -52.7212,-0.648 z m -260.6666,-1.3857 c -5.1334,-1.145 -12.3254,-3.6851 -15.9824,-5.6447 -9.4774,-5.0785 -22.117,-18.1768 -27.0322,-28.0129 -6.0874,-12.182 -7.3734,-20.5115 -6.7498,-43.7198 l 0.5442,-20.2598 5.5311,-11.1186 c 10.9817,-22.076 30.3451,-35.9708 54.6144,-39.1902 14.7445,-1.9559 34.9857,4.7384 45.1944,14.947 9.2288,9.2288 15.1077,27.0836 15.1872,46.1247 l 0.027,6.3333 h -48.6667 -48.6667 v 5.3896 c 0,8.7764 3.9344,25.3503 8.0978,34.1126 6.701,14.1029 17.9992,21.9617 35.0436,24.3756 14.3962,2.0386 26.7017,-0.677 44.9353,-9.9166 3.6795,-1.8645 7.2675,-3.0332 7.9733,-2.5969 0.7059,0.4361 1.2834,3.1577 1.2834,6.0477 0,6.5854 -2.9124,9.6608 -13.8196,14.5934 -20.8128,9.4121 -40.4904,12.3324 -57.5138,8.5356 z m 44.1348,-96.6528 c 2.1458,-1.781 1.6418,-6.9979 -1.6999,-17.5962 -4.1983,-13.3144 -13.4257,-19.5466 -29.014,-19.596 -6.6965,-0.021 -10.8312,0.7383 -14.9964,2.7546 -10.3349,5.003 -19.5545,18.4961 -21.2901,31.1589 l -0.8883,6.4812 32.986,-0.8059 c 22.5064,-0.55 33.5949,-1.3113 34.9027,-2.3966 z m 387.8652,97.3913 c -16.2488,-2.2355 -25.5674,-7.4424 -38.981,-21.7817 -8.8446,-9.4548 -15.1777,-21.2087 -17.5456,-32.5634 -2.14,-10.2618 -1.8341,-32.9896 0.5682,-42.2122 4.183,-16.0602 14.3541,-30.7451 27.625,-39.8852 22.097,-15.2187 54.952,-16.0556 76.259,-1.9424 14.7558,9.7737 26.0037,25.8184 29.4272,41.9765 4.4004,20.7685 1.3177,48.9251 -6.8898,62.9299 -14.0117,23.9093 -42.3056,37.3524 -70.463,33.4785 z m 23.8453,-14.9192 c 6.452,-1.9279 15.4063,-10.3593 19.4783,-18.3412 10.7173,-21.0077 10.942,-59.9887 0.4637,-80.4767 -7.1407,-13.9618 -19.0129,-21.482 -33.6972,-21.3446 -20.0864,0.1878 -33.1724,13.8813 -38.1557,39.9269 -6.4596,33.7611 3.7632,69.8437 22.4017,79.0696 6.5867,3.2604 20.6411,3.8157 29.5092,1.166 z m -1007.9869,9.3481 c 1.1845,-5.9232 2.334,-6.7277 10.5894,-7.4124 l 7.2084,-0.5977 0.8358,-18.8491 c 1.2744,-28.7449 1.5256,-91.9968 0.3726,-93.8621 -0.5688,-0.9203 -3.6872,-1.6537 -7.031,-1.6537 -12.37,0 -15.4016,-6.2768 -5.209,-10.7855 8.3266,-3.6832 25.3956,-7.8812 32.0451,-7.8812 h 5.5764 l 0.8859,61.6667 c 0.487,33.9166 1.261,63.3657 1.7197,65.4422 0.9376,4.2442 3.6248,5.6894 12.8149,6.8923 l 6.3334,0.8288 v 5.2517 5.2516 h -33.5 -33.5 z m 414.1416,-0.875 c 0,-4.72 0.3602,-5.2387 4.1666,-6 2.2918,-0.4583 5.8488,-0.8334 7.9048,-0.8334 8.3355,0 10.1252,4.977 7.9286,-97.4285 v -93.2381 h -9.8368 c -10.226,0 -13.6592,-1.6207 -12.0908,-5.7079 1.4456,-3.7671 22.7441,-10.7596 41.5942,-13.6559 l 5.6667,-0.8706 0.069,51.1172 c 0.084,62.2982 1.9888,152.9212 3.2804,156.1286 0.5194,1.2898 2.2282,2.5882 3.7972,2.8854 1.5691,0.2972 5.8483,1.042 9.5092,1.655 7.6059,1.2739 9.1452,3.98 4.7591,8.3662 -2.6232,2.6233 -4.2081,2.7486 -34.7485,2.7486 h -32 z m 674.6666,0.5469 c 0,-5.5175 2.6807,-7.3803 10.6208,-7.3803 3.2078,0 5.6748,-0.688 5.9762,-1.6666 0.2822,-0.9167 0.871,-26.7167 1.3085,-57.3334 l 0.7952,-55.6666 -6.3504,-0.019 c -9.5295,-0.027 -12.3503,-1.1167 -12.3503,-4.7697 0,-2.1218 1.2596,-3.7948 3.8751,-5.1474 6.7472,-3.4892 26.8417,-8.7313 33.4691,-8.7313 h 6.3793 l 0.5063,63 c 0.5362,66.7051 0.7002,68.3795 6.8088,69.5228 13.7248,2.5687 13.6025,2.5007 14.042,7.8105 l 0.4137,5 h -32.7471 -32.7472 v -4.6197 z m 82.6667,-0.5581 c 0,-5.6222 1.6952,-6.7666 10.0785,-6.8039 2.2431,-0.013 5.2431,-0.8696 6.6667,-1.9101 2.5129,-1.837 2.5993,-4.6094 2.9728,-95.3334 l 0.3845,-93.4414 h -9.888 c -14.588,0 -17.6178,-5.4695 -5.8969,-10.6454 6.5432,-2.8893 30.52,-8.0213 37.476,-8.0213 h 4.708 l 0.4464,101.6667 c 0.2455,55.9166 0.9488,102.7218 1.5629,104.0114 0.6142,1.2898 2.4004,2.5882 3.9695,2.8854 1.5691,0.2972 5.8483,1.042 9.5092,1.655 7.6059,1.2739 9.1452,3.98 4.7591,8.3662 -2.6234,2.6233 -4.2083,2.7486 -34.7487,2.7486 h -32 z m -1086.3333,1.6281 c -2.4592,-0.9923 -2.0247,-5.5015 0.6666,-6.9172 1.2834,-0.6751 5.7834,-1.9917 10,-2.9257 l 7.6667,-1.6984 v -28.7878 c 0,-15.8333 0.3972,-40.9378 0.8783,-55.7878 l 0.8748,-27 h -8.2992 c -9.3018,0 -13.4574,-1.5976 -13.4574,-5.1736 0,-5.0434 8.3987,-8.8995 30.9244,-14.1986 12.2016,-2.8704 14.409,-1.9204 14.409,6.202 0,4.631 0.3489,5.1702 3.3456,5.1702 1.8401,0 8.8901,-2.3536 15.6666,-5.2304 32.4356,-13.7691 54.1047,-9.8063 65.055,11.897 3.7186,7.3704 5.0546,25.6215 5.2706,72 0.1751,37.572 0.6868,39.8984 9.3288,42.4115 8.6042,2.5021 11.9017,4.0358 10,7.0672 v 3.188 l -28,0.3773 c -31.959,0.4307 -34.3549,0.1403 -33.7532,-4.091 0.3144,-2.2112 2.0003,-3.4554 6.7107,-4.953 11.7308,-3.7294 13.3381,-0.4542 10.7959,-54.9058 l -0.2467,-48.1218 -4.42,-4.6 c -7.6189,-7.929 -10.4293,-8.7674 -26.9937,-8.0524 -14.4399,0.6232 -28.6332,4.2394 -30.8746,7.8659 -0.4577,0.7407 -0.3918,24.5979 0.1464,53.016 l 0.9787,51.6693 8.1616,2.5644 c 8.2799,2.6016 11.2816,6.1898 7.2928,8.7176 -1.8815,1.1923 -59.2329,1.4666 -62.1312,0.2971 z m -56.2084,-176.8909 c -6.5594,-2.252 -10.1447,-7.7316 -10.0344,-15.3359 0.1106,-7.6124 3.1281,-12.5659 9.4966,-15.5879 9.3294,-4.427 20.1016,0.8995 23.2812,11.5122 3.5478,11.8409 -10.3198,23.6769 -22.7434,19.4116 z m 1088.4682,0.3166 c -13.5941,-3.8408 -14.8666,-24.2821 -1.9265,-30.9458 14.7856,-7.614 30.0153,8.5214 21.392,22.6641 -4.4329,7.2703 -11.8605,10.4304 -19.4655,8.2817 z m -762.5849,-81.5426 c -0.3161,-0.9167 -3.0007,-15.9486 -5.9655,-33.4042 -6.435,-37.886 -18.1609,-97.4308 -41.5374,-210.9292 -31.3202,-152.0676 -34.4587,-167.5404 -43.9098,-216.4698 -10.06,-52.0827 -10.0036,-50.9383 -2.6504,-53.7875 5.2394,-2.0301 34.7894,-7.6765 40.3574,-7.7115 9.9925,-0.063 5.7186,-17.4319 67.7422,275.3022 39.0951,184.518 38.3091,180.9608 40.2872,182.3225 1.8912,1.3019 19.7426,0.6128 22.1152,-0.8536 1.163,-0.7187 1.5542,-31.3159 1.5583,-121.8809 0,-66.5068 0.3955,-128.5714 0.8724,-137.9214 l 0.8669,-17 h 27.7943 27.7943 v 53.7803 c 0,29.5791 0.3989,90.8273 0.8865,136.1071 l 0.8864,82.3269 4.1136,-0.7287 c 2.2624,-0.4009 12.8135,-1.7057 23.4468,-2.8998 10.6333,-1.1942 19.4675,-2.2984 19.6312,-2.4542 0.3371,-0.3201 -1.8359,-169.6381 -2.8635,-223.1316 l -0.6724,-35 h 27.8352 27.8351 l 0.7533,5 c 0.4143,2.75 1.3608,40.7 2.1035,84.3334 2.1057,123.7337 2.6344,146.7712 3.5575,155 l 0.8598,7.6666 h 7.084 c 8.5796,0 12.7615,-1.7384 15.5083,-6.4469 1.14,-1.9541 19.8907,-59.3531 41.6681,-127.5531 62.1647,-194.6796 90.5198,-280.6713 96.1198,-291.5007 0.9981,-1.9302 2.7361,-3.863 3.8621,-4.2951 3.5112,-1.3473 38.3947,9.7611 45.718,14.5587 1.65,1.0809 3,3.0843 3,4.4521 0,4.9009 -16.7171,59.0972 -66.7525,216.4089 -46.3511,145.7285 -57.4732,182.5948 -55.6396,184.4284 0.4014,0.4015 19.2538,-0.8211 41.8944,-2.7165 22.6404,-1.8956 47.1609,-3.2716 54.4901,-3.0579 l 13.3257,0.3888 1.5658,8.6667 c 0.861,4.7666 2.3256,16.0934 3.2545,25.1706 1.9147,18.7112 1.7676,19.0907 -8.0027,20.653 -6.8177,1.0902 -214.1416,22.5058 -324.1357,33.4817 -48.0333,4.7931 -92.1176,9.3101 -97.9651,10.038 -14.0009,1.7427 -17.9993,1.6693 -18.6933,-0.3433 z"
     style="fill:#000000;stroke-width:1.33333337" />
</svg>
