<?xml version="1.0" encoding="UTF-8" standalone="no"?>
<!-- Created with Inkscape (http://www.inkscape.org/) -->

<svg
   xmlns:dc="http://purl.org/dc/elements/1.1/"
   xmlns:cc="http://creativecommons.org/ns#"
   xmlns:rdf="http://www.w3.org/1999/02/22-rdf-syntax-ns#"
   xmlns:svg="http://www.w3.org/2000/svg"
   xmlns="http://www.w3.org/2000/svg"
   xmlns:sodipodi="http://sodipodi.sourceforge.net/DTD/sodipodi-0.dtd"
   xmlns:inkscape="http://www.inkscape.org/namespaces/inkscape"
   version="1.1"
   id="svg2"
   width="3948"
   height="3104"
   viewBox="0 0 3948 3104"
   sodipodi:docname="Hdie.svg"
   inkscape:version="0.92.1 r15371">
  <metadata
     id="metadata8">
    <rdf:RDF>
      <cc:Work
         rdf:about="">
        <dc:format>image/svg+xml</dc:format>
        <dc:type
           rdf:resource="http://purl.org/dc/dcmitype/StillImage" />
        <dc:title></dc:title>
      </cc:Work>
    </rdf:RDF>
  </metadata>
  <defs
     id="defs6" />
  <sodipodi:namedview
     pagecolor="#ffffff"
     bordercolor="#666666"
     borderopacity="1"
     objecttolerance="10"
     gridtolerance="10"
     guidetolerance="10"
     inkscape:pageopacity="0"
     inkscape:pageshadow="2"
     inkscape:window-width="731"
     inkscape:window-height="480"
     id="namedview4"
     showgrid="false"
     inkscape:zoom="0.076030928"
     inkscape:cx="1974"
     inkscape:cy="1552"
     inkscape:window-x="0"
     inkscape:window-y="27"
     inkscape:window-maximized="0"
     inkscape:current-layer="svg2" />
  <path
     style="fill:#000000;stroke-width:1.33333337"
     d="m 1893.3333,3102.7367 c -90.2892,-2.5674 -203.3654,-13.9374 -296.6666,-29.8306 -162.3862,-27.6612 -315.1864,-75.7147 -420.6667,-132.2936 -43.3396,-23.2472 -56.2863,-31.0572 -89.8627,-54.2095 -27.896,-19.2353 -50.7902,-38.1563 -96.31116,-79.5964 -13.268,-12.0785 -49.4845,-54.0167 -63.5712,-73.6143 -10.5713,-14.7069 -40.2626,-61.1138 -44.7887,-70.004 -4.6167,-9.0677 -24.1084,-54.9613 -31.4444,-74.0364 -4.3592,-11.3348 -10.1598,-30.604 -14.5136,-48.214 -7.74433,-31.3232 -10.85655,-52.9577 -14.90988,-103.6461 -1.92287,-24.046 -1.92007,-28.5832 0.0324,-52.6667 4.23779,-52.2726 7.15036,-72.3197 15.45178,-106.3538 4.2929,-17.6 9.8826,-37.5028 12.4216,-44.2284 l 4.6162,-12.2283 -5.0347,-18.4384 c -4.0531,-14.8436 -5.767,-25.1317 -8.7916,-52.7716 -2.0663,-18.8833 -4.1028,-34.2965 -4.5255,-34.2515 -0.4227,0.045 -60.35789,70.4915 -133.18933,156.5475 l -132.42077,156.4657 -20.91256,14.507 c -11.50189,7.9789 -78.077,54.293 -147.94467,102.9204 l -127.0321,88.4133 -6.9679,-5.9045 C 262.46888,2626.055 207.73333,2579.6703 144.66667,2526.2254 81.6,2472.7805 23.25,2423.3671 15,2416.4178 L 0,2403.7829 v -6.8022 c 0,-6.2284 6.33261,-20.1365 75.07654,-164.8885 l 75.07654,-158.0864 39.97488,-47.2005 c 43.1012,-50.8922 207.70529,-245.1342 473.87644,-559.2007 91.98189,-108.5333 197.23664,-232.7333 233.89944,-276 36.6628,-43.2667 82.7731,-97.6731 102.46736,-120.9032 l 35.8078,-42.2366 40.2438,-28.0204 c 22.1341,-15.41127 41.327,-28.82095 42.6507,-29.79934 2.2766,-1.6826 1.8614,-3.58102 -7.6712,-35.07633 -8.5981,-28.40791 -11.0486,-38.87753 -16.6879,-71.29745 -8.1853,-47.05766 -8.8316,-52.3504 -10.8048,-88.49166 -1.2207,-22.36002 -1.2306,-35.57192 -0.042,-56.66666 1.9364,-34.36944 2.8625,-41.67844 10.9183,-86.17502 12.3534,-68.235 33.2513,-123.91713 68.3057,-182 20.2686,-33.58382 24.3539,-39.39854 49.6524,-70.67181 25.4721,-31.48804 57.5964,-62.29351 93.8878,-90.03355 250.1986,-191.24374 751.6179,-237.55789 1112.7016,-102.77588 153.6434,57.35056 260.8372,140.77403 332.5408,258.79931 37.4486,61.64084 59.1014,118.33471 71.2987,186.68193 8.0888,45.32596 8.7116,50.26666 10.6719,84.66667 1.8761,32.9206 0.3276,74.7836 -3.8963,105.33333 -6.1308,44.34175 -12.846,76.70631 -22.7405,109.59914 -5.4486,18.11286 -10.197,33.71286 -10.552,34.66666 -0.4086,1.09734 15.1438,12.71284 42.3492,31.6289 l 42.9949,29.89466 74,87.356 c 87.1173,102.8407 286.3459,337.9389 445.3409,525.5213 28.2816,33.3667 61.5854,72.6667 74.0082,87.3333 99.3013,117.2371 261.792,308.9275 275.2109,324.6667 15.2033,17.8319 17.2039,20.8348 25.7596,38.6667 20.3007,42.3104 145.0087,305.3328 145.3333,306.5236 0.2747,1.0066 -275.6028,236.143 -277.0584,236.143 -0.212,0 -66.9717,-46.35 -148.3548,-103 l -147.9693,-103 -93.7275,-110.6666 c -51.55,-60.8667 -105.4608,-124.4898 -119.8017,-141.3847 -14.3411,-16.8948 -31.7745,-37.4539 -38.7412,-45.6868 -10.1133,-11.9515 -12.8515,-14.4944 -13.5836,-12.6153 -0.5044,1.2944 -2.446,16.9437 -4.3149,34.7762 -2.7178,25.9335 -4.3739,35.9922 -8.2746,50.2559 l -4.8766,17.8329 5.474,15.7442 c 8.2381,23.6941 18.3858,67.5354 21.4473,92.6577 1.4579,11.9643 3.692,35.1563 4.9647,51.5376 2.2034,28.3607 2.2014,31.2289 -0.04,60 -3.7123,47.6547 -6.5871,67.3299 -14.6426,100.2156 -7.8884,32.2037 -13.77,48.6563 -34.1822,95.6173 -12.6814,29.1751 -30.6916,59.8835 -55.4048,94.4679 -17.9394,25.1048 -53.2807,65.2384 -72.7564,82.622 -48.586,43.3667 -60.311,52.9829 -87.1439,71.4712 -34.6912,23.9028 -40.8652,27.6576 -84.1844,51.1996 -42.9473,23.3399 -94.6741,46.0612 -145.8156,64.0504 -48.6729,17.1209 -50.1013,17.5731 -98.8672,31.2935 -144.1964,40.5701 -318.7568,65.7756 -488.6157,70.553 -54.1302,1.5224 -63.679,1.5112 -121.8504,-0.1428 z M 2096,3056.2783 c 242.2935,-18.2017 450.9976,-74.7661 599.3333,-162.4356 21.0174,-12.4216 66.6528,-44.0446 81.7664,-56.6598 35.81,-29.8904 57.8062,-51.0063 80.993,-77.7519 37.002,-42.6811 65.2105,-86.0543 85.2066,-131.0131 16.8543,-37.8949 24.807,-60.274 32.5731,-91.663 7.5593,-30.5536 11.1793,-55.3187 14.1052,-96.4962 1.8301,-25.7562 1.8291,-31.6673 -0.013,-58 -3.0184,-43.2248 -6.4987,-66.5817 -15.2315,-102.2256 l -7.7351,-31.5714 5.8935,-27.7619 c 3.2415,-15.2691 9.1635,-46.9619 13.16,-70.4285 l 7.2664,-42.6667 0.1027,-33.3333 c 0.056,-18.3334 0.5852,-54.3334 1.1758,-80 l 1.0738,-46.6667 -5.1959,-36.6667 c -2.8579,-20.1666 -5.0343,-37.3497 -4.8365,-38.1845 0.1978,-0.8348 102.6276,119.3309 227.6218,267.0352 146.497,173.1135 232.4999,273.6825 242,282.9869 8.1058,7.9386 32.1378,30.9128 53.4044,51.0539 21.2667,20.1409 59.3534,56.2316 84.6371,80.2015 l 45.9704,43.5816 3.5109,-3.6707 c 3.5042,-3.6635 178.1362,-193.2772 182.6714,-198.3427 2.3324,-2.605 1.6734,-4.0406 -26.3164,-57.3333 -15.7899,-30.0636 -52.1568,-99.3612 -80.8154,-153.9945 l -52.1065,-99.3334 -264.0473,-312 c -145.2231,-171.6 -342.9722,-405.2582 -439.4395,-519.2404 l -175.3951,-207.2405 -47.5328,-45.2352 c -44.6041,-42.44802 -47.4689,-45.45228 -46.4966,-48.7595 0.5697,-1.9384 4.4813,-14.92436 8.6924,-28.85769 7.7809,-25.74535 16.7989,-70.02456 21.1809,-104 3.8315,-29.70723 5.2125,-68.9044 3.5407,-100.49123 -1.8271,-34.51768 -2.4247,-39.31649 -10.2342,-82.17544 -11.9417,-65.53754 -32.3181,-119.88045 -66.2154,-176.59392 -19.7506,-33.04469 -20.6598,-34.34488 -45.8164,-65.52186 -36.7396,-45.5319 -85.0608,-86.98696 -139.6355,-119.79424 C 2359.7556,211.87129 2222.3224,171.32886 2064,156.78822 c -36.4777,-3.3502 -44.1249,-3.61221 -105.3333,-3.60905 -61.1086,0.003 -68.8658,0.26874 -104.6667,3.58358 -159.0624,14.72769 -296.2628,55.23863 -401.4308,118.52979 -53.6201,32.26915 -102.1493,73.90314 -138.7225,119.01222 -24.1651,29.80506 -26.555,33.20813 -45.78,65.18894 -32.5318,54.1165 -54.1735,110.43596 -65.4524,170.3312 -7.8996,41.94938 -9.1724,51.77224 -11.1974,86.41038 -1.5703,26.86025 -1.5664,36.05521 0.027,62.7538 2.2305,37.38562 2.937,43.08609 10.5828,85.39206 4.3126,23.86244 8.3093,40.79006 14.6958,62.24168 l 8.7722,29.46512 -4.6874,4.425 c -2.578,2.43375 -23.365,22.125 -46.1931,43.75836 l -41.5063,39.3333 -340.88153,402.6667 c -187.48485,221.4666 -385.88413,455.868 -440.88729,520.8918 l -100.00575,118.2252 -80.46161,153.3899 c -44.25389,84.3645 -80.25389,153.9553 -80,154.6463 0.25389,0.6909 9.51479,11.0641 20.57977,23.0514 139.4914,151.12 166.18082,179.7954 167.34375,179.7954 0.74604,0 29.97231,-27.1836 64.94727,-60.4079 34.97494,-33.2244 78.17577,-74.1744 96.00182,-91 l 32.41102,-30.5921 230.07472,-271.7366 c 126.54109,-149.455 230.23447,-271.555 230.42967,-271.3333 0.1952,0.2217 -1.9619,16.3032 -4.7936,35.7365 l -5.1485,35.3334 0.7469,80.6666 0.7468,80.6667 7.3089,43.9788 c 4.0199,24.1883 10.0183,56.7605 13.3298,72.3827 l 6.0208,28.404 -7.9831,32.9505 c -9.2423,38.1481 -11.6508,54.2512 -14.6997,98.284 -2.0656,29.8319 -2.0655,34.1229 10e-4,63.3333 3.0466,43.0627 5.5657,59.9404 14.02,93.93 16.2853,65.4735 46.1453,128.8019 87.41966,185.4034 44.7977,61.4333 116.8004,125.9908 188.3713,168.8937 38.2785,22.9459 106.9196,56.2072 145.3333,70.424 41.7784,15.462 69.9474,24.5797 114,36.9 98.4587,27.5359 219.2899,48.1445 336,57.3075 58.5024,4.593 94.6275,5.6685 168,5.0017 52.2042,-0.4744 70.3212,-1.1885 114.6667,-4.5199 z"
     id="path12"
     inkscape:connector-curvature="0" />
</svg>
