<?xml version="1.0" encoding="UTF-8" standalone="no"?>
<!-- Created with Inkscape (http://www.inkscape.org/) -->

<svg
   xmlns:dc="http://purl.org/dc/elements/1.1/"
   xmlns:cc="http://creativecommons.org/ns#"
   xmlns:rdf="http://www.w3.org/1999/02/22-rdf-syntax-ns#"
   xmlns:svg="http://www.w3.org/2000/svg"
   xmlns="http://www.w3.org/2000/svg"
   xmlns:sodipodi="http://sodipodi.sourceforge.net/DTD/sodipodi-0.dtd"
   xmlns:inkscape="http://www.inkscape.org/namespaces/inkscape"
   version="1.1"
   id="svg2"
   width="3948"
   height="3212"
   viewBox="0 0 3948 3212"
   sodipodi:docname="Hnd_Hard_4.svg"
   inkscape:version="0.92.1 r15371">
  <metadata
     id="metadata8">
    <rdf:RDF>
      <cc:Work
         rdf:about="">
        <dc:format>image/svg+xml</dc:format>
        <dc:type
           rdf:resource="http://purl.org/dc/dcmitype/StillImage" />
        <dc:title></dc:title>
      </cc:Work>
    </rdf:RDF>
  </metadata>
  <defs
     id="defs6" />
  <sodipodi:namedview
     pagecolor="#ffffff"
     bordercolor="#666666"
     borderopacity="1"
     objecttolerance="10"
     gridtolerance="10"
     guidetolerance="10"
     inkscape:pageopacity="0"
     inkscape:pageshadow="2"
     inkscape:window-width="1366"
     inkscape:window-height="692"
     id="namedview4"
     showgrid="false"
     inkscape:zoom="0.073474471"
     inkscape:cx="1974"
     inkscape:cy="1606"
     inkscape:window-x="0"
     inkscape:window-y="27"
     inkscape:window-maximized="1"
     inkscape:current-layer="svg2" />
  <path
     style="fill:#000000;stroke-width:1.33333337"
     d="m 755.7394,3205.4543 -60,-6.3547 -61.646,-15.4864 -61.646,-15.4865 -56.354,-23.6041 -56.354,-23.604 -49.0394,-30.8494 -49.0394,-30.8493 -30.9503,-28.5463 c -17.0227,-15.7004 -44.6382,-42.0462 -61.3677,-58.5462 -28.8389,-28.4431 -32.4377,-32.5792 -69.3437,-79.698 l -38.9261,-49.698 -32.2701,-55.6354 -32.27015,-55.6353 -24.04345,-60 -24.04346,-60 -13.43969,-57.3333 C 27.61412,2522.594 16.71385,2470.994 10.78313,2439.4607 L 0,2382.1274 0.34414,2330.794 c 0.18927,-28.2333 0.5179,-52.2364 0.73029,-53.3402 1.46604,-7.6191 2.04443,-88.773 2.6512,-371.9931 0.37942,-177.1 0.98481,-348.1 1.34531,-380 0.3605,-31.9 0.99482,-186.1 1.4096,-342.6667 l 0.75415,-284.6666 7.94648,-26.331 c 7.06241,-23.4015 9.30592,-28.8901 20.16561,-49.3333 10.53266,-19.8277 14.60503,-25.9244 29.50611,-44.1737 14.79793,-18.1229 20.27325,-23.6439 38.02698,-38.3442 18.12683,-15.0092 23.73843,-18.7803 44.53803,-29.9297 21.3381,-11.4381 26.4532,-13.5609 49.483,-20.5361 23.9435,-7.252 27.5318,-7.9675 52.9283,-10.554 21.89,-2.2293 29.4707,-2.5168 38.5769,-1.463 6.2333,0.7213 12.0833,1.316 13,1.3215 1.3143,0.01 1.6667,-16.3069 1.6667,-77.1576 v -77.1678 l 7.9731,-26.2428 c 7.1357,-23.4864 9.2917,-28.7067 20.5267,-49.7009 10.8119,-20.2039 14.9312,-26.3602 29.6935,-44.3767 14.8055,-18.0694 19.9897,-23.2515 38.0624,-38.047 18.1219,-14.8358 24.0915,-18.8179 44.5993,-29.7505 20.9411,-11.1637 26.6158,-13.5174 49.1124,-20.3705 23.9212,-7.2871 27.0606,-7.9089 52.734,-10.4444 21.7256,-2.1456 29.6122,-2.4295 38.6319,-1.3906 6.2333,0.718 12.6833,1.3099 14.3333,1.3155 l 3,0.01 v -41.9365 -41.9365 l 7.5797,-21.0635 c 6.5593,-18.2281 9.3379,-23.8455 20.6413,-41.7302 11.6625,-18.4529 15.0281,-22.615 31.4203,-38.8561 25.6398,-25.4034 48.1282,-40.7994 81.0254,-55.4715 34.0917,-15.2047 62.2988,-22.4179 100.6667,-25.7425 26.3801,-2.2858 28.3097,-2.2823 55.3333,0.1014 24.6072,2.1706 31.0697,3.2687 53.3333,9.0627 35.808,9.3187 63.5567,21.988 93.3333,42.6133 18.234,12.6302 23.7683,17.3569 38.0935,32.5349 12.642,13.3946 19.5983,22.2096 28.3115,35.8761 6.3532,9.965 12.4352,20.2336 13.5155,22.819 l 1.9641,4.7008 18.3911,-4.3588 c 13.4174,-3.1801 25.5222,-4.9392 44.7607,-6.5049 23.9562,-1.9495 28.7763,-1.9586 52.6666,-0.1 111.0817,8.6448 202.0446,67.3846 235.3704,151.9918 l 7.8777,20 0.6796,350.6666 c 0.3739,192.8667 0.9173,350.9243 1.2079,351.239 0.2905,0.3148 2.7708,-0.5071 5.5116,-1.8263 2.7408,-1.3192 13.3832,-4.7679 23.6498,-7.6638 15.0787,-4.253 22.8955,-5.6253 40.6667,-7.1389 20.5947,-1.7541 23.3628,-1.7031 43.3333,0.7983 29.6492,3.7136 55.3394,12.1588 80.4863,26.4586 l 17.8196,10.1332 40.2537,42 c 22.1396,23.1 84.9208,88.7863 139.5138,145.9696 54.593,57.1834 138.2249,144.7834 185.8488,194.6668 100.7966,105.5788 156.217,163.5977 198.0778,207.3653 65.9291,68.9321 138.5919,145.0911 145.4683,152.4675 l 7.2737,7.8025 11.4892,-24.5775 c 10.2075,-21.836 13.3038,-27.0194 27.757,-46.4692 13.8749,-18.6714 19.142,-24.4977 35.8065,-39.6078 16.5669,-15.0216 23.0332,-19.8283 42.5153,-31.6034 20.7978,-12.5701 25.4763,-14.7757 49.3334,-23.2581 24.7937,-8.8153 27.938,-9.5961 53.0233,-13.1669 26.5776,-3.7832 26.7601,-3.7904 54.6667,-2.1556 16.7076,0.9788 30.9574,2.4929 35.3333,3.7544 4.0333,1.1626 7.6971,2.1212 8.1416,2.1298 0.4445,0.013 1.2184,-4.9008 1.7195,-10.91 0.5012,-6.0093 3.8561,-22.6593 7.4554,-37 5.9602,-23.7473 7.5707,-28.2114 18.0472,-50.0254 9.8278,-20.4628 13.8335,-27.0883 27.5028,-45.4892 13.8968,-18.7074 18.659,-23.925 36.2332,-39.6988 17.3124,-15.5388 23.5062,-20.1084 42.9003,-31.6498 19.8161,-11.7925 25.8525,-14.627 48,-22.5392 23.6845,-8.4612 27.1124,-9.3093 52.6667,-13.0294 25.8002,-3.7559 28.5218,-3.9119 48.5245,-2.7796 11.6552,0.6596 21.4428,0.9477 21.7504,0.6402 0.3075,-0.3076 -16.7947,-30.4716 -38.0049,-67.031 -21.2102,-36.5596 -111.6351,-192.4719 -200.9443,-346.4719 -89.3092,-154 -191.6961,-330.5455 -227.5267,-392.3233 l -65.1464,-112.3232 -4.8262,-19.6768 c -4.1212,-16.8023 -4.9616,-22.8905 -5.7531,-41.6767 -0.8517,-20.2185 -0.6331,-23.7815 2.7007,-44 2.966,-17.9886 4.9602,-25.545 10.937,-41.4417 30.5398,-81.2274 106.9563,-135.8841 194.5655,-139.1622 55.7195,-2.0849 110.8881,18.5496 153.0116,57.2304 8.8777,8.1521 17.0549,16.9742 19.5015,21.0394 2.3173,3.8504 44.705,76.0008 94.1949,160.3341 140.9409,240.1708 307.8885,524.5258 546.4036,930.6667 98.0463,166.9521 144.3347,247.0066 150.1848,259.7406 4.6512,10.124 9.5965,20.024 10.9896,22 1.3932,1.976 13.8873,23.9927 27.7648,48.926 34.0873,61.2439 68.6855,131.8608 99.7764,203.65 l 25.8337,59.6502 16.1287,61.4542 16.1288,61.4542 7.3337,63.5624 7.3336,63.5624 -1.4493,63.3333 c -1.4333,62.6273 -1.5028,63.6752 -6.2351,94 -2.6321,16.8667 -9.2016,54.8189 -14.5986,84.3383 l -9.8131,53.6716 -21.274,54.5388 -21.274,54.5388 -31.3321,52.5308 -31.3323,52.5309 -40.1441,48.8705 -40.144,48.8707 -48.0184,43.8579 -48.0183,43.8578 -53.6145,36.6822 -53.6144,36.6821 -57.3334,28.1363 -57.3333,28.1362 -59.3333,18.6164 c -56.5215,17.7342 -60.376,18.7519 -81.3334,21.4738 -12.9358,1.6801 -28.5921,4.7274 -38,7.3962 -12.4353,3.5278 -21.941,5.1162 -42.6666,7.1294 l -26.6667,2.5904 -29.3333,-3.2724 c -16.1334,-1.7998 -38.0334,-4.0763 -48.6667,-5.0588 -16.4759,-1.5224 -24.9832,-3.2904 -57.5599,-11.9622 -29.1849,-7.7689 -87.686,-20.4374 -247.3333,-53.5608 -245.6091,-50.9586 -359.7716,-74.6504 -443.1068,-91.9564 -33.3667,-6.929 -123.9807,-25.7294 -201.3644,-41.7785 l -140.6979,-29.18 -23.7466,-12.8539 c -20.2496,-10.9608 -26.7248,-15.3088 -43.969,-29.5238 -17.2413,-14.2128 -22.7902,-19.8058 -37.6442,-37.9434 -15.522,-18.9529 -18.818,-23.9318 -30.2198,-45.6493 -11.2972,-21.5184 -13.6665,-27.2853 -20.2081,-49.1892 -6.8308,-22.8717 -7.6083,-26.8652 -9.9371,-51.0456 -1.3896,-14.428 -2.7866,-26.4929 -3.1046,-26.8111 -0.318,-0.318 -26.1207,28.0526 -57.3392,63.0458 -31.2186,34.993 -103.1176,115.5238 -159.7758,178.9572 -65.712,73.5697 -112.8896,127.6452 -130.2845,149.3333 -19.4773,24.2844 -29.9995,36.2209 -36.8227,41.7724 -5.254,4.2748 -15.5528,13.618 -22.8861,20.7627 -28.2687,27.5416 -37.8104,35.198 -61.3333,49.2149 -14.5769,8.6861 -27.6633,15.3613 -36.6667,18.7032 -7.7,2.8581 -23.6,10.4421 -35.3333,16.8533 -19.8899,10.8682 -25.2126,13.0018 -78.6667,31.5339 l -57.3333,19.8771 -64.6667,11.8294 -64.6666,11.8295 -59.3334,2.1697 c -32.6333,1.1935 -63.5333,2.0871 -68.6666,1.986 -5.1334,-0.1013 -36.3334,-3.0434 -69.3334,-6.5385 z m 1596.43,-826.4755 c -4.6491,-5.7277 -215.7423,-228.7952 -216.9053,-229.2093 -0.553,-0.1968 -6.0118,10.4055 -12.1307,23.5608 l -11.1253,23.9187 -55.6983,62.4308 c -30.634,34.3369 -55.5259,62.6032 -55.3152,62.814 0.2108,0.2106 8.4145,-0.2823 18.2307,-1.0955 l 17.8474,-1.4787 156.6667,31.2847 c 86.1667,17.2065 157.7601,31.3532 159.0967,31.4371 2.177,0.1368 2.1077,-0.2443 -0.6667,-3.6626 z m -750.43,-420.2566 110,-121.209 23.1971,-14.0506 c 19.041,-11.5334 26.5754,-15.2555 42.0536,-20.7747 10.3709,-3.6981 19.6948,-7.2421 20.7193,-7.8753 1.4112,-0.8722 -2.9879,-6.2698 -18.1349,-22.2516 -10.999,-11.6052 -41.8115,-44.2003 -68.4723,-72.4336 -26.6608,-28.2334 -53.3281,-56.4334 -59.2605,-62.6667 -5.9324,-6.2333 -44.9078,-47.4833 -86.6118,-91.6667 -41.704,-44.1833 -76.1492,-80.3333 -76.5449,-80.3333 -0.3956,0 -0.3211,70.95 0.1656,157.6667 0.4868,86.7166 0.8859,225.0166 0.8869,307.3333 0,82.3167 0.4519,149.6225 1.0019,149.5685 0.55,-0.053 50.5,-54.642 111,-121.307 z"
     id="path12"
     inkscape:connector-curvature="0" />
</svg>
