<?xml version="1.0" encoding="UTF-8" standalone="no"?>
<svg
   xmlns:dc="http://purl.org/dc/elements/1.1/"
   xmlns:cc="http://creativecommons.org/ns#"
   xmlns:rdf="http://www.w3.org/1999/02/22-rdf-syntax-ns#"
   xmlns:svg="http://www.w3.org/2000/svg"
   xmlns="http://www.w3.org/2000/svg"
   viewBox="0 0 3333.3333 3497.3333"
   height="3497.3333"
   width="3333.3333"
   id="svg2"
   version="1.1">
  <metadata
     id="metadata8">
    <rdf:RDF>
      <cc:Work
         rdf:about="">
        <dc:format>image/svg+xml</dc:format>
        <dc:type
           rdf:resource="http://purl.org/dc/dcmitype/StillImage" />
        <dc:title></dc:title>
      </cc:Work>
    </rdf:RDF>
  </metadata>
  <defs
     id="defs6" />
  <path
     id="path12"
     d="m 1189.7193,3489.3824 -74.6667,-7.7902 -78.5948,-19.626 -78.5947,-19.626 -71.0097,-29.7045 -71.0097,-29.7045 -62.0739,-39.0382 -62.0739,-39.0381 -25.655,-23.7391 c -64.8513,-60.008 -75.3428,-69.8685 -77.75,-73.074 -1.4144,-1.8832 -12.6137,-12.9832 -24.8874,-24.6666 -21.1596,-20.1419 -24.9588,-24.6139 -73.3333,-86.3178 l -51.0176,-65.0754 -40.9377,-70.7719 -40.9376,-70.772 -29.9031,-74.8193 -29.9031,-74.8194 -17.5873,-75.2622 c -24.5977,-105.2627 -40.666,-193.4432 -52.7021,-289.2224 -4.9069,-39.0478 -10.9837,-80.9684 -14.0391,-96.8487 -4.7378,-24.6251 -8.9958,-61.8295 -35.3263,-308.6667 C 151.9888,1729.616 88.1373,1132.8085 19.198,489.15914 L 0.1,310.85204 l 5.0211,-26.398 c 4.5523,-23.93332 5.949,-28.71373 14.9597,-51.20057 8.747,-21.829 11.6572,-27.41507 24.2742,-46.59341 11.8197,-17.96655 17.605,-25.17688 32.9646,-41.08439 16.2348,-16.81401 21.4844,-21.25016 40.8477,-34.51845 19.5623,-13.404711 25.1677,-16.478961 46.8853,-25.714121 21.9552,-9.33618 27.3782,-11.0611 49.3334,-15.69195 22.4015,-4.725 27.1766,-5.28037 52,-6.04792 l 27.3333,-0.84517 27.4905,5.25568 c 25.2129,4.82023 29.5213,6.07622 52,15.15917 21.7389,8.78398 27.1471,11.64078 47.8428,25.272191 20.9388,13.79153 25.2734,17.33492 42.2377,34.52825 14.9861,15.18847 21.8131,23.41715 32.9386,39.7015 12,17.56433 15.5719,24.13554 24.6411,45.33333 l 10.6068,24.79138 21.4387,190.66667 c 11.7914,104.86667 33.7504,300.16666 48.7979,434 15.0475,133.83337 38.7758,345.33337 52.7296,469.99997 13.9538,124.6667 25.7994,228.2906 26.3234,230.2755 0.943,3.5715 1.1811,3.4224 22.9529,-14.3717 20.2752,-16.5711 24.3319,-19.2278 51.743,-33.8868 28.9903,-15.5038 30.5423,-16.1504 61.3333,-25.5594 l 31.5904,-9.6533 34.6545,-3.4813 34.6545,-3.4815 34.6788,3.5296 34.6788,3.5297 31.3334,9.6504 c 30.2858,9.3279 32.3261,10.18 61.0313,25.4896 19.7331,10.5244 33.1547,18.6467 40,24.2067 32.4911,26.3902 43.0888,35.7615 50.0716,44.2772 4.2733,5.2114 8.204,9.6355 8.7349,9.8314 0.5308,0.1957 4.4842,-4.0043 8.785,-9.3334 5.1154,-6.3386 16.85,-17.1116 33.9318,-31.1516 25.1023,-20.632 27.2722,-22.0841 56.112,-37.5491 29.224,-15.6709 30.8104,-16.3358 61.3334,-25.709 l 31.3333,-9.622 34.7454,-3.5814 34.7455,-3.5814 35.2545,3.6121 35.2546,3.6121 31.1297,9.5716 c 30.2585,9.3038 31.9675,10.021 61.0677,25.6283 16.466,8.8311 30.1058,15.8371 30.3108,15.5688 0.205,-0.2683 3.7683,-27.7877 7.9186,-61.1544 4.1504,-33.3667 21.6334,-172.8667 38.8514,-310 54.9976,-438.02937 94.9214,-756.30683 105.4507,-840.66667 l 10.2348,-82 11.0552,-24.98604 c 9.6325,-21.77032 13.0025,-27.75838 26.1848,-46.52696 13.0336,-18.55661 17.8656,-24.13962 34.8785,-40.29861 16.8975,-16.04944 22.9615,-20.79099 42,-32.8406 19.3463,-12.244441 25.4722,-15.328461 46.9251,-23.623871 22.5932,-8.73629 26.9597,-9.94396 51.7756,-14.31964 26.7907,-4.72388 27.4024,-4.76924 53.326,-3.95414 24.4583,0.76903 27.9753,1.21486 52.2244,6.62001 23.4357,5.22386 28.4039,6.85346 50.3733,16.52291 21.3787,9.40943 27.0618,12.621821 46.2543,26.145791 18.8615,13.29061 24.4435,18.12148 40.4499,35.00641 15.8514,16.72142 20.6496,22.87596 32.7864,42.05448 12.6082,19.92377 15.324,25.35617 23.9961,47.99999 8.9436,23.35311 10.1495,27.70911 14.1204,51.00876 l 4.3416,25.47518 -14.1213,117.85816 c -13.5499,113.08897 -160.3816,1335.97474 -184.7304,1538.52474 -6.4795,53.9 -11.6415,98.1694 -11.4712,98.3765 0.1702,0.2072 62.7785,-68.3069 139.1294,-152.2536 l 138.8198,-152.6301 29.0258,-17.388 c 27.9944,-16.7701 30.1394,-17.7921 60.3592,-28.7596 l 31.3334,-11.3715 34,-5.198 34,-5.1981 34.6666,1.7273 34.6667,1.7274 32.3032,8.1532 c 31.8404,8.0365 32.7425,8.3613 62.9692,22.6717 29.3929,13.9157 31.7805,15.3409 57.5124,34.3307 25.5349,18.8442 27.9628,21.0362 49.6975,44.8682 21.9606,24.08 23.5298,26.1843 40.272,54.0092 16.9382,28.1509 17.7421,29.8389 29.0194,60.9437 l 11.5986,31.991 5.0266,33.3333 5.0267,33.3333 -1.6051,34 -1.6052,34 -7.9901,32.6667 -7.9903,32.6667 -15.1174,31.5793 -15.1175,31.5792 -70.0863,78.4208 c -92.2413,103.2104 -175.3348,196.2921 -409.2288,458.4207 -106.658,119.5333 -209.245,234.4666 -227.971,255.4073 -122.2979,136.7621 -144.5678,162.2535 -175.1736,200.5143 -29.0999,36.378 -34.6914,42.667 -46,51.7396 -7.0806,5.6802 -16.1736,13.8566 -20.207,18.1697 -4.0333,4.3129 -17.8985,17.4623 -30.8116,29.2207 -22.1786,20.1956 -25.0853,22.3494 -52.5166,38.9148 -23.5422,14.2168 -32.2216,18.6878 -45.8552,23.6218 -10.6955,3.8707 -27.4935,11.826 -46.1499,21.8564 l -29.3333,15.7706 -72,24.7868 -72,24.7869 -79.3334,14.5059 -79.3333,14.506 -72,2.7757 c -39.6,1.5265 -78.9,2.7053 -87.3333,2.6195 -8.4333,-0.085 -48.9333,-3.6618 -90,-7.9464 z"
     style="fill:#000000;stroke-width:1.33333337" />
</svg>
