<?xml version="1.0" encoding="UTF-8" standalone="no"?>
<svg
   xmlns:dc="http://purl.org/dc/elements/1.1/"
   xmlns:cc="http://creativecommons.org/ns#"
   xmlns:rdf="http://www.w3.org/1999/02/22-rdf-syntax-ns#"
   xmlns:svg="http://www.w3.org/2000/svg"
   xmlns="http://www.w3.org/2000/svg"
   viewBox="0 0 1663 2361"
   height="2361"
   width="1663"
   id="svg2"
   version="1.1">
  <metadata
     id="metadata8">
    <rdf:RDF>
      <cc:Work
         rdf:about="">
        <dc:format>image/svg+xml</dc:format>
        <dc:type
           rdf:resource="http://purl.org/dc/dcmitype/StillImage" />
        <dc:title></dc:title>
      </cc:Work>
    </rdf:RDF>
  </metadata>
  <defs
     id="defs6" />
  <path
     id="path12"
     d="m 0.255,1935.75 c 0.2424,-404.7435 0.34,-425.4063 2.0254,-428.4906 0.974,-1.7823 2.9073,-3.9852 4.2964,-4.8953 6.0996,-3.9967 60.9163,-7.0916 96.0884,-5.4252 36.4633,1.7277 49.6083,3.9055 73.3405,12.1509 8.9147,3.0973 18.3478,5.6099 24.5,6.5259 5.5022,0.8192 14.4531,2.6143 19.891,3.9891 5.438,1.3748 11.513,2.3636 13.5,2.1974 3.3072,-0.2766 3.8587,-0.7952 6.5171,-6.1274 3.4435,-6.9069 10.4809,-14.2631 16.0773,-16.8054 2.9459,-1.3382 6.4841,-1.8313 13.256,-1.8474 l 9.2374,-0.022 2.5251,-4 c 2.0389,-3.2297 3.1081,-4 5.5524,-4 3.856,0 8.8733,2.5983 16.4476,8.5175 3.3,2.5789 9.172,6.195 13.0488,8.0358 5.2962,2.5147 9.8933,6.0131 18.4896,14.0708 12.2249,11.4587 19.0014,16.3759 22.5684,16.3759 4.5333,0 13.7771,4.4477 18.2219,8.7675 l 4.4842,4.3582 6.1423,-0.6578 c 4.9287,-0.5278 6.3996,-0.3479 7.4442,0.9108 1.1318,1.3637 1.6479,1.3886 3.9512,0.19 1.4572,-0.7583 3.7744,-2.6098 5.1494,-4.1146 4.5604,-4.9907 11.0108,-8.4541 15.7455,-8.4541 7.7358,0 12.803,-4.1533 18.1775,-14.899 3.754,-7.5056 5.1652,-14.1417 4.844,-22.7788 -0.2472,-6.6448 -0.063,-7.3914 2.483,-10.0547 2.2445,-2.3481 2.75,-3.7896 2.75,-7.8423 0,-9.5449 -5.0877,-24.2104 -16.9901,-48.9747 -3.9029,-8.1203 -6.9605,-15.4811 -6.7948,-16.3573 0.1802,-0.9527 1.5171,-1.7127 3.3253,-1.8903 4.9961,-0.4909 9.2721,3.3061 14.4184,12.803 6.1776,11.4001 10.0872,16.9374 16.322,23.117 6.8577,6.7971 14.2878,10.2691 20.6645,9.6564 10.3454,-0.9941 14.6219,-8.0883 17.0469,-28.2793 0.5945,-4.95 1.3198,-9.7875 1.6117,-10.75 1.105,-3.6427 11.1575,-1.2463 27.9225,6.6564 6.7312,3.173 9.961,5.3787 12.7019,8.6743 l 3.6756,4.4193 4.3359,-4.25 c 4.6019,-4.5107 6.2037,-5.1428 7.1017,-2.8024 2.026,5.2797 36.8667,5.7178 43.868,0.5517 3.4995,-2.5822 5.4008,-2.4849 10.2905,0.5268 2.2,1.355 5.4767,2.466 7.2816,2.4688 6.9017,0.011 24.1223,7.3478 30.6049,13.0396 1.9102,1.6771 3.7477,4.2998 4.0834,5.8282 1.9468,8.864 18.5995,19.866 41.8407,27.6429 16.0251,5.3624 27.5339,7.5426 42.6894,8.0871 20.5732,0.7391 21.9649,1.0081 23.1753,4.4802 1.3545,3.8856 5.1738,3.9057 10.4892,0.055 4.954,-3.5887 8.7798,-8.4041 14.7995,-18.6281 5.8715,-9.9722 7.2357,-11.5 10.2679,-11.5 1.3549,0 3.7368,-1.3148 5.4063,-2.9844 2.43,-2.4299 2.9266,-3.6768 2.6731,-6.7114 -0.3008,-3.6019 -0.5203,-3.7989 -6.5317,-5.8632 -7.721,-2.6514 -12.3685,-5.6939 -21.0172,-13.7592 -10.6589,-9.9399 -15.8531,-12.7711 -17.7624,-9.6818 -0.3399,0.55 -2.6595,1 -5.1546,1 -5.994,0 -9.2256,2.4219 -13.2125,9.902 -2.246,4.214 -3.3814,7.9533 -3.8106,12.5502 -0.3919,4.1968 -1.0547,6.5478 -1.8458,6.5478 -1.8241,0 -13.3566,-12.5708 -18.2361,-19.8779 -2.9003,-4.3432 -4.2404,-7.4192 -4.2404,-9.7332 0,-2.4537 -0.9495,-4.4341 -3.456,-7.2085 -6.8718,-7.6063 -6.7617,-19.513 0.4415,-47.7464 7.411,-29.0481 11.46,-40.6261 15.1082,-43.202 0.9877,-0.6974 5.1387,-8.1224 9.2245,-16.5 4.0859,-8.3776 9.5147,-17.999 12.0641,-21.381 5.2198,-6.9242 7.6151,-11.9732 7.6233,-16.0689 0.01,-4.9096 1.9287,-9.9188 5.5188,-14.4072 4.5031,-5.6298 7.4756,-15.1345 7.4756,-23.9035 0,-5.6895 -0.3892,-7.2858 -2.3514,-9.6447 -3.0673,-3.6873 -4.6486,-6.7566 -4.6486,-9.0231 0,-1.0053 -1.2103,-5.4224 -2.6895,-9.8157 -2.6802,-7.9603 -2.6899,-8.0968 -2.813,-39.4879 -0.1027,-26.1841 -0.3916,-32.1914 -1.7122,-35.5972 -4.0687,-10.4929 -8.8681,-17.36 -13.9806,-20.0038 -2.6738,-1.3827 -3.1944,-1.3736 -5.4347,0.094 -1.3626,0.8929 -2.8583,2.6097 -3.3236,3.8151 -0.9732,2.521 -1.4951,1.5665 -2.525,-4.618 -0.3889,-2.3353 -2.0095,-5.3317 -4.1877,-7.7427 -3.315,-3.6693 -5.7316,-4.8136 -13.5337,-6.4086 -1.485,-0.3036 -5.3502,-3.0056 -8.5892,-6.0044 -5.6371,-5.2189 -7.8517,-8.6665 -11.8695,-18.4781 -2.6016,-6.3534 -13.9535,-17.6057 -19.1816,-19.0135 -4.6943,-1.2641 -4.8224,-1.4127 -8.1674,-9.4774 -1.7566,-4.2351 -3.3292,-6.4398 -5.25,-7.3604 -1.5083,-0.7229 -2.7423,-2.1291 -2.7423,-3.1249 0,-3.2022 -4.0407,-7.0788 -10.3692,-9.9483 -7.0001,-3.174 -12.1493,-8.1549 -22.3397,-21.6094 -6.4662,-8.53739 -7.5625,-9.40625 -14.0411,-11.12771 -0.8877,-0.23588 -1.25,-3.05433 -1.25,-9.72399 0,-8.26442 -0.2881,-9.81636 -2.3999,-12.92826 -3.5757,-5.2691 -3.8734,-7.12731 -2.1928,-13.68734 3.3847,-13.21164 15.2789,-31.92511 28.7112,-45.17219 8.0388,-7.9279 12.3788,-11.02171 23.6019,-16.82475 13.2885,-6.87095 17.9491,-13.77434 13.5604,-20.08588 -4.6319,-6.66129 -13.8243,-10.95317 -34.408,-16.06501 -20.5961,-5.11449 -25.8728,-7.66068 -25.8728,-12.48416 0,-6.96241 20.4736,-17.09724 68.5022,-33.90995 25.8565,-9.0512 42.2431,-15.33677 49.2809,-18.90305 6.9668,-3.53036 12.4156,-4.59659 28.8501,-5.6454 17.0962,-1.09105 22.2442,-2.15045 24.4114,-5.02368 1.5011,-1.98995 1.9479,-2.07304 5.0724,-0.94321 9.1946,3.32481 32.883,-7.83594 32.883,-15.49279 0,-4.61065 0.929,-5.53985 4.9034,-4.90433 4.9845,0.79707 6.5248,-1.10929 5.8357,-7.22284 -0.7995,-7.09344 -4.7982,-11.38393 -11.9764,-12.85027 -4.5254,-0.92443 -6.2627,-4.80359 -6.2627,-13.98396 v -8.04346 l -3.5,0.1876 c -11.1908,0.59981 -14.9238,0.37109 -18.5291,-1.13533 -6.0841,-2.54208 -8.4709,-5.2827 -8.4709,-9.72658 0,-4.23005 -0.1932,-4.30943 -6.5783,-2.70165 -10.2156,2.57231 -20.5485,-4.45294 -28.3161,-19.25179 -8.6111,-16.40588 -11.2987,-17.97884 -12.405,-7.26004 -1.0776,10.44087 -2.5448,8.78716 -4.1636,-4.69301 -1.3335,-11.10401 -2.5631,-13.07442 -8.9566,-14.35313 -1.6413,-0.32826 -4.0184,-1.56836 -5.2823,-2.75577 -1.9124,-1.79658 -2.2981,-3.18705 -2.2981,-8.28461 0,-6.93657 -1.0977,-8.65614 -5.0245,-7.87078 -3.7057,0.74114 -4.276,-0.54771 -4.4581,-10.07496 -0.1382,-7.2291 -0.5619,-8.88945 -4.0242,-15.76722 l -3.8697,-7.68728 2.4111,-1.95235 2.411,-1.95236 -2.7228,-6.63017 c -3.2782,-7.98265 -3.2971,-8.35029 -0.5791,-11.24349 6.2817,-6.6866 0.2911,-29.30095 -10.2957,-38.86542 -3.8631,-3.49008 -4.9249,-3.85586 -10.173,-3.50439 -5.351,0.35837 -14.7926,-8.00121 -16.5601,-14.66225 -0.9761,-3.67829 -5.2282,-4.41906 -7.4182,-1.29234 -1.438,2.05303 -1.5435,1.92776 -2.6891,-3.1929 -0.6559,-2.93138 -1.432,-9.15749 -1.7248,-13.8358 l -0.5324,-8.50601 3.6248,-4.3386 c 1.9937,-2.38623 3.6263,-5.08352 3.628,-5.99398 0,-0.91047 -2.962,-7.80417 -6.5862,-15.31934 -5.4651,-11.33257 -6.7542,-15.00095 -7.5553,-21.5 -1.2229,-9.92091 -3.3404,-17.26679 -6.2007,-21.51115 -2.9911,-4.43843 -5.6353,-4.30162 -8.159,0.42216 -1.1011,2.06088 -2.4339,3.6044 -2.9619,3.43004 -0.5279,-0.17436 -2.7779,-4.47972 -5,-9.56746 -7.2659,-16.63654 -16.1898,-24.9874 -25.1699,-23.55392 -3.495,0.55791 -4.0912,0.31859 -6.1501,-2.46897 -4.1686,-5.64376 -11.0719,-3.47587 -21.6839,6.80955 -5.6625,5.4883 -8.1197,7.13439 -12.5864,8.43157 -3.0527,0.88653 -8.6777,3.82155 -12.5,6.52228 -9.0377,6.38564 -22.1235,19.89772 -22.9705,23.71872 -1.3123,5.92003 -3.7338,11.13436 -9.1992,19.8092 -8.1873,12.99515 -12.1972,21.709 -14.4778,31.46165 -3.1058,13.28127 -5.5786,20.74436 -10.3171,31.13808 -5.4958,12.05491 -6.0839,15.27785 -4.0361,22.12248 3.3764,11.28591 2.9439,33.31788 -0.9893,50.39972 -2.7813,12.07863 -4.4403,25.40967 -5.3515,43 -1.3525,26.10962 -4.4959,37.57659 -12.8506,46.8776 -4.7569,5.29578 -6.9007,10.76367 -7.6605,19.53902 -0.3531,4.07915 -2.1855,15.32915 -4.0719,25 -5.4083,27.72621 -5.728,32.75072 -6.0487,95.08338 -0.3115,60.52091 -0.8736,70.46722 -5.0142,88.73119 -2.7569,12.16025 -3.9649,20.99579 -5.4371,39.76881 -1.1684,14.89863 -2.905,22.3839 -7.257,31.27983 -7.3868,15.0995 -17.6351,16.3105 -23.2189,2.74369 -0.9001,-2.18707 -2.7633,-10.96207 -4.1405,-19.5 -4.051,-25.11559 -10.2879,-46.66255 -18.2244,-62.96123 -3.7468,-7.69457 -9.7822,-15.06229 -12.3385,-15.06229 -3.6291,0 -4.9991,2.52842 -5.9847,11.04519 -1.4478,12.51141 -3.9547,13.99399 -14.6728,8.67748 -6.4143,-3.18168 -16.1321,-11.80794 -30.7988,-27.33936 -13.7953,-14.60854 -23.4212,-22.29744 -36.8897,-29.46632 -22.1195,-11.77358 -26.8136,-18.12816 -29.4669,-39.89076 -2.4071,-19.74339 0.001,-133.73641 3.9996,-189.31578 1.1454,-15.92214 10.7241,-86.82733 14.4974,-107.31562 14.3993,-78.1855 41.6759,-146.28096 72.5315,-181.07313 3.8152,-4.30193 12.2176,-14.3467 18.672,-22.3217 43.9201,-54.26718 69.9672,-76.68125 118.4262,-101.90816 45.4414,-23.65601 120.4425,-51.60746 176.3402,-65.7186 71.8775,-18.14514 134.7066,-21.48079 194.357,-10.31858 87.8516,16.4394 168.4979,64.92789 251.1786,151.021 23.8849,24.87063 28.2826,30.20834 36.2316,43.97649 3.0001,5.19632 8.0715,13.49785 11.2698,18.44785 5.2338,8.10053 8.2794,13.55113 17.6008,31.5 6.6311,12.76846 11.0129,38.25358 11.4119,66.37288 0.1871,13.1872 0.6928,21.26948 1.3733,21.95 2.7584,2.75838 -0.9606,12.67712 -4.7532,12.67712 -3.4388,0 -5.5204,3.57781 -5.3916,9.2668 0.093,4.12773 1.08,7.0734 4.6702,13.94457 2.5034,4.79125 4.5517,9.6511 4.5517,10.79966 0,3.51792 2.6202,7.42081 8.1835,12.18976 3.8806,3.3265 5.6743,5.73794 6.6411,8.92831 0.7285,2.40399 3.7362,9.82968 6.6838,16.50152 2.9476,6.67184 6.7139,16.57184 8.3696,22 5.9051,19.35919 21.0992,81.33236 22.193,90.51947 1.4541,12.21432 1.4426,58.00761 -0.02,78.34991 -0.6326,8.8 -2.0822,23.65 -3.2214,33 -1.1743,9.63884 -2.1058,23.49514 -2.1511,32 -0.1127,21.16102 1.4723,27.90065 12.1121,51.5 7.6333,16.93084 8.5492,21.81614 5.2698,28.10777 -2.8706,5.50752 -13.7184,20.06754 -23.6286,31.71477 -10.9569,12.87735 -12.4322,15.05354 -12.4322,18.338 0,1.57563 -0.8814,6.0455 -1.9587,9.93305 -3.5806,12.92104 -5.4144,37.17456 -7.5159,99.40644 -2.3772,70.3945 -3.0708,78.989 -7.5386,93.4182 -1.6317,5.27 -4.3377,16.1068 -6.0133,24.0818 -3.9809,18.9474 -6.6566,28.9219 -10.0597,37.5 -1.5274,3.85 -3.7345,11.725 -4.9047,17.5 -3.3548,16.5555 -4.1043,19.2307 -6.6332,23.6781 -1.3068,2.2979 -2.3759,5.324 -2.3759,6.7246 0,3.0585 -13.8008,51.3534 -17.4793,61.1678 -1.4285,3.8112 -4.1791,9.3214 -6.1125,12.2448 -1.9334,2.9234 -6.8117,12.1484 -10.8405,20.5 -4.0289,8.3516 -9.4048,18.1097 -11.9465,21.6847 -8.4742,11.9192 -10.6964,15.4805 -11.2319,18 -2.3692,11.1484 -12.4807,32.8128 -20.3028,43.5 -8.8445,12.084 -10.0911,13.4659 -12.6208,13.9896 -1.3561,0.2807 -3.5306,0.7289 -4.8321,0.9959 -1.8886,0.3875 -2.4746,1.2926 -2.9026,4.483 -0.7592,5.6607 -4.5567,12.995 -7.3989,14.29 -1.9389,0.8834 -2.2984,1.6182 -1.8317,3.7434 0.8525,3.8815 -3.809,8.3864 -7.8432,7.5795 -2.7855,-0.5571 -2.8819,-0.455 -2.3037,2.4361 0.8573,4.2865 -2.1383,11.2063 -10.4404,24.1177 -3.8756,6.0272 -8.8487,14.2998 -11.0514,18.3834 -6.447,11.9523 -16.491,19.5556 -35.5529,26.9138 -11.9287,4.6047 -22.286,7.1364 -40.9686,10.0142 -13.7467,2.1176 -16.7598,2.9343 -23.7903,6.449 -23.0005,11.4984 -44.377,39.1358 -47.6488,61.6044 -1.3396,9.2001 -2.9431,14.1276 -10.2503,31.5 -5.7312,13.6257 -6.1005,14.9833 -6.1249,22.5147 -0.023,7.059 0.3596,8.7879 3.2077,14.5 1.7785,3.5669 7.7704,12.7853 13.3154,20.4853 26.708,37.0876 37.9108,62.1121 37.9695,84.8154 0.055,21.4598 -2.9971,62.3468 -7.4799,100.1846 -1.3684,11.55 -4.0703,38.55 -6.0043,60 -6.0252,66.8269 -5.6445,65.3737 -22.0042,84 -10.4718,11.9226 -13.1271,16.1273 -14.1248,22.3664 -1.8901,11.8197 6.3962,36.1687 45.8172,134.6336 9.9088,24.75 19.4921,49.275 21.2962,54.5 7.4023,21.4381 10.5896,43.858 12.9721,91.25 l 0.5907,11.75 H 465.5454 0 l 0.2546,-425.25 z m 832.2546,-554.8432 c 12.4194,-1.3817 14.2619,-2.0927 15.9611,-6.1593 2.6982,-6.4578 -0.1683,-12.291 -9.3074,-18.9398 -3.1095,-2.2623 -6.6264,-5.282 -7.8153,-6.7105 -2.1507,-2.5841 -2.2326,-2.5965 -16.2452,-2.4653 -18.1725,0.1701 -19.5969,0.8766 -18.8295,9.3392 0.711,7.8416 3.8524,14.7666 6.894,15.1972 1.5464,0.219 2.452,1.1046 2.6651,2.6063 0.3602,2.5386 3.3358,4.8036 8.9363,6.8025 4.6877,1.673 5.5261,1.6886 17.7409,0.3297 z m 157.4306,-192.1986 c 5.2843,-6.999 8.3091,-14.0677 11.4458,-26.7479 7.2954,-29.4921 9.3718,-57.1134 5.1768,-68.8627 -0.8646,-2.4213 -2.7115,-10.6926 -4.1044,-18.3806 -2.6257,-14.4928 -4.2463,-19.093 -7.6865,-21.8192 -1.5408,-1.221 -1.9997,-2.7075 -1.9286,-6.2475 0.1041,-5.1873 1.2227,-7.8759 4.932,-11.8548 l 2.5214,-2.7045 -3.1436,-3.5803 c -1.7289,-1.9692 -3.1914,-3.6771 -3.25,-3.7955 -0.059,-0.1184 -0.4436,-8.5402 -0.8554,-18.7152 -0.7314,-18.06977 -0.8325,-18.7119 -4.347,-27.60969 -3.6852,-9.3299 -5.4546,-15.84192 -8.1216,-29.89034 -1.9231,-10.12989 -8.1476,-22.98271 -13.4506,-27.77366 -3.5144,-3.17505 -4.7172,-3.61814 -11.7667,-4.3347 -4.3187,-0.43898 -13.4772,-0.77556 -20.3522,-0.74795 -13.6879,0.055 -20.9771,1.94187 -26.9648,6.98016 -6.2985,5.29988 -10.0281,18.74542 -10.0408,36.19851 -0.01,11.41578 -1.2066,14.61501 -7.0458,18.81006 -3.1396,2.25555 -5.6148,5.05709 -6.8082,7.7058 -2.4295,5.39207 -11.4064,15.77361 -31.7271,36.69141 -9.0273,9.2925 -16.4133,17.5571 -16.4133,18.3656 0,0.8085 0.8585,1.7425 1.9076,2.0755 4.2918,1.3621 3.1317,4.6478 -2.0799,5.891 -4.0109,0.9567 -5.3124,5.9351 -5.1339,19.6383 0.1616,12.406 2.2516,24.4032 5.2261,30 7.4645,14.0451 7.0596,12.5643 8.0839,29.5598 1.1432,18.9677 3.3156,28.4043 9.097,39.5171 4.9057,9.4293 12.0442,16.864 19.8937,20.7192 4.6723,2.2947 6.792,2.7039 14.0055,2.7039 10.5979,0 17.2846,-2.8195 26.7219,-11.2675 C 925.7321,1168.49 928.3981,1167 935.6188,1167 c 3.515,0 6.3908,-0.35 6.3908,-0.7778 0,-0.4277 -0.9124,-1.559 -2.0277,-2.5139 -2.6618,-2.2791 -1.3579,-4.8229 3.703,-7.2244 8.94,-4.2424 16.4395,-2.5268 23.5996,5.3986 5.1492,5.6995 7.7251,11.2439 7.7251,16.6273 0,6.8789 5.0822,15.4902 9.1419,15.4902 0.9952,0 3.5716,-2.3553 5.7887,-5.2918 z M 662.8278,981.1223 c 10.1955,-2.24311 11.993,-3.65341 9.875,-7.74801 -1.8248,-3.52775 -11.6683,-13.01805 -17.4942,-16.8665 -5.7351,-3.78846 -11.1402,-3.78794 -18.6304,0.002 -3.8766,1.9614 -5.808,3.59618 -6.2287,5.27218 -1.7844,7.10993 11.9652,21.25228 20.6059,21.19442 1.9548,-0.0131 7.2974,-0.84733 11.8724,-1.85387 z M 710.62,935.41637 c 1.012,-4.03232 -0.2366,-11.51418 -2.9428,-17.63329 -4.311,-9.74812 -8.4808,-12.06084 -13.213,-7.32856 -3.2391,3.23911 -3.1808,7.69539 0.1892,14.45815 5.5095,11.05613 14.3657,16.88221 15.9666,10.5037 z M 992.5096,2311.5975 c -7.4224,-3.2764 -9.5,-9.7108 -9.5,-29.4223 0,-17.3959 1.1358,-22.8512 7.4272,-35.6752 5.1351,-10.4669 11.7026,-19.3825 20.9726,-28.4711 l 6.6003,-6.4711 v 11.1124 11.1125 l -8.994,12.2092 c -9.1998,12.4884 -17.4083,27.305 -18.5762,33.5303 -0.9331,4.9736 1.5327,8.4778 5.9657,8.4778 6.3522,0 22.2906,-5.57 32.814,-11.4675 13.9447,-7.8148 35.6502,-22.1734 50.7911,-33.5992 17.0299,-12.8513 35.9945,-28.7671 36.0219,-30.2309 0.04,-2.1308 -9.2771,-43.4963 -10.0949,-44.8195 -1.1675,-1.889 -27.9589,2.1111 -47.0969,7.0319 -8.4319,2.168 -23.2057,5.9839 -32.8307,8.4798 -29.9511,7.7667 -43.0156,9.1562 -57.4125,6.1063 -10.8457,-2.2977 -18.9517,-6.6109 -26.0726,-13.8734 -7.434,-7.5818 -10.6214,-13.7173 -14.0927,-27.1275 -2.4635,-9.5168 -2.5639,-10.918 -2.0782,-29 0.5882,-21.8927 1.9011,-28.5893 9.2624,-47.2403 5.7556,-14.583 9.7167,-22.5171 17.9801,-36.014 14.0954,-23.0225 27.3075,-39.0085 37.7582,-45.6855 5.978,-3.8194 21.1334,-11.5602 22.6331,-11.5602 0.6362,0 1.0222,4.2841 1.0222,11.345 0,13.2738 0.8983,11.947 -13.3683,19.7438 -11.913,6.5104 -20.2519,13.9401 -29.4165,26.2089 -18.8246,25.2009 -31.8279,50.6544 -37.5997,73.6002 -3.0535,12.1388 -3.1762,14.8494 -1.0041,22.1706 7.9582,26.8223 30.8386,38.2041 65.3885,32.5273 4.6751,-0.7682 23.5751,-5.2383 42.0001,-9.9336 18.425,-4.6953 38.9,-9.3187 45.5,-10.2743 6.6,-0.9555 12.1488,-1.845 12.3308,-1.9767 0.1819,-0.1317 -1.5201,-5.9285 -3.7822,-12.8818 -3.9548,-12.1559 -4.1022,-13.073 -3.8308,-23.8359 0.271,-10.7482 0.3717,-11.2062 2.5322,-11.5131 1.9624,-0.2787 2.25,0.124 2.25,3.1497 0,1.9081 1.5321,7.4519 3.4048,12.3195 1.8726,4.8677 5.0461,14.08 7.0522,20.4716 l 3.6474,11.6213 4.4243,0.6064 c 7.5008,1.0281 7.783,0.6387 8.9503,-12.3489 0.8982,-9.9926 2.6371,-18.9537 3.8199,-19.6847 0.5872,-0.3629 2.7889,1.2797 4.8925,3.6502 3.4164,3.8497 8.8679,14.0738 18.9473,35.5345 l 3.2877,7 0.642,-16 c 0.408,-10.168 1.1797,-17.4368 2.1173,-19.9418 4.0166,-10.7319 7.093,-7.5667 29.3312,30.1772 7.1526,12.1397 16.5707,24.4753 17.7624,23.2646 0.2707,-0.275 -0.5763,-4.7084 -1.882,-9.852 -4.4053,-17.3527 -4.4289,-40.8375 -0.048,-47.3388 2.7204,-4.0368 7.683,-7.4557 13.0594,-8.997 2.2501,-0.6451 4.1725,-1.2107 4.2721,-1.2569 0.1,-0.046 -0.7518,-3.2276 -1.8918,-7.0697 -2.8656,-9.6571 -3.7376,-43.2687 -1.4091,-54.3138 3.6174,-17.1597 11.845,-27.435 23.7571,-29.6697 6.6461,-1.2469 11.6752,1.0417 19.2628,8.766 3.8185,3.8873 6.6155,6.215 6.2155,5.1726 -0.4,-1.0425 -1.6671,-7.0806 -2.8156,-13.418 -2.8109,-15.5091 -3.0547,-56.0989 -0.4294,-71.4799 4.6234,-27.0877 16.8823,-49.8187 38.6075,-71.5881 20.8894,-20.9317 43.0291,-35.2439 62.1007,-40.145 7.7951,-2.0031 9.1111,-2.0855 14.4038,-0.901 4.7403,1.0608 6.6961,2.1748 10.5039,5.9826 6.5549,6.5549 8.0135,11.4305 8.0135,26.7868 0,15.1351 -1.2231,16.0046 -5.9023,4.196 -3.611,-9.1129 -8.7022,-12.8741 -17.4266,-12.8741 -21.5941,0 -60.7816,26.7838 -83.713,57.2161 -12.4999,16.5886 -21.169,39.5457 -22.5757,59.7839 -1.4454,20.7949 8.7728,58.3959 21.8803,80.5151 10.6977,18.0526 24.4243,28.2027 41.5074,30.6926 10.2554,1.4947 16.1503,0.4314 39.2299,-7.0761 l 17.5,-5.6926 0.6408,-18.9695 c 0.4223,-12.5018 1.1866,-20.9357 2.2416,-24.7363 3.4153,-12.3024 9.8966,-21.1321 16.4084,-22.3537 1.8897,-0.3545 5.7473,-0.1518 8.5725,0.4505 2.8252,0.6023 8.0368,1.3392 11.5813,1.6376 7.3559,0.6191 13.9662,3.4492 17.2941,7.4042 3.5996,4.2779 4.6572,4.5747 7.3353,2.0587 1.3343,-1.2535 2.426,-2.5795 2.426,-2.9465 0,-0.3671 -1.7759,-1.1995 -3.9464,-1.8498 -4.6922,-1.4058 -7.1847,-4.3221 -10.2277,-11.9672 -1.9733,-4.9573 -2.2602,-7.5047 -2.2908,-20.342 -0.032,-13.349 0.1537,-14.9303 2.0548,-17.5 3.3728,-4.5591 6.4813,-5.595 13.1543,-4.3837 9.1088,1.6534 16.1725,5.7456 18.9288,10.966 2.0413,3.8662 2.327,5.8038 2.327,15.7821 0,12.6087 -1.1417,16.7706 -5.9832,21.8106 l -2.8819,3 1.3655,7 c 0.751,3.85 2.3173,11.95 3.4806,18 2.5057,13.0311 4.0319,18.5 5.1629,18.5 1.0575,0 6.4198,-10.6028 9.497,-18.7782 l 2.373,-6.3044 -2.4553,-9.7087 c -6.9358,-27.4256 -9.7818,-53.1635 -9.8092,-88.7087 -0.023,-29.5652 1.2195,-40.8504 5.5827,-50.7164 5.0028,-11.312 12.7666,-14.9372 19.6271,-9.1645 8.6907,7.3128 11.7729,25.117 10.7124,61.8809 -0.8038,27.8628 -2.9035,45.1957 -10.8777,89.792 l -1.2145,6.792 4.8358,14.708 c 18.8968,57.4746 44.1655,112.4542 68.205,148.4009 9.222,13.7899 25.9139,34.3429 38.8259,47.8071 4.4833,4.675 9.8338,10.5919 11.8901,13.1487 l 3.7387,4.6487 -0.2875,9.7812 -0.2874,9.7813 -9,-7.5446 c -26.3444,-22.084 -50.4872,-53.0278 -71.3512,-91.4504 -12.1213,-22.3223 -28.7592,-60.5089 -39.5898,-90.8649 -10.6988,-29.9864 -12.8216,-35.5 -13.6681,-35.5 -0.49,0 -0.8909,0.6876 -0.8909,1.5279 0,2.7485 -9.7745,22.0192 -12.8248,25.2845 -2.269,2.429 -3.8249,3.1876 -6.5379,3.1876 -3.3108,0 -3.6361,-0.2818 -4.6435,-4.0231 -0.5958,-2.2127 -0.8151,-4.457 -0.4873,-4.9875 0.7144,-1.1558 -5.6622,-35.9894 -6.5881,-35.9894 -0.3546,0 -2.695,2.1919 -5.2009,4.871 -3.6839,3.9383 -4.6827,5.8051 -5.2168,9.75 -1.0152,7.4987 -3.4018,14.292 -7.3352,20.879 -4.1704,6.9838 -20.0723,23.4331 -25.1655,26.0316 -8.3668,4.2687 -15.5839,3.7307 -20.8706,-1.556 -1.6365,-1.6366 -3.3823,-2.9756 -3.8795,-2.9756 -0.4972,0 -5.3693,2.0038 -10.827,4.4529 -12.7798,5.735 -32.9521,11.6246 -42.0643,12.2814 -8.6836,0.6259 -19.3021,-1.5497 -27.8362,-5.7032 -3.2876,-1.6001 -6.0431,-2.8242 -6.1233,-2.7202 -0.08,0.104 0.26,3.3391 0.756,7.1891 1.0286,7.9849 0.3597,29.0158 -1.04,32.6974 -1.2364,3.2519 1.756,7.0867 11.6891,14.9802 9.2606,7.3591 23.9717,14.5125 39.6958,19.3024 6.6,2.0106 13.9125,4.3373 16.25,5.1705 l 4.25,1.5149 v 10.5465 10.5465 l -6.9315,-0.683 c -14.5819,-1.4369 -34.9819,-8.4504 -49.4592,-17.0041 -7.7142,-4.5578 -20.5189,-16.5829 -25.4055,-23.8587 l -3.2154,-4.7875 -9.208,0.2875 -9.2079,0.2874 -2.8666,8.5 c -1.5766,4.675 -2.9083,10.075 -2.9593,12 -0.1159,4.3777 10.2873,27.2968 19.083,42.0413 3.4315,5.7523 11.4279,17.4337 17.7698,25.9587 17.5975,23.655 16.9006,22.1202 16.9006,37.2204 0,11.4264 -0.2054,12.926 -2.019,14.7413 -3.1039,3.1066 -12.1943,4.4039 -21.8792,3.1225 -23.7516,-3.1427 -38.1893,-20.2724 -45.0398,-53.4379 -2.2175,-10.7353 -2.1637,-40.8196 0.097,-54.2645 l 1.7013,-10.1182 -5.837,-10.3818 c -7.1041,-12.6354 -9.4304,-16.0572 -10.4767,-15.4106 -0.4403,0.2722 -1.3245,2.5757 -1.9649,5.1189 -1.2744,5.0614 -7.4203,17.8832 -9.0567,18.8945 -0.5637,0.3484 -1.0249,4.2069 -1.0249,8.5744 0,9.0932 -1.3458,11.3524 -7.4442,12.4965 -5.1741,0.9707 -9.7902,-0.1933 -15.2253,-3.839 -6.8061,-4.5655 -12.0925,-11.6548 -26.3305,-35.3104 -6.875,-11.4225 -12.95,-20.7992 -13.5,-20.8371 -3.0392,-0.2097 -1.0123,13.979 4.6105,32.2751 2.4462,7.9594 2.8851,11.126 2.9621,21.3685 0.053,7.0868 -0.335,12.4498 -0.9456,13.0604 -1.5194,1.5194 -6.1066,-3.8026 -10.5254,-12.2116 -2.0409,-3.8838 -4.0539,-7.0614 -4.4735,-7.0614 -0.4196,0 -1.5177,2.3625 -2.4402,5.25 -2.2377,7.0038 -6.2996,13.7928 -13.272,22.1828 l -5.7614,6.9327 0.2483,16.2115 c 0.2509,16.3761 -0.2793,19.0152 -3.3143,16.4965 -0.7281,-0.6043 -2.7689,-5.1384 -4.535,-10.0758 -1.7662,-4.9374 -3.5969,-9.2155 -4.0682,-9.5068 -0.4714,-0.2913 -5.9484,3.8374 -12.1712,9.175 -31.7614,27.2432 -78.1383,57.7999 -97.5326,64.2621 -7.0621,2.3531 -14.3767,2.6139 -18.7816,0.6695 z m 312.5001,-35.2376 c 0,-0.352 -3.5312,-5.4145 -7.8471,-11.25 -14.151,-19.1335 -19.1871,-27.6636 -29.1579,-49.3884 -3.4781,-7.5782 -6.8124,-13.6211 -7.4094,-13.4287 -1.4282,0.4603 -4.5763,12.9689 -4.7229,18.7663 -0.1427,5.6397 4.1966,21.0239 8.6518,30.6734 5.8505,12.6718 16.6863,21.8533 28.5308,24.1751 5.4685,1.072 11.9547,1.3174 11.9547,0.4523 z m -163.751,-91.3484 c 3.3395,-5.3423 3.4961,-5.9304 2.1072,-7.9134 -1.5569,-2.2227 -12.2323,-8.0981 -14.7141,-8.0981 -0.8999,0 -1.6427,1.5471 -2.0405,4.25 -0.6614,4.494 0.8856,24.1113 2.05,25.9952 0.8515,1.3779 7.6174,-6.2668 12.5974,-14.2337 z m -20.249,-7.0429 c 0,-10.3241 -0.7138,-12.0599 -4.3808,-10.6527 -1.369,0.5253 -1.1259,2.087 2.869,18.4341 1.0723,4.3875 1.5118,2.1252 1.5118,-7.7814 z m 139.8417,-19.8346 c 0.6371,-2.1263 1.1583,-4.3334 1.1583,-4.9046 0,-1.0674 -10.9074,-7.6553 -11.5729,-6.9898 -0.5743,0.5743 7.5918,15.7604 8.4749,15.7604 0.4298,0 1.3027,-1.7397 1.9397,-3.866 z m -38.8825,0.2469 c 2.9961,-2.5211 5.0793,-5.7218 6.9831,-10.729 0.7123,-1.8737 0.2953,-3.2701 -2.0179,-6.7568 -1.7643,-2.6594 -2.9175,-5.7209 -2.9201,-7.7521 0,-2.7937 -0.2979,-3.2407 -1.7543,-2.6639 -0.9625,0.3813 -4.0384,1.559 -6.8353,2.6173 -2.7969,1.0582 -6.0551,2.9564 -7.2405,4.2182 l -2.1552,2.2941 2.0277,7.3173 c 3.9698,14.3254 7.2709,17.0434 13.9125,11.4549 z m -89.1728,-15.5761 c -1.9613,-2.9539 -3.7864,-3.4221 -3.7864,-0.9715 0,1.976 1.2014,2.9341 3.872,3.0878 1.134,0.065 1.1192,-0.3018 -0.086,-2.1163 z m 153.3618,-21.5986 c 0.4444,-12.985 2.9945,-19.3173 9.1765,-22.7868 l 3.7071,-2.0806 -2.1377,-1.9194 c -3.7908,-3.4036 -10.7399,-13.0107 -14.7302,-20.3645 l -3.8864,-7.1624 -0.619,27.3037 c -0.3404,15.0171 -0.9101,29.6663 -1.2659,32.5538 l -0.6471,5.25 h 5.0166 5.0167 z m -17.7561,5.2144 c 1.2124,-3.1594 3.805,-27.1495 3.8819,-35.9206 0.067,-7.569 -0.4108,-10.431 -3.0019,-18 -5.7224,-16.7162 -14.6957,-29.3482 -22.5112,-31.6898 -10.5331,-3.1558 -23.6687,9.7668 -25.4022,24.99 -0.636,5.5855 3.6493,19.478 9.4698,30.6998 4.7934,9.2416 16.1882,20.7048 26.6955,26.8555 8.6578,5.0681 9.9587,5.435 10.8681,3.0651 z m 142.2928,-51.4765 c 3.5453,-1.3298 10.3151,-5.9473 10.3151,-7.0357 0,-0.4508 -1.8566,-0.1646 -4.1257,0.636 -2.2692,0.8006 -5.6442,1.4556 -7.5,1.4556 -3.0826,0 -3.3743,0.2594 -3.3743,3 0,3.2931 0.5167,3.5075 4.6849,1.9441 z m -13.6849,-8.3851 c 0,-0.2425 -0.45,-0.7191 -1,-1.059 -0.55,-0.3399 -1,-0.1415 -1,0.441 0,0.5824 0.45,1.059 1,1.059 0.55,0 1,-0.1984 1,-0.441 z m 24.1756,-25.3766 c 3.4784,-1.741 7.4494,-4.066 8.8244,-5.1666 2.1356,-1.7094 2.2814,-2.1555 1,-3.0607 -4.2016,-2.968 -19.7378,1.1178 -27.5163,7.2364 -2.6252,2.065 -2.6597,2.2081 -0.8594,3.5593 2.9664,2.2264 11.2676,1.0771 18.5513,-2.5684 z m 75.3196,-55.6824 c 3.4031,-18.4414 6.1102,-37.1861 7.5281,-52.1268 1.2793,-13.4797 0.2999,-23.7617 -3.139,-32.9529 -7.9195,-21.1668 -21.0297,-3.6516 -21.0178,28.0797 0.01,19.7136 4.8528,52.8329 10.2411,70 2.6026,8.2919 2.3719,8.7615 6.3876,-13 z m -39.9952,0.5 c 0.3596,-0.5818 -0.6366,-1 -2.382,-1 -1.65,0 -3.2781,0.45 -3.618,1 -0.3596,0.5818 0.6366,1 2.382,1 1.65,0 3.2781,-0.45 3.618,-1 z m -397.6175,103.2073 c -8.8394,-4.6178 -13.8638,-12.9427 -13.8769,-22.9925 -0.01,-3.9746 -0.1505,-4.2076 -2.0056,-3.2148 -1.9437,1.0403 -2,0.7605 -2,-9.9461 v -11.0164 l 6.5083,-6.8992 c 7.4751,-7.924 14.5888,-11.7179 20.0505,-10.6933 4.6822,0.8784 8.7144,5.9993 11.9644,15.1946 2.5005,7.0748 2.8228,9.5192 3.2253,24.4584 0.418,15.5144 0.3064,16.8741 -1.7096,20.8257 -3.8172,7.4824 -12.7334,9.2062 -22.1564,4.2836 z m 15.1832,-21.2425 c 2.5976,-1.3902 2.436,-4.0281 -0.6458,-10.5424 -2.5263,-5.3403 -7.2306,-9.2754 -9.4493,-7.9042 -0.5338,0.3299 -0.9706,2.6079 -0.9706,5.0623 0,4.6319 -0.1955,4.8398 -6.5,6.9152 -1.8727,0.6164 -1.8121,0.8093 0.9516,3.0297 4.6653,3.748 12.8655,5.4456 16.6141,3.4394 z M 364.251,1135.4746 c -5.1027,-4.3677 -15.0773,-17.8576 -22.8569,-30.9124 -6.4384,-10.8041 -10.2693,-14.3316 -18.7067,-17.2251 -6.7933,-2.3298 -20.6366,-2.3312 -26.0499,0 -2.1297,0.9161 -5.2797,1.6614 -7,1.6562 -9.8139,-0.029 -29.4332,-19.8307 -38.1369,-38.4906 -4.4223,-9.4811 -6.491,-19.4455 -6.491,-31.2659 0,-23.13113 8.2688,-34.21546 28.5692,-38.29708 14.6002,-2.93553 17.0622,-3.71567 26.6683,-8.45042 4.8057,-2.36864 10.4925,-4.60311 12.6374,-4.96549 8.5409,-1.44298 16.3001,3.28033 20.4123,12.42569 1.7748,3.94718 2.1261,7.34809 2.6396,25.5532 l 0.5924,21 4.8364,10.2686 c 3.5274,7.4895 5.0819,12.2258 5.7437,17.5 1.8996,15.1383 8.7085,29.1641 22.4763,46.2993 11.7818,14.6636 13.6244,17.6174 13.6244,21.8408 0,4.1656 -1.3294,6.6915 -6.4397,12.2356 -4.9056,5.3219 -7.1014,5.4675 -12.5189,0.8303 z M 209.2268,1026.8433 c -1.9044,-5.0971 -11.3464,-33.75542 -12.7478,-38.69205 -0.5804,-2.04431 -0.3948,-2.26239 1.4319,-1.68261 2.8492,0.90429 2.683,-0.0307 -1.6129,-9.07672 -3.5284,-7.4299 -3.7316,-8.4158 -4.1165,-19.97599 -0.5873,-17.64348 3.1831,-34.61132 11.7848,-53.03479 6.8485,-14.66815 14.3964,-24.07143 22.7915,-28.39389 8.4716,-4.36188 14.5391,-2.27683 18.3635,6.31051 2.0164,4.52781 2.3194,6.82268 2.3368,17.70221 0.028,17.59628 -3.9602,30.75557 -13.0923,43.19597 -7.4836,10.19465 -14.9385,34.90064 -17.8201,59.05686 -2.6689,22.373 -3.5575,28.1687 -4.4571,29.0683 -0.4873,0.4872 -1.7378,-1.4695 -2.8618,-4.4778 z"
     style="fill:#000000" />
</svg>
