<?xml version="1.0" encoding="UTF-8" standalone="no"?>
<svg
   xmlns:dc="http://purl.org/dc/elements/1.1/"
   xmlns:cc="http://creativecommons.org/ns#"
   xmlns:rdf="http://www.w3.org/1999/02/22-rdf-syntax-ns#"
   xmlns:svg="http://www.w3.org/2000/svg"
   xmlns="http://www.w3.org/2000/svg"
   version="1.1"
   id="svg2"
   width="1663"
   height="2361"
   viewBox="0 0 1663 2361">
  <metadata
     id="metadata8">
    <rdf:RDF>
      <cc:Work
         rdf:about="">
        <dc:format>image/svg+xml</dc:format>
        <dc:type
           rdf:resource="http://purl.org/dc/dcmitype/StillImage" />
        <dc:title></dc:title>
      </cc:Work>
    </rdf:RDF>
  </metadata>
  <defs
     id="defs6" />
  <path
     style="fill:#000000"
     d="m 0.255,1935.75 c 0.2424,-404.7435 0.34,-425.4063 2.0254,-428.4906 0.974,-1.7823 2.9073,-3.9852 4.2964,-4.8953 6.0996,-3.9967 60.9163,-7.0916 96.0884,-5.4252 36.4633,1.7277 49.6083,3.9055 73.3405,12.1509 8.9147,3.0973 18.3478,5.6099 24.5,6.5259 5.5022,0.8192 14.4531,2.6143 19.891,3.9891 5.438,1.3748 11.513,2.3636 13.5,2.1974 3.3072,-0.2766 3.8587,-0.7952 6.5171,-6.1274 3.4435,-6.9069 10.4809,-14.2631 16.0773,-16.8054 2.9459,-1.3382 6.4841,-1.8313 13.256,-1.8474 l 9.2374,-0.022 2.5251,-4 c 2.0389,-3.2297 3.1081,-4 5.5524,-4 3.856,0 8.8733,2.5983 16.4476,8.5175 3.3,2.5789 9.172,6.195 13.0488,8.0358 5.2962,2.5147 9.8933,6.0131 18.4896,14.0708 12.2249,11.4587 19.0014,16.3759 22.5684,16.3759 4.5333,0 13.7771,4.4477 18.2219,8.7675 l 4.4842,4.3582 6.1423,-0.6578 c 4.9287,-0.5278 6.3996,-0.3479 7.4442,0.9108 1.1318,1.3637 1.6479,1.3886 3.9512,0.19 1.4572,-0.7583 3.7744,-2.6098 5.1494,-4.1146 4.5604,-4.9907 11.0108,-8.4541 15.7455,-8.4541 7.7358,0 12.803,-4.1533 18.1775,-14.899 3.754,-7.5056 5.1652,-14.1417 4.844,-22.7788 -0.2472,-6.6448 -0.063,-7.3914 2.483,-10.0547 2.2445,-2.3481 2.75,-3.7896 2.75,-7.8423 0,-9.5449 -5.0877,-24.2104 -16.9901,-48.9747 -3.9029,-8.1203 -6.9605,-15.4811 -6.7948,-16.3573 0.1802,-0.9527 1.5171,-1.7127 3.3253,-1.8903 4.9961,-0.4909 9.2721,3.3061 14.4184,12.803 6.1776,11.4001 10.0872,16.9374 16.322,23.117 6.8577,6.7971 14.2878,10.2691 20.6645,9.6564 10.3454,-0.9941 14.6219,-8.0883 17.0469,-28.2793 0.5945,-4.95 1.3198,-9.7875 1.6117,-10.75 1.105,-3.6427 11.1575,-1.2463 27.9225,6.6564 6.7312,3.173 9.961,5.3787 12.7019,8.6743 l 3.6756,4.4193 4.3359,-4.25 c 4.6019,-4.5107 6.2037,-5.1428 7.1017,-2.8024 2.026,5.2797 36.8667,5.7178 43.868,0.5517 3.4995,-2.5822 5.4008,-2.4849 10.2905,0.5268 2.2,1.355 5.4767,2.466 7.2816,2.4688 6.9017,0.011 24.1223,7.3478 30.6049,13.0396 1.9102,1.6771 3.7477,4.2998 4.0834,5.8282 1.9468,8.864 18.5995,19.866 41.8407,27.6429 16.0251,5.3624 27.5339,7.5426 42.6894,8.0871 20.5732,0.7391 21.9649,1.0081 23.1753,4.4802 1.3545,3.8856 5.1738,3.9057 10.4892,0.055 4.954,-3.5887 8.7798,-8.4041 14.7995,-18.6281 5.8715,-9.9722 7.2357,-11.5 10.2679,-11.5 1.3549,0 3.7368,-1.3148 5.4063,-2.9844 2.43,-2.4299 2.9266,-3.6768 2.6731,-6.7114 -0.3008,-3.6019 -0.5203,-3.7989 -6.5317,-5.8632 -7.721,-2.6514 -12.3685,-5.6939 -21.0172,-13.7592 -10.6589,-9.9399 -15.8531,-12.7711 -17.7624,-9.6818 -0.3399,0.55 -2.6595,1 -5.1546,1 -5.994,0 -9.2256,2.4219 -13.2125,9.902 -2.246,4.214 -3.3814,7.9533 -3.8106,12.5502 -0.3919,4.1968 -1.0547,6.5478 -1.8458,6.5478 -1.8241,0 -13.3566,-12.5708 -18.2361,-19.8779 -2.9003,-4.3432 -4.2404,-7.4192 -4.2404,-9.7332 0,-2.4537 -0.9495,-4.4341 -3.456,-7.2085 -6.8718,-7.6063 -6.7617,-19.513 0.4415,-47.7464 7.411,-29.0481 11.46,-40.6261 15.1082,-43.202 0.9877,-0.6974 5.1387,-8.1224 9.2245,-16.5 4.0859,-8.3776 9.5147,-17.999 12.0641,-21.381 5.2198,-6.9242 7.6151,-11.9732 7.6233,-16.0689 0.01,-4.9096 1.9287,-9.9188 5.5188,-14.4072 4.5031,-5.6298 7.4756,-15.1345 7.4756,-23.9035 0,-5.6895 -0.3892,-7.2858 -2.3514,-9.6447 -3.0673,-3.6873 -4.6486,-6.7566 -4.6486,-9.0231 0,-1.0053 -1.2103,-5.4224 -2.6895,-9.8157 -2.6802,-7.9603 -2.6899,-8.0968 -2.813,-39.4879 -0.1027,-26.1841 -0.3916,-32.1914 -1.7122,-35.5972 -4.0687,-10.4929 -8.8681,-17.36 -13.9806,-20.0038 -2.6738,-1.3827 -3.1944,-1.3736 -5.4347,0.094 -1.3626,0.8929 -2.8583,2.6097 -3.3236,3.8151 -0.9732,2.521 -1.4951,1.5665 -2.525,-4.618 -0.3889,-2.3353 -2.0095,-5.3317 -4.1877,-7.7427 -3.315,-3.6693 -5.7316,-4.8136 -13.5337,-6.4086 -1.485,-0.3036 -5.3502,-3.0056 -8.5892,-6.0044 -5.6371,-5.2189 -7.8517,-8.6665 -11.8695,-18.4781 -2.6016,-6.3534 -13.9535,-17.6057 -19.1816,-19.0135 -4.6943,-1.2641 -4.8224,-1.4127 -8.1674,-9.4774 -1.7566,-4.2351 -3.3292,-6.4398 -5.25,-7.3604 -1.5083,-0.7229 -2.7423,-2.1291 -2.7423,-3.1249 0,-3.2022 -4.0407,-7.0788 -10.3692,-9.9483 -7.0001,-3.174 -12.1493,-8.1549 -22.3397,-21.6094 -6.4662,-8.53739 -7.5625,-9.40625 -14.0411,-11.12771 -0.8877,-0.23588 -1.25,-3.05433 -1.25,-9.72399 0,-8.26442 -0.2881,-9.81636 -2.3999,-12.92826 -3.5757,-5.2691 -3.8734,-7.12731 -2.1928,-13.68734 3.3847,-13.21164 15.2789,-31.92511 28.7112,-45.17219 8.0388,-7.9279 12.3788,-11.02171 23.6019,-16.82475 13.2885,-6.87095 17.9491,-13.77434 13.5604,-20.08588 -4.6319,-6.66129 -13.8243,-10.95317 -34.408,-16.06501 -20.5961,-5.11449 -25.8728,-7.66068 -25.8728,-12.48416 0,-6.96241 20.4736,-17.09724 68.5022,-33.90995 25.8565,-9.0512 42.2431,-15.33677 49.2809,-18.90305 6.9668,-3.53036 12.4156,-4.59659 28.8501,-5.6454 17.0962,-1.09105 22.2442,-2.15045 24.4114,-5.02368 1.5011,-1.98995 1.9479,-2.07304 5.0724,-0.94321 9.1946,3.32481 32.883,-7.83594 32.883,-15.49279 0,-4.61065 0.929,-5.53985 4.9034,-4.90433 4.9845,0.79707 6.5248,-1.10929 5.8357,-7.22284 -0.7995,-7.09344 -4.7982,-11.38393 -11.9764,-12.85027 -4.5254,-0.92443 -6.2627,-4.80359 -6.2627,-13.98396 v -8.04346 l -3.5,0.1876 c -11.1908,0.59981 -14.9238,0.37109 -18.5291,-1.13533 -6.0841,-2.54208 -8.4709,-5.2827 -8.4709,-9.72658 0,-4.23005 -0.1932,-4.30943 -6.5783,-2.70165 -10.2156,2.57231 -20.5485,-4.45294 -28.3161,-19.25179 -8.6111,-16.40588 -11.2987,-17.97884 -12.405,-7.26004 -1.0776,10.44087 -2.5448,8.78716 -4.1636,-4.69301 -1.3335,-11.10401 -2.5631,-13.07442 -8.9566,-14.35313 -1.6413,-0.32826 -4.0184,-1.56836 -5.2823,-2.75577 -1.9124,-1.79658 -2.2981,-3.18705 -2.2981,-8.28461 0,-6.93657 -1.0977,-8.65614 -5.0245,-7.87078 -3.7057,0.74114 -4.276,-0.54771 -4.4581,-10.07496 -0.1382,-7.2291 -0.5619,-8.88945 -4.0242,-15.76722 l -3.8697,-7.68728 2.4111,-1.95235 2.411,-1.95236 -2.7228,-6.63017 c -3.2782,-7.98265 -3.2971,-8.35029 -0.5791,-11.24349 6.2817,-6.6866 0.2911,-29.30095 -10.2957,-38.86542 -3.8631,-3.49008 -4.9249,-3.85586 -10.173,-3.50439 -5.351,0.35837 -14.7926,-8.00121 -16.5601,-14.66225 -0.9761,-3.67829 -5.2282,-4.41906 -7.4182,-1.29234 -1.438,2.05303 -1.5435,1.92776 -2.6891,-3.1929 -0.6559,-2.93138 -1.432,-9.15749 -1.7248,-13.8358 l -0.5324,-8.50601 3.6248,-4.3386 c 1.9937,-2.38623 3.6263,-5.08352 3.628,-5.99398 0,-0.91047 -2.962,-7.80417 -6.5862,-15.31934 -5.4651,-11.33257 -6.7542,-15.00095 -7.5553,-21.5 -1.2229,-9.92091 -3.3404,-17.26679 -6.2007,-21.51115 -2.9911,-4.43843 -5.6353,-4.30162 -8.159,0.42216 -1.1011,2.06088 -2.4339,3.6044 -2.9619,3.43004 -0.5279,-0.17436 -2.7779,-4.47972 -5,-9.56746 -7.2659,-16.63654 -16.1898,-24.9874 -25.1699,-23.55392 -3.495,0.55791 -4.0912,0.31859 -6.1501,-2.46897 -4.1686,-5.64376 -11.0719,-3.47587 -21.6839,6.80955 -5.6625,5.4883 -8.1197,7.13439 -12.5864,8.43157 -3.0527,0.88653 -8.6777,3.82155 -12.5,6.52228 -9.0377,6.38564 -22.1235,19.89772 -22.9705,23.71872 -1.3123,5.92003 -3.7338,11.13436 -9.1992,19.8092 -8.1873,12.99515 -12.1972,21.709 -14.4778,31.46165 -3.1058,13.28127 -5.5786,20.74436 -10.3171,31.13808 -5.4958,12.05491 -6.0839,15.27785 -4.0361,22.12248 3.3764,11.28591 2.9439,33.31788 -0.9893,50.39972 -2.7813,12.07863 -4.4403,25.40967 -5.3515,43 -1.3525,26.10962 -4.4959,37.57659 -12.8506,46.8776 -4.7569,5.29578 -6.9007,10.76367 -7.6605,19.53902 -0.3531,4.07915 -2.1855,15.32915 -4.0719,25 -5.4083,27.72621 -5.728,32.75072 -6.0487,95.08338 -0.3115,60.52091 -0.8736,70.46722 -5.0142,88.73119 -2.7569,12.16025 -3.9649,20.99579 -5.4371,39.76881 -1.1684,14.89863 -2.905,22.3839 -7.257,31.27983 -7.3868,15.0995 -17.6351,16.3105 -23.2189,2.74369 -0.9001,-2.18707 -2.7633,-10.96207 -4.1405,-19.5 -4.051,-25.11559 -10.2879,-46.66255 -18.2244,-62.96123 -3.7468,-7.69457 -9.7822,-15.06229 -12.3385,-15.06229 -3.6291,0 -4.9991,2.52842 -5.9847,11.04519 -1.4478,12.51141 -3.9547,13.99399 -14.6728,8.67748 -6.4143,-3.18168 -16.1321,-11.80794 -30.7988,-27.33936 -13.7953,-14.60854 -23.4212,-22.29744 -36.8897,-29.46632 -22.1195,-11.77358 -26.8136,-18.12816 -29.4669,-39.89076 -2.4071,-19.74339 0.001,-133.73641 3.9996,-189.31578 1.1454,-15.92214 10.7241,-86.82733 14.4974,-107.31562 14.3993,-78.1855 41.6759,-146.28096 72.5315,-181.07313 3.8152,-4.30193 12.2176,-14.3467 18.672,-22.3217 43.9201,-54.26718 69.9672,-76.68125 118.4262,-101.90816 45.4414,-23.65601 120.4425,-51.60746 176.3402,-65.7186 71.8775,-18.14514 134.7066,-21.48079 194.357,-10.31858 87.8516,16.4394 168.4979,64.92789 251.1786,151.021 23.8849,24.87063 28.2826,30.20834 36.2316,43.97649 3.0001,5.19632 8.0715,13.49785 11.2698,18.44785 5.2338,8.10053 8.2794,13.55113 17.6008,31.5 6.6311,12.76846 11.0129,38.25358 11.4119,66.37288 0.1871,13.1872 0.6928,21.26948 1.3733,21.95 2.7584,2.75838 -0.9606,12.67712 -4.7532,12.67712 -3.4388,0 -5.5204,3.57781 -5.3916,9.2668 0.093,4.12773 1.08,7.0734 4.6702,13.94457 2.5034,4.79125 4.5517,9.6511 4.5517,10.79966 0,3.51792 2.6202,7.42081 8.1835,12.18976 3.8806,3.3265 5.6743,5.73794 6.6411,8.92831 0.7285,2.40399 3.7362,9.82968 6.6838,16.50152 2.9476,6.67184 6.7139,16.57184 8.3696,22 5.9051,19.35919 21.0992,81.33236 22.193,90.51947 1.4541,12.21432 1.4426,58.00761 -0.02,78.34991 -0.6326,8.8 -2.0822,23.65 -3.2214,33 -1.1743,9.63884 -2.1058,23.49514 -2.1511,32 -0.1127,21.16102 1.4723,27.90065 12.1121,51.5 7.6333,16.93084 8.5492,21.81614 5.2698,28.10777 -2.8706,5.50752 -13.7184,20.06754 -23.6286,31.71477 -10.9569,12.87735 -12.4322,15.05354 -12.4322,18.338 0,1.57563 -0.8814,6.0455 -1.9587,9.93305 -3.5806,12.92104 -5.4144,37.17456 -7.5159,99.40644 -2.3772,70.3945 -3.0708,78.989 -7.5386,93.4182 -1.6317,5.27 -4.3377,16.1068 -6.0133,24.0818 -3.9809,18.9474 -6.6566,28.9219 -10.0597,37.5 -1.5274,3.85 -3.7345,11.725 -4.9047,17.5 -3.3548,16.5555 -4.1043,19.2307 -6.6332,23.6781 -1.3068,2.2979 -2.3759,5.324 -2.3759,6.7246 0,3.0585 -13.8008,51.3534 -17.4793,61.1678 -1.4285,3.8112 -4.1791,9.3214 -6.1125,12.2448 -1.9334,2.9234 -6.8117,12.1484 -10.8405,20.5 -4.0289,8.3516 -9.4048,18.1097 -11.9465,21.6847 -8.4742,11.9192 -10.6964,15.4805 -11.2319,18 -2.3692,11.1484 -12.4807,32.8128 -20.3028,43.5 -8.8445,12.084 -10.0911,13.4659 -12.6208,13.9896 -1.3561,0.2807 -3.5306,0.7289 -4.8321,0.9959 -1.8886,0.3875 -2.4746,1.2926 -2.9026,4.483 -0.7592,5.6607 -4.5567,12.995 -7.3989,14.29 -1.9389,0.8834 -2.2984,1.6182 -1.8317,3.7434 0.8525,3.8815 -3.809,8.3864 -7.8432,7.5795 -2.7855,-0.5571 -2.8819,-0.455 -2.3037,2.4361 0.8573,4.2865 -2.1383,11.2063 -10.4404,24.1177 -3.8756,6.0272 -8.8487,14.2998 -11.0514,18.3834 -6.447,11.9523 -16.491,19.5556 -35.5529,26.9138 -11.9287,4.6047 -22.286,7.1364 -40.9686,10.0142 -13.7467,2.1176 -16.7598,2.9343 -23.7903,6.449 -23.0005,11.4984 -44.377,39.1358 -47.6488,61.6044 -1.3396,9.2001 -2.9431,14.1276 -10.2503,31.5 -5.7312,13.6257 -6.1005,14.9833 -6.1249,22.5147 -0.023,7.059 0.3596,8.7879 3.2077,14.5 1.7785,3.5669 7.7704,12.7853 13.3154,20.4853 26.708,37.0876 37.9108,62.1121 37.9695,84.8154 0.055,21.4598 -2.9971,62.3468 -7.4799,100.1846 -1.3684,11.55 -4.0703,38.55 -6.0043,60 -6.0252,66.8269 -5.6445,65.3737 -22.0042,84 -10.4718,11.9226 -13.1271,16.1273 -14.1248,22.3664 -1.8901,11.8197 6.3962,36.1687 45.8172,134.6336 9.9088,24.75 19.4921,49.275 21.2962,54.5 7.4023,21.4381 10.5896,43.858 12.9721,91.25 l 0.5907,11.75 H 465.5454 0 l 0.2546,-425.25 z m 832.2546,-554.8432 c 12.4194,-1.3817 14.2619,-2.0927 15.9611,-6.1593 2.6982,-6.4578 -0.1683,-12.291 -9.3074,-18.9398 -3.1095,-2.2623 -6.6264,-5.282 -7.8153,-6.7105 -2.1507,-2.5841 -2.2326,-2.5965 -16.2452,-2.4653 -18.1725,0.1701 -19.5969,0.8766 -18.8295,9.3392 0.711,7.8416 3.8524,14.7666 6.894,15.1972 1.5464,0.219 2.452,1.1046 2.6651,2.6063 0.3602,2.5386 3.3358,4.8036 8.9363,6.8025 4.6877,1.673 5.5261,1.6886 17.7409,0.3297 z m 157.4306,-192.1986 c 5.2843,-6.999 8.3091,-14.0677 11.4458,-26.7479 7.2954,-29.4921 9.3718,-57.1134 5.1768,-68.8627 -0.8646,-2.4213 -2.7115,-10.6926 -4.1044,-18.3806 -2.6257,-14.4928 -4.2463,-19.093 -7.6865,-21.8192 -1.5408,-1.221 -1.9997,-2.7075 -1.9286,-6.2475 0.1041,-5.1873 1.2227,-7.8759 4.932,-11.8548 l 2.5214,-2.7045 -3.1436,-3.5803 c -1.7289,-1.9692 -3.1914,-3.6771 -3.25,-3.7955 -0.059,-0.1184 -0.4436,-8.5402 -0.8554,-18.7152 -0.7314,-18.06977 -0.8325,-18.7119 -4.347,-27.60969 -3.6852,-9.3299 -5.4546,-15.84192 -8.1216,-29.89034 -1.9231,-10.12989 -8.1476,-22.98271 -13.4506,-27.77366 -3.5144,-3.17505 -4.7172,-3.61814 -11.7667,-4.3347 -4.3187,-0.43898 -13.4772,-0.77556 -20.3522,-0.74795 -13.6879,0.055 -20.9771,1.94187 -26.9648,6.98016 -6.2985,5.29988 -10.0281,18.74542 -10.0408,36.19851 -0.01,11.41578 -1.2066,14.61501 -7.0458,18.81006 -3.1396,2.25555 -5.6148,5.05709 -6.8082,7.7058 -2.4295,5.39207 -11.4064,15.77361 -31.7271,36.69141 -9.0273,9.2925 -16.4133,17.5571 -16.4133,18.3656 0,0.8085 0.8585,1.7425 1.9076,2.0755 4.2918,1.3621 3.1317,4.6478 -2.0799,5.891 -4.0109,0.9567 -5.3124,5.9351 -5.1339,19.6383 0.1616,12.406 2.2516,24.4032 5.2261,30 7.4645,14.0451 7.0596,12.5643 8.0839,29.5598 1.1432,18.9677 3.3156,28.4043 9.097,39.5171 4.9057,9.4293 12.0442,16.864 19.8937,20.7192 4.6723,2.2947 6.792,2.7039 14.0055,2.7039 10.5979,0 17.2846,-2.8195 26.7219,-11.2675 C 925.7321,1168.49 928.3981,1167 935.6188,1167 c 3.515,0 6.3908,-0.35 6.3908,-0.7778 0,-0.4277 -0.9124,-1.559 -2.0277,-2.5139 -2.6618,-2.2791 -1.3579,-4.8229 3.703,-7.2244 8.94,-4.2424 16.4395,-2.5268 23.5996,5.3986 5.1492,5.6995 7.7251,11.2439 7.7251,16.6273 0,6.8789 5.0822,15.4902 9.1419,15.4902 0.9952,0 3.5716,-2.3553 5.7887,-5.2918 z M 662.8278,981.1223 c 10.1955,-2.24311 11.993,-3.65341 9.875,-7.74801 -1.8248,-3.52775 -11.6683,-13.01805 -17.4942,-16.8665 -5.7351,-3.78846 -11.1402,-3.78794 -18.6304,0.002 -3.8766,1.9614 -5.808,3.59618 -6.2287,5.27218 -1.7844,7.10993 11.9652,21.25228 20.6059,21.19442 1.9548,-0.0131 7.2974,-0.84733 11.8724,-1.85387 z M 710.62,935.41637 c 1.012,-4.03232 -0.2366,-11.51418 -2.9428,-17.63329 -4.311,-9.74812 -8.4808,-12.06084 -13.213,-7.32856 -3.2391,3.23911 -3.1808,7.69539 0.1892,14.45815 5.5095,11.05613 14.3657,16.88221 15.9666,10.5037 z M 364.251,1135.4746 c -5.1027,-4.3677 -15.0773,-17.8576 -22.8569,-30.9124 -6.4384,-10.8041 -10.2693,-14.3316 -18.7067,-17.2251 -6.7933,-2.3298 -20.6366,-2.3312 -26.0499,0 -2.1297,0.9161 -5.2797,1.6614 -7,1.6562 -9.8139,-0.029 -29.4332,-19.8307 -38.1369,-38.4906 -4.4223,-9.4811 -6.491,-19.4455 -6.491,-31.2659 0,-23.13113 8.2688,-34.21546 28.5692,-38.29708 14.6002,-2.93553 17.0622,-3.71567 26.6683,-8.45042 4.8057,-2.36864 10.4925,-4.60311 12.6374,-4.96549 8.5409,-1.44298 16.3001,3.28033 20.4123,12.42569 1.7748,3.94718 2.1261,7.34809 2.6396,25.5532 l 0.5924,21 4.8364,10.2686 c 3.5274,7.4895 5.0819,12.2258 5.7437,17.5 1.8996,15.1383 8.7085,29.1641 22.4763,46.2993 11.7818,14.6636 13.6244,17.6174 13.6244,21.8408 0,4.1656 -1.3294,6.6915 -6.4397,12.2356 -4.9056,5.3219 -7.1014,5.4675 -12.5189,0.8303 z M 209.2268,1026.8433 c -1.9044,-5.0971 -11.3464,-33.75542 -12.7478,-38.69205 -0.5804,-2.04431 -0.3948,-2.26239 1.4319,-1.68261 2.8492,0.90429 2.683,-0.0307 -1.6129,-9.07672 -3.5284,-7.4299 -3.7316,-8.4158 -4.1165,-19.97599 -0.5873,-17.64348 3.1831,-34.61132 11.7848,-53.03479 6.8485,-14.66815 14.3964,-24.07143 22.7915,-28.39389 8.4716,-4.36188 14.5391,-2.27683 18.3635,6.31051 2.0164,4.52781 2.3194,6.82268 2.3368,17.70221 0.028,17.59628 -3.9602,30.75557 -13.0923,43.19597 -7.4836,10.19465 -14.9385,34.90064 -17.8201,59.05686 -2.6689,22.373 -3.5575,28.1687 -4.4571,29.0683 -0.4873,0.4872 -1.7378,-1.4695 -2.8618,-4.4778 z"
     id="path12" />
</svg>
