<?xml version="1.0" encoding="UTF-8" standalone="no"?>
<svg
   xmlns:dc="http://purl.org/dc/elements/1.1/"
   xmlns:cc="http://creativecommons.org/ns#"
   xmlns:rdf="http://www.w3.org/1999/02/22-rdf-syntax-ns#"
   xmlns:svg="http://www.w3.org/2000/svg"
   xmlns="http://www.w3.org/2000/svg"
   viewBox="0 0 415 714"
   height="714"
   width="415"
   id="svg2"
   version="1.1">
  <metadata
     id="metadata8">
    <rdf:RDF>
      <cc:Work
         rdf:about="">
        <dc:format>image/svg+xml</dc:format>
        <dc:type
           rdf:resource="http://purl.org/dc/dcmitype/StillImage" />
        <dc:title></dc:title>
      </cc:Work>
    </rdf:RDF>
  </metadata>
  <defs
     id="defs6" />
  <path
     id="path3682"
     d="m 0,585.57959 v -128.4204 l 6.25,-0.65967 c 3.4375,-0.36282 13.45,-0.76019 22.25,-0.88306 15.421736,-0.21531 16.259011,-0.12206 23.166586,2.58008 C 55.608209,459.73844 59.703558,461 60.767363,461 63.48667,461 69,463.02946 69,464.03044 c 0,0.45913 1.0125,1.15076 2.25,1.53695 1.2375,0.3862 2.557208,1.18156 2.932683,1.76749 0.375476,0.58592 2.270258,1.02031 4.210626,0.96531 1.940368,-0.055 4.028561,0.50321 4.640429,1.24046 0.611869,0.73726 1.688023,1.11961 2.391455,0.84968 0.703432,-0.26993 2.076338,0.72616 3.050903,2.21353 1.522819,2.32412 1.898808,2.47761 2.674366,1.09176 0.496338,-0.8869 1.562946,-1.35909 2.370241,-1.0493 0.807296,0.30979 1.218837,0.9661 0.914536,1.45846 -0.3043,0.49237 0.768185,0.89522 2.383299,0.89522 1.615115,0 3.496772,0.675 4.181462,1.5 0.68469,0.825 1.90924,1.5 2.72123,1.5 0.81199,0 2.76944,1.38426 4.34988,3.07612 1.58044,1.69187 3.33599,2.79031 3.90121,2.44099 0.57648,-0.35629 1.02768,0.26887 1.02768,1.42387 0,1.13246 0.52266,1.94652 1.16147,1.80902 0.63882,-0.1375 1.44643,0.875 1.7947,2.25 0.42133,1.66343 1.37118,2.53797 2.83853,2.61346 1.21291,0.0624 2.2053,-0.27509 2.2053,-0.75 0,-0.4749 0.675,-0.86346 1.5,-0.86346 0.825,0 1.5,0.675 1.5,1.5 0,0.825 -0.45,1.5 -1,1.5 -1.60198,0 -1.15281,1.72739 0.62675,2.41026 0.89471,0.34334 2.35721,0.054 3.25,-0.64301 1.42673,-1.11383 1.46497,-1.06487 0.31584,0.40439 -1.05139,1.34429 -1.06305,2.06293 -0.0595,3.66984 1.33298,2.13443 5.56155,3.46166 6.44981,2.02441 0.29434,-0.47624 -0.0539,-0.8759 -0.77386,-0.88813 -0.77686,-0.0132 -0.44662,-0.72462 0.81234,-1.75 1.16675,-0.95027 2.39784,-3.21443 2.73574,-5.03146 0.35941,-1.93264 2.07283,-4.6792 4.12864,-6.61808 1.93284,-1.82291 3.51426,-3.78624 3.51426,-4.36296 0,-0.57673 0.5625,-1.27557 1.25,-1.55298 1,-0.40351 1,-0.52017 0,-0.58333 -0.6875,-0.0434 -1.25,-0.57709 -1.25,-1.18594 0,-0.61261 0.72831,-0.82751 1.63082,-0.48118 1.40493,0.53912 1.53933,0.0537 0.97031,-3.50478 -0.39594,-2.47606 -0.22861,-4.65098 0.41774,-5.42979 0.74816,-0.90148 0.75725,-1.49759 0.0297,-1.94725 -2.09577,-1.29526 -0.98652,-4.06974 2.20144,-5.5063 1.7875,-0.80548 3.81585,-1.34483 4.50743,-1.19856 1.90476,0.40284 3.58622,-4.90279 4.38149,-13.82515 0.39753,-4.46007 5.42045,-4.6045 11.89943,-0.34214 2.1746,1.43061 5.06525,2.33696 7.5,2.35159 7.12759,0.0428 13.30351,0.48202 12.87026,0.91528 -0.59683,0.59682 4.82015,4.06069 6.36283,4.06868 0.69929,0.004 2.94929,1.1153 5,2.4704 2.05071,1.35509 7.02508,3.15606 11.05416,4.00215 4.02908,0.84609 9.30312,2.69725 11.7201,4.11369 4.83998,2.83642 6.4543,2.55162 6.4543,-1.13867 0,-2.87835 1.95714,-3.1704 5.53518,-0.82597 1.35565,0.88826 2.46482,1.14709 2.46482,0.57519 0,-1.06662 4.25888,-0.95116 9.79893,0.26564 2.8726,0.63093 3.23204,0.40579 4.60734,-2.88576 1.15765,-2.77064 2.06292,-3.57008 4.0427,-3.57008 1.86765,0 2.55103,-0.52544 2.55103,-1.96146 0,-1.44218 1.05895,-2.2466 4,-3.03854 2.2,-0.5924 4,-1.65458 4,-2.3604 0,-0.70583 1.33748,-3.05098 2.97218,-5.21146 2.99546,-3.95891 3.86517,-6.06369 2.03927,-4.93522 -0.55717,0.34436 -0.73999,-0.0368 -0.41894,-0.87339 0.72497,-1.88924 -4.38676,-4.6348 -9.59355,-5.1528 -4.14634,-0.41249 -9.31076,-4.3442 -8.15744,-6.21031 C 255.63027,425.98021 269.32803,419 271.0437,419 c 0.60454,0 1.75504,-0.65588 2.55667,-1.45751 0.80163,-0.80163 2.11949,-1.20349 2.92857,-0.89301 0.80908,0.31047 1.47106,0.0663 1.47106,-0.54249 0,-0.60885 -0.5625,-1.11388 -1.25,-1.1223 -0.84652,-0.0104 -0.77517,-0.31561 0.22104,-0.94563 0.80907,-0.51167 1.25907,-1.06728 1,-1.23469 -3.34996,-2.16465 -8.19575,-3.93212 -9.45535,-3.44876 -1.85661,0.71244 -8.48511,-3.26747 -8.50331,-5.10561 -0.007,-0.6875 0.66262,-1.25 1.48762,-1.25 0.825,0 1.5,-0.62325 1.5,-1.38499 0,-1.80169 5.26669,-5.31495 5.758,-3.841 0.38612,1.15834 5.59699,-0.16934 7.98284,-2.03395 0.68246,-0.53336 2.70746,-0.74074 4.5,-0.46084 3.98648,0.62247 10.75916,-1.29477 10.75916,-3.04575 0,-0.94523 -0.65057,-0.85331 -2.48981,0.35181 -2.27811,1.49267 -2.54211,1.49512 -3.10479,0.0288 -0.33823,-0.88143 -0.97398,-1.38071 -1.41277,-1.10952 C 284.116,392.04634 282,386.72115 282,383.97322 c 0,-3.24 -2.4179,-4.21145 -7.17367,-2.88218 -5.8785,1.64308 -8.82633,1.94358 -8.82633,0.89976 0,-0.48002 0.43035,-1.13873 0.95633,-1.46381 0.52598,-0.32507 0.6854,-1.29704 0.35428,-2.15994 -0.33113,-0.86289 0.026,-1.98412 0.79367,-2.49161 1.11585,-0.73769 0.81873,-1.39706 -1.48176,-3.28829 C 263.79768,370.26484 263.7493,368 266.52454,368 c 1.36608,0 5.17171,-3.42028 8.71567,-7.83313 0.97056,-1.20851 2.87634,-2.16687 4.30902,-2.16687 1.45789,0 2.30153,-0.43246 1.95077,-1 -0.80075,-1.29563 -0.16739,-1.26121 2.95295,0.16052 3.21495,1.46483 3.22902,3.15788 0.0471,5.66082 -1.375,1.08158 -2.5,2.35599 -2.5,2.83203 0,0.47605 -0.93766,1.45111 -2.08368,2.16682 -1.31567,0.82164 -1.85606,1.89445 -1.46613,2.9106 0.33965,0.88512 0.0528,1.95832 -0.63736,2.38489 -0.6902,0.42656 -0.94132,1.08917 -0.55804,1.47245 0.38328,0.38328 1.27025,0.23284 1.97104,-0.33431 0.7008,-0.56715 3.97417,-1.62031 7.27417,-2.34035 6.2014,-1.35312 8.35647,-2.97021 8.54714,-6.41347 0.0609,-1.1 0.33384,-1.44915 0.60651,-0.77589 0.37213,0.91885 1.0984,0.82924 2.91247,-0.35939 1.32919,-0.87092 2.16212,-1.99541 1.85096,-2.49888 -0.31115,-0.50347 -0.19479,-0.79331 0.25859,-0.64409 0.45338,0.14921 2.44181,-0.96464 4.41872,-2.47523 4.47983,-3.4231 5.92811,-3.43685 8.9813,-0.0853 1.33337,1.46369 1.86181,2.33713 1.17431,1.94098 -1.47343,-0.84901 -1.71593,0.99178 -0.25,1.89777 1.59502,0.98578 1.16016,4.04508 -0.83115,5.84719 -1.00713,0.91145 -2.08011,1.40822 -2.38438,1.10395 -0.30428,-0.30428 -1.03185,0.81974 -1.61683,2.49781 -0.77136,2.21271 -0.75733,3.05105 0.051,3.05105 0.61305,0 0.84242,0.27223 0.5097,0.60495 -0.33273,0.33272 0.42383,1.57022 1.68123,2.75 1.2574,1.17978 2.09202,2.70786 1.85472,3.39573 -0.25741,0.74616 0.13549,1.03312 0.97398,0.71136 0.85479,-0.32801 1.85973,0.45775 2.56495,2.00553 0.63773,1.39966 1.50538,2.44644 1.92812,2.32618 1.30058,-0.36999 5.65208,2.31989 7.96829,4.92559 l 2.19968,2.47462 -2.01669,5.39009 c -1.10918,2.96454 -1.77326,5.78397 -1.47573,6.26538 0.75434,1.22054 -2.71297,10.72626 -4.72245,12.94672 -1.09429,1.20917 -1.32071,2.16763 -0.66659,2.82175 0.65411,0.65411 -0.28461,1.05545 -2.76366,1.18155 -3.3325,0.16951 -4.09125,-0.26891 -6.75424,-3.90268 -1.65,-2.2515 -4.25925,-4.99547 -5.79833,-6.09771 -2.76059,-1.97705 -2.87849,-1.9791 -8.74059,-0.15157 -6.51332,2.03054 -7.32214,3.85251 -1.71023,3.85251 1.9698,0 3.82979,0.24811 4.13333,0.55136 1.18645,1.18534 3.65742,8.09239 2.67861,7.48745 -0.61655,-0.38105 -0.80553,-0.032 -0.46421,0.85748 0.81943,2.13542 -2.6794,7.60371 -4.86517,7.60371 -1.00946,0 -3.43968,1.6875 -5.40049,3.75 -1.96082,2.0625 -3.26132,3.1875 -2.89,2.5 0.37131,-0.6875 0.19856,-1.25 -0.3839,-1.25 -2.3977,0 -0.77985,4.02211 3.44098,8.55457 2.475,2.65774 4.5,4.33272 4.5,3.72217 0,-0.61054 -0.49934,-1.27652 -1.10965,-1.47996 -0.71785,-0.23928 -0.58816,-0.80269 0.36732,-1.59566 1.18894,-0.98673 1.74662,-0.89342 2.85965,0.47851 0.92686,1.14244 0.9706,1.45672 0.13268,0.95331 -1.51084,-0.90768 -1.57894,-0.25921 -0.25,2.38063 0.55,1.09254 1.45,2.88032 2,3.97286 0.55,1.09254 1,3.73913 1,5.88131 0,3.27622 -0.556,4.31897 -3.50039,6.56476 -5.16762,3.94154 -9.50956,5.46778 -20.06125,7.05175 -5.21358,0.78264 -9.93125,1.70234 -10.4837,2.04377 -2.02962,1.25438 -9.02165,16.37352 -13.95502,30.1755 l -1.85994,5.20353 2.99561,4.29647 c 6.74338,9.67175 10.22785,15.34803 12.59315,20.51453 2.17413,4.74893 2.41077,6.30265 1.84516,12.11477 -0.35685,3.66695 -0.78818,9.14218 -0.95851,12.16718 -0.17034,3.025 -0.8179,10.225 -1.43903,16 -0.62113,5.775 -1.61441,15.85735 -2.20729,22.40523 -1.17913,13.0224 -2.03313,15.39825 -7.38347,20.54094 -1.97193,1.89539 -3.58532,4.23556 -3.58532,5.20038 0,2.52552 5.01659,16.00159 19.48907,52.35345 7.00694,17.6 13.12724,33.0125 13.60066,34.25 L 286.9505,714 H 143.47525 0 Z m 134.50255,-58.2199 c -0.90217,-0.90217 -2.34804,-2.72044 -3.21305,-4.04061 -1.48984,-2.27379 -5.2895,-5.02641 -5.2895,-3.83192 0,1.00215 8.22972,9.51284 9.19879,9.51284 0.51924,0 0.20593,-0.73814 -0.69624,-1.64031 z M 298.25,390.33772 c -0.6875,-0.27741 -1.8125,-0.27741 -2.5,0 -0.6875,0.27741 -0.125,0.50439 1.25,0.50439 1.375,0 1.9375,-0.22698 1.25,-0.50439 z m -180.64699,97.82895 c -0.28327,-0.45834 0.12038,-0.83334 0.89699,-0.83334 0.77661,0 1.18026,0.375 0.89699,0.83334 C 119.11373,488.625 118.71008,489 118.5,489 c -0.21008,0 -0.61373,-0.375 -0.89699,-0.83333 z m -7.45977,-7.05698 c -0.83426,-0.52861 -0.97089,-1.09817 -0.35479,-1.47895 0.55109,-0.34059 1.26001,0.0532 1.57538,0.875 0.66263,1.72679 0.60022,1.75767 -1.22059,0.60395 z M 113,480.94098 c 0,-0.58246 0.45,-0.7809 1,-0.44098 0.55,0.33992 1,0.81648 1,1.05902 0,0.24254 -0.45,0.44098 -1,0.44098 -0.55,0 -1,-0.47656 -1,-1.05902 z M 110.5,471 c -1.63041,-0.70061 -1.68751,-0.87242 -0.30902,-0.92971 0.93004,-0.0387 1.9691,0.37971 2.30902,0.92971 0.71066,1.14988 0.67591,1.14988 -2,0 z m -3.75,-2.66228 c 0.6875,-0.27741 1.8125,-0.27741 2.5,0 0.6875,0.27741 0.125,0.50439 -1.25,0.50439 -1.375,0 -1.9375,-0.22698 -1.25,-0.50439 z m -20.9375,-3.02083 c 0.721875,-0.28887 1.584375,-0.25335 1.916667,0.0789 0.332291,0.33229 -0.258334,0.56864 -1.3125,0.52522 -1.164943,-0.048 -1.4019,-0.28494 -0.604167,-0.60416 z M 98.5,461 c -0.339919,-0.55 -0.141476,-1 0.440983,-1 0.582459,0 1.059017,0.45 1.059017,1 0,0.55 -0.198442,1 -0.440983,1 -0.242541,0 -0.719098,-0.45 -1.059017,-1 z m 34.57895,-5.58333 c 0.048,-1.16495 0.28494,-1.4019 0.60416,-0.60417 0.28887,0.72187 0.25335,1.58438 -0.0789,1.91667 -0.3323,0.33229 -0.56864,-0.25834 -0.52522,-1.3125 z M 86,454.75 c 0,-0.4125 0.873442,-0.75 1.940983,-0.75 1.067541,0 2.149569,0.3375 2.404509,0.75 0.254939,0.4125 -0.618504,0.75 -1.940984,0.75 C 87.082029,455.5 86,455.1625 86,454.75 Z m 121.50708,-0.73855 c -0.35034,-0.56686 0.0511,-0.7345 0.94098,-0.39301 1.73242,0.66479 2.04939,1.38156 0.61096,1.38156 -0.51754,0 -1.21592,-0.44485 -1.55194,-0.98855 z m 97.11646,-0.55011 c -0.96498,-2.51469 -0.68031,-3.16355 0.49853,-1.13634 0.58369,1.00375 0.8506,2.03566 0.59313,2.29313 -0.25747,0.25747 -0.74872,-0.26309 -1.09166,-1.15679 z M 201.8125,451.31689 c 0.72187,-0.28887 1.58437,-0.25335 1.91667,0.0789 0.33229,0.33229 -0.25834,0.56864 -1.3125,0.52522 -1.16495,-0.048 -1.4019,-0.28494 -0.60417,-0.60416 z M 152,450 c 0,-0.55 0.45,-1 1,-1 0.55,0 1,0.45 1,1 0,0.55 -0.45,1 -1,1 -0.55,0 -1,-0.45 -1,-1 z m 154,0.059 c 0,-0.51754 0.44485,-1.21592 0.98855,-1.55194 0.56686,-0.35034 0.7345,0.0511 0.39301,0.94098 C 306.71677,451.18048 306,451.49745 306,450.05902 Z m -41.1875,-0.74213 c 0.72187,-0.28887 1.58438,-0.25335 1.91667,0.0789 0.33229,0.33229 -0.25834,0.56864 -1.3125,0.52522 -1.16495,-0.048 -1.4019,-0.28494 -0.60417,-0.60416 z M 194,448 c 0,-0.55 0.47656,-1 1.05902,-1 0.58246,0 0.7809,0.45 0.44098,1 -0.33992,0.55 -0.81648,1 -1.05902,1 C 194.19844,449 194,448.55 194,448 Z m -57.49292,-0.98855 c -0.35034,-0.56686 0.0511,-0.7345 0.94098,-0.39301 1.73242,0.66479 2.04939,1.38156 0.61096,1.38156 -0.51754,0 -1.21592,-0.44485 -1.55194,-0.98855 z M 238,447.05902 c 0,-0.51754 0.44485,-1.21592 0.98855,-1.55194 0.56686,-0.35034 0.7345,0.0511 0.39301,0.94098 C 238.71677,448.18048 238,448.49745 238,447.05902 Z m -91.26667,-2.18311 c 0.67834,-0.68342 1.48524,-0.99067 1.79313,-0.68278 0.30789,0.30789 -0.24711,0.86705 -1.23333,1.24258 -1.4252,0.54268 -1.54006,0.42782 -0.5598,-0.5598 z M 135,440 c -0.90129,-0.58246 -1.02463,-0.97549 -0.30902,-0.98469 0.65504,-0.008 1.4691,0.43469 1.80902,0.98469 0.7673,1.24153 0.42112,1.24153 -1.5,0 z m 79.50708,0.0115 c -0.35034,-0.56686 0.0511,-0.7345 0.94098,-0.39301 1.73242,0.66479 2.04939,1.38156 0.61096,1.38156 -0.51754,0 -1.21592,-0.44485 -1.55194,-0.98855 z m 79.47286,-0.53562 c -0.69572,-0.83829 -1.07128,-1.71782 -0.83459,-1.95452 0.2367,-0.23669 0.97964,0.44918 1.65098,1.52417 1.45181,2.32472 0.96763,2.57996 -0.81639,0.43035 z M 132,436.94098 c 0,-0.58246 0.45,-0.7809 1,-0.44098 0.55,0.33992 1,0.81648 1,1.05902 0,0.24254 -0.45,0.44098 -1,0.44098 -0.55,0 -1,-0.47656 -1,-1.05902 z M 212.15789,436 c 0,-1.375 0.22698,-1.9375 0.50439,-1.25 0.27741,0.6875 0.27741,1.8125 0,2.5 -0.27741,0.6875 -0.50439,0.125 -0.50439,-1.25 z m 107.87274,-1.5 c 0,-0.55 0.43621,-1.675 0.96937,-2.5 0.53316,-0.825 0.96937,-1.05 0.96937,-0.5 0,0.55 -0.43621,1.675 -0.96937,2.5 -0.53316,0.825 -0.96937,1.05 -0.96937,0.5 z M 302.5,433 c -0.33992,-0.55 -0.14148,-1 0.44098,-1 0.58246,0 1.05902,0.45 1.05902,1 0,0.55 -0.19844,1 -0.44098,1 -0.24254,0 -0.7191,-0.45 -1.05902,-1 z m 18.23121,-6.91984 c -0.43497,-1.66335 -0.30483,-2.05378 0.43724,-1.31171 0.5811,0.5811 0.85979,1.64682 0.61931,2.36826 -0.24965,0.74895 -0.70294,0.29565 -1.05655,-1.05655 z M 305.5,421 c 0.33992,-0.55 0.81648,-1 1.05902,-1 0.24254,0 0.44098,0.45 0.44098,1 0,0.55 -0.47656,1 -1.05902,1 -0.58246,0 -0.7809,-0.45 -0.44098,-1 z m -94.42105,-1.58333 c 0.048,-1.16495 0.28494,-1.4019 0.60416,-0.60417 0.28887,0.72187 0.25335,1.58438 -0.0789,1.91667 -0.3323,0.33229 -0.56864,-0.25834 -0.52522,-1.3125 z m 42.42813,-3.40522 c -0.35034,-0.56686 0.0511,-0.7345 0.94098,-0.39301 1.73242,0.66479 2.04939,1.38156 0.61096,1.38156 -0.51754,0 -1.21592,-0.44485 -1.55194,-0.98855 z m -29.77041,-1.6844 c -0.96983,-0.26336 -2.6336,-2.28009 -3.69726,-4.48162 -1.35686,-2.80837 -1.50208,-3.64437 -0.48667,-2.80166 1.17739,0.97715 1.44726,0.84377 1.44726,-0.71527 0,-1.05401 1.82463,-3.6454 4.05473,-5.75863 2.25663,-2.13838 3.82407,-4.44332 3.5346,-5.19768 C 228.01759,393.88227 232.72997,389 234.73978,389 235.4329,389 236,388.415 236,387.7 c 0,-2.74482 2.12565,-3.57435 4.1,-1.6 1.045,1.045 1.9,2.15714 1.9,2.47143 0,0.31428 0.67411,1.24553 1.49802,2.06944 1.12871,1.12872 1.24058,1.97905 0.45375,3.44924 -0.57434,1.07317 -0.72892,2.46145 -0.34351,3.08507 0.42961,0.69511 0.25404,0.85775 -0.45375,0.42031 C 242.46353,397.16844 242,397.53159 242,398.5 c 0,0.88992 0.44485,1.3431 0.98855,1.00708 0.5437,-0.33603 0.74822,0.0153 0.45449,0.78077 -0.29373,0.76545 0.16697,1.97352 1.02378,2.68461 1.76708,1.46655 0.40105,4.02754 -2.14828,4.02754 -0.79012,0 -1.20878,0.36858 -0.93037,0.81906 0.27841,0.45048 -0.82003,0.6244 -2.44098,0.3865 -1.75738,-0.25793 -2.94719,0.017 -2.94719,0.68094 0,0.61243 -0.64948,1.1135 -1.4433,1.1135 -0.79381,0 -2.05143,0.86824 -2.79471,1.92943 -1.44891,2.0686 -5.15715,3.17647 -8.02532,2.39762 z m 8.43178,-20.5586 c -0.74207,-0.74207 -0.87221,-0.35164 -0.43724,1.31171 0.35361,1.3522 0.8069,1.8055 1.05655,1.05655 0.24048,-0.72144 -0.0382,-1.78716 -0.61931,-2.36826 z m 95.9105,19.64822 c 0.048,-1.16495 0.28494,-1.4019 0.60416,-0.60417 0.28887,0.72187 0.25335,1.58438 -0.0789,1.91667 -0.33229,0.33229 -0.56864,-0.25834 -0.52522,-1.3125 z m -115,-2 c 0.048,-1.16495 0.28494,-1.4019 0.60416,-0.60417 0.28887,0.72187 0.25335,1.58438 -0.0789,1.91667 -0.3323,0.33229 -0.56864,-0.25834 -0.52522,-1.3125 z m 116.87521,-0.50232 c -0.61391,-1.1471 -0.92784,-2.274 -0.69762,-2.50422 0.23022,-0.23022 0.93203,0.70832 1.55958,2.08564 1.37807,3.02454 0.70709,3.35038 -0.86196,0.41858 z m -92.39652,-0.82109 c -0.30822,-0.49871 0.34022,-0.67122 1.44098,-0.38337 2.33499,0.61061 2.63015,1.29011 0.5604,1.29011 -0.79254,0 -1.69316,-0.40803 -2.00138,-0.90674 z m 94.00665,-0.80013 c -0.54268,-1.4252 -0.42782,-1.54006 0.5598,-0.5598 0.68342,0.67834 0.99067,1.48524 0.68278,1.79313 -0.30789,0.30789 -0.86705,-0.24711 -1.24258,-1.23333 z M 217,404.28911 c 0,-0.57432 0.7875,-1.66182 1.75,-2.41667 1.61876,-1.26951 1.63998,-1.22245 0.28297,0.62756 -0.80687,1.1 -1.59437,2.1875 -1.75,2.41667 C 217.12734,405.14583 217,404.86343 217,404.28911 Z m 41,-3.34813 c 0,-0.58246 0.45,-0.7809 1,-0.44098 0.55,0.33992 1,0.81648 1,1.05902 0,0.24254 -0.45,0.44098 -1,0.44098 -0.55,0 -1,-0.47656 -1,-1.05902 z m -6,-12.35765 C 252,387.7125 252.7125,387 253.58333,387 c 0.87084,0 1.40521,0.53437 1.1875,1.1875 C 254.15276,390.04172 252,390.34926 252,388.58333 Z m 89.07895,-6.16666 c 0.048,-1.16495 0.28494,-1.4019 0.60416,-0.60417 0.28887,0.72187 0.25335,1.58438 -0.0789,1.91667 -0.33229,0.33229 -0.56864,-0.25834 -0.52522,-1.3125 z M 230,377.55902 c 0,-0.79254 0.40803,-1.69316 0.90674,-2.00138 0.49871,-0.30822 0.67122,0.34022 0.38337,1.44098 C 230.6795,379.33361 230,379.62877 230,377.55902 Z m -4.1755,-5.88484 c -0.37205,-1.82482 -0.23268,-2.48236 0.39346,-1.85622 0.53328,0.53328 0.79255,1.8049 0.57615,2.82582 -0.29142,1.37482 -0.54288,1.12336 -0.96961,-0.9696 z M 256.5,366 c -0.34913,-1.1 -1.05445,-2 -1.56739,-2 C 254.41968,364 254,363.325 254,362.5 c 0,-2.1297 1.75982,-1.85745 3.23207,0.5 0.68696,1.1 2.12679,2 3.19961,2 1.92981,0 1.92992,0.0156 0.009,1.4682 -2.5958,1.96336 -3.19186,1.89256 -3.94113,-0.4682 z m 27.5,0.94098 c 0,-0.58246 0.45,-0.7809 1,-0.44098 0.55,0.33992 1,0.81648 1,1.05902 0,0.24254 -0.45,0.44098 -1,0.44098 -0.55,0 -1,-0.47656 -1,-1.05902 z M 250.5,364 c -0.33992,-0.55 -0.14148,-1 0.44098,-1 0.58246,0 1.05902,0.45 1.05902,1 0,0.55 -0.19844,1 -0.44098,1 -0.24254,0 -0.7191,-0.45 -1.05902,-1 z m 38.57895,-3.58333 c 0.048,-1.16495 0.28494,-1.4019 0.60416,-0.60417 0.28887,0.72187 0.25335,1.58438 -0.0789,1.91667 -0.33229,0.33229 -0.56864,-0.25834 -0.52522,-1.3125 z M 252,359.46862 c 0,-1.61739 1.56262,-1.98533 2.43524,-0.5734 0.3043,0.49236 -0.11914,1.15324 -0.94098,1.46861 C 252.5866,360.71213 252,360.3607 252,359.46862 Z m -2.39713,-2.06113 c -0.77541,-2.02069 1.38958,-3.81504 2.84591,-2.35871 0.62067,0.62067 0.40463,1.52638 -0.60489,2.5359 -1.4272,1.4272 -1.63155,1.41104 -2.24102,-0.17719 z M 287.5,357 c -0.33992,-0.55 -0.14148,-1 0.44098,-1 0.58246,0 1.05902,0.45 1.05902,1 0,0.55 -0.19844,1 -0.44098,1 -0.24254,0 -0.7191,-0.45 -1.05902,-1 z m 13.65789,-7 c 0,-1.375 0.22698,-1.9375 0.50439,-1.25 0.27741,0.6875 0.27741,1.8125 0,2.5 -0.27741,0.6875 -0.50439,0.125 -0.50439,-1.25 z m -188.42668,-4.91984 c -0.43497,-1.66335 -0.30483,-2.05378 0.43724,-1.31171 0.5811,0.5811 0.85979,1.64682 0.61931,2.36826 -0.24965,0.74895 -0.70294,0.29565 -1.05655,-1.05655 z M 220.5,342 c -0.33992,-0.55 -0.14148,-1 0.44098,-1 0.58246,0 1.05902,0.45 1.05902,1 0,0.55 -0.19844,1 -0.44098,1 -0.24254,0 -0.7191,-0.45 -1.05902,-1 z m -10.94236,-4.90674 c -0.30822,-0.49871 0.34022,-0.67122 1.44098,-0.38337 2.33499,0.61061 2.63015,1.29011 0.5604,1.29011 -0.79254,0 -1.69316,-0.40803 -2.00138,-0.90674 z M 301.28601,332.5 c 0.008,-2.75 0.20172,-3.75631 0.43157,-2.23625 0.22986,1.52006 0.22371,3.77006 -0.0136,5 -0.23736,1.22994 -0.42542,-0.0138 -0.41792,-2.76375 z m -94.94093,0.95687 c -0.32569,-0.84872 -0.36872,-1.76657 -0.0956,-2.03966 0.27309,-0.2731 0.73656,0.42131 1.02992,1.54313 0.62315,2.38293 -0.0692,2.75089 -0.9343,0.49653 z M 96.75,333.33772 c 0.6875,-0.27741 1.8125,-0.27741 2.5,0 0.6875,0.27741 0.125,0.50439 -1.25,0.50439 -1.375,0 -1.9375,-0.22698 -1.25,-0.50439 z M 105.46862,332.5 c -0.25774,-0.825 -0.68847,-2.19837 -0.95717,-3.05194 -0.2687,-0.85356 -0.0974,-1.31021 0.3806,-1.01478 0.47803,0.29544 1.08547,1.66881 1.34988,3.05194 0.52248,2.73322 -0.0158,3.43957 -0.77331,1.01478 z M 313.15789,325 c 0,-1.375 0.22698,-1.9375 0.50439,-1.25 0.27741,0.6875 0.27741,1.8125 0,2.5 -0.27741,0.6875 -0.50439,0.125 -0.50439,-1.25 z m 8.65461,1.31689 c 0.72187,-0.28887 1.58438,-0.25335 1.91667,0.0789 0.33229,0.33229 -0.25834,0.56864 -1.3125,0.52522 -1.16495,-0.048 -1.4019,-0.28494 -0.60417,-0.60416 z M 297.5,324 c -0.33992,-0.55 -0.14148,-1 0.44098,-1 0.58246,0 1.05902,0.45 1.05902,1 0,0.55 -0.19844,1 -0.44098,1 -0.24254,0 -0.7191,-0.45 -1.05902,-1 z m 20.71294,-3.29371 c -0.28125,-1.07552 -1.05774,-1.59609 -1.89913,-1.27322 -2.22731,0.8547 -9.03198,-6.05573 -9.60045,-9.74967 -0.26945,-1.75087 -0.79955,-4.3084 -1.17801,-5.6834 -0.65607,-2.38362 -0.87062,-3.95883 -2.11113,-15.5 -0.62477,-5.81256 -2.44447,-8.81319 -4.79716,-7.91038 -1.21922,0.46785 -1.6269,0.0335 -1.6264,-1.73263 5.7e-4,-2.05716 -0.47647,-2.35699 -3.75,-2.35699 -2.4672,0 -3.66511,-0.42775 -3.50066,-1.25 0.1375,-0.6875 -0.425,-1.25 -1.25,-1.25 -0.825,0 -1.5,0.37024 -1.5,0.82274 0,2.00238 -9.64926,5.58907 -15.15329,5.63257 -3.1093,0.0246 -5.44525,-0.29281 -5.19098,-0.70531 0.25427,-0.4125 0.0123,-0.75 -0.5377,-0.75 -1.67914,0 -2.35633,2.00793 -1.16238,3.44656 0.84788,1.02163 0.80719,1.4883 -0.16391,1.88006 -1.0113,0.40798 -0.97217,0.74307 0.18023,1.54345 1.26855,0.88105 1.234,1.11366 -0.25,1.68312 -0.97898,0.37568 -1.72197,1.71474 -1.72197,3.10346 0,2.89313 -2.34064,7.71643 -5.69395,11.73337 -1.32691,1.58951 -2.16875,3.52538 -1.87076,4.30194 0.30447,0.79345 0.1008,1.13936 -0.46498,0.78969 -0.55373,-0.34222 -2.46108,0.26825 -4.23855,1.35662 -4.18514,2.56261 -7.03466,2.98516 -9.01989,1.33756 -0.87747,-0.72823 -3.60449,-1.4018 -6.06005,-1.49684 -2.45557,-0.095 -4.25522,-0.51168 -3.99923,-0.92589 0.256,-0.4142 -0.47225,-0.7531 -1.61832,-0.7531 -1.27988,0 -2.43608,-0.92665 -2.997,-2.40198 -0.58763,-1.54557 -2.27238,-2.83238 -4.72525,-3.60913 -2.09661,-0.66393 -5.52221,-2.54748 -7.61244,-4.18566 -2.13725,-1.67503 -4.45752,-2.72636 -5.30194,-2.40233 -0.82583,0.31691 -1.24054,0.15392 -0.92157,-0.36218 0.85844,-1.38899 -2.64818,-2.93603 -8.59485,-3.79183 -4.8869,-0.7033 -5.31728,-0.99078 -6.11982,-4.08787 -1.07398,-4.14463 0.35701,-6.14255 4.04908,-5.65325 1.47923,0.19604 4.15202,0.38744 5.93952,0.42533 2.76144,0.0585 3.25,0.43634 3.25,2.51314 0,1.34433 1.09201,3.70683 2.4267,5.25 2.20933,2.55445 2.49075,2.64087 3.14186,0.96487 0.4137,-1.06488 0.0231,-3.29229 -0.92669,-5.28393 -2.13364,-4.47428 -2.07018,-5.99907 0.35813,-8.60555 2.46359,-2.64436 2.54603,-4.34377 0.25,-5.15364 -0.9625,-0.3395 -2.37514,-0.90037 -3.1392,-1.24637 -0.81973,-0.37121 -1.12661,-0.20421 -0.74862,0.40739 0.3979,0.6438 -0.14967,0.82982 -1.44533,0.49099 -1.27326,-0.33296 -1.65362,-0.81265 -0.9763,-1.23126 1.69331,-1.04652 -5.09782,-2.79444 -10.3255,-2.65759 -2.53913,0.0665 -4.61625,-0.24494 -4.61583,-0.69201 4.3e-4,-0.44707 -0.95771,-0.67207 -2.12919,-0.5 -1.31932,0.19379 -2.55624,-0.44832 -3.25,-1.68714 -0.61602,-1.1 -1.57003,-2.37995 -2.12003,-2.84433 -0.58157,-0.49104 -0.26774,-0.60878 0.75,-0.28139 0.9625,0.30962 1.75,0.17251 1.75,-0.3047 0,-2.14479 10.21549,-6.07012 21,-8.0693 2.475,-0.4588 7.52046,-1.41004 11.21213,-2.11386 5.36957,-1.02371 8.46986,-1.03528 15.5,-0.0578 6.21145,0.86361 9.81206,0.92126 12.28127,0.19663 1.92137,-0.56386 4.17137,-0.98102 5,-0.92702 0.82863,0.054 -0.50287,0.63423 -2.95888,1.28942 l -4.46548,1.19125 2.96548,1.19285 c 1.63101,0.65606 4.76548,1.27751 6.96548,1.381 2.2,0.10349 4.45,0.5112 5,0.90603 0.55,0.39483 4.2531,1.63081 8.22912,2.74661 3.97601,1.1158 8.64658,3.03805 10.37902,4.27167 2.5644,1.826 3.49517,2.02731 5.00732,1.08296 2.47706,-1.54695 2.32299,-1.63976 3.88454,2.34003 1.46104,3.72364 3.64842,4.57977 4.69995,1.83953 0.54534,-1.42113 0.75238,-1.34906 1.43639,0.5 0.92671,2.50512 4.05151,2.84398 5.8824,0.63789 0.69499,-0.83742 1.98759,-1.29322 2.87244,-1.0129 0.88485,0.28033 2.89365,-0.15738 4.46399,-0.97268 2.52948,-1.31327 2.78972,-1.31179 2.28138,0.0129 -0.73158,1.90649 -0.1576,1.88277 2.89863,-0.11975 1.65278,-1.08294 2.46482,-1.22547 2.46482,-0.43261 0,0.65647 0.77839,0.95232 1.75,0.66514 0.9625,-0.28449 3.70836,-0.79339 6.10191,-1.13089 2.39356,-0.33749 5.54356,-1.07748 7,-1.64442 1.45645,-0.56693 3.69218,-1.15494 4.96828,-1.30669 1.27611,-0.15175 2.79002,-0.74573 3.36425,-1.31996 0.6405,-0.6405 3.8441,-0.83228 8.2882,-0.49618 4.86624,0.36804 7.47413,0.17576 7.94477,-0.58575 0.38534,-0.6235 1.19907,-1.13363 1.80827,-1.13363 0.60921,0 0.78543,0.32222 0.39161,0.71604 -0.39382,0.39383 0.99368,1.18959 3.08333,1.76838 3.26644,0.90472 4.26674,1.93356 7.13118,7.33464 3.84607,7.25202 3.93772,6.93297 -4.96783,17.29397 -4.53504,5.27621 -4.86481,6.04625 -5.4955,12.83226 -0.59019,6.35022 -0.95368,7.32671 -3.01971,8.11221 -1.29182,0.49115 -2.34876,1.38543 -2.34876,1.9873 0,0.60187 -1.0125,0.94642 -2.25,0.76567 -1.61461,-0.23583 -2.89557,0.59171 -4.53605,2.93045 -1.25733,1.79249 -2.71983,3.25908 -3.25,3.25908 -0.53017,0 -0.96395,0.72314 -0.96395,1.60699 0,0.97441 -0.5568,1.39332 -1.41448,1.0642 -0.77797,-0.29853 -3.00643,0.26883 -4.95214,1.26081 -3.20966,1.63638 -3.57769,1.6536 -3.96951,0.1858 -0.3015,-1.12945 -0.46688,-0.97731 -0.54787,0.50402 -0.0996,1.82234 -0.70252,2.10643 -4.27164,2.01285 -3.12061,-0.0818 -4.27413,-0.56212 -4.63142,-1.92838 z M 98.458881,318.93347 c -0.362533,-0.58659 -0.444683,-1.281 -0.182555,-1.54313 0.262128,-0.26213 0.743066,0.21781 1.068751,1.06653 0.676183,1.76211 0.09985,2.07206 -0.886196,0.4766 z m -22.309049,-3.10168 c -0.08241,-1.46752 -0.408809,-3.49252 -0.725337,-4.5 -0.543989,-1.73147 -0.513104,-1.73456 0.563961,-0.0563 0.626707,0.97653 0.953109,3.00153 0.725338,4.5 l -0.41413,2.7245 -0.149832,-2.66821 z M 298.5,317 c -0.33992,-0.55 -0.14148,-1 0.44098,-1 0.58246,0 1.05902,0.45 1.05902,1 0,0.55 -0.19844,1 -0.44098,1 -0.24254,0 -0.7191,-0.45 -1.05902,-1 z m -198.34211,-3 c 0,-1.375 0.22698,-1.9375 0.50439,-1.25 0.27741,0.6875 0.27741,1.8125 0,2.5 -0.27741,0.6875 -0.50439,0.125 -0.50439,-1.25 z M 299.5,314 c -0.33992,-0.55 -0.14148,-1 0.44098,-1 0.58246,0 1.05902,0.45 1.05902,1 0,0.55 -0.19844,1 -0.44098,1 -0.24254,0 -0.7191,-0.45 -1.05902,-1 z m 3.5,-1.39301 c 0,-0.21616 0.69837,-0.661 1.55194,-0.98855 0.88992,-0.34149 1.29132,-0.17385 0.94098,0.39301 C 304.90566,312.96166 303,313.4169 303,312.60699 Z M 351.5,310 c -0.33992,-0.55 -0.14148,-1 0.44098,-1 0.58246,0 1.05902,0.45 1.05902,1 0,0.55 -0.19844,1 -0.44098,1 -0.24254,0 -0.7191,-0.45 -1.05902,-1 z m -126.42105,-1.58333 c 0.048,-1.16495 0.28494,-1.4019 0.60416,-0.60417 0.28887,0.72187 0.25335,1.58438 -0.0789,1.91667 -0.3323,0.33229 -0.56864,-0.25834 -0.52522,-1.3125 z M 118.67335,307.25 c -0.24458,-0.4125 -0.75708,-3.225 -1.13889,-6.25 -0.79781,-6.32086 -3.18478,-15.35458 -5.02035,-19 -0.69235,-1.375 -1.85349,-4.87092 -2.58031,-7.76872 -0.72682,-2.89779 -1.79676,-5.12893 -2.37765,-4.95807 -0.58088,0.17085 -1.9445,2.20427 -3.03027,4.51872 -2.17478,4.6358 -2.68188,4.89848 -5.264449,2.72706 -0.968787,-0.81456 -2.525468,-2.05206 -3.459292,-2.75 -1.224731,-0.91537 -1.921387,-3.61522 -2.5,-9.68862 -0.725858,-7.61896 -1.006037,-8.43442 -2.946258,-8.57508 -1.662175,-0.12051 -2.394748,0.68107 -3.259138,3.56615 -1.288165,4.29951 -2.184042,4.79943 -7.448443,4.15644 -6.618948,-0.80843 -7.036937,-3.06022 -6.286541,-33.86691 C 74.505774,182.39466 80.905105,147.23803 92.17588,126 94.084154,122.40415 99.353291,114.93732 102.80401,110.93901 116.95659,94.540556 120.75031,90.301287 122.43725,89 139.65096,75.721516 143.56756,73.886455 185,59.687157 c 30.27175,-10.374422 60.57525,-9.836415 87,1.544596 23.02821,9.918136 41.23002,23.352078 56.53568,41.726447 5.88194,7.06124 7.69442,9.80285 13.91077,21.0418 3.02177,5.46326 3.72776,7.93549 4.42628,15.5 0.45709,4.95 0.46355,9.72833 0.0144,10.61852 -0.4492,0.89018 -0.58815,1.84709 -0.30878,2.12646 0.27937,0.27937 -0.18646,0.77441 -1.03518,1.1001 C 344.69441,153.67076 344,153.5847 344,153.15383 344,152.2874 337.55716,149 335.85908,149 c -0.59018,0 -0.8592,0.5625 -0.59783,1.25 0.30762,0.80912 -0.62459,1.3315 -2.64301,1.48106 C 325.5518,152.25469 322,153.88891 322,156.61663 c 0,1.4025 -0.61732,2.4291 -1.5,2.49448 -3.92868,0.29101 -5.16407,0.20653 -7.26452,-0.49682 -1.24549,-0.41705 -1.98869,-1.20459 -1.65157,-1.75007 0.39593,-0.64061 -0.74968,-0.71111 -3.23548,-0.19909 -2.11663,0.43598 -5.27599,0.7241 -7.0208,0.64028 -1.9353,-0.093 -3.38537,0.40268 -3.71861,1.27109 -0.30628,0.79814 -1.87796,1.4235 -3.57764,1.4235 -1.66726,0 -3.03138,0.45 -3.03138,1 0,1.58009 -1.91086,1.19071 -7.44563,-1.5172 -2.82974,-1.38446 -7.13151,-2.85633 -9.5595,-3.27082 -3.58144,-0.6114 -4.52406,-1.22147 -4.99494,-3.2328 -0.50177,-2.14324 -1.21606,-2.52038 -5.27131,-2.7832 -2.9662,-0.19224 -5.15741,-0.92758 -5.95975,-2 -1.42182,-1.90042 -5.24658,-3.93576 -8.26887,-4.40027 -1.1,-0.16907 -2.43713,-1.30083 -2.97141,-2.51503 -0.70536,-1.60304 -1.55818,-2.06037 -3.11394,-1.6699 -1.54071,0.38669 -2.28254,0.002 -2.64091,-1.36801 -0.33119,-1.26646 -2.13796,-2.36478 -5.38605,-3.27415 -2.68823,-0.75261 -6.41299,-2.40344 -8.27724,-3.66851 C 225.2462,130.03505 222.738,129 221.53668,129 c -1.20133,0 -5.93334,-1.12216 -10.5156,-2.49369 -5.67409,-1.69833 -8.7135,-2.17654 -9.52948,-1.49934 -0.83633,0.69409 -1.9776,0.27196 -3.77946,-1.39794 -1.94028,-1.79819 -2.7105,-2.0557 -3.10145,-1.0369 -0.39602,1.03202 -1.19107,1.12151 -3.33232,0.37507 -5.11732,-1.78391 -25.12306,1.87705 -23.61261,4.321 0.35711,0.57783 0.16384,0.74452 -0.43448,0.37474 -1.32571,-0.81934 -7.84195,2.90009 -8.61635,4.91815 -0.31002,0.80791 -1.72729,1.91133 -3.14948,2.45205 -1.42219,0.54071 -2.30716,1.43396 -1.96661,1.98499 0.34056,0.55103 0.19219,1.00187 -0.3297,1.00187 -0.52189,0 -1.85976,1.93779 -2.97304,4.30621 -1.11329,2.36841 -2.76384,4.92009 -3.6679,5.67039 -0.90406,0.7503 -2.23985,2.75001 -2.96842,4.44379 -0.72857,1.69379 -2.21884,4.01026 -3.31172,5.14772 -1.68407,1.75276 -3.45719,5.83414 -4.85789,11.18189 -0.18007,0.6875 -1.16929,1.25 -2.19827,1.25 -1.0497,0 -2.39668,1.15404 -3.06883,2.62923 -1.26477,2.77588 -0.60301,4.76537 0.8195,2.46369 0.4586,-0.74203 1.30008,-1.06099 1.86994,-0.70879 0.56987,0.35219 1.20504,-0.15265 1.41148,-1.12189 0.26421,-1.24044 0.53995,-0.95693 0.93123,0.9575 0.30572,1.49585 0.20197,2.50101 -0.23058,2.23369 -0.43254,-0.26733 -1.08041,-0.0104 -1.4397,0.57094 -0.35929,0.58134 -1.46797,0.79841 -2.46372,0.48236 -1.85437,-0.58855 -5.02122,1.75783 -5.02122,3.72031 0,0.5963 -1.04563,2.47665 -2.32362,4.17857 -2.62084,3.49021 -4.06924,6.57802 -3.83097,8.16713 0.0885,0.59001 -0.96556,2.13095 -2.34228,3.42432 -1.37672,1.29336 -2.50313,3.39813 -2.50313,4.67725 0,1.52413 -0.60315,2.34754 -1.75,2.38908 -1.43352,0.0519 -1.37327,0.21578 0.33316,0.90605 1.60598,0.64965 2.05584,1.6659 1.9639,4.43662 -0.11821,3.56271 1.31261,5.20628 1.60525,1.84394 0.28449,-3.26862 0.39993,-3.749 1.21315,-5.04856 0.55888,-0.89311 1.19133,-0.98423 2.0256,-0.29185 0.66716,0.55369 2.14004,0.76429 3.27307,0.46799 2.11781,-0.55382 4.09243,2.03681 2.36584,3.1039 -0.48547,0.30004 -0.62528,3.03944 -0.31069,6.08756 0.52294,5.06682 0.38801,5.59014 -1.57365,6.10313 -2.00835,0.52519 -2.31876,1.18617 -2.59655,5.52906 -0.0598,0.93568 -1.17393,2.83499 -2.47572,4.22069 -1.84133,1.96 -2.1128,2.82564 -1.22253,3.89835 1.50244,1.81032 2.30923,10.07282 1.26041,12.90805 -0.64878,1.75383 -0.37506,2.45588 1.28192,3.28785 1.75626,0.88182 2.10684,1.9669 2.10684,6.52084 0,6.11769 1.09204,7.64216 3.75079,5.23603 3.41794,-3.09319 4.32649,0.2592 3.1782,11.72696 -1.12964,11.2814 -1.68023,14.53252 -2.66819,15.75515 -0.55783,0.69033 -0.97337,3.29104 -0.92343,5.77935 0.0982,4.89169 -1.25328,9.47384 -3.14993,10.67984 -1.53169,0.97393 -3.44769,0.99095 -4.01409,0.0357 z m -10.68866,-48.5 c 0.008,-1.5125 -0.32219,-2.74857 -0.73469,-2.74683 -0.4125,0.002 -0.77165,1.7938 -0.79811,3.98235 -0.0276,2.283 0.28557,3.45387 0.73469,2.74683 0.43054,-0.67779 0.78969,-2.46985 0.79811,-3.98235 z M 111,248.86786 c 0,-0.35807 1.04261,-0.91272 2.31691,-1.23255 1.98551,-0.49833 2.30733,-1.19325 2.25,-4.85841 -0.0438,-2.79885 -0.6793,-4.79528 -1.83892,-5.7769 -1.16369,-0.98506 -1.83851,-3.11683 -1.96573,-6.20975 -0.17542,-4.2647 -0.34615,-4.57181 -1.80673,-3.25 -0.88716,0.80286 -2.51508,1.45975 -3.6176,1.45975 -1.91183,0 -2.29817,0.85052 -2.40918,5.30368 -0.0247,0.99203 -0.59233,2.01373 -1.26133,2.27045 -3.006067,1.15353 0.52398,12.72711 3.70165,12.13618 0.62201,-0.11567 0.99438,0.59602 0.82748,1.58154 -0.26568,1.56884 -0.0479,1.63224 1.75,0.50946 1.1294,-0.70532 2.05345,-1.57537 2.05345,-1.93345 z m -22,-2.03453 c 0,-3.64127 -0.436527,-3.50932 -1.378376,0.41667 -0.391648,1.63254 -0.245637,2.75 0.359324,2.75 C 88.541427,250 89,248.575 89,246.83333 Z m 1.531009,59.21684 c -0.322864,-0.5224 0.280596,-1.41416 1.341022,-1.98168 1.447252,-0.77455 2.060477,-0.68676 2.459107,0.35206 0.89906,2.34291 -2.467136,3.78645 -3.800129,1.62962 z m -29.799796,-3.13033 c 0.353609,-1.3522 0.806902,-1.8055 1.05655,-1.05655 0.240481,0.72144 -0.03821,1.78716 -0.619313,2.36826 -0.742068,0.74207 -0.872211,0.35164 -0.437237,-1.31171 z m 35.631344,-0.42226 c 0.31607,-0.82367 0.0263,-1.50447 -0.643942,-1.51289 -0.794002,-0.01 -0.712593,-0.33543 0.233639,-0.93402 1.6675,-1.05487 3.360917,-0.36641 2.505041,1.01843 -0.316431,0.51199 0.126229,0.9309 0.983688,0.9309 2.635637,0 1.723517,1.55017 -1.047042,1.77947 -1.951414,0.1615 -2.4617,-0.16051 -2.031384,-1.28189 z M 187,302.55902 c 0,-0.79254 0.40803,-1.69316 0.90674,-2.00138 0.49871,-0.30822 0.67122,0.34022 0.38337,1.44098 C 187.6795,304.33361 187,304.62877 187,302.55902 Z m 32.78263,0.13456 c 1.38442,-0.62369 2.64191,-0.66735 3.1957,-0.11095 0.55293,0.55552 -0.34743,0.96113 -2.28263,1.02832 -2.97515,0.10329 -3.03817,0.04 -0.91307,-0.91737 z M 202.5,302 c 0.33992,-0.55 0.81648,-1 1.05902,-1 0.24254,0 0.44098,0.45 0.44098,1 0,0.55 -0.47656,1 -1.05902,1 -0.58246,0 -0.7809,-0.45 -0.44098,-1 z m 60.5,-1.05902 c 0,-0.58246 0.45,-0.7809 1,-0.44098 0.55,0.33992 1,0.81648 1,1.05902 0,0.24254 -0.45,0.44098 -1,0.44098 -0.55,0 -1,-0.47656 -1,-1.05902 z M 201,299 c -0.90129,-0.58246 -1.02463,-0.97549 -0.30902,-0.98469 0.65504,-0.008 1.4691,0.43469 1.80902,0.98469 0.7673,1.24153 0.42112,1.24153 -1.5,0 z M 59,297.55902 c 0,-0.79254 0.408034,-1.69316 0.906741,-2.00138 0.498708,-0.30822 0.671224,0.34022 0.383369,1.44098 C 59.679497,299.33361 59,299.62877 59,297.55902 Z m 206.62354,-1.09768 c -0.34295,-0.8937 -0.59502,-2.15061 -0.56015,-2.79313 0.0349,-0.64251 0.49453,-0.0904 1.02148,1.22697 0.52695,1.31735 0.77902,2.57426 0.56015,2.79313 -0.21887,0.21887 -0.67854,-0.33327 -1.02148,-1.22697 z m 27.45541,-2.04467 c 0.048,-1.16495 0.28494,-1.4019 0.60416,-0.60417 0.28887,0.72187 0.25335,1.58438 -0.0789,1.91667 -0.33229,0.33229 -0.56864,-0.25834 -0.52522,-1.3125 z M 192,294 c 0,-0.55 0.47656,-1 1.05902,-1 0.58246,0 0.7809,0.45 0.44098,1 -0.33992,0.55 -0.81648,1 -1.05902,1 C 192.19844,295 192,294.55 192,294 Z m 11.8125,-0.68311 c 0.72187,-0.28887 1.58437,-0.25335 1.91667,0.0789 0.33229,0.33229 -0.25834,0.56864 -1.3125,0.52522 -1.16495,-0.048 -1.4019,-0.28494 -0.60417,-0.60416 z m -23.73355,-1.90022 c 0.048,-1.16495 0.28494,-1.4019 0.60416,-0.60417 0.28887,0.72187 0.25335,1.58438 -0.0789,1.91667 -0.3323,0.33229 -0.56864,-0.25834 -0.52522,-1.3125 z M 267.15789,289 c 0,-1.375 0.22698,-1.9375 0.50439,-1.25 0.27741,0.6875 0.27741,1.8125 0,2.5 -0.27741,0.6875 -0.50439,0.125 -0.50439,-1.25 z m -85.07894,-0.58333 c 0.048,-1.16495 0.28494,-1.4019 0.60416,-0.60417 0.28887,0.72187 0.25335,1.58438 -0.0789,1.91667 -0.3323,0.33229 -0.56864,-0.25834 -0.52522,-1.3125 z M 186,285.05902 c 0,-0.51754 0.44485,-1.21592 0.98855,-1.55194 0.56686,-0.35034 0.7345,0.0511 0.39301,0.94098 C 186.71677,286.18048 186,286.49745 186,285.05902 Z M 269,285 c 0,-0.55 0.47656,-1 1.05902,-1 0.58246,0 0.7809,0.45 0.44098,1 -0.33992,0.55 -0.81648,1 -1.05902,1 C 269.19844,286 269,285.55 269,285 Z m 28.07895,-0.58333 c 0.048,-1.16495 0.28494,-1.4019 0.60416,-0.60417 0.28887,0.72187 0.25335,1.58438 -0.0789,1.91667 -0.33229,0.33229 -0.56864,-0.25834 -0.52522,-1.3125 z M 99.860784,281.94354 c -2.236622,-1.94831 -2.245378,-2.00062 -0.166478,-0.99463 1.206874,0.58402 2.470924,1.50943 2.809014,2.05647 0.98306,1.59061 -0.0947,1.15753 -2.642536,-1.06184 z m 92.951716,-3.62665 c 0.72187,-0.28887 1.58437,-0.25335 1.91667,0.0789 0.33229,0.33229 -0.25834,0.56864 -1.3125,0.52522 -1.16495,-0.048 -1.4019,-0.28494 -0.60417,-0.60416 z M 72.078947,276.41667 c 0.04798,-1.16495 0.284941,-1.4019 0.604167,-0.60417 0.288871,0.72187 0.253344,1.58438 -0.07895,1.91667 -0.332292,0.33229 -0.568641,-0.25834 -0.52522,-1.3125 z m 23.53414,0.40035 c 0.28881,-0.4673 0.944015,-0.59075 1.456011,-0.27431 1.308382,0.80862 1.161058,1.12396 -0.525109,1.12396 -0.800807,0 -1.219712,-0.38234 -0.930902,-0.84965 z M 197.5,276 c 0.33992,-0.55 0.81648,-1 1.05902,-1 0.24254,0 0.44098,0.45 0.44098,1 0,0.55 -0.47656,1 -1.05902,1 -0.58246,0 -0.7809,-0.45 -0.44098,-1 z M 66,275 c 0,-0.55 0.476558,-1 1.059017,-1 0.582459,0 0.780902,0.45 0.440983,1 -0.339919,0.55 -0.816476,1 -1.059017,1 C 66.198442,276 66,275.55 66,275 Z m 26,-1 c -0.588702,-1.1 -0.929543,-2 -0.757425,-2 0.172119,0 1.083547,0.9 2.025397,2 0.941849,1.1 1.28269,2 0.757424,2 C 93.50013,276 92.588702,275.1 92,274 Z m -6.5,-6 c -0.339919,-0.55 -0.141476,-1 0.440983,-1 C 86.523442,267 87,267.45 87,268 c 0,0.55 -0.198442,1 -0.440983,1 -0.242541,0 -0.719098,-0.45 -1.059017,-1 z m 5.578947,-0.58333 c 0.04798,-1.16495 0.284941,-1.4019 0.604167,-0.60417 0.288871,0.72187 0.253344,1.58438 -0.07895,1.91667 -0.332292,0.33229 -0.568641,-0.25834 -0.52522,-1.3125 z m 88.484923,-3.31332 c -0.29801,-0.4822 0.0881,-1.39958 0.85811,-2.0386 1.82306,-1.51301 2.78198,0.0529 1.02592,1.67529 -0.73819,0.68203 -1.58601,0.84552 -1.88403,0.36331 z M 126.01531,258.75 c 0.0124,-1.81944 0.20082,-1.96296 0.98469,-0.75 1.25292,1.93876 1.25292,3 0,3 -0.55,0 -0.99311,-1.0125 -0.98469,-2.25 z M 124,257.05902 c 0,-0.51754 0.44485,-1.21592 0.98855,-1.55194 0.56686,-0.35034 0.7345,0.0511 0.39301,0.94098 C 124.71677,258.18048 124,258.49745 124,257.05902 Z m 131.50708,-8.04757 c -0.35034,-0.56686 0.0511,-0.7345 0.94098,-0.39301 1.73242,0.66479 2.04939,1.38156 0.61096,1.38156 -0.51754,0 -1.21592,-0.44485 -1.55194,-0.98855 z M 219,246.60699 c 0,-0.21616 0.69837,-0.661 1.55194,-0.98855 0.88992,-0.34149 1.29132,-0.17385 0.94098,0.39301 C 220.90566,246.96166 219,247.4169 219,246.60699 Z m 142.62354,-6.14565 c -0.96498,-2.51469 -0.68031,-3.16355 0.49853,-1.13634 0.58369,1.00375 0.8506,2.03566 0.59313,2.29313 -0.25747,0.25747 -0.74872,-0.26309 -1.09166,-1.15679 z M 130.98469,233.41667 C 130.97188,231.81309 130.81102,231.74503 130,233 c -0.58246,0.90129 -0.97549,1.02463 -0.98469,0.30902 -0.025,-1.94336 1.94774,-2.56889 2.61529,-0.82927 0.33906,0.88358 0.33588,1.8871 -0.007,2.23004 -0.34295,0.34295 -0.63043,-0.23896 -0.63885,-1.29312 z m -7.90574,-3 c 0.048,-1.16495 0.28494,-1.4019 0.60416,-0.60417 0.28887,0.72187 0.25335,1.58437 -0.0789,1.91667 -0.3323,0.33229 -0.56864,-0.25834 -0.52522,-1.3125 z M 130,225.55902 c 0,-0.79254 0.40803,-1.69316 0.90674,-2.00138 0.49871,-0.30822 0.67122,0.34022 0.38337,1.44098 C 130.6795,227.33361 130,227.62877 130,225.55902 Z M 227,221 c 0,-0.55 0.47656,-1 1.05902,-1 0.58246,0 0.7809,0.45 0.44098,1 -0.33992,0.55 -0.81648,1 -1.05902,1 C 227.19844,222 227,221.55 227,221 Z m -6.5,-7 c -0.33992,-0.55 -0.16803,-1 0.38197,-1 0.55,0 1.27811,0.45 1.61803,1 0.33992,0.55 0.16803,1 -0.38197,1 -0.55,0 -1.27811,-0.45 -1.61803,-1 z m -10,-8 c -0.33992,-0.55 -0.14148,-1 0.44098,-1 0.58246,0 1.05902,0.45 1.05902,1 0,0.55 -0.19844,1 -0.44098,1 -0.24254,0 -0.7191,-0.45 -1.05902,-1 z m -73.42105,-7.58333 c 0.048,-1.16495 0.28494,-1.4019 0.60416,-0.60417 0.28887,0.72187 0.25335,1.58437 -0.0789,1.91667 -0.3323,0.33229 -0.56864,-0.25834 -0.52522,-1.3125 z m 1,-8 c 0.048,-1.16495 0.28494,-1.4019 0.60416,-0.60417 0.28887,0.72187 0.25335,1.58437 -0.0789,1.91667 -0.3323,0.33229 -0.56864,-0.25834 -0.52522,-1.3125 z m 218.70767,0.76281 c -1.1548,-0.45829 -1.43435,-1.13144 -0.85748,-2.06482 0.68121,-1.10222 1.08909,-0.94911 1.99856,0.75024 0.62847,1.17431 1.01433,2.10347 0.85748,2.06481 -0.15685,-0.0386 -1.0562,-0.37626 -1.99856,-0.75023 z m -215.70767,-2.76281 c 0.048,-1.16495 0.28494,-1.4019 0.60416,-0.60417 0.28887,0.72187 0.25335,1.58437 -0.0789,1.91667 -0.3323,0.33229 -0.56864,-0.25834 -0.52522,-1.3125 z M 205.5,187 c 0.33992,-0.55 0.81648,-1 1.05902,-1 0.24254,0 0.44098,0.45 0.44098,1 0,0.55 -0.47656,1 -1.05902,1 -0.58246,0 -0.7809,-0.45 -0.44098,-1 z m 11,0 c -1.63041,-0.70061 -1.68751,-0.87242 -0.30902,-0.92971 0.93004,-0.0387 1.9691,0.37971 2.30902,0.92971 0.71066,1.14988 0.67591,1.14988 -2,0 z m 138.65789,-3 c 0,-1.375 0.22698,-1.9375 0.50439,-1.25 0.27741,0.6875 0.27741,1.8125 0,2.5 -0.27741,0.6875 -0.50439,0.125 -0.50439,-1.25 z m -126.078,-7.75 c 1.6233,-2.60664 2.58678,-2.88598 2.58678,-0.75 0,0.825 -0.2211,1.2789 -0.49133,1.00868 -0.27023,-0.27023 -1.16752,0.0673 -1.99399,0.75 -1.32611,1.09548 -1.33803,0.97697 -0.10146,-1.00868 z m -26.04926,-1.75 c 0,-0.55 0.43621,-1.675 0.96937,-2.5 0.53316,-0.825 0.96937,-1.05 0.96937,-0.5 0,0.55 -0.43621,1.675 -0.96937,2.5 -0.53316,0.825 -0.96937,1.05 -0.96937,0.5 z M 221.5,174 c -0.33992,-0.55 -0.14148,-1 0.44098,-1 0.58246,0 1.05902,0.45 1.05902,1 0,0.55 -0.19844,1 -0.44098,1 -0.24254,0 -0.7191,-0.45 -1.05902,-1 z m 3.3125,0.31689 c 0.72187,-0.28887 1.58437,-0.25335 1.91667,0.0789 0.33229,0.33229 -0.25834,0.56864 -1.3125,0.52522 -1.16495,-0.048 -1.4019,-0.28494 -0.60417,-0.60416 z M 218,172.94098 c 0,-0.58246 0.45,-0.7809 1,-0.44098 0.55,0.33992 1,0.81648 1,1.05902 0,0.24254 -0.45,0.44098 -1,0.44098 -0.55,0 -1,-0.47656 -1,-1.05902 z m -19.59549,-1.09549 c -0.46456,-0.75168 -0.27169,-0.88143 0.55278,-0.37188 0.73768,0.45591 1.63071,0.20731 2.1392,-0.59549 0.69036,-1.08994 0.87609,-1.01218 0.8882,0.37188 0.0172,1.96101 -2.47959,2.37629 -3.58018,0.59549 z m -57.84022,-2.55236 c -0.54268,-1.4252 -0.42782,-1.54006 0.5598,-0.5598 0.68342,0.67834 0.99067,1.48524 0.68278,1.79313 -0.30789,0.30789 -0.86705,-0.24711 -1.24258,-1.23333 z M 217.5,170 c 0.33992,-0.55 0.81648,-1 1.05902,-1 0.24254,0 0.44098,0.45 0.44098,1 0,0.55 -0.47656,1 -1.05902,1 -0.58246,0 -0.7809,-0.45 -0.44098,-1 z m -12,-1 c 0.33992,-0.55 0.81648,-1 1.05902,-1 0.24254,0 0.44098,0.45 0.44098,1 0,0.55 -0.47656,1 -1.05902,1 -0.58246,0 -0.7809,-0.45 -0.44098,-1 z m 13.44727,-2.63869 c -0.55177,-1.45128 -0.77623,-2.86568 -0.49879,-3.14313 0.45224,-0.45223 0.94427,0.60152 2.11607,4.53182 0.70933,2.37914 -0.61811,1.23933 -1.61728,-1.38869 z m 61.13168,-2.94464 c 0.048,-1.16495 0.28494,-1.4019 0.60416,-0.60417 0.28887,0.72187 0.25335,1.58437 -0.0789,1.91667 -0.33229,0.33229 -0.56864,-0.25834 -0.52522,-1.3125 z m 46.54459,-5.95533 c -0.96498,-2.51469 -0.68031,-3.16355 0.49853,-1.13634 0.58369,1.00375 0.8506,2.03566 0.59313,2.29313 -0.25747,0.25747 -0.74872,-0.26309 -1.09166,-1.15679 z m -60.95687,-2.12801 C 265.3,154.96667 265,154.20167 265,153.63333 c 0,-0.6266 0.46577,-0.56756 1.18333,0.15 0.65084,0.65084 0.95084,1.41584 0.66667,1.7 -0.28417,0.28417 -0.81667,0.21667 -1.18333,-0.15 z m -74.58772,-2.91666 c 0.048,-1.16495 0.28494,-1.4019 0.60416,-0.60417 0.28887,0.72187 0.25335,1.58437 -0.0789,1.91667 -0.3323,0.33229 -0.56864,-0.25834 -0.52522,-1.3125 z M 203.5,153 c 0.33992,-0.55 0.81648,-1 1.05902,-1 0.24254,0 0.44098,0.45 0.44098,1 0,0.55 -0.47656,1 -1.05902,1 -0.58246,0 -0.7809,-0.45 -0.44098,-1 z M 193,152.19113 c 0,-0.44488 0.69982,-1.68238 1.55517,-2.75 1.51163,-1.88679 1.52661,-1.88182 0.53518,0.17739 -0.56099,1.16518 -0.73582,2.40268 -0.3885,2.75 C 195.04917,152.71583 194.80833,153 194.16667,153 193.525,153 193,152.63601 193,152.19113 Z M 196,152 c 0,-0.55 0.47656,-1 1.05902,-1 0.58246,0 0.7809,0.45 0.44098,1 -0.33992,0.55 -0.81648,1 -1.05902,1 C 196.19844,153 196,152.55 196,152 Z m 1,-3 c 0,-0.55 0.47656,-1 1.05902,-1 0.58246,0 0.7809,0.45 0.44098,1 -0.33992,0.55 -0.81648,1 -1.05902,1 C 197.19844,150 197,149.55 197,149 Z m -6.97104,-1.96094 c -0.80907,-0.51167 -1.2107,-1.19066 -0.8925,-1.50885 0.3182,-0.3182 1.14776,0.10733 1.84348,0.94562 1.4426,1.73822 1.16599,1.90204 -0.95098,0.56323 z m 0.05,-9.62239 c 0.048,-1.16495 0.28494,-1.4019 0.60416,-0.60417 0.28887,0.72187 0.25335,1.58437 -0.0789,1.91667 -0.3323,0.33229 -0.56864,-0.25834 -0.52522,-1.3125 z M 182,135 c -0.5887,-1.1 -0.84537,-2 -0.57037,-2 0.275,0 0.98167,0.9 1.57037,2 0.5887,1.1 0.84537,2 0.57037,2 -0.275,0 -0.98167,-0.9 -1.57037,-2 z m 41.52795,0.0887 c -1.80342,-0.70479 -1.75355,-0.81246 0.58334,-1.25918 1.70405,-0.32575 2.55538,-0.0456 2.55538,0.84097 0,1.48305 -0.30873,1.52419 -3.13872,0.41821 z m -63.71545,-0.77185 c 0.72187,-0.28887 1.58437,-0.25335 1.91667,0.0789 0.33229,0.33229 -0.25834,0.56864 -1.3125,0.52522 -1.16495,-0.048 -1.4019,-0.28494 -0.60417,-0.60416 z m 9.73021,-5.24779 c -0.66498,-1.07595 1.29228,-2.56745 2.19049,-1.66924 0.33007,0.33008 0.0486,0.60014 -0.62555,0.60014 -0.67413,0 -0.94757,0.45 -0.60765,1 0.33992,0.55 0.39303,1 0.11803,1 -0.275,0 -0.75889,-0.41891 -1.07532,-0.9309 z"
     style="fill:#000000" />
</svg>
