<?xml version="1.0" encoding="UTF-8" standalone="no"?>
<svg
   xmlns:dc="http://purl.org/dc/elements/1.1/"
   xmlns:cc="http://creativecommons.org/ns#"
   xmlns:rdf="http://www.w3.org/1999/02/22-rdf-syntax-ns#"
   xmlns:svg="http://www.w3.org/2000/svg"
   xmlns="http://www.w3.org/2000/svg"
   xmlns:sodipodi="http://sodipodi.sourceforge.net/DTD/sodipodi-0.dtd"
   xmlns:inkscape="http://www.inkscape.org/namespaces/inkscape"
   viewBox="0 0 415 714"
   height="714"
   width="415"
   id="svg2"
   version="1.1"
   sodipodi:docname="Io_Crop_4.svg"
   inkscape:version="0.92.1 r15371">
  <sodipodi:namedview
     pagecolor="#ffffff"
     bordercolor="#666666"
     borderopacity="1"
     objecttolerance="10"
     gridtolerance="10"
     guidetolerance="10"
     inkscape:pageopacity="0"
     inkscape:pageshadow="2"
     inkscape:window-width="1366"
     inkscape:window-height="692"
     id="namedview6"
     showgrid="false"
     inkscape:zoom="10.483363"
     inkscape:cx="312.28092"
     inkscape:cy="315.74372"
     inkscape:window-x="0"
     inkscape:window-y="27"
     inkscape:window-maximized="1"
     inkscape:current-layer="svg2" />
  <metadata
     id="metadata8">
    <rdf:RDF>
      <cc:Work
         rdf:about="">
        <dc:format>image/svg+xml</dc:format>
        <dc:type
           rdf:resource="http://purl.org/dc/dcmitype/StillImage" />
        <dc:title />
      </cc:Work>
    </rdf:RDF>
  </metadata>
  <defs
     id="defs6" />
  <path
     id="path3682"
     style="fill:#000000"
     d="M 227.1875,52.285156 C 213.38643,52.359816 199.18988,54.82449 185,59.6875 143.56756,73.886798 139.65121,75.721516 122.4375,89 c -1.68694,1.301287 -5.48023,5.54105 -19.63281,21.93945 -3.450763,3.99831 -8.720635,11.4647 -10.628909,15.06055 -11.270775,21.23803 -17.670438,56.39502 -18.814453,103.36133 -0.750396,30.80669 -0.331851,33.05876 6.28711,33.86719 5.264397,0.64299 6.161053,0.14326 7.449218,-4.15625 0.86439,-2.88508 1.595638,-3.68692 3.257813,-3.56641 1.940221,0.14066 2.221407,0.95526 2.947265,8.57422 0.578613,6.0734 1.275269,8.77408 2.5,9.68945 0.933824,0.69794 2.490198,1.93544 3.458985,2.75 2.582571,2.17142 3.088891,1.90729 5.263671,-2.72851 1.08577,-2.31445 2.45037,-4.34673 3.03125,-4.51758 0.58089,-0.17086 1.65013,2.05924 2.37695,4.95703 0.72682,2.8978 1.88773,6.39453 2.58008,7.76953 1.83557,3.64542 4.22368,12.67914 5.02149,19 0.38181,3.025 0.89409,5.8375 1.13867,6.25 0.5664,0.95525 2.48198,0.93945 4.01367,-0.0352 1.89665,-1.206 3.24859,-5.78799 3.15039,-10.67968 -0.0499,-2.48831 0.366,-5.08897 0.92383,-5.7793 0.98796,-1.22263 1.53833,-4.47446 2.66797,-15.75586 1.14829,-11.46776 0.23825,-14.81975 -3.17969,-11.72656 -2.65875,2.40613 -3.75,0.88136 -3.75,-5.23633 0,-4.55394 -0.35116,-5.63964 -2.10742,-6.52149 -1.65698,-0.83197 -1.93003,-1.53327 -1.28125,-3.2871 1.04882,-2.83523 0.24267,-11.09789 -1.25977,-12.90821 -0.89027,-1.07271 -0.61867,-1.93843 1.22266,-3.89843 1.30179,-1.3857 2.41481,-3.28503 2.47461,-4.22071 0.27779,-4.34289 0.5893,-5.0041 2.59765,-5.52929 1.96166,-0.51303 2.09521,-1.0367 1.57227,-6.10352 -0.31459,-3.04812 -0.17492,-5.7859 0.31055,-6.08594 1.72659,-1.06709 -0.24743,-3.65929 -2.36524,-3.10547 -1.13303,0.2963 -2.60628,0.0869 -3.27344,-0.46679 -0.83427,-0.69238 -1.46651,-0.6021 -2.02539,0.29101 -0.81322,1.29956 -0.9284,1.78021 -1.21289,5.04883 -0.29264,3.36234 -1.72376,1.71896 -1.60546,-1.84375 0.0919,-2.77072 -0.35692,-3.78785 -1.9629,-4.4375 -1.70643,-0.69027 -1.7675,-0.85435 -0.33398,-0.90625 1.14685,-0.0415 1.75,-0.86454 1.75,-2.38867 0,-1.27912 1.12719,-3.38438 2.50391,-4.67774 1.37672,-1.29337 2.43029,-2.83381 2.34179,-3.42382 -0.23827,-1.58911 1.20924,-4.67581 3.83008,-8.16602 1.27799,-1.70192 2.32422,-3.58339 2.32422,-4.17969 0,-1.96248 3.16711,-4.30925 5.02148,-3.7207 0.99575,0.31605 2.10361,0.0989 2.4629,-0.48242 0.35928,-0.58134 1.00691,-0.83763 1.43945,-0.57032 0.43255,0.26733 0.53619,-0.73657 0.23047,-2.23242 -0.39128,-1.91443 -0.66548,-2.19942 -0.92969,-0.95898 -0.20644,0.96924 -0.84224,1.47524 -1.41211,1.12305 -0.56986,-0.3522 -1.41054,-0.0331 -1.86914,0.70898 -1.42251,2.30168 -2.08508,0.31104 -0.82031,-2.46484 0.67215,-1.47519 2.01866,-2.62891 3.06836,-2.62891 1.02898,0 2.01914,-0.5625 2.19921,-1.25 1.40075,-5.34775 3.17336,-9.42888 4.85743,-11.18164 1.09288,-1.13746 2.58393,-3.45465 3.3125,-5.14844 0.72857,-1.69378 2.06273,-3.69306 2.96679,-4.44336 0.90406,-0.7503 2.55468,-3.30151 3.66797,-5.66992 1.11328,-2.36842 2.45272,-4.30664 2.97461,-4.30664 0.52189,0 0.66869,-0.45092 0.32813,-1.00195 -0.34055,-0.55103 0.5446,-1.44367 1.96679,-1.98438 1.42219,-0.54072 2.84037,-1.64521 3.15039,-2.45312 0.7744,-2.01806 7.28953,-5.73731 8.61524,-4.91797 0.59832,0.36978 0.79266,0.20283 0.43555,-0.375 -1.51045,-2.44395 18.49596,-6.10422 23.61328,-4.32031 2.14125,0.74644 2.93601,0.65702 3.33203,-0.375 0.39095,-1.0188 1.16128,-0.7611 3.10156,1.03711 1.80186,1.66988 2.94297,2.09252 3.7793,1.39843 0.81598,-0.6772 3.8552,-0.20028 9.52929,1.49805 4.58226,1.37153 9.3143,2.49414 10.51563,2.49414 1.20132,0 3.70997,1.03572 5.57422,2.30078 1.86425,1.26507 5.58716,2.91536 8.27539,3.66797 3.24809,0.90937 5.05553,2.00698 5.38672,3.27344 0.35837,1.37001 1.09991,1.75583 2.64062,1.36914 1.55576,-0.39047 2.40988,0.0669 3.11524,1.66992 0.53428,1.2142 1.8707,2.3446 2.9707,2.51367 3.02229,0.46451 6.84771,2.49997 8.26953,4.40039 0.80234,1.07242 2.99279,1.80776 5.95899,2 4.05525,0.26282 4.76971,0.63997 5.27148,2.78321 0.47088,2.01133 1.4127,2.62297 4.99414,3.23437 2.42799,0.41449 6.73081,1.88507 9.56055,3.26953 C 289.08946,162.19101 291,162.58009 291,161 c 0,-0.55 1.36399,-1 3.03125,-1 1.69968,0 3.27184,-0.62569 3.57813,-1.42383 0.33323,-0.86841 1.78345,-1.36448 3.71874,-1.27148 1.74483,0.0838 4.90291,-0.20269 7.01954,-0.63867 2.4858,-0.51202 3.63225,-0.44335 3.23632,0.19726 -0.33712,0.54548 0.40686,1.3349 1.65235,1.75195 2.10045,0.70335 3.33499,0.78711 7.26367,0.4961 0.88268,-0.0654 1.5,-1.09164 1.5,-2.49414 0,-2.72772 3.5527,-4.36309 10.61914,-4.88672 2.01842,-0.14956 2.9502,-0.67135 2.64258,-1.48047 -0.26137,-0.6875 0.007,-1.25 0.59766,-1.25 1.69805,0 8.14062,3.28787 8.14062,4.1543 0,0.43087 0.69421,0.51708 1.54297,0.1914 0.84872,-0.32569 1.31452,-0.82219 1.03515,-1.10156 -0.27935,-0.27937 -0.1406,-1.23482 0.3086,-2.125 0.44915,-0.89019 0.44393,-5.66914 -0.0137,-10.61914 -0.69852,-7.56451 -1.40401,-10.03674 -4.42578,-15.5 -6.21635,-11.23895 -8.03017,-13.97978 -13.91211,-21.04102 C 313.23001,84.584683 295.02821,71.150558 272,61.232422 257.96185,55.18626 242.82871,52.200542 227.1875,52.285156 Z M 355.4668,182.46094 c -0.18087,-0.0674 -0.3086,0.50781 -0.3086,1.53906 0,1.375 0.2265,1.9375 0.50391,1.25 0.27741,-0.6875 0.27741,-1.8125 0,-2.5 -0.0693,-0.17188 -0.13502,-0.2666 -0.19531,-0.28906 z m 1.15429,5.95898 c -0.21944,0.0449 -0.43595,0.28198 -0.6914,0.69531 -0.57687,0.93338 -0.29738,1.60617 0.85742,2.06446 0.94236,0.37397 1.8412,0.7114 1.99805,0.75 0.15685,0.0387 -0.22896,-0.89015 -0.85743,-2.06446 -0.56841,-1.06209 -0.9409,-1.52019 -1.30664,-1.44531 z m -245.63476,38.42969 c 0.53683,-0.0525 0.65479,1.00942 0.77539,3.94141 0.12722,3.09292 0.80311,5.22392 1.9668,6.20898 1.15962,0.98162 1.79409,2.97849 1.83789,5.77734 0.0573,3.66516 -0.26449,4.3591 -2.25,4.85743 -1.2743,0.31983 -2.31641,0.87435 -2.31641,1.23242 0,0.35808 -0.92333,1.22827 -2.05273,1.93359 -1.7979,1.12278 -2.01568,1.05908 -1.75,-0.50976 0.1669,-0.98552 -0.20612,-1.69575 -0.82813,-1.58008 -3.17767,0.59093 -6.707255,-10.98319 -3.70117,-12.13672 0.669,-0.25672 1.23702,-1.27946 1.26172,-2.27149 0.11101,-4.45316 0.49637,-5.30273 2.4082,-5.30273 1.10252,0 2.73003,-0.65612 3.61719,-1.45898 0.45643,-0.41307 0.78723,-0.66756 1.03125,-0.69141 z M 88.664062,244.20312 C 88.890925,244.13455 89,245.01335 89,246.83398 89,248.57565 88.540948,250 87.980469,250 c -0.604961,0 -0.751023,-1.11746 -0.359375,-2.75 0.470924,-1.963 0.816123,-2.9783 1.042968,-3.04688 z m 166.919918,4.25196 c -0.23176,0.0465 -0.27275,0.23778 -0.0762,0.55664 0.33602,0.5437 1.03324,0.98828 1.55078,0.98828 1.43843,0 1.1211,-0.71607 -0.61132,-1.38086 -0.22247,-0.0854 -0.41302,-0.13866 -0.57032,-0.16211 -0.11797,-0.0176 -0.21571,-0.0172 -0.29297,-0.002 z m -4.58984,0.64258 c -0.82863,-0.054 -3.07863,0.36387 -5,0.92773 -2.46921,0.72463 -6.0698,0.66634 -12.28125,-0.19727 -7.03014,-0.97748 -10.13043,-0.96511 -15.5,0.0586 C 214.52122,250.59054 209.475,251.5412 207,252 c -10.78451,1.99918 -21,5.92552 -21,8.07031 0,0.47721 -0.7875,0.61431 -1.75,0.30469 -1.01774,-0.32739 -1.33157,-0.20979 -0.75,0.28125 0.55,0.46438 1.50312,1.74375 2.11914,2.84375 0.69376,1.23882 1.93068,1.88129 3.25,1.6875 1.17148,-0.17207 2.13129,0.0529 2.13086,0.5 -4.2e-4,0.44707 2.0761,0.75791 4.61523,0.69141 5.22768,-0.13685 12.01949,1.61168 10.32618,2.6582 -0.67732,0.41861 -0.29865,0.89751 0.97461,1.23047 1.29566,0.33883 1.84321,0.15356 1.44531,-0.49024 -0.37799,-0.6116 -0.0697,-0.77941 0.75,-0.4082 0.76406,0.346 2.17617,0.90659 3.13867,1.24609 2.29603,0.80987 2.21359,2.50994 -0.25,5.1543 -2.42831,2.60648 -2.49106,4.13119 -0.35742,8.60547 0.94979,1.99164 1.33948,4.21832 0.92578,5.2832 -0.65111,1.676 -0.93325,1.58961 -3.14258,-0.96484 -1.33469,-1.54317 -2.42578,-3.90567 -2.42578,-5.25 0,-2.0768 -0.48856,-2.45322 -3.25,-2.51172 -1.7875,-0.0379 -4.46022,-0.22974 -5.93945,-0.42578 -3.69207,-0.4893 -5.12281,1.50771 -4.04883,5.65234 0.80254,3.09709 1.23224,3.38459 6.11914,4.08789 5.94667,0.8558 9.45414,2.40398 8.5957,3.79297 -0.31897,0.5161 0.096,0.67824 0.92188,0.36133 0.84442,-0.32403 3.16353,0.72731 5.30078,2.40234 2.09023,1.63818 5.51667,3.52162 7.61328,4.18555 1.43164,0.45336 2.59284,1.08301 3.43555,1.83399 0.0151,-0.0116 0.0222,-0.0177 0.004,0.004 0.59903,0.53477 1.04106,1.12945 1.28516,1.77149 0.56092,1.47533 1.71817,2.40234 2.99805,2.40234 1.14607,0 1.87318,0.33971 1.61718,0.75391 -0.25599,0.41421 1.54443,0.83078 4,0.92578 2.45556,0.095 5.18113,0.76786 6.0586,1.49609 1.98523,1.6476 4.83634,1.22472 9.02148,-1.33789 1.77747,-1.08837 3.68455,-1.69769 4.23828,-1.35547 0.56578,0.34967 0.76932,0.002 0.46485,-0.79101 -0.29799,-0.77656 0.54418,-2.71127 1.87109,-4.30079 3.35331,-4.01693 5.69336,-8.84124 5.69336,-11.73437 0,-1.38872 0.74368,-2.72784 1.72266,-3.10352 1.484,-0.56946 1.51855,-0.80254 0.25,-1.68359 -1.1524,-0.80038 -1.19294,-1.13499 -0.18164,-1.54297 0.9711,-0.39176 1.01194,-0.85727 0.16406,-1.8789 C 263.76083,281.00834 264.43805,279 266.11719,279 c 0.55,0 0.79333,0.3375 0.53906,0.75 -0.25427,0.4125 2.08211,0.72968 5.19141,0.70508 C 277.35169,280.41158 287,276.82465 287,274.82227 287,274.36977 287.675,274 288.5,274 c 0.825,0 1.3875,0.5625 1.25,1.25 -0.16445,0.82225 1.0328,1.25 3.5,1.25 3.27353,0 3.75057,0.30026 3.75,2.35742 -5e-4,1.76613 0.40773,2.20027 1.62695,1.73242 2.35269,-0.90281 4.17211,2.0976 4.79688,7.91016 1.24051,11.54117 1.45526,13.11638 2.11133,15.5 0.37846,1.375 0.90828,3.93272 1.17773,5.68359 0.56847,3.69394 7.37425,10.6047 9.60156,9.75 0.84139,-0.32287 1.61719,0.19792 1.89844,1.27344 0.35729,1.36626 1.51025,1.84594 4.63086,1.92774 3.56912,0.0936 4.17188,-0.19134 4.27148,-2.01368 0.081,-1.48133 0.24733,-1.63335 0.54883,-0.5039 0.39182,1.4678 0.75909,1.45083 3.96875,-0.18555 1.94571,-0.99198 4.17516,-1.5583 4.95313,-1.25976 0.85768,0.32911 1.41406,-0.09 1.41406,-1.06446 0,-0.88385 0.43467,-1.60742 0.96484,-1.60742 0.53017,0 1.99267,-1.46728 3.25,-3.25977 1.64048,-2.33874 2.92055,-3.16551 4.53516,-2.92968 1.2375,0.18075 2.25,-0.16376 2.25,-0.76563 0,-0.60187 1.05779,-1.49713 2.34961,-1.98828 2.06603,-0.7855 2.42934,-1.76111 3.01953,-8.11133 0.63069,-6.78601 0.9591,-7.55582 5.49414,-12.83203 8.90555,-10.361 8.81482,-10.0429 4.96875,-17.29492 -2.86444,-5.40108 -3.86442,-6.42927 -7.13086,-7.33398 -2.08965,-0.57881 -3.4778,-1.37375 -3.08398,-1.76758 0.39382,-0.39382 0.21858,-0.7168 -0.39063,-0.7168 -0.6092,0 -1.42325,0.50931 -1.80859,1.13281 -0.47064,0.76151 -3.07907,0.95398 -7.94531,0.58594 -4.4441,-0.3361 -7.64857,-0.14441 -8.28907,0.49609 -0.57423,0.57423 -2.08717,1.16857 -3.36328,1.32032 -1.2761,0.15175 -3.5123,0.73971 -4.96875,1.30664 -1.45644,0.56694 -4.60644,1.30704 -7,1.64453 -2.39355,0.3375 -5.13906,0.84637 -6.10156,1.13086 -0.97161,0.28718 -1.75,-0.008 -1.75,-0.66407 0,-0.79286 -0.81206,-0.65129 -2.46484,0.43165 -3.05623,2.00252 -3.63002,2.02563 -2.89844,0.11914 0.50834,-1.32469 0.24823,-1.32533 -2.28125,-0.0117 -1.57034,0.8153 -3.57993,1.25298 -4.46485,0.97265 -0.88483,-0.28032 -2.1761,0.1743 -2.87109,1.01172 -1.83089,2.20609 -4.9561,1.8684 -5.88281,-0.63672 -0.68401,-1.84906 -0.89216,-1.92113 -1.4375,-0.5 -1.05153,2.74024 -3.23818,1.8838 -4.69922,-1.83984 -1.56155,-3.97979 -1.40771,-3.88679 -3.88477,-2.33984 -1.51215,0.94435 -2.44341,0.74201 -5.00781,-1.08399 -1.73244,-1.23362 -6.40289,-3.15568 -10.3789,-4.27148 -3.97602,-1.1158 -7.67852,-2.35127 -8.22852,-2.7461 -0.55,-0.39483 -2.8,-0.80276 -5,-0.90625 -2.2,-0.10349 -5.33383,-0.7248 -6.96484,-1.38086 l -2.9668,-1.19336 4.4668,-1.1914 c 2.45601,-0.65519 3.78761,-1.23506 2.95898,-1.28906 z M 107.25,256.00391 c 0.4125,-0.002 0.74237,1.23359 0.73438,2.74609 -0.008,1.5125 -0.36634,3.30463 -0.79688,3.98242 -0.44912,0.70704 -0.76393,-0.46309 -0.73633,-2.74609 0.0265,-2.18855 0.38633,-3.98042 0.79883,-3.98242 z m 74.57227,5.45312 c -0.34445,-0.0363 -0.83069,0.13461 -1.40039,0.60742 -0.77002,0.63902 -1.15544,1.55687 -0.85743,2.03907 0.29802,0.48221 1.14463,0.31874 1.88282,-0.36329 1.20729,-1.11539 1.13278,-2.20334 0.375,-2.2832 z m 69.45896,93.0625 c -1.18695,-0.015 -2.25929,1.37316 -1.67773,2.88867 0.60947,1.58823 0.81303,1.60298 2.24023,0.17578 1.00952,-1.00952 1.22614,-1.91448 0.60547,-2.53515 -0.36408,-0.36408 -0.77232,-0.5243 -1.16797,-0.5293 z m 30.22463,1.54097 c -0.44829,-0.0244 -0.40385,0.29163 -0.006,0.93945 0.35076,0.56754 -0.49328,1 -1.95117,1 -1.43268,0 -3.33804,0.95751 -4.3086,2.16602 -3.54396,4.41285 -7.34876,7.83398 -8.71484,7.83398 -2.77524,0 -2.72786,2.26558 0.0977,4.58789 2.30049,1.89123 2.59632,2.54942 1.48047,3.28711 -0.76767,0.50749 -1.1241,1.6293 -0.79297,2.49219 0.33112,0.8629 0.17246,1.83508 -0.35352,2.16015 -0.52598,0.32508 -0.95703,0.98287 -0.95703,1.46289 0,1.04382 2.94767,0.74465 8.82617,-0.89843 4.75577,-1.32927 7.17383,-0.35914 7.17383,2.88086 0,2.74793 2.11556,8.07303 2.99219,7.53125 0.43879,-0.27119 1.07583,0.22794 1.41406,1.10937 0.56268,1.46632 0.82541,1.46465 3.10352,-0.0273 1.83924,-1.20512 2.49023,-1.2968 2.49023,-0.35156 0,1.75098 -6.77329,3.66739 -10.75977,3.04492 -1.79254,-0.2799 -3.81754,-0.0724 -4.5,0.46093 -2.38585,1.86461 -7.5963,3.19155 -7.98242,2.03321 C 268.2682,396.29966 263,399.81354 263,401.61523 263,402.37697 262.325,403 261.5,403 c -0.825,0 -1.49528,0.5625 -1.48828,1.25 0.0182,1.83814 6.64733,5.81791 8.5039,5.10547 1.25962,-0.48336 6.10512,1.28457 9.45508,3.44922 0.25907,0.16741 -0.19093,0.7227 -1,1.23437 -0.99621,0.63002 -1.06722,0.93491 -0.2207,0.94532 0.6875,0.008 1.25,0.51419 1.25,1.12304 0,0.60879 -0.66162,0.85344 -1.4707,0.54297 -0.80908,-0.31048 -2.12806,0.0909 -2.92969,0.89258 -0.80163,0.80163 -1.9521,1.45703 -2.55664,1.45703 -1.71567,0 -15.41245,6.97965 -16.20117,8.25586 -1.15332,1.86611 4.00991,5.79845 8.15625,6.21094 5.20679,0.518 10.31872,3.2631 9.59375,5.15234 -0.32105,0.83659 -0.13725,1.21741 0.41992,0.87305 1.8259,-1.12847 0.9564,0.97663 -2.03906,4.93554 -1.6347,2.16048 -2.97266,4.50511 -2.97266,5.21094 0,0.70582 -1.8,1.76893 -4,2.36133 -2.94105,0.79194 -4,1.59688 -4,3.03906 0,1.43602 -0.68313,1.96094 -2.55078,1.96094 -1.97978,0 -2.88532,0.79967 -4.04297,3.57031 -1.3753,3.29155 -1.73482,3.5157 -4.60742,2.88477 C 243.25878,462.23828 239,462.12283 239,463.18945 c 0,0.5719 -1.10919,0.31404 -2.46484,-0.57422 C 232.95712,460.2708 231,460.56306 231,463.44141 c 0,3.69029 -1.6151,3.97509 -6.45508,1.13867 -2.41698,-1.41644 -7.68967,-3.26719 -11.71875,-4.11328 -4.02908,-0.84609 -9.00398,-2.64882 -11.05469,-4.00391 -2.05071,-1.3551 -4.30071,-2.46475 -5,-2.46875 -1.54268,-0.008 -6.96011,-3.47349 -6.36328,-4.07031 0.43325,-0.43326 -5.74155,-0.87126 -12.86914,-0.91406 -2.43475,-0.0146 -5.3254,-0.92096 -7.5,-2.35157 -6.47898,-4.26236 -11.50286,-4.11827 -11.90039,0.3418 -0.79527,8.92236 -2.4761,14.22706 -4.38086,13.82422 -0.69158,-0.14627 -2.72031,0.39374 -4.50781,1.19922 -3.18796,1.43656 -4.29694,4.2106 -2.20117,5.50586 0.72755,0.44966 0.71886,1.04578 -0.0293,1.94726 -0.64635,0.77881 -0.81391,2.95363 -0.41797,5.42969 0.56902,3.55848 0.43423,4.04498 -0.9707,3.50586 C 144.72835,478.06578 144,478.27997 144,478.89258 c 0,0.60885 0.5625,1.14218 1.25,1.18554 1,0.0632 1,0.18048 0,0.58399 -0.6875,0.27741 -1.25,0.976 -1.25,1.55273 0,0.57672 -1.58083,2.54041 -3.51367,4.36328 -2.05581,1.93888 -3.7695,4.68651 -4.12891,6.61915 -0.3379,1.81703 -1.56958,4.08098 -2.73633,5.03125 -1.25896,1.02538 -1.58936,1.7368 -0.8125,1.75 0.71996,0.0122 1.06778,0.41047 0.77344,0.88671 -0.88826,1.43725 -5.11624,0.111 -6.44922,-2.02343 -1.00355,-1.60691 -0.98999,-2.32563 0.0605,-3.66992 1.14913,-1.46927 1.11032,-1.51813 -0.31641,-0.4043 -0.89279,0.69701 -2.35529,0.98592 -3.25,0.64258 C 121.84824,494.72729 121.39802,493 123,493 c 0.55,0 1,-0.675 1,-1.5 0,-0.825 -0.675,-1.5 -1.5,-1.5 -0.825,0 -1.5,0.38838 -1.5,0.86328 0,0.47491 -0.99217,0.8124 -2.20508,0.75 -1.46735,-0.0755 -2.41656,-0.94985 -2.83789,-2.61328 -0.34827,-1.375 -1.1561,-2.3875 -1.79492,-2.25 C 113.5233,486.8875 113,486.07387 113,484.94141 c 0,-1.155 -0.45086,-1.78012 -1.02734,-1.42383 -0.56522,0.34932 -2.32191,-0.74954 -3.90235,-2.44141 C 106.48987,479.38431 104.53269,478 103.7207,478 c -0.81199,0 -2.03601,-0.675 -2.7207,-1.5 -0.68469,-0.825 -2.566526,-1.5 -4.181641,-1.5 -1.615114,0 -2.687112,-0.40216 -2.382812,-0.89453 0.304301,-0.49236 -0.106767,-1.1492 -0.914063,-1.45899 -0.807295,-0.30979 -1.874755,0.16193 -2.371093,1.04883 -0.775558,1.38585 -1.15101,1.23233 -2.673829,-1.09179 -0.974564,-1.48737 -2.347349,-2.4828 -3.050781,-2.2129 -0.703432,0.26995 -1.780709,-0.11234 -2.392578,-0.8496 -0.611868,-0.73725 -2.700257,-1.29524 -4.640625,-1.24024 -1.940368,0.055 -3.833508,-0.38088 -4.208984,-0.9668 C 73.808119,466.74805 72.4875,465.95456 71.25,465.56836 70.0125,465.18217 69,464.49038 69,464.03125 69,463.03027 63.486885,461 60.767578,461 59.703773,461 55.607639,459.73917 51.666016,458.19727 44.758441,455.49513 43.921736,455.40188 28.5,455.61719 19.7,455.74006 9.6875,456.13718 6.25,456.5 L 0,457.16016 V 585.58008 714 h 143.47461 143.47656 l -0.86133,-2.25 C 285.61642,710.5125 279.49522,695.1 272.48828,677.5 258.0158,641.14814 253,627.672 253,625.14648 c 0,-0.96482 1.61401,-3.30578 3.58594,-5.20117 5.35034,-5.14269 6.20368,-7.51861 7.38281,-20.54101 0.59288,-6.54788 1.5859,-16.6293 2.20703,-22.4043 0.62113,-5.775 1.26911,-12.975 1.43945,-16 0.17033,-3.025 0.60214,-8.50102 0.95899,-12.16797 0.56561,-5.81212 0.32843,-7.36435 -1.8457,-12.11328 -2.3653,-5.1665 -5.85037,-10.84388 -12.59375,-20.51563 L 251.14062,511.90625 253,506.70312 c 4.93337,-13.80196 11.92546,-28.9214 13.95508,-30.17578 0.55245,-0.34143 5.26884,-1.26034 10.48242,-2.04296 10.55169,-1.58398 14.89488,-3.1112 20.0625,-7.05274 2.94439,-2.24579 3.5,-3.28823 3.5,-6.56445 0,-2.14218 -0.45,-4.78832 -1,-5.88086 -0.55,-1.09254 -1.45,-2.88012 -2,-3.97266 -1.32894,-2.63984 -1.26084,-3.28854 0.25,-2.38086 0.83792,0.50341 0.79405,0.18932 -0.13281,-0.95312 -1.11303,-1.37193 -1.67044,-1.46525 -2.85938,-0.47852 -0.95548,0.79297 -1.08503,1.35638 -0.36719,1.59571 0.61033,0.20344 1.10938,0.86992 1.10938,1.48046 0,0.61055 -2.025,-1.06491 -4.5,-3.72265 C 287.27917,442.02223 285.66089,438 288.05859,438 c 0.58246,0 0.75608,0.5625 0.38477,1.25 -0.37132,0.6875 0.92785,-0.4375 2.88867,-2.5 1.96081,-2.0625 4.39284,-3.75 5.40235,-3.75 2.18576,0 5.68271,-5.4681 4.86328,-7.60352 -0.34132,-0.88948 -0.15171,-1.23847 0.46484,-0.85742 0.97881,0.60494 -1.49128,-6.30294 -2.67773,-7.48828 C 299.08123,416.74753 297.2198,416.5 295.25,416.5 c -5.61191,0 -4.80238,-1.82298 1.71094,-3.85352 5.8621,-1.82753 5.97964,-1.8247 8.74023,0.15235 1.53908,1.10224 4.14883,3.84615 5.79883,6.09765 2.66299,3.63377 3.42141,4.07186 6.75391,3.90235 2.47905,-0.1261 3.41778,-0.52753 2.76367,-1.18164 -0.65412,-0.65412 -0.42828,-1.61117 0.66601,-2.82031 2.00948,-2.22047 5.477,-11.72673 4.72266,-12.94727 -0.29753,-0.48141 0.36738,-3.30109 1.47656,-6.26563 l 2.01563,-5.39062 -2.19922,-2.47461 c -2.31621,-2.6057 -6.66817,-5.29577 -7.96875,-4.92578 -0.42274,0.12026 -1.29001,-0.92651 -1.92774,-2.32617 -0.70522,-1.54778 -1.70966,-2.33192 -2.56445,-2.00391 -0.83849,0.32176 -1.23202,0.0333 -0.97461,-0.71289 0.2373,-0.68787 -0.59611,-2.21475 -1.85351,-3.39453 -1.2574,-1.17978 -2.01437,-2.41728 -1.68164,-2.75 C 311.06124,375.27275 310.8318,375 310.21875,375 c -0.80833,0 -0.8218,-0.83807 -0.0508,-3.05078 0.58498,-1.67807 1.31291,-2.80233 1.61719,-2.49805 0.30427,0.30427 1.37568,-0.19206 2.38281,-1.10351 1.99131,-1.80211 2.42705,-4.86188 0.83203,-5.84766 -1.46593,-0.90599 -1.22343,-2.74745 0.25,-1.89844 0.6875,0.39615 0.15954,-0.47576 -1.17383,-1.93945 -3.05319,-3.35155 -4.50259,-3.33946 -8.98242,0.084 -1.97691,1.51059 -3.96459,2.62578 -4.41797,2.47657 -0.45338,-0.14922 -0.56896,0.1391 -0.25781,0.64257 0.31116,0.50347 -0.52237,1.62908 -1.85156,2.5 -1.81407,1.18863 -2.53998,1.27823 -2.91211,0.35938 -0.27267,-0.67326 -0.54655,-0.32461 -0.60742,0.77539 -0.19068,3.44326 -2.34548,5.06094 -8.54688,6.41406 -3.3,0.72004 -6.57264,1.7727 -7.27344,2.33985 -0.70079,0.56715 -1.58937,0.71726 -1.97265,0.33398 -0.38328,-0.38328 -0.13161,-1.0461 0.55859,-1.47266 0.69016,-0.42657 0.97832,-1.49964 0.63867,-2.38476 -0.38993,-1.01615 0.14918,-2.08852 1.46485,-2.91016 1.14604,-0.71573 2.08398,-1.68996 2.08398,-2.16601 0,-0.47604 1.125,-1.75045 2.5,-2.83203 3.18192,-2.50294 3.16845,-4.19728 -0.0469,-5.66211 -1.56015,-0.71087 -2.49897,-1.07525 -2.94726,-1.09961 z m -28.47266,1.96093 c -0.56624,0.0505 -1.0332,0.56276 -1.0332,1.44727 0,0.89208 0.58648,1.24283 1.49414,0.89453 0.82184,-0.31537 1.24571,-0.97639 0.94141,-1.46875 -0.32724,-0.52947 -0.7518,-0.80838 -1.1543,-0.86523 -0.0839,-0.0118 -0.16715,-0.0118 -0.24805,-0.008 z m 1.80664,3.03516 C 254.33761,361.09626 254,361.56826 254,362.5 c 0,0.825 0.41871,1.5 0.93164,1.5 0.51294,0 1.21923,0.9 1.56836,2 0.74927,2.36076 1.34561,2.43211 3.94141,0.46875 1.92092,-1.4526 1.92395,-1.46875 -0.01,-1.46875 -1.07282,0 -2.51226,-0.9 -3.19922,-2 -0.82814,-1.32607 -1.74685,-1.99321 -2.39258,-1.94336 z M 250.94141,363 c -0.58246,0 -0.78133,0.45 -0.44141,1 0.33992,0.55 0.81605,1 1.05859,1 0.24254,0 0.44141,-0.45 0.44141,-1 0,-0.55 -0.47613,-1 -1.05859,-1 z m -13.00586,22.01562 c -1.10477,0.002 -1.93555,0.96809 -1.93555,2.6836 0,0.715 -0.56665,1.30078 -1.25977,1.30078 -2.00981,0 -6.72213,4.88313 -6.15039,6.37305 0.28947,0.75436 -1.27852,3.05888 -3.53515,5.19726 -2.2301,2.11323 -4.05469,4.7038 -4.05469,5.75781 0,1.55906 -0.26988,1.692 -1.44727,0.71485 -1.01541,-0.84271 -0.87053,-0.006 0.48633,2.80273 1.06366,2.20153 2.72744,4.21711 3.69727,4.48047 2.86817,0.77885 6.57648,-0.32788 8.02539,-2.39648 C 232.505,410.8685 233.76283,410 234.55664,410 235.35046,410 236,409.49915 236,408.88672 c 0,-0.66394 1.18989,-0.93957 2.94727,-0.68164 1.62095,0.2379 2.71981,0.0638 2.4414,-0.38672 -0.27841,-0.45048 0.13957,-0.81836 0.92969,-0.81836 2.54933,0 3.91552,-2.56079 2.14844,-4.02734 -0.85681,-0.71109 -1.31717,-1.9201 -1.02344,-2.68555 0.29373,-0.76547 0.0886,-1.11533 -0.45508,-0.7793 C 242.44458,399.84383 242,399.38992 242,398.5 c 0,-0.96841 0.46332,-1.33135 1.1543,-0.9043 0.70779,0.43744 0.88273,0.27519 0.45312,-0.41992 -0.38541,-0.62362 -0.23059,-2.01277 0.34375,-3.08594 0.78683,-1.47019 0.67559,-2.32049 -0.45312,-3.44922 C 242.67414,389.81671 242,388.88655 242,388.57227 c 0,-0.31429 -0.85539,-1.42766 -1.90039,-2.47266 -0.74038,-0.74038 -1.5012,-1.08534 -2.16406,-1.08399 z m -6.24805,8.39844 c 0.11265,0.0264 0.27176,0.14479 0.48047,0.35352 0.58111,0.5811 0.85962,1.6477 0.61914,2.36914 -0.24965,0.74895 -0.70303,0.29556 -1.05664,-1.05664 -0.27186,-1.0396 -0.32169,-1.5827 -0.14063,-1.66211 0.0272,-0.0119 0.0601,-0.0111 0.0977,-0.004 z m 34.22852,55.70899 c -0.3474,-0.0143 -0.74258,0.0489 -1.10352,0.19336 -0.79773,0.31922 -0.56143,0.55744 0.60352,0.60547 1.05416,0.0434 1.64479,-0.19311 1.3125,-0.5254 -0.16615,-0.16612 -0.46511,-0.25913 -0.8125,-0.27343 z"
     inkscape:connector-curvature="0"
     sodipodi:nodetypes="ssscsssscsccscssscccssssccccccsccccccccsccssccccccccscccscsccccccccssscccccccscscssccscccsccssccccscsscsscccccccccscccscccccscccssscccscccccccscsscccccccccsccccsccccccsccccscscccccscsccsscssssccsccccccsscsscsscsssccsccsscccsccccccscccssscccccscscscccccscsssccscsccccssscccscccsscccscsccsccccsscssssssscsccccccccccccsccscccccccccsssscccsccssscsccccsccsssccccccccsscsscssccccccsscccccscsccscscscsssscsccccsccscscsccccccccccccscscscccccsccccccssccscccssssscssccsccccssccssccsscccsscccsccccccccc" />
</svg>
