<?xml version="1.0" encoding="UTF-8" standalone="no"?>
<svg
   xmlns:dc="http://purl.org/dc/elements/1.1/"
   xmlns:cc="http://creativecommons.org/ns#"
   xmlns:rdf="http://www.w3.org/1999/02/22-rdf-syntax-ns#"
   xmlns:svg="http://www.w3.org/2000/svg"
   xmlns="http://www.w3.org/2000/svg"
   xmlns:sodipodi="http://sodipodi.sourceforge.net/DTD/sodipodi-0.dtd"
   xmlns:inkscape="http://www.inkscape.org/namespaces/inkscape"
   viewBox="0 0 415 714"
   height="714"
   width="415"
   id="svg2"
   version="1.1"
   sodipodi:docname="Io_Crop_4_1.svg"
   inkscape:version="0.92.1 r15371">
  <sodipodi:namedview
     pagecolor="#ffffff"
     bordercolor="#666666"
     borderopacity="1"
     objecttolerance="10"
     gridtolerance="10"
     guidetolerance="10"
     inkscape:pageopacity="0"
     inkscape:pageshadow="2"
     inkscape:window-width="1366"
     inkscape:window-height="692"
     id="namedview6"
     showgrid="false"
     inkscape:zoom="5.8408715"
     inkscape:cx="408.33375"
     inkscape:cy="589.91663"
     inkscape:window-x="0"
     inkscape:window-y="27"
     inkscape:window-maximized="1"
     inkscape:current-layer="svg2" />
  <metadata
     id="metadata8">
    <rdf:RDF>
      <cc:Work
         rdf:about="">
        <dc:format>image/svg+xml</dc:format>
        <dc:type
           rdf:resource="http://purl.org/dc/dcmitype/StillImage" />
        <dc:title />
      </cc:Work>
    </rdf:RDF>
  </metadata>
  <defs
     id="defs6" />
  <path
     id="path3682"
     style="fill:#000000;stroke-width:2.22930789"
     d="m 154.47196,112.27505 c -1.84727,-0.12027 -6.86322,0.81117 -11.14655,2.06821 -5.50463,1.61543 -13.53145,1.48546 -27.3787,-0.43977 -15.67233,-2.17911 -22.583837,-2.15154 -34.554242,0.13058 -8.229864,1.56904 -19.479455,3.68834 -24.996992,4.71114 -24.042005,4.4568 -46.8154626,13.20982 -46.8154626,17.99121 0,1.06386 -1.755596,1.36949 -3.9013013,0.67926 -2.2688454,-0.72986 -2.9684637,-0.46769 -1.6719809,0.62698 1.2261191,1.03525 3.3509222,3.88736 4.7242242,6.33959 1.5466086,2.76173 4.3040806,4.194 7.2452506,3.76198 2.611587,-0.38361 4.751291,0.11801 4.750346,1.11464 -9.33e-4,0.99667 4.628265,1.68962 10.288755,1.54136 11.654104,-0.30507 26.79514,3.59295 23.020244,5.92595 -1.50997,0.93321 -0.665792,2.00083 2.172703,2.74309 2.888429,0.75538 4.109083,0.34235 3.222035,-1.09289 -0.84263,-1.36344 -0.155401,-1.73755 1.671968,-0.91 1.703359,0.77134 4.85137,2.02107 6.997085,2.77792 5.118554,1.80545 4.934774,5.59542 -0.557326,11.49052 -5.413451,5.81064 -5.553336,9.20969 -0.796808,19.18423 2.117367,4.43999 2.986121,9.40394 2.063848,11.77789 -1.451517,3.73632 -2.080502,3.54374 -7.005776,-2.15092 -2.975432,-3.4402 -5.407804,-8.70694 -5.407804,-11.70386 0,-4.62983 -1.089166,-5.46899 -7.245251,-5.5994 -3.984891,-0.0845 -9.943215,-0.51217 -13.240879,-0.94921 -8.230751,-1.09078 -11.420305,3.36116 -9.026075,12.6008 1.789107,6.90438 2.747047,7.5453 13.641455,9.11317 13.256943,1.90785 21.076183,5.35924 19.162458,8.45571 -0.711088,1.15056 0.213993,1.512 2.055157,0.80551 1.882467,-0.72237 7.052469,1.62139 11.817043,5.35555 4.65979,3.65202 12.298374,7.85079 16.972359,9.33088 3.191557,1.01069 5.780257,2.41436 7.658897,4.08855 0.0337,-0.0258 0.0467,-0.0421 0.009,0.009 1.33542,1.19216 2.32084,2.51787 2.86503,3.9492 1.25044,3.28895 3.83034,5.35555 6.68356,5.35555 2.55495,0 4.17587,0.75732 3.60519,1.68069 -0.57067,0.92341 3.44302,1.85206 8.91724,2.06384 5.4742,0.21179 11.55032,1.71181 13.50647,3.33526 4.42569,3.673 10.7817,2.73028 20.11168,-2.98258 3.96252,-2.42631 8.21399,-3.78465 9.44843,-3.02175 1.2613,0.77953 1.71505,0.003 1.0363,-1.76341 -0.66431,-1.73118 1.21313,-6.04426 4.17123,-9.58777 7.47555,-8.95498 12.69225,-19.70987 12.69225,-26.15954 0,-3.09589 1.65789,-6.08119 3.84034,-6.91871 3.30828,-1.26949 3.38533,-1.7891 0.55732,-3.75322 -2.56906,-1.7843 -2.65944,-2.53025 -0.40492,-3.43976 2.16488,-0.87334 2.25594,-1.91112 0.36571,-4.18866 -2.66522,-3.21072 -1.15281,-7.68524 2.59051,-7.68524 1.22612,0 1.76856,0.7524 1.20173,1.67199 -0.56684,0.91958 4.64167,1.62668 11.57325,1.57183 12.27017,-0.097 33.77923,-8.09335 33.77923,-12.55726 0,-1.00878 1.50478,-1.8331 3.34395,-1.8331 1.83918,0 3.09318,1.25398 2.78664,2.78663 -0.3666,1.83305 2.30243,2.78664 7.80257,2.78664 7.29773,0 8.3612,0.66936 8.35992,5.25542 -0.001,3.93724 0.90895,4.90508 3.62697,3.8621 5.24487,-2.01265 9.30091,4.67617 10.69371,17.63418 2.76549,25.72883 3.24422,29.24045 4.70682,34.55426 0.84371,3.06532 2.02483,8.76725 2.6255,12.67048 1.26732,8.23493 16.4395,23.64115 21.40483,21.73575 1.87574,-0.71977 3.60523,0.44124 4.23223,2.83889 0.79651,3.04582 3.36682,4.11516 10.32361,4.29753 7.95668,0.20867 9.30041,-0.42654 9.52246,-4.48911 0.18056,-3.30233 0.55138,-3.64123 1.22349,-1.12337 0.8735,3.2722 1.69226,3.23436 8.84758,-0.41364 4.33759,-2.21142 9.30771,-3.47392 11.04205,-2.80838 1.91203,0.73369 3.15237,-0.20063 3.15237,-2.37302 0,-1.97036 0.96901,-3.58342 2.15093,-3.58342 1.18192,0 4.44228,-3.27104 7.24525,-7.26703 3.65713,-5.21378 6.51081,-7.05691 10.11027,-6.53117 2.75878,0.40295 5.01593,-0.36507 5.01593,-1.70682 0,-1.34176 2.35815,-3.33758 5.23802,-4.43247 4.60582,-1.75114 5.41574,-3.92608 6.73146,-18.08267 1.406,-15.12811 2.13812,-16.84425 12.24814,-28.60654 19.85319,-23.09786 19.65094,-22.38871 11.07688,-38.5557 -6.38573,-12.04067 -8.61501,-14.33285 -15.8969,-16.34971 -4.65848,-1.29033 -7.75309,-3.06252 -6.87515,-3.94049 0.87795,-0.87792 0.48729,-1.59795 -0.87082,-1.59795 -1.35811,0 -3.17288,1.1354 -4.03191,2.52537 -1.04921,1.69765 -6.86419,2.12672 -17.71255,1.30626 -9.90725,-0.74929 -17.05101,-0.32195 -18.47889,1.10592 -1.28013,1.28014 -4.65294,2.60511 -7.49777,2.94341 -2.84484,0.33829 -7.83001,1.64903 -11.07688,2.9129 -3.24684,1.26386 -10.26918,2.9138 -15.60515,3.66617 -5.33598,0.75238 -11.45654,1.88682 -13.60227,2.52102 -2.16602,0.64022 -3.90129,-0.018 -3.90129,-1.48042 0,-1.76754 -1.81033,-1.45193 -5.49489,0.96228 -6.81327,4.46424 -8.09243,4.51577 -6.46152,0.26561 1.13326,-2.95315 0.55339,-2.95511 -5.08559,-0.0261 -3.50078,1.81755 -7.98077,2.79326 -9.95353,2.16832 -1.97256,-0.62493 -4.85121,0.38856 -6.40054,2.25543 -4.08162,4.91807 -11.04868,4.16524 -13.11459,-1.41943 -1.52488,-4.12214 -1.98892,-4.28279 -3.20464,-1.11467 -2.34418,6.10884 -7.2189,4.19957 -10.47601,-4.10156 -3.48117,-8.87218 -3.13822,-8.66487 -8.66035,-5.21622 -3.37104,2.10525 -5.44711,1.65416 -11.16396,-2.41656 -3.86212,-2.75012 -14.274,-7.03496 -23.13775,-9.52243 -8.86378,-2.48747 -17.1178,-5.24172 -18.3439,-6.12191 -1.22612,-0.8802 -6.24207,-1.78961 -11.14655,-2.02031 -4.90448,-0.23071 -11.89075,-1.61582 -15.52678,-3.07837 l -6.61392,-2.66036 9.95787,-2.65601 c 5.47521,-1.46062 8.44377,-2.75333 6.59649,-2.87372 z m 0.63991,235.01777 c -2.6461,-0.0335 -5.03667,3.06119 -3.7402,6.43974 1.3587,3.54064 1.8125,3.57351 4.99418,0.39186 2.25052,-2.25053 2.73344,-4.26796 1.34977,-5.65163 -0.81163,-0.81164 -1.72174,-1.16881 -2.60375,-1.17997 z m 67.37999,3.43532 c -0.99937,-0.0543 -0.89655,0.65015 -0.0126,2.09434 0.78194,1.26523 -1.09967,2.22929 -4.34977,2.22929 -3.19388,0 -7.44151,2.1346 -9.60519,4.82874 -7.90058,9.83762 -16.38264,17.46434 -19.42806,17.46434 -6.18685,0 -6.0823,5.0507 0.2178,10.22785 5.1285,4.21611 5.78801,5.68342 3.30042,7.32796 -1.71138,1.13135 -2.50595,3.6322 -1.76776,5.55586 0.73817,1.92366 0.38446,4.09096 -0.78812,4.81565 -1.17256,0.7247 -2.13351,2.1911 -2.13351,3.26124 0,2.32697 6.57128,1.66004 19.67625,-2.00291 10.60207,-2.96334 15.99268,-0.80062 15.99268,6.42235 0,6.12596 4.71623,17.99725 6.67051,16.78947 0.9782,-0.60458 2.39835,0.50814 3.15237,2.47311 1.25441,3.2689 1.8401,3.26411 6.91872,-0.0608 4.10023,-2.68658 5.55149,-2.89097 5.55149,-0.78375 0,3.90349 -15.09976,8.17574 -23.98686,6.78807 -3.9961,-0.62398 -8.51047,-0.16134 -10.03189,1.02754 -5.31877,4.15682 -16.93448,7.11498 -17.79526,4.53268 -1.08859,-3.28523 -12.8357,4.54803 -12.8357,8.56454 0,1.69815 -1.50479,3.08709 -3.34397,3.08709 -1.83919,0 -3.33344,1.25398 -3.31785,2.78663 0.0407,4.09777 14.81897,12.96993 18.95783,11.38166 2.80808,-1.07756 13.61019,2.8637 21.07828,7.68937 0.57754,0.37322 -0.42564,1.61113 -2.2293,2.75178 -2.22086,1.40453 -2.37916,2.08421 -0.49202,2.10743 1.53264,0.018 2.78664,1.14629 2.78664,2.5036 0,1.35717 -1.47495,1.90257 -3.27865,1.21045 -1.80368,-0.69216 -4.74409,0.20264 -6.53118,1.98983 -1.78706,1.7871 -4.35183,3.24817 -5.69952,3.24817 -3.82476,0 -34.35912,15.5598 -36.11739,18.40485 -2.57112,4.16014 8.93931,12.92654 18.18276,13.8461 11.60755,1.15479 23.00363,7.27446 21.38744,11.48615 -0.71571,1.86504 -0.30598,2.71399 0.93613,1.9463 4.0705,-2.51571 2.13212,2.17721 -4.5457,11.00285 -3.64423,4.81636 -6.62696,10.04327 -6.62696,11.61678 0,1.57349 -4.01276,3.9435 -8.91725,5.26413 -6.55651,1.76549 -8.91721,3.55995 -8.91721,6.77499 0,3.20134 -1.52292,4.37155 -5.68649,4.37155 -4.41352,0 -6.43226,1.78272 -9.01301,7.95933 -3.06597,7.33787 -3.86747,7.83757 -10.27137,6.43102 -12.35049,-2.71261 -21.84462,-2.96998 -21.84462,-0.59217 0,1.27494 -2.47271,0.7001 -5.49488,-1.2801 -7.97656,-5.22645 -12.33959,-4.57491 -12.33959,1.84182 0,8.22677 -3.60055,8.86168 -14.390349,2.53844 -5.388198,-3.15769 -17.142641,-7.28358 -26.124701,-9.16976 -2.558718,-0.53734 -5.283948,-1.26149 -7.985452,-2.07257 9.470432,12.68159 9.412752,12.21661 12.365698,25.29304 1.803439,0.85198 3.579492,1.78225 5.381691,2.81712 0.960408,0.32701 1.671875,0.57989 2.49491,0.87084 2.507095,0.31007 4.999095,0.69641 7.428126,1.38459 0.930923,0.26376 1.813677,0.53805 2.673432,0.81424 1.995018,-0.065 4.022432,-0.10033 6.082685,-0.10033 h 16.43679 c 11.84696,0 22.6035,1.10301 32.29448,3.08269 2.25792,-0.098 4.50912,-0.19015 6.69666,-0.20464 4.36891,-1.05331 8.6491,-1.49928 15.43972,-0.96662 3.06659,-0.58332 6.14615,-1.17004 10.33665,-2.0116 5.38869,0.12216 6.0248,0.15845 8.65161,0.37446 0.63967,-0.018 1.63078,-0.0625 2.35561,-0.0872 2.14364,-0.31791 4.24666,-0.62428 7.48906,-1.045 0.53392,-0.0693 1.07078,-0.0619 1.60665,-0.0784 4.33707,-0.83649 9.44855,-1.89985 16.5718,-3.58344 1.43941,-0.34017 -2.95406,-0.16025 -4.4325,-0.11751 -0.44246,0.0126 -0.71876,0.0569 -1.08416,0.0827 -1.09277,0.16296 -2.18547,0.32763 -3.27867,0.48765 -1.15987,0.29082 -2.39497,0.66833 -4.64149,1.09723 -1.26782,0.24203 2.49895,-0.64469 3.74889,-0.9666 0.29755,-0.0431 0.59512,-0.0872 0.8926,-0.1306 0.93844,-0.23529 1.9536,-0.39387 3.27867,-0.48764 5.04699,-0.75229 10.09379,-1.52105 15.15232,-2.19014 1.32336,-0.17502 2.6667,2e-5 4.00141,0 h 14.75612 c 1.10416,0 2.17595,0.04 3.26125,0.0612 3.72561,-1.8644 7.18436,-4.04701 10.7895,-6.79678 6.56394,-5.00657 7.80257,-7.33049 7.80257,-14.63418 0,-4.77559 -1.0032,-10.67463 -2.2293,-13.11024 -1.22613,-2.43561 -3.23251,-6.42069 -4.45864,-8.8563 -2.9626,-5.88501 -2.81078,-7.33116 0.55734,-5.30766 1.86798,1.12223 1.77016,0.42205 -0.29608,-2.1248 -2.48127,-3.05847 -3.72393,-3.26648 -6.37444,-1.06677 -2.13005,1.76776 -2.41873,3.02379 -0.81857,3.55733 1.36061,0.45353 2.47316,1.93931 2.47316,3.3004 0,1.3611 -4.51437,-2.37401 -10.03191,-8.29893 -9.40953,-10.10383 -13.01718,-19.07105 -7.67195,-19.07105 1.29848,0 1.68552,1.254 0.85778,2.78665 -0.82782,1.53264 2.06846,-0.97534 6.43972,-5.57328 4.37125,-4.59794 9.79299,-8.35992 12.0435,-8.35992 4.87275,0 12.66851,-12.19005 10.84175,-16.95058 -0.76091,-1.98292 -0.3382,-2.76093 1.03627,-1.91144 2.18207,1.34859 -3.32452,-14.05121 -5.96949,-16.69368 -0.67666,-0.67604 -4.82637,-1.22784 -9.21767,-1.22784 -12.51068,0 -10.70598,-4.06401 3.81422,-8.5907 13.06841,-4.07413 13.33046,-4.06783 19.48465,0.33963 3.43109,2.45723 9.24904,8.57425 12.92738,13.59354 5.93663,8.1008 7.62738,9.07744 15.05656,8.69954 5.52655,-0.2811 7.61929,-1.17603 6.16107,-2.63424 -1.45825,-1.45822 -0.95476,-3.59178 1.48473,-6.28733 4.47977,-4.95012 12.20993,-26.1425 10.52827,-28.86346 -0.66329,-1.07321 0.819,-7.35914 3.29171,-13.96802 l 4.49346,-12.01735 -4.90276,-5.51668 c -5.16353,-5.80891 -14.86538,-11.80589 -17.76479,-10.98106 -0.94239,0.26808 -2.87583,-2.06549 -4.29752,-5.18576 -1.57216,-3.45048 -3.81136,-5.19857 -5.71694,-4.46734 -1.86926,0.7173 -2.74657,0.0743 -2.1727,-1.58924 0.52902,-1.53348 -1.32893,-4.93736 -4.13207,-7.56746 -2.80313,-2.63009 -4.49063,-5.38887 -3.74889,-6.1306 0.74175,-0.74174 0.23025,-1.34978 -1.13642,-1.34978 -1.80202,0 -1.8315,-1.8683 -0.11335,-6.80113 1.30412,-3.74094 2.9269,-6.24723 3.60523,-5.56891 0.67832,0.6783 3.06682,-0.42815 5.31203,-2.46007 4.43924,-4.01745 5.41064,-10.83863 1.85485,-13.03623 -3.26803,-2.01974 -2.72742,-6.12492 0.55732,-4.23222 1.53264,0.88315 0.35566,-1.0606 -2.61682,-4.32363 -6.80652,-7.47163 -10.03767,-7.4452 -20.02459,0.18727 -4.40715,3.36756 -8.83828,5.85368 -9.84903,5.52104 -1.01071,-0.33266 -1.26837,0.31009 -0.57473,1.43249 0.69369,1.12238 -1.16453,3.63171 -4.12769,5.57327 -4.04412,2.64981 -5.66238,2.84956 -6.49199,0.80116 -0.60786,-1.50089 -1.21842,-0.72366 -1.35413,1.72858 -0.42508,7.67611 -5.2288,11.2824 -19.05362,14.29892 -7.35672,1.60521 -14.65244,3.95189 -16.21474,5.21623 -1.56227,1.26437 -3.5432,1.59901 -4.39765,0.74456 -0.85446,-0.85445 -0.29339,-2.33207 1.24527,-3.28301 1.53859,-0.95096 2.18098,-3.34317 1.42381,-5.31638 -0.86929,-2.2653 0.33256,-4.65594 3.26558,-6.48764 2.55487,-1.59558 4.64584,-3.76743 4.64584,-4.82869 0,-1.06123 2.50797,-3.90229 5.57327,-6.31347 7.09349,-5.57983 7.06405,-9.35703 -0.10451,-12.62258 -3.47805,-1.58475 -5.57097,-2.39707 -6.57034,-2.45138 z m -23.35985,260.82468 c -1.96042,0.37813 -3.82416,0.72801 -5.33377,0.97967 3.07813,-0.1329 6.77473,-0.33173 11.31634,-0.63135 -1.9985,-0.20197 -3.99615,-0.40915 -5.98257,-0.34832 z m -5.33377,0.97967 c -1.40438,0.0606 -2.60435,0.10451 -3.76195,0.14373 -0.36136,0.0536 -0.92593,0.12191 -1.26271,0.17411 0.73836,0.0612 0.79273,0.0658 1.99419,0.16115 0.009,6.3e-4 0.003,-5.9e-4 0.0126,0 0.91174,-0.13146 1.89019,-0.291 3.01741,-0.47893 z m -3.03047,0.47896 c -0.21983,-0.0202 -0.62336,-0.0621 -0.93613,-0.0653 -0.64101,-0.008 -1.26613,0.0126 -1.89838,0.0222 -1.72837,0.27816 -3.17043,0.5674 -4.40202,0.86211 1.42025,-0.10616 3.70113,-0.30883 7.23653,-0.81858 z M 159.01766,355.09981 c -1.26233,0.11259 -2.30332,1.25456 -2.30332,3.22639 0,1.98875 1.30744,2.77066 3.33089,1.99419 1.83213,-0.70306 2.77708,-2.17668 2.09869,-3.2743 -0.72951,-1.18035 -1.67598,-1.80213 -2.57329,-1.92886 -0.18705,-0.0262 -0.37261,-0.0222 -0.55297,-0.018 z m 4.02756,6.7663 c -1.11963,0.0886 -1.87228,1.14056 -1.87228,3.21769 0,1.83918 0.93345,3.34397 2.07692,3.34397 1.14348,0 2.71803,2.00637 3.49636,4.4586 1.67036,5.26286 2.99978,5.42192 8.78661,1.045 4.28233,-3.23829 4.29523,-3.27431 -0.0222,-3.27431 -2.39164,0 -5.60059,-2.00638 -7.13205,-4.45861 -1.84618,-2.95622 -3.89427,-4.44347 -5.3338,-4.33234 z m -8.69084,4.33234 c -1.29847,0 -1.7418,1.0032 -0.98403,2.22932 0.75779,1.22612 1.81923,2.22929 2.35996,2.22929 0.54068,0 0.98403,-1.00317 0.98403,-2.22929 0,-1.22612 -1.06146,-2.22932 -2.35996,-2.22932 z m -28.99404,49.0796 c -2.46288,0.003 -4.31494,2.15817 -4.31494,5.98255 0,1.59397 -1.26324,2.89985 -2.80842,2.89985 -4.4805,0 -14.98568,10.88602 -13.7111,14.2075 0.64531,1.68171 -2.85022,6.81918 -7.88095,11.5863 -4.971591,4.71103 -9.039159,10.48621 -9.039159,12.83592 0,3.47562 -0.601631,3.77198 -3.226392,1.59361 -2.263668,-1.87865 -1.9407,-0.0126 1.084162,6.24816 2.371238,4.90789 6.080315,9.40124 8.242346,9.98836 6.394043,1.73628 14.661023,-0.73095 17.891093,-5.3425 1.65698,-2.36572 4.46108,-4.30186 6.23071,-4.30186 1.76967,0 3.21771,-1.11658 3.21771,-2.48186 0,-1.48012 2.65262,-2.0946 6.57037,-1.51959 3.61359,0.53036 6.06329,0.14228 5.44262,-0.8621 -0.62066,-1.00427 0.31116,-1.82439 2.07256,-1.82439 5.68326,0 8.72891,-5.70879 4.78955,-8.97818 -1.9101,-1.58525 -2.93637,-4.28049 -2.28156,-5.98691 0.6548,-1.70648 0.19751,-2.48643 -1.01453,-1.7373 -1.21207,0.74907 -2.20316,-0.26283 -2.20316,-2.24671 0,-2.1589 1.03287,-2.96799 2.57327,-2.01597 1.5779,0.97517 1.96789,0.61348 1.01016,-0.93615 -0.85918,-1.39023 -0.51406,-4.48706 0.76633,-6.87951 1.75408,-3.2775 1.50609,-5.17308 -1.01016,-7.68937 -1.83674,-1.83675 -3.3396,-3.91035 -3.3396,-4.61098 0,-0.70066 -1.90692,-3.18269 -4.23655,-5.51232 -1.65054,-1.65054 -3.34665,-2.41958 -4.82436,-2.41655 z m -13.92885,18.72271 c 0.25115,0.0587 0.60585,0.32279 1.07113,0.78809 1.29547,1.29546 1.91636,3.67325 1.38026,5.28155 -0.55656,1.66964 -1.56728,0.65888 -2.35559,-2.35556 -0.60606,-2.31759 -0.71713,-3.52833 -0.3135,-3.70535 0.0606,-0.0264 0.134,-0.0222 0.21778,-0.009 z m 76.30593,124.19249 c -0.77446,-0.0318 -1.65544,0.10905 -2.46008,0.43107 -1.77838,0.71164 -1.2516,1.24272 1.34542,1.34977 2.35006,0.0969 3.66675,-0.4305 2.92598,-1.17127 -0.3704,-0.37034 -1.03687,-0.57769 -1.81132,-0.60957 z M 63.967269,602.6749 c -0.01261,0.041 0.09583,0.2537 0.187275,0.43979 0.163846,0.0457 0.316532,0.10126 0.478944,0.14803 -0.367756,-0.40948 -0.63824,-0.67326 -0.666209,-0.5878 z m 3.156752,5.78227 c 0.04643,0.0825 0.09316,0.16602 0.139404,0.24818 0.545683,0.0988 1.092873,0.19083 1.641488,0.27432 -0.07974,-0.12218 -0.178605,-0.24615 -0.261241,-0.3701 -0.519631,-0.052 -1.142374,-0.12053 -1.519579,-0.15253 z m 7.214769,0.73151 c 0.03116,0.13724 0.07686,0.33022 0.108821,0.47021 1.818606,0.17808 3.641291,0.3388 5.455665,0.53124 -0.76022,-0.24624 -1.012216,-0.31541 -1.959321,-0.627 -0.820401,-0.0713 -2.312462,-0.23598 -3.605196,-0.37445 z m 7.079782,1.70246 c 1.051919,0.63872 2.186361,1.37532 3.296063,2.08124 0.08353,-0.008 0.164584,-0.0162 0.248183,-0.0222 -1.159275,-0.7271 -2.331442,-1.42963 -3.544246,-2.05951 z m 85.749998,3.73584 c -2.33917,0.0345 -5.18014,0.39168 -7.7634,0.81417 0.97119,0.0287 1.92202,0.0808 2.87807,0.12627 1.72276,-0.30825 2.97493,-0.51213 5.19883,-0.93179 -0.10461,-1.7e-4 -0.20866,-0.0113 -0.3135,-0.009 z m 3.29607,1.11463 c -0.29329,0.0965 -0.58651,0.22071 -0.87953,0.32221 0.0249,0.001 0.0491,0.008 0.0741,0.009 0.21379,-0.0877 0.5901,-0.2428 0.80552,-0.33092 z m -541.62171,171.39983 c 1.24427,1.33905 2.54043,2.64444 3.77938,3.78806 0.779,0.23641 1.58987,0.45948 2.39042,0.69232 -1.48105,-1.45393 -2.97011,-2.89983 -4.46734,-4.3367 -0.49575,-0.0431 -1.23795,-0.10177 -1.70246,-0.14355 z m -7.21478,257.15416 c 1.5922,0.7684 3.46763,1.1296 5.49926,1.2627 -1.8351,-0.4133 -3.66844,-0.8269 -5.49926,-1.2627 z"
     inkscape:connector-curvature="0"
     sodipodi:nodetypes="cccccscccccccccccccccsccsscccccccscccccccsccccsscsscsccscccccccccsscssccscccscscccccscccccsscccccsccccccccccccscsccccscscccscccsscccccsccscccccssssccscsscccccccssccccccccccccccccccscssccscccscsccscccsccccccccccscssccsccccccccccscccccccsccccccccccccccccccccccsccccccssccscccscssscssccsccccssccscccscccsssccccccccccccccccccccccccccccccccccccccccccccccccccccccc" />
</svg>
