<?xml version="1.0" encoding="UTF-8" standalone="no"?>
<!-- Created with Inkscape (http://www.inkscape.org/) -->

<svg
   xmlns:dc="http://purl.org/dc/elements/1.1/"
   xmlns:cc="http://creativecommons.org/ns#"
   xmlns:rdf="http://www.w3.org/1999/02/22-rdf-syntax-ns#"
   xmlns:svg="http://www.w3.org/2000/svg"
   xmlns="http://www.w3.org/2000/svg"
   xmlns:sodipodi="http://sodipodi.sourceforge.net/DTD/sodipodi-0.dtd"
   xmlns:inkscape="http://www.inkscape.org/namespaces/inkscape"
   version="1.1"
   id="svg2"
   width="820"
   height="484"
   viewBox="0 0 820 484"
   sodipodi:docname="Label_Final.svg"
   inkscape:version="0.92.1 r15371">
  <metadata
     id="metadata8">
    <rdf:RDF>
      <cc:Work
         rdf:about="">
        <dc:format>image/svg+xml</dc:format>
        <dc:type
           rdf:resource="http://purl.org/dc/dcmitype/StillImage" />
        <dc:title></dc:title>
      </cc:Work>
    </rdf:RDF>
  </metadata>
  <defs
     id="defs6" />
  <sodipodi:namedview
     pagecolor="#ffffff"
     bordercolor="#666666"
     borderopacity="1"
     objecttolerance="10"
     gridtolerance="10"
     guidetolerance="10"
     inkscape:pageopacity="0"
     inkscape:pageshadow="2"
     inkscape:window-width="640"
     inkscape:window-height="480"
     id="namedview4"
     showgrid="false"
     inkscape:zoom="0.40731707"
     inkscape:cx="410"
     inkscape:cy="242"
     inkscape:window-x="0"
     inkscape:window-y="27"
     inkscape:window-maximized="0"
     inkscape:current-layer="svg2" />
  <path
     style="fill:#000000"
     d="m 314.5,420.12857 c -11.01286,-2.91468 -16.12026,-10.39765 -13.56747,-19.878 1.17643,-4.36892 6.41829,-9.79855 10.4323,-10.806 2.10848,-0.52919 2.28681,-1.02593 1.89,-5.26445 -0.35911,-3.83582 0.0294,-5.36464 2.15351,-8.47453 C 318.47354,371.21787 318.63826,370 316.18,370 c -3.0817,0 -9.8934,-6.68267 -11.73982,-11.51745 -6.83522,-17.89778 12.03744,-33.44377 32.27827,-26.58861 4.37558,1.48191 8.71229,2.10606 14.63343,2.10606 8.16056,0 8.42928,0.0749 8.88838,2.4765 0.26038,1.36207 0.23783,2.71207 -0.0501,3 C 359.90224,339.76442 356.81667,340 353.33333,340 349.85,340 347,340.17004 347,340.37788 c 0,0.20783 0.675,1.99337 1.5,3.96788 C 354.06382,357.66186 342.63036,372 326.44806,372 322.96032,372 322,373.28342 322,377.94459 c 0,2.69923 0.2279,2.81619 7.75,3.97712 15.63217,2.41261 22.17412,5.0971 24.80111,10.17713 4.81639,9.31387 -2.34902,20.71723 -16.55111,26.34017 -4.95278,1.96093 -18.73162,2.95157 -23.5,1.68956 z m 20.77733,-6.1887 c 8.15195,-2.26381 13.23449,-9.83329 10.83688,-16.13947 -1.38319,-3.63807 -3.51774,-4.59072 -15.3291,-6.84135 -9.67299,-1.84317 -10.28275,-1.85229 -13.11043,-0.19606 -6.7531,3.9554 -9.06103,11.66534 -5.23839,17.49944 3.70535,5.65506 13.84548,8.17553 22.84104,5.67744 z m -3.14909,-48.50619 c 3.78609,-1.95786 6.82784,-8.38795 6.82784,-14.43368 0,-8.99252 -5.45536,-16 -12.45608,-16 -9.65118,0 -15.38901,12.73919 -10.84873,24.08645 2.80568,7.01208 9.90374,9.74638 16.47697,6.34723 z m -198.73868,28.5397 c -2.81074,-0.50422 -6.29824,-1.36836 -7.75,-1.92032 L 123,391.0495 V 379.52475 368 h 3.43873 c 3.35072,0 3.45421,0.12156 4.04398,4.75 1.30964,10.27783 1.62655,11.27549 4.09574,12.89336 3.31863,2.17445 15.17765,2.96483 20.81267,1.38713 2.54946,-0.71381 5.79478,-2.65882 7.6776,-4.60139 2.66804,-2.75272 3.33248,-4.32593 3.65201,-8.64701 0.64531,-8.72643 -1.0946,-10.48408 -18.93898,-19.13207 -8.40496,-4.07333 -16.49538,-8.69845 -17.9787,-10.27804 -10.33671,-11.00754 -6.51512,-27.45001 8.04607,-34.61847 5.92734,-2.91802 7.45013,-3.23444 15.60949,-3.24348 4.97276,-0.006 11.85389,0.61396 15.29139,1.37661 l 6.25,1.38665 V 319.13664 329 h -2.93261 c -3.14563,0 -3.45978,-0.52695 -4.56719,-7.66094 -0.79522,-5.12287 -2.68692,-6.92422 -8.68254,-8.26787 -5.61833,-1.2591 -12.9434,-0.0989 -16.68582,2.64286 -5.8417,4.2797 -7.77327,13.08164 -4.16823,18.99413 1.89725,3.11161 7.30772,6.11244 25.83954,14.33149 8.76554,3.8876 15.16974,12.54195 15.19127,20.52883 0.003,1.13767 -0.67631,4.36467 -1.50973,7.17109 -1.84798,6.22284 -9.04379,13.20587 -16.24049,15.76026 -5.58977,1.98403 -20.5865,2.77737 -27.85464,1.47353 z m 402.65574,-0.0657 c -12.09182,-2.37031 -22.97643,-11.34361 -28.90646,-23.83057 -3.19508,-6.72791 -3.6302,-8.62202 -3.97971,-17.32369 -0.62268,-15.5031 3.13162,-25.95521 12.50815,-34.82315 10.10708,-9.55885 23.2237,-13.25158 39.57862,-11.1426 5.08975,0.65633 10.9416,1.72311 13.0041,2.37063 l 3.75,1.1773 v 9.83222 9.83222 h -3.4121 c -3.24579,0 -3.44373,-0.20716 -4.06099,-4.25 -1.20801,-7.91203 -2.3067,-9.51613 -7.75802,-11.32676 -11.3506,-3.77007 -26.07622,0.12657 -32.8635,8.69622 -6.20178,7.83038 -7.39599,12.09297 -7.3908,26.38054 0.005,15.13593 1.77645,21.14088 8.48108,28.75774 5.9905,6.80556 12.2998,9.21729 24.14934,9.23105 11.46883,0.0133 13.27446,-1.03297 14.32227,-8.29922 1.2856,-8.91529 1.43905,-9.18957 5.14113,-9.18957 H 572 v 10.34171 10.34171 l -3.75,1.10945 c -10.10478,2.98952 -23.31646,3.85708 -32.2047,2.11477 z m -114.13618,-1.46115 c -6.26219,-1.92906 -13.09622,-8.18534 -16.01249,-14.65881 -1.99812,-4.43538 -2.38208,-6.89954 -2.38208,-15.28768 0,-8.38407 0.38436,-10.85312 2.37853,-15.27943 6.70397,-14.88026 25.37063,-21.53042 38.6275,-13.76138 6.24836,3.66178 9.62084,9.78517 10.25266,18.61564 L 455.26873,359 H 434.63437 414 v 3.84107 c 0,5.0535 2.21877,12.25306 4.96455,16.10915 3.31218,4.65153 9.41764,7.38644 16.53602,7.40724 5.60782,0.0164 8.49397,-0.92919 18.74943,-6.14284 0.4125,-0.20971 0.75,1.15819 0.75,3.03978 0,3.14319 -0.43575,3.63444 -5.36466,6.04789 -9.73644,4.76747 -19.03397,5.82182 -27.72622,3.1442 z M 443.99442,350.75 c -0.0104,-4.2065 -1.98409,-9.39167 -4.46027,-11.71791 -3.26022,-3.06282 -10.97278,-3.89086 -15.31685,-1.64446 -4.14709,2.14454 -8.17705,7.58948 -8.89593,12.01941 L 414.73832,353 h 14.63084 c 14.50771,0 14.63079,-0.0189 14.62526,-2.25 z m 158.68049,41.62819 c -6.92394,-2.12737 -14.7429,-10.05034 -17.64348,-17.87819 -3.10737,-8.38589 -2.56228,-20.7079 1.24408,-28.12335 11.27133,-21.95848 42.79787,-21.45485 52.82748,0.84392 3.4193,7.6021 3.4193,21.95676 0,29.55886 -6.0756,13.50784 -21.59888,20.15502 -36.42808,15.59876 z m 17.90883,-6.42994 c 10.04825,-6.21016 12.6609,-30.45948 4.61814,-42.86326 C 622.09563,338.29444 617.80954,336 611.9669,336 c -9.54197,0 -15.84307,8.46759 -16.71626,22.46378 -0.81272,13.02694 2.85825,23.65478 9.62013,27.85127 3.7683,2.33865 11.6325,2.15507 15.71297,-0.3668 z m -429.83882,4.60578 c 0.37957,-1.98558 1.15341,-2.50319 4.11133,-2.75 L 198.5,387.5 199,364.23883 c 0.275,-12.79365 0.35,-23.70615 0.16667,-24.25 C 198.98333,339.44497 197.07083,339 194.91667,339 191.69491,339 191,338.65267 191,337.04235 c 0,-1.55469 1.41162,-2.37806 6.85781,-4 3.7718,-1.12329 8.0468,-2.04235 9.5,-2.04235 H 210 v 27.3 c 0,19.9 0.32527,27.62527 1.2,28.5 0.66,0.66 2.685,1.2 4.5,1.2 2.85333,0 3.3,0.33838 3.3,2.5 V 393 H 204.63867 190.27734 Z M 366,390.5 c 0,-2.23855 0.40713,-2.5 3.89301,-2.5 2.62743,0 4.09034,-0.51423 4.5,-1.58179 0.33385,-0.86998 0.60699,-19.09498 0.60699,-40.5 V 307 h -4.93785 c -4.2489,0 -4.91772,-0.26728 -4.79355,-1.91561 0.11123,-1.4766 1.75853,-2.38169 7.18785,-3.94928 3.87395,-1.11851 8.39355,-2.16898 10.04355,-2.33438 l 3,-0.30073 0.26074,43.41048 c 0.18032,30.02024 0.60366,43.82367 1.37245,44.75 0.61143,0.73674 2.5566,1.33952 4.32259,1.33952 3.854,0 4.48612,0.50617 3.81883,3.0579 C 394.80148,392.86714 393.78278,393 380.38337,393 H 366 Z m 286,0.0604 c 0,-2.0973 0.52622,-2.48319 3.75,-2.75 l 3.75,-0.31037 0.26778,-24.25 0.26778,-24.25 h -4.01778 C 652.69564,339 652,338.66105 652,337.04235 c 0,-1.55469 1.41162,-2.37806 6.85781,-4 3.7718,-1.12329 8.0468,-2.04235 9.5,-2.04235 H 671 v 27.3 c 0,19.9 0.32527,27.62527 1.2,28.5 0.66,0.66 2.685,1.2 4.5,1.2 2.85333,0 3.3,0.33838 3.3,2.5 v 2.5 h -14 -14 v -2.43963 z M 687,390.5 c 0,-2.16162 0.44667,-2.5 3.3,-2.5 1.815,0 3.84,-0.54 4.5,-1.2 0.89262,-0.89262 1.2,-11.26667 1.2,-40.5 V 307 h -4.7872 c -4.02791,0 -4.81047,-0.309 -4.93395,-1.94824 -0.11639,-1.54518 1.02917,-2.29762 5.5372,-3.63698 3.12617,-0.9288 7.82145,-1.90934 10.43395,-2.17898 l 4.75,-0.49026 v 43.42723 c 0,32.4434 0.30351,43.73074 1.2,44.62723 0.66,0.66 2.61,1.2 4.33333,1.2 3.77501,0 4.40606,0.51578 3.74128,3.0579 C 715.80148,392.86714 714.78278,393 701.38337,393 H 687 Z m -461,-0.35792 c 0,-1.37856 1.09652,-2.0891 4.25,-2.75395 l 4.25,-0.89603 0.2681,-23.74605 L 235.0362,339 h -4.5181 C 226.64826,339 226,338.70949 226,336.97525 c 0,-2.24639 1.56263,-3.01356 11.56946,-5.68 5.71967,-1.52408 6.65359,-1.55763 7.47304,-0.2685 0.51507,0.81029 0.71476,2.07636 0.44375,2.81349 -1.07652,2.92811 0.85036,2.89699 7.28434,-0.11765 13.10647,-6.14104 23.54225,-4.55986 27.97941,4.2393 2.12193,4.20791 2.25,5.66668 2.25,25.62756 0,23.04215 -0.0464,22.85126 5.84531,24.02961 2.19359,0.43872 3.15469,1.20218 3.15469,2.50594 0,1.74074 -0.96667,1.875 -13.5,1.875 -12.56817,0 -13.5,-0.13037 -13.5,-1.88871 0,-1.36596 0.96648,-2.07002 3.49194,-2.5438 2.54126,-0.47674 3.65189,-1.29237 4.07944,-2.99586 0.32312,-1.28742 0.43925,-10.93341 0.25806,-21.43552 L 272.5,344.04136 l -2.77273,-2.77068 c -2.48593,-2.4841 -3.46855,-2.7685 -9.5,-2.74964 -4.1102,0.0129 -8.1936,0.67693 -10.49652,1.70702 l -3.76924,1.68597 0.26924,22.29298 L 246.5,386.5 l 3.75,0.92637 c 2.62379,0.64815 3.75,1.47404 3.75,2.75 0,1.678 -1.11798,1.82363 -14,1.82363 -12.97646,0 -14,-0.13583 -14,-1.85792 z m -24.30544,-74.2532 c -4.74895,-2.76269 -4.00406,-10.68961 1.20735,-12.84825 7.59412,-3.14559 13.8688,6.84817 7.46323,11.88679 -2.87745,2.2634 -5.86342,2.59451 -8.67058,0.96146 z m 461,0 c -4.74895,-2.76269 -4.00406,-10.68961 1.20735,-12.84825 7.47252,-3.09522 13.36876,5.77961 7.64354,11.50482 -2.59212,2.59213 -5.85348,3.08715 -8.85089,1.34343 z M 340.60307,279.80299 C 337.0984,256.99045 333.25637,237.44213 314.10885,145 c -4.38598,-21.175 -9.59432,-47.05 -11.5741,-57.5 -1.97978,-10.45 -3.77434,-19.8122 -3.98791,-20.804888 -0.49049,-2.27982 2.28323,-3.390821 13.3052,-5.32934 7.82831,-1.376826 8.43362,-1.357366 9.65308,0.310341 1.40682,1.923946 4.42549,15.309961 18.56479,82.323887 5.04795,23.925 12.39755,58.575 16.33246,77 l 7.15437,33.5 2.84246,0.32808 c 1.56335,0.18045 3.90949,0.0603 5.21364,-0.26705 l 2.37119,-0.59513 0.25798,-58.73295 L 374.5,136.5 l 12,0.0446 12,0.0446 0.25816,57.79189 0.25816,57.79189 3.74184,-0.54511 c 2.05801,-0.29981 6.62117,-0.84069 10.14036,-1.20195 l 6.39852,-0.65683 -0.72619,-54.88457 L 417.84466,140 h 11.91815 11.91816 l 0.65951,22.66161 C 442.70322,175.12549 443,194.40549 443,205.50604 c 0,11.10056 0.29338,24.97784 0.65197,30.8384 L 444.30393,247 l 3.59804,-0.0153 c 5.01201,-0.0213 5.81386,-0.77675 8.00038,-7.53713 1.058,-3.27116 8.74249,-27.32256 17.07666,-53.44756 25.2338,-79.10005 37.86904,-117.385826 39.50111,-119.691441 1.51502,-2.14025 1.67353,-2.155192 6.78557,-0.63966 C 529.20424,68.615314 535,71.147248 535,72.542583 c 0,1.564064 -9.70645,32.932447 -25.9793,83.957417 -20.85934,65.40633 -27.105,85.74904 -26.50961,86.34442 0.23643,0.23644 8.43066,-0.30732 18.20939,-1.20834 19.45432,-1.79255 27.90607,-2.04936 28.6349,-0.87008 0.26038,0.4213 1.0364,5.41122 1.72451,11.0887 0.97712,8.06218 0.98638,10.48631 0.0423,11.06978 -0.66483,0.41089 -6.4768,1.26665 -12.91549,1.9017 -6.43868,0.63504 -20.4817,2.07238 -31.2067,3.19408 -23.65353,2.47388 -64.99857,6.70951 -78,7.99077 -35.85586,3.53354 -60.09875,6.01202 -63.69475,6.51187 -4.12626,0.57355 -4.20303,0.52915 -4.70218,-2.71991 z"
     id="path3682"
     inkscape:connector-curvature="0" />
</svg>
