<?xml version="1.0" encoding="UTF-8" standalone="no"?>
<svg
   xmlns:dc="http://purl.org/dc/elements/1.1/"
   xmlns:cc="http://creativecommons.org/ns#"
   xmlns:rdf="http://www.w3.org/1999/02/22-rdf-syntax-ns#"
   xmlns:svg="http://www.w3.org/2000/svg"
   xmlns="http://www.w3.org/2000/svg"
   viewBox="0 0 3948 3104"
   height="3104"
   width="3948"
   id="svg2"
   version="1.1">
  <metadata
     id="metadata8">
    <rdf:RDF>
      <cc:Work
         rdf:about="">
        <dc:format>image/svg+xml</dc:format>
        <dc:type
           rdf:resource="http://purl.org/dc/dcmitype/StillImage" />
        <dc:title></dc:title>
      </cc:Work>
    </rdf:RDF>
  </metadata>
  <defs
     id="defs6" />
  <path
     id="path12"
     d="m 29.015409,3101.5852 c -7.77133,-3.088 -12.73037,-8.2128 -21.2547499,-21.965 -9.27665,-14.9659 -9.19017,-14.685 -5.17977,-16.8312 1.85568,-0.9931 4.07902,-3.7555 4.94075,-6.1386 1.41897,-3.9241 6.2309999,-6.9001 51.0059899,-31.5456 27.19156,-14.967 198.298871,-106.2724 380.238471,-202.9008 l 330.79926,-175.688 1.53408,-6.646 c 1.14725,-4.9701 1.54512,-209.7705 1.57789,-812.2109 l 0.0439,-805.5648 5.68105,-10 5.68105,-10 H 1962.0252 3139.9669 l 5.6209,10.6666 5.621,10.6667 0.045,805.7428 c 0.033,585.6695 0.4499,807.3478 1.5252,811.6184 l 1.4795,5.8756 28.1872,14.8951 c 42.6329,22.5285 133.5334,70.7519 156.8538,83.212 11.3667,6.0732 114.2667,60.6808 228.6667,121.3501 328.6305,174.2815 342.7456,181.9656 350.9725,191.0672 3.1016,3.4312 5.6516,6.9526 5.6667,7.8251 0.041,2.4093 -11.9975,21.8412 -17.4972,28.2416 -3.1652,3.6836 -7.2357,6.5571 -11.6811,8.2461 -6.7469,2.5638 -28.2529,2.591 -1933.8085,2.4543 C 162.89736,3103.8266 34.259179,3103.6691 29.015039,3101.5852 Z M 3388.9669,2847.316 c -2.3834,-1.8782 -4.3334,-3.9562 -4.3334,-4.6176 0,-0.6613 1.869,-2.1689 4.1532,-3.3501 2.2843,-1.1812 3.6343,-2.6315 3,-3.2228 -0.6342,-0.5913 -81.6488,-47.3403 -180.0321,-103.8865 L 3032.8755,2629.4275 H 1961.8973 890.91896 l -152.14274,87.5549 c -83.67849,48.1554 -164.62624,94.7534 -179.88388,103.5512 l -27.74116,15.9962 4.0745,2.5798 c 2.24097,1.4188 4.07449,2.938 4.07449,3.3759 0,0.4379 -1.61225,2.4789 -3.58279,4.5357 l -3.58278,3.7396 1430.5828,-0.015 1430.5828,-0.015 -4.3333,-3.4152 z M 557.96684,2835.6035 c 0,-0.2699 6.88237,-4.4748 15.29417,-9.3444 l 15.29417,-8.8539 74.77759,0.3446 74.77759,0.3444 -13.87134,9 -13.87133,9 h -76.20043 c -41.91024,0 -76.20042,-0.2208 -76.20042,-0.4907 z m 188.0596,-8.8609 14.05958,-9.3372 76.45995,0.3444 76.45993,0.3444 -11.81488,9 -11.81489,9 -78.70465,-0.013 -78.70464,-0.013 14.0596,-9.3372 z m 163.3404,8.2085 c 0.69666,-0.6287 5.99812,-4.8287 11.781,-9.3333 l 10.51433,-8.1903 78.15233,0.063 78.1524,0.063 -9.9079,9.2703 -9.9078,9.2701 h -80.02553 c -44.56745,0 -79.46426,-0.5065 -78.75883,-1.143 z m 184.39176,-8.2463 9.7917,-9.2773 h 79.4578 79.4577 l -3.897,4.3333 c -2.1434,2.3834 -5.9774,6.5834 -8.5201,9.3334 l -4.623,5 -80.7294,-0.056 -80.7294,-0.056 z m 172.4174,2.5863 c 3.185,-3.7417 6.6971,-7.9465 7.8046,-9.344 1.9457,-2.4551 4.6994,-2.5292 81.5273,-2.1969 l 79.5136,0.344 -5.8394,9 -5.8395,9 h -81.4787 -81.4787 z m 173.3695,3.8133 c 1.0444,-1.6556 3.6664,-5.8592 5.8268,-9.3412 l 3.9279,-6.3309 h 79.6104 79.6104 l -3.8393,9 -3.8392,9 -81.5979,0.3436 -81.598,0.3437 1.8989,-3.0104 z m 176.4083,0.6564 c 0.5163,-1.2833 2.1637,-5.4833 3.6609,-9.3333 l 2.7223,-7 h 79.9576 c 64.2763,0 79.8296,0.3336 79.3049,1.7009 -0.359,0.9355 -1.3657,5.1355 -2.2372,9.3334 l -1.5845,7.6324 h -81.3815 c -76.9749,0 -81.3306,-0.1267 -80.4425,-2.3334 z m 176.6797,0.5558 c 0,-0.9778 0.6828,-5.1778 1.5175,-9.3334 l 1.5173,-7.5557 h 79.816 79.8159 v 9.3333 9.3334 h -81.3333 c -66.8854,0 -81.3334,-0.3158 -81.3334,-1.7776 z m 176,-7.5558 v -9.3333 h 79.7731 79.7731 l 2.004,9.3333 2.0038,9.3334 h -81.7769 -81.7771 z m 177.2859,7.6667 c -0.027,-0.9167 -0.872,-5.1167 -1.8797,-9.3333 l -1.8323,-7.6667 h 79.738 79.7379 l 3.4752,8.6807 c 1.9112,4.7744 3.475,8.9744 3.475,9.3333 0,0.3589 -36.6,0.6527 -81.3333,0.6527 -64.1524,0 -81.3433,-0.3522 -81.3808,-1.6667 z m 173.6555,-7.6667 -4.1226,-9.3333 79.5907,0.013 79.5905,0.013 5.3334,8.2036 c 2.9333,4.512 5.5333,8.7066 5.7777,9.3216 0.2445,0.6149 -36.1161,1.1181 -80.8015,1.1181 h -81.2458 l -4.1224,-9.3333 z m 175.2436,0 -6.2062,-9.3333 h 79.7447 79.7447 l 7.6782,9.3333 7.6783,9.3334 h -81.2167 -81.2168 z m 175.1484,0 -8.2747,-9.3333 h 79.6285 79.6286 l 9.5088,9.3109 9.5088,9.311 -80.8627,0.023 -80.8627,0.023 -8.2746,-9.3333 z m 176,0.031 -10,-9.2483 78.1572,-0.059 78.1572,-0.057 10.5094,8.0972 c 5.7803,4.4534 11.0795,8.6534 11.7762,9.3334 0.7784,0.7596 -29.544,1.2257 -78.6667,1.2092 l -79.9333,-0.027 -10,-9.2483 z m 176.9034,0.2812 -11.7632,-8.9789 76.3703,-0.3444 76.3703,-0.3444 14.0596,9.3372 14.0596,9.3372 -78.6667,-0.013 -78.6667,-0.013 -11.7632,-8.9791 z m 176.4299,-0.3119 -14,-9.3285 h 75.1797 75.1799 l 15.1535,8.7996 c 8.3345,4.8397 15.1536,9.0397 15.1536,9.3333 0,0.2935 -34.35,0.5327 -76.3334,0.5314 h -76.3333 z m -2575.88534,-23.7294 -9.8853,-0.3962 13.65886,-7.9372 13.65886,-7.9372 72.22645,0.013 72.22644,0.013 -12.08983,8.0185 -12.08982,8.0184 -63.91018,0.3067 c -35.1506,0.1685 -68.35856,0.128 -73.79548,-0.089 z m 170.66888,-0.2706 -11.21644,-0.6666 11.55364,-7.678 11.55366,-7.6779 73.55809,0.3445 73.55808,0.3447 -10.37355,7.8075 -10.37354,7.8074 -63.52176,0.1926 c -34.93696,0.1053 -68.56915,-0.108 -74.73818,-0.4742 z m 159.20431,0 c -1.25552,-0.4397 1.50531,-3.3212 7.98445,-8.3333 l 9.90356,-7.6613 75.06204,0.059 75.0621,0.059 -8.5154,7.9409 -8.5154,7.941 -9.4846,0.043 c -5.2165,0.023 -38.7555,0.1734 -74.5311,0.3334 -35.77562,0.16 -65.91016,-0.013 -66.96565,-0.3811 z m 168.42135,0.2758 c -1.3733,-0.2658 0.6779,-3.0132 6.2298,-8.3443 l 8.2771,-7.9481 76.1187,0.3442 76.1187,0.3444 -6.9101,7.6991 -6.9101,7.6989 -75.4384,0.3011 c -41.4912,0.1655 -76.3597,0.1227 -77.4857,-0.096 z m 178.5908,0.013 c -5.6833,-0.2141 -10.3074,-0.8141 -10.2756,-1.3333 0.032,-0.5191 2.8855,-4.0988 6.3417,-7.955 l 6.2839,-7.011 76.2887,0.3444 76.2885,0.3444 -4.9636,7.6489 -4.9636,7.6488 -16,0.083 c -8.8,0.045 -39.1,0.2037 -67.3333,0.351 -28.2334,0.1474 -55.9834,0.093 -61.6667,-0.1213 z m 166.6307,-0.2772 -7.7028,-0.6667 4.8054,-7.6666 4.8056,-7.6667 h 76.5818 76.5817 l -1.852,4.3333 c -5.3911,12.614 -4.0292,11.6578 -16.7311,11.7487 -69.1532,0.4947 -130.2492,0.458 -136.4886,-0.083 z m 178.8909,0 -16.8119,-0.6667 3.3147,-7.6666 3.3147,-7.6667 h 76.5869 c 72.3123,0 76.5488,0.1307 75.9016,2.3333 -0.3769,1.2834 -1.0987,4.6608 -1.6039,7.5055 -0.5484,3.0883 -1.7857,5.3959 -3.071,5.7276 -3.24,0.8363 -118.3327,1.1989 -137.6311,0.4336 z m 160.4784,0.2636 c -3.85,-0.2216 -7,-0.9421 -7,-1.6009 0,-0.659 0.6497,-4.2276 1.4439,-7.9304 l 1.4437,-6.7323 h 76.5563 76.5561 v 8 8 l -9.6667,0.032 c -5.3166,0.017 -37.2666,0.1676 -71,0.3333 -33.7333,0.1658 -64.4833,0.12 -68.3333,-0.1013 z m 169.3333,0 -7,-0.4029 v -7.9304 -7.9303 h 76.5722 76.5721 l 1.5444,7.4391 c 0.8493,4.0914 1.2909,7.6924 0.9813,8.002 -0.6573,0.6573 -138.3116,1.4189 -148.67,0.8225 z m 177.7636,-0.2636 -14.5698,-0.6667 -1.7071,-7.3333 c -0.9388,-4.0333 -1.7324,-7.4883 -1.7635,-7.6775 -0.031,-0.1893 34.496,-0.1893 76.727,0 l 76.7834,0.3442 3.102,7.3333 c 1.706,4.0333 2.9198,7.5171 2.6972,7.7416 -0.7142,0.7203 -126.1597,0.9497 -141.2692,0.2584 z m 164.9031,0.2749 c -5.3167,-0.2154 -9.6667,-0.5908 -9.6667,-0.8341 0,-0.2432 -1.4924,-3.8169 -3.3165,-7.9416 l -3.3165,-7.4992 h 76.461 76.4611 l 4.9524,7.4587 c 2.7237,4.1022 4.7083,7.7028 4.41,8.0009 -0.646,0.646 -132.0544,1.3799 -145.9848,0.8153 z m 163.6667,-0.045 c -2.4048,-0.3157 -4.7144,-2.6372 -8.291,-8.3333 l -4.9576,-7.8958 h 76.4243 76.4244 l 6.9392,7.9782 6.9392,7.9782 -75.0727,0.3551 c -41.2898,0.1953 -76.5725,0.1583 -78.4058,-0.083 z m 195.8444,0.079 -28.8222,-0.359 -6.936,-7.9744 -6.936,-7.9745 76.4248,0.059 76.425,0.059 8.5153,7.941 8.5155,7.9409 -16.5155,0.065 c -9.0835,0.036 -31.2153,0.1859 -49.182,0.3334 -17.9667,0.1474 -45.6367,0.1066 -61.4889,-0.091 z m 156.7481,-0.016 -14.7408,-0.3747 -8.5925,-7.8959 -8.5926,-7.8957 75.0947,-0.063 75.0947,-0.063 9.976,7.6666 c 5.4868,4.2167 9.1942,7.8216 8.2386,8.011 -2.6154,0.5184 -119.5437,1.0448 -136.4781,0.6145 z m 168.6136,-0.2922 -12.7939,-0.6666 -9.6345,-7.3334 -9.6344,-7.3333 73.4244,-0.3447 73.4245,-0.3445 11.3504,7.5536 c 6.2428,4.1544 11.0938,7.8104 10.7799,8.1243 -0.8288,0.8286 -121.7835,1.1332 -136.9164,0.3446 z m 160.9956,-0.1568 c -1.6925,-0.4529 -8.1249,-4.2029 -14.2943,-8.3333 l -11.217,-7.5099 h 72.3857 72.3857 l 13.5311,8 13.5309,8 -29.2618,0.04 c -16.0942,0.023 -48.3243,0.1722 -71.6224,0.3334 -23.2983,0.1612 -43.7454,-0.077 -45.4379,-0.5304 z M 666.51792,2772.2812 c 0.38965,-0.6305 6.0618,-4.236 12.60476,-8.0121 l 11.8963,-6.8657 69.00794,0.3453 69.00793,0.3455 -11.52092,7.6666 -11.52092,7.6667 h -70.09177 c -38.76466,0 -69.77514,-0.5124 -69.38332,-1.1463 z m 162.14561,0.1463 c 0.0165,-0.55 4.81945,-4.1552 10.6732,-8.0117 l 10.64316,-7.0116 70.5386,0.3449 70.53858,0.3451 -10.06126,7.6666 -10.06128,7.6667 h -71.15051 c -39.13278,0 -71.13701,-0.45 -71.12049,-1 z m 161.30334,0.3901 c 0,-0.3354 4.1679,-3.9354 9.2621,-8 l 9.26223,-7.3901 72.4045,0.063 72.4045,0.063 -8.6381,7.9371 -8.6381,7.9371 h -73.0286 c -40.1657,5e-4 -73.02853,-0.2739 -73.02853,-0.6094 z m 162.66663,-0.6168 c 0,-0.6746 3.4198,-4.2746 7.5995,-8 l 7.5995,-6.7733 h 73.2996 73.2996 l -3.2062,3.6667 c -1.7635,2.0166 -4.9857,5.6166 -7.1607,8 l -3.9544,4.3333 h -73.7384 c -43.9962,0 -73.7385,-0.4948 -73.7385,-1.2267 z m 162.6667,0.3704 c 0,-0.4709 2.7464,-4.0709 6.1031,-8 l 6.103,-7.1437 h 73.2303 c 40.2767,0 73.2303,0.3092 73.2303,0.6872 0,0.3779 -2.185,3.9779 -4.8555,8 l -4.8555,7.3128 h -74.4778 c -40.9628,0 -74.4779,-0.3853 -74.4779,-0.8563 z m 164,-0.6825 c 0,-0.8585 1.8625,-4.4636 4.1389,-8.0112 l 4.1391,-6.45 h 73.1943 c 57.7086,0 73.1777,0.3527 73.1157,1.6667 -0.044,0.9166 -1.4013,4.3666 -3.0177,7.6666 l -2.9391,6 -74.3156,0.3446 c -56.0804,0.26 -74.3156,-0.039 -74.3156,-1.2167 z m 162.6667,0.5757 c 0,-0.542 1.3104,-4.1469 2.912,-8.0112 l 2.912,-7.0257 h 73.7546 c 40.5651,0 73.7292,0.15 73.6982,0.3333 -0.031,0.1834 -0.8263,3.6334 -1.7674,7.6667 l -1.7108,7.3333 -74.8993,0.3444 c -41.1947,0.1895 -74.8993,-0.099 -74.8993,-0.6408 z m 164.5749,-5.9602 c 0.5051,-3.808 1.2177,-7.408 1.5837,-8 0.366,-0.5922 33.63,-1.0767 73.92,-1.0767 h 73.2547 v 8 8 h -74.8384 -74.8385 z m 162.0917,-1.088 v -8.0112 l 73.6356,0.3445 73.6356,0.3447 1.54,6.9354 c 0.8471,3.8146 1.2111,7.2646 0.8088,7.6667 -0.4021,0.4021 -34.231,0.7312 -75.1756,0.7312 h -74.4444 z m 163.5872,7.0113 c -0.3137,-0.55 -0.9842,-3.2927 -1.4902,-6.0947 -0.506,-2.8021 -1.249,-5.9521 -1.6511,-7 -0.6284,-1.6374 9.6596,-1.9053 73.1661,-1.9053 h 73.8974 l 2.912,7.0257 c 1.6016,3.8643 2.912,7.4643 2.912,8 0,1.2907 -149.0102,1.2651 -149.7462,-0.025 z m 163.904,0.047 c -1.2225,-1.2224 -6.1578,-12.3492 -6.1578,-13.8828 0,-0.6488 32.3717,-1.1639 73.1445,-1.1639 h 73.1445 l 4.7751,7.1916 c 2.6261,3.9553 4.4111,7.5553 3.9665,8 -1.1502,1.1503 -147.7204,1.0076 -148.8728,-0.1449 z m 158.6976,-6.3595 c -2.6705,-4.0221 -4.8554,-7.6221 -4.8554,-8 0,-0.378 32.9534,-0.6872 73.23,-0.6872 h 73.2298 l 6.1035,6.9771 c 3.3568,3.8374 6.1033,7.4374 6.1033,8 0,0.5626 -33.515,1.0229 -74.4778,1.0229 h -74.4779 z m 161.8112,-0.6872 -6.9305,-8 h 73.1991 73.1992 l 7.5994,6.7733 c 4.1798,3.7254 7.5995,7.3254 7.5995,8 0,0.7319 -29.7931,1.2267 -73.8681,1.2267 h -73.868 z m 162.6382,0.063 -8.6382,-7.9371 72.5192,-0.063 72.5192,-0.063 9.1475,7.3908 c 5.0311,4.0649 9.1475,7.6649 9.1475,8 0,0.335 -32.8628,0.6092 -73.0286,0.6092 h -73.0285 l -8.6381,-7.9371 z m 163.6662,0.2704 -10.0613,-7.6667 70.5387,-0.3451 70.5385,-0.3449 10.6432,7.0116 c 5.8537,3.8565 10.6567,7.4617 10.6732,8.0117 0.016,0.55 -31.9877,1 -71.1205,1 h -71.1506 z m 163.5899,0 -11.8359,-7.6667 69.1114,-0.3455 69.1114,-0.3453 11.8963,6.8657 c 6.5429,3.7762 12.2151,7.3816 12.6048,8.0122 0.3917,0.6338 -30.5252,1.1462 -69.1719,1.1462 h -69.8804 z m -2391.22763,-22.217 c 0,-0.3024 4.77204,-3.3024 10.60455,-6.6667 l 10.60453,-6.1167 h 67.06213 67.06212 l -10,6.6599 -10,6.6599 h -67.66666 c -37.21667,0 -67.66667,-0.2442 -67.66667,-0.5467 z m 156,0.061 c 0,-0.2692 4.15143,-3.2747 9.2254,-6.6789 l 9.22541,-6.1895 68.21215,0.3455 68.21217,0.3454 -8.626,6.3334 -8.6261,6.3333 h -68.81152 c -37.84632,-2e-4 -68.81151,-0.2204 -68.81151,-0.4894 z m 156.54683,-0.6503 c 0.3874,-0.6266 3.9282,-3.6266 7.8686,-6.6666 l 7.1643,-5.5272 69.8768,0.043 69.8768,0.043 -7.3333,6.5817 -7.3333,6.5818 -70.4121,0.043 c -38.7266,0.023 -70.0951,-0.4704 -69.7078,-1.097 z m 161.0269,-5.4764 7.093,-6.6158 70.3333,-0.051 c 38.6833,-0.028 70.3333,0.2627 70.3333,0.6456 0,0.3831 -2.4764,3.3831 -5.5032,6.6667 l -5.503,5.9702 h -71.9232 -71.9232 l 7.093,-6.6158 z m 152.5146,3.6159 c 1.3758,-1.65 3.981,-4.65 5.7894,-6.6667 l 3.2879,-3.6666 h 70.4172 c 38.7295,0 70.4172,0.3418 70.4172,0.7597 0,0.4179 -1.8288,3.4179 -4.064,6.6667 l -4.0641,5.9069 h -72.1426 -72.1426 z m 156.7205,0 c 0.8631,-1.65 2.7251,-4.65 4.1377,-6.6667 l 2.5684,-3.6666 h 70.6658 70.6657 l -0.9255,3 c -0.5089,1.65 -1.7648,4.65 -2.7908,6.6666 l -1.8653,3.6667 h -72.0127 -72.0126 z m 155.8579,2.4433 c 0,-0.3058 1.1786,-3.3058 2.6193,-6.6666 l 2.6192,-6.1106 h 70.8313 70.8312 l -0.9377,5.667 c -0.5156,3.1167 -1.2039,6.1167 -1.5292,6.6667 -0.6023,1.0181 -144.4341,1.4601 -144.4341,0.4438 z m 158.0366,-5.1102 c 0.5156,-3.1167 1.2039,-6.1167 1.5292,-6.6667 0.3254,-0.55 32.3562,-1 71.1795,-1 h 70.588 v 6.6667 6.6667 h -72.1172 -72.1172 z m 156.63,-1 v -6.6667 h 70.588 c 38.8234,0 70.8542,0.45 71.1795,1 0.3253,0.55 1.0136,3.55 1.5292,6.6667 l 0.9377,5.6667 h -72.1172 -72.1172 z m 156.0702,1.6667 c -0.7638,-2.75 -1.392,-5.75 -1.396,-6.6667 0,-1.3125 15.0202,-1.6667 70.7065,-1.6667 h 70.7141 l 2.6192,6.1106 c 1.4407,3.3608 2.6194,6.3608 2.6194,6.6666 0,0.3059 -32.3718,0.5562 -71.9374,0.5562 h -71.9373 z m 156.7997,1.3333 c -1.026,-2.0167 -2.2819,-5.0167 -2.7908,-6.6667 l -0.9255,-3 h 70.7399 70.7397 l 3.1107,5 c 1.7108,2.75 3.5537,5.75 4.0953,6.6667 0.783,1.3249 -13.7877,1.6667 -71.0596,1.6667 h -72.0444 z m 155.1941,-2.2403 c -2.2352,-3.2488 -4.064,-6.2488 -4.064,-6.6666 0,-0.4179 31.6878,-0.7598 70.4172,-0.7598 h 70.4172 l 3.2879,3.6667 c 1.8084,2.0167 4.4136,5.0167 5.7895,6.6667 l 2.5016,3 h -72.1427 -72.1425 z m 156.1059,-0.063 c -3.0268,-3.2836 -5.5032,-6.2836 -5.5032,-6.6667 0,-0.3829 31.65,-0.6692 70.3333,-0.6359 l 70.3334,0.06 7.2538,6.6062 7.254,6.6061 h -72.0841 -72.0841 l -5.5031,-5.9703 z m 155.8301,-0.7395 -7.3333,-6.5941 70,0.013 70,0.013 8.4903,6.6403 8.4902,6.6401 -71.1569,-0.057 -71.1569,-0.057 -7.3334,-6.5943 z m 157.5771,0.3299 -8.4229,-6.2868 68.1706,-0.3455 68.1707,-0.3455 9.2523,5.9852 c 5.0888,3.2919 9.2522,6.2974 9.2522,6.6788 0,0.3815 -31.05,0.6727 -69,0.6471 l -69,-0.047 -8.4229,-6.2868 z m 157.0896,-0.2871 -10,-6.6599 h 67.0621 67.0622 l 10.6045,6.1167 c 5.8325,3.3643 10.6045,6.3643 10.6045,6.6667 0,0.3025 -30.45,0.5485 -67.6666,0.5466 h -67.6667 z m -2303.13604,-20.064 c 0.76852,-0.7685 5.46482,-3.7743 10.43625,-6.6793 l 9.03895,-5.2822 64.16373,0.3462 64.16375,0.346 -9.3191,6.3333 -9.3191,6.3333 h -65.2809 c -45.51334,0 -64.85778,-0.423 -63.88358,-1.3973 z m 149.83042,0.3973 c 0.0152,-0.55 3.91795,-3.5556 8.67266,-6.6792 l 8.6449,-5.6792 65.65973,0.3459 65.65983,0.3459 -8.2312,6.3333 -8.2311,6.3333 h -66.10128 c -36.35571,0 -66.0888,-0.45 -66.07354,-1 z m 150.63892,-0.018 c 0,-0.5596 3.2549,-3.5596 7.2331,-6.6666 l 7.2331,-5.6491 h 67.0501 67.0502 l -6.5665,6.6667 -6.5664,6.6666 h -67.7168 c -37.2442,0 -67.7168,-0.4578 -67.7168,-1.0176 z m 155.3334,-5.649 6.5664,-6.6667 h 67.7168 c 37.2442,0 67.7168,0.3491 67.7168,0.7756 0,0.4265 -2.1723,3.4265 -4.8274,6.6667 l -4.8272,5.891 h -69.4559 -69.456 z m 146,5.804 c 0,-0.4746 2.1401,-3.4746 4.7558,-6.6667 l 4.756,-5.804 h 67.9107 c 37.3509,0 67.9108,0.3871 67.9108,0.8601 0,0.4732 -1.65,3.4722 -3.6667,6.6644 l -3.6666,5.804 h -69 c -37.95,0 -69,-0.3858 -69,-0.8602 z m 152,-0.4992 c 0,-0.7491 1.5797,-3.7491 3.5105,-6.6667 l 3.5105,-5.3048 h 67.8228 c 37.3026,0 67.8228,0.43 67.8228,0.9555 0,0.5254 -0.9814,3.5254 -2.1812,6.6666 l -2.181,5.7112 h -69.1523 c -46.1801,0 -69.1521,-0.4524 -69.1521,-1.3618 z m 150.6666,0.8057 c 0,-0.3059 1.1787,-3.3059 2.6194,-6.6667 l 2.6192,-6.1105 h 68.2178 68.2178 l -0.8858,5.5395 c -0.4872,3.0468 -1.1993,6.0468 -1.5825,6.6666 -0.6808,1.1016 -139.2059,1.6699 -139.2059,0.5711 z m 152.7034,-5.1105 c 0.5156,-3.1167 1.2038,-6.1167 1.5292,-6.6667 0.3253,-0.55 31.1561,-1 68.5128,-1 h 67.9213 v 6.6667 6.6666 h -69.4505 -69.4506 z m 151.2966,-1 v -6.6663 h 67.9214 c 37.3566,0 68.1874,0.45 68.5128,1 0.3253,0.55 1.0136,3.55 1.5292,6.6667 l 0.9377,5.6666 h -69.4505 -69.4506 z m 151.4608,5.5394 c -0.3832,-0.6198 -1.0953,-3.6198 -1.5825,-6.6666 l -0.8857,-5.5391 h 68.2177 68.2179 l 2.6192,6.1105 c 1.4406,3.3608 2.6193,6.3608 2.6193,6.6667 0,1.0988 -138.5251,0.5305 -139.2059,-0.5711 z m 151.9772,0.1267 c -1.2173,-1.2095 -4.7713,-9.5243 -4.7713,-11.1628 0,-0.6565 29.7967,-1.1705 67.8467,-1.1705 h 67.8466 l 2.1534,3.3333 c 1.1842,1.8333 3.1224,4.8333 4.3066,6.6667 l 2.1534,3.3333 h -69.2644 c -38.0955,0 -69.7175,-0.45 -70.271,-1 z m 148.2287,-4.8084 c -2.0167,-3.1923 -3.6667,-6.1912 -3.6667,-6.6644 0,-0.4731 30.5599,-0.8601 67.9108,-0.8601 h 67.9107 l 4.756,5.804 c 2.6157,3.1921 4.7559,6.1921 4.7559,6.6666 0,0.4744 -31.05,0.8616 -69,0.8603 h -69 l -3.6667,-5.804 z m 150.494,-0.083 c -2.6551,-3.2401 -4.8273,-6.2401 -4.8273,-6.6666 0,-0.4266 30.4725,-0.7756 67.7168,-0.7756 h 67.7168 l 6.5664,6.6666 6.5664,6.6667 h -69.4559 -69.456 z m 150.506,-0.7743 -6.5664,-6.6667 h 66.948 66.9481 l 8.0019,6.214 c 4.4009,3.4176 8.0017,6.4176 8.0017,6.6667 0,0.2489 -30.7725,0.4526 -68.3834,0.4526 h -68.3835 z m 152.0121,0.2704 -7.9877,-6.2704 65.6484,-0.3459 65.6485,-0.3459 8.645,5.6792 c 4.7546,3.1236 8.6573,6.1292 8.6726,6.6792 0.015,0.55 -29.8222,0.9718 -66.3056,0.9371 l -66.3333,-0.063 -7.9879,-6.2705 z m 151.9736,0.063 -9.319,-6.3333 63.8485,-0.3464 63.8485,-0.3464 8.1515,4.588 c 16.672,9.3836 20.8412,8.6819 -51.8628,8.7291 l -65.3476,0.043 -9.3191,-6.3333 z M 801.96684,2692.9167 c 0,-0.2809 3.6529,-2.6869 8.11757,-5.3465 l 8.11756,-4.8356 62.21577,0.3465 62.21576,0.3464 -7.69256,5 -7.69254,5 h -62.64079 c -34.45243,0 -62.64077,-0.2299 -62.64077,-0.5108 z m 151.33333,-4.8225 8,-5.3248 h 63.84083 63.8409 l -6.6984,5.3333 -6.6984,5.3333 h -65.1424 -65.14253 l 8,-5.3248 z m 138.73333,4.2372 c 0.6967,-0.6028 3.753,-3.0028 6.7919,-5.3334 l 5.5252,-4.2372 65.1415,0.055 65.1414,0.055 -5.8381,5.2786 -5.8382,5.2787 h -66.0951 c -36.3524,0 -65.5252,-0.4932 -64.8286,-1.0961 z m 149.2667,-4.2372 5.2079,-5.3334 h 65.7294 c 36.1511,0 65.7294,0.4823 65.7294,1.0718 0,0.5894 -1.9786,2.9894 -4.3968,5.3333 l -4.3968,4.2616 h -66.5405 -66.5405 z m 144.8453,0.1133 4.488,-5.2204 66.412,-0.1133 c 52.7799,-0.089 66.2142,0.2293 65.4482,1.5538 -0.5303,0.9167 -2.1066,3.3167 -3.503,5.3334 l -2.5388,3.6666 h -67.3972 -67.3972 l 4.488,-5.2205 z m 143.2946,3.5539 c 0.5302,-0.9167 2.1065,-3.3167 3.5029,-5.3334 l 2.5388,-3.6666 h 65.9092 c 36.25,0 65.9092,0.2796 65.9092,0.6214 0,0.3418 -1.0111,2.7418 -2.2469,5.3334 l -2.247,4.7118 h -67.165 c -53.3574,0 -66.967,-0.3426 -66.2012,-1.6666 z m 145.8601,1.1622 c 0,-0.277 0.908,-2.677 2.0179,-5.3333 l 2.0178,-4.8295 h 66.1488 66.1488 l -0.8333,4.1667 c -0.4583,2.2917 -0.8333,4.6917 -0.8333,5.3333 0,0.6512 -29.746,1.1667 -67.3334,1.1667 -37.0333,0 -67.3333,-0.2267 -67.3333,-0.5039 z m 146.6849,-1.8294 c 0.013,-1.2834 0.3799,-3.6834 0.8222,-5.3334 l 0.804,-3 h 66.511 66.5112 v 5.3334 5.3333 h -67.3333 c -63.2451,0 -67.3323,-0.1417 -67.3151,-2.3333 z m 145.3151,-3 v -5.3334 h 66.5 66.5 l 0.8333,4.1667 c 0.4584,2.2917 0.8334,4.6917 0.8334,5.3333 0,0.6512 -29.746,1.1667 -67.3334,1.1667 h -67.3333 z m 146.1667,1.1666 c -0.4583,-2.2916 -0.8334,-4.6916 -0.8334,-5.3333 0,-0.6509 29.167,-1.1667 65.9822,-1.1667 h 65.9821 l 2.0179,4.8295 c 1.1098,2.6563 2.0178,5.0563 2.0178,5.3333 0,0.2772 -30.2249,0.5039 -67.1666,0.5039 h -67.1667 z m 145.1845,-0.6628 c -1.1099,-2.6562 -2.0179,-5.0562 -2.0179,-5.3333 0,-0.2772 29.6592,-0.5039 65.9092,-0.5039 h 65.9092 l 2.5388,3.6667 c 1.3964,2.0167 2.9727,4.4167 3.503,5.3333 0.7657,1.324 -12.8898,1.6667 -66.4303,1.6667 h -67.3941 z m 146.2916,1.1628 c -1.3964,-2.0166 -2.9727,-4.4166 -3.5029,-5.3333 -0.766,-1.3245 12.6682,-1.6435 65.4481,-1.5539 l 66.412,0.1134 4.488,5.2204 4.488,5.2205 h -67.3972 -67.3972 l -2.5388,-3.6667 z m 143.8692,-1.7794 -4.488,-5.2206 h 66.5508 66.5507 l 5.2078,5.3334 5.2079,5.3333 -67.2707,-0.1133 -67.2705,-0.1134 -4.488,-5.2204 z m 146.3261,0.1674 -5.8381,-5.2786 65.1415,-0.055 65.1414,-0.055 5.5252,4.2372 c 3.0388,2.3306 6.0952,4.7306 6.7919,5.3334 0.6967,0.6029 -28.4761,1.0961 -64.8285,1.0961 h -66.0952 z m 146.434,0.194 -6.3945,-4.9153 63.6371,-0.3464 63.6369,-0.3464 8.0909,5.3343 8.0908,5.3344 -65.3333,-0.072 -65.3333,-0.072 -6.3946,-4.9154 z m 147.0612,-0.013 -7.3333,-4.9031 61.8479,-0.3468 61.8478,-0.3468 8.4855,4.7455 c 4.6669,2.6099 8.4855,5.016 8.4855,5.3467 0,0.3308 -28.35,0.5578 -63,0.5045 l -63,-0.097 z m -2148,-18.1378 c 0,-0.3128 3.22304,-2.4128 7.16231,-4.6666 l 7.16229,-4.0979 h 60.48658 60.48656 l -6.9296,4.6667 -6.9296,4.6666 h -60.71927 c -33.3956,0 -60.71927,-0.256 -60.71927,-0.5688 z m 140,0.041 c 0,-0.2902 2.90254,-2.3902 6.45007,-4.6667 l 6.4501,-4.1389 h 61.74163 61.7417 l -6.1117,4.6666 -6.1118,4.6667 h -62.08 c -34.144,-3e-4 -62.08,-0.2377 -62.08,-0.528 z m 140,-0.024 c 0,-0.3032 2.5182,-2.4032 5.596,-4.6667 l 5.596,-4.1153 h 62.6656 62.6655 l -4.5231,4.6666 -4.5231,4.6667 h -63.7384 c -35.0562,1e-4 -63.7385,-0.248 -63.7385,-0.5512 z m 144.3138,-4.1515 4.9804,-4.6305 h 63.3529 c 34.8441,0 63.3529,0.4172 63.3529,0.927 0,0.5099 -1.6122,2.6099 -3.5828,4.6667 l -3.5828,3.7396 -64.7505,-0.036 -64.7505,-0.036 4.9804,-4.6307 z m 140.0193,0.3695 3.3415,-4.3334 64.1626,-0.3461 c 35.2896,-0.1904 64.1628,0.017 64.1628,0.4608 0,0.4439 -1.2408,2.5496 -2.7574,4.6795 l -2.7575,3.8725 h -64.7468 -64.7467 z m 140.6187,0 2.5305,-4.3334 64.2589,-0.3461 c 35.3423,-0.1904 64.2588,-0.013 64.2588,0.3996 0,0.4101 -0.9154,2.5159 -2.0342,4.6795 l -2.0343,3.9337 h -64.7551 -64.7552 z m 139.0482,3.6005 c 0,-0.4031 0.9155,-2.5031 2.0343,-4.6667 l 2.0343,-3.9337 h 64.1084 c 57.9106,0 64.0301,0.2039 63.299,2.1091 -0.4452,1.16 -0.8093,3.26 -0.8093,4.6666 0,2.4864 -1.8175,2.5576 -65.3333,2.5576 -35.9334,0 -65.3334,-0.3297 -65.3334,-0.7329 z m 141.8574,-1.3761 c 0.4452,-1.16 0.8093,-3.26 0.8093,-4.6667 0,-2.4861 1.808,-2.5576 64.6667,-2.5576 h 64.6666 v 4.6667 4.6666 h -65.476 c -59.1577,0 -65.3978,-0.2034 -64.6666,-2.109 z m 140.8093,-2.5572 v -4.6667 h 64.6667 c 62.8586,0 64.6666,0.072 64.6666,2.5576 0,1.4067 0.3642,3.5067 0.8094,4.6667 0.7312,1.9056 -5.509,2.109 -64.6667,2.109 h -65.476 z m 141.3151,3 c -0.013,-0.9167 -0.3815,-3.0226 -0.8255,-4.6796 l -0.8073,-3.013 64.3946,0.3463 64.3948,0.3463 1.768,4.3333 1.7679,4.3333 h -65.3371 c -51.3712,0 -65.341,-0.3562 -65.3554,-1.6666 z m 140.9917,-0.6667 c -0.3691,-1.2833 -1.1055,-3.3892 -1.6364,-4.6796 -0.9149,-2.2231 2.4041,-2.328 63.2361,-2 l 64.2019,0.3463 2.7433,4.3333 2.7435,4.3333 h -65.3088 c -61.0543,0 -65.3524,-0.152 -65.9796,-2.3333 z m 140.4507,-1.5392 c -1.5167,-2.1299 -2.7575,-4.2299 -2.7575,-4.6667 0,-0.4368 28.7288,-0.7941 63.8417,-0.7941 h 63.8418 l 3.5594,4.6667 3.5595,4.6666 h -64.6437 -64.6438 z m 139.9092,-0.7941 -4.5231,-4.6667 h 64.0393 64.0395 l 5.2221,4.6112 5.2222,4.6111 -64.7384,0.056 -64.7386,0.056 -4.523,-4.6667 z m 141.3333,0 -4.5231,-4.6667 h 62.7448 62.745 l 5.1833,4.1156 c 2.8508,2.2635 5.4333,4.3635 5.7389,4.6667 0.3055,0.303 -28.2268,0.551 -63.4052,0.551 h -63.9606 z m 141.4857,-0.068 -5.8476,-4.5982 h 61.731 61.7308 l 6.4501,4.139 c 3.5475,2.2765 6.45,4.3765 6.45,4.6666 0,0.2903 -28.05,0.4968 -62.3333,0.4592 l -62.3334,-0.069 -5.8476,-4.598 z m 141.8723,0 -6.642,-4.5932 h 60.4797 60.4796 l 7.1624,4.0978 c 3.9392,2.2539 7.1623,4.3539 7.1623,4.6667 0,0.3128 -27.45,0.5357 -61,0.4953 l -61,-0.073 -6.642,-4.5932 z m -2071.35803,-21.2654 7.33333,-4.6064 57.66667,-0.031 c 31.71667,-0.016 57.66563,0.4198 57.66433,0.9698 0,0.55 -2.6142,2.65 -5.8065,4.6667 l -5.80413,3.6667 -59.19351,-0.031 -59.19352,-0.031 7.33333,-4.6064 z m 129.33333,4.139 c 0,-0.2902 2.9026,-2.3902 6.4501,-4.6667 l 6.4501,-4.1389 59.2166,0.049 59.2166,0.051 -5.3334,4.5968 -5.3333,4.5966 -60.3333,0.02 c -33.1834,0.013 -60.3334,-0.2176 -60.3334,-0.5078 z m 140.1457,-4.126 5.8543,-4.6538 60.3334,-0.013 c 33.1833,-0.013 60.3333,0.4371 60.3333,0.9871 -10e-5,0.55 -2.068,2.65 -4.5955,4.6666 l -4.5954,3.6667 h -61.5922 -61.5922 l 5.8543,-4.6537 z m 134.8347,-0.049 4.9805,-4.6305 h 61.3529 c 33.7441,0 61.3529,0.4172 61.3529,0.9271 0,0.5098 -1.6123,2.6098 -3.5828,4.6666 l -3.5828,3.7396 -62.7505,-0.036 -62.7506,-0.036 4.9804,-4.6306 z m 133.0196,3.776 c 0,-0.5098 1.6123,-2.6098 3.5828,-4.6666 l 3.5828,-3.7396 h 61.0839 c 33.5961,0 61.0839,0.3574 61.0839,0.7942 0,0.4368 -1.0294,2.5368 -2.2875,4.6667 l -2.2875,3.8724 h -62.3792 c -34.3085,0 -62.3792,-0.4172 -62.3792,-0.9271 z m 138.4815,-3.4062 2.7435,-4.3334 62.0541,-0.3465 c 34.1299,-0.1905 62.0543,-0.013 62.0543,0.3996 0,0.4103 -0.9155,2.5163 -2.0343,4.6799 l -2.0343,3.9337 h -62.7633 -62.7633 z m 135.5919,1.3329 c 2.0048,-6.5395 -0.1027,-6.3333 64.7565,-6.3333 59.4119,0 61.1701,0.073 61.1701,2.5576 0,7.1382 3.4367,6.7757 -64.2325,6.7757 h -62.6139 z m 136.483,-1.3333 0.8863,-4.3334 h 61.9453 61.9454 l 0.4178,4.3334 0.4178,4.3333 h -63.2494 -63.2494 z m 136.1103,-0.3334 v -4.6666 h 61.8573 c 66.845,0 63.476,-0.3596 63.476,6.7757 0,2.4849 -1.7796,2.5576 -62.6666,2.5576 h -62.6667 z m 136.8093,2.5576 c -0.4452,-1.16 -0.8093,-3.26 -0.8093,-4.6666 0,-2.4842 1.7601,-2.5576 61.2991,-2.5576 h 61.299 l 2.0343,3.9337 c 1.1188,2.1636 2.0343,4.2636 2.0343,4.6667 0,0.4032 -28.1359,0.7329 -62.524,0.7329 -55.7838,0 -62.6114,-0.2273 -63.3334,-2.1091 z m 136.1642,-0.2242 c -0.3691,-1.2834 -1.1032,-3.3834 -1.6315,-4.6667 -0.9068,-2.2025 2.5152,-2.3333 61.0503,-2.3333 h 62.0109 l 2.7535,4.6666 2.7533,4.6667 h -63.1328 c -58.982,0 -63.1769,-0.1535 -63.8037,-2.3333 z m 135.8465,-0.9531 c -1.1843,-1.8076 -2.1533,-3.9076 -2.1533,-4.6667 0,-0.9313 19.8661,-1.3802 61.0838,-1.3802 h 61.0839 l 3.5828,3.7396 c 1.9705,2.0568 3.5828,4.1568 3.5828,4.6666 0,0.5099 -28.1309,0.9271 -62.5133,0.9271 h -62.5134 z m 136.0961,-0.4532 c -1.9705,-2.0568 -3.5828,-4.1568 -3.5828,-4.6667 0,-0.5098 27.45,-0.9181 61,-0.9072 l 61,0.02 5.3334,4.5967 5.3333,4.5968 -62.7505,0.051 -62.7506,0.049 z m 136.7506,-0.079 c -2.3834,-2.0402 -4.3334,-4.1158 -4.3334,-4.6124 0,-0.4966 27.15,-0.894 60.3334,-0.883 l 60.3333,0.02 5.3333,4.5966 5.3334,4.5968 h -61.3334 -61.3333 l -4.3333,-3.7096 z m 136.3333,-0.8184 -5.3333,-4.5968 59.2166,-0.051 59.2166,-0.049 6.4501,4.139 c 3.5475,2.2765 6.45,4.3765 6.45,4.6666 0,0.2903 -27.15,0.5188 -60.3333,0.5079 l -60.3334,-0.02 z m 138.3429,0.9487 c -3.1113,-2.0051 -5.6613,-4.0956 -5.6666,-4.6456 0,-0.55 25.764,-1 57.265,-1 h 57.2747 l 7.0587,4.1415 c 3.8822,2.2778 7.3086,4.3778 7.6142,4.6666 0.3055,0.2888 -26.0945,0.5158 -58.6666,0.5042 l -59.2223,-0.021 -5.6571,-3.6454 z m 147.6335,-103.3123 c -0.013,-0.1833 -1.8129,-6.0037 -4,-12.9341 l -3.9764,-12.6004 v -724.3991 -724.399 h -1102 -1102.00003 v 726.433 726.4331 l -3.33333,9.8004 c -1.83334,5.3903 -3.33334,10.2954 -3.33334,10.9003 0,0.6048 499.2,1.0997 1109.3334,1.0997 610.1333,0 1109.3228,-0.15 1109.3097,-0.3333 z"
     style="fill:#000000;stroke-width:1.33333337" />
</svg>
