<?xml version="1.0" encoding="UTF-8" standalone="no"?>
<!-- Created with Inkscape (http://www.inkscape.org/) -->

<svg
   xmlns:dc="http://purl.org/dc/elements/1.1/"
   xmlns:cc="http://creativecommons.org/ns#"
   xmlns:rdf="http://www.w3.org/1999/02/22-rdf-syntax-ns#"
   xmlns:svg="http://www.w3.org/2000/svg"
   xmlns="http://www.w3.org/2000/svg"
   xmlns:sodipodi="http://sodipodi.sourceforge.net/DTD/sodipodi-0.dtd"
   xmlns:inkscape="http://www.inkscape.org/namespaces/inkscape"
   version="1.1"
   id="svg99"
   width="1125.3333"
   height="1512"
   viewBox="0 0 1125.3333 1512"
   sodipodi:docname="Leptp.svg"
   inkscape:version="0.92.1 r15371">
  <metadata
     id="metadata105">
    <rdf:RDF>
      <cc:Work
         rdf:about="">
        <dc:format>image/svg+xml</dc:format>
        <dc:type
           rdf:resource="http://purl.org/dc/dcmitype/StillImage" />
        <dc:title></dc:title>
      </cc:Work>
    </rdf:RDF>
  </metadata>
  <defs
     id="defs103" />
  <sodipodi:namedview
     pagecolor="#ffffff"
     bordercolor="#666666"
     borderopacity="1"
     objecttolerance="10"
     gridtolerance="10"
     guidetolerance="10"
     inkscape:pageopacity="0"
     inkscape:pageshadow="2"
     inkscape:window-width="1366"
     inkscape:window-height="692"
     id="namedview101"
     showgrid="false"
     inkscape:zoom="0.3287037"
     inkscape:cx="562.66663"
     inkscape:cy="756"
     inkscape:window-x="0"
     inkscape:window-y="27"
     inkscape:window-maximized="1"
     inkscape:current-layer="svg99" />
  <path
     style="fill:#000000;stroke-width:1.33333337"
     d="m 446.05621,1314.7023 c -0.90394,-1.6889 -1.38024,-28.1458 -1.38024,-76.6666 v -74.0876 l -10.33334,0.01 c -5.68333,0 -15.28333,0.3933 -21.33333,0.8643 l -11,0.8563 v 37.6084 37.6084 l -17,0.7823 -17,0.7824 -3.6308,-4.2551 -3.6308,-4.255 -0.0359,-33.6248 c -0.0313,-29.3314 -0.29124,-33.5269 -2.03587,-32.8574 -1.38916,0.5331 -2,2.7008 -2,7.0975 v 6.3301 l -17,0.7985 -17,0.7986 -3.66667,-3.959 -3.66666,-3.9589 v -123.3143 c 0,-67.82183 -0.45,-123.30693 -1,-123.30033 -0.55,0.01 -32.5,1.4983 -71,3.315 -38.5,1.8166 -73.45,3.3113 -77.66667,3.3213 l -7.66666,0.018 v 158.47103 158.471 l -10.20117,0.8624 c -5.61064,0.4743 -13.5978,0.8623 -17.74926,0.8623 -6.81773,0 -7.83037,-0.3819 -10.46549,-3.946 l -2.91737,-3.9457 v -154.054 c 0,-153.16513 -0.0154,-154.05403 -2.66667,-154.05403 -2.64802,0 -2.66667,0.8889 -2.66667,127.13773 v 127.1377 l -10.20117,0.8623 c -5.610644,0.4743 -13.380114,0.8623 -17.265474,0.8623 -6.44401,0 -7.36296,-0.3915 -10.4655,-4.4592 l -3.40119,-4.4592 -0.0159,-143.2075 -0.0159,-143.20753 -10.65072,-13.9706 -10.65073,-13.9706 V 525.64402 181.28131 h 11.14865 11.14865 l 26.17961,34.33333 26.179614,34.33334 0.17989,56.66666 c 0.0989,31.16667 0.61652,53.36667 1.15017,49.33334 2.58732,-19.55484 14.64779,-46.01432 27.88375,-61.17419 15.8211,-18.12079 40.95402,-33.46463 63.02865,-38.47948 13.13819,-2.98471 41.04091,-2.99025 54.15038,-0.0107 30.14052,6.85024 61.16107,30.26851 76.21244,57.53487 26.17287,47.41357 17.9896,105.40872 -20.29205,143.81068 -3.17873,3.18872 -4.40565,5.2472 -3.33333,5.59253 0.93329,0.30058 51.4969,11.10807 112.36357,24.01667 60.86666,12.90859 112.96094,24.46015 115.76506,25.67013 2.80412,1.20999 7.71183,5.10674 10.90603,8.65944 21.16922,23.54528 6.53097,61.44792 -24.43754,63.27578 -7.4881,0.44196 -20.4296,-1.89582 -81.56689,-14.7344 -39.96666,-8.39284 -72.82393,-15.10528 -73.01616,-14.91654 -0.19222,0.18874 36.10778,23.46678 80.66667,51.72899 l 81.01616,51.38581 90.8923,-4.17976 c 49.9907,-2.29886 91.1844,-4.47976 91.5415,-4.84642 0.5756,-0.59094 22.2752,-104.94115 48.4782,-233.1245 l 9.088,-44.45782 5.9805,0.80866 c 3.2892,0.44476 7.0018,1.85079 8.2501,3.1245 7.3503,7.49994 82.3094,107.96764 81.809,109.6487 -1.8022,6.05419 -32.5394,157.94511 -32.0595,158.42499 0.3154,0.3154 25.8817,-0.55285 56.8141,-1.92947 l 56.2406,-2.50294 20.8729,27.33728 c 11.4801,15.03549 38.09732,49.93254 59.14932,77.549 l 38.2763,50.21162 v 246.83029 c 0,196.263 -0.3414,246.95 -1.6666,247.4153 -1.8057,0.6341 -611.82919,28.7027 -623.28648,28.6788 -5.50053,-0.013 -7.24143,-0.5532 -8.33333,-2.5935 z M 720.676,1285.2138 c 127.9666,-5.8167 254.5666,-11.5163 281.3333,-12.6657 26.7667,-1.1495 50.6699,-2.392 53.1183,-2.761 l 4.4516,-0.6709 -0.4516,-223.1399 c -0.2484,-122.72693 -0.7644,-223.45253 -1.1466,-223.83463 -0.7402,-0.7399 -88.8191,2.9733 -91.6384,3.8632 -1.3209,0.4169 -1.6666,33.0373 -1.6666,157.2347 v 156.70853 h -5.3056 c -2.9181,0 -63.9681,2.6976 -135.6667,5.9946 -71.6986,3.2971 -169.9611,7.7949 -218.3611,9.995 -114.40532,5.2007 -139.59397,6.4932 -140.30038,7.1997 -0.31999,0.32 -0.92723,30.652 -1.34941,67.4045 l -0.76762,66.8227 12.54206,-0.7876 c 6.89813,-0.4331 117.24205,-5.5465 245.20875,-11.3632 z M 360.67597,1036.6147 c 0,-96.88893 -0.23839,-110.00003 -2,-110.00003 -1.76161,0 -2,13.1111 -2,110.00003 0,96.8889 0.23839,110 2,110 1.76161,0 2,-13.1111 2,-110 z m 82.33333,106.5969 c 1.31091,-0.4036 1.66384,-18.8082 1.6534,-86.2217 l -0.0133,-85.70853 -18.20635,-11.3333 c -10.01349,-6.2334 -19.60752,-12.1025 -21.32006,-13.0426 l -3.11371,-1.7093 v 100.00343 100.0034 l 19.66667,-0.7391 c 10.81666,-0.4065 20.41666,-0.97 21.33333,-1.2523 z m 263,-11.9827 c 122.8333,-5.4901 227.1368,-10.3277 231.7855,-10.7503 l 8.4523,-0.7683 -0.9547,-146.21443 c -0.5251,-80.418 -1.0592,-146.3452 -1.187,-146.5048 -0.1277,-0.1596 -85.0497,3.6124 -188.7155,8.3823 l -188.48327,8.6726 -5.44867,5.7897 c -2.99677,3.1843 -8.07522,7.1135 -11.28546,8.7316 -10.13499,5.1082 -16.57679,4.8563 -48.81342,-1.9086 -16.12427,-3.3838 -30.67427,-6.493 -32.33333,-6.9093 l -3.01645,-0.7571 v 22.7295 22.7295 l 45.66666,28.9287 c 25.11667,15.9107 46.91471,30.0563 48.44011,31.4346 1.52539,1.3783 4.07917,5.1205 5.67509,8.316 14.5333,29.1001 -8.26422,61.04683 -40.1513,56.26513 -4.3437,-0.6514 -12.72594,-5.1437 -31.61728,-16.9446 -14.1386,-8.83203 -26.52557,-16.37253 -27.52659,-16.75663 -1.52516,-0.5853 -1.82002,12.071 -1.82002,78.12023 v 78.8186 l 9,-0.7112 c 4.95,-0.3912 109.49999,-5.2031 232.33333,-10.6932 z m -261.62796,-268.94013 -0.37204,-17.6593 -39.33333,-8.2853 c -21.63334,-4.5568 -40.04835,-8.1602 -40.92227,-8.0074 -1.53036,0.2676 77.84561,51.4478 79.96097,51.5574 0.57128,0.03 0.87128,-7.8928 0.66667,-17.6054 z m -287.4221,-31.2122 12.94995,-0.8575 -2.44562,-3.4689 c -4.01468,-5.6944 -9.69813,-17.6038 -12.4725,-26.13553 -2.46414,-7.57762 -2.65748,-14.22994 -3.66218,-126 -0.58338,-64.9 -0.55088,-122.5 0.0723,-128 2.65077,-23.39746 16.90788,-49.24388 33.89097,-61.44021 3.3278,-2.38984 6.05055,-4.72293 6.05055,-5.18463 0,-0.4617 -2.04549,-1.57912 -4.54555,-2.48314 -7.12201,-2.57536 -24.62624,-16.63759 -33.82656,-27.17499 -14.15837,-16.21595 -25.46062,-41.13129 -28.2989,-62.38369 -0.53867,-4.03334 -1.05805,94.21666 -1.1542,218.33333 l -0.17486,225.66666 10.33334,-0.01 c 5.68333,0 16.16079,-0.3928 23.28326,-0.8645 z m 413.61987,-64.30521 c 0.39995,-0.64714 -0.50819,-2.74714 -2.01809,-4.66666 -2.48854,-3.16368 -3.57787,-3.4813 -11.6485,-3.39634 -4.89677,0.0515 -9.99097,0.52263 -11.32045,1.04687 -2.28524,0.90112 -2.26176,1.1508 0.43011,4.57296 2.66624,3.38956 3.51461,3.61979 13.33853,3.61979 5.77016,0 10.81844,-0.52948 11.2184,-1.17662 z m 29.74669,-0.9927 2.9832,-0.79958 -2.7406,-3.84888 c -2.624,-3.68497 -3.1878,-3.84889 -13.23788,-3.84889 -5.77345,0 -10.82441,0.52948 -11.22437,1.17661 -0.39995,0.64715 0.50819,2.74715 2.01809,4.66667 2.43552,3.09627 3.6746,3.488 10.98186,3.47185 4.5301,-0.0107 9.579,-0.37802 11.2197,-0.81778 z m 28.7453,-1.33354 6.1007,-0.8362 -2.832,-3.83046 c -2.7237,-3.68406 -3.2557,-3.83048 -13.9146,-3.83048 -11.8095,0 -12.6964,0.61232 -8.7492,6.04062 2.5244,3.47168 7.4433,4.0947 19.3951,2.45652 z m 31.8252,-1.61396 6.2203,-0.88318 -2.9812,-3.72207 c -2.904,-3.62551 -3.2819,-3.71197 -14.5718,-3.33333 l -11.5906,0.38873 3.0181,4.31029 c 3.2728,4.67395 6.3154,5.16912 19.9052,3.23956 z m 36.9107,-2.27445 c 0.2554,-0.23449 -0.6446,-1.94853 -2,-3.80897 -2.3088,-3.1691 -3.2008,-3.38527 -14.131,-3.42454 -6.4167,-0.0231 -11.6667,0.2824 -11.6667,0.67876 0,0.39636 1.3492,2.5456 2.9983,4.7761 l 2.9983,4.05542 10.6684,-0.92521 c 5.8676,-0.50887 10.8773,-1.11707 11.1327,-1.35156 z m 31.9373,-1.30476 c 0.221,-0.18129 -1.0299,-1.99396 -2.7796,-4.02816 -3.0308,-3.52353 -3.68,-3.68397 -13.7203,-3.39081 -5.7964,0.16925 -10.761,0.52981 -11.0325,0.80126 -0.2714,0.27144 0.8199,2.33812 2.4253,4.5926 l 2.9188,4.09907 10.8933,-0.87217 c 5.9913,-0.4797 11.0741,-1.0205 11.295,-1.20179 z m 32.0266,-1.35587 c 0.2355,-0.1981 -1.2645,-2.1329 -3.3333,-4.29956 -3.6897,-3.864 -3.9713,-3.92752 -14.7231,-3.32118 l -10.9616,0.61817 3.3539,4.39711 3.3538,4.3971 10.941,-0.71572 c 6.0176,-0.39364 11.1337,-0.8778 11.3693,-1.07592 z m 30.625,-1.01765 c 1.0968,-0.1682 0.3721,-1.82979 -2,-4.58561 l -3.7199,-4.32184 -10.9692,0.9885 -10.9691,0.9885 3.1779,4.05062 c 3.0986,3.94963 3.4219,4.03932 12.9691,3.59712 5.3852,-0.24942 10.5652,-0.57221 11.5112,-0.71729 z m -230.3866,-2.08397 c 0,-0.63444 -1.24355,-2.73444 -2.76344,-4.66667 -2.28594,-2.90609 -3.84108,-3.51061 -9,-3.49847 -3.43011,0.008 -8.47308,0.38439 -11.20659,0.83626 l -4.97004,0.82158 2.72749,3.8304 c 2.63451,3.69983 3.11078,3.83042 13.97003,3.83042 6.1834,0 11.24255,-0.51908 11.24255,-1.15352 z m 31.0717,-1.02931 c 0.4672,-0.46723 -0.3736,-2.56723 -1.8686,-4.66667 -2.5416,-3.56937 -3.2964,-3.81109 -11.62722,-3.72345 -4.90007,0.0515 -9.99696,0.52263 -11.32644,1.04687 -2.28524,0.90112 -2.26176,1.1508 0.4301,4.57296 2.66026,3.38196 3.52722,3.61978 13.195,3.61978 5.69126,0 10.72996,-0.38226 11.19716,-0.84949 z m 29.9115,-1.31983 2.9832,-0.79957 -2.7407,-3.84888 c -2.6239,-3.68497 -3.1877,-3.84889 -13.2378,-3.84889 -5.7735,0 -10.8244,0.52948 -11.2244,1.17661 -0.3999,0.64715 0.5082,2.74715 2.0181,4.66667 2.4355,3.09626 3.6746,3.488 10.9818,3.47185 4.5301,-0.0107 9.579,-0.37803 11.2198,-0.81779 z m 29.9373,-1.34024 4.9204,-0.81354 -2.8378,-3.83844 c -2.7308,-3.69356 -3.2562,-3.83846 -13.9205,-3.83846 -11.8095,0 -12.6964,0.61232 -8.7493,6.04063 1.9213,2.6422 3.5107,3.21372 9,3.23613 3.6667,0.0149 8.8809,-0.33886 11.5872,-0.78632 z m -284.1792,-6.1571 c -2.25008,-3.11667 -7.08736,-9.52488 -10.74951,-14.24048 l -6.65845,-8.57382 v 12.12488 12.1249 l 8.33333,1.95969 c 13.58388,3.19444 13.77924,3.12135 9.07463,-3.39517 z m 319.5608,3.809 c 0.3177,-0.3177 -0.4393,-2.1297 -1.6822,-4.02666 -2.1501,-3.28144 -2.8355,-3.44901 -14.1066,-3.44901 -6.5156,0 -11.8466,0.35511 -11.8466,0.78912 0,0.43401 1.35,2.55557 3,4.71457 2.9696,3.88578 3.1064,3.91851 13.5289,3.23754 5.7909,-0.37835 10.7888,-0.94786 11.1065,-1.26556 z m 32.1623,-1.50198 c 0.2554,-0.25189 -0.6446,-1.98016 -2,-3.8406 -2.3088,-3.16909 -3.2009,-3.38526 -14.1311,-3.42453 -6.4166,-0.0231 -11.6666,0.2824 -11.6666,0.67876 0,0.39636 1.35,2.55704 3,4.80152 l 3,4.08085 10.6666,-0.919 c 5.8667,-0.50545 10.8757,-1.1251 11.1311,-1.377 z m 31.9373,-1.32422 c 0.2209,-0.18798 -1.0299,-2.00612 -2.7796,-4.04032 -3.0309,-3.52354 -3.6801,-3.68398 -13.7203,-3.39082 -5.7964,0.16926 -10.7611,0.52982 -11.0325,0.80127 -0.2715,0.27144 0.838,2.36355 2.4655,4.64912 l 2.959,4.15557 10.8531,-0.91652 c 5.9692,-0.50409 11.0339,-1.07033 11.2548,-1.2583 z m 31.9864,-1.3279 c 0.2135,-0.17602 -1.1152,-2.10665 -2.9526,-4.29028 -3.2859,-3.90506 -3.511,-3.95974 -13.7214,-3.33264 -5.7094,0.35067 -10.5962,0.82739 -10.8596,1.05936 -0.2633,0.23199 0.7871,2.19956 2.3343,4.3724 l 2.8131,3.95063 10.9991,-0.71969 c 6.0494,-0.39584 11.1736,-0.86374 11.3871,-1.03978 z m -231.65656,-2.98824 c -0.74926,-1.28333 -2.7343,-3.97253 -4.41121,-5.97601 -2.85804,-3.41463 -3.37784,-3.55187 -8.30275,-2.19203 -2.8896,0.79786 -7.82566,1.16076 -10.96904,0.80647 -3.14336,-0.35431 -5.71521,-0.38584 -5.71521,-0.0701 0,0.31576 1.65,2.64204 3.66667,5.16951 l 3.66666,4.59539 11.71358,4e-5 c 10.78588,4e-5 11.60569,-0.18476 10.3513,-2.3333 z M 833.9248,616.92836 c 14.1284,-68.76078 25.3756,-125.83388 24.9937,-126.82909 -0.3819,-0.99521 -17.087,-23.32319 -37.1225,-49.61773 -26.3548,-34.58804 -36.5645,-47.07896 -36.9213,-45.17091 -0.2713,1.45055 -12.0511,58.72185 -26.1774,127.26959 l -25.6842,124.63225 36.7863,48.34623 c 20.2325,26.59042 37.1577,47.90592 37.6118,47.36774 0.454,-0.53816 12.3851,-57.23729 26.5136,-125.99808 z M 584.67596,741.46112 c 0,-0.63444 -1.24354,-2.73444 -2.76344,-4.66666 -2.97625,-3.7837 -6.88566,-4.33262 -19.01561,-2.67003 l -6.15124,0.84312 2.72261,3.82355 c 2.62864,3.6916 3.11056,3.82354 13.96514,3.82354 6.1834,0 11.24254,-0.51908 11.24254,-1.15352 z m 32.00004,-1.33333 c 0,-0.63444 -1.2436,-2.73444 -2.7635,-4.66667 -2.5095,-3.19038 -3.5814,-3.50453 -11.6666,-3.41942 -4.8968,0.0515 -9.991,0.52262 -11.3205,1.04686 -2.2852,0.90112 -2.2618,1.1508 0.4301,4.57296 2.6948,3.42591 3.4492,3.61979 14.0839,3.61979 6.1801,0 11.2366,-0.51908 11.2366,-1.15352 z m 29.8824,-0.98588 c 1.8397,-0.70593 1.7591,-1.28567 -0.6484,-4.66667 -2.6338,-3.69888 -3.1887,-3.8606 -13.2461,-3.8606 -5.7735,0 -10.8245,0.52948 -11.2244,1.17662 -0.4,0.64714 0.5082,2.74714 2.0181,4.66666 2.4835,3.15728 3.6155,3.49006 11.8728,3.49006 5.0201,0 10.0727,-0.36274 11.228,-0.80607 z m 29.038,-1.37016 4.9205,-0.81355 -2.8379,-3.83844 c -2.7307,-3.69356 -3.2562,-3.83845 -13.9204,-3.83845 -11.8095,0 -12.6964,0.61232 -8.7493,6.04063 1.9213,2.6422 3.5107,3.21372 9,3.23613 3.6667,0.0149 8.8809,-0.33887 11.5871,-0.78632 z m 35.3817,-2.34811 c 0.3177,-0.31769 -0.4393,-2.12969 -1.6823,-4.02665 -2.1501,-3.28144 -2.8354,-3.44901 -14.1065,-3.44901 -6.5157,0 -11.8467,0.3551 -11.8467,0.78912 0,0.43401 1.35,2.55557 3,4.71457 2.9697,3.88577 3.1065,3.91851 13.5289,3.23753 5.7909,-0.37834 10.7889,-0.94785 11.1066,-1.26556 z m 32.1622,-1.50197 c 0.2554,-0.25189 -0.6446,-1.98016 -2,-3.8406 -2.3088,-3.16909 -3.2008,-3.38527 -14.131,-3.42453 -6.4167,-0.0231 -11.6667,0.2824 -11.6667,0.67876 0,0.39636 1.35,2.55704 3,4.80152 l 3,4.08085 10.6667,-0.919 c 5.8667,-0.50545 10.8756,-1.12511 11.131,-1.377 z m 31.9374,-1.32423 c 0.2209,-0.18797 -1.0299,-2.00612 -2.7797,-4.04032 -3.0308,-3.52353 -3.68,-3.68397 -13.7203,-3.39081 -5.7964,0.16925 -10.761,0.52981 -11.0324,0.80127 -0.2715,0.27144 0.838,2.36354 2.4654,4.64912 l 2.9591,4.15557 10.8531,-0.91652 c 5.9692,-0.50409 11.0338,-1.07033 11.2548,-1.25831 z m -199.18807,-3.64946 c -2.62077,-4.62848 -6.65653,-7.66667 -10.18399,-7.66667 -3.58352,0 -13.02954,6.04137 -13.02964,8.33333 -2e-5,0.55 5.43538,1 12.07866,1 9.27737,0 11.85981,-0.38653 11.13497,-1.66666 z m 31.45297,-0.82019 c 0,-0.63444 -1.2435,-2.73444 -2.7634,-4.66667 -2.9763,-3.78369 -6.8857,-4.33261 -19.01562,-2.67002 l -6.15124,0.84312 2.72261,3.82354 c 2.62864,3.6916 3.11056,3.82355 13.96515,3.82355 6.1834,0 11.2425,-0.51908 11.2425,-1.15352 z m 32,-0.97399 c 0,-0.4368 -1.2408,-2.5368 -2.7574,-4.66666 -2.5576,-3.59183 -3.3549,-3.86287 -11,-3.73959 -4.5334,0.0731 -9.6439,0.52687 -11.3567,1.00837 l -3.1142,0.87547 2.8776,3.65829 c 2.7309,3.4718 3.4504,3.6583 14.1142,3.6583 6.1801,0 11.2365,-0.35738 11.2365,-0.79418 z m 29.8825,-1.34522 c 1.8396,-0.70594 1.7591,-1.28567 -0.6484,-4.66667 -2.5985,-3.6492 -3.2733,-3.85948 -12.3249,-3.84019 -12.175,0.026 -13.9149,1.00807 -10.1853,5.74943 2.5505,3.24243 3.6254,3.56349 11.9305,3.56349 5.0202,0 10.0728,-0.36273 11.2281,-0.80606 z m 29.8783,-1.34608 4.0941,-0.81883 -2.8449,-3.84784 c -2.739,-3.70479 -3.2568,-3.84785 -13.9274,-3.84785 -11.8095,0 -12.6964,0.61232 -8.7492,6.04062 1.9789,2.72151 3.4725,3.21527 9.8333,3.25082 4.125,0.0231 9.3423,-0.32658 11.5941,-0.77692 z m 34.4735,-2.30432 c 0.3819,-0.38198 -0.4145,-2.21667 -1.7699,-4.07711 -2.3088,-3.16909 -3.2009,-3.38527 -14.131,-3.42453 -6.4167,-0.0231 -11.6667,0.2824 -11.6667,0.67876 0,0.39636 1.35,2.56521 3,4.81968 2.9997,4.09866 3.0009,4.09896 13.4365,3.39834 5.7401,-0.38536 10.7491,-1.01318 11.1311,-1.39514 z m 32.2301,-1.56984 c 0.2554,-0.2519 -0.6446,-1.98016 -2,-3.8406 -2.3088,-3.1691 -3.2009,-3.38527 -14.131,-3.42454 -6.4167,-0.0231 -11.6667,0.2824 -11.6667,0.67876 0,0.39636 1.35,2.55704 3,4.80152 l 3,4.08086 10.6667,-0.919 c 5.8666,-0.50546 10.8756,-1.12511 11.131,-1.377 z m -198.46437,-2.56167 c 0,-0.32339 -0.6,-0.9588 -1.33333,-1.41203 -0.73334,-0.45322 -1.33334,-0.18864 -1.33334,0.58798 0,0.77661 0.6,1.41202 1.33334,1.41202 0.73333,0 1.33333,-0.26458 1.33333,-0.58797 z m 29.36207,-4.70504 c -1.5508,-2.17783 -3.3999,-4.31833 -4.1092,-4.75669 -0.7093,-0.43836 -6.04438,-0.38226 -11.8558,0.12466 l -10.56624,0.92171 2.83533,3.835 c 2.75301,3.72367 3.17905,3.835 14.67541,3.835 h 11.84 z m 33.3046,1.47283 c 0,-0.63444 -1.2435,-2.73444 -2.7634,-4.66667 -2.9763,-3.78369 -6.8857,-4.33261 -19.0157,-2.67003 l -6.1512,0.84312 2.7226,3.82355 c 2.6287,3.6916 3.1106,3.82355 13.9652,3.82355 6.1834,0 11.2425,-0.51908 11.2425,-1.15352 z m 32,-0.97399 c 0,-0.4368 -1.2409,-2.5368 -2.7575,-4.66667 -2.5576,-3.59182 -3.3548,-3.86286 -11,-3.73958 -4.5334,0.0731 -9.6439,0.52686 -11.3567,1.00837 l -3.1141,0.87547 2.8776,3.65829 c 2.7309,3.4718 3.4504,3.65829 14.1141,3.65829 6.1801,0 11.2366,-0.35737 11.2366,-0.79417 z m 29.8825,-1.34523 c 1.8396,-0.70593 1.759,-1.28566 -0.6484,-4.66666 -2.5985,-3.6492 -3.2734,-3.85948 -12.3249,-3.84019 -12.1751,0.026 -13.9149,1.00807 -10.1854,5.74943 2.5505,3.24242 3.6255,3.56349 11.9306,3.56349 5.0201,0 10.0728,-0.36273 11.2281,-0.80607 z m 29.8783,-1.34608 4.094,-0.81882 -2.8448,-3.84784 c -2.7391,-3.70479 -3.2569,-3.84786 -13.9274,-3.84786 -11.8095,0 -12.6964,0.61232 -8.7493,6.04063 1.979,2.72151 3.4725,3.21527 9.8334,3.25081 4.125,0.0231 9.3423,-0.32657 11.5941,-0.77692 z m 34.4734,-2.30432 c 0.382,-0.38197 -0.4144,-2.21666 -1.7698,-4.0771 -2.3088,-3.1691 -3.2009,-3.38527 -14.1311,-3.42454 -6.4166,-0.0231 -11.6666,0.2824 -11.6666,0.67876 0,0.39636 1.35,2.56522 3,4.81968 2.9997,4.09867 3.0008,4.09896 13.4365,3.39835 5.7401,-0.38536 10.7491,-1.01319 11.131,-1.39515 z m -167.4981,-5.87686 c -3.95048,-6.78911 -4.94124,-7.31371 -11.98325,-6.34519 -6.35277,0.87373 -6.75285,1.15832 -6.75285,4.80364 v 3.87488 h 10.0469 c 9.1968,0 9.932,-0.19743 8.6892,-2.33333 z m 30.6259,-2.95968 c -1.5507,-2.17783 -3.3998,-4.31834 -4.1091,-4.7567 -0.7093,-0.43836 -6.0679,-0.38021 -11.908,0.1292 l -10.6184,0.92626 2.7276,3.83045 c 2.6578,3.73261 3.034,3.83047 14.7275,3.83047 h 12 z m 33.3047,1.47282 c 0,-0.63444 -1.2436,-2.73444 -2.7635,-4.66666 -2.979,-3.78719 -5.5912,-4.16811 -18.1983,-2.6537 l -6.9618,0.83627 2.7193,3.81881 c 2.6246,3.68592 3.1104,3.8188 13.9617,3.8188 6.1834,0 11.2426,-0.51908 11.2426,-1.15352 z m 32,-0.97398 c 0,-0.4368 -1.2409,-2.5368 -2.7575,-4.66667 -2.5201,-3.53912 -3.4096,-3.85891 -10.3333,-3.71475 -4.1668,0.0868 -9.283,0.53678 -11.3695,1 l -3.7936,0.84226 2.8904,3.66666 c 2.7442,3.4813 3.4584,3.66667 14.1269,3.66667 6.1801,0 11.2366,-0.35737 11.2366,-0.79417 z m 31.0717,-1.38866 c 0.4672,-0.46722 -0.3737,-2.56722 -1.8686,-4.66666 -2.5621,-3.5982 -3.2674,-3.816 -12.2939,-3.79676 -12.3993,0.0264 -14.6326,1.30664 -10.3085,5.90936 2.8884,3.07461 4.1844,3.40356 13.4095,3.40356 5.6166,0 10.5943,-0.38227 11.0615,-0.8495 z m 28.689,-1.30265 4.0941,-0.81883 -2.8448,-3.84784 c -2.7105,-3.66608 -3.3332,-3.84785 -13.1821,-3.84785 -5.6855,0 -10.7047,0.59461 -11.1539,1.32135 -0.4491,0.72674 0.2655,2.80789 1.588,4.62477 2.0584,2.82777 3.4845,3.30944 9.9046,3.34532 4.125,0.0231 9.3424,-0.32657 11.5941,-0.77692 z m -163.76074,-5.23517 c 0,-2.15484 -6.18645,-8.61268 -8.25074,-8.61268 -1.87216,0 -2.41592,1.05033 -2.41592,4.66666 0,4.55556 0.12693,4.66667 5.33333,4.66667 2.93333,0 5.33333,-0.32429 5.33333,-0.72065 z m 30.35814,-1.01556 c 1.1574,-0.1805 0.7364,-1.62566 -1.3333,-4.57651 l -3.0248,-4.31271 -10.6667,0.82926 c -5.8667,0.45608 -10.88212,1.01226 -11.14546,1.23594 -0.26333,0.22368 0.7367,2.11368 2.22227,4.19999 2.61009,3.66549 3.03049,3.77804 12.47879,3.34055 5.3778,-0.249 10.5389,-0.57144 11.4692,-0.71652 z m 31.0039,-4.89014 c -1.5507,-2.17782 -3.3998,-4.31833 -4.1091,-4.75669 -0.7093,-0.43836 -6.0444,-0.38225 -11.8559,0.12467 l -10.5662,0.9217 2.8353,3.835 c 2.753,3.72367 3.1791,3.835 14.6754,3.835 h 11.8401 z m 33.3046,1.36736 c 0,-0.69244 -1.3817,-2.86534 -3.0705,-4.82869 -3.0145,-3.50457 -3.2699,-3.55208 -13.9925,-2.60292 l -10.9219,0.96681 2.7499,3.8619 c 2.6614,3.73754 3.112,3.86189 13.9925,3.86189 6.1834,0 11.2425,-0.56655 11.2425,-1.25899 z m 32,-0.86852 c 0,-0.4368 -1.2408,-2.5368 -2.7574,-4.66666 -2.5201,-3.53912 -3.4097,-3.85891 -10.3334,-3.71475 -4.1667,0.0868 -9.283,0.53677 -11.3694,1 l -3.7936,0.84225 2.8903,3.66667 c 2.7443,3.48129 3.4585,3.66667 14.127,3.66667 6.1801,0 11.2365,-0.35738 11.2365,-0.79418 z m 31.0717,-1.38865 c 0.4673,-0.46723 -0.4161,-2.62697 -1.9631,-4.79943 -2.7652,-3.88341 -2.9873,-3.942 -13.1879,-3.47877 -5.7064,0.25915 -10.8253,0.92125 -11.3754,1.47136 -0.5501,0.55009 0.4067,2.49781 2.1263,4.32825 2.8059,2.98672 4.1741,3.32808 13.3386,3.32808 5.6166,0 10.5943,-0.38226 11.0615,-0.84949 z m -167.11603,-5.48384 c -0.0748,-1.68629 -4.96393,-7 -6.44068,-7 -0.76963,0 -0.37637,1.78296 0.88039,3.99157 2.03957,3.58431 5.67304,5.55022 5.56029,3.00843 z m 31.82843,-1.08096 c 0.2479,-0.20684 -0.8695,-2.16188 -2.4833,-4.34453 -2.9273,-3.95942 -2.9587,-3.96684 -13.78404,-3.25898 -5.96753,0.39022 -11.0529,0.8817 -11.30081,1.09216 -0.24791,0.21048 0.89571,2.20384 2.54136,4.42972 l 2.99211,4.04703 10.79198,-0.79465 c 5.9356,-0.43707 10.9948,-0.96391 11.2427,-1.17075 z m 31.3677,-1.07299 c 0.6336,-0.15433 -0.4602,-2.19646 -2.4306,-4.53809 l -3.5824,-4.25751 -10.2361,0.82752 c -5.6298,0.45514 -10.4515,1.00923 -10.7148,1.23134 -0.2633,0.2221 0.7644,2.14969 2.2838,4.28352 2.7184,3.81769 2.9285,3.87054 13.1455,3.30676 5.7105,-0.31512 10.9012,-0.69922 11.5346,-0.85354 z m 30.2103,-4.80573 c -1.5508,-2.17783 -3.3612,-4.2944 -4.0231,-4.70351 -0.662,-0.4091 -6.0146,-0.34261 -11.8948,0.14778 l -10.6912,0.89161 2.7143,3.81191 c 2.6419,3.71021 3.0344,3.81189 14.7143,3.81189 h 12 z m 33.3046,1.36736 c 0,-0.69244 -1.3817,-2.86535 -3.0705,-4.82869 -3.0145,-3.50458 -3.27,-3.55208 -13.9925,-2.60292 l -10.9219,0.96681 2.7499,3.86189 c 2.6614,3.73755 3.1119,3.8619 13.9925,3.8619 6.1834,0 11.2425,-0.56655 11.2425,-1.25899 z m 32,-0.86852 c 0,-0.4368 -1.2409,-2.5368 -2.7575,-4.66667 -2.52,-3.53912 -3.4096,-3.8589 -10.3333,-3.71474 -4.1667,0.0868 -9.283,0.53677 -11.3695,1 l -3.7936,0.84225 2.8904,3.66667 c 2.7443,3.48129 3.4585,3.66666 14.1269,3.66666 6.1801,0 11.2366,-0.35737 11.2366,-0.79417 z m -349.33333,-8.01435 c 13.56666,-0.47582 25.39262,-1.24897 26.2799,-1.71809 1.24898,-0.66033 -66.31883,-44.51404 -71.77529,-46.58449 -0.64761,-0.24575 -1.17128,11.01354 -1.17128,25.18336 v 25.6278 l 11,-0.82171 c 6.05,-0.45195 22.1,-1.21103 35.66667,-1.68687 z"
     id="path109"
     inkscape:connector-curvature="0" />
</svg>
