<?xml version="1.0" encoding="UTF-8" standalone="no"?>
<!-- Created with Inkscape (http://www.inkscape.org/) -->

<svg
   xmlns:dc="http://purl.org/dc/elements/1.1/"
   xmlns:cc="http://creativecommons.org/ns#"
   xmlns:rdf="http://www.w3.org/1999/02/22-rdf-syntax-ns#"
   xmlns:svg="http://www.w3.org/2000/svg"
   xmlns="http://www.w3.org/2000/svg"
   xmlns:sodipodi="http://sodipodi.sourceforge.net/DTD/sodipodi-0.dtd"
   xmlns:inkscape="http://www.inkscape.org/namespaces/inkscape"
   version="1.1"
   id="svg2"
   width="5304"
   height="5304"
   viewBox="0 0 5304 5304"
   sodipodi:docname="Ltop.svg"
   inkscape:version="0.92.1 r15371">
  <metadata
     id="metadata8">
    <rdf:RDF>
      <cc:Work
         rdf:about="">
        <dc:format>image/svg+xml</dc:format>
        <dc:type
           rdf:resource="http://purl.org/dc/dcmitype/StillImage" />
        <dc:title></dc:title>
      </cc:Work>
    </rdf:RDF>
  </metadata>
  <defs
     id="defs6" />
  <sodipodi:namedview
     pagecolor="#ffffff"
     bordercolor="#666666"
     borderopacity="1"
     objecttolerance="10"
     gridtolerance="10"
     guidetolerance="10"
     inkscape:pageopacity="0"
     inkscape:pageshadow="2"
     inkscape:window-width="731"
     inkscape:window-height="480"
     id="namedview4"
     showgrid="false"
     inkscape:zoom="0.044494721"
     inkscape:cx="2652"
     inkscape:cy="2652"
     inkscape:window-x="0"
     inkscape:window-y="27"
     inkscape:window-maximized="0"
     inkscape:current-layer="svg2" />
  <path
     style="fill:#000000;stroke-width:1.33333337"
     d="m 832.29301,4470.4799 c -18.5653,-1.9359 -43.4645,-6.509 -54,-9.9179 -4.0333,-1.3049 -13.9333,-3.1001 -22,-3.9891 -78.2572,-8.6245 -181.1472,-41.8801 -244.2114,-78.9329 -69.7648,-40.9897 -97.648,-74.3681 -79.822,-95.5532 4.7652,-5.6632 17.6608,-11.9911 30.9695,-15.1968 11.0475,-2.6609 16.0206,-2.8583 85.3973,-3.3884 40.5166,-0.3095 73.6666,-0.8815 73.6666,-1.2711 0,-0.3896 -1.5364,-2.5344 -3.4144,-4.7662 -8.1145,-9.6435 -13.2445,-23.3894 -22.5145,-60.3271 -3.3127,-13.2 -7.2339,-28.4595 -8.7137,-33.9099 -2.6898,-9.9064 -2.6907,-10.34 -2.6907,-1266.4846 V 1640.1678 l 8.8262,-26.8486 c 10.6869,-32.5086 16.1947,-44.2523 25.4354,-54.2335 14.0441,-15.1692 29.8937,-20.759 84.7138,-29.877 l 36.5039,-6.0715 H 2642.1984 4543.9578 l 32.1676,5.3227 c 51.5167,8.5242 69.9378,14.6706 84.0939,28.0589 9.6319,9.1093 15.9956,21.7898 25.4031,50.6184 4.1878,12.8333 8.4181,25.4333 9.4005,28 1.4881,3.8876 1.7988,214.464 1.8613,1261.3333 l 0.075,1256.6667 -5.8393,24 c -12.3783,50.876 -16.639,63.5028 -26.2522,77.7996 l -5.0657,7.5337 73.5788,0.8016 c 68.7519,0.7491 74.3484,0.9868 85.3095,3.6227 43.3296,10.4196 47.9301,34.5005 12.8781,67.4087 -12.7133,11.9357 -49.6993,37.0374 -73.6585,49.9906 -63.8246,34.5056 -159.4051,64.2471 -232.2836,72.2788 -8.0667,0.889 -17.9667,2.6822 -22,3.9848 -31.5588,10.1924 -97.9624,14.7947 -143.5243,9.9471 -22.2665,-2.3691 -47.0339,-6.7293 -53.4489,-9.4097 -4.1117,-1.718 -208.1594,-1.9579 -1665.6934,-1.9579 -1457.534,0 -1661.58169,0.2399 -1665.69339,1.9579 -6.4152,2.6804 -31.1825,7.0406 -53.449,9.4097 -22.1204,2.3535 -66.8342,2.3411 -89.5243,-0.025 z M 4513.6264,4098.1133 c 32.64,-3.2645 29.8864,-2.4898 32.7704,-9.2181 3.3038,-7.7077 7.3057,-27.8929 9.204,-46.4247 1.1056,-10.7925 1.3876,-322.8337 1.0677,-1181.3333 -0.4037,-1083.9018 -0.5931,-1167.6125 -2.6684,-1180 -2.9887,-17.8382 -7.1452,-30.9883 -10.0691,-31.8549 -5.3201,-1.5767 -25.2652,-3.5257 -48.9713,-4.7853 -34.9747,-1.8584 -3679.18499,-1.8544 -3710.66669,0 -21.5281,1.2709 -41.3397,3.3113 -46.2469,4.7629 -4.2481,1.2568 -8.3591,17.937 -11.1289,45.1553 -2.9438,28.9278 -2.9122,2329.2397 0.032,2354.4117 2.1313,18.22 5.0406,31.645 8.7635,40.4401 2.1309,5.0341 2.8061,5.5347 8.5239,6.3184 7.6519,1.0488 45.1344,3.4761 61.3894,3.9755 6.6,0.2028 840.29999,0.2892 1852.66669,0.192 1327.8896,-0.128 1844.7525,-0.5854 1855.3333,-1.6436 z M 2648.293,885.32888 c -16.632,-7.6994 -16.8534,-30.794 -0.3765,-39.2712 5.2413,-2.6966 7.3481,-3.0776 12.6359,-2.2846 8.8724,1.3305 17.0946,9.4793 18.409,18.2447 1.1751,7.8352 -2.4822,16.7145 -8.7114,21.1501 -5.332,3.7968 -16.1282,4.8593 -21.957,2.161 z"
     id="path12"
     inkscape:connector-curvature="0" />
</svg>
