<?xml version="1.0" encoding="UTF-8" standalone="no"?>
<!-- Created with Inkscape (http://www.inkscape.org/) -->

<svg
   xmlns:dc="http://purl.org/dc/elements/1.1/"
   xmlns:cc="http://creativecommons.org/ns#"
   xmlns:rdf="http://www.w3.org/1999/02/22-rdf-syntax-ns#"
   xmlns:svg="http://www.w3.org/2000/svg"
   xmlns="http://www.w3.org/2000/svg"
   xmlns:sodipodi="http://sodipodi.sourceforge.net/DTD/sodipodi-0.dtd"
   xmlns:inkscape="http://www.inkscape.org/namespaces/inkscape"
   version="1.1"
   id="svg2"
   width="5304"
   height="5304"
   viewBox="0 0 5304 5304"
   sodipodi:docname="Ltop_Sc.svg"
   inkscape:version="0.92.1 r15371">
  <metadata
     id="metadata8">
    <rdf:RDF>
      <cc:Work
         rdf:about="">
        <dc:format>image/svg+xml</dc:format>
        <dc:type
           rdf:resource="http://purl.org/dc/dcmitype/StillImage" />
        <dc:title></dc:title>
      </cc:Work>
    </rdf:RDF>
  </metadata>
  <defs
     id="defs6" />
  <sodipodi:namedview
     pagecolor="#ffffff"
     bordercolor="#666666"
     borderopacity="1"
     objecttolerance="10"
     gridtolerance="10"
     guidetolerance="10"
     inkscape:pageopacity="0"
     inkscape:pageshadow="2"
     inkscape:window-width="731"
     inkscape:window-height="480"
     id="namedview4"
     showgrid="false"
     inkscape:zoom="0.044494721"
     inkscape:cx="2663.2276"
     inkscape:cy="2479.4946"
     inkscape:window-x="0"
     inkscape:window-y="27"
     inkscape:window-maximized="0"
     inkscape:current-layer="svg2"
     showguides="false" />
  <path
     style="fill:#000000;stroke-width:1.33333337"
     d="m 832.29301,4470.4799 c -18.5653,-1.9359 -43.4645,-6.509 -54,-9.9179 -4.0333,-1.3049 -13.9333,-3.1001 -22,-3.9891 -78.2572,-8.6245 -181.1472,-41.8801 -244.2114,-78.9329 -69.7648,-40.9897 -97.648,-74.3681 -79.822,-95.5532 4.7652,-5.6632 17.6608,-11.9911 30.9695,-15.1968 11.0475,-2.6609 16.0206,-2.8583 85.3973,-3.3884 40.5166,-0.3095 73.6666,-0.8815 73.6666,-1.2711 0,-0.3896 -1.5364,-2.5344 -3.4144,-4.7662 -8.1145,-9.6435 -13.2445,-23.3894 -22.5145,-60.3271 -3.3127,-13.2 -7.2339,-28.4595 -8.7137,-33.9099 -2.6898,-9.9064 -2.6907,-10.34 -2.6907,-1266.4846 V 1640.1678 l 8.8262,-26.8486 c 10.6869,-32.5086 16.1947,-44.2523 25.4354,-54.2335 14.0441,-15.1692 29.8937,-20.759 84.7138,-29.877 l 36.5039,-6.0715 H 2642.1984 4543.9578 l 32.1676,5.3227 c 51.5167,8.5242 69.9378,14.6706 84.0939,28.0589 9.6319,9.1093 15.9956,21.7898 25.4031,50.6184 4.1878,12.8333 8.4181,25.4333 9.4005,28 1.4881,3.8876 1.7988,214.464 1.8613,1261.3333 l 0.075,1256.6667 -5.8393,24 c -12.3783,50.876 -16.639,63.5028 -26.2522,77.7996 l -5.0657,7.5337 73.5788,0.8016 c 68.7519,0.7491 74.3484,0.9868 85.3095,3.6227 43.3296,10.4196 47.9301,34.5005 12.8781,67.4087 -12.7133,11.9357 -49.6993,37.0374 -73.6585,49.9906 -63.8246,34.5056 -159.4051,64.2471 -232.2836,72.2788 -8.0667,0.889 -17.9667,2.6822 -22,3.9848 -31.5588,10.1924 -97.9624,14.7947 -143.5243,9.9471 -22.2665,-2.3691 -47.0339,-6.7293 -53.4489,-9.4097 -4.1117,-1.718 -208.1594,-1.9579 -1665.6934,-1.9579 -1457.534,0 -1661.58169,0.2399 -1665.69339,1.9579 -6.4152,2.6804 -31.1825,7.0406 -53.449,9.4097 -22.1204,2.3535 -66.8342,2.3411 -89.5243,-0.025 z M 4513.6264,4098.1133 c 32.64,-3.2645 29.8864,-2.4898 32.7704,-9.2181 3.3038,-7.7077 7.3057,-27.8929 9.204,-46.4247 1.1056,-10.7925 1.3876,-322.8337 1.0677,-1181.3333 -0.4037,-1083.9018 -0.5931,-1167.6125 -2.6684,-1180 -2.9887,-17.8382 -7.1452,-30.9883 -10.0691,-31.8549 -5.3201,-1.5767 -25.2652,-3.5257 -48.9713,-4.7853 -34.9747,-1.8584 -3679.18499,-1.8544 -3710.66669,0 -21.5281,1.2709 -41.3397,3.3113 -46.2469,4.7629 -4.2481,1.2568 -8.3591,17.937 -11.1289,45.1553 -2.9438,28.9278 -2.9122,2329.2397 0.032,2354.4117 2.1313,18.22 5.0406,31.645 8.7635,40.4401 2.1309,5.0341 2.8061,5.5347 8.5239,6.3184 7.6519,1.0488 45.1344,3.4761 61.3894,3.9755 6.6,0.2028 840.29999,0.2892 1852.66669,0.192 1327.8896,-0.128 1844.7525,-0.5854 1855.3333,-1.6436 z M 2648.293,885.32888 c -16.632,-7.6994 -16.8534,-30.794 -0.3765,-39.2712 5.2413,-2.6966 7.3481,-3.0776 12.6359,-2.2846 8.8724,1.3305 17.0946,9.4793 18.409,18.2447 1.1751,7.8352 -2.4822,16.7145 -8.7114,21.1501 -5.332,3.7968 -16.1282,4.8593 -21.957,2.161 z"
     id="path12"
     inkscape:connector-curvature="0" />
  <path
     style="fill:#000000;stroke-width:4.61773348"
     d="m 2160.7636,3746.5433 c -50.8547,-13.4593 -74.4393,-48.0138 -62.6511,-91.7913 5.4327,-20.1748 29.638,-45.2473 48.1735,-49.8992 9.7365,-2.4437 10.5599,-4.7378 8.7276,-24.31 -1.6583,-17.7127 0.1339,-24.7723 9.9442,-39.133 14.1543,-20.723 14.9153,-26.347 3.5635,-26.347 -14.2304,0 -45.685,-30.8589 -54.2112,-53.1847 -31.5631,-82.6468 55.5855,-154.4341 149.0526,-122.7791 20.2049,6.843 40.2306,9.7254 67.5731,9.7254 37.683,0 38.9243,0.3464 41.0443,11.4358 1.202,6.2899 1.0981,12.5238 -0.2309,13.8532 -1.3299,1.3295 -15.5779,2.4174 -31.6634,2.4174 -16.0849,0 -29.2454,0.785 -29.2454,1.7451 0,0.9595 3.1169,9.2045 6.9266,18.3222 25.6921,61.4902 -27.1043,127.7002 -101.8298,127.7002 -16.1058,0 -20.5402,5.9264 -20.5402,27.4506 0,12.4642 1.0524,13.0044 35.7875,18.3652 72.1853,11.1407 102.394,23.537 114.5248,46.9951 22.2409,43.0091 -10.847,95.667 -76.4285,121.632 -22.8708,9.0549 -86.4976,13.6297 -108.5168,7.8021 z m 95.944,-28.5777 c 37.6438,-10.4541 61.1134,-45.4076 50.0419,-74.5279 -6.3872,-16.7998 -16.2438,-21.1987 -70.7857,-31.5918 -44.6673,-8.5109 -47.4828,-8.5534 -60.5403,-0.9051 -31.184,18.265 -41.8413,53.8673 -24.1896,80.8076 17.1101,26.1137 63.9349,37.7523 105.4737,26.2172 z m -14.5417,-223.9887 c 17.4832,-9.0411 31.5294,-38.7336 31.5294,-66.651 0,-41.525 -25.1916,-73.8837 -57.5189,-73.8837 -44.5667,0 -71.0623,58.8262 -50.0964,111.2245 12.9559,32.38 45.7326,45.0063 76.0859,29.3102 z m -917.7219,131.7887 c -12.9795,-2.3287 -29.0839,-6.3189 -35.7874,-8.8679 l -12.189,-4.6339 v -53.2184 -53.218 h 15.879 c 15.4731,0 15.9506,0.561 18.6741,21.9342 6.0479,47.4601 7.5112,52.0673 18.9133,59.5378 15.3244,10.0413 70.0861,13.6911 96.1071,6.4057 11.7729,-3.2961 26.7588,-12.2776 35.4531,-21.248 12.3206,-12.7112 15.3886,-19.9758 16.8639,-39.9295 2.9799,-40.2967 -5.0545,-48.4128 -87.4548,-88.347 -38.812,-18.8094 -76.1713,-40.1669 -83.0208,-47.461 -47.7326,-50.8302 -30.0855,-126.7568 37.1543,-159.859 27.3711,-13.4746 34.403,-14.9356 72.0805,-14.9777 22.9631,-0.046 54.7381,2.8353 70.6116,6.3568 l 28.8608,6.4034 v 45.5461 45.5466 h -13.5419 c -14.5256,0 -15.9765,-2.4336 -21.0901,-35.3765 -3.6721,-23.6557 -12.4074,-31.9741 -40.0935,-38.1785 -25.9443,-5.8142 -59.7692,-0.4571 -77.051,12.2038 -26.9755,19.7625 -35.8946,60.4078 -19.2477,87.7101 8.7612,14.3685 33.745,28.2254 119.3204,66.1791 40.4767,17.9519 70.0496,57.9151 70.1489,94.7965 0,5.2536 -3.123,20.155 -6.9714,33.1142 -8.5335,28.7352 -41.7618,60.9809 -74.9943,72.7764 -25.8122,9.1621 -95.0629,12.8253 -128.6251,6.8047 z m 1859.3567,-0.3048 c -55.8367,-10.9454 -106.0989,-52.3817 -133.4825,-110.0433 -14.7537,-31.0677 -16.7633,-39.8141 -18.3772,-79.9963 -2.875,-71.5891 14.4614,-119.8541 57.7595,-160.8037 46.6719,-44.1405 107.2409,-61.1924 182.7635,-51.4536 23.5033,3.0306 50.5253,7.9568 60.0494,10.9468 l 17.3165,5.4365 v 45.4024 45.4025 h -15.7561 c -14.9883,0 -15.9021,-0.9563 -18.7527,-19.6254 -5.5782,-36.5355 -10.6517,-43.9428 -35.8243,-52.3036 -52.4141,-17.4094 -120.413,0.5841 -151.7549,40.1567 -28.6383,36.1587 -34.1528,55.8422 -34.1288,121.8181 0,69.894 8.203,97.6231 39.1635,132.7959 27.6625,31.426 56.7972,42.563 111.515,42.6263 52.9599,0.06 61.2981,-4.7702 66.1366,-38.3235 5.9365,-41.1685 6.6449,-42.4352 23.7402,-42.4352 h 15.6615 v 47.7553 47.7552 l -17.3165,5.1234 c -46.6613,13.8047 -107.6694,17.811 -148.7127,9.7655 z m -527.0505,-6.7474 c -28.9172,-8.9076 -60.4748,-37.7975 -73.9415,-67.6904 -9.2267,-20.4815 -10.9994,-31.8601 -10.9994,-70.5946 0,-38.715 1.7745,-50.1167 10.9832,-70.5561 30.9573,-68.7133 117.1547,-99.4217 178.3715,-63.5465 28.853,16.9092 44.4263,45.1854 47.3438,85.9623 l 2.2881,31.9783 h -95.2837 -95.2842 v 17.7372 c 0,23.3357 10.2459,56.581 22.9252,74.3875 15.2944,21.4794 43.488,34.1084 76.3589,34.2045 25.8953,0.074 39.2225,-4.2904 86.5797,-28.3659 1.9048,-0.9683 3.4633,5.3483 3.4633,14.037 0,14.5145 -2.0119,16.7827 -24.7727,27.9276 -44.9601,22.0146 -87.8935,26.8835 -128.0322,14.5191 z m 101.984,-192.5433 c -0.046,-19.4245 -9.1621,-43.3684 -20.596,-54.1102 -15.0552,-14.1432 -50.6695,-17.9671 -70.7294,-7.5938 -19.1502,9.9032 -37.7592,35.0463 -41.0789,55.5024 l -2.6926,16.5915 h 67.5616 c 66.9927,0 67.5611,-0.088 67.5353,-10.3899 z m 732.7442,192.2279 c -31.9727,-9.8238 -68.0787,-46.4101 -81.4729,-82.5568 -14.3487,-38.7238 -11.8316,-95.6235 5.7449,-129.8663 52.0478,-101.3981 197.6293,-99.0726 243.9433,3.8974 15.7894,35.1044 15.7894,101.3901 0,136.4946 -28.0555,62.3759 -99.738,93.0704 -168.2153,72.0311 z m 82.6981,-29.692 c 46.4004,-28.6766 58.4647,-140.6534 21.3256,-197.9308 -14.344,-22.1218 -34.1361,-32.7167 -61.1157,-32.7167 -44.0624,0 -73.1592,39.1011 -77.1914,103.7319 -3.7528,60.1547 13.1989,109.2311 44.4235,128.6094 17.401,10.7995 53.7158,9.9516 72.558,-1.6938 z m -1984.881,21.2683 c 1.7529,-9.1689 5.3261,-11.5591 18.9853,-12.6987 l 16.8257,-1.4038 2.3088,-107.414 c 1.2699,-59.0775 1.6162,-109.4685 0.7698,-111.9801 -0.8469,-2.5111 -9.6783,-4.566 -19.6253,-4.566 -14.8775,0 -18.0863,-1.6037 -18.0863,-9.0401 0,-7.1792 6.5184,-10.981 31.6675,-18.471 17.4171,-5.1871 37.1579,-9.4308 43.8684,-9.4308 h 12.201 v 126.0642 c 0,91.8929 1.5022,127.5662 5.5413,131.6054 3.0477,3.0477 12.3986,5.5413 20.7798,5.5413 13.1758,0 15.2385,1.5626 15.2385,11.5443 v 11.5443 h -66.3166 -66.3172 z m 809.2813,-0.2493 c 0,-10.3373 1.8799,-11.5443 17.9769,-11.5443 12.1326,0 18.8883,-2.3745 20.7798,-7.3044 1.5418,-4.0174 2.8029,-88.1756 2.8029,-187.0182 v -179.7139 h -22.8014 c -19.6203,0 -22.7091,-1.2343 -22.1356,-8.8457 0.5135,-6.8185 8.1203,-10.998 33.1918,-18.2368 17.8887,-5.1649 38.759,-10.0159 46.3782,-10.7796 l 13.8532,-1.3886 1.2039,200.4581 c 0.833,138.6253 2.7877,202.3657 6.3378,206.6436 2.8233,3.4019 11.8057,6.1855 19.9606,6.1855 17.7968,0 20.7156,2.3374 17.6342,14.1205 -2.1846,8.3544 -6.8887,8.9681 -68.7636,8.9681 h -66.4187 z m 1320.6718,0.277 c 0,-9.6847 2.4299,-11.4667 17.3165,-12.6987 l 17.3165,-1.4334 1.2366,-111.98 1.2367,-111.98 h -18.5532 c -15.341,0 -18.5531,-1.5654 -18.5531,-9.0402 0,-7.1792 6.5184,-10.9809 31.6675,-18.4709 17.4172,-5.1871 37.158,-9.4308 43.8685,-9.4308 h 12.2009 v 126.0641 c 0,91.8929 1.5022,127.5663 5.5413,131.6054 3.0477,3.0477 12.3986,5.5413 20.7798,5.5413 13.1758,0 15.2385,1.5626 15.2385,11.5443 v 11.5444 h -64.6482 -64.6483 z m 161.6207,-0.277 c 0,-9.9817 2.0627,-11.5443 15.2385,-11.5443 8.3812,0 17.7321,-2.4936 20.7798,-5.5413 4.1218,-4.1218 5.5413,-52.0266 5.5413,-187.0182 v -181.477 h -22.106 c -18.5998,0 -22.2136,-1.4268 -22.7835,-8.9967 -0.5375,-7.1348 4.7521,-10.6097 25.5693,-16.7942 14.4355,-4.289 36.1172,-8.8171 48.181,-10.0621 l 21.9342,-2.264 v 200.5357 c 0,149.8149 1.4015,201.9367 5.5413,206.0765 3.0477,3.0477 12.0523,5.5413 20.01,5.5413 17.432,0 20.3462,2.3818 17.2764,14.1205 -2.1847,8.3544 -6.8888,8.9681 -68.7636,8.9681 h -66.4187 z m -2128.7752,-1.6527 c 0,-6.366 5.0634,-9.6469 19.6254,-12.7172 l 19.6254,-4.1375 1.238,-109.6532 1.238,-109.6527 h -20.8634 c -17.8697,0 -20.8634,-1.3414 -20.8634,-9.35 0,-10.3733 7.2157,-13.9155 53.4249,-26.2287 26.4116,-7.0374 30.7246,-7.1926 34.5083,-1.2399 2.3786,3.7418 3.3008,9.5883 2.0494,12.992 -4.9715,13.5212 3.9264,13.3776 33.6369,-0.543 60.5224,-28.358 108.7116,-21.0564 129.2015,19.5759 9.7983,19.431 10.3899,26.1674 10.3899,118.341 0,106.4027 -0.2125,105.5212 26.992,110.9623 10.1295,2.0263 14.5676,5.5514 14.5676,11.572 0,8.0381 -4.464,8.6583 -62.3394,8.6583 -58.0366,0 -62.3394,-0.6022 -62.3394,-8.7215 0,-6.3079 4.463,-9.5587 16.1246,-11.7466 11.7351,-2.2018 16.8635,-5.968 18.8381,-13.8343 1.4919,-5.9449 2.0281,-50.4875 1.1913,-98.9834 l -1.521,-88.1747 -12.8036,-12.7939 c -11.4797,-11.4709 -16.0171,-12.7842 -43.8685,-12.6974 -18.9798,0.06 -37.8359,3.1262 -48.47,7.8825 l -17.4057,7.7855 1.2436,102.9431 1.2431,102.9432 17.3165,4.2778 c 12.116,2.9928 17.3165,6.8066 17.3165,12.6988 0,7.7485 -5.1626,8.4209 -64.6483,8.4209 -59.922,0 -64.6483,-0.6271 -64.6483,-8.5793 z m -112.2358,-342.8815 c -21.9296,-12.7574 -18.4899,-49.3617 5.575,-59.33 35.0675,-14.5256 64.0424,31.6231 34.463,54.8901 -13.287,10.4517 -27.0756,11.9807 -40.038,4.4399 z m 2128.7751,0 c -21.9296,-12.7574 -18.4899,-49.3617 5.575,-59.33 34.506,-14.2928 61.7336,26.6886 35.2961,53.1261 -11.9701,11.9701 -27.0299,14.2559 -40.8711,6.2039 z M 2281.3007,3098.5557 c -16.1838,-105.3425 -33.9251,-195.6113 -122.3431,-622.4843 -20.2534,-97.7805 -44.3044,-217.2643 -53.4461,-265.5197 -9.1422,-48.2553 -17.4292,-91.4874 -18.4156,-96.0714 -2.2645,-10.5275 10.5437,-15.6578 61.4399,-24.6093 36.1495,-6.3582 38.9446,-6.2681 44.5754,1.4329 6.4963,8.884 20.4358,70.6975 85.7273,380.1498 23.3104,110.4793 57.2489,270.4837 75.4192,355.5655 l 33.0366,154.694 13.1259,1.5151 c 7.2194,0.8331 18.0531,0.2771 24.075,-1.2334 l 10.9496,-2.748 1.1914,-271.2133 1.1914,-271.2129 55.4128,0.2078 55.4128,0.2078 1.1923,266.8676 1.1918,266.8676 17.2791,-2.5172 c 9.5033,-1.3848 30.5745,-3.8821 46.8252,-5.5505 l 29.5466,-3.0329 -3.353,-253.4425 -3.3534,-253.442 h 55.0346 55.0351 l 3.0454,104.6453 c 1.6749,57.5549 3.0454,146.5848 3.0454,197.844 0,51.2596 1.3548,115.3413 3.0108,142.4035 l 3.0103,49.2047 16.615,-0.069 c 23.1441,-0.097 26.8466,-3.5871 36.9438,-34.8044 4.8855,-15.1055 40.37,-126.1684 78.8551,-246.8067 116.523,-365.2632 174.8694,-542.0564 182.4056,-552.703 6.9959,-9.8833 7.7282,-9.9522 31.3341,-2.954 45.8933,13.6057 72.6568,25.2974 72.6568,31.7409 0,7.2222 -44.8216,152.0731 -119.9655,387.6929 -96.3227,302.0289 -125.1637,395.9661 -122.4143,398.7155 1.0917,1.0916 38.9308,-1.4191 84.0862,-5.5796 89.8348,-8.2778 128.8629,-9.4636 132.2283,-4.0179 1.2025,1.9454 4.7858,24.9874 7.9633,51.2046 4.512,37.2291 4.5549,48.423 0.194,51.1174 -3.0699,1.8974 -29.9082,5.8488 -59.6404,8.7816 -29.7322,2.9322 -94.579,9.5693 -144.1042,14.749 -109.2256,11.4238 -300.1462,30.9831 -360.1832,36.8994 -165.573,16.3172 -277.5198,27.7618 -294.1252,30.0702 -19.0541,2.6483 -19.4088,2.4432 -21.7135,-12.5598 z"
     id="path3682"
     inkscape:connector-curvature="0" />
</svg>
