<?xml version="1.0" encoding="UTF-8" standalone="no"?>
<!-- Created with Inkscape (http://www.inkscape.org/) -->

<svg
   xmlns:dc="http://purl.org/dc/elements/1.1/"
   xmlns:cc="http://creativecommons.org/ns#"
   xmlns:rdf="http://www.w3.org/1999/02/22-rdf-syntax-ns#"
   xmlns:svg="http://www.w3.org/2000/svg"
   xmlns="http://www.w3.org/2000/svg"
   xmlns:sodipodi="http://sodipodi.sourceforge.net/DTD/sodipodi-0.dtd"
   xmlns:inkscape="http://www.inkscape.org/namespaces/inkscape"
   version="1.1"
   id="svg104"
   width="720"
   height="720"
   viewBox="0 0 720 720"
   sodipodi:docname="Mixr.svg"
   inkscape:version="0.92.1 r15371">
  <metadata
     id="metadata110">
    <rdf:RDF>
      <cc:Work
         rdf:about="">
        <dc:format>image/svg+xml</dc:format>
        <dc:type
           rdf:resource="http://purl.org/dc/dcmitype/StillImage" />
        <dc:title></dc:title>
      </cc:Work>
    </rdf:RDF>
  </metadata>
  <defs
     id="defs108" />
  <sodipodi:namedview
     pagecolor="#ffffff"
     bordercolor="#666666"
     borderopacity="1"
     objecttolerance="10"
     gridtolerance="10"
     guidetolerance="10"
     inkscape:pageopacity="0"
     inkscape:pageshadow="2"
     inkscape:window-width="731"
     inkscape:window-height="480"
     id="namedview106"
     showgrid="false"
     inkscape:zoom="0.23177389"
     inkscape:cx="255.58244"
     inkscape:cy="100.75127"
     inkscape:window-x="0"
     inkscape:window-y="27"
     inkscape:window-maximized="0"
     inkscape:current-layer="svg104" />
  <path
     style="fill:#000000;stroke-width:0.50255716"
     d="M 99.731931,366.94367 V 90.285939 H 365.3334 630.93488 V 366.94367 643.60137 H 365.3334 99.731931 Z m 501.049519,0 V 118.9317 H 365.3334 129.88536 V 366.94367 614.95565 H 365.3334 600.78145 Z M 184.16153,594.60205 v -12.31267 h -2.51278 c -1.38203,0 -2.51279,0.19936 -2.51279,0.44292 0,1.36844 -15.32101,2.27885 -17.62253,1.04708 -1.17195,-0.62719 -1.29063,-2.7679 -0.17714,-3.19517 0.43721,-0.16781 2.8062,-0.30504 5.26441,-0.30504 h 4.46947 l -0.45227,-1.18952 c -0.26806,-0.7051 -0.26788,-1.98436 3.8e-4,-3.141 0.24899,-1.07335 0.45811,-2.11316 0.4647,-2.31074 0.007,-0.19765 -2.30605,-0.4238 -5.13922,-0.50258 l -5.15121,-0.14327 v -1.50767 -1.50767 l 6.02852,-0.25125 6.02843,-0.25129 0.5822,-2.5128 c 1.06196,-4.5834 1.46216,-4.27075 -5.47763,-4.27938 -3.38598,-0.005 -6.4588,-0.19942 -6.82849,-0.43375 -0.3697,-0.23433 -0.59585,-0.96586 -0.50256,-1.62561 0.16668,-1.17885 0.2735,-1.20203 6.19213,-1.34221 3.31239,-0.0784 6.19614,-0.31619 6.40835,-0.52836 0.21219,-0.21224 -0.0876,-1.78765 -0.66618,-3.50096 l -1.05199,-3.11512 h -4.68705 c -5.66503,0 -6.27693,-0.19596 -6.27693,-2.01021 0,-1.76771 0.64604,-2.00758 5.44359,-2.02111 3.84784,-0.0109 3.85487,-0.0136 4.60755,-1.6333 1.03921,-2.23663 2.86458,-2.94995 8.48899,-3.31729 l 4.82877,-0.31541 0.12802,-51.38645 0.128,-51.38648 h 3.01061 3.0106 l 0.12801,51.38648 0.12801,51.38645 4.82877,0.31541 c 5.62442,0.36734 7.44979,1.08066 8.48899,3.31729 0.75269,1.61995 0.75972,1.6224 4.60755,1.6333 4.79755,0.0136 5.4436,0.2534 5.4436,2.02111 0,1.81425 -0.6119,2.01021 -6.27693,2.01021 h -4.68706 l -1.05199,3.11512 c -0.57859,1.71331 -0.87837,3.28872 -0.66617,3.50096 0.2122,0.21217 3.09596,0.44996 6.40834,0.52836 5.91863,0.14018 6.02545,0.16336 6.19214,1.34221 0.0933,0.65975 -0.13287,1.39128 -0.50256,1.62561 -0.36969,0.23433 -3.44251,0.42953 -6.82849,0.43375 -6.9632,0.009 -6.65405,-0.23244 -5.48693,4.27938 l 0.65,2.5128 5.99919,0.25129 5.99918,0.25125 v 1.50767 1.50767 l -5.15121,0.14327 c -2.83317,0.0788 -5.14582,0.30493 -5.13922,0.50258 0.007,0.19758 0.21571,1.23739 0.4647,2.31074 0.26833,1.15664 0.26852,2.4359 3.8e-4,3.141 l -0.45227,1.18952 h 4.46947 c 5.29485,0 6.05935,0.22649 6.05935,1.79507 0,1.83212 -1.43982,2.22566 -8.13352,2.22261 -6.19437,-0.005 -9.91549,-0.59956 -10.54527,-1.69112 -0.20356,-0.35283 -1.24087,-0.5094 -2.63842,-0.39829 l -2.30297,0.18318 v 12.26205 12.26204 h -3.01535 -3.01534 z m 91.34234,-34.80211 -0.12821,-47.11474 -4.38625,-0.33425 c -4.79033,-0.36504 -7.51344,-1.07534 -8.45029,-2.20421 -0.43881,-0.52874 -1.74604,-0.72813 -4.7734,-0.72813 -5.12252,0 -5.75897,-0.22219 -5.75897,-2.01026 0,-1.79918 0.62659,-2.01021 5.96932,-2.01021 h 4.37945 l 1.05267,-3.23773 c 0.57897,-1.78078 0.92662,-3.36384 0.77254,-3.51792 -0.15407,-0.15409 -2.95624,-0.28013 -6.22706,-0.28013 h -5.94692 v -1.49806 c 0,-1.85982 0.44523,-1.98255 7.78963,-2.14718 l 5.52813,-0.12394 0.15358,-1.58094 c 0.0845,-0.86951 -0.0424,-2.33949 -0.28196,-3.2666 l -0.43553,-1.68569 -6.25129,-0.25129 -6.25128,-0.25125 v -1.50767 -1.50767 l 5.70104,-0.14255 c 4.83034,-0.12077 5.65677,-0.25797 5.41112,-0.89812 -0.15947,-0.41556 -0.64668,-1.98274 -1.0827,-3.48261 l -0.79274,-2.72693 -4.61836,-0.14413 -4.61836,-0.14406 v -1.50767 -1.50767 l 11.14029,-0.32155 c 6.12715,-0.17685 11.38516,-0.47292 11.68445,-0.65783 0.37242,-0.23019 0.54416,-5.48186 0.54416,-16.63978 v -16.30343 h 3.01535 3.01535 v 16.30343 c 0,11.15792 0.17173,16.40959 0.54416,16.63978 0.29927,0.18491 5.55728,0.48098 11.68446,0.65783 l 11.14029,0.32155 0.16962,1.19954 c 0.24175,1.70989 -0.63553,2.0507 -5.30147,2.05937 l -4.12672,0.008 -0.53911,2.13588 c -0.29648,1.17474 -0.74237,2.62215 -0.99084,3.21647 -0.2485,0.59436 -0.31616,1.21628 -0.15039,1.38205 0.16581,0.16576 2.39369,0.30142 4.95086,0.30142 5.48585,0 6.23931,0.21774 6.23931,1.80313 0,1.50187 -0.73526,1.68151 -7.53836,1.84178 l -5.27685,0.12427 -0.44247,2.60766 c -0.70849,4.17546 -0.70807,4.17576 6.08048,4.18455 3.25646,0.005 6.22329,0.19942 6.59297,0.43375 0.36968,0.23433 0.59584,0.96586 0.50259,1.62561 -0.1657,1.17184 -0.30904,1.20539 -6.2003,1.45083 -3.31688,0.13822 -6.02707,0.36437 -6.02266,0.50259 0.005,0.13818 0.43598,1.66469 0.95903,3.39226 l 0.951,3.14097 h 4.22521 c 4.52709,0 6.16936,0.51306 6.16936,1.9274 0,1.68709 -1.07976,2.09307 -5.56708,2.09307 -3.19491,0 -4.52256,0.19468 -4.96529,0.72809 -0.93683,1.12894 -3.65995,1.83917 -8.45027,2.20425 l -4.38627,0.3344 -0.12819,47.11474 -0.12823,47.11473 h -3.01019 -3.01019 z m 91.46799,24.62532 -0.13079,-22.48944 -3.01534,0.12137 c -21.45307,0.86355 -21.01125,0.89054 -20.76218,-1.26965 0.15717,-1.36324 0.16196,-1.36475 5.17376,-1.61577 l 5.01644,-0.25129 0.11311,-1.50768 c 0.11967,-1.59522 0.45483,-3.15491 0.9619,-4.47631 0.26889,-0.70073 -0.34485,-0.80054 -4.92293,-0.80054 -5.38186,0 -6.43625,-0.34288 -6.43625,-2.09306 0,-1.48732 1.70141,-1.92741 7.45156,-1.92741 6.15672,0 5.85809,0.18688 6.4154,-4.01432 0.29698,-2.23863 0.22906,-2.52433 -0.61008,-2.56787 -0.51931,-0.0271 -3.43187,-0.0859 -6.47236,-0.13109 -5.81923,-0.0865 -6.78452,-0.33681 -6.78452,-1.7593 0,-1.77755 1.04086,-2.08112 7.13634,-2.08112 6.74649,0 6.54529,0.17414 4.89518,-4.23618 l -1.03498,-2.7662 -5.37262,-0.14236 c -5.23354,-0.13867 -5.37704,-0.17338 -5.54224,-1.34186 -0.24443,-1.7287 0.63432,-2.05074 5.61917,-2.05941 4.04746,-0.007 4.46836,-0.0992 4.71253,-1.0329 0.42863,-1.63914 2.92134,-2.55309 8.50266,-3.1176 l 5.20671,-0.52663 v -41.13648 -41.13642 h 3.01534 3.01534 l 0.005,1.88459 c 0.004,1.03652 0.008,19.47715 0.0132,40.97917 0.007,30.37626 0.14594,39.14164 0.62387,39.30545 0.33832,0.11601 2.69319,0.43292 5.23302,0.70423 5.02906,0.5373 7.42125,1.46101 7.82982,3.02333 0.23392,0.89462 0.75131,1.02096 4.71253,1.15088 l 4.44974,0.14598 v 1.50768 1.50767 l -4.85979,0.14334 -4.85979,0.14338 -1.04526,3.09517 c -0.57488,1.70239 -1.04527,3.27029 -1.04527,3.48423 0,0.21402 2.65727,0.45276 5.90506,0.53066 l 5.90505,0.14158 0.15748,1.63329 c 0.18077,1.87506 0.79485,1.71521 -7.19329,1.87253 l -5.52814,0.10893 0.10524,2.21311 c 0.22053,4.63873 0.004,4.47454 5.89394,4.47454 6.23056,0 6.81603,0.17271 6.81603,2.01026 0,1.80702 -0.61916,2.01021 -6.12556,2.01021 -3.73752,0 -4.4869,0.12714 -4.25845,0.72244 0.64536,1.68181 1.34925,4.79055 1.22306,5.40173 -0.1017,0.49244 1.01368,0.72424 4.38668,0.91165 l 4.52301,0.25125 v 1.50767 1.50767 l -8.54348,-0.11699 c -4.69892,-0.0643 -9.78731,-0.17738 -11.30754,-0.25126 l -2.76405,-0.13429 -0.11861,12.31266 c -0.0652,6.77193 -0.12175,16.89218 -0.12563,22.48941 l -0.007,10.17678 h -3.01014 -3.01018 z m 91.58586,-38.04473 v -60.58212 h -2.76405 c -2.06958,0 -2.76405,0.18167 -2.76405,0.72308 0,1.04018 -3.09683,1.36553 -11.30754,1.18804 l -7.03577,-0.15216 v -1.50767 -1.50767 l 5.27681,-0.14202 5.27685,-0.14203 0.004,-3.50153 0.004,-3.50152 -4.77679,-0.008 c -2.62723,-0.005 -5.07927,-0.19939 -5.44895,-0.43376 -0.36972,-0.23433 -0.59587,-0.96585 -0.50259,-1.62561 0.1669,-1.18036 0.2675,-1.2018 6.29197,-1.34036 l 6.12235,-0.14089 0.51137,-1.61807 c 0.28121,-0.88998 0.66092,-2.46621 0.84373,-3.50274 l 0.33236,-1.8846 h -6.29679 c -3.46323,0 -6.65448,-0.13724 -7.09171,-0.30504 -0.46165,-0.17731 -0.79492,-0.89221 -0.79492,-1.70533 0,-0.81313 0.33327,-1.52803 0.79492,-1.70518 0.43723,-0.1678 3.49026,-0.30504 6.78452,-0.30504 3.29427,0 5.98957,-0.18585 5.98957,-0.41306 0,-0.7486 -1.64027,-5.35386 -2.12925,-5.97803 -0.30915,-0.39463 -2.37922,-0.6621 -5.83382,-0.75384 -5.21466,-0.13844 -5.35909,-0.17353 -5.52426,-1.34171 -0.24639,-1.74261 0.63303,-2.05077 5.87713,-2.05937 3.55196,-0.006 4.64393,-0.16139 4.46339,-0.6359 -0.46391,-1.2194 0.63865,-2.94293 2.33647,-3.65229 0.94505,-0.3949 3.88859,-0.87053 6.54119,-1.05696 l 4.82285,-0.33903 v -3.21643 -3.21639 l 3.14101,0.1496 3.14097,0.14959 0.14779,3.07053 0.14778,3.0706 4.62652,0.34525 c 5.64992,0.42159 7.95302,1.407 8.62526,3.69041 l 0.48083,1.63333 3.79089,0.008 c 4.32935,0.009 5.20426,0.37164 4.96563,2.05937 -0.16385,1.15894 -0.33531,1.20444 -5.06156,1.3433 -5.47612,0.1609 -5.33892,0.068 -6.69366,4.53206 -0.39388,1.29799 -0.71863,2.41653 -0.72161,2.48562 -0.004,0.0691 2.4637,0.12566 5.48161,0.12566 3.01787,0 5.84475,0.13724 6.28194,0.30504 1.04832,0.40225 1.04832,3.00811 0,3.41036 -0.43719,0.1678 -3.40168,0.30504 -6.58773,0.30504 -5.75273,0 -5.79091,0.008 -5.52134,1.13073 0.1493,0.62191 0.42362,1.97079 0.60963,2.99748 0.18597,1.02665 0.61023,2.09249 0.94278,2.36847 0.33257,0.27602 2.96621,0.56674 5.8525,0.64612 5.10132,0.14025 5.25258,0.17775 5.41744,1.34382 0.24394,1.72534 -0.63458,2.05074 -5.55954,2.05937 l -4.3848,0.008 0.34586,1.63333 c 0.43131,2.03675 0.40598,3.39452 -0.0841,4.50425 -0.34224,0.77505 0.11225,0.87505 4.56643,1.00512 l 4.94649,0.1444 v 1.50767 1.50767 l -7.03582,0.15213 c -8.21072,0.17749 -11.30755,-0.14787 -11.30755,-1.18805 0,-0.50839 -0.59617,-0.72304 -2.00818,-0.72304 h -2.00822 l -0.12766,60.43249 -0.12766,60.43252 -3.14097,0.1496 -3.14101,0.1496 v -60.58247 z m -297.38818,48.13995 c -0.91406,-0.36881 -0.78347,-3.01798 0.16675,-3.38257 1.33212,-0.51122 13.90507,-0.33429 15.91509,0.22392 1.3355,0.37089 1.88458,0.80246 1.88458,1.48125 0,0.6788 -0.54908,1.11037 -1.88458,1.48129 -1.87533,0.52075 -14.88404,0.67943 -16.08184,0.19611 z m 35.68156,-0.22943 c -2.35703,-0.68052 -2.22307,-2.24206 0.25128,-2.92922 2.69728,-0.74904 15.34196,-0.69089 16.10696,0.0741 0.8616,0.86156 0.74501,2.75278 -0.19188,3.11232 -1.24368,0.47722 -14.34458,0.26882 -16.16636,-0.25721 z m 55.78384,0.22943 c -0.91406,-0.36881 -0.78347,-3.01798 0.16675,-3.38257 1.37395,-0.52723 13.22956,-0.33139 15.5669,0.25717 2.92075,0.73544 3.09098,2.1675 0.34818,2.92925 -1.87532,0.52079 -14.88403,0.67944 -16.08183,0.19615 z m 35.55593,-0.11477 c -0.75625,-0.20911 -1.31865,-0.77653 -1.41277,-1.42543 -0.12634,-0.87094 0.2116,-1.1802 1.75893,-1.60989 2.46625,-0.68486 14.49671,-0.69801 15.7687,-0.017 1.09554,0.5863 1.27454,1.99156 0.369,2.89714 -0.65987,0.65991 -14.19797,0.78757 -16.48386,0.15544 z m 55.38178,-0.15544 c -0.90554,-0.90555 -0.72655,-2.31081 0.369,-2.89714 1.30128,-0.69643 13.0835,-0.6653 15.89233,0.0417 2.92078,0.73544 3.09099,2.16757 0.3482,2.92929 -2.70126,0.75014 -15.84389,0.69157 -16.60953,-0.0741 z m 35.70671,0.0407 c -2.50047,-0.72199 -2.19615,-2.19208 0.59945,-2.89598 2.33735,-0.58855 14.19296,-0.7844 15.5669,-0.25717 1.04832,0.40225 1.04832,3.00811 0,3.41036 -1.24368,0.47725 -14.34459,0.26881 -16.16635,-0.25721 z m 55.78387,0.22943 c -0.97984,-0.39535 -0.74197,-2.58626 0.34386,-3.16736 1.26369,-0.67634 13.29525,-0.66967 15.73794,0.009 1.3355,0.37089 1.88459,0.80246 1.88459,1.48129 0,0.67879 -0.54909,1.11036 -1.88459,1.48125 -1.87532,0.52079 -14.88403,0.67943 -16.0818,0.19615 z m 35.68153,-0.22943 c -2.34337,-0.67661 -2.18714,-2.12808 0.30956,-2.87608 2.00562,-0.60092 14.44642,-0.81828 15.8568,-0.27711 1.04833,0.40225 1.04833,3.00811 0,3.41036 -1.24371,0.47725 -14.3446,0.26882 -16.16636,-0.25717 z M 252.88622,583.9531 c -1.13603,-0.2969 -1.20235,-2.94007 -0.0845,-3.36901 1.33213,-0.51117 13.90507,-0.33428 15.91509,0.22397 2.7428,0.76171 2.57257,2.19385 -0.34818,2.92925 -2.13246,0.53696 -13.63965,0.69738 -15.48237,0.21579 z m 35.80719,-0.24078 c -2.34096,-0.66092 -2.65162,-1.04089 -1.80193,-2.20383 0.64291,-0.87996 1.47812,-0.99544 8.32502,-1.15051 4.18571,-0.0948 8.16186,-0.0335 8.83586,0.13524 1.53251,0.38461 1.69666,2.51366 0.25337,3.28608 -1.22122,0.65354 -13.24264,0.60198 -15.61232,-0.067 z m 55.15567,0.0442 c -1.01575,-0.59161 -1.15114,-1.99978 -0.27643,-2.87457 0.77031,-0.77034 13.91577,-0.82213 16.64021,-0.0657 2.50341,0.69518 2.31469,1.97972 -0.41159,2.80121 -2.45642,0.74023 -14.73629,0.8472 -15.95219,0.13901 z m 35.68154,-0.0616 c -1.31993,-0.35057 -1.88459,-0.77965 -1.88459,-1.43206 0,-0.64841 0.57287,-1.09072 1.88459,-1.45498 2.01002,-0.55821 14.58299,-0.73514 15.91509,-0.22392 1.04832,0.40224 1.04832,3.0081 0,3.41035 -1.26984,0.48728 -13.84378,0.25076 -15.91509,-0.29939 z m 55.78386,0.0616 c -1.09642,-0.63861 -1.15299,-2.76262 -0.0845,-3.17259 1.07508,-0.41254 14.71627,-0.29321 16.29201,0.14258 0.73895,0.20433 1.31895,0.77728 1.40828,1.39128 0.1251,0.85968 -0.24677,1.14429 -2.10713,1.61272 -2.79748,0.70442 -14.3107,0.72376 -15.50862,0.026 z m 35.68153,-0.0616 c -1.31993,-0.35057 -1.88459,-0.77965 -1.88459,-1.43206 0,-0.64841 0.57288,-1.09072 1.88459,-1.45498 2.01003,-0.55821 14.58297,-0.73514 15.91511,-0.22392 1.11346,0.42727 0.9948,2.56798 -0.17711,3.19517 -1.22216,0.65406 -13.19968,0.58999 -15.738,-0.0842 z M 252.19975,572.51858 c -0.1529,-0.39848 -0.19951,-1.13347 -0.10356,-1.63334 0.15741,-0.82006 0.89826,-0.92239 7.58439,-1.0479 8.38381,-0.15737 10.5955,0.19705 10.82118,1.73405 0.2086,1.42075 -1.37248,1.67166 -10.53269,1.67166 -6.06043,0 -7.54441,-0.1384 -7.76932,-0.72447 z m 35.40572,0.39218 c -1.07945,-0.2935 -1.61373,-1.6898 -0.91451,-2.39015 0.60359,-0.60465 15.33705,-1.0894 17.39687,-0.57242 1.00889,0.25325 1.22268,0.58072 1.09604,1.67909 l -0.15733,1.36478 -8.29219,0.0732 c -4.56071,0.0402 -8.66873,-0.029 -9.12888,-0.15424 z m 55.69916,-0.005 c -0.63978,-0.63978 -0.3306,-2.57446 0.45991,-2.8778 1.07825,-0.41375 15.2233,-0.29249 16.79192,0.14398 1.75956,0.48958 1.90517,1.93853 0.25777,2.56489 -1.46052,0.55524 -16.97359,0.70499 -17.5096,0.16893 z m 35.4423,-0.0177 c -0.84381,-0.16554 -1.11817,-0.51762 -1.00513,-1.28985 0.22985,-1.57002 2.38974,-1.92161 10.83134,-1.7633 l 7.41624,0.14172 v 1.50767 1.50767 l -8.04091,0.0632 c -4.42252,0.0347 -8.56319,-0.0392 -9.20154,-0.16449 z m 55.88107,-0.37191 c -0.15288,-0.39847 -0.19947,-1.13346 -0.1035,-1.6333 0.15808,-0.82322 0.91312,-0.92182 8.01802,-1.04688 8.2954,-0.14602 10.4871,0.2347 10.4871,1.82175 0,1.32698 -1.71965,1.58298 -10.63229,1.58298 -6.06042,0 -7.54439,-0.1384 -7.76933,-0.72455 z m 35.58433,0.37191 c -0.84381,-0.16554 -1.11817,-0.51762 -1.00509,-1.28985 0.2298,-1.57002 2.38969,-1.92161 10.83128,-1.7633 l 7.41623,0.14172 v 1.50767 1.50767 l -8.0409,0.0632 c -4.42251,0.0347 -8.56318,-0.0392 -9.20152,-0.16449 z M 252.34179,562.35461 c -0.18427,-0.18424 -0.33504,-0.97576 -0.33504,-1.75896 v -1.42388 h 7.72682 c 9.41595,0 10.97735,0.24367 10.76819,1.68075 -0.0891,0.61215 -0.67002,1.18541 -1.40807,1.38951 -1.63296,0.45154 -16.31427,0.55026 -16.7519,0.11258 z m 35.47216,-0.18318 c -0.64073,-0.25751 -1.13076,-0.88723 -1.13076,-1.45306 0,-1.38747 1.75919,-1.62255 10.805,-1.44408 7.51461,0.14828 7.53888,0.1525 7.70797,1.34831 0.0932,0.65976 -0.13291,1.39128 -0.50259,1.62561 -0.89608,0.56798 -15.44014,0.50186 -16.87962,-0.0768 z m 147.20529,0.0768 c -0.36968,-0.23433 -0.59583,-0.96585 -0.50254,-1.62561 0.16904,-1.19581 0.19332,-1.20003 7.70793,-1.34831 9.29264,-0.18333 10.92624,0.0513 10.71053,1.5388 -0.0946,0.65245 -0.65527,1.21937 -1.41321,1.42894 -1.82315,0.50416 -15.70888,0.50933 -16.50271,0.006 z m 35.59985,-0.006 c -0.75794,-0.20957 -1.3186,-0.77649 -1.41321,-1.42894 -0.21571,-1.48746 1.41789,-1.72213 10.71052,-1.5388 7.51468,0.14828 7.53892,0.1525 7.708,1.34831 0.0933,0.65976 -0.13286,1.39128 -0.50254,1.62561 -0.79383,0.50315 -14.67961,0.49798 -16.50277,-0.006 z M 252.63494,551.80325 c -0.91406,-0.36882 -0.78347,-3.01794 0.16675,-3.38254 1.37395,-0.52723 13.22956,-0.33138 15.5669,0.25714 2.92075,0.73544 3.09098,2.16754 0.34818,2.92925 -1.87532,0.52083 -14.88403,0.67947 -16.08183,0.19615 z m 35.80722,-0.0305 c -2.73564,-0.67242 -2.64133,-2.35921 0.17564,-3.14165 2.40443,-0.66782 14.43784,-0.66398 15.68793,0.005 1.09554,0.58633 1.27454,1.99156 0.369,2.89714 -0.60009,0.60009 -13.96334,0.79718 -16.23257,0.23942 z m 146.62107,0.0305 c -0.97984,-0.39535 -0.74197,-2.58626 0.34386,-3.16735 1.26369,-0.67635 13.29525,-0.66967 15.73794,0.009 1.3355,0.37089 1.88459,0.80242 1.88459,1.48122 0,0.67883 -0.54909,1.11036 -1.88459,1.48125 -1.87532,0.52078 -14.88403,0.67947 -16.0818,0.19614 z m 35.68153,-0.22954 c -2.35702,-0.68057 -2.2231,-2.24206 0.25125,-2.92922 2.01003,-0.55825 14.58297,-0.73514 15.91511,-0.22393 1.04833,0.40225 1.04833,3.00811 0,3.41035 -1.24371,0.47722 -14.3446,0.26882 -16.16636,-0.2572 z M 161.35795,540.9842 c -1.04616,-0.58547 -1.06099,-2.71852 -0.0217,-3.11734 1.07505,-0.41257 14.71627,-0.2932 16.29201,0.14255 1.8554,0.51306 1.95331,2.3355 0.15256,2.83993 -2.0262,0.56748 -15.45277,0.67777 -16.4229,0.13486 z m 35.96542,-0.0226 c -1.81712,-0.38193 -2.14104,-0.62847 -2.01023,-1.52991 0.0936,-0.64536 0.65777,-1.21333 1.41232,-1.42199 1.57574,-0.43576 15.21696,-0.55513 16.292,-0.14259 1.23031,0.47212 0.99737,2.66718 -0.33581,3.16456 -1.49729,0.55859 -12.60875,0.5079 -15.35828,-0.0701 z m 55.53417,0.22657 c -0.68724,-0.14598 -0.87061,-0.57996 -0.75383,-1.78388 l 0.15432,-1.59119 7.18167,-0.13958 c 7.96431,-0.15476 11.16166,0.37903 11.16166,1.86341 0,0.5895 -0.5072,1.06962 -1.38203,1.30824 -1.45079,0.39577 -14.79661,0.67533 -16.36179,0.34273 z m 35.93123,-0.22815 c -1.8175,-0.38069 -2.14104,-0.6267 -2.01022,-1.52829 0.0936,-0.64536 0.65776,-1.21337 1.41232,-1.422 1.57574,-0.43575 15.21696,-0.55512 16.29201,-0.14262 0.94516,0.36271 1.06098,2.4817 0.16674,3.05077 -0.87912,0.55935 -13.2346,0.59225 -15.86085,0.0422 z m 146.43039,0.006 c -1.02028,-0.57092 -1.01282,-2.70639 0.0109,-3.09917 1.07504,-0.41254 14.71623,-0.29321 16.29197,0.14259 1.85591,0.51321 1.95417,2.33726 0.15258,2.83261 -1.99868,0.54943 -15.51308,0.65135 -16.45537,0.12397 z m 35.66996,-0.0684 c -1.47032,-0.34767 -1.8025,-0.64178 -1.67958,-1.4871 0.0907,-0.62402 0.66552,-1.19535 1.40955,-1.40111 1.57575,-0.43576 15.21699,-0.55513 16.29203,-0.14259 0.94524,0.36271 1.06084,2.48023 0.16672,3.05439 -0.84328,0.54152 -13.87901,0.52252 -16.18872,-0.0237 z M 160.73435,529.80149 c -0.1529,-0.39848 -0.19954,-1.13347 -0.10362,-1.63333 0.15661,-0.81618 0.89073,-0.92424 7.20394,-1.06095 3.86626,-0.0837 7.9907,-0.0132 9.16543,0.15646 1.80846,0.26124 2.13586,0.48679 2.13586,1.47133 0,1.56391 -1.34802,1.79097 -10.63229,1.79097 -6.06043,0 -7.54441,-0.13837 -7.76932,-0.72448 z m 35.61419,0.37583 c -0.79148,-0.15669 -1.13075,-0.58102 -1.13075,-1.41446 0,-1.01734 0.31092,-1.23554 2.13587,-1.49916 1.17473,-0.16972 5.30198,-0.24013 9.17167,-0.15645 l 7.0358,0.15212 v 1.50767 1.50767 l -8.04092,0.0632 c -4.4225,0.0347 -8.54975,-0.0377 -9.17167,-0.16056 z m 55.85121,-0.37583 c -0.1529,-0.39848 -0.19951,-1.13347 -0.10356,-1.63333 0.15741,-0.82006 0.89826,-0.9224 7.58439,-1.04787 8.38381,-0.15737 10.5955,0.19705 10.82118,1.73405 0.2086,1.42071 -1.37248,1.67163 -10.53269,1.67163 -6.06043,0 -7.54441,-0.13837 -7.76932,-0.72448 z m 35.36291,0.38397 c -0.51457,-0.13788 -0.87947,-0.71562 -0.87947,-1.39241 0,-0.89352 0.3574,-1.22823 1.57051,-1.47085 2.34005,-0.46802 15.66342,-0.36482 16.43987,0.12736 0.36968,0.23433 0.59584,0.96585 0.50259,1.62561 l -0.16962,1.19905 -8.29219,0.0732 c -4.56071,0.0402 -8.68796,-0.0328 -9.17169,-0.16249 z M 434.628,529.80149 c -0.15288,-0.39848 -0.1995,-1.13347 -0.10362,-1.63333 0.15661,-0.81618 0.89074,-0.92424 7.20392,-1.06095 3.86628,-0.0837 7.9907,-0.0132 9.16544,0.15646 1.80845,0.26124 2.13588,0.48679 2.13588,1.47133 0,1.56391 -1.34801,1.79097 -10.63229,1.79097 -6.06042,0 -7.54439,-0.13837 -7.76933,-0.72448 z m 35.61418,0.37583 c -1.60281,-0.31722 -1.47937,-2.05647 0.19106,-2.69157 0.73921,-0.28103 4.78161,-0.44171 9.17163,-0.36441 l 7.84988,0.13754 v 1.50767 1.50767 l -8.0409,0.0633 c -4.42251,0.0347 -8.54976,-0.0377 -9.17167,-0.16053 z m -309.1166,-10.64646 c -0.3697,-0.23433 -0.59585,-0.96585 -0.50256,-1.62561 0.16907,-1.19581 0.19332,-1.20003 7.70796,-1.34831 9.29266,-0.18334 10.92625,0.0513 10.71055,1.5388 -0.0946,0.65245 -0.65529,1.21937 -1.41324,1.42894 -1.82313,0.50416 -15.7089,0.50932 -16.50271,0.006 z m 35.59988,-0.007 c -0.75794,-0.20956 -1.31861,-0.77652 -1.41323,-1.42893 -0.21571,-1.48747 1.41789,-1.72218 10.71054,-1.53884 7.51464,0.14831 7.53889,0.15254 7.70797,1.34831 0.0933,0.65975 -0.13287,1.39128 -0.50256,1.62564 -0.79381,0.50315 -14.67959,0.49799 -16.50272,-0.006 z m 55.47429,-0.27688 c -0.1529,-0.39848 -0.19954,-1.13347 -0.10362,-1.6333 0.15661,-0.81622 0.89073,-0.92432 7.20394,-1.06095 3.86626,-0.0837 8.00434,-0.0109 9.19575,0.16098 1.85075,0.2675 2.14348,0.46964 2.01023,1.38789 -0.22091,1.52237 -1.58722,1.76262 -10.34852,1.81976 -6.25769,0.0407 -7.73125,-0.084 -7.95778,-0.67438 z m 35.99112,0.27688 c -0.75795,-0.20956 -1.31861,-0.77652 -1.41326,-1.42893 -0.21567,-1.48747 1.41789,-1.72218 10.71058,-1.53884 7.51461,0.14831 7.53888,0.15254 7.70797,1.34831 0.0932,0.65975 -0.13291,1.39128 -0.50259,1.62564 -0.79379,0.50315 -14.67959,0.49799 -16.5027,-0.006 z m 55.36294,0.006 c -0.36969,-0.23436 -0.59584,-0.96589 -0.50255,-1.62564 l 0.16961,-1.19939 8.10193,-0.1378 c 4.5532,-0.0774 8.68049,0.0822 9.42295,0.36451 1.90841,0.72557 1.64536,1.89748 -0.56357,2.51092 -2.25099,0.62511 -15.66878,0.69579 -16.62837,0.0875 z m 35.59989,1.9e-4 c -0.73526,-0.20696 -1.31929,-0.78591 -1.40805,-1.39576 -0.20927,-1.43779 1.35166,-1.68075 10.80001,-1.68075 h 7.75867 l -0.15748,1.63333 -0.15747,1.6333 -7.78965,0.0818 c -4.28428,0.0447 -8.35499,-0.0774 -9.04603,-0.27187 z m 55.86554,-4e-5 c -0.36968,-0.23436 -0.59583,-0.96589 -0.50254,-1.62564 0.16904,-1.19577 0.19332,-1.2 7.70793,-1.34831 9.29264,-0.18334 10.92624,0.0514 10.71053,1.53884 -0.0946,0.65241 -0.65527,1.21937 -1.41321,1.42893 -1.82315,0.50417 -15.70888,0.50933 -16.50271,0.006 z m 35.59985,-0.006 c -0.75794,-0.20956 -1.3186,-0.77652 -1.41321,-1.42893 -0.21571,-1.48747 1.41789,-1.72218 10.71055,-1.53884 7.51465,0.14831 7.53889,0.15254 7.70797,1.34831 0.0933,0.65976 -0.13286,1.39128 -0.50254,1.62564 -0.79383,0.50315 -14.67961,0.49799 -16.50277,-0.006 z m -309.44955,-10.4383 c -0.91406,-0.36881 -0.78347,-3.01794 0.16675,-3.38257 1.33212,-0.51118 13.90507,-0.33429 15.91509,0.22397 1.3355,0.37088 1.88458,0.80242 1.88458,1.48121 0,0.67883 -0.54908,1.11036 -1.88458,1.48125 -1.87533,0.52078 -14.88404,0.67947 -16.08184,0.19614 z m 35.68156,-0.22943 c -2.35703,-0.68056 -2.22307,-2.24205 0.25128,-2.92917 2.01002,-0.55826 14.58296,-0.73515 15.91508,-0.22397 0.46167,0.17715 0.79495,0.89205 0.79495,1.70518 0,0.81316 -0.33328,1.52802 -0.79495,1.70514 -1.24368,0.47725 -14.34458,0.26881 -16.16636,-0.25718 z m 146.72155,-0.0407 c -0.90554,-0.90559 -0.72655,-2.31081 0.369,-2.89714 1.30128,-0.69647 13.0835,-0.6653 15.89233,0.0417 2.90698,0.73198 3.04003,2.05221 0.28989,2.87615 -2.64992,0.79394 -15.75291,0.77736 -16.55122,-0.0211 z m 35.70671,0.0407 c -2.50047,-0.72198 -2.19615,-2.19207 0.59945,-2.89601 2.33735,-0.58852 14.19296,-0.78436 15.5669,-0.25713 1.04832,0.40225 1.04832,3.00811 0,3.41035 -1.24368,0.47722 -14.34459,0.26882 -16.16635,-0.25721 z m 55.78387,0.2294 c -0.79971,-0.32268 -0.8158,-2.29393 -0.0253,-3.08455 0.41001,-0.40997 2.78301,-0.60216 7.4127,-0.60024 7.72301,0.005 10.57884,0.54506 10.57884,2.00743 0,0.67879 -0.5491,1.11032 -1.88459,1.48121 -1.87532,0.52082 -14.88404,0.67947 -16.08184,0.19615 z m 35.68153,-0.2294 c -2.35702,-0.68056 -2.2231,-2.24205 0.25125,-2.92921 2.01003,-0.55826 14.58301,-0.73514 15.91511,-0.22393 1.04833,0.40225 1.04833,3.00811 0,3.41035 -1.24367,0.47722 -14.3446,0.26882 -16.16636,-0.25721 z M 160.87639,498.02721 c -0.63978,-0.63974 -0.3306,-2.57443 0.4599,-2.87777 1.07505,-0.41257 14.71626,-0.2932 16.292,0.14255 1.69991,0.47005 1.97247,2.32634 0.40329,2.74664 -1.56668,0.41962 -16.73425,0.40952 -17.15519,-0.0117 z m 35.19149,-0.0109 c -1.34939,-0.35838 -0.88103,-2.2986 0.65758,-2.72406 1.82313,-0.50417 15.70891,-0.50933 16.50272,-0.006 0.36969,0.23429 0.59584,0.96585 0.50256,1.62557 l -0.16961,1.19943 -8.2922,0.0732 c -4.5607,0.0402 -8.70117,-0.0351 -9.20105,-0.1681 z m 147.23675,0.0109 c -0.63978,-0.63974 -0.3306,-2.57443 0.45991,-2.87777 1.33452,-0.51212 14.40946,-0.33376 16.41764,0.22393 2.19506,0.60959 2.47499,1.78421 0.59549,2.49881 -1.43481,0.54548 -16.94494,0.68313 -17.47304,0.15503 z m 35.2209,-0.0117 c -0.48374,-0.12645 -0.8795,-0.65651 -0.8795,-1.17794 0,-1.54981 3.00452,-2.06491 11.05628,-1.89556 l 7.28707,0.15329 0.15747,1.6333 0.15748,1.6333 -8.44967,-0.0583 c -4.64732,-0.032 -8.84543,-0.16174 -9.32913,-0.28812 z m 56.24453,0.0117 c -0.63978,-0.63974 -0.3306,-2.57443 0.45988,-2.87777 1.07508,-0.41257 14.71627,-0.2932 16.29201,0.14255 1.6999,0.47005 1.97245,2.32634 0.40326,2.74664 -1.56666,0.41962 -16.73421,0.40952 -17.15515,-0.0117 z m 35.19146,-0.0109 c -1.3494,-0.35838 -0.881,-2.2986 0.65757,-2.72406 1.82316,-0.50417 15.70894,-0.50933 16.50277,-0.006 0.36968,0.23429 0.59583,0.96585 0.50254,1.62557 l -0.16961,1.19943 -8.29219,0.0732 c -4.56073,0.0402 -8.70121,-0.0351 -9.20108,-0.1681 z M 160.73435,487.08433 c -0.1529,-0.39848 -0.19954,-1.13347 -0.10362,-1.6333 0.15661,-0.81621 0.89073,-0.92431 7.20394,-1.06094 3.86626,-0.0837 7.9907,-0.0132 9.16543,0.15638 1.80846,0.26124 2.13586,0.48683 2.13586,1.47137 0,1.56391 -1.34802,1.79097 -10.63229,1.79097 -6.06043,0 -7.54441,-0.13841 -7.76932,-0.72448 z m 35.61419,0.37583 c -0.79148,-0.15665 -1.13075,-0.58102 -1.13075,-1.41446 0,-1.01734 0.31092,-1.23554 2.13587,-1.49919 1.17473,-0.16969 5.30198,-0.2401 9.17167,-0.15642 l 7.0358,0.15201 v 1.50767 1.50767 l -8.04092,0.0632 c -4.4225,0.0347 -8.54975,-0.0377 -9.17167,-0.16057 z m 147.24925,0.0162 c -0.90079,-0.36349 -0.77607,-2.51818 0.16675,-2.88002 1.07912,-0.41412 15.22379,-0.29227 16.79456,0.14466 0.77958,0.21687 1.25638,0.71373 1.25638,1.30926 0,0.59553 -0.4768,1.09242 -1.25638,1.30926 -1.43806,0.40006 -16.01076,0.5004 -16.96131,0.11684 z m 35.14168,-0.19286 c -1.63172,-0.66304 -1.20113,-2.0815 0.78839,-2.59701 0.89598,-0.23218 4.96635,-0.35954 9.04528,-0.28302 l 7.41624,0.13859 v 1.50767 1.50767 l -8.04091,0.10011 c -4.42252,0.055 -8.56655,-0.11353 -9.209,-0.37458 z M 161.12558,476.81407 c -0.3697,-0.23433 -0.59585,-0.96589 -0.50256,-1.6256 0.16907,-1.19585 0.19332,-1.20004 7.70796,-1.34832 9.29266,-0.18333 10.92625,0.0513 10.71055,1.53881 -0.0946,0.65244 -0.65529,1.21937 -1.41324,1.42893 -1.82313,0.50417 -15.7089,0.50933 -16.50271,0.006 z m 35.59988,-0.006 c -0.75794,-0.20957 -1.31861,-0.77649 -1.41323,-1.42894 -0.21571,-1.48747 1.41789,-1.72213 10.71054,-1.5388 7.51464,0.14828 7.53889,0.15254 7.70797,1.34831 0.0933,0.65972 -0.13287,1.39128 -0.50256,1.62561 -0.79381,0.50318 -14.67959,0.49798 -16.50272,-0.006 z m 146.82835,0.006 c -0.36969,-0.23433 -0.59584,-0.96585 -0.50255,-1.62561 l 0.16961,-1.19939 8.10193,-0.1378 c 4.5532,-0.0775 8.68049,0.0822 9.42295,0.36448 1.90841,0.7256 1.64536,1.89751 -0.56357,2.51095 -2.25099,0.62512 -15.66878,0.69579 -16.62837,0.0875 z m 35.59989,2.2e-4 c -0.73526,-0.20696 -1.31929,-0.78591 -1.40805,-1.39576 -0.20927,-1.43783 1.35166,-1.68075 10.80001,-1.68075 h 7.75867 l -0.15748,1.63329 -0.15747,1.63334 -7.78965,0.0817 c -4.28428,0.0447 -8.35499,-0.0774 -9.04603,-0.27187 z M 161.16954,466.36873 c -0.91406,-0.36886 -0.78347,-3.01798 0.16675,-3.38258 1.33212,-0.51121 13.90507,-0.33429 15.91509,0.22393 1.3355,0.37089 1.88458,0.80246 1.88458,1.48125 0,0.67879 -0.54908,1.11036 -1.88458,1.48125 -1.87533,0.52079 -14.88404,0.67943 -16.08184,0.19615 z m 35.68156,-0.22943 c -2.35703,-0.68057 -2.22307,-2.24206 0.25128,-2.92922 2.01002,-0.55822 14.58296,-0.73514 15.91508,-0.22393 0.46167,0.17715 0.79495,0.89205 0.79495,1.70518 0,0.81312 -0.33328,1.52802 -0.79495,1.70518 -1.24368,0.47721 -14.34458,0.26881 -16.16636,-0.25721 z m 55.78384,0.22943 c -0.91406,-0.36886 -0.78347,-3.01798 0.16675,-3.38258 1.33212,-0.51121 13.90507,-0.33429 15.91508,0.22393 1.33551,0.37089 1.88459,0.80246 1.88459,1.48125 0,0.67879 -0.54908,1.11036 -1.88459,1.48125 -1.87532,0.52079 -14.88403,0.67943 -16.08183,0.19615 z m 35.68155,-0.22943 c -2.35702,-0.68057 -2.22306,-2.24206 0.25129,-2.92922 2.44269,-0.67838 14.47425,-0.68509 15.73795,-0.009 0.53465,0.28608 0.97207,0.95662 0.97207,1.48996 0,0.53337 -0.43742,1.20387 -0.97207,1.48999 -1.19924,0.64182 -13.73497,0.60891 -15.98924,-0.0422 z m 55.53259,0.0196 c -1.16976,-0.68132 -1.1188,-2.30912 0.0926,-2.95741 1.30127,-0.69644 13.0835,-0.66526 15.89233,0.0417 1.58483,0.39908 2.23279,0.81927 2.23279,1.44801 0,0.62877 -0.64796,1.04896 -2.23279,1.44804 -2.77773,0.69945 -14.79229,0.71403 -15.9849,0.0196 z m 35.43028,-0.0196 c -1.81701,-0.52464 -2.2456,-2.07727 -0.75383,-2.73085 1.143,-0.50081 14.81068,-0.9346 16.45367,-0.52226 0.98085,0.24621 1.26147,0.6379 1.26147,1.76096 0,0.85338 -0.32525,1.56908 -0.79496,1.74936 -1.24368,0.47721 -14.34459,0.26881 -16.16635,-0.25721 z M 160.87639,455.31026 c -0.63978,-0.63978 -0.3306,-2.57446 0.4599,-2.87781 1.07505,-0.41253 14.71626,-0.2932 16.292,0.14259 1.69991,0.47002 1.97247,2.32634 0.40329,2.7466 -1.56668,0.41966 -16.73425,0.40956 -17.15519,-0.0117 z m 35.19149,-0.0109 c -1.34939,-0.35838 -0.88103,-2.2986 0.65758,-2.72406 1.82313,-0.50417 15.70891,-0.50933 16.50272,-0.006 0.36969,0.23436 0.59584,0.96589 0.50256,1.62564 l -0.16961,1.19928 -8.2922,0.0732 c -4.5607,0.0402 -8.70117,-0.0351 -9.20105,-0.16814 z m 56.03267,-1.2871 0.15748,-1.6333 7.41624,-0.13912 c 8.3946,-0.15744 10.60176,0.19656 10.82783,1.73665 0.21632,1.47371 -0.90941,1.65433 -10.36064,1.66221 l -8.19839,0.007 0.15748,-1.63334 z m 35.43274,1.2871 c -1.3494,-0.35838 -0.88104,-2.2986 0.65758,-2.72406 1.82311,-0.50417 15.70891,-0.50933 16.5027,-0.006 0.36968,0.23436 0.59584,0.96589 0.50259,1.62564 l -0.16962,1.19928 -8.29219,0.0732 c -4.56071,0.0402 -8.70119,-0.0351 -9.20106,-0.16814 z m 55.77134,0.0109 c -0.63978,-0.63978 -0.3306,-2.57446 0.45991,-2.87781 1.33452,-0.51212 14.40946,-0.33376 16.41764,0.22393 2.19506,0.60963 2.47499,1.78425 0.59549,2.49881 -1.43481,0.54548 -16.94494,0.68313 -17.47304,0.15507 z m 35.47215,-0.0136 c -0.69492,-0.13758 -1.13075,-0.58995 -1.13075,-1.1738 0,-1.55192 3.00075,-2.0669 11.05628,-1.89744 l 7.28707,0.15329 v 1.50767 1.50767 l -8.04091,0.0632 c -4.42252,0.0347 -8.54978,-0.0377 -9.17169,-0.16057 z M 170.59249,282.01151 V 164.16185 H 320.10326 469.61401 V 282.01151 399.86115 H 320.10326 170.59249 Z m 282.31271,-0.1266 0.12683,-101.64311 -132.80194,0.12657 -132.80193,0.12657 -0.12889,101.01399 c -0.0709,55.55771 -0.0213,101.2971 0.11023,101.64315 0.19081,0.50206 27.0157,0.60356 132.80397,0.50255 l 132.56486,-0.12657 z m 51.38523,-92.59519 v -23.6202 h 29.90214 29.90218 v 23.6202 23.62016 h -29.90218 -29.90214 z m 52.64936,-0.13079 0.13219,-17.46898 -22.74726,0.13076 -22.74722,0.13079 -0.14361,16.80333 c -0.079,9.24184 -0.029,17.10186 0.11097,17.46672 0.20662,0.53839 4.49259,0.63914 22.75867,0.53484 l 22.50412,-0.12845 z"
     id="path3682"
     inkscape:connector-curvature="0" />
</svg>
