<?xml version="1.0" encoding="UTF-8" standalone="no"?>
<!-- Created with Inkscape (http://www.inkscape.org/) -->

<svg
   xmlns:dc="http://purl.org/dc/elements/1.1/"
   xmlns:cc="http://creativecommons.org/ns#"
   xmlns:rdf="http://www.w3.org/1999/02/22-rdf-syntax-ns#"
   xmlns:svg="http://www.w3.org/2000/svg"
   xmlns="http://www.w3.org/2000/svg"
   xmlns:sodipodi="http://sodipodi.sourceforge.net/DTD/sodipodi-0.dtd"
   xmlns:inkscape="http://www.inkscape.org/namespaces/inkscape"
   version="1.1"
   id="svg2"
   width="460"
   height="768"
   viewBox="0 0 460 768"
   sodipodi:docname="N.svg"
   inkscape:version="0.92.1 r15371">
  <metadata
     id="metadata8">
    <rdf:RDF>
      <cc:Work
         rdf:about="">
        <dc:format>image/svg+xml</dc:format>
        <dc:type
           rdf:resource="http://purl.org/dc/dcmitype/StillImage" />
        <dc:title></dc:title>
      </cc:Work>
    </rdf:RDF>
  </metadata>
  <defs
     id="defs6" />
  <sodipodi:namedview
     pagecolor="#ffffff"
     bordercolor="#666666"
     borderopacity="1"
     objecttolerance="10"
     gridtolerance="10"
     guidetolerance="10"
     inkscape:pageopacity="0"
     inkscape:pageshadow="2"
     inkscape:window-width="731"
     inkscape:window-height="480"
     id="namedview4"
     showgrid="false"
     inkscape:zoom="0.30729167"
     inkscape:cx="230"
     inkscape:cy="384"
     inkscape:window-x="0"
     inkscape:window-y="27"
     inkscape:window-maximized="0"
     inkscape:current-layer="svg2" />
  <path
     style="fill:#000000"
     d="m 323.6247,527.32583 c -1.2666,-1.71317 -2.95734,-3.85067 -3.7572,-4.75 -3.6744,-4.13137 -14.31601,-20.16208 -14.31601,-21.56589 0,-0.86309 -0.38345,-1.56926 -0.8521,-1.56926 -0.46866,0 -4.37846,-5.0625 -8.68846,-11.25 -4.30999,-6.1875 -9.23892,-13.05 -10.95318,-15.25 -1.71425,-2.2 -3.65118,-5.125 -4.30429,-6.5 -1.82464,-3.84149 -8.28702,-13.31932 -10.22762,-15 -0.31753,-0.275 -2.12916,-2.75 -4.02584,-5.5 -1.89668,-2.75 -3.6839,-5.225 -3.97161,-5.5 -0.67927,-0.64928 -3.99594,-5.76373 -5.94725,-9.17093 -2.50648,-4.37659 -10.32707,-15.30309 -11.21029,-15.6624 -0.45065,-0.18334 -0.81936,-0.74194 -0.81936,-1.24135 0,-0.94798 -6.67492,-10.05476 -8.00784,-10.92532 -0.42105,-0.275 -2.00963,-2.75 -3.53018,-5.5 -2.71922,-4.91787 -11.2678,-17.52144 -12.54794,-18.5 -0.35975,-0.275 -3.18067,-4.325 -6.2687,-9 -6.26272,-9.48117 -7.79791,-11.70672 -18.94849,-27.46935 -4.29172,-6.06686 -8.22922,-11.18065 -8.75,-11.36398 -0.52077,-0.18334 -0.94685,-0.9549 -0.94685,-1.71458 0,-0.75969 -1.36474,-3.30969 -3.03276,-5.66667 -1.66801,-2.35698 -3.79968,-5.41042 -4.73703,-6.78542 -4.40668,-6.46413 -4.26013,-8.49147 -3.98805,55.17073 l 0.25784,60.32927 20.75,0.27029 20.75,0.27029 v 24.89792 c 0,13.69386 -0.27314,25.60973 -0.60699,26.47971 -0.52604,1.37083 -3.32673,1.58179 -21,1.58179 h -20.39301 l -0.0564,17.75 c -0.0349,10.98091 -0.51162,19.08475 -1.25,21.25 l -1.19355,3.5 h -25.5 -25.5 l -0.5,-21 -0.5,-21 -23.72916,-0.26805 -23.72916,-0.26805 0.17812,-24.99486 c 0.098,-13.74718 0.52156,-25.55155 0.94133,-26.23195 0.5615,-0.91016 6.8503,-1.31696 23.79635,-1.53932 l 23.03311,-0.30222 0.25468,-102.69778 0.25469,-102.69777 6.81151,-0.29709 c 5.65804,-0.24678 7.30063,-0.7329 9.69984,-2.8706 3.84468,-3.42563 18.11693,-13.33231 19.20745,-13.33231 0.4742,0 2.18356,-0.97694 3.79857,-2.17097 l 2.93639,-2.17096 2.42085,2.61213 c 1.94205,2.09551 14.06778,18.86785 19.22177,26.58761 0.60301,0.9032 2.85301,4.27496 5,7.4928 5.4259,8.13217 6.08475,9.05753 13.27831,18.64939 3.50608,4.675 6.61934,9.175 6.91835,10 0.67015,1.84899 5.94219,9.68233 8.11094,12.05144 0.8778,0.9589 4.97101,6.73394 9.09601,12.8334 4.125,6.09947 11.22463,16.38312 15.77696,22.85255 8.76642,12.45819 12.25454,17.62181 19.26076,28.51261 2.3883,3.7125 4.60983,6.75 4.93672,6.75 0.32689,0 1.4571,1.4625 2.51159,3.25 1.05448,1.7875 3.75247,5.725 5.99554,8.75 2.24306,3.025 4.73982,6.85 5.54836,8.5 0.80854,1.65 2.25757,3.58802 3.22007,4.3067 0.96251,0.71869 1.75,1.95619 1.75,2.75 0,0.79382 0.45,1.4433 1,1.4433 0.55,0 1,0.6375 1,1.41667 0,0.77916 0.33751,1.56666 0.75,1.75 0.90109,0.40048 6.25,7.46547 6.25,8.25518 0,0.30541 0.64731,1.34793 1.43848,2.31672 0.79116,0.96879 3.05908,3.73795 5.03982,6.15371 1.98074,2.41575 4.4485,6.2519 5.48391,8.52478 1.03542,2.27287 2.73473,4.90368 3.77624,5.84624 1.85661,1.68021 1.8991,0.0459 2.17142,-83.52478 0.34352,-105.43107 0.38402,-107.49266 2.18547,-111.25275 l 1.43048,-2.98577 h 25.4871 25.48709 v 145.5 c 0,80.025 -0.32685,146.66091 -0.72633,148.07979 -0.71056,2.52376 -0.8952,2.57354 -8.5,2.29201 -6.72899,-0.24912 -8.47922,0.0645 -13.02367,2.33372 -2.8875,1.44184 -5.25,2.99794 -5.25,3.458 0,0.46006 -0.7875,0.84085 -1.75,0.84619 -0.9625,0.005 -3.72583,1.58033 -6.14073,3.5 -2.4149,1.91966 -4.69279,3.49029 -5.06194,3.49029 -0.36917,0 -1.70752,-1.40168 -2.97413,-3.11485 z"
     id="path12"
     inkscape:connector-curvature="0" />
</svg>
