<?xml version="1.0" encoding="UTF-8" standalone="no"?>
<!-- Created with Inkscape (http://www.inkscape.org/) -->

<svg
   xmlns:dc="http://purl.org/dc/elements/1.1/"
   xmlns:cc="http://creativecommons.org/ns#"
   xmlns:rdf="http://www.w3.org/1999/02/22-rdf-syntax-ns#"
   xmlns:svg="http://www.w3.org/2000/svg"
   xmlns="http://www.w3.org/2000/svg"
   xmlns:sodipodi="http://sodipodi.sourceforge.net/DTD/sodipodi-0.dtd"
   xmlns:inkscape="http://www.inkscape.org/namespaces/inkscape"
   version="1.1"
   id="svg1183"
   width="691"
   height="691"
   viewBox="0 0 691 691"
   sodipodi:docname="Patch4.jpg.svg"
   inkscape:version="0.92.1 r15371">
  <metadata
     id="metadata1189">
    <rdf:RDF>
      <cc:Work
         rdf:about="">
        <dc:format>image/svg+xml</dc:format>
        <dc:type
           rdf:resource="http://purl.org/dc/dcmitype/StillImage" />
        <dc:title></dc:title>
      </cc:Work>
    </rdf:RDF>
  </metadata>
  <defs
     id="defs1187" />
  <sodipodi:namedview
     pagecolor="#ffffff"
     bordercolor="#666666"
     borderopacity="1"
     objecttolerance="10"
     gridtolerance="10"
     guidetolerance="10"
     inkscape:pageopacity="0"
     inkscape:pageshadow="2"
     inkscape:window-width="731"
     inkscape:window-height="480"
     id="namedview1185"
     showgrid="false"
     inkscape:zoom="1.9320081"
     inkscape:cx="257.73071"
     inkscape:cy="475.71904"
     inkscape:window-x="79"
     inkscape:window-y="110"
     inkscape:window-maximized="0"
     inkscape:current-layer="svg1183" />
  <path
     style="fill:#000000"
     d="m 5.7433335,688.0127 c -0.93692,-1.65142 -2.44942,-3.24355 -3.36111,-3.53807 -2.66990001,-0.86251 -3.20511001,-3.74722 -1.02305,-5.51414 1.25205,-1.01386 2.20586,-3.50321 2.68544,-7.00876 1.03277,-7.54918 2.09837,-9.93646 4.43529,-9.93646 2.5355795,0 3.7718695,2.34771 4.6256995,8.78422 l 0.68054,5.13017 4.62685,0.5718 c 7.36685,0.91042 9.59857,1.85729 9.93753,4.21627 0.40974,2.85159 -2.18675,4.15847 -9.85423,4.95988 -4.29292,0.4487 -6.31217,1.12131 -6.72316,2.23949 -0.61867,1.68322 -2.1917695,3.05713 -3.5297995,3.08286 -0.43808,0.008 -1.56308,-1.33585 -2.5,-2.98726 z m 667.1053065,0.66801 c -1.39017,-1.76731 -3.25567,-2.50136 -7.67774,-3.02109 -7.04501,-0.828 -9.63106,-2.07506 -9.63106,-4.64435 0,-2.51246 2.23109,-3.59552 9.1287,-4.43145 l 5.62871,-0.68215 0.67868,-5.11617 c 0.85201,-6.42276 2.08965,-8.77023 4.62384,-8.77023 2.33693,0 3.40253,2.38728 4.4353,9.93646 0.47958,3.50555 1.43339,5.9949 2.68544,7.00876 2.18206,1.76692 1.64685,4.65163 -1.02305,5.51414 -0.91169,0.29452 -2.42419,1.88665 -3.36111,3.53807 -2.05028,3.61382 -3.07265,3.73827 -5.48771,0.66801 z M 37.952553,685.13613 c -4.34929,-1.12942 -5.41271,-1.95549 -5.41271,-4.20463 0,-2.33833 2.59852,-3.47227 10.10673,-4.41036 6.17517,-0.77154 16.86822,0.85324 18.06988,2.74566 1.33937,2.10929 0.91999,3.6264 -1.33625,4.83391 -2.66141,1.42434 -17.2207,2.12787 -21.42765,1.03542 z m 33,-0.0636 c -4.28551,-1.02456 -5.41271,-1.87444 -5.41271,-4.08109 0,-2.43054 2.20591,-3.54354 8.64724,-4.36298 10.91057,-1.388 21.37599,1.55673 19.83201,5.58027 -1.17068,3.05076 -15.06742,4.77606 -23.06654,2.86376 z m 32.999997,0.0636 c -4.326727,-1.12356 -5.412707,-1.95513 -5.412707,-4.14469 0,-3.15458 3.833637,-4.34414 13.999997,-4.34414 5.57487,0 10.42964,0.50372 11.75,1.21917 2.57626,1.39596 2.94216,4.32947 0.76535,6.13606 -1.77087,1.46969 -16.7166,2.27255 -21.10264,1.1336 z m 32.44124,0.23547 c -1.45532,-0.25801 -3.40443,-1.30712 -4.33135,-2.33136 -1.58468,-1.75105 -1.5699,-1.97767 0.24751,-3.79508 3.32452,-3.32452 19.81136,-4.01645 25.47989,-1.06936 2.4193,1.25781 2.19292,4.53206 -0.40964,5.92491 -2.2689,1.21427 -16.45881,2.07359 -20.98641,1.27089 z m 33.11208,-0.21552 c -4.45674,-0.95308 -5.96603,-1.88323 -5.96603,-3.67677 0,-2.58884 4.63687,-4.55328 11.74224,-4.97466 9.28352,-0.55055 16.65079,1.25926 17.06844,4.19296 0.20342,1.42886 -0.44472,2.58662 -1.87724,3.35328 -2.67547,1.43187 -16.12484,2.14078 -20.96741,1.10519 z m 32.44668,-0.0836 c -4.30841,-1.02998 -5.41271,-1.87483 -5.41271,-4.14098 0,-2.95136 4.3432,-4.21631 14.63156,-4.26142 6.99322,-0.0307 9.74473,0.36172 11.75,1.67563 2.81538,1.84471 3.04843,2.44308 1.74942,4.49188 -1.72476,2.72027 -15.15957,4.04191 -22.71827,2.2349 z m 33,0 c -1.69801,-0.40594 -3.61051,-1.06143 -4.25,-1.45666 -1.92698,-1.19094 -1.31063,-4.45004 1.08729,-5.74936 3.01626,-1.63437 20.52806,-1.61023 23.56068,0.0325 3.45812,1.87319 2.53999,5.32624 -1.81068,6.80989 -3.8658,1.3183 -13.78247,1.51232 -18.58729,0.36366 z m 33,0 c -1.69801,-0.40594 -3.61051,-1.06143 -4.25,-1.45666 -1.92698,-1.19094 -1.31063,-4.45004 1.08729,-5.74936 3.01626,-1.63437 20.52806,-1.61023 23.56068,0.0325 3.45812,1.87319 2.53999,5.32624 -1.81068,6.80989 -3.8658,1.3183 -13.78247,1.51232 -18.58729,0.36366 z m 31.70803,0.004 c -3.09435,-0.78879 -5.06661,-2.4453 -5.10543,-4.28809 -0.008,-0.39982 1.19862,-1.52234 2.6823,-2.49449 2.12545,-1.39264 4.7237,-1.75408 12.25,-1.70405 5.47613,0.0364 10.51253,0.58247 11.80239,1.27968 2.85296,1.54209 2.89916,4.72802 0.0904,6.23125 -2.7331,1.46271 -17.25073,2.11488 -21.71962,0.9757 z m 33.29197,0.0597 c -4.34928,-1.12947 -5.41271,-1.95554 -5.41271,-4.20468 0,-2.95381 4.36117,-4.22438 14.5,-4.22438 4.95,0 10.2375,0.50819 11.75,1.12932 3.34444,1.37344 3.651,4.62626 0.59036,6.26427 -2.66141,1.42434 -17.2207,2.12787 -21.42765,1.03542 z m 33,0 c -1.69801,-0.44094 -3.61051,-1.12507 -4.25,-1.5203 -1.75332,-1.08361 -1.3951,-4.40801 0.58729,-5.45024 5.34339,-2.80925 21.55497,-2.34345 25.34845,0.72832 2.24754,1.81995 1.80093,4.54152 -0.92577,5.6415 -2.63224,1.06188 -17.34466,1.4876 -20.75997,0.60072 z m 33,1.3e-4 c -1.69801,-0.44101 -3.61051,-1.1252 -4.25,-1.52043 -1.92498,-1.1897 -1.31177,-4.44762 1.08729,-5.77667 2.94075,-1.62916 20.47175,-1.60655 23.5,0.0303 2.8401,1.53514 2.90313,4.7259 0.12276,6.21391 -2.66017,1.42368 -16.32491,2.12688 -20.46005,1.05289 z m 33,0 c -1.69801,-0.44101 -3.61051,-1.1252 -4.25,-1.52043 -1.92498,-1.1897 -1.31177,-4.44762 1.08729,-5.77667 2.94075,-1.62916 20.47175,-1.60655 23.5,0.0303 2.8401,1.53514 2.90313,4.7259 0.12276,6.21391 -2.66017,1.42368 -16.32491,2.12688 -20.46005,1.05289 z m 31.70803,-0.0598 c -2.94872,-0.75166 -5.09011,-2.46017 -5.09011,-4.06114 0,-4.41578 17.64459,-6.35518 26.6543,-2.92969 2.93694,1.11662 3.02385,4.48 0.15543,6.01513 -2.7331,1.46271 -17.25073,2.11488 -21.71962,0.9757 z m 33.29197,0.0624 c -4.32854,-1.1279 -5.41271,-1.95864 -5.41271,-4.14747 0,-2.94278 3.52299,-4.17537 12.38265,-4.33235 12.96749,-0.22976 17.66382,1.46554 16.00865,5.77886 -0.30027,0.78248 -1.29864,1.71195 -2.21862,2.06549 -2.74066,1.05324 -17.43077,1.50287 -20.75997,0.63541 z m 33,-0.0664 c -4.28551,-1.02454 -5.41271,-1.87442 -5.41271,-4.08107 0,-2.45239 2.20793,-3.54347 8.89563,-4.39593 10.85308,-1.3834 21.14464,1.54529 19.59755,5.57693 -1.20963,3.15225 -14.85412,4.86667 -23.08047,2.90005 z m 31.58729,-0.29813 c -4.34671,-1.56371 -5.25434,-5.01008 -1.81068,-6.87544 3.03262,-1.6427 20.54442,-1.66684 23.56068,-0.0325 2.85293,1.54587 2.89909,4.73105 0.0904,6.23424 -3.21098,1.71846 -17.69427,2.1652 -21.84036,0.67367 z m 32.82574,0.12017 c -7.57984,-2.14988 -5.05726,-7.06029 4.26211,-8.29655 5.60375,-0.74336 15.3213,0.10083 18.16215,1.5778 2.4193,1.25781 2.19292,4.53206 -0.40964,5.92491 -2.91801,1.56167 -17.45881,2.08601 -22.01462,0.79384 z m 33.58697,0.24158 c -4.34928,-1.12942 -5.41271,-1.95549 -5.41271,-4.20463 0,-1.2018 1.06871,-2.40812 2.75,-3.10409 3.71032,-1.53587 21.13725,-1.50535 24,0.0421 2.85296,1.54209 2.89916,4.72802 0.0904,6.23125 -2.66141,1.42434 -17.2207,2.12787 -21.42765,1.03542 z M 151.88963,666.48441 c -0.3231,-0.84197 -0.32022,-2.86697 0.006,-4.5 0.71979,-3.59895 0.25927,-3.64591 -4.85617,-0.49523 -4.51141,2.77866 -6.5,3.14551 -6.5,1.19911 0,-0.88951 -2.62571,-1.72893 -7.96463,-2.54623 -7.05332,-1.07974 -8.25385,-1.02975 -10.49228,0.43693 -1.39021,0.9109 -3.16661,1.41099 -3.94755,1.11132 -0.78095,-0.29968 -4.13352,0.27674 -7.45016,1.28094 -3.31664,1.0042 -6.28116,1.57491 -6.58782,1.26825 -0.30628,-0.30666 -0.55718,-2.08789 -0.55718,-3.95828 0,-2.75624 -0.33165,-3.30913 -1.75,-2.9174 -0.9625,0.26583 -3.904777,0.77632 -6.538407,1.13442 -4.29121,0.58349 -4.84931,0.95563 -5.375,3.58406 -0.71757,3.58786 -1.60987,3.69103 -3.74464,0.43297 -2.00324,-3.05733 -3.00496,-3.06524 -13.09195,-0.10333 -6.30193,1.85048 -8.1587,2.07743 -8.74765,1.06922 -0.4112,-0.70394 -1.58584,-1.06069 -2.61031,-0.79278 -1.55578,0.40684 -2.32609,-0.84415 -4.67544,-7.59301 -1.56126,-4.48498 -3.3875,-8.0801 -4.1045,-8.0801 -1.73091,0 -3.35858,3.22133 -3.37742,6.68426 -0.0256,4.71082 -1.2914,5.81611 -4.35889,3.80621 -1.44419,-0.94627 -2.62579,-1.86905 -2.62579,-2.05063 0,-0.18158 0.90087,-6.46048 2.00195,-13.95312 1.10107,-7.49264 1.72584,-14.72309 1.38838,-16.06766 -0.33747,-1.34457 -0.31656,-4.42533 0.0465,-6.84613 l 0.66003,-4.40146 8.39973,-0.69969 c 6.34746,-0.52874 8.81675,-1.1605 10.10657,-2.58574 2.36939,-2.61814 3.7197,-2.35513 3.15212,0.61396 -0.54723,2.86267 0.41508,2.99013 12.46027,1.65032 4.72383,-0.52545 6.79988,-0.41118 7,0.38527 0.20522,0.81679 3.01306,0.66727 10.07748,-0.53661 5.386147,-0.91787 10.017347,-1.30586 10.291547,-0.86219 0.2742,0.44366 -0.42015,5.56723 -1.543,11.3857 -2.42305,12.55599 -2.34308,11.14782 -0.66959,11.79 1.06711,0.40949 1.63592,-1.81944 2.55996,-10.03127 0.98804,-8.78064 1.55664,-10.86551 3.37805,-12.38621 3.21905,-2.68759 4.72,-2.38115 4.18771,0.85499 -1.02571,6.23586 -3.63188,34.44913 -3.22023,34.86077 0.24485,0.24485 1.60839,0.003 3.03008,-0.53759 2.95981,-1.12532 3.1006,-1.70975 4.69484,-19.48883 0.82596,-9.21112 1.45764,-12.2113 2.78306,-13.2182 1.05389,-0.80063 4.67766,-1.3148 9.40421,-1.33435 l 7.68964,-0.0318 0.32987,3.75 0.32988,3.75 1.42635,-4.3754 1.42634,-4.37539 6.55415,0.63075 c 10.53812,1.01416 11.35491,1.3952 10.74927,5.01475 -0.28577,1.70791 -1.00409,4.35895 -1.59626,5.8912 -1.03409,2.67571 -1.27491,2.75962 -6.08777,2.12117 l -5.0111,-0.66474 v 3.13581 3.13581 l 6.94201,-0.64519 6.94201,-0.64519 -0.59238,5.88821 c -0.32581,3.23852 -0.92643,6.11321 -1.33471,6.38821 -0.40827,0.275 -1.03305,4.55 -1.38839,9.5 -1.04825,14.60257 -1.28825,15.5 -4.14524,15.5 -1.36734,0 -2.75042,-0.68888 -3.07351,-1.53086 z m -9.97813,-37.32442 c 0.27806,-2.9454 0.21363,-5.06334 -0.14318,-4.70653 -0.88895,0.88894 -2.83408,23.46121 -2.28893,26.56181 0.24176,1.375 0.77413,-1.775 1.18305,-7 0.40892,-5.225 0.97099,-11.90988 1.24906,-14.85528 z m -74.406937,9.80145 c 0.69352,-6.6296 0.96071,-12.35407 0.59374,-12.72104 -1.22221,-1.22221 -2.34947,1.99629 -3.03685,8.67065 -0.37409,3.63232 -1.06649,8.38 -1.53866,10.55039 -0.92678,4.25997 -0.59412,5.55383 1.42794,5.55383 0.91591,0 1.66052,-3.51451 2.55383,-12.05383 z m 15.78528,7.95334 c 1.2375,-0.46751 2.25972,-1.19865 2.27159,-1.62476 0.0119,-0.42611 0.63558,-4.82475 1.386,-9.77475 0.76034,-5.0155 0.97214,-9.14757 0.4784,-9.33333 -0.4873,-0.18334 -0.92152,-1.08334 -0.96494,-2 -0.0492,-1.03935 -0.2688,-1.19618 -0.58333,-0.41667 -0.30526,0.7565 -2.4007,1.25 -5.30756,1.25 -4.56324,0 -4.82497,0.14859 -5.23975,2.97465 -0.47116,3.21022 -0.97217,3.09554 6.6483,1.52168 1.34129,-0.27702 2.65052,-0.16096 2.9094,0.25791 0.25887,0.41886 -0.0672,3.45802 -0.72451,6.75367 l -1.1952,5.99209 -4.26169,0.30982 c -3.4849,0.25334 -4.43532,0.76647 -5.21421,2.8151 -0.52388,1.3779 -0.9525,2.74054 -0.9525,3.02808 0,0.65175 7.71385,-0.6065 10.75,-1.75349 z m 69.745597,-1.8924 c 0.35595,-0.57593 -0.47317,-1.00711 -1.93658,-1.00711 -2.1056,0 -2.55902,-0.47249 -2.55902,-2.66667 0,-3.90011 -0.62709,-2.5296 -1.34232,2.93366 l -0.62408,4.76699 2.91979,-1.50988 c 1.60588,-0.83043 3.19988,-1.96308 3.54221,-2.51699 z m -20.10921,-2.25711 c 1.83937,-18.20959 1.93761,-16.7517 -1.12765,-16.73469 -1.51731,0.008 -3.27243,0.34592 -3.90028,0.75 -0.63358,0.40777 -1.46239,5.03566 -1.8626,10.40038 -0.78645,10.54223 -1.0605,9.97647 5.18218,10.69813 0.71442,0.0826 1.38675,-1.92999 1.70835,-5.11382 z m -33.857607,2.29656 c -0.3241,-0.52439 -1.92565,-1.90503 -3.55902,-3.06809 l -2.96976,-2.11466 v 3.0681 c 0,2.84941 0.25366,3.06809 3.55901,3.06809 2.00217,0 3.30126,-0.41707 2.96977,-0.95344 z m -40.2941,-13.44559 c 0.40408,-0.60553 0.74158,-2.33847 0.75,-3.85097 0.0127,-2.2779 -0.41812,-2.75 -2.50943,-2.75 -2.56986,0 -4.47525,2.94901 -4.47525,6.92643 0,1.41658 0.58124,1.68836 2.75,1.28587 1.5125,-0.2807 3.08061,-1.0058 3.48468,-1.61133 z m 40.69503,-5.85097 c 0.0387,-0.4125 -1.05471,-0.75 -2.42971,-0.75 -2.90449,0 -3.26565,1.71693 -0.75,3.56538 1.46915,1.0795 1.85908,1.01695 2.42971,-0.38976 0.37385,-0.92159 0.71135,-2.01312 0.75,-2.42562 z m 113.303807,37.88175 c -0.40344,-0.62246 -1.57715,-1.13175 -2.60825,-1.13175 -1.42184,0 -2.5392,-1.81183 -4.62527,-7.5 -1.5128,-4.125 -3.25667,-7.455 -3.87527,-7.4 -0.6186,0.055 -1.52288,0.1675 -2.00951,0.25 -0.48662,0.0825 -1.194,2.625 -1.57195,5.65 -0.37795,3.025 -1.05495,5.5 -1.50444,5.5 -0.4495,0 -1.84779,-0.83447 -3.10733,-1.85439 l -2.29008,-1.85438 2.03994,-14.39562 c 1.12196,-7.91758 1.68861,-14.62493 1.25923,-14.90522 -0.42938,-0.28028 -0.47917,-2.98028 -0.11064,-6 l 0.67005,-5.49039 8.5,-0.90598 c 6.42284,-0.68459 8.81932,-1.35661 9.8067,-2.75 1.82655,-2.57761 3.1933,-2.29685 3.1933,0.65598 0,2.84005 0.6906,2.93151 12.3533,1.63605 4.58719,-0.50953 6.98787,-0.40988 7.26028,0.30136 0.23605,0.61629 2.60775,0.94242 5.6467,0.77649 7.41447,-0.40486 9.73972,-1.04323 9.73972,-2.67394 0,-2.55627 2.01543,-2.74105 3.99467,-0.36624 1.06633,1.27945 1.95376,2.88878 1.97206,3.57628 0.0398,1.49573 1.66429,1.65605 2.53327,0.25 0.33992,-0.55 4.16431,-1 8.49865,-1 h 7.88062 l 0.39226,3.75 0.39226,3.75 0.16811,-3.63055 0.1681,-3.63055 10.44577,-0.71198 c 5.74517,-0.39159 10.85025,-0.462 11.34462,-0.15647 0.49437,0.30554 4.59728,-0.32782 9.11758,-1.40746 12.58571,-3.00601 12.27423,-3.19773 9.00426,5.54205 -1.77072,4.73267 -2.54313,5.67114 -5.08625,6.17976 -1.74785,0.34957 -3.34912,1.47882 -3.83915,2.70745 -0.46236,1.15926 -1.58267,8.85775 -2.48957,17.10775 -0.90689,8.25 -1.95228,15.29048 -2.32308,15.64552 -0.3708,0.35504 -1.68668,0.25704 -2.92418,-0.21778 -2.74191,-1.05203 -2.80937,-2.81495 -0.74201,-19.38973 0.82061,-6.5791 1.49201,-12.12735 1.49201,-12.32946 0,-0.2021 -1.35037,-0.0709 -3.00083,0.29163 -2.23883,0.49173 -3.15474,0.25798 -3.60698,-0.92054 -0.62099,-1.61828 -4.10475,-2.03158 -8.09851,-0.96078 -2.15612,0.5781 -2.09444,0.81451 2.71073,10.38993 2.70438,5.3891 5.38095,9.95425 5.94794,10.14479 0.63989,0.21503 0.20997,2.87032 -1.1335,7.00072 l -2.1644,6.6543 -8.46052,2.27365 c -7.8859,2.11923 -8.54432,2.15905 -9.69433,0.58632 -0.69236,-0.94686 -3.77055,-2.15628 -7.01433,-2.75593 -4.97871,-0.92036 -6.24004,-0.82111 -9.09341,0.71553 -1.8221,0.98127 -3.60043,1.4966 -3.95184,1.14518 -0.35142,-0.35142 -0.14418,-5.18683 0.46052,-10.74536 1.30913,-12.03378 1.259,-19.37341 -0.0688,-10.07639 -1.36978,9.59071 -2.22587,10.06995 -7.93806,4.44365 -5.52527,-5.44219 -4.97417,-6.14448 -6.94848,8.85475 -1.14271,8.68138 -1.17407,8.75 -3.99877,8.75 -1.58109,0 -3.24891,-0.71814 -3.75086,-1.61508 -0.81764,-1.46103 -1.73003,-1.37693 -9.56618,0.88176 -6.20876,1.78961 -8.87009,2.17626 -9.39584,1.36507 z m 1.78741,-12.98874 c 1.92847,-13.17961 2.66779,-24.21884 1.66407,-24.84736 -0.85679,-0.53653 -1.60045,2.27545 -2.685,10.15277 -0.825,5.99216 -1.78856,11.18115 -2.14124,11.53111 -1.17584,1.16675 0.28802,4.40138 1.73978,3.84428 0.7708,-0.29578 1.41088,-0.60214 1.42239,-0.6808 z m 70.30314,-2.56826 c 0.45323,-0.45259 -1.16249,-4.77631 -3.59051,-9.60829 l -4.41457,-8.7854 -0.65238,6.90947 c -0.35882,3.80021 -0.65559,8.42948 -0.6595,10.28728 l -0.007,3.37781 4.25,-0.679 c 2.3375,-0.37344 4.62083,-1.04929 5.07407,-1.50187 z m -56.37483,-0.25239 c 5.63327,-1.30032 5.31907,-0.74522 6.98809,-12.34573 1.05162,-7.30932 0.36416,-16.70262 -0.94655,-12.93337 -0.51318,1.47578 -1.88611,2.07964 -5.58561,2.45674 -4.50525,0.45923 -4.93169,0.73165 -5.2304,3.34126 -0.26838,2.34462 -0.006,2.75097 1.5,2.32466 1.00388,-0.28413 3.28773,-0.81096 5.07523,-1.17072 3.77158,-0.75909 3.97397,0.0306 2.16714,8.45558 -1.03799,4.83995 -1.2211,5.04922 -4.41822,5.04922 -4.85826,0 -6.49892,0.91059 -6.49892,3.60699 0,2.76029 0.14579,2.78579 6.94924,1.21537 z m 40.4788,-5.32236 c 0.31458,-3.025 0.82934,-7.975 1.14392,-11 0.54978,-5.28674 0.47964,-5.5 -1.80887,-5.5 -4.57341,0 -5.58498,1.86698 -6.32007,11.66442 -0.74853,9.97648 -1.00431,9.47813 5.23502,10.1994 0.71869,0.0831 1.40107,-2.00845 1.75,-5.36382 z M 256.2471,628.77693 c -0.23919,-1.24391 -0.44398,-0.46166 -0.45508,1.73834 -0.0111,2.2 0.18461,3.21775 0.4349,2.26166 0.25029,-0.95609 0.25937,-2.75609 0.0202,-4 z m -48.70726,3.36334 c 0,-0.48125 0.28789,-2.31445 0.63976,-4.07378 0.62744,-3.13722 0.57452,-3.19255 -2.75,-2.875 -3.12664,0.29865 -3.41385,0.61486 -3.70013,4.07378 -0.29663,3.58405 -0.17493,3.75 2.75,3.75 1.68321,0 3.06037,-0.39375 3.06037,-0.875 z m 42,-3.68402 c 0,-2.04553 -0.48601,-2.44098 -3,-2.44098 -3.56537,0 -3.70941,0.61596 -0.85464,3.65473 2.49703,2.65796 3.85464,2.23048 3.85464,-1.21375 z m 7.68311,-7.62848 c -0.31922,-0.79773 -0.55618,-0.56078 -0.60416,0.60417 -0.0434,1.05416 0.19293,1.64479 0.52522,1.3125 0.33229,-0.33229 0.36781,-1.1948 0.0789,-1.91667 z m 142.99511,42.38444 c -1.11214,-1.2289 -4.32335,-2.25583 -9.56149,-3.05769 -7.43173,-1.13767 -8.09562,-1.08425 -11.50185,0.92547 l -3.61488,2.13283 0.003,-3.34877 c 0.002,-1.84183 0.69006,-10.49812 1.52924,-19.23621 0.83918,-8.73809 1.37134,-16.04187 1.18258,-16.23063 -0.18876,-0.18876 -1.84612,3.13558 -3.68303,7.38743 -2.45217,5.67599 -3.7675,10.89897 -4.94895,19.6516 -0.88501,6.55654 -2.06193,12.07191 -2.61536,12.25639 -0.55343,0.18447 -1.81881,-1.17342 -2.81194,-3.01756 -1.63434,-3.0348 -1.69811,-4.29272 -0.67197,-13.25638 1.19029,-10.39762 1.17982,-10.46538 -4.57513,-29.60143 -0.35212,-1.17082 0.46541,-2.20275 2.63315,-3.32373 1.7291,-0.89415 3.2819,-1.48005 3.45067,-1.302 0.16876,0.17806 1.15384,3.21386 2.18906,6.74624 l 1.88221,6.42249 3.73574,-8.17249 c 2.05466,-4.49488 4.16194,-8.1725 4.68283,-8.1725 0.5209,0 1.42875,0.9 2.01745,2 0.94672,1.76897 2.09382,2 9.93015,2 h 8.85978 l 0.38937,4.08296 c 0.21416,2.24562 -0.13255,10.00812 -0.77047,17.25 -1.37838,15.64801 -0.30453,19.96796 1.48431,5.9712 3.14645,-24.61925 3.00438,-24.06212 6.2579,-24.53964 1.61536,-0.23708 3.09466,-0.16859 3.28732,0.15221 0.19267,0.3208 -0.47551,6.43327 -1.48484,13.58327 -1.72328,12.20748 -1.73208,13.10281 -0.14434,14.68651 3.99475,3.98457 4.41707,3.10791 6.78337,-14.08098 2.31485,-16.81514 2.80584,-18.06044 7.13245,-18.09022 1.87944,-0.0129 2.15041,0.41179 1.74474,2.73469 -0.26414,1.5125 -1.60251,11.3 -2.97414,21.75 -2.5844,19.68954 -3.87116,25.99604 -5.51097,27.0095 -0.52813,0.3264 -3.21573,-1.51628 -5.97243,-4.09486 l -5.01175,-4.68832 -0.0153,3.38684 c -0.0222,4.91736 -1.21683,6.3928 -3.30647,4.08378 z m -9.60707,-18.44694 c 0.0391,-1.7875 0.39038,-6.75878 0.78054,-11.04728 l 0.7094,-7.79728 -3.52207,0.29728 c -3.87049,0.32669 -3.71699,-0.11531 -5.3779,15.4861 -0.59611,5.59942 -0.86446,5.32788 6.08888,6.16135 0.7621,0.0913 1.27777,-1.1187 1.32115,-3.10017 z m 33.92885,14.02366 c 0,-3.54218 0.3375,-6.76981 0.75,-7.17252 0.4125,-0.40271 1.65,-8.86743 2.75,-18.8105 1.93588,-17.49867 2.08765,-18.14368 4.73363,-20.1175 1.5035,-1.12156 2.99768,-1.77516 3.3204,-1.45244 0.32272,0.32272 -0.25432,8.95509 -1.28233,19.18303 -1.028,10.22795 -1.53898,18.59627 -1.1355,18.59627 0.40348,0 1.7754,-0.38411 3.0487,-0.85357 8.40109,-3.09747 8.97149,-2.55768 6.21208,5.87873 -1.93607,5.9192 -2.3673,6.29485 -9.6099,8.37127 -3.1421,0.90083 -6.4046,1.9033 -7.25,2.22771 -1.28472,0.493 -1.53708,-0.46754 -1.53708,-5.85048 z M 455.6852,662.67 c -1.36542,-1.45343 -2.19487,-3.71439 -2.28154,-6.21918 -0.091,-2.63027 -0.28702,-3.13513 -0.59096,-1.52219 -0.48183,2.55694 -3.91602,5.99764 -6.04191,6.05337 -0.79616,0.0209 -1.09057,-0.80515 -0.79008,-2.21673 0.26343,-1.2375 1.18199,-9.9 2.04124,-19.25 2.12502,-23.12359 2.09604,-22.98676 5.16374,-24.3845 1.43693,-0.65471 2.86012,-0.94286 3.16264,-0.64034 0.30252,0.30252 -0.2638,8.6612 -1.25849,18.57484 -0.99469,9.91364 -1.60725,18.22608 -1.36126,18.47208 0.246,0.24599 0.98536,-4.15834 1.64302,-9.78741 3.28349,-28.10418 3.15293,-27.49725 6.03703,-28.06387 1.44717,-0.28432 2.94552,-0.21406 3.32967,0.15613 0.38415,0.37019 0.31686,3.37307 -0.14953,6.67307 -0.66816,4.72765 -0.54353,6.31809 0.58771,7.5 2.11538,2.21014 3.09293,0.0649 3.90128,-8.56135 0.78662,-8.39446 1.10146,-9.05905 4.7221,-9.96777 2.46211,-0.61795 2.73998,-0.42317 2.73998,1.92071 0,2.96161 0.31296,3.00412 12.86408,1.74743 l 7.36407,-0.73734 -0.63872,5.43453 c -0.3513,2.98899 -0.87919,5.82361 -1.17309,6.29916 -0.29391,0.47555 -2.75782,0.86463 -5.47536,0.86463 -4.84743,0 -4.94098,0.0581 -4.94098,3.06739 0,2.44236 0.35659,2.96698 1.75,2.57465 0.9625,-0.271 3.2125,-0.78708 5,-1.14684 3.72847,-0.75041 3.82921,-0.32604 1.90033,8.0048 -0.97643,4.21717 -1.54852,5.04383 -3.654,5.27995 -5.55846,0.62337 -6.76755,1.24291 -7.23903,3.70933 -0.56288,2.9445 -0.33742,2.97149 8.13725,0.97382 3.51701,-0.82903 6.64308,-1.2588 6.94683,-0.95505 0.73868,0.73867 -2.88771,11.29276 -4.25965,12.39711 -0.59495,0.47891 -4.45673,1.79047 -8.58173,2.91458 -4.125,1.12411 -8.26866,2.34044 -9.20813,2.70297 -1.27107,0.49048 -1.87451,-0.004 -2.35841,-1.93179 -0.45596,-1.81671 -1.31512,-2.59092 -2.8752,-2.59092 -1.22371,0 -2.4665,-0.24158 -2.76176,-0.53684 -0.29526,-0.29526 0.0881,-3.51803 0.85185,-7.16171 l 1.38869,-6.62488 -3.26852,-2.73646 c -1.79769,-1.50505 -3.55144,-2.56445 -3.89723,-2.35423 -0.3458,0.21023 -1.20853,5.58435 -1.9172,11.94249 -0.70867,6.35815 -1.59783,11.75145 -1.97593,11.98513 -0.37809,0.23367 -1.65285,-0.60277 -2.8328,-1.85877 z m 21.83933,-32.79774 c 0.0238,-5.6709 -2.70141,-5.88669 -3.14976,-0.2494 -0.36737,4.61906 0.90392,7.40484 2.34418,5.13684 0.43465,-0.68444 0.79716,-2.88379 0.80558,-4.88744 z m 130.00663,32.13082 c -1.59841,-2.24475 -1.98684,-3.83712 -1.5246,-6.25 0.49132,-2.56471 0.39562,-2.87866 -0.46037,-1.51023 -1.14157,1.82499 -14.09733,9.77242 -15.93082,9.77242 -0.59154,0 -1.07553,-0.59714 -1.07553,-1.32698 0,-0.88951 -2.62571,-1.72893 -7.96463,-2.54623 -6.691,-1.02427 -8.33009,-0.99147 -10.25,0.20514 -1.25695,0.7834 -3.74267,1.69192 -5.52381,2.01891 -3.6694,0.67366 -4.57147,-0.50869 -7.70645,-10.10084 -0.94371,-2.8875 -2.01718,-5.24311 -2.38548,-5.23469 -1.93943,0.0444 -3.12942,2.02128 -3.86781,6.42557 -0.93079,5.55197 -1.8535,6.2463 -5.03054,3.78544 l -2.22873,-1.72632 2.04112,-13 c 1.12262,-7.15 1.78321,-14.31791 1.46799,-15.92869 -0.31523,-1.61078 -0.29182,-5.04935 0.052,-7.64126 l 0.62514,-4.71256 8.30583,-0.69187 c 6.31648,-0.52616 8.72133,-1.15099 10.04059,-2.60875 2.86317,-3.16376 3.59813,-2.23695 3.03965,3.83313 -0.29097,3.1625 -0.27482,4.88182 0.0359,3.82072 1.18821,-4.05784 2.64507,-4.45431 17.47421,-4.75548 7.90626,-0.16056 16.33909,0.0886 18.73962,0.55367 l 4.3646,0.84561 -0.67458,5.08529 c -0.37103,2.79691 -0.91583,5.47562 -1.21068,5.95269 -0.29484,0.47707 -2.92959,0.56836 -5.85498,0.20285 l -5.31891,-0.66455 -0.61626,5.8546 c -0.33894,3.22003 -0.85959,8.2171 -1.15698,11.1046 -0.2974,2.8875 -0.26341,5.25 0.0755,5.25 0.33894,0 3.43843,-1.62317 6.88776,-3.60705 l 6.2715,-3.60706 1.54905,-12.92446 c 0.85198,-7.10846 1.72329,-13.0987 1.93625,-13.31166 0.21296,-0.21296 1.69181,-0.71464 3.28634,-1.11484 l 2.89915,-0.72764 -0.68793,7.59151 c -0.62637,6.91224 -0.51208,7.68562 1.27724,8.64324 1.81894,0.97347 2.01669,0.62409 2.65755,-4.69516 1.53075,-12.7056 1.83652,-13.65854 4.70631,-14.66779 1.48798,-0.5233 2.97033,-0.68653 3.29412,-0.36275 0.32378,0.32379 -0.14284,5.87859 -1.03695,12.34401 -1.41015,10.19707 -1.43596,11.94499 -0.19469,13.18626 1.24127,1.24127 1.52507,0.0502 2.14094,-8.98551 0.3905,-5.72906 1.00947,-10.87664 1.37551,-11.43908 0.92551,-1.42212 5.22453,-3.59634 5.85813,-2.96273 0.28673,0.28673 -0.0525,6.8302 -0.75394,14.54105 l -1.27526,14.01972 -3.54501,2.52231 -3.54501,2.52231 3.32038,0.66408 c 3.17508,0.63501 3.2943,0.82177 2.72431,4.26766 -0.32784,1.98197 -0.60103,4.89031 -0.60708,6.46299 -0.0103,2.67747 -0.23371,2.8334 -3.51101,2.4508 -1.925,-0.22474 -3.5,-0.049 -3.5,0.39059 0,0.43956 -1.63125,0.7992 -3.625,0.7992 -3.55674,0 -3.61273,-0.0612 -2.97341,-3.25 2.1296,-10.62201 2.10865,-10.82931 -1.40476,-13.89686 -1.81562,-1.5852 -3.4209,-2.76241 -3.56729,-2.61601 -0.1464,0.1464 -0.76123,4.09043 -1.36629,8.76452 -2.35025,18.15575 -2.36635,18.19017 -6.07193,12.98616 z m -40.03053,-24.7975 c 0.68924,-7.87033 1.0465,-14.51635 0.79392,-14.76893 -0.25258,-0.25258 -1.02943,4.35206 -1.72634,10.23252 -0.69692,5.88047 -1.62638,11.94445 -2.06548,13.4755 -0.87149,3.03869 -0.13265,7.49882 1.02484,6.18669 0.39595,-0.44885 1.28383,-7.25545 1.97306,-15.12578 z m 21.80762,-8.69031 c -0.0182,-2.75 -0.59158,0.625 -1.27418,7.5 -0.68259,6.875 -0.96053,12.95 -0.61765,13.5 0.67918,1.08944 1.94503,-12.96197 1.89183,-21 z m -8.69726,16.25 c 0.0391,-1.7875 0.38864,-6.7375 0.77668,-11 0.75757,-8.32171 0.6314,-8.52195 -4.50185,-7.14481 -1.90638,0.51144 -2.23077,1.51584 -2.8216,8.73634 -0.36717,4.48716 -0.88058,8.91413 -1.14091,9.83771 -0.45283,1.60651 0.37146,1.95232 6.36653,2.67093 0.7621,0.0913 1.27777,-1.1187 1.32115,-3.10017 z M 560.7206,628.91703 c 0.34997,-3.66974 0.2105,-3.90176 -2.34532,-3.90176 -3.15692,0 -3.4296,0.31975 -4.31992,5.0656 l -0.66606,3.55037 3.4796,-0.40622 c 3.22959,-0.37704 3.50634,-0.68657 3.8517,-4.30799 z m -45.17992,30.41222 c 8.4e-4,-3.84704 1.47231,-21.77903 2.50803,-30.56398 0.45642,-3.87133 0.2722,-4.75 -0.99587,-4.75 -2.38983,0 -3.22839,3.25045 -5.02728,19.48685 -0.91324,8.24276 -1.85608,15.30338 -2.09519,15.69027 -0.23911,0.38689 -1.68899,0.2662 -3.22196,-0.2682 l -2.78723,-0.97163 1.25639,-11.21865 c 0.69101,-6.17025 1.52912,-13.10673 1.86246,-15.41439 l 0.60609,-4.19576 -3.42025,0.55503 -3.42025,0.55503 -0.51837,-5.85927 c -0.28511,-3.22261 -0.23241,-6.17104 0.11711,-6.55207 0.70116,-0.76439 21.40383,-5.80721 23.84078,-5.80721 1.02436,0 1.35932,0.64491 1.01627,1.9567 -0.46482,1.77747 0.097,1.98357 6.13337,2.25 l 6.64506,0.2933 -0.12335,10.5 c -0.37483,31.9067 -0.57812,36 -1.78791,36 -0.67178,0 -3.85948,-0.48767 -7.08377,-1.08371 -5.30601,-0.98087 -6.22499,-0.8799 -9.68366,1.06398 l -3.82131,2.1477 z m 15.35242,-18.96486 c 1.10656,-13.09058 0.96555,-14.35129 -1.60326,-14.33381 -3.66008,0.0249 -4.44409,1.16569 -5.14395,7.48469 -0.36549,3.3 -0.91032,7.65433 -1.21073,9.6763 -0.58038,3.90626 -0.83043,3.718 6.20794,4.67387 0.67407,0.0915 1.35486,-2.82654 1.75,-7.50105 z m -364.39399,19.9732 c -1.3526,-0.91252 -2.56779,-1.72937 -2.70043,-1.81522 -0.13264,-0.0859 2.46399,-7.02324 5.77028,-15.41644 3.30629,-8.39319 7.38502,-18.82217 9.06385,-23.17551 2.28492,-5.92501 3.51643,-7.91515 4.89793,-7.91515 2.51157,0 5.0091,1.03038 5.0091,2.06656 0,1.33966 -17.89866,46.2321 -18.78695,47.12039 -0.43698,0.43698 -1.90118,0.0479 -3.25378,-0.86463 z m 158.05031,-1.57232 c 0.0337,-7.9242 4.18795,-41.3761 5.27304,-42.46119 0.7021,-0.7021 2.61323,-1.44036 4.24696,-1.64058 1.63373,-0.20022 7.58342,-1.40248 13.22154,-2.67168 5.63811,-1.26921 10.47249,-2.08627 10.74306,-1.81571 0.27056,0.27057 -0.43184,3.22737 -1.56089,6.57068 l -2.05282,6.07874 -6.44024,1.74329 c -5.66493,1.53343 -6.44023,2.0345 -6.44023,4.16226 0,1.82482 0.42984,2.29794 1.75,1.92623 0.9625,-0.271 3.27088,-0.7999 5.12973,-1.17533 l 3.37973,-0.68261 -0.71479,4.76658 c -1.20203,8.01573 -2.07479,9.44735 -5.76992,9.46463 -1.80111,0.008 -3.82567,0.36533 -4.49902,0.79312 -0.67335,0.42779 -1.69883,4.12388 -2.27884,8.21353 -0.58002,4.08965 -1.3791,7.73573 -1.77574,8.10241 -1.00349,0.92768 -5.22115,-0.81736 -5.22115,-2.16024 0,-0.60518 -1.30697,-0.16968 -2.90437,0.96778 -3.66205,2.60761 -4.09784,2.58821 -4.08605,-0.18191 z m 7.68341,-10.48097 c -0.25354,-0.97297 -0.47766,-0.41903 -0.49804,1.23097 -0.0204,1.65 0.18706,2.44606 0.46099,1.76903 0.27392,-0.67703 0.29059,-2.02703 0.0371,-3 z m 1,-10 c -0.25354,-0.97297 -0.47766,-0.41903 -0.49804,1.23097 -0.0204,1.65 0.18706,2.44606 0.46099,1.76903 0.27392,-0.67703 0.29059,-2.02703 0.0371,-3 z m 0.99634,-9.01903 c -0.25153,-0.9625 -0.45733,-0.175 -0.45733,1.75 0,1.925 0.2058,2.7125 0.45733,1.75 0.25152,-0.9625 0.25152,-2.5375 0,-3.5 z M 5.5163235,655.45341 c -1.74279,-4.58389 -2.15569,-15.66357 -0.78029,-20.93814 1.5228,-5.83983 4.69432,-7.34537 6.9741495,-3.31068 1.74643,3.0907 1.77076,21.48877 0.0325,24.56068 -1.73294,3.06248 -5.0057395,2.89856 -6.2263395,-0.31186 z m 666.8148865,0.31186 c -1.69032,-2.97358 -1.6638,-21.42652 0.0352,-24.5 1.73394,-3.13669 4.96156,-2.88289 6.35858,0.5 1.56503,3.78975 1.55642,21.16258 -0.0119,24 -0.684,1.2375 -2.11197,2.25 -3.17327,2.25 -1.0613,0 -2.50518,-1.0125 -3.20863,-2.25 z m -666.6410465,-32.5 c -2.80925,-5.34339 -2.34346,-21.55497 0.72831,-25.34845 2.64011,-3.26039 4.8562995,-1.49536 6.1901995,4.93003 1.26033,6.07095 0.68869,16.88446 -1.06588,20.16289 -1.32265,2.4714 -4.6121495,2.61502 -5.8526295,0.25553 z M 672.53688,623.00974 c -1.75243,-3.27445 -2.32657,-14.09016 -1.06941,-20.14586 1.40313,-6.75883 4.05196,-8.33559 6.84419,-4.07411 2.10082,3.20627 2.38839,20.38068 0.40145,23.9755 -1.54241,2.79054 -4.74575,2.91734 -6.17623,0.24447 z M 230.86007,600.82633 c -0.56431,-0.72108 -3.84532,-6.71106 -7.29114,-13.31106 -14.5475,-27.86376 -14.87932,-28.38762 -18.34178,-28.95731 -19.59753,-3.22439 -61.14889,-8.48111 -61.8103,-7.8197 -0.46927,0.46927 -7.56757,10.73607 -15.77401,22.81511 -8.61969,12.68732 -15.53583,21.91273 -16.37717,21.84546 -1.40695,-0.11248 -27.182037,-19.69467 -28.296357,-21.49768 -0.30227,-0.48908 3.76784,-7.24011 9.04468,-15.0023 8.113737,-11.93523 9.364287,-14.28825 8.103937,-15.24832 -1.301257,-0.99123 -1.007637,-3.19878 2.31443,-17.40057 2.09262,-8.94592 4.0116,-16.47215 4.26441,-16.72495 0.2528,-0.25281 4.25842,0.1522 8.90136,0.90001 4.64294,0.74781 8.47844,1.29904 8.52334,1.22495 0.0449,-0.0741 7.21051,-10.7097 15.92359,-23.6347 13.44247,-19.94061 16.12914,-24.56024 17.73808,-30.5 2.61946,-9.67029 7.15009,-20.72308 11.82089,-28.83784 2.1647,-3.76082 3.93581,-7.02332 3.93581,-7.25 0,-0.22669 -2.26793,-0.41216 -5.03984,-0.41216 -9.41055,0 -15.98979,-5.44906 -15.9382,-13.20034 0.0801,-12.03091 17.13577,-25.7537 30.47804,-24.52223 2.75,0.25382 5.72836,0.77068 6.61858,1.14859 1.15743,0.49133 1.79458,0.0299 2.23634,-1.61946 0.33978,-1.26861 0.62392,-23.0242 0.63143,-48.34575 l 0.0136,-46.03919 -39.48273,0.10525 c -21.7155,0.0579 -39.72405,0.34657 -40.019,0.64153 -0.29496,0.29495 -0.53539,24.46632 -0.53431,53.71414 0.001,33.4561 -0.3884,54.99811 -1.05063,58.08598 -2.12154,9.89241 -13.512077,18.64069 -25.711027,19.74685 -20.4594,1.8552 -25.6956,-16.61179 -8.5491,-30.15089 8.70635,-6.87465 19.38623,-9.20963 27.588357,-6.03174 1.64081,0.63572 1.7565,-2.55623 2,-55.17899 l 0.25844,-55.85375 49.36415,-0.25949 49.36415,-0.25949 -0.63656,-2.24051 c -1.37774,-4.84925 -3.43576,-14.47898 -4.05856,-18.99051 l -0.65573,-4.75 h -4.38202 c -3.3277,0 -4.73842,-0.50883 -5.86329,-2.1148 -2.63915,-3.76791 0.42015,-7.8852 5.85899,-7.8852 3.92622,0 5.50887,-1.57151 5.50887,-5.4701 0,-8.51922 6.48014,-24.62014 14.62086,-36.32781 l 4.37914,-6.29791 v -12.35752 -12.35751 l -8.25,-2.97772 c -4.5375,-1.63774 -12.525,-3.96315 -17.75,-5.16758 -13.38072,-3.08443 -13.72888,-3.27622 -14.97521,-8.2494 -1.77884,-7.09803 -3.82336,-10.70107 -7.26188,-12.79756 -2.87426,-1.75245 -5.0496,-1.98941 -18.26291,-1.98941 -12.91584,0 -15.42795,0.26096 -18.08004,1.8782 -3.35189,2.04398 -5.86404,6.50562 -6.94174,12.32869 -0.37809,2.04291 -1.26348,4.19245 -1.96755,4.77677 -0.70406,0.58432 -6.61949,2.36718 -13.14539,3.96191 -6.5259,1.59472 -15.154187,4.1196 -19.173967,5.61084 l -7.30869,2.71134 0.30869,26.61238 c 0.30206,26.04116 0.36178,26.71634 2.78223,31.45507 4.224,8.26971 13.411227,14.5893 21.276457,14.63536 3.89662,0.0228 7.75,2.73288 7.75,5.45053 0,3.34985 -3.15943,4.83475 -9.13421,4.29298 -15.525447,-1.4078 -28.847547,-13.80641 -31.850887,-29.64299 -0.5582,-2.94334 -1.0149,-16.94027 -1.0149,-31.10427 0,-23.0976 0.18042,-25.95898 1.75,-27.75332 2.32197,-2.65448 17.89165,-8.53223 30.223007,-11.40957 l 9.90588,-2.3114 1.20392,-4.29787 c 1.85799,-6.63283 6.31236,-12.01226 12.22679,-14.76598 4.81244,-2.24064 6.35549,-2.41572 21.1904,-2.40442 17.17166,0.0131 21.68547,1.04836 27.38235,6.28034 2.52958,2.32316 7.09151,11.14028 7.10788,13.73785 0.007,1.09541 1.8426,1.92621 6.25977,2.83308 8.82393,1.81158 26.50626,7.69466 31.25,10.39716 l 4,2.2788 0.2838,10.71785 0.28381,10.71785 5.96618,-3.01172 c 9.16518,-4.62656 17.77888,-6.30103 28.96621,-5.63089 5.225,0.31298 11.75379,1.24696 14.50842,2.0755 5.50996,1.6573 17.52048,8.4652 21.57538,12.22952 l 2.58379,2.39865 10.41621,-3.48073 c 5.72891,-1.9144 14.6912,-4.02821 19.9162,-4.69737 5.225,-0.66915 9.725,-1.40119 10,-1.62675 0.275,-0.22556 0.77351,-4.53678 1.1078,-9.58049 0.33429,-5.04371 1.56646,-15.92038 2.73814,-24.17038 1.17169,-8.25 2.9591,-23.04111 3.97204,-32.86914 l 1.84171,-17.869136 -5.07985,0.62742 c -2.79391,0.34508 -8.25642,0.90746 -12.1389,1.24973 l -7.05906,0.62232 -4.44094,8.619406 c -3.34682,6.49583 -4.99528,8.69813 -6.69094,8.93895 -1.71148,0.24307 -2.25,-0.17578 -2.25,-1.75 0,-1.77318 -0.6183,-2.06955 -4.31763,-2.06955 -4.39134,0 -16.85797,-2.87963 -19.94445,-4.60691 -0.93347,-0.5224 -3.48271,-0.77955 -5.66496,-0.57144 -3.86697,0.36878 -3.97542,0.48379 -4.27035,4.52837 -0.24664,3.38244 -0.67251,4.14998 -2.30261,4.14998 -1.88533,0 -2.016,-0.75968 -2.27903,-13.25 l -0.27902,-13.249996 h 4.81342 c 4.23289,0 5.01672,-0.34416 6.49908,-2.85361 2.89585,-4.90228 2.18531,-31.14639 -0.84327,-31.14639 -2.27514,0 -1.64682,-1.31193 2.03542,-4.25 3.95892,-3.15882 4.5534,-3.32202 4.5534,-1.25 0,1 1,1.5 3,1.5 2.33333,0 3,0.44444 3,2 0,1.55556 -0.66667,2 -3,2 -2.74066,0 -3,0.29172 -3,3.37454 v 3.37454 l 4,-1.97904 c 3.49275,-1.72808 4,-2.40964 4,-5.37454 0,-2.9552 0.32418,-3.3955 2.5,-3.3955 2.19048,0 2.5,0.43333 2.5,3.5 0,2.44444 0.45238,3.5 1.5,3.5 0.825,0 1.5,-0.47046 1.5,-1.04546 0,-0.575 1.10455,-2.15 2.45455,-3.5 1.94632,-1.94632 3.48166,-2.45454 7.41523,-2.45454 4.21598,0 5.38576,0.45036 7.79221,3 3.59021,3.80384 5.33801,3.83031 5.33801,0.0809 0,-2.90985 0.0198,-2.91924 6.22769,-2.94893 6.33222,-0.0303 9.77231,1.56194 9.77231,4.52306 0,1.53175 3.156,1.6712 15.70761,0.69407 l 8.20762,-0.63895 0.29238,-6.60506 c 0.27892,-6.300752 0.40757,-6.605051 2.79239,-6.605051 2.40976,0 2.5106,0.261683 2.79381,7.250001 l 0.29381,7.25 h 3.55182 c 1.98789,0 4.83067,0.91062 6.45619,2.06809 l 2.90437,2.0681 v -2.43324 c 0,-1.33828 0.93266,-3.61892 2.07258,-5.06809 1.67218,-2.12584 2.91389,-2.63486 6.42742,-2.63486 3.51353,0 4.75524,0.50902 6.42742,2.63486 1.13992,1.44917 2.07258,3.69917 2.07258,5 0,2.22406 -0.3579,2.36514 -6,2.36514 -6.17793,0 -7.57205,1.0883 -3.90686,3.04985 1.94385,1.04031 4.40598,0.84706 8.31396,-0.65257 1.2024,-0.46141 1.5929,0.0184 1.5929,1.95719 0,2.15553 -0.65095,2.74373 -4.04917,3.65877 -4.26376,1.14811 -7.43121,0.64182 -9.99147,-1.59704 -1.37519,-1.20256 -1.66987,0.53969 -2.74398,16.22351 -0.66184,9.66391 -0.95449,17.9734 -0.65034,18.465516 0.93419,1.51156 4.46067,0.99135 5.13157,-0.756986 0.34861,-0.90847 0.67199,-3.94597 0.71861,-6.75 0.08,-4.81217 0.24133,-5.11621 2.87474,-5.41852 l 2.78996,-0.32028 -0.28996,8.82028 -0.28996,8.820276 -5.87915,0.21248 c -3.23353,0.11687 -6.03553,0.36887 -6.22666,0.56 -0.75959,0.75959 -2.36597,15.27195 -3.89193,35.16047 -0.88335,11.51313 -2.24817,25.21019 -3.03293,30.43791 -0.78476,5.22773 -1.3239,9.57062 -1.19809,9.65087 0.12582,0.0803 4.47501,1.60777 9.66486,3.3945 17.45114,6.00795 30.2369,13.81568 43.88483,26.79865 l 4.17876,3.97515 6.03025,-3.70844 c 3.31664,-2.03965 6.2729,-3.9511 6.56947,-4.24767 0.29657,-0.29656 0.0971,-2.27052 -0.44335,-4.38656 -1.48161,-5.80144 -2.95873,-13.30553 -3.63299,-18.45642 -0.57008,-4.35494 -0.35511,-4.9138 3.89902,-10.13618 4.73122,-5.80807 4.6504,-5.77258 16.80512,-7.37977 4.51297,-0.59674 4.77936,-0.49477 5.87794,2.24997 1.13747,2.8419 2.2467,7.04531 3.39758,12.87504 0.92028,4.66165 2.76405,10.5 3.31593,10.5 0.27419,0 12.01467,-6.28464 26.08994,-13.96586 27.34089,-14.92061 31.81497,-16.57182 36.53056,-13.48204 3.20574,2.10048 7.9383,11.2006 12.97426,24.9479 2.01478,5.5 5.72764,14.91379 8.25081,20.91954 7.80931,18.58801 13.33721,34.54095 13.30397,38.3939 -0.0359,4.15893 -1.05381,5.76711 -5.7268,9.0475 l -3.25861,2.2875 0.10849,16.17578 c 0.12363,18.43417 0.31521,18.4237 5.93398,-0.32422 1.73077,-5.775 3.55813,-11.28139 4.0608,-12.23643 0.50267,-0.95504 0.91394,-2.77754 0.91394,-4.05 0,-1.27246 0.37175,-2.74107 0.82612,-3.26357 0.45437,-0.5225 1.40566,-2.975 2.11398,-5.45 0.70833,-2.475 1.63274,-5.4 2.05426,-6.5 0.42152,-1.1 2.67405,-8.075 5.00564,-15.5 2.33159,-7.425 4.58157,-14.4 4.99997,-15.5 0.4184,-1.1 2.22585,-6.725 4.01656,-12.5 1.79071,-5.775 4.09455,-12.4076 5.11965,-14.7391 1.0251,-2.33151 1.86776,-4.58151 1.87257,-5 0.008,-0.71837 7.61644,-5.80144 14.71382,-9.83037 3.16195,-1.79493 3.35006,-1.78589 10,0.48008 3.72759,1.27018 7.33993,2.76501 8.02743,3.32185 1.49605,1.21172 1.62259,5.95562 0.27197,10.19654 -0.53791,1.68905 -1.84345,5.771 -2.9012,9.071 -1.05775,3.3 -3.36396,10.725 -5.12491,16.5 -1.76095,5.775 -3.55183,11.4 -3.97972,12.5 -0.42789,1.1 -1.78516,5.375 -3.01614,9.5 -1.23098,4.125 -2.58098,8.4 -3,9.5 -0.41902,1.1 -1.76902,5.375 -3,9.5 -1.23098,4.125 -2.56648,8.4 -2.96776,9.5 -0.40129,1.1 -2.20452,6.725 -4.00718,12.5 -3.58731,11.49227 -3.76622,12.079 -7.01328,23 -1.22646,4.125 -2.64769,8.57065 -3.15829,9.87923 -0.5106,1.30857 -0.69249,2.6151 -0.4042,2.90339 0.28829,0.2883 4.24264,0.005 8.78744,-0.6305 12.31323,-1.7206 25.20764,-1.52653 26.80942,0.40348 0.71007,0.85559 1.49536,5.08521 1.74509,9.39918 0.4312,7.44872 0.33462,7.90819 -1.91859,9.12711 -1.30496,0.70595 -6.19765,1.62744 -10.87265,2.04776 -4.675,0.42032 -13.225,1.26434 -19,1.8756 -5.775,0.61126 -14.6625,1.53514 -19.75,2.05307 -5.0875,0.51792 -13.4125,1.36544 -18.5,1.88336 -5.0875,0.51793 -13.975,1.42939 -19.75,2.02546 -5.775,0.59608 -15,1.52424 -20.5,2.06257 -5.5,0.53833 -12.52782,1.25265 -15.61738,1.58737 l -5.61738,0.60858 -0.53653,11.63717 c -0.5925,12.85088 -2.49793,19.77393 -7.84537,28.50482 -9.09097,14.84302 -20.1306,25.06626 -34.17492,31.64765 -12.50895,5.86189 -22.58497,8.04035 -40.20842,8.69315 l -15,0.55563 -7.5,5.46359 c -6.39676,4.65991 -11.80397,7.58547 -28,15.14935 -2.09205,0.97703 -1.32761,1.09271 4.68458,0.70893 6.2289,-0.39761 9.07596,-1.3317 21.40366,-7.02228 7.8205,-3.61002 14.79517,-6.56367 15.49926,-6.56367 0.90105,0 0.28285,2.96143 -2.0875,10 -1.85221,5.5 -3.28494,9.98861 -3.18383,9.97468 8.2428,-1.13534 177.45721,-16.58158 178.01583,-16.24966 0.4576,0.2719 -0.41409,1.79501 -1.93709,3.38467 -3.18291,3.32224 -2.50894,3.53704 5.62487,1.79265 2.81503,-0.60372 5.32503,-0.89087 5.57778,-0.63811 0.48826,0.48826 -19.95622,84.42776 -20.7589,85.23045 -0.80464,0.80463 -37.22784,11.4879 -39.19707,11.49686 -1.4172,0.006 -1.73401,-0.52571 -1.33443,-2.24154 0.28818,-1.2375 3.56013,-15.18933 7.271,-31.00407 3.71087,-15.81474 6.47915,-29.02195 6.15174,-29.34936 -0.52782,-0.52782 -48.75336,4.47475 -49.54776,5.13973 -0.2983,0.24971 -5.08971,16.21579 -23.69698,78.9637 -4.24052,14.3 -7.85406,26.24537 -8.03008,26.54527 -0.23442,0.39937 -35.56494,-3.35543 -37.20508,-3.95403 -1.02394,-0.3737 0.76371,-7.0093 18.74805,-69.59124 4.26748,-14.85 7.70121,-27.05113 7.63051,-27.11363 -0.17405,-0.15384 -40.06384,4.34005 -45.28376,5.10156 l -4.1552,0.60618 -2.24047,-7.54705 c -1.23226,-4.15088 -2.53879,-7.54706 -2.90339,-7.54706 -0.70916,0 -1.32228,1.7368 -15.6005,44.1924 -5.12227,15.23082 -9.8031,28.60774 -10.40183,29.7265 l -1.08862,2.0341 -5.10741,-2.01316 c -2.80907,-1.10723 -5.29274,-1.82782 -5.51925,-1.6013 -0.22652,0.22652 6.01949,7.79955 13.88001,16.82895 18.39462,21.12996 23.13228,26.82958 22.66849,27.27124 -0.20714,0.19726 -10.05163,1.02825 -21.87663,1.84665 l -21.5,1.48798 -6.12825,-6.63668 c -3.37048,-3.65017 -13.0732,-14.28668 -21.56154,-23.63668 l -15.43335,-17 -7.93841,0.0704 c -4.36612,0.0387 -12.73661,0.41682 -18.60109,0.84028 l -10.66268,0.76992 -4.66111,13.15972 c -7.87903,22.24488 -7.65743,21.74455 -9.40764,21.24088 -0.88324,-0.25416 -3.58772,-0.97492 -6.00997,-1.60168 l -4.40409,-1.13955 -11.17279,11.14109 c -8.60533,8.58092 -11.40856,10.83982 -12.1988,9.83004 z m 10.94995,-65.73624 c 0.35318,-1.35055 0.0895,-1.76634 -0.88336,-1.39301 -0.76275,0.29269 -1.38682,1.15902 -1.38682,1.92518 0,2.07843 1.69117,1.68199 2.27018,-0.53217 z m -0.20277,-14.82262 c 6.17871,-3.37902 7.04248,-4.24003 8.77802,-8.75 l 1.92496,-5.0022 -4.1352,-1.74542 c -6.6708,-2.81567 -7.13519,-3.26238 -7.13519,-6.86357 0,-3.14849 0.63405,-3.82013 8.86535,-9.39101 l 8.86535,-6 -5.70219,-0.3025 c -3.9103,-0.20743 -5.56393,-0.6788 -5.2622,-1.5 0.242,-0.65862 1.89903,-5.60254 3.68229,-10.98647 3.18222,-9.6076 3.2108,-9.85535 1.54229,-13.37147 -1.62752,-3.42974 -1.61683,-3.69391 0.25048,-6.19497 l 1.95048,-2.61246 15.40408,0.27694 15.40407,0.27693 -7.68924,-3.41237 c -14.80267,-6.56921 -21.96428,-11.44984 -33.68237,-22.9545 -8.23161,-8.08168 -8.36004,-8.1606 -7.67959,-4.71913 1.73771,8.78875 3.89904,13.26171 9.14701,18.93014 5.45018,5.88685 6.68916,9.38489 4.20419,11.86986 -2.02719,2.02719 -9.84425,1.30849 -19.74255,-1.81513 -5.59497,-1.76561 -9.68466,-2.58805 -10.03673,-2.01839 -0.3268,0.52877 -1.877,7.61513 -3.44488,15.74746 -2.87512,14.91275 -3.63738,16.98569 -6.67335,18.14792 -1.39881,0.5355 0.28348,4.29741 10.45895,23.38814 6.66924,12.5125 12.51447,22.75 12.9894,22.75 0.47493,0 3.94739,-1.68651 7.71657,-3.7478 z m -53.06741,1.11583 c 0,-1.91173 -4.27924,-7.19811 -5.45999,-6.74501 -1.58527,0.60833 -6.6054,-1.79196 -8.48529,-4.05708 -0.71478,-0.86127 -1.81328,-1.56594 -2.4411,-1.56594 -1.09166,0 -5.59366,6.42697 -5.94518,8.48722 -0.0926,0.54298 4.10656,1.72778 9.33156,2.6329 11.09059,1.92121 13,2.1045 13,1.24791 z m 113.14325,-23.71925 c 3.67886,-5.39273 8.69891,-11.3397 11.25,-13.32724 2.53371,-1.974 4.60675,-3.75389 4.60675,-3.95531 0,-0.20143 -3.33778,-0.36623 -7.41729,-0.36623 h -7.41729 l -1.56506,4.25 c -5.89695,16.01355 -8.31729,23.82563 -7.28201,23.50402 0.64991,-0.2019 4.17111,-4.74926 7.8249,-10.10524 z m 41.70815,8.48929 9.35139,-0.63807 4.88899,-13 c 2.68894,-7.15 4.89331,-13.383 4.8986,-13.85111 0.005,-0.46811 -2.80288,-0.60335 -6.24038,-0.30053 -3.4375,0.30282 -9.625,0.58353 -13.75,0.62381 l -7.5,0.0732 -11,10.7273 c -6.05,5.90002 -11.81294,12.1898 -12.80654,13.9773 l -1.80653,3.25 12.30653,-0.11193 c 6.7686,-0.0616 16.51467,-0.39906 21.65794,-0.75 z m -6.45052,-60.14577 10.09912,-0.008 2.25,-3.94042 c 1.2375,-2.16723 2.25,-4.08341 2.25,-4.25818 0,-0.17477 -4.88817,-0.15045 -10.8626,0.054 -8.64247,0.29581 -12.56079,-0.0576 -19.17146,-1.72933 -4.56987,-1.15562 -8.39371,-1.99079 -8.49743,-1.85592 -0.10372,0.13486 -0.47657,3.12374 -0.82855,6.64195 l -0.63997,6.39673 7.65088,-0.64673 c 4.20799,-0.35571 12.19549,-0.65021 17.75001,-0.65444 z m -126.40517,-8.97635 c 0.59003,-2.19124 2.06988,-5.13832 3.28854,-6.54908 2.16504,-2.50632 2.31141,-2.53115 6.39529,-1.08516 2.29875,0.81392 5.33625,2.23776 6.75,3.16408 3.01101,1.97289 3.0852,1.7933 0.9923,-2.402 -2.02022,-4.04963 -3.91872,-21.34471 -3.00897,-27.41135 0.61489,-4.10036 1.48622,-5.37911 7.28739,-10.69483 3.62394,-3.32068 7.19891,-6.03761 7.94436,-6.03761 1.93903,0 1.76381,-0.44763 -2.21628,-5.66183 -4.40006,-5.76438 -9.03416,-14.81065 -11.8418,-23.11643 l -2.12226,-6.27825 -5.84132,7.77825 c -7.03581,9.36885 -16.31972,28.10221 -20.70453,41.77826 -2.31735,7.22774 -4.92567,12.63365 -9.4086,19.5 -6.33697,9.70612 -9.91153,15.99705 -9.33357,16.4263 0.4789,0.35566 25.95616,4.34495 28.5352,4.4681 1.76526,0.0843 2.4279,-0.69824 3.28425,-3.87845 z m 89.46792,-4.08629 c -0.87326,-1.68868 -3.13784,-3.98492 -5.03242,-5.10275 -3.7087,-2.18819 -5.37639,-6.13264 -3.6917,-8.73169 1.63071,-2.51577 8.64306,-1.72806 20.1217,2.26031 11.66465,4.053 24.09897,6.08268 31.55698,5.15113 6.40374,-0.79987 17.12602,-5.8814 19.25,-9.12301 2.53767,-3.87297 5.04308,-4.80285 7.89887,-2.93167 3.00042,1.96596 3.13614,5.24932 0.43575,10.54251 l -1.99718,3.91481 4.24718,-1.48497 c 2.33596,-0.81673 7.70856,-3.57005 11.93912,-6.1185 l 7.69194,-4.63355 -7.69194,-4.80639 c -4.23056,-2.64351 -9.49145,-6.45024 -11.69085,-8.45939 l -3.99893,-3.653 -0.95635,3.37325 c -1.46317,5.16093 -10.05908,13.1733 -16.8643,15.71946 -14.30998,5.35405 -27.34075,-0.0197 -27.08614,-11.17012 0.27439,-12.01699 14.18155,-23.92254 28.14916,-24.09776 3.43448,-0.0431 6.24698,-0.16887 6.25,-0.27954 0.003,-0.11067 -0.66952,-2.79271 -1.49452,-5.9601 -3.09658,-11.88858 -1.26507,-28.66839 4.4962,-41.19295 l 3.05702,-6.64574 -0.27661,-20.47102 -0.27661,-20.47102 -20.24636,-0.029 -20.24636,-0.029 -4.892,7.5 c -7.06788,10.83585 -14.16994,17.49815 -23.56238,22.10341 -4.37091,2.14313 -8.75841,3.89659 -9.75,3.89659 -1.7062,0 -1.80408,2.10513 -1.82486,39.25 -0.0201,35.85675 -0.17991,39.59581 -1.84897,43.25 -2.21755,4.85503 -7.27698,9.98012 -12.51601,12.67844 l -3.88693,2.00193 2.88693,1.94953 c 7.11702,4.80609 15.57339,8.97928 23.88694,11.78814 4.95,1.67243 9.12406,3.05005 9.27568,3.06137 0.15162,0.0113 -0.4388,-1.36106 -1.31205,-3.04975 z m 141.26805,-23.91716 c 4.52742,-1.08542 11.744,-3.32798 16.03683,-4.98348 23.75025,-9.15906 41.12163,-33.43545 38.7217,-54.11333 l -0.68658,-5.91569 h -6.77937 c -7.74906,0 -8.49066,-0.55277 -9.39129,-7 -0.34573,-2.475 -1.04586,-6.75 -1.55582,-9.5 -0.50997,-2.75 -1.24681,-6.92451 -1.63743,-9.27669 -0.65805,-3.96257 -1.15936,-4.52549 -6.82497,-7.66387 -16.5761,-9.18208 -35.1346,-9.76634 -58.07935,-1.82845 -12.56269,4.34615 -15.77742,6.02034 -22.25598,11.59068 -7.51315,6.45988 -12.91874,13.02086 -16.38452,19.88652 l -3.02684,5.99614 0.31597,16.14784 0.31597,16.14783 3.96538,6.5 c 2.18095,3.575 6.06389,8.60436 8.62874,11.17637 5.31898,5.33379 16.30456,11.23813 24.69426,13.27222 8.65126,2.0975 24.20906,1.89763 33.9433,-0.43609 z m -30.73168,-36.90141 c -11.44175,-2.48462 -21,-13.22385 -21,-23.59467 0,-9.92007 10.50076,-23.30791 21.53099,-27.45072 8.2349,-3.09293 16.70223,-4.30406 24.43441,-3.49501 10.66212,1.11563 21.48048,7.58748 25.06671,14.99564 5.77834,11.93645 -3.43513,30.15992 -18.7954,37.17572 -4.90792,2.24169 -7.3259,2.657 -16.73671,2.87466 -6.05,0.13993 -12.575,-0.0876 -14.5,-0.50562 z m 15,-23.55207 c 0,-0.24254 -0.45,-0.7191 -1,-1.05902 -0.55,-0.33992 -1,-0.14148 -1,0.44098 0,0.58246 0.45,1.05902 1,1.05902 0.55,0 1,-0.19844 1,-0.44098 z m -8,-5.55902 c 0,-0.55 -0.19844,-1 -0.44098,-1 -0.24254,0 -0.7191,0.45 -1.05902,1 -0.33992,0.55 -0.14148,1 0.44098,1 0.58246,0 1.05902,-0.45 1.05902,-1 z m 33,0 c 0,-0.55 -0.19844,-1 -0.44098,-1 -0.24254,0 -0.7191,0.45 -1.05902,1 -0.33992,0.55 -0.14148,1 0.44098,1 0.58246,0 1.05902,-0.45 1.05902,-1 z m -43,-1 c 0,-0.55 -0.47656,-1 -1.05902,-1 -0.58246,0 -0.7809,0.45 -0.44098,1 0.33992,0.55 0.81648,1 1.05902,1 0.24254,0 0.44098,-0.45 0.44098,-1 z m 17.5,-10 c 0.33992,-0.55 0.14148,-1 -0.44098,-1 -0.58246,0 -1.05902,0.45 -1.05902,1 0,0.55 0.19844,1 0.44098,1 0.24254,0 0.7191,-0.45 1.05902,-1 z m -146.5,23 v -31 h -8.82485 c -6.6429,0 -10.53709,-0.5825 -15.75,-2.3559 -9.19809,-3.12915 -16.9716,-7.10651 -22.22996,-11.37411 -2.36764,-1.92154 -4.47903,-3.31948 -4.69197,-3.10654 -0.82552,0.82552 -2.48849,13.62857 -2.49567,19.21391 l -0.008,5.87736 4.47766,-4.12736 c 5.02375,-4.63073 6.30538,-4.93338 9.59863,-2.26666 l 2.29787,1.86069 -2.81075,8.27122 c -2.17499,6.40039 -2.68165,9.36124 -2.23999,13.09032 0.81193,6.85552 6.32332,18.06047 13.64853,27.74821 5.25007,6.94332 6.65166,8.22823 8.41375,7.71335 6.95284,-2.03165 14.15021,-1.55842 20.3643,1.33895 0.13795,0.0641 0.25045,-13.83344 0.25045,-30.88344 z m -69.43502,-23.49585 c 0.0766,-19.57628 0.2595,-21.6055 2.69042,-29.85005 2.43076,-8.24398 2.57257,-11.35 0.58009,-12.70536 -0.44571,-0.30319 -3.40354,-0.43894 -6.57294,-0.30165 -3.1694,0.13729 -6.32505,0.27285 -7.01255,0.30126 -0.97878,0.0404 -1.2491,8.89355 -1.24584,40.80165 l 0.004,40.75 5.73723,-8.99585 5.73723,-8.99586 0.0822,-21.00414 z M 396.93116,301.4997 c 6.10977,-2.97319 14.70868,-6.31962 19.10868,-7.4365 8.85048,-2.24657 24.53708,-3.04207 33.83223,-1.7157 l 5.83223,0.83223 -0.64706,-5.83223 c -0.9849,-8.87718 -2.49237,-16.05583 -5.14592,-24.50503 l -2.40972,-7.67281 -9.46454,4.42281 c -5.2055,2.43254 -10.78737,4.4228 -12.40416,4.4228 -4.29776,0 -8.9615,-4.32508 -9.70981,-9.00473 -0.33616,-2.10226 -2.13492,-5.96542 -3.99723,-8.5848 -1.86231,-2.61938 -3.38602,-5.96676 -3.38602,-7.43861 0,-4.4372 4.03901,-9.20535 10.86523,-12.8267 l 6.32387,-3.35485 -3.34455,-3.47882 c -5.33012,-5.54411 -19.95407,-14.82552 -28.49269,-18.0835 -12.73477,-4.85906 -12.0163,-4.83059 -12.82664,-0.50825 -1.58554,8.4572 -6.0968,12.0145 -13.74326,10.83708 -4.27029,-0.65755 -8.48285,-0.80633 -14.41085,-0.50896 -6.3337,0.31773 -10.35049,-5.02913 -10.36553,-13.79786 -0.003,-1.7875 -0.34308,-3.24942 -0.75558,-3.24871 -1.23751,0.002 -20.57387,4.79614 -22.99938,5.70217 -2.22702,0.83187 -2.19425,0.94937 3.29617,11.81838 7.59591,15.0371 9.85013,25.89504 9.13032,43.97816 -0.28462,7.15 -0.82835,14.00282 -1.2083,15.22849 l -0.69082,2.22849 19.861,0.27151 19.86101,0.27151 0.26798,24.33697 0.26797,24.33698 8.12335,-7.64186 c 6.56508,-6.17596 10.25425,-8.67882 19.23202,-13.04766 z m 140.85973,-7.23443 c -0.24428,-11.9625 -0.8675,-22.1943 -1.38494,-22.73734 -0.5889,-0.61804 -0.89157,7.51723 -0.8092,21.75 0.10119,17.48569 0.42107,22.73734 1.38494,22.73734 0.97967,0 1.15637,-4.74936 0.8092,-21.75 z m -260.16598,17.19742 c 0.50321,-0.311 0.91493,-5.4889 0.91493,-11.50644 0,-10.64114 -0.0617,-10.94453 -2.25,-11.07056 -9.97147,-0.57426 -48.74997,-0.19004 -48.74998,0.48303 -1e-5,0.46939 3.10357,3.95703 6.89684,7.75031 7.30527,7.30527 17.37389,13.02625 26.15958,14.86386 4.37677,0.91544 15.24281,0.5835 17.02863,-0.5202 z m 19.67963,-9.18577 c 4.84682,-3.19976 11.20032,-10.41235 11.22615,-12.7441 0.007,-0.58899 -4.99555,-1.00115 -12.48998,-1.02915 l -12.50087,-0.0467 v 10.79947 10.79948 l 4.25,-2.15168 c 2.3375,-1.18343 6.61912,-3.71572 9.5147,-5.62732 z m 207.8603,-11.34498 c 0.0688,-4.35417 0.18125,-19.1623 0.25,-32.90695 l 0.125,-24.99029 4.75,-3.48492 c 4.30258,-3.15667 5.38581,-3.48726 11.5,-3.50972 3.7125,-0.0136 6.75,-0.28843 6.75,-0.61066 0,-2.16864 -3.58168,-13.41413 -4.27239,-13.41413 -0.79038,0 -15.79886,8.10885 -28.72761,15.52108 -6.43944,3.69182 -6.31225,2.32448 -2.0445,21.97892 0.47771,2.2 1.37771,6.475 2,9.5 1.59918,7.77367 2.64205,12.67281 4.0445,19 2.30959,10.41976 3.13091,14.51091 3.67507,18.30627 0.85385,5.95527 1.81264,3.30516 1.94993,-5.3896 z M 257.11903,268.74062 c -9.20744,-15.71132 -6.54207,-42.25057 5.1753,-51.53091 11.49261,-9.10231 20.6954,-8.15315 33.20035,3.42423 6.57317,6.0856 9.41373,11.66898 11.00533,21.63198 1.41289,8.84435 -0.50966,23.52046 -3.73337,28.49935 l -1.45682,2.25 h 8.00802 c 6.67762,0 8.13118,-0.29073 8.74933,-1.75 1.37397,-3.24353 1.75712,-24.1185 0.56015,-30.51817 -2.10541,-11.25673 -7.21737,-25.69844 -11.21624,-31.68679 -7.13307,-10.68186 -19.96047,-21.15114 -30.37124,-24.78796 -8.2164,-2.87025 -19.24257,-2.23684 -29.28551,1.68233 -4.55704,1.77834 -10.18204,4.67783 -12.5,6.44331 l -4.21449,3.20996 -0.56677,11.96356 c -0.7162,15.11765 -3.03354,20.81456 -12.05927,29.64623 l -6.15385,6.02154 1.09711,7.638 c 0.60342,4.20089 2.0861,10.90049 3.29485,14.88799 l 2.19773,7.25 h 20.38726 20.38725 z m 15.92081,-15.72535 c 0.33992,-0.55 0.14148,-1 -0.44098,-1 -0.58246,0 -1.05902,0.45 -1.05902,1 0,0.55 0.19844,1 0.44098,1 0.24254,0 0.7191,-0.45 1.05902,-1 z m 264.18311,-1.1875 c -0.31922,-0.79773 -0.55618,-0.56078 -0.60416,0.60417 -0.0434,1.05416 0.19293,1.64479 0.52522,1.3125 0.33229,-0.3323 0.36781,-1.1948 0.0789,-1.91667 z m -83.26818,-14.85011 c 0.76234,-0.74344 -3.91152,-13.96239 -4.93672,-13.96239 -0.16321,0 -6.63167,3.41277 -14.37435,7.58393 l -14.07761,7.58393 2.38939,3.16607 c 1.31417,1.74134 2.93911,5.02725 3.611,7.30203 l 1.2216,4.13595 12.62588,-7.45864 c 6.94423,-4.10225 13.0376,-7.86015 13.54081,-8.35088 z m -161.91493,12.03761 c 0.33992,-0.55 0.14148,-1 -0.44098,-1 -0.58246,0 -1.05902,0.45 -1.05902,1 0,0.55 0.19844,1 0.44098,1 0.24254,0 0.7191,-0.45 1.05902,-1 z m -12.5,-14 c 0,-0.55 -0.19844,-1 -0.44098,-1 -0.24254,0 -0.7191,0.45 -1.05902,1 -0.33992,0.55 -0.14148,1 0.44098,1 0.58246,0 1.05902,-0.45 1.05902,-1 z m 275.65832,-6.13926 c 5.31984,0.0635 5.51683,-0.0268 4.95358,-2.27091 -0.32261,-1.28539 -1.37977,-4.19854 -2.34923,-6.47367 l -1.76267,-4.13659 -6.67142,4.47856 c -7.87633,5.28743 -8.13082,5.61673 -6.88103,8.90391 0.93606,2.46203 1.04509,2.48834 4.06624,0.9812 1.75351,-0.87477 5.51517,-1.51988 8.64453,-1.4825 z m -336.18722,-9.78888 c 0.8409,-2.43548 1.51295,-5.58548 1.49346,-7 l -0.0354,-2.57186 -1.44731,2.5 c -1.34748,2.32757 -5.5093,14.41402 -5.45958,15.85534 0.0571,1.65615 4.08764,-4.84097 5.44886,-8.78348 z m 268.19583,-4.80544 c -0.66965,-2.18193 -1.28042,-3.03489 -1.46963,-2.0524 -0.29474,1.53044 1.35591,5.78598 2.24428,5.78598 0.20417,0 -0.14442,-1.68011 -0.77465,-3.73358 z m 58.58307,-5.47783 c 3.1625,-2.12471 5.75,-3.99609 5.75,-4.15863 0,-1.78051 -12.17682,-30.07296 -12.87336,-29.91083 -2.10054,0.48893 -40.7972,21.97179 -42.99954,23.87165 -0.67842,0.58524 3.15277,13.40922 4.00603,13.40922 0.45996,0 7.25568,-3.56143 15.10158,-7.91429 19.40915,-10.76807 18.21622,-10.63569 19.61321,-2.17658 1.49126,9.02991 2.79126,12.42067 4.40021,11.4769 0.68853,-0.40388 3.83937,-2.47272 7.00187,-4.59744 z M 371.14851,187.7787 c 0.7162,-6.74489 1.32224,-13.95093 1.34676,-16.01343 l 0.0446,-3.75 h -7.42804 -7.42805 l -0.63023,5.75 c -0.98063,8.94685 -2.52554,20.51221 -3.08125,23.06664 -0.4788,2.20087 -0.28982,2.2892 3.78179,1.76761 2.44583,-0.31332 5.78838,0.005 7.78578,0.74197 1.925,0.71004 3.68146,1.15816 3.90324,0.99581 0.22178,-0.16235 0.98923,-5.81372 1.70543,-12.5586 z m 1.99493,-32.52874 c 0.60698,-0.40408 1.41363,-4.33469 1.79256,-8.73469 0.37893,-4.4 0.96272,-10.41317 1.29732,-13.3626 l 0.60835,-5.3626 -2.90091,0.54826 c -1.59551,0.30155 -4.97702,0.82059 -7.51448,1.15342 l -4.61356,0.60514 -1.17504,9.20919 c -0.64627,5.06506 -1.42223,10.89669 -1.72434,12.95919 l -0.5493,3.75 6.8379,-0.0153 c 3.76085,-0.008 7.33452,-0.34592 7.9415,-0.75 z m -2.27983,-38.37085 c 3.11154,-0.62488 6.09565,-1.66429 6.63137,-2.30979 0.59526,-0.71724 0.7349,-6.46427 0.35909,-14.778486 l -0.61496,-13.60484 -3.45811,4.16464 c -1.90196,2.29055 -3.63154,4.34938 -3.8435,4.57518 -0.21197,0.22579 -1.23396,-0.35741 -2.27109,-1.296 -1.81508,-1.64262 -1.908,-1.54566 -2.48142,2.58947 -1.36602,9.850796 -1.88636,21.795986 -0.94945,21.795986 0.53391,0 3.51654,-0.51127 6.62807,-1.13616 z M 285.03984,96.015274 c 0,-3.33333 -0.41667,-5 -1.25,-5 -1.32123,0 -1.82685,8.08982 -0.58333,9.333326 1.43045,1.43046 1.83333,0.47821 1.83333,-4.333326 z m 24.5,-0.30887 c 0,-1.26988 -0.59812,-3.12685 -1.32917,-4.12661 -1.10146,-1.50634 -1.70105,-1.61871 -3.5,-0.65595 -2.66376,1.4256 -2.94748,5.74182 -0.42083,6.4021 4.06315,1.06182 5.25,0.69569 5.25,-1.61954 z m 6,-6.5096 c 0,-2.76565 4.02803,-4.48229 11.67004,-4.97345 l 7.17003,-0.46083 1.57997,-6.99629 c 2.38515,-10.56179 3.38402,-9.73414 -11.67004,-9.66964 -7.2875,0.0312 -15.1625,0.3018 -17.5,0.60127 l -4.25,0.5445 v 9.79959 9.79959 l 2.89907,-1.09428 c 2.34891,-0.88661 3.39266,-0.77086 5.5,0.60992 1.43051,0.93731 2.60093,2.39538 2.60093,3.24016 0,0.84478 0.45,1.25785 1,0.91793 0.55,-0.33992 1,-1.38323 1,-2.31847 z m 63.93826,-11.18153 c 1.40292,0 1.91426,-1.10695 2.39797,-5.19114 0.33815,-2.85513 0.48918,-5.31678 0.33564,-5.47033 -0.15355,-0.15355 -5.23058,-0.57991 -11.28228,-0.94746 -7.92783,-0.4815 -11.6461,-0.32416 -13.3037,0.56296 -1.66378,0.89043 -2.60306,0.9288 -3.39325,0.13861 -2.61754,-2.61754 -4.53431,-1.18009 -5.5436,4.15736 -2.49819,13.21128 -2.76232,12.42266 3.72596,11.125 2.16667,-0.43333 3.125,-1.2 3.125,-2.5 0,-1.42098 0.73403,-1.875 3.03138,-1.875 1.66727,0 3.27133,0.62527 3.56459,1.38949 0.30827,0.80334 1.34964,1.17599 2.46861,0.88337 1.55552,-0.40678 1.93542,0.0158 1.93542,2.15271 0,1.46237 0.5625,3.27547 1.25,4.02912 1.03705,1.13683 1.98724,0.53339 5.57755,-3.54221 2.38015,-2.70186 5.12997,-4.91248 6.11071,-4.91248 z m -54.93826,-22.89301 c 0,-2.25346 -4.87897,-2.66577 -7.55887,-0.63879 -1.79563,1.35814 -1.58509,1.47058 2.80887,1.5 2.6125,0.0175 4.75,-0.37006 4.75,-0.86121 z m 80,-0.048 c 0,-1.57221 -1.97772,-2.28143 -4.55684,-1.63411 -3.63593,0.91256 -2.95362,2.57509 1.05684,2.57509 1.925,0 3.5,-0.42344 3.5,-0.94098 z m -60.5,-1.05902 c -0.33992,-0.55 -1.46492,-1 -2.5,-1 -1.03508,0 -2.16008,0.45 -2.5,1 -0.36155,0.585 0.67595,1 2.5,1 1.82405,0 2.86155,-0.415 2.5,-1 z M 5.3665735,589.76524 c -0.74634,-1.3503 -1.24363,-6.04875 -1.24363,-11.75 0,-10.19267 1.20118,-14 4.4169,-14 3.2526395,0 4.4658195,3.80323 4.4658195,14 0,10.19677 -1.21318,14 -4.4658195,14 -1.0613,0 -2.48927,-1.0125 -3.17327,-2.25 z m 666.9755365,0 c -0.77724,-1.37907 -1.26809,-5.92724 -1.26809,-11.75 0,-10.19677 1.21318,-14 4.46582,-14 3.21571,0 4.4169,3.80733 4.4169,14 0,10.19267 -1.20119,14 -4.4169,14 -1.0613,0 -2.50028,-1.0125 -3.19773,-2.25 z m -146.38067,-6.87685 c -0.45985,-0.74406 7.12881,-38.75689 7.88895,-39.51703 0.48404,-0.48404 36.56082,2.44635 37.53576,3.0489 0.469,0.28985 -1.02118,8.3048 -3.31152,17.811 l -4.16425,17.28398 -8.43527,0.65632 c -15.7265,1.22364 -29.00118,1.54605 -29.51367,0.71683 z M 6.8490535,558.32448 c -3.40162,-3.40161 -4.13894,-19.80766 -1.14868,-25.55921 1.18925,-2.28744 4.5052595,-2.24299 5.7468895,0.077 2.89974,5.41821 2.38627,21.35376 -0.81546,25.30773 l -1.7705995,2.1866 -2.01215,-2.01215 z M 673.82489,559.2126 c -3.20994,-2.03976 -4.13595,-20.87037 -1.28801,-26.1918 1.43094,-2.67373 4.64039,-2.54613 6.14877,0.24447 0.69721,1.28986 1.24328,6.32626 1.27968,11.80239 0.05,7.5263 -0.31141,10.12455 -1.70405,12.25 -1.87527,2.86201 -2.49677,3.12748 -4.43639,1.89494 z M 6.7913635,526.19188 c -1.92294,-1.22103 -3.52773,-11.98171 -2.77803,-18.62763 0.80531,-7.13898 1.94773,-9.54898 4.52651,-9.54898 3.2697495,0 4.4291295,3.79556 4.4291295,14.5 0,12.44982 -1.80754,16.45154 -6.1776095,13.67661 z M 672.33702,524.76527 c -0.79605,-1.40678 -1.2732,-5.99766 -1.2732,-12.25 0,-10.70925 1.17017,-14.5 4.47602,-14.5 2.57044,0 3.63169,2.27974 4.46526,9.59213 1.51955,13.33002 -3.49055,24.54046 -7.66808,17.15787 z m -666.9704465,-33 c -2.02239,-3.65894 -1.6972,-20.77255 0.45719,-24.06057 2.01585,-3.07658 2.96371,-3.29894 5.0726195,-1.19003 2.96286,2.96286 3.36315,20.4188 0.58718,25.60576 -1.37861,2.57596 -4.6002695,2.38891 -6.1169895,-0.35516 z m 667.0263665,0.0607 c -1.70521,-3.07293 -1.72958,-21.50528 -0.0325,-24.56068 3.03184,-5.45841 6.86149,-0.84504 7.70604,9.28304 0.76208,9.13912 -1.11318,16.83691 -4.209,17.27764 -1.44861,0.20623 -2.61344,-0.46619 -3.46456,-2 z M 5.3940235,458.76527 c -1.63685,-3.02825 -1.65945,-20.55925 -0.0303,-23.5 0.68557,-1.2375 2.11482,-2.25 3.17612,-2.25 3.2526395,0 4.4658195,3.80323 4.4658195,14 0,10.19677 -1.21318,14 -4.4658195,14 -1.0613,0 -2.47692,-1.0125 -3.14582,-2.25 z m 666.9480865,0 c -0.77724,-1.37907 -1.26809,-5.92724 -1.26809,-11.75 0,-10.19677 1.21318,-14 4.46582,-14 3.21571,0 4.4169,3.80733 4.4169,14 0,10.19267 -1.20119,14 -4.4169,14 -1.0613,0 -2.50028,-1.0125 -3.19773,-2.25 z m -666.9783865,-33 c -1.62915,-2.94075 -1.60655,-20.47175 0.0303,-23.5 0.6689,-1.2375 2.08452,-2.25 3.14582,-2.25 3.2526395,0 4.4658195,3.80323 4.4658195,14 0,10.19677 -1.21318,14 -4.4658195,14 -1.0613,0 -2.49055,-1.0125 -3.17612,-2.25 z m 666.9783865,0 c -0.77724,-1.37907 -1.26809,-5.92724 -1.26809,-11.75 0,-10.19677 1.21318,-14 4.46582,-14 3.21571,0 4.4169,3.80733 4.4169,14 0,10.19267 -1.20119,14 -4.4169,14 -1.0613,0 -2.50028,-1.0125 -3.19773,-2.25 z M 5.8184035,393.31766 c -1.39265,-2.12545 -1.75408,-4.7237 -1.70405,-12.25 0.0364,-5.47613 0.58247,-10.51253 1.27967,-11.80239 1.44879,-2.68033 4.7004495,-2.95076 6.0119395,-0.5 2.773,5.18188 2.41817,22.82285 -0.51813,25.75914 -2.1010695,2.10108 -3.0500795,1.87517 -5.0694295,-1.20675 z M 673.82489,395.2126 c -3.20994,-2.03976 -4.13595,-20.87037 -1.28801,-26.1918 1.43048,-2.67287 4.63382,-2.54607 6.17623,0.24447 2.02238,3.65894 1.6972,20.77255 -0.45719,24.06057 -1.86995,2.85389 -2.49215,3.11883 -4.43103,1.88676 z M 5.3940235,360.76527 c -1.54739,-2.86275 -1.57792,-20.28968 -0.042,-24 1.40025,-3.38267 4.6254,-3.63594 6.3672395,-0.5 0.76635,1.3797 1.24975,6.11798 1.24975,12.25 0,10.70444 -1.15938,14.5 -4.4291295,14.5 -1.0613,0 -2.47692,-1.0125 -3.14582,-2.25 z m 666.9371865,0 c -1.71319,-3.01381 -1.66244,-21.42829 0.0677,-24.56068 2.23504,-4.04655 5.42316,-2.52615 6.94215,3.31068 1.39558,5.36261 0.85794,18.39985 -0.89377,21.67294 -1.34613,2.51529 -4.57269,2.29216 -6.11607,-0.42294 z m -666.6308365,-32.5 c -2.85894,-5.49897 -2.27989,-21.67225 0.91504,-25.55778 l 1.80259,-2.19222 2.2988595,2.26572 c 2.10022,2.06994 2.29937,3.15008 2.30474,12.5 0.006,10.95199 -1.14418,14.73428 -4.4817595,14.73428 -1.0613,0 -2.33906,-0.7875 -2.83947,-1.75 z m 666.9733465,0 c -2.77301,-5.18188 -2.41818,-22.82285 0.51812,-25.75914 2.10004,-2.10005 3.05007,-1.87519 5.06408,1.19857 2.15439,3.28802 2.47957,20.40163 0.45719,24.06057 -1.4817,2.68071 -4.72857,2.94951 -6.03939,0.5 z m -667.3099965,-33.5 c -1.62915,-2.94075 -1.60655,-20.47175 0.0303,-23.5 0.6689,-1.2375 2.08452,-2.25 3.14582,-2.25 3.2526395,0 4.4658195,3.80323 4.4658195,14 0,10.19677 -1.21318,14 -4.4658195,14 -1.0613,0 -2.49055,-1.0125 -3.17612,-2.25 z m 666.9783865,0 c -0.77724,-1.37907 -1.26809,-5.92724 -1.26809,-11.75 0,-10.19677 1.21318,-14 4.46582,-14 3.21571,0 4.4169,3.80733 4.4169,14 0,10.19267 -1.20119,14 -4.4169,14 -1.0613,0 -2.50028,-1.0125 -3.19773,-2.25 z m -666.9783865,-33 c -1.62915,-2.94075 -1.60655,-20.47175 0.0303,-23.5 0.6689,-1.2375 2.08452,-2.25 3.14582,-2.25 3.2526395,0 4.4658195,3.80323 4.4658195,14 0,10.19677 -1.21318,14 -4.4658195,14 -1.0613,0 -2.49055,-1.0125 -3.17612,-2.25 z m 666.9612965,0 c -1.70248,-2.98057 -1.68385,-20.44868 0.0251,-23.5 0.69307,-1.2375 2.12846,-2.25 3.18976,-2.25 3.16126,0 4.35983,3.82033 4.3923,14 0.0325,10.20058 -1.15948,14 -4.3923,14 -1.0613,0 -2.50797,-1.0125 -3.21482,-2.25 z M 147.49044,248.96353 c -19.69562,-2.93238 -35.71051,-17.14446 -40.5361,-35.97291 -1.18864,-4.63781 -1.52533,-9.02932 -1.18647,-15.47535 0.40146,-7.63663 1.01692,-10.17578 4.06288,-16.76168 8.74929,-18.91753 26.46123,-29.59917 47.2751,-28.51047 8.17609,0.42766 10.10535,0.92615 17.55963,4.5371 17.6861,8.56739 27.88798,24.17229 27.98526,42.80657 0.0517,9.90472 -0.79439,13.79786 -4.87445,22.42848 -6.33319,13.3967 -21.22924,24.75535 -34.73645,26.48748 -2.75,0.35266 -6.125,0.7865 -7.5,0.9641 -1.375,0.1776 -4.99723,-0.0489 -8.0494,-0.50332 z m 20.14347,-11.89419 c 17.38936,-6.59917 27.50111,-23.69397 24.90005,-42.0957 -1.80233,-12.75088 -9.99088,-23.68939 -21.99126,-29.37656 -5.91864,-2.80494 -7.40338,-3.08181 -16.52647,-3.08181 -9.28283,0 -10.51,0.23954 -16.605,3.24128 -7.96181,3.92112 -14.99157,11.10276 -18.63796,19.04065 -3.67077,7.99095 -4.2365,20.27902 -1.31655,28.59637 7.22849,20.59003 29.99799,31.33367 50.17719,23.67577 z M 6.7913635,231.19188 c -3.09262,-1.96376 -3.8914,-21.12353 -1.10174,-26.42661 1.21787,-2.31513 4.5215995,-2.23254 5.7939395,0.14484 2.77597,5.18696 2.37568,22.6429 -0.58718,25.60576 -1.6970695,1.69706 -2.3322795,1.80167 -4.1050195,0.67601 z M 673.19184,230.52441 c -2.9363,-2.93629 -3.29113,-20.57726 -0.51812,-25.75914 1.44851,-2.70681 4.75202,-2.15792 6.01855,1 0.60661,1.5125 1.14962,6.83254 1.20668,11.82231 0.0811,7.09179 -0.27925,9.65687 -1.65073,11.75 -2.00633,3.06205 -2.95783,3.28539 -5.05638,1.18683 z M 5.3997635,196.76527 c -0.68677,-1.27659 -1.24278,-6.37816 -1.28519,-11.79203 -0.0591,-7.54015 0.29725,-10.11015 1.69832,-12.25 2.02003,-3.08517 2.97332,-3.31874 5.0538195,-1.23824 2.91227,2.91227 3.27005,20.55481 0.52281,25.78027 -1.28912,2.45199 -4.5480095,2.17995 -5.9897595,-0.5 z m 667.1371165,0.24447 c -2.97043,-5.5503 -1.81834,-25.08159 1.55586,-26.3764 2.56976,-0.98611 4.37463,0.4901 5.1699,4.22848 1.11502,5.24147 0.69272,19.50852 -0.65181,22.0208 -1.43904,2.68887 -4.66679,2.75643 -6.07395,0.12712 z M 5.3665735,163.76527 c -2.02239,-3.65894 -1.6972,-20.77255 0.45719,-24.06057 2.21528,-3.38095 3.21952,-3.37747 5.4430195,0.0189 1.38996,2.12312 1.76764,4.76992 1.748,12.25 -0.0269,10.23194 -1.24099,14.04167 -4.4749395,14.04167 -1.0613,0 -2.48927,-1.0125 -3.17327,-2.25 z m 666.9835065,0 c -0.7622,-1.36093 -1.27003,-6.02032 -1.28518,-11.79172 -0.0197,-7.50223 0.35629,-10.12421 1.75908,-12.26691 1.48275,-2.26485 2.11422,-2.54854 3.73819,-1.67942 2.67621,1.43226 3.48948,5.00694 3.40991,14.98805 -0.0731,9.16473 -1.38066,13 -4.43224,13 -1.0613,0 -2.49669,-1.0125 -3.18976,-2.25 z M 89.183593,148.51617 c -1.94609,-1.94609 -2.15694,-5.83946 -0.39375,-7.27062 1.41409,-1.1478 15.495727,-5.23028 18.040727,-5.23028 0.91474,0 2.38052,1.09482 3.25729,2.43294 2.53516,3.86915 0.56083,6.15639 -7.31292,8.4719 -11.265017,3.31282 -11.810527,3.37688 -13.591347,1.59606 z M 5.3940235,130.76527 c -1.65971,-3.07055 -1.65809,-20.56109 0.002,-23.56068 2.01281,-3.63652 5.3598595,-2.52936 6.9854295,2.31068 1.53652,4.57488 1.05192,17.96156 -0.77369,21.37276 -1.48801,2.78037 -4.6787695,2.71734 -6.2139195,-0.12276 z m 667.0777165,0.12276 c -1.82561,-3.4112 -2.31021,-16.79788 -0.7737,-21.37276 1.62554,-4.83991 4.97386,-5.94794 6.98259,-2.31068 1.68578,3.05249 1.70987,20.52591 0.0325,23.56068 -1.56965,2.83982 -4.75372,2.90245 -6.24137,0.12276 z m -443.58645,-18.3235 c -1.73501,-0.75484 -3.44744,-2.29523 -3.8054,-3.42308 -0.67755,-2.13477 0.88712,-6.12618 2.40151,-6.12618 0.47916,0 0.63585,-0.9 0.34819,-2 -0.32052,-1.225666 -0.0307,-1.999996 0.74861,-1.999996 0.88906,0 0.77373,-0.55015 -0.38337,-1.82874 -2.39215,-2.64329 -2.09853,-6.83454 0.60279,-8.60451 2.25996,-1.48078 11.13946,-2.67238 13.49222,-1.81062 1.66542,0.61001 1.59724,3.17339 -0.10175,3.82535 -0.7964,0.30561 -1.17056,1.46656 -0.91072,2.82581 0.50925,2.66397 -3.64541,6.54913 -7.12239,6.660386 -2.06788,0.0662 -2.07045,0.0869 -0.11514,0.92866 1.1,0.47354 3.22451,1.1234 4.72114,1.44413 6.26023,1.34158 5.61457,8.67821 -0.92352,10.4938 -4.72935,1.31331 -5.08365,1.29808 -8.95217,-0.38501 z m 9.15455,-5.04926 c 0,-1.16125 -4.97753,-1.91447 -7.14785,-1.08164 -0.8134,0.31213 -1.18359,1.04536 -0.82263,1.6294 0.8144,1.31773 7.97048,0.82594 7.97048,-0.54776 z m -1.69037,-14.249996 c -0.18536,-0.9625 -1.22469,-1.75 -2.30963,-1.75 -1.08494,0 -2.12427,0.7875 -2.30963,1.75 -0.25243,1.31075 0.32729,1.75 2.30963,1.75 1.98234,0 2.56206,-0.43925 2.30963,-1.75 z m 263.69037,20.060936 c -4.92147,-1.27323 -7.00261,-5.96751 -4.09295,-9.2322 1.88114,-2.11067 2.14802,-4.989446 0.7725,-8.332696 -1.31608,-3.19879 0.0839,-7.40318 2.72221,-8.17538 2.72875,-0.79866 12.01472,-0.98751 12.74308,-0.25916 0.38033,0.38033 0.22593,1.70333 -0.3431,2.94001 -0.56904,1.23667 -1.43222,3.55936 -1.91818,5.16153 -0.62828,2.0714 -1.8948,3.26455 -4.38356,4.12963 l -3.5,1.216576 3,0.73934 c 7.04673,1.73665 9.6908,6.22551 5.75,9.76181 -1.95106,1.7508 -7.68266,2.84409 -10.75,2.05054 z m 7.25603,-5.56094 c -0.22584,-0.6875 -2.06334,-1.38966 -4.08333,-1.56037 -2.79371,-0.23608 -3.6727,0.0631 -3.6727,1.25 0,1.15907 1.05016,1.56037 4.08333,1.56037 2.81901,0 3.95619,-0.38704 3.6727,-1.25 z m -1.38103,-13.547746 c 0.27117,-0.43876 0.1313,-1.38303 -0.31081,-2.09839 -1.09928,-1.77868 -4.46441,-0.97976 -4.87603,1.15762 -0.24634,1.27917 0.32953,1.73852 2.1795,1.73852 1.38287,0 2.73617,-0.35899 3.00734,-0.79775 z M 110.05507,106.96728 c 0.3575,-1.12639 0.11248,-2.69566 -0.54449,-3.48726 -1.60951,-1.93934 -0.49935,-4.464746 1.96269,-4.464746 4.26151,0 4.72706,7.765096 0.56139,9.363616 -2.49112,0.95593 -2.68674,0.81643 -1.97959,-1.41161 z m 225.97083,0.0919 c 0.38092,-1.20017 0.15462,-2.77196 -0.51532,-3.57918 -1.71733,-2.06926 -0.39987,-4.667516 2.17266,-4.284886 3.42622,0.50961 4.63913,3.333926 2.82223,6.571686 -1.94344,3.46326 -5.49367,4.48752 -4.47957,1.29238 z m 113.02917,-0.0919 c 0.3575,-1.12639 0.15506,-2.64435 -0.44986,-3.37325 -1.44572,-1.74198 -0.30474,-4.578756 1.84162,-4.578756 4.04703,0 5.51346,5.404536 2.26427,8.345006 -2.57812,2.33317 -4.45717,2.13118 -3.65603,-0.393 z M 42.539843,91.515274 v -13.5 h 8.06955 c 7.79644,0 8.05873,0.0762 7.75,2.25 -0.27839,1.96016 -0.99586,2.28894 -5.56955,2.55226 -4.78813,0.27567 -5.25,0.513 -5.25,2.69774 0,2.18474 0.46187,2.42207 5.25,2.69774 4.57369,0.26332 5.29116,0.5921 5.56955,2.55226 0.29857,2.10226 -0.0462,2.25 -5.25,2.25 h -5.56955 v 6 c 0,5.733326 -0.11111,5.999996 -2.5,5.999996 h -2.5 z m 18,4.5 c 0,-8.93333 0.0185,-9 2.5,-9 2.48148,0 2.5,0.0667 2.5,9 0,8.933326 -0.0185,8.999996 -2.5,8.999996 -2.48148,0 -2.5,-0.0667 -2.5,-8.999996 z m 9,-4.5 v -13.5 h 2.5 2.5 v 13.5 13.499996 h -2.5 -2.5 z m 8.81411,12.302866 c -0.24225,-0.71658 -0.35855,-3.77787 -0.25845,-6.802866 0.34576,-10.44924 -0.0867,-9.65853 5.65389,-10.33841 3.62064,-0.42881 5.84512,-0.20056 7.29338,0.74838 1.76394,1.15577 2.37514,1.15235 3.98157,-0.0223 2.69361,-1.96961 6.184587,-1.71858 8.515497,0.61233 1.64771,1.64771 2,3.33333 2,9.56955 0,7.277916 -0.0867,7.557236 -2.25,7.249996 -2.00767,-0.28513 -2.30385,-1.01962 -2.75,-6.819546 -0.47179,-6.13333 -0.641027,-6.5 -2.999997,-6.5 -2.39055,0 -2.51295,0.29552 -2.79569,6.75 -0.27963,6.383196 -0.42658,6.749996 -2.70431,6.749996 -2.27774,0 -2.42469,-0.3668 -2.70431,-6.749996 -0.285,-6.50599 -0.3934,-6.76127 -2.99859,-7.06188 -2.67878,-0.30909 -2.70555,-0.25107 -3,6.5 -0.26472,6.069306 -0.5285,6.844896 -2.41983,7.114746 -1.16749,0.16658 -2.32092,-0.28342 -2.56316,-1 z M 129.53984,91.515274 v -13.5 h 6.81144 c 5.39012,0 7.25181,0.41027 8.92187,1.96617 6.09691,5.68014 1.66778,13.97758 -7.48331,14.01909 l -3.25,0.0147 v 5.5 c 0,5.199996 -0.13636,5.499996 -2.5,5.499996 h -2.5 z m 11.84839,-3.38514 c 0.74162,-0.46998 1.18788,-1.70059 0.99169,-2.73469 -0.25963,-1.36846 -1.37505,-1.96464 -4.0984,-2.19054 -3.57477,-0.29652 -3.74168,-0.17384 -3.74168,2.75 0,2.67563 0.34572,3.05844 2.75,3.04506 1.5125,-0.008 3.35678,-0.39985 4.09839,-0.86983 z m 8.15161,3.38514 v -13.5 h 2.5 c 2.29999,0 2.5,0.36365 2.5,4.54531 v 4.54532 l 3.29847,-0.6188 c 2.45724,-0.46098 3.92369,-0.1127 5.75,1.36562 2.19909,1.78008 2.45153,2.74015 2.45153,9.32348 0,6.849536 -0.15008,7.360376 -2.25,7.658616 -2.1144,0.30029 -2.25,-0.0347 -2.25,-5.558866 0,-7.21902 -1.64153,-10.05808 -4.82917,-8.35211 -1.88411,1.00835 -2.17083,2.01567 -2.17083,7.62661 0,6.229136 -0.0911,6.464816 -2.5,6.464816 h -2.5 z m 21.92308,10.576916 c -5.10514,-5.105126 -3.23229,-12.829676 3.66229,-15.105096 4.66086,-1.53822 8.86455,-0.41427 11.8876,3.17842 2.90609,3.45369 3.14337,5.75721 1.01668,9.869776 -1.92649,3.72541 -4.31996,4.97998 -9.50083,4.97998 -3.2454,0 -4.77578,-0.63311 -7.06574,-2.92308 z m 11.07692,-3.076916 c 1.1,-1.1 2,-2.64286 2,-3.42857 0,-2.56248 -3.09767,-4.69443 -6.35738,-4.37543 -2.38574,0.23347 -3.33804,0.96633 -4.10442,3.15867 -0.85774,2.45372 -0.66915,3.12087 1.34273,4.75 2.98218,2.414816 4.62372,2.390676 7.11907,-0.10467 z m 11.65499,4.171256 c -1.09087,-1.2054 -1.65499,-3.591406 -1.65499,-6.999996 0,-3.93001 -0.36004,-5.17126 -1.5,-5.17126 -2.33281,0 -1.80106,-1.31587 2.03376,-5.03273 3.50191,-3.39417 3.53921,-3.40423 4.13772,-1.11554 0.41334,1.58062 1.15675,2.16494 2.35554,1.85146 0.96337,-0.25193 2.31697,-0.10863 3.008,0.31845 2.02495,1.25149 0.27134,3.97836 -2.55843,3.97836 -2.46137,0 -2.57146,0.22922 -2.28138,4.75 0.30186,4.704286 0.33607,4.746976 3.55479,4.436026 2.23163,-0.215586 3.25,0.11342 3.25,1.05 0,3.84851 -7.36642,5.22654 -10.34501,1.93523 z m 13.42174,-0.76015 c -5.82171,-4.898646 -3.11159,-14.563536 4.48327,-15.988336 6.91182,-1.29667 12.44,3.01871 12.44,9.71084 0,7.906746 -10.40162,11.765106 -16.92327,6.277496 z m 11.14794,-3.740386 c 1.13599,-1.78585 0.91655,-5.1295 -0.42467,-6.47072 -1.54692,-1.54692 -6.05308,-1.54692 -7.6,0 -1.70709,1.70709 -1.48428,5.37287 0.44376,7.3009 1.77993,1.779926 6.23062,1.292536 7.58091,-0.83018 z m 25.77533,-2.78422 v -9.1135 l 3.23554,0.47488 c 1.77955,0.26118 3.9962,-1.7e-4 4.92591,-0.58078 1.20297,-0.75127 2.43142,-0.718 4.26049,0.11538 1.77098,0.80691 3.36896,0.86732 5.1392,0.19428 4.05306,-1.54098 6.34206,-1.16447 8.98431,1.47778 1.94652,1.94652 2.45455,3.48158 2.45455,7.41667 0,2.9236 0.48473,5.123696 1.17991,5.355426 0.64895,0.21631 0.90754,1.10308 0.57465,1.97058 -0.46436,1.21011 -2.14177,1.58614 -7.20578,1.61536 -5.79346,0.0334 -6.78355,-0.24125 -8.09734,-2.24635 -2.10842,-3.217856 -0.86059,-5.461916 4.25695,-7.655556 2.67248,-1.14556 4.15034,-2.33023 3.73841,-2.99675 -0.67264,-1.08835 -3.28935,-0.86779 -6.6968,0.56447 -1.27563,0.53619 -1.75,0.26679 -1.75,-0.99385 0,-1.37153 -0.29062,-1.48824 -1.40435,-0.56393 -0.7799,0.64727 -2.52197,0.885 -3.91783,0.53466 -3.28141,-0.82358 -4.67782,1.70754 -4.67782,8.47899 0,4.736786 -0.16234,5.065736 -2.5,5.065736 -2.48379,0 -2.5,-0.0591 -2.5,-9.113496 z m 24,3.00651 c 0,-1.51045 -0.44784,-1.93514 -1.58179,-1.5 -0.86998,0.33384 -1.76998,0.60699 -2,0.60699 -0.23001,0 -0.41821,0.675 -0.41821,1.5 0,0.833326 0.88889,1.499996 2,1.499996 1.36719,0 2,-0.66667 2,-2.106986 z m 138.75,5.026886 c -1.89479,-1.10362 -2.42556,-4.919896 -0.68426,-4.919896 0.58616,0 1.97132,0.48465 3.07814,1.076996 1.10682,0.59235 2.73228,0.80076 3.61213,0.46313 1.24913,-0.47933 0.79915,-1.157886 -2.05317,-3.096076 -4.67571,-3.17724 -6.12893,-5.77938 -4.70916,-8.43224 2.27223,-4.24571 11.1979,-3.62861 11.83371,0.81815 0.30531,2.13524 0.0763,2.2426 -3.39456,1.59146 -4.35331,-0.81669 -4.05452,0.68861 0.6161,3.10388 6.25546,3.23482 4.19932,10.504796 -2.95392,10.444286 -1.97725,-0.0167 -4.38251,-0.48908 -5.34501,-1.04969 z m 15.25,-7.683676 c 0,-4.89659 0.25106,-9.15394 0.5579,-9.46079 0.30685,-0.30685 1.44854,-0.325 2.53709,-0.0403 1.80866,0.47297 1.95445,1.2606 1.6921,9.14124 -0.26901,8.080486 -0.42881,8.643796 -2.53709,8.943216 -2.18878,0.31086 -2.25,0.0773 -2.25,-8.583336 z m 10.45455,6.309226 c -1.8549,-1.8549 -2.45455,-3.518926 -2.45455,-6.811426 0,-6.91176 4.59705,-10.595 11.58694,-9.28369 2.80319,0.52588 3.41306,1.08702 3.41306,3.1403 0,2.31703 -0.25696,2.45179 -3.51096,1.84134 -4.33321,-0.81292 -6.48904,0.7536 -6.48904,4.71523 0,3.30962 2.88522,4.979716 7.1834,4.158066 3.02273,-0.577826 4.50988,1.15445 2.78025,3.23853 -2.05949,2.48153 -9.63373,1.87703 -12.5091,-0.99835 z m 41.54545,0.27787 c -4.70152,-3.156346 -7.41602,-8.792196 -6.52426,-13.545666 1.36765,-7.29023 10.73541,-13.13985 18.63885,-11.63888 5.17501,0.9828 6.88541,2.19912 6.88541,4.89641 0,2.91803 0.22437,2.87434 -4.53953,0.88386 -7.39007,-3.08777 -15.46047,1.00835 -15.46047,7.84694 0,6.08314 5.35197,9.587366 12.8104,8.38768 2.02928,-0.32641 4.54117,-0.71951 5.58197,-0.87356 2.45463,-0.36332 3.00329,1.296536 1.23013,3.721486 -1.09085,1.49183 -2.93605,2.00453 -8.26348,2.29607 -5.90984,0.32342 -7.34336,0.0502 -10.35902,-1.97434 z m 40,-6.753766 c 0,-9.04461 0.007,-9.06955 2.53893,-9.06955 h 2.53894 l -0.28894,8.75 c -0.27113,8.210906 -0.42755,8.769686 -2.53893,9.069546 -2.19143,0.31123 -2.25,0.0835 -2.25,-8.749996 z m 19.35878,7.423046 c -0.34775,-0.90623 0.0244,-2.30432 0.82693,-3.10689 2.00091,-2.000896 5.00211,-0.706366 4.61716,1.99157 -0.37927,2.65815 -4.52604,3.50769 -5.44409,1.11532 z m 9.30789,0.84073 c -1.26679,-1.26679 -0.66092,-4.12156 1.01087,-4.763086 2.12423,-0.81514 4.79302,1.761116 3.99059,3.852216 -0.60779,1.58387 -3.75524,2.15709 -5.00146,0.91087 z m 8.69496,-0.83333 c -0.7922,-2.06442 0.28192,-4.499996 1.98454,-4.499996 2.00186,0 3.98389,2.697496 3.29709,4.487266 -0.7497,1.95367 -4.53332,1.9628 -5.28163,0.0127 z M 5.8184035,98.317664 c -1.39265,-2.12545 -1.75408,-4.7237 -1.70405,-12.25 0.0679,-10.22419 1.27356,-14.05239 4.42549,-14.05239 2.7289595,0 4.0369695,3.05307 4.7009095,10.97253 0.81105,9.67414 -1.45007,17.938896 -4.9278595,18.012156 -0.39982,0.008 -1.52234,-1.198616 -2.49449,-2.682296 z m 667.3734365,1.20675 c -2.9363,-2.93629 -3.29113,-20.57727 -0.51812,-25.75914 1.31149,-2.45076 4.56315,-2.18033 6.01193,0.5 0.69721,1.28986 1.24328,6.32626 1.27968,11.80239 0.05,7.5263 -0.31141,10.12455 -1.70405,12.25 -2.01936,3.081916 -2.96836,3.307826 -5.06944,1.20675 z M 61.206503,84.348604 c -1.28111,-1.28111 -0.65241,-4.12482 1.05696,-4.78077 2.32319,-0.89149 4.70217,2.22947 3.13699,4.11539 -1.19072,1.43472 -3.11872,1.74061 -4.19395,0.66538 z m 361.243527,-0.94154 c -1.13436,-1.36682 -1.04699,-1.81859 0.58206,-3.00978 1.64699,-1.20431 2.11834,-1.19999 3.349,0.0307 1.65109,1.65109 0.89105,4.58732 -1.18742,4.58732 -0.77492,0 -2.00955,-0.7237 -2.74364,-1.60821 z m 91.66005,-0.0693 c -0.36417,-0.94904 0.0236,-2.34491 0.89302,-3.21429 1.38232,-1.38233 1.70121,-1.37228 3.17348,0.1 0.90021,0.90021 1.36434,2.34664 1.03139,3.21429 -0.80202,2.09003 -4.2837,2.02173 -5.09789,-0.1 z m -53.82024,-8.89444 c -2.05718,-1.11604 -2.75,-2.24756 -2.75,-4.49134 0,-1.79288 0.62652,-3.23987 1.55747,-3.59711 0.85661,-0.32871 1.34824,-1.14289 1.09252,-1.8093 -0.25572,-0.6664 -0.0903,-1.81787 0.36765,-2.55881 0.49971,-0.80856 0.26281,-2.16067 -0.59252,-3.38183 -2.0001,-2.85554 -1.78935,-4.31631 1.02943,-7.13509 2.0647,-2.0647 3.4147,-2.45454 8.5,-2.45454 5.37878,0 6.04545,0.22055 6.04545,2 0,1.1 -0.45,2 -1,2 -0.55,0 -1,1.32448 -1,2.9433 0,3.15719 -3.00714,6.0567 -6.28152,6.0567 -2.83445,0 -1.14211,1.66527 2.4154,2.37678 4.15392,0.83078 5.86612,2.3407 5.86612,5.17308 0,5.32922 -9.0704,8.23065 -15.25,4.87816 z m 9.8191,-3.53982 c 0.85099,-1.37694 -1.33699,-2.85246 -4.26008,-2.87289 -2.41217,-0.0169 -3.77146,1.42743 -2.80902,2.98469 0.83846,1.35666 6.21408,1.27164 7.0691,-0.1118 z m -2.0691,-15.31856 c 0,-2.21874 -1.41416,-2.90768 -3.39572,-1.65431 -1.89078,1.19596 -0.57256,4.3215 1.6427,3.89488 0.96416,-0.18568 1.75302,-1.19394 1.75302,-2.24057 z M 94.180003,71.322134 c -0.34255,-0.34255 -0.11259,-1.23759 0.51101,-1.98899 1.57698,-1.90014 0.31227,-2.80762 -3.45995,-2.48262 -2.46762,0.2126 -4.17454,-0.55707 -7.44636,-3.35762 l -4.24486,-3.63345 v 3.57793 c 0,3.16073 -0.29489,3.57792 -2.52903,3.57792 h -2.52902 l 0.27902,-13.25 c 0.27129,-12.882411 0.34145,-13.258866 2.52903,-13.569552 2.17776,-0.309291 2.25,-0.05395 2.25,7.952952 v 8.2725 l 3.79216,-3.70295 c 2.08569,-2.03662 4.78569,-3.70295 6,-3.70295 2.8838,0 2.80069,0.46365 -0.92662,5.16976 l -3.13446,3.95758 3.33063,3.43633 c 3.57885,3.69244 4.93829,4.25493 4.93829,2.04332 0,-2.93121 5.27123,-2.94851 6.39463,-0.021 1.203397,3.13602 -3.72577,9.74953 -5.75447,7.72082 z M 5.3237835,65.265304 c -1.54168,-3.63431 -1.4864,-21.09583 0.076,-24.000001 0.66574,-1.2375 2.07878,-2.25 3.14008,-2.25 3.2697495,0 4.4291295,3.795561 4.4291295,14.500001 0,6.13202 -0.4834,10.8703 -1.24975,12.25 -1.7396095,3.13193 -4.9616195,2.88003 -6.3954395,-0.5 z m 45.9867195,1.57383 c -2.12186,-0.57621 -5.03136,-2.49565 -6.75,-4.45308 -5.61171,-6.39138 -3.41552,-17.05737 4.26241,-20.700786 7.30525,-3.46657 17.1961,-1.211231 20.83125,4.749996 2.8471,4.66892 2.52139,11.67109 -0.72218,15.52586 -1.43433,1.70459 -3.34683,3.48686 -4.25,3.96059 -2.87557,1.50828 -9.51755,1.96399 -13.37148,0.91742 z m 9.1105,-4.93225 c 3.31704,-1.15633 6.11884,-5.24023 6.11884,-8.91884 0,-1.16962 -1.31539,-3.44197 -2.92308,-5.04966 -4.1162,-4.1162 -10.03765,-4.1162 -14.15385,0 -1.60769,1.60769 -2.92307,3.83651 -2.92307,4.95294 0,3.59526 2.37169,7.3756 5.47576,8.72804 3.76192,1.63907 4.45987,1.66294 8.4054,0.28752 z m 67.118837,5.41444 c -2.80984,-1.00421 -4,-3.68123 -4,-8.99715 0,-4.05233 -0.35503,-5.30887 -1.5,-5.30887 -2.4332,0 -1.73428,-1.58393 1.93328,-4.38131 3.94244,-3.00705 4.56672,-3.16906 4.56672,-1.18511 0,0.8192 1.17487,1.56918 2.74145,1.75 1.65345,0.19084 2.87316,1.01094 3.07332,2.06642 0.25774,1.35905 -0.35471,1.75 -2.74145,1.75 -3.0274,0 -3.07332,0.0758 -3.07332,5.07537 v 5.07536 l 3.2348,-0.32536 c 4.26009,-0.4285 5.20728,2.67585 1.27286,4.17172 -2.86513,1.08932 -3.26183,1.11157 -5.50766,0.30893 z m 17.75,-0.43119 c -1.55562,-0.58916 -2.75,-1.80156 -2.75,-2.7915 0,-2.53341 0.99703,-3.15529 3.18307,-1.98536 1.05605,0.56519 2.90939,0.8782 4.11851,0.69559 1.93387,-0.29207 1.70333,-0.65183 -1.91582,-2.98963 -4.6892,-3.02902 -5.82286,-5.73487 -3.68279,-8.79025 1.21295,-1.73173 2.32722,-2.06108 6.13947,-1.8147 3.9975,0.25836 4.70396,0.62836 4.98495,2.61085 0.30387,2.14385 0.0703,2.26161 -3.25,1.63871 -2.35971,-0.44268 -3.57739,-0.29286 -3.57739,0.44017 0,0.61121 0.41547,1.11129 0.92327,1.11129 1.75737,0 7.07673,5.18484 7.07673,6.89776 0,4.47075 -5.80538,7.03908 -11.25,4.97707 z m 34.64547,0.0441 c -6.32951,-1.83637 -11.12948,-9.19276 -9.98361,-15.3008 1.71693,-9.152 12.22778,-14.079915 22.43892,-10.520292 2.4082,0.839502 3.14922,1.690502 3.14922,3.616632 0,2.15903 -0.32138,2.41584 -2.25,1.79791 -4.00278,-1.28249 -8.68514,-1.74546 -11.21961,-1.10935 -6.36164,1.59667 -8.67993,9.53835 -4.11651,14.10177 4.00379,4.00379 8.19894,4.22128 16.33612,0.8469 0.83547,-0.34645 1.25,0.46478 1.25,2.44627 0,2.67343 -0.43637,3.07449 -4.44282,4.08333 -5.10009,1.28422 -6.84474,1.2901 -11.16171,0.0376 z m 62.85453,-0.37081 c -2.68817,-1.20063 -3.25,-2.00531 -3.25,-4.65482 0,-3.10357 0.0602,-3.14879 1.93414,-1.45289 1.06378,0.96271 3.42628,1.81995 5.25,1.90499 2.77811,0.12954 3.31586,-0.19545 3.31586,-2.0039 0,-1.478 -1.57632,-3.21195 -5,-5.5 -4.29276,-2.86884 -5.04314,-3.85916 -5.30499,-7.00131 -0.45608,-5.47292 2.76197,-8.157398 9.07698,-7.571944 5.51957,0.511711 5.42383,0.45095 5.88023,3.731764 0.25574,1.83835 -0.0492,2.38902 -1.15222,2.08068 -0.825,-0.23063 -3.1875,-0.6154 -5.25,-0.85504 -4.58144,-0.53232 -5.15966,1.70395 -1.15777,4.47767 6.79673,4.71085 8.7411,6.9788 8.7411,10.19576 0,6.09149 -6.70375,9.49839 -13.08333,6.64904 z m 18.8846,-0.23804 c -1.658,-1.34256 -2.41763,-3.2139 -2.75034,-6.77544 -0.25282,-2.70632 -0.96991,-5.53537 -1.59354,-6.2868 -0.88553,-1.067 -0.42742,-2.06506 2.09167,-4.55703 2.99188,-2.95966 3.32016,-3.06403 4.53181,-1.4408 0.71846,0.9625 2.26918,1.75 3.44604,1.75 1.47309,0 2.13976,0.62312 2.13976,2 0,1.46667 -0.66667,2 -2.5,2 -2.33333,0 -2.5,0.33333 -2.5,5 0,4.33883 0.26534,5 2.00661,5 1.10364,0 2.97489,-1.11362 4.15835,-2.47471 1.18345,-1.36108 3.65547,-2.97098 5.49338,-3.57755 1.83791,-0.60656 3.34166,-1.53207 3.34166,-2.05668 0,-1.80058 -3.01695,-2.10997 -5.3931,-0.55306 -2.60073,1.70406 -3.6069,1.29414 -3.6069,-1.46948 0,-2.30442 2.94312,-3.86852 7.27927,-3.86852 4.9334,0 6.72073,2.47256 6.72073,9.29736 0,4.60237 0.27594,5.53398 1.5,5.06427 2.15037,-0.82518 1.91985,2.35632 -0.25,3.45034 -2.42031,1.22029 -11.90011,0.7233 -13.63282,-0.71472 -0.91189,-0.7568 -1.54736,-0.81483 -1.76993,-0.16163 -0.70567,2.07098 -6.31956,2.31226 -8.71265,0.37445 z m 17.68872,-4.64294 c 0.18707,-0.96457 -0.31483,-1.66713 -1.19098,-1.66713 -1.85773,0 -2.97896,1.63015 -2.09972,3.05279 0.90454,1.46356 2.90118,0.62281 3.2907,-1.38566 z m 135.81154,4.26029 c -2.26825,-1.78421 -2.63486,-2.82774 -2.63486,-7.5 0,-4.43668 -0.30962,-5.42742 -1.69617,-5.42742 -1.27181,0 -0.84745,-0.87565 1.69617,-3.5 3.68559,-3.80256 5,-4.32833 5,-2 0,1.00755 1.00773,1.5 3.06955,1.5 2.60562,0 3.02125,0.33773 2.75,2.23455 -0.23257,1.62632 -1.00003,2.23875 -2.81955,2.25 -2.29401,0.0142 -2.5,0.38624 -2.5,4.51545 0,4.4405 0.043,4.49805 3.25,4.35255 2.59062,-0.11753 3.25,0.24254 3.25,1.77475 0,1.14322 -1.03951,2.31742 -2.5651,2.89745 -3.48234,1.32398 -3.78365,1.27536 -6.80004,-1.09733 z m 20.36514,1.20298 c -1.76936,-0.50214 -2.59458,-1.52344 -2.82362,-3.49453 -0.29184,-2.51151 -0.12642,-2.6795 1.68426,-1.71045 2.30328,1.23267 6.15774,1.43772 6.10141,0.32458 -0.0209,-0.4125 -1.82087,-1.98322 -4,-3.4905 -6.59271,-4.56009 -4.84943,-9.7595 3.27221,-9.7595 3.54055,0 5.76574,1.46187 5.76574,3.7879 0,1.06518 -0.93009,1.23076 -4,0.7121 -2.2,-0.37169 -4,-0.41763 -4,-0.10209 0,0.31554 1.8,1.7649 4,3.22079 5.98906,3.96337 5.47719,9.42051 -1.00559,10.72085 -1.37193,0.27519 -3.61941,0.18107 -4.99441,-0.20915 z m 46.5,-0.0432 c -5.98922,-2.54877 -7.85153,-10.95519 -3.46205,-15.62758 3.35452,-3.57071 10.01411,-3.48017 12.88947,0.17526 1.13992,1.44917 2.07258,3.69917 2.07258,5 0,2.22406 -0.3579,2.36514 -6,2.36514 -6.0858,0 -7.21034,0.75062 -4.49752,3.00206 1.42669,1.18405 4.83679,0.97392 8.74752,-0.53902 1.30622,-0.50533 1.75,-0.17376 1.75,1.30753 0,1.0915 -0.5625,2.44937 -1.25,3.0175 -1.8272,1.50994 -7.93541,2.2841 -10.25,1.29911 z m 6.5,-12.02816 c 0,-1.57221 -1.97772,-2.28143 -4.55684,-1.63411 -3.63593,0.91256 -2.95362,2.57509 1.05684,2.57509 1.925,0 3.5,-0.42344 3.5,-0.94098 z m 11.5,11.74603 c -3.01115,-1.70751 -3.46799,-2.82906 -3.48469,-8.55505 -0.0124,-4.26384 -0.33392,-5.25 -1.71148,-5.25 -1.27181,0 -0.84745,-0.87565 1.69617,-3.5 3.68559,-3.80256 5,-4.32833 5,-2 0,1 1,1.5 3,1.5 2.33333,0 3,0.44444 3,2 0,1.56353 -0.66667,2 -3.05479,2 -3.02042,0 -3.05136,0.0534 -2.75,4.75 0.29933,4.66489 0.36302,4.74736 3.55479,4.60255 2.59062,-0.11753 3.25,0.24254 3.25,1.77475 0,1.14322 -1.03951,2.31742 -2.5651,2.89745 -3.15862,1.20091 -3.44865,1.19017 -5.9349,-0.2197 z m 21.02863,-0.16046 c -1.10759,-0.80988 -1.58316,-2.2717 -1.36442,-4.1939 0.31034,-2.72706 2.74076,-4.7167 8.33579,-6.82405 0.614,-0.23125 0.52797,-0.87763 -0.22287,-1.67451 -1.00154,-1.06296 -1.72554,-1.04614 -4,0.0929 -1.52742,0.76493 -3.11463,1.55522 -3.52713,1.7562 -1.2389,0.60363 -0.84439,-4.30685 0.45,-5.60124 0.66,-0.66 3.06526,-1.2 5.34501,-1.2 5.50891,0 7.45499,2.21065 7.45499,8.4685 0,3.42271 0.50499,5.18411 1.75,6.10393 2.75049,2.0321 0.34625,3.48661 -6.4911,3.92699 -3.80908,0.24534 -6.65628,-0.0695 -7.73027,-0.85483 z m 7.09708,-4.1116 c 1.00232,-2.612 -0.005,-3.70755 -2.04002,-2.21931 -1.04093,0.76115 -1.57121,1.90073 -1.17945,2.53462 0.98493,1.59364 2.5456,1.44079 3.21947,-0.31531 z m 64.62429,3.9624 c -1.85637,-1.32735 -2.25,-2.55238 -2.25,-7.0024 0,-4.09633 -0.42091,-5.6296 -1.75,-6.37476 -1.59293,-0.8931 -1.48638,-1.25658 1.18709,-4.0497 3.16342,-3.30499 5.56291,-3.98156 5.56291,-1.56853 0,0.93333 0.94444,1.5 2.5,1.5 1.83333,0 2.5,0.53333 2.5,2 0,1.46667 -0.66667,2 -2.5,2 -2.33333,0 -2.5,0.33333 -2.5,5 0,4.33883 0.26534,5 2.00661,5 1.10364,0 2.97489,-1.11362 4.15835,-2.47471 1.18345,-1.36108 3.65547,-2.97098 5.49338,-3.57755 1.83791,-0.60656 3.34166,-1.53207 3.34166,-2.05668 0,-1.82373 -3.0304,-2.10116 -5.47254,-0.50101 -3.21207,2.10463 -3.52746,2.04294 -3.52746,-0.69005 0,-3.35942 1.86684,-4.7 6.54501,-4.7 5.73124,0 7.45499,2.14974 7.45499,9.29736 0,4.60237 0.27594,5.53398 1.5,5.06427 2.15001,-0.82504 1.91993,2.35506 -0.25,3.45541 -2.49174,1.26354 -11.78974,0.80983 -13.56297,-0.66182 -0.93984,-0.77999 -1.62113,-0.86132 -1.83978,-0.2196 -0.64611,1.89618 -6.22058,2.25914 -8.59725,0.55977 z m 17.37571,-3.9624 c 1.00232,-2.612 -0.005,-3.70755 -2.04002,-2.21931 -1.04093,0.76115 -1.57121,1.90073 -1.17945,2.53462 0.98493,1.59364 2.5456,1.44079 3.21947,-0.31531 z m 62.20087,3.21701 c -1.69901,-3.07348 -1.72553,-21.52643 -0.0352,-24.500001 1.55009,-2.726903 4.77176,-2.934824 6.13067,-0.395664 2.86944,5.361595 2.00145,24.304125 -1.20709,26.342995 -2.09207,1.32941 -3.60024,0.88288 -4.88837,-1.44733 z m -558.00043,-6.85363 c -0.35987,-8.94135 0.0198,-10.26411 2.79368,-9.73351 1.64184,0.31406 1.91679,1.46736 2.1691,9.09839 0.28758,8.69767 0.27736,8.73875 -2.17385,8.73875 -2.38761,0 -2.47274,-0.24737 -2.78893,-8.10363 z m 85.17385,-5.39637 V 40.015273 l 7.25,0.02196 c 12.82518,0.03885 18.75,4.555471 18.75,14.293521 0,8.65533 -5.70185,12.68452 -17.95034,12.68452 h -8.04966 z m 17.8963,6.38199 c 2.90669,-2.708 3.71331,-6.70521 1.97724,-9.79823 -1.89194,-3.37072 -5.41332,-5.05095 -10.62354,-5.06902 l -4.25,-0.0147 v 8.33333 c 0,4.58334 0.18728,8.52084 0.41618,8.75 1.20198,1.2034 10.60603,-0.45536 12.48012,-2.20134 z m 320.1037,-1.79503 v -8.91303 l 6.53679,-0.0502 c 9.00428,-0.0691 10.46321,1.44741 10.46321,10.87624 0,6.8 -0.0714,7 -2.5,7 -2.35906,0 -2.5,-0.30545 -2.5,-5.41821 0,-6.57198 -0.6808,-8.58179 -2.90699,-8.58179 -2.97101,0 -4.09301,2.24783 -4.09301,8.2 0,5.52 -0.12069,5.8 -2.5,5.8 -2.47967,0 -2.5,-0.0725 -2.5,-8.91304 z m 22.45455,6.45849 c -3.58078,-3.58077 -3.48699,-10.58817 0.18031,-13.47287 1.45941,-1.14797 4.11044,-2.07258 5.9425,-2.07258 3.17644,0 3.31984,-0.16858 3.61514,-4.25 0.25563,-3.533025 0.68708,-4.303909 2.5575,-4.569552 2.23849,-0.317916 2.25,-0.250142 2.25,13.250002 v 13.56955 h -6.04545 c -5.0853,0 -6.4353,-0.38984 -8.5,-2.45455 z m 9.54545,-6.54545 c 0,-3.87108 -0.35352,-5 -1.56574,-5 -3.13724,0 -5.43426,2.04379 -5.43426,4.83518 0,3.36745 1.63562,5.16482 4.7,5.16482 2.09333,0 2.3,-0.44928 2.3,-5 z m 51,-4.56955 c 0,-13.500144 0.0115,-13.567918 2.25,-13.250002 2.18758,0.310686 2.25774,0.687141 2.52903,13.569552 l 0.27902,13.25 h -2.52902 -2.52903 z m 8.22097,0.31955 c 0.27129,-12.882411 0.34145,-13.258866 2.52903,-13.569552 2.17776,-0.309291 2.25,-0.05396 2.25,7.952952 v 8.2725 l 3.79216,-3.70295 c 2.08569,-2.03662 4.78569,-3.70295 6,-3.70295 2.88434,0 2.80094,0.46334 -0.93165,5.17612 l -3.13948,3.96392 4.34769,4.42998 4.3477,4.42998 h -3.02821 c -2.02786,0 -4.40905,-1.18195 -7.20821,-3.57792 l -4.18,-3.57793 v 3.57793 c 0,3.16073 -0.29489,3.57792 -2.52903,3.57792 h -2.52902 z m -492.59597,-6.875 c -1.23706,-6.18532 -0.83476,-7.875001 1.875,-7.875001 2.2413,0 2.5,0.405452 2.5,3.918211 0,2.15502 -0.27314,4.63002 -0.60699,5.5 -1.01083,2.6342 -3.10398,1.77694 -3.76801,-1.54321 z m 289.95905,1.95816 c -2.0324,-6.49759 -1.50515,-9.833161 1.55432,-9.833161 2.54733,0 3.25898,2.159942 2.19456,6.660781 -0.89241,3.77345 -3.00238,5.55896 -3.74888,3.17238 z m -312.2213,-3.33024 c -0.34557,-0.90055 -0.16636,-2.09931 0.39825,-2.66392 1.6301,-1.630103 4.739,-0.53146 4.739,1.67469 0,2.54367 -4.22832,3.35788 -5.13725,0.98923 z m 188.80721,-0.67288 c 0.42644,-3.01064 4.33004,-3.308179 4.33004,-0.33004 0,1.33333 -0.77668,2.11001 -2.33004,2.33004 -1.93881,0.27462 -2.27462,-0.0612 -2,-2 z M 5.7003735,33.265273 c -0.50041,-0.9625 -1.23288,-4.411584 -1.62771,-7.66463 -0.49245,-4.057342 -1.33607,-6.415211 -2.68654,-7.508757 -2.27251001,-1.840168 -1.66500001,-4.681987 1.19495,-5.589698 1.02105,-0.32407 2.12191,-1.425563 2.44634,-2.447762 1.33251,-4.1983605 5.7826495,-4.9378245 6.7793295,-1.1264965 0.35578,1.3604855 1.9055,1.9249715 6.64464,2.4203105 7.33003,0.766139 10.08846,2.042221 10.08846,4.667034 0,2.512454 -2.23109,3.595518 -9.12871,4.431451 l -5.6287,0.682151 -0.67869,5.116171 c -0.37327,2.813894 -1.11869,5.938334 -1.65648,6.943199 -1.24163,2.320019 -4.5576395,2.364464 -5.7468895,0.07703 z M 672.63241,33.188243 c -0.53779,-1.004865 -1.2832,-4.129305 -1.65648,-6.943199 l -0.67868,-5.116171 -5.62871,-0.682151 c -6.89761,-0.835933 -9.1287,-1.918997 -9.1287,-4.431451 0,-2.624813 2.75843,-3.900895 10.08846,-4.667034 4.73914,-0.495339 6.28886,-1.059825 6.64463,-2.4203105 0.99669,-3.811328 5.44683,-3.071864 6.77934,1.1264965 0.32443,1.022199 1.42528,2.123692 2.44634,2.447762 2.84471,0.902875 3.46912,3.74818 1.2219,5.56787 -1.25205,1.013852 -2.20586,3.503209 -2.68544,7.008757 -0.40906,2.990052 -1.12669,6.448958 -1.59473,7.686458 -1.03184,2.728145 -4.44135,2.976449 -5.80793,0.422973 z M 38.774483,20.015541 c -2.34595,-0.495672 -4.70845,-1.175064 -5.25,-1.509762 -1.6554,-1.023089 -1.09643,-4.36031 0.9102,-5.434226 4.93999,-2.643805 21.84781,-2.427373 25.61588,0.327901 2.25771,1.650877 1.20048,5.188547 -1.79384,6.002493 -4.26949,1.160577 -15.25581,1.506591 -19.48224,0.613594 z m 33.76536,0.134292 c -5.54745,-0.846224 -7,-1.70912 -7,-4.158392 0,-3.306521 3.80598,-4.464171 14.6578,-4.458408 8.55905,0.0045 10.4871,0.303404 12.25,1.898806 1.15071,1.041375 2.0922,2.263292 2.0922,2.71537 0,3.103093 -12.72265,5.417819 -22,4.002624 z m 32.499997,0.0071 c -5.109707,-0.909237 -6.499997,-1.800199 -6.499997,-4.165492 0,-3.228543 3.824467,-4.44199 13.999997,-4.44199 10.19677,0 14,1.213181 14,4.465823 0,1.061297 -0.80134,2.358494 -1.78075,2.882659 -2.476,1.325115 -14.89261,2.117868 -19.71925,1.259 z m 32.18209,-0.0526 c -6.89941,-1.439008 -8.6184,-6.219693 -2.82179,-7.847691 4.31429,-1.211684 20.41144,-0.807868 22.8897,0.574215 2.71488,1.514042 2.93922,4.745192 0.42294,6.09186 -2.55793,1.368961 -15.90295,2.13851 -20.49085,1.181616 z m 31.31791,-0.356895 c -5.34393,-1.463245 -6.67065,-4.721411 -2.81068,-6.902511 3.0907,-1.746426 21.48877,-1.770754 24.56068,-0.03248 2.73374,1.546921 2.93306,4.766893 0.37967,6.133427 -3.08372,1.650358 -17.16681,2.160463 -22.12967,0.801561 z m 34.23464,0.260042 c -5.40318,-1.131418 -6.23464,-1.667 -6.23464,-4.016039 0,-3.281619 3.81233,-4.452183 14.5,-4.452183 10.22235,0 14.5,1.176545 14.5,3.988147 0,0.79297 -1.0125,2.095581 -2.25,2.894693 -2.83619,1.831465 -14.89128,2.763056 -20.51536,1.585382 z m 33.26536,0.157477 c -2.2,-0.395888 -4.5625,-1.068079 -5.25,-1.493757 -1.93643,-1.198979 -1.47621,-4.464494 0.80096,-5.683197 3.3422,-1.788694 15.16456,-2.360404 20.80912,-1.006295 4.39015,1.05318 5.13992,1.578046 5.13992,3.598123 0,1.302154 -0.856,2.82319 -1.90466,3.384415 -2.5429,1.360919 -14.59957,2.099696 -19.59534,1.200711 z m 32.73013,-0.03481 c -2.34843,-0.415035 -4.75313,-1.237869 -5.34378,-1.828521 -2.0496,-2.049598 -0.44755,-4.756536 3.62731,-6.128967 4.56046,-1.535982 17.94904,-1.050488 21.3591,0.774518 2.64222,1.414073 2.76221,4.657903 0.22258,6.017071 -2.58983,1.386039 -14.62333,2.092291 -19.86521,1.165899 z m 32.98353,-0.01021 c -7.31289,-1.277475 -9.39754,-6.165763 -3.35336,-7.86329 4.27501,-1.200649 20.40699,-0.788711 22.8897,0.5845 2.69442,1.490312 2.94553,4.731526 0.46925,6.056791 -2.52746,1.352655 -14.92324,2.109826 -20.00559,1.221999 z m 32.02098,-0.104391 c -2.34595,-0.495672 -4.70845,-1.175064 -5.25,-1.509762 -1.76846,-1.092966 -1.03536,-4.391435 1.26536,-5.693329 3.03143,-1.715373 21.46857,-1.715373 24.5,0 3.06248,1.732944 2.89856,5.005744 -0.31186,6.226341 -3.80869,1.448061 -15.33538,2.005326 -20.2035,0.97675 z m 33.26536,0.0895 c -5.08358,-0.838649 -6.5,-1.735052 -6.5,-4.113609 0,-2.700143 3.0697,-4.014539 10.91104,-4.671928 7.86361,-0.659257 16.63379,1.067236 17.55002,3.454887 1.73381,4.518232 -9.84668,7.329188 -21.96106,5.33065 z m 33,0.05188 c -5.10971,-0.909237 -6.5,-1.800199 -6.5,-4.165492 0,-3.228543 3.82447,-4.44199 14,-4.44199 10.19677,0 14,1.213181 14,4.465823 0,1.061297 -0.80134,2.358494 -1.78075,2.882659 -2.476,1.325115 -14.89261,2.117868 -19.71925,1.259 z m 32.73013,-0.04899 c -2.34843,-0.402822 -4.75313,-1.215664 -5.34378,-1.806316 -2.0496,-2.049598 -0.44755,-4.756536 3.62731,-6.128967 4.56046,-1.535982 17.94904,-1.050488 21.3591,0.774518 2.57505,1.37813 2.78374,4.652262 0.37724,5.918625 -2.51981,1.32599 -15.01225,2.101088 -20.01987,1.24214 z m 32.57227,0.01595 c -6.614,-1.389384 -8.80352,-4.905885 -4.5524,-7.311438 3.03143,-1.715373 21.46857,-1.715373 24.5,0 2.71505,1.536346 2.93846,4.764001 0.42294,6.110267 -2.53227,1.35523 -15.88814,2.142774 -20.37054,1.201171 z m 32.6976,0.03694 c -2.2,-0.393618 -4.5625,-1.063952 -5.25,-1.48963 -1.88056,-1.164381 -1.50212,-4.450629 0.64484,-5.599647 4.94,-2.643805 21.84782,-2.427373 25.61588,0.327901 2.26438,1.655753 1.1899,5.224906 -1.79655,5.967703 -4.22482,1.050805 -15.23508,1.505602 -19.21417,0.793673 z m 33,-0.05578 c -5.08358,-0.838649 -6.5,-1.735052 -6.5,-4.113609 0,-2.700143 3.0697,-4.014539 10.91104,-4.671928 7.86361,-0.659257 16.63379,1.067236 17.55002,3.454887 1.76064,4.588155 -9.6592,7.360117 -21.96106,5.33065 z m 32.46603,-0.05356 c -4.82593,-0.889199 -5.96603,-1.753793 -5.96603,-4.524331 0,-2.080011 0.70312,-2.516052 5.74489,-3.56272 6.15486,-1.277743 16.9477,-0.719232 20.24958,1.047881 2.59817,1.390495 2.57242,4.6292 -0.048,6.031578 -2.43264,1.301908 -14.95575,1.93344 -19.98049,1.007601 z m 32.71606,0.05284 c -6.89941,-1.439008 -8.6184,-6.219693 -2.82179,-7.847691 4.31429,-1.211684 20.41144,-0.807868 22.8897,0.574215 2.71488,1.514042 2.93922,4.745192 0.42294,6.09186 -2.55793,1.368961 -15.90295,2.13851 -20.49085,1.181616 z m 32.55255,-0.09133 c -2.34595,-0.494278 -4.70845,-1.17253 -5.25,-1.507228 -1.76846,-1.092966 -1.03536,-4.391435 1.26536,-5.693329 3.03143,-1.715373 21.46857,-1.715373 24.5,0 2.71505,1.536346 2.93846,4.764001 0.42294,6.110267 -2.68289,1.435842 -16.00562,2.129577 -20.9383,1.09029 z"
     id="path1306"
     inkscape:connector-curvature="0" />
</svg>
