<?xml version="1.0" encoding="UTF-8" standalone="no"?>
<!-- Created with Inkscape (http://www.inkscape.org/) -->

<svg
   xmlns:dc="http://purl.org/dc/elements/1.1/"
   xmlns:cc="http://creativecommons.org/ns#"
   xmlns:rdf="http://www.w3.org/1999/02/22-rdf-syntax-ns#"
   xmlns:svg="http://www.w3.org/2000/svg"
   xmlns="http://www.w3.org/2000/svg"
   xmlns:sodipodi="http://sodipodi.sourceforge.net/DTD/sodipodi-0.dtd"
   xmlns:inkscape="http://www.inkscape.org/namespaces/inkscape"
   version="1.1"
   id="svg4184"
   width="1663"
   height="1663"
   viewBox="0 0 1663 1663"
   sodipodi:docname="Patch1.jpg.svg"
   inkscape:version="0.92.1 r15371">
  <metadata
     id="metadata4190">
    <rdf:RDF>
      <cc:Work
         rdf:about="">
        <dc:format>image/svg+xml</dc:format>
        <dc:type
           rdf:resource="http://purl.org/dc/dcmitype/StillImage" />
        <dc:title></dc:title>
      </cc:Work>
    </rdf:RDF>
  </metadata>
  <defs
     id="defs4188" />
  <sodipodi:namedview
     pagecolor="#ffffff"
     bordercolor="#666666"
     borderopacity="1"
     objecttolerance="10"
     gridtolerance="10"
     guidetolerance="10"
     inkscape:pageopacity="0"
     inkscape:pageshadow="2"
     inkscape:window-width="731"
     inkscape:window-height="480"
     id="namedview4186"
     showgrid="false"
     inkscape:zoom="0.14191221"
     inkscape:cx="831.5"
     inkscape:cy="831.5"
     inkscape:window-x="0"
     inkscape:window-y="27"
     inkscape:window-maximized="0"
     inkscape:current-layer="svg4184" />
  <path
     style="fill:#000000"
     d="m 15.223093,1660.5682 c -1.390281,-1.3903 -2.71554,-4.2061 -3.094249,-6.5744 -0.614234,-3.8412 -1.049678,-4.3139 -5.9857516,-6.4968 -3.926935,-1.7367 -5.49310102,-3.0307 -5.97053202,-4.9329 -0.872672,-3.477 1.63700502,-7.1 5.89067202,-8.5038 l 3.388243,-1.1183 0.5943946,-11.221 c 0.942165,-17.7862 3.982745,-25.721 9.856198,-25.721 5.497898,0 8.560942,8.047 9.557707,25.1092 l 0.561364,9.6092 11.612345,0.5726 c 16.953735,0.8359 25.112345,3.8781 25.112345,9.364 0,5.8763 -8.535599,9.0939 -26.574626,10.0176 l -12.074627,0.6183 -1.293421,4.3805 c -2.126776,7.203 -7.149824,9.327 -11.580062,4.8968 z m 1605.863307,0.9578 c -1.1575,-0.8107 -2.7059,-3.5107 -3.4409,-6 l -1.3363,-4.526 -6.0317,-0.01 c -17.4157,-0.022 -30.8823,-3.5567 -32.1046,-8.427 -1.7062,-6.798 6.068,-10.3476 24.6852,-11.271 l 11.6124,-0.576 0.5614,-9.6092 c 1.0067,-17.2302 4.0539,-25.1068 9.7139,-25.1068 5.7976,0 8.7099,7.8633 9.7116,26.2214 l 0.585,10.7214 3.3871,1.1178 c 4.2527,1.4035 6.7622,5.0268 5.8896,8.5035 -0.4775,1.9022 -2.0436,3.1962 -5.9706,4.9329 -4.936,2.1829 -5.3715,2.6556 -5.9857,6.4968 -0.7204,4.5048 -4.3935,9.0062 -7.349,9.0062 -1.0027,0 -2.77,-0.6633 -3.9274,-1.474 z M 95.037322,1649.9383 c -8.79804,-1.145 -15.04256,-4.0983 -15.90144,-7.5203 -1.34871,-5.3737 3.46639,-8.6114 15.60995,-10.4961 10.121408,-1.571 35.765828,-0.6597 42.752888,1.5192 9.61643,2.9988 11.00988,10.0069 2.71895,13.6744 -7.8407,3.4683 -29.71855,4.8352 -45.180348,2.8228 z m 80.208508,0.093 c -11.81228,-1.3687 -17.5,-4.304 -17.5,-9.0311 0,-6.3154 7.89832,-9.01 28.5,-9.723 16.15751,-0.5593 27.60869,0.6426 33.5,3.516 3.08516,1.5047 3.53662,2.2143 3.80897,5.9871 0.30176,4.1803 0.20827,4.3247 -4.00401,6.188 -7.87588,3.4839 -28.41714,4.904 -44.30496,3.063 z m 78.49242,0 c -11.51935,-1.4926 -16.99242,-4.3999 -16.99242,-9.0313 0,-6.3154 7.89832,-9.01 28.5,-9.723 16.15751,-0.5593 27.60869,0.6426 33.5,3.516 3.08516,1.5047 3.53662,2.2143 3.80897,5.9871 0.30176,4.1803 0.20827,4.3247 -4.00401,6.188 -7.86917,3.4809 -29.8994,4.9844 -44.81254,3.0583 z m 81.00758,0.2762 c -13.04446,-1.3879 -19,-4.3057 -19,-9.3087 0,-6.3087 7.46725,-8.9464 27.51354,-9.7187 16.08486,-0.6196 28.63248,0.7334 34.4836,3.7184 3.67195,1.8733 4.00286,2.3758 4.00286,6.0781 0,3.7871 -0.26219,4.1518 -4.25401,5.9176 -7.25723,3.2102 -28.34925,4.8451 -42.74599,3.3133 z m 79,0.071 c -14.22512,-1.8027 -19,-4.3176 -19,-10.0075 0,-3.1376 0.42275,-3.6707 4.25602,-5.3663 6.07447,-2.687 15.50242,-3.9916 28.74398,-3.9775 14.17074,0.015 23.85328,1.3469 29.04411,3.9951 3.40994,1.7396 3.95589,2.477 3.95589,5.3428 0,4.2695 -2.50724,6.5294 -9.23683,8.3256 -5.21998,1.3933 -30.99618,2.5453 -37.76317,1.6878 z m 79,0 c -14.15652,-1.794 -19,-4.3256 -19,-9.931 0,-2.9373 0.52311,-3.6739 3.79382,-5.3425 11.92742,-6.0849 54.12082,-5.0477 60.65968,1.4912 2.15682,2.1568 1.9295,6.747 -0.44033,8.8917 -1.09276,0.9889 -4.35526,2.4302 -7.25,3.2028 -5.21998,1.3933 -30.99618,2.5453 -37.76317,1.6878 z m 75.62288,-0.4432 c -3.78241,-0.5249 -8.87145,-1.8366 -11.30897,-2.9148 -4.3449,-1.9219 -4.42579,-2.0444 -4.12288,-6.2406 0.27235,-3.7728 0.72381,-4.4824 3.80897,-5.9871 5.89131,-2.8734 17.34249,-4.0753 33.5,-3.516 20.60168,0.713 28.5,3.4076 28.5,9.723 0,6.2087 -8.18733,8.8842 -29,9.4769 -7.975,0.2271 -17.5947,-0.017 -21.37712,-0.5414 z m 79,0 c -3.78241,-0.5249 -8.87145,-1.8366 -11.30897,-2.9148 -4.3449,-1.9219 -4.42579,-2.0444 -4.12288,-6.2406 0.27235,-3.7728 0.72381,-4.4824 3.80897,-5.9871 5.89131,-2.8734 17.34249,-4.0753 33.5,-3.516 20.60168,0.713 28.5,3.4076 28.5,9.723 0,6.1486 -8.54471,8.9474 -29,9.4989 -7.975,0.215 -17.5947,-0.039 -21.37712,-0.5634 z m 79.37712,0.1045 c -7.67433,-0.9918 -14.73969,-3.6259 -15.85194,-5.9101 -0.43648,-0.8963 -0.53585,-2.9797 -0.22083,-4.6297 1.19599,-6.2643 13.89112,-9.0427 37.57277,-8.223 20.60168,0.713 28.5,3.4076 28.5,9.723 0,6.1513 -8.54772,8.9496 -29,9.4938 -7.975,0.2123 -17.425,0.01 -21,-0.454 z m 78.29149,-0.1015 c -12.90633,-1.6797 -18.74377,-6.5467 -14.89586,-12.4194 3.00392,-4.5845 10.65478,-6.0189 32.10437,-6.0189 15.37953,0 20.09455,0.3385 24.74413,1.7762 10.11818,3.1288 11.73816,10.0747 3.22771,13.8393 -7.8407,3.4683 -29.71855,4.8352 -45.18035,2.8228 z m 79.70093,0.161 c -11.78656,-1.6782 -16.99242,-4.4911 -16.99242,-9.1817 0,-3.5897 3.48041,-6.327 10.2616,-8.0706 8.19291,-2.1067 40.62624,-1.838 47.85758,0.3965 6.52975,2.0177 7.9765,3.4169 8.10215,7.8362 0.10919,3.8404 -1.67391,5.3751 -8.70395,7.4913 -5.81525,1.7506 -32.02256,2.7389 -40.52496,1.5283 z m 79,-0.073 c -11.51935,-1.4876 -16.99242,-4.3949 -16.99242,-9.0263 0,-6.3154 7.89832,-9.01 28.49996,-9.723 16.1575,-0.5593 27.60871,0.6426 33.50001,3.516 3.0852,1.5047 3.5366,2.2143 3.809,5.9871 0.3017,4.1803 0.2082,4.3247 -4.004,6.188 -7.8692,3.4809 -29.89941,4.9844 -44.81255,3.0583 z m 81.00755,0.2812 c -13.0445,-1.3879 -19,-4.3057 -19,-9.3087 0,-6.4442 7.4511,-8.985 28.5,-9.7184 16.6644,-0.5806 27.4361,0.626 33.5828,3.7618 3.5791,1.826 3.9172,2.3468 3.9172,6.0344 0,3.7871 -0.2622,4.1518 -4.254,5.9176 -7.2572,3.2102 -28.3493,4.8451 -42.746,3.3133 z m 79,0.071 c -13.6229,-1.7263 -19,-4.3809 -19,-9.3799 0,-6.3087 7.4672,-8.9464 27.5135,-9.7187 16.0849,-0.6196 28.6325,0.7334 34.4836,3.7184 3.4584,1.7644 4.0029,2.4944 4.0029,5.3668 0,4.2695 -2.5072,6.5294 -9.2368,8.3256 -5.22,1.3933 -30.9962,2.5453 -37.7632,1.6878 z m 79,0 c -14.1565,-1.794 -19,-4.3256 -19,-9.931 0,-2.9618 0.517,-3.6708 3.9559,-5.4252 5.1908,-2.6482 14.8734,-3.98 29.0441,-3.9951 13.2416,-0.014 22.6695,1.2905 28.744,3.9775 3.8048,1.683 4.256,2.2432 4.256,5.2839 0,4.3527 -2.4646,6.5946 -9.2368,8.4021 -5.22,1.3933 -30.9962,2.5453 -37.7632,1.6878 z m 75.6229,-0.4432 c -3.7824,-0.5249 -8.8449,-1.8248 -11.25,-2.8887 -4.122,-1.8234 -4.3729,-2.1659 -4.3729,-5.9702 0,-3.7023 0.3309,-4.2048 4.0029,-6.0781 11.7695,-6.0043 53.9637,-4.8891 60.4506,1.5979 2.1568,2.1568 1.9295,6.747 -0.4403,8.8917 -1.0928,0.9889 -4.3553,2.4302 -7.25,3.2028 -6.5663,1.7526 -31.9464,2.5204 -41.1403,1.2446 z m 79,0 c -3.7824,-0.5249 -8.8715,-1.8366 -11.309,-2.9148 -4.3449,-1.9219 -4.4258,-2.0444 -4.1229,-6.2406 0.2724,-3.7728 0.7238,-4.4824 3.809,-5.9871 5.8913,-2.8734 17.3425,-4.0753 33.5,-3.516 20.6017,0.713 28.5,3.4076 28.5,9.723 0,6.1486 -8.5447,8.9474 -29,9.4989 -7.975,0.215 -17.5947,-0.039 -21.3771,-0.5634 z m 79,0 c -3.7824,-0.5249 -8.8715,-1.8366 -11.309,-2.9148 -4.3449,-1.9219 -4.4258,-2.0444 -4.1229,-6.2406 0.2724,-3.7728 0.7238,-4.4824 3.809,-5.9871 5.8913,-2.8734 17.3425,-4.0753 33.5,-3.516 20.6017,0.713 28.5,3.4076 28.5,9.723 0,6.1486 -8.5447,8.9474 -29,9.4989 -7.975,0.215 -17.5947,-0.039 -21.3771,-0.5634 z m 78.6686,0.074 c -8.7122,-1.2336 -15.0524,-4.2086 -15.8644,-7.444 -1.038,-4.1356 1.7642,-7.2598 8.3288,-9.2856 7.3557,-2.27 39.703,-2.5618 47.9825,-0.4328 13.3354,3.4289 13.9025,11.7519 1.0667,15.6566 -6.2908,1.9137 -32.0374,2.8476 -41.5136,1.5058 z m -1146.1095,-42.7379 -3.31802,-0.4084 0.7056,-11.4581 0.7056,-11.4582 -13.22911,7.6017 c -7.27601,4.181 -13.39914,7.4317 -13.60696,7.2239 -0.20781,-0.2078 -1.07571,-5.0242 -1.92867,-10.7031 -1.2117,-8.0674 -1.33172,-12.1014 -0.54884,-18.4473 0.5511,-4.4671 1.95499,-21.0896 3.11977,-36.939 1.99497,-27.146 2.01863,-28.8894 0.40797,-30.0672 -1.58695,-1.1604 -1.43245,-2.1076 2.15044,-13.183 2.77368,-8.574 4.28246,-11.8843 5.36025,-11.7604 9.76759,1.1226 38.99762,5.8057 38.99013,6.2468 -0.005,0.3194 -1.77416,5.9808 -3.93051,12.5808 -4.58222,14.0249 -3.65028,13.4804 -18.27195,10.6769 l -9.71232,-1.8621 -0.53906,4.0926 c -1.02023,7.7458 -4.65639,55.8058 -4.25273,56.2095 0.22228,0.2223 4.52442,-1.8887 9.5603,-4.691 8.75971,-4.8746 9.15614,-5.2431 9.15614,-8.5105 v -3.4154 h -5.875 c -5.78,0 -5.88511,-0.051 -6.5,-3.125 -0.34375,-1.7187 -0.625,-7.2816 -0.625,-12.3619 v -9.2369 l 6.25,-0.6118 c 3.4375,-0.3364 10.47147,-0.9176 15.63105,-1.2914 l 9.38106,-0.6797 -0.65713,8.9033 c -1.22104,16.5439 -1.59478,18.4034 -3.69882,18.4034 -1.04839,0 -1.91063,0.5625 -1.9161,1.25 -0.005,0.6875 -0.90099,12.725 -1.99006,26.75 -1.08907,14.025 -1.9846,26.7375 -1.99006,28.25 -0.0106,2.9404 -0.48334,3.0486 -8.82797,2.0215 z m -161.47639,-12.2207 c -2.61352,-3.2287 -4.71239,-6.8664 -4.72089,-8.182 -0.009,-1.4123 -0.31451,-1.8985 -0.75627,-1.2041 -0.40753,0.6405 -10.41314,3.9254 -22.23469,7.2998 -11.82155,3.3744 -22.28123,6.3681 -23.24373,6.6528 -1.40494,0.4154 -1.75,-0.1015 -1.75,-2.6219 v -3.1393 l -5.37906,0.6721 -5.37906,0.672 -1.61544,-4.3501 c -0.8885,-2.3925 -3.85719,-10.6019 -6.5971,-18.2429 -2.73991,-7.6411 -5.18858,-14.0998 -5.44148,-14.3527 -0.75998,-0.76 -10.54134,0.8612 -11.15137,1.8483 -0.31116,0.5034 -1.29709,6.5363 -2.19097,13.4063 -0.89388,6.87 -2.0629,12.4909 -2.59783,12.4909 -0.53493,0 -3.20636,-1.4334 -5.93652,-3.1853 l -4.96392,-3.1854 0.6656,-6.5646 c 0.36608,-3.6106 2.58805,-19.9522 4.9377,-36.3147 3.9937,-27.8113 4.15406,-29.75 2.46077,-29.75 -1.31403,0 -1.80598,-0.755 -1.79188,-2.75 0.0232,-3.2758 2.6575,-22.2884 3.1426,-22.6808 0.18588,-0.1503 9.11296,-0.9846 19.83796,-1.8539 l 19.5,-1.5806 4.5,-5.0677 c 2.475,-2.7873 4.75282,-5.0676 5.06183,-5.0674 0.74823,5e-4 -11.47514,90.747 -12.33992,91.6118 -0.37047,0.3705 -1.3289,0.1297 -2.12986,-0.535 -1.02827,-0.8534 -0.67931,1.1614 1.18733,6.8553 1.87269,5.7123 2.88804,7.6271 3.4818,6.5661 0.46101,-0.8238 1.82834,-1.5047 3.03851,-1.5131 1.21017,-0.01 2.71016,-0.3459 3.33331,-0.75 0.66364,-0.4303 2.42928,-12.334 4.26215,-28.7347 1.72104,-15.4 3.36908,-29.4625 3.66232,-31.25 0.50667,-3.0886 0.37753,-3.25 -2.59989,-3.25 h -3.13304 l 0.71107,-12.25 c 0.39108,-6.7375 0.84561,-12.4025 1.01005,-12.589 0.4588,-0.5202 45.89256,-4.9037 46.40059,-4.4768 0.24544,0.2062 -0.66088,6.0992 -2.01405,13.0954 l -2.46031,12.7204 -12.18545,0.8819 c -13.85557,1.0027 -12.48577,-0.1826 -13.87904,12.0099 -0.6668,5.8351 -0.65038,5.8862 1.70966,5.3116 6.84696,-1.667 21.97354,-3.9461 22.52565,-3.394 0.34959,0.3496 -0.60714,6.9225 -2.12608,14.6065 l -2.7617,13.9708 -5.12746,0.5732 c -2.82011,0.3153 -8.05247,0.9036 -11.62747,1.3074 l -6.5,0.7342 -0.77984,6.9993 c -1.25588,11.2718 -2.48729,10.7641 15.64241,6.4493 8.72441,-2.0764 16.20061,-4.1521 16.61378,-4.6127 0.69139,-0.7707 7.02939,-44.6041 7.0254,-48.5874 -0.001,-1.0947 -0.76631,-1.75 -2.04345,-1.75 -1.93949,0 -2.00706,-0.388 -1.34984,-7.75 0.38053,-4.2625 0.9618,-9.9851 1.2917,-12.7169 l 0.59984,-4.9668 23.32302,-3.8768 c 12.82766,-2.1322 23.50883,-3.691 23.73593,-3.4639 0.2271,0.2271 -1.77329,12.3068 -4.4453,26.8437 l -4.85821,26.4307 2.08956,1.5 c 1.14926,0.825 3.11888,2.4 4.37693,3.5 l 2.28737,2 -2.83307,17.5 c -2.49041,15.3834 -2.60511,19.7622 -0.46151,17.6186 0.32434,-0.3243 2.66018,-20.428 5.19075,-44.6748 l 4.60103,-44.0851 5.99675,-4.4962 c 5.75851,-4.3177 6.00726,-4.4043 6.26137,-2.1794 0.14555,1.2743 -1.73731,22.109 -4.18412,46.2994 -2.4468,24.1904 -4.26067,44.1707 -4.03081,44.4005 0.66915,0.6692 15.83747,-3.9939 17.0647,-5.246 0.63854,-0.6515 2.50925,-16.5088 4.38108,-37.137 1.79669,-19.8 3.6094,-36.3792 4.02826,-36.8426 0.41885,-0.4635 1.68262,-0.3497 2.80838,0.2527 1.87604,1.0041 2.07274,0.7823 2.35736,-2.6573 l 0.31053,-3.7527 h 18 18 v 8.2516 c 0,5.9355 0.35086,8.2511 1.25,8.25 1.59371,0 1.68245,-1.8465 -1.67707,34.8582 -1.64186,17.9383 -2.54297,32.5013 -2.10547,34.0267 0.42066,1.4668 1.09571,7.9624 1.50012,14.4347 l 0.73528,11.7678 -2.35143,-0.5296 c -1.29329,-0.2913 -9.10143,-1.6719 -17.35143,-3.0679 -8.25,-1.3961 -16.0125,-2.7613 -17.25,-3.0339 -1.74991,-0.3855 -2.25,-0.05 -2.25,1.509 0,1.4458 -1.66451,2.8449 -5.97148,5.019 -7.0627,3.5652 -7.41989,3.619 -6.73877,1.0144 0.31485,-1.204 0.0307,-2 -0.71399,-2 -0.96981,0 -19.09892,5.2185 -29.82576,8.5855 -1.57323,0.4938 -1.75,-0.3161 -1.75,-8.0181 0,-5.0759 -0.3978,-8.4655 -0.97611,-8.3174 -0.53685,0.1375 -2.09567,-1.1 -3.46403,-2.75 l -2.48793,-3 -0.036,3.1602 -0.036,3.1603 -8.75,0.625 c -4.8125,0.3438 -11.29578,0.8736 -14.40729,1.1772 l -5.65729,0.5522 -0.6946,6.9165 c -0.38203,3.8041 -1.00624,7.1091 -1.38713,7.3445 -0.38089,0.2354 -2.81004,-2.1879 -5.39811,-5.3851 z M 319.76353,1561.25 c 0.01,-0.9625 0.90177,-11.875 1.9823,-24.25 1.08053,-12.375 1.97292,-24.075 1.98308,-26 l 0.0185,-3.5 -9.75078,0.353 c -5.36292,0.1941 -9.99838,0.7502 -10.30101,1.2358 -0.86616,1.3897 -5.3376,49.8567 -4.66197,50.5323 0.33271,0.3327 4.79157,1.1751 9.90857,1.8718 5.117,0.6968 9.64114,1.321 10.05364,1.387 0.4125,0.066 0.75796,-0.6674 0.7677,-1.6299 z m -79.20934,-4.9146 c 0.24027,-1.6866 -1.74638,-3.8216 -8.99751,-9.6692 -5.11822,-4.1275 -9.43489,-7.3755 -9.59259,-7.2178 -0.15771,0.1577 -0.72094,3.1588 -1.25164,6.6692 -0.53069,3.5103 -1.21358,7.8604 -1.51752,9.6668 l -0.55262,3.2843 10.80176,-0.2843 c 10.2106,-0.2688 10.81864,-0.4029 11.11012,-2.449 z m -98.69196,-30.1503 c 0.33902,-0.3768 1.18013,-4.9505 1.86914,-10.1638 0.68901,-5.2133 1.47162,-10.0491 1.73912,-10.7462 0.37971,-0.9895 -1.23644,-1.1267 -7.36914,-0.6259 -12.08697,0.9871 -11.77921,0.7272 -13.16237,11.116 -1.83524,13.7841 -2.57953,12.6211 7.55685,11.8074 4.8125,-0.3864 9.02738,-1.0107 9.3664,-1.3875 z m 97.71168,-22.6828 c -0.18044,-0.1762 -3.25308,0.2022 -6.82808,0.8411 l -6.5,1.1615 -0.30475,3.6533 c -0.28595,3.428 0.0532,3.9101 5.5,7.8168 l 5.80475,4.1635 1.32808,-8.6578 c 0.73044,-4.7618 1.18044,-8.8021 1,-8.9784 z m 721.50156,91.2737 -5.06177,-6.276 6.78027,-49.8309 c 3.72915,-27.407 6.93142,-49.9689 7.11602,-50.1375 0.1847,-0.1687 3.195,-0.6319 6.6895,-1.0294 l 6.3537,-0.7226 -0.5893,2.8602 c -1.0009,4.8587 -8.7377,62.5791 -8.4187,62.808 0.1654,0.1187 4.0442,3.0354 8.6197,6.4815 4.5756,3.4462 8.4794,6.1056 8.6752,5.9097 0.1959,-0.1959 2.9126,-19.2522 6.0371,-42.3475 3.12451,-23.0953 5.78211,-42.103 5.90581,-42.2392 0.7075,-0.7794 12.5645,-1.3874 12.5729,-0.6448 0.01,0.4909 -3.4226,25.8675 -7.6182,56.3925 -5.1925,37.7789 -8.0445,55.7414 -8.93191,56.256 -0.717,0.4157 -1.5985,2.0981 -1.9588,3.7385 -0.3603,1.6404 -1.0892,3.2509 -1.6198,3.5788 -0.5306,0.3279 -5.7029,-3.8294 -11.4941,-9.2385 -15.46598,-14.4457 -13.9279,-14.2334 -15.41751,-2.1283 -0.69669,5.6614 -1.56183,10.8677 -1.92253,11.5695 -0.43131,0.8392 -2.38866,-0.8725 -5.71758,-5 z m 135.09553,0.07 -5.0397,-6.279 6.769,-53.4121 c 3.723,-29.3766 6.9498,-53.5928 7.1708,-53.8138 0.5491,-0.549 11.9724,-2.3769 12.37,-1.9794 0.1751,0.1751 -0.5815,7.0278 -1.6813,15.2283 -1.0998,8.2004 -2.0029,15.6336 -2.0068,16.5182 -0.01,1.7752 10.7888,9.4253 11.8368,8.387 0.3608,-0.3574 2.0141,-11.077 3.674,-23.8213 l 3.018,-23.1716 6.377,-2.2729 c 3.5073,-1.2501 6.5074,-2.1426 6.6668,-1.9832 0.1593,0.1594 -1.5007,13.7817 -3.6891,30.2717 l -3.9788,29.9819 2.2613,1.5 c 1.2438,0.825 3.2983,2.4 4.5656,3.5 l 2.3042,2 -3.0618,17.3764 c -1.6839,9.557 -2.8722,17.566 -2.6405,17.7976 0.2317,0.2317 1.0623,-0.2199 1.8459,-1.0034 0.9961,-0.9961 2.3934,-10.261 4.645,-30.7977 1.7711,-16.1551 3.2086,-30.098 3.1943,-30.9842 -0.019,-1.2009 -0.702,-1.4821 -2.6798,-1.104 l -2.6538,0.5073 0.5631,-12.2219 c 0.3097,-6.7221 0.7987,-12.4576 1.0867,-12.7456 0.5626,-0.5625 45.9359,-5.2109 46.4897,-4.7627 0.3339,0.2702 -4.6201,25.593 -5.0836,25.985 -0.1365,0.1155 -5.6482,0.6022 -12.2482,1.0816 l -12,0.8716 -1.0777,8.3405 -1.0777,8.3406 2.5777,-0.5135 c 10.6848,-2.1286 22.1677,-3.9109 22.5747,-3.5039 0.2695,0.2695 -0.7601,6.7271 -2.288,14.3504 -3.2069,16.0009 -1.8998,14.7742 -17.0178,15.9708 l -9.0179,0.7137 -0.6392,6.1507 c -0.3516,3.3829 -0.8862,7.433 -1.188,9.0002 -0.4672,2.4259 -0.2735,2.7663 1.3026,2.2894 6.5303,-1.9758 36.6592,-8.6644 37.0897,-8.2338 0.5512,0.5511 -8.4445,26.5543 -9.6279,27.8307 -0.9372,1.0109 -45.3645,13.8435 -45.9388,13.2692 -0.2536,-0.2535 -0.6782,-2.7209 -0.9436,-5.483 l -0.4826,-5.022 h -6.8727 c -5.8809,0 -6.872,-0.2526 -6.8676,-1.75 0,-0.9625 1.3062,-8.5 2.8963,-16.75 1.59,-8.25 2.7059,-15.3054 2.4798,-15.6787 -0.7412,-1.2234 -19.4937,-16.0428 -19.8384,-15.6775 -0.1849,0.1959 -1.9789,13.4062 -3.9868,29.3562 -2.0078,15.95 -3.9747,29.8157 -4.3709,30.8126 -0.6009,1.5121 -1.556,0.7715 -5.76,-4.4664 z m 367.1663,0 -4.9085,-6.038 2.1732,-17.6552 c 1.1953,-9.7104 2.1419,-18.1053 2.1037,-18.6553 -0.038,-0.55 -1.9816,5.063 -4.3187,12.4733 l -4.2491,13.4733 -17.8873,10.2855 c -9.8379,5.657 -18.1948,9.944 -18.5709,9.5267 -1.1625,-1.2902 -3.6958,-23.6524 -2.8606,-25.2507 0.4335,-0.8294 1.7281,-15.0081 2.8768,-31.5081 1.1487,-16.5 2.3268,-31.8752 2.6181,-34.1671 0.4522,-3.5591 0.2345,-4.2608 -1.4926,-4.8089 -1.9162,-0.6082 -1.9929,-1.2274 -1.4648,-11.8329 0.3064,-6.1551 0.7029,-11.6824 0.8811,-12.2829 0.2234,-0.7531 7.2547,-0.2017 22.666,1.7775 12.2882,1.5781 22.8515,3.0474 23.474,3.2651 0.7996,0.2796 0.4309,3.8683 -1.2556,12.2225 -1.3132,6.5047 -2.5755,12.3357 -2.805,12.9579 -0.3003,0.814 -3.3129,0.6117 -10.7443,-0.7216 -5.6799,-1.019 -11.7178,-2.0975 -13.4177,-2.3966 l -3.0908,-0.5439 -2.3335,29.5078 c -1.2835,16.2293 -2.0714,29.7701 -1.7508,30.0906 1.0385,1.0385 33.938,-18.8873 34.7345,-21.0371 0.4136,-1.1167 2.4319,-15.5304 4.485,-32.0304 2.0531,-16.5 3.8741,-30.1456 4.0466,-30.3236 0.4609,-0.4756 11.9403,-1.997 12.3407,-1.6355 0.1876,0.1693 -0.5932,7.6319 -1.735,16.5837 -1.1418,8.9517 -1.7061,16.5233 -1.2541,16.8257 6.7401,4.5081 11.2924,7.2332 11.5741,6.9283 0.1925,-0.2082 1.5461,-9.8286 3.0081,-21.3786 3.6666,-28.9685 2.6445,-26.0052 9.8036,-28.4229 3.3602,-1.1348 6.2961,-1.8766 6.5241,-1.6486 0.3824,0.3824 -6.1537,51.778 -7.3344,57.6727 -0.4483,2.2383 0.1484,3.0381 4.2758,5.7316 3.0436,1.9862 4.8774,2.6802 5.0174,1.8987 0.1213,-0.6773 1.1355,-11.3565 2.2537,-23.7315 3.0623,-33.8887 2.0561,-30.2542 9.2337,-33.3512 3.3712,-1.4546 6.2274,-2.5331 6.347,-2.3967 0.3622,0.4126 -6.2207,66.7566 -6.6533,67.0531 -0.2209,0.1515 -2.9699,2.1698 -6.1088,4.4851 -3.1389,2.3153 -5.8853,4.2097 -6.1032,4.2097 -0.2179,0 -0.2372,-2.3625 -0.043,-5.25 0.5878,-8.7389 -0.4176,-4.2891 -4.1236,18.25 -1.9444,11.825 -3.766,22.5125 -4.0482,23.75 -0.4672,2.0491 -1.0916,2.25 -6.994,2.25 -3.626,0 -6.4809,-0.4377 -6.4809,-0.9936 0,-0.5465 1.4018,-8.1819 3.115,-16.9678 l 3.1151,-15.9741 -3.3013,-2.7823 c -9.7217,-8.1933 -16.4616,-13.1407 -17.0314,-12.5019 -0.3531,0.3959 -2.3577,14.3322 -4.4548,30.9697 -2.097,16.6375 -4.067,30.2244 -4.3777,30.1932 -0.3107,-0.031 -2.7737,-2.7739 -5.4734,-6.0947 z m -951.09607,2.1305 c -0.67773,-3.0856 -0.70428,-3.0969 -5.83812,-2.4785 l -5.15728,0.6212 -5.90684,-16.8108 c -3.24876,-9.246 -6.24858,-17.7536 -6.66627,-18.9058 -0.71148,-1.9626 -1.11356,-2.0307 -6.36717,-1.0784 -6.43509,1.1664 -5.82058,-0.099 -8.06579,16.6114 -0.84525,6.291 -1.66449,11.5658 -1.82054,11.7218 -0.21052,0.2106 -9.15292,-5.3905 -11.46028,-7.1781 -0.15778,-0.1222 1.97972,-16.1533 4.75,-35.6246 2.77029,-19.4714 5.03689,-35.7298 5.03689,-36.1298 0,-0.4001 -0.95008,-0.7274 -2.11129,-0.7274 -1.82792,0 -2.03761,-0.4362 -1.56231,-3.25 0.30195,-1.7875 1.09651,-7.4533 1.7657,-12.5906 0.66919,-5.1374 1.70972,-9.4984 2.3123,-9.6913 0.60258,-0.1928 9.60124,-1.0251 19.99703,-1.8496 l 18.90142,-1.4991 4.46771,-5.1072 c 2.45723,-2.809 4.6631,-4.9119 4.90191,-4.6731 0.48023,0.4803 -11.60275,90.9245 -12.23108,91.5528 -0.21618,0.2162 -1.16319,-0.2335 -2.10445,-0.9994 -1.47801,-1.2026 -1.63764,-1.1879 -1.1705,0.1075 0.2975,0.825 1.55164,4.5621 2.78698,8.3047 1.80682,5.474 2.47101,6.5242 3.39632,5.37 0.63264,-0.7892 2.38091,-1.7206 3.88503,-2.07 1.73929,-0.404 2.90713,-1.4486 3.20827,-2.8699 0.67447,-3.1833 6.55696,-56.1621 6.55696,-59.0532 0,-2.06 -0.37842,-2.3319 -2.6432,-1.899 l -2.64319,0.5053 0.50116,-12.1686 c 0.27564,-6.6927 0.75988,-12.4273 1.07609,-12.7435 0.59538,-0.5954 45.95394,-5.2888 46.53936,-4.8156 0.28027,0.2265 -2.91838,17.3802 -4.491,24.0842 -0.46755,1.9932 -1.34915,2.1953 -12.49666,2.8651 -7.43534,0.4467 -12.14751,1.1519 -12.39852,1.8555 -0.22269,0.6243 -0.78687,4.4353 -1.25374,8.4689 l -0.84884,7.334 2.57927,-0.5224 c 10.34953,-2.0961 22.15625,-3.9019 22.60137,-3.4567 0.56209,0.5621 -4.89112,27.5136 -5.73837,28.3608 -0.26978,0.2698 -5.4566,1.0098 -11.52627,1.6444 l -11.03576,1.1539 -1.09797,8.5056 c -0.60388,4.6781 -0.98389,8.6197 -0.84447,8.7591 0.13942,0.1394 7.7138,-1.5373 16.83194,-3.7259 l 16.57846,-3.9795 3.21894,-23.7036 c 1.77042,-13.037 3.44557,-24.4911 3.72256,-25.4536 0.37029,-1.2867 -0.0753,-1.75 -1.68322,-1.75 -2.15868,0 -2.17742,-0.1382 -1.45555,-10.7291 1.09773,-16.1051 -0.59411,-14.6846 19.32723,-16.2278 9.35339,-0.7246 17.50726,-1.6271 18.1197,-2.0056 0.61245,-0.3785 1.38933,-3.0168 1.7264,-5.8629 0.33707,-2.846 0.91339,-5.1746 1.2807,-5.1746 0.36732,0 2.78705,2.8862 5.3772,6.4138 l 4.70935,6.4138 -5.35394,39.8362 c -3.68518,27.4197 -5.7163,39.7583 -6.51649,39.5862 -0.6394,-0.1375 -1.16943,0.088 -1.17785,0.5 -0.008,0.4125 -0.40242,1.3609 -0.87554,2.1076 -0.63885,1.0083 -3.91611,-1.7877 -12.73469,-10.8647 -8.83069,-9.0894 -11.966,-11.7635 -12.23159,-10.4321 -0.19642,0.9847 -2.00726,13.7488 -4.02409,28.3647 l -3.66696,26.5745 -3.97591,-0.2272 c -8.22452,-0.4701 -8.78214,-0.8636 -8.22518,-5.8049 0.28676,-2.5441 0.11124,-4.1916 -0.41209,-3.8682 -0.50137,0.3099 -10.06687,3.1795 -21.25667,6.3769 -11.18979,3.1974 -21.25873,6.1034 -22.37541,6.4578 -1.66836,0.5296 -2.15171,0.092 -2.71116,-2.4554 z m -12.80688,-70.3342 c 0.28749,-0.2875 3.31148,-20.0925 3.31148,-21.6879 0,-0.992 -6.82333,-0.7235 -15.63853,0.6152 -3.10944,0.4723 -3.14914,0.5529 -4.28411,8.7023 -0.63007,4.5241 -1.40601,9.5315 -1.72431,11.1276 l -0.57873,2.902 9.33198,-0.7045 c 5.13259,-0.3874 9.44459,-0.8171 9.58222,-0.9547 z m 101.27021,-11.4641 c 0.6798,-5.1256 1.07968,-9.4359 0.88863,-9.5784 -0.19105,-0.1425 -4.09808,0.036 -8.68229,0.3977 -8.59766,0.6775 -10.11917,1.5023 -10.14976,5.5022 -0.0193,2.5213 15.1881,15.9078 16.09606,14.1688 0.33626,-0.6441 1.16757,-5.3647 1.84736,-10.4903 z m 421.04124,70.8644 v -14.0921 l 2.5,-0.9505 c 1.375,-0.5228 2.5002,-1.7491 2.5005,-2.7252 9e-4,-2.9441 8.8481,-86.4628 9.1861,-86.7175 8.1424,-6.1368 11.9401,-8.7593 12.2333,-8.4475 0.2018,0.2146 -1.7512,21.2027 -4.34,46.6402 -2.889,28.3876 -4.3203,46.25 -3.706,46.25 0.5504,0 7.042,-1.8244 14.4257,-4.0543 7.3838,-2.2299 13.5847,-3.8947 13.7798,-3.6996 0.7901,0.79 -9.3486,30.1978 -10.6622,30.9262 -1.1177,0.6197 -16.1153,5.2085 -34.1672,10.454 -1.6079,0.4672 -1.75,-0.6355 -1.75,-13.5837 z m -361.99997,9.114 v -3.8435 l -18.13204,-3.0096 c -17.55451,-2.9138 -18.1479,-2.949 -18.63003,-1.1053 -0.27955,1.069 -3.07284,3.2041 -6.36796,4.8674 -5.15136,2.6004 -5.86858,2.7472 -5.85864,1.1988 0.0257,-4.0098 9.97739,-106.5865 10.3797,-106.9888 0.24072,-0.2407 1.33749,0.044 2.43726,0.6325 1.8098,0.9686 2.06392,0.6894 2.67738,-2.9417 l 0.6778,-4.0118 17.65826,0.2727 17.65827,0.2727 0.29601,7.9694 c 0.17876,4.8124 0.77041,8.2626 1.49356,8.7096 0.65865,0.407 1.1118,2.2208 1.007,4.0305 -0.19001,3.2811 -0.18664,3.2791 1.17959,-0.7095 0.75357,-2.2 1.40472,-7.2301 1.44699,-11.178 l 0.0769,-7.1781 5.25,-0.577 c 2.8875,-0.3174 11.775,-1.0258 19.75,-1.5742 7.975,-0.5484 17.13354,-1.2707 20.35232,-1.605 5.549,-0.5763 5.81897,-0.5028 5.20892,1.4194 -0.50724,1.5981 -0.26434,1.9348 1.14768,1.5909 15.31903,-3.7308 47.7653,-11.2496 47.89353,-11.0984 0.0935,0.1102 -2.08754,6.6163 -4.84668,14.458 l -5.01662,14.2577 -8.61957,2.6102 c -4.74077,1.4357 -8.73402,2.7092 -8.8739,2.83 -0.13987,0.1209 -2.45131,18.7668 -5.13654,41.4354 -2.68523,22.6685 -5.12913,41.4624 -5.4309,41.7642 -0.40975,0.4097 -10.20731,-2.2262 -11.36177,-3.0568 -0.10093,-0.073 1.76598,-17.2244 4.14869,-38.1152 2.38272,-20.8907 4.24204,-38.0814 4.13183,-38.2015 -0.11022,-0.1201 -3.10213,0.664 -6.64869,1.7424 -8.18528,2.4889 -8.94497,2.4657 -8.96361,-0.274 -0.0334,-4.9113 -0.76212,-5.1156 -15.59284,-4.3713 -7.58793,0.3808 -13.98217,0.8783 -14.20941,1.1055 -0.93858,0.9386 26.35249,50.8429 28.04663,51.286 0.97401,0.2547 1.77093,0.7599 1.77093,1.1227 0,0.3628 -2.15994,7.1218 -4.79987,15.0201 l -4.79986,14.3605 -19.45014,5.3161 c -10.69757,2.9238 -20.01263,5.3372 -20.70013,5.3632 -0.79137,0.03 -1.25,-1.363 -1.25,-3.7962 z m 29.76609,-32.5894 c 0.19257,-0.1925 -5.4405,-11.9245 -12.51794,-26.071 l -12.86808,-25.7209 -2.25595,25.3623 c -1.24076,13.9493 -1.95601,27.1984 -1.58942,29.4423 l 0.66652,4.0799 14.10737,-3.3712 c 7.75905,-1.8542 14.26493,-3.5288 14.4575,-3.7214 z M 649.1925,1538 c 0.8795,-11.825 1.84683,-23.5706 2.14961,-26.1014 l 0.55051,-4.6013 -10.32339,0.4762 c -5.67787,0.262 -10.39543,0.5326 -10.48347,0.6014 -0.44266,0.3459 -5.25293,51.0454 -4.87861,51.4198 0.2402,0.2402 4.84717,0.96 10.2377,1.5996 8.57527,1.0176 9.88524,0.9718 10.47476,-0.3656 0.37059,-0.8408 1.39338,-11.2037 2.27289,-23.0287 z m 228.24443,53.9783 c -2.5801,-4.0327 -4.67352,-7.8151 -4.65204,-8.4053 0.0215,-0.5901 1.29188,-11.3777 2.82312,-23.9723 l 2.78406,-22.8994 -7.30816,-25.5323 c -4.01949,-14.0427 -7.2024,-25.602 -7.07312,-25.6873 4.66474,-3.077 12.10179,-6.5008 12.70973,-5.8512 0.44749,0.4782 2.95173,8.4165 5.56497,17.6407 2.61325,9.2241 4.84663,16.6491 4.96308,16.5 0.11645,-0.1492 4.39584,-9.6253 9.50975,-21.0581 5.11392,-11.4329 9.62754,-20.9906 10.03028,-21.2395 0.40273,-0.2489 2.8394,2.0139 5.41481,5.0284 3.59583,4.209 4.52544,5.9762 4.00549,7.6144 -0.42639,1.3434 -0.17464,2.4474 0.67992,2.9815 1.02766,0.6424 1.47836,-0.055 1.85701,-2.8748 l 0.5,-3.7231 h 18 18 l 0.29601,7.9694 c 0.16866,4.5407 0.78314,8.2705 1.42823,8.6692 0.83087,0.5135 0.41469,9.0383 -1.56374,32.0306 -2.54915,29.6247 -2.62422,32.1647 -1.37861,46.6456 0.72454,8.4232 1.07001,15.4514 0.76772,15.6183 -0.44314,0.2446 -24.24966,-3.6028 -36.29961,-5.8665 -2.24058,-0.4209 -2.75,-0.1534 -2.75,1.444 0,1.3931 -1.73674,2.8373 -6,4.9894 l -6,3.0288 v -2.6442 c 0,-1.4542 2.03582,-24.0407 4.52405,-50.1922 2.48823,-26.1514 4.40073,-47.903 4.25,-48.3367 -0.15073,-0.4338 -5.29533,10.3337 -11.43244,23.9278 l -11.15839,24.7165 -3.15541,26.5 c -1.73548,14.575 -3.49071,27.3574 -3.90051,28.4053 -0.61876,1.5822 -1.54049,0.6621 -5.4362,-5.427 z m 64.31295,-51.1604 c 0.99364,-11.7248 1.96171,-23.9957 2.15128,-27.2686 l 0.34467,-5.9506 -10,0.2875 c -5.5,0.1581 -10.11929,0.4052 -10.26508,0.5491 -0.60524,0.5972 -5.34343,50.7895 -4.84191,51.291 0.57899,0.579 19.86039,3.0856 20.45571,2.6593 0.1918,-0.1373 1.1617,-9.8428 2.15533,-21.5677 z m 298.51672,50.4321 c 1.2853,-8.8525 8.4795,-89.583 8.0237,-90.0388 -0.7251,-0.7251 -11.7832,2.5571 -12.4949,3.7086 -0.3295,0.5331 -2.7499,19.3187 -5.3787,41.7458 -2.6288,22.4271 -4.9318,40.9287 -5.1178,41.1146 -0.6955,0.6955 -11.5531,-2.9615 -11.5531,-3.8913 0,-0.533 1.8,-16.7386 4,-36.0125 2.2,-19.2738 4,-36.079 4,-37.3449 v -2.3016 l -7.0796,2.0653 c -5.3892,1.5721 -7.2583,1.7761 -7.828,0.8544 -0.883,-1.4289 -3.5761,-25.9992 -2.9214,-26.654 0.6686,-0.6685 58.2696,-14.365 58.6915,-13.9557 0.1993,0.1934 -0.3321,2.3901 -1.181,4.8815 l -1.5434,4.5297 16.1809,0.2745 16.181,0.2744 v 8.2516 c 0,5.9355 0.3509,8.2511 1.25,8.25 1.5937,0 1.6824,-1.8465 -1.6771,34.8582 -1.6418,17.9383 -2.5429,32.5013 -2.1054,34.0267 0.4206,1.4668 1.0957,7.9624 1.5001,14.4347 l 0.7353,11.7678 -2.3515,-0.5296 c -1.2933,-0.2913 -9.1014,-1.6719 -17.3514,-3.0679 -8.25,-1.3961 -16.0125,-2.7613 -17.25,-3.0339 -1.7499,-0.3855 -2.25,-0.05 -2.25,1.509 0,1.4458 -1.6645,2.8449 -5.9715,5.019 -3.2843,1.6579 -6.2146,3.0144 -6.5118,3.0144 -0.2972,0 -0.2953,-1.6875 0,-3.75 z m 36.4969,-30 c 0.01,-0.9625 0.9018,-11.875 1.9823,-24.25 1.0805,-12.375 1.9729,-24.075 1.9831,-26 l 0.018,-3.5 -9.7507,0.353 c -5.363,0.1941 -9.9984,0.7502 -10.301,1.2358 -0.8662,1.3897 -5.3376,49.8567 -4.662,50.5323 0.3327,0.3327 4.7916,1.1751 9.9086,1.8718 5.117,0.6968 9.6411,1.321 10.0536,1.387 0.4125,0.066 0.758,-0.6674 0.7677,-1.6299 z m 68.462,20.5055 c -2.6201,-7.2905 -5.618,-15.7746 -6.6622,-18.8536 l -1.8985,-5.5981 -5.2095,0.9849 c -2.8652,0.5417 -5.5179,1.2609 -5.8948,1.5981 -0.3769,0.3373 -1.4508,6.3507 -2.3864,13.3632 -0.9357,7.0125 -2.0599,12.75 -2.4983,12.75 -1.9066,0 -10.93,-6.4391 -10.93,-7.7997 0,-1.875 8.8526,-65.8769 9.537,-68.9503 0.3911,-1.7559 0.058,-2.25 -1.5179,-2.25 -1.2883,0 -2.0191,-0.6609 -2.0191,-1.8259 0,-2.1476 2.9464,-23.4838 3.2753,-23.7182 0.1236,-0.088 8.9997,-0.872 19.7247,-1.7422 l 19.5,-1.5822 4.7964,-5.186 c 2.6381,-2.8523 4.949,-5.0194 5.1354,-4.8157 0.3785,0.4135 -11.2831,88.5867 -12.0002,90.7328 -0.3677,1.1007 -0.746,1.1214 -1.9676,0.1075 -0.8318,-0.6903 -1.6458,-1.0785 -1.8089,-0.8626 -0.1631,0.2159 1.8464,6.4675 4.4657,13.8925 2.6192,7.425 4.7885,12.8814 4.8207,12.1252 0.2048,-4.8133 9.2343,-97.6343 9.5261,-97.9262 0.1986,-0.1986 1.2547,0.1172 2.3468,0.7017 2.228,1.1923 3.1856,-0.1552 3.1856,-4.4825 V 1480 h 18 18 v 8.1398 c 0,5.6425 0.4164,8.4803 1.3572,9.25 1.1374,0.9304 0.8985,6.0483 -1.4757,31.6102 -2.3142,24.9167 -2.6649,32.1475 -1.9156,39.5 0.5044,4.95 1.1951,12.2566 1.5349,16.2369 l 0.6177,7.2368 -2.8092,-0.5285 c -14.211,-2.6732 -35.959,-6.0964 -36.5593,-5.7544 -0.4125,0.235 -0.75,1.2484 -0.75,2.2521 0,2.4976 -9.1602,6.1219 -16.8197,6.6549 l -5.937,0.4131 z m 54.4037,-47.1586 c 1.179,-14.7968 2.0251,-26.9647 1.8801,-27.04 -0.1449,-0.075 -4.876,0.036 -10.5135,0.2469 -9.7019,0.3631 -10.2515,0.4989 -10.2778,2.5399 -0.015,1.186 -1.114,12.7201 -2.4416,25.6313 -1.3276,12.9113 -2.2381,23.6508 -2.0232,23.8657 0.7136,0.7136 19.9815,2.7872 20.6124,2.2182 0.3409,-0.3074 1.5845,-12.6653 2.7636,-27.462 z m -56.3974,-7.4345 4.986,-0.6624 1.7044,-10.9763 c 0.9374,-6.037 1.5801,-11.1006 1.4281,-11.2525 -0.4994,-0.4995 -17.6844,1.4753 -18.3136,2.1045 -0.6104,0.6105 -3.2279,16.5225 -3.2693,19.8743 -0.024,1.9274 3.8487,2.1899 13.4644,0.9124 z m -942.3395,62.344 c -2.94445,-1.8591 -5.53042,-3.557 -5.74661,-3.7732 -0.35226,-0.3523 42.219,-109.6854 43.02052,-110.4869 0.68856,-0.6886 13.57962,3.0392 13.57962,3.9269 0,1.292 -43.95852,112.1645 -44.81001,113.0201 -0.37949,0.3813 -3.09908,-0.8278 -6.04352,-2.6869 z m 673.1836,-1.5954 c 0.333,-2.426 2.6676,-25.336 5.188,-50.911 2.5204,-25.575 4.7738,-47.434 5.0075,-48.5756 0.2902,-1.4172 2.3361,-2.9002 6.4497,-4.6752 l 6.0247,-2.5995 v 3.2458 c 0,1.7853 -2.2531,24.5891 -5.007,50.6752 -5.6002,53.0488 -4.0257,46.9159 -13.8807,54.0673 l -4.3877,3.184 z m -292.87178,-0.161 c 0.3019,-1.7875 2.57936,-23.95 5.06102,-49.25 2.48166,-25.3 4.73054,-47.3565 4.99751,-49.0144 0.41518,-2.5783 1.38071,-3.41 6.67522,-5.75 4.06185,-1.7953 6.41596,-2.3699 6.84761,-1.6714 0.43786,0.7084 9.81749,-1.1046 28.0532,-5.4225 15.06748,-3.5677 27.51607,-6.3661 27.66353,-6.2187 0.32953,0.3296 -8.46306,25.2305 -9.67131,27.3895 -0.5142,0.9188 -6.85853,3.2696 -15.52658,5.7532 -8.06141,2.3098 -14.94353,4.486 -15.29359,4.8361 -0.70649,0.7065 -2.3051,12.8913 -1.76248,13.434 0.1884,0.1884 5.2564,-0.5976 11.26221,-1.7466 16.83733,-3.2214 15.51893,-4.5512 12.04731,12.1514 -1.62794,7.8324 -3.08222,14.363 -3.23173,14.5125 -0.14951,0.1495 -5.40372,0.7807 -11.67602,1.4027 -6.27231,0.6219 -11.54034,1.2399 -11.70674,1.3734 -0.1664,0.1334 -1.36118,9.1012 -2.65507,19.9284 -1.29389,10.8272 -2.57187,19.9052 -2.83996,20.1733 -0.2681,0.2681 -3.05794,-0.2598 -6.19965,-1.1731 -5.34751,-1.5546 -5.67987,-1.8297 -5.20561,-4.3092 0.27863,-1.4567 2.23521,-18.1371 4.34796,-37.0675 2.96203,-26.5399 3.55677,-34.5138 2.59813,-34.8334 -0.68379,-0.2279 -1.25014,-1.8394 -1.25856,-3.581 -0.008,-1.7417 -0.36408,-3.7156 -0.79035,-4.3865 -0.42627,-0.6709 -2.4909,15.5291 -4.58806,36 -2.09716,20.4709 -4.04502,38.4436 -4.32858,39.9394 -0.33918,1.7893 -2.34178,4.0985 -5.85372,6.75 -6.52859,4.9292 -7.68835,5.0591 -6.96569,0.7804 z m 728.54168,-2.2311 c 0,-2.7862 2.1352,-27.0169 2.4775,-28.115 0.245,-0.7862 1.9587,-0.803 6.0611,-0.059 l 5.7196,1.0367 -0.656,9.0594 c -1.2708,17.5486 -1.4577,18.2805 -4.8425,18.9575 -5.3069,1.0613 -8.7597,0.7148 -8.7597,-0.8792 z M 15.257745,1582.0132 c -6.1032976,-6.7441 -7.4068336,-46.4471 -1.953475,-59.4988 1.852955,-4.4348 5.401465,-6.3093 8.913919,-4.7089 3.288192,1.4982 5.221106,6.4548 6.62658,16.9929 1.414963,10.6092 0.630965,32.5602 -1.434688,40.1696 -2.2466,8.2758 -8.013138,11.6189 -12.152336,7.0452 z m 1605.043855,0.048 c -2.9462,-3.2556 -4.6633,-11.6003 -5.2598,-25.5617 -0.6175,-14.4515 0.8372,-28.6961 3.509,-34.3607 3.4885,-7.396 11.0222,-6.1987 13.2644,2.108 4.5397,16.8185 3.4617,49.5243 -1.8688,56.698 -2.4794,3.3367 -7.1465,3.8769 -9.6448,1.1164 z M 15.375322,1503.1431 c -3.091133,-3.4157 -4.746511,-11.2217 -5.331979,-25.1431 -0.6420766,-15.2676 0.687987,-27.9181 3.635962,-34.5825 1.853625,-4.1904 2.165442,-4.4175 6.066524,-4.4175 3.8926,0 4.215521,0.233 6.040178,4.3579 5.571029,12.5943 5.025014,50.6949 -0.839607,58.5874 -2.443979,3.289 -7.145985,3.8775 -9.571078,1.1978 z m 1604.882378,-0.1299 c -2.9022,-3.207 -4.622,-11.6153 -5.2182,-25.5132 -0.6332,-14.7603 0.7271,-27.498 3.6398,-34.0825 1.8536,-4.1904 2.1654,-4.4175 6.0665,-4.4175 3.9011,0 4.2129,0.2271 6.0665,4.4175 2.948,6.6644 4.2781,19.3149 3.636,34.5825 -0.8052,19.1459 -3.6276,27 -9.7025,27 -1.4795,0 -3.4992,-0.8941 -4.4881,-1.9868 z M 15.331408,1424.0946 c -3.04725,-3.3672 -4.705199,-11.235 -5.288065,-25.0946 -0.6420766,-15.2676 0.687987,-27.9181 3.635962,-34.5825 1.853625,-4.1904 2.165442,-4.4175 6.066524,-4.4175 3.901082,0 4.212899,0.2271 6.066524,4.4175 2.947975,6.6644 4.27804,19.3149 3.635962,34.5825 -0.805184,19.1459 -3.627556,27 -9.702486,27 -1.479514,0 -3.466003,-0.8574 -4.414421,-1.9054 z m 1604.999992,0 c -3.0473,-3.3672 -4.7052,-11.235 -5.2881,-25.0946 -0.6421,-15.2676 0.688,-27.9181 3.636,-34.5825 1.8536,-4.1904 2.1654,-4.4175 6.0665,-4.4175 3.9011,0 4.2129,0.2271 6.0665,4.4175 2.948,6.6644 4.2781,19.3149 3.636,34.5825 -0.8052,19.1459 -3.6276,27 -9.7025,27 -1.4795,0 -3.466,-0.8574 -4.4144,-1.9054 z m -863.78473,-57.452 C 744.06214,1357.2142 733.827,1348.825 733.80193,1348 c -0.0251,-0.825 5.10701,-27.3575 11.40464,-58.9612 6.29762,-31.6036 11.31818,-57.5932 11.1568,-57.7546 -0.16138,-0.1614 -2.81268,4.9962 -5.89177,11.4612 -3.0791,6.465 -12.77785,26.4064 -21.55279,44.3142 l -15.95444,32.5596 -80.15766,29.3087 c -44.08672,16.1197 -80.37802,29.0883 -80.64735,28.819 -0.35228,-0.3523 -15.41353,-68.1527 -15.41353,-69.3863 0,-0.091 1.35,-0.6356 3,-1.2108 1.65,-0.5751 3,-1.5499 3,-2.1661 0,-1.0396 5.89558,-51.1608 18.05116,-153.4616 2.74334,-23.0879 4.79457,-42.4817 4.5583,-43.0975 -0.23628,-0.6157 -3.67335,-1.3914 -7.63794,-1.7238 -3.96459,-0.3323 -7.43599,-0.8319 -7.71422,-1.1102 -0.60143,-0.6014 5.42767,-67.6089 6.14803,-68.3293 0.59506,-0.595 198.5465,15.4464 203.64614,16.5029 l 3.55148,0.7358 -8.81192,28 c -4.84656,15.4 -9.95994,31.7141 -11.36308,36.2536 -2.29426,7.4224 -2.77155,8.2069 -4.73956,7.7899 -3.96046,-0.839 -117.76346,-12.802 -118.13558,-12.4184 -0.38699,0.399 -22.54941,171.2674 -22.23705,171.4439 0.10133,0.057 35.92301,-13.2099 79.60374,-29.4825 71.96032,-26.8077 79.49356,-29.8213 80.20803,-32.0865 0.43369,-1.375 8.52177,-41.425 17.97351,-89 9.45173,-47.575 17.55557,-86.9125 18.00853,-87.4166 0.45296,-0.5041 10.17611,-1.7096 21.607,-2.679 11.43089,-0.9693 23.59593,-2.0319 27.03343,-2.3612 5.54683,-0.5315 6.25037,-0.3989 6.25332,1.179 0.002,0.9778 -4.08259,21.7309 -9.07647,46.118 -4.99388,24.3871 -8.88059,44.5394 -8.63712,44.7829 0.66874,0.6687 56.03613,24.3867 56.29139,24.1138 0.12187,-0.1303 5.89667,-27.9119 12.8329,-61.7369 13.6774,-66.6988 15.22069,-73.968 15.83389,-74.5812 0.78846,-0.7885 55.74125,-11.7629 56.26725,-11.237 0.2935,0.2935 -7.36993,38.4551 -17.02987,84.8035 -9.65993,46.3484 -17.43065,84.4027 -17.26826,84.5651 0.16238,0.1623 9.06748,4.1098 19.78911,8.7721 13.50222,5.8714 19.45562,8.9419 19.36952,9.9899 -0.2395,2.9141 -39.64326,149.1962 -40.41898,150.051 -0.61186,0.6743 -55.86927,-1.0095 -56.63965,-1.7259 -0.10063,-0.093 6.15998,-21.2022 13.91248,-46.908 7.75249,-25.7058 13.90983,-46.9023 13.68297,-47.1033 -1.28168,-1.1356 -91.28841,-46.5836 -91.61292,-46.2591 -0.2152,0.2152 -8.26016,39.2582 -17.87767,86.7621 -9.61751,47.5039 -17.80937,87.11 -18.20414,88.0134 -0.58148,1.3308 -5.02721,-1.6119 -23.41691,-15.5 z m 510.30943,-4.9326 -18.3029,-18.21 0.6873,6.8564 0.6873,6.8563 -4.841,-0.6254 c -2.6626,-0.344 -40.391,-4.43 -83.841,-9.0801 -43.45,-4.6501 -80.4342,-8.6587 -82.1872,-8.9079 -3.1835,-0.4526 -3.1879,-0.4469 -3.8668,4.987 -0.3739,2.9921 -1.1897,5.7679 -1.8129,6.1686 -2.0596,1.3241 -50.9825,16.229 -51.5165,15.695 -0.6341,-0.6341 44.0999,-302.1633 45.0602,-303.7282 0.4693,-0.7647 3.9961,-0.1724 11.5,1.9312 l 10.8232,3.0342 0.7238,-4.5936 c 0.3982,-2.5264 1.0732,-7.2935 1.5,-10.5935 l 0.7762,-6 16,0.1143 c 8.8,0.063 44.9547,0.1753 80.3438,0.25 l 64.3439,0.1357 -0.557,4.75 c -0.3063,2.6125 -0.8473,13.1875 -1.2022,23.5 l -0.6453,18.75 h 5.6084 c 4.9131,0 5.6084,0.2442 5.6084,1.9698 0,2.1709 -24.7241,179.1815 -25.5268,182.7578 -0.3875,1.726 0.04,2.3631 1.8983,2.8295 2.7402,0.6878 2.6426,0.2631 5.2618,22.8972 1.2094,10.4508 1.9624,14.2152 2.5005,12.5 0.4235,-1.3499 13.1985,-64.9987 28.389,-141.4419 15.1904,-76.4431 27.7818,-139.1503 27.9808,-139.3494 0.4864,-0.4863 54.8093,-5.1834 55.2183,-4.7745 0.1768,0.1769 -0.2006,3.4243 -0.8388,7.2165 l -1.1602,6.895 25.7725,75 c 14.1749,41.25 26.7546,77.8898 27.9549,81.4218 l 2.1823,6.4218 15.6647,-78.3195 c 8.6156,-43.0757 15.847,-78.5017 16.0698,-78.7245 0.6657,-0.6657 61.8969,-24.3696 62.1846,-24.0729 0.2483,0.2561 -66.5272,321.1259 -66.8859,321.4 -0.571,0.4364 -54.8338,4.5387 -55.1993,4.1731 -0.2487,-0.2487 0.7214,-6.3122 2.1559,-13.4745 l 2.6081,-13.0222 -27.3653,-86.5963 c -19.8395,-62.7815 -27.566,-85.9927 -28.0953,-84.4015 -0.6045,1.8171 -35.8413,170.4881 -44.4338,212.6947 -1.3996,6.875 -2.6298,12.5945 -2.7338,12.71 -0.104,0.1156 -8.4254,-7.9844 -18.492,-18 z m -76.964,-137.21 c 10.4947,-80.4881 13.3199,-103.37 12.8197,-103.8283 -0.7528,-0.6897 -91.4025,1.4446 -92.1141,2.1687 -0.5491,0.5589 -23.8474,145.3338 -23.4686,145.8339 0.346,0.4569 87.6859,7.1075 91.6149,6.9761 l 4.4983,-0.1504 z m -965.54872,89.75 c -16.39191,-29.0125 -30.09464,-53.0276 -30.45051,-53.3669 -0.70025,-0.6676 -50.67699,5.3135 -51.53054,6.1671 -0.28454,0.2845 -4.17623,17.1521 -8.64821,37.4836 -4.47198,20.3314 -8.43179,37.2749 -8.79958,37.6522 -0.36779,0.3773 -11.91871,-3.9501 -25.668708,-9.6165 -20.81971,-8.5797 -24.96737,-10.6185 -24.80483,-12.193 0.10734,-1.0399 10.11984,-46.1095 22.25,-100.1548 12.130158,-54.0453 22.054828,-98.9634 22.054828,-99.818 0,-1.3422 -1.22605,-1.4579 -9,-0.8498 -5.04011,0.3943 -9.00365,0.3173 -9.0083,-0.1749 -0.0188,-1.9865 14.32613,-69.9312 14.89294,-70.5406 0.33845,-0.3639 40.08099,-2.7153 88.31676,-5.2254 l 87.70139,-4.5639 21.19168,-15.5481 c 11.65542,-8.5515 21.32152,-15.4183 21.48023,-15.2596 0.74937,0.7493 -55.13515,260.755 -56.04019,260.7298 -0.56898,-0.016 -4.85951,-2.2171 -9.53451,-4.8917 -4.675,-2.6746 -8.64299,-4.7312 -8.81775,-4.5701 -0.2776,0.2558 34.75298,65.4765 41.60798,77.4667 1.40748,2.4618 2.69522,4.0368 2.86165,3.5 0.16643,-0.5369 9.09211,-60.1511 19.83483,-132.4761 10.74273,-72.325 20.05583,-134.9875 20.69578,-139.25 0.88778,-5.9132 1.5373,-7.7459 2.74053,-7.7325 0.86734,0.01 5.9678,1.3112 11.33436,2.8925 5.36655,1.5813 9.92809,2.586 10.13674,2.2326 0.20865,-0.3534 0.70667,-4.4676 1.10671,-9.1426 1.14321,-13.36 -0.74897,-12.4156 23.36644,-11.6621 11.348,0.3546 47.11902,0.6486 79.49115,0.6534 l 58.85842,0.01 -0.64532,18.75 c -0.35493,10.3125 -0.89594,20.8875 -1.20226,23.5 l -0.55694,4.75 h 6.09384 c 3.35161,0 6.09384,0.1559 6.09384,0.3464 0,0.1905 -5.85,41.9192 -13,92.7304 -7.15,50.8113 -13,92.6616 -13,93.0008 0,0.3392 1.0125,1.0682 2.25,1.6199 2.14643,0.9569 2.46194,2.7247 6.85409,38.4028 2.53225,20.5698 4.50986,37.5221 4.3947,37.6717 -0.11516,0.1495 -39.087,-3.9482 -86.60408,-9.1062 -47.51709,-5.158 -86.50403,-9.296 -86.63765,-9.1957 -0.13361,0.1003 -0.69929,2.5888 -1.25706,5.5299 -0.55777,2.9411 -1.19528,5.5286 -1.41669,5.75 -0.46541,0.4654 -50.70633,16.1948 -51.83331,16.2279 -0.4125,0.012 -0.75,-0.9175 -0.75,-2.0658 0,-1.849 -0.42899,-2.0216 -3.75,-1.5083 -3.82587,0.5913 -40.40705,4.5962 -41.98209,4.5962 -0.47679,0 -14.27845,-23.7375 -30.67036,-52.75 z m 238.81561,-42 c 1.65932,-10.5651 19.68694,-151.4774 19.41022,-151.7193 -0.39664,-0.3467 -92.21084,1.5762 -92.60495,1.9395 -0.46114,0.4251 -23.37177,145.7098 -23.0313,146.0499 0.38485,0.3844 84.49629,7.1864 90.97497,7.3571 4.64428,0.1223 4.66436,0.1085 5.25106,-3.6272 z m -253.41316,-94.8757 c 19.525,-0.9155 35.66959,-1.8064 35.87687,-1.9796 0.72157,-0.6033 15.33025,-63.5209 14.85831,-63.9929 -0.47605,-0.476 -70.75756,3.1723 -80.31077,4.169 l -5.0756,0.5295 -6.69127,30.6999 c -3.6802,16.8849 -6.68368,31.3147 -6.67441,32.0663 0.0132,1.0723 1.36225,1.238 6.26687,0.7694 3.4375,-0.3284 22.225,-1.3461 41.75,-2.2616 z M 15.331408,1345.0946 c -3.04725,-3.3672 -4.705199,-11.235 -5.288065,-25.0946 -0.6420766,-15.2676 0.687987,-27.9181 3.635962,-34.5825 1.853625,-4.1904 2.165442,-4.4175 6.066524,-4.4175 3.901082,0 4.212899,0.2271 6.066524,4.4175 2.947975,6.6644 4.27804,19.3149 3.635962,34.5825 -0.805184,19.1459 -3.627556,27 -9.702486,27 -1.479514,0 -3.466003,-0.8574 -4.414421,-1.9054 z m 1604.999992,0 c -3.0473,-3.3672 -4.7052,-11.235 -5.2881,-25.0946 -0.6421,-15.2676 0.688,-27.9181 3.636,-34.5825 1.8536,-4.1904 2.1654,-4.4175 6.0665,-4.4175 3.9011,0 4.2129,0.2271 6.0665,4.4175 2.948,6.6644 4.2781,19.3149 3.636,34.5825 -0.8052,19.1459 -3.6276,27 -9.7025,27 -1.4795,0 -3.466,-0.8574 -4.4144,-1.9054 z m -156.5741,-2.2949 c 0.016,-3.2248 10.6974,-83.8419 11.1712,-84.3158 0.4126,-0.4125 50.9938,5.3592 51.5126,5.8781 0.2817,0.2816 -10.7478,75.8471 -11.1467,76.3686 -0.097,0.1268 -9.1477,0.9 -20.1125,1.7182 -10.9649,0.8183 -22.5236,1.7493 -25.6861,2.0691 -5.5039,0.5565 -5.7495,0.483 -5.7385,-1.7182 z M 15.34219,1266.4535 c -2.878168,-2.8782 -4.713529,-11.7002 -5.295418,-25.4535 -0.6459726,-15.268 0.682241,-27.9129 3.632533,-34.5825 1.853625,-4.1904 2.165442,-4.4175 6.066524,-4.4175 3.901082,0 4.212899,0.2271 6.066524,4.4175 5.86776,13.265 4.749914,53.6232 -1.662885,60.036 -0.850573,0.8506 -2.83221,1.5465 -4.403639,1.5465 -1.571429,0 -3.553066,-0.6959 -4.403639,-1.5465 z m 1604.98511,-0.015 c -3.7027,-3.7028 -5.0619,-12.1446 -5.0619,-31.4387 0,-24.8259 2.3483,-33 9.4804,-33 7.1321,0 9.4804,8.1741 9.4804,33 0,24.8259 -2.3483,33 -9.4804,33 -1.5714,0 -3.5597,-0.7026 -4.4185,-1.5613 z M 1479.0129,1237.25 c 0.2845,-1.5125 6.7097,-45.5 14.2784,-97.75 7.5687,-52.25 14.0869,-95.3722 14.485,-95.8272 0.3981,-0.4549 11.9166,-4.1013 25.5967,-8.1031 13.68,-4.0017 25.8853,-7.5973 27.1228,-7.9902 1.8652,-0.5921 2.25,-0.3402 2.25,1.4727 0,1.9376 -28.0069,185.2273 -28.3591,185.5948 -0.6246,0.6516 -54.0845,25.353 -54.8701,25.353 -0.5723,0 -0.7936,-1.2082 -0.5037,-2.75 z M 13.679305,1184.5825 C 10.73133,1177.9181 9.4012664,1165.2676 10.043343,1150 c 0.805184,-19.1459 3.627556,-27 9.702486,-27 6.07493,0 8.897302,7.8541 9.702486,27 0.642078,15.2676 -0.687987,27.9181 -3.635962,34.5825 -1.853625,4.1904 -2.165442,4.4175 -6.066524,4.4175 -3.901082,0 -4.212899,-0.2271 -6.066524,-4.4175 z m 1604.999995,0 c -2.948,-6.6644 -4.2781,-19.3149 -3.636,-34.5825 0.8052,-19.1459 3.6276,-27 9.7025,-27 6.0749,0 8.8973,7.8541 9.7025,27 0.6421,15.2676 -0.688,27.9181 -3.636,34.5825 -1.8536,4.1904 -2.1654,4.4175 -6.0665,4.4175 -3.9011,0 -4.2129,-0.2271 -6.0665,-4.4175 z m -1604.999995,-79 C 10.73133,1098.9181 9.4012664,1086.2676 10.043343,1071 c 0.805184,-19.1459 3.627556,-27 9.702486,-27 6.07493,0 8.897302,7.8541 9.702486,27 0.642078,15.2676 -0.687987,27.9181 -3.635962,34.5825 -1.853625,4.1904 -2.165442,4.4175 -6.066524,4.4175 -3.901082,0 -4.212899,-0.2271 -6.066524,-4.4175 z m 1604.999995,0 c -2.948,-6.6644 -4.2781,-19.3149 -3.636,-34.5825 0.8052,-19.1459 3.6276,-27 9.7025,-27 6.0749,0 8.8973,7.8541 9.7025,27 0.6421,15.2676 -0.688,27.9181 -3.636,34.5825 -1.8536,4.1904 -2.1654,4.4175 -6.0665,4.4175 -3.9011,0 -4.2129,-0.2271 -6.0665,-4.4175 z m -1604.999995,-79 C 10.73133,1019.9181 9.4012664,1007.2676 10.043343,992 c 0.805184,-19.1459 3.627556,-27 9.702486,-27 6.07493,0 8.897302,7.8541 9.702486,27 0.642078,15.2676 -0.687987,27.9181 -3.635962,34.5825 -1.853625,4.1904 -2.165442,4.4175 -6.066524,4.4175 -3.901082,0 -4.212899,-0.2271 -6.066524,-4.4175 z m 1604.999995,0 c -2.9503,-6.6696 -4.2785,-19.3145 -3.6326,-34.5825 0.8381,-19.809 3.8146,-27.5897 10.2618,-26.825 1.5067,0.1788 3.5938,1.4746 4.6378,2.8797 5.8647,7.8924 6.4107,45.9931 0.8397,58.5874 -1.8247,4.1249 -2.1476,4.3579 -6.0402,4.3579 -3.9011,0 -4.2129,-0.2271 -6.0665,-4.4175 z M 13.823711,948.1527 c -2.924163,-5.7319 -4.4344696,-19.637 -3.7638,-34.6527 0.901177,-20.1765 3.753051,-27.9338 10.035948,-27.2985 4.368196,0.4417 6.5433,4.1954 8.320278,14.3588 2.794846,15.9852 0.564427,44.7272 -3.894784,50.1897 -0.561228,0.6875 -2.756168,1.25 -4.877645,1.25 -3.46782,0 -4.055385,-0.3884 -5.819997,-3.8473 z M 1620.0358,950.75 c -6.6932,-8.7622 -7.0378,-52.9138 -0.4815,-61.6953 2.6364,-3.5312 7.7487,-3.5284 10.3872,0.01 6.3878,8.5557 6.0801,53.7268 -0.4202,61.6897 -0.5612,0.6875 -2.7102,1.25 -4.7755,1.25 -2.0653,0 -4.1848,-0.5625 -4.71,-1.25 z M 567.88192,923.5948 c -6.25016,-2.3378 -11.77943,-4.993 -12.28728,-5.9005 -0.50785,-0.9075 -3.34451,-16.1724 -6.30369,-33.9221 C 538.83487,821.05476 523.89233,745.53435 483.7451,552.5 460.18071,439.19858 454.81267,413.2902 448.68243,383.27286 441.13644,346.3232 424.89248,264.38013 417.24732,224.69757 l -5.74169,-29.80243 3.16053,-30.69757 c 1.73829,-16.88366 3.41028,-31.9678 3.71553,-33.5203 1.32885,-6.75854 11.2864,-9.14722 50.86414,-12.20166 23.34531,-1.80168 28.14201,-1.48916 32.42228,2.11245 4.64575,3.90914 8.45718,17.06397 19.96631,68.91194 9.51454,42.86252 19.72873,90.92332 46.11823,217 66.34352,316.95839 87.69065,417.59747 88.81815,418.72497 0.5194,0.5194 2.00876,0.79376 3.30969,0.60969 l 2.36534,-0.33466 0.86098,-190.45175 0.86099,-190.45175 14.59427,-18.04825 c 8.02686,-9.92654 15.01297,-18.33754 15.5247,-18.69112 0.51173,-0.35358 3.45686,-0.4276 6.54474,-0.16449 3.08787,0.26311 21.23972,1.4778 40.33743,2.69931 19.09771,1.22151 35.07271,2.57032 35.5,2.99735 0.42729,0.42703 1.16006,90.85163 1.62837,200.94356 0.46831,110.09193 0.92295,200.24678 1.01031,200.34412 0.39402,0.43903 24.6851,-2.39053 25.23396,-2.9394 0.5479,-0.54789 -0.19137,-68.14249 -2.51805,-230.23758 -0.40262,-28.05 -0.69732,-66.27032 -0.65487,-84.93405 l 0.0772,-33.93405 20.34015,-16.81595 c 18.10143,-14.96512 20.74296,-16.81683 24,-16.82398 8.3429,-0.0183 74.71126,4.26603 75.30649,4.86132 1.19644,1.19657 3.91996,121.88252 4.85248,215.02537 0.50868,50.80827 1.13007,92.58387 1.38088,92.83467 0.53579,0.5358 0.65847,0.14253 30.63578,-98.21333 C 1036.3421,385.67664 1075.9073,260.42329 1081.0489,253.20386 1083.6711,249.52204 1149.4417,197 1151.43,197 c 3.5385,0 31.332,12.04779 47.0927,20.41347 4.0023,2.1244 9.1084,5.48794 11.347,7.47454 l 4.07,3.61199 -2.0375,8.5 c -2.3546,9.82303 -20.7192,74.06741 -35.3031,123.5 -16.6117,56.30564 -24.8027,83.83864 -58.0125,195 -8.1267,27.20223 -17.1363,57.55718 -32.5004,109.5 -19.1772,64.83423 -33.3317,115.74344 -33.3372,119.90279 v 2.40279 l 10.75,-0.64531 c 5.9125,-0.35492 28.525,-2.00954 50.25,-3.67694 48.3545,-3.71122 72.9004,-4.6759 78.6745,-3.092 3.3405,0.91632 4.286,1.69096 4.7323,3.8769 2.5577,12.52814 6.5733,49.40027 6.5844,60.45872 0.01,7.95604 -0.19,8.85587 -2.2412,10.18647 -4.0435,2.62295 -11.745,3.69761 -93.75,13.08183 -31.075,3.55605 -75.85,8.70595 -99.5,11.44415 -44.60049,5.1639 -71.20418,8.2228 -87.49997,10.0606 -5.225,0.5892 -21.2,2.4189 -35.5,4.066 -14.3,1.647 -48.275,5.473 -75.5,8.5021 -136.66471,15.2057 -210.56281,23.6976 -221.5,25.4535 -8.06518,1.2948 -7.4752,1.3941 -20.36391,-3.4268 z M 15.301755,871.6468 c -3.660502,-3.66047 -5.009788,-12.00853 -5.034222,-31.1468 -0.02441,-19.12165 1.31866,-27.43127 5.034222,-31.14684 4.954755,-4.95475 10.382773,-1.39812 12.590893,8.25 0.848601,3.70787 1.349581,12.20743 1.349581,22.89684 0,10.68941 -0.50098,19.18897 -1.349581,22.89684 C 26.432874,869.7752 23.186757,874 19.745829,874 c -1.15,0 -3.149833,-1.0589 -4.444074,-2.3532 z m 1604.999945,0 c -3.6605,-3.66047 -5.0098,-12.00853 -5.0342,-31.1468 -0.024,-19.12165 1.3187,-27.43127 5.0342,-31.14684 4.9609,-4.96084 10.3965,-1.3936 12.571,8.25 1.8003,7.98381 1.8145,37.97078 0.022,45.79368 -1.4619,6.37806 -4.709,10.60316 -8.1489,10.60316 -1.15,0 -3.1498,-1.0589 -4.4441,-2.3532 z M 14.958422,792.54314 C 11.340818,787.9441 10.244648,780.69599 10.263606,761.5 c 0.01436,-14.5374 0.369182,-19.1542 1.844521,-24 2.348232,-7.71284 3.07208,-8.5 7.816377,-8.5 3.6817,0 4.057318,0.27927 5.861503,4.35792 5.571029,12.59424 5.025014,50.69491 -0.839607,58.58738 -2.71234,3.6502 -7.3678,3.92886 -9.987978,0.59784 z m 1605.343178,0.51855 c -2.9462,-3.25556 -4.6633,-11.60033 -5.2598,-25.56169 -0.618,-14.46235 0.8404,-28.7259 3.509,-34.3206 2.9866,-6.26121 9.9424,-6.11296 12.6089,0.26875 5.2024,12.45124 4.4042,50.93722 -1.2133,58.49715 -2.4794,3.33671 -7.1465,3.87693 -9.6448,1.11639 z M 15.331408,714.09456 C 12.263282,710.70432 10.655947,702.87372 10.077783,688.5 9.4501854,672.89729 10.694364,661.16544 13.69638,654.37888 15.531231,650.2309 15.850218,650 19.745829,650 c 3.901082,0 4.212899,0.22706 6.066524,4.41748 2.947975,6.66439 4.27804,19.31496 3.635962,34.58252 -0.805184,19.14593 -3.627556,27 -9.702486,27 -1.479514,0 -3.466003,-0.85745 -4.414421,-1.90544 z m 1604.999992,0 c -3.0473,-3.36717 -4.7052,-11.23498 -5.2881,-25.09456 -0.6421,-15.26756 0.688,-27.91813 3.636,-34.58252 1.8536,-4.19042 2.1654,-4.41748 6.0665,-4.41748 3.9011,0 4.2129,0.22706 6.0665,4.41748 2.948,6.66439 4.2781,19.31496 3.636,34.58252 -0.8052,19.14593 -3.6276,27 -9.7025,27 -1.4795,0 -3.466,-0.85745 -4.4144,-1.90544 z m -1604.999992,-79 C 12.284158,631.72739 10.626209,623.85958 10.043343,610 9.4012664,594.73244 10.73133,582.08187 13.679305,575.41748 15.53293,571.22706 15.844747,571 19.745829,571 c 3.901082,0 4.212899,0.22706 6.066524,4.41748 2.947975,6.66439 4.27804,19.31496 3.635962,34.58252 -0.805184,19.14593 -3.627556,27 -9.702486,27 -1.479514,0 -3.466003,-0.85745 -4.414421,-1.90544 z m 1604.999992,0 c -3.0473,-3.36717 -4.7052,-11.23498 -5.2881,-25.09456 -0.6421,-15.26756 0.688,-27.91813 3.636,-34.58252 1.8536,-4.19042 2.1654,-4.41748 6.0665,-4.41748 3.9011,0 4.2129,0.22706 6.0665,4.41748 2.948,6.66439 4.2781,19.31496 3.636,34.58252 -0.8052,19.14593 -3.6276,27 -9.7025,27 -1.4795,0 -3.466,-0.85745 -4.4144,-1.90544 z m -1604.999992,-79 C 12.284158,552.72739 10.626209,544.85958 10.043343,531 9.4012664,515.73244 10.73133,503.08187 13.679305,496.41748 15.53293,492.22706 15.844747,492 19.745829,492 c 3.901082,0 4.212899,0.22706 6.066524,4.41748 2.947975,6.66439 4.27804,19.31496 3.635962,34.58252 -0.805184,19.14593 -3.627556,27 -9.702486,27 -1.479514,0 -3.466003,-0.85745 -4.414421,-1.90544 z m 1604.999992,0 c -3.0473,-3.36717 -4.7052,-11.23498 -5.2881,-25.09456 -0.6421,-15.26756 0.688,-27.91813 3.636,-34.58252 1.8536,-4.19042 2.1654,-4.41748 6.0665,-4.41748 3.9011,0 4.2129,0.22706 6.0665,4.41748 2.948,6.66439 4.2781,19.31496 3.636,34.58252 -0.8052,19.14593 -3.6276,27 -9.7025,27 -1.4795,0 -3.466,-0.85745 -4.4144,-1.90544 z M 13.679305,474.58252 C 7.8115464,461.31747 8.9293924,420.9593 15.34219,414.5465 16.192763,413.69592 18.1744,413 19.745829,413 c 1.571429,0 3.553066,0.69592 4.403639,1.5465 2.878168,2.87816 4.713529,11.7002 5.295418,25.4535 0.645974,15.26799 -0.682241,27.91289 -3.632533,34.58252 C 23.958728,478.77294 23.646911,479 19.745829,479 c -3.901082,0 -4.212899,-0.22706 -6.066524,-4.41748 z m 1604.999995,0 c -5.8678,-13.26505 -4.7499,-53.62322 1.6629,-60.03602 1.9954,-1.99546 6.8199,-1.98735 8.8221,0.0148 3.7027,3.70274 5.0619,12.1446 5.0619,31.43868 0,25.50662 -2.2952,33 -10.1081,33 -3.1589,0 -3.6675,-0.41309 -5.4388,-4.41748 z m -1604.999995,-79 C 10.73133,388.91813 9.4012664,376.26756 10.043343,361 c 0.805184,-19.14593 3.627556,-27 9.702486,-27 6.07493,0 8.897302,7.85407 9.702486,27 0.642078,15.26756 -0.687987,27.91813 -3.635962,34.58252 C 23.958728,399.77294 23.646911,400 19.745829,400 c -3.901082,0 -4.212899,-0.22706 -6.066524,-4.41748 z m 1604.999995,0 c -2.948,-6.66439 -4.2781,-19.31496 -3.636,-34.58252 0.8052,-19.14593 3.6276,-27 9.7025,-27 6.1313,0 8.8759,7.80677 9.668,27.5 0.6276,15.60271 -0.6165,27.33456 -3.6186,34.12112 -1.8348,4.14798 -2.1538,4.37888 -6.0494,4.37888 -3.9011,0 -4.2129,-0.22706 -6.0665,-4.41748 z M 13.69638,316.62112 C 10.694364,309.83456 9.4501854,298.10271 10.077783,282.5 10.869917,262.80677 13.614506,255 19.745829,255 c 6.07493,0 8.897302,7.85407 9.702486,27 0.642078,15.26756 -0.687987,27.91813 -3.635962,34.58252 C 23.958728,320.77294 23.646911,321 19.745829,321 c -3.895611,0 -4.214598,-0.2309 -6.049449,-4.37888 z m 1604.98292,-0.0386 c -2.948,-6.66439 -4.2781,-19.31496 -3.636,-34.58252 0.8052,-19.14593 3.6276,-27 9.7025,-27 6.0749,0 8.8973,7.85407 9.7025,27 0.6421,15.26756 -0.688,27.91813 -3.636,34.58252 -1.8536,4.19042 -2.1654,4.41748 -6.0665,4.41748 -3.9011,0 -4.2129,-0.22706 -6.0665,-4.41748 z M 13.705651,237.64208 C 8.1297374,225.03679 8.6818684,186.9202 14.554307,179.0547 c 2.634354,-3.52843 7.74869,-3.52843 10.383044,0 5.87244,7.8655 6.424571,45.98209 0.848656,58.58738 C 23.96135,241.76702 23.638429,242 19.745829,242 c -3.8926,0 -4.215521,-0.23298 -6.040178,-4.35792 z m 1604.973649,-0.0596 c -2.948,-6.66439 -4.2781,-19.31496 -3.636,-34.58252 0.8052,-19.14593 3.6276,-27 9.7025,-27 6.0749,0 8.8973,7.85407 9.7025,27 0.6421,15.26756 -0.688,27.91813 -3.636,34.58252 -1.8536,4.19046 -2.1654,4.41752 -6.0665,4.41752 -3.9011,0 -4.2129,-0.22706 -6.0665,-4.41748 z M 16.486247,162.91454 c -7.7798466,-4.53038 -9.2704586,-53.03068 -1.93194,-62.85983 2.636414,-3.53119 7.748699,-3.52842 10.387249,0.006 4.892497,6.55297 6.358297,41.35423 2.314012,54.93966 -2.321008,7.79666 -6.145316,10.6072 -10.769321,7.91454 z m 1604.999953,0 c -4.6635,-2.71569 -7.287,-18.13366 -6.4394,-37.84405 0.6584,-15.31157 2.4751,-23.66102 5.7198,-26.28844 5.2175,-4.22487 9.9335,-0.72421 12.1634,9.02872 2.0969,9.17161 1.7081,39.15604 -0.6092,46.98353 -2.4126,8.14923 -6.0733,10.89285 -10.8346,8.12024 z M 15.318271,82.66335 C 12.368519,79.7136 10.78629,72.56166 10.034228,58.77861 L 9.4492254,48.05722 6.0621074,46.93937 C 1.8094624,45.53587 -0.70003462,41.9126 0.17256038,38.43591 0.64999138,36.53367 2.2161574,35.2397 6.1430924,33.50302 11.079166,31.32005 11.51461,30.84743 12.128844,27.00622 12.849189,22.50143 16.52233,18 19.477868,18 c 3.183512,0 5.990907,2.80932 7.326009,7.33104 l 1.294143,4.38299 12.167618,0.65047 c 18.152473,0.97043 26.480191,4.10919 26.480191,9.98052 0,5.48538 -8.158599,8.52812 -25.107503,9.36381 l -11.607504,0.57232 -0.59229,9.60943 C 28.364609,77.31411 25.397711,85 19.745829,85 c -1.15,0 -3.142401,-1.05149 -4.427558,-2.33665 z M 1620.2577,83.01317 c -2.622,-2.89733 -4.509,-11.11478 -5.1948,-22.6226 l -0.6025,-10.10944 -11.6073,-0.57231 c -16.9487,-0.83568 -25.1073,-3.87844 -25.1073,-9.3638 0,-5.8714 8.5358,-9.09396 26.528,-10.01526 l 12.0281,-0.6159 1.5044,-4.58679 c 3.2087,-9.78315 10.9501,-9.33288 14.0087,0.81481 1.5168,5.03231 1.973,5.55028 6.7415,7.65473 3.7397,1.65044 5.2886,2.95081 5.7621,4.83758 0.8731,3.47852 -1.6354,7.10134 -5.8891,8.50518 l -3.3871,1.11785 -0.585,10.72139 c -0.7521,13.78305 -2.3343,20.93499 -5.284,23.88474 -2.8603,2.86023 -6.5141,3.00359 -8.9157,0.34982 z M 92.773772,48.91981 c -6.23091,-1.10141 -11.93659,-3.67098 -13.35629,-6.01503 -1.94189,-3.20624 0.1225,-6.92618 5.05441,-9.1078 10.77354,-4.76565 44.749148,-4.77679 55.506718,-0.0182 8.52671,3.77177 7.27676,10.72487 -2.47989,13.79491 -6.27254,1.97373 -36.09639,2.87136 -44.724948,1.34613 z m 82.472058,0.45435 c -10.32194,-2.03261 -12.71251,-2.75347 -14.93894,-4.50479 -3.0272,-2.38119 -3.41986,-6.795 -0.81106,-9.11701 7.24665,-6.45003 46.77735,-7.5938 60.01859,-1.73657 4.25286,1.88124 4.3425,2.01888 4.04038,6.20407 -0.27248,3.77468 -0.7223,4.48082 -3.80897,5.97943 -1.925,0.93461 -6.425,2.16871 -10,2.74245 -6.13495,0.98457 -30.16648,1.28578 -34.5,0.43242 z m 79,0 c -10.32194,-2.03261 -12.71251,-2.75347 -14.93894,-4.50479 -4.77819,-3.75852 -3.01646,-8.99629 3.93894,-11.7108 11.266,-4.39681 44.58023,-3.87075 55.30496,0.87331 4.21228,1.86329 4.30577,2.00777 4.00401,6.18798 -0.27257,3.77588 -0.72334,4.48291 -3.82606,6.00123 -1.93439,0.94659 -6.65939,2.17518 -10.5,2.73019 -6.66838,0.96365 -29.7765,1.25121 -33.98291,0.42288 z m 78,-0.0717 c -5.48202,-0.72709 -13.35611,-3.3014 -14.93868,-4.88398 -2.43297,-2.43297 -1.95441,-6.9641 0.97926,-9.27172 7.74597,-6.09298 47.26,-6.77054 59.20942,-1.01528 3.92096,1.88848 4.25,2.34816 4.25,5.93742 0,3.51192 -0.37746,4.08304 -3.87923,5.86951 -2.13358,1.08847 -6.74608,2.44422 -10.25,3.01277 -6.03818,0.97976 -28.91891,1.207 -35.37077,0.35128 z m 76.62076,-0.42972 c -2.95858,-0.49141 -7.34608,-1.7635 -9.75,-2.82686 -3.95459,-1.7493 -4.37076,-2.2651 -4.37076,-5.41705 0,-7.51063 8.37836,-10.06638 33,-10.06638 24.53099,0 33,2.56376 33,9.98983 0,2.96184 -0.51698,3.67084 -3.95589,5.42524 -2.17574,1.10998 -7.01324,2.46021 -10.75,3.00052 -8.2192,1.18842 -29.75158,1.12743 -37.17335,-0.10529 z m 78.09621,0.0743 c -2.90567,-0.51704 -7.06817,-1.85077 -9.25,-2.96386 -3.39376,-1.73137 -3.96476,-2.49047 -3.95166,-5.25347 0.008,-1.77633 0.3617,-3.77473 0.78505,-4.44089 2.57467,-4.05137 20.66787,-6.84853 38.33141,-5.92594 19.70567,1.02927 26.86823,3.59866 26.86823,9.63831 0,6.77122 -7.45872,9.10804 -30.5,9.55566 -9.35,0.18165 -19.37737,-0.0928 -22.28303,-0.6098 z m 78.79355,-0.0297 c -3.01921,-0.53338 -7.06921,-1.78668 -9,-2.78512 -3.05516,-1.57987 -3.5506,-2.35866 -3.81949,-6.00391 -0.30079,-4.07769 -0.19385,-4.23948 4.04038,-6.11248 6.23289,-2.75711 21.3087,-4.35743 34.76859,-3.69074 19.56435,0.96905 27,3.63379 27,9.6761 0,6.77123 -7.45872,9.10805 -30.5,9.55567 -9.35,0.18164 -19.47026,-0.10614 -22.48948,-0.63952 z m 79.01742,0.002 c -3.00964,-0.532 -7.05964,-1.74409 -9,-2.69354 -3.11461,-1.52402 -3.56414,-2.22773 -3.83691,-6.00641 -0.30417,-4.2137 -0.23802,-4.31153 4.26128,-6.30178 13.02045,-5.75957 52.63106,-4.54452 59.79769,1.83428 2.30866,2.05487 2.22882,6.50434 -0.15544,8.66207 -3.90729,3.53605 -10.97021,4.80709 -28.59456,5.14587 -9.35,0.17973 -19.46243,-0.10849 -22.47206,-0.64049 z m 79,0 c -3.00964,-0.532 -7.05964,-1.74409 -9,-2.69354 -3.11461,-1.52402 -3.56414,-2.22773 -3.83691,-6.00641 -0.30417,-4.2137 -0.23802,-4.31153 4.26128,-6.30178 13.07987,-5.78585 52.59836,-4.57363 59.79769,1.83428 2.30866,2.05487 2.22882,6.50434 -0.15544,8.66207 -3.90729,3.53605 -10.97021,4.80709 -28.59456,5.14587 -9.35,0.17973 -19.46243,-0.10849 -22.47206,-0.64049 z m 81.47206,0.44274 c -11.95562,-1.82519 -17.42437,-5.5434 -16.07293,-10.92798 1.55209,-6.18402 22.00602,-9.76283 44.41487,-7.77123 18.29548,1.62601 25.276,5.92915 20.77119,12.80436 -2.76258,4.21623 -10.00141,5.72198 -29.11313,6.05586 -9.35,0.16334 -18.35,0.0909 -20,-0.16101 z m 80,0.0116 c -10.32194,-2.0326 -12.71251,-2.75347 -14.93894,-4.50479 -3.0272,-2.38119 -3.41986,-6.795 -0.81106,-9.11701 7.16663,-6.3788 46.77724,-7.59385 59.79769,-1.83428 4.4993,1.99025 4.56545,2.08808 4.26128,6.30178 -0.27248,3.77468 -0.7223,4.48082 -3.80897,5.97943 -1.925,0.93461 -6.425,2.16871 -10,2.74245 -6.13495,0.98457 -30.16648,1.28578 -34.5,0.43242 z m 79,0 c -10.32194,-2.0326 -12.71251,-2.75347 -14.93894,-4.50479 -3.0272,-2.38119 -3.41986,-6.795 -0.81106,-9.11701 7.24665,-6.45003 46.77726,-7.5938 60.01857,-1.73657 4.2528,1.88124 4.3425,2.01888 4.0404,6.20407 -0.2725,3.77468 -0.7223,4.48082 -3.809,5.97943 -1.925,0.93461 -6.425,2.16871 -10.00001,2.74245 -6.135,0.98457 -30.16644,1.28578 -34.49996,0.43242 z m 77.99997,-0.0717 c -5.482,-0.72709 -13.3561,-3.3014 -14.9387,-4.88398 -2.1388,-2.13882 -1.9623,-6.74554 0.3381,-8.82746 6.9777,-6.31472 46.7869,-7.36214 59.8692,-1.57521 4.2525,1.88107 4.3425,2.01921 4.0404,6.20215 -0.2762,3.82419 -0.6968,4.46019 -3.9631,5.99286 -2.0098,0.94305 -6.5098,2.17802 -10,2.74437 -6.0185,0.97659 -28.9056,1.20146 -35.3459,0.34727 z m 79,0 c -5.482,-0.72709 -13.3561,-3.3014 -14.9387,-4.88398 -2.4408,-2.44083 -1.954,-6.96438 0.9995,-9.2876 4.193,-3.29827 12.656,-4.56843 30.4392,-4.56843 24.531,0 33,2.56375 33,9.98983 0,2.93115 -0.5238,3.67367 -3.75,5.31546 -2.0625,1.0496 -6.9862,2.40875 -10.9416,3.02032 -6.7467,1.04319 -28.1467,1.29795 -34.8084,0.4144 z m 76.9448,-0.29425 c -2.7804,-0.40826 -7.1679,-1.67682 -9.75,-2.81901 -4.2972,-1.90084 -4.6948,-2.37175 -4.6948,-5.56037 0,-7.51063 8.3784,-10.06638 33,-10.06638 24.6216,0 33,2.55575 33,10.06638 0,3.13762 -0.4227,3.67066 -4.256,5.36629 -2.3408,1.03546 -7.1783,2.35675 -10.75,2.93622 -7.2426,1.17503 -28.7622,1.2203 -36.5492,0.0769 z m 78.3458,-0.028 c -3.1402,-0.49397 -7.5277,-1.82574 -9.75,-2.95949 -3.7129,-1.89415 -4.0406,-2.38872 -4.0406,-6.09726 0,-3.79252 0.2587,-4.15036 4.2904,-5.93375 6.1785,-2.73307 21.2951,-4.32908 34.7096,-3.66465 19.5644,0.96905 27,3.6338 27,9.67611 0,6.71656 -7.4839,9.09841 -30,9.54783 -9.075,0.18114 -19.0692,-0.0748 -22.2094,-0.56879 z m 78.8279,-0.0215 c -3.2348,-0.50579 -7.5098,-1.71592 -9.5,-2.68916 -3.2138,-1.57162 -3.6531,-2.24826 -3.9275,-6.04968 -0.3021,-4.18519 -0.2124,-4.32283 4.0404,-6.20407 13.0823,-5.78693 52.8915,-4.73951 59.8692,1.57521 2.4397,2.20798 2.4368,6.61273 -0.01,8.82342 -3.8637,3.49657 -10.9923,4.80028 -28.0946,5.13804 -9.075,0.17923 -19.1467,-0.088 -22.3815,-0.59376 z m 78.4094,-0.0389 c -3.0096,-0.532 -7.0596,-1.74409 -9,-2.69354 -3.1146,-1.52402 -3.5641,-2.22773 -3.8369,-6.00641 -0.3041,-4.2137 -0.238,-4.31153 4.2613,-6.30178 13.0799,-5.78585 52.5984,-4.57363 59.7977,1.83428 2.3087,2.05487 2.2288,6.50434 -0.1554,8.66207 -3.9073,3.53605 -10.9703,4.80709 -28.5946,5.14587 -9.35,0.17973 -19.4624,-0.10849 -22.4721,-0.64049 z m 81.4721,0.44273 c -11.9556,-1.82519 -17.4244,-5.5434 -16.0729,-10.92798 1.4442,-5.75408 18.2447,-9.13923 40.0729,-8.07432 18.274,0.8915 26.5,4.02532 26.5,10.09556 0,6.17692 -8.4516,8.69056 -30.5,9.07123 -9.35,0.16143 -18.35,0.0874 -20,-0.16449 z"
     id="path4194"
     inkscape:connector-curvature="0" />
</svg>
