<?xml version="1.0" encoding="UTF-8" standalone="no"?>
<!-- Created with Inkscape (http://www.inkscape.org/) -->

<svg
   xmlns:dc="http://purl.org/dc/elements/1.1/"
   xmlns:cc="http://creativecommons.org/ns#"
   xmlns:rdf="http://www.w3.org/1999/02/22-rdf-syntax-ns#"
   xmlns:svg="http://www.w3.org/2000/svg"
   xmlns="http://www.w3.org/2000/svg"
   xmlns:sodipodi="http://sodipodi.sourceforge.net/DTD/sodipodi-0.dtd"
   xmlns:inkscape="http://www.inkscape.org/namespaces/inkscape"
   version="1.1"
   id="svg1173"
   width="691"
   height="691"
   viewBox="0 0 691 691"
   sodipodi:docname="Patch5.jpg.svg"
   inkscape:version="0.92.1 r15371">
  <metadata
     id="metadata1179">
    <rdf:RDF>
      <cc:Work
         rdf:about="">
        <dc:format>image/svg+xml</dc:format>
        <dc:type
           rdf:resource="http://purl.org/dc/dcmitype/StillImage" />
        <dc:title></dc:title>
      </cc:Work>
    </rdf:RDF>
  </metadata>
  <defs
     id="defs1177" />
  <sodipodi:namedview
     pagecolor="#ffffff"
     bordercolor="#666666"
     borderopacity="1"
     objecttolerance="10"
     gridtolerance="10"
     guidetolerance="10"
     inkscape:pageopacity="0"
     inkscape:pageshadow="2"
     inkscape:window-width="731"
     inkscape:window-height="480"
     id="namedview1175"
     showgrid="false"
     inkscape:zoom="0.34153401"
     inkscape:cx="345.5"
     inkscape:cy="345.5"
     inkscape:window-x="0"
     inkscape:window-y="27"
     inkscape:window-maximized="0"
     inkscape:current-layer="svg1173" />
  <path
     style="fill:#000000"
     d="m 5.7433242,688.0127 c -0.93692,-1.65142 -2.44942,-3.24355 -3.36111,-3.53807 -2.6699,-0.86251 -3.2051,-3.74722 -1.02305,-5.51414 1.25206,-1.01386 2.20587,-3.50321 2.68545,-7.00876 1.03276,-7.54918 2.09837,-9.93646 4.43529,-9.93646 2.5355798,0 3.7718598,2.34771 4.6256998,8.78422 l 0.68054,5.13017 4.62684,0.5718 c 7.36685,0.91042 9.59858,1.85729 9.93754,4.21627 0.40974,2.85159 -2.18676,4.15847 -9.85424,4.95988 -4.29292,0.4487 -6.31217,1.12131 -6.72315,2.23949 -0.61868,1.68322 -2.1917698,3.05713 -3.5298098,3.08286 -0.43808,0.008 -1.56308,-1.33585 -2.5,-2.98726 z m 667.1053058,0.66801 c -1.39017,-1.76731 -3.25567,-2.50136 -7.67774,-3.02109 -7.04501,-0.828 -9.63106,-2.07506 -9.63106,-4.64435 0,-2.51246 2.23109,-3.59552 9.1287,-4.43145 l 5.62871,-0.68215 0.67868,-5.11617 c 0.85201,-6.42276 2.08965,-8.77023 4.62384,-8.77023 2.33693,0 3.40253,2.38728 4.4353,9.93646 0.47958,3.50555 1.43339,5.9949 2.68544,7.00876 2.18206,1.76692 1.64685,4.65163 -1.02305,5.51414 -0.91169,0.29452 -2.42419,1.88665 -3.36111,3.53807 -2.05028,3.61382 -3.07265,3.73827 -5.48771,0.66801 z M 37.952544,685.13613 c -1.69801,-0.44094 -3.61051,-1.12507 -4.25,-1.5203 -1.77098,-1.09452 -1.38691,-4.4102 0.63627,-5.49298 5.23708,-2.8028 24.3992,-1.97178 26.37764,1.14395 1.33936,2.10929 0.91998,3.6264 -1.33626,4.83391 -2.66141,1.42434 -17.2207,2.12787 -21.42765,1.03542 z m 33,-0.0636 c -4.28551,-1.02456 -5.41271,-1.87444 -5.41271,-4.08109 0,-2.43054 2.20591,-3.54354 8.64725,-4.36298 10.91057,-1.388 21.37599,1.55673 19.83201,5.58027 -1.17069,3.05076 -15.06743,4.77606 -23.06655,2.86376 z m 32.999996,0 c -1.69801,-0.40594 -3.61051,-1.06143 -4.249996,-1.45666 -1.92698,-1.19094 -1.31063,-4.45004 1.087286,-5.74936 3.01626,-1.63437 20.52806,-1.61023 23.56068,0.0325 3.45812,1.87319 2.53999,5.32624 -1.81068,6.80989 -3.8658,1.3183 -13.78247,1.51232 -18.58729,0.36366 z m 31.96305,-0.079 c -1.71833,-0.53362 -3.72874,-1.6986 -4.46757,-2.58884 -1.14984,-1.38548 -1.03391,-1.86916 0.80494,-3.35817 3.81187,-3.08666 20.14614,-3.63805 25.53687,-0.86203 2.41974,1.24608 2.19282,4.52346 -0.40964,5.91626 -2.83952,1.51966 -17.4845,2.1288 -21.4646,0.89278 z m 33.59027,0.16259 c -4.45674,-0.95312 -5.96603,-1.88327 -5.96603,-3.67681 0,-2.5 4.37678,-4.39396 11.53304,-4.9907 9.13912,-0.76208 16.83691,1.11318 17.27764,4.209 0.20342,1.42886 -0.44472,2.58662 -1.87724,3.35328 -2.67547,1.43187 -16.12484,2.14078 -20.96741,1.10519 z m 32.44668,-0.0199 c -1.69801,-0.44094 -3.61051,-1.12507 -4.25,-1.5203 -1.97587,-1.22115 -1.30734,-4.59614 1.08729,-5.48901 7.24563,-2.70166 21.09262,-2.2742 24.84845,0.76709 2.24754,1.81995 1.80093,4.54152 -0.92577,5.6415 -2.63224,1.06188 -17.34466,1.4876 -20.75997,0.60072 z m 33,-0.0636 c -1.69801,-0.40594 -3.61051,-1.06143 -4.25,-1.45666 -1.92698,-1.19094 -1.31063,-4.45004 1.08729,-5.74936 3.01626,-1.63437 20.52806,-1.61023 23.56068,0.0325 3.45812,1.87319 2.53999,5.32624 -1.81068,6.80989 -3.8658,1.3183 -13.78247,1.51232 -18.58729,0.36366 z m 33,0 c -1.69801,-0.40594 -3.61051,-1.06143 -4.25,-1.45666 -1.92698,-1.19094 -1.31063,-4.45004 1.08729,-5.74936 3.01626,-1.63437 20.52806,-1.61023 23.56068,0.0325 3.45812,1.87319 2.53999,5.32624 -1.81068,6.80989 -3.8658,1.3183 -13.78247,1.51232 -18.58729,0.36366 z m 31.70803,0.004 c -3.09435,-0.78879 -5.06661,-2.4453 -5.10543,-4.28809 -0.008,-0.39982 1.19862,-1.52234 2.6823,-2.49449 2.12545,-1.39264 4.7237,-1.75408 12.25,-1.70405 5.47613,0.0364 10.51253,0.58247 11.80239,1.27968 2.85296,1.54209 2.89916,4.72802 0.0904,6.23125 -2.7331,1.46271 -17.25073,2.11488 -21.71962,0.9757 z m 33.29197,0.0597 c -4.34928,-1.12961 -5.41271,-1.95568 -5.41271,-4.20482 0,-1.21039 1.0567,-2.38954 2.75,-3.06866 3.61743,-1.45082 19.99426,-1.47061 23.5,-0.0284 3.34426,1.37579 3.6507,4.62841 0.59036,6.26626 -2.66141,1.42434 -17.2207,2.12787 -21.42765,1.03542 z m 33,-0.0636 c -4.28551,-1.02475 -5.41271,-1.87463 -5.41271,-4.08128 0,-3.14596 3.84048,-4.33497 14.1047,-4.36681 7.46463,-0.0231 10.19412,0.35641 12.25,1.70348 2.84224,1.8623 3.07692,2.45811 1.77628,4.50948 -1.72476,2.72027 -15.15957,4.04191 -22.71827,2.2349 z m 33,0.0638 c -1.69801,-0.44101 -3.61051,-1.1252 -4.25,-1.52043 -1.92599,-1.19033 -1.31119,-4.44885 1.08729,-5.76285 2.94368,-1.61268 20.49113,-1.59591 23.5,0.0225 2.84016,1.52762 2.90328,4.71984 0.12276,6.20793 -2.66017,1.42368 -16.32491,2.12688 -20.46005,1.05289 z m 33,0 c -1.69801,-0.44101 -3.61051,-1.1252 -4.25,-1.52043 -1.92498,-1.1897 -1.31177,-4.44762 1.08729,-5.77667 2.94075,-1.62916 20.47175,-1.60655 23.5,0.0303 2.8401,1.53514 2.90313,4.7259 0.12276,6.21391 -2.66017,1.42368 -16.32491,2.12688 -20.46005,1.05289 z m 31.70803,-0.0598 c -2.94872,-0.75166 -5.09011,-2.46017 -5.09011,-4.06114 0,-4.37142 17.73896,-6.29706 26.71937,-2.9005 2.87565,1.08763 2.92668,4.46798 0.0904,5.98594 -2.7331,1.46271 -17.25073,2.11488 -21.71962,0.9757 z m 33.84529,0.0812 c -4.73274,-1.01445 -5.96603,-1.88806 -5.96603,-4.22642 0,-2.33833 2.59853,-3.47227 10.10673,-4.41036 5.54963,-0.69338 16.55569,0.75655 18.19631,2.39717 1.2545,1.2545 -0.0461,4.78439 -2.04555,5.55165 -2.71161,1.04054 -16.46874,1.50673 -20.29146,0.68762 z m 32.44668,-0.0851 c -4.28551,-1.02485 -5.41271,-1.87473 -5.41271,-4.08138 0,-2.45239 2.20793,-3.54347 8.89563,-4.39593 10.90722,-1.39031 21.14507,1.54415 19.58363,5.61322 -1.17069,3.05076 -15.06743,4.77606 -23.06655,2.86376 z m 31.58729,-0.29844 c -4.34671,-1.56371 -5.25434,-5.01008 -1.81068,-6.87544 3.03262,-1.6427 20.54442,-1.66684 23.56068,-0.0325 2.85293,1.54587 2.89909,4.73105 0.0904,6.23424 -3.21098,1.71846 -17.69427,2.1652 -21.84036,0.67367 z m 32.82574,0.12017 c -7.57984,-2.14988 -5.05726,-7.06029 4.26211,-8.29655 5.60375,-0.74336 15.3213,0.10083 18.16215,1.5778 2.4193,1.25781 2.19292,4.53206 -0.40964,5.92491 -2.91801,1.56167 -17.45881,2.08601 -22.01462,0.79384 z m 33.58697,0.24158 c -4.34928,-1.12942 -5.41271,-1.95549 -5.41271,-4.20463 0,-1.20779 1.06034,-2.39514 2.75,-3.0794 3.58299,-1.451 19.96143,-1.45888 23.5,-0.0113 3.34483,1.36831 3.65164,4.62157 0.59036,6.25992 -2.66141,1.42434 -17.2207,2.12787 -21.42765,1.03542 z M 151.88962,666.48441 c -0.3231,-0.84197 -0.32022,-2.86697 0.006,-4.5 0.71979,-3.59895 0.25927,-3.64591 -4.85617,-0.49523 -4.51141,2.77866 -6.5,3.14551 -6.5,1.19911 0,-0.88951 -2.62571,-1.72893 -7.96463,-2.54623 -7.05332,-1.07974 -8.25385,-1.02975 -10.49228,0.43693 -1.39021,0.9109 -3.16661,1.41099 -3.94755,1.11132 -0.78095,-0.29968 -4.13352,0.27674 -7.45016,1.28094 -3.31664,1.0042 -6.28116,1.57491 -6.58782,1.26825 -0.30628,-0.30666 -0.55718,-2.08789 -0.55718,-3.95828 0,-2.75624 -0.33165,-3.30913 -1.75,-2.9174 -0.9625,0.26583 -3.904776,0.77632 -6.538396,1.13442 -4.29122,0.58349 -4.84932,0.95563 -5.375,3.58406 -0.71758,3.58786 -1.60988,3.69103 -3.74464,0.43297 -2.00324,-3.05733 -3.00497,-3.06524 -13.09196,-0.10333 -6.30192,1.85048 -8.15869,2.07743 -8.74764,1.06922 -0.4112,-0.70394 -1.58585,-1.06069 -2.61031,-0.79278 -1.55579,0.40684 -2.3261,-0.84415 -4.67544,-7.59301 -1.56127,-4.48498 -3.38751,-8.0801 -4.10451,-8.0801 -1.73091,0 -3.35858,3.22133 -3.37741,6.68426 -0.0256,4.71082 -1.2914,5.81611 -4.35889,3.80621 -1.44419,-0.94627 -2.6258,-1.86905 -2.6258,-2.05063 0,-0.18158 0.90088,-6.46048 2.00195,-13.95312 1.10108,-7.49264 1.72585,-14.72309 1.38838,-16.06766 -0.33747,-1.34457 -0.31656,-4.42533 0.0465,-6.84613 l 0.66004,-4.40146 8.39973,-0.69969 c 6.34745,-0.52874 8.81675,-1.1605 10.10657,-2.58574 2.36938,-2.61814 3.71969,-2.35513 3.15212,0.61396 -0.54724,2.86267 0.41507,2.99013 12.46026,1.65032 4.72384,-0.52545 6.79989,-0.41118 7,0.38527 0.20522,0.81679 3.01306,0.66727 10.07748,-0.53661 5.386146,-0.91787 10.017346,-1.30586 10.291546,-0.86219 0.2742,0.44366 -0.42015,5.56723 -1.543,11.3857 -2.42305,12.55599 -2.34308,11.14782 -0.66959,11.79 1.06711,0.40949 1.63592,-1.81944 2.55996,-10.03127 0.98804,-8.78064 1.55664,-10.86551 3.37805,-12.38621 3.21905,-2.68759 4.72,-2.38115 4.18771,0.85499 -1.02571,6.23586 -3.63188,34.44913 -3.22023,34.86077 0.24485,0.24485 1.60839,0.003 3.03008,-0.53759 2.95981,-1.12532 3.1006,-1.70975 4.69484,-19.48883 0.82596,-9.21112 1.45764,-12.2113 2.78306,-13.2182 1.05389,-0.80063 4.67766,-1.3148 9.40421,-1.33435 l 7.68964,-0.0318 0.32987,3.75 0.32988,3.75 1.42635,-4.3754 1.42634,-4.37539 6.55415,0.63075 c 10.53812,1.01416 11.35491,1.3952 10.74927,5.01475 -0.28577,1.70791 -1.00409,4.35895 -1.59626,5.8912 -1.03409,2.67571 -1.27491,2.75962 -6.08777,2.12117 l -5.0111,-0.66474 v 3.13581 3.13581 l 6.94201,-0.64519 6.94201,-0.64519 -0.59238,5.88821 c -0.32581,3.23852 -0.92643,6.11321 -1.33471,6.38821 -0.40827,0.275 -1.03305,4.55 -1.38839,9.5 -1.04825,14.60257 -1.28825,15.5 -4.14524,15.5 -1.36734,0 -2.75042,-0.68888 -3.07351,-1.53086 z m -9.97813,-37.32442 c 0.27806,-2.9454 0.21363,-5.06334 -0.14318,-4.70653 -0.88895,0.88894 -2.83408,23.46121 -2.28893,26.56181 0.24176,1.375 0.77413,-1.775 1.18305,-7 0.40892,-5.225 0.97099,-11.90988 1.24906,-14.85528 z m -74.406936,9.80145 c 0.69353,-6.6296 0.96071,-12.35407 0.59375,-12.72104 -1.22221,-1.22221 -2.34947,1.99629 -3.03686,8.67065 -0.37408,3.63232 -1.06648,8.38 -1.53866,10.55039 -0.92678,4.25997 -0.59411,5.55383 1.42795,5.55383 0.9159,0 1.66052,-3.51451 2.55382,-12.05383 z m 15.78528,7.95334 c 1.2375,-0.46751 2.25972,-1.19865 2.2716,-1.62476 0.0119,-0.42611 0.63558,-4.82475 1.38599,-9.77475 0.76035,-5.0155 0.97215,-9.14757 0.4784,-9.33333 -0.48729,-0.18334 -0.92151,-1.08334 -0.96494,-2 -0.0492,-1.03935 -0.26879,-1.19618 -0.58333,-0.41667 -0.30525,0.7565 -2.40069,1.25 -5.30755,1.25 -4.56325,0 -4.82498,0.14859 -5.23976,2.97465 -0.47116,3.21022 -0.97217,3.09554 6.64831,1.52168 1.34129,-0.27702 2.65052,-0.16096 2.90939,0.25791 0.25888,0.41886 -0.0672,3.45802 -0.72451,6.75367 l -1.19519,5.99209 -4.2617,0.30982 c -3.48489,0.25334 -4.43531,0.76647 -5.2142,2.8151 -0.52388,1.3779 -0.95251,2.74054 -0.95251,3.02808 0,0.65175 7.71385,-0.6065 10.75,-1.75349 z m 69.745596,-1.8924 c 0.35595,-0.57593 -0.47317,-1.00711 -1.93658,-1.00711 -2.1056,0 -2.55902,-0.47249 -2.55902,-2.66667 0,-3.90011 -0.62709,-2.5296 -1.34232,2.93366 l -0.62408,4.76699 2.91979,-1.50988 c 1.60588,-0.83043 3.19988,-1.96308 3.54221,-2.51699 z m -20.10921,-2.25711 c 1.83937,-18.20959 1.93761,-16.7517 -1.12765,-16.73469 -1.51731,0.008 -3.27243,0.34592 -3.90028,0.75 -0.63358,0.40777 -1.46239,5.03566 -1.8626,10.40038 -0.78645,10.54223 -1.0605,9.97647 5.18218,10.69813 0.71442,0.0826 1.38675,-1.92999 1.70835,-5.11382 z m -33.857606,2.29656 c -0.3241,-0.52439 -1.92565,-1.90503 -3.55902,-3.06809 l -2.96976,-2.11466 v 3.0681 c 0,2.84941 0.25367,3.06809 3.55902,3.06809 2.00216,0 3.30125,-0.41707 2.96976,-0.95344 z m -40.29409,-13.44559 c 0.40408,-0.60553 0.74158,-2.33847 0.75,-3.85097 0.0127,-2.2779 -0.41812,-2.75 -2.50944,-2.75 -2.56986,0 -4.47525,2.94901 -4.47525,6.92643 0,1.41658 0.58124,1.68836 2.75,1.28587 1.5125,-0.2807 3.08061,-1.0058 3.48469,-1.61133 z m 40.69502,-5.85097 c 0.0387,-0.4125 -1.05471,-0.75 -2.42971,-0.75 -2.90448,0 -3.26565,1.71693 -0.75,3.56538 1.46915,1.0795 1.85908,1.01695 2.42971,-0.38976 0.37385,-0.92159 0.71135,-2.01312 0.75,-2.42562 z m 113.303806,37.88175 c -0.40344,-0.62246 -1.57715,-1.13175 -2.60825,-1.13175 -1.42184,0 -2.5392,-1.81183 -4.62527,-7.5 -1.5128,-4.125 -3.25667,-7.455 -3.87527,-7.4 -0.6186,0.055 -1.52288,0.1675 -2.00951,0.25 -0.48662,0.0825 -1.194,2.625 -1.57195,5.65 -0.37795,3.025 -1.05495,5.5 -1.50444,5.5 -0.4495,0 -1.84779,-0.83447 -3.10733,-1.85439 l -2.29008,-1.85438 2.03994,-14.39562 c 1.12196,-7.91758 1.68861,-14.62493 1.25923,-14.90522 -0.42938,-0.28028 -0.47917,-2.98028 -0.11064,-6 l 0.67005,-5.49039 8.5,-0.90598 c 6.42284,-0.68459 8.81932,-1.35661 9.8067,-2.75 1.82655,-2.57761 3.1933,-2.29685 3.1933,0.65598 0,2.84005 0.6906,2.93151 12.3533,1.63605 4.58719,-0.50953 6.98787,-0.40988 7.26028,0.30136 0.23605,0.61629 2.60775,0.94242 5.6467,0.77649 7.41447,-0.40486 9.73972,-1.04323 9.73972,-2.67394 0,-2.55627 2.01543,-2.74105 3.99467,-0.36624 1.06633,1.27945 1.95376,2.88878 1.97206,3.57628 0.0398,1.49573 1.66429,1.65605 2.53327,0.25 0.33992,-0.55 4.16431,-1 8.49865,-1 h 7.88062 l 0.39226,3.75 0.39226,3.75 0.16811,-3.63055 0.1681,-3.63055 10.44577,-0.71198 c 5.74517,-0.39159 10.85025,-0.462 11.34462,-0.15647 0.49437,0.30554 4.59728,-0.32782 9.11758,-1.40746 12.58571,-3.00601 12.27423,-3.19773 9.00426,5.54205 -1.77072,4.73267 -2.54313,5.67114 -5.08625,6.17976 -1.74785,0.34957 -3.34912,1.47882 -3.83915,2.70745 -0.46236,1.15926 -1.58267,8.85775 -2.48957,17.10775 -0.90689,8.25 -1.95228,15.29048 -2.32308,15.64552 -0.3708,0.35504 -1.68668,0.25704 -2.92418,-0.21778 -2.74191,-1.05203 -2.80937,-2.81495 -0.74201,-19.38973 0.82061,-6.5791 1.49201,-12.12735 1.49201,-12.32946 0,-0.2021 -1.35037,-0.0709 -3.00083,0.29163 -2.23883,0.49173 -3.15474,0.25798 -3.60698,-0.92054 -0.62099,-1.61828 -4.10475,-2.03158 -8.09851,-0.96078 -2.15612,0.5781 -2.09444,0.81451 2.71073,10.38993 2.70438,5.3891 5.38095,9.95425 5.94794,10.14479 0.63989,0.21503 0.20997,2.87032 -1.1335,7.00072 l -2.1644,6.6543 -8.46052,2.27365 c -7.8859,2.11923 -8.54432,2.15905 -9.69433,0.58632 -0.69236,-0.94686 -3.77055,-2.15628 -7.01433,-2.75593 -4.97871,-0.92036 -6.24004,-0.82111 -9.09341,0.71553 -1.8221,0.98127 -3.60043,1.4966 -3.95184,1.14518 -0.35142,-0.35142 -0.14418,-5.18683 0.46052,-10.74536 1.30913,-12.03378 1.259,-19.37341 -0.0688,-10.07639 -1.36978,9.59071 -2.22587,10.06995 -7.93806,4.44365 -5.52527,-5.44219 -4.97417,-6.14448 -6.94848,8.85475 -1.14271,8.68138 -1.17407,8.75 -3.99877,8.75 -1.58109,0 -3.24891,-0.71814 -3.75086,-1.61508 -0.81764,-1.46103 -1.73003,-1.37693 -9.56618,0.88176 -6.20876,1.78961 -8.87009,2.17626 -9.39584,1.36507 z m 1.78741,-12.98874 c 1.92847,-13.17961 2.66779,-24.21884 1.66407,-24.84736 -0.85679,-0.53653 -1.60045,2.27545 -2.685,10.15277 -0.825,5.99216 -1.78856,11.18115 -2.14124,11.53111 -1.17584,1.16675 0.28802,4.40138 1.73978,3.84428 0.7708,-0.29578 1.41088,-0.60214 1.42239,-0.6808 z m 70.30314,-2.56826 c 0.45323,-0.45259 -1.16249,-4.77631 -3.59051,-9.60829 l -4.41457,-8.7854 -0.65238,6.90947 c -0.35882,3.80021 -0.65559,8.42948 -0.6595,10.28728 l -0.007,3.37781 4.25,-0.679 c 2.3375,-0.37344 4.62083,-1.04929 5.07407,-1.50187 z m -56.37483,-0.25239 c 5.63327,-1.30032 5.31907,-0.74522 6.98809,-12.34573 1.05162,-7.30932 0.36416,-16.70262 -0.94655,-12.93337 -0.51318,1.47578 -1.88611,2.07964 -5.58561,2.45674 -4.50525,0.45923 -4.93169,0.73165 -5.2304,3.34126 -0.26838,2.34462 -0.006,2.75097 1.5,2.32466 1.00388,-0.28413 3.28773,-0.81096 5.07523,-1.17072 3.77158,-0.75909 3.97397,0.0306 2.16714,8.45558 -1.03799,4.83995 -1.2211,5.04922 -4.41822,5.04922 -4.85826,0 -6.49892,0.91059 -6.49892,3.60699 0,2.76029 0.14579,2.78579 6.94924,1.21537 z m 40.4788,-5.32236 c 0.31458,-3.025 0.82934,-7.975 1.14392,-11 0.54978,-5.28674 0.47964,-5.5 -1.80887,-5.5 -4.57341,0 -5.58498,1.86698 -6.32007,11.66442 -0.74853,9.97648 -1.00431,9.47813 5.23502,10.1994 0.71869,0.0831 1.40107,-2.00845 1.75,-5.36382 z m -12.72078,-13.73834 c -0.23919,-1.24391 -0.44398,-0.46166 -0.45508,1.73834 -0.0111,2.2 0.18461,3.21775 0.4349,2.26166 0.25029,-0.95609 0.25937,-2.75609 0.0202,-4 z m -48.70726,3.36334 c 0,-0.48125 0.28789,-2.31445 0.63976,-4.07378 0.62744,-3.13722 0.57452,-3.19255 -2.75,-2.875 -3.12664,0.29865 -3.41385,0.61486 -3.70013,4.07378 -0.29663,3.58405 -0.17493,3.75 2.75,3.75 1.68321,0 3.06037,-0.39375 3.06037,-0.875 z m 42,-3.68402 c 0,-2.04553 -0.48601,-2.44098 -3,-2.44098 -3.56537,0 -3.70941,0.61596 -0.85464,3.65473 2.49703,2.65796 3.85464,2.23048 3.85464,-1.21375 z m 7.68311,-7.62848 c -0.31922,-0.79773 -0.55618,-0.56078 -0.60416,0.60417 -0.0434,1.05416 0.19293,1.64479 0.52522,1.3125 0.33229,-0.33229 0.36781,-1.1948 0.0789,-1.91667 z m 142.99511,42.38444 c -1.11214,-1.2289 -4.32335,-2.25583 -9.56149,-3.05769 -7.43173,-1.13767 -8.09562,-1.08425 -11.50185,0.92547 l -3.61488,2.13283 0.003,-3.34877 c 0.002,-1.84183 0.69006,-10.49812 1.52924,-19.23621 0.83918,-8.73809 1.37134,-16.04187 1.18258,-16.23063 -0.18876,-0.18876 -1.84612,3.13558 -3.68303,7.38743 -2.45217,5.67599 -3.7675,10.89897 -4.94895,19.6516 -0.88501,6.55654 -2.06193,12.07191 -2.61536,12.25639 -0.55343,0.18447 -1.81881,-1.17342 -2.81194,-3.01756 -1.63434,-3.0348 -1.69811,-4.29272 -0.67197,-13.25638 1.19029,-10.39762 1.17982,-10.46538 -4.57513,-29.60143 -0.35212,-1.17082 0.46541,-2.20275 2.63315,-3.32373 1.7291,-0.89415 3.2819,-1.48005 3.45067,-1.302 0.16876,0.17806 1.15384,3.21386 2.18906,6.74624 l 1.88221,6.42249 3.73574,-8.17249 c 2.05466,-4.49488 4.16194,-8.1725 4.68283,-8.1725 0.5209,0 1.42875,0.9 2.01745,2 0.94672,1.76897 2.09382,2 9.93015,2 h 8.85978 l 0.38937,4.08296 c 0.21416,2.24562 -0.13255,10.00812 -0.77047,17.25 -1.37838,15.64801 -0.30453,19.96796 1.48431,5.9712 3.14645,-24.61925 3.00438,-24.06212 6.2579,-24.53964 1.61536,-0.23708 3.09466,-0.16859 3.28732,0.15221 0.19267,0.3208 -0.47551,6.43327 -1.48484,13.58327 -1.72328,12.20748 -1.73208,13.10281 -0.14434,14.68651 3.99475,3.98457 4.41707,3.10791 6.78337,-14.08098 2.31485,-16.81514 2.80584,-18.06044 7.13245,-18.09022 1.87944,-0.0129 2.15041,0.41179 1.74474,2.73469 -0.26414,1.5125 -1.60251,11.3 -2.97414,21.75 -2.5844,19.68954 -3.87116,25.99604 -5.51097,27.0095 -0.52813,0.3264 -3.21573,-1.51628 -5.97243,-4.09486 l -5.01175,-4.68832 -0.0153,3.38684 c -0.0222,4.91736 -1.21683,6.3928 -3.30647,4.08378 z m -9.60707,-18.44694 c 0.0391,-1.7875 0.39038,-6.75878 0.78054,-11.04728 l 0.7094,-7.79728 -3.52207,0.29728 c -3.87049,0.32669 -3.71699,-0.11531 -5.3779,15.4861 -0.59611,5.59942 -0.86446,5.32788 6.08888,6.16135 0.7621,0.0913 1.27777,-1.1187 1.32115,-3.10017 z m 33.92885,14.02366 c 0,-3.54218 0.3375,-6.76981 0.75,-7.17252 0.4125,-0.40271 1.65,-8.86743 2.75,-18.8105 1.93588,-17.49867 2.08765,-18.14368 4.73363,-20.1175 1.5035,-1.12156 2.99768,-1.77516 3.3204,-1.45244 0.32272,0.32272 -0.25432,8.95509 -1.28233,19.18303 -1.028,10.22795 -1.53898,18.59627 -1.1355,18.59627 0.40348,0 1.7754,-0.38411 3.0487,-0.85357 8.40109,-3.09747 8.97149,-2.55768 6.21208,5.87873 -1.93607,5.9192 -2.3673,6.29485 -9.6099,8.37127 -3.1421,0.90083 -6.4046,1.9033 -7.25,2.22771 -1.28472,0.493 -1.53708,-0.46754 -1.53708,-5.85048 z m 31.14536,3.88107 c -1.36542,-1.45343 -2.19487,-3.71439 -2.28154,-6.21918 -0.091,-2.63027 -0.28702,-3.13513 -0.59096,-1.52219 -0.48183,2.55694 -3.91602,5.99764 -6.04191,6.05337 -0.79616,0.0209 -1.09057,-0.80515 -0.79008,-2.21673 0.26343,-1.2375 1.18199,-9.9 2.04124,-19.25 2.12502,-23.12359 2.09604,-22.98676 5.16374,-24.3845 1.43693,-0.65471 2.86012,-0.94286 3.16264,-0.64034 0.30252,0.30252 -0.2638,8.6612 -1.25849,18.57484 -0.99469,9.91364 -1.60725,18.22608 -1.36126,18.47208 0.246,0.24599 0.98536,-4.15834 1.64302,-9.78741 3.28349,-28.10418 3.15293,-27.49725 6.03703,-28.06387 1.44717,-0.28432 2.94552,-0.21406 3.32967,0.15613 0.38415,0.37019 0.31686,3.37307 -0.14953,6.67307 -0.66816,4.72765 -0.54353,6.31809 0.58771,7.5 2.11538,2.21014 3.09293,0.0649 3.90128,-8.56135 0.78662,-8.39446 1.10146,-9.05905 4.7221,-9.96777 2.46211,-0.61795 2.73998,-0.42317 2.73998,1.92071 0,2.96161 0.31296,3.00412 12.86408,1.74743 l 7.36407,-0.73734 -0.63872,5.43453 c -0.3513,2.98899 -0.87919,5.82361 -1.17309,6.29916 -0.29391,0.47555 -2.75782,0.86463 -5.47536,0.86463 -4.84743,0 -4.94098,0.0581 -4.94098,3.06739 0,2.44236 0.35659,2.96698 1.75,2.57465 0.9625,-0.271 3.2125,-0.78708 5,-1.14684 3.72847,-0.75041 3.82921,-0.32604 1.90033,8.0048 -0.97643,4.21717 -1.54852,5.04383 -3.654,5.27995 -5.55846,0.62337 -6.76755,1.24291 -7.23903,3.70933 -0.56288,2.9445 -0.33742,2.97149 8.13725,0.97382 3.51701,-0.82903 6.64308,-1.2588 6.94683,-0.95505 0.73868,0.73867 -2.88771,11.29276 -4.25965,12.39711 -0.59495,0.47891 -4.45673,1.79047 -8.58173,2.91458 -4.125,1.12411 -8.26866,2.34044 -9.20813,2.70297 -1.27107,0.49048 -1.87451,-0.004 -2.35841,-1.93179 -0.45596,-1.81671 -1.31512,-2.59092 -2.8752,-2.59092 -1.22371,0 -2.4665,-0.24158 -2.76176,-0.53684 -0.29526,-0.29526 0.0881,-3.51803 0.85185,-7.16171 l 1.38869,-6.62488 -3.26852,-2.73646 c -1.79769,-1.50505 -3.55144,-2.56445 -3.89723,-2.35423 -0.3458,0.21023 -1.20853,5.58435 -1.9172,11.94249 -0.70867,6.35815 -1.59783,11.75145 -1.97593,11.98513 -0.37809,0.23367 -1.65285,-0.60277 -2.8328,-1.85877 z m 21.83933,-32.79774 c 0.0238,-5.6709 -2.70141,-5.88669 -3.14976,-0.2494 -0.36737,4.61906 0.90392,7.40484 2.34418,5.13684 0.43465,-0.68444 0.79716,-2.88379 0.80558,-4.88744 z m 130.00663,32.13082 c -1.59841,-2.24475 -1.98684,-3.83712 -1.5246,-6.25 0.49132,-2.56471 0.39562,-2.87866 -0.46037,-1.51023 -1.14157,1.82499 -14.09733,9.77242 -15.93082,9.77242 -0.59154,0 -1.07553,-0.59714 -1.07553,-1.32698 0,-0.88951 -2.62571,-1.72893 -7.96463,-2.54623 -6.691,-1.02427 -8.33009,-0.99147 -10.25,0.20514 -1.25695,0.7834 -3.74267,1.69192 -5.52381,2.01891 -3.6694,0.67366 -4.57147,-0.50869 -7.70645,-10.10084 -0.94371,-2.8875 -2.01718,-5.24311 -2.38548,-5.23469 -1.93943,0.0444 -3.12942,2.02128 -3.86781,6.42557 -0.93079,5.55197 -1.8535,6.2463 -5.03054,3.78544 l -2.22873,-1.72632 2.04112,-13 c 1.12262,-7.15 1.78321,-14.31791 1.46799,-15.92869 -0.31523,-1.61078 -0.29182,-5.04935 0.052,-7.64126 l 0.62514,-4.71256 8.30583,-0.69187 c 6.31648,-0.52616 8.72133,-1.15099 10.04059,-2.60875 2.86317,-3.16376 3.59813,-2.23695 3.03965,3.83313 -0.29097,3.1625 -0.27482,4.88182 0.0359,3.82072 1.18821,-4.05784 2.64507,-4.45431 17.47421,-4.75548 7.90626,-0.16056 16.33909,0.0886 18.73962,0.55367 l 4.3646,0.84561 -0.67458,5.08529 c -0.37103,2.79691 -0.91583,5.47562 -1.21068,5.95269 -0.29484,0.47707 -2.92959,0.56836 -5.85498,0.20285 l -5.31891,-0.66455 -0.61626,5.8546 c -0.33894,3.22003 -0.85959,8.2171 -1.15698,11.1046 -0.2974,2.8875 -0.26341,5.25 0.0755,5.25 0.33894,0 3.43843,-1.62317 6.88776,-3.60705 l 6.2715,-3.60706 1.54905,-12.92446 c 0.85198,-7.10846 1.72329,-13.0987 1.93625,-13.31166 0.21296,-0.21296 1.69181,-0.71464 3.28634,-1.11484 l 2.89915,-0.72764 -0.68793,7.59151 c -0.62637,6.91224 -0.51208,7.68562 1.27724,8.64324 1.81894,0.97347 2.01669,0.62409 2.65755,-4.69516 1.53075,-12.7056 1.83652,-13.65854 4.70631,-14.66779 1.48798,-0.5233 2.97033,-0.68653 3.29412,-0.36275 0.32378,0.32379 -0.14284,5.87859 -1.03695,12.34401 -1.41015,10.19707 -1.43596,11.94499 -0.19469,13.18626 1.24127,1.24127 1.52507,0.0502 2.14094,-8.98551 0.3905,-5.72906 1.00947,-10.87664 1.37551,-11.43908 0.92551,-1.42212 5.22453,-3.59634 5.85813,-2.96273 0.28673,0.28673 -0.0525,6.8302 -0.75394,14.54105 l -1.27526,14.01972 -3.54501,2.52231 -3.54501,2.52231 3.32038,0.66408 c 3.17508,0.63501 3.2943,0.82177 2.72431,4.26766 -0.32784,1.98197 -0.60103,4.89031 -0.60708,6.46299 -0.0103,2.67747 -0.23371,2.8334 -3.51101,2.4508 -1.925,-0.22474 -3.5,-0.049 -3.5,0.39059 0,0.43956 -1.63125,0.7992 -3.625,0.7992 -3.55674,0 -3.61273,-0.0612 -2.97341,-3.25 2.1296,-10.62201 2.10865,-10.82931 -1.40476,-13.89686 -1.81562,-1.5852 -3.4209,-2.76241 -3.56729,-2.61601 -0.1464,0.1464 -0.76123,4.09043 -1.36629,8.76452 -2.35025,18.15575 -2.36635,18.19017 -6.07193,12.98616 z m -40.03053,-24.7975 c 0.68924,-7.87033 1.0465,-14.51635 0.79392,-14.76893 -0.25258,-0.25258 -1.02943,4.35206 -1.72634,10.23252 -0.69692,5.88047 -1.62638,11.94445 -2.06548,13.4755 -0.87149,3.03869 -0.13265,7.49882 1.02484,6.18669 0.39595,-0.44885 1.28383,-7.25545 1.97306,-15.12578 z m 21.80762,-8.69031 c -0.0182,-2.75 -0.59158,0.625 -1.27418,7.5 -0.68259,6.875 -0.96053,12.95 -0.61765,13.5 0.67918,1.08944 1.94503,-12.96197 1.89183,-21 z m -8.69726,16.25 c 0.0391,-1.7875 0.38864,-6.7375 0.77668,-11 0.75757,-8.32171 0.6314,-8.52195 -4.50185,-7.14481 -1.90638,0.51144 -2.23077,1.51584 -2.8216,8.73634 -0.36717,4.48716 -0.88058,8.91413 -1.14091,9.83771 -0.45283,1.60651 0.37146,1.95232 6.36653,2.67093 0.7621,0.0913 1.27777,-1.1187 1.32115,-3.10017 z m -19.89039,-15.84824 c 0.34997,-3.66974 0.2105,-3.90176 -2.34532,-3.90176 -3.15692,0 -3.4296,0.31975 -4.31992,5.0656 l -0.66606,3.55037 3.4796,-0.40622 c 3.22959,-0.37704 3.50634,-0.68657 3.8517,-4.30799 z m -45.17992,30.41222 c 8.4e-4,-3.84704 1.47231,-21.77903 2.50803,-30.56398 0.45642,-3.87133 0.2722,-4.75 -0.99587,-4.75 -2.38983,0 -3.22839,3.25045 -5.02728,19.48685 -0.91324,8.24276 -1.85608,15.30338 -2.09519,15.69027 -0.23911,0.38689 -1.68899,0.2662 -3.22196,-0.2682 l -2.78723,-0.97163 1.25639,-11.21865 c 0.69101,-6.17025 1.52912,-13.10673 1.86246,-15.41439 l 0.60609,-4.19576 -3.42025,0.55503 -3.42025,0.55503 -0.51837,-5.85927 c -0.28511,-3.22261 -0.23241,-6.17104 0.11711,-6.55207 0.70116,-0.76439 21.40383,-5.80721 23.84078,-5.80721 1.02436,0 1.35932,0.64491 1.01627,1.9567 -0.46482,1.77747 0.097,1.98357 6.13337,2.25 l 6.64506,0.2933 -0.12335,10.5 c -0.37483,31.9067 -0.57812,36 -1.78791,36 -0.67178,0 -3.85948,-0.48767 -7.08377,-1.08371 -5.30601,-0.98087 -6.22499,-0.8799 -9.68366,1.06398 l -3.82131,2.1477 z m 15.35242,-18.96486 c 1.10656,-13.09058 0.96555,-14.35129 -1.60326,-14.33381 -3.66008,0.0249 -4.44409,1.16569 -5.14395,7.48469 -0.36549,3.3 -0.91032,7.65433 -1.21073,9.6763 -0.58038,3.90626 -0.83043,3.718 6.20794,4.67387 0.67407,0.0915 1.35486,-2.82654 1.75,-7.50105 z m -364.39399,19.9732 c -1.3526,-0.91252 -2.56779,-1.72937 -2.70043,-1.81522 -0.13264,-0.0859 2.46399,-7.02324 5.77028,-15.41644 3.30629,-8.39319 7.38502,-18.82217 9.06385,-23.17551 2.28492,-5.92501 3.51643,-7.91515 4.89793,-7.91515 2.51157,0 5.0091,1.03038 5.0091,2.06656 0,1.33966 -17.89866,46.2321 -18.78695,47.12039 -0.43698,0.43698 -1.90118,0.0479 -3.25378,-0.86463 z m 158.05031,-1.57232 c 0.0337,-7.9242 4.18795,-41.3761 5.27304,-42.46119 0.7021,-0.7021 2.61323,-1.44036 4.24696,-1.64058 1.63373,-0.20022 7.58342,-1.40248 13.22154,-2.67168 5.63811,-1.26921 10.47249,-2.08627 10.74306,-1.81571 0.27056,0.27057 -0.43184,3.22737 -1.56089,6.57068 l -2.05282,6.07874 -6.44024,1.74329 c -5.66493,1.53343 -6.44023,2.0345 -6.44023,4.16226 0,1.82482 0.42984,2.29794 1.75,1.92623 0.9625,-0.271 3.27088,-0.7999 5.12973,-1.17533 l 3.37973,-0.68261 -0.71479,4.76658 c -1.20203,8.01573 -2.07479,9.44735 -5.76992,9.46463 -1.80111,0.008 -3.82567,0.36533 -4.49902,0.79312 -0.67335,0.42779 -1.69883,4.12388 -2.27884,8.21353 -0.58002,4.08965 -1.3791,7.73573 -1.77574,8.10241 -1.00349,0.92768 -5.22115,-0.81736 -5.22115,-2.16024 0,-0.60518 -1.30697,-0.16968 -2.90437,0.96778 -3.66205,2.60761 -4.09784,2.58821 -4.08605,-0.18191 z m 7.68341,-10.48097 c -0.25354,-0.97297 -0.47766,-0.41903 -0.49804,1.23097 -0.0204,1.65 0.18706,2.44606 0.46099,1.76903 0.27392,-0.67703 0.29059,-2.02703 0.0371,-3 z m 1,-10 c -0.25354,-0.97297 -0.47766,-0.41903 -0.49804,1.23097 -0.0204,1.65 0.18706,2.44606 0.46099,1.76903 0.27392,-0.67703 0.29059,-2.02703 0.0371,-3 z m 0.99634,-9.01903 c -0.25153,-0.9625 -0.45733,-0.175 -0.45733,1.75 0,1.925 0.2058,2.7125 0.45733,1.75 0.25152,-0.9625 0.25152,-2.5375 0,-3.5 z M 5.5752942,655.60853 c -3.19609,-8.40635 -1.81028,-24.89518 2.19927,-26.16776 1.43047,-0.45401 2.5224798,-0.11044 3.3810898,1.06378 2.75528,3.76806 2.97171,20.67588 0.3279,25.61588 -1.43766,2.68629 -4.8031698,2.3947 -5.9082598,-0.5119 z M 672.3312,655.76527 c -1.69032,-2.97358 -1.6638,-21.42652 0.0352,-24.5 1.73444,-3.13759 4.96277,-2.88348 6.35225,0.5 0.62113,1.5125 1.12932,6.8 1.12932,11.75 0,4.95 -0.50819,10.2375 -1.12932,11.75 -1.38957,3.38372 -4.60514,3.63543 -6.38746,0.5 z m -666.6410458,-32.5 c -2.80925,-5.34339 -2.34345,-21.55497 0.72832,-25.34845 2.6401,-3.26039 4.8562898,-1.49536 6.1901998,4.93003 1.26032,6.07095 0.68868,16.88446 -1.06588,20.16289 -1.32265,2.4714 -4.6121598,2.61502 -5.8526398,0.25553 z M 672.61779,623.16093 c -3.00733,-5.61925 -1.90043,-25.23233 1.49762,-26.53629 2.59074,-0.99416 5.12214,2.81573 5.87512,8.84232 0.7505,6.00685 -0.0437,14.83623 -1.60102,17.79831 -1.20844,2.29853 -4.51776,2.23871 -5.77172,-0.10434 z M 5.3665742,589.76527 c -0.74635,-1.3503 -1.24364,-6.04875 -1.24364,-11.75 0,-10.19267 1.20119,-14 4.4169,-14 3.2526398,0 4.4658198,3.80323 4.4658198,14 0,10.19677 -1.21318,14 -4.4658198,14 -1.0613,0 -2.48927,-1.0125 -3.17326,-2.25 z m 666.9755258,0 c -0.77724,-1.37907 -1.26809,-5.92724 -1.26809,-11.75 0,-10.19677 1.21318,-14 4.46582,-14 3.21571,0 4.4169,3.80733 4.4169,14 0,10.19267 -1.20119,14 -4.4169,14 -1.0613,0 -2.50028,-1.0125 -3.19773,-2.25 z M 40.096764,559.88522 c -1.46051,-6.39353 -3.27046,-20.43996 -2.70155,-20.96596 0.35454,-0.3278 13.46962,-1.83813 29.14462,-3.35628 15.675,-1.51814 28.61848,-2.86842 28.7633,-3.00061 0.22918,-0.20922 -45.51758,-37.97296 -48.08964,-39.69779 -0.54185,-0.36336 0.64016,-2.61606 2.67679,-5.1015 2.65509,-3.24018 3.82112,-5.78321 4.28688,-9.34931 1.13271,-8.67264 -0.90911,-8.04273 28.57507,-8.81547 14.45818,-0.37893 35.062596,-1.0779 45.787596,-1.55327 15.69024,-0.69545 27.39634,-0.44089 59.91687,1.30296 28.11423,1.50757 40.53474,2.52107 40.80409,3.32956 0.29186,0.87604 -7.77406,18.50979 -9.20411,20.12206 -0.13871,0.15639 -9.75303,-0.40611 -21.36516,-1.25 -11.61213,-0.84389 -23.08098,-1.53434 -25.48635,-1.53434 h -4.37338 l -4.51385,22.58208 c -4.39474,21.98622 -4.45796,22.56686 -2.39598,22.00547 1.16483,-0.31713 15.65548,-3.80362 32.20145,-7.74774 l 30.08358,-7.17113 5.34646,-21.81664 c 2.94056,-11.99915 5.62096,-22.26078 5.95645,-22.80362 1.60515,-2.59718 21.96404,-4.87227 53.52993,-5.98192 17.6,-0.6187 37.7375,-1.40407 44.75,-1.74525 10.55679,-0.51364 12.74909,-0.3796 12.74469,0.7792 -0.003,0.76975 -1.98318,5.49407 -4.40058,10.49849 l -4.39528,9.09893 -5.34942,0.64237 c -2.94217,0.35331 -10.7959,0.64629 -17.45272,0.65107 -6.65682,0.005 -14.85379,0.29617 -18.21548,0.64754 l -6.11217,0.63885 -1.48761,5.07472 c -0.81819,2.7911 -1.30029,5.26206 -1.07133,5.49102 0.22896,0.22896 10.79942,-0.37559 23.4899,-1.34344 12.69048,-0.96785 23.29846,-1.53487 23.57328,-1.26005 0.27482,0.27482 -2.06566,5.73325 -5.20106,12.12986 l -5.70073,11.63019 -4.08574,0.007 c -7.90491,0.0137 -33.12124,1.10065 -36.17543,1.55936 -2.79789,0.42022 -3.24003,1.00421 -4.68169,6.18379 -0.8756,3.14585 -1.51025,5.79271 -1.41032,5.8819 0.41068,0.36653 55.58237,-5.20789 55.92801,-5.65084 0.20655,-0.2647 4.72365,-14.6068 10.038,-31.87133 5.31434,-17.26452 9.78692,-31.49266 9.93906,-31.61809 0.15214,-0.12542 5.77306,-0.53856 12.49093,-0.9181 l 12.2143,-0.69007 -0.20955,2.80816 c -0.22989,3.08072 21.25346,44.72557 22.43608,43.49169 0.36032,-0.37595 3.24818,-9.23354 6.41745,-19.68354 3.16927,-10.45 6.24946,-19.50215 6.84486,-20.11588 0.86605,-0.89264 24.7454,-7.38405 27.16329,-7.38405 0.34828,0 0.38057,0.65845 0.0718,1.46322 -0.40181,1.0471 0.34984,1.60458 2.64301,1.96027 6.69644,1.03868 67.84761,3.70763 72.90502,3.18194 2.91471,-0.30296 12.04948,-0.80394 20.29948,-1.11327 8.25,-0.30934 25.35,-0.98895 38,-1.51025 29.63857,-1.22138 29.50248,-1.22262 29.48712,0.26809 -0.007,0.6875 -1.97986,5.34363 -4.38396,10.34697 l -4.37108,9.09696 -5.36604,0.64434 c -2.95132,0.35439 -10.81253,0.64826 -17.46935,0.65304 -6.65682,0.005 -14.82833,0.29351 -18.15891,0.64163 l -6.0556,0.63293 -1.43981,5.11707 c -0.86768,3.08372 -1.05843,5.26423 -0.48003,5.48741 0.52788,0.2037 11.04589,-0.42271 23.37336,-1.39203 12.32746,-0.96931 22.6368,-1.53916 22.90963,-1.26633 0.27283,0.27283 -1.96709,5.67843 -4.97758,12.01245 l -5.47364,11.51639 -18.29705,0.663 c -26.58109,0.96316 -25.1857,0.58218 -27.08174,7.39421 -0.86828,3.11956 -1.49694,5.74673 -1.39701,5.83816 0.72955,0.66752 60.30863,-5.91163 61.34836,-6.77452 1.50864,-1.25206 21.98853,-0.2286 22.83509,1.14116 0.46643,0.75472 -3.87993,20.77453 -4.65157,21.42557 -0.1926,0.16251 -5.41269,0.59058 -11.60019,0.95128 -9.53276,0.55571 -11.25,0.43124 -11.25,-0.81543 0,-1.28064 -0.35625,-1.28831 -2.75,-0.0592 -2.48349,1.27524 -76.99607,10.4989 -84.79122,10.49602 -2.91794,-10e-4 -3.11953,-0.28699 -4.97295,-7.05284 -1.06244,-3.87844 -2.17778,-7.44985 -2.47853,-7.93646 -0.30074,-0.48661 -7.73791,0.8448 -16.52705,2.9587 -32.51402,7.82003 -51.64948,12.19229 -51.92988,11.86545 -0.15852,-0.18479 -1.73954,-4.52875 -3.51338,-9.65327 -2.8419,-8.21006 -3.05397,-9.51726 -1.78458,-11 1.18353,-1.38245 11.19617,-52.06745 10.43592,-52.8277 -0.12345,-0.12345 -5.01449,14.48367 -10.86897,32.46027 l -10.64456,32.68477 -11.32765,0.76481 c -6.23021,0.42064 -11.86075,0.56023 -12.5123,0.31021 -0.88996,-0.34151 -0.91441,-1.33515 -0.0983,-3.99434 1.03605,-3.37575 0.58286,-4.58308 -9.78206,-26.06021 -5.97762,-12.38626 -11.14486,-22.52047 -11.48274,-22.52047 -0.33787,0 -2.30409,5.37103 -4.36939,11.93563 -8.20647,26.08455 -15.55005,47.54692 -16.36121,47.8173 -0.47019,0.15673 -3.97931,-1.73893 -7.79805,-4.21258 -4.34917,-2.81726 -8.09488,-4.50555 -10.02592,-4.51895 -1.69553,-0.0118 -20.13321,2.0036 -40.97264,4.4786 -20.83943,2.475 -39.29789,4.5 -41.01881,4.5 -3.00673,0 -3.19828,-0.25615 -4.90419,-6.55832 -1.05004,-3.87913 -2.23409,-6.38533 -2.89842,-6.13487 -5.37217,2.02536 -22.74558,6.90411 -23.14905,6.50065 -0.2825,-0.28251 0.84525,-6.23343 2.50612,-13.22427 1.66087,-6.99084 3.01976,-12.9634 3.01976,-13.27236 0,-0.30896 -2.97441,3.32354 -6.6098,8.07222 -3.64544,4.76181 -7.56964,8.85361 -8.75,9.12371 -1.17711,0.26936 -16.5402,3.86424 -34.1402,7.98861 -17.6,4.12438 -32.25115,7.50016 -32.5581,7.50175 -0.30696,0.002 -2.08074,-4.49692 -3.94175,-9.99667 -3.03322,-8.96396 -3.22101,-10.12905 -1.81333,-11.25 1.32947,-1.05866 3.38171,-8.75045 2.3347,-8.75045 -0.194,0 -4.38933,4.84279 -9.32294,10.76175 l -8.97019,10.76176 -34.864196,3.80348 c -19.1753,2.09191 -36.52957,4.0531 -38.56503,4.35819 -3.28691,0.49267 -3.7614,0.28964 -4.24223,-1.81523 z M 251.70108,537.76527 c 0.84893,-0.6875 2.57759,-5.075 3.84148,-9.75 1.26389,-4.675 3.73732,-13.675 5.49651,-20 1.7592,-6.325 3.50614,-12.76152 3.8821,-14.30338 l 0.68356,-2.80339 -5.22997,0.30339 -5.22997,0.30338 -5.79447,22.5 c -3.18696,12.375 -5.79808,23.0625 -5.80248,23.75 -0.005,0.74976 1.31616,1.25 3.30086,1.25 1.81988,0 4.00345,-0.5625 4.85238,-1.25 z m 257.98365,0 c 1.52291,-1.24652 4.37923,-9.5592 3.56457,-10.37386 -0.43672,-0.43672 -8.70947,10.08861 -8.70947,11.08095 0,1.03506 3.62517,0.53683 5.1449,-0.70709 z m -28.1449,-10.29632 c 15.125,-3.59581 29.0857,-6.95883 31.02377,-7.47339 3.80891,-1.01125 3.19414,0.54826 10.73447,-27.23029 0.40548,-1.49379 -0.24481,-1.75 -4.44161,-1.75 -2.70415,0 -5.45663,-0.54 -6.11663,-1.2 -0.93333,-0.93333 -1.2,-0.83534 -1.2,0.44098 0,0.90254 -0.42082,1.90107 -0.93516,2.21895 -0.51434,0.31788 -10.07684,-0.0867 -21.25,-0.89911 -11.17316,-0.81238 -22.56484,-1.59644 -25.31484,-1.74234 l -5,-0.26529 -4.60968,22.70724 c -4.48236,22.08003 -4.55141,22.69376 -2.5,22.21916 1.16032,-0.26844 14.48468,-3.4301 29.60968,-7.02591 z M 140.77585,508.8305 c 2.05481,-11.09709 3.62981,-20.22937 3.5,-20.29396 -0.12981,-0.0646 -8.33602,0.19513 -18.23602,0.57715 -9.9,0.38203 -24.46445,0.74117 -32.365446,0.79809 l -14.36545,0.10349 25.365446,19.49439 c 21.82805,16.77576 25.85355,19.49461 28.86545,19.49588 l 3.5,10e-4 3.73602,-20.17653 z M 6.8490542,558.32448 c -3.40162,-3.40161 -4.13894,-19.80766 -1.14868,-25.55921 1.18925,-2.28744 4.5052498,-2.24299 5.7468898,0.077 2.89974,5.41821 2.38626,21.35376 -0.81547,25.30773 l -1.7705998,2.1866 -2.01214,-2.01215 z m 667.0147858,0.9122 c -2.09786,-1.3343 -3.62777,-10.05822 -3.02493,-17.24888 0.66394,-7.91946 1.97196,-10.97253 4.70092,-10.97253 3.15193,0 4.35753,3.8282 4.42549,14.05239 0.05,7.5263 -0.31141,10.12455 -1.70405,12.25 -1.86707,2.84951 -2.50012,3.12576 -4.39743,1.91902 z M 6.7913642,526.19188 c -3.11572,-1.97843 -3.94675,-21.14055 -1.14394,-26.37763 1.22887,-2.29617 4.5457798,-2.32446 5.7420898,-0.049 2.74725,5.22546 2.38946,22.868 -0.52281,25.78027 -1.6671498,1.66716 -2.3077298,1.76875 -4.0753398,0.64634 z M 672.33701,524.76527 c -0.79605,-1.40678 -1.2732,-5.99766 -1.2732,-12.25 0,-10.70925 1.17017,-14.5 4.47602,-14.5 2.57044,0 3.63169,2.27974 4.46526,9.59213 1.51955,13.33002 -3.49055,24.54046 -7.66808,17.15787 z m -73.55146,-2 c 0.25283,-0.6875 3.06561,-12.95 6.25062,-27.25 3.18501,-14.3 5.94218,-26.17838 6.12704,-26.39641 0.18486,-0.21802 4.73272,-1.21952 10.10636,-2.22554 5.37364,-1.00602 10.78276,-2.07371 12.02026,-2.37264 3.12006,-0.75369 3.02623,0.14067 -2.38024,22.68609 -2.54663,10.61968 -5.13413,21.5585 -5.75,24.3085 l -1.11976,5 -11,3.67532 c -11.91158,3.9799 -14.97452,4.53314 -14.25428,2.57468 z m -593.3915258,-31 c -0.69721,-1.28986 -1.24328,-6.32626 -1.27968,-11.80239 -0.05,-7.5263 0.31141,-10.12455 1.70405,-12.25 2.02121,-3.08474 2.96804,-3.30816 5.0779798,-1.19821 2.96287,2.96286 3.36316,20.4188 0.58718,25.60576 -1.37916,2.57699 -4.6063698,2.38877 -6.0895298,-0.35516 z m 666.9938658,0.0607 c -1.42004,-2.54903 -1.8352,-18.57317 -0.59574,-22.99403 0.97262,-3.46906 4.40999,-4.65521 6.2518,-2.15735 2.13657,2.89762 2.89495,14.9768 1.33986,21.3407 -1.06987,4.37824 -1.78908,5.56337 -3.52632,5.81068 -1.44768,0.2061 -2.61568,-0.46717 -3.4696,-2 z M 5.3940242,458.76527 c -1.63685,-3.02825 -1.65945,-20.55925 -0.0303,-23.5 0.68556,-1.2375 2.11481,-2.25 3.17611,-2.25 3.2526398,0 4.4658198,3.80323 4.4658198,14 0,10.19677 -1.21318,14 -4.4658198,14 -1.0613,0 -2.47691,-1.0125 -3.14581,-2.25 z m 666.9480758,0 c -0.77724,-1.37907 -1.26809,-5.92724 -1.26809,-11.75 0,-10.19677 1.21318,-14 4.46582,-14 3.21571,0 4.4169,3.80733 4.4169,14 0,10.19267 -1.20119,14 -4.4169,14 -1.0613,0 -2.50028,-1.0125 -3.19773,-2.25 z m -666.9783758,-33 c -1.62915,-2.94075 -1.60655,-20.47175 0.0303,-23.5 0.6689,-1.2375 2.08451,-2.25 3.14581,-2.25 3.2526398,0 4.4658198,3.80323 4.4658198,14 0,10.19677 -1.21318,14 -4.4658198,14 -1.0613,0 -2.49055,-1.0125 -3.17611,-2.25 z m 666.9783758,0 c -0.77724,-1.37907 -1.26809,-5.92724 -1.26809,-11.75 0,-10.19677 1.21318,-14 4.46582,-14 3.21571,0 4.4169,3.80733 4.4169,14 0,10.19267 -1.20119,14 -4.4169,14 -1.0613,0 -2.50028,-1.0125 -3.19773,-2.25 z M 333.03355,405.9344 c -28.10709,-2.51488 -58.00487,-14.42638 -82.60473,-32.91037 -3.75043,-2.81801 -6.32978,-4.00876 -8.68364,-4.00876 -2.9393,0 -3.31069,-0.28835 -3.03926,-2.35965 0.22549,-1.72076 -1.23,-4.02219 -5.37567,-8.5 -3.12668,-3.37719 -6.10233,-6.14035 -6.61256,-6.14035 -0.51023,0 -27.31497,11.025 -59.5661,24.5 -32.25113,13.475 -59.10898,24.5 -59.6841,24.5 -0.57513,0 -0.72032,-0.52647 -0.32263,-1.16994 0.50815,-0.8222 0.15416,-0.94155 -1.19099,-0.40154 -3.96068,1.59004 -20.239126,4.54235 -31.371686,5.68968 -13.25206,1.36576 -16.66676,0.44258 -19.64163,-5.3102 -2.63036,-5.08654 -1.56563,-18.14451 1.97163,-24.18039 5.87422,-10.02361 19.85201,-24.65351 17.17763,-17.97903 -0.40802,1.01828 -1.01314,2.52642 -1.34472,3.35142 -0.33158,0.825 1.59609,-0.975 4.28372,-4 8.93979,-10.062 20.51102,-20.9331 20.51102,-19.26998 0,0.55204 -2.43418,4.05819 -5.40929,7.79144 -2.97511,3.73326 -5.18226,7.37937 -4.90478,8.10248 0.31617,0.82392 2.03921,-0.63371 4.61555,-3.90461 2.26107,-2.87063 7.40796,-8.48183 11.437536,-12.46933 4.02958,-3.9875 6.86176,-7.25 6.29374,-7.25 -0.56802,0 -1.03276,-0.9 -1.03276,-2 0,-2.34487 2.70289,-2.72359 3.17668,-0.44512 0.25968,1.24883 0.96021,1.02579 3.55896,-1.13313 2.6053,-2.16437 3.11232,-3.17934 2.60265,-5.21005 -0.56311,-2.24359 -0.38172,-2.45632 1.64297,-1.92685 3.20418,0.83791 9.25579,-3.9734 7.98479,-6.34829 -0.98583,-1.84203 -0.35197,-2.93656 1.70062,-2.93656 0.73333,0 1.33333,0.74474 1.33333,1.65499 0,1.51713 0.15832,1.51171 1.90072,-0.0652 3.03631,-2.74782 3.54695,-0.0366 0.68826,3.65428 -1.38698,1.79073 -7.5172,8.18169 -13.62271,14.20213 -11.2902,11.13289 -19.595186,21.24208 -22.636196,27.55375 -2.17397,4.51214 -2.90396,13.05915 -1.36151,15.94124 1.68692,3.15205 6.939306,5.04584 14.249316,5.13771 9.67974,0.12164 3.86504,1.52275 -14.129406,3.40462 -12.58292,1.31593 -15.57354,1.37358 -16.29425,0.31409 -1.70481,-2.50617 -0.10259,-10.81031 3.48726,-18.07407 2.74747,-5.55929 3.02921,-6.55132 1.22285,-4.30573 -5.9919,7.44883 -9.0007,17.51907 -6.88315,23.03734 0.94032,2.45042 5.77711,4.5448 10.49583,4.5448 7.31681,0 3.4796,1.11534 -8.78315,2.55295 -6.50862,0.76308 -13.74636,1.6172 -16.08386,1.89811 -4.12689,0.49594 -4.25,0.42803 -4.25,-2.34441 0,-1.57033 0.65504,-4.71172 1.45564,-6.98087 1.86303,-5.28038 1.17458,-5.28138 -1.51865,-0.002 -2.32528,4.55793 -2.79899,12.13292 -0.90169,14.41902 2.34713,2.82812 8.29123,3.74986 18.6096,2.88577 7.70142,-0.64495 8.98096,-0.94583 5.8551,-1.3768 -5.35116,-0.73779 -3.68058,-1.58328 7.03809,-3.56204 4.92905,-0.91016 13.686906,-2.77378 19.461906,-4.14158 16.50089,-3.90822 21.69754,-4.86246 28.73095,-5.27577 0.67702,-0.0398 1.5127,-1.19494 1.85707,-2.56703 0.56242,-2.24084 0.99826,-2.43519 4.28318,-1.90991 3.82719,0.612 13.2187,-2.0148 20.07474,-5.61488 l 3.55406,-1.86623 -3.75,0.5737 c -3.90395,0.59726 -5.44208,-1.1929 -2,-2.32769 3.73913,-1.23273 59.82828,-27.14773 79.75,-36.84708 11.55,-5.62338 26.06563,-12.6112 32.25695,-15.52849 6.19133,-2.91728 11.11025,-5.45085 10.93094,-5.63016 -0.1793,-0.17931 -7.71993,3.0653 -16.75695,7.21024 -16.89301,7.74818 -24.99181,11.21365 -54.55273,23.34304 -9.41698,3.86397 -24.26698,10.35939 -33,14.43428 -22.57541,10.53384 -33.25705,14.28478 -42.87821,15.05698 -4.4,0.35315 -9.97657,0.91853 -12.39239,1.25639 -7.09411,0.99215 -4.03068,-1.25919 3.62998,-2.6677 3.71933,-0.68384 11.9339,-2.79542 18.25461,-4.69239 16.37085,-4.91324 26.1196,-9.06709 50.5078,-21.52089 3.85,-1.966 9.025,-4.47356 11.5,-5.57235 85.42074,-37.92304 103.00124,-45.83858 121,-54.4797 15.22179,-7.3079 48.45989,-23.00779 56,-26.45138 3.025,-1.38153 14.20962,-6.75961 24.85472,-11.95129 l 19.35472,-9.43943 -0.60105,-3.19018 c -0.33057,-1.7546 -0.86474,-4.99018 -1.18705,-7.19018 -1.14156,-7.79208 -0.51671,-7.91611 -18.18127,3.60883 -3.99297,2.60514 -8.70019,5.05296 -10.4605,5.43958 -1.76031,0.38663 -4.42335,1.60702 -5.91788,2.71197 -1.49452,1.10495 -3.36887,1.75897 -4.16521,1.45339 -0.9291,-0.35653 -1.40286,0.0431 -1.32219,1.11531 0.0766,1.01826 -0.55784,1.61667 -1.62429,1.53203 -0.9625,-0.0764 -1.75,0.48611 -1.75,1.25 0,1.90146 -1.69859,1.7499 -2.81863,-0.25151 -1.05891,-1.89217 -3.35103,-0.96529 -2.58023,1.04338 0.6638,1.72983 -2.47401,2.94742 -4.10575,1.5932 -0.91771,-0.76164 -1.38784,-0.51547 -1.7642,0.92376 -0.59917,2.29124 -7.2469,5.36854 -9.8278,4.5494 -2.24228,-0.71168 -13.90339,5.09069 -13.90339,6.91809 0,2.08679 -8.31987,1.5386 -10.80645,-0.71202 -1.5803,-1.43034 -3.00743,-1.70044 -6.60472,-1.25 -2.52385,0.31602 -6.61383,0.82716 -9.08883,1.13586 -2.79429,0.34853 -4.5,0.16927 -4.5,-0.4729 0,-0.5688 6.96425,-4.50712 15.47611,-8.75183 8.51186,-4.24471 15.30368,-7.89009 15.09293,-8.10084 -0.21075,-0.21074 -1.6625,0.27263 -3.22611,1.07417 -3.27727,1.67998 -18.40873,3.42755 -16.84293,1.94523 0.55,-0.52068 5.17828,-2.37944 10.28507,-4.13057 12.6189,-4.32705 26.51339,-10.92785 23.21493,-11.02862 -1.375,-0.042 -4.93976,1.05932 -7.92168,2.4474 -6.51173,3.03118 -12.87408,4.59618 -13.64093,3.35538 -0.30299,-0.49025 -1.76285,-0.28901 -3.24414,0.44718 -2.39787,1.19174 -9.22597,2.1251 -31.19325,4.26392 -7.38951,0.71947 -7.18039,-0.0387 1,-3.62573 3.025,-1.32643 9.91238,-5.03962 15.30528,-8.25154 7.05001,-4.19885 11.1822,-6.00292 14.70534,-6.42018 2.69502,-0.31919 4.82454,-0.85754 4.73226,-1.19634 -0.49377,-1.81283 2.89567,-5.33456 7.87733,-8.18478 4.32063,-2.47201 6.9415,-3.25903 11.2559,-3.38003 4.50018,-0.1262 6.62294,-0.80969 10.62389,-3.42068 2.75,-1.79464 15.8,-9.6967 29,-17.56015 32.35704,-19.27561 60.5,-39.37845 60.5,-43.21584 0,-1.65963 -5.36671,-6.67269 -11.16941,-10.43337 -2.56817,-1.66442 -5.36222,-4.08357 -6.20898,-5.3759 -2.15238,-3.28494 -15.333,-12.36923 -26.62161,-18.34802 -16.96081,-8.98296 -36.15475,-14.594906 -54.11759,-15.822976 -9.87029,-0.67481 -15.41469,-0.0445 -14.37706,1.6344 1.49295,2.41565 -2.78346,5.484646 -19.47296,13.974866 -11.77806,5.9917 -19.63379,10.67291 -22.75935,13.56225 -4.69066,4.33616 -4.71682,4.39369 -1.51579,3.33292 1.79149,-0.59367 7.19149,-3.59042 12,-6.65945 12.11677,-7.73352 17.1021,-10.21924 20.49556,-10.21924 4.1093,0 3.093,1.98534 -2.5595,5 -2.57814,1.375 -4.68882,3.00105 -4.69042,3.61344 -0.003,1.07499 -10.65772,6.38656 -12.81133,6.38656 -1.42775,0 -19.16361,11.30802 -19.17921,12.22827 -0.007,0.40055 5.72515,-2.13581 12.73765,-5.63635 20.56717,-10.26686 31.25,-14.23183 31.25,-11.59855 0,0.63375 -7.3125,4.73763 -16.25,9.11973 -8.9375,4.3821 -15.35,7.66039 -14.25,7.28509 2.77361,-0.94631 7.15789,-1.44188 12.72484,-1.43833 3.6414,0.002 7.06069,-1.13927 14.91135,-4.97843 5.60258,-2.73978 10.9014,-4.98407 11.77516,-4.98729 0.87376,-0.003 9.68865,-5.17818 19.58865,-11.49991 9.9,-6.32172 18.5955,-11.49409 19.32332,-11.49414 8.75596,-6e-4 -30.64321,26.23327 -64.94946,43.24649 -11.10331,5.50637 -14.73985,7.77889 -15.09826,9.43506 -0.42232,1.95153 0.79403,1.54694 11.53194,-3.83581 6.60224,-3.3096 13.81842,-7.1628 16.03596,-8.56267 2.21755,-1.39988 5.32296,-2.64679 6.90093,-2.77092 1.57796,-0.12413 3.3835,-0.74017 4.0123,-1.36897 0.6288,-0.6288 1.72827,-1.14327 2.44327,-1.14327 0.715,0 1.3,-0.675 1.3,-1.5 0,-2.60207 2.45567,-1.62675 3.85314,1.53035 1.63897,3.70269 0.26794,5.92861 -3.72558,6.0486 -1.44516,0.0434 -2.06506,0.30592 -1.37756,0.58333 2.59847,1.0485 1.08499,3.52317 -3.35622,5.48773 -4.98433,2.20481 -4.97676,4.78253 0.008,2.88715 3.83953,-1.45979 7.59774,-1.29974 7.59774,0.32355 0,0.89475 -1.79781,1.57665 -5.25,1.99131 -8.42846,1.01237 -9.05183,0.91019 -8.45151,-1.38545 0.43779,-1.67412 -2.04973,-0.6916 -14.07798,5.5605 -8.03535,4.17666 -16.56972,8.9167 -18.96525,10.53343 -2.39554,1.61672 -4.64146,2.9395 -4.99094,2.9395 -0.34948,0 -1.56442,0.83567 -2.69987,1.85704 -1.69345,1.52332 -10.42088,2.96999 -48.56445,8.05011 -25.575,3.40619 -47.7375,6.43127 -49.25,6.72241 -3.5757,0.68829 -3.50794,-0.12017 0.78961,-9.42166 6.52059,-14.11297 17.74981,-29.65047 30.88587,-42.73575 18.63754,-18.56549 35.7057,-29.83966 59.75316,-39.469196 17.5359,-7.02207 26.06667,-8.3778 52.82136,-8.39449 18.51819,-0.0115 22.92481,0.29533 31.77344,2.21278 23.60813,5.11573 43.6961,13.531026 56.98232,23.871176 4.54067,3.53383 10.28798,7.32408 12.77179,8.42279 4.32608,1.91363 4.8621,1.93252 12.74424,0.44913 8.1857,-1.54052 10.32799,-2.12088 33.22821,-9.00163 13.69826,-4.11587 55.16835,-13.48356 73,-16.489976 16.33155,-2.75351 45.86558,-5.38817 51.44208,-4.58904 5.97099,0.85567 12.49995,4.0158 14.45201,6.995016 0.85787,1.30927 1.8515,4.20492 2.20807,6.43478 1.0561,6.60449 -3.08878,13.6244 -15.06699,25.51799 -23.34986,23.18491 -79.83868,62.0438 -110.78517,76.20958 -6.58178,3.01281 -6.66456,3.29132 -4.1725,14.03687 1.20578,5.19925 1.50032,10.9871 1.25,24.56306 l -0.3275,17.76103 8,0.0143 c 4.4,0.008 8.53917,0.35706 9.19817,0.77597 0.90205,0.57344 1.23968,13.55792 1.36617,52.5399 l 0.168,51.77823 2.63383,-0.30521 c 2.22774,-0.25815 2.61355,-0.76775 2.50228,-3.30521 -0.0724,-1.65 -0.47826,-23.02563 -0.90202,-47.50139 -0.65182,-37.64882 -0.55457,-44.66849 0.63156,-45.58651 0.7711,-0.59681 3.90047,-2.07481 6.95415,-3.28444 4.74599,-1.88 7.13955,-2.15783 16.48486,-1.9135 l 10.93272,0.28584 0.78246,4 c 0.43035,2.2 1.1299,19.525 1.55456,38.5 0.42466,18.975 1.03639,33.825 1.3594,33 0.32301,-0.825 2.06222,-6.225 3.86489,-12 7.70381,-24.67965 9.26442,-29.60695 9.97692,-31.5 0.41401,-1.1 2.22879,-6.725 4.03284,-12.5 6.99254,-22.38401 15.21387,-47.57908 16.06621,-49.23643 0.49115,-0.95504 0.893,-2.55254 0.893,-3.55 0,-0.99746 0.37175,-2.24107 0.82612,-2.76357 0.45437,-0.5225 1.40566,-2.975 2.11398,-5.45 0.70833,-2.475 1.65162,-5.4 2.09622,-6.5 0.44459,-1.1 1.57102,-4.11547 2.50317,-6.70104 2.09566,-5.81286 3.09326,-6.7234 12.88378,-11.75949 8.20158,-4.21877 9.98165,-4.62486 13.77968,-3.14361 1.26338,0.49272 4.15912,1.44811 6.43498,2.12307 2.27586,0.67497 5.39561,2.23006 6.93278,3.45576 2.5075,1.9994 2.68517,2.52654 1.72805,5.12692 -0.58674,1.59412 -1.62029,4.92339 -2.29677,7.39839 -0.67647,2.475 -1.57508,5.4 -1.9969,6.5 -0.42182,1.1 -1.78757,5.375 -3.03501,9.5 -4.70085,15.54462 -6.25395,20.55816 -6.97008,22.5 -0.40567,1.1 -1.64411,4.925 -2.7521,8.5 -6.01706,19.41459 -10.54726,33.7305 -11.23379,35.5 -0.42678,1.1 -1.77577,5.375 -2.99775,9.5 -1.22199,4.125 -2.62557,8.28139 -3.11908,9.23643 -0.4935,0.95504 -0.89728,2.77754 -0.89728,4.05 0,1.27246 -0.37175,2.74107 -0.82612,3.26357 -0.45437,0.5225 -1.40566,2.975 -2.11398,5.45 -0.70833,2.475 -1.63528,5.4 -2.0599,6.5 -0.42462,1.1 -1.32462,4.025 -2,6.5 -0.67538,2.475 -1.56432,5.4 -1.97542,6.5 -1.43167,3.83082 -3.02458,9.14849 -3.02458,10.0971 0,0.57404 7.98759,0.96678 20.01964,0.98436 16.73726,0.0245 20.27422,0.28383 21.57242,1.58203 1.81669,1.81669 3.6736,18.42177 2.34176,20.94078 -0.9453,1.78792 -8.56047,3.51645 -19.43382,4.41119 -6.51244,0.53589 -11.42622,1.01922 -35,3.44268 -4.95,0.50887 -13.5,1.37764 -19,1.93058 -5.5,0.55295 -11.575,1.24221 -13.5,1.53169 -1.925,0.28948 -6.425,0.77548 -10,1.07999 -3.575,0.30451 -10.775,0.98059 -16,1.5024 -5.225,0.5218 -11.975,1.18703 -15,1.47829 -3.025,0.29125 -7.975,0.78774 -11,1.10331 -36.75281,3.83401 -39.15527,3.93299 -43.96397,1.8114 -2.88031,-1.27079 -4.25772,-2.56703 -4.62535,-4.35276 -0.28794,-1.39867 -0.90796,-4.34304 -1.37782,-6.54304 -0.75987,-3.55788 -1.39653,-7.3028 -3.52169,-20.71492 -0.32375,-2.04321 -0.97011,-3.95069 -1.43636,-4.23884 -0.46625,-0.28816 -3.93632,2.01948 -7.71127,5.12808 -25.4677,20.97221 -52.35431,31.74024 -85.73548,34.33689 -13.61798,1.05931 -16.36297,1.05063 -29.13434,-0.0921 z M 90.808864,397.35933 c -0.67703,-0.27392 -2.02703,-0.29059 -3,-0.0371 -0.97296,0.25354 -0.41903,0.47766 1.23097,0.49804 1.65,0.0204 2.44607,-0.18706 1.76903,-0.46099 z m 400.512206,-68.47386 -0.28124,-12.24451 -3.94694,7.57541 c -3.68212,7.06716 -3.87163,7.83451 -2.82459,11.43716 0.61729,2.12396 1.63297,6.56174 2.25706,9.86174 0.6241,3.3 1.55766,7.38195 2.07459,9.071 0.51694,1.68905 0.93988,4.20155 0.93988,5.58333 0,1.38179 0.3375,2.85125 0.75,3.26548 0.88654,0.89025 1.42833,-17.26134 1.03124,-34.54961 z m -37.99894,26.2843 c 0.28658,-0.86063 -0.19425,-1.221 -1.33427,-1 -0.98026,0.19002 -1.98391,0.95098 -2.23033,1.691 -0.28658,0.86063 0.19425,1.221 1.33427,1 0.98026,-0.19002 1.98391,-0.95098 2.23033,-1.691 z m -6.5323,-16.05699 c 1.5125,-0.5764 2.75,-1.50915 2.75,-2.07276 0,-1.39447 -0.076,-1.3752 -6.1507,1.55955 -3.98881,1.92703 -4.58631,2.4542 -2.3493,2.07276 1.65,-0.28134 4.2375,-0.98314 5.75,-1.55955 z m -37.1815,-2.70782 c 2.98732,-0.88567 7.10528,-2.46282 9.151,-3.50476 5.53437,-2.81883 14.98018,-5.08525 16.18259,-3.88284 1.27583,1.27583 4.12029,1.25825 8.84791,-0.0547 3.42554,-0.95132 3.75,-1.34588 3.75,-4.56017 0,-2.83767 -1.08794,-6.41109 -2.48121,-8.14967 -0.21304,-0.26585 -9.82656,3.85715 -30.26879,12.98154 -8.56248,3.82185 -11.25,5.47048 -11.25,6.90115 0,2.25743 -0.554,2.23283 6.0685,0.26942 z m -35.0685,-15.38969 c 1.925,-1.05389 3.05,-1.91617 2.5,-1.91617 -0.55,0 -2.575,0.86228 -4.5,1.91617 -1.925,1.05389 -3.05,1.91617 -2.5,1.91617 0.55,0 2.575,-0.86228 4.5,-1.91617 z m 5.59398,-11.07718 c 9.57331,-4.99246 17.40602,-9.23838 17.40602,-9.43539 0,-0.98166 -33.87813,16.05737 -35.8531,18.03233 -1.60455,1.60455 2.99951,-0.54109 18.44708,-8.59694 z m 0.89894,8.08863 c 0.35034,-0.56686 -0.0511,-0.7345 -0.94098,-0.39301 -1.73242,0.66479 -2.04939,1.38156 -0.61096,1.38156 0.51754,0 1.21592,-0.44485 1.55194,-0.98855 z m 105.86784,-7.21252 c 2.12342,-4.19889 3.69223,-8.13997 3.48623,-8.75797 -0.206,-0.61799 -1.94334,0.53756 -3.86077,2.56789 -1.91742,2.03033 -2.92372,3.37237 -2.23622,2.98231 2.1114,-1.19791 1.3892,1.4547 -1.25,4.59121 -2.62331,3.11763 -3.40377,7.24943 -1.25,6.6176 0.6875,-0.20169 2.98734,-3.80216 5.11076,-8.00104 z m -196.86784,0.21252 c 0.35034,-0.56686 -0.0511,-0.7345 -0.94098,-0.39301 -1.73242,0.66479 -2.04939,1.38156 -0.61096,1.38156 0.51754,0 1.21592,-0.44485 1.55194,-0.98855 z m 150.15169,-4.70018 c -0.56326,-0.56326 -9.64461,4.378 -9.64461,5.24773 0,0.26108 2.29475,-0.68814 5.09943,-2.10939 2.80469,-1.42124 4.85002,-2.83349 4.54518,-3.13834 z m 51.35405,-19.04177 10e-4,-5.2305 -8.01394,5.7305 c -7.06382,5.05109 -7.94928,6.0269 -7.46853,8.2305 0.29998,1.375 0.82635,4.5152 1.16972,6.97821 l 0.6243,4.47821 6.84289,-7.47821 c 6.63098,-7.24663 6.84293,-7.64018 6.84422,-12.70871 z m -60.313,17.21737 c 1.99178,-0.83222 3.37597,-1.75858 3.07597,-2.05858 -0.61496,-0.61496 -7.76163,2.16639 -7.76163,3.02068 0,0.83759 0.74406,0.68481 4.68566,-0.9621 z m -3.36694,-5.64457 c 4.96335,-3.9233 8.23694,-4.68566 11.84005,-2.75733 1.89593,1.01467 1.99542,0.84844 1.53534,-2.56559 -0.27058,-2.00781 -0.67058,-3.82918 -0.88889,-4.0475 -0.21831,-0.21831 -5.68099,2.55689 -12.13928,6.1671 -9.52694,5.32561 -11.52666,6.82392 -10.59914,7.94151 1.38982,1.67463 3.19397,0.8408 10.25192,-4.73819 z m -11.53284,-3.05565 c 2.35723,-1.61266 5.50723,-3.14205 7,-3.39864 3.93637,-0.67664 6.13413,-1.3717 11.46412,-3.62563 4.78999,-2.02558 5.96582,-4.29797 3.90474,-7.54625 -1.34964,-2.12704 -4.22325,-0.33728 -3.57912,2.22916 0.49564,1.97476 -0.12697,2.48776 -5.31532,4.37953 -5.42495,1.97803 -21.44669,10.99736 -23.7603,13.3757 -1.52264,1.56524 5.44521,-2.10222 10.28588,-5.41387 z M 352.67889,281.1303 c 8.99852,-4.33673 17.26094,-8.61577 18.36094,-9.50897 1.1,-0.89321 -1.15,-0.12606 -5,1.70477 -10.79343,5.1327 -31.07619,15.57928 -30.36094,15.63732 0.35149,0.0285 8.00149,-3.49638 17,-7.83312 z m 129.54453,3.93743 c 7.61773,-5.08693 9.08838,-6.79509 9.48823,-11.02054 0.24742,-2.61468 1.13971,-4.01302 3.62612,-5.68264 1.81386,-1.21801 3.67007,-2.35738 4.12491,-2.53193 0.45484,-0.17454 1.1244,-4.81735 1.48791,-10.31735 l 0.66093,-10 -2.26307,3 c -5.82294,7.71908 -12.34373,13.49669 -19.87323,17.60825 l -8.04263,4.39175 0.53553,4.5 c 1.25547,10.5495 2.09995,14 3.42637,14 0.50459,0 3.57761,-1.77639 6.82893,-3.94754 z m -10.44671,-19.85028 c 0.27264,-1.04257 2.1329,-2.296 4.42818,-2.98368 4.00691,-1.2005 15.42036,-10.64107 17.45017,-14.43382 0.89794,-1.6778 0.3531,-1.5241 -3.26885,0.92214 -2.39051,1.61453 -8.05888,5.10516 -12.59638,7.75695 -7.28361,4.25665 -8.25,5.15614 -8.25,7.67883 0,3.16507 1.50042,3.8758 2.23688,1.05958 z M 351.43715,248.5337 c 4.61853,-1.96278 10.46853,-4.62391 13,-5.91362 2.53147,-1.28972 17.08291,-8.59091 32.33652,-16.22488 16.37365,-8.1945 27.74046,-14.45353 27.75,-15.28026 0.009,-0.77018 1.21468,-3.85002 2.67955,-6.84409 2.84606,-5.81714 4.68301,-7.05158 13.60096,-9.13991 5.99322,-1.40344 11.02342,-1.4279 12.39105,-0.0603 0.74053,0.74053 3.74906,-0.1059 10.08428,-2.83716 11.60533,-5.00333 17.87714,-8.7038 19.84685,-11.70996 1.49167,-2.27658 1.36389,-2.79619 -2.50922,-10.20351 -4.35,-8.31936 -12.01329,-19.12981 -14.57823,-20.56522 -1.18646,-0.66398 -3.8455,1.4456 -11.27583,8.94579 -9.97358,10.06734 -12.94958,12.1018 -54.22325,37.06813 -6.81087,4.11988 -9.88046,6.60958 -10.84407,8.79546 -1.09921,2.49348 -4.78131,4.94477 -20.21134,13.45533 -10.37699,5.72352 -18.73541,10.53826 -18.57425,10.69941 0.16115,0.16116 3.06824,-0.83467 6.4602,-2.21294 4.60909,-1.87284 7.64171,-2.44087 12.00354,-2.24834 4.96373,0.21909 6.42259,-0.14862 9.75729,-2.4594 5.26529,-3.64859 10.24082,-5.3508 11.61718,-3.97444 1.5711,1.5711 0.21187,4.06671 -2.93292,5.38498 -2.66143,1.11565 -2.68306,1.1796 -0.52563,1.55454 1.31206,0.22803 2.25,1.10971 2.25,2.11505 0,1.27792 -1.388,2.01515 -5.36426,2.84918 -6.40814,1.34412 -14.80767,5.39509 -31.63574,15.25748 -14.77047,8.65649 -13.36003,7.63865 -12.50413,9.02353 0.48681,0.78768 1.04313,0.67044 1.85013,-0.38991 0.6347,-0.83396 4.93279,-3.12219 9.55132,-5.08497 z m 131.75218,-30.20226 c -0.5398,-0.5398 -7.6495,3.44349 -7.6495,4.28571 0,0.24132 1.84361,-0.50177 4.09691,-1.65132 2.25329,-1.14954 3.85196,-2.33502 3.55259,-2.63439 z m -9.68517,-6.29484 c 5.24462,-3.12339 16.73567,-9.88151 25.53567,-15.01805 8.8,-5.13654 19.825,-11.59774 24.5,-14.35821 4.675,-2.76048 14.575,-9.57199 22,-15.13668 7.425,-5.5647 17.03581,-12.72762 21.35736,-15.91761 14.0331,-10.35865 22.81909,-21.30874 21.19733,-26.41848 -1.52913,-4.81784 -16.56814,-5.61034 -41.05469,-2.16344 -23.20915,3.26709 -42.47795,7.76944 -66.53521,15.54663 -10.25452,3.31507 -10.90829,3.68156 -9.90652,5.55339 0.58991,1.10225 1.63856,2.22129 2.33033,2.48674 0.69177,0.26546 6.06684,-1.09268 11.9446,-3.01809 12.8201,-4.19955 20.93597,-5.93243 38.10264,-8.13558 19.27173,-2.4733 24.56416,-1.38748 24.56416,5.0397 0,6.2989 -12.89087,17.60342 -39,34.20068 -11.73806,7.46174 -18.34663,11.26436 -42.23775,24.30393 l -9.73775,5.31478 0.62485,4.09948 c 0.34367,2.25471 1.01316,4.8574 1.48775,5.78374 0.4746,0.92634 0.8629,2.62967 0.8629,3.78518 0,2.46185 -0.55204,2.69699 13.96433,-5.94811 z m 61.5679,-43.96917 c -1.02775,-1.66294 1.50086,-4.41907 2.83253,-3.0874 0.7327,0.7327 0.5699,1.52915 -0.53929,2.63834 -1.1271,1.1271 -1.79353,1.2576 -2.29324,0.44906 z m 4.46777,-5.05216 c 0,-0.55 0.45,-1 1,-1 0.55,0 1,0.45 1,1 0,0.55 -0.45,1 -1,1 -0.55,0 -1,-0.45 -1,-1 z m 4.42298,-2.12462 c -0.89608,-1.44989 4.5675,-6.85924 12.05941,-11.93972 6.35359,-4.30854 8.71697,-7.21425 9.89606,-12.1669 0.52795,-2.21758 -0.0107,-3.46283 -2.86411,-6.6212 -4.04653,-4.47904 -4.24932,-5.14756 -1.56139,-5.14756 5.46861,0 10.04705,5.34522 10.04705,11.72968 0,5.76163 -9.48416,16.85963 -18.28406,21.39532 -6.22801,3.21008 -8.57885,3.90584 -9.29296,2.75038 z m -43.42298,42.29732 c 33.30272,-18.48976 62.07032,-37.98236 84.5,-57.25626 19.4654,-16.72668 24.42031,-24.30211 20.012,-30.59584 -2.77608,-3.96342 -9.76606,-5.57535 -25.512,-5.88325 -7.975,-0.15594 -13.4875,-0.0618 -12.25,0.20911 1.2375,0.27095 2.25,0.85886 2.25,1.30646 0,0.88633 -3.45881,2.01165 -6.25,2.03343 -0.9625,0.008 -1.75,-0.66135 -1.75,-1.48635 0,-0.825 -0.45,-1.5 -1,-1.5 -0.55,0 -1,0.85122 -1,1.89159 0,2.08005 -1.50247,2.63105 -10,3.66729 -3.21929,0.39258 -6.03472,1.34676 -6.78949,2.30104 -0.97203,1.22898 -1.47624,1.32816 -2.04809,0.40289 -0.91254,-1.47653 -9.41377,-0.33404 -9.20586,1.23719 0.15163,1.14593 -0.83552,1.20644 25.54344,-1.56585 25.96731,-2.72903 32.65412,-1.80471 35.4303,4.89758 3.92038,9.46463 -9.14562,24.76849 -38.4303,45.01238 -20.96617,14.49348 -20.51122,14.21013 -56.5,35.18947 -35.36462,20.6155 -33.99529,20.679 3,0.13912 z m 44,-19.23002 c 37.40462,-21.87278 62.48543,-41.98197 81.79529,-65.58146 3.56223,-4.35357 4.20471,-5.8298 4.20471,-9.66111 0,-3.82223 -0.4763,-4.9231 -3.07673,-7.11121 -1.69219,-1.4239 -4.05469,-2.575206 -5.25,-2.558486 -1.95689,0.0274 -1.99904,0.13189 -0.42327,1.049686 2.09037,1.21753 2.33109,3.9199 0.34918,3.9199 -0.77508,0 -3.41537,4.13188 -5.91078,9.25 -5.91845,12.1388 -12.36217,20.46343 -24.35923,31.46962 -15.76077,14.45904 -21.56657,18.97767 -44.57917,34.69569 -11.9625,8.17061 -21.75,15.05639 -21.75,15.30173 0,0.24534 1.4625,-0.43388 3.25,-1.50938 1.7875,-1.0755 8.875,-5.24474 15.75,-9.26498 z M 504.6165,171.26527 c 17.97474,-11.39184 33.4536,-23.63526 36.07602,-28.5353 1.05822,-1.9773 0.87949,-2.00693 -8.78625,-1.4563 -12.5574,0.71535 -49.97077,8.40447 -53.03486,10.89962 -1.67237,1.36184 11.19652,21.84198 13.72462,21.84198 1.00417,0 2.10388,0.45 2.4438,1 0.96242,1.55722 1.59096,1.3111 9.57667,-3.75 z m -27.57667,-36.73281 c 7.78297,-2.27758 9.75448,-2.9658 16,-5.5854 1.65,-0.69206 4.2018,-1.35538 5.67067,-1.47404 7.10787,-0.57417 20.82933,-3.98127 20.82933,-5.17201 0,-1.64731 1.10983,-1.77875 -15.32229,1.81474 -21.44624,4.69 -36.21799,9.72862 -38.27391,13.05517 -0.51591,0.83476 -0.16706,0.96562 1.18216,0.44343 1.05272,-0.40744 5.51404,-1.79429 9.91404,-3.08189 z m 3,-7.60251 c 1.92593,-0.75873 1.9197,-0.79025 -0.16821,-0.85129 -1.19252,-0.0349 -2.95384,-0.36486 -3.91405,-0.73333 -1.14572,-0.43965 -1.51034,-0.28891 -1.06075,0.43854 0.37679,0.60966 -0.11189,1.59232 -1.08596,2.18368 -1.41693,0.86022 -1.17121,0.94275 1.22897,0.41275 1.65,-0.36435 3.9,-1.01701 5,-1.45035 z m 16.25,-4.97866 c 4.09928,-1.31724 7.25,-2.89602 7.25,-3.63285 0,-1.43058 -2.14174,-1.5388 -6,-0.30317 -1.771,0.56717 -1.97249,0.82971 -0.69098,0.90032 0.99496,0.0548 1.5309,0.54968 1.19098,1.09968 -0.85025,1.37573 -4.2462,1.2614 -4.71963,-0.1589 -0.22133,-0.66398 -1.85282,0.27466 -3.82027,2.19791 -1.88869,1.84625 -2.76485,3.10254 -1.94704,2.79176 0.81782,-0.31078 4.74944,-1.61342 8.73694,-2.89475 z m 28.61163,-0.43602 c 0.38957,-1.01522 -0.0505,-1.5 -1.36163,-1.5 -1.31114,0 -1.7512,0.48478 -1.36163,1.5 0.31659,0.825 0.92932,1.5 1.36163,1.5 0.43231,0 1.04504,-0.675 1.36163,-1.5 z M 320.41954,110.89173 c 8.8401,-4.46795 17.77107,-9.62379 19.8466,-11.457426 l 3.77369,-3.33389 -3.39237,0.92846 c -3.67572,1.006 -5.5366,0.4895 -4.46768,-1.24004 0.46929,-0.75933 -0.77695,-0.88956 -4.12326,-0.4309 -2.63771,0.36154 -6.28293,0.65734 -8.1005,0.65734 -2.16544,0 -4.2719,0.89213 -6.11043,2.58788 -2.20423,2.033066 -2.37698,2.446836 -0.80576,1.929966 6.58688,-2.166796 9.17998,-1.610256 6.25,1.3414 -1.00225,1.00966 -0.90315,1.12719 0.5,0.59301 1.18188,-0.44995 1.75,-0.1824 1.75,0.82412 0,0.8197 -0.9,1.72571 -2,2.01337 -1.28388,0.33574 -2,0.0307 -2,-0.85198 0,-0.82329 -0.61383,-1.13945 -1.5298,-0.78796 -0.90002,0.34537 -1.30588,1.29257 -0.98586,2.30083 0.69141,2.17846 -1.45039,4.09542 -8.98434,8.04123 -3.3,1.72833 -6.4275,3.56221 -6.95,4.07528 -2.38503,2.34198 2.38404,0.36313 17.32971,-7.19069 z m 196.92277,4.6544 c 0.29197,-0.29198 -0.846,-0.53086 -2.52882,-0.53086 -1.71191,0 -3.29826,0.62173 -3.60131,1.41145 -0.43571,1.13545 0.0588,1.23925 2.52883,0.53085 1.68874,-0.48432 3.30933,-1.11947 3.6013,-1.41144 z m 11.59218,-2.57104 c 7.24357,-2.23731 8.75764,-3.56829 2.85534,-2.51006 -6.93097,1.24267 -11.25,2.62046 -11.25,3.58878 0,1.34944 0.91307,1.23211 8.39466,-1.07872 z m 84.36645,-3.40501 c 2.55992,-5.26909 2.85657,-5.07295 -9.26111,-6.12336 -4.4,-0.38141 -8.34573,-1.19702 -8.7683,-1.81246 -0.52612,-0.76628 -1.0934,-0.56738 -1.79969,0.63101 -1.12321,1.90579 -3.93201,2.39939 -3.93201,0.69098 0,-0.59521 -0.54745,-0.7185 -1.25,-0.28152 -0.6875,0.42763 -4.175,0.67783 -7.75,0.55601 -3.575,-0.12182 -8.075,0.1838 -10,0.67916 -2.53755,0.65298 0.85822,0.9288 12.34887,1.00301 17.4253,0.11254 20.8144,0.952 24.93129,6.17528 1.22091,1.54903 2.46767,2.84132 2.77057,2.87175 0.30291,0.0304 1.52258,-1.94501 2.71038,-4.38986 z m -58.01111,1.75586 c -0.9625,-0.25152 -2.5375,-0.25152 -3.5,0 -0.9625,0.25153 -0.175,0.45733 1.75,0.45733 1.925,0 2.7125,-0.2058 1.75,-0.45733 z M 5.8183942,393.31766 c -1.39264,-2.12545 -1.75407,-4.7237 -1.70405,-12.25 0.0364,-5.47613 0.58247,-10.51253 1.27968,-11.80239 1.44878,-2.68033 4.7004398,-2.95076 6.0119298,-0.5 2.77301,5.18188 2.41818,22.82285 -0.51812,25.75914 -2.1010798,2.10108 -3.0500798,1.87517 -5.0694398,-1.20675 z M 673.82488,395.2126 c -3.20994,-2.03976 -4.13595,-20.87037 -1.28801,-26.1918 1.43048,-2.67287 4.63382,-2.54607 6.17623,0.24447 2.02238,3.65894 1.6972,20.77255 -0.45719,24.06057 -1.86995,2.85389 -2.49215,3.11883 -4.43103,1.88676 z M 101.11789,384.14157 c -0.63171,-1.02212 9.01937,-2.49314 10.47099,-1.59599 0.54096,0.33434 0.72468,1.02679 0.40824,1.53879 -0.72869,1.17905 -10.15526,1.22861 -10.87923,0.0572 z m 52.42194,-8.09112 c 0,-0.89105 3.13247,-3.03518 4.43426,-3.03518 1.29051,0 0.44201,2.8335 -1.01605,3.39301 -2.26867,0.87057 -3.41821,0.75023 -3.41821,-0.35783 z M 99.004464,365.62796 c -0.92502,-6.16844 1.632166,-11.29392 10.782926,-21.61269 10.44092,-11.7736 24.55436,-25.53141 25.36244,-24.72334 0.36927,0.36928 -1.81854,3.9456 -4.86182,7.94738 -3.04327,4.00178 -8.24193,10.83069 -11.55257,15.17536 -6.21735,8.15925 -8.89442,14.68017 -7.80641,19.01516 0.68634,2.7346 5.30527,4.56971 11.52747,4.57986 5.85416,0.01 2.83567,0.94839 -8.00138,2.48863 -15.249566,2.1674 -14.679316,2.27334 -15.450656,-2.87036 z M 5.3940242,360.76527 c -1.54739,-2.86275 -1.57792,-20.28968 -0.042,-24 1.40033,-3.38287 4.61489,-3.63415 6.3964898,-0.5 1.69031,2.97358 1.66379,21.42652 -0.0352,24.5 -0.68409,1.2375 -2.1121298,2.25 -3.1734298,2.25 -1.0613,0 -2.47691,-1.0125 -3.14581,-2.25 z m 133.6458058,0.28076 c 7.90544,-2.10913 12.11281,-2.46626 12.95729,-1.09986 0.92702,1.49995 -0.42765,1.81152 -10.45729,2.40514 l -9.5,0.56227 z m 533.29718,-0.28076 c -1.73828,-3.07191 -1.71395,-21.46998 0.0325,-24.56068 2.27983,-4.03469 5.45136,-2.52915 6.97416,3.31068 1.3754,5.27457 0.9625,16.35425 -0.78029,20.93814 -1.2206,3.21042 -4.4934,3.37434 -6.22634,0.31186 z M 75.233684,354.37579 c -0.79893,-0.79893 0.10419,-2.36052 1.36517,-2.36052 0.51754,0 0.94098,0.675 0.94098,1.5 0,1.54641 -1.17996,1.9867 -2.30615,0.86052 z m 49.836616,-0.31122 c -0.36148,-0.58489 0.0136,-1.32083 0.83342,-1.63544 2.11797,-0.81274 6.13611,-0.1015 6.13611,1.08614 0,1.37848 -6.15716,1.86375 -6.96953,0.5493 z m -7.53047,-7.87499 c 0,-1.14482 4.11535,-4.74008 6.31895,-5.52037 1.27376,-0.45104 1.62981,-1.24004 1.1879,-2.63237 -0.90331,-2.84605 3.52562,-7.02157 7.4477,-7.02157 2.35432,0 3.04545,0.4432 3.04545,1.95295 0,5.73657 4.1783,9.33726 10.68361,9.20669 2.37401,-0.0477 4.31639,0.34693 4.31639,0.87686 0,0.52992 -0.5625,0.968 -1.25,0.97349 -0.6875,0.005 -7.1,0.67172 -14.25,1.48049 -15.13393,1.71189 -17.5,1.80434 -17.5,0.68383 z m 24.25,-7.64836 c -1.69931,-1.23813 -2.25,-2.64029 -2.25,-5.729 0,-3.84651 0.57961,-4.66348 9.75,-13.74259 5.3625,-5.30912 13.29218,-12.28467 17.62151,-15.50121 7.23974,-5.37887 24.61572,-15.55315 26.56221,-15.55315 0.72384,0 15.06628,31.73786 15.06628,33.33961 0,1.76508 -18.01,8.55231 -37.59629,14.1685 -15.27478,4.37991 -25.79032,5.46842 -29.15371,3.01784 z m -41.25,-3.52595 c 0,-0.55 0.70156,-1 1.55902,-1 0.85746,0 1.2809,0.45 0.94098,1 -0.33992,0.55 -1.04148,1 -1.55902,1 -0.51754,0 -0.94098,-0.45 -0.94098,-1 z m 3.44615,-3.08713 c -0.36954,-0.59793 -0.15236,-1.60666 0.48262,-2.24164 0.87268,-0.87268 1.37235,-0.80204 2.04689,0.28938 0.95311,1.54218 0.4725,3.03939 -0.97566,3.03939 -0.48508,0 -1.18431,-0.48921 -1.55385,-1.08713 z M 5.7003742,328.26527 c -1.47698,-2.84085 -2.32117,-12.5584 -1.5778,-18.16215 0.79643,-6.00383 3.11001,-9.52672 5.62312,-8.56235 3.6049098,1.38333 4.9128198,20.6472 1.7970998,26.46897 -1.32264,2.47138 -4.6155098,2.6154 -5.8424198,0.25553 z M 135.53983,328.0986 c 0,-1.22833 0.64569,-2.08333 1.57332,-2.08333 0.93124,0 1.44138,0.68037 1.25,1.66713 -0.48655,2.50877 -2.82332,2.85325 -2.82332,0.4162 z m 537.13388,0.16667 c -2.77301,-5.18188 -2.41818,-22.82285 0.51812,-25.75914 2.10108,-2.10108 3.05008,-1.87517 5.06944,1.20675 1.39264,2.12545 1.75408,4.7237 1.70405,12.25 -0.0364,5.47613 -0.58247,10.51253 -1.27968,11.80239 -1.44878,2.68033 -4.70044,2.95076 -6.01193,0.5 z m -560.44638,-2.89583 c -1.37384,-1.37385 -0.66124,-3.49576 1.0625,-3.1638 0.9625,0.18536 1.75,0.96836 1.75,1.73999 0,1.57886 -1.76429,2.47201 -2.8125,1.42381 z m 119.55301,-1.60417 c 0.70013,-2.14937 5.77489,-4.13732 7.1078,-2.78437 0.87124,0.88435 0.67901,1.51788 -0.78944,2.60169 -2.42334,1.78858 -6.88347,1.91753 -6.31836,0.18268 z m -92.06383,-5.30282 c 0.45227,-2.17211 2.22702,-2.30502 2.63295,-0.19718 0.2108,1.0946 -0.27967,1.75 -1.30963,1.75 -0.96073,0 -1.51197,-0.64684 -1.32332,-1.55282 z m 3.82332,-4.44718 c 0,-0.55 0.675,-1 1.5,-1 0.825,0 1.5,0.45 1.5,1 0,0.55 -0.675,1 -1.5,1 -0.825,0 -1.5,-0.45 -1.5,-1 z m 5.63948,-2.69385 c -1.19516,-1.19516 -0.64571,-3.30615 0.86052,-3.30615 0.825,0 1.5,0.64844 1.5,1.44098 0,1.67065 -1.42728,2.79841 -2.36052,1.86517 z m -13.63948,-2.80615 c 0,-1.02996 0.6554,-1.52043 1.75,-1.30963 2.10784,0.40593 1.97493,2.18068 -0.19718,2.63295 -0.90598,0.18865 -1.55282,-0.36259 -1.55282,-1.32332 z m -130.1761058,-13.75 c -1.62915,-2.94075 -1.60655,-20.47175 0.0303,-23.5 0.6689,-1.2375 2.08451,-2.25 3.14581,-2.25 3.2526398,0 4.4658198,3.80323 4.4658198,14 0,10.19677 -1.21318,14 -4.4658198,14 -1.0613,0 -2.49055,-1.0125 -3.17611,-2.25 z m 667.1080058,0.12276 c -1.82561,-3.4112 -2.31021,-16.79788 -0.7737,-21.37276 1.62554,-4.83991 4.97386,-5.94794 6.98259,-2.31068 1.68578,3.05249 1.70987,20.52591 0.0325,23.56068 -1.56965,2.83982 -4.75372,2.90245 -6.24137,0.12276 z m -402.4319,0.12724 c 0.33992,-0.55 1.04148,-1 1.55902,-1 0.51754,0 0.94098,0.45 0.94098,1 0,0.55 -0.70156,1 -1.55902,1 -0.85746,0 -1.2809,-0.45 -0.94098,-1 z m 27.5,-11.94098 c 0,-0.51754 0.45,-1.2191 1,-1.55902 0.55,-0.33992 1,0.0835 1,0.94098 0,0.85746 -0.45,1.55902 -1,1.55902 -0.55,0 -1,-0.42344 -1,-0.94098 z m 7,-9.95203 c 0,-1.10376 2.59467,-2.17899 3.37505,-1.39861 0.31382,0.31382 0.33125,0.95781 0.0387,1.4311 -0.702,1.13593 -3.41375,1.11012 -3.41375,-0.0325 z m -1.5,-3.10699 c 0.33992,-0.55 1.51803,-1 2.61803,-1 1.1,0 1.72189,0.45 1.38197,1 -0.33992,0.55 -1.51803,1 -2.61803,1 -1.1,0 -1.72189,-0.45 -1.38197,-1 z m 8.5,-0.0314 c 0,-1.28894 2.84907,-2.45288 3.76417,-1.53779 0.37285,0.37286 0.0159,1.09656 -0.79313,1.60823 -1.93575,1.22423 -2.97104,1.19968 -2.97104,-0.0704 z m -15.37615,-1.50647 c -0.33982,-0.88556 0.0573,-1.78628 0.93614,-2.12354 1.95661,-0.75083 2.84947,0.15198 2.09493,2.11826 -0.75909,1.97817 -2.27299,1.9808 -3.03107,0.005 z m 21.37615,-1.46213 c 0,-0.55 0.45,-1 1,-1 0.55,0 1,0.45 1,1 0,0.55 -0.45,1 -1,1 -0.55,0 -1,-0.45 -1,-1 z m 13.49147,-0.0138 c -0.62816,-1.01638 4.26297,-4.9862 6.14339,-4.9862 0.75083,0 1.36514,0.675 1.36514,1.5 0,0.825 -0.675,1.5 -1.5,1.5 -0.825,0 -1.5,0.39752 -1.5,0.88337 0,1.19437 -3.86731,2.14035 -4.50853,1.10282 z m -17.49147,-0.9862 c 0,-0.55 0.45,-1 1,-1 0.55,0 1,0.45 1,1 0,0.55 -0.45,1 -1,1 -0.55,0 -1,-0.45 -1,-1 z m 6.45888,-0.0665 c -0.86511,-1.39978 -0.25536,-1.92148 2.91843,-2.497 2.95549,-0.53593 3.28173,0.0473 1.19412,2.13496 -1.69727,1.69726 -3.20529,1.83002 -4.11255,0.36204 z m 353.77388,-2.70071 c -2.56661,-2.56661 -3.704,-9.45006 -2.87386,-17.39247 0.74099,-7.08943 2.03843,-9.84032 4.6411,-9.84032 2.51041,0 3.59551,2.23087 4.42841,9.10437 0.86963,7.1766 -0.22485,15.42267 -2.40423,18.11409 l -1.70282,2.1029 -2.0886,-2.0886 z M 5.3637242,261.76527 c -1.62915,-2.94075 -1.60655,-20.47175 0.0303,-23.5 0.6689,-1.2375 2.08451,-2.25 3.14581,-2.25 3.2526398,0 4.4658198,3.80323 4.4658198,14 0,10.19677 -1.21318,14 -4.4658198,14 -1.0613,0 -2.49055,-1.0125 -3.17611,-2.25 z M 328.53983,261.17579 c 0,-1.25351 4.98777,-3.28611 6.21004,-2.53071 0.62622,0.38703 0.0839,1.19635 -1.32494,1.97727 -2.75042,1.52454 -4.8851,1.76638 -4.8851,0.55344 z m -1,-20.03808 c 0,-0.48265 0.675,-1.43775 1.5,-2.12244 1.2532,-1.04007 1.5,-0.89568 1.5,0.87756 0,1.21995 -0.63782,2.12244 -1.5,2.12244 -0.825,0 -1.5,-0.3949 -1.5,-0.87756 z m -37,-2.08726 c 0,-1.2244 3.33452,-3.03518 5.58925,-3.03518 1.59789,0 1.59152,0.14278 -0.0892,2 -1.86547,2.06132 -5.5,2.74539 -5.5,1.03518 z m 46.59656,-0.87895 c -0.34605,-0.55992 -0.1419,-1.31919 0.45366,-1.68727 1.53748,-0.95021 2.52947,0.35135 1.24598,1.63484 -0.71818,0.71818 -1.27752,0.73543 -1.69964,0.0524 z M 6.7913642,231.19188 c -1.94412,-1.23448 -3.48951,-11.80589 -2.71679,-18.58448 0.83357,-7.31239 1.89482,-9.59213 4.46526,-9.59213 1.0613,0 2.3510498,0.7875 2.8661198,1.75 2.77301,5.18188 2.41818,22.82285 -0.51812,25.75914 -1.6884498,1.68846 -2.3251998,1.79221 -4.0964698,0.66747 z M 673.18329,230.51587 c -1.97809,-1.97809 -3.05253,-11.0669 -2.15751,-18.2506 0.87013,-6.98397 1.97597,-9.25 4.51405,-9.25 1.0613,0 2.34389,0.7875 2.85021,1.75 1.67383,3.18191 2.33331,13.80557 1.22813,19.78406 -1.32548,7.17014 -3.35213,9.04929 -6.43488,5.96654 z m -347.64346,-14.5006 c 0,-0.55 0.37009,-1 0.82242,-1 1.36511,0 12.33145,-6.17946 11.83945,-6.67146 -0.25129,-0.2513 -3.61891,1.13546 -7.48359,3.08168 -6.17217,3.10826 -7.40074,3.40819 -10.10249,2.46636 -3.54684,-1.23644 -3.93915,-2.46778 -1.07579,-3.37658 1.1,-0.34913 2,-1.20811 2,-1.90885 0,-0.96302 -1.15968,-1.08319 -4.75,-0.49223 -8.118,1.33623 -14.44322,1.10499 -14.07332,-0.51449 0.17782,-0.77857 4.258,-4.55625 9.06705,-8.39486 l 8.74372,-6.97929 -12.24372,-0.38549 c -10.10786,-0.31825 -12.46179,-0.11853 -13.49373,1.14486 -1.11428,1.36419 -1.39769,1.34034 -2.61024,-0.21965 -0.85267,-1.09699 -2.71842,-1.75 -5,-1.75 -2.00187,0 -3.63976,-0.39844 -3.63976,-0.88542 0,-0.97015 18.26924,-9.39838 36.12013,-16.66347 14.38565,-5.85478 34.33028,-15.17379 38.862,-18.15804 1.91518,-1.26119 4.45453,-2.29307 5.64302,-2.29307 2.27946,0 3.64049,1.98619 2.53233,3.69554 -0.36161,0.55779 -10.33248,5.17787 -22.15748,10.26684 -22.42143,9.64921 -33,14.79755 -33,16.06031 0,0.40923 0.98977,1.00288 2.19949,1.31923 2.80176,0.73267 7.97317,-1.57305 19.42624,-8.66138 11.99302,-7.4225 21.12481,-11.67878 25.05874,-11.67975 3.64791,-9e-4 15.481,-7.71835 29.31553,-19.11935 8.92095,-7.35173 18.6879,-13.52688 19.73643,-12.47835 0.33977,0.33978 -0.69943,2.02307 -2.30933,3.74066 -1.60991,1.71759 1.74855,-0.76211 7.46324,-5.51043 5.71469,-4.74833 10.77719,-8.63332 11.25,-8.63332 2.15718,0 0.44714,4.03645 -3.99007,9.41832 -4.61906,5.60245 -15.75144,15.58168 -17.38222,15.58168 -0.42243,0 -0.76805,1.01307 -0.76805,2.25127 0,1.87803 -2.11382,3.32703 -12.75,8.74 -17.31191,8.81038 -29.89793,15.87958 -31.31763,17.59022 -0.9655,1.16335 -0.70554,1.41851 1.44519,1.41851 1.56079,0 2.62244,-0.55768 2.62244,-1.37756 0,-2.60832 2.74528,-3.84127 6.96541,-3.12828 2.21903,0.3749 4.03459,1.00607 4.03459,1.40261 0,2.22876 -3.47132,4.586 -10.22505,6.94343 -7.94984,2.77494 -55.99493,25.27316 -55.34944,25.91865 0.93507,0.93506 18.76667,-6.38056 35.57449,-14.59485 19.50576,-9.53281 26,-11.70614 26,-8.70103 0,1.04492 -1.58952,2.32245 -4.18216,3.36129 -2.30019,0.92166 -10.16676,4.60074 -17.48128,8.17574 -9.5662,4.67552 -13.07488,6.85476 -12.50023,7.7639 0.59634,0.94346 4.77212,-0.6411 16.47055,-6.25 8.61941,-4.13265 16.30334,-7.5139 17.0754,-7.5139 0.77206,0 1.67168,0.69824 1.99916,1.55163 0.58854,1.53372 -5.10677,4.59575 -21.38144,11.49552 -3.025,1.28247 -6.4,3.19768 -7.5,4.25602 -1.99012,1.91474 -1.98801,1.9181 0.42722,0.68051 1.33498,-0.68406 4.93498,-1.83125 8,-2.54931 3.06503,-0.71806 9.93984,-3.33532 15.27736,-5.81613 10.29898,-4.78684 16.79542,-6.62178 16.79542,-4.74393 0,1.35845 -7.46511,5.16254 -29.97564,15.27504 -13.02386,5.85076 -18.56449,7.85065 -21.75,7.85065 -2.3509,0 -4.27436,-0.45 -4.27436,-1 z m 1,-9 c 0,-0.55 -0.47656,-1 -1.05902,-1 -0.58246,0 -0.7809,0.45 -0.44098,1 0.33992,0.55 0.81648,1 1.05902,1 0.24254,0 0.44098,-0.45 0.44098,-1 z m 3.97104,-0.96094 c 0.80907,-0.51167 1.25836,-1.14299 0.99843,-1.40293 -0.25994,-0.25993 -1.34542,0.1656 -2.41217,0.94563 -2.13344,1.56001 -0.94021,1.94598 1.41374,0.4573 z m -34.84906,5.60792 c -1.21556,-1.46466 -0.52559,-2.64698 1.54469,-2.64698 1.4897,0 1.82538,2.57786 0.44664,3.42997 -0.48768,0.30141 -1.38378,-0.0509 -1.99133,-0.78299 z M 5.3874942,196.76527 c -0.72286,-1.33018 -1.24826,-6.42892 -1.28519,-12.47214 -0.0553,-9.04695 0.17513,-10.45976 2.00425,-12.28895 2.55051,-2.55061 5.1725498,-1.75815 6.1919098,1.87139 1.17863,4.19659 0.75034,20.39787 -0.6051,22.8897 -0.67314,1.2375 -2.0922298,2.25 -3.1535298,2.25 -1.0613,0 -2.47985,-1.0125 -3.15234,-2.25 z m 666.9988058,0 c -1.35543,-2.49183 -1.78373,-18.69311 -0.6051,-22.8897 1.48146,-5.27487 6.28418,-4.64174 7.48143,0.98625 1.11502,5.24147 0.69272,19.50852 -0.65181,22.0208 -1.49045,2.78493 -4.67851,2.72482 -6.22452,-0.11735 z m -667.0197258,-33 c -2.02239,-3.65894 -1.69721,-20.77255 0.45718,-24.06057 2.21529,-3.38095 3.21953,-3.37747 5.4430298,0.0189 1.38996,2.12312 1.76764,4.76992 1.74799,12.25 -0.0269,10.23194 -1.24098,14.04167 -4.4749398,14.04167 -1.0613,0 -2.48927,-1.0125 -3.17326,-2.25 z m 666.9755258,0 c -2.05704,-3.64983 -1.71543,-20.7074 0.48187,-24.06089 1.48257,-2.2627 2.11441,-2.54618 3.73819,-1.67716 2.67621,1.43226 3.48948,5.00694 3.40991,14.98805 -0.0731,9.16473 -1.38066,13 -4.43224,13 -1.0613,0 -2.50028,-1.0125 -3.19773,-2.25 z m -666.9480758,-33 c -1.65971,-3.07055 -1.65809,-20.56109 0.002,-23.56068 2.0128,-3.63652 5.3598498,-2.52936 6.9854298,2.31068 1.53652,4.57488 1.05192,17.96156 -0.7737,21.37276 -1.48801,2.78037 -4.6787698,2.71734 -6.2139098,-0.12276 z m 667.0777058,0.12276 c -1.82561,-3.4112 -2.31021,-16.79788 -0.7737,-21.37276 1.62516,-4.8388 4.98442,-5.95436 6.95813,-2.31068 1.6427,3.03262 1.66684,20.54442 0.0325,23.56068 -1.5389,2.84007 -4.72893,2.90306 -6.2169,0.12276 z M 5.8183942,98.317664 c -1.39264,-2.12545 -1.75407,-4.7237 -1.70405,-12.250002 0.068,-10.22419 1.27357,-14.052386 4.42549,-14.052386 2.5390998,0 3.8153698,2.577705 4.6056998,9.302221 1.18729,10.101967 -1.07995,19.697773 -4.6540698,19.697773 -0.49804,0 -1.70092,-1.213916 -2.67307,-2.697606 z m 667.3734358,1.20676 c -2.9363,-2.9363 -3.29113,-20.577273 -0.51812,-25.759148 1.31149,-2.450761 4.56315,-2.180327 6.01193,0.5 0.69721,1.289864 1.24328,6.326261 1.27968,11.802386 0.05,7.526302 -0.31141,10.124552 -1.70405,12.250002 -2.01936,3.081916 -2.96836,3.307826 -5.06944,1.20676 z M 5.3237842,65.265276 c -1.54168,-3.634305 -1.4864,-21.095825 0.076,-24 0.66575,-1.2375 2.07878,-2.25 3.14008,-2.25 3.2697498,0 4.4291298,3.795558 4.4291298,14.5 0,6.132018 -0.4834,10.870296 -1.24975,12.25 -1.7396098,3.131932 -4.9616198,2.880033 -6.3954298,-0.5 z m 667.0426258,0.5 c -1.69901,-3.07348 -1.72553,-21.526425 -0.0352,-24.5 1.53641,-2.702844 4.76805,-2.941743 6.10105,-0.451021 2.8028,5.237084 1.97178,24.3992 -1.14395,26.377636 -2.12603,1.349998 -3.62758,0.914772 -4.92189,-1.426615 z m -666.6660358,-32.5 c -0.50041,-0.9625 -1.23288,-4.411584 -1.62771,-7.66463 -0.49245,-4.057342 -1.33607,-6.415211 -2.68654,-7.508757 -2.27251,-1.840169 -1.665,-4.681988 1.19494,-5.589698 1.02106,-0.324071 2.12191,-1.425564 2.44635,-2.447762 1.3325,-4.1983605 5.7826398,-4.9378245 6.7793298,-1.1264975 0.35577,1.3604865 1.9055,1.9249725 6.64464,2.4203105 7.33002,0.766139 10.08845,2.042221 10.08845,4.667034 0,2.512455 -2.23109,3.595519 -9.1287,4.431452 l -5.62871,0.682151 -0.67868,5.116171 c -0.37328,2.813894 -1.11869,5.938334 -1.65648,6.943199 -1.24164,2.320019 -4.5576398,2.364464 -5.7468898,0.07703 z M 672.6324,33.188246 c -0.53779,-1.004865 -1.28659,-4.154865 -1.66401,-7 -0.37742,-2.845135 -0.96575,-5.204683 -1.30739,-5.24344 -0.34164,-0.03876 -2.86111,-0.302748 -5.59881,-0.586645 -6.15851,-0.638634 -8.52236,-1.84322 -8.52236,-4.342888 0,-2.624813 2.75843,-3.900895 10.08846,-4.667034 4.73914,-0.495338 6.28886,-1.059824 6.64463,-2.4203105 0.99669,-3.811327 5.44683,-3.071863 6.77934,1.1264975 0.32443,1.022198 1.42528,2.123691 2.44634,2.447762 2.84471,0.902874 3.46912,3.748179 1.2219,5.56787 -1.25205,1.013852 -2.20586,3.503209 -2.68544,7.008757 -0.40906,2.990052 -1.12669,6.448958 -1.59473,7.686458 -1.03184,2.728145 -4.44135,2.976449 -5.80793,0.422973 z M 38.774474,19.929808 c -2.34595,-0.448517 -4.70845,-1.089328 -5.25,-1.424026 -1.65539,-1.023089 -1.09643,-4.360311 0.9102,-5.434227 4.94,-2.643805 21.84782,-2.427373 25.61588,0.327901 2.41705,1.767387 1.11343,5.238194 -2.29655,6.114429 -4.25243,1.092711 -14.28919,1.31266 -18.97953,0.415923 z m 33.76536,0.201569 c -5.5392,-0.822244 -7,-1.686187 -7,-4.139934 0,-3.306521 3.80598,-4.464171 14.65781,-4.458407 8.55904,0.0045 10.4871,0.303403 12.25,1.898805 1.1507,1.041375 2.09219,2.263292 2.09219,2.71537 0,3.062647 -12.70627,5.363734 -22,3.984166 z m 32.499996,0.02556 c -5.109706,-0.909237 -6.499996,-1.800199 -6.499996,-4.165493 0,-3.228543 3.824466,-4.44199 13.999996,-4.44199 10.19677,0 14,1.213182 14,4.465823 0,1.061298 -0.80134,2.358495 -1.78075,2.88266 -2.476,1.325115 -14.89261,2.117868 -19.71925,1.259 z m 32.18209,-0.0526 c -6.89941,-1.439008 -8.6184,-6.219694 -2.82179,-7.847692 4.31429,-1.211683 20.41144,-0.807868 22.8897,0.574215 2.71488,1.514042 2.93922,4.745193 0.42294,6.091861 -2.55793,1.368961 -15.90295,2.13851 -20.49085,1.181616 z m 32.39043,-0.116468 c -9.19318,-1.928753 -7.61778,-7.260787 2.5195,-8.527356 6.19411,-0.773903 15.58356,0.04318 18.51314,1.611043 2.75844,1.476276 2.3862,4.806406 -0.66702,5.967239 -3.85198,1.464522 -15.35395,2.000534 -20.36562,0.949074 z m 33.16212,0.0054 c -5.39702,-1.11213 -6.23464,-1.64977 -6.23464,-4.001826 0,-3.221912 3.82784,-4.391012 14.5,-4.42859 10.23607,-0.03604 14.5,1.129791 14.5,3.964554 0,0.79297 -1.0125,2.084665 -2.25,2.870433 -2.85015,1.809747 -14.91993,2.748358 -20.51536,1.595385 z m 33.26536,0.171691 c -2.2,-0.395888 -4.5625,-1.068079 -5.25,-1.493757 -1.93643,-1.198979 -1.47621,-4.464495 0.80096,-5.683197 3.3422,-1.788694 15.16456,-2.360405 20.80912,-1.006296 4.39015,1.05318 5.13992,1.578046 5.13992,3.598123 0,1.302155 -0.856,2.823191 -1.90466,3.384416 -2.5429,1.360919 -14.59957,2.099696 -19.59534,1.200711 z m 32.73013,-0.03481 c -2.34843,-0.415035 -4.75313,-1.237869 -5.34378,-1.828521 -2.0496,-2.049599 -0.44755,-4.756537 3.62731,-6.128968 4.56046,-1.535981 17.94904,-1.050487 21.3591,0.774519 2.64222,1.414072 2.76221,4.657903 0.22258,6.017071 -2.58983,1.386039 -14.62333,2.092291 -19.86521,1.165899 z m 32.98353,-0.0772 c -7.2915,-1.159789 -9.41389,-6.094184 -3.35336,-7.796305 4.27501,-1.200649 20.40699,-0.78871 22.8897,0.584501 2.73683,1.513768 2.93321,4.738121 0.37206,6.108805 -2.44645,1.3093 -14.43542,1.973533 -19.9084,1.102999 z m 32.02098,-0.154966 c -2.34595,-0.431013 -4.70845,-1.057503 -5.25,-1.392201 -1.76846,-1.092966 -1.03536,-4.391436 1.26536,-5.69333 3.03143,-1.715372 21.46857,-1.715372 24.5,0 3.14744,1.781018 2.89133,5.008006 -0.5,6.29997 -3.55925,1.355935 -14.56073,1.787721 -20.01536,0.785561 z m 33.26536,0.207069 c -5.08358,-0.838649 -6.5,-1.735052 -6.5,-4.11361 0,-2.700143 3.0697,-4.014538 10.91104,-4.671928 7.86361,-0.659257 16.63379,1.067236 17.55002,3.454887 1.76064,4.588156 -9.6592,7.360118 -21.96106,5.330651 z m 32.46603,0.04544 c -1.94368,-0.41258 -4.08118,-1.088343 -4.75,-1.501696 -1.96984,-1.217434 -1.39443,-4.462604 1.03397,-5.831244 3.01219,-1.697666 20.48781,-1.697666 23.5,0 2.715,1.53017 2.93867,4.758794 0.42294,6.105171 -2.49674,1.336217 -15.86845,2.14868 -20.20691,1.227769 z m 33.2641,-0.02837 c -2.34843,-0.410621 -4.75313,-1.229845 -5.34378,-1.820497 -2.0496,-2.049599 -0.44755,-4.756537 3.62731,-6.128968 4.56046,-1.535981 17.94904,-1.050487 21.3591,0.774519 2.5888,1.385483 2.77882,4.649014 0.34649,5.950758 -2.52449,1.351066 -14.92135,2.110284 -19.98912,1.224188 z m 32.57227,-0.07754 c -6.57166,-1.239531 -8.82275,-4.815696 -4.5524,-7.232128 3.03143,-1.715372 21.46857,-1.715372 24.5,0 2.77521,1.570391 2.92093,4.773387 0.28142,6.186009 -2.45839,1.315689 -15.28352,1.978925 -20.22902,1.046119 z m 32.6976,0.12038 c -2.2,-0.395888 -4.5625,-1.068079 -5.25,-1.493757 -1.88056,-1.164381 -1.50212,-4.45063 0.64484,-5.599648 4.94,-2.643805 21.84782,-2.427373 25.61588,0.327901 2.25771,1.650877 1.20048,5.188548 -1.79384,6.002494 -3.90678,1.061983 -15.08829,1.505947 -19.21688,0.76301 z m 33,0.002 c -5.11484,-0.922989 -6.5,-1.812801 -6.5,-4.175533 0,-3.209846 3.83117,-4.424296 14.04172,-4.45111 7.48008,-0.01964 10.12688,0.358039 12.25,1.747996 1.48955,0.975192 2.70828,2.202318 2.70828,2.72696 0,3.388699 -13.21521,5.827169 -22.5,4.1517 z m 32.73013,-0.03683 c -2.34843,-0.415035 -4.75313,-1.237869 -5.34378,-1.828521 -2.0496,-2.049599 -0.44755,-4.756537 3.62731,-6.128968 4.56046,-1.535981 17.94904,-1.050487 21.3591,0.774519 2.64222,1.414072 2.76221,4.657903 0.22258,6.017071 -2.58983,1.386039 -14.62333,2.092291 -19.86521,1.165899 z m 32.45196,-0.02581 c -6.89941,-1.439008 -8.6184,-6.219694 -2.82179,-7.847692 4.31429,-1.211683 20.41144,-0.807868 22.8897,0.574215 2.71488,1.514042 2.93922,4.745193 0.42294,6.091861 -2.55793,1.368961 -15.90295,2.13851 -20.49085,1.181616 z m 32.55255,-0.09133 c -2.34595,-0.494278 -4.70845,-1.17253 -5.25,-1.507228 -1.76846,-1.092966 -1.03536,-4.391436 1.26536,-5.69333 3.03143,-1.715372 21.46857,-1.715372 24.5,0 2.71505,1.536346 2.93846,4.764002 0.42294,6.110268 -2.68289,1.435842 -16.00562,2.129577 -20.9383,1.09029 z"
     id="path1342"
     inkscape:connector-curvature="0" />
</svg>
