<?xml version="1.0" encoding="UTF-8" standalone="no"?>
<!-- Created with Inkscape (http://www.inkscape.org/) -->

<svg
   xmlns:dc="http://purl.org/dc/elements/1.1/"
   xmlns:cc="http://creativecommons.org/ns#"
   xmlns:rdf="http://www.w3.org/1999/02/22-rdf-syntax-ns#"
   xmlns:svg="http://www.w3.org/2000/svg"
   xmlns="http://www.w3.org/2000/svg"
   xmlns:sodipodi="http://sodipodi.sourceforge.net/DTD/sodipodi-0.dtd"
   xmlns:inkscape="http://www.inkscape.org/namespaces/inkscape"
   version="1.1"
   id="svg1203"
   width="691"
   height="691"
   viewBox="0 0 691 691"
   sodipodi:docname="Patch2.jpg.svg"
   inkscape:version="0.92.1 r15371">
  <metadata
     id="metadata1209">
    <rdf:RDF>
      <cc:Work
         rdf:about="">
        <dc:format>image/svg+xml</dc:format>
        <dc:type
           rdf:resource="http://purl.org/dc/dcmitype/StillImage" />
        <dc:title></dc:title>
      </cc:Work>
    </rdf:RDF>
  </metadata>
  <defs
     id="defs1207" />
  <sodipodi:namedview
     pagecolor="#ffffff"
     bordercolor="#666666"
     borderopacity="1"
     objecttolerance="10"
     gridtolerance="10"
     guidetolerance="10"
     inkscape:pageopacity="0"
     inkscape:pageshadow="2"
     inkscape:window-width="735"
     inkscape:window-height="480"
     id="namedview1205"
     showgrid="false"
     inkscape:zoom="0.34153401"
     inkscape:cx="345.5"
     inkscape:cy="345.5"
     inkscape:window-x="0"
     inkscape:window-y="27"
     inkscape:window-maximized="0"
     inkscape:current-layer="svg1203" />
  <path
     style="fill:#000000"
     d="m 6.826988,688.39415 c -0.945515,-1.5125 -2.868389,-3.7625 -4.273053,-5 L 0,681.14415 2.75,678.85659 c 2.277354,-1.8944 2.75,-3.08631 2.75,-6.9349 0,-6.18917 1.446008,-9.77754 3.940065,-9.77754 2.584654,0 3.698698,2.22457 4.554595,9.09479 l 0.697002,5.59479 4.885657,0.17292 c 6.558551,0.23214 9.922681,1.61457 9.922681,4.07757 0,2.65637 -2.37105,3.77632 -9.76617,4.61298 -4.950421,0.56008 -6.475386,1.16667 -7.724074,3.0724 -2.0122,3.07101 -3.076467,2.99391 -5.182768,-0.37545 z m 667.163252,0.37545 c -1.24868,-1.90573 -2.77365,-2.51232 -7.72407,-3.0724 -7.33631,-0.83 -9.76617,-1.95689 -9.76617,-4.52922 0,-2.61831 1.3879,-3.268 8.42155,-3.94222 l 6.06763,-0.58161 1.08301,-6.06654 c 1.29391,-7.24795 1.92811,-8.43346 4.51158,-8.43346 2.46844,0 3.91623,3.61464 3.91623,9.77754 0,3.84859 0.47265,5.0405 2.75,6.9349 l 2.75,2.28756 -2.55394,2.25 c -1.40466,1.2375 -3.32753,3.4875 -4.27305,5 -2.1063,3.36936 -3.17057,3.44646 -5.18277,0.37545 z M 39.466035,685.22168 c -6.433443,-1.2606 -7.815789,-3.6685 -3.743529,-6.52083 3.372291,-2.36204 21.746787,-2.2119 24.727899,0.20206 3.259249,2.63918 1.748131,4.9257 -4.08156,6.17595 -5.436858,1.16599 -11.422978,1.21658 -16.90281,0.14282 z m 33,0.063 C 67.734297,684.27316 66.5,683.3992 66.5,681.06038 c 0,-1.18995 1.012321,-2.35062 2.5651,-2.94098 3.410288,-1.29659 21.050013,-1.2516 23.500641,0.0599 2.551333,1.36544 2.466647,4.60953 -0.156984,6.01365 -2.625884,1.40533 -15.244488,2.09611 -19.942722,1.09173 z m 32.999995,-4e-5 C 100.75977,684.27862 99.5,683.39928 99.5,681.12032 c 0,-3.06332 3.21414,-3.97617 14,-3.97617 5.57232,0 11.0019,0.46583 12.06574,1.03518 2.49507,1.33533 2.4863,4.59901 -0.016,5.93818 -2.56145,1.37085 -15.58919,2.12795 -20.08374,1.16716 z m 32.44668,-0.018 c -1.69801,-0.44184 -3.61051,-1.12671 -4.25,-1.52194 -1.82056,-1.12517 -1.3634,-4.42278 0.77155,-5.56538 2.45063,-1.31153 20.09035,-1.35652 23.50064,-0.0599 3.10067,1.17887 3.41694,4.49849 0.57357,6.02021 -2.59779,1.3903 -16.63258,2.15831 -20.59576,1.12704 z m 31.92863,-0.20519 c -5.09757,-1.2244 -6.35343,-3.67935 -3.19187,-6.23943 1.96928,-1.59463 3.78044,-1.79556 13.59944,-1.50875 8.71691,0.25461 11.54572,0.67658 12.27403,1.83087 1.46543,2.32255 1.15882,3.83236 -1.01447,4.99546 -2.83097,1.5151 -16.73453,2.10663 -21.66713,0.92185 z m 33.62469,0.16022 c -4.6962,-0.92019 -5.96603,-1.80589 -5.96603,-4.16129 0,-2.90801 3.84993,-3.91623 14.95432,-3.91623 7.88497,0 10.25283,0.34715 11.99608,1.75876 3.25925,2.63918 1.74814,4.9257 -4.08155,6.17595 -5.43686,1.16599 -11.42298,1.21658 -16.90282,0.14282 z m 33,0.063 c -4.73171,-1.01149 -5.96603,-1.88546 -5.96603,-4.22429 0,-1.18995 1.01232,-2.35062 2.5651,-2.94098 3.41029,-1.29659 21.05001,-1.2516 23.50064,0.0599 2.49507,1.33533 2.4863,4.59901 -0.016,5.93818 -2.56145,1.37085 -15.58919,2.12795 -20.08374,1.16716 z m 33,0 c -1.94368,-0.4155 -4.08118,-1.09365 -4.75,-1.507 -1.86604,-1.15328 -1.44425,-4.44101 0.71823,-5.59834 2.45063,-1.31153 20.09035,-1.35652 23.50064,-0.0599 3.08186,1.17172 3.42258,4.49547 0.61487,5.99811 -2.56145,1.37085 -15.58919,2.12795 -20.08374,1.16716 z m 32.08283,-0.094 c -1.89813,-0.48193 -4.05625,-1.70207 -4.79582,-2.71141 -1.1683,-1.59445 -1.0618,-2.0647 0.81193,-3.58516 1.7272,-1.40156 4.11264,-1.75 11.98071,-1.75 5.40327,0 10.97842,0.43886 12.38922,0.97525 3.16102,1.20182 3.39863,4.50829 0.43786,6.09285 -2.74936,1.47141 -16.36306,2.11109 -20.8239,0.97847 z m 32.59698,0.0437 c -5.67866,-1.19239 -7.12041,-3.94402 -3.42333,-6.53356 3.37229,-2.36204 21.74678,-2.2119 24.72789,0.20206 2.37432,1.9226 2.02424,4.65326 -0.73216,5.71099 -2.76183,1.05981 -16.50599,1.47437 -20.5724,0.62051 z m 32.76687,0.0307 c -4.34937,-1.12956 -5.41271,-1.95559 -5.41271,-4.20469 0,-1.2127 1.02843,-2.35674 2.68465,-2.98644 3.56257,-1.35448 20.73585,-1.3103 23.29616,0.0599 2.63908,1.41239 2.58172,4.63884 -0.10805,6.07837 -2.66017,1.42368 -16.32491,2.12688 -20.46005,1.05289 z m 33.55332,0.0196 C 395.7343,684.27316 394.5,683.3992 394.5,681.06038 c 0,-1.18995 1.01232,-2.35062 2.5651,-2.94098 3.41029,-1.29659 21.05001,-1.2516 23.50064,0.0599 2.55133,1.36544 2.46665,4.60953 -0.15698,6.01365 -2.62589,1.40533 -15.24449,2.09611 -19.94273,1.09173 z m 33,-4e-5 c -4.70626,-1.00601 -5.96603,-1.88535 -5.96603,-4.16431 0,-3.06332 3.21414,-3.97617 14,-3.97617 5.57232,0 11.0019,0.46583 12.06574,1.03518 2.49507,1.33533 2.4863,4.59901 -0.016,5.93818 -2.56145,1.37085 -15.58919,2.12795 -20.08374,1.16716 z m 31.37531,-0.22321 c -5.03413,-1.20916 -6.35413,-3.67878 -3.29174,-6.15855 1.74325,-1.41161 4.11111,-1.75876 11.99608,-1.75876 5.40327,0 10.97842,0.43886 12.38922,0.97525 3.10067,1.17887 3.41694,4.49849 0.57357,6.02021 -2.83097,1.5151 -16.73453,2.10663 -21.66713,0.92185 z m 33.62469,0.22187 c -4.64901,-0.99201 -5.96603,-1.88335 -5.96603,-4.03764 0,-2.88051 4.44642,-4.1015 14.93627,-4.1015 8.26078,0 10.22148,0.31156 12.20295,1.93908 l 2.36078,1.93908 -2,2.02219 c -1.57,1.58741 -3.72001,2.12654 -10,2.50757 -4.4,0.26696 -9.59028,0.14603 -11.53397,-0.26874 z m 33,0.001 c -4.73171,-1.01111 -5.96603,-1.88508 -5.96603,-4.22391 0,-1.22387 1.03691,-2.35996 2.74754,-3.01034 3.54157,-1.34651 20.71256,-1.2652 23.2826,0.11024 2.52569,1.35171 2.53643,4.61028 0.0196,5.95723 -2.56145,1.37085 -15.58919,2.12795 -20.08374,1.16716 z m 33,0 c -4.70626,-1.00567 -5.96603,-1.88501 -5.96603,-4.16397 0,-3.06332 3.21414,-3.97617 14,-3.97617 5.57232,0 11.0019,0.46583 12.06574,1.03518 2.49507,1.33533 2.4863,4.59901 -0.016,5.93818 -2.56145,1.37085 -15.58919,2.12795 -20.08374,1.16716 z m 32.44668,-0.018 c -1.69801,-0.44184 -3.61051,-1.12671 -4.25,-1.52194 -1.82056,-1.12517 -1.3634,-4.42278 0.77155,-5.56538 2.45063,-1.31153 20.09035,-1.35652 23.50064,-0.0599 3.10067,1.17887 3.41694,4.49849 0.57357,6.02021 -2.59779,1.3903 -16.63258,2.15831 -20.59576,1.12704 z M 633,685.71268 c -0.55,-0.22261 -2.64405,-0.67884 -4.65345,-1.01384 -4.56666,-0.76134 -5.81635,-3.35098 -2.79695,-5.79593 1.74385,-1.41209 4.11194,-1.75876 12.01413,-1.75876 5.41319,0 10.98834,0.52223 12.38922,1.16052 3.02489,1.37823 3.33002,4.35008 0.59682,5.81284 -2.00126,1.07105 -15.75585,2.32126 -17.54977,1.59517 z M 152.9599,667.07926 c -0.36198,-0.58568 -0.36814,-2.61068 -0.0137,-4.5 0.76697,-4.08828 0.28348,-4.18224 -4.94619,-0.9612 -4.51141,2.77866 -6.5,3.14551 -6.5,1.19911 0,-0.88951 -2.62571,-1.72893 -7.96463,-2.54623 -7.05332,-1.07974 -8.25385,-1.02975 -10.49228,0.43693 -1.39021,0.9109 -3.20849,1.39492 -4.04063,1.0756 -0.83214,-0.31932 -4.1894,0.25241 -7.46058,1.27052 -3.27119,1.0181 -6.19382,1.60489 -6.49474,1.30396 -0.30094,-0.30092 -0.54715,-2.01884 -0.54715,-3.8176 0,-3.20893 -0.0705,-3.26026 -3.75,-2.72821 -8.42157,1.21775 -9.735394,1.82332 -10.066422,4.6398 -0.394614,3.35749 -1.479607,3.41555 -3.591621,0.19221 -1.997717,-3.0489 -2.803533,-3.06981 -12.272703,-0.31843 -6.110114,1.77537 -7.870503,1.95526 -9.454361,0.96613 -1.070436,-0.6685 -2.326954,-0.98016 -2.792263,-0.69259 -1.298391,0.80245 -2.552654,-1.33646 -5.104705,-8.70511 -1.285783,-3.7125 -2.913736,-6.75 -3.617672,-6.75 -1.720321,0 -3.346782,3.23027 -3.365566,6.68426 -0.02562,4.71082 -1.291399,5.81611 -4.358892,3.80621 C 44.681608,656.68835 43.5,655.80651 43.5,655.67498 c 0,-0.13153 0.918631,-6.23274 2.041403,-13.55824 1.122772,-7.3255 1.766879,-14.56899 1.43135,-16.09664 -0.335529,-1.52766 -0.310502,-4.77511 0.05562,-7.21656 l 0.665669,-4.439 8.323221,-0.69332 c 6.332574,-0.5275 8.738116,-1.15177 10.057968,-2.6102 2.442063,-2.69844 3.759526,-2.38677 2.983344,0.70579 l -0.658244,2.62265 9.677238,-0.72553 c 5.965425,-0.44725 9.916043,-0.35493 10.299837,0.24068 0.39224,0.60872 4.222657,0.39274 10.352624,-0.58376 5.35152,-0.85248 9.95685,-1.32316 10.23407,-1.04594 0.27722,0.27722 -0.41988,5.37794 -1.5491,11.33494 -1.67608,8.84178 -1.81089,10.9816 -0.73407,11.65152 1.42938,0.88925 2.08251,-1.89811 3.30789,-14.11722 0.53385,-5.32335 1.09777,-6.82984 3.11521,-8.3221 1.35485,-1.00216 2.80765,-1.67716 3.22846,-1.5 0.4208,0.17715 -0.0147,7.7471 -0.96785,16.8221 -2.37551,22.61821 -2.42971,21.35864 0.88331,20.52712 1.51137,-0.37933 2.898,-0.83974 3.08139,-1.02313 0.1834,-0.1834 1.01333,-7.21506 1.84429,-15.62592 1.16722,-11.81429 1.8879,-15.57929 3.16861,-16.55347 0.99099,-0.75381 4.7506,-1.27378 9.34739,-1.2928 l 7.68964,-0.0318 0.32987,3.75 0.32988,3.75 1.38878,-4.25 c 1.58423,-4.84813 2.16272,-4.98935 12.82941,-3.13183 l 6.42103,1.11818 -0.65114,3.4709 c -0.35813,1.90899 -1.14801,4.56139 -1.75529,5.89422 -1.01472,2.22706 -1.49563,2.3714 -5.93797,1.7821 L 149.5,625.88649 v 3.09786 3.09785 l 6.68457,-0.21902 6.68456,-0.21903 -0.2717,5.49483 c -0.14943,3.02216 -0.63485,5.72216 -1.07871,6 -0.44385,0.27785 -1.09457,4.10517 -1.44603,8.50517 -1.26043,15.77959 -1.43834,16.5 -4.07495,16.5 -1.30884,0 -2.67587,-0.4792 -3.03784,-1.06489 z m -10.10611,-37.26411 c 0.25899,-3.20595 0.18223,-5.54036 -0.17056,-5.18756 -0.87916,0.87915 -2.78815,23.4166 -2.24604,26.51656 0.39159,2.23924 0.81361,-1.48552 2.4166,-21.329 z m -74.510353,10.53264 c 1.449885,-13.38483 1.443924,-14.46609 -0.07695,-13.95913 -1.214228,0.40474 -5.039426,23.49039 -4.136071,24.96182 0.2385,0.38848 1.023123,0.48012 1.743605,0.20364 0.857901,-0.32921 1.710092,-4.19649 2.469419,-11.20633 z m 13.043482,7.6331 c 5.006389,-1.15561 5.043605,-1.19339 5.664537,-5.75 0.343771,-2.52271 0.989536,-7.06174 1.435034,-10.08674 0.466283,-3.16614 0.428837,-5.64145 -0.08825,-5.83333 -0.494034,-0.18334 -0.933769,-1.08334 -0.97719,-2 -0.04923,-1.03935 -0.268796,-1.19618 -0.583334,-0.41667 -0.305189,0.75634 -2.400076,1.25 -5.304475,1.25 -4.441729,0 -4.839529,0.20531 -5.328362,2.75 -0.29055,1.5125 -0.402399,2.87811 -0.248553,3.03469 0.153845,0.15658 2.251608,-0.15838 4.661695,-0.69992 2.410087,-0.54153 4.685424,-0.66964 5.056305,-0.28469 0.370882,0.38496 0.129928,3.39992 -0.535452,6.69992 l -1.209783,6 -3.964547,0.30102 C 76.088668,643.23945 73.5,645.19765 73.5,647.83528 c 0,1.61018 1.427861,1.63654 7.886919,0.14561 z M 154.5,645.02849 c 0,-0.40988 -1.0125,-0.88904 -2.25,-1.06479 -1.84188,-0.26159 -2.3588,-1.1358 -2.84981,-4.81955 l -0.5998,-4.5 -0.1502,4.125 c -0.0826,2.26875 -0.43576,5.55285 -0.78479,7.29801 l -0.6346,3.17301 3.6346,-1.73322 c 1.99903,-0.95328 3.6346,-2.06858 3.6346,-2.47846 z m -20.61361,-2.13434 c 0.29167,-2.8875 0.78123,-7.86509 1.0879,-11.06132 l 0.55759,-5.81131 -3.76594,0.31131 -3.76594,0.31132 -1.03209,10.2046 -1.0321,10.20461 2.5321,0.39556 c 1.39265,0.21756 3.06221,0.46299 3.71013,0.5454 0.71712,0.0912 1.38554,-1.90431 1.70835,-5.10017 z m -34.97021,1.15738 c -1.04159,-1.15095 -2.686337,-2.51678 -3.654991,-3.03519 C 93.759413,640.21262 93.5,640.52085 93.5,643.10897 c 0,2.82663 0.251142,3.03518 3.654988,3.03518 3.645572,0 3.650112,-0.005 1.761192,-2.09262 z M 60.310365,628.85866 c 0.293702,-3.51508 0.152316,-3.71451 -2.633368,-3.71451 -3.034473,0 -4.131981,1.74609 -4.163342,6.6237 -0.012,1.86606 0.380618,2.04373 3.236345,1.46451 2.884807,-0.58512 3.284875,-1.07658 3.560365,-4.3737 z m 40.119345,-2.96451 c 0.0387,-0.4125 -1.05471,-0.75 -2.42971,-0.75 -2.918526,0 -3.382815,2.40448 -0.75,3.88412 1.64842,0.92642 2.9163,-0.32329 3.17971,-3.13412 z m 113.31616,37.72487 c -0.41112,-0.73464 -1.57654,-1.25452 -2.58982,-1.15529 -1.42848,0.13989 -2.40628,-1.39198 -4.35296,-6.81958 -2.8873,-8.05017 -3.39717,-8.78487 -5.52889,-7.96685 -1.01437,0.38925 -1.79776,2.49986 -2.23917,6.03278 -0.37342,2.98874 -1.04671,5.43407 -1.4962,5.43407 -0.4495,0 -1.85953,-0.84397 -3.1334,-1.8755 l -2.31615,-1.8755 2.14734,-14.35134 c 1.18103,-7.89324 1.75942,-14.59109 1.2853,-14.88411 -0.47411,-0.29302 -0.5605,-3.00344 -0.19197,-6.02316 L 196,614.64415 l 8.82839,-1 c 6.66963,-0.75548 9.0659,-1.42792 9.79969,-2.75 1.41937,-2.55729 2.87192,-2.13743 2.87192,0.83014 v 2.58015 l 10,-0.70897 c 6.35929,-0.45085 10,-0.35143 10,0.27307 0,0.56988 2.20336,0.81056 5.25,0.57347 7.72646,-0.60128 9.75,-1.17366 9.75,-2.7579 0,-2.55627 2.01543,-2.74105 3.99467,-0.36624 1.06633,1.27945 1.95376,2.88878 1.97206,3.57628 0.0398,1.49573 1.66429,1.65605 2.53327,0.25 0.33992,-0.55 4.19148,-1 8.55902,-1 H 277.5 l 0.14983,3.75 c 0.13516,3.3827 0.19167,3.45616 0.57695,0.75 0.23491,-1.65 0.75852,-3.34353 1.16356,-3.76339 0.40505,-0.41987 6.55792,-0.97742 13.67305,-1.23901 7.11514,-0.26159 15.41161,-1.15022 18.43661,-1.97474 6.39951,-1.7443 9,-1.90622 9,-0.56037 0,0.52937 -0.92065,3.42315 -2.04589,6.43062 -1.71982,4.59662 -2.52693,5.57379 -5.06405,6.13104 -1.75323,0.38507 -3.37979,1.56669 -3.88103,2.81937 -0.47457,1.18607 -1.60487,8.90648 -2.51177,17.15648 -0.90689,8.25 -1.95228,15.29048 -2.32308,15.64552 -0.3708,0.35504 -1.68668,0.25704 -2.92418,-0.21778 -2.71615,-1.04215 -2.75503,-2.02333 -0.75,-18.92774 0.81544,-6.875 1.48653,-12.64825 1.49131,-12.82946 0.005,-0.1812 -1.28425,-0.0455 -2.86452,0.30161 -2.09168,0.45941 -3.03516,0.20902 -3.46861,-0.92054 -0.39446,-1.02794 -1.87164,-1.54644 -4.3768,-1.5363 -6.80856,0.0276 -6.93135,0.78713 -1.71256,10.59392 2.60223,4.88992 5.32238,9.37838 6.04478,9.97434 1.07311,0.8853 0.92321,2.28388 -0.81925,7.64323 l -2.1327,6.55966 -8.49399,2.24387 c -7.83159,2.06889 -8.58787,2.11548 -9.69793,0.59739 -0.66217,-0.90557 -3.80517,-2.12735 -6.98446,-2.71508 -4.97871,-0.92036 -6.24004,-0.82111 -9.09341,0.71553 -1.8221,0.98127 -3.58501,1.51201 -3.91759,1.17943 -0.33258,-0.33258 0.13508,-8.11492 1.03924,-17.29409 1.81637,-18.43995 1.51198,-23.42577 -0.44408,-7.27415 -0.68345,5.64335 -1.72763,10.84587 -2.3204,11.56115 -0.84754,1.02271 -2.08879,0.30469 -5.8107,-3.36125 -5.49445,-5.41183 -5.16299,-5.80473 -7.01121,8.31074 -1.20242,9.18327 -1.23141,9.25 -4.01945,9.25 -1.59699,0 -3.21629,-0.72905 -3.7542,-1.69024 -0.87333,-1.56057 -1.60623,-1.49112 -9.553,0.90529 -6.94332,2.09381 -8.75159,2.33733 -9.3546,1.25982 z m 1.76212,-12.83186 c 0.004,-0.0787 0.6783,-5.51713 1.49758,-12.08549 1.18447,-9.49623 1.23404,-12.10137 0.24201,-12.7182 -0.93556,-0.58172 -1.64649,1.90487 -2.8426,9.94248 -0.87726,5.89501 -1.71805,11.1682 -1.86842,11.7182 -0.68495,2.50531 0.0366,4.40917 1.46344,3.86163 0.825,-0.31659 1.5036,-0.63996 1.50799,-0.71862 z m 70.30344,-2.64261 c 0.44629,-0.3978 -1.12871,-4.64304 -3.5,-9.43388 L 278,630.00005 l -0.67588,4.32205 c -0.37173,2.37713 -0.70923,7.0867 -0.75,10.46572 l -0.0741,6.14367 4.25,-1.03184 c 2.3375,-0.56751 4.61514,-1.35731 5.06143,-1.7551 z m -55.85374,-0.32424 4.9577,-1.28527 1.26133,-8.44544 c 1.25706,-8.4168 0.77078,-19.59027 -0.67204,-15.44183 -0.52902,1.52108 -1.86217,2.11542 -5.59951,2.49638 -4.50745,0.45946 -4.93158,0.73077 -5.23086,3.34608 -0.31274,2.73282 -0.19335,2.81939 3,2.17534 1.82913,-0.3689 4.11319,-0.89246 5.07569,-1.16346 2.0925,-0.58917 2.23946,1.26134 0.67826,8.54096 l -1.07174,4.99736 -4.67826,0.30186 c -4.27241,0.27567 -4.70571,0.54043 -4.99468,3.05186 -0.36394,3.16297 0.17048,3.26775 7.27411,1.42616 z m 39.94684,-3.92616 c 0.28988,-2.3375 0.80327,-7.2875 1.14086,-11 l 0.6138,-6.75 h -3.52058 c -1.93632,0 -3.72484,0.3375 -3.97451,0.75 -0.24966,0.4125 -0.77689,5.09956 -1.17161,10.41569 -0.78277,10.54216 -1.05485,9.982 5.19624,10.69813 0.68333,0.0783 1.41281,-1.67074 1.7158,-4.11382 z M 208.5,632.15565 c 0,-0.41882 0.28789,-2.20095 0.63976,-3.96028 0.62744,-3.13722 0.57452,-3.19255 -2.75,-2.875 -3.18864,0.30457 -3.40752,0.5661 -3.68915,4.40784 -0.29572,4.03398 -0.262,4.07857 2.75,3.6365 1.67716,-0.24616 3.04939,-0.79023 3.04939,-1.20906 z m 42,-3.89732 c 0,-2.50651 -0.28321,-2.72623 -3,-2.32749 -3.57724,0.52503 -3.79649,1.74777 -0.755,4.21062 2.75458,2.23052 3.755,1.72881 3.755,-1.88313 z m 7.69299,-7.84515 c -0.25354,-0.97297 -0.47766,-0.41903 -0.49804,1.23097 -0.0204,1.65 0.18706,2.44606 0.46099,1.76903 0.27392,-0.67703 0.29059,-2.02703 0.0371,-3 z m 142.98523,42.92791 c -1.11133,-1.22802 -4.32035,-2.25537 -9.54136,-3.05461 -7.05602,-1.08016 -8.18331,-1.02265 -10.93729,0.55792 -1.68875,0.96921 -3.40067,1.43198 -3.80426,1.02839 -0.40359,-0.40359 0.0373,-8.88773 0.97969,-18.85364 0.94242,-9.96591 1.5656,-18.26773 1.38484,-18.44849 -0.18075,-0.18076 -1.95438,3.36183 -3.94139,7.87242 -2.84127,6.44979 -3.90616,10.64052 -4.98676,19.62479 -0.75571,6.28305 -1.82311,11.57342 -2.37201,11.75639 -0.5489,0.18296 -1.81092,-1.17685 -2.80449,-3.0218 -1.6439,-3.05253 -1.69999,-4.24574 -0.62321,-13.25639 1.14715,-9.59945 1.0995,-10.19211 -1.55992,-19.40192 -1.50876,-5.225 -2.94367,-10.03208 -3.18868,-10.68241 -0.39615,-1.05146 5.44529,-4.94742 6.20933,-4.14133 0.16876,0.17806 1.18083,3.24874 2.24903,6.82374 l 1.94219,6.5 1.55267,-3.5 c 6.33732,-14.28553 6.73578,-14.78864 8.74268,-11.03872 0.89911,1.68001 2.30239,2.00268 9.78518,2.25 l 8.73554,0.28872 0.32395,6.5 c 0.17817,3.575 -0.17487,11.34969 -0.78453,17.27709 -1.69052,16.43585 0.24385,16.44299 2.32976,0.009 2.93657,-23.13702 2.39452,-21.28609 6.23363,-21.28609 3.10768,0 3.31092,0.19678 2.84037,2.75 -0.27875,1.5125 -1.16406,7.475 -1.96735,13.25 l -1.46052,10.5 2.62565,2.3167 c 1.44411,1.27418 2.95459,1.94918 3.35662,1.5 0.40204,-0.44919 1.69858,-7.99418 2.88121,-16.76665 2.13274,-15.82015 2.7442,-17.503 6.37121,-17.53474 1.2463,-0.0109 1.7498,0.77622 1.74931,2.73469 -0.002,6.17647 -5.83429,44.05696 -7.17895,46.62334 l -1.4492,2.76589 -5.18558,-4.66229 -5.18558,-4.66228 -0.0153,3.34267 c -0.0223,4.8757 -1.22267,6.34218 -3.30647,4.03961 z m -9.5987,-17.94694 c 0.0437,-1.5125 0.38828,-6.4625 0.76567,-11 l 0.68615,-8.25 h -3.64818 -3.64818 l -0.66087,7.75 c -0.36348,4.2625 -0.89493,8.95485 -1.18101,10.42745 -0.53351,2.74625 -0.31391,2.87312 6.3569,3.67272 0.71731,0.086 1.28389,-1.0221 1.32952,-2.60017 z m 64.90977,17.2386 -2.37945,-2.53281 2.71782,-22.2279 c 1.49481,-12.22534 2.7076,-22.51432 2.69509,-22.86439 -0.0313,-0.8766 5.96803,-1.68744 6.47045,-0.87451 0.22283,0.36055 9.3e-4,3.51517 -0.4931,7.01028 -0.77526,5.48473 -0.66583,6.52467 0.79926,7.59597 0.93362,0.68268 1.88073,1.05801 2.10468,0.83406 0.22395,-0.22396 0.96911,-4.49411 1.65591,-9.48925 0.6868,-4.99513 1.40519,-9.23853 1.59644,-9.42977 0.19124,-0.19124 1.58429,-0.65807 3.09566,-1.0374 2.4921,-0.62548 2.74795,-0.4368 2.74795,2.02658 v 2.71628 l 10.10975,-0.7236 10.10976,-0.72359 -0.72409,5.36572 c -0.39824,2.95115 -0.92419,5.70323 -1.16877,6.11573 -0.24458,0.4125 -2.61705,0.75 -5.27217,0.75 -4.61444,0 -4.84719,0.13428 -5.27407,3.0428 -0.4842,3.29906 -0.71412,3.26273 7.96959,1.25945 2.62611,-0.60583 2.6893,-0.0576 0.88732,7.69775 l -1.27793,5.5 -4.22719,0.30982 c -3.48326,0.25529 -4.39974,0.76367 -5.20767,2.88869 -0.53927,1.41838 -0.76425,2.7951 -0.49996,3.0594 0.26429,0.26429 3.72324,-0.25177 7.68654,-1.1468 3.96331,-0.89503 7.43323,-1.4001 7.71095,-1.12238 0.6946,0.6946 -3.04114,11.46868 -4.30255,12.40876 -1.27652,0.95135 -15.8113,5.10251 -17.86581,5.10251 -0.83541,0 -1.80457,-0.9 -2.1537,-2 -0.4056,-1.27793 -1.51303,-2 -3.06739,-2 -2.79196,0 -3.11458,-2.32961 -1.3704,-9.89565 0.98082,-4.25469 0.90789,-4.48587 -2.27445,-7.20936 -1.80827,-1.54754 -3.55224,-2.832 -3.8755,-2.85435 -0.32326,-0.0224 -1.15746,5.07087 -1.85379,11.31827 -0.69632,6.2474 -1.58637,11.87721 -1.97789,12.5107 -0.48201,0.77991 -1.4801,0.33402 -3.09129,-1.38101 z M 478.5,630.69212 c 0,-6.04123 -2.63116,-7.03767 -3.24473,-1.22881 -0.44248,4.18911 0.69555,7.13829 2.35804,6.11081 0.48768,-0.3014 0.88669,-2.4983 0.88669,-4.882 z m 130.20136,31.51052 c -1.60613,-2.17242 -2.03009,-3.80657 -1.62149,-6.25 0.43306,-2.58963 0.32111,-2.9468 -0.51524,-1.64382 -1.08056,1.68345 -14.46832,9.83533 -16.15247,9.83533 -0.50169,0 -0.91905,-1.2375 -0.92747,-2.75 -0.0108,-1.92955 -0.27258,-2.34396 -0.87762,-1.38901 -0.71199,1.12376 -2.08958,1.15399 -7.903,0.17343 -5.97645,-1.00806 -7.39315,-0.96093 -9.37239,0.31179 -1.28242,0.82465 -3.89466,1.64661 -5.80497,1.82658 l -3.47329,0.32721 -2.94225,-7.75 c -1.61824,-4.2625 -3.20526,-7.74311 -3.52671,-7.73469 -1.95732,0.0513 -3.29218,2.27778 -3.89589,6.49821 -0.7794,5.4487 -1.74868,6.19142 -4.84534,3.7128 -2.12589,-1.7016 -2.13597,-1.85522 -0.70402,-10.72632 0.79901,-4.95 1.59741,-13.78395 1.7742,-19.63099 0.1768,-5.84705 0.59962,-11.08107 0.93959,-11.63116 0.33998,-0.55009 4.11213,-1.32002 8.38257,-1.71094 5.7968,-0.53065 8.33362,-1.23754 10.01049,-2.78945 1.23533,-1.14327 2.49842,-1.82632 2.80686,-1.51787 0.5705,0.5705 -4.28875,37.54396 -5.10856,38.87044 -0.24653,0.39889 -0.0424,1.77932 0.45354,3.06762 1.34108,3.48341 1.73979,1.4809 3.4706,-17.43088 1.13335,-12.38348 1.94812,-17.18625 3.11326,-18.35138 1.25212,-1.25213 3.32802,-1.50557 10.04834,-1.22678 4.65861,0.19327 8.47012,0.0139 8.47004,-0.39861 -2e-4,-1.04875 3.66651,-0.93616 12.55225,0.38543 l 7.63408,1.13543 -0.67368,4.49242 c -1.09413,7.29621 -1.10091,7.3026 -7.00937,6.60818 l -5.28543,-0.6212 -0.56046,3.87487 c -0.30826,2.13118 -0.84649,7.37077 -1.19607,11.64353 l -0.6356,7.76866 6.92698,-4.16717 6.92697,-4.16716 1.58806,-12.94613 c 0.87343,-7.12037 1.73298,-13.06523 1.9101,-13.21082 0.17711,-0.14558 1.62384,-0.57771 3.21494,-0.96028 l 2.89291,-0.6956 -0.67964,7.50008 c -0.61776,6.81723 -0.50072,7.59583 1.28552,8.5518 1.81894,0.97347 2.01669,0.62409 2.65755,-4.69516 1.53317,-12.72566 1.79749,-13.52913 4.77751,-14.52247 1.53903,-0.51301 3.02346,-0.70752 3.29873,-0.43225 0.27528,0.27527 -0.25078,6.00347 -1.16901,12.72932 -1.39824,10.24181 -1.4491,12.36625 -0.313,13.07457 1.09035,0.6798 1.55655,-1.29435 2.37597,-10.06127 0.5607,-5.99886 1.2357,-11.0998 1.5,-11.33544 1.30638,-1.16469 5.21151,-2.80171 5.6463,-2.36692 0.27195,0.27195 -0.0627,6.67371 -0.74371,14.22614 -1.27183,14.10503 -1.28076,14.12986 -6.42204,17.85103 -2.15561,1.5602 -2.30945,1.40288 2.98591,3.05362 1.15337,0.35954 1.35816,1.53447 0.91506,5.25 -0.81337,6.82038 -1.05661,7.28679 -3.80003,7.28679 -1.75794,0 -2.58575,-0.64333 -2.89521,-2.25 -0.37157,-1.92915 -0.45279,-1.85784 -0.56955,0.5 -0.12227,2.46921 -0.50632,2.75 -3.76118,2.75 -3.55935,0 -3.61297,-0.0589 -2.96066,-3.25 2.11141,-10.32905 2.01561,-11.21043 -1.54395,-14.2056 l -3.35149,-2.8201 -0.69409,3.88785 c -0.38174,2.13832 -1.21997,7.82535 -1.86273,12.63785 -0.64276,4.8125 -1.48755,8.75 -1.87731,8.75 -0.38976,0 -1.68729,-1.32368 -2.88341,-2.94151 z m -18.71735,-24.62087 c 0.82515,-14.30621 0.13891,-18.02922 -0.86901,-4.71458 -0.36543,4.82733 -0.9294,10.68946 -1.25325,13.02696 -0.35229,2.54267 -0.18982,4.25 0.40443,4.25 0.56652,0 1.30456,-5.39725 1.71783,-12.56238 z m -8.04301,2.81238 c 0.3364,-4.2625 0.7965,-9.2125 1.02245,-11 0.40084,-3.17112 0.31811,-3.25 -3.40883,-3.25 h -3.81964 l -0.66087,7.75 c -0.36348,4.2625 -0.89493,8.95485 -1.18101,10.42745 -0.53463,2.75202 -0.43593,2.80982 6.27158,3.67272 0.75443,0.097 1.38012,-2.58002 1.77632,-7.60017 z m -20.83254,-7.64364 c 0.0596,-0.0585 0.36886,-1.79386 0.68713,-3.85636 0.57377,-3.71822 0.54954,-3.75 -2.85846,-3.75 -2.24969,0 -3.43713,0.47503 -3.43713,1.375 0,0.75625 -0.28125,2.78125 -0.625,4.5 -0.61847,3.09233 -0.58972,3.11827 2.75,2.48136 1.85625,-0.354 3.42381,-0.6915 3.48346,-0.75 z M 425.5,658.34415 c 0,-3.19 0.42071,-6.2275 0.93492,-6.75 0.5142,-0.5225 1.73519,-8.825 2.71331,-18.45 1.57105,-15.45966 2.0397,-17.76233 4.01963,-19.75 4.89104,-4.91017 4.90667,-4.71037 1.85746,23.75 -0.67765,6.325 -1.1049,11.65568 -0.94943,11.84595 0.15547,0.19027 2.66061,-0.35112 5.56697,-1.20309 2.90636,-0.85198 5.4853,-1.34804 5.73098,-1.10235 0.71099,0.71099 -3.10565,12.48155 -4.29663,13.25084 -1.67904,1.08455 -11.87642,4.17751 -13.82721,4.19392 -1.46721,0.0123 -1.75,-0.92252 -1.75,-5.78527 z m -258.14507,1.71286 -2.62231,-1.91022 9.04551,-23.00132 c 7.78923,-19.80676 9.33554,-22.99919 11.1337,-22.98601 5.5958,0.041 5.50099,0.58862 -4.41314,25.48797 -5.1754,12.99803 -9.65993,23.78736 -9.96563,23.97629 -0.3057,0.18893 -1.73586,-0.51609 -3.17813,-1.56671 z m 349.16584,-1.66286 c 0.0114,-2.0625 0.67311,-10.05 1.4704,-17.75 1.80331,-17.41577 1.80401,-16.5 -0.0126,-16.5 -2.35584,0 -3.20173,3.31134 -4.9813,19.5 -0.90689,8.25 -1.95228,15.29048 -2.32308,15.64552 -0.3708,0.35504 -1.68668,0.25704 -2.92418,-0.21778 -2.74191,-1.05203 -2.80937,-2.81495 -0.74201,-19.38973 0.8206,-6.5791 1.492,-12.09331 1.492,-12.25381 0,-0.1605 -1.45194,-0.1776 -3.22653,-0.038 -3.20075,0.25178 -3.23215,0.20988 -3.93091,-5.24619 -0.38741,-3.025 -0.39797,-5.79737 -0.0235,-6.16083 0.78126,-0.75819 21.55847,-5.83918 23.87762,-5.83918 1.03292,0 1.36886,0.64137 1.02489,1.9567 -0.46482,1.77747 0.097,1.98357 6.13337,2.25 l 6.64506,0.2933 -0.10765,9.5 c -0.33787,29.81825 -0.66107,37 -1.66509,37 -0.58489,0 -3.88915,-0.49208 -7.34281,-1.09351 -5.33871,-0.92969 -6.62017,-0.85479 -8.55441,0.5 -3.63149,2.5436 -4.83232,2.00514 -4.80927,-2.15649 z m 15.05038,-13.5 c 0.0391,-1.7875 0.38864,-6.7375 0.77668,-11 l 0.70553,-7.75 h -3.66019 -3.66018 l -0.64748,6.75 c -0.35612,3.7125 -0.89207,8.40181 -1.191,10.42069 -0.48122,3.25002 -0.27712,3.72147 1.78099,4.11381 5.39609,1.02869 5.82165,0.84575 5.89565,-2.5345 z M 325.5,659.35074 c 0,-0.98637 0.9,-10.52934 2,-21.20659 1.1,-10.67725 2,-19.75439 2,-20.17141 0,-1.17829 3.85264,-2.95647 7.3421,-3.38874 1.73685,-0.21516 7.30946,-1.38808 12.3836,-2.60649 5.07413,-1.21841 9.45851,-1.98249 9.74305,-1.69794 0.28455,0.28455 -0.40016,3.23428 -1.52157,6.55497 l -2.03893,6.0376 -6.35357,1.71984 c -5.30413,1.43576 -6.4305,2.12222 -6.81928,4.15602 -0.43963,2.29974 -0.26324,2.40217 3.14945,1.82885 1.98833,-0.33404 4.46107,-0.84191 5.49498,-1.12861 1.71693,-0.47611 1.81788,-0.10816 1.16494,4.24594 -1.24109,8.27614 -1.94478,9.29326 -6.66956,9.64015 -4.79306,0.35191 -5.25293,1.1536 -6.37799,11.11859 -0.62635,5.54775 -0.77405,5.7949 -3.28697,5.5 -1.81889,-0.21345 -2.84413,-1.08055 -3.32102,-2.80877 -0.37943,-1.375 -0.73473,-1.76425 -0.78955,-0.86501 -0.0548,0.89924 -1.20885,2.36174 -2.5645,3.25 -3.12207,2.04566 -3.53518,2.02481 -3.53518,-0.1784 z m 7.70726,-12.44493 c -0.23919,-1.24391 -0.44398,-0.46166 -0.45508,1.73834 -0.0111,2.2 0.18461,3.21775 0.4349,2.26166 0.25029,-0.95609 0.25937,-2.75609 0.0202,-4 z m 0.99847,-9.01166 c -0.23835,-1.2375 -0.43337,-0.225 -0.43337,2.25 0,2.475 0.19502,3.4875 0.43337,2.25 0.23836,-1.2375 0.23836,-3.2625 0,-4.5 z m 1.00153,-7.98834 c -0.23919,-1.24391 -0.44398,-0.46166 -0.45508,1.73834 -0.0111,2.2 0.18461,3.21775 0.4349,2.26166 0.25029,-0.95609 0.25937,-2.75609 0.0202,-4 z m 111.95008,28.48834 c 0.17102,-1.5125 0.99303,-9.725 1.82669,-18.25 2.35434,-24.07558 2.24613,-23.55602 5.18513,-24.89512 1.42411,-0.64887 2.83039,-0.93866 3.12506,-0.64399 0.29468,0.29467 -0.44328,10.03078 -1.6399,21.63579 -1.98116,19.21372 -2.37585,21.26705 -4.41499,22.9684 -3.15577,2.63301 -4.44282,2.37602 -4.08199,-0.81508 z M 7.5,657.16709 c -1.154293,-0.72831 -1.576257,-3.55712 -1.830874,-12.27403 -0.286807,-9.819 -0.08587,-11.63016 1.508757,-13.59944 2.83975,-3.50694 5.02096,-1.91711 6.385106,4.65395 1.229269,5.92135 0.603227,17.08323 -1.140946,20.34224 -1.094061,2.04428 -2.636707,2.31923 -4.922043,0.87728 z m 665.83186,-1.77294 c -1.32354,-3.2537 -1.65931,-16.21071 -0.55466,-21.40345 0.96985,-4.55907 3.55534,-5.77158 5.96404,-2.79695 1.41209,1.74385 1.75876,4.11194 1.75876,12.01413 0,5.41319 -0.52223,10.98834 -1.16052,12.38922 -1.54076,3.3816 -4.59142,3.27855 -6.00762,-0.20295 z M 6.475249,622.57905 c -1.29659,-3.41029 -1.251602,-21.05001 0.05993,-23.50064 1.397066,-2.61044 4.612115,-2.44506 6.138081,0.31574 1.654644,2.99361 1.654644,20.50639 0,23.5 -1.69431,3.06537 -4.976198,2.89853 -6.198016,-0.3151 z m 666.878941,0.3151 c -1.63685,-3.02825 -1.65946,-20.55925 -0.0303,-23.5 1.52946,-2.76081 4.74391,-2.92608 6.14093,-0.31574 0.56935,1.06384 1.03518,6.49342 1.03518,12.06574 0,5.57232 -0.46583,11.0019 -1.03518,12.06574 -1.39759,2.61142 -4.61839,2.44499 -6.11063,-0.31574 z M 6.474384,590.09629 c -1.396833,-2.61001 -1.36921,-21.34588 0.03534,-23.97031 1.419361,-2.6521 4.626563,-2.51256 6.163542,0.26817 1.654644,2.99361 1.654644,20.50639 0,23.5 -1.551995,2.80789 -4.748537,2.91213 -6.198882,0.20214 z m 666.852346,-0.20214 c -0.74634,-1.3503 -1.24363,-6.04875 -1.24363,-11.75 0,-10.19267 1.20119,-14 4.4169,-14 1.0613,0 2.41768,0.91192 3.01417,2.02648 1.3997,2.61537 1.39045,21.34896 -0.0118,23.96915 -1.42993,2.67185 -4.63347,2.54443 -6.17561,-0.24563 z M 315.19,582.10146 c -6.49551,-0.40919 -11.96755,-0.90448 -12.1601,-1.10065 -0.19255,-0.19616 0.72318,-5.95543 2.03496,-12.79836 1.31179,-6.84294 2.28383,-12.52071 2.1601,-12.61726 -0.12373,-0.0966 -17.5302,3.79696 -38.68106,8.65227 -21.15085,4.8553 -38.68316,8.60076 -38.96069,8.32324 -1.1195,-1.11951 -9.97511,-27.78244 -9.48878,-28.56934 0.28798,-0.46597 1.12197,-0.84721 1.8533,-0.84721 0.75327,0 1.61399,-1.62561 1.98551,-3.75 1.42457,-8.14568 8.81241,-47.4465 11.12095,-59.15973 3.39794,-17.24069 3.41432,-17.09027 -1.86186,-17.09027 h -4.30766 l -8.32718,31.75 c -4.57994,17.4625 -9.85597,37.6 -11.72451,44.75 -1.86854,7.15 -4.03152,13.48035 -4.80662,14.06744 -2.08262,1.57744 -34.44152,10.85073 -35.20371,10.08854 -0.35874,-0.35874 5.69053,-25.74059 13.44282,-56.40411 l 14.09507,-55.75187 -3.2385,3.81951 c -3.71828,4.38537 2.30321,3.33499 -58.62204,10.22593 -17.875,2.02174 -32.79667,3.9636 -33.15927,4.31523 -0.3626,0.35163 -1.55033,3.56433 -2.63941,7.13933 l -1.980145,6.5 3.139415,0.29345 c 1.72667,0.16139 18.41654,-0.85147 37.0886,-2.25082 18.67205,-1.39934 34.25349,-2.20639 34.62543,-1.79344 0.37194,0.41294 -3.2052,8.17581 -7.94919,17.25081 l -8.62543,16.5 -28,1.19652 c -15.4,0.65809 -30.694884,1.33309 -33.988631,1.5 l -5.988631,0.30348 -4.288369,14.5 c -9.715492,32.8504 -8.997868,30.99801 -12.016514,31.01798 -6.593249,0.0436 -31.21622,-3.47126 -31.196804,-4.45327 0.01158,-0.58559 5.342123,-19.60388 11.845656,-42.26286 L 63.191312,474.24784 60.111823,473.946 c -3.053394,-0.29929 -3.120162,-0.43248 -7.879501,-15.718 -2.640008,-8.47889 -4.447283,-15.73401 -4.016168,-16.1225 C 48.647269,441.71702 54.4,440.89547 61,440.27984 c 6.6,-0.61562 23.925,-2.24105 38.5,-3.61205 14.575,-1.371 45.85,-4.29201 69.5,-6.49112 23.65,-2.19911 44.4625,-4.20277 46.25,-4.45258 2.10966,-0.29483 3.23472,-0.0377 3.20646,0.73293 -0.0239,0.65292 -3.14259,4.55598 -6.93033,8.67346 -3.78774,4.11748 -6.77447,7.59866 -6.63718,7.73595 0.13729,0.1373 6.85369,-0.9463 14.92534,-2.40799 8.07164,-1.4617 14.88577,-2.44757 15.14251,-2.19083 0.25674,0.25674 -0.64101,4.49333 -1.995,9.41464 -1.35399,4.92131 -2.4618,9.33796 -2.4618,9.81477 0,0.47681 4.33023,-4.47003 9.62273,-10.99297 8.1065,-9.99116 10.11549,-11.91253 12.75,-12.19391 4.84887,-0.51788 112.01773,5.99555 112.97947,6.86658 0.46871,0.42451 -4.44159,7.22834 -10.91179,15.11963 -6.4702,7.89129 -11.87795,14.49706 -12.01723,14.67949 -0.13927,0.18243 -15.47896,-0.79119 -34.0882,-2.1636 -18.60924,-1.37241 -34.10288,-2.19667 -34.43031,-1.83169 -0.95378,1.06315 -14.11626,66.28535 -13.50116,66.90044 0.53627,0.53627 51.35065,-10.15767 52.17281,-10.97982 0.22156,-0.22157 0.68878,-1.83254 1.03826,-3.57994 l 0.63542,-3.17708 h -17.50837 c -16.45906,0 -17.53863,-0.11573 -18.01336,-1.93108 -0.27774,-1.06209 -0.57737,-7.54662 -0.66584,-14.41007 l -0.16086,-12.47899 7.29921,-0.57105 c 4.01457,-0.31408 16.74922,-0.81462 28.29922,-1.11232 11.55,-0.29769 25.12694,-0.80704 30.17098,-1.13187 l 9.17098,-0.59061 2.30254,-4.34032 c 1.81926,-3.42935 2.92278,-4.40258 5.25773,-4.637 2.92001,-0.29316 3.03364,-0.54032 9.54387,-20.75925 7.72018,-23.97672 4.41546,-21.36769 28.48258,-22.48656 l 15.52711,-0.72184 -1.34422,4.33548 c -0.73931,2.38451 -4.18051,12.77183 -7.6471,23.08293 -3.4666,10.3111 -5.9962,19.05416 -5.62134,19.42902 0.9305,0.93049 54.00853,5.25285 54.74358,4.45798 0.32269,-0.34895 4.73757,-13.45945 9.81084,-29.13445 5.07326,-15.675 9.55635,-28.8371 9.9624,-29.24911 0.40605,-0.41202 7.57868,2.01641 15.93916,5.3965 12.1065,4.89457 15.20089,6.53215 15.20089,8.04442 0,1.57911 0.54721,1.81384 3.25,1.39415 1.7875,-0.27757 6.175,-0.74377 9.75,-1.036 3.575,-0.29223 13.475,-1.20679 22,-2.03237 8.525,-0.82557 34.85,-3.29903 58.5,-5.49657 23.65,-2.19754 44.4625,-4.19797 46.25,-4.4454 3.78112,-0.5234 4.1931,0.79159 1.23464,3.94073 l -2.01537,2.14526 6.04011,-0.97273 c 3.32205,-0.535 6.21203,-0.79637 6.42217,-0.58081 0.3974,0.40766 -17.92646,75.74063 -18.5674,76.3342 -0.82468,0.76375 -35.94807,10.80715 -36.3586,10.39661 -0.24537,-0.24537 2.488,-12.96199 6.07416,-28.25917 3.58616,-15.29718 6.3205,-28.01283 6.07632,-28.25701 -0.67263,-0.67264 -43.99567,4.60144 -44.71851,5.44395 -0.34605,0.40334 -1.32249,3.20835 -2.16987,6.23335 -3.40752,12.16433 -25.95153,87.51722 -26.28228,87.84796 -0.59481,0.59481 -31.32769,-3.13247 -32.67031,-3.96226 -0.95041,-0.58738 1.62507,-10.89928 10.63478,-42.5804 6.5389,-22.99291 12.05031,-42.27522 12.24758,-42.84956 0.23216,-0.67596 -6.24102,-0.32326 -18.35335,1 l -18.71202,2.04426 -4.72032,14.5 c -2.59618,7.975 -8.38248,25.975 -12.85845,40 -4.47597,14.025 -8.69859,27.075 -9.38361,29 l -1.24549,3.5 -17.76795,0.86081 c -9.77237,0.47344 -18.02142,0.60733 -18.33123,0.29753 -0.42764,-0.42765 12.27677,-41.24507 15.24534,-48.98104 0.42392,-1.10473 -2.59797,-1.49583 -15.77298,-2.04137 -8.96355,-0.37117 -21.75059,-0.9565 -28.41565,-1.30075 l -12.1183,-0.6259 -10.71496,32.14536 c -6.06155,18.18492 -11.22166,32.11795 -11.8817,32.08224 -0.64171,-0.0347 -6.34175,-3.35074 -12.66675,-7.36895 -7.28484,-4.62799 -11.72961,-6.8957 -12.12643,-6.18688 -0.34453,0.61542 -1.38192,5.39395 -2.30531,10.61895 -0.92338,5.225 -1.90932,10.2875 -2.19096,11.25 -0.57181,1.95415 -1.44352,1.98258 -21.6873,0.70731 z m 32.99311,-59.14481 c -0.31922,-0.79773 -0.55618,-0.56078 -0.60416,0.60417 -0.0434,1.05416 0.19293,1.64479 0.52522,1.3125 0.33229,-0.33229 0.36781,-1.1948 0.0789,-1.91667 z m 2.23129,-6.8125 c 0.0489,-1.33333 -0.0527,-1.33333 -0.9144,0 -0.53316,0.825 -0.94464,2.4 -0.9144,3.5 l 0.055,2 0.85943,-2 c 0.47269,-1.1 0.88417,-2.675 0.9144,-3.5 z M 6.535184,557.20989 c -1.311537,-2.45063 -1.356525,-20.09035 -0.05993,-23.50064 1.221818,-3.21363 4.503706,-3.38047 6.198016,-0.3151 1.654644,2.99361 1.654644,20.50639 0,23.5 -1.525966,2.7608 -4.741015,2.92618 -6.138081,0.31574 z m 585.334156,0.18426 c 0.27726,-0.9625 1.93307,-8.725 3.67957,-17.25 1.74651,-8.525 3.46676,-15.81928 3.82278,-16.20951 0.80861,-0.88629 32.32347,1.21068 33.45805,2.22627 0.45636,0.40849 -0.85264,7.70653 -2.90888,16.21785 l -3.73863,15.47512 -11.99811,0.64514 c -20.02206,1.07657 -22.9021,0.93397 -22.31478,-1.10487 z m 81.45739,-0.5 c -0.74634,-1.3503 -1.24363,-6.04875 -1.24363,-11.75 0,-5.70125 0.49729,-10.3997 1.24363,-11.75 1.69431,-3.06537 4.9762,-2.89853 6.19802,0.3151 1.29659,3.41029 1.2516,21.05001 -0.0599,23.50064 -1.39707,2.61044 -4.61212,2.44506 -6.13809,-0.31574 z M 7.056704,524.92164 C 5.907173,523.28046 5.5,520.15875 5.5,512.98674 c 0,-11.02964 1.012174,-14.84259 3.940065,-14.84259 3.212574,0 4.417104,3.77367 4.485425,14.05239 0.05003,7.5263 -0.311407,10.12455 -1.704051,12.25 -2.14773,3.27785 -3.137824,3.36893 -5.164735,0.4751 z m 667.728346,1.41984 c -3.20854,-2.03887 -4.07653,-20.9814 -1.20709,-26.34299 1.45838,-2.72502 4.79199,-2.32658 5.94679,0.71076 1.64049,4.31482 1.22458,21.63392 -0.58145,24.21239 -1.68149,2.40066 -2.28855,2.60794 -4.15825,1.41984 z M 6.501612,491.64839 C 5.950725,490.19945 5.5,484.5931 5.5,479.18983 c 0,-8.37052 0.295923,-10.17342 2,-12.1849 l 2,-2.36078 1.921947,2.26439 c 4.589624,5.40739 3.296688,26.34948 -1.670335,27.05495 -1.661708,0.23601 -2.509742,-0.36807 -3.25,-2.3151 z m 667.136528,0.74576 c -1.7173,-3.22374 -2.38367,-14.75029 -1.18622,-20.51841 1.33504,-6.43084 3.54251,-8.07416 6.28932,-4.68199 1.41161,1.74325 1.75876,4.11111 1.75876,11.99608 0,5.40327 -0.43886,10.97842 -0.97525,12.38922 -1.13579,2.98736 -4.48258,3.45078 -5.88661,0.8151 z M 6.535184,459.20989 c -1.345037,-2.51322 -1.345037,-21.61826 0,-24.13148 1.397066,-2.61044 4.612115,-2.44506 6.138081,0.31574 1.654644,2.99361 1.654644,20.50639 0,23.5 -1.525966,2.7608 -4.741015,2.92618 -6.138081,0.31574 z m 666.797146,-0.31574 c -1.6806,-3.05429 -1.70701,-20.54683 -0.0355,-23.5 1.56268,-2.76087 4.77146,-2.92513 6.16797,-0.31574 0.56937,1.06384 1.0352,6.49342 1.0352,12.06574 0,5.57232 -0.46583,11.0019 -1.03518,12.06574 -1.39718,2.61064 -4.6134,2.44505 -6.13249,-0.31574 z M 6.535184,426.20989 c -1.345037,-2.51322 -1.345037,-21.61826 0,-24.13148 1.397066,-2.61044 4.612115,-2.44506 6.138081,0.31574 1.654644,2.99361 1.654644,20.50639 0,23.5 -1.525966,2.7608 -4.741015,2.92618 -6.138081,0.31574 z m 666.791546,-0.31574 c -0.74634,-1.3503 -1.24363,-6.04875 -1.24363,-11.75 0,-5.70125 0.49729,-10.3997 1.24363,-11.75 1.69431,-3.06537 4.9762,-2.89853 6.19802,0.3151 1.29659,3.41029 1.2516,21.05001 -0.0599,23.50064 -1.39707,2.61044 -4.61212,2.44506 -6.13809,-0.31574 z M 434,414.14263 c -11.39113,-1.71325 -20.36648,-5.33751 -22.93538,-9.26134 -0.80555,-1.23043 -1.97787,-6.46138 -2.60516,-11.62433 l -1.14052,-9.38719 -7.28694,-9.11281 c -4.00781,-5.01205 -8.50983,-10.23781 -10.00448,-11.61281 -4.96599,-4.56844 -6.94282,-11.00044 -5.12928,-16.6891 0.97372,-3.05437 -1.04387,-3.90192 -13.46173,-5.65497 -6.39325,-0.90255 -13.40666,-2.67095 -18.1031,-4.56463 -8.93153,-3.60135 -12.96891,-3.83823 -18.97421,-1.11326 -2.93832,1.3333 -6.55936,1.98519 -11.1092,2 -6.2493,0.0203 -6.75,0.18265 -6.75,2.18826 0,1.19146 -2.4147,7.6047 -5.366,14.25164 -6.67713,15.03829 -7.0334,16.68987 -5.15154,23.88085 0.83465,3.18933 1.51754,7.80183 1.51754,10.25 0,3.87864 -0.52798,4.97919 -4.10453,8.55574 -4.89114,4.89114 -17.42043,10.8995 -22.70087,10.88609 -4.54695,-0.0115 -13.19152,-4.77318 -16.11228,-8.87501 -2.44651,-3.43581 -3.56521,-8.08399 -2.72657,-11.32882 0.32507,-1.25773 2.16285,-4.039 4.08396,-6.18059 2.08159,-2.32048 4.37081,-6.56307 5.66559,-10.5 1.19496,-3.63341 3.18493,-8.6312 4.42215,-11.1062 1.23723,-2.475 2.93772,-6.81968 3.77887,-9.65485 1.50041,-5.05723 1.48831,-5.16587 -0.63848,-5.73635 -3.99676,-1.07207 -14.10788,-0.5936 -20.66784,0.97802 -8.7746,2.10221 -18.27,2.08181 -25.41228,-0.0546 -4.85953,-1.45359 -7.82415,-1.64458 -16.64929,-1.0726 -14.3556,0.93043 -14.81418,0.66123 -25.09833,-14.73329 -4.49223,-6.72448 -9.89537,-14.20377 -12.00698,-16.62063 -5.7066,-6.53154 -6.51828,-10.30443 -4.49192,-20.87955 0.91964,-4.79938 1.66909,-9.986 1.66544,-11.52581 -0.0108,-4.54148 2.67649,-8.50595 13.32553,-19.65896 17.35903,-18.18057 22.91573,-21.45182 41.66783,-24.53006 4.675,-0.76742 12.775,-2.3155 18,-3.44018 15.86016,-3.41389 27.69074,-2.48026 43.41553,3.42622 4.96596,1.86528 9.17891,3.24154 9.36211,3.05834 0.66393,-0.66393 -6.1839,-17.17537 -9.072,-21.87433 -3.12883,-5.09064 -7.70564,-18.1856 -7.70564,-22.04702 0,-1.2592 -1.85304,-6.52956 -4.11787,-11.7119 -2.26483,-5.18235 -7.20406,-17.52245 -10.97605,-27.42245 -4.00188,-10.50334 -7.7139,-18.70183 -8.91283,-19.68515 -1.13006,-0.92684 -4.53652,-2.24058 -7.5699,-2.91942 -4.4328,-0.99202 -6.97966,-2.48376 -12.97667,-7.60069 -4.10378,-3.50153 -9.12916,-8.6003 -11.1675,-11.33058 -3.57249,-4.78521 -3.88463,-4.96416 -8.65911,-4.96416 -3.90628,0 -7.47546,-1.17152 -16.8889,-5.5435 C 181.78451,93.175533 174.14081,91.627607 156,93.833362 c -4.02307,0.489169 -9.32633,0.465199 -12.47018,-0.05636 -4.6393,-0.769657 -6.46827,-0.561394 -12.04128,1.371128 -5.31384,1.842654 -7.6535,2.143394 -12.22825,1.571813 -6.38236,-0.797423 -10.76808,-3.613096 -10.74498,-6.898368 0.0253,-3.596237 1.19876,-4.459423 8.50043,-6.252805 3.84134,-0.94348 9.45926,-2.999023 12.48426,-4.567872 3.025,-1.568849 6.21776,-2.853418 7.09501,-2.854598 2.24814,-0.003 4.36427,-2.815266 5.73247,-7.618165 2.05775,-7.223543 1.51499,-9.704398 -3.89174,-17.788123 -3.96849,-5.933382 -4.99626,-8.277525 -4.75,-10.833777 0.30726,-3.189457 0.41968,-3.260701 5.04961,-3.200156 5.43547,0.07108 7.95719,1.946304 12.83103,9.541525 1.66543,2.595347 3.69222,4.973676 4.50398,5.285176 2.05393,0.788166 0.41091,-2.142549 -2.97854,-5.312939 C 151.30826,44.551548 150.5,42.758409 150.5,40.469839 c 0,-3.220097 0.12857,-3.325686 4.04966,-3.325686 2.22731,0 5.26481,0.636606 6.75,1.414681 3.84748,2.015655 8.70378,7.420989 10.85779,12.085319 1.67887,3.63546 2.25583,4.045568 6.33082,4.5 3.71696,0.414506 4.82798,1.054726 6.49767,3.744249 2.37736,3.829452 4.1288,3.724391 11.0464,-0.662624 2.50132,-1.586291 8.24231,-3.884366 12.75776,-5.106834 6.82888,-1.848785 9.9079,-2.13717 18.3042,-1.714398 12.00843,0.604651 16.66768,2.367152 24.39113,9.22667 7.31811,6.499514 14.02423,9.490885 21.30441,9.503168 6.96023,0.01174 11.03458,1.906491 18.85139,8.766694 3.80925,3.343077 7.18157,5.33873 10.3844,6.145211 9.45822,2.381607 16.60512,7.786296 18.08307,13.674935 0.53445,2.129426 1.17037,2.422406 5.24971,2.418636 l 4.64159,-0.004 3.81191,-7.425417 c 4.73715,-9.22773 10.65104,-14.883582 17.77462,-16.999057 10.84724,-3.221282 26.32691,-1.147672 33.09811,4.433722 3.87579,3.194752 7.99353,11.083466 9.78675,18.749336 1.39686,5.971456 2.33221,6.332706 8.52861,3.293886 2.2,-1.07892 5.1396,-2.18917 6.53244,-2.46723 1.52341,-0.30412 3.78029,-2.275886 5.66426,-4.948706 6.16098,-8.740642 15.77677,-11.991537 28.4157,-9.606742 6.65635,1.255962 7.08126,1.218868 9.67486,-0.844588 4.52819,-3.602608 9.29889,-5.264312 18.35825,-6.39444 9.2102,-1.148944 12.00534,-0.749007 21.35449,3.05546 4.9646,2.020253 22.03458,4.961108 23.02832,3.967371 1.21699,-1.21699 -1.05563,-3.885118 -6.65432,-7.812373 -5.39726,-3.785964 -5.95533,-4.507716 -5.67968,-7.345567 L 504,67.644443 l 6.7811,0.221311 c 6.39593,0.208741 7.05977,0.461347 11.68705,4.447187 2.69827,2.324232 5.70935,6.049642 6.69129,8.278689 1.77619,4.031995 3.03626,5.508286 4.72648,5.5375 1.3268,0.02293 -0.14073,-8.796546 -1.87593,-11.273889 -0.8305,-1.185696 -1.50999,-3.630683 -1.50999,-5.433304 0,-3.138017 0.16448,-3.277494 3.86514,-3.277494 7.73078,0 12.57649,6.921024 14.192,20.2701 0.98041,8.101236 4.30072,18.502667 6.38073,19.988737 0.58417,0.41736 2.18713,1.0403 3.56213,1.38431 1.375,0.34401 3.30403,1.32473 4.28672,2.17938 0.9827,0.85465 4.32726,2.0612 7.43235,2.68123 6.49268,1.29644 8.16512,3.07987 6.72592,7.17222 -1.57867,4.48894 -4.71013,5.50479 -15.28175,4.9574 -6.76622,-0.35034 -10.48296,-0.0744 -13.5,1.00231 -4.76315,1.69983 -9.82895,1.23173 -18.33286,-1.69405 -5.14882,-1.77145 -6.07943,-1.81139 -11.71182,-0.50262 -3.36521,0.78196 -11.01134,3.89818 -16.99139,6.92492 -8.5295,4.31713 -12.30114,5.65527 -17.5,6.20884 -6.11645,0.65128 -7.36837,1.23438 -16.24512,7.56644 -5.28987,3.77343 -10.36649,6.86078 -11.28138,6.86078 -2.32951,0 -2.77377,1.80964 -1.72082,7.00955 1.62572,8.02855 5.04094,24.27242 7.14638,33.99045 1.13201,5.225 2.98761,14 4.12356,19.5 1.13595,5.5 2.41855,11.575 2.85021,13.5 0.43166,1.925 1.72606,8 2.87644,13.5 1.15037,5.5 3.01994,14.275 4.1546,19.5 1.13466,5.225 2.46074,11.525 2.94684,14 1.23293,6.27745 1.97645,7.90519 4.13977,9.06296 1.83028,0.97954 1.88235,-0.24797 1.88235,-44.37556 v -45.38296 l 5.88724,-5.61547 5.88723,-5.61548 11.83124,0.51507 c 6.50719,0.28328 11.94814,0.63196 12.09102,0.77483 0.14287,0.14288 0.36329,17.33206 0.48982,38.19819 0.12652,20.86613 0.38754,47.05092 0.58003,58.18842 l 0.34999,20.25 h 2.91611 2.91611 L 527.22439,246.47009 527,194.79574 l 6.29672,-5.35605 6.29671,-5.35606 12.16005,0.28041 12.16006,0.2804 0.82902,3.99746 c 0.45596,2.1986 1.15484,22.8986 1.55306,46 l 0.72405,42.00254 5.80267,-18 c 3.19147,-9.9 6.19881,-19.125 6.68297,-20.5 0.48417,-1.375 4.09558,-12.625 8.02537,-25 15.71212,-49.47787 26.94409,-83.16519 29.10197,-87.28365 0.78565,-1.49946 5.87285,-6.3443 11.3049,-10.76629 8.86224,-7.21438 10.19407,-7.97468 12.96945,-7.40389 5.62506,1.15686 15.28456,4.71257 17.65057,6.49726 2.48514,1.87454 2.47598,1.98194 -1.10534,12.95657 -0.4487,1.375 -1.80143,5.875 -3.00607,10 -1.20464,4.125 -2.99191,9.975 -3.97172,13 -1.59077,4.91123 -6.01947,18.93145 -15.1622,48 -1.64338,5.225 -3.81536,11.975 -4.82662,15 -1.01126,3.025 -3.71335,11.575 -6.00465,19 -2.2913,7.425 -4.98105,15.975 -5.97723,19 -0.99617,3.025 -2.70818,8.425 -3.80448,12 -1.09629,3.575 -3.20824,10.44926 -4.69322,15.27613 -2.8209,9.16922 -2.75611,12.23939 0.23903,11.32745 0.96521,-0.29388 8.72993,-1.00569 17.25493,-1.5818 8.525,-0.57611 16.90697,-1.27667 18.6266,-1.55679 3.8429,-0.626 7.87805,0.80178 8.75978,3.09951 1.00046,2.60717 2.5786,19.3632 1.97245,20.94279 -0.85651,2.23202 -7.40914,3.16822 -59.85883,8.55233 -5.5,0.56459 -13.825,1.44497 -18.5,1.9564 -4.675,0.51144 -13.675,1.42565 -20,2.03159 -12.11166,1.16032 -27.36351,2.98256 -27.68917,3.30823 -0.49581,0.49581 10.43421,15.66283 14.25433,19.77997 5.094,5.49007 6.24946,9.94883 4.60719,17.77841 -2.0368,9.71049 -13.37564,25.68884 -21.17235,29.83544 -4.33335,2.30464 -4.99815,2.36725 -17.95108,1.69043 -10.96117,-0.57274 -15.03356,-1.23849 -22,-3.59654 -5.5956,-1.89403 -11.65807,-3.10992 -17.54892,-3.51962 -10.56132,-0.73453 -14.64065,-2.00332 -23.67483,-7.36356 -3.67116,-2.1782 -6.92198,-3.96037 -7.22405,-3.96037 -0.8183,0 4.97982,9.57116 8.94026,14.75798 4.16866,5.45953 4.68842,11.5161 1.43942,16.77309 -1.75836,2.84508 -8.37607,6.75018 -10.75104,6.34417 C 439.32839,414.95108 436.75,414.55652 434,414.14292 Z M 412,263.61612 c 7.11666,-2.56243 12.4871,-2.72178 19.98561,-0.59302 3.84209,1.09073 7.16649,1.80228 7.38756,1.58121 0.22106,-0.22106 -0.99516,-7.27753 -2.70272,-15.68105 -4.89194,-24.07492 -10.93434,-52.99669 -11.75266,-56.25374 l -0.74737,-2.97464 -1.86182,4.38386 c -1.02401,2.41112 -2.25639,7.16993 -2.73863,10.57514 -0.48223,3.40521 -1.78192,7.96548 -2.88819,10.13395 -1.10627,2.16846 -2.69759,6.57039 -3.53627,9.78205 -0.83868,3.21166 -3.12852,8.4375 -5.08853,11.61296 -2.5835,4.1856 -4.11282,8.44256 -5.56032,15.47752 -1.09816,5.33717 -1.99666,10.29952 -1.99666,11.02745 0,1.12989 1.83404,1.76831 6.5,2.26262 0.55,0.0583 2.8,-0.54217 5,-1.33431 z M 7.66068,394.30483 C 5.736418,392.38057 5.5,391.05709 5.5,382.20925 c 0,-5.4642 0.438862,-11.0892 0.975249,-12.5 1.1356,-2.98686 4.488089,-3.45203 5.874432,-0.8151 2.848087,5.41727 2.334799,21.56566 -0.80888,25.44794 l -1.719441,2.12342 z m 666.12324,-0.85011 c -2.15439,-3.28802 -2.47957,-20.40163 -0.45719,-24.06057 1.69431,-3.06537 4.9762,-2.89853 6.19802,0.3151 1.64049,4.31482 1.22458,21.63392 -0.58145,24.21239 -2.02589,2.89236 -3.01706,2.80266 -5.15938,-0.46692 z M 7.056704,360.92164 c -2.21165,-3.15757 -2.21165,-21.39741 0,-24.55498 1.685901,-2.40697 2.286714,-2.6089 4.181589,-1.40542 3.392393,2.15459 3.85888,23.44288 0.585431,26.71633 -1.998551,1.99855 -2.94256,1.84885 -4.76702,-0.75593 z m 666.543786,-0.0275 c -3.6656,-9.703 -1.787,-26.75 2.94789,-26.75 0.49803,0 1.61723,1.08622 2.48711,2.41382 2.2129,3.37732 2.19378,20.82422 -0.0265,24.21286 -1.95933,2.99032 -4.30515,3.04381 -5.40846,0.12332 z M 6.475249,327.57904 c -1.29659,-3.41029 -1.251602,-21.05001 0.05993,-23.50064 1.397066,-2.61044 4.612115,-2.44506 6.138081,0.31574 1.654644,2.99361 1.654644,20.50639 0,23.5 -1.69431,3.06537 -4.976198,2.89853 -6.198016,-0.3151 z m 667.175071,0.8151 c -2.84809,-5.41727 -2.3348,-21.56566 0.80888,-25.44794 l 1.71944,-2.12342 2.16068,2.16068 c 1.92426,1.92426 2.16068,3.24774 2.16068,12.09558 0,5.4642 -0.43886,11.0892 -0.97525,12.5 -1.1356,2.98686 -4.48809,3.45203 -5.87443,0.8151 z M 6.497661,295.13978 C 5.095376,292.51959 5.086127,273.786 6.485821,271.17063 c 1.440308,-2.69124 4.640273,-2.57564 6.187439,0.22352 1.654643,2.99361 1.654643,20.50639 0,23.5 -1.542139,2.79006 -4.745673,2.91748 -6.175604,0.24563 z m 666.829069,-0.24563 c -0.74634,-1.3503 -1.24363,-6.04875 -1.24363,-11.75 0,-10.19267 1.20119,-14 4.4169,-14 3.08795,0 4,3.19218 4,14 0,5.57232 -0.46583,11.0019 -1.03518,12.06574 -1.39707,2.61044 -4.61212,2.44506 -6.13809,-0.31574 z M 6.535184,262.20989 c -1.311537,-2.45063 -1.356525,-20.09035 -0.05993,-23.50064 1.22185,-3.21371 4.512953,-3.38177 6.170566,-0.3151 1.636848,3.02825 1.659452,20.55925 0.0303,23.5 -1.529466,2.76081 -4.743918,2.92608 -6.14093,0.31574 z m 666.761666,-0.31574 c -1.67153,-2.95317 -1.64512,-20.44571 0.0355,-23.5 1.51909,-2.76079 4.73531,-2.92638 6.13249,-0.31574 0.56933,1.06384 1.03516,6.49342 1.03516,12.06574 0,5.57232 -0.46583,11.0019 -1.03518,12.06574 -1.39651,2.60939 -4.60529,2.44513 -6.16797,-0.31574 z M 7.056704,229.92164 C 5.907173,228.28046 5.5,225.15875 5.5,217.98674 c 0,-11.02964 1.012174,-14.84259 3.940065,-14.84259 3.212574,0 4.417104,3.77367 4.485425,14.05239 0.05003,7.5263 -0.311407,10.12455 -1.704051,12.25 -2.14773,3.27785 -3.137824,3.36893 -5.164735,0.4751 z m 666.727216,-0.46692 c -2.15439,-3.28802 -2.47957,-20.40163 -0.45719,-24.06057 1.7327,-3.13482 4.97847,-2.89257 6.25574,0.4669 1.66442,4.37777 1.26315,21.10667 -0.57352,23.90978 -2.00182,3.05516 -3.05795,2.99127 -5.22503,-0.31611 z M 6.660515,196.5971 C 6.022232,195.19622 5.5,189.62107 5.5,184.20788 c 0,-7.90219 0.346665,-10.27028 1.758757,-12.01413 2.408705,-2.97463 4.99419,-1.76212 5.964043,2.79695 1.115021,5.24147 0.692721,19.50852 -0.651808,22.0208 -1.549231,2.89476 -4.496884,2.6881 -5.910477,-0.4144 z m 666.666215,0.29705 c -2.02238,-3.65894 -1.6972,-20.77255 0.45719,-24.06057 2.1606,-3.29748 3.22366,-3.37059 5.19794,-0.35745 1.82803,2.78992 2.26318,19.61476 0.61861,23.91802 -1.29587,3.39081 -4.5333,3.64883 -6.27374,0.5 z M 6.475249,163.57905 c -1.29659,-3.41029 -1.251602,-21.05001 0.05993,-23.50064 1.397066,-2.61044 4.612115,-2.44506 6.138081,0.31574 1.654644,2.99361 1.654644,20.50639 0,23.5 -1.69431,3.06537 -4.976198,2.89853 -6.198016,-0.3151 z m 666.878941,0.3151 c -1.63685,-3.02825 -1.65946,-20.55925 -0.0303,-23.5 1.52946,-2.76081 4.74391,-2.92608 6.14093,-0.31574 1.31153,2.45063 1.35652,20.09035 0.0599,23.50064 -1.22185,3.21371 -4.51295,3.38177 -6.17056,0.3151 z M 6.535184,131.20989 c -1.345037,-2.51322 -1.345037,-21.61826 0,-24.13148 1.397066,-2.61044 4.612115,-2.44506 6.138081,0.31574 1.654644,2.99361 1.654644,20.50639 0,23.5 -1.525966,2.7608 -4.741015,2.92618 -6.138081,0.31574 z m 666.791546,-0.31574 c -0.74634,-1.3503 -1.24363,-6.04875 -1.24363,-11.75 0,-10.19267 1.20119,-14 4.4169,-14 3.08795,0 4,3.19218 4,14 0,5.57232 -0.46583,11.0019 -1.03518,12.06574 -1.39707,2.61044 -4.61212,2.44506 -6.13809,-0.31574 z M 6.535184,98.209894 C 5.223647,95.759266 5.178659,78.119541 6.475254,74.709253 c 1.221818,-3.213625 4.503706,-3.380472 6.198016,-0.3151 1.654644,2.993607 1.654644,20.506393 0,23.500001 -1.525966,2.760796 -4.741015,2.926176 -6.138081,0.31574 z m 666.761666,-0.31574 c -1.67153,-2.953167 -1.64512,-20.445716 0.0355,-23.500001 1.68683,-3.065636 4.9706,-2.898543 6.19242,0.3151 1.29659,3.410288 1.2516,21.050013 -0.0599,23.500641 -1.39651,2.609386 -4.60529,2.445126 -6.16797,-0.31574 z M 7.095218,65.976634 C 5.251935,63.344978 4.811025,46.086493 6.475249,41.709253 c 1.300157,-3.419672 4.748642,-3.421521 6.048269,-0.0032 1.74276,4.583806 2.155887,15.663458 0.780288,20.926506 -1.479944,5.662266 -3.734368,6.876562 -6.208588,3.344118 z m 667.591042,1.303793 c -2.3229,-1.473046 -3.71566,-13.187805 -2.40548,-20.232936 1.31719,-7.082805 2.17939,-8.368142 5.01059,-7.469556 2.64823,0.840516 3.17874,3.263732 3.19498,14.593712 0.0101,7.022131 -0.3957,10.111927 -1.54305,11.75 -1.69962,2.426541 -2.28075,2.612029 -4.25704,1.35878 z M 6.435337,32.474077 C 5.876998,31.005535 5.389483,27.743035 5.351969,25.224077 5.297089,21.539169 4.767481,20.21653 2.641881,18.455944 L 0,16.267735 3,13.318987 c 1.65,-1.621811 3.675,-3.9302637 4.5,-5.1298947 1.698121,-2.4692355 4.517412,-1.9983616 5.270177,0.880217 0.359086,1.3731477 1.933233,1.9526617 6.799563,2.5032247 7.556866,0.854962 9.93026,1.961932 9.93026,4.631554 0,2.520446 -3.600563,3.940065 -9.993143,3.940065 h -4.862944 l -0.697306,5.75 c -0.383519,3.1625 -1.106732,6.5375 -1.607141,7.5 -1.395892,2.684899 -4.731128,2.165149 -5.904129,-0.920076 z m 667.225193,0.920076 c -0.50041,-0.9625 -1.22362,-4.3375 -1.60714,-7.5 l -0.6973,-5.75 h -4.86295 c -6.39258,0 -9.99314,-1.419619 -9.99314,-3.940065 0,-2.625956 2.24361,-3.706927 9.5,-4.577104 4.72014,-0.566034 6.48244,-1.28087 8.26169,-3.3511707 l 2.26168,-2.6316597 1.73832,2.3630427 C 679.21776,9.3068703 681.35,11.697176 683,13.318987 l 3,2.948748 -2.75,2.225773 c -2.28622,1.850402 -2.75,3.009537 -2.75,6.87311 0,6.18917 -1.44601,9.777535 -3.94007,9.777535 -1.09426,0 -2.39899,-0.7875 -2.8994,-1.75 z M 173.2759,20.13434 c -10.37816,-0.924325 -11.63303,-6.047654 -1.97248,-8.053176 5.92135,-1.229268 17.08323,-0.603226 20.34224,1.140946 2.34383,1.254375 2.4051,4.46783 0.10434,5.471391 -2.86085,1.247864 -12.34002,1.987167 -18.4741,1.440839 z m 65.11655,-0.07596 c -3.08416,-0.341068 -6.12166,-0.937855 -6.75,-1.326194 -1.90758,-1.178948 -1.2804,-4.441417 1.10755,-5.761301 2.99361,-1.654644 20.50639,-1.654644 23.5,0 2.68047,1.481562 2.95031,4.733591 0.5,6.025755 -2.41606,1.274104 -11.62236,1.806565 -18.35755,1.06174 z m 262,-0.01718 c -3.08416,-0.331621 -6.12166,-0.920678 -6.75,-1.309017 -1.77436,-1.096613 -1.34648,-4.408477 0.71189,-5.510079 5.79519,-3.101493 25.23494,-1.893633 26.59572,1.652486 1.58679,4.135116 -7.92296,6.525139 -20.55761,5.16661 z M 35.75,19.112991 c -2.688177,-1.080515 -2.982133,-4.508461 -0.5,-5.830701 3.223739,-1.717295 14.750292,-2.383671 20.518409,-1.186215 6.43084,1.335037 8.074163,3.542511 4.681996,6.289321 -1.767353,1.431115 -4.060824,1.746949 -12.311189,1.695371 C 42.562647,20.045904 36.9875,19.610405 35.75,19.112991 Z m 33,0 c -1.280312,-0.514623 -2.25,-1.765059 -2.25,-2.90143 0,-1.098372 1.0125,-2.554159 2.25,-3.235081 3.054285,-1.680592 20.546834,-1.707003 23.5,-0.03548 2.760874,1.562681 2.925133,4.771466 0.315741,6.16797 -2.354206,1.259933 -20.683502,1.263028 -23.815741,0.004 z m 32.5,-0.04894 c -2.44391,-1.423449 -2.18238,-4.610544 0.5,-6.093166 2.99361,-1.654644 20.50639,-1.654644 23.5,0 2.7608,1.525966 2.92618,4.741015 0.31574,6.138081 -2.48675,1.330871 -22.01559,1.294799 -24.31574,-0.04492 z m 33,0 c -2.44379,-1.423376 -2.18242,-4.609976 0.5,-6.096015 2.94075,-1.629152 20.47175,-1.606549 23.5,0.0303 3.06667,1.657613 2.89861,4.948716 -0.3151,6.170566 -3.37159,1.281878 -21.44137,1.201885 -23.6849,-0.10485 z m 65.5,0.04894 c -2.68821,-1.080529 -2.98202,-4.507776 -0.5,-5.832483 5.56405,-2.969653 21.58933,-2.367545 25.50614,0.958328 L 227,16.144153 l -2.36078,2 c -2.03546,1.724394 -3.758,1.991265 -12.5,1.936614 -5.57657,-0.03486 -11.15172,-0.470362 -12.38922,-0.967776 z m 65.5,-0.04894 c -2.44391,-1.423449 -2.18238,-4.610544 0.5,-6.093166 2.99361,-1.654644 20.50639,-1.654644 23.5,0 3.06537,1.69431 2.89853,4.976198 -0.3151,6.198016 -3.37159,1.281878 -21.44137,1.201885 -23.6849,-0.10485 z m 32.08932,-1.080581 -2.16068,-2.16068 2.1866,-1.770602 c 2.73985,-2.218592 11.31457,-3.341982 18.30328,-2.397943 6.66819,0.900742 8.83148,2.015235 8.83148,4.549843 0,2.940819 -3.82068,3.940065 -15.0651,3.940065 -8.84784,0 -10.17132,-0.236418 -12.09558,-2.16068 z m 33.10471,0.316438 c -3.45851,-2.800529 -1.9297,-4.809338 4.70904,-6.187534 5.32872,-1.10624 16.12274,-0.758956 19.75704,0.635657 2.58245,0.990977 2.84862,3.768194 0.54029,5.637362 -3.24249,2.62561 -21.73639,2.562388 -25.00637,-0.08549 z m 33.30597,0.81308 c -2.68821,-1.080529 -2.98202,-4.507776 -0.5,-5.832483 5.56405,-2.969653 21.58933,-2.367545 25.50614,0.958328 l 2.24386,1.90532 -2.36078,2 c -2.03546,1.724394 -3.758,1.991265 -12.5,1.936614 -5.57657,-0.03486 -11.15172,-0.470362 -12.38922,-0.967776 z m 33,0 c -1.28031,-0.514623 -2.25,-1.765059 -2.25,-2.90143 0,-1.098372 1.0125,-2.556675 2.25,-3.240673 2.99361,-1.654644 20.50639,-1.654644 23.5,0 2.7608,1.525966 2.92618,4.741015 0.31574,6.138081 -2.3542,1.259933 -20.6835,1.263028 -23.81574,0.004 z m 32.5,-0.04894 c -2.44391,-1.423449 -2.18238,-4.610544 0.5,-6.093166 2.99361,-1.654644 20.50639,-1.654644 23.5,0 3.06537,1.69431 2.89853,4.976198 -0.3151,6.198016 -3.37159,1.281878 -21.44137,1.201885 -23.6849,-0.10485 z m 32.2996,-0.678658 c -2.70932,-2.193873 -1.87293,-4.965315 1.8107,-5.999874 4.19659,-1.178626 20.39787,-0.750334 22.8897,0.605105 2.99818,1.630868 2.85311,4.557702 -0.29705,5.993011 -1.40088,0.638289 -6.97603,1.160521 -12.38922,1.160521 -7.90219,0 -10.27028,-0.346665 -12.01413,-1.758757 z m 66.2004,0.727595 c -1.28031,-0.514623 -2.25,-1.765059 -2.25,-2.90143 0,-1.098372 1.0125,-2.554159 2.25,-3.235081 3.05429,-1.680592 20.54683,-1.707003 23.5,-0.03548 2.76087,1.562681 2.92513,4.771466 0.31574,6.16797 -2.3542,1.259933 -20.6835,1.263028 -23.81574,0.004 z m 32.5,-0.04894 c -2.4426,-1.422684 -2.18277,-4.604581 0.5,-6.123055 2.95317,-1.671522 20.44571,-1.645111 23.5,0.03548 2.76079,1.519097 2.92638,4.735317 0.31574,6.132489 -2.48675,1.330871 -22.01559,1.294799 -24.31574,-0.04492 z m 33,0 c -2.4426,-1.422684 -2.18277,-4.604581 0.5,-6.123055 2.95317,-1.671522 20.44571,-1.645111 23.5,0.03548 3.06564,1.686836 2.89854,4.970599 -0.3151,6.192424 -3.37159,1.281878 -21.44137,1.201885 -23.6849,-0.10485 z m 32.5,-0.421059 c -1.2375,-0.886737 -2.25,-2.2459 -2.25,-3.020362 0,-2.741623 4.32663,-3.907609 14.5,-3.907609 12.70089,0 16.4537,1.784178 13.52294,6.429129 -1.45847,2.311519 -22.67027,2.722079 -25.77294,0.498842 z"
     id="path1213"
     inkscape:connector-curvature="0" />
</svg>
