<?xml version="1.0" encoding="UTF-8" standalone="no"?>
<!-- Created with Inkscape (http://www.inkscape.org/) -->

<svg
   xmlns:dc="http://purl.org/dc/elements/1.1/"
   xmlns:cc="http://creativecommons.org/ns#"
   xmlns:rdf="http://www.w3.org/1999/02/22-rdf-syntax-ns#"
   xmlns:svg="http://www.w3.org/2000/svg"
   xmlns="http://www.w3.org/2000/svg"
   xmlns:sodipodi="http://sodipodi.sourceforge.net/DTD/sodipodi-0.dtd"
   xmlns:inkscape="http://www.inkscape.org/namespaces/inkscape"
   version="1.1"
   id="svg205"
   width="1157"
   height="779"
   viewBox="0 0 1157 779"
   sodipodi:docname="Pno_710.svg"
   inkscape:version="0.92.1 r15371">
  <metadata
     id="metadata211">
    <rdf:RDF>
      <cc:Work
         rdf:about="">
        <dc:format>image/svg+xml</dc:format>
        <dc:type
           rdf:resource="http://purl.org/dc/dcmitype/StillImage" />
        <dc:title></dc:title>
      </cc:Work>
    </rdf:RDF>
  </metadata>
  <defs
     id="defs209" />
  <sodipodi:namedview
     pagecolor="#ffffff"
     bordercolor="#666666"
     borderopacity="1"
     objecttolerance="10"
     gridtolerance="10"
     guidetolerance="10"
     inkscape:pageopacity="0"
     inkscape:pageshadow="2"
     inkscape:window-width="731"
     inkscape:window-height="480"
     id="namedview207"
     showgrid="false"
     inkscape:zoom="0.2041259"
     inkscape:cx="541.1935"
     inkscape:cy="415.95882"
     inkscape:window-x="246"
     inkscape:window-y="70"
     inkscape:window-maximized="0"
     inkscape:current-layer="svg205" />
  <path
     style="fill:#000000"
     d="m 662.42122,715.4661 c -15.675,-5.20884 -76.2,-25.24896 -134.5,-44.53361 -58.3,-19.28464 -115.9,-38.34405 -128,-42.35423 -12.1,-4.01019 -31.675,-10.47216 -43.5,-14.35994 -11.825,-3.88778 -24.65,-8.15625 -28.5,-9.48548 -3.85,-1.32923 -23.425,-7.85116 -43.5,-14.49318 -39.48844,-13.06516 -105.3678,-35.20794 -105.71283,-35.53125 -0.28844,-0.27029 4.6031,-32.83069 4.99031,-33.2179 0.16874,-0.16874 13.06077,3.75095 28.64896,8.71042 l 28.34218,9.01722 2.67041,-2.55842 c 3.51306,-3.36573 4.04448,-3.23159 3.38155,0.85357 l -0.55369,3.412 17.86656,5.66171 c 27.54216,8.7278 38.71606,12.31648 40.50754,13.00966 1.05264,0.4073 2.9468,-0.51156 5.28302,-2.56278 l 3.64203,-3.19775 -0.64513,4.03444 -0.64514,4.03443 16.36212,5.17868 c 8.99916,2.84828 23.11211,7.34344 31.36211,9.98925 l 15,4.81056 3.69829,-3.54355 c 2.03406,-1.94895 3.88961,-4.48744 4.12346,-5.64109 0.23384,-1.15365 0.29194,-0.52255 0.12911,1.40245 -0.16284,1.925 -0.59548,4.87918 -0.96143,6.56485 l -0.66537,3.06486 12.83797,4.10384 c 7.06088,2.25712 22.06297,7.05873 33.33797,10.67024 l 20.5,6.5664 3.21245,-3.7351 c 1.76685,-2.0543 3.22935,-4.74759 3.25,-5.98509 0.0206,-1.2375 0.54506,-2.25 1.16536,-2.25 1.09699,0 0.93156,2.48159 -0.71181,10.67794 l -0.63717,3.17793 17.36058,5.52755 c 9.54833,3.04016 25.21735,8.00517 34.82007,11.03338 l 17.45947,5.50582 2.7335,-3.21131 c 1.50342,-1.76622 3.01991,-4.44881 3.36998,-5.96131 0.35006,-1.5125 1.27573,-2.75 2.05703,-2.75 1.71026,0 1.71037,-0.0121 -0.0657,7.42545 -0.77822,3.259 -1.21645,6.24664 -0.97382,6.63922 0.24262,0.39257 1.68288,1.01709 3.20058,1.38782 1.5177,0.37073 17.53138,5.37058 35.58597,11.11078 18.05458,5.7402 33.18088,10.43673 33.614,10.43673 1.31339,0 6.05894,-7.47251 6.06728,-9.55375 0.004,-1.11457 1.11765,-2.46137 2.60499,-3.15171 2.42507,-1.12558 2.55805,-1.05931 2.00669,1 -1.39226,5.20009 -2.85422,13.80406 -2.41942,14.23885 0.51357,0.51355 75.63494,24.46661 76.73197,24.46661 1.02581,0 5.068,-8.79484 5.068,-11.02675 0,-1.08529 0.61344,-1.97325 1.3632,-1.97325 1.09354,0 8.28132,-10.77967 14.1368,-21.20128 0.55,-0.9789 3.30065,-5.49656 6.11255,-10.03926 25.57246,-41.31296 56.0292,-94.95239 71.36687,-125.68906 15.62164,-31.30574 17.05932,-34.63751 17.63937,-40.87856 l 0.63151,-6.79486 -12.37515,-2.90609 c -6.80633,-1.59835 -12.82515,-2.98761 -13.37515,-3.08723 -0.55,-0.0996 -4.97303,-1.1312 -9.82896,-2.2924 -4.85592,-1.16119 -8.95187,-2.11126 -9.1021,-2.11126 -0.15023,0 -3.81193,5.0625 -8.1371,11.25 -4.32518,6.1875 -8.25011,11.7 -8.72207,12.25 -0.47196,0.55 -5.9725,8.425 -12.22343,17.5 -6.25092,9.075 -14.35084,20.775 -17.99982,26 -3.64899,5.225 -10.69864,15.35 -15.6659,22.5 -4.96726,7.15 -9.33427,13.32781 -9.70447,13.72847 -0.3702,0.40066 -5.61028,-0.64963 -11.64462,-2.33397 l -10.97153,-3.06243 -3.63394,4.08179 c -3.23703,3.63597 -3.69104,3.86343 -4.15674,2.08258 -0.28754,-1.09956 -0.22727,-1.81646 0.13394,-1.5931 0.36121,0.22335 0.61517,-0.95685 0.56436,-2.62267 -0.10603,-3.4762 -2.52647,-4.87329 -13.3258,-7.69176 -8.79811,-2.29617 -9.21288,-3.25807 -5.75491,-13.34595 12.72431,-37.12032 13.33961,-38.53095 20.99805,-48.14016 3.99016,-5.00654 11.06188,-13.96618 15.71494,-19.91032 4.65305,-5.94414 10.8226,-13.80722 13.7101,-17.47353 2.8875,-3.6663 5.25,-7.18793 5.25,-7.82584 0,-1.72655 -4.06279,-2.46446 -6.00325,-1.09036 -2.68825,1.90365 -6.55129,6.50847 -29.52738,35.19725 -7.48818,9.35 -14.36963,17.90149 -15.29212,19.00332 -0.92249,1.10183 -3.24062,4.02683 -5.15141,6.5 -1.91079,2.47317 -3.72015,4.72168 -4.02079,4.99668 -0.30065,0.275 -5.78896,7.05267 -12.19624,15.06149 -6.40729,8.00883 -12.28493,15.08877 -13.06143,15.73321 -1.09428,0.90817 -2.96775,0.71446 -8.3296,-0.86125 -14.03729,-4.1252 -13.06819,-4.1062 -16.95431,-0.33227 -3.81939,3.70913 -5.92119,4.66706 -2.88927,1.31683 1.77,-1.95583 1.77939,-2.14062 0.15499,-3.04969 -0.95106,-0.53223 -1.72919,-1.57651 -1.72919,-2.32061 0,-1.2007 -7.04427,-3.83698 -16.33076,-6.11168 -1.55692,-0.38136 -3.04085,-1.24086 -3.29762,-1.90999 -0.25677,-0.66913 1.08253,-5.67372 2.97623,-11.12132 13.76372,-39.59415 11.34706,-34.71653 24.5619,-49.57395 4.07537,-4.58192 10.15037,-11.26571 13.5,-14.85286 3.34964,-3.58716 8.34025,-9.14239 11.09025,-12.34497 2.75,-3.20257 6.22062,-7.24263 7.71249,-8.9779 1.61229,-1.87534 2.25376,-3.31302 1.58153,-3.54453 -0.62203,-0.21422 -3.82882,2.48578 -7.12621,6 -18.04614,19.23286 -23.82022,25.51594 -36.66781,39.90016 -4.125,4.61837 -12.48817,13.81781 -18.58481,20.44319 -6.09665,6.62538 -13.52165,14.76614 -16.5,18.09059 -8.92466,9.96172 -8.22628,9.69389 -18.00316,6.9044 -9.99319,-2.85121 -11.28205,-2.93598 -13.3406,-0.87742 -0.86429,0.86428 -1.57832,1.20178 -1.58674,0.75 -0.008,-0.45179 -0.3958,-0.2212 -0.86084,0.51242 -0.6767,1.06752 -0.97085,1.00723 -1.47323,-0.30194 -0.36687,-0.95604 -0.21692,-1.38191 0.36083,-1.02483 1.71283,1.05858 1.07466,-0.42097 -1.13439,-2.63002 -1.94591,-1.94591 -8.31273,-4.29998 -15.09489,-5.58119 -4.98107,-0.94097 -5.00755,-2.11241 -0.34718,-15.36147 2.40559,-6.83892 5.87933,-16.7094 7.71941,-21.9344 l 3.3456,-9.5 25.84236,-26.1339 c 14.2133,-14.37364 25.4633,-26.36117 25,-26.63895 -0.4633,-0.27777 -3.53081,-1.05788 -6.81669,-1.73357 -3.28588,-0.67568 -6.47972,-1.42245 -7.09741,-1.65948 -0.6177,-0.23704 -3.05199,1.18058 -5.40954,3.15026 -2.35755,1.96968 -4.55069,3.31701 -4.87363,2.99406 -0.32294,-0.32294 -0.12865,-0.9002 0.43175,-1.28279 0.56041,-0.3826 1.11243,-2.09772 1.2267,-3.81138 l 0.20777,-3.11576 -13.25565,-3.19686 c -7.29062,-1.75828 -15.90246,-3.84958 -19.13745,-4.64732 -4.72719,-1.16573 -6.19944,-1.20526 -7.5,-0.20137 -1.62566,1.25484 -32.18231,27.81678 -33.11821,28.78863 -0.65072,0.67572 -18.12564,16.2081 -35.98953,31.98887 -4.66924,4.12476 -8.94424,7.97696 -9.5,8.56045 -0.55576,0.58349 -4.84808,4.48561 -9.53848,8.67136 l -8.52801,7.61047 -8.97199,-2.32792 c -6.70577,-1.73991 -9.31321,-2.04685 -10.32287,-1.21519 -1.98242,1.63293 -3.81579,1.67494 -3.81579,0.0874 0,-0.76288 0.4875,-1.42908 1.08334,-1.48044 0.59583,-0.0514 -3.86667,-1.73886 -9.91667,-3.75 -9.47386,-3.14929 -10.95832,-3.93409 -10.69961,-5.65661 0.16521,-1.1 2.3538,-7.76141 4.86354,-14.80313 2.50973,-7.04172 4.31172,-13.05456 4.00441,-13.36186 -0.45981,-0.45981 -5.58833,3.23587 -11.33063,8.16499 -0.64073,0.55 -2.64057,2.125 -4.44407,3.5 -1.80351,1.375 -5.5494,4.43079 -8.32422,6.79064 -6.33323,5.38614 -8.13258,5.8218 -15.2923,3.70261 -3.17742,-0.94048 -6.22712,-1.82159 -6.77712,-1.95803 -0.55,-0.13643 -1.99657,0.12014 -3.2146,0.57015 -2.34376,0.86593 -4.18374,-0.5139 -2.04163,-1.53105 0.69093,-0.32807 0.24373,-0.40864 -0.99377,-0.17903 -1.2375,0.22961 -2.25,0.0269 -2.25,-0.45037 0,-0.72856 -5.30148,-2.65219 -9.69035,-3.51613 -4.09616,-0.80627 -8.30965,-2.77441 -8.30965,-3.88143 0,-0.71367 3.36102,-10.24127 7.46893,-21.17245 8.49994,-22.61843 6.96866,-20.60499 26.59949,-34.97485 30.49089,-22.31948 39.93158,-29.51223 39.93158,-30.42341 0,-2.16194 -3.46831,-0.71074 -10.30323,4.31102 -11.76886,8.64685 -14.10423,10.18166 -13.17555,8.65904 0.48529,-0.79567 5.33671,-8.42167 10.78094,-16.94667 9.25068,-14.48544 9.86784,-15.77365 9.42887,-19.68065 -0.25835,-2.29936 -0.0122,-4.63818 0.54699,-5.19737 0.68894,-0.68894 0.63161,-6.32194 -0.17785,-17.47334 l -1.19455,-16.45663 -14.96845,-44.84601 -14.96845,-44.846 -11.39815,-53 -11.39816,-53.000003 3.87865,-19.5 c 2.13326,-10.725 3.89447,-19.63802 3.9138,-19.80671 0.20083,-1.75278 23.99319,20.74631 24.51951,23.18672 0.25147,1.16599 0.69545,3.82345 0.98662,5.90547 0.29117,2.08201 1.19517,4.80157 2.00889,6.04347 0.81372,1.24189 1.69933,3.97508 1.96803,6.073773 0.2687,2.09868 0.88708,4.32912 1.37418,4.95653 0.4871,0.62741 2.96466,7.44075 5.5057,15.14075 7.27229,22.03698 10.45516,31.12397 12.87714,36.76391 1.2367,2.87985 15.67783,25.71109 32.09139,50.73609 35.37263,53.93103 37.00315,56.36022 37.88291,56.4391 0.37357,0.0335 7.15848,-9.1641 15.07758,-20.4391 l 14.39835,-20.5 h 5.35776 5.35776 l 15.63815,38.92683 c 9.94981,24.76726 16.33892,39.38639 17.56466,40.19026 1.05958,0.69488 18.29821,8.30602 38.30806,16.91362 l 36.38155,15.6502 26.93828,5.86292 26.93827,5.86292 33.68017,1.15146 c 18.5241,0.6333 36.60518,0.9593 40.18018,0.72444 5.70786,-0.37498 10.4607,-2.16039 39,-14.6504 65.19703,-28.53299 94.82021,-41.13156 96.64,-41.10045 1.023,0.0175 2.71427,0.67843 3.75838,1.46875 1.65767,1.25473 1.72124,1.66281 0.50132,3.21819 -1.73938,2.21771 -20.59847,23.62743 -35.60505,40.42052 -6.21206,6.95159 -11.29465,12.87854 -11.29465,13.17099 0,0.29246 3.4875,0.67979 7.75,0.86075 l 7.75,0.329 82.02465,-40.57482 82.02466,-40.57483 30.05767,-24.92517 c 16.5317,-13.70885 41.6962,-34.60018 55.9212,-46.42518 14.2249,-11.825 26.4728,-21.87238 27.2174,-22.3275 1.374,-0.83987 31.2544,-5.62309 31.2544,-5.00318 0,0.18562 -9.6307,13.83464 -21.4015,30.33115 -19.0508,26.69933 -22.4504,30.92757 -30.9517,38.49659 -5.2527,4.67662 -9.9138,8.50294 -10.358,8.50294 -0.4442,0 -1.3807,0.91746 -2.081,2.0388 -0.7334,1.1745 -1.7893,1.74243 -2.4905,1.33968 -0.6695,-0.38452 -0.8838,-0.33102 -0.4763,0.11889 0.9748,1.07604 -5.963,7.79246 -7.2364,7.00548 -0.5482,-0.33883 -0.7317,0.0447 -0.4156,0.86852 0.5402,1.40752 -3.1341,4.32403 -4.839,3.84108 -0.4125,-0.11685 -0.75,0.39281 -0.75,1.13256 0,1.88464 -3.6527,4.98763 -4.937,4.19393 -0.5846,-0.36133 -1.063,-0.16842 -1.063,0.42869 0,1.61969 -6.1159,8.03237 -7.6607,8.03237 -0.7366,0 -1.3393,0.36399 -1.3393,0.80887 0,0.44488 -0.6,1.62942 -1.3333,2.63231 -1.1552,1.57978 -1.3333,1.60532 -1.3333,0.19113 0,-0.89777 0.375,-1.63231 0.8333,-1.63231 0.4583,0 0.8184,-0.5625 0.8001,-1.25 -0.043,-1.61959 -3.9668,3.06725 -3.9668,4.73834 0,0.69672 -0.675,1.82697 -1.5,2.51166 -1.8132,1.50485 -2.0026,-0.0277 -0.25,-2.02347 0.6875,-0.7829 0.2481,-0.58776 -0.9764,0.43365 -1.2245,1.02141 -2.0047,2.21587 -1.7337,2.65435 0.271,0.43849 -0.6396,2.01906 -2.0236,3.51238 -1.3839,1.49332 -2.5163,2.25453 -2.5163,1.69156 0,-0.56297 0.6859,-1.59281 1.5242,-2.28853 0.8383,-0.69572 1.3167,-1.47236 1.0632,-1.72588 -0.2535,-0.25352 -4.4144,3.29811 -9.2465,7.8925 -4.8321,4.59439 -12.17307,11.56399 -16.31326,15.488 -23.42964,22.20626 -28.93361,27.68462 -28.74099,28.60725 0.11735,0.56213 -14.48822,14.80018 -32.45684,31.64012 -17.96862,16.83994 -35.07076,32.86807 -38.00478,35.61807 -10.29536,9.64968 -33.37415,31.1333 -38.18328,35.54411 -2.67204,2.45074 -7.7592,8.20751 -11.3048,12.79282 -6.37175,8.24023 -6.45778,8.43596 -7.41658,16.87404 -0.92002,8.09672 -1.36373,9.21424 -8.60143,21.66307 -4.19725,7.21928 -8.39582,14.47596 -9.33015,16.12596 -7.94413,14.02912 -51.76525,89.64484 -63.45787,109.5 -11.07475,18.80594 -17.29169,29.43346 -19.30452,33 -3.02585,5.36149 -26.05043,45.00281 -33.97814,58.5 -3.87657,6.6 -7.6558,12.07546 -8.39828,12.1677 -0.74248,0.0922 -14.17496,-4.09408 -29.84996,-9.30291 z m 299,-373.59422 c 0,-0.58531 -0.63541,-0.48812 -1.5,0.22943 -0.825,0.68469 -1.5,1.40067 -1.5,1.59106 0,0.19039 0.675,0.0871 1.5,-0.22943 0.825,-0.31659 1.5,-1.03256 1.5,-1.59106 z M 313.57911,551.10131 c 0,-1.375 0.22698,-1.9375 0.50439,-1.25 0.27741,0.6875 0.27741,1.8125 0,2.5 -0.27741,0.6875 -0.50439,0.125 -0.50439,-1.25 z M 997.42122,309.72375 c 0,-0.20765 0.7875,-0.99515 1.75,-1.75 1.58608,-1.24387 1.62148,-1.2085 0.37756,0.37756 -1.30637,1.66575 -2.12756,2.19548 -2.12756,1.37244 z m 7.99998,-7.92395 c 0,-0.27417 1.575,-2.07349 3.5,-3.99849 1.925,-1.925 3.4675,-2.9825 3.4278,-2.35 -0.069,1.09789 -6.9278,7.38322 -6.9278,6.34849 z"
     id="path251"
     inkscape:connector-curvature="0" />
</svg>
