<?xml version="1.0" encoding="UTF-8" standalone="no"?>
<!-- Created with Inkscape (http://www.inkscape.org/) -->

<svg
   xmlns:dc="http://purl.org/dc/elements/1.1/"
   xmlns:cc="http://creativecommons.org/ns#"
   xmlns:rdf="http://www.w3.org/1999/02/22-rdf-syntax-ns#"
   xmlns:svg="http://www.w3.org/2000/svg"
   xmlns="http://www.w3.org/2000/svg"
   xmlns:sodipodi="http://sodipodi.sourceforge.net/DTD/sodipodi-0.dtd"
   xmlns:inkscape="http://www.inkscape.org/namespaces/inkscape"
   version="1.1"
   id="svg2"
   width="1293.3333"
   height="1836"
   viewBox="0 0 1293.3333 1836"
   sodipodi:docname="Rock.svg"
   inkscape:version="0.92.1 r15371">
  <metadata
     id="metadata8">
    <rdf:RDF>
      <cc:Work
         rdf:about="">
        <dc:format>image/svg+xml</dc:format>
        <dc:type
           rdf:resource="http://purl.org/dc/dcmitype/StillImage" />
        <dc:title></dc:title>
      </cc:Work>
    </rdf:RDF>
  </metadata>
  <defs
     id="defs6" />
  <sodipodi:namedview
     pagecolor="#ffffff"
     bordercolor="#666666"
     borderopacity="1"
     objecttolerance="10"
     gridtolerance="10"
     guidetolerance="10"
     inkscape:pageopacity="0"
     inkscape:pageshadow="2"
     inkscape:window-width="731"
     inkscape:window-height="480"
     id="namedview4"
     showgrid="false"
     inkscape:zoom="0.12854031"
     inkscape:cx="466.09681"
     inkscape:cy="885.66248"
     inkscape:window-x="0"
     inkscape:window-y="27"
     inkscape:window-maximized="0"
     inkscape:current-layer="svg2" />
  <path
     style="fill:#000000;stroke-width:1.33333337"
     d="M 334.42216,1325 C 163.36468,1153.9509 23.674958,1013.4017 24.000568,1012.6684 c 0.32562,-0.7334 16.23556,-22.3334 35.35542,-48 C 78.475858,939.0017 135.75749,861.9017 186.6485,793.335 237.53951,724.7684 316.88571,617.8798 362.97338,555.8048 c 46.08765,-62.075 128.49574,-173.1891 183.12911,-246.9203 54.6333,-73.73118 99.6333,-134.05343 100,-134.04947 0.3666,0.004 23.7666,31.22601 52,69.38232 28.2333,38.15631 72.791,98.26715 99.017,133.57975 51.7255,69.6467 134.3099,180.9234 160.983,216.9134 9.1666,12.3686 60.16661,81.0741 113.33331,152.679 53.1666,71.6049 119.3878,160.8139 147.1582,198.2422 l 50.4915,68.0514 -311.15711,311.1593 C 786.79199,1495.98 646.47079,1636.0009 646.10349,1636 c -0.3672,-10e-4 -140.62384,-139.951 -311.68133,-311 z m 307.68033,-6.9983 V 1017.335 h -300.6667 c -165.36666,0 -300.666662,0.4496 -300.666662,0.9989 0,1.3077 599.024562,600.3345 600.332262,600.3345 0.5506,0 1.0011,-135.3 1.0011,-300.6667 z m 309.6655,1.0011 c 164.81731,-164.816 299.66781,-300.116 299.66781,-300.6666 0,-0.5506 -135.3,-1.0012 -300.66671,-1.0012 h -300.6666 v 300.6667 c 0,165.3667 0.4495,300.6667 0.9989,300.6667 0.5493,0 135.8493,-134.8495 300.6666,-299.6656 z M 642.10249,601.81 V 194.28491 l -4.46,5.8584 c -5.7772,7.58869 -61.2941,82.42052 -125.52136,169.19169 -55.31884,74.736 -356.93152,481.727 -427.673372,577.0952 -24.10946,32.5024 -44.16431,59.9524 -44.56632,61 -0.63216,1.6474 40.01129,1.9048 300.745032,1.9048 h 301.47602 z m 610.23781,405.6641 c -0.3928,-1.0235 -29.1266,-40.1735 -63.853,-87 C 1153.761,873.6476 1112.0232,817.335 1095.7367,795.335 1068.2202,758.1653 979.95399,639.0355 843.30839,454.6415 c -31.2367,-42.1519 -87.2485,-117.7398 -124.4706,-167.97312 -37.2221,-50.23334 -67.9148,-91.58334 -68.206,-91.8889 -0.2911,-0.30554 -0.5293,182.84442 -0.5293,407.00002 v 407.5555 h 301.4759 c 257.41981,0 301.37161,-0.2719 300.76191,-1.8609 z"
     id="path18"
     inkscape:connector-curvature="0" />
</svg>
