<?xml version="1.0" encoding="UTF-8" standalone="no"?>
<!-- Created with Inkscape (http://www.inkscape.org/) -->

<svg
   xmlns:dc="http://purl.org/dc/elements/1.1/"
   xmlns:cc="http://creativecommons.org/ns#"
   xmlns:rdf="http://www.w3.org/1999/02/22-rdf-syntax-ns#"
   xmlns:svg="http://www.w3.org/2000/svg"
   xmlns="http://www.w3.org/2000/svg"
   xmlns:sodipodi="http://sodipodi.sourceforge.net/DTD/sodipodi-0.dtd"
   xmlns:inkscape="http://www.inkscape.org/namespaces/inkscape"
   version="1.1"
   id="svg180"
   width="2822"
   height="782"
   viewBox="0 0 2822 782"
   sodipodi:docname="SC.svg"
   inkscape:version="0.92.1 r15371">
  <metadata
     id="metadata186">
    <rdf:RDF>
      <cc:Work
         rdf:about="">
        <dc:format>image/svg+xml</dc:format>
        <dc:type
           rdf:resource="http://purl.org/dc/dcmitype/StillImage" />
        <dc:title></dc:title>
      </cc:Work>
    </rdf:RDF>
  </metadata>
  <defs
     id="defs184" />
  <sodipodi:namedview
     pagecolor="#ffffff"
     bordercolor="#666666"
     borderopacity="1"
     objecttolerance="10"
     gridtolerance="10"
     guidetolerance="10"
     inkscape:pageopacity="0"
     inkscape:pageshadow="2"
     inkscape:window-width="1366"
     inkscape:window-height="692"
     id="namedview182"
     showgrid="false"
     inkscape:zoom="0.30864635"
     inkscape:cx="1411"
     inkscape:cy="391"
     inkscape:window-x="0"
     inkscape:window-y="27"
     inkscape:window-maximized="1"
     inkscape:current-layer="svg180" />
  <path
     style="fill:#000000"
     d="M 0,391 V 0 H 1411 2822 V 391 782 H 1411 0 Z M 2767.75,732.03457 C 2768.7475,732.00697 2769,663.1149 2769,391 V 50 l -13.25,-0.0332 C 2738.461,49.9235 54.73259,49.9236 53.75,49.96693 53.3375,49.98513 53,203.42943 53,390.9543 v 340.95431 l 6.75,0.29569 c 4.93096,0.21601 2700.1597,0.0471 2708,-0.16974 z M 1331.4152,631.63707 c -9.8176,-4.46068 -10.005,-17.17801 -0.3269,-22.18273 2.4224,-1.25265 2.9128,-2.13161 2.9183,-5.23002 0,-2.04838 0.9006,-5.07432 1.9934,-6.72432 2.3635,-3.56874 2.4828,-4.5 0.5767,-4.5 -2.0369,0 -7.3919,-4.74197 -9.1126,-8.06946 -1.845,-3.56784 -1.8737,-9.01447 -0.07,-13.33084 3.2422,-7.75959 14.2626,-11.81338 24.0784,-8.85709 2.7652,0.83282 8.2902,1.71698 12.2777,1.96481 6.3276,0.39326 7.25,0.695 7.25,2.37158 0,1.64397 -0.7367,1.921 -5.1084,1.921 h -5.1084 l 0.8358,2.75 c 3.5755,11.76449 -2.6892,20.98081 -15.119,22.24248 -4.9132,0.49871 -5.0052,0.57023 -5.3022,4.12091 l -0.3022,3.61339 9.1874,1.68087 c 5.0531,0.92448 10.4493,2.33338 11.9915,3.1309 9.8891,5.11383 6.7801,17.41553 -6.0745,24.03562 -4.6521,2.39582 -20.1742,3.0669 -24.5848,1.0629 z m 24.324,-5.27371 c 5.7034,-4.22104 6.5974,-10.78623 1.889,-13.87133 -1.2871,-0.8433 -5.8346,-2.20188 -10.1057,-3.01908 -7.461,-1.42751 -7.8957,-1.40543 -11.0805,0.56287 -6.0237,3.72288 -6.613,10.79847 -1.2981,15.5869 3.3635,3.03034 4.6047,3.35728 11.5953,3.05429 4.3979,-0.19062 7.054,-0.87342 9,-2.31365 z m -6.8135,-36.82494 c 6.0847,-3.1465 7.6907,-15.41813 2.7602,-21.09092 -2.9053,-3.3427 -8.7439,-4.29471 -12.2501,-1.99742 -6.9838,4.57599 -7.0598,18.36943 -0.1244,22.5982 3.8195,2.32892 5.8576,2.43282 9.6143,0.49014 z M 1190,611.63958 c -3.025,-0.65604 -6.0625,-1.54489 -6.75,-1.97521 -0.8395,-0.52545 -1.25,-3.55455 -1.25,-9.22339 V 592 h 2.8601 c 2.7465,0 2.8836,0.22835 3.4524,5.75 0.6872,6.6711 2.5164,8.7074 8.7707,9.76406 13.5932,2.29656 24.1404,-6.91859 19.386,-16.93771 -1.5575,-3.2821 -3.1698,-4.38814 -13.94,-9.56231 -13.289,-6.38428 -17.7939,-10.28117 -18.9385,-16.38228 -1.5388,-8.20234 3.7878,-17.06856 12.2059,-20.31685 5.6191,-2.16826 16.5082,-2.34435 23.4929,-0.37991 l 4.7896,1.34706 -0.2896,7.51647 c -0.242,6.28297 -0.5785,7.55844 -2.0508,7.77215 -2.1676,0.31465 -3.7387,-2.42498 -3.7387,-6.51964 0,-4.66087 -4.7213,-7.27549 -12.2634,-6.7914 -6.8546,0.43995 -10.6237,2.84839 -12.6052,8.05456 -2.8739,7.55098 0.7301,12.17603 13.8686,17.79784 15.2383,6.52026 19.2308,10.67691 19.2308,20.02148 0,8.72267 -6.2945,15.633 -16.6909,18.32385 -6.9336,1.79459 -11.892,1.84083 -19.5399,0.18221 z m 320.0814,-0.16509 c -9.9811,-2.79948 -17.136,-9.03304 -21.7791,-18.97449 -2.4534,-5.25302 -2.8023,-7.18542 -2.8023,-15.52173 0,-8.77087 0.2629,-10.0557 3.3338,-16.29302 3.8979,-7.9168 10.2025,-13.50912 18.3957,-16.31739 6.285,-2.15421 19.6892,-2.26044 27.2705,-0.21612 l 5,1.34826 0.2921,7.75 c 0.29,7.69602 0.2745,7.75 -2.231,7.75 -1.9509,0 -2.649,-0.62353 -3.0789,-2.75 -1.7922,-8.86608 -4.2609,-10.69172 -14.4822,-10.71006 -15.9398,-0.0286 -26.1319,13.12603 -24.701,31.88068 0.7097,9.30107 2.0947,13.62903 6.0003,18.74952 4.8944,6.41703 11.4211,9.33578 20.8043,9.3037 4.6927,-0.016 8.2458,-0.51892 9.1873,-1.30031 0.8444,-0.70078 1.8426,-3.50881 2.2183,-6.24007 0.4807,-3.49528 1.2786,-5.2847 2.6942,-6.04233 3.1326,-1.67649 3.9184,0.10898 3.5935,8.16504 l -0.2969,7.36237 -4.4445,1.28355 c -7.361,2.12586 -18.8786,2.48207 -24.9741,0.7724 z m -89.5814,-0.62 c -9.4467,-3.49432 -14.4805,-11.78679 -14.4805,-23.85449 0,-13.21635 5.9151,-21.71962 17.1327,-24.62945 13.0014,-3.37251 23.8478,5.03955 23.8478,18.49547 V 584 h -16.5 -16.5 l 0.044,3.75 c 0.1796,15.34831 12.7014,22.63356 27.3642,15.92071 l 5.5919,-2.56006 v 2.5 c 0,5.22618 -18.3754,10.24914 -26.5,7.24384 z m 17.5,-33.90415 c 0,-3.77037 -2.3818,-8.54912 -4.9446,-9.9207 -3.9586,-2.11856 -9.758,-1.22968 -13.5183,2.07196 -3.23,2.83598 -5.8386,8.31555 -4.8313,10.1484 0.2267,0.4125 5.5607,0.75 11.8532,0.75 H 1438 Z m 127.9935,34.17483 c -11.6742,-3.82834 -17.9245,-13.9208 -16.7364,-27.02444 1.2612,-13.90791 10.0901,-22.36375 23.271,-22.28771 10.9718,0.0633 18.9564,6.1662 22.0671,16.86646 4.7285,16.26563 -4.8776,31.86172 -20.2521,32.88047 -3.2137,0.21295 -6.971,0.0173 -8.3496,-0.43478 z m 12.8245,-5.15558 c 8.989,-5.4804 10.7878,-26.65428 3.0163,-35.50548 -7.8138,-8.89949 -18.7447,-5.45977 -22.3792,7.04223 -5.4875,18.8765 6.4074,36.36195 19.3629,28.46325 z M 1236,609.5 c 0,-0.825 0.8632,-1.5 1.9182,-1.5 5.1139,0 5.0818,0.13008 5.0818,-20.60699 V 568 h -3.5833 c -2.3161,0 -3.4438,-0.41881 -3.1886,-1.18422 0.4475,-1.34261 9.1108,-4.62078 12.5219,-4.73828 L 1251,562 v 21.96482 c 0,20.69251 0.112,22.02478 1.9343,23 1.0638,0.56935 2.8638,1.03518 4,1.03518 1.1695,0 2.0657,0.65075 2.0657,1.5 0,1.24638 -1.9444,1.5 -11.5,1.5 -9.5556,0 -11.5,-0.25362 -11.5,-1.5 z m 28.4309,0.3882 c -0.7801,-1.26228 1.2628,-2.84999 3.6967,-2.87289 3.5207,-0.0331 3.9264,-2.33043 3.646,-20.64616 L 1271.5,568.5 l -3.25,-0.31336 c -1.8973,-0.18294 -3.25,-0.87217 -3.25,-1.656 0,-1.54916 8.0141,-4.53064 12.1781,-4.53064 2.3293,0 2.8219,0.42843 2.8219,2.454 v 2.45399 l 5.25,-2.4449 c 10.3022,-4.79767 17.6691,-4.18951 21.9498,1.812 2.1482,3.01186 2.3332,4.44659 2.8002,21.71731 l 0.5,18.49241 2.9878,0.5153 c 1.8019,0.31077 3.1236,1.22058 3.33,2.29224 0.3135,1.62803 -0.5653,1.75308 -10.4878,1.49229 -8.8009,-0.23131 -10.83,-0.56383 -10.83,-1.77482 0,-0.87383 1.2408,-1.7047 3,-2.00885 l 3,-0.51867 0.2483,-15.99115 c 0.2862,-18.42291 -0.2339,-20.27342 -6.2894,-22.37993 -3.5033,-1.2187 -4.6972,-1.18386 -9.748,0.28445 l -5.7558,1.67324 0.2725,18.17128 0.2724,18.17129 2.4947,0.58811 c 1.3722,0.32345 2.6427,1.35587 2.8234,2.29426 0.2929,1.52086 -0.8133,1.70615 -10.1858,1.70615 -6.6357,0 -10.7677,-0.41013 -11.2014,-1.1118 z M 1376,609.5 c 0,-0.92157 0.9365,-1.5 2.4286,-1.5 5.5535,0 5.6236,-0.44427 5.3357,-33.83576 L 1383.5,543.5 l -3.811,-0.314 c -2.9344,-0.24178 -3.7368,-0.69907 -3.4886,-1.98803 0.3413,-1.7721 12.1755,-5.61861 14.5496,-4.72909 0.9672,0.36239 1.25,8.36968 1.25,35.39275 0,37.64029 -0.2112,36.13837 5.0818,36.13837 1.055,0 1.9182,0.675 1.9182,1.5 0,1.24638 -1.9444,1.5 -11.5,1.5 -9.5556,0 -11.5,-0.25362 -11.5,-1.5 z m 228,0 c 0,-0.91273 0.9308,-1.5 2.3776,-1.5 4.3583,0 4.6861,-1.5756 4.3954,-21.1302 L 1610.5,568.5 l -3.25,-0.31336 c -5.1424,-0.49582 -3.8073,-2.70381 2.7349,-4.52269 9.8295,-2.73283 9.0151,-4.55178 9.0151,20.13605 0,23.06725 0.22,24.2 4.7,24.2 1.3778,0 2.3,0.60145 2.3,1.5 0,1.24242 -1.8889,1.5 -11,1.5 -9.1111,0 -11,-0.25758 -11,-1.5 z m 28,0 c 0,-0.825 0.8632,-1.5 1.9182,-1.5 5.2709,0 5.0818,1.23213 5.0818,-33.10699 V 543 h -3.5733 c -2.8176,0 -3.5045,-0.3577 -3.2477,-1.69118 0.2941,-1.52715 9.8475,-5.25477 13.571,-5.29524 0.9761,-0.0106 1.25,7.53156 1.25,34.41499 0,37.42814 0.021,37.57143 5.5714,37.57143 1.4921,0 2.4286,0.57843 2.4286,1.5 0,1.24638 -1.9444,1.5 -11.5,1.5 -9.5556,0 -11.5,-0.25362 -11.5,-1.5 z m -386.2377,-59.57324 c -2.7874,-1.62395 -3.9938,-4.62572 -2.7746,-6.90384 1.5928,-2.97603 4.4695,-4.1798 7.3613,-3.08035 4.6115,1.75333 4.6635,7.81946 0.085,9.90567 -2.9636,1.35034 -2.5018,1.34258 -4.6714,0.0785 z m 367.5176,0.0532 c -4.3471,-1.74921 -3.8135,-9.04099 0.768,-10.49511 5.558,-1.76404 9.5289,6.59696 4.7296,9.9585 -2.5104,1.75836 -2.4709,1.7545 -5.4976,0.53661 z M 1355.0563,515.25 c -1.209,-7.69213 -5.1655,-27.4929 -23.5008,-117.61255 -5.2439,-25.7744 -9.3063,-47.23162 -9.0275,-47.68272 0.2788,-0.45109 3.0865,-1.31816 6.2394,-1.92682 3.1529,-0.60865 6.7314,-1.31905 7.9521,-1.57867 1.5432,-0.3282 2.6611,0.217 3.6689,1.78937 0.7972,1.24376 5.2653,20.26139 9.9291,42.26139 4.6639,22 11.7579,55.43943 15.7646,74.30984 4.0067,18.87041 7.8187,35.03982 8.4711,35.93203 0.9593,1.31198 1.8326,1.43683 4.5665,0.6529 l 3.3803,-0.9693 0.2599,-46.71274 L 1383.0198,407 h 9.4901 9.4901 v 46.08532 46.08532 l 7.75,-0.70707 c 4.2625,-0.38889 8.0372,-0.87277 8.3883,-1.0753 0.6051,-0.3491 0.2232,-58.39259 -0.5142,-78.13827 l -0.3454,-9.25 h 9.2139 9.2139 l 0.6468,7.65088 c 0.3557,4.20798 0.649,18.94548 0.6519,32.75 0,13.80451 0.2957,29.48662 0.6508,34.84912 l 0.6456,9.75 h 3.7677 c 3.7385,0 3.7833,-0.0484 5.7971,-6.25 1.1163,-3.4375 7.7069,-24.025 14.646,-45.75 25.1832,-78.8446 29.6542,-92.1267 31.213,-92.72486 1.856,-0.71221 14.6823,3.28494 16.0435,4.99974 0.6607,0.83228 -0.4521,5.71433 -3.4703,15.22512 C 1472.4457,477.17767 1469,488.2531 1469,490.38978 c 0,1.91862 -0.078,1.9179 19.4765,0.17879 8.2371,-0.73256 15.509,-1.12762 16.1598,-0.8779 1.468,0.56334 2.0767,2.94587 2.9531,11.55933 0.5514,5.41923 0.4131,6.7519 -0.7013,6.75963 -0.7635,0.005 -7.2381,0.66272 -14.3881,1.46096 -7.15,0.79823 -35.275,3.71031 -62.5,6.47128 -27.225,2.76098 -53.775,5.47075 -59,6.02172 -15.8832,1.67485 -14.5361,2.24207 -15.9437,-6.71359 z M 2153,217.37783 v -55.62217 l 18.25,0.49046 c 15.0292,0.40391 19.3971,0.86749 24.75,2.62678 9.718,3.19394 15.1673,7.68919 19.1599,15.80547 3.2004,6.5056 3.3401,7.2714 3.3401,18.30563 0,10.39054 -0.261,12.07272 -2.6702,17.2125 -5.0987,10.87754 -14.7979,17.94546 -27.5187,20.05338 -5.9249,0.98178 -10.8991,0.50212 -19.0611,-1.83804 l -2.25,-0.6451 V 253.38337 273 h -7 -7 z m 38.5558,4.73604 c 5.2483,-2.38386 10.8745,-9.00745 12.4594,-14.66827 1.5742,-5.62238 0.8428,-16.88582 -1.375,-21.17457 -4.3541,-8.41983 -10.554,-11.21979 -24.9086,-11.24907 l -10.7685,-0.022 0.2685,23.16136 0.2684,23.16136 3.5,1.26256 c 5.348,1.9292 15.7983,1.68954 20.5558,-0.47141 z M 277.5,236.40316 C 259.65413,233.93299 250.58507,229.84257 240.63068,219.77399 229.06415,208.07475 224,196.11558 224,180.5 c 0,-16.34766 5.27231,-29.06017 16.75786,-40.40632 18.03329,-17.81441 42.44918,-22.06957 71.41767,-12.44656 L 323,131.24289 v 8.33247 8.33248 l -8.25,-3.92805 c -4.5375,-2.16043 -10.95,-4.62881 -14.25,-5.48529 -7.27083,-1.88706 -21.17369,-2.10848 -28,-0.44592 -12.1166,2.95102 -24.15319,12.58363 -29.02717,23.2298 -7.48569,16.35091 -3.79014,37.60345 8.54512,49.14164 15.36037,14.36783 39.63981,16.20171 62.98205,4.75718 4.125,-2.02246 7.8375,-3.8272 8.25,-4.01053 0.4125,-0.18334 0.75,3.29502 0.75,7.72967 v 8.06301 l -3.92765,2.00374 c -10.06125,5.13287 -31.79729,8.93152 -42.57235,7.44007 z m 280.88873,-0.8303 c -3.3612,-0.76486 -7.9737,-2.34079 -10.25,-3.50208 l -4.1387,-2.11143 v -7.06301 c 0,-3.88465 0.3375,-6.90977 0.75,-6.72249 0.4125,0.18728 3.5565,1.80326 6.9868,3.59105 11.5178,6.00295 20.2986,6.3336 25.3113,0.95312 4.5953,-4.93251 1.4537,-9.36954 -12.2173,-17.25494 -8.2713,-4.77089 -16.0938,-11.21741 -18.0523,-14.87691 -3.1556,-5.89624 -2.5882,-14.21942 1.3306,-19.51991 1.1377,-1.53881 3.9411,-3.87072 6.2297,-5.18204 3.6231,-2.07593 5.4542,-2.38422 14.1612,-2.38422 8.7701,0 10.7072,0.33142 15.75,2.69468 l 5.75,2.69467 v 6.50279 6.50278 l -6.5539,-3.06694 c -8.9158,-4.17217 -17.8172,-4.93618 -21.6961,-1.86217 -3.4312,2.71921 -3.6437,6.86431 -0.5,9.75313 1.2375,1.13716 5.625,4.20814 9.75,6.8244 18.5362,11.75652 22.5694,16.57645 21.7851,26.03478 -1.1934,14.39088 -16.0584,22.16762 -34.3964,17.99474 z m 115.951,0.0521 c -5.9685,-1.95257 -10.0579,-5.18174 -12.6124,-9.95921 -2.0883,-3.90573 -2.2471,-5.61721 -2.5438,-27.41579 l -0.3165,-23.25 h -6.4335 c -3.5384,4e-5 -6.4335,-0.3426 -6.4335,-0.76138 0,-0.41879 6.075,-6.52668 13.5,-13.5731 l 13.5,-12.81167 v 7.0731 V 162 h 11.5 11.5 v 6.5 6.5 h -11.5 -11.5 v 20.54966 c 0,26.27293 0.9179,28.50458 11.6842,28.40645 4.2725,-0.0389 7.4717,-0.84895 13.6168,-3.44761 1.6419,-0.69435 1.7744,-0.20078 1.5,5.58765 l -0.301,6.34928 -4.8737,1.80555 c -6.6508,2.46388 -15.1877,3.04209 -20.2866,1.37402 z m 141.7416,-0.21347 c -6.5485,-1.76064 -10.3864,-4.04835 -15.2639,-9.09856 -13.4374,-13.91335 -14.2852,-40.41154 -1.7485,-54.65391 10.8141,-12.28553 32.7795,-14.32835 44.6659,-4.15402 6.7624,5.78835 12.2188,19.69696 12.2576,31.24496 l 0.01,2.25004 h -26.0795 -26.0794 l 0.6999,3.25 c 3.863,17.93849 21.968,24.2517 42.2843,14.74457 3.5196,-1.64701 6.5737,-2.99457 6.7869,-2.99457 0.2133,0 0.3878,2.91742 0.3878,6.48315 v 6.48316 l -5.119,2.59396 c -9.9458,5.03992 -22.7755,6.54635 -32.7997,3.85126 z M 841.58403,187.75 c -1.463,-9.25798 -7.9854,-14.75 -17.5173,-14.75 -6.6995,0 -11.005,1.88864 -14.7993,6.49176 -2.9377,3.56395 -5.6476,10.79477 -4.4822,11.96012 0.3015,0.30147 8.8556,0.54812 19.0092,0.54812 h 18.4612 z m 93.416,48.58014 c -1.375,-0.21863 -5.7625,-1.553 -9.75,-2.96527 l -7.25,-2.56778 v -8.20233 -8.20234 l 7.2168,3.48171 c 13.5701,6.54683 26.961,5.30234 32.9148,-3.05895 3.3269,-4.67217 3.8051,-14.05863 0.9968,-19.56337 C 955.89033,188.90461 948.92893,185 940.85083,185 h -3.8508 v -6.90616 -6.90616 l 4.9702,-0.68358 c 11.2353,-1.54525 17.2543,-7.3069 17.1835,-16.44876 -0.1095,-14.13315 -13.5957,-20.62255 -31.3146,-15.06824 -3.4865,1.0929 -6.4713,1.9929 -6.6329,2 -0.1616,0.007 -0.1616,-3.20817 0,-7.14503 l 0.2938,-7.15794 5.5,-1.89111 c 5.7118,-1.96396 19.6969,-2.63273 25.5413,-1.22139 5.3552,1.29322 12.084,5.23765 15.4238,9.04142 5.091,5.7983 6.4242,9.81068 6.442,19.38695 0.019,10.17617 -1.8811,14.60656 -8.9222,20.80432 l -4.5986,4.0479 3.6133,1.71462 c 10.4172,4.94328 15.085,23.30041 9.5747,37.65414 -5.5026,14.3333 -22.0006,22.82386 -39.0743,20.10916 z m 320.32637,-0.37452 c -16.4011,-3.24299 -27.3726,-18.28552 -27.4619,-37.65173 -0.046,-9.89659 1.973,-17.39901 6.2817,-23.34697 6.6306,-9.15338 13.953,-13.11714 25.3538,-13.72457 9.8364,-0.52408 17.2907,1.91882 22.9857,7.53281 6.2156,6.12725 10.5143,17.72663 10.5143,28.37133 V 201 h -25.9194 -25.9194 l 1.0297,3.75 c 3.0954,11.27252 8.3919,16.31647 19.2391,18.32169 6.9065,1.27673 17.5087,-0.80501 25.134,-4.93505 l 5.436,-2.94428 v 6.75578 6.75578 l -6.9127,3.18625 c -10.0608,4.63736 -20.0012,5.99525 -29.7609,4.06545 z m 23.4136,-48.56986 c -0.5879,-5.21629 -2.9027,-8.85045 -7.7298,-12.13576 -6.5786,-4.47733 -20.2886,-2.04008 -24.6579,4.38347 -2.5964,3.81716 -4.3523,8.01834 -4.3523,10.41358 0,1.86738 0.8163,1.95295 18.6301,1.95295 h 18.63 z m 49.7727,48.53434 c -8.002,-1.98168 -13.5582,-7.71261 -15.4349,-15.9201 -0.5659,-2.475 -1.0399,-13.6125 -1.0534,-24.75 l -0.024,-20.25 h -6 c -3.3,0 -6,-0.34399 -6,-0.76443 0,-0.42043 5.85,-6.60144 13,-13.73557 l 13,-12.97114 V 154.76443 162 h 11.5 11.5 v 6.5 6.5 h -11.5 -11.5 v 19.85078 c 0,21.81232 0.6562,25.40297 5.0588,27.6796 3.9602,2.04793 11.6253,1.79592 16.8004,-0.55234 2.3976,-1.08792 4.5565,-1.97804 4.7977,-1.97804 0.2412,0 0.3046,2.80022 0.1408,6.22271 l -0.2977,6.22272 -4.7852,1.77269 c -6.0949,2.25788 -14.0943,2.9669 -19.2021,1.70198 z m 53.827,-0.2951 c -5.9685,-1.95257 -10.0579,-5.18174 -12.6123,-9.95921 -2.0884,-3.90573 -2.2472,-5.61721 -2.5439,-27.41579 L 1366.867,175 h -6.4335 c -3.5384,0 -6.4335,-0.3311 -6.4335,-0.73579 0,-0.40468 5.9625,-6.4171 13.25,-13.36093 l 13.25,-12.62516 0.2938,6.86094 0.2938,6.86094 H 1392.5438 1404 v 6.5 6.5 h -11.5 -11.5 v 20.54966 c 0,26.27293 0.9179,28.50458 11.6843,28.40645 4.2724,-0.0389 7.4717,-0.84895 13.6167,-3.44761 1.6419,-0.69435 1.7744,-0.20078 1.5,5.58765 l -0.301,6.34928 -4.8737,1.80555 c -6.6508,2.46388 -15.1877,3.04209 -20.2866,1.37402 z m 59.8904,-0.1754 c -7.3008,-1.96556 -10.6827,-3.88328 -15.375,-8.71832 -14.4392,-14.8786 -14.5126,-43.57461 -0.1453,-56.81787 7.1584,-6.59838 12.1787,-8.41179 23.2902,-8.41266 8.6712,-6.8e-4 9.9693,0.25916 14.8793,2.97853 2.9586,1.63861 6.8993,4.97001 8.7571,7.40312 4.2028,5.50423 7.3636,15.47266 7.3636,23.22294 V 201 h -25.625 -25.625 l 0.6358,3.25 c 3.5033,17.90709 21.9328,24.34082 42.3525,14.78526 3.5675,-1.66939 6.6607,-3.03526 6.874,-3.03526 0.2132,0 0.3877,2.90201 0.3877,6.44892 v 6.44892 l -6.25,2.96729 c -10.5176,4.99342 -21.6037,6.25414 -31.5199,3.58447 z m 24.9945,-47.35858 C 1466.5252,179.43178 1459.2603,173 1450.1789,173 c -8.7808,0 -14.6753,3.7076 -18.283,11.5 -3.6362,7.85374 -4.2738,7.57863 16.8541,7.27207 L 1467.5,191.5 Z M 1634,235.63261 c -11.6826,-2.54845 -20.659,-9.70631 -25.8746,-20.63261 -2.3414,-4.90507 -2.6254,-6.68986 -2.6254,-16.5 0,-9.98998 0.2538,-11.51661 2.7641,-16.62639 3.4106,-6.94222 10.951,-14.147 18.5178,-17.69355 5.1158,-2.39777 6.8767,-2.68006 16.7181,-2.68006 10.2683,0 11.4429,0.20985 17.6586,3.1547 15.5008,7.3439 23.5608,22.82253 20.8195,39.98222 -2.6662,16.69016 -13.8867,28.21136 -30.4584,31.2748 -7.1755,1.32647 -10.3945,1.27519 -17.5197,-0.27911 z m 20.5,-13.49827 c 5.1438,-2.34267 11.0724,-8.93233 12.4279,-13.81356 1.6772,-6.04005 1.2808,-16.27 -0.8067,-20.82078 -4.8783,-10.6344 -17.1962,-16.36077 -29.0673,-13.51292 -7.192,1.72532 -12.3322,5.83841 -15.572,12.46046 -2.4498,5.00706 -2.6881,6.40315 -2.2749,13.32281 0.6805,11.39314 5.2855,18.95032 13.793,22.63535 4.9763,2.15546 16.4905,2.01013 21.5,-0.27136 z m 149.979,13.53179 c -6.0981,-2.00171 -9.2891,-4.48738 -12.27,-9.55799 -2.7055,-4.60212 -2.7094,-4.63851 -3.0255,-27.85814 L 1788.867,175 h -6.4335 c -3.5384,0 -6.4335,-0.3311 -6.4335,-0.73579 0,-0.40468 5.9625,-6.4171 13.25,-13.36093 l 13.25,-12.62516 0.2938,6.86094 0.2938,6.86094 H 1814.5438 1826 v 6.5 6.5 h -11.5 -11.5 v 20.54966 c 0,21.74547 0.6045,25.09796 4.9446,27.4207 3.1587,1.69046 12.167,1.16197 16.9146,-0.99232 2.3976,-1.08792 4.5565,-1.97804 4.7977,-1.97804 0.2412,0 0.3046,2.80022 0.1408,6.22271 l -0.2977,6.22272 -4.8737,1.80555 c -6.5766,2.43642 -15.1923,3.0416 -20.1473,1.41515 z m 141.6024,-0.2546 c -7.0357,-1.89161 -10.9907,-4.40451 -16.3984,-10.41918 -6.632,-7.37641 -9.1967,-15.10314 -9.1255,-27.49235 0.045,-7.88355 0.5285,-11.19518 2.2833,-15.64709 4.7424,-12.03153 15.1791,-19.69208 28.0867,-20.61561 20.3737,-1.45773 32.0916,9.89057 34.6041,33.5127 l 0.6648,6.25 h -26.0982 c -29.6523,0 -28.0113,-0.58817 -23.7149,8.5 4.5379,9.59887 11.591,13.80029 23.1167,13.77017 6.8948,-0.018 16.2141,-2.64647 20.9725,-5.9152 3.186,-2.18853 3.5275,-1.69203 3.5275,5.12818 v 6.48316 l -5.1189,2.59396 c -9.9458,5.03992 -22.7756,6.54635 -32.7997,3.85126 z M 1971.584,187.75 C 1970.1171,178.46718 1963.5995,173 1954,173 c -6.3779,0 -11.162,2.15995 -14.9425,6.74639 -2.7684,3.35863 -5.4024,10.57535 -4.2723,11.70549 0.3015,0.30147 8.8556,0.54812 19.0093,0.54812 h 18.4611 z m 82.0998,47.85839 c -5.0132,-1.86308 -7.5646,-4.23365 -9.8031,-9.10839 -2.3408,-5.09767 -2.3305,-9.91276 0.032,-15.11609 3.0154,-6.64003 9.3185,-10.57155 26.4269,-16.48358 l 9.8399,-3.40033 -0.4069,-5.79429 c -0.5797,-8.2521 -3.4291,-10.96168 -12.1089,-11.51436 -7.2252,-0.46007 -13.012,1.54012 -19.6375,6.78759 -2.0979,1.66158 -4.0379,3.02106 -4.3111,3.02106 -0.2732,0 -0.541,-2.95107 -0.5951,-6.55794 -0.089,-5.91671 0.1694,-6.81035 2.6406,-9.13924 5.4319,-5.11914 10.8122,-6.80282 21.739,-6.80282 11.007,0 15.3197,1.49354 20.7112,7.17259 5.0902,5.36171 5.7888,9.44455 5.7888,33.83069 0,25.4082 0.2226,26.19157 6.582,23.15903 4.54,-2.16502 4.418,-2.21462 4.418,1.79554 0,3.0666 -0.5374,3.77377 -4.75,6.25 -3.6754,2.1605 -5.973,2.77951 -10.1562,2.73628 -4.8293,-0.0499 -5.6921,-0.39817 -8.0839,-3.26323 l -2.6776,-3.20737 -5.9162,3.03983 c -7.0552,3.62511 -14.3715,4.58729 -19.7323,2.59503 z m 22.779,-11.70868 3.5235,-2.39971 0.01,-11.25 c 0,-6.1875 -0.2269,-11.25 -0.5125,-11.25 -0.2856,0 -3.7551,1.2375 -7.7098,2.75 -9.3902,3.59126 -15.7863,9.41555 -15.7355,14.32858 0.044,4.21407 1.9211,7.75959 5.0747,9.58356 3.4672,2.00539 11.1083,1.12822 15.3527,-1.76243 z M 2324.5,235.85235 c -11.8166,-4.34011 -15.3983,-19.97867 -6.6864,-29.19393 3.4752,-3.67592 8.1855,-6.0941 21.6864,-11.13331 l 11,-4.10574 0.3045,-3.61136 c 0.4348,-5.15665 -2.0459,-10.36437 -5.8821,-12.34813 -7.0634,-3.65261 -20.0747,-0.44422 -27.6724,6.82357 l -3.25,3.10888 v -7.64527 c 0,-7.45973 0.079,-7.70432 3.25,-10.07811 6.2456,-4.67524 10.0391,-6.00916 18.3829,-6.46406 13.2672,-0.72332 21.8919,3.21654 26.6431,12.1709 2.0439,3.8519 2.2121,5.72974 2.5478,28.44076 0.3919,26.50796 0.4805,26.86455 5.99,24.097 1.4774,-0.74216 3.0237,-1.51381 3.4362,-1.7148 0.4125,-0.20098 0.75,1.43183 0.75,3.62847 0,3.8139 -0.2342,4.11058 -5.1963,6.58333 -2.858,1.4242 -6.3909,2.58945 -7.8508,2.58945 -3.0316,0 -8.9371,-1.87185 -8.9847,-2.84783 -0.017,-0.35869 -0.643,-1.45798 -1.39,-2.44287 -1.2871,-1.69701 -1.6681,-1.63321 -7.2815,1.21933 -6.6431,3.37577 -15.1467,4.63164 -19.7967,2.92372 z m 22.9578,-12.2524 3.5422,-2.70173 V 209.94911 C 2351,203.9271 2350.6353,199 2350.1896,199 c -1.9463,0 -13.9237,5.23671 -17.2505,7.54218 -5.4734,3.7931 -7.5966,10.49224 -4.914,15.5048 2.9587,5.52829 13.1528,6.34296 19.4327,1.55297 z m 55.0422,12.0041 c -3.85,-0.74107 -8.6875,-2.05718 -10.75,-2.9247 l -3.75,-1.5773 V 177.55103 124 h 7 7 v 21.5 c 0,11.825 0.24,21.5 0.5332,21.5 0.2933,0 2.8808,-1.23336 5.75,-2.74079 4.5592,-2.39528 6.3514,-2.7419 14.2168,-2.74959 6.6989,-0.007 9.9319,0.45491 12.6448,1.80481 6.4826,3.22565 11.641,8.5051 15.0235,15.37581 2.7851,5.65744 3.3098,7.9218 3.6528,15.76552 0.4973,11.36934 -0.9688,18.71334 -5.1143,25.61982 -7.9707,13.27925 -26.1508,19.38894 -46.2068,15.52847 z m 25.2757,-14.4896 c 8.6479,-4.41186 12.7467,-12.86381 12.0675,-24.88409 -0.9829,-17.39427 -14.364,-27.3638 -28.5416,-21.26476 -9.4929,4.08373 -9.3851,3.7675 -9.0733,26.62193 L 2402.5,221.5 l 5.5,1.21077 c 7.1736,1.5792 14.7499,0.96763 19.7757,-1.59632 z m 67.568,14.84413 c -10.1119,-2.00057 -18.6751,-9.17068 -23.6556,-19.80733 -2.6093,-5.57262 -3.1804,-8.15404 -3.5213,-15.91801 -0.555,-12.64087 2.1191,-21.19652 8.9666,-28.6888 7.0083,-7.66817 12.8347,-10.01904 24.8666,-10.03323 8.7842,-0.0104 9.9144,0.22233 15,3.08828 9.7089,5.47135 16,17.80044 16,31.35603 V 201 h -25.6308 -25.6309 l 0.5803,3.57587 c 0.8449,5.20654 5.2372,12.10177 9.51,14.92943 8.3492,5.52523 21.2668,5.21635 33.4214,-0.79916 l 6.75,-3.3407 v 6.68 6.68001 l -6.25,3.07594 c -9.189,4.52238 -20.6442,6.08855 -30.4063,4.15719 z m 23.8809,-47.86756 C 2518.5162,179.32122 2511.2718,173 2501.9296,173 c -10.0055,0 -17.6125,6.16461 -19.5478,15.84116 l -0.6408,3.20392 18.8795,-0.27254 L 2519.5,191.5 Z m 51.2754,48.23689 c -7.4197,-1.63266 -12.4203,-5.38736 -15.7529,-11.82791 -1.8363,-3.54878 -2.108,-6.14332 -2.4089,-23 -0.1865,-10.45 -0.3389,-20.6875 -0.3387,-22.75 L 2552,175 h -6 c -3.3,0 -6,-0.34399 -6,-0.76443 0,-0.42043 5.85,-6.60144 13,-13.73557 l 13,-12.97114 V 154.76443 162 h 12.0477 12.0477 l -0.2977,6.25 -0.2977,6.25 -11.8208,0.28235 -11.8208,0.28235 0.3208,21.55145 0.3208,21.55145 3.2658,2.9162 c 2.7367,2.44381 4.1136,2.91264 8.5,2.89424 3.0351,-0.0127 7.0657,-0.85302 9.5934,-2 2.3976,-1.08792 4.5351,-1.97804 4.75,-1.97804 0.2149,0 0.3908,2.68844 0.3908,5.97432 0,5.51039 -0.2135,6.08335 -2.75,7.37839 -5.2604,2.68578 -14.6423,4.09911 -19.75,2.9752 z m 38.5,0.003 c -8.3403,-3.25518 -7.9712,-15.79409 0.5277,-17.92718 8.8856,-2.23015 15.2651,8.17479 9.2223,15.04161 -2.2669,2.576 -6.9739,3.96907 -9.75,2.88557 z M 345,179.41871 v -55.58132 l 28.25,0.39119 c 25.96745,0.35959 28.79795,0.57219 35.03167,2.63129 18.10968,5.9819 30.12398,17.93948 36.31158,36.14016 2.84609,8.37168 2.63026,25.37748 -0.4315,34 -6.52158,18.36606 -20.60353,31.12573 -39.75776,36.02456 C 397.69051,234.74157 393.2997,235 370.84004,235 H 345 v -55.58132 z m 54.88534,40.59028 c 17.6739,-4.35206 29.70788,-18.9413 30.8603,-37.41306 0.84739,-13.58268 -2.19102,-22.88141 -10.31435,-31.5659 C 410.85728,140.79461 401.60453,138 377.2899,138 H 360 v 42.14339 42.14339 l 17.75,-0.59898 c 9.7625,-0.32944 19.7234,-1.08491 22.13534,-1.67884 z M 512,198.5 V 162 h 7 7.00003 V 198.5 235 H 519 512 Z m 199.00003,-19 V 124 h 7 7 v 24.08499 24.08498 l 4.5795,-4.03102 c 12.7636,-11.23501 31.0152,-8.94923 38.8144,4.86105 l 3.1061,5.5 0.3071,28.25 0.3071,28.25 h -6.4586 -6.4587 l -0.3738,-25.75 c -0.4109,-28.29977 -0.6253,-29.38143 -6.8639,-34.63088 -2.4448,-2.0571 -4.1798,-2.61912 -8.0856,-2.61912 -5.8311,0 -9.9482,1.85472 -15.1236,6.81313 l -3.75,3.59277 V 208.70295 235 h -7 -7 z M 1001,198.5 V 162 h 7 7 v 8.5 c 0,4.675 0.3375,8.47497 0.75,8.44438 0.4125,-0.0306 2.507,-2.78461 4.6546,-6.12004 8.4196,-13.07708 19.9938,-15.29074 31.4949,-6.02365 l 2.3994,1.93339 -3.2228,5.63296 c -1.7726,3.09813 -3.6199,5.63296 -4.1051,5.63296 -0.4852,0 -2.5224,-1.1131 -4.5272,-2.47356 -9.3256,-6.32853 -18.7762,-3.29366 -24.7889,7.96045 -1.9774,3.70101 -2.1703,5.78236 -2.4814,26.76311 L 1014.8363,235 H 1007.9182 1001 Z m 84.9363,34.95442 c -14.6428,-4.51214 -23.2699,-17.82931 -23.2919,-35.95442 -0.021,-17.65357 9.1914,-30.47138 25.2706,-35.15916 5.2994,-1.545 15.2026,-1.44131 23.835,0.24957 L 1115,163.227 V 143.6135 124 h 6.5 6.5 v 55.5 55.5 l -18.75,-0.0696 c -13.1047,-0.0487 -20.124,-0.49306 -23.3137,-1.47593 z m 28.8317,-33.67125 0.268,-23.71682 -5.6814,-1.65165 c -9.4925,-2.75953 -20.3537,-0.36247 -26.0558,5.75044 -7.6977,8.25242 -8.7547,26.58823 -2.0812,36.09995 3.9452,5.62291 10.4002,7.6313 23.7824,7.39948 L 1114.5,223.5 Z M 1195,179.5 V 124 h 7 7 v 55.5 55.5 h -7 -7 z m 304,19 V 162 h 7 7 l 0.033,8.75 c 0.037,9.80813 -0.4019,9.79691 6.4667,0.16517 4.1179,-5.77447 10.8013,-9.92108 15.9458,-9.89321 4.3375,0.0235 10.5857,2.58594 14.3893,5.90112 l 2.335,2.03526 -3.627,5.97067 -3.627,5.97066 -4.2875,-3.02211 c -10.4534,-7.36826 -21.4711,-3.0782 -26.1496,10.1821 -1.1284,3.19822 -1.479,9.25811 -1.479,25.56607 V 235 h -7 -7 v -36.5 z m 202,6.5 v -30 h -5 -5 v -6.5 -6.5 h 4.8515 4.8514 l 0.5861,-8.30435 c 0.6699,-9.49342 2.3627,-15.14249 6.194,-20.67106 5.301,-7.64937 15.3542,-11.85649 24.517,-10.25999 l 4.5,0.78407 0.2887,6.47567 0.2888,6.47566 -6.3578,0.0164 c -10.8618,0.0281 -14.7291,4.44779 -15.517,17.73358 l -0.4597,7.75 h 6.6285 6.6285 v 6.5 6.5 h -6.5 -6.5 v 30 30 h -7 -7 v -30 z m 140,-25.5 V 124 h 7 7 v 24.08499 24.08498 l 4.5795,-4.03102 c 12.7636,-11.23501 31.0152,-8.94923 38.8144,4.86105 l 3.1061,5.5 0.3071,28.25 0.3071,28.25 h -6.47 -6.4701 l -0.3461,-25.75 c -0.3806,-28.31599 -0.5843,-29.34283 -6.8688,-34.63088 -2.4447,-2.0571 -4.1798,-2.61912 -8.0856,-2.61912 -5.8311,0 -9.9482,1.85472 -15.1236,6.81313 L 1855,182.4059 V 208.70295 235 h -7 -7 z m 278,0 V 124 h 6.5 6.5 v 55.5 55.5 h -6.5 -6.5 z m 117,0 V 124 h 7 7 v 24.07792 24.07793 l 4.1052,-3.51391 c 5.5584,-4.75778 10.3792,-6.91198 16.6617,-7.4453 7.7049,-0.65406 13.9133,1.4309 18.794,6.31159 7.0415,7.04149 7.6696,10.1648 8.1934,40.74177 l 0.4583,26.75 h -7.0448 -7.0449 l -0.3114,-25.75 c -0.292,-24.13725 -0.4465,-26.00053 -2.4663,-29.75 -2.7357,-5.07812 -6.8687,-7.5 -12.7992,-7.5 -5.3837,0 -9.0978,1.69683 -14.6057,6.67293 L 2250,182.23272 V 208.61636 235 h -7 -7 z M 515.5,146.84527 c -3.11462,-1.70357 -4.5,-3.95524 -4.5,-7.31389 0,-6.52106 5.98975,-10.1394 11.80583,-7.13179 6.0259,3.11614 5.7545,11.11116 -0.49009,14.43707 -2.6775,1.42604 -4.22068,1.42799 -6.81574,0.009 z"
     id="path190"
     inkscape:connector-curvature="0" />
</svg>
