<?xml version="1.0" encoding="UTF-8" standalone="no"?>
<svg
   xmlns:dc="http://purl.org/dc/elements/1.1/"
   xmlns:cc="http://creativecommons.org/ns#"
   xmlns:rdf="http://www.w3.org/1999/02/22-rdf-syntax-ns#"
   xmlns:svg="http://www.w3.org/2000/svg"
   xmlns="http://www.w3.org/2000/svg"
   viewBox="0 0 3948 3104"
   height="3104"
   width="3948"
   id="svg2"
   version="1.1">
  <metadata
     id="metadata8">
    <rdf:RDF>
      <cc:Work
         rdf:about="">
        <dc:format>image/svg+xml</dc:format>
        <dc:type
           rdf:resource="http://purl.org/dc/dcmitype/StillImage" />
        <dc:title></dc:title>
      </cc:Work>
    </rdf:RDF>
  </metadata>
  <defs
     id="defs6" />
  <path
     id="path12"
     d="m 1858.5631,3102.7393 c -157.2706,-4.6015 -330.5392,-30.3236 -471.093,-69.9351 -129.0699,-36.3749 -230.8614,-81.8248 -318.2935,-142.1177 -42.4993,-29.3075 -93.28984,-74.3051 -124.40494,-110.2157 -24.4613,-28.2315 -36.6055,-44.7603 -59.0196,-80.3292 -14.0205,-22.2488 -18.9993,-31.6491 -29.1424,-55.021 -18.826,-43.3796 -25.3086,-61.6308 -33.2173,-93.521 -7.8044,-31.4692 -9.9474,-46.0043 -14.1087,-95.6887 -2.5643,-30.6168 -2.5648,-31.3693 -0.043,-61.7616 4.2967,-51.7801 6.3388,-65.6441 14.7123,-99.8831 4.3042,-17.6 9.6501,-36.8 11.8798,-42.6666 2.2296,-5.8667 4.056,-11.6908 4.0587,-12.9424 0,-1.2518 -2.0762,-9.9518 -4.6197,-19.3334 -3.5486,-13.0892 -5.4197,-24.5022 -8.0427,-49.0576 -1.88,-17.6 -3.5523,-32.8745 -3.7162,-33.9434 -0.1639,-1.069 -38.6677,43.331 -85.564,98.6666 -46.8964,55.3356 -105.6191,124.6102 -130.4949,153.9435 l -45.2287,53.3333 -66.1645,46.0626 c -36.3905,25.3342 -101.7125,70.8068 -145.16,101.0497 l -78.9956,54.9875 -65.6711,-55.6671 C 65.512764,2469.4145 17.555964,2428.8036 9.0000839,2421.6766 4.1071439,2417.6009 0.05714386,2413.8709 8.3856901e-5,2413.3877 -0.05701614,2412.9045 29.053754,2351.1045 64.690564,2276.0544 100.32746,2201.0042 134.37746,2129.2938 140.35726,2116.6981 l 10.8724,-22.9016 102.0546,-120.4317 c 56.13,-66.2376 242.4078,-286.0319 413.9507,-488.4319 171.5429,-202.4 321.0912,-378.882 332.3295,-392.1822 l 20.43324,-24.1823 42.8373,-29.8177 c 23.5605,-16.3998 43.462,-30.2301 44.2255,-30.7339 0.916,-0.6045 0.3783,-3.7792 -1.5809,-9.33334 -1.633,-4.62949 -7.1355,-26.5408 -12.2276,-48.69179 -7.9136,-34.42418 -10.1252,-47.01348 -15.2246,-86.66666 -7.9141,-61.54068 -8.534,-68.41204 -10.7815,-119.51358 -1.6837,-38.28292 -1.6809,-49.0951 0.022,-86 2.1287,-46.141 3.3319,-57.98754 11.3033,-111.29542 4.5873,-30.67712 6.6426,-40.32652 14.4839,-68 7.8305,-27.6355 10.9761,-36.3212 21.9847,-60.705 8.2697,-18.31712 18.157,-37.31882 27.7515,-53.33334 20.3828,-34.02181 24.6548,-40.18509 47.3806,-68.35696 68.8965,-85.4068 161.6601,-148.0927 288.3915,-194.8831 267.942,-98.9268027 629.0396,-98.4882027 896.1942,1.0885 152.6455,56.8956 257.9355,138.7128 328.711,255.4299 26.6536,43.95513 41.1022,76.34368 53.707,120.39185 8.3511,29.18297 9.7439,35.89587 15.2398,73.45167 8.1934,55.98948 8.6542,60.62913 10.7218,107.95529 1.523,34.86227 1.5183,47.93641 -0.031,84 -2.0371,47.447 -3.5306,63.83269 -11.3059,124.04471 -4.3921,34.01225 -6.9679,48.41825 -14.542,81.33333 -5.0625,22 -10.4401,43.54393 -11.9503,47.8754 -1.51,4.33144 -2.7456,8.53734 -2.7456,9.34644 0,0.8091 19.5026,14.9652 43.339,31.458 l 43.3389,29.9869 83.6611,98.6128 c 91.1814,107.4774 142.8804,168.4704 317.6545,374.7609 63.3535,74.7777 141.6459,167.1596 173.9831,205.2929 32.337,38.1334 80.6509,95.1334 107.3638,126.6667 40.2879,47.5577 158.6806,187.2796 181.3319,214 4.8507,5.722 12.252,20.0779 33.6835,65.3333 15.1068,31.9 49.1106,103.5862 75.5641,159.3024 l 48.0975,101.3026 -4.342,4.2036 c -2.3882,2.312 -31.942,27.5468 -65.6754,56.0772 -33.7333,28.5304 -93.0158,78.7244 -131.739,111.5421 l -70.4058,59.6687 -118.2609,-82.3222 c -65.0435,-45.277 -130.3859,-90.7518 -145.2052,-101.0549 l -26.9444,-18.7329 -54.2352,-63.9934 c -29.8293,-35.1962 -88.434,-104.3636 -130.2324,-153.7053 -41.7985,-49.3417 -76.1609,-89.5417 -76.3611,-89.3333 -0.2,0.2084 -1.9625,15.3788 -3.9165,33.7121 -2.7539,25.8376 -4.5812,37.1105 -8.1261,50.1305 -2.5154,9.2386 -4.5734,17.9976 -4.5734,19.4647 0,1.4671 2.0686,8.3083 4.5968,15.2028 6.6104,18.0269 18.8507,70.7235 21.339,91.8687 1.165,9.9 3.2314,31.8178 4.592,48.7062 2.407,29.878 2.4074,31.5146 0.013,60.6667 -4.0893,49.7752 -6.3397,65.202 -14.0955,96.6271 -7.6854,31.1406 -13.9898,48.7866 -34.0597,95.3333 -17.8247,41.3396 -49.118,89.2011 -87.1137,133.236 -19.6138,22.7312 -28.8947,31.634 -79.9379,76.6804 -15.1512,13.3712 -63.5453,47.6645 -86.2513,61.1197 -32.4623,19.237 -77.4074,42.2622 -110.4154,56.5654 -172.2749,74.6512 -408.0174,121.4937 -645.9422,128.3502 -52.7263,1.5195 -68.4524,1.5012 -124.7244,-0.1453 z"
     style="fill:#000000;stroke-width:1.33333337" />
</svg>
