<?xml version="1.0" encoding="UTF-8" standalone="no"?>
<!-- Created with Inkscape (http://www.inkscape.org/) -->

<svg
   xmlns:dc="http://purl.org/dc/elements/1.1/"
   xmlns:cc="http://creativecommons.org/ns#"
   xmlns:rdf="http://www.w3.org/1999/02/22-rdf-syntax-ns#"
   xmlns:svg="http://www.w3.org/2000/svg"
   xmlns="http://www.w3.org/2000/svg"
   xmlns:sodipodi="http://sodipodi.sourceforge.net/DTD/sodipodi-0.dtd"
   xmlns:inkscape="http://www.inkscape.org/namespaces/inkscape"
   version="1.1"
   id="svg2"
   width="3948"
   height="2508"
   viewBox="0 0 3948 2508"
   sodipodi:docname="Sc_Qte.svg"
   inkscape:version="0.92.1 r15371">
  <metadata
     id="metadata8">
    <rdf:RDF>
      <cc:Work
         rdf:about="">
        <dc:format>image/svg+xml</dc:format>
        <dc:type
           rdf:resource="http://purl.org/dc/dcmitype/StillImage" />
        <dc:title />
      </cc:Work>
    </rdf:RDF>
  </metadata>
  <defs
     id="defs6" />
  <sodipodi:namedview
     pagecolor="#ffffff"
     bordercolor="#666666"
     borderopacity="1"
     objecttolerance="10"
     gridtolerance="10"
     guidetolerance="10"
     inkscape:pageopacity="0"
     inkscape:pageshadow="2"
     inkscape:window-width="1366"
     inkscape:window-height="692"
     id="namedview4"
     showgrid="false"
     inkscape:zoom="0.084599797"
     inkscape:cx="5.9101711"
     inkscape:cy="1254"
     inkscape:window-x="0"
     inkscape:window-y="27"
     inkscape:window-maximized="1"
     inkscape:current-layer="svg2" />
  <path
     style="fill:#000000;stroke-width:1.33333337"
     d="m 2531.6,2506.9991 c -14.1764,-2.1659 -31.4392,-10.8095 -40.2409,-20.1488 -2.3324,-2.4751 -5.9243,-7.8 -7.9816,-11.8333 -3.3175,-6.5034 -3.7429,-8.7702 -3.7591,-20.028 -0.017,-11.6606 0.3366,-13.4156 4.3376,-21.5431 5.3619,-10.8915 16.9191,-22.9259 26.14,-27.2193 3.7606,-1.751 7.5663,-3.1895 8.4571,-3.1966 3.3724,-0.027 4.6464,-5.4748 3.7221,-15.9161 -1.1384,-12.8608 0.2227,-18.0251 8.0676,-30.6116 3.376,-5.4164 6.24,-11.3787 6.3644,-13.2493 0.1948,-2.9299 -0.513,-3.5782 -5.1072,-4.6775 -7.2549,-1.7359 -14.5749,-6.9827 -24.4108,-17.4972 -9.2804,-9.9208 -13.7442,-17.7963 -16.8242,-29.6823 -9.1472,-35.3001 12.441,-69.2934 51.9017,-81.7257 7.2733,-2.2915 12.7176,-2.9565 24.6667,-3.0132 13.591,-0.064 17.3988,0.4823 33.5114,4.8116 18.8298,5.0595 38.5999,7.4855 61.3408,7.5272 9.0275,0.016 12.1052,0.5257 14.2295,2.3544 3.3891,2.9175 5.1575,12.6123 2.6635,14.6024 -0.9599,0.766 -11.0452,1.82 -22.4119,2.3421 -11.3667,0.5222 -20.8053,1.087 -20.9748,1.2551 -0.1695,0.1681 1.7744,6.2669 4.3199,13.5531 3.6022,10.311 4.631,15.3588 4.6414,22.7736 0.036,25.4101 -15.3098,48.2265 -40.6532,60.4441 -11.2349,5.4163 -18.9597,7.3549 -35.2584,8.8488 -12.5082,1.1464 -15.4392,3.6283 -16.7589,14.1911 -1.7184,13.7537 0.2665,15.3184 24.0173,18.9306 33.7415,5.132 58.3564,12.1131 70.6667,20.042 8.5083,5.48 10.4219,7.704 14.7344,17.1238 3.1264,6.8288 3.4732,9.0182 3.0623,19.3308 -0.3919,9.8364 -1.1204,12.961 -4.7246,20.2628 -10.7508,21.7805 -39.8325,43.0565 -66.4054,48.582 -19.4147,4.0369 -47.0258,5.5524 -61.3334,3.3665 z m 60.359,-20.6589 c 24.1049,-5.6834 41.641,-23.8984 41.641,-43.2536 0,-14.0592 -7.1594,-23.045 -21.8821,-27.464 -11.9941,-3.6 -45.1227,-9.9808 -56.1568,-10.8163 -9.3768,-0.7099 -11.4207,-0.4457 -16.4659,2.1281 -20.8386,10.6311 -31.0893,35.0083 -22.5393,53.6006 5.7672,12.5408 17.3003,21.1605 34.3775,25.6933 9.5797,2.5428 30.4733,2.5997 41.0256,0.112 z m -8.6063,-162.3718 c 16.7847,-7.6844 27.6305,-34.5536 23.8259,-59.0258 -5.1827,-33.3366 -31.8998,-51.6079 -57.0767,-39.0339 -21.5131,10.7441 -31.1525,46.3357 -20.3611,75.1784 3.7423,10.0023 14.0336,21.0164 22.933,24.5439 9.0962,3.6054 20.5249,2.9861 30.6789,-1.6626 z m 694.6169,96.3088 c -37.1349,-4.2246 -73.4905,-27.528 -96.6126,-61.9269 -7.3682,-10.9617 -17.725,-32.9191 -20.4043,-43.2587 -3.2076,-12.3784 -4.7717,-41.7281 -3.2493,-60.967 2.8098,-35.5074 13.2212,-59.8098 35.754,-83.4579 34.784,-36.5056 79.8313,-50.4881 138.4077,-42.9612 19.3679,2.4888 34.2615,5.3613 46.0683,8.8851 l 9,2.6861 v 32.5368 32.5368 h -9.9692 c -11.6138,0 -13.1987,-1.3637 -14.7208,-12.6667 -1.4732,-10.9388 -4.6868,-22.3738 -7.6356,-27.1701 -5.4582,-8.8775 -27.4164,-16.0961 -49.0962,-16.14 -35.304,-0.072 -66.2261,14.7403 -84.4541,40.4539 -14.8053,20.8854 -18.0857,32.9668 -19.088,70.2985 -1.1109,41.384 2.1795,65.1685 11.596,83.8227 4.8644,9.6362 17.5347,25.701 26.1609,33.1697 8.8968,7.7029 25.733,15.7349 37.8736,18.0684 22.7706,4.3765 58.0954,3.7573 68.5454,-1.2016 7.0302,-3.336 9.6632,-8.8284 12.7968,-26.6949 4.7336,-26.9876 4.9349,-27.2732 19.2369,-27.2732 h 8.7543 v 34.4954 34.4956 l -15.74,4.1647 c -8.6571,2.2907 -21.7071,5.0724 -29,6.1817 -16.7979,2.5551 -49.9436,3.5475 -64.2238,1.9228 z m -1362.5617,-2.5964 c -6.7056,-1.4537 -16.0056,-4.0022 -20.6667,-5.6632 l -8.4745,-3.0201 -0.3537,-38.3236 -0.3539,-38.3236 h 9.9252 c 7.2452,0 10.4911,0.5657 12.0205,2.0952 1.1524,1.1524 2.0952,2.3571 2.0952,2.6771 0,0.32 1.2268,9.427 2.7263,20.2381 4.7308,34.1097 8.0204,37.1425 43.7368,40.3212 29.9116,2.6621 48.2213,-2.5031 63.7447,-17.9824 10.049,-10.0205 12.4589,-16.7351 12.4589,-34.7148 0,-23.0719 -5.6648,-28.4693 -57.3301,-54.6249 -45.7799,-23.1762 -60.8123,-32.1223 -68.2364,-40.6092 -18.7644,-21.4506 -22.156,-50.9644 -8.8036,-76.6095 6.735,-12.9356 22.9732,-28.0475 38.418,-35.7533 18.2013,-9.0811 24.5225,-10.3708 50.8306,-10.3708 22.8842,0 44.4927,2.2226 62.4548,6.4242 l 10,2.3391 0.3567,32.9517 0.3565,32.9516 h -7.4442 c -12.413,0 -13.6391,-1.5533 -17.3671,-22 -1.2035,-6.6 -3.3225,-14.2241 -4.7093,-16.9425 -8.4858,-16.6341 -51.9731,-21.2625 -76.1484,-8.1047 -21.445,11.6718 -30.5831,41.2547 -19.6927,63.7514 4.6128,9.5288 19.2135,19.0149 53.3152,34.6393 42.4637,19.4556 48.2587,22.6288 58.2952,31.9211 23.4068,21.671 30.6088,43.8389 23.1001,71.1018 -4.784,17.3703 -16.4997,33.4752 -32.7101,44.9648 -21.1063,14.9599 -33.8599,18.0295 -78.0185,18.7782 -27.5434,0.4668 -32.8082,0.2113 -43.5255,-2.1122 z m 989.9391,-0.053 c -25.5483,-2.9809 -47.4554,-15.5291 -63.0392,-36.1085 -14.4039,-19.0208 -17.9948,-32.5576 -17.9948,-67.8348 0,-29.4939 1.6238,-38.801 9.5378,-54.6667 4.5807,-9.1831 8.0656,-13.7493 18.3679,-24.0671 10.5009,-10.5165 14.6879,-13.695 24.048,-18.2557 16.3376,-7.9604 25.9501,-10.2332 43.3333,-10.246 17.244,-0.013 28.3838,2.8792 41.8306,10.8593 14.8644,8.8216 24.7589,22.1735 30.087,40.6002 2.1126,7.3058 4.685,28.049 4.726,38.1093 l 0.023,5.6667 h -68.8555 -68.8554 l 0.7606,14.3333 c 1.7163,32.338 15.1452,58.6261 35.1187,68.7476 12.0272,6.0945 21.3561,8.142 37.1649,8.1565 16.9295,0.016 21.0411,-1.0822 45.713,-12.205 9.0088,-4.0614 16.8088,-6.9552 17.3333,-6.4306 0.5245,0.5246 0.9537,4.4407 0.9537,8.7026 0,9.8336 -1.7565,11.8622 -16.8333,19.4409 -24.7039,12.4179 -50.8536,17.8309 -73.4197,15.198 z m 49.5864,-137.1304 c 9.4017,-2.5971 0.9618,-34.7425 -12.0447,-45.8757 -11.5679,-9.9016 -36.1881,-11.9983 -50.3541,-4.2882 -14.115,7.6823 -26.4642,24.9911 -29.4835,41.3242 -0.7981,4.317 -1.4511,8.3392 -1.4511,8.9378 0,1.3096 88.5739,1.2166 93.3334,-0.099 z m 543.6958,135.0429 c -11.8632,-2.5472 -19.7952,-6.0642 -29.6069,-13.1276 -19.8143,-14.264 -34.4075,-34.6205 -40.8319,-56.9573 -4.3297,-15.0537 -5.0213,-43.1101 -1.4833,-60.1779 7.8357,-37.8002 33.5613,-65.4701 70.4805,-75.807 14.9135,-4.1756 38.4311,-4.1116 52.4124,0.1426 36.5324,11.116 60.2906,37.4035 68.1487,75.4042 2.4415,11.8064 2.0521,44.402 -0.6848,57.3333 -4.3307,20.4611 -16.7696,40.9136 -32.4748,53.3965 -10.5085,8.3524 -29.4791,17.3356 -41.9328,19.8566 -12.582,2.5468 -32.0009,2.5189 -44.0271,-0.064 z m 42.8958,-20.0793 c 10.4245,-3.3737 21.3494,-14.3881 27.5218,-27.7475 8.5772,-18.5641 10.3167,-27.6761 10.442,-54.6962 0.1294,-27.7672 -1.572,-37.2404 -9.8605,-54.9279 -9.1289,-19.4805 -22.4467,-30.1451 -40.1624,-32.1611 -38.088,-4.3344 -61.8057,23.9176 -64.7165,77.089 -2.6491,48.3926 14.8446,87.111 42.5488,94.1721 8.7094,2.2197 24.4893,1.4229 34.2268,-1.7284 z m -1429.2344,14.0924 c 0.5496,-3.0052 1.8845,-6.3493 2.9666,-7.4315 2.332,-2.332 10.3406,-4.3617 17.3847,-4.4061 2.8216,-0.017 5.2876,-0.7657 5.6,-1.6985 0.3071,-0.9167 1.2433,-36.3902 2.0807,-78.8299 1.367,-69.2887 1.3112,-77.3745 -0.5476,-79.2333 -1.3424,-1.3424 -5.7204,-2.346 -12.4559,-2.8551 -5.7121,-0.4319 -11.1357,-1.2623 -12.0524,-1.8455 -2.854,-1.8157 -1.8764,-7.211 1.8357,-10.131 6.5863,-5.1808 41.5012,-14.7719 53.7747,-14.7719 h 5.3896 l 0.013,42.3333 c 0.017,73.1944 1.7492,136.4407 3.8891,142.0688 1.5052,3.9591 7.8997,6.2454 17.5005,6.2571 7.6794,0.013 9.2667,1.6552 9.2667,9.6075 v 6.4 h -47.8209 -47.8211 l 0.9992,-5.4639 z m 586.6428,-0.8719 c 0,-3.5553 0.72,-7.1842 1.6,-8.0642 0.88,-0.88 4.9904,-1.6 9.1344,-1.6 8.8473,0 15.292,-1.9558 16.783,-5.0932 0.5856,-1.232 1.2752,-61.4902 1.5326,-133.9068 l 0.4677,-131.667 h -12.6721 c -15.0724,0 -19.5123,-1.3107 -19.5123,-5.7604 0,-6.1763 6.3853,-9.3649 32.6667,-16.3125 9.5333,-2.5202 20.9929,-4.9584 25.4657,-5.4182 l 8.1323,-0.836 0.8529,5.1635 c 0.4692,2.84 0.8708,43.5636 0.8924,90.4969 0.04,86.9112 1.9381,185.5667 3.7321,194 1.3014,6.117 7.4376,9.3284 17.8294,9.3312 8.9884,0 12.2089,2.2903 10.9308,7.7652 -1.8034,7.7259 -0.5835,7.536 -51.2148,7.9679 l -46.6208,0.3977 z m 956,-0.284 c 0,-8.1126 1.5946,-9.222 14.8545,-10.3336 5.1619,-0.4328 9.5829,-1.4453 9.8244,-2.2501 0.2415,-0.8048 0.7448,-37.3132 1.1184,-81.1299 l 0.6795,-79.6666 h -10.6595 c -12.7323,0 -15.8173,-1.3042 -15.8173,-6.6866 0,-3.2014 0.9225,-4.389 5,-6.436 11.503,-5.7746 40.8764,-13.5193 51.3333,-13.5348 l 6.3333,-0.013 0.052,66.3333 c 0.055,70.9828 1.4567,114.344 3.8399,118.7968 1.6935,3.1644 8.9368,5.5183 17.0135,5.5291 7.266,0.013 9.7618,2.5928 9.7618,10.1027 v 5.9048 h -46.6666 -46.6667 v -6.6198 z m 116.4396,-0.2277 c 0.446,-3.7661 1.146,-7.1825 1.5554,-7.5921 0.4096,-0.4095 4.9875,-1.1979 10.173,-1.752 11.6917,-1.2492 15.2445,-3.4279 16.424,-10.0715 0.495,-2.7887 1.2218,-62.5203 1.6152,-132.7369 l 0.715,-127.6667 -12.461,-0.1333 c -17.1624,-0.1831 -19.1279,-0.8563 -19.1279,-6.5515 0,-3.9364 0.7336,-4.9764 5.3333,-7.5615 9.0084,-5.0626 45.2423,-12.7938 61.239,-13.0664 0.7518,-0.013 1.3722,48.4675 1.578,123.3123 0.3378,122.9381 0.9957,159.9133 2.9778,167.3905 1.2398,4.6762 6.8034,7.0858 16.6262,7.201 8.3788,0.099 11.5844,1.8885 11.5586,6.4554 -0.052,9.2318 -2.2404,9.6198 -54.2521,9.6198 h -44.7656 l 0.8111,-6.8475 z m -1530.4396,3.2821 c -8.643,-1.0786 -10,-1.7462 -10,-4.9201 0,-4.7812 3.7925,-7.1869 15.8821,-10.0744 6.1099,-1.4593 11.3187,-2.8631 11.5751,-3.1196 0.2565,-0.2565 0.8808,-35.9835 1.3874,-79.3935 l 0.921,-78.927 h -12.3038 c -6.767,0 -13.4644,-0.6211 -14.8828,-1.3803 -3.4848,-1.8649 -3.3822,-8.4341 0.1834,-11.7561 3.1573,-2.9415 17.0934,-7.773 36.8125,-12.7623 22.116,-5.5957 25.2913,-4.5591 24.8353,8.1083 -0.1693,4.7032 0.2838,7.1738 1.3334,7.2713 4.4142,0.4097 8.8414,-0.7892 18.7408,-5.0757 25.9418,-11.2332 39.0416,-14.359 56.4732,-13.4751 9.1561,0.4643 13.3558,1.3817 19.2617,4.208 14.022,6.7103 24.8784,21.4892 27.5681,37.5285 0.7379,4.4 1.717,35.2572 2.1756,68.5716 0.4587,33.3144 1.4388,63.3919 2.178,66.839 1.7202,8.0202 5.605,11.5904 15.3696,14.1248 8.5063,2.2077 12.4894,4.9212 12.4894,8.508 0,5.6118 -2.501,5.9566 -43.2039,5.9566 -21.3379,0 -40.4461,-0.4614 -42.4628,-1.0254 -2.9416,-0.8226 -3.6667,-1.8046 -3.6667,-4.9658 0,-4.4289 3.6951,-6.9937 12.3282,-8.5566 2.747,-0.4974 6.647,-2.3272 8.6666,-4.0662 l 3.6719,-3.1618 v -68.7332 -68.7332 l -7.2872,-7.3783 c -10.5284,-10.66 -14.6104,-11.876 -37.0215,-11.0291 -18.4396,0.6971 -25.5997,2.1434 -38.1976,7.716 l -6.1604,2.7251 0.1751,44.2709 c 0.096,24.3491 0.5463,58.0247 1,74.8348 l 0.8249,30.564 7.6782,1.7411 c 9.8781,2.24 15.239,5.0529 16.3598,8.584 1.2179,3.8372 -0.7642,5.4287 -8.3061,6.6691 -6.2925,1.0349 -66.5803,1.2882 -74.3985,0.3126 z m -86.4836,-251.6776 c -10.8395,-3.9557 -16.348,-12.9669 -15.204,-24.872 1.2072,-12.5644 10.8334,-21.2184 23.602,-21.2184 7.9998,0 13.054,2.2634 17.8912,8.0122 9.7806,11.6237 7.041,27.5116 -6.0554,35.1166 -7.5181,4.3659 -13.8476,5.2923 -20.2338,2.9616 z m 1541.8656,0.3578 c -10.7594,-3.1187 -16.0638,-10.6151 -16.0267,-22.6496 0.064,-20.6366 23.2383,-31.891 38.7653,-18.8258 9.067,7.6294 10.5258,20.156 3.546,30.4503 -6.387,9.4203 -16.7806,13.7799 -26.2846,11.0251 z M 2615.6947,2045.8367 c -0.4012,-0.6492 -3.7771,-19.3992 -7.5019,-41.6667 -10.6913,-63.9141 -25.36,-137.9578 -72.6045,-366.4864 -20.3057,-98.2224 -44.3796,-217.8981 -57.6653,-286.6666 -5.882,-30.4457 -5.8508,-30.8387 2.7789,-34.9956 6.1195,-2.9478 40.9484,-10.1157 54.5269,-11.2218 7.3019,-0.5948 10.8734,-0.3591 12.283,0.8108 6.1605,5.1127 10.677,24.9182 75.2718,330.0732 56.5916,267.3466 67.1234,315.9662 68.6623,316.9796 2.3036,1.517 21.6145,1.1947 28.2304,-0.4712 l 5.9237,-1.4916 0.1667,-120.5084 c 0.092,-66.2796 0.3167,-121.1084 0.5,-121.8417 0.1833,-0.7333 0.4084,-34.6333 0.5,-75.3333 l 0.1667,-74 h 39.7808 39.7808 l 0.8858,96.2201 c 0.4872,52.9211 0.8859,139.7047 0.8859,192.8524 v 96.6323 l 7,-0.8788 c 23.8916,-2.9992 52.9644,-6.1594 56.6649,-6.1594 h 4.3351 l -0.031,-23.6666 c -0.017,-13.0167 -0.903,-84.5667 -1.9693,-159 -1.0663,-74.4334 -1.9524,-146.5834 -1.9693,-160.3334 l -0.031,-25 h 39.2272 39.2272 l 0.7359,8.3334 c 1.2478,14.1293 3.4393,116.4858 4.1894,195.6666 0.6743,71.1695 2.3555,130.7192 4.1314,146.3334 l 0.7961,7 h 11.6667 c 13.2836,0 16.8096,-1.7483 21.3072,-10.5643 1.397,-2.7384 14.0357,-40.9316 28.0861,-84.874 70.0284,-219.0129 81.78,-255.63 102.6655,-319.8951 12.3929,-38.1333 30.3105,-92.4333 39.8169,-120.6666 24.5548,-72.9257 25.2611,-74.4133 34.5105,-72.6976 8.9234,1.6553 48.8084,15.3544 55.5271,19.0716 9.6348,5.3305 9.7997,5.9602 5.5359,21.1346 -8.5339,30.3702 -37.1704,121.8264 -101.1864,323.158 -51.9444,163.3666 -70.2367,223.1539 -70.2367,229.5654 0,2.7838 0.2879,2.8185 16.0293,1.9289 8.8162,-0.4983 32.3662,-2.3491 52.3334,-4.1128 65.2185,-5.7611 86.6317,-5.9836 88.2398,-0.9168 1.7018,5.3617 6.1682,40.6881 6.9391,54.8831 0.6913,12.7321 0.4927,15.6305 -1.1657,17.007 -2.6311,2.1836 -20.8231,4.8024 -62.3759,8.9792 -18.7,1.8796 -59.5,6.0792 -90.6667,9.3322 -91.1821,9.5173 -179.1374,18.4732 -308,31.3617 -66.3666,6.6379 -131.0148,13.2471 -143.6626,14.6872 -25.9182,2.9509 -29.211,3.1076 -30.2427,1.438 z M 434.93334,1703.5946 v -218.0891 l 66.33333,0.5605 c 53.908,0.4555 68.33137,0.9616 77,2.702 52.35396,10.5108 85.7564,33.4471 103.359,70.9731 9.82907,20.9541 14.62339,44.3151 14.62777,71.2759 0.0141,86.7938 -59.49377,147.7521 -144.65344,148.179 -19.05777,0.096 -29.9606,-1.738 -48.23733,-8.112 l -11.096,-3.8697 v 77.2347 77.2346 H 463.6 434.93334 Z m 130.1782,22.7634 c 34.67346,-6.6341 60.66596,-32.4381 69.84238,-69.3358 2.64732,-10.6447 2.90215,-14.2468 2.26387,-32 -0.59033,-16.4198 -1.32849,-21.917 -4.11867,-30.6719 -10.6825,-33.5193 -35.04617,-52.3707 -73.11324,-56.5713 -7.12109,-0.7858 -25.27109,-1.4287 -40.33333,-1.4287 h -27.38588 v 89.8739 89.874 l 11,3.9676 c 9.53865,3.4405 14.2116,4.6692 28.33333,7.4501 6.46894,1.2739 23.96083,0.6695 33.51154,-1.1579 z M 60.786848,1778.8942 C 25.369178,1774.7766 0,1745.5586 0,1708.8852 c 0,-21.9885 6.535902,-37.4189 22.120095,-52.2224 16.561477,-15.7317 32.634573,-23.5425 91.295975,-44.3654 l 35.1494,-12.477 -0.64529,-16.735 c -0.74064,-19.2078 -2.77306,-26.3355 -9.8754,-34.633 -9.41627,-11.0008 -24.74104,-15.6456 -47.517473,-14.4022 -27.34405,1.4926 -50.942023,12.7364 -74.397483,35.4478 L 5.6,1579.6939 v -30.8021 -30.8023 l 7.666667,-7.2733 c 19.467487,-18.4687 40.843151,-27.4846 72.20917,-30.4564 16.700543,-1.5824 38.638223,0.081 53.171443,4.0336 25.21438,6.8561 47.45126,24.0969 56.88959,44.1076 9.55916,20.2669 9.212,16.3162 10.00987,113.91 0.66497,81.3382 0.9004,88.336 3.084,91.6666 1.87294,2.857 3.39642,3.6034 7.33333,3.593 5.55863,-0.015 15.95517,-4.4518 24.98135,-10.6619 l 5.98792,-4.1199 v 17.3027 17.3027 l -9.66667,6.0164 c -22.11541,13.7641 -35.70235,17.5881 -54.85921,15.4398 -16.71475,-1.8745 -26.81835,-8.9092 -32.2334,-22.4428 -1.20831,-3.0198 -2.40304,-5.4906 -2.65495,-5.4906 -0.25191,0 -4.23676,2.6274 -8.85523,5.8388 -16.26957,11.3128 -36.98115,19.762 -52.530113,21.4296 -4.32691,0.464 -9.6671,1.0388 -11.8671,1.2773 -2.2,0.2384 -8.26592,-0.063 -13.479819,-0.6685 z m 63.688592,-46.3072 c 6.11851,-2.9952 13.97456,-7.9204 17.4579,-10.945 l 6.33333,-5.4992 v -42.5053 -42.5053 l -13,4.7034 c -45.484193,16.4568 -65.047653,28.805 -73.798453,46.5803 -3.892218,7.9063 -4.167405,9.3515 -3.610934,18.9641 1.012561,17.4915 9.820474,29.626 25.614134,35.2882 5.21151,1.8684 9.48532,2.3113 18.337363,1.9004 10.22327,-0.4747 12.81322,-1.1582 22.66666,-5.9816 z m 995.20906,46.2617 c -15.9727,-1.7147 -29.3271,-8.2016 -40.7511,-19.7949 -13.4058,-13.6044 -20,-30.3138 -20,-50.6791 0,-20.0299 5.8468,-34.9728 19.2466,-49.1893 16.1895,-17.1763 33.9777,-25.7426 107.0867,-51.5706 l 21.6667,-7.6544 -0.016,-14.1384 c -0.024,-21.8396 -3.4875,-31.9536 -14.1566,-41.3449 -8.9778,-7.9027 -17.2955,-10.1281 -37.8276,-10.1212 -18.9661,0 -28.1667,1.9772 -43.8816,9.3999 -12.8349,6.0621 -25.0993,14.888 -37.1184,26.7112 l -9.6666,9.509 v -30.9933 -30.9933 l 8.6259,-8.0691 c 24.375,-22.8017 60.1116,-33.2847 100.4717,-29.4725 44.9961,4.25 72.3755,23.0961 85.4832,58.8409 5.0553,13.7859 5.4192,20.8429 5.4192,105.1075 0,56.5934 0.4593,83.5405 1.4735,86.45 3.5652,10.2269 15.3882,8.8188 34.1931,-4.0727 l 5.6667,-3.8847 v 17.3027 17.3027 l -9.6667,6.0164 c -21.8789,13.617 -36.4373,17.8417 -53.9184,15.6468 -16.9579,-2.1294 -26.0969,-8.0883 -31.9235,-20.8152 -1.8444,-4.029 -3.5808,-7.3252 -3.8586,-7.3252 -0.2778,0 -4.4014,2.7237 -9.1636,6.0528 -23.7066,16.5721 -51.9209,24.5126 -77.3848,21.7789 z m 63.4972,-46.1896 c 6.0967,-3.0497 13.935,-8.0135 17.4183,-11.0305 l 6.3334,-5.4858 v -42.4429 -42.4429 l -12.3334,4.4212 c -37.6528,13.4978 -59.7501,25.7894 -69.6153,38.7233 -16.7585,21.9716 -8.1638,53.2199 17.1204,62.2457 5.1393,1.8347 9.693,2.3286 18.4099,1.9971 10.471,-0.3983 12.6447,-0.9721 22.6667,-5.9852 z m 258.4183,46.2753 c -25.7957,-1.8256 -55.133,-8.1432 -76.5214,-16.4785 l -10.8119,-4.2135 V 1546.963 1335.6836 l 28.3235,-0.3598 28.3236,-0.3598 0.343,85.2768 0.3432,85.2768 9.3334,-5.8972 c 33.014,-20.8594 75.818,-25.5666 112,-12.3165 41.2741,15.1149 70.665,53.7201 80.1193,105.2375 2.8035,15.2761 2.7667,48.7342 -0.072,65.1422 -5.9737,34.5347 -18.6495,60.6035 -39.5467,81.3316 -30.276,30.0311 -75.9853,43.8718 -131.8345,39.9192 z m 46.9128,-55.2549 c 50.6279,-10.4023 78.2082,-61.8657 65.6972,-122.5875 -8.9348,-43.3644 -38.6174,-70.0356 -77.9433,-70.0356 -19.6651,0 -37.6953,7.0876 -56.344,22.1488 l -9.0105,7.2772 0.3438,78.2672 0.344,78.2674 9.3334,2.3386 c 24.5076,6.1408 50.6086,7.8108 67.5794,4.3239 z m 303.0872,55.2101 c -50.9273,-4.2069 -91.4646,-33.6398 -112.5118,-81.6913 -19.6866,-44.9451 -19.2468,-101.9633 1.1117,-144.1708 22.6688,-46.9972 65.1311,-72.9352 119.4001,-72.9352 62.6982,0 102.0283,32.6764 118.6319,98.5621 2.9848,11.8442 6.0348,36.4124 6.0348,48.6111 v 10.4181 h -101.3333 c -82.6378,0 -101.3334,0.3222 -101.3334,1.7462 0,5.6072 6.3911,25.9986 11.456,36.5517 13.8384,28.8332 37.9023,44.8259 72.7268,48.3336 34.3427,3.4593 73.3152,-7.5467 108.8172,-30.7303 l 4.3334,-2.8297 v 27.8755 27.8756 l -13,7.4646 c -16.4332,9.4359 -29.6976,15.0275 -45.2408,19.0711 -20.6726,5.378 -47.3976,7.6399 -69.0926,5.8477 z m 75.9228,-185.5393 c -3.9546,-33.1279 -22.2445,-56.1428 -49.636,-62.4593 -3.4577,-0.7974 -11.9868,-1.4146 -18.9534,-1.3718 -22.6615,0.1398 -38.1979,6.1311 -52.0356,20.0671 -11.617,11.6993 -19.5587,27.5144 -23.3156,46.4307 l -0.8607,4.3333 h 72.8185 72.8186 z m 209.1478,185.4877 c -13.7139,-1.1642 -29.1714,-5.8156 -40.4039,-12.158 -11.1165,-6.2768 -23.8051,-19.856 -29.5864,-31.663 -9.9307,-20.2814 -9.5616,-16.1624 -10.0683,-112.3334 l -0.4549,-86.3333 H 1970.8786 1945.6 l 0.036,-3 c 0.027,-2.174 14.566,-17.1345 52.8054,-54.3333 29.0232,-28.2334 53.307,-51.5334 53.964,-51.7778 0.6813,-0.2534 1.1946,12.2082 1.1946,29 v 29.4444 h 45.3334 45.3333 v 25.3334 25.3333 h -45.3729 -45.373 l 0.373,81 0.3729,81 3.0659,6.6667 c 4.0069,8.7133 11.0074,15.7594 19.4576,19.5842 5.7006,2.5803 8.9817,3.0728 20.1432,3.0236 16.4133,-0.072 29.3852,-3.4505 47.3333,-12.3268 6.9667,-3.4453 13.1167,-6.468 13.6667,-6.717 0.55,-0.2491 1,11.507 1,26.1248 v 26.5778 l -8.3334,3.5199 c -28.0548,11.8503 -50.1814,16.0507 -73.9294,14.0345 z m 146.721,0.052 c -12.4588,-2.3052 -24.5596,-12.4008 -29.0933,-24.2722 -3.4681,-9.081 -2.3511,-23.8802 2.4164,-32.0152 13.1019,-22.3567 42.2568,-26.3887 60.3056,-8.3399 7.9809,7.9808 11.2524,16.1329 11.2333,27.9911 -0.036,22.7662 -22.1637,40.8362 -44.862,36.6362 z M 298.93334,1554.3503 V 1335.017 H 327.6 356.26667 v 219.3333 219.3333 H 327.6 298.93334 Z m 460,0 V 1335.017 H 787.6 816.26667 v 94 c 0,51.7 0.25752,94 0.57225,94 0.31474,0 4.06474,-3.6704 8.33334,-8.1564 23.93929,-25.1586 56.84506,-37.8456 89.41726,-34.4758 42.67956,4.4155 70.40446,29.2478 82.65976,74.0355 l 3.62932,13.2633 0.4148,103 0.4148,103 H 973.73998 945.7718 l -0.52378,-97 c -0.58319,-108.003 -0.35355,-105.1366 -9.87474,-123.2554 -5.58986,-10.6376 -13.85602,-18.5999 -24.43994,-23.5418 -5.85838,-2.7353 -9.9333,-3.5329 -20.26004,-3.9656 -22.93586,-0.9608 -38.66852,6.1175 -61.268,27.5651 l -13.13863,12.4689 v 103.8644 103.8644 H 787.6 758.93334 Z M 274.26667,1135.5685 c -47.80443,-6.7839 -81.87795,-29.7319 -103.7664,-69.8849 -13.48559,-24.7384 -19.93741,-51.4897 -19.93741,-82.66667 0,-48.64142 16.04732,-87.97235 47.0109,-115.22072 11.60523,-10.21276 20.95079,-15.9115 35.69146,-21.76399 36.43196,-14.46457 84.4803,-11.97467 114.86393,5.95232 10.73728,6.33523 26.81092,21.2226 33.39707,30.93227 17.42982,25.69609 27.45677,61.01484 28.22901,99.43345 l 0.24121,12 -101.55486,0.34167 -101.55487,0.34166 0.81,3.65834 c 8.69993,39.29337 23.64008,61.29517 49.93323,73.53507 13.1934,6.1417 23.0727,8.3093 41.3034,9.0622 32.2865,1.3335 59.86309,-6.6231 96.23262,-27.7655 4.89462,-2.8454 9.24462,-5.1734 9.66667,-5.1734 0.42205,0 0.76737,12.1806 0.76737,27.0681 v 27.068 l -10.33333,6.221 c -30.95649,18.6367 -57.02968,26.0231 -95,26.9131 -12.1,0.2836 -23.8,0.2602 -26,-0.052 z m 79.31019,-182.21824 c -0.0445,-8.32967 -3.98108,-23.07887 -8.74191,-32.75336 -11.87016,-24.12139 -34.34291,-36.23789 -63.90161,-34.45349 -7.33334,0.44269 -16.21128,1.70005 -19.72879,2.79413 -24.76868,7.704 -42.96149,28.296 -50.13456,56.74605 -1.38671,5.5 -2.24933,10.45 -1.91695,11 0.33239,0.55 32.96894,1 72.52566,1 H 353.6 l -0.0232,-4.33333 z m 198.68981,181.00534 c -11.65449,-2.3454 -25.00208,-7.5231 -33.59533,-13.032 -14.39394,-9.2277 -27.16596,-26.805 -32.3928,-44.5802 C 482.32383,1063.2945 481.6,1046.8911 481.6,970.71857 v -77.03498 h -24.75114 -24.75115 l 0.41781,-4.02746 c 0.34615,-3.33659 9.45248,-12.81268 53.08448,-55.23998 l 52.66667,-51.21249 0.3588,29.22249 0.35879,29.2225 45.64121,0.3508 45.6412,0.35081 v 25.33333 25.33334 l -45.71588,0.35089 -45.71588,0.35089 0.38255,80.45232 0.38254,80.45237 4.66667,9.0884 c 7.723,15.0405 19.38455,21.255 39.33333,20.9608 17.3574,-0.256 30.6149,-4.6108 61,-20.0368 0.55,-0.2793 1,11.4603 1,26.088 v 26.5957 l -8.04292,3.6094 c -29.65565,13.3087 -61.20076,18.2746 -85.29041,13.4267 z m 220,1.0779 c -38.40665,-6.3787 -61.39817,-25.4929 -72.40429,-60.1939 -2.72815,-8.6015 -2.83403,-11.6843 -3.27075,-95.22267 L 696.1403,893.68359 H 670.87015 645.6 v -3.19596 c 0,-2.4526 12.48248,-15.36898 53.66667,-55.53221 l 53.66667,-52.33625 0.35884,29.53221 0.35884,29.53221 h 45.30782 45.30783 v 26 26 H 798.93334 753.6 v 78.42467 c 0,86.59814 0.0107,86.72014 8.36752,97.84984 2.95816,3.9396 7.1724,7.1674 13.51072,10.3481 8.44664,4.2388 10.1628,4.6151 20.66667,4.5314 15.40161,-0.1228 30.76328,-4.2368 48.45509,-12.9766 l 14.33334,-7.0807 v 26.5074 26.5075 l -8.64978,3.8808 c -25.37248,11.3839 -57.83818,17.1089 -78.01689,13.7575 z m 238.66673,0.1363 c -9.7957,-1.1459 -26.32482,-5.0455 -34.61892,-8.1674 -54.43886,-20.4907 -89.37598,-76.9339 -89.37152,-144.38547 0.005,-84.22339 50.12668,-141.79446 127.32374,-146.24896 22.7273,-1.31143 44.2985,2.6509 63.0569,11.58265 27.4022,13.04744 44.9916,33.77723 57.5418,67.81531 6.4183,17.40732 11.9929,51.5605 12.0542,73.851 l 0.014,5 h -101.3334 c -96.93297,0 -101.33333,0.10493 -101.33333,2.41554 0,5.89833 5.98528,24.64163 11.53832,36.13313 10.75249,22.2511 30.15639,38.1987 54.46171,44.7608 12.513,3.3783 38.8785,4.093 53.9479,1.4624 22.0304,-3.8457 45.4621,-12.9472 66.9791,-26.0164 4.9098,-2.9821 9.2598,-5.4221 9.6666,-5.4221 0.4069,0 0.7397,12.2566 0.7397,27.2368 v 27.2368 l -7.8199,4.7503 c -32.0248,19.4541 -58.456,27.1574 -96.1801,28.0316 -12.1,0.2805 -24.1,0.2642 -26.6666,-0.036 z m 78.8463,-185.02562 c -1.4458,-23.5012 -15.2552,-47.02171 -33.2336,-56.60408 -20.2987,-10.81911 -47.9784,-10.8998 -70.38692,-0.20519 -11.5748,5.52412 -23.806,17.6664 -30.18992,29.97046 -4.59462,8.8554 -10.36926,26.4699 -10.36926,31.62957 0,2.24835 3.75746,2.35369 72.289,2.0268 l 72.2889,-0.34481 z M 1759.6,1135.5104 c -36.028,-3.8922 -66.7854,-18.3713 -91.4392,-43.045 -28.0297,-28.0525 -42.5608,-64.9652 -42.5608,-108.11566 0,-41.379 14.0708,-75.69532 42.696,-104.12895 21.7968,-21.65086 48.2131,-35.21954 80.6374,-41.41926 11.5717,-2.2126 47.4226,-2.18384 59.3333,0.0476 33.3121,6.24097 59.1547,18.87957 81.4073,39.81337 12.8724,12.10944 20.9895,23.43784 29.4755,41.13679 13.8071,28.79701 17.6251,62.75173 10.9915,97.75151 -8.4643,44.6589 -36.2567,81.8462 -76.2248,101.9916 -9.9787,5.0296 -29.3476,11.2995 -42.0866,13.6237 -10.9833,2.0039 -42.3489,3.4117 -52.2296,2.3443 z m 33.5052,-51.8273 c 33.5974,-3.133 61.8558,-24.2073 74.1951,-55.3328 7.8277,-19.7451 9.7988,-51.50527 4.4269,-71.33337 -7.2586,-26.79327 -27.6202,-50.30686 -52.62,-60.76576 -13.634,-5.70391 -26.4376,-8.11514 -42.8405,-8.06787 -33.3781,0.0961 -59.6147,13.99956 -77.3043,40.96536 -11.7106,17.85149 -16.954,41.96485 -14.5804,67.05348 1.5171,16.03436 4.2651,26.03456 11.0326,40.14816 9.9346,20.719 30.777,38.1692 53.3906,44.7014 8.8451,2.5549 24.4151,4.4409 31.4615,3.8108 2.5667,-0.2295 8.344,-0.7603 12.8385,-1.1794 z m 629.8282,51.8345 c -10.6187,-2.0315 -25.0791,-6.3359 -30.4807,-9.0731 -20.7439,-10.5116 -34.2199,-26.9673 -41.9331,-51.2049 -2.7416,-8.615 -2.8422,-11.5533 -3.2624,-95.22267 l -0.4334,-86.33334 h -25.2786 -25.2785 v -3.15842 c 0,-2.40167 12.8587,-15.72039 53.6667,-55.58667 l 53.6666,-52.42823 0.3588,29.58666 0.359,29.58666 h 45.3077 45.3079 v 26 26 H 2449.6 2404.2667 v 78.42467 c 0,86.02264 0.028,86.35804 7.98,97.33614 7.6272,10.529 19.1045,15.5187 35.3533,15.3696 14.6018,-0.134 30.4266,-4.4363 47.6936,-12.9664 l 14.3603,-7.0942 -0.3603,26.7867 -0.3602,26.7868 -12.1604,4.9711 c -20.2652,8.2843 -36.2579,11.9296 -54.5063,12.4239 -8.8,0.2384 -17.5,0.1465 -19.3333,-0.2043 z m 560,0 c -26.9618,-3.4227 -50.5236,-12.946 -69.0035,-27.8901 -65.5324,-52.9941 -74.0701,-168.64807 -17.0431,-230.86769 22.2306,-24.25463 52.2708,-37.69866 89.2546,-39.94423 22.7766,-1.38296 44.3074,2.54785 63.1822,11.53504 32.5051,15.47715 52.2756,42.67144 63.492,87.33297 2.6663,10.61654 6.1178,38.99055 6.1178,50.29352 v 9.03982 h -101.4506 -101.4505 l 0.892,5.66667 c 1.4584,9.2655 9.2783,30.9796 14.1432,39.2731 2.4928,4.2498 8.7325,11.9351 13.8659,17.0785 10.1352,10.155 22.7657,17.3581 37.3333,21.2912 10.6016,2.8622 38.7712,4.0908 50.7688,2.2141 21.6264,-3.3829 46.2309,-12.5181 67.3871,-25.0197 6.674,-3.9438 12.3692,-7.1705 12.656,-7.1705 0.2868,0 0.5214,12.2538 0.5214,27.2306 v 27.2305 l -7.6666,4.8546 c -18.6003,11.7777 -41.9728,20.9725 -64.4319,25.3478 -10.9212,2.1276 -48.7819,3.7461 -58.5681,2.5038 z m 78.9021,-185.16734 c -1.0848,-16.77235 -8.3391,-34.03979 -19.0655,-45.38132 -23.1852,-24.51495 -68.4544,-25.89696 -97.2506,-2.96897 -12.244,9.74876 -23.9566,31.46758 -27.3388,50.69518 l -0.8816,5.01155 72.4838,-0.34488 72.4839,-0.34489 z M 24.266667,911.68359 V 692.35026 H 52.933334 81.599997 V 911.68359 1131.017 H 52.933334 24.266667 Z M 1212.2667,986.35026 V 841.68359 h 28.6667 28.6666 l 0.059,33.66667 c 0.053,30.17676 0.2659,33.39024 2.0516,31 1.0957,-1.46667 6.1286,-8.96667 11.1842,-16.66667 10.9319,-16.65012 25.2104,-32.51414 36.543,-40.60094 21.8999,-15.62743 43.9578,-16.70539 70.8284,-3.4614 13.6984,6.75164 33.2214,22.02706 32.0508,25.0776 -0.4581,1.19372 -7.1689,12.5674 -14.913,25.27484 l -14.0802,23.10441 -4.9142,-4.43971 c -14.4058,-13.01468 -33.5259,-22.44082 -47.2704,-23.30412 -29.5594,-1.85661 -57.2905,22.8521 -67.818,60.42668 -2.8997,10.34939 -2.9769,12.50007 -3.4087,94.92265 l -0.4418,84.3334 h -28.6022 -28.6022 z m 790.6667,26.00004 V 893.68359 h -20 -20 v -26 -26 h 20 20 v -15 c 0.013,-32.20484 4.8549,-61.3099 13.1609,-79.05956 5.6716,-12.11977 12.2948,-21.37336 23.1745,-32.37814 22.4038,-22.66128 48.6146,-31.94124 80.1071,-28.36198 7.4541,0.8472 16.5529,2.31251 20.2196,3.25626 l 6.6667,1.71589 0.3604,27.58043 c 0.1981,15.16924 -0.1014,27.57394 -0.6667,27.56601 -0.5649,-0.008 -3.9724,-0.90795 -7.5723,-2 -8.341,-2.53036 -25.7009,-2.51683 -36.4968,0.0284 -29.971,7.06613 -41.6246,28.76208 -41.6246,77.49396 v 19.15868 h 26 26 v 26 26 h -26 -26 v 118.66666 118.6667 h -28.6667 -28.6667 V 1012.3502 Z M 2549.6,911.68359 V 692.35026 h 28.6667 28.6667 v 94.23651 94.2365 l 11,-10.66441 c 16.7645,-16.25307 30.4297,-24.49251 49.9344,-30.10801 13.5361,-3.89712 40.4178,-4.22812 53.7322,-0.6616 16.286,4.36252 27.5943,11.01228 40.0092,23.52718 13.5234,13.63215 20.8258,26.94059 26.0219,47.42454 5.1675,20.37065 6.1235,43.21208 5.6924,136.00933 l -0.3901,84 -28.2692,0.3597 -28.2691,0.3596 -0.5028,-97.693 c -0.5459,-106.05507 -0.3795,-103.64695 -8.3115,-120.3633 -10.1465,-21.38331 -29.9634,-32.85537 -53.3141,-30.86376 -19.9533,1.70185 -35.0195,9.72368 -55,29.28444 l -12.3333,12.0742 V 1027.2626 1131.017 H 2578.2667 2549.6 Z M 230.93334,492.19625 C 120.9094,484.89025 38.592534,414.89962 17.311122,310.5621 13.070286,289.77033 13.443983,252.60349 18.131316,228.98799 37.33598,132.23206 105.66341,66.364338 206.33319,47.561177 230.68264,43.013173 272.33646,42.345071 295.6,46.129393 c 27.96312,4.548809 62.94451,14.545538 93.33334,26.672129 l 14.66666,5.852699 0.35623,33.514689 c 0.19593,18.43307 0.11895,33.51468 -0.17107,33.51468 -0.29001,0 -5.55032,-2.78546 -11.68956,-6.1899 C 323.9613,101.71054 250.23752,91.145319 192.15699,110.84084 142.5943,127.6479 104.00548,165.12203 88.243237,211.7529 c -7.09085,20.97752 -8.60763,31.10051 -8.58014,57.26403 0.0352,33.54389 3.91177,51.45244 16.59543,76.66666 7.709253,15.32544 14.803633,25.57219 25.249993,36.46978 25.09266,26.17652 56.3507,42.50669 95.13942,49.70381 17.7059,3.28528 52.16566,3.896 70.2854,1.24567 36.90768,-5.39843 71.31038,-17.52984 105.68928,-37.26922 8.44556,-4.84918 15.72046,-8.8167 16.16646,-8.8167 0.446,0 0.81092,15.20614 0.81092,33.79145 v 33.79144 l -14.33333,6.79873 c -39.56511,18.76694 -75.96589,28.04172 -121.44136,30.9428 -11.49059,0.73304 -22.09197,1.24928 -23.55864,1.1472 -1.46667,-0.102 -10.16667,-0.68361 -19.33333,-1.2923 z m 1115.33336,0.0703 c -22.6744,-2.23997 -43.5138,-8.23702 -67,-19.28092 l -12.3333,-5.79949 v -30.82992 c 0,-24.31332 0.3523,-30.6166 1.6666,-29.82068 0.9167,0.55508 5.5667,3.52221 10.3334,6.59361 22.1229,14.2549 50.8377,25.98603 70.6893,28.87944 25.3183,3.69016 48.2127,-6.77934 52.7061,-24.10222 4.1287,-15.91622 -4.7972,-26.66392 -38.8312,-46.75714 -11.677,-6.89394 -25.7309,-15.24145 -31.2309,-18.55 -47.8329,-28.77417 -67.012,-56.98781 -62.6056,-92.09674 3.1717,-25.27088 17.3526,-45.01658 40.2179,-55.99998 13.8493,-6.65253 24.2252,-9.3223 41.0886,-10.5723 27.372,-2.02895 50.8942,2.1045 78.6528,13.82132 7.8372,3.30804 15.2514,6.74725 16.4759,7.64268 1.9768,1.44548 2.186,4.72432 1.8651,29.23696 l -0.3614,27.6089 -10.6666,-6.18748 c -13.6291,-7.9059 -27.5207,-13.91461 -42.6667,-18.45512 -14.2783,-4.28038 -35.5823,-5.19538 -46.5929,-2.00116 -12.8794,3.73635 -22.7812,17.10786 -20.2214,27.30708 2.4598,9.80043 19.4072,24.0391 52.4392,44.05755 62.1095,37.64029 81.7084,59.79761 81.7084,92.37413 0,30.86708 -14.6726,55.42804 -42.6666,71.4209 -9.5011,5.42789 -25.582,10.05089 -40.1687,11.54776 -14.7384,1.51245 -16.8361,1.51005 -32.498,-0.0372 z m 450.5745,0.0681 c -14.0981,-1.44524 -24.3205,-4.45955 -36.604,-10.79355 -17.9606,-9.26151 -30.6546,-24.50192 -38.2057,-45.87021 l -3.7648,-10.65392 -0.6667,-87.33334 -0.6666,-87.33333 -25.0858,-0.36307 -25.0856,-0.36306 0.419,-3.40858 c 0.3048,-2.47934 14.7768,-17.37844 53.0857,-54.6526 l 52.6667,-51.24404 0.6666,29.01568 0.6667,29.01567 45.6667,0.35084 45.6666,0.35084 v 25.29832 25.29832 l -45.6666,0.35084 -45.6667,0.35084 -0.3817,72 c -0.2358,44.43637 0.1481,76.04499 1.0026,82.56607 3.8443,29.33577 25.7204,41.98782 60.0964,34.75661 10.9355,-2.30035 26.8068,-8.37748 36.7783,-14.08235 3.756,-2.14885 7.206,-3.907 7.6667,-3.907 0.4608,0 0.8377,11.69136 0.8377,25.9808 v 25.98082 l -7.6667,3.83222 c -22.6216,11.30755 -52.7492,17.21591 -75.7588,14.85712 z m 558.7588,-0.0107 c -43.2053,-3.83452 -79.2717,-26.15384 -102.093,-63.17928 -16.131,-26.17079 -23.8403,-55.26504 -23.8819,-90.12777 -0.072,-60.76603 26.2781,-108.47092 72.7336,-131.67654 5.8161,-2.90525 13.5747,-6.25616 17.2413,-7.44644 26.312,-8.54153 63.7311,-8.45093 88.6967,0.21475 49.8487,17.30276 78.2909,66.51181 80.2873,138.90823 l 0.3494,12.66666 -101,0.34172 c -96.3556,0.326 -101,0.4524 -101,2.74888 0,4.94718 5.6756,23.82484 9.9338,33.04136 8.9392,19.34778 20.9323,31.88079 38.7328,40.47654 37.3739,18.04762 88.427,11.85029 136,-16.50908 l 12,-7.15347 0.3747,26.86036 0.3747,26.86036 -3.708,2.98259 c -5.9603,4.79429 -33.477,18.43337 -44.6848,22.1488 -14.2155,4.7124 -26.9022,7.15148 -45.6899,8.78408 -17.1869,1.49349 -18.4715,1.49565 -34.6667,0.0583 z m 76.6667,-183.76037 c 0,-2.81603 -1.1853,-9.7544 -2.6339,-15.4186 -6.4518,-25.22656 -22.2764,-42.23152 -44.7461,-48.08413 -10.0744,-2.62408 -31.0751,-2.63424 -41.3399,-0.02 -24.124,6.14385 -41.8965,23.06057 -50.6394,48.20076 -1.7438,5.0143 -3.578,11.66506 -4.076,14.77946 l -0.9055,5.66256 h 72.1704 72.1704 z m 375.0201,183.78048 c -19.9096,-2.16804 -44.3841,-9.27315 -66.2198,-19.224 l -10.1336,-4.61804 v -34.06149 -34.06148 l 8.6217,5.27709 c 27.7163,16.96417 54.6409,25.99603 82.0449,27.52184 33.0855,1.84216 57.6014,-10.69573 69.8859,-35.74099 5.552,-11.319 7.4552,-20.10013 7.4277,-34.26868 -0.039,-20.22838 -5.5556,-34.61108 -18.6388,-48.59713 -13.9049,-14.86441 -33.466,-22.78561 -60.2913,-24.41487 L 2805.6,289.28269 v -28.28286 -28.28285 l 11.6667,-0.94263 c 41.9848,-3.39224 66.5243,-19.35226 72.9076,-47.41778 6.9296,-30.46699 -5.4492,-58.98667 -31.2575,-72.01465 -14.3684,-7.25313 -21.4321,-8.63418 -43.9834,-8.59933 -23.6484,0.0366 -34.517,2.15472 -57.8344,11.27144 -7.5067,2.93492 -14.0648,5.33623 -14.5736,5.33623 -0.509,0 -0.9254,-13.22132 -0.9254,-29.380714 V 61.588829 l 6.3334,-2.764876 c 57.2129,-24.976855 128.4488,-19.634904 168.3114,12.621618 16.6616,13.482387 28.8724,32.662769 34.954,54.904689 3.8846,14.20684 4.2248,50.74287 0.6084,65.33333 -5.7304,23.11968 -19.9248,42.92983 -40.7316,56.84626 -5.5782,3.73094 -10.1422,7.00873 -10.1422,7.28396 0,0.27521 4.2,2.55209 9.3333,5.05973 22.9311,11.20181 39.6276,33.29133 47.4755,62.81005 3.6209,13.6201 4.9933,45.9664 2.5414,59.90102 -7.658,43.52178 -31.4172,75.79538 -70.0396,95.13901 -21.26,10.64781 -56.748,16.47444 -82.9572,13.6204 z M 486.93334,267.77862 V 48.350262 h 82.29764 c 90.08961,0 117.47904,1.167125 143.70236,6.123484 93.86098,17.740267 157.89724,82.671804 174.76648,177.209844 3.51837,19.7176 3.21792,55.0018 -0.6415,75.33334 -11.0552,58.23928 -44.15316,108.31433 -93.41584,141.33205 -22.94369,15.37772 -51.97933,27.02124 -85.37581,34.23633 l -16.66667,3.60074 -102.33333,0.51046 -102.33333,0.51047 z m 183.33333,161.91107 c 70.39232,-5.57304 121.54337,-41.41242 144.07295,-100.94584 13.42345,-35.47088 14.86028,-77.37315 3.8997,-113.72692 -7.21849,-23.94214 -19.51262,-44.52316 -36.84146,-61.67462 -23.31638,-23.07767 -52.06784,-37.11242 -91.13119,-44.4848 -9.92157,-1.87249 -23.14265,-2.3626 -76.33333,-2.82974 L 549.6,105.46277 v 162.77708 162.77708 l 52.33334,-0.0303 c 28.78333,-0.0166 59.53333,-0.60025 68.33333,-1.29696 z M 1141.6,343.01693 v -144 h 28.6667 28.6667 v 144 144 H 1170.2667 1141.6 Z m 778.6667,-75.35986 V 48.297229 l 28.3333,0.359849 28.3334,0.359851 0.3424,93.666661 c 0.1882,51.51667 0.5957,93.66667 0.9054,93.66667 0.3099,0 4.0558,-3.67036 8.3244,-8.15635 10.0228,-10.53328 21.4111,-18.61662 35.3031,-25.05804 15.3479,-7.11648 26.6453,-9.64445 42.9872,-9.61908 17.8025,0.0276 30.8775,2.84726 44.8041,9.66195 9.1767,4.49036 13.49,7.7328 22.6667,17.0386 14.6916,14.89849 21.3833,27.93043 27.4721,53.50189 2.1431,9.00023 2.4178,19.80146 2.8383,111.63103 l 0.4657,101.66667 H 2134.3214 2105.6 v -96.45339 c 0,-91.73381 -0.1293,-96.95799 -2.6374,-106.76603 -4.9595,-19.39104 -15.2762,-33.06513 -30.342,-40.21634 -6.2195,-2.9521 -10.1432,-3.76898 -20.5498,-4.27816 -22.7949,-1.11536 -38.6654,6.00481 -61.3321,27.5162 L 1977.6,279.28817 v 103.86437 103.86439 h -28.6666 -28.6667 z m 1136,75.35986 v -144 h 28 28 v 32.66666 c 0,18.08774 0.5272,32.66667 1.1813,32.66667 0.6499,0 3.6728,-4.19353 6.7178,-9.31896 12.5113,-21.05981 31.879,-42.85899 46.08,-51.86489 10.957,-6.94883 19.8437,-9.61923 31.9157,-9.59062 13.4373,0.0319 23.5776,2.65778 36.7725,9.52258 10.4351,5.42892 30.5132,20.74021 30.612,23.34421 0.04,1.06792 -26.4134,45.61288 -28.7454,48.40341 -0.2279,0.27266 -4.2366,-2.54577 -8.9083,-6.26317 -10.7731,-8.57235 -26.1027,-16.86193 -35.8903,-19.40785 -21.9756,-5.71619 -50.1688,8.63942 -64.889,33.04072 -6.4934,10.76386 -11.806,27.54068 -13.4315,42.41536 -0.8267,7.56542 -1.4148,44.00681 -1.4148,87.66666 v 74.71922 h -28 -28 z m 350,141.99801 c -70.6703,-12.97423 -111.3115,-66.82629 -111.3291,-147.51791 -0.016,-74.39078 43.8051,-128.58568 114.6624,-141.80596 24.1152,-4.49929 57.2964,-2.04805 80.5434,5.95011 4.3308,1.49 8.0802,2.70908 8.3321,2.70908 0.2517,0 0.4579,-35.11193 0.4579,-78.02652 V 48.297229 l 28.3333,0.359849 28.3333,0.359851 0.3374,219.000001 0.3373,219 -70.3373,-0.14426 c -51.0118,-0.10466 -72.9018,-0.61504 -79.6707,-1.85773 z m 92.6667,-137.90221 v -91.9042 l -7,-2.59242 c -16.0218,-5.93356 -25.1498,-7.48456 -44.3334,-7.53293 -21.382,-0.0539 -30.0578,1.73652 -46,9.493 -12.4064,6.03619 -27.979,21.05108 -35.0288,33.77408 -13.5568,24.46665 -17.443,61.9354 -9.617,92.72261 4.9533,19.48654 18.0645,37.9806 32.6585,46.06654 18.3849,10.18633 27.0784,11.59904 72.3207,11.75222 l 37,0.1253 z M 1161.3411,143.83375 c -3.4424,-0.93508 -7.3424,-2.52138 -8.6667,-3.52513 -10.3891,-7.87465 -14.9132,-15.16756 -16.0017,-25.79517 -2.6982,-26.341765 24.9232,-45.208573 48.7808,-33.319808 11.0448,5.503843 18.8132,18.239583 18.8132,30.842858 0,6.27101 -3.8303,15.63547 -8.7426,21.37443 -8.1512,9.52286 -21.9768,13.73845 -34.183,10.42282 z"
     id="path20"
     inkscape:connector-curvature="0" />
  <path
     style="fill:none;fill-rule:evenodd;stroke:#000000;stroke-width:1px;stroke-linecap:butt;stroke-linejoin:miter;stroke-opacity:1"
     d="m 2176.2733,2229.7844 246.9004,975.6168"
     id="path1276"
     inkscape:connector-type="polyline"
     inkscape:connector-curvature="0"
     inkscape:connection-start="#path20" />
</svg>
