<?xml version="1.0" encoding="UTF-8" standalone="no"?>
<svg
   xmlns:dc="http://purl.org/dc/elements/1.1/"
   xmlns:cc="http://creativecommons.org/ns#"
   xmlns:rdf="http://www.w3.org/1999/02/22-rdf-syntax-ns#"
   xmlns:svg="http://www.w3.org/2000/svg"
   xmlns="http://www.w3.org/2000/svg"
   viewBox="0 0 2389.3333 1401.3333"
   height="1401.3333"
   width="2389.3333"
   id="svg2"
   version="1.1">
  <metadata
     id="metadata8">
    <rdf:RDF>
      <cc:Work
         rdf:about="">
        <dc:format>image/svg+xml</dc:format>
        <dc:type
           rdf:resource="http://purl.org/dc/dcmitype/StillImage" />
        <dc:title></dc:title>
      </cc:Work>
    </rdf:RDF>
  </metadata>
  <defs
     id="defs6" />
  <path
     id="path12"
     d="m 151.99999,1376.4269 c -48.29346,-4.7918 -86.38367,-25.1064 -99.85284,-53.2541 L 48,1314.5061 V 702.50617 90.50619 l 4.14715,-8.66667 c 13.93833,-29.128206 51.76932,-48.694674 103.18618,-53.368652 10.55262,-0.95927 337.71959,-1.272252 1049.33327,-1.003833 989.2976,0.37316 1034.5115,0.493708 1045.8315,2.788373 44.03,8.925372 73.4497,26.705136 85.3546,51.584112 l 4.1472,8.66667 v 611.99998 611.99993 l -4.1472,8.6667 c -11.9049,24.8789 -41.3242,42.6585 -85.3546,51.5841 -11.326,2.296 -56.1744,2.4055 -1049.8315,2.5635 -570.89996,0.091 -1042.79994,-0.3113 -1048.66661,-0.8935 z M 2204.6666,702.50617 V 107.17285 H 1193.9999 183.33333 V 702.50617 1297.8395 H 1193.9999 2204.6666 Z M 961.55524,1103.1749 c -13.8568,-4.9454 -22.9605,-12.4367 -27.0906,-22.2926 -2.1304,-5.0837 -2.3402,-17.7037 -0.4099,-24.6538 1.9951,-7.1837 13.8003,-19.5083 22.2786,-23.2588 l 7,-3.0966 v -11.4232 c 0,-10.9777 0.2094,-11.7704 5.371,-20.3285 2.9541,-4.8979 5.2041,-9.7613 5,-10.8076 -0.204,-1.0462 -2.61,-2.5559 -5.3465,-3.3549 -10.2184,-2.9835 -23.5227,-17.5955 -27.2267,-29.9027 -2.6835,-8.91669 -2.5172,-21.61532 0.3902,-29.78442 3.669,-10.30946 14.3812,-21.24997 26.831,-27.40303 9.2523,-4.57272 11.1731,-5.01836 23.6154,-5.47893 11.65676,-0.43151 15.38946,0.009 26.78806,3.16768 10.469,2.90025 17.3531,3.84007 32.8539,4.48527 10.7854,0.44893 20.2139,1.42037 20.9523,2.15877 0.7384,0.7384 1.514,3.43401 1.7236,5.99025 l 0.381,4.64771 -15.0588,0.37755 c -16.8183,0.42166 -17.7044,0.95254 -14.4781,8.6741 6.4781,15.50441 5.419,30.22676 -3.1257,43.44705 -8.8769,13.7343 -22.8748,21.7432 -42.32966,24.2188 -14.3109,1.8211 -16.341,3.5766 -16.341,14.1298 0,8.6262 -0.2688,8.4683 19.99996,11.7502 17.5802,2.8465 37.074,7.8691 43.739,11.2693 12.6059,6.4311 19.503,20.468 16.3054,33.1846 -3.7854,15.0542 -14.9152,27.855 -32.0456,36.8567 -12.1713,6.3959 -22.7586,8.6833 -43.99876,9.506 -15.9532,0.6179 -18.8845,0.3815 -25.7781,-2.0787 z m 59.27456,-14.2468 c 23.1541,-10.4747 29.9871,-37.7221 11.7329,-46.7862 -5.8865,-2.9229 -41.99936,-10.8872 -49.61586,-10.9422 -8.9234,-0.064 -22.9254,11.9681 -26.0455,22.3822 -4.9656,16.5737 3.9421,30.6691 23.264,36.8128 9.6338,3.0632 32.47226,2.2395 40.66446,-1.4666 z m -15.8826,-113.0132 c 12.0421,-5.0315 20.8501,-23.4303 19.2777,-40.26892 -1.4202,-15.20767 -8.9744,-27.38663 -20.2249,-32.60668 -10.18846,-4.72725 -19.90056,-2.45135 -28.83426,6.75696 -7.6874,7.92361 -10.953,17.00682 -10.8678,30.22824 0.106,16.4589 6.5113,29.3198 17.4914,35.1205 5.8904,3.1119 16.6932,3.471 23.15786,0.7699 z m -476.94721,65.17 c -5.13333,-1.0105 -11.88333,-2.8037 -15,-3.985 l -5.66667,-2.1477 v -27.223 -27.223 h 6.50342 c 3.58952,0 7.11189,0.7467 7.86148,1.6666 0.74693,0.9167 2.35541,8.5142 3.5744,16.8834 2.56864,17.6355 4.26501,21.6273 10.4349,24.5551 11.82231,5.6101 41.87344,6.2308 53.46263,1.1044 7.00736,-3.0997 17.47029,-12.3582 20.50017,-18.1404 1.43661,-2.7416 2.16445,-7.7666 2.23096,-15.4025 0.16379,-18.8062 -3.2126,-22.1463 -42.39017,-41.93421 -42.79935,-21.61724 -48.46851,-25.76424 -55.13889,-40.33429 -9.19488,-20.08424 -2.66822,-44.42639 15.86068,-59.15471 3.90524,-3.10421 11.60042,-7.80388 17.10042,-10.44372 l 10,-4.7997 24,0.0656 c 22.27411,0.0608 31.24733,0.98761 44.73922,4.6206 l 5.2608,1.41658 v 22.61527 22.61528 h -5.8368 c -3.3435,0 -6.4907,-0.78807 -7.3679,-1.84495 -0.8421,-1.01472 -2.4247,-6.56472 -3.5168,-12.33333 -1.0921,-5.76861 -3.05773,-11.98839 -4.36805,-13.82172 -8.74155,-12.23075 -41.68728,-14.29867 -56.88101,-3.57027 -12.26623,8.66128 -18.0069,24.83224 -14.04736,39.57027 3.09082,11.50457 8.7983,15.27852 60.22655,39.82357 12.87735,6.14595 18.48947,9.66815 23.68837,14.86707 8.4142,8.41426 14.253,18.41666 16.1895,27.73406 2.8991,13.9491 -4.1196,33.5041 -16.348,45.5475 -12.71124,12.519 -23.46919,17.5744 -42.4679,19.9567 -15.14791,1.8994 -41.20306,1.5608 -52.60395,-0.6835 z m 963.62061,-0.6036 c -27.2337,-7.1352 -49.7729,-26.6262 -64.1313,-55.4579 -7.3655,-14.7901 -9.4376,-25.058 -9.4662,-46.90678 -0.029,-22.70271 2.3678,-34.82641 9.9656,-50.39564 12.8242,-26.27848 37.5996,-45.3382 67.7166,-52.09423 18.8234,-4.22262 61.0325,-1.44584 80.2946,5.2823 l 5.3334,1.8629 0.3648,22.86711 0.3648,22.86711 h -7.2862 c -4.0073,0 -7.6202,-0.54068 -8.0286,-1.20152 -0.4084,-0.66083 -1.6278,-5.82786 -2.7096,-11.48228 -3.1792,-16.61602 -7.4256,-21.4422 -22.3655,-25.41938 -9.1221,-2.4284 -27.4777,-2.375 -38.0201,0.11054 -29.0219,6.84261 -49.8462,29.85629 -53.835,59.4951 -2.038,15.14301 -0.712,53.92757 2.2051,64.49747 3.3456,12.1231 9.6169,22.7541 19.3489,32.8 15.2884,15.7813 30.2307,20.5768 61.0304,19.5865 24.9068,-0.8007 26.8794,-2.356 30.3714,-23.9465 2.679,-16.5644 3.0585,-17.1066 11.9698,-17.1066 h 7.3166 l -0.3634,24.213 -0.3634,24.2131 -8.6667,2.4731 c -24.0817,6.8719 -62.356,8.6393 -81.046,3.7426 z m -262.6191,-0.5728 c -11.4855,-2.6205 -20.7218,-7.9602 -30.2495,-17.4878 -15.1553,-15.1553 -19.4187,-27.2851 -19.4187,-55.2479 0,-26.34709 3.9309,-38.8864 16.6116,-52.9905 13.6065,-15.13367 31.0553,-23.01565 51.3254,-23.18476 23.5181,-0.1962 41.8349,11.60491 49.4014,31.82824 2.1354,5.70736 4.94,23.72737 5.2938,34.01372 0.019,0.55 -22.1656,1 -49.2989,1 h -49.3333 v 9.0532 c 0,15.4861 6.1262,33.6827 14.5822,43.3136 2.3719,2.7014 8.1814,6.8163 12.9099,9.1441 7.3979,3.6421 10.4045,4.3171 21.5526,4.8394 14.5412,0.6812 22.1452,-1.2182 39.1408,-9.7771 l 9.1478,-4.6067 v 6.4767 c 0,7.5483 -1.0904,8.804 -12.6667,14.5873 -18.7761,9.3803 -41.944,12.9296 -58.9984,9.0385 z m 45.5703,-97.49803 c 2.5002,-2.50016 1.7485,-9.54663 -2.1479,-20.13401 -5.54,-15.05347 -21.2947,-22.11228 -39.2576,-17.58916 -12.2581,3.08663 -25.3359,19.59001 -27.5915,34.81886 l -0.7405,5 h 33.8209 c 28.9716,0 34.1214,-0.30048 35.9166,-2.09569 z m 392.7615,98.15803 c -16.8479,-3.0773 -25.4099,-7.6863 -37.402,-20.1337 -14.3006,-14.8434 -20.3974,-30.9047 -20.4711,-53.9286 -0.069,-21.62202 3.9637,-34.98585 14.8783,-49.3015 12.8241,-16.82029 32.378,-26.00953 55.6614,-26.15783 25.4143,-0.16186 48.0642,13.48627 59.8372,36.05621 9.292,17.81362 11.1,48.10392 4.1014,68.71572 -6.7327,19.8287 -24.3419,36.2454 -45.5606,42.475 -8.9184,2.6184 -23.367,3.6771 -31.0446,2.2747 z m 28.7929,-15.7536 c 15.5207,-8.0121 24.4692,-29.6351 24.5172,-59.2431 0.027,-16.63897 -1.5439,-25.24174 -6.6983,-36.68133 -5.1897,-11.51835 -9.468,-16.66105 -17.6061,-21.1637 -6.0915,-3.37036 -8.3976,-3.8769 -17.6724,-3.88172 -12.2596,-0.007 -17.5963,2.04754 -25.3324,9.74955 -9.5193,9.47747 -14.7147,23.90802 -16.1365,44.8204 -2.0988,30.8672 7.9024,57.6874 24.8022,66.5125 6.6948,3.4961 8.262,3.7806 18,3.2676 7.3708,-0.3883 12.3536,-1.4327 16.1263,-3.3802 z m -1026.64616,10.6912 c 1.2509,-5.3072 2.2637,-5.9877 10.5937,-7.1181 4.1292,-0.5604 7.7102,-1.2214 7.9577,-1.4689 0.2475,-0.2475 0.882,-26.0004 1.41,-57.2287 0.7162,-42.35934 0.5694,-57.02017 -0.5782,-57.72942 -0.846,-0.52287 -5.2864,-1.36411 -9.8674,-1.86941 -7.0452,-0.77711 -8.3292,-1.31831 -8.3292,-3.51067 0,-1.47573 1.7341,-3.60472 4.0268,-4.94372 5.301,-3.09592 27.9554,-9.12337 34.3066,-9.12765 l 5,-0.003 0.017,31.66666 c 0.02,36.84151 1.1327,86.50751 2.1212,94.64611 0.8416,6.9292 4.29,9.6872 12.1116,9.6872 5.9928,0 8.4169,2.2788 8.4169,7.9124 0,2.7116 -0.528,2.7543 -34.0254,2.7543 h -34.0254 z m 420.77276,-1.3333 0.4138,-5 7.5162,-0.3954 c 13.1476,-0.6916 12.0231,8.0864 12.8379,-100.21308 l 0.7127,-94.72482 -10.5334,-0.0204 c -11.9836,-0.0232 -15.3227,-1.28507 -13.0771,-4.94163 0.801,-1.30421 2.901,-3.08124 4.6667,-3.94896 5.7288,-2.81529 27.0088,-8.50996 34.877,-9.3333 l 7.6667,-0.80224 0.078,72.52326 c 0.043,39.8878 0.5588,86.87957 1.1462,104.42617 1.0326,30.8473 1.1672,31.9832 4.0694,34.3333 1.7735,1.4361 5.159,2.4305 8.2748,2.4305 5.5624,0 10.4313,1.8889 10.4313,4.0469 0,0.7075 -1.2,2.4864 -2.6667,3.9531 -2.5189,2.5188 -4.4444,2.6666 -34.7471,2.6666 h -32.0805 l 0.4138,-5 z m 683.7471,1.1633 c 0,-5.0483 1.9087,-6.3625 10.3627,-7.1351 3.8661,-0.3533 7.2819,-0.895 7.5907,-1.2037 0.3088,-0.3088 0.6708,-26.6456 0.8044,-58.5263 l 0.2432,-57.96483 -9.1672,-0.66667 c -7.9615,-0.57899 -9.1671,-1.00755 -9.1671,-3.2586 0,-1.47573 1.7341,-3.60472 4.0268,-4.94372 5.3009,-3.09592 27.9553,-9.12337 34.3065,-9.12765 l 5,-0.003 0.085,46.99999 c 0.097,53.44928 1.3949,84.34688 3.6372,86.58928 0.8344,0.8343 4.8492,1.7932 8.9218,2.131 8.1112,0.6726 8.5711,1.0139 9.3179,6.9152 l 0.5103,4.0312 h -33.2363 -33.2363 z m 84,-0.8046 c 0,-4.9887 0.12,-5.0585 11.2183,-6.5572 2.87,-0.3876 5.8475,-1.3339 6.6165,-2.103 2.7259,-2.7258 3.3347,-21.68 3.4162,-106.36514 l 0.082,-85.66666 h -9.2243 c -11.3071,0 -13.4424,-0.74877 -13.4424,-4.71352 0,-2.51464 1.3124,-3.58208 7,-5.69349 8.24,-3.05895 22.5675,-6.30848 33.3333,-7.56018 l 7.6667,-0.89136 0.1413,91.09594 c 0.1462,94.21811 0.7924,117.23801 3.3639,119.80421 0.8279,0.8262 4.1279,1.792 7.3333,2.1463 10.8026,1.194 11.8282,1.6383 11.8282,5.1239 0,1.8595 -1.1084,3.8542 -2.5791,4.6413 -1.5728,0.8417 -15.0976,1.3802 -34.6667,1.3802 h -32.0876 z m -1103.58246,-0.194 c -1.1907,-3.103 2.6373,-5.5316 11.6547,-7.3941 l 7.561,-1.5617 0.8501,-11.9759 c 0.4676,-6.5868 0.8501,-32.5586 0.8501,-57.715 v -45.73913 l -10.3333,-0.38942 c -9.964,-0.3755 -10.3334,-0.50591 -10.3334,-3.64802 0,-4.5968 5.0459,-7.13181 24.2813,-12.1988 18.6161,-4.90381 20.3854,-4.52806 20.3854,4.32918 0,3.20172 0.7097,5.48428 1.8402,5.91808 1.0121,0.38838 8.6621,-1.97346 17,-5.24855 18.3295,-7.19977 28.6661,-9.45652 38.188,-8.33741 13.3665,1.57098 22.6424,8.20161 28.9791,20.71505 2.9595,5.84428 4.5024,29.7916 4.6013,71.41442 0.04,16.9658 0.6948,32.9061 1.465,35.6792 1.5771,5.679 4.9916,8.3756 12.2958,9.7106 5.6292,1.0289 9.2474,5.4325 6.1016,7.426 -0.9924,0.6288 -15.1732,1.1525 -31.5129,1.1637 -25.3015,0.017 -29.8233,-0.2788 -30.4825,-1.9965 -1.141,-2.9735 1.6508,-5.5849 7.0542,-6.5986 2.6225,-0.492 6.2011,-2.3275 7.9525,-4.0789 l 3.1843,-3.1843 v -48.5339 -48.53386 l -7.0205,-6.63973 c -6.165,-5.83057 -7.9155,-6.74492 -14.3643,-7.50285 -10.8498,-1.27517 -28.2879,1.10527 -36.8662,5.03253 l -7.3554,3.36741 0.9483,53.0113 c 0.5216,29.1561 1.3331,53.3947 1.8033,53.8636 0.4702,0.4688 4.3429,1.8466 8.6061,3.0618 6.7064,1.9116 7.695,2.6056 7.3334,5.1476 -0.4158,2.9229 -0.5824,2.94 -32.1172,3.2957 -28.529,0.3218 -31.7843,0.1358 -32.55,-1.8595 z m -54.4174,-177.61771 c -7.1331,-2.35468 -11.3334,-8.00406 -11.3334,-15.24318 0,-10.3998 6.6459,-16.97044 17.1648,-16.97044 10.3606,0 18.6999,12.00308 14.8302,21.34545 -3.1191,7.53017 -13.7823,13.13912 -20.6616,10.86817 z m 1104.66656,0.25028 c -8.3083,-2.73714 -12,-7.59709 -12,-15.79724 0,-10.19802 6.5021,-16.66666 16.7531,-16.66666 13.3004,0 20.2541,15.17798 11.6425,25.41233 -1.9824,2.35597 -5.5632,5.10201 -7.9572,6.10229 -4.6021,1.9229 -5.2589,1.99678 -8.4384,0.94928 z m -775.234,-83.27314 c -0.3465,-1.02159 -1.3121,-6.65743 -2.1458,-12.52409 -4.583,-32.25098 -17.3624,-97.60615 -51.10026,-261.33333 -20.2182,-98.11759 -34.6157,-169.54725 -44.7357,-221.94568 -2.7751,-14.36872 -3.5667,-21.1115 -2.6133,-22.26025 2.0486,-2.46841 12.1127,-5.46139 28.4196,-8.45177 19.08,-3.4989 21.5132,-3.44103 24.1441,0.57426 3.7575,5.73458 9.9415,32.5781 37.95396,164.75011 50.4384,237.98459 62.8041,295.35934 63.8915,296.44675 1.5811,1.58104 22.2672,0.57265 24.0103,-1.17043 0.9144,-0.91449 1.4861,-34.00397 1.7045,-98.65949 0.1807,-53.50592 0.5048,-116.3335 0.7202,-139.61683 l 0.3916,-42.33334 h 27.763 27.763 l 0.9789,137.66667 c 0.5384,75.71666 1.1821,137.87025 1.4305,138.11909 0.2484,0.24884 8.4481,-0.5168 18.2215,-1.70142 9.7733,-1.18461 20.7145,-2.50754 24.3137,-2.93984 l 6.5439,-0.78601 -0.8691,-59.51257 c -0.478,-32.73192 -1.2685,-91.76259 -1.7567,-131.17925 l -0.8876,-71.66667 h 28.0082 28.0081 l 0.9623,37 c 0.5292,20.35 1.529,73.3 2.2217,117.66667 0.6928,44.36666 1.6307,85.31666 2.0844,90.99999 l 0.8249,10.33334 h 7.8908 c 10.9076,0 14.7872,-2.33276 18.1975,-10.94199 1.5377,-3.88191 16.6654,-50.55801 33.6172,-103.72468 68.8339,-215.88669 100.1408,-311.00523 104.7748,-318.33332 2.5608,-4.0496 6.5306,-3.85199 22.5554,1.12277 16.4148,5.09587 29.9469,11.38725 29.9469,13.92305 0,2.94688 -15.1207,52.31842 -42.2504,137.95417 -13.5908,42.9 -34.5907,109.2 -46.6663,147.33333 -24.2821,76.67993 -36.4166,116.92932 -36.4166,120.79152 0,3.08411 -4.4032,3.16649 42,-0.7858 21.2666,-1.81135 45.7052,-3.30364 54.3078,-3.3162 15.1414,-0.0221 15.6628,0.0731 16.313,2.97715 1.745,7.79568 4.7125,33.99469 4.7125,41.60657 0,8.22383 -0.1253,8.53973 -3.6667,9.24189 -8.133,1.61258 -16.0024,2.49343 -91,10.18599 -42.9,4.40028 -92.4,9.48695 -110,11.30371 -46.8994,4.84116 -230.5041,23.31506 -240.9686,24.24571 -7.0068,0.62316 -9.1065,0.39134 -9.5987,-1.05978 z"
     style="fill:#000000;stroke-width:1.33333325" />
</svg>
