<?xml version="1.0" encoding="UTF-8" standalone="no"?>
<!-- Created with Inkscape (http://www.inkscape.org/) -->

<svg
   xmlns:dc="http://purl.org/dc/elements/1.1/"
   xmlns:cc="http://creativecommons.org/ns#"
   xmlns:rdf="http://www.w3.org/1999/02/22-rdf-syntax-ns#"
   xmlns:svg="http://www.w3.org/2000/svg"
   xmlns="http://www.w3.org/2000/svg"
   xmlns:sodipodi="http://sodipodi.sourceforge.net/DTD/sodipodi-0.dtd"
   xmlns:inkscape="http://www.inkscape.org/namespaces/inkscape"
   version="1.1"
   id="svg2"
   width="820"
   height="484"
   viewBox="0 0 820 484"
   sodipodi:docname="Label_Final (copy).svg"
   inkscape:version="0.92.1 r15371">
  <metadata
     id="metadata8">
    <rdf:RDF>
      <cc:Work
         rdf:about="">
        <dc:format>image/svg+xml</dc:format>
        <dc:type
           rdf:resource="http://purl.org/dc/dcmitype/StillImage" />
        <dc:title />
      </cc:Work>
    </rdf:RDF>
  </metadata>
  <defs
     id="defs6" />
  <sodipodi:namedview
     pagecolor="#ffffff"
     bordercolor="#666666"
     borderopacity="1"
     objecttolerance="10"
     gridtolerance="10"
     guidetolerance="10"
     inkscape:pageopacity="0"
     inkscape:pageshadow="2"
     inkscape:window-width="1366"
     inkscape:window-height="692"
     id="namedview4"
     showgrid="false"
     inkscape:zoom="0.40731707"
     inkscape:cx="418.67279"
     inkscape:cy="181.70469"
     inkscape:window-x="0"
     inkscape:window-y="27"
     inkscape:window-maximized="1"
     inkscape:current-layer="svg2" />
  <path
     style="fill:#000000;stroke-width:2.07748318"
     d="m 209.04163,755.8698 c -22.87904,-6.05519 -33.48957,-21.60093 -28.18621,-41.2962 2.44404,-9.07636 13.33391,-20.35631 21.67294,-22.44928 4.38033,-1.09939 4.75082,-2.13136 3.92645,-10.93681 -0.74604,-7.96885 0.0611,-11.14495 4.47388,-17.6057 6.36789,-9.32315 6.7101,-11.85326 1.60311,-11.85326 -6.40218,0 -20.55338,-13.88315 -24.38928,-23.9273 -14.20006,-37.18234 25.00758,-69.47887 67.05757,-55.23741 9.09018,3.07866 18.09962,4.37531 30.4007,4.37531 16.95342,0 17.51168,0.1556 18.46547,5.1449 0.54093,2.82968 0.49408,5.63426 -0.10401,6.23245 -0.59817,0.59814 -7.00838,1.08755 -14.24495,1.08755 -7.23658,0 -13.15739,0.35326 -13.15739,0.78504 0,0.43176 1.4023,4.14119 3.11623,8.2432 11.55873,27.66398 -12.19409,57.45122 -45.81254,57.45122 -7.24573,0 -9.24077,2.66629 -9.24077,12.34979 0,5.60759 0.47346,5.85059 16.10049,8.2624 32.47556,5.01216 46.06635,10.58915 51.52388,21.14282 10.00597,19.34942 -4.88004,43.0397 -34.38464,54.72126 -10.28933,4.0738 -38.91463,6.13183 -48.82085,3.51002 z m 43.16455,-12.85691 c 16.93553,-4.70303 27.49443,-20.42849 22.51344,-33.52948 -2.87356,-7.55803 -7.30806,-9.53714 -31.84595,-14.2128 -20.09547,-3.82915 -21.36225,-3.84809 -27.2367,-0.40731 -14.02945,8.21729 -18.82413,24.23456 -10.88267,36.35481 7.69781,11.74829 28.76376,16.98453 47.45188,11.79478 z M 245.664,642.24209 c 7.86553,-4.06741 14.18472,-17.42582 14.18472,-29.98572 0,-18.68182 -11.33342,-33.23974 -25.87729,-33.23974 -20.05018,0 -31.97041,26.46547 -22.53807,50.0392 5.82876,14.56748 20.57487,20.24794 34.23064,13.18626 z m -412.87627,59.29075 c -5.83927,-1.04752 -13.0845,-2.84274 -16.1005,-3.98943 l -5.48364,-2.08488 v -23.94248 -23.94247 h 7.14391 c 6.96107,0 7.17606,0.25254 8.4013,9.86806 2.72074,21.352 3.37912,23.42462 8.50883,26.78573 6.8944,4.51738 31.53132,6.15938 43.23798,2.88174 5.29645,-1.48293 12.03854,-5.52365 15.95008,-9.55932 5.54281,-5.71871 6.923174,-8.98704 7.586983,-17.96401 1.340628,-18.12902 -2.274003,-21.78051 -39.345413,-39.74656 -17.46116,-8.46227 -34.26888,-18.07088 -37.35045,-21.35245 -21.47434,-22.86798 -13.53506,-57.02694 16.71558,-71.9193 12.31395,-6.06213 15.47751,-6.71948 32.42845,-6.73826 10.33083,-0.0122 24.62626,1.27548 31.767616,2.85987 l 12.984262,2.88074 v 20.49095 20.49097 h -6.09245 c -6.53499,0 -7.187636,-1.09473 -9.488263,-15.91548 -1.652047,-10.64267 -5.582025,-14.38495 -18.037815,-17.17636 -11.672,-2.61576 -26.88971,-0.20546 -34.66453,5.49051 -12.13602,8.89099 -16.14882,27.17689 -8.65942,39.45997 3.9415,6.46433 15.18167,12.6985 53.68121,29.77343 18.21027,8.07642 31.514878,26.05569 31.55961,42.64831 0.0061,2.36349 -1.405022,9.06752 -3.136435,14.89782 -3.839146,12.92783 -18.788321,27.43498 -33.739355,32.74167 -11.61264,4.12178 -42.7681,5.76993 -57.86754,3.06123 z m 836.51054,-0.13646 c -25.12054,-4.92428 -47.73315,-23.56616 -60.05268,-49.5076 -6.63773,-13.97711 -7.54168,-17.91211 -8.26779,-35.98969 -1.2936,-32.20743 6.5059,-53.92151 25.98547,-72.3445 20.99729,-19.85836 48.24686,-27.52993 82.22392,-23.14856 10.57388,1.36351 22.731,3.57972 27.01581,4.92493 l 7.79056,2.44582 v 20.42628 20.42627 h -7.08858 c -6.74308,0 -7.1543,-0.43037 -8.43665,-8.8293 -2.50961,-16.43711 -4.79212,-19.76959 -16.11715,-23.53116 -23.58068,-7.83225 -54.17291,0.26296 -68.27337,18.06626 -12.88409,16.26747 -15.36505,25.12294 -15.35427,54.80512 0.0105,31.44465 3.69056,43.91983 17.6193,59.74374 12.44517,14.13843 25.55264,19.14876 50.16986,19.17733 23.8263,0.0276 27.57746,-2.14598 29.75427,-17.24149 2.67082,-18.52136 2.98959,-19.09116 10.68063,-19.09116 h 7.04596 v 21.48472 21.48473 L 736.203,697.003 c -20.99252,6.21066 -48.43956,8.013 -66.90473,4.39338 z m -237.11599,-3.03551 c -13.00961,-4.00759 -27.20719,-17.00491 -33.26569,-30.45343 -4.15106,-9.21442 -4.94874,-14.33368 -4.94874,-31.75991 0,-17.41774 0.79852,-22.54717 4.94137,-31.74274 13.92738,-30.91351 52.70704,-44.7291 80.24798,-28.58904 12.98086,7.60727 19.98714,20.32852 21.29973,38.67366 l 1.02937,14.38686 h -42.86754 -42.86755 v 7.97975 c 0,10.49856 4.60945,25.45553 10.31375,33.46649 6.88101,9.66348 19.565,15.34521 34.35332,15.38841 11.65015,0.0341 17.64608,-1.93037 38.95162,-12.76163 0.85697,-0.43568 1.55812,2.40612 1.55812,6.31508 0,6.52992 -0.90526,7.55049 -11.14499,12.5644 -20.22729,9.90434 -39.54276,12.09473 -57.60075,6.53201 z m 45.88183,-86.62384 c -0.0216,-8.73895 -4.12192,-19.51104 -9.26613,-24.34377 -6.77306,-6.36295 -22.79577,-8.08319 -31.82051,-3.41634 -8.6155,4.45525 -16.98768,15.76703 -18.48114,24.97013 l -1.21127,7.46431 h 30.39532 c 30.13953,0 30.39522,-0.0393 30.38373,-4.67433 z m 329.65605,86.48186 c -14.38437,-4.41958 -30.62812,-20.87941 -36.65404,-37.14164 -6.4555,-17.42153 -5.32309,-43.02031 2.58456,-58.42577 23.416,-45.61839 88.91187,-44.57211 109.7482,1.75321 7.10356,15.79325 7.10356,45.6148 0,61.40804 -12.62196,28.06231 -44.8713,41.87172 -75.67872,32.40616 z m 37.2053,-13.35809 c 20.87506,-12.9015 26.30281,-63.27906 9.59411,-89.0477 -6.45318,-9.9523 -15.35747,-14.71895 -27.49545,-14.71895 -19.82327,0 -32.91371,17.59127 -34.72775,46.66814 -1.68843,27.06323 5.93797,49.14239 19.98566,57.86054 7.82858,4.8585 24.16632,4.47711 32.64343,-0.76203 z m -892.982929,9.56843 c 0.788549,-4.125 2.396183,-5.20033 8.541206,-5.71308 l 7.569831,-0.63162 1.038742,-48.32468 c 0.571317,-26.5786 0.727133,-49.24913 0.346259,-50.37898 -0.380886,-1.12985 -4.354059,-2.05426 -8.829296,-2.05426 -6.693162,0 -8.136824,-0.72159 -8.136824,-4.06699 0,-3.22984 2.93262,-4.94039 14.246989,-8.30993 7.835851,-2.33362 16.717093,-4.24296 19.736088,-4.24296 h 5.4890977 v 56.7153 c 0,41.3419 0.67576,57.39103 2.492998,59.20827 1.371129,1.37114 5.57803197,2.49297 9.348667,2.49297 5.927751,0 6.8556823,0.70299 6.8556823,5.19371 v 5.19371 H -19.193443 -49.02886 Z m 364.089489,-0.11219 c 0,-4.65056 0.8458,-5.19371 8.08766,-5.19371 5.45844,0 8.49761,-1.0683 9.34867,-3.28613 0.69357,-1.80737 1.26102,-39.66951 1.26102,-84.13807 v -80.85194 h -10.25831 c -8.82701,0 -10.21649,-0.55527 -9.95852,-3.97963 0.23108,-3.06761 3.65332,-4.94792 14.93263,-8.20458 8.04807,-2.32368 17.43746,-4.50601 20.86532,-4.84963 l 6.23245,-0.62476 0.54168,90.18454 c 0.37461,62.36655 1.2541,91.04294 2.85123,92.96738 1.27024,1.53057 5.31129,2.78282 8.98011,2.78282 8.00662,0 9.31985,1.05158 7.93357,6.35274 -0.98293,3.75867 -3.09925,4.03468 -30.93631,4.03468 h -29.8812 z m 594.16018,0.1255 c 0,-4.35711 1.09322,-5.15878 7.79058,-5.71308 l 7.79055,-0.64479 0.55631,-50.37896 0.55632,-50.37898 h -8.34687 c -6.9017,-5e-5 -8.34689,-0.70421 -8.34689,-4.06704 0,-3.22984 2.93262,-4.94039 14.24699,-8.30993 7.83586,-2.33362 16.71707,-4.24295 19.73607,-4.24295 h 5.4891 v 56.71529 c 0,41.34191 0.6758,57.39104 2.493,59.20828 1.3711,1.37113 5.578,2.49297 9.3487,2.49297 5.9277,0 6.8557,0.70298 6.8557,5.1937 v 5.19371 h -29.0848 -29.08476 v -5.06828 z m 72.71196,-0.1255 c 0,-4.49072 0.9279,-5.19371 6.8557,-5.19371 3.7706,0 7.9775,-1.12183 9.3486,-2.49297 1.85444,-1.8544 2.49304,-23.40633 2.49304,-84.13807 v -81.6451 h -9.94534 c -8.3679,0 -9.9937,-0.64194 -10.2502,-4.04743 -0.2418,-3.21009 2.1381,-4.77326 11.5034,-7.55576 6.4946,-1.92957 16.24904,-3.96663 21.67644,-4.52681 l 9.868,-1.0185 v 90.21934 c 0,67.40063 0.6306,90.84989 2.493,92.71233 1.3711,1.37114 5.4223,2.49297 9.0024,2.49297 7.8426,0 9.1536,1.07154 7.7725,6.35274 -0.983,3.75867 -3.0993,4.03468 -30.9363,4.03468 h -29.88124 z m -957.7198,-0.74357 c 0,-2.86393 2.278013,-4.34006 8.829308,-5.72128 l 8.829297,-1.86148 0.55698,-49.33202 0.55698,-49.33203 h -9.386291 c -8.039523,0 -9.386274,-0.60353 -9.386274,-4.20639 0,-4.66683 3.246344,-6.26062 24.035365,-11.80009 11.88252,-3.16626 13.82272,-3.23596 15.5251,-0.55781 1.07007,1.68336 1.48491,4.31359 0.9219,5.84496 -2.23646,6.0831 1.7666,6.01847 15.13309,-0.2444 27.228465,-12.7579 48.908615,-9.47303 58.126755,8.80707 4.40826,8.74186 4.67433,11.77244 4.67433,53.24083 0,47.86968 -0.0964,47.47311 12.14353,49.9211 4.55717,0.91143 6.55382,2.49752 6.55382,5.20606 0,3.61636 -2.00823,3.89528 -28.04603,3.89528 -26.11014,0 -28.04602,-0.27085 -28.04602,-3.92376 0,-2.83775 2.00785,-4.30045 7.25446,-5.28471 5.27941,-0.99041 7.58674,-2.68487 8.47497,-6.22384 0.67127,-2.6746 0.91252,-22.71398 0.53612,-44.53193 L 121.78733,597.8 l -5.76031,-5.75605 c -5.16446,-5.16067 -7.20584,-5.75151 -19.736085,-5.71232 -8.53886,0.0268 -17.02206,1.4063 -21.80634,3.5463 l -7.83053,3.50257 0.55934,46.31331 0.55936,46.3133 7.79057,1.92453 c 5.45088,1.34651 7.79055,3.06229 7.79055,5.71307 0,3.48602 -2.32257,3.78856 -29.08476,3.78856 -26.958373,0 -29.084765,-0.28218 -29.084765,-3.8598 z M -25.309779,539.31364 c -9.865864,-5.73945 -8.318362,-22.20748 2.50826,-26.69203 15.7766457,-6.53491 28.8121907,14.22696 15.5047247,24.69461 -5.9778617,4.70217 -12.1811567,5.39005 -18.0129847,1.99742 z m 957.719759,0 c -9.86586,-5.73945 -8.31837,-22.20748 2.50825,-26.69203 15.52403,-6.43026 27.77333,12.00704 15.87933,23.90107 -5.3851,5.38511 -12.1605,6.41351 -18.38758,2.79096 z M 263.27033,464.34578 c -7.2809,-47.39268 -15.26265,-88.00398 -55.04131,-280.05096 -9.1118,-43.9907 -19.93205,-97.745585 -24.045,-119.455288 -4.11296,-21.709696 -7.84112,-41.159509 -8.28481,-43.221801 -1.01898,-4.736287 4.74337,-7.044374 27.64132,-11.071615 16.26319,-2.860333 17.5207,-2.819905 20.05411,0.644729 2.92265,3.996965 9.19389,31.806186 38.56804,171.026495 10.48704,49.70378 25.75571,121.68858 33.93042,159.96621 l 14.86308,69.59569 5.90516,0.68159 c 3.24783,0.37486 8.12191,0.12535 10.83125,-0.55481 l 4.9261,-1.23637 0.53596,-122.01672 0.53597,-122.01673 24.9298,0.0926 24.9298,0.0926 0.53632,120.06169 0.53633,120.06169 7.77359,-1.13247 c 4.27549,-0.62284 13.75538,-1.74651 21.06645,-2.49703 l 13.29281,-1.36455 -1.50865,-114.02177 -1.50865,-114.02168 h 24.75977 24.75977 l 1.37011,47.07912 c 0.75358,25.89351 1.37015,65.94738 1.37015,89.00858 0,23.06123 0.6095,51.89106 1.35445,64.06627 l 1.35445,22.13675 7.47485,-0.0318 c 10.41238,-0.0443 12.07821,-1.61368 16.62066,-15.65826 2.19799,-6.79579 18.16237,-56.76217 35.47648,-111.03641 52.4228,-164.32903 78.67229,-243.867087 82.06288,-248.656964 3.14744,-4.446331 3.47673,-4.477375 14.09693,-1.328882 20.64716,6.121108 32.68776,11.381158 32.68776,14.279942 0,3.249317 -20.16499,68.416604 -53.97155,174.420124 -43.33494,135.88056 -56.3102,178.14219 -55.07328,179.37909 0.49117,0.49119 17.51455,-0.63846 37.8297,-2.51031 40.41602,-3.72399 57.97439,-4.25752 59.48853,-1.80757 0.54093,0.87524 2.1531,11.24171 3.58263,23.03659 2.02994,16.74904 2.04918,21.78512 0.0879,22.99728 -1.38118,0.85362 -13.45544,2.63144 -26.83171,3.95074 -13.37625,1.31929 -42.5504,4.30534 -64.8314,6.63565 -49.13981,5.13943 -135.03343,13.93889 -162.04369,16.60069 -74.48994,7.34087 -124.85415,12.48987 -132.32478,13.5283 -8.57223,1.19155 -8.73172,1.09931 -9.76868,-5.65056 z"
     id="path3682"
     inkscape:connector-curvature="0" />
</svg>
