<?xml version="1.0" encoding="UTF-8" standalone="no"?>
<!-- Created with Inkscape (http://www.inkscape.org/) -->

<svg
   xmlns:dc="http://purl.org/dc/elements/1.1/"
   xmlns:cc="http://creativecommons.org/ns#"
   xmlns:rdf="http://www.w3.org/1999/02/22-rdf-syntax-ns#"
   xmlns:svg="http://www.w3.org/2000/svg"
   xmlns="http://www.w3.org/2000/svg"
   xmlns:sodipodi="http://sodipodi.sourceforge.net/DTD/sodipodi-0.dtd"
   xmlns:inkscape="http://www.inkscape.org/namespaces/inkscape"
   version="1.1"
   id="svg810"
   width="1752"
   height="1680"
   viewBox="0 0 1752 1680"
   sodipodi:docname="Score_Notes.jpg.svg"
   inkscape:version="0.92.1 r15371">
  <metadata
     id="metadata816">
    <rdf:RDF>
      <cc:Work
         rdf:about="">
        <dc:format>image/svg+xml</dc:format>
        <dc:type
           rdf:resource="http://purl.org/dc/dcmitype/StillImage" />
        <dc:title></dc:title>
      </cc:Work>
    </rdf:RDF>
  </metadata>
  <defs
     id="defs814" />
  <sodipodi:namedview
     pagecolor="#ffffff"
     bordercolor="#666666"
     borderopacity="1"
     objecttolerance="10"
     gridtolerance="10"
     guidetolerance="10"
     inkscape:pageopacity="0"
     inkscape:pageshadow="2"
     inkscape:window-width="1366"
     inkscape:window-height="692"
     id="namedview812"
     showgrid="false"
     inkscape:zoom="0.29583333"
     inkscape:cx="876"
     inkscape:cy="840"
     inkscape:window-x="0"
     inkscape:window-y="27"
     inkscape:window-maximized="1"
     inkscape:current-layer="svg810" />
  <path
     style="fill:#000000"
     d="m 933.40499,1677.9921 c -1.6881,-1.8634 -1.9427,-4.0723 -2.2361,-19.4046 -0.321,-16.7713 -0.3977,-17.3197 -2.5,-17.8836 -1.1929,-0.32 -173.2814,-0.5879 -382.4189,-0.5954 -209.13749,-0.01 -380.26373,-0.3512 -380.28053,-0.7637 -0.0429,-1.0542 -0.0475,-1438.47184 -0.005,-1439.99997 0.0278,-0.989 16.29601,-1.25 77.91267,-1.25 61.1335,0 78.07987,-0.26876 78.81857,-1.25 0.55591,-0.73845 0.64446,-5.13776 0.21638,-10.75 -1.97608,-25.90683 -0.47979,-55.08047 3.56461,-69.5 4.6859,-16.706668 13.22249,-34.234618 24.10785,-49.499998 9.16406,-12.85146 26.10697,-27.88073 32.3791,-28.722 3.62481,-0.48619 4.00732,-0.25542 8.04841,4.85578 6.71263,8.49017 12.55399,17.89023 19.01064,30.59237 5.63,11.07503 14.97731,32.666558 14.97731,34.595378 0,0.48192 0.62804,2.29422 1.39564,4.02735 0.7676,1.73312 2.37492,6.52612 3.57182,10.65112 7.25563,25.00587 8.49523,33.07271 8.52843,55.5 l 0.028,19 h 304.488 304.48801 l 0.5,-17.14694 c 0.4383,-15.03217 0.7348,-17.40632 2.4049,-19.25 2.2091,-2.43871 5.387,-2.70598 8.1539,-0.68575 1.7603,1.28528 1.9877,3.07843 2.4412,19.25 l 0.5,17.83269 h 135.5 135.5 l 0.2695,-21.75 0.2695,-21.75 h 41.9805 41.9805 v 761.5 761.49997 h -41.9774 -41.9775 l -0.2725,-18.25 -0.2726,-18.25 -192.1783,-0.2525 c -123.4206,-0.1622 -193.09831,0.097 -194.74991,0.7252 l -2.5718,0.9778 v 17.0247 c 0,15.6915 -0.1567,17.1814 -2,19.0248 -2.5748,2.5747 -5.2016,2.5392 -7.595,-0.1027 z m -287.2226,-47.3973 c 1.6341,-1.375 3.949,-2.5025 5.1443,-2.5056 7.2258,-0.019 17.4266,-7.0438 21.4142,-14.748 3.1343,-6.0554 5.4285,-14.5394 5.0817,-18.7919 l -0.3226,-3.9545 -35.7545,-0.5 -35.7545,-0.5 -2.4955,-2.9055 c -4.2042,-4.8951 -3.0132,-9.8217 4.3008,-17.7905 6.3826,-6.954 17.6166,-24.3269 16.6951,-25.818 -0.3975,-0.6432 -77.3906,-0.986 -221.44342,-0.986 -200.44923,0 -220.89002,0.146 -221.44098,1.5818 -1.0917,2.8449 -0.68764,85.399 0.42819,87.4839 1.01885,1.9038 4.66518,1.9343 231.10565,1.9343 h 230.07046 z m 284.3176,-43 v -45 l -101,-0.2746 c -55.55,-0.1511 -102.0125,-0.03 -103.25,0.269 -2.2165,0.5356 -2.25,0.7809 -2.25,16.4895 0,14.7416 0.1461,16.0239 1.9343,16.9809 1.0638,0.5694 8.023,1.0352 15.4648,1.0352 12.3538,0 13.6206,0.1682 14.5657,1.9343 1.389,2.5952 1.3094,6.3915 -0.1648,7.8657 -0.8136,0.8136 -5.5035,1.2 -14.5657,1.2 -7.3512,0 -14.2362,0.4658 -15.3,1.0352 -2.3031,1.2325 -2.4505,4.7613 -0.5625,13.4648 3.068,14.1429 11.4476,23.1288 23.615,25.3234 3.5669,0.6434 6.0163,1.7105 7,3.0498 1.5099,2.0556 1.7042,2.0597 88.0132,1.8435 l 86.5,-0.2167 z m 402.00001,0 v -45 l -193.3945,-0.2525 c -142.11581,-0.1856 -193.75381,0.046 -194.75001,0.8724 -1.1011,0.9139 -1.3555,8.9714 -1.3555,42.9374 0,24.7756 0.3978,42.8587 0.9762,44.3801 l 0.9762,2.5677 193.77381,-0.2526 193.7738,-0.2525 z m -655.43421,-11.5352 c 1.7826,-0.954 1.9342,-2.2316 1.9342,-16.3 0,-10.5393 -0.3715,-15.6363 -1.2,-16.4648 -0.8398,-0.8398 -6.3343,-1.2 -18.3044,-1.2 h -17.1045 l -6.7291,7.43 c -15.3653,16.9656 -21.5902,24.9516 -20.4861,26.282 1.3664,1.6464 58.8472,1.8812 61.8899,0.2528 z M 253.5,1528.2301 c 4.95,-2.9506 11.475,-6.9252 14.5,-8.8324 3.025,-1.9072 9.325,-5.873 14,-8.8128 20.5962,-12.9514 34.36561,-23.4919 58.96644,-45.1387 14.7647,-12.9918 20.277,-18.8487 19.84606,-21.0867 -0.32118,-1.668 -5.16921,-1.7787 -88.4993,-2.0201 -79.15939,-0.2294 -88.32048,-0.094 -89.73635,1.3214 -1.38632,1.3863 -1.57685,6.7114 -1.57685,44.0712 0,28.1099 0.36001,43.167 1.06355,44.4815 1.03137,1.9272 1.99196,1.9781 31.75,1.6843 l 30.68645,-0.303 z m 377.87119,3.6147 c 4.6997,-4.2592 13.7327,-24.661 17.1567,-38.75 0.7352,-3.025 1.7751,-7.3 2.311,-9.5 2.8928,-11.876 4.2624,-22.7323 3.9738,-31.5 l -0.3127,-9.5 -120,-0.292 c -80.4954,-0.1959 -121.18137,0.048 -123.58859,0.7418 -2.11219,0.6084 -6.22634,3.5549 -10,7.1617 -22.24698,21.2633 -45.25609,37.4582 -85.4114,60.1167 -3.23603,1.826 -38.64589,19.6538 -39.80235,20.0392 -0.58161,0.1939 -0.76563,1.1131 -0.40894,2.0426 0.60548,1.5778 12.3602,1.69 177.12418,1.69 h 176.4756 z m 46.0574,0.6786 c 1.0127,-1.0128 1.5832,-3.4126 1.6047,-6.75 0.039,-6.1058 1.4151,-8.099 8.4283,-12.209 9.1445,-5.359 17.2231,-14.627 23.9444,-27.4696 3.329,-6.3608 6.3566,-10 8.3194,-10 3.4325,0 4.2746,6.1924 4.2746,31.4327 0,23.1959 0.1027,24.5519 1.9343,25.5321 1.2962,0.6937 34.7996,1.0352 101.5657,1.0352 66.7662,0 100.2695,-0.3415 101.5658,-1.0352 1.8672,-0.9993 1.9342,-2.5563 1.9342,-44.9648 0,-42.4085 -0.067,-43.9655 -1.9342,-44.9648 -2.0936,-1.1204 -199.5917,-1.5381 -202.484,-0.4282 -0.87,0.3338 -1.5818,1.3888 -1.5818,2.3444 0,0.9556 -2.1375,4.1925 -4.75,7.1932 -2.6125,3.0007 -7,8.089 -9.75,11.3073 -2.75,3.2183 -5.4799,6.3458 -6.0665,6.9498 -1.0618,1.0933 -12.4346,14.193 -21.2866,24.5188 -2.5558,2.9813 -5.3512,6.1313 -6.2119,7 -0.8608,0.8687 -5.4864,6.1786 -10.2792,11.7997 -4.7928,5.6211 -10.051,11.6839 -11.6849,13.4729 -5.5335,6.0583 -4.475,6.8069 9.6244,6.8069 8.9047,0 11.5908,-0.3289 12.8333,-1.5714 z m 654.96441,-0.01 c 0.7927,-2.0658 0.7927,-86.7706 0,-88.8364 -0.5506,-1.4348 -18.4852,-1.5818 -193,-1.5818 -191.05971,0 -192.40681,0.014 -194.39301,2 -1.9368,1.9368 -2,3.3333 -2,44.1713 0,37.8374 0.1701,42.3592 1.655,44 1.5924,1.7596 8.9415,1.8287 194.39301,1.8287 174.8294,0 192.7944,-0.147 193.345,-1.5818 z m -635.65731,-87.5436 c 9.6442,-2.278 8.632,-2.7398 -6.1524,-2.8069 -8.2041,-0.037 -14.5804,0.2698 -14.1694,0.6823 0.8094,0.8124 9.6945,2.8879 13.3218,3.1119 1.2296,0.076 4.3796,-0.3683 7,-0.9873 z m -325.04537,-12.125 c 2.7585,-3.044 11.94118,-16.7373 13.27151,-19.7905 0.5894,-1.3527 2.21913,-4.4845 3.62162,-6.9595 9.19121,-16.2198 16.79789,-42.2457 16.22115,-55.5 l -0.3046,-7 -35,-0.2884 c -19.25,-0.1586 -36.45887,-0.026 -38.24194,0.2938 -2.45176,0.4403 -3.40568,1.2346 -3.9137,3.2587 -1.59159,6.3414 -8.63469,15.9474 -14.65434,19.9869 -7.25103,4.8658 -13.21964,6.5789 -22.76515,6.5341 -17.88812,-0.084 -33.69622,-10.184 -39.99904,-25.5562 -0.62491,-1.5241 -1.95928,-3.2116 -2.96527,-3.75 -1.08037,-0.5782 -14.53104,-0.9789 -32.85963,-0.9789 -29.65555,0 -31.07643,0.086 -32.06575,1.9343 -1.56797,2.9297 -1.41151,87.2894 0.16482,88.8657 0.91615,0.9162 23.22793,1.2 94.32569,1.2 h 93.12568 z m 273.49027,-0.2469 c 1.0951,-2.4036 5.7867,-4.4842 10.1413,-4.4975 2.5366,-0.01 9.8534,-4.447 12.7765,-7.7517 5.7995,-6.5566 10.3803,-18.4737 9.7293,-25.3113 l -0.3277,-3.4426 -35.1858,-0.5 -35.1859,-0.5 -3.0641,-2.9371 c -5.0927,-4.8815 -4.3828,-7.6184 5.2404,-20.2028 10.0286,-13.1145 15.0037,-21.1143 14.2891,-22.9764 -0.4462,-1.1629 -13.7918,-1.3837 -83.628,-1.3837 -52.8679,0 -83.7694,0.3598 -84.9451,0.989 -1.4518,0.777 -1.9878,2.6522 -2.5008,8.75 -0.6113,7.2668 -1.5128,11.3943 -5.1894,23.761 -1.7021,5.7252 -8.6969,22.0732 -11.9804,28 -1.2188,2.2 -3.14697,5.8 -4.28474,8 -1.13778,2.2 -4.72488,7.6 -7.97134,12 -4.30531,5.8351 -5.62478,8.3383 -4.87583,9.25 0.81035,0.9865 24.72091,1.25 113.42581,1.25 h 112.399 z m -165.6806,-24.656 c -7.6708,-2.8186 -13.5,-10.8045 -13.5,-18.4947 0,-5.1951 3.5935,-12.0152 8.3064,-15.7649 3.2284,-2.5687 4.8536,-3.0877 10.7036,-3.4182 7.4983,-0.4237 10.9193,0.9332 16.0071,6.3489 2.2968,2.4448 2.4829,3.3809 2.4829,12.489 0,8.377 -0.3069,10.2572 -2.0567,12.6008 -4.2451,5.686 -15.0715,8.7642 -21.9433,6.2391 z m 449.9182,26.5459 c 1.4022,-0.5381 1.5818,-4.7271 1.5818,-36.8895 0,-28.68 0.3267,-38.0046 1.559,-44.5007 0.8574,-4.52 1.27,-8.5072 0.9168,-8.8605 -1.1672,-1.1676 -205.3623,-1.2734 -207.5407,-0.1076 -1.8701,1.0009 -1.9694,1.9746 -1.7102,16.7639 l 0.2751,15.7014 15.2872,0.5 c 16.5028,0.5398 17.1667,0.7789 17.1975,6.1933 0.028,4.8515 -2.8652,5.8067 -17.5847,5.8067 -16.3213,0 -16.2349,-0.064 -14.5546,10.7445 1.4864,9.5607 4.9094,16.8978 10.0499,21.5419 5.1082,4.615 8.4652,6.2881 14.3273,7.1409 3.6565,0.5319 5.1957,1.3514 6.8181,3.6299 l 2.0955,2.9428 h 84.8501 c 46.6676,0 85.5619,-0.2731 86.4319,-0.607 z M 1332.5,1389.0948 v -45.5 l -135.5,-0.274 c -74.525,-0.1507 -136.4351,-0.049 -137.5779,0.2259 -1.1741,0.2824 -3.2146,2.5882 -4.6911,5.3011 -9.2597,17.013 -34.0653,36.0408 -55.72781,42.7473 -14.3678,4.4482 -35.1953,3.7688 -46.3736,-1.5127 -3.6908,-1.7438 -7.3673,-2.9185 -8.17,-2.6105 -1.2195,0.468 -1.4596,4.2574 -1.4596,23.0418 0,20.3557 0.1655,22.5782 1.75,23.5024 1.1775,0.6868 64.88691,0.9484 194.75001,0.7997 l 193,-0.221 z m -653.93941,-14.3853 c 0.3292,-1.3119 0.4503,-8.5292 0.269,-16.0384 -0.2605,-10.7895 -0.6442,-13.8516 -1.8296,-14.5994 -2.0022,-1.2631 -32.6251,-1.2479 -34.9891,0.017 -2.9729,1.591 -28.1746,30.9319 -27.5024,32.0195 0.3798,0.6146 12.4523,0.9863 32.0315,0.9863 h 31.4219 l 0.5987,-2.3853 z m -432.20857,-43.8647 c 0.34683,-2.8875 0.62874,-6.825 0.62647,-8.75 -0.005,-4.2422 2.6817,-17.0002 4.73827,-22.5 2.62299,-7.0146 9.24287,-19.8346 12.90926,-25 5.06948,-7.1422 18.63355,-20.4774 24.41194,-24 2.70658,-1.65 4.78028,-3.45 4.60822,-4 -0.20367,-0.651 -19.82696,-1 -56.22951,-1 H 181.5 l -0.27776,43 c -0.15278,23.65 -0.0317,44.0125 0.26905,45.25 l 0.54681,2.25 h 31.84166 31.84166 z m 158.97899,3.0922 c 0.81332,-3.1101 -0.1934,-14.2155 -2.02534,-22.3422 -6.08305,-26.985 -19.5158,-48.8388 -36.08708,-58.7102 -16.25949,-9.6857 -38.06009,-10.5757 -54.38796,-2.2202 -12.93331,6.6184 -29.50855,26.2574 -33.54089,39.7406 -1.29528,4.3311 -0.0149,5.6834 3.56638,3.7668 3.33119,-1.7828 14.11106,-1.2785 19.92758,0.9322 9.80697,3.7275 15.97242,8.8186 21.57257,17.8138 2.60183,4.1791 5.64373,14.3261 5.64373,18.8259 0,1.6598 0.3,3.3178 0.66667,3.6844 0.36666,0.3667 17.18918,0.6667 37.38337,0.6667 h 36.7167 z m 226.80788,-1.5922 c 5.0775,-7.8979 6.6556,-11.0092 10.0174,-19.75 7.9085,-20.5622 13.201,-45.2295 12.6587,-59 l -0.315,-8 -125.5,-0.2741 c -69.025,-0.1508 -126.51249,-0.03 -127.74999,0.269 -3.13957,0.758 -2.80568,2.2241 0.6809,2.9899 1.612,0.3541 3.4671,1.2898 4.12245,2.0795 0.65535,0.7896 1.59105,1.4357 2.07935,1.4357 1.06093,0 9.67001,5.9027 15.64982,10.73 5.10296,4.1195 13.78997,14.7024 18.10837,22.0605 4.9989,8.5175 9.8182,25.0854 11.0932,38.1362 0.614,6.2847 1.3453,11.7972 1.6251,12.25 0.2799,0.4528 39.7961,0.8233 87.8138,0.8233 h 87.305 z m -152.1212,-22.9286 c -6.5848,-1.3831 -14.0177,-11.3178 -14.0177,-18.7358 0,-8.7987 7.3685,-17.9185 15.4578,-19.1315 10.9236,-1.6381 19.4003,2.6258 21.6435,10.8872 1.2371,4.5559 0.6328,16.4186 -0.9909,19.4525 -2.2099,4.1291 -7.7789,7.2097 -13.8064,7.6373 -3.1922,0.2265 -6.921,0.1771 -8.2863,-0.1097 z m 198.352,24.4286 c 0.3317,-1.2375 0.6092,-4.5518 0.6167,-7.3651 0.016,-6.1417 1.9367,-8.9918 8.1535,-12.1011 4.1945,-2.0979 9.4621,-6.6595 14.9674,-12.9616 2.5339,-2.9005 10.8927,-16.55 10.8927,-17.7872 0,-1.6108 4.5705,-6.535 6.0656,-6.535 4.0688,0 4.4137,2.1597 4.9344,30.9014 l 0.5,27.5986 106.6523,0.2545 106.6524,0.2545 2.7437,-4.7545 c 2.8412,-4.9234 25.6917,-28.2545 27.6726,-28.2545 0.6168,0 1.832,-0.6297 2.7003,-1.3994 2.588,-2.294 14.146,-8.1155 20.5787,-10.3651 28.38631,-9.9266 54.55971,-4.323 66.27431,14.1891 2.3557,3.7227 2.6182,5.2224 3.0329,17.329 l 0.4539,13.2535 135.6195,-0.2535 135.6194,-0.2536 v -45 -45 l -303.1761,-0.2516 -303.17621,-0.2517 -2.0629,2.7517 c -2.8891,3.8534 -2.5989,3.5048 -13.5272,16.2516 -5.4226,6.325 -10.1454,11.725 -10.4951,12 -0.3497,0.275 -4.64,5.225 -9.5341,11 -4.8941,5.775 -9.6026,11.2108 -10.4633,12.0795 -0.8608,0.8687 -3.6562,4.0187 -6.2119,7 -13.3358,15.556 -20.2389,23.4714 -20.861,23.9205 -0.7858,0.5671 -2.9922,4.5743 -2.9922,5.4343 0,0.3111 6.2475,0.5657 13.8834,0.5657 13.5522,0 13.8977,-0.054 14.4863,-2.25 z M 340.5,1236.0819 c 8.25,0.025 234.56979,0.269 502.93299,0.5422 392.36351,0.3994 488.08991,0.2493 488.73461,-0.7663 0.9216,-1.4518 1.1456,-630.78319 0.2254,-633.18118 -0.5493,-1.43145 -13.2913,-1.58179 -134.0657,-1.58179 -90.0842,0 -134.0874,0.33644 -135.393,1.03518 -1.8651,0.99818 -1.9343,2.53341 -1.9343,42.94099 0,32.42649 0.2828,42.0888 1.25,42.71481 0.6875,0.44496 8.9,1.03402 18.25,1.30902 l 17,0.5 v 7 7 l -20.5,0.55242 c -11.275,0.30384 -20.5884,0.64134 -20.6965,0.75 -0.1081,0.10867 -1.7701,2.56008 -3.6934,5.44758 -4.4482,6.67838 -14.3845,16.94161 -22.1101,22.83753 -6.4979,4.95897 -17.9675,11.91247 -19.6493,11.91247 -0.5732,0 -2.2365,0.64616 -3.6964,1.43591 -1.4599,0.78975 -5.7676,2.36475 -9.57271,3.5 -8.8739,2.64749 -32.6412,2.91433 -39.0816,0.43878 -2.2,-0.84565 -5.0742,-1.79015 -6.3871,-2.0989 -3.6546,-0.85943 -14.5175,-12.13247 -17.1291,-17.77579 -1.9456,-4.2043 -2.3124,-6.63119 -2.3046,-15.25 0.01,-5.6375 -0.033,-10.33731 -0.085,-10.44402 -0.052,-0.10671 -8.6442,-0.44421 -19.0942,-0.75 l -19,-0.55598 -0.3123,-4.93373 c -0.6398,-10.10804 -2.3956,-9.38658 23.7254,-9.74869 l 22.9089,-0.31758 2.2378,-3 c 4.6506,-6.23463 20.8394,-21.3643 27.5054,-25.70588 16.1086,-10.4915 36.87181,-16.80096 50.90941,-15.47016 7.5615,0.71686 18.213,3.42521 21.2204,5.39573 5.0688,3.32123 5.305,2.29763 5.305,-22.98831 0,-16.81329 -0.3352,-23.66662 -1.2,-24.53138 -1.4825,-1.48249 -616.39461,-1.74229 -618.73488,-0.26141 -1.18413,0.7493 -1.47145,5.94545 -1.64417,29.73469 -0.2898,39.91418 -1.60444,47.41539 -11.79129,67.27961 -4.28165,8.34915 -10.93635,17.13141 -18.30011,24.15079 -6.03562,5.75336 -14.22064,11.89632 -15.85091,11.89632 -0.67856,0 -1.79395,0.675 -2.47864,1.5 -0.68469,0.825 -1.97729,1.50277 -2.87244,1.50616 -0.89516,0.003 -2.86413,0.65122 -4.37549,1.43962 -1.51136,0.78841 -7.66815,2.21796 -13.68175,3.17679 -10.29155,1.64092 -11.58027,1.6453 -21.93827,0.0746 -6.05243,-0.91778 -12.72064,-2.42338 -14.81824,-3.34576 -8.87144,-3.90107 -11.0955,-5.0685 -16.42813,-8.62326 -9.44465,-6.29582 -18.92966,-16.93345 -24.72376,-27.72815 C 274.66409,694.71514 271,679.60368 271,669.43336 c 0,-20.02232 12.42088,-35.11389 32.81205,-39.86716 8.10831,-1.89008 12.06193,-1.85458 19.02923,0.17087 9.3476,2.71742 15.62676,7.73088 21.51817,17.18074 15.74171,25.2498 -3.04217,58.39911 -32.30493,57.01089 -5.21989,-0.24764 -7.17045,0.014 -7.55192,1.01315 -0.75949,1.98924 11.10565,13.18401 17.50205,16.51318 6.35282,3.3065 19.15197,6.6398 25.49535,6.6398 6.35646,0 19.15692,-3.33808 25.46152,-6.6398 7.7144,-4.04004 16.19552,-12.26585 22.41229,-21.73762 12.98899,-19.78981 15.93219,-32.8011 16.0516,-70.96089 l 0.0746,-23.83832 -2.36078,-1.91168 c -2.293,-1.85679 -5.57315,-1.91169 -114.21483,-1.91169 -109.56335,0 -111.87523,0.0396 -112.88922,1.93426 -1.47528,2.75659 -1.4461,629.42941 0.0294,632.18651 1.05194,1.9655 1.91233,1.9823 72.25,1.405 39.15195,-0.3213 77.93537,-0.5637 86.18537,-0.5387 z m 695.5453,-10.0795 c -12.1331,-2.3784 -20.3786,-9.5105 -20.3786,-17.627 0,-3.9372 0.4729,-5.0161 3.3099,-7.551 2.8857,-2.5784 3.8763,-2.8936 7.7289,-2.4593 8.4872,0.9566 11.3303,7.2026 8.1343,17.8701 -0.6381,2.1299 -0.9401,4.0927 -0.671,4.3617 1.2393,1.2393 9.7757,1.5899 13.6047,0.5589 9.8498,-2.6523 14.8158,-10.9775 14.0126,-23.4917 -0.7571,-11.7971 -4.0874,-15.0257 -16.7091,-16.1988 -6.8711,-0.6386 -7.077,-0.7367 -7.077,-3.3742 0,-2.5504 0.3295,-2.7505 5.3875,-3.2725 11.1482,-1.1506 15.5504,-6.4381 15.589,-18.7238 0.037,-11.708 -5.3163,-17.5553 -15.2854,-16.6965 -2.6448,0.2278 -5.1917,0.8152 -5.6597,1.3054 -0.4707,0.4929 -0.1619,3.6726 0.6909,7.1151 1.2944,5.225 1.3325,6.7295 0.2375,9.373 -3.0018,7.247 -14.927,7.7347 -18.5348,0.758 -4.1138,-7.9553 1.1166,-16.1891 13.3094,-20.9517 8.2625,-3.2275 25.3103,-3.293 33.2767,-0.1279 20.5408,8.1608 19.2998,30.6463 -2.0833,37.7486 -2.7103,0.9002 -4.9278,1.9605 -4.9278,2.3563 0,0.3957 2.5875,1.264 5.75,1.9295 7.6881,1.6178 13.0404,4.8158 16.6459,9.9459 5.9537,8.4711 3.2469,21.7029 -5.8609,28.6498 -10.2347,7.8064 -26.5557,11.2335 -40.4897,8.5021 z m -106.04531,-24.9076 c 0,-1.4734 0.6667,-2 2.5321,-2 1.3927,0 4.0659,-0.6408 5.9405,-1.4241 2.6402,-1.1031 3.5462,-2.1736 4.02,-4.75 0.3364,-1.8292 0.4757,-18.1001 0.3095,-36.1575 -0.341,-37.0566 0.2369,-34.5609 -8.5521,-36.9351 -2.9924,-0.8084 -4.25,-1.6785 -4.25,-2.9407 0,-1.6932 2.1901,-1.7926 39.5,-1.7926 H 1009 v 11.5 c 0,10.4988 -0.1601,11.5 -1.8395,11.5 -1.0328,0 -2.3847,-1.1967 -3.0828,-2.7289 -2.2428,-4.9222 -8.23301,-12.3 -11.25601,-13.8633 -2.1353,-1.1042 -6.5114,-1.5855 -15.6431,-1.7204 l -12.6786,-0.1874 -0.2731,17.75 -0.273,17.75 h 8.4463 c 7.6182,0 8.7467,-0.2527 11.5095,-2.5774 1.7061,-1.4356 3.8376,-4.7582 4.8114,-7.5 1.1996,-3.3775 2.3024,-4.9226 3.5136,-4.9226 1.6234,0 1.7653,1.4866 1.7653,18.5 0,17.1198 -0.1337,18.5 -1.7926,18.5 -1.2779,0 -2.136,-1.2839 -2.9885,-4.4714 -0.6577,-2.4592 -2.5138,-5.9467 -4.1247,-7.75 -2.843,-3.1827 -3.1944,-3.2888 -12.0115,-3.6281 l -9.0827,-0.3495 v 16.145 c 0,15.7672 0.057,16.2018 2.4318,18.5767 1.3733,1.3733 4.2028,2.715 6.5,3.0824 3.0773,0.4921 4.0682,1.1065 4.0682,2.5227 0,1.7765 -1.2014,1.8722 -23.5,1.8722 -22.8333,0 -23.5,-0.057 -23.5,-2 z M 324,1150.1217 c -20.5226,-3.9256 -33.62214,-17.1282 -37.7417,-38.0386 -1.36184,-6.9125 -1.43921,-9.541 -0.47549,-16.1531 0.63307,-4.3435 2.06028,-9.9527 3.17159,-12.465 1.81621,-4.1059 1.87013,-4.7826 0.53308,-6.6915 C 288.66937,1075.6054 288,1073.3999 288,1071.8723 v -2.7775 h 16 c 15.3129,0 16,0.086 16,1.9924 0,1.5356 -2.1342,2.9896 -9.30928,6.3426 -14.49538,6.7737 -19.69072,13.1496 -19.69072,24.165 0,17.076 14.82812,25.3965 43.2092,24.2459 22.44088,-0.9098 32.91527,-7.3008 35.98998,-21.9596 2.21999,-10.5839 -2.28628,-21.6911 -11.81069,-29.1115 -2.52354,-1.9661 -5.05784,-3.7312 -5.63177,-3.9226 -1.46739,-0.4891 0.92641,-4.7522 2.66845,-4.7522 2.35977,0 12.96207,8.4789 15.87244,12.6935 4.13206,5.9839 6.82304,13.9058 7.40739,21.8065 1.60791,21.7399 -9.51722,40.3243 -28.19846,47.1052 -7.24772,2.6308 -19.54156,3.754 -26.50654,2.4217 z m -43.35026,-96.1805 c -0.35736,-5.0345 -0.64974,-12.2345 -0.64974,-16 v -6.8464 h 43.27749 c 47.78977,0 46.85658,0.1211 48.5191,-6.2948 0.57461,-2.2175 1.42726,-3.2052 2.76698,-3.2052 1.83877,0 1.95013,0.9708 2.20802,19.25 0.2627,18.6198 0.20667,19.25 -1.71145,19.25 -1.45866,0 -2.26055,-1.0306 -3.03245,-3.8972 -0.57717,-2.1434 -1.75632,-4.1684 -2.62033,-4.5 -0.86402,-0.3315 -18.759,-0.6028 -39.76664,-0.6028 -43.12691,0 -41.79876,-0.2294 -43.75929,7.5566 -0.7847,3.1163 -1.63601,4.4434 -2.8504,4.4434 -1.46863,0 -1.8302,-1.3899 -2.38129,-9.1536 z m 58.482,-40.8951 c -6.75774,-1.3727 -12.57321,-4.6217 -17.13935,-9.5753 -6.0612,-6.57567 -8.27638,-12.25501 -8.79358,-22.54525 -0.96107,-19.12143 7.36218,-30.30335 23.52178,-31.60049 L 343,948.82101 v 21.70887 21.70886 l 5.75,-0.63951 c 3.1625,-0.35173 8.19036,-1.84661 11.17301,-3.32196 C 366.76983,984.89056 370,979.4823 370,971.40543 c 0,-6.87691 -1.83164,-11.17897 -6.82114,-16.02111 -3.14215,-3.04936 -3.78789,-4.23674 -3.03536,-5.58143 0.52573,-0.93943 1.54694,-1.70806 2.26935,-1.70806 1.88104,0 10.03195,8.9914 12.45308,13.7372 4.54427,8.9075 4.59764,23.6653 0.12322,34.06639 -5.37886,12.50348 -21.28147,20.10838 -35.85741,17.14768 z M 338,981.48198 v -10.61284 l -6.96803,0.39373 c -7.79265,0.44032 -11.84967,2.61992 -13.49895,7.25218 -1.89503,5.3225 3.67698,11.12034 12.03083,12.51843 9.15808,1.53269 8.43615,2.35007 8.43615,-9.5515 z m -23,-43.6836 v -6.29645 l -7.04075,-1.20736 c -9.11016,-1.56221 -15.70569,-4.96872 -20.77863,-10.73189 -5.08771,-5.77994 -7.51194,-12.87378 -7.50724,-21.96785 0.006,-10.81011 3.27266,-15.77273 10.38379,-15.77273 5.67591,0 8.94283,3.21919 8.94283,8.81219 0,5.34611 -2.33334,8.33804 -8.90202,11.41465 -2.80389,1.31327 -5.09798,2.97429 -5.09798,3.69115 0,2.88179 6.2789,4.65233 18.24661,5.14522 L 315,911.36937 v -8.63727 -8.63727 h 3 3 v 8.5 8.5 h 23.34501 c 26.34883,0 25.70493,0.18358 27.5083,-7.84264 1.13729,-5.06171 1.5427,-5.60311 3.60356,-4.81228 1.32151,0.50711 1.54313,3.54087 1.54313,21.12354 0,19.79889 -0.0707,20.53138 -1.98095,20.53138 -1.33597,0 -2.19367,-0.89536 -2.63431,-2.75 -1.49165,-6.27839 -1.36655,-6.25 -27.53973,-6.25 H 321 v 6.5 6.5 h -3 -3 z m 742.7817,-51.45355 -0.2817,-11.75 -20.75,-0.27029 -20.75,-0.27029 v -5.05127 -5.05128 l 22.75,-28.88752 22.75,-28.88751 8.75,-0.0409 8.75,-0.0409 v 28 28 h 6.5 6.5 v 6 6 h -6.5 -6.5 v 12 12 h -10.4683 -10.4682 l -0.2818,-11.75 z m 0.2183,-44.95 c 0,-12.94224 -0.3527,-20.34397 -0.9411,-19.75 -2.4941,2.51779 -31.0589,39.01417 -31.0589,39.68306 0,0.42182 7.2,0.76694 16,0.76694 h 16 z m -703,45.72032 c 0,-1.27991 1.32552,-2.65777 3.75,-3.89805 5.20808,-2.66429 11.14883,-8.68902 13.35268,-13.54145 2.23761,-4.92678 2.42609,-11.6576 0.43431,-15.5093 -1.66504,-3.21982 -3.3269,-4.07152 -7.94446,-4.07152 -4.70552,0 -7.32206,3.40086 -10.55826,13.72312 -2.98437,9.519 -5.28267,14.64579 -7.90486,17.63329 -2.64879,3.0178 -8.75391,5.64359 -13.12169,5.64359 -15.38543,0 -23.71512,-17.58934 -18.38829,-38.82952 1.49257,-5.95148 1.49257,-6.5283 0,-7.36358 C 313.72874,840.40327 313,839.18288 313,838.18974 c 0,-1.49963 1.14413,-1.91376 6.75,-2.4432 11.85339,-1.11948 14.25,-0.90405 14.25,1.2809 0,1.06294 -0.85434,2.20377 -1.89853,2.53518 -3.89182,1.23522 -10.11293,6.63436 -12.07431,10.47897 -2.96047,5.803 -2.76469,13.40662 0.42739,16.59869 2.39953,2.39954 5.74997,3.08077 9.00626,1.83122 2.17095,-0.83308 4.68045,-6.04002 8.02386,-16.64866 4.50491,-14.29412 9.97278,-19.72801 19.85136,-19.72801 5.66615,0 9.35998,1.36716 13.00555,4.81362 8.7438,8.26623 10.82428,26.84824 4.5942,41.03347 -1.89204,4.30798 -1.89134,4.35177 0.0775,4.86663 1.23526,0.32303 1.98672,1.36553 1.98672,2.75618 0,2.06426 -0.58962,2.28647 -7.65088,2.88336 C 356.62485,889.52369 355,889.37275 355,887.11515 Z m 600.76199,-11.91102 c -16.5174,-5.42747 -27.1076,-18.26878 -29.9011,-36.25719 -3.9632,-25.52011 12.1995,-49.11311 36.931,-53.90875 8.4684,-1.6421 21.1376,-0.69887 28.923,2.15332 5.8476,2.1423 6.325,2.17717 8.0787,0.59008 2.67381,-2.41971 5.84961,-2.1477 6.57611,0.56324 0.3317,1.2375 0.6091,8.4375 0.6166,16 l 0.014,13.75 h -2.341 c -1.9594,0 -2.7924,-1.12124 -5.11011,-6.87851 -6.062,-15.05842 -15.5143,-22.74797 -26.7933,-21.79666 -6.9052,0.5824 -11.1839,2.90346 -15.2996,8.29953 -5.5355,7.25761 -6.9596,13.80994 -6.9278,31.87564 0.025,14.40108 0.2623,16.58768 2.3708,21.88083 4.7717,11.97865 12.5909,17.55965 24.6547,17.59721 10.6516,0.0332 19.0823,-4.97538 26.63541,-15.82364 1.1939,-1.71477 2.1949,-2.16729 3.722,-1.68261 2.7738,0.88036 2.637,2.27625 -0.7432,7.58243 -3.8617,6.06219 -10.31161,11.65672 -17.04791,14.78704 -4.8647,2.26063 -7.1655,2.64801 -17.12,2.88256 -9.1134,0.21472 -12.6908,-0.12033 -17.238,-1.61452 z M 328.49507,593.0967 c 3.02296,-1.14932 2.63086,-2.50246 -0.98836,-3.41083 -2.3449,-0.58853 -19.40285,-10.17597 -20.50671,-11.52581 -0.275,-0.33629 -1.81985,-1.45287 -3.43301,-2.48129 -4.56928,-2.91303 -20.2975,-18.44109 -24.35064,-24.04076 -2.0077,-2.77375 -3.90576,-5.26818 -4.21793,-5.54318 C 271.20628,542.75416 256,513.98012 256,510.14513 c 0,-0.51479 -0.94445,-2.5367 -2.09878,-4.49314 l -2.09877,-3.55716 h -34.36604 c -32.95324,0 -34.4086,0.0795 -35.40123,1.93426 -1.56797,2.92978 -1.41151,87.28941 0.16482,88.86574 1.55151,1.55151 142.23466,1.74564 146.29507,0.20187 z m 316.03062,-1.40074 c 1.731,-2.64181 5.0203,-4.16428 10.6959,-4.95058 4.7781,-0.66196 12.3704,-6.43538 16.4023,-12.47284 3.5664,-5.34045 6.3761,-14.13446 6.3761,-19.95662 0,-3.64762 -0.2545,-4.022 -3.125,-4.59609 -1.7187,-0.34375 -17.8787,-0.625 -35.9111,-0.625 h -32.7861 l -2.5889,-3.07673 c -4.2168,-5.01138 -3.5289,-7.9203 4.2023,-17.77063 11.0689,-14.10301 16.8268,-23.34377 15.6907,-25.18201 -0.7791,-1.26053 -126.4233,-1.2935 -128.4141,-0.0337 -0.987,0.62459 -1.6381,3.80593 -2.0946,10.23468 -0.3643,5.13061 -1.4599,11.80338 -2.4347,14.82838 -2.4751,7.68078 -8.2439,19.56881 -12.374,25.5 -4.6008,6.607 -16.2294,18.60069 -23.4711,24.20793 -6.2381,4.8302 -20.1136,12.28064 -22.88437,12.28774 -2.72861,0.007 -3.13732,1.94111 -0.62326,2.9494 1.36834,0.54879 45.11933,0.95407 107.04123,0.99154 l 104.7269,0.0634 z M 1046.8,592.89483 c 0.888,-0.88801 1.2,-10.37778 1.2,-36.5 0,-31.9482 -0.1546,-35.3 -1.6284,-35.3 -0.8956,0 -4.6127,2.8125 -8.2601,6.25 -3.6474,3.4375 -9.227,7.96979 -12.3992,10.07176 -6.9211,4.58617 -20.8682,11.67824 -22.9661,11.67824 -0.8261,0 -3.24441,0.73016 -5.37411,1.62257 -4.8379,2.02729 -26.7441,3.04212 -33.8721,1.56917 -22.0726,-4.56114 -34.0173,-21.01754 -30.5916,-42.14667 0.8033,-4.95498 0.7613,-6.63612 -0.1809,-7.23468 -0.6751,-0.42887 -47.375,-0.78666 -103.7775,-0.79508 -78.445,-0.0117 -102.8321,0.26676 -103.75,1.18469 -0.828,0.82802 -1.2,5.90956 -1.2,16.39301 0,12.93155 0.2355,15.28336 1.5818,15.8 0.87,0.33385 7.8292,0.60699 15.4648,0.60699 12.7023,0 13.9711,0.16451 14.9182,1.93426 1.389,2.59527 1.3094,6.39152 -0.1648,7.86574 -0.812,0.81202 -5.4643,1.2 -14.3892,1.2 -11.4261,0 -13.5001,0.25171 -15.5147,1.88303 -2.2947,1.85818 -2.3082,1.9856 -1.0188,9.65879 2.8098,16.72251 10.9344,26.3931 23.9537,28.51205 3.1134,0.50672 5.8314,1.43314 6.0399,2.05872 0.2085,0.62558 1.2229,1.98116 2.2541,3.01241 1.8159,1.81589 6.3928,1.875 145.175,1.875 110.12221,0 143.57781,-0.27783 144.50001,-1.2 z m 285.7,-44.8 v -45.5 L 1199,502.32081 c -73.425,-0.15072 -134.5125,-0.0296 -135.75,0.26905 l -2.25,0.54307 v 44.90763 c 0,41.92758 0.1161,44.93809 1.75,45.36678 0.9625,0.25253 62.05,0.39803 135.75,0.32332 l 134,-0.13583 z m -927.12796,33.15645 c 2.75484,-1.15079 2.85074,-1.41308 2.35026,-6.4281 -0.75166,-7.53187 -2.54582,-20.83741 -4.21093,-31.22835 -0.79322,-4.95 -1.94779,-12.15 -2.5657,-16 -0.61792,-3.85 -1.69205,-10.55746 -2.38696,-14.90548 -0.87415,-5.4695 -1.83006,-8.31977 -3.10222,-9.25 -1.42993,-1.04558 -7.63261,-1.34112 -27.89762,-1.32921 -14.33238,0.008 -26.62676,0.37581 -27.32085,0.81642 -3.04349,1.93202 4.64774,14.40212 13.4234,21.76391 2.55981,2.1474 6.7781,5.34171 9.37396,7.09848 5.08265,3.4397 6.56516,6.59615 5.01412,10.67568 -2.7767,7.30327 -11.08727,5.80612 -24.09832,-4.34131 -10.49851,-8.18788 -17.60915,-16.65523 -22.93539,-27.31145 -1.86466,-3.73063 -3.92658,-7.22804 -4.58203,-7.77202 -0.72123,-0.59856 -8.83959,-0.88166 -20.56275,-0.71704 l -19.37101,0.27202 0.19884,5.03708 c 0.10936,2.7704 0.89409,6.3704 1.74384,8 0.84975,1.62961 1.54777,3.46145 1.55116,4.07077 0.0141,2.53843 7.5633,15.31824 13.66314,23.12997 12.17714,15.59459 31.5663,29.19951 49.84302,34.9737 16.32981,5.15909 16.97907,5.24233 38.5,4.93625 13.03049,-0.18533 21.54647,-0.72872 23.37204,-1.49132 z m 27.91038,-8.38766 c 11.48757,-6.12283 22.50377,-18.56211 29.01987,-32.76879 5.1525,-11.23348 7.447,-31.0576 4.141,-35.77749 -1.5377,-2.1954 -1.858,-2.22232 -26.25,-2.2072 -13.58131,0.008 -25.29546,0.397 -26.03145,0.8635 -1.4076,0.89221 -0.78981,7.05611 2.36749,23.62119 0.7338,3.85 1.62432,9.7 1.97893,13 0.35461,3.3 1.05832,7.8 1.5638,10 0.50549,2.2 1.34589,8.42356 1.86755,13.83012 0.89716,9.29809 2.0396,12.66988 4.29286,12.66988 0.54317,0 3.71564,-1.45404 7.04995,-3.23121 z m 244.51757,-37.96879 c 1.4839,-1.48391 1.6694,-26.43522 0.2248,-30.2349 l -0.9753,-2.5651 h -17.306 -17.3061 l -5.5447,5.75 c -3.0495,3.1625 -8.2104,8.9 -11.4687,12.75 -3.2582,3.85 -6.149,7.2289 -6.424,7.50867 -3.3729,3.43137 -5.0876,6.04061 -4.5457,6.9173 0.9913,1.60406 61.7365,1.48326 63.3457,-0.12597 z M 249.70998,493.40822 c 0.35597,-0.92764 -0.1644,-6.56638 -1.15638,-12.53055 -3.34174,-20.09183 -2.28804,-41.69738 3.03751,-62.28284 0.85373,-3.3 1.95889,-7.56359 2.45591,-9.47465 0.49702,-1.91106 0.54834,-3.82999 0.11405,-4.26428 -0.89272,-0.89272 -70.80209,-1.10097 -72.23532,-0.21518 -1.47715,0.91293 -1.21026,87.7696 0.27425,89.25411 0.8846,0.8846 9.8292,1.2 34.03138,1.2 29.87543,0 32.88966,-0.15185 33.4786,-1.68661 z m 63.82181,-17.31339 c 0.0994,-17.69126 0.22412,-18.80601 2.85308,-25.5 5.17368,-13.17349 10.44594,-21.20549 20.29194,-30.9136 5.19156,-5.11886 15.95892,-12.5864 18.14818,-12.5864 0.73792,0 1.15437,-0.5625 0.92543,-1.25 -0.31682,-0.95144 -6.96466,-1.30818 -27.83333,-1.49361 -15.0794,-0.13399 -27.89219,0.091 -28.47287,0.5 C 298.00546,405.86458 290,419.96986 290,421.49154 c 0,0.67157 -0.66069,2.09454 -1.4682,3.16216 -0.8075,1.06762 -1.48528,2.61613 -1.50616,3.44113 -0.0209,0.825 -0.6211,2.625 -1.33382,4 -0.71272,1.375 -2.32321,5.875 -3.57886,10 -1.25566,4.125 -2.89419,9.3 -3.64119,11.5 -3.82412,11.2625 -6.06513,39.67621 -3.22177,40.84885 0.6875,0.28353 9.55877,0.43353 19.71393,0.33333 l 18.46393,-0.18218 z m 81.06636,17.60481 c 0.29446,-0.76735 0.0587,-3.16529 -0.52382,-5.32875 -0.58256,-2.16347 -1.72581,-7.49814 -2.54055,-11.85482 -0.81475,-4.35668 -2.43761,-12.19624 -3.60636,-17.42124 -1.16875,-5.225 -2.41804,-11.3 -2.77621,-13.5 -0.64846,-3.98312 -0.67207,-4.00132 -5.59297,-4.31262 -12.88909,-0.81538 -33.2452,12.11658 -39.46025,25.06855 -4.57422,9.53255 -6.50182,22.25247 -4.06281,26.80981 0.98628,1.84288 2.38149,1.93426 29.53139,1.93426 23.456,0 28.59089,-0.24677 29.03158,-1.39519 z m 69.88934,0.41541 c 0.8444,-1.36629 -2.0215,-9.46543 -5.6688,-16.02022 -6.922,-12.4399 -17.9059,-23.38287 -29.81869,-29.70771 -10.64309,-5.65071 -24.60955,-9.08274 -27.04614,-6.64615 -0.77423,0.77423 -0.79376,2.51248 -0.0671,5.97295 0.56371,2.6845 1.50548,7.35591 2.0928,10.38091 0.58733,3.025 1.71481,8.65 2.5055,12.5 0.79069,3.85 1.94,9.87522 2.55403,13.38939 0.61402,3.51416 1.52028,7.45166 2.0139,8.75 l 0.89751,2.36061 h 25.96569 c 15.8746,0 26.2011,-0.38078 26.5713,-0.97978 z m 167.6208,-2.77022 c 12.7241,-20.69328 22.8917,-55.45782 22.8917,-78.27031 v -8.97969 l -3.75,-0.009 c -109.1284,-0.26766 -211.8484,0.20761 -212.6246,0.98379 -0.6333,0.6333 0.05,1.42266 1.9498,2.25244 10.5449,4.60571 26.4372,18.67395 35.3255,31.27106 10.7495,15.23466 16.0109,28.83838 17.0259,44.0209 0.3684,5.51044 1.0122,10.57294 1.4306,11.25 0.5902,0.95496 15.8619,1.23101 68.1031,1.23101 h 67.3422 l 2.3058,-3.75 z m 45.8565,1.81574 c 0.5694,-1.06384 1.0352,-4.62384 1.0352,-7.9111 0,-5.46992 0.2658,-6.20049 3.1335,-8.61354 1.7235,-1.45018 4.7912,-3.48233 6.8171,-4.51588 5.0904,-2.59692 14.7061,-13.14541 19.7994,-21.71999 2.3375,-3.93519 4.25,-7.45675 4.25,-7.82569 0,-0.36894 0.9484,-2.00272 2.1076,-3.63062 1.4115,-1.98222 2.8069,-2.85894 4.225,-2.65437 4.1745,0.60221 4.637,3.72863 4.6527,31.44846 0.013,22.90772 0.2105,26.21813 1.5965,26.75 0.87,0.33385 48.9772,0.60699 106.905,0.60699 h 105.3232 l 2.733,-4.66352 c 8.8106,-15.03423 29.878,-32.1929 48.8693,-39.80246 6.0394,-2.41989 22.24561,-5.53402 28.79961,-5.53402 6.4924,0 18.7683,2.46808 22.9884,4.62186 1.4852,0.75798 3.6227,1.37814 4.75,1.37814 2.0067,0 2.0497,-0.48139 2.0497,-22.94098 0,-13.18086 -0.3985,-23.18727 -0.9366,-23.51987 -0.5152,-0.31838 -72.85271,-0.57748 -160.75001,-0.57577 l -159.8134,0.003 -2,2.34935 c -1.1,1.29215 -5.15,6.08873 -9,10.65909 -3.85,4.57035 -7.4704,8.80818 -8.0453,9.4174 -0.5749,0.60922 -10.6395,12.13267 -22.3656,25.60767 -11.7262,13.475 -23.7433,27.2518 -26.7047,30.61512 -8.6153,9.78453 -9.5618,11.14746 -8.14,11.72074 0.6906,0.27844 6.9773,0.54177 13.9704,0.58519 11.5924,0.072 12.8062,-0.0918 13.75,-1.85531 z M 1332.5,449.59483 v -45 l -78,-0.5 c -42.9,-0.275 -104.0131,-0.38026 -135.8069,-0.2339 l -57.807,0.2661 0.1856,44.7339 c 0.102,24.60364 0.3802,45.07302 0.6182,45.48749 0.2379,0.41448 61.2675,0.63948 135.6213,0.5 L 1332.5,494.59483 Z m -1072.48174,-56.25 c 1.18988,-1.5125 2.81375,-4.1 3.60861,-5.75 1.49089,-3.09489 3.07027,-5.81396 6.38939,-11 1.05601,-1.65 2.60842,-4.35 3.44979,-6 0.84138,-1.65 2.42403,-4.35 3.51702,-6 1.09298,-1.65 2.41128,-3.9 2.92956,-5 1.12125,-2.37976 16.18171,-21.19469 36.02036,-45 8.69423,-10.43261 14.95088,-9.5 -63.73299,-9.5 -52.17778,0 -69.08992,0.28992 -70,1.2 -1.57602,1.57602 -1.73238,84.93672 -0.16482,87.86574 0.99513,1.8594 2.48227,1.93426 38.42742,1.93426 h 37.39224 z m 111.42642,-2.37993 c -0.0304,-2.54646 -0.84397,-7.49646 -1.80788,-11 -0.96391,-3.50354 -2.37591,-8.62007 -3.13778,-11.37007 -0.76187,-2.75 -1.88712,-7.025 -2.50056,-9.5 -0.61344,-2.475 -2.00302,-7.65 -3.08795,-11.5 -1.08493,-3.85 -2.36928,-8.49815 -2.85411,-10.32922 -0.48483,-1.83108 -1.17269,-3.6204 -1.52857,-3.97628 -1.14218,-1.14219 -29.25267,30.17103 -32.93968,36.69262 -0.50152,0.88708 -4.43902,6.18729 -8.75,11.77824 -11.97272,15.52751 -13.90429,14.41198 24.41185,14.09849 l 32.25,-0.26385 -0.0553,-4.62993 z m 273.37851,2.20741 c 1.2003,-3.44339 3.079,-4.58522 9.1768,-5.57748 5.6508,-0.91953 7.253,-1.77021 12.5777,-6.67841 6.6778,-6.15536 11.8955,-18.38996 11.2449,-26.36706 l -0.3226,-3.95453 -35.7545,-0.5 -35.7545,-0.5 -2.4955,-2.90554 c -4.1509,-4.83299 -3.4092,-7.93524 4.2545,-17.79403 10.9503,-14.08669 14.25,-19.06684 14.25,-21.50673 v -2.30167 l -121.7063,0.25399 -121.70628,0.25398 -4.75702,5.90485 c -2.61636,3.24767 -4.54055,6.25511 -4.27598,6.68319 0.26457,0.42807 0.89704,2.72089 1.40549,5.09514 0.50845,2.37425 1.89489,7.46682 3.08096,11.31682 1.18608,3.85 2.74669,9.25 3.46802,12 0.72133,2.75 2.28485,8.6 3.47448,13 2.67333,9.88763 4.71851,18.03647 6.64633,26.48163 0.81377,3.5649 2.19974,7.2774 3.07994,8.25 1.51431,1.6733 8.36077,1.76837 127.34756,1.76837 h 125.7472 z m 69.6768,1.86515 c -2.2,-0.45505 -8.5,-0.82737 -14,-0.82737 -5.5,0 -11.8,0.37232 -14,0.82737 -2.6783,0.554 1.9474,0.82737 14,0.82737 12.0526,0 16.6784,-0.27337 14,-0.82737 z m 333.00871,-1.19263 c 0.3008,-1.2375 0.4218,-21.6 0.2691,-45.25 l -0.2778,-43 -160.39381,-0.25306 c -117.7154,-0.18572 -160.7547,0.0464 -161.75,0.87245 -1.022,0.84819 -1.3562,4.53609 -1.3562,14.96787 0,12.66209 0.1649,13.93064 1.9343,14.87756 1.0638,0.56935 8.023,1.03518 15.4648,1.03518 12.3538,0 13.6206,0.16822 14.5657,1.93426 1.389,2.59527 1.3094,6.39152 -0.1648,7.86574 -0.8136,0.81362 -5.5035,1.2 -14.5657,1.2 -7.3512,0 -14.2362,0.46583 -15.3,1.03518 -2.3031,1.23255 -2.4505,4.76135 -0.5625,13.46482 2.9156,13.44056 11.5825,23.23357 22.1282,25.00336 6.788,1.13916 7.4895,1.53581 8.966,5.06942 l 1.432,3.42722 h 144.5319 144.53201 z m 285,0 c 0.3008,-1.2375 0.4218,-21.6 0.2691,-45.25 l -0.2778,-43 H 1197 1061.5 l -0.2609,44 c -0.1434,24.2 -0.045,44.5625 0.2187,45.25 0.3803,0.99146 28.4043,1.25 135.4918,1.25 h 135.0123 z M 677.06579,336.05965 c 1.7685,-0.94649 1.9342,-2.21459 1.9342,-14.8 0,-9.37264 -0.3829,-14.14773 -1.2,-14.96482 -0.8455,-0.84553 -6.5829,-1.2 -19.4231,-1.2 h -18.223 l -2.827,2.85936 c -3.5832,3.62434 -12.7435,14.00469 -18.6413,21.12427 -3.3636,4.06028 -4.2699,5.81232 -3.4917,6.75 1.3499,1.62654 58.8631,1.84145 61.8719,0.23119 z M 330.60078,296.01861 c 1.59457,-0.59192 4.58672,-3.09766 6.64922,-5.56831 4.41577,-5.28961 4.66175,-7.82196 1.67893,-17.28497 -4.18099,-13.2642 -10.20334,-37.15313 -11.48824,-45.5705 -0.83616,-5.47772 -3.39615,-18.61028 -4.04489,-20.75 -0.49871,-1.64491 -4.72782,-1.75 -70.428,-1.75 -68.08209,0 -69.92432,0.0502 -70.93262,1.93426 -1.56797,2.92978 -1.41151,87.28941 0.16482,88.86574 1.6208,1.6208 144.04793,1.7396 148.40078,0.12378 z m 297.14141,0.44798 c 4.2798,-1.14705 14.1044,-20.76612 19.2153,-38.37176 1.1975,-4.125 2.8219,-9.68918 3.6099,-12.36483 0.7879,-2.67566 1.4326,-5.82583 1.4326,-7.00038 0,-1.17454 0.6672,-5.28537 1.4827,-9.13516 1.5044,-7.1025 2.018,-20.0314 0.9103,-22.91784 -0.5483,-1.42885 -11.0319,-1.58179 -108.4285,-1.58179 -96.6863,0 -107.9839,0.16229 -109.3931,1.57143 -0.8642,0.86428 -1.5714,2.26639 -1.5714,3.11578 0,3.34439 -8.24359,25.98622 -11.03648,30.31279 -0.53256,0.825 -1.43284,2.58289 -2.00062,3.90642 -0.56778,1.32353 -2.36671,4.38359 -3.99761,6.80013 -1.6309,2.41654 -2.96528,4.56932 -2.96528,4.78395 0,0.88196 -16.94028,25.49478 -21.77919,31.64335 -5.43555,6.9067 -6.06248,8.35986 -3.97081,9.20387 1.79108,0.72272 235.79799,0.75612 238.49219,0.034 z m 49.6864,-0.94319 c 1.1066,-1.1066 1.5813,-3.54695 1.6047,-8.25 0.039,-7.76092 1.0298,-9.37314 8.4283,-13.70894 9.1445,-5.35902 17.2231,-14.62703 23.9444,-27.46963 3.329,-6.36085 6.3566,-10 8.3194,-10 0.7571,0 2.0287,1.56055 2.8256,3.46788 1.1393,2.72651 1.449,9.02554 1.449,29.46482 0,24.67895 0.098,26.04941 1.9343,27.03212 2.9769,1.59319 319.27021,1.43072 320.86571,-0.16482 1.7262,-1.72624 1.7262,-87.87376 0,-89.6 -1.7601,-1.76006 -318.59871,-1.67928 -320.87361,0.0818 -1.5998,1.23851 -6.424,6.60466 -15.4264,17.15942 -2.75,3.22421 -5.4799,6.35643 -6.0665,6.96049 -1.0618,1.09331 -12.4346,14.19299 -21.2866,24.51879 -2.5558,2.98128 -5.3512,6.13128 -6.2119,7 -0.8608,0.86873 -5.5858,6.29693 -10.5,12.06268 -4.9143,5.76574 -10.8399,12.51574 -13.168,15 -4.3996,4.69444 -5.1394,6.49811 -3.017,7.35454 0.6875,0.27741 6.7304,0.53991 13.4286,0.58333 9.8132,0.0636 12.4838,-0.22625 13.75,-1.49248 z M 1332.393,295.513 c 0.7927,-2.06581 0.7927,-86.77061 0,-88.83642 -0.5493,-1.43141 -13.2913,-1.58175 -134.0657,-1.58175 -90.0842,0 -134.0874,0.33644 -135.393,1.03518 -1.8678,0.99959 -1.9343,2.56157 -1.9343,45.42668 0,41.43673 0.1165,44.42193 1.75,44.84881 0.9625,0.25153 61.8894,0.50953 135.393,0.57333 121.0104,0.10503 133.7004,-0.0335 134.25,-1.46579 z M 363.1793,259.30973 c 3.67362,-4.7932 7.91515,-10.5149 9.42563,-12.7149 C 382.84042,231.68691 388,223.98823 388,223.62365 c 0,-0.23192 1.5124,-3.03328 3.36089,-6.22524 1.84848,-3.19197 3.65453,-7.03099 4.01342,-8.53116 0.54438,-2.27548 0.27738,-2.81938 -1.61089,-3.28142 -1.24488,-0.30461 -13.51342,-0.4272 -27.26342,-0.27242 l -25,0.28142 -0.34271,3.5 c -0.45409,4.6375 4.01223,28.32467 7.94856,42.15524 1.04178,3.66038 1.89583,7.48538 1.89789,8.5 0.004,2.09754 3.57177,8.3629 4.73156,8.30966 0.42059,-0.0193 3.77039,-3.95681 7.444,-8.75 z m 39.48316,-66.4649 c 6.36152,-16.44829 9.93261,-38.02149 8.89744,-53.75 -0.67548,-10.26331 -3.69276,-29.44287 -5.8994,-37.5 -1.94446,-7.099798 -3.95267,-7.052488 -15.20149,0.35814 -28.80511,18.97657 -47.39888,50.34778 -50.0219,84.39642 -0.48965,6.35602 -0.33439,9.16428 0.56668,10.25 1.04965,1.26476 5.74437,1.49544 30.43464,1.49544 h 29.19354 z m 1143.08824,801.5 -0.2507,-677.75 -25.8504,-0.26709 c -24.0417,-0.24839 -25.8053,-0.38833 -25.2043,-2 4.4495,-11.93369 66.0466,-153.11181 66.5496,-152.52912 0.378,0.43791 3.8568,8.22121 7.7306,17.29621 3.8738,9.075 18.3987,42.825 32.2776,75 13.8788,32.175 25.4563,59.2798 25.7277,60.23289 0.4577,1.60709 -1.384,1.75228 -25.3686,2 l -25.8622,0.26711 -0.2507,677.75 -0.2508,677.74997 H 1560.5 1546.0015 Z M 120.20767,1627.5861 c -1.81079,-0.7867 -7.43579,-4.6311 -12.5,-8.543 C 79.93896,1597.5925 53.83426,1569.8762 39,1546.0937 c -5.35644,-8.5875 -10.63955,-17.713 -11.88557,-20.5299 -0.49412,-1.117 -2.09997,-4.492 -3.56857,-7.5 -2.89229,-5.9239 -3.90265,-8.5272 -7.75015,-19.969 -5.17031,-15.3756 -8.18171,-27.3814 -9.78228,-39 -3.01419,-21.8801 -3.23154,-25.4282 -2.69529,-44 0.30969,-10.725 1.03572,-22.2 1.61342,-25.5 0.57769,-3.3 1.46711,-8.925 1.97649,-12.5 1.77395,-12.4502 3.32194,-20.5264 4.7024,-24.5334 C 12.3747,1350.343 13,1347.8072 13,1346.9262 c 0,-0.881 0.72056,-4.0159 1.60125,-6.9666 0.88069,-2.9506 2.50919,-8.5148 3.61889,-12.3648 1.10971,-3.85 2.57764,-8.575 3.26207,-10.5 0.68443,-1.925 2.26596,-6.875 3.5145,-11 1.24854,-4.125 2.71832,-8.625 3.26617,-10 0.54785,-1.375 1.36182,-3.85 1.80882,-5.5 0.86069,-3.177 3.4189,-10.4173 6.88991,-19.5 1.15603,-3.025 3.24808,-8.875 4.649,-13 1.40092,-4.125 3.18664,-8.918 3.96826,-10.6511 C 46.3605,1245.7105 47,1243.9192 47,1243.463 c 0,-0.7911 3.28349,-9.6351 5.1488,-13.8682 0.48471,-1.1 1.29082,-3.35 1.79134,-5 0.50052,-1.65 1.87645,-5.475 3.05761,-8.5 1.18116,-3.025 3.29403,-9.1 4.69527,-13.5 1.40124,-4.4 3.1311,-9.575 3.84414,-11.5 1.24597,-3.3638 7.26161,-22.6515 9.98049,-32 C 78.95489,1147.2762 81,1138.9151 81,1136.681 c 0,-1.3508 0.47904,-3.7159 1.06452,-5.2559 1.61793,-4.2555 3.85802,-21.0353 5.14465,-38.537 2.10945,-28.6946 -2.70773,-62.2286 -11.67783,-81.2933 -6.11677,-13.00034 -9.80073,-20.39045 -11.28715,-22.64226 -0.9593,-1.45325 -3.18662,-5.05325 -4.9496,-8 -1.76298,-2.94674 -4.24193,-6.48271 -5.50877,-7.85771 -1.26685,-1.375 -4.63011,-5.425 -7.47393,-9 C 39.6315,955.6968 23.55789,939.98588 14,932.51204 3.09963,923.98843 0,920.99521 0,918.9926 c 0,-0.9951 2.62255,-3.79888 5.94369,-6.35444 3.26903,-2.51546 6.53153,-5.12926 7.25,-5.80844 0.71847,-0.67919 3.06905,-2.55268 5.2235,-4.1633 6.86079,-5.12899 25.83079,-24.88398 33.26659,-34.64317 18.27493,-23.98512 28.41595,-46.93007 34.00019,-76.92842 2.48273,-13.33715 2.48216,-47.93192 -0.001,-64 -1.71349,-11.08743 -3.83113,-22.12256 -5.85296,-30.5 -3.33765,-13.82954 -6.32097,-25.01944 -7.73162,-29 -0.58474,-1.65 -2.65927,-7.95 -4.61006,-14 -1.9508,-6.05 -4.00545,-12.35 -4.56591,-14 -4.91775,-14.47805 -7.13067,-20.78453 -8.94787,-25.5 -1.16574,-3.025 -2.57399,-6.85 -3.12944,-8.5 -0.55546,-1.65 -1.41064,-3.9 -1.90041,-5 -1.1587,-2.60223 -3.78762,-10.06237 -5.10981,-14.5 -0.57355,-1.925 -1.39925,-3.95 -1.83489,-4.5 -0.43563,-0.55 -1.26133,-2.575 -1.83488,-4.5 -1.40305,-4.70903 -4.00717,-12.04343 -5.14831,-14.5 -1.10942,-2.38831 -9.83976,-28.90108 -13.00687,-39.5 -1.23261,-4.125 -2.69413,-8.625 -3.24781,-10 -1.04868,-2.60425 -2.97668,-9.60584 -5.23196,-19 -0.72622,-3.025 -1.80717,-7.525 -2.40211,-10 -1.59665,-6.64227 -3.04036,-14.5461 -4.20116,-23 -0.56639,-4.125 -1.48873,-9.975 -2.04963,-13 -1.59721,-8.61395 -2.24233,-42.33196 -1.00447,-52.5 1.99578,-16.39378 3.1571,-23.92877 4.70078,-30.5 3.03153,-12.90486 7.63811,-27.69912 10.01207,-32.15429 C 19.36354,331.48068 20,329.79146 20,329.18671 c 0,-1.45156 8.08462,-17.99955 12.50307,-25.59188 1.92047,-3.3 3.80498,-6.675 4.18779,-7.5 1.02301,-2.20468 9.64693,-14.26621 17.15985,-24 17.16763,-22.24247 59.09861,-59.77426 68.81755,-61.59754 3.72498,-0.69881 11.33174,1.04288 11.33174,2.59458 0,0.50422 -3.2625,3.50875 -7.25,6.67675 -23.33358,18.53812 -45.04394,41.55316 -55.339,58.66458 -1.60105,2.6611 -3.688,6.0361 -4.63767,7.5 -1.87633,2.89233 -4.92221,9.07215 -7.96566,16.16163 -1.06249,2.475 -2.5337,5.85 -3.26935,7.5 -1.24072,2.78285 -3.65727,10.70462 -6.54727,21.46283 -2.00601,7.46751 -3.94798,22.82566 -4.63577,36.66228 -0.68503,13.78099 1.2819,38.72868 4.16877,52.87489 0.78569,3.85 1.90602,9.475 2.48963,12.5 2.55965,13.26723 5.70818,25.11036 12.62803,47.5 0.84992,2.75 2.12366,7.025 2.83053,9.5 1.44544,5.06103 6.46987,19.8435 12.57596,37 2.2511,6.325 4.47941,12.85 4.9518,14.5 0.47239,1.65 2.72239,8.175 5,14.5 2.27761,6.325 4.52469,12.85 4.99352,14.5 0.46882,1.65 1.95371,6.15 3.29976,10 1.34604,3.85 3.45021,10.375 4.67592,14.5 2.12692,7.15794 2.78942,9.36766 6.59579,22 4.96064,16.46307 7.06326,25.86237 11.29681,50.5 9.39844,54.69515 1.86191,107.49612 -21.83839,153 -6.37277,12.23552 -19.85328,32.52557 -28.27297,42.55475 -13.56668,16.16005 -32.99096,34.77148 -52.12662,49.94525 -1.04041,0.825 -3.06889,2.50928 -4.50773,3.74285 l -2.61609,2.24284 3.56085,3.25716 c 1.95846,1.79143 8.25846,7.07489 14,11.74101 16.0506,13.04425 34.25683,31.76707 47.17751,48.51614 10.63458,13.78559 20.23632,29.28347 26.33097,42.49997 1.39494,3.025 3.19159,6.85 3.99255,8.5 3.7732,7.7729 9.09144,24.3109 11.89839,37 2.86484,12.9508 3.45434,16.5169 5.11236,30.9259 2.26139,19.6525 1.14847,48.7248 -2.66338,69.5741 -0.55305,3.025 -1.43864,8.2 -1.96795,11.5 -1.74342,10.8692 -7.3557,33.0139 -12.41839,49 -0.69672,2.2 -1.98415,6.475 -2.86095,9.5 -2.98003,10.2813 -5.86194,19.4942 -6.72546,21.5 -1.06177,2.4664 -7.73894,21.893 -8.9365,26 -0.48112,1.65 -2.4687,7.5 -4.41684,13 -9.61801,27.1537 -14.80582,42.3258 -15.55783,45.5 -0.45606,1.925 -1.30655,4.85 -1.88999,6.5 -0.58343,1.65 -2.02601,6.375 -3.20572,10.5 -1.17971,4.125 -2.77148,8.9778 -3.53727,10.7839 -0.76579,1.8062 -1.39235,4.0885 -1.39235,5.0719 0,0.9834 -0.63182,3.7806 -1.40404,6.2161 -1.49623,4.7189 -4.52829,18.3033 -7.01481,31.4281 -2.15256,11.3621 -4.59486,36.3993 -4.58745,47.0282 0.008,11.5836 3.406,37.9323 6.05747,46.9718 1.12928,3.85 2.4578,8.575 2.95227,10.5 1.57636,6.1369 9.65056,23.6093 15.58119,33.7174 11.44862,19.513 32.13814,42.6157 51.74689,57.7826 5.6886,4.4 11.1203,9.0233 12.07046,10.274 1.69886,2.2362 1.66889,2.2984 -1.8051,3.75 -4.33304,1.8104 -6.16014,1.8047 -10.38921,-0.033 z M 1610,1067.144 c 0,-29.6716 0.6316,-36.3563 4.0794,-43.1734 5.1106,-10.105 18.4977,-13.7331 29.6022,-8.0226 10.1798,5.235 15.0578,15.819 16.1986,35.1468 l 0.6198,10.5 h 14.1477 c 16.3485,0 17.7981,-0.6217 18.9218,-8.1152 0.5656,-3.7711 0.9916,-4.3848 3.044,-4.3848 H 1699 v 23.5 23.5 h -2.3699 c -2.0828,0 -2.4343,-0.5709 -2.9009,-4.7105 -0.9733,-8.6345 0.1624,-8.405 -39.9664,-8.0759 -39.4386,0.3234 -36.7041,-0.2762 -38.9278,8.5364 -0.7858,3.1139 -1.5753,4.25 -2.9537,4.25 -1.7984,0 -1.8813,-1.2756 -1.8813,-28.9508 z m 44.8309,-8.4493 c 0.182,-1.5951 -0.1893,-4.9701 -0.8252,-7.5 -2.5313,-10.0715 -9.7947,-14.792 -21.3349,-13.8657 -12.8268,1.0296 -17.6051,6.0484 -17.6488,18.5369 l -0.022,6.2712 19.75,-0.2712 19.75,-0.2711 z m -17.2379,-53.8499 c -0.2737,-1.7875 -0.7712,-8.76247 -1.1056,-15.49997 l -0.6079,-12.25 h 26.3378 c 29.2511,0 29.6655,-0.0848 31.7837,-6.5031 0.7865,-2.383 1.7665,-3.4969 3.0766,-3.4969 1.8308,0 1.9224,0.92888 1.9224,19.5 0,18.56447 -0.092,19.49997 -1.9205,19.49997 -1.3224,0 -2.1265,-0.9377 -2.5818,-3.0103 -1.3009,-5.92332 -1.5823,-5.98967 -25.3948,-5.98967 -21.4019,0 -21.7892,0.0372 -23.9132,2.29807 -1.1874,1.264 -2.4471,3.739 -2.7993,5.5 -0.8932,4.4662 -4.1111,4.4339 -4.7974,-0.048 z m -26.593,-4.412 c -6.1964,-2.00012 -9,-5.68778 -9,-11.83797 0,-7.27768 4.6713,-11.99073 11.6875,-11.79185 7.3176,0.20742 12.7343,10.43843 9.1039,17.19545 -2.2606,4.20751 -8.367,7.53967 -11.7914,6.43437 z m 26,-41.83797 v -5.5 h -9.5 -9.5 v -10 -10 h 9.5 9.5 v -9 -9 h 3 3 v 9 9 l 19.25,-0.006 c 27.4362,-0.008 29.75,-0.997 29.75,-12.71693 0,-5.52056 0.2312,-6.27749 1.9173,-6.27749 3.2791,0 5.5827,7.91299 5.5827,19.17667 0,10.5018 -0.918,12.80411 -6.8825,17.26154 -2.5708,1.92125 -4.3559,2.08336 -26.1882,2.37828 L 1643,953.2274 v 5.4335 c 0,5.37057 -0.035,5.43351 -3,5.43351 -2.9697,0 -3,-0.0556 -3,-5.5 z m 22,-51.43513 c -9.0522,-2.76352 -16.3939,-9.34899 -20.6969,-18.56487 -2.5096,-5.37479 -2.8016,-7.09412 -2.8023,-16.5 -7e-4,-8.96478 0.3385,-11.18899 2.3202,-15.21229 2.8801,-5.84769 7.3541,-8.78771 13.3727,-8.78771 6.0721,0 8.8063,2.87736 8.8063,9.2674 0,9.58879 -3.8506,12.70798 -12.8096,10.37645 -6.0636,-1.57801 -8.1904,-0.54523 -8.1904,3.97724 0,4.64279 2.7342,8.10133 8.7335,11.04727 5.316,2.61041 6.665,2.83164 17.2665,2.83164 10.0949,0 12.0914,-0.29113 16.3399,-2.38271 12.7416,-6.27284 14.5499,-21.064 3.7095,-30.34297 -3.7101,-3.17577 -4.0764,-3.85542 -3.0804,-5.71647 1.1047,-2.06414 1.2001,-2.07176 4.1927,-0.33501 4.0871,2.37192 9.2204,8.44989 11.9431,14.14104 2.8597,5.97737 3.0974,17.9835 0.5254,26.53829 -2.4352,8.0995 -10.8709,16.70093 -18.6428,19.00893 -5.5358,1.64394 -16.6137,1.98903 -20.9874,0.65377 z m -56.348,-73.72043 c -0.3586,-5.86056 -0.652,-13.06056 -0.652,-16 v -5.34444 h 22.1205 22.1204 l -3.4728,-4.25 c -5.0579,-6.18975 -6.9219,-10.35491 -7.5033,-16.76636 -0.6152,-6.78423 0.9579,-12.37062 4.6058,-16.3568 4.9839,-5.44599 7.7549,-6.04384 30.6294,-6.60848 l 21,-0.51836 1.9741,-4.25 c 1.2372,-2.66346 2.6371,-4.25 3.75,-4.25 1.6372,0 1.7759,1.44491 1.7759,18.5 0,17.57821 -0.096,18.5 -1.9205,18.5 -1.3293,0 -2.1275,-0.94216 -2.5927,-3.05997 -0.4344,-1.978 -1.5463,-3.39235 -3.1445,-4 -2.7424,-1.04264 -31.6944,-1.27306 -37.5864,-0.29913 -5.6459,0.93322 -8.7567,4.33168 -8.7522,9.56135 0,4.35391 2.6934,10.07781 5.8729,12.49826 1.154,0.87856 7.1443,1.24508 20.7184,1.26769 20.6493,0.0344 21.1383,-0.088 22.8541,-5.7182 0.4059,-1.33209 1.4831,-2.25 2.6404,-2.25 1.8797,0 1.9442,0.71869 1.6826,18.73708 -0.2422,16.67943 -0.458,18.7728 -1.9651,19.06234 -1.2478,0.23973 -1.8699,-0.618 -2.3659,-3.26154 -1.2397,-6.60826 -0.7901,-6.53788 -41.7625,-6.53788 -42.6805,0 -42.904,0.038 -44.8135,7.62164 -0.7701,3.05824 -1.6239,4.37836 -2.8318,4.37836 -1.4902,0 -1.8196,-1.47396 -2.3813,-10.65556 z M 1064,138.12981 v -12.03498 h -21 -21 v -5.44958 -5.44957 l 22.7618,-28.800418 22.7618,-28.80043 h 8.4882 8.4882 l 0.2658,27.75 0.2658,27.749998 h 6.4842 6.4842 v 6.5 6.5 h -6.4683 -6.4682 l -0.2818,11.75 -0.2817,11.75 -10.25,0.28498 -10.25,0.28499 z m 0,-45.534978 c 0,-11.275 -0.1476,-20.5 -0.328,-20.5 -0.4834,0 -31.114,38.940798 -31.5053,40.052818 -0.2009,0.5708 6.0576,0.94718 15.75,0.94718 H 1064 Z M 954.05879,127.53913 c -19.2906,-4.18292 -31.5835,-17.63727 -34.212,-37.444298 -3.601,-27.13574 12.3622,-49.64978 38.3061,-54.02579 10.8068,-1.8228 25.194,-0.07 32.789,3.99469 1.6504,0.88326 2.6113,0.68195 4.9309,-1.03295 1.5845,-1.17151 3.7239,-1.96815 4.75411,-1.77031 1.7219,0.33067 1.8953,1.62964 2.1485,16.09703 l 0.2754,15.73733 -2.2754,-0.01 c -1.87251,-0.008 -3.01371,-1.55724 -6.44521,-8.75 -6.7479,-14.14435 -13.6539,-19.58718 -24.8761,-19.60549 -10.8882,-0.0178 -19.0307,6.94307 -23.0609,19.71419 -2.1632,6.85468 -2.956,26.38552 -1.4368,35.39252 2.1045,12.476568 8.9212,23.393058 16.3587,26.197088 5.0152,1.89079 13.7088,1.26345 19.4349,-1.40243 l 5.25,-2.44422 v -11.04601 c 0,-9.589118 -0.2552,-11.301218 -1.9351,-12.981068 -1.7774,-1.77748 -7.8212,-4.046 -10.8149,-4.05935 -0.6875,-0.003 -1.25,-0.90563 -1.25,-2.00563 0,-1.94202 0.6667,-2 23,-2 21.88161,0 23.00001,0.0918 23.00001,1.88871 0,1.34319 -0.9487,2.06668 -3.2845,2.50488 -1.8064,0.33889 -4.2814,1.31449 -5.5,2.168 -2.0835,1.45936 -2.2155,2.28591 -2.2155,13.871968 v 12.32016 l -4.75,2.02408 c -11.06541,4.71523 -27.13941,8.27343 -36.75001,8.13515 -2.75,-0.0396 -7.8985,-0.70046 -11.4412,-1.46865 z"
     id="path820"
     inkscape:connector-curvature="0" />
</svg>
