<?xml version="1.0" encoding="UTF-8" standalone="no"?>
<!-- Created with Inkscape (http://www.inkscape.org/) -->

<svg
   xmlns:dc="http://purl.org/dc/elements/1.1/"
   xmlns:cc="http://creativecommons.org/ns#"
   xmlns:rdf="http://www.w3.org/1999/02/22-rdf-syntax-ns#"
   xmlns:svg="http://www.w3.org/2000/svg"
   xmlns="http://www.w3.org/2000/svg"
   xmlns:sodipodi="http://sodipodi.sourceforge.net/DTD/sodipodi-0.dtd"
   xmlns:inkscape="http://www.inkscape.org/namespaces/inkscape"
   version="1.1"
   id="svg587"
   width="884"
   height="497"
   viewBox="0 0 884 497"
   sodipodi:docname="Score_Notated.svg"
   inkscape:version="0.92.1 r15371">
  <metadata
     id="metadata593">
    <rdf:RDF>
      <cc:Work
         rdf:about="">
        <dc:format>image/svg+xml</dc:format>
        <dc:type
           rdf:resource="http://purl.org/dc/dcmitype/StillImage" />
        <dc:title></dc:title>
      </cc:Work>
    </rdf:RDF>
  </metadata>
  <defs
     id="defs591" />
  <sodipodi:namedview
     pagecolor="#ffffff"
     bordercolor="#666666"
     borderopacity="1"
     objecttolerance="10"
     gridtolerance="10"
     guidetolerance="10"
     inkscape:pageopacity="0"
     inkscape:pageshadow="2"
     inkscape:window-width="1366"
     inkscape:window-height="692"
     id="namedview589"
     showgrid="false"
     inkscape:zoom="0.98529412"
     inkscape:cx="442"
     inkscape:cy="248.5"
     inkscape:window-x="0"
     inkscape:window-y="27"
     inkscape:window-maximized="1"
     inkscape:current-layer="svg587" />
  <path
     style="fill:#000000"
     d="m 125.44859,496.75497 c -0.0112,-0.13607 -0.12368,-96.20189 -0.25,-213.47959 l -0.22967,-213.232187 23,-0.26781 23,-0.26781 -0.30654,-6.68086 c -0.66212,-14.43061 4.74396,-29.073138 13.61782,-36.884218 l 4.51652,-3.975598 2.42418,2.27034 c 6.16967,5.778138 14.24802,28.417836 14.24802,39.930306 v 5.84003 h 336.5 336.50004 V 283.50228 496.99699 l -376.50004,0.003 c -207.075,10e-4 -376.50915,-0.10864 -376.52033,-0.24471 z m 247.79936,-15.9974 -0.27903,-13.25 -121.75,-0.22603 -121.75,-0.22603 v 13.47603 13.47603 h 122.02903 122.02902 z m 167.22097,-0.25 v -13.5 h -81.5 -81.5 v 13.5 13.5 h 81.5 81.5 z m 167,-0.006 v -13.50588 l -81.25,0.25588 -81.25,0.25588 -0.27903,13.25 -0.27902,13.25 h 81.52902 81.52903 z m 167.00004,0.006 v -13.5 h -81.00004 -81 v 13.5 13.5 h 81 81.00004 z M 156.5632,460.0091 c 8.17744,-5.0718 20.41446,-14.62662 24.83003,-19.38758 l 2.42432,-2.61395 h -27.17432 -27.17431 v 13.5 13.5 h 9.51755 9.51754 z m 216.90572,-8.50153 v -13.5 h -88.32569 -88.32568 l -2.42432,2.58642 c -4.20891,4.49035 -15.03764,12.00262 -26.4013,18.3155 l -10.97699,6.09808 h 108.22699 108.22699 z m 167,0 v -13.5 h -81.5 -81.5 v 13.5 13.5 h 81.5 81.5 z m 167,0 v -13.5 h -81.5 -81.5 v 13.5 13.5 h 81.5 81.5 z m 167.00004,0 v -13.5 h -81.00004 -81 v 13.5 13.5 h 81 81.00004 z M 189.22748,430.02129 c 3.47764,-5.82058 4.90329,-9.87185 5.89916,-16.76372 l 0.61413,-4.25 h -11.51461 -11.5146 l -1.1637,2.80943 c -1.45982,3.52431 -5.87178,6.1917 -10.23323,6.18683 -4.14344,-0.005 -9.5099,-3.16513 -11.02662,-6.49396 -1.10396,-2.42294 -1.45217,-2.5023 -10.97961,-2.5023 h -9.83948 v 13.51557 13.51558 l 28.24033,-0.26558 28.24033,-0.26557 z m 184.02047,-7.76372 0.27902,-13.25 h -26.02902 -26.02903 v 8.5 8.5 h -21.5 -21.5 v -8.5 -8.5 h -34.36995 -34.36995 l -0.49285,4.37259 c -0.52481,4.65614 -6.15816,17.87702 -8.4156,19.75053 -0.74341,0.61697 -1.35165,1.51915 -1.35165,2.00485 0,0.50595 37.04772,0.77395 86.75,0.62755 l 86.75,-0.25552 z m -156.27903,5.55505 c -2.59428,-1.47112 -3.46584,-2.82174 -3.48469,-5.40006 -0.0365,-4.99179 7.54094,-7.30432 10.42799,-3.18248 2.2318,3.18634 1.93069,5.33815 -1.07816,7.70491 -3.02524,2.37966 -3.17646,2.40229 -5.86514,0.87763 z m 323.5,-5.30505 v -13.5 h -30 -30 v 8.5 8.5 h -21.5 -21.5 v -8.5 -8.5 h -30 -30 v 13.5 13.5 h 81.5 81.5 z m 167,0 v -13.5 h -29.5 -29.5 v 8.5 8.5 h -22 -22 v -8.5 -8.5 h -30 -30 v 12.83333 c 0,7.05834 0.3,13.13334 0.66667,13.5 0.36666,0.36667 37.04166,0.66667 81.5,0.66667 h 80.83333 z m 167.00004,0 v -13.5 h -29.5 -29.50004 v 8.5 8.5 h -22 -22 v -8.5 -8.5 h -29.5 -29.5 v 13.5 13.5 h 81 81.00004 z M 148.8143,401.50437 c 0.88384,-6.44832 4.13615,-12.2894 9.88141,-17.7468 l 5.00054,-4.75 h -17.11367 -17.11366 v 13.5 13.5 h 9.36408 9.36407 z m 46.65462,2.16213 c 0,-7.82733 -5.93534,-18.56497 -11.96128,-21.63918 -9.01268,-4.59792 -18.94639,-0.88453 -24.02309,8.98025 l -1.8012,3.5 h 4.31222 c 5.02206,0 8.74854,2.85357 10.67167,8.1719 l 1.20346,3.3281 h 10.79911 c 10.65688,0 10.79911,-0.0308 10.79911,-2.34107 z m 177.77903,-10.90893 -0.27903,-13.25 -90.5,-0.19432 c -70.47807,-0.15133 -90.08087,0.0699 -88.60551,1 9.98316,6.29357 15.60551,14.17419 15.60551,21.87363 v 3.82069 h 82.02903 82.02902 z m -158.08013,4.46978 c -4.21958,-4.66258 0.7376,-11.70727 6.26627,-8.90506 3.82843,1.94045 4.77177,4.27833 3.00363,7.44391 -1.93358,3.46178 -6.76952,4.22404 -9.2699,1.46115 z m 325.08013,-4.46978 -0.27903,-13.25 h -81 -81 l -0.27903,13.25 -0.27902,13.25 h 81.55805 81.55805 z m 167.22097,-0.25588 v -13.50588 l -81.25,0.25588 -81.25,0.25588 -0.27903,13.25 -0.27902,13.25 h 81.52902 81.52903 z m 167.00004,0.006 v -13.5 h -81.00004 -81 v 13.5 13.5 h 81 81.00004 z M 373.46892,283.00757 v -94 h -85.78199 -85.78199 l -0.11597,10.8751 c -0.15874,14.88662 -3.38733,22.18661 -12.54947,28.3749 -3.50048,2.36429 -5.07491,2.75 -11.22528,2.75 -6.1885,0 -7.77551,-0.39431 -11.76189,-2.9224 -8.13492,-5.15902 -12.48906,-16.05963 -9.38364,-23.49196 1.16295,-2.78332 2.63829,-4.15728 6.11579,-5.69555 6.89691,-3.05083 11.74618,-1.2215 15.35948,5.79417 3.47065,6.7387 -2.3977,15.25504 -10.57538,15.34734 l -2.79966,0.0316 2.76396,2.43244 c 4.14075,3.6441 9.86806,5.08099 14.60064,3.66307 5.494,-1.64604 8.81003,-4.58997 11.83545,-10.50736 2.22559,-4.35302 2.70529,-6.81733 3.0953,-15.90135 l 0.46155,-10.75 h -34.12845 -34.12845 v 94 94 h 122 122 z m -153.85658,78.79015 c -6.41912,-6.4833 -8.6494,-11.86747 -8.61188,-20.79015 0.0384,-9.14004 2.66363,-15.29929 8.73637,-20.49733 5.68986,-4.8703 6.79499,-4.37944 1.95694,0.86922 -4.94214,5.36159 -6.72406,12.46165 -5.95424,23.72456 0.56743,8.30178 2.30925,12.67113 7.03751,17.65355 4.57303,4.81885 1.69148,3.94488 -3.1647,-0.95985 z m 39.98589,0.50182 c 5.10415,-5.66845 6.38033,-10.07257 6.31463,-21.79197 -0.0617,-11.01225 -1.18638,-14.38514 -6.75206,-20.25 -1.69632,-1.7875 -2.54544,-3.25 -1.88694,-3.25 1.99703,0 8.92837,7.81765 11.33001,12.77878 2.65072,5.47565 3.08951,15.44583 0.95225,21.63708 -1.40561,4.07179 -7.9448,11.90806 -11.52455,13.81049 -1.32251,0.70284 -0.76034,-0.3501 1.56666,-2.93438 z m -30.12931,-7.08376 c 0,-0.43549 2.05846,-2.79799 4.57436,-5.25 10.0482,-9.79306 14.30444,-18.13884 12.25248,-24.02508 -1.1623,-3.33418 -3.48929,-4.93313 -7.17931,-4.93313 -3.90922,0 -5.59836,1.00515 -7.34571,4.37118 -0.89332,1.72085 -1.80401,2.59683 -2.02375,1.94661 -0.62194,-1.84027 2.49281,-7.12156 5.27533,-8.94474 4.06207,-2.66157 10.03623,-2.14039 13.49955,1.17768 2.4339,2.33182 2.94705,3.63164 2.94705,7.46492 0,5.49149 -3.14891,10.79993 -10.94241,18.44676 -2.78167,2.72932 -5.05759,5.36447 -5.05759,5.85588 0,0.49142 3.64004,0.72818 8.08899,0.52614 6.56968,-0.29835 8.35401,-0.72978 9.5,-2.29702 1.72752,-2.36252 1.80097,-1.26783 0.21012,3.13159 l -1.20089,3.321 h -11.29911 c -6.21451,0 -11.29911,-0.35631 -11.29911,-0.79179 z m 311,-72.20821 v -94 h -81.5 -81.5 v 94 94 h 81.5 81.5 z m 167,0 v -94 h -81.5 -81.5 v 94 94 h 81.5 81.5 z m 167.00004,0 v -94 h -81.00004 -81 v 94 94 h 81 81.00004 z m -704.47032,-98.1811 c -5.89404,-3.1067 -13.63847,-11.61085 -16.96359,-18.62769 l -2.93387,-6.19121 h -10.31613 -10.31613 v 13.5 13.5 l 22.25,-0.0442 22.25,-0.0442 -3.97028,-2.09271 z m 203.24935,-11.57519 0.27907,-13.2563 -75.75146,0.2563 -75.75145,0.25629 -0.70947,4.15625 c -1.39044,8.14562 -6.66401,15.33667 -14.84576,20.24372 l -3.5,2.09914 85,-0.24955 85,-0.24956 z m 167.22093,0.25629 v -13.5 h -81.5 -81.5 v 13.5 13.5 h 81.5 81.5 z m 167,0 v -13.5 h -81.5 -81.5 v 12.83333 c 0,7.05834 0.3,13.13334 0.66667,13.5 0.36666,0.36667 37.04166,0.66667 81.5,0.66667 h 80.83333 z m 167.00004,0 v -13.5 h -81.00004 -81 v 13.5 13.5 h 81 81.00004 z m -678.5511,9.58262 c 0.31183,-0.50456 -0.18928,-5.90456 -1.11359,-12 l -1.68055,-11.08262 h -8.86258 c -8.33522,0 -8.80326,0.11085 -7.86562,1.86286 0.54834,1.02457 2.58917,3.26082 4.53519,4.96944 3.74081,3.28448 4.63193,6.1677 1.90624,6.1677 -3.05888,0 -8.38025,-4.16471 -10.9719,-8.58703 l -2.58617,-4.41297 h -5.90498 c -7.07598,0 -7.38117,0.8935 -2.94629,8.62582 3.56145,6.20946 9.59396,11.17901 16.44487,13.54719 5.38589,1.86175 18.08216,2.46813 19.04538,0.90961 z m 9.22218,-3.02369 c 4.28307,-2.61161 8.38805,-9.8578 8.63255,-15.23836 l 0.19633,-4.32057 -8.37327,-0.29243 c -6.9219,-0.24175 -8.27835,-0.0451 -7.82562,1.13473 0.30121,0.78494 1.12835,5.75404 1.83808,11.04243 0.70974,5.2884 1.53127,9.61359 1.82562,9.61153 0.29436,-0.002 1.96219,-0.87385 3.70631,-1.93733 z m -56.36776,-29.98051 c -0.5109,-6.0939 0.10057,-10.93325 2.32024,-18.36305 0.49221,-1.64756 -0.29849,-1.76276 -10.29522,-1.5 l -10.82838,0.28463 -0.27903,13.25 -0.27902,13.25 h 9.97084 9.97085 z m 19.7186,1.67158 c 0.0354,-8.45764 4.17519,-15.18777 12.57371,-20.44119 1.56525,-0.9791 0.39086,-1.19894 -6.59567,-1.23469 -4.675,-0.0239 -9.045,0.30286 -9.71112,0.72618 -2.56313,1.62889 -8.28888,18.14517 -8.28888,23.9098 0,2.1321 0.41347,2.2899 6,2.2899 h 6 l 0.022,-5.25 z m 23.6143,3.5 c -0.27419,-0.9625 -1.02136,-4.38538 -1.66038,-7.6064 -1.1598,-5.84607 -1.16733,-5.85531 -4.26659,-5.23546 -6.03992,1.20799 -10.09983,5.29458 -11.31974,11.39413 l -0.63955,3.19773 h 9.19239 c 8.2779,0 9.14279,-0.1741 8.69387,-1.75 z m 19.17772,-2.40938 c -1.27269,-2.28766 -4.02754,-5.40763 -6.12189,-6.93327 -3.69317,-2.69029 -9.30171,-4.63106 -10.35096,-3.58182 -0.45865,0.45866 1.12596,10.18752 2.18654,13.42447 0.28287,0.86333 2.91373,1.25 8.50493,1.25 h 8.09537 z m 161.96505,-9.09062 -0.27903,-13.25 -84.95475,-0.25569 -84.95475,-0.25569 4.47441,2.83759 c 7.51125,4.76349 13.85999,14.00709 13.91313,20.25712 0.0121,1.42084 0.32196,2.88334 0.68863,3.25 0.36666,0.36667 34.57972,0.66667 76.02902,0.66667 h 75.36236 z m 167,0 -0.27903,-13.25 h -81 -81 l -0.27903,13.25 -0.27902,13.25 h 81.55805 81.55805 z m 167.22097,-0.25588 v -13.50588 l -81.25,0.25588 -81.25,0.25588 -0.27903,13.25 -0.27902,13.25 h 81.52902 81.52903 z m 167.00004,0.006 v -13.5 h -81.00004 -81 v 13.5 13.5 h 81 81.00004 z M 156.04784,121.87765 c 2.04805,-3.37146 5.79314,-8.65936 8.32241,-11.75089 2.52927,-3.09154 5.21627,-6.40807 5.97111,-7.37008 1.2975,-1.65359 0.21895,-1.74911 -19.75,-1.74911 h -21.12244 v 13.5 13.5 h 11.4276 11.42759 z m 29.42108,4.94802 c 0,-0.65005 -0.97409,-4.79193 -2.16464,-9.20418 l -2.16465,-8.02228 -4.28289,4.86718 c -2.35559,2.67694 -5.68446,6.81882 -7.39749,9.20417 l -3.1146,4.33701 h 9.56213 c 6.6892,0 9.56214,-0.3551 9.56214,-1.1819 z m 188,-12.33498 v -13.51688 l -25.75,0.26688 -25.75,0.26688 -0.29044,8.25 -0.29044,8.25 h -21.45956 -21.45956 v -8.5 -8.5 h -44.68555 c -43.32448,0 -44.75046,0.061 -46.81663,2.00205 l -2.13108,2.00205 3.06663,11.49025 3.06663,11.49026 91.25,0.008 91.25,0.008 V 114.4913 Z m 167,0.002 v -13.51488 l -29.75,0.26488 -29.75,0.26488 -0.29044,8.25 -0.29044,8.25 h -21.45956 -21.45956 v -8.5 -8.5 h -30 -30 v 13.5 13.5 h 81.5 81.5 z m 167,0.0149 v -13.5 h -29.5 -29.5 v 8.5 8.5 h -22 -22 v -8.5 -8.5 h -30 -30 v 13.5 13.5 h 81.5 81.5 z m 167.00004,0 v -13.5 h -29.5 -29.50004 v 8.5 8.5 h -22 -22 v -8.5 -8.5 h -29.5 -29.5 v 13.5 13.5 h 81 81.00004 z M 175.42034,97.566113 c 0.9426,-1.13576 0.60283,-3.99882 -1.60211,-13.5 l -2.79843,-12.05854 h -20.77544 -20.77544 v 13.5 13.5 h 22.37756 c 18.26734,0 22.59728,-0.26476 23.57386,-1.44146 z m 198.04858,-12.05854 v -13.5 h -84.37004 -84.37004 l -1.29462,4.62393 c -0.71204,2.54316 -3.58302,8.05566 -6.37996,12.25 -2.79694,4.19434 -5.4452,8.18857 -5.88503,8.87607 -0.63765,0.99672 17.75041,1.25 90.75,1.25 h 91.54969 z m 167,0 v -13.5 h -81.5 -81.5 v 13.5 13.5 h 81.5 81.5 z m 167,0 v -13.5 h -81.5 -81.5 v 13.5 13.5 h 81.5 81.5 z m 167.00004,0 v -13.5 h -81.00004 -81 v 13.5 13.5 h 81 81.00004 z m -685.06647,-6.5 4.19652,-6.5 -8.18926,-0.29245 c -4.5041,-0.16084 -8.43471,-0.047 -8.73471,0.253 -0.52978,0.52978 2.52863,16.28175 3.45474,17.79325 0.60943,0.99463 4.09981,-3.24147 9.27271,-11.2538 z m 6.01734,-12.25 c 1.87444,-5.31321 2.37461,-14.86498 1.09993,-21.00511 -0.65595,-3.159686 -1.40808,-5.744886 -1.6714,-5.744886 -1.84053,0 -6.79534,3.665589 -10.23159,7.569376 -4.49859,5.11066 -8.14785,13.60612 -8.14785,18.96814 v 3.46248 h 8.90217 8.90218 z M 104.702,487.55483 c -9.319365,-8.1277 -15.607505,-15.77321 -20.143135,-24.49127 -10.28706,-19.77302 -10.06483,-39.83994 0.78689,-71.05599 11.51486,-33.12361 13.24952,-38.46478 14.677025,-45.19197 2.31148,-10.89293 2.06497,-25.02757 -0.573715,-32.89598 -3.50656,-10.45637 -10.49966,-20.2389 -19.29406,-26.99016 l -4.44441,-3.41187 8.18686,-8.00501 c 13.21546,-12.92191 17.742345,-23.13224 17.707865,-39.9399 -0.0222,-10.8472 -2.133825,-20.79392 -7.987235,-37.62433 -2.18843,-6.29243 -5.84609,-16.81413 -8.12813,-23.38156 -6.23587,-17.94608 -8.21783,-27.42546 -8.27109,-39.55922 -0.0558,-12.70826 1.71155,-20.33315 7.41713,-32 3.46818,-7.091757 5.84225,-10.188137 14.32974,-18.689487 9.016085,-9.03082 14.415545,-12.73148 16.107395,-11.03963 0.28109,0.28109 -3.46842,4.49763 -8.33225,9.3701 -13.169735,13.19314 -17.271955,22.601117 -17.271955,39.611277 0,12.14263 1.94336,20.66591 10.572765,46.37051 9.83825,29.30542 11.39839,35.68911 12.06755,49.37723 0.66187,13.53919 -0.92404,22.7294 -5.67845,32.90594 -4.07316,8.71835 -12.724365,19.88693 -20.321945,26.23532 -3.37696,2.82171 -6.13992,5.45461 -6.13992,5.85087 0,0.39626 2.41903,2.78532 5.37561,5.30902 17.739815,15.14243 27.061785,34.16597 27.107025,55.31786 0.0273,12.75807 -2.39369,23.61498 -11.07464,49.66459 -9.681965,29.05343 -11.857615,38.25224 -11.886355,50.2563 -0.0437,18.23526 5.56793,30.21349 20.207815,43.1347 6.23553,5.50349 6.70285,6.3254 3.59651,6.3254 -1.40366,0 -4.84357,-2.18284 -8.59289,-5.45274 z M 8.6123447,306.79772 C 2.1932147,300.31442 -0.03706527,294.93025 4.6473048e-4,286.00757 0.03886473,276.86753 2.6640947,270.70828 8.7368347,265.51024 c 5.6898503,-4.8703 6.7949803,-4.37944 1.9569403,0.86922 -4.9421403,5.36159 -6.7240703,12.46165 -5.9542403,23.72456 0.56743,8.30178 2.30925,12.67113 7.0375103,17.65355 4.57303,4.81885 1.69148,3.94488 -3.1647003,-0.95985 z m 39.9858903,0.50182 c 5.10415,-5.66845 6.38033,-10.07257 6.31463,-21.79197 -0.0617,-11.01225 -1.18638,-14.38514 -6.75206,-20.25 -1.69632,-1.7875 -2.54544,-3.25 -1.88694,-3.25 1.99703,0 8.92837,7.81765 11.33001,12.77878 2.65072,5.47565 3.0895,15.44583 0.95225,21.63708 -1.40561,4.07179 -7.94481,11.90806 -11.52456,13.81049 -1.3225,0.70284 -0.76034,-0.3501 1.56667,-2.93438 z m -28.14101,-7.11442 c -2.22889,-1.81744 -2.30565,-2.10007 -0.73627,-2.71103 0.96361,-0.37513 3.59846,0.0567 5.8552,0.95971 4.79324,1.91787 7.07622,1.4273 9.86668,-2.1202 4.33226,-5.50757 0.91398,-12.95788 -6.53068,-14.23394 l -3.94323,-0.67589 3.15526,-1.67479 c 4.78512,-2.5399 6.34474,-4.54029 6.34474,-8.13785 0,-6.7031 -6.93295,-8.80445 -12.07693,-3.66048 -3.36964,3.36964 -3.87717,2.22557 -0.87997,-1.98361 1.12451,-1.57923 3.58644,-3.2954 5.47579,-3.81708 9.40291,-2.59626 16.04541,5.62234 10.11575,12.51598 l -2.36537,2.7499 3.36537,3.17394 c 2.69971,2.54616 3.36462,3.94177 3.36162,7.05587 -0.007,7.53077 -5.34929,12.78324 -14.24072,14.00195 -3.39593,0.46546 -4.79242,0.16779 -6.76724,-1.44248 z M 218.61234,54.797723 c -6.41912,-6.48329 -8.6494,-11.867461 -8.61188,-20.790146 0.0384,-9.140035 2.66363,-15.299288 8.73637,-20.497326 5.68986,-4.8703048 6.79499,-4.3794408 1.95694,0.869215 -4.94214,5.361588 -6.72406,12.461646 -5.95424,23.724558 0.56743,8.301779 2.30925,12.671139 7.03751,17.653549 4.57303,4.81885 1.69148,3.94488 -3.1647,-0.95985 z m 39.98589,0.50183 c 5.10415,-5.66846 6.38033,-10.07258 6.31463,-21.791976 -0.0617,-11.012249 -1.18638,-14.385144 -6.75206,-20.25 -1.69632,-1.7875 -2.54544,-3.25 -1.88694,-3.25 1.99703,0 8.92837,7.81765 11.33001,12.778776 2.65072,5.47565 3.08951,15.445839 0.95225,21.637087 -1.40561,4.071783 -7.9448,11.908053 -11.52455,13.810483 -1.32251,0.70284 -0.76034,-0.3501 1.56666,-2.93437 z m 92.36726,-0.42913 c -5.80488,-5.09675 -8.70286,-11.013814 -9.26891,-18.925139 -0.69471,-9.709407 1.01568,-14.948622 7.02751,-21.526527 5.79065,-6.3358888 8.57207,-7.3638308 3.31877,-1.226532 -4.56961,5.338567 -5.56664,9.080366 -5.5464,20.815352 0.018,10.458603 1.80409,16.107716 6.7185,21.249996 3.5592,3.72423 2.15859,3.48318 -2.24947,-0.38715 z m 38.17666,0.28843 c 5.88241,-5.37275 6.82677,-8.36781 6.82677,-21.651276 0,-12.940146 -0.87077,-15.945793 -6.30125,-21.75 -1.41511,-1.5125 -2.08044,-2.7499998 -1.47851,-2.7499998 2.24605,0 10.16991,10.1531878 11.83407,15.1635268 3.68324,11.089191 0.28883,23.698739 -8.28116,30.762849 -4.6959,3.87076 -6.78995,4.0519 -2.59992,0.2249 z m -153.3989,-7.32167 2.77434,-1.0125 -0.27434,-16.15855 -0.27433,-16.158556 -2.5,0.221909 c -1.95059,0.173141 -1.51107,-0.311394 2,-2.204813 2.475,-1.334697 4.8375,-2.447055 5.25,-2.471909 0.4125,-0.02485 0.75689,7.942313 0.76531,17.704813 0.008,9.7625 0.34592,18.267136 0.75,18.899186 0.40408,0.63205 1.85969,1.35827 3.23469,1.61382 1.375,0.25554 -1.325,0.49039 -6,0.52186 -6.85167,0.0461 -7.962,-0.13911 -5.72567,-0.95526 z m 139.53046,-4.579606 -0.30479,-4.75 -8.25,-0.290442 c -7.09256,-0.249695 -8.25,-0.536925 -8.25,-2.047314 0,-2.042989 17.89256,-27.3514048 19.75,-27.9356988 0.95612,-0.300766 1.25,2.6671238 1.25,12.6236988 v 13.016911 l 2.74145,0.316423 c 1.65345,0.190843 2.87316,1.010945 3.07332,2.066422 0.25774,1.359046 -0.35471,1.75 -2.74145,1.75 -3.02132,0 -3.07332,0.0846 -3.07332,5 0,4.286386 -0.27762,4.999996 -1.94521,4.999996 -1.61115,0 -1.99755,-0.81572 -2.25,-4.749996 z m -0.80479,-18.25 c 0,-4.95 -0.18754,-9 -0.41676,-9 -0.37261,0 -10.10069,13.626462 -11.958,16.75 -0.56399,0.948496 0.83878,1.25 5.81574,1.25 h 6.55902 z"
     id="path597"
     inkscape:connector-curvature="0" />
</svg>
