<?xml version="1.0" encoding="UTF-8" standalone="no"?>
<!-- Created with Inkscape (http://www.inkscape.org/) -->

<svg
   xmlns:dc="http://purl.org/dc/elements/1.1/"
   xmlns:cc="http://creativecommons.org/ns#"
   xmlns:rdf="http://www.w3.org/1999/02/22-rdf-syntax-ns#"
   xmlns:svg="http://www.w3.org/2000/svg"
   xmlns="http://www.w3.org/2000/svg"
   xmlns:sodipodi="http://sodipodi.sourceforge.net/DTD/sodipodi-0.dtd"
   xmlns:inkscape="http://www.inkscape.org/namespaces/inkscape"
   version="1.1"
   id="svg424"
   width="1226"
   height="571"
   viewBox="0 0 1226 571"
   sodipodi:docname="Score_Fingers.svg"
   inkscape:version="0.92.1 r15371">
  <metadata
     id="metadata430">
    <rdf:RDF>
      <cc:Work
         rdf:about="">
        <dc:format>image/svg+xml</dc:format>
        <dc:type
           rdf:resource="http://purl.org/dc/dcmitype/StillImage" />
        <dc:title></dc:title>
      </cc:Work>
    </rdf:RDF>
  </metadata>
  <defs
     id="defs428" />
  <sodipodi:namedview
     pagecolor="#ffffff"
     bordercolor="#666666"
     borderopacity="1"
     objecttolerance="10"
     gridtolerance="10"
     guidetolerance="10"
     inkscape:pageopacity="0"
     inkscape:pageshadow="2"
     inkscape:window-width="1366"
     inkscape:window-height="692"
     id="namedview426"
     showgrid="false"
     inkscape:zoom="0.71044046"
     inkscape:cx="613"
     inkscape:cy="285.5"
     inkscape:window-x="0"
     inkscape:window-y="27"
     inkscape:window-maximized="1"
     inkscape:current-layer="svg424" />
  <path
     style="fill:#000000"
     d="m 413.31623,569.51225 c -5.65364,-2.01528 -10.50229,-6.34835 -13.96796,-12.48269 -9.63526,-17.05466 3.09168,-38.17414 23.00435,-38.17414 17.61765,0 30.40408,17.3614 24.92827,33.84754 -4.66448,14.04341 -20.18095,21.7226 -33.96466,16.80929 z m 18.3725,-2.61274 c 9.55115,-4.32347 14.42197,-11.72059 14.43316,-21.91909 0.0152,-13.88667 -9.9137,-23.92562 -23.71528,-23.97804 -9.70586,-0.0369 -17.3948,4.67893 -21.97547,13.47804 -2.51806,4.83698 -2.78464,14.2982 -0.54943,19.5 5.32884,12.40135 19.88746,18.31464 31.80702,12.91909 z m -16.30615,-11.55857 c -1.4731,-1.4731 0.53406,-2.10076 3.33591,-1.04318 4.15756,1.5693 6.47024,-0.008 6.47024,-4.41285 0,-2.74071 -0.54676,-3.6396 -2.89985,-4.7674 -2.69373,-1.29107 -2.76481,-1.46366 -1,-2.42801 3.92636,-2.14551 4.58997,-6.00178 1.33279,-7.74497 -1.61439,-0.864 -2.61587,-0.74666 -4.57318,0.53582 -2.42145,1.5866 -2.4699,1.57439 -1.43401,-0.3612 2.08391,-3.89381 8.06335,-3.89613 10.14638,-0.004 0.81544,1.52365 0.69291,2.57487 -0.51499,4.41835 -1.47624,2.25303 -1.4468,2.55721 0.42893,4.43294 4.60798,4.60798 0.43221,12.01393 -6.77395,12.01393 -2.13333,0 -4.16655,-0.28777 -4.51827,-0.63948 z m -271.83497,12.12909 c -9.54222,-4.96995 -15.83003,-16.38767 -14.47382,-26.28229 2.92142,-21.31404 27.58528,-30.58641 43.70677,-16.43155 13.60639,11.94657 10.36889,34.38295 -6.17073,42.76421 -6.71633,3.40342 -16.4719,3.38211 -23.06222,-0.0504 z m 20.92324,-1.04029 c 15.6932,-6.54544 19.79477,-28.05324 7.55946,-39.64037 -11.80187,-11.17666 -31.03764,-7.84299 -38.60832,6.69105 -2.91779,5.60153 -2.93608,15.5588 -0.0386,21 2.67459,5.02257 7.75722,9.94112 12.30531,11.90806 4.57224,1.97737 14.09,1.99828 18.78212,0.0413 z m -16.32324,-12.51585 c -1.1444,-1.85169 0.27293,-2.1599 3.90042,-0.84819 4.46361,1.61406 6.6407,0.0945 6.6407,-4.63514 0,-3.52905 -3.66744,-7.45014 -6.96819,-7.45014 -2.82062,0 -3.03785,-1.06784 -1.02132,-5.02055 1.73831,-3.40738 2.36414,-3.80786 6.45962,-4.13358 2.74985,-0.21871 4.40502,0.0359 4.20506,0.64673 -0.18137,0.55407 -2.08915,1.15342 -4.23949,1.3319 -3.56397,0.2958 -5.3799,1.4434 -5.42037,3.4255 -0.008,0.4125 0.91931,0.75 2.06161,0.75 2.7085,0 7.92308,5.24726 7.92308,7.97274 0,2.89781 -2.56794,7.64749 -4.5448,8.40608 -2.59829,0.99705 -8.27865,0.71586 -8.99632,-0.44535 z m 133.90583,15.03558 c -5.53262,-1.70602 -12.70314,-7.30122 -15.79491,-12.32487 -2.28762,-3.71702 -3.08463,-6.36561 -3.39841,-11.29346 -0.69331,-10.88822 3.94935,-19.39751 13.71576,-25.13894 3.92414,-2.3069 5.73263,-2.70832 12.11285,-2.6886 8.50212,0.0263 13.27603,1.97716 18.69342,7.63919 9.76846,10.20957 9.61768,27.80969 -0.31694,36.99803 -6.61459,6.1177 -17.57588,9.10156 -25.01177,6.80865 z m 17.62504,-3.96382 c 4.36802,-2.2284 9.70542,-8.03142 11.63535,-12.65038 1.83293,-4.38683 1.74428,-13.53346 -0.17578,-18.13697 -3.72027,-8.91964 -12.49565,-14.6439 -22.44932,-14.6439 -17.81473,0 -29.20456,17.87559 -21.61671,33.92602 3.07234,6.49885 7.24757,10.32336 13.81276,12.65247 6.20471,2.20121 13.04916,1.7834 18.7937,-1.14724 z m -8.98975,-14.00523 c 0,-2.93333 -0.11111,-3 -5,-3 -3.11571,0 -5,-0.43553 -5,-1.15569 0,-1.30934 8.7469,-14.38937 10.71446,-16.0223 1.02944,-0.85436 1.28554,0.55122 1.28554,7.05555 0,7.45577 0.16415,8.12244 2,8.12244 1.1,0 2,0.45 2,1 0,0.55 -0.9,1 -2,1 -1.55556,0 -2,0.66667 -2,3 0,1.65 -0.45,3 -1,3 -0.55,0 -1,-1.35 -1,-3 z m 0,-10.5 c 0,-3.025 -0.3375,-5.48293 -0.75,-5.46206 -0.4125,0.0209 -2.45662,2.49587 -4.54249,5.5 l -3.79249,5.46206 h 4.54249 4.54249 z m 254.5,27.60006 c -12.94989,-6.00878 -19.02659,-22.00115 -13.14715,-34.60006 7.82248,-16.76262 29.42198,-20.6585 42.42783,-7.65266 12.43906,12.43907 8.86428,33.66916 -7.00049,41.57491 -6.47957,3.2289 -16.14827,3.52305 -22.28019,0.67781 z m 23.46083,-3.62255 c 2.45346,-1.65075 5.82677,-4.94487 7.49625,-7.32025 2.62952,-3.74135 3.07814,-5.34445 3.35478,-11.98807 0.29943,-7.1907 0.11249,-8.0101 -2.99625,-13.13328 -2.22475,-3.66636 -4.93636,-6.46293 -8.24177,-8.5 -4.36741,-2.69156 -5.78524,-3.03256 -12.5,-3.00637 -8.37659,0.0327 -11.80151,1.35198 -16.99692,6.54738 -4.41333,4.41333 -6.21616,8.36706 -6.81212,14.93944 -0.9253,10.20441 3.82382,18.82855 12.89362,23.41408 4.58386,2.31752 6.33455,2.65435 12.34158,2.37452 5.8042,-0.27038 7.76204,-0.83881 11.46083,-3.32745 z m -19.96083,-10.23565 c 0,-0.46724 1.61339,-2.4003 3.58532,-4.29569 4.19458,-4.03179 6.41468,-7.90686 6.41468,-11.19651 0,-4.56717 -4.61348,-6.31442 -8.17126,-3.09467 -1.00581,0.91024 -1.82874,1.1679 -1.82874,0.57258 0,-2.20322 5.31727,-5.36373 7.95672,-4.72936 6.49303,1.56055 6.71598,7.42504 0.54328,14.29057 -2.475,2.75279 -4.5,5.27646 -4.5,5.60815 0,1.15784 8.61043,0.5927 9.85654,-0.64693 1.00798,-1.00273 1.07507,-0.75546 0.33918,1.25 -0.83536,2.27655 -1.51075,2.52643 -7.55653,2.79569 -3.65156,0.16263 -6.63919,-0.0866 -6.63919,-0.55383 z m 130,13.67723 c -13.79107,-6.24273 -19.57342,-22.77195 -12.5037,-35.74264 5.01667,-9.204 13.12052,-14.06919 23.5037,-14.1106 18.09243,-0.0721 31.08376,19.24586 24.00648,35.69745 -2.46514,5.73037 -9.18306,12.57688 -14.53475,14.81296 -5.0372,2.10468 -15.08281,1.7822 -20.47173,-0.65717 z m 20.52219,-1.79017 c 16.33626,-7.42104 19.2917,-28.20065 5.71113,-40.15475 -7.34894,-6.46879 -16.79122,-7.79031 -25.77419,-3.6073 -8.79877,4.09724 -13.65913,11.82594 -13.65913,21.72006 0,9.75541 5.77742,18.64328 14.62228,22.49464 4.48868,1.95453 14.31344,1.72169 19.09991,-0.45265 z m -13.20954,-11.83031 c 1.63015,-0.42213 1.78117,-1.51707 1.5,-10.87537 -0.29965,-9.97333 0.0518,-11.42324 2.76914,-11.42324 0.23001,0 0.41821,4.917 0.41821,10.92668 0,9.56547 0.21801,10.98364 1.75,11.38399 0.9625,0.25153 -0.5,0.45733 -3.25,0.45733 -2.75,0 -4.18431,-0.21123 -3.18735,-0.46939 z m 128.24517,14.20927 c -14.28377,-5.08836 -21.45106,-21.6054 -15.20017,-35.02883 9.66543,-20.75597 36.92944,-21.31907 47.40361,-0.97905 10.37223,20.14205 -10.67587,43.67672 -32.20344,36.00788 z m 16.69421,-1.93463 c 16.29112,-5.81373 21.34305,-26.90712 9.44729,-39.44536 -4.67837,-4.93104 -10.04456,-7.08009 -17.74356,-7.10593 -5.62666,-0.0189 -7.30416,0.43373 -11.96409,3.22804 -16.86215,10.11135 -15.45069,34.03899 2.50105,42.39869 5.6535,2.6327 12.04096,2.96523 17.75931,0.92456 z m -14.55818,-12.21273 c -1.4731,-1.4731 0.53406,-2.10076 3.33591,-1.04318 4.15756,1.5693 6.47024,-0.008 6.47024,-4.41285 0,-2.69693 -0.55316,-3.64266 -2.74507,-4.69322 l -2.74508,-1.31568 2.62321,-2.25639 c 1.9227,-1.65383 2.44531,-2.81692 1.95701,-4.35541 -1.00925,-3.17986 -3.60769,-3.64688 -6.8702,-1.2348 l -2.88934,2.13618 1.14644,-2.14214 c 2.89546,-5.41021 11.02303,-4.86789 11.02303,0.73553 0,1.55179 -0.5625,3.38947 -1.25,4.08372 -1.00099,1.01082 -0.92362,1.44654 0.38839,2.18723 3.73654,2.10946 2.56382,10.69958 -1.68319,12.32931 -2.11606,0.812 -7.94321,0.79983 -8.76135,-0.0183 z m 132.27553,14.15903 c -10.3894,-3.32996 -18.222,-14.0722 -18.2161,-24.98298 0,-7.30128 1.819,-11.95046 6.8313,-17.49855 12.8052,-14.17377 34.4703,-10.88868 42.9867,6.51808 2.3749,4.85423 2.6335,6.33801 2.1884,12.55862 -0.4397,6.14535 -1.0042,7.7721 -4.3822,12.62842 -6.816,9.79896 -18.7797,14.18296 -29.4081,10.77641 z m 14.5991,-1.99083 c 20.9574,-6.25247 23.4336,-34.49025 3.9315,-44.83331 -5.2693,-2.79461 -15.3855,-2.92491 -20.8204,-0.26818 -8.5964,4.20208 -13.6211,12.24264 -13.6576,21.85489 -0.026,6.87958 1.9193,12.00844 6.2787,16.5532 6.9146,7.20856 15.0344,9.44812 24.2678,6.6934 z m -9.7501,-18.02036 c 5.349,-5.85266 6.9996,-10.11137 5.213,-13.44971 -1.5254,-2.8502 -6.2879,-2.74213 -8.4319,0.19135 -1.5611,2.13588 -1.5691,2.0911 -0.1569,-0.88283 1.8533,-3.90298 5.767,-5.11507 9.217,-2.85453 4.9988,3.27531 4.3015,7.47649 -2.4365,14.67999 l -4.6955,5.01986 5.7488,-0.35624 c 4.4796,-0.2776 5.6356,-0.0622 5.2362,0.97554 -0.2819,0.73248 -0.5126,1.51998 -0.5126,1.75 0,0.23001 -3.1951,0.41821 -7.1003,0.41821 h -7.1004 z m 126.18159,18.4131 c -5.5236,-2.49741 -10.48,-7.12141 -13.3145,-12.42146 -1.6398,-3.06636 -2.1391,-5.75057 -2.1391,-11.5 0,-8.50448 1.9376,-13.26038 7.616,-18.69342 16.6809,-15.96017 44.203,-4.31926 44.1961,18.69342 0,10.77904 -5.7505,19.52489 -15.8585,24.13266 -5.4869,2.50121 -14.7111,2.40618 -20.5,-0.2112 z m 19.3548,-1.29636 c 8.9322,-3.7321 14.9841,-12.88982 14.9519,-22.6251 -0.033,-9.9653 -4.7359,-17.32849 -13.8067,-21.61671 -16.1643,-7.64169 -33.926,3.67558 -33.926,21.61671 0,9.83618 5.6502,18.61276 14.426,22.40806 4.4082,1.90645 14.039,2.02033 18.3548,0.21704 z m -12.1048,-12.31443 c 1.5172,-0.39647 1.75,-1.76693 1.75,-10.30066 0,-6.34182 -0.3961,-9.97537 -1.1134,-10.21448 -0.6124,-0.20413 0.063,-0.90698 1.5,-1.5619 l 2.6134,-1.19075 v 11.40523 c 0,10.02125 0.2124,11.46074 1.75,11.86256 0.9625,0.25153 -0.5,0.45733 -3.25,0.45733 -2.75,0 -4.2125,-0.2058 -3.25,-0.45733 z M 149.68873,483.98042 v -16 h -56.500006 -56.5 v -160.5 -160.50001 h 17.38073 17.38072 l 0.40657,-9.25 c 0.30954,-7.04239 0.9615,-10.3951 2.73174,-14.04805 2.97835,-6.14588 8.43309,-11.97314 10.79712,-11.53448 4.16231,0.77234 12.30312,21.46987 12.30312,31.27994 v 3.55259 h 306.000006 306 v -10.5 -10.5 l 4.25,-0.0237 c 2.3375,-0.013 92.9,-4.91142 201.24998,-10.88527 108.34999,-5.97384 197.33749,-10.6616 197.74999,-10.41724 0.4125,0.24435 0.75,9.86773 0.75,21.38527 v 20.94098 h 54 54 v 160.50001 160.5 H 887.78257 553.87641 l -0.67628,4.9171 -0.67627,4.9171 -8.16757,0.62145 c -8.50997,0.64747 -389.49393,21.54431 -392.78909,21.54431 -1.75969,0 -1.87847,-1.01173 -1.87847,-16 z m 68.60374,1.50307 c 34.59294,-1.92332 63.23376,-3.49832 63.64626,-3.5 0.4125,-0.002 0.75,-3.15307 0.75,-7.00307 v -7 h -65 -65 v 10.5 c 0,8.16247 0.30137,10.5 1.35374,10.5 0.74456,0 29.65706,-1.57362 64.25,-3.49693 z m 136.29638,-7.54858 c 29.92006,-1.62497 56.13256,-2.95449 58.25,-2.95449 3.7332,0 3.84988,-0.10608 3.84988,-3.5 v -3.5 h -65.5 -65.5 v 7.0417 7.0417 l 7.25,-0.58721 c 3.9875,-0.32296 31.73005,-1.91672 61.65012,-3.5417 z m 119.59988,-6.45645 c 25.3,-1.37849 47.575,-2.65384 49.5,-2.83409 1.925,-0.18026 -20.6875,-0.40339 -50.25,-0.49585 l -53.75,-0.1681 v 3 c 0,3.74327 -4.33388,3.70366 54.5,0.49804 z m -324.5,-15.49804 v -10 h -54.500006 -54.5 v 10 10 h 54.5 54.500006 z m 133,0 v -10 h -65 -65 v 10 10 h 65 65 z m 134,0 v -10 h -65.5 -65.5 v 10 10 h 65.5 65.5 z m 133.78621,0.25 -0.28621,-9.75 -65.25,-0.25724 -65.25,-0.25724 v 10.00724 10.00724 h 65.53621 65.53621 z m 667.21376,-0.27585 v -10.02584 l -200.75,0.31925 -200.74997,0.31925 -64.5,4.70065 c -35.475,2.58535 -65.2875,4.70332 -66.25,4.70659 -1.43413,0.005 -1.75,-0.89655 -1.75,-4.99405 v -5 h -65.5 -65.5 v 10 10 h 332.5 332.49997 z M 62.991184,438.51077 c 4.50865,-3.0083 10.44754,-7.49101 13.19754,-9.96157 l 5,-4.49194 -20.25,-0.0384 -20.25,-0.0384 v 10 10 h 7.05246 c 6.87787,0 7.2554,-0.13541 15.25,-5.46965 z m 86.697546,1.41999 c 0,-5.16233 1.98464,-8.96779 6.70698,-12.86034 l 3.74871,-3.09 H 125.59657 91.048724 l -3.93,3.30508 c -6.07963,5.11289 -10.23253,7.83815 -18.9198,12.41572 l -8.0102,4.22081 44.750006,0.0292 44.75,0.0292 z m 133,-4.36855 c 0,-4.63002 0.27314,-9.13002 0.60699,-10 0.54885,-1.43029 -4.53771,-1.58179 -53.10699,-1.58179 -50.76973,0 -53.67366,0.0959 -52.97839,1.75 2.47636,5.89141 0.44558,11.84116 -5.39666,15.81106 l -3.58922,2.43894 h 57.23214 57.23213 z m 134,-1.58179 v -10 h -52.61702 -52.61702 l -3.67595,3.78782 c -5.3274,5.48951 -10.21474,7.53242 -16.72798,6.9923 l -5.36203,-0.44467 v 4.83228 4.83227 h 65.5 65.5 z m 133.78621,0.25 -0.28621,-9.75 -65.25,-0.25724 -65.25,-0.25724 v 10.00724 10.00724 h 65.53621 65.53621 z m 133.21379,-0.25 v -10 h -65.5 -65.5 v 10 10 h 65.5 65.5 z m 70.26914,6.52073 c 28.17697,-1.91359 54.04336,-3.74941 57.48086,-4.07959 l 6.25,-0.60033 v -5.9204 -5.92041 h -65.5 -65.5 v 10 10 h 8.01914 c 4.41053,0 31.07303,-1.56567 59.25,-3.47927 z m 463.73083,-6.52073 v -10 h -64.9304 -64.9305 l -0.3195,2.25 -0.3196,2.25 -103.99999,7.16969 c -57.2,3.94333 -106.47498,7.34574 -109.49998,7.56092 -3.025,0.21517 73.13748,0.47631 169.24997,0.58031 l 174.75,0.18908 z m -326.408,-3.03798 c 31.95061,-2.17911 58.38811,-3.96202 58.75001,-3.96202 0.3619,0 0.658,-0.675 0.658,-1.5 0,-1.31807 -7.9444,-1.5 -65.49998,-1.5 h -65.5 v 6.06055 6.06055 l 6.75,-0.59853 c 3.7125,-0.32919 32.89139,-2.38144 64.84197,-4.56055 z m 84.90801,-5.90151 c 9.9394,-0.77591 9.9015,-0.7815 -6.25,-0.92058 -13.6557,-0.11759 -16.25,0.0935 -16.25,1.32244 0,1.18498 1.1856,1.3596 6.25,0.92059 3.4375,-0.29799 10.75,-0.89309 16.25,-1.32245 z M 86.408844,415.14305 c 1.82775,-3.53158 3.27988,-7.84828 3.27988,-9.75 v -3.41263 h -8.01409 c -7.75443,0 -8.10679,0.10374 -10.87485,3.20174 -3.93999,4.40961 -9.3215,4.36554 -13.31957,-0.10907 -2.59141,-2.9003 -3.19958,-3.09267 -9.77739,-3.09267 h -7.0141 v 10.01989 10.01989 l 21.22012,-0.26989 21.22011,-0.26989 z m 199.886666,3.89283 c 4.14828,-4.92995 8.91951,-7.28591 15.04234,-7.4277 4.88443,-0.1131 5.79476,0.19416 7.93418,2.678 1.32919,1.54317 2.4167,3.90567 2.4167,5.25 v 2.44424 h 52.5 52.5 v -4.04966 c 0,-5.16233 1.98464,-8.96779 6.70698,-12.86034 l 3.74871,-3.09 H 263.91657 c -162.00502,0 -163.22784,0.0148 -163.22784,1.97976 0,2.61522 -2.784266,9.59502 -5.692436,14.27024 l -2.33265,3.75 h 95.577106 95.5771 z m -181.3638,-4.21248 c -2.89869,-2.89869 -0.30655,-7.27343 3.95198,-6.66974 1.90542,0.27011 2.30504,0.93354 2.30504,3.82676 0,2.99137 -0.36433,3.54258 -2.50702,3.79298 -1.37887,0.16113 -3.06637,-0.26637 -3.75,-0.95 z m 445.56577,-2.84109 -0.30875,-9.99812 -53.35699,-0.002 c -50.43015,-0.002 -53.31664,0.0941 -52.6214,1.74811 2.47636,5.89141 0.44558,11.84116 -5.39666,15.81106 l -3.58922,2.43906 h 57.79089 57.79089 z m 133.19125,-0.002 v -10 h -52.61702 -52.61702 l -3.67595,3.78782 c -5.3274,5.48951 -10.21474,7.53242 -16.72798,6.9923 l -5.36203,-0.44467 v 4.83228 4.83227 h 65.5 65.5 z m 134,0 v -10 h -65.5 -65.5 v 10 10 h 65.5 65.5 z m 132.99998,0 v -10 h -65.49998 -65.5 v 10 10 h 65.5 65.49998 z m 100.99999,8 c 15.125,-1.08326 28.7375,-1.97642 30.25,-1.98478 l 2.75,-0.0152 v -8 -8 h -65.5 -65.49999 v 10 10 l 35.25,-0.0152 c 24.95549,-0.0108 43.28119,-0.59041 62.74999,-1.98478 z m 166,-8 v -10 h -65 -65 v 10 10 h 65 65 z m -1162.994396,-13.75 c 0.0138,-4.32203 2.46809,-9.80856 6.1977,-13.8547 l 4.05144,-4.3953 h -12.12736 -12.12736 v 10 10 h 7 c 5.99788,0 7.0008,-0.25053 7.00558,-1.75 z m 34.89808,-2.7363 c -1.04269,-5.58127 -2.93371,-9.28497 -6.38921,-12.5137 -2.16228,-2.02039 -3.6998,-2.5 -8.01445,-2.5 -5.80347,0 -9.22794,2.18962 -12.12069,7.75 -1.42419,2.73755 -1.4155,2.75 1.9207,2.75 3.60778,0 6.94288,2.76137 8.15245,6.75 0.6362,2.0979 1.24362,2.25 8.98583,2.25 h 8.3035 z m 463.703126,1.54176 c 4.14828,-4.92995 8.91951,-7.28591 15.04234,-7.4277 4.88443,-0.1131 5.79476,0.19416 7.93418,2.678 1.32919,1.54317 2.4167,3.90567 2.4167,5.25 v 2.44424 h 52.5 52.5 v -4.04966 c 0,-5.16233 1.98464,-8.96779 6.70698,-12.86034 l 3.74871,-3.09 -302.97785,0.004 c -295.384396,0.004 -302.902656,0.0502 -299.977846,1.85682 5.47528,3.38205 9.500006,9.99417 9.500006,15.60732 v 2.53212 h 225.06456 225.06456 l 2.47766,-2.94454 z m -448.3638,-4.21248 c -2.89869,-2.89869 -0.30655,-7.27343 3.95198,-6.66974 1.90542,0.27011 2.30504,0.93354 2.30504,3.82676 0,2.99137 -0.36433,3.54258 -2.50702,3.79298 -1.37887,0.16113 -3.06637,-0.26637 -3.75,-0.95 z m 712.75702,-2.84298 v -10 h -53.60699 c -50.66783,0 -53.56666,0.096 -52.8714,1.75 2.47636,5.89141 0.44558,11.84116 -5.39666,15.81106 l -3.58922,2.43894 h 57.73214 57.73213 z m 132.99998,0 v -10 h -52.117 -52.11702 l -3.67595,3.78782 c -2.02178,2.0833 -5.29963,4.5583 -7.28411,5.5 -4.03548,1.91496 -10.92978,2.25143 -13.87164,0.677 -1.80406,-0.96551 -1.93426,-0.6626 -1.93426,4.5 v 5.53518 h 65.5 65.49998 z m 133.99999,0 v -10 h -65.5 -65.49999 v 10 10 h 65.49999 65.5 z m 133,0 v -10 h -65 -65 v 10 10 h 65 65 z M 821.29551,375.03588 c 4.09438,-4.86589 8.93239,-7.28572 14.85033,-7.4277 6.57431,-0.15772 9.54289,2.02829 9.54289,7.02723 v 3.34501 h 52.37277 52.37281 l 0.4876,-5.07449 c 0.8806,-9.16494 8.6095,-16.06599 18.2464,-16.29208 5.0729,-0.11902 5.948,0.16953 8.1037,2.67233 1.3292,1.54317 2.4167,3.72517 2.4167,4.84887 0,3.61355 -3.1862,8.8998 -6.875,11.40643 l -3.5893,2.43894 h 57.73219 57.7321 v -9.5 -9.5 h -4.5 c -3.3333,0 -4.5,-0.38889 -4.5,-1.5 0,-1.12556 1.2014,-1.5 4.8129,-1.5 4.0676,0 5.2677,-0.4754 7.75,-3.07005 4.8968,-5.11843 9.0657,-7.16236 14.8942,-7.30219 6.2891,-0.15088 9.1644,1.83781 10.1346,7.00953 0.5877,3.13231 0.8973,3.36271 4.5196,3.36271 2.79,0 3.8887,0.42382 3.8887,1.5 0,1.11275 -1.1704,1.5 -4.5333,1.5 -3.799,0 -5.0701,0.53673 -7.8466,3.31326 -5.0452,5.04517 -9.9372,6.99103 -16.2581,6.46686 l -5.362,-0.44467 v 4.83228 4.83227 h 65 65 v -70.5 -70.5 H 831.57171 445.45469 l -3.67595,3.78782 c -4.75061,4.89517 -9.74195,7.21218 -15.53659,7.21218 -5.69911,0 -9.55342,-3.20925 -9.55342,-7.95455 v -3.04545 h -52.5 -52.5 v 4.09887 c 0,5.85792 -2.58363,10.51858 -7.83313,14.13033 -5.10103,3.5096 -13.26484,4.8591 -17.07132,2.82194 -5.64459,-3.0209 -4.59202,-11.75841 2.10727,-17.49275 l 4.15718,-3.55839 h -57.18 -57.18 v 9.5 9.5 h 4 c 3.33333,0 4,0.33333 4,2 0,1.70588 -0.66667,2 -4.53333,2 -3.79896,0 -5.07007,0.53673 -7.8466,3.31326 -6.9823,6.9823 -17.42209,8.97563 -22.16552,4.23219 -1.35,-1.35 -2.45455,-3.6 -2.45455,-5 0,-2.30303 -0.38095,-2.54545 -4,-2.54545 -3.33333,0 -4,-0.33333 -4,-2 0,-1.70993 0.66667,-2 4.59655,-2 3.93843,0 5.24704,-0.57258 9.13975,-3.99909 5.49565,-4.83745 11.20272,-6.65623 16.5137,-5.26271 l 3.75,0.98394 v -5.36107 -5.36107 h -40.5 -40.500006 v 7.35078 c 0,15.24962 -6.54821,23.87999 -18.11873,23.87999 -10.05874,0 -16.63111,-7.61615 -15.98723,-18.52622 0.0583,-0.9875 1.21051,-2.9 2.56051,-4.25 5.27277,-5.27277 14.58443,-1.58369 14.51365,5.75 -0.0414,4.29159 -1.94471,6.67927 -6.6,8.27968 l -3.77499,1.29778 3.4534,2.10526 c 10.31099,6.28578 19.58858,-1.80558 20.70237,-18.05537 l 0.53681,-7.8319 h -25.64289 -25.6429 v 70.5 70.5 H 429.75329 818.81785 Z M 70.903964,233.31591 c -4.24348,-2.0915 -11.77774,-10.48362 -13.37327,-14.89599 l -1.24374,-3.43951 h -7.79911 -7.79912 v 10.00001 10 l 16.75,-0.0228 c 16.12964,-0.0219 16.62835,-0.0827 13.46524,-1.64174 z m 104.784766,-8.33549 v -10.00001 h -32.87219 -32.87219 l -0.61219,3.82839 c -0.80164,5.01319 -5.65098,11.6005 -10.375876,14.09453 l -3.76756,1.9887 40.250006,0.0442 40.25,0.0442 z m 134,0 v -10.00001 h -65.5 -65.5 v 10.00001 10 h 65.5 65.5 z m 112.28957,5.54703 c 5.54469,-5.31274 11.31677,-7.28964 16.96043,-5.80883 l 3.75,0.98394 v -5.36108 -5.36107 h -65.5 -65.5 v 10.00001 10 h 52.8211 52.8211 z m 128.86334,-1.12405 c -0.34178,-5.49423 -0.27637,-5.64752 4.26756,-10.00137 l 4.61465,-4.42162 h -57.01756 -57.01756 v 10.00001 10 l 52.75,0.001 52.75,10e-4 -0.34709,-5.57975 z m 666.84706,-4.42298 V 214.98041 H 965.07171 712.45469 l -3.67595,3.78782 c -4.75061,4.89518 -9.74195,7.21219 -15.53659,7.21219 -5.69911,0 -9.55342,-3.20925 -9.55342,-7.95456 v -3.04545 h -52.5 -52.5 v 4.09887 c 0,5.5378 -2.54393,10.51913 -6.87505,13.4622 l -3.58922,2.43894 H 892.9566 1217.6887 Z M 90.120814,232.09031 c 0.30257,-0.48956 0.034,-4.53956 -0.59677,-9 l -1.14689,-8.1099 h -6.34421 c -3.48932,0 -6.34422,0.36581 -6.34422,0.81291 0,0.4471 1.35,2.10629 3,3.68709 3.24423,3.10818 3.89655,5.50001 1.5,5.50001 -1.66483,0 -9.5,-7.4228 -9.5,-9.00001 0,-0.55 -2.025,-1 -4.5,-1 -3.71167,0 -4.5,0.32408 -4.5,1.84996 0,4.60277 8.79245,13.05516 15.76405,15.15434 3.74408,1.12735 11.99406,1.19613 12.66804,0.1056 z m 8.75863,-3.85989 c 3.483286,-3.73465 4.809286,-6.54263 4.809286,-10.18427 v -3.06574 h -6.108416 c -5.86829,0 -6.08579,0.0901 -5.5332,2.29178 0.31636,1.26048 0.8771,4.86048 1.24609,8.00001 0.75664,6.4378 1.81709,6.99937 5.58624,2.95822 z m -43.6722,-22.50001 c -0.0102,-3.9875 0.32756,-8.4875 0.75054,-10 l 0.76905,-2.75 h -8.01905 -8.01906 v 10 10 h 7.26852 7.26851 l -0.0185,-7.25 z m 14.48148,3.3151 c 0,-5.46378 1.49185,-8.8497 5.61082,-12.73438 l 3.53159,-3.33072 h -6.04815 c -5.17947,0 -6.25466,0.32316 -7.48596,2.25 -1.767,2.76512 -4.6083,12.2796 -4.6083,15.4315 0,2.08118 0.46061,2.3185 4.5,2.3185 h 4.5 z m 17.67669,1.6849 c -0.29708,-1.2375 -0.85243,-3.97209 -1.23412,-6.07686 -0.63659,-3.51035 -0.91103,-3.77619 -3.31827,-3.2143 -3.50497,0.81811 -8.1243,5.96773 -8.1243,9.05694 0,2.39502 0.2373,2.48422 6.60841,2.48422 6.34654,0 6.58701,-0.0892 6.06828,-2.25 z m 14.944006,-0.5 c -1.87113,-3.59665 -5.428546,-6.85453 -8.935796,-8.18339 -4.30594,-1.63148 -4.51164,-1.41491 -3.49867,3.68339 1.48938,7.49605 1.22439,7.25 7.80807,7.25 h 6.057066 z m 73.37931,-7.25 v -10 H 136.68585 97.682964 l 4.159186,3.75 c 4.31443,3.88998 7.78657,10.10242 7.82462,14 l 0.022,2.25 h 33 33 z m 134,0 v -10 l -31.75,-0.0121 c -27.99452,-0.0107 -88.5666,2.85414 -97,4.5877 -2.09161,0.42995 -2.25,0.98914 -2.25,7.94345 v 7.48095 h 65.5 65.5 z m 133,0 v -10 h -65.5 -65.5 v 10 10 h 65.5 65.5 z m 134,0 v -10 h -65.5 -65.5 v 10 10 h 65.5 65.5 z m 112.28957,5.54703 c 5.54469,-5.31274 11.31677,-7.28964 16.96043,-5.80883 l 3.75,0.98394 v -5.36107 -5.36107 h -65.5 -65.5 v 10 10 h 52.8211 52.8211 z m 129.4709,1.62933 c -1.59295,-4.2202 -0.10846,-8.18576 4.83882,-12.92609 l 4.43583,-4.25027 h -57.51756 -57.51756 v 10 10 h 53.41314 53.41313 z m 399.2395,-7.17636 v -10 h -119.117 -119.11699 l -3.676,3.78782 c -4.7506,4.89517 -9.7419,7.21218 -15.5366,7.21218 -5.6991,0 -9.5534,-3.20925 -9.5534,-7.95455 v -3.04545 h -51.8623 -51.86232 l -0.65336,5.55912 c -0.75333,6.40962 -2.50626,9.52843 -6.95859,12.38066 l -3.16341,2.02653 190.74997,0.0168 190.75,0.0169 z M 60.052484,186.62269 c 1.40458,-2.39675 4.62207,-6.89675 7.14996,-10 l 4.59617,-5.64228 h -15.55494 -15.55495 v 10 10 h 8.40498 8.40498 z m 22.63624,3.81324 c 0,-0.29947 -0.73172,-3.45749 -1.62605,-7.01783 -1.86149,-7.41066 -1.72403,-7.43508 -8.79282,1.56236 l -4.71383,5.99995 h 7.56635 c 4.1615,0 7.56635,-0.24502 7.56635,-0.54448 z M 175.68873,189.06 c 0,-2.46349 -8.16393,-1.74553 114.5,-10.06944 56.1,-3.80691 103.8,-7.09093 106,-7.2978 2.2,-0.20688 -67.22662,-0.45179 -154.28138,-0.54425 -146.423846,-0.15551 -158.328946,-0.0442 -158.916166,1.4861 -0.34913,0.90981 -0.0893,3.72231 0.57729,6.25 0.66664,2.52769 1.65876,6.2833 2.20471,8.3458 l 0.99263,3.75 h 44.461456 c 43.18054,0 44.46146,-0.0553 44.46146,-1.92041 z m 134,0.92041 c 0,-1.13201 -6.51648,-1.15108 -19,-0.0556 -8.32151,0.73026 -8.21126,0.74917 5.25,0.90075 8.60322,0.0969 13.75,-0.21946 13.75,-0.84515 z m 133,-4.5 v -5.5 h -3.90214 c -3.16037,0 -113.09028,7.33848 -123.52085,8.24575 -1.60764,0.13984 -3.10764,0.81675 -3.33333,1.50425 -0.32548,0.99146 13.15414,1.25 65.17299,1.25 h 65.58333 z m 134,-4.5 v -10 l -5.25,0.002 c -2.8875,0.001 -31.35,1.80024 -63.25,3.99758 -31.9,2.19734 -59.0125,3.99624 -60.25,3.99758 -2.08306,0.002 -2.25,0.44758 -2.25,6.00242 v 6 h 65.5 65.5 v -10 z m 133,0 v -10 h -65.5 -65.5 v 10 10 h 65.5 65.5 z m 134,0 v -10 h -65.5 -65.5 v 10 10 h 65.5 65.5 z m 112.28958,5.54703 c 5.5447,-5.31274 11.3168,-7.28964 16.9604,-5.80883 l 3.75,0.98394 v -5.36107 -5.36107 h -65 -64.99998 v 10 10 h 52.3211 52.32108 z m 129.47089,1.62933 c -1.593,-4.2202 -0.1085,-8.18576 4.8388,-12.92609 l 4.4358,-4.25027 h -57.5175 -57.51759 v 10 10 h 53.41309 53.4132 z m 132.2395,-7.17636 v -10 h -51.8601 -51.8601 l -0.5584,5.41087 c -0.6426,6.2257 -2.5759,9.65761 -7.058,12.52891 l -3.1634,2.02653 57.25,0.0168 57.25,0.0169 v -10 z M 74.583404,167.60731 c 1.01536,-1.22343 0.009,-8.24594 -2.48981,-17.3769 -0.25497,-0.93166 -4.29749,-1.25 -15.87348,-1.25 h -15.53139 v 10 10 h 16.37756 c 12.66514,0 16.63587,-0.31125 17.51712,-1.3731 z m 428.019076,-3.09692 c 36.07244,-2.45852 67.90666,-4.7075 70.74272,-4.99775 l 5.15647,-0.52772 0.68737,4.99775 0.68737,4.99774 h 64.90616 64.90616 v -10 -10 H 403.26628 96.843824 l -1.20468,3.75 c -0.66257,2.0625 -2.94747,6.38878 -5.07755,9.61395 -2.13008,3.22518 -3.87287,6.03768 -3.87287,6.25 0,0.21233 78.823696,0.38605 175.163756,0.38605 h 175.16374 z m 341.08625,-5.52998 v -10 h -65.5 -65.5 v 10 10 h 65.5 65.5 z m 132.99998,0 v -10 h -65 -64.99998 v 10 10 h 64.99998 65 z m 133.99999,0 v -10 h -65.5 -65.49999 v 10 10 h 65.49999 65.5 z m 107,0 v -10 h -52 -52 v 10 10 h 52 52 z M 83.570624,156.56463 c 2.26496,-3.25368 4.1181,-6.29118 4.1181,-6.75 0,-0.45882 -2.75008,-0.83422 -6.11129,-0.83422 h -6.11129 l 0.66138,3.75 c 0.76964,4.3639 2.63265,10.52765 3.04277,10.067 0.15522,-0.17435 2.13537,-2.9791 4.40033,-6.23278 z m 7.1319,-15.15069 c 1.114,-5.36607 0.65391,-13.73512 -0.89264,-16.2375 -1.22445,-1.9812 -9.09736,5.55724 -11.74745,11.24836 -1.29479,2.78059 -2.35856,6.29311 -2.36394,7.80561 -0.01,2.73636 0.0246,2.75 6.91934,2.75 h 6.9291 z m 752.986206,-2.93353 c 0,-6.13497 -0.3478,-8.49915 -1.25,-8.49693 -0.6875,0.002 -29.55332,1.57668 -64.14626,3.5 -34.59294,1.92331 -63.50544,3.49693 -64.25,3.49693 -0.95782,0 -1.35374,1.46232 -1.35374,5 v 5 h 65.5 65.5 z m 132.99998,-3.5 v -12 l -3.25,-0.014 c -5.2255,-0.0225 -115.7308,5.97513 -121.49998,6.59439 l -5.25,0.56352 v 8.42805 8.42804 h 64.99998 65 z m 133.99999,-4.06127 v -16.06128 l -4.25,0.53255 c -2.3375,0.2929 -31.8125,1.98531 -65.5,3.76092 l -61.24999,3.22838 v 12.30035 12.30035 h 65.49999 65.5 z M 17.211924,456.73042 C 4.459904,443.93132 -0.24778,431.71521 0.999964,414.66149 c 0.63764,-8.71504 2.32442,-14.81192 11.11658,-40.18107 3.0498,-8.8 6.07787,-19.46173 6.72903,-23.69274 2.28846,-14.86962 -1.97885,-27.09778 -13.15764,-37.70371 L 0,307.68752 6.656364,301.08397 c 10.03562,-9.95599 13.88047,-20.11916 12.585,-33.2662 -0.79645,-8.08272 -3.37062,-17.15579 -10.33514,-36.42794 -6.60209,-18.26925 -8.65793,-28.37788 -7.91431,-38.915 1.02224,-14.48535 6.8499,-25.96072 18.54369,-36.51479 8.90037,-8.03291 12.87719,-8.23519 4.51449,-0.22963 -7.1449,6.83977 -11.18874,13.40358 -13.00087,21.10255 -2.63723,11.20447 -1.1457,20.94705 6.75871,44.14745 7.74744,22.7397 9.21593,29.1624 9.25992,40.50001 0.0626,16.13175 -4.61331,26.87849 -17.04803,39.18184 l -7.25852,7.18184 7.50743,7.27956 c 9.09497,8.81889 14.54411,18.75783 16.45287,30.00914 1.91038,11.26086 0.16836,21.3066 -8.04184,46.37498 -10.45928,31.93558 -11.22783,41.41098 -4.47406,55.16028 2.55649,5.20447 5.22657,8.72237 9.67724,12.75 5.18013,4.68774 5.78512,5.56236 3.84763,5.56236 -1.54866,0 -4.98167,-2.69259 -10.51865,-8.25 z M 167.02071,142.07597 c -4.88053,-1.24697 -11.99339,-5.78509 -14.76715,-9.42168 -10.38582,-13.61651 -5.99353,-31.90602 9.69867,-40.385329 4.85286,-2.622252 16.9963,-2.40545 22.2365,0.396998 4.87989,2.609759 9.59478,7.476641 12.39989,12.799641 4.46389,8.47072 1.77322,22.9267 -5.52341,29.67521 -6.44244,5.95847 -16.50624,8.86118 -24.0445,6.93516 z m 16.64455,-4.10317 c 8.29434,-4.27757 13.03764,-12.19806 13.00151,-21.71027 -0.0522,-13.7397 -10.13411,-23.708144 -23.97804,-23.708144 -13.82288,0 -24,10.436944 -24,24.612724 0,5.78268 4.30325,14.26377 9.21348,18.15847 7.09562,5.62811 17.8419,6.73232 25.76305,2.64722 z m -13.72653,-12.07249 c 1.45903,-0.8498 1.75,-2.49764 1.75,-9.91057 0,-5.42064 -0.43202,-9.1583 -1.10676,-9.57531 -0.77153,-0.47683 -0.69581,-0.94441 0.25,-1.54371 3.43865,-2.17884 3.85676,-1.0908 3.85676,10.03637 0,9.56547 0.21801,10.98364 1.75,11.38399 0.9625,0.25153 -0.5,0.49584 -3.25,0.54292 -3.84744,0.0659 -4.5966,-0.14936 -3.25,-0.93369 z m 131.75,7.16179 c -20.94119,-4.37157 -28.6336,-29.38142 -13.64663,-44.368396 5.412,-5.411998 10.08822,-7.213294 18.72594,-7.213294 6.68862,0 8.1535,0.355065 12.46547,3.021431 15.38499,9.513536 17.85513,28.865149 5.28545,41.407319 -5.78582,5.77316 -15.24421,8.73656 -22.83023,7.15294 z m 16.54811,-4.996 c 17.97903,-10.31257 15.64032,-36.119761 -3.95132,-43.601875 -3.33706,-1.274437 -6.14589,-1.60374 -10.15229,-1.190243 -20.76962,2.143614 -29.33329,26.973548 -14.27982,41.403628 4.69568,4.50122 9.32198,6.21988 16.83532,6.25427 5.3743,0.0246 7.37425,-0.4717 11.54811,-2.86578 z m -15.50125,-14.83569 c 3.8598,-4.34782 6.95314,-9.75159 6.95314,-12.14645 0,-1.77895 -3.12401,-4.10355 -5.51472,-4.10355 -1.31741,0 -3.06394,0.988063 -3.92858,2.222506 -0.85618,1.222374 -1.5567,1.651924 -1.5567,0.954544 0,-2.021148 4.70958,-6.17705 7,-6.17705 2.12523,0 7,4.101383 7,5.889446 0,2.503074 -2.305,6.486124 -6.19701,10.708454 l -4.25234,4.61325 5.5677,-0.35557 c 4.90421,-0.31321 5.51293,-0.14704 5.10805,1.39442 -0.38225,1.45527 -1.63326,1.75 -7.42802,1.75 h -6.96835 z m 126.43833,8.64989 c -20.54946,-10.82914 -20.54106,-37.778262 0.0148,-47.512581 9.83534,-4.657566 21.18276,-2.637883 28.97839,5.157751 16.67666,16.676657 5.15445,44.45494 -18.43954,44.45494 -4.7411,0 -7.67716,-0.58426 -10.55366,-2.10011 z m 21.05568,-2.26676 c 8.97849,-4.18093 13.45913,-11.46021 13.45913,-21.86582 0,-9.934253 -4.57321,-17.180217 -13.5,-21.389886 -9.33121,-4.400388 -20.13468,-2.588896 -27.30139,4.577811 -5.34972,5.349724 -6.65891,8.700836 -6.65891,17.044765 0,8.34393 1.30919,11.69504 6.65891,17.04477 7.1617,7.1617 17.93399,8.96942 27.34226,4.58836 z m -17.54087,-12.24012 c 0,-1.14891 0.49884,-1.39365 1.75,-0.85857 0.9625,0.41163 2.94748,0.95498 4.41106,1.20743 5.40268,0.93193 6.42135,-7.809541 1.14389,-9.81603 l -2.6392,-1.00342 2.16712,-1.517914 c 2.84387,-1.991924 2.97424,-7.013563 0.2049,-7.892517 -1.07922,-0.342533 -2.99172,-0.122449 -4.25,0.489075 l -2.28777,1.111861 2.36078,-2.056462 c 2.64023,-2.299882 4.3603,-2.543696 7.20496,-1.021279 2.28871,1.224879 2.55024,5.205978 0.47812,7.278096 -1.27485,1.274849 -1.2126,1.676535 0.5,3.226416 2.73032,2.470902 2.55337,7.550614 -0.35831,10.285994 -2.90806,2.73197 -10.68555,3.1449 -10.68555,0.56732 z m 132.93334,6.65655 c -11.66362,-3.53786 -20.27198,-17.560805 -18.05734,-29.415222 2.41165,-12.908941 13.00915,-21.634338 26.27616,-21.634338 23.13037,0 34.53704,28.76945 17.7203,44.69342 -6.64001,6.28751 -17.44035,8.93403 -25.93912,6.35614 z m 15.47169,-2.14495 c 5.25311,-1.45852 13.76098,-10.04483 15.37885,-15.52063 3.53167,-11.953133 -1.45616,-23.63027 -12.37548,-28.972597 -4.6284,-2.264467 -6.37816,-2.58228 -12.35705,-2.244442 -8.15658,0.460887 -13.49177,3.537959 -18.50717,10.674006 -2.54948,3.627468 -3.06876,5.415509 -3.38363,11.650888 -0.31257,6.189762 8.3e-4,8.11223 1.96291,12.040913 5.35893,10.730222 17.19012,15.729062 29.28157,12.371862 z M 571.1173,98.408981 c 1.89833,-1.898333 2.28898,-17.867067 0.46467,-18.994554 -0.77153,-0.476832 -0.69581,-0.944412 0.25,-1.543704 2.59851,-1.646499 2.85676,-0.829445 2.85676,9.038258 0,7.692641 0.35389,10.28246 1.57143,11.5 1.42857,1.428572 1.1948,1.571429 -2.57143,1.571429 -3.76623,0 -4,-0.142857 -2.57143,-1.571429 z M 696.18145,79.6291 c -5.17703,-2.410824 -10.16584,-7.28931 -13.20417,-12.912188 -1.22319,-2.263703 -1.74785,-5.490785 -1.74552,-10.736502 0.004,-8.895335 2.06527,-13.606521 8.49499,-19.415383 5.57295,-5.034829 9.64152,-6.589009 17.17986,-6.562655 15.05165,0.05262 26.10691,11.02971 26.16303,25.978038 0.0708,18.846586 -19.81871,31.597547 -36.88819,23.64869 z m 21.04815,-2.015561 c 8.73663,-4.068306 13.74759,-11.953526 13.74759,-21.633129 0,-13.794857 -10.09012,-23.956076 -23.78846,-23.956076 -17.86658,0 -29.51556,17.643118 -22.1263,33.511684 2.59847,5.580267 9.36451,12.006982 14.08654,13.380091 5.73936,1.668936 12.79019,1.160978 18.08063,-1.30257 z M 700.78795,65.23041 c 0.73925,-0.9625 3.04435,-3.652446 5.12244,-5.977657 5.54018,-6.199019 5.07922,-13.272343 -0.86496,-13.272343 -1.23381,0 -2.94381,1.000128 -3.8,2.222506 -0.85618,1.222379 -1.5567,1.651924 -1.5567,0.954546 0,-1.907058 4.65364,-6.177052 6.73204,-6.177052 3.48545,0 6.26796,2.893414 6.26796,6.51779 0,2.559689 -1.13917,4.802971 -4.5912,9.041134 l -4.59119,5.63675 5.49476,-0.347837 c 4.97678,-0.315047 5.40626,-0.182868 4.55601,1.402163 -0.74808,1.394551 -2.27671,1.75 -7.52601,1.75 -6.11895,0 -6.4917,-0.124412 -5.24315,-1.75 z m 132.89431,8.875174 c -11.65771,-3.822918 -18.99353,-13.717514 -18.99353,-25.61858 0,-19.617073 20.1627,-32.058157 37.73349,-23.282882 19.0455,9.511782 18.92653,37.100208 -0.20118,46.653048 -4.98453,2.489396 -14.34285,3.624388 -18.53878,2.248414 z m 17.62887,-3.948169 c 17.66195,-9.081667 17.5912,-34.199511 -0.1224,-43.448801 -5.51489,-2.87964 -15.49157,-2.877762 -21,0.004 -8.72431,4.564045 -13.5,12.264517 -13.5,21.767796 0,11.144013 6.68539,19.921343 17.99353,23.623906 3.85168,1.261137 12.31754,0.269958 16.62887,-1.946901 z M 833.68873,58.48041 c 0,-1.786736 0.47831,-1.84957 3.15888,-0.414969 2.72798,1.459971 6.56194,0.369943 7.34186,-2.087355 0.95042,-2.99451 -0.22662,-5.551749 -3.17332,-6.894354 l -2.63413,-1.200192 2.15335,-1.508269 c 2.53817,-1.777798 2.81874,-5.597756 0.54948,-7.481072 -1.34584,-1.116951 -2.06465,-1.066653 -4.46793,0.312642 -2.75342,1.580242 -2.81875,1.571188 -1.69115,-0.234381 1.67668,-2.68479 5.52107,-3.380563 8.36885,-1.514626 2.73131,1.789627 3.11146,4.682338 0.8608,6.550222 -1.36303,1.131215 -1.3075,1.512897 0.5,3.436896 2.93561,3.124813 2.66128,7.896339 -0.60155,10.462878 -3.20326,2.519688 -10.36514,2.915317 -10.36514,0.57258 z m 135.29658,8.435018 c -5.2936,-1.026151 -7.4785,-2.201152 -12.4575,-6.699338 -6.0496,-5.465482 -8.2536,-10.44062 -8.3,-18.73568 -0.058,-10.372311 4.237,-17.911702 13.2105,-23.189953 5.0353,-2.96178 13.8752,-4.03983 19.8563,-2.42152 9.1312,2.47065 17.6634,12.50148 19.01379,22.353314 2.2864,16.681617 -14.40599,31.972546 -31.32309,28.693177 z m 14.4855,-3.485699 c 11.0325,-4.601495 17.16019,-17.297456 13.8339,-28.662467 -6.2285,-21.281555 -34.4775,-23.977415 -44.9206,-4.286852 -2.7946,5.269287 -2.9249,15.38548 -0.2682,20.820448 2.4553,5.02272 7.0723,9.54696 12.0506,11.808474 4.9928,2.268056 14.2657,2.421959 19.3043,0.320397 z m -7.7821,-14.449319 c 0,-2.933333 -0.1111,-3 -5,-3 -2.9448,0 -5,-0.448456 -5,-1.091052 0,-1.371483 8.1594,-13.082865 8.7226,-12.519702 0.2282,0.228164 -1.1911,2.650166 -3.1539,5.382228 -1.9628,2.732062 -3.5687,5.251142 -3.5687,5.597956 0,0.346813 1.8404,0.63057 4.0898,0.63057 h 4.0897 l -0.3219,-6.967863 c -0.2115,-4.578912 0.1006,-7.390305 0.9103,-8.2 0.9762,-0.976183 1.2321,0.386848 1.2321,6.561483 0,6.952615 0.2158,7.850057 2,8.316631 1.1,0.287656 2,0.868044 2,1.289749 0,0.421705 -0.9,1.002093 -2,1.289749 -1.3515,0.353421 -2,1.364016 -2,3.116631 0,1.426491 -0.45,2.59362 -1,2.59362 -0.55,0 -1,-1.35 -1,-3 z m 121.49999,8.641822 c -10.0325,-4.692504 -15.5143,-13.088817 -15.478,-23.707546 0.026,-7.735001 2.2205,-13.110129 7.5113,-18.400939 5.3252,-5.3252 10.6615,-7.4894104 18.4667,-7.4894104 14.7802,0 25.9388,10.9384404 25.9683,25.4560734 0.039,19.027846 -19.6027,32.030328 -36.4683,24.141822 z m 21.1519,-1.961789 c 7.9684,-4.120633 13.2897,-12.690701 13.3261,-21.462152 0.058,-13.895624 -10.2609,-24.2178844 -24.2096,-24.2178844 -9.9354,0 -17.1811,4.5728004 -21.391,13.5000034 -6.0142,12.753436 -0.4644,27.01899 12.865,33.068631 4.1182,1.869089 15.044,1.368889 19.4095,-0.888598 z m -18.193,-11.746564 c -1.1581,-1.87388 0.2881,-2.154406 4.0653,-0.788545 3.4664,1.253439 3.7849,1.191553 5.6364,-1.094971 3.2683,-4.03615 -0.098,-11.049953 -5.3028,-11.049953 -2.6944,0 -3.2716,-2.299212 -1.4577,-5.80686 1.312,-2.537007 2.2278,-3.041693 6.0748,-3.347663 2.7463,-0.21842 4.4003,0.0364 4.2006,0.64712 -0.1813,0.554072 -1.8681,1.15667 -3.7485,1.339108 -5.9689,0.579097 -7.8996,3.523785 -2.9582,4.512045 10.501,2.100217 8.8718,16.65625 -1.8643,16.65625 -2.1926,0 -4.2831,-0.479939 -4.6456,-1.066531 z"
     id="path434"
     inkscape:connector-curvature="0" />
</svg>
