<?xml version="1.0" encoding="UTF-8" standalone="no"?>
<!-- Created with Inkscape (http://www.inkscape.org/) -->

<svg
   xmlns:dc="http://purl.org/dc/elements/1.1/"
   xmlns:cc="http://creativecommons.org/ns#"
   xmlns:rdf="http://www.w3.org/1999/02/22-rdf-syntax-ns#"
   xmlns:svg="http://www.w3.org/2000/svg"
   xmlns="http://www.w3.org/2000/svg"
   xmlns:sodipodi="http://sodipodi.sourceforge.net/DTD/sodipodi-0.dtd"
   xmlns:inkscape="http://www.inkscape.org/namespaces/inkscape"
   version="1.1"
   id="svg694"
   width="1148"
   height="548"
   viewBox="0 0 1148 548"
   sodipodi:docname="Score_Notated_2.svg"
   inkscape:version="0.92.1 r15371">
  <metadata
     id="metadata700">
    <rdf:RDF>
      <cc:Work
         rdf:about="">
        <dc:format>image/svg+xml</dc:format>
        <dc:type
           rdf:resource="http://purl.org/dc/dcmitype/StillImage" />
        <dc:title></dc:title>
      </cc:Work>
    </rdf:RDF>
  </metadata>
  <defs
     id="defs698" />
  <sodipodi:namedview
     pagecolor="#ffffff"
     bordercolor="#666666"
     borderopacity="1"
     objecttolerance="10"
     gridtolerance="10"
     guidetolerance="10"
     inkscape:pageopacity="0"
     inkscape:pageshadow="2"
     inkscape:window-width="1366"
     inkscape:window-height="692"
     id="namedview696"
     showgrid="false"
     inkscape:zoom="0.7587108"
     inkscape:cx="574"
     inkscape:cy="274"
     inkscape:window-x="0"
     inkscape:window-y="27"
     inkscape:window-maximized="1"
     inkscape:current-layer="svg694" />
  <path
     style="fill:#000000"
     d="m 939.6705,544.9536 c -5.8049,-5.09676 -8.7029,-11.01382 -9.269,-18.92514 -0.6947,-9.70941 1.0157,-14.94863 7.0276,-21.52653 5.7906,-6.33589 8.572,-7.36383 3.3187,-1.22653 -4.5696,5.33856 -5.5666,9.08036 -5.5464,20.81535 0.018,10.4586 1.8041,16.10772 6.7185,21.25 3.5592,3.72423 2.1586,3.48317 -2.2494,-0.38715 z m 68.8185,-0.91788 c 4.6704,-5.45635 5.8077,-9.68441 5.7755,-21.47202 -0.029,-10.64247 -1.4484,-15.17142 -6.3374,-20.22295 -1.7301,-1.7875 -2.701,-3.25 -2.1576,-3.25 1.8819,0 9.3071,8.52017 11.3292,13 2.335,5.17289 2.7523,15.00805 0.8992,21.19316 -1.2352,4.12265 -7.5551,12.05737 -11.1255,13.9682 -1.426,0.76315 -0.9085,-0.26634 1.6166,-3.21639 z m -845.05906,-1.19497 c -11.54644,-11.7952 -11.64841,-29.57818 -0.23313,-40.65633 5.35014,-5.19213 7.35169,-5.3576 2.71413,-0.22438 -4.7804,5.29134 -6.19087,10.02165 -6.15158,20.63071 0.0396,10.70099 1.44805,15.42446 6.15158,20.63071 4.73573,5.24188 2.72026,4.93261 -2.481,-0.38071 z m 68.41718,1.40128 c 5.88241,-5.37276 6.82677,-8.36782 6.82677,-21.65128 0,-12.94015 -0.87077,-15.94579 -6.30125,-21.75 -1.41511,-1.5125 -2.08044,-2.75 -1.47851,-2.75 2.24605,0 10.16991,10.15319 11.83407,15.16353 3.68324,11.08919 0.28883,23.69874 -8.28116,30.76285 -4.6959,3.87076 -6.78995,4.05189 -2.59992,0.2249 z m 801.82338,-0.28843 c -5.8049,-5.09676 -8.7029,-11.01382 -9.2689,-18.92514 -0.6947,-9.70941 1.0156,-14.94863 7.0275,-21.52653 5.7906,-6.33589 8.572,-7.36383 3.3187,-1.22653 -4.5696,5.33856 -5.5666,9.08036 -5.5464,20.81535 0.018,10.4586 1.8041,16.10772 6.7185,21.25 3.5592,3.72423 2.1586,3.48317 -2.2494,-0.38715 z m 68.8185,-0.91788 c 4.6704,-5.45635 5.8077,-9.68441 5.7755,-21.47202 -0.029,-10.64247 -1.4484,-15.17142 -6.3374,-20.22295 -1.7301,-1.7875 -2.701,-3.25 -2.1576,-3.25 1.8819,0 9.3071,8.52017 11.3292,13 2.335,5.17289 2.7523,15.00805 0.8992,21.19316 -1.2352,4.12265 -7.5551,12.05737 -11.1255,13.9682 -1.426,0.76315 -0.9085,-0.26634 1.6166,-3.21639 z m -728.81854,-0.0821 c -5.80488,-5.09676 -8.70286,-11.01382 -9.26891,-18.92514 -0.69471,-9.70941 1.01568,-14.94863 7.02751,-21.52653 5.79065,-6.33589 8.57207,-7.36383 3.31877,-1.22653 -4.56961,5.33856 -5.56664,9.08036 -5.5464,20.81535 0.018,10.4586 1.80409,16.10772 6.7185,21.25 3.5592,3.72423 2.15859,3.48317 -2.24947,-0.38715 z m 38.17666,0.28843 c 5.88241,-5.37278 6.82677,-8.36784 6.82677,-21.6513 0,-12.94015 -0.87077,-15.94579 -6.30125,-21.75 -1.41511,-1.5125 -2.08044,-2.75 -1.47851,-2.75 2.24605,0 10.16991,10.15319 11.83407,15.16353 3.68324,11.08919 0.28883,23.69874 -8.28116,30.76285 -4.6959,3.87076 -6.78995,4.05189 -2.59992,0.2249 z m 151.47019,-1.36113 c -6.41912,-6.4833 -8.6494,-11.86747 -8.61188,-20.79015 0.0384,-9.14004 2.66363,-15.29929 8.73637,-20.49733 5.68986,-4.8703 6.79499,-4.37944 1.95694,0.86922 -4.94214,5.36159 -6.72406,12.46165 -5.95424,23.72456 0.56743,8.30178 2.30925,12.67113 7.03751,17.65355 4.57303,4.81885 1.69148,3.94488 -3.1647,-0.95985 z m 39.98589,0.50182 c 5.10415,-5.66845 6.38033,-10.07257 6.31463,-21.79197 -0.0617,-11.01225 -1.18638,-14.38514 -6.75206,-20.25 -1.69632,-1.7875 -2.54544,-3.25 -1.88694,-3.25 1.99703,0 8.92837,7.81765 11.33001,12.77878 2.65072,5.47565 3.08951,15.44583 0.95225,21.63708 -1.40561,4.07179 -7.9448,11.90806 -11.52455,13.81049 -1.32251,0.70284 -0.76034,-0.3501 1.56666,-2.93438 z m 63.01411,-0.50182 c -6.41912,-6.4833 -8.6494,-11.86747 -8.61188,-20.79015 0.0384,-9.14004 2.66363,-15.29929 8.73637,-20.49733 5.68986,-4.8703 6.79499,-4.37944 1.95694,0.86922 -4.94214,5.36159 -6.72406,12.46165 -5.95424,23.72456 0.56743,8.30178 2.30925,12.67113 7.03751,17.65355 4.57303,4.81885 1.69148,3.94488 -3.1647,-0.95985 z m 39.98589,0.50182 c 5.10415,-5.66845 6.38033,-10.07257 6.31463,-21.79197 -0.0617,-11.01225 -1.18638,-14.38514 -6.75206,-20.25 -1.69632,-1.7875 -2.54544,-3.25 -1.88694,-3.25 1.99703,0 8.92837,7.81765 11.33001,12.77878 2.65072,5.47565 3.08951,15.44583 0.95225,21.63708 -1.40561,4.07179 -7.9448,11.90806 -11.52455,13.81049 -1.32251,0.70284 -0.76034,-0.3501 1.56666,-2.93438 z m 37.91218,-0.25048 c -6.66885,-6.66887 -8.51749,-11.23574 -8.51749,-21.04151 0,-6.79759 0.43373,-9.3148 2.16558,-12.56821 2.29233,-4.30632 9.48264,-11.43179 11.53581,-11.43179 0.67079,0 0.22631,0.69575 -0.98775,1.5461 -1.21405,0.85036 -3.45168,3.66286 -4.9725,6.25 -2.6074,4.43555 -2.76455,5.38847 -2.7548,16.7039 0.0114,13.20384 0.99189,16.36431 6.74392,21.73751 1.62649,1.51937 2.45966,2.76249 1.8515,2.76249 -0.60817,0 -2.88709,-1.78133 -5.06427,-3.95851 z m 69.08782,0.25048 c 5.10415,-5.66845 6.38033,-10.07257 6.31463,-21.79197 -0.0617,-11.01225 -1.18638,-14.38514 -6.75206,-20.25 -1.69632,-1.7875 -2.54544,-3.25 -1.88694,-3.25 1.99703,0 8.92837,7.81765 11.33001,12.77878 2.65076,5.47565 3.08946,15.44583 0.95225,21.63708 -1.40561,4.07179 -7.9448,11.90806 -11.52455,13.81049 -1.32251,0.70284 -0.76034,-0.3501 1.56666,-2.93438 z m 30.9122,-0.25048 c -6.6689,-6.66887 -8.5175,-11.23574 -8.5175,-21.04151 0,-6.79759 0.4337,-9.3148 2.1656,-12.56821 2.2923,-4.30632 9.4826,-11.43179 11.5358,-11.43179 0.6708,0 0.2263,0.69575 -0.9878,1.5461 -1.214,0.85036 -3.4517,3.66286 -4.9725,6.25 -2.6074,4.43555 -2.7645,5.38847 -2.7548,16.7039 0.011,13.20384 0.9919,16.36431 6.7439,21.73751 1.6265,1.51937 2.4597,2.76249 1.8515,2.76249 -0.6081,0 -2.887,-1.78133 -5.0642,-3.95851 z m 69.7569,-0.54979 c 4.6082,-5.23529 6.2016,-10.43877 6.2016,-20.25304 0,-9.03378 -2.243,-16.29358 -6.3938,-20.69471 -1.8383,-1.94918 -2.9674,-3.54397 -2.5091,-3.54397 1.8928,0 7.7062,6.21633 10.4565,11.18115 2.5731,4.64496 2.9464,6.33243 2.9464,13.31885 0,6.98797 -0.3731,8.67345 -2.949,13.32355 -2.5741,4.64687 -9.0181,11.17645 -11.0299,11.17645 -0.3801,0 1.0947,-2.02873 3.2773,-4.5083 z m 40.879,-4.18792 c 4.0429,-0.78701 4.389,-2.34383 4.0993,-18.43838 l -0.2767,-15.36542 -3,0.18913 c -2.8296,0.17839 -2.7444,0.0531 1.5,-2.20481 2.475,-1.31667 5.0526,-2.41428 5.7279,-2.43913 0.9191,-0.0338 1.2964,4.65921 1.5,18.66051 l 0.2721,18.70571 2.5,0.69461 c 1.4243,0.39576 -1.1572,0.67891 -6,0.65812 -4.675,-0.0201 -7.5202,-0.22724 -6.3226,-0.46036 z m 29.5047,-7.36397 c 8.6863,-9.5674 10.7199,-13.06158 10.776,-18.5155 0.094,-9.15377 -10.9871,-11.77967 -15.3993,-3.64917 -1.3574,2.50128 -1.482,2.54654 -1.5188,0.55159 -0.057,-3.07574 4.5473,-8.15852 8.2929,-9.1555 6.8454,-1.82204 13.6671,2.88194 13.6671,9.42437 0,4.86026 -2.7897,9.80928 -9.8971,17.55772 -3.3566,3.65932 -6.1029,6.92182 -6.1029,7.25 0,0.32817 3.0893,0.59668 6.8651,0.59668 5.4311,0 7.4156,-0.43294 9.5,-2.07258 3.0753,-2.41899 3.1175,-2.32673 1.1215,2.45046 l -1.5134,3.62212 h -11.5545 -11.5544 z m 90.0679,7.08201 c -1.2375,-0.52655 -2.25,-1.64687 -2.25,-2.4896 0,-1.93743 3.6379,-1.95418 7,-0.0322 3.5382,2.02259 5.4975,1.83634 8.5806,-0.81567 2.1289,-1.83118 2.6921,-3.19543 2.6921,-6.52058 0,-5.26408 -2.1923,-7.8253 -7.6466,-8.9331 -4.1217,-0.83716 -4.1234,-0.83945 -1.6261,-2.15931 4.7141,-2.49142 7,-5.29679 7,-8.59067 0,-6.80826 -6.6156,-8.51307 -12.6104,-3.24963 l -3.6799,3.23104 1.666,-3.22162 c 2.2492,-4.34952 5.8506,-6.51319 10.8412,-6.51319 7.612,0 11.2337,7.31222 6.4032,12.92797 l -2.3798,2.76677 2.8024,2.61789 c 5.6711,5.29757 4.3152,15.18653 -2.6296,19.17903 -3.7691,2.16687 -11.1112,3.10147 -14.1631,1.80289 z m -894.44613,-0.73461 c 3.39332,-0.6487 4.19767,-4.03389 4.18247,-17.60231 -0.0172,-15.38495 -0.40656,-17.01981 -3.8724,-16.26152 -1.77462,0.38826 -1.16901,-0.21557 1.88605,-1.88055 2.475,-1.34885 4.8375,-2.47279 5.25,-2.49764 0.4125,-0.0249 0.75,7.7438 0.75,17.26368 0,18.10561 0.41336,20.03376 4.5,20.99077 1.1,0.2576 -1.825,0.45928 -6.5,0.44818 -4.675,-0.0111 -7.46325,-0.21838 -6.19612,-0.46061 z m 38.00091,-4.03723 -0.30479,-4.75 -8.25,-0.29044 c -7.09256,-0.2497 -8.25,-0.53693 -8.25,-2.04732 0,-2.04299 17.89256,-27.3514 19.75,-27.93569 0.95612,-0.30077 1.25,2.66712 1.25,12.62369 v 13.01692 l 2.74145,0.31642 c 1.65345,0.19084 2.87316,1.01094 3.07332,2.06642 0.25774,1.35905 -0.35471,1.75 -2.74145,1.75 -3.02132,0 -3.07332,0.0846 -3.07332,5 0,4.28639 -0.27762,5 -1.94521,5 -1.61115,0 -1.99755,-0.81572 -2.25,-4.75 z m -0.80479,-18.25 c 0,-4.95 -0.18754,-9 -0.41676,-9 -0.37261,0 -10.10069,13.62646 -11.958,16.75 -0.56399,0.9485 0.83878,1.25 5.81574,1.25 h 6.55902 z m 363.38812,22.0711 c -3.21943,-1.3788 -6.38812,-5.99482 -6.38812,-9.30596 0,-2.05241 1.0717,-4.03684 3.48157,-6.44671 l 3.48157,-3.48157 -3.04477,-3.78881 c -5.26575,-6.55253 -3.52134,-13.95921 3.76125,-15.97003 7.30677,-2.0175 13.32038,1.60478 13.32038,8.02349 0,3.06489 -0.63459,4.27597 -3.46161,6.60623 l -3.46161,2.85336 3.42564,2.73338 c 6.28572,5.01549 6.81634,13.48488 1.08031,17.24327 -3.03062,1.98574 -9.29819,2.77382 -12.19461,1.53335 z m 9.78314,-2.72609 c 3.25706,-2.9476 2.368,-7.6251 -2.24074,-11.78882 -2.23822,-2.02209 -4.60072,-3.51245 -5.25,-3.3119 -0.64929,0.20055 -2.0038,2.02495 -3.01004,4.05422 -1.5397,3.10512 -1.64662,4.24375 -0.67499,7.18783 1.79127,5.42759 7.32927,7.3397 11.17577,3.85867 z m -1.17891,-22.83687 c 4.35026,-4.63064 1.94534,-12.50814 -3.8186,-12.50814 -6.4394,0 -8.27417,7.2355 -3.06799,12.09879 1.70816,1.59567 3.42972,2.90121 3.82568,2.90121 0.39596,0 1.77337,-1.12134 3.06091,-2.49186 z m 92.50765,24.19379 c 5.87739,-2.87871 9.80083,-6.78215 11.9228,-11.862 l 1.52889,-3.66006 -3.90624,1.53441 c -8.64676,3.39655 -15.04545,-0.94196 -15.04545,-10.20126 0,-17.01219 20.34333,-19.12789 23.91219,-2.48686 2.89912,13.51813 -5.75174,26.18011 -19.44675,28.46356 l -3.96544,0.66118 z m 12.34765,-16.99045 c 2.10619,-1.74798 1.08664,-12.98003 -1.49325,-16.45071 -2.87685,-3.87017 -6.55276,-4.09302 -9.33607,-0.566 -1.86427,2.36242 -2.14703,3.73668 -1.7913,8.70609 0.35443,4.95112 0.87564,6.29071 3.23842,8.32308 2.90924,2.50243 6.35746,2.49785 9.3822,-0.0125 z m 97.50748,18.34281 c -5.86993,-2.49607 -10.17994,-13.77888 -8.91271,-23.33179 1.72425,-12.998 10.71896,-19.77813 19.02141,-14.33816 8.71655,5.71131 9.22631,28.43911 0.80538,35.9084 -2.41296,2.14027 -7.92956,3.03066 -10.91408,1.76155 z m 8.91576,-4.20321 c 2.53247,-3.40752 3.56084,-18.21556 1.78042,-25.63718 -2.03513,-8.48338 -7.14188,-10.68313 -11.42726,-4.92234 -1.71161,2.30089 -2.14401,4.61262 -2.46013,13.15228 -0.53552,14.46671 1.92447,21.04587 7.6129,20.36045 1.38896,-0.16736 3.41129,-1.49631 4.49407,-2.95321 z m 248.40652,4.4527 c 4.0429,-0.78701 4.3891,-2.34383 4.0993,-18.43838 l -0.2767,-15.3654 -3,0.18913 c -2.8296,0.17839 -2.7444,0.0531 1.5,-2.20481 2.475,-1.31667 5.0526,-2.41428 5.7279,-2.43913 0.9191,-0.0338 1.2964,4.65921 1.5,18.66051 l 0.2721,18.70571 2.5,0.69461 c 1.4244,0.39576 -1.1572,0.67891 -6,0.65812 -4.675,-0.0201 -7.5202,-0.22724 -6.3226,-0.46036 z M 391.17389,535.38 c 0,-0.47157 2.44248,-8.15457 5.42773,-17.07333 l 5.42772,-16.21592 h -7.88877 c -6.82757,0 -8.16305,0.29441 -9.92772,2.18856 -2.4226,2.60035 -2.59978,1.39792 -0.52554,-3.56644 l 1.51342,-3.62212 h 10.48658 c 9.34456,0 10.47972,0.19058 10.42355,1.75 -0.0347,0.9625 -2.63585,9.62147 -5.7804,19.24216 -4.20724,12.87194 -6.17157,17.57963 -7.43697,17.82332 -0.94578,0.18214 -1.7196,-0.0547 -1.7196,-0.52623 z m 370,-0.58352 2.5,-1.2648 v -15.97046 -15.97047 l -2.5,0.2633 c -2.13032,0.22436 -1.90851,-0.10374 1.5,-2.21879 2.2,-1.36515 4.55257,-2.49614 5.22793,-2.5133 0.9185,-0.0233 1.2965,4.68258 1.5,18.67449 l 0.27207,18.70571 2.5,0.69461 c 1.51925,0.42212 -0.63839,0.72794 -5.5,0.77956 -7.07027,0.0751 -7.70946,-0.062 -5.5,-1.17985 z m 100.00001,0 2.5,-1.2648 v -15.97046 -15.97047 l -2.5,0.2633 c -2.1303,0.22436 -1.9085,-0.10374 1.5,-2.21879 2.2,-1.36515 4.5526,-2.49614 5.2279,-2.5133 0.9185,-0.0233 1.2965,4.68258 1.5,18.67449 l 0.2721,18.70571 2.5,0.69461 c 1.5192,0.42212 -0.6384,0.72794 -5.5,0.77956 -7.0703,0.0751 -7.7095,-0.062 -5.5,-1.17985 z m 29.2743,0.12388 2.7744,-1.0125 -0.2744,-16.15855 -0.2743,-16.15856 -2.5,0.22191 c -1.9506,0.17314 -1.5111,-0.3114 2,-2.20481 2.475,-1.3347 4.8375,-2.44706 5.25,-2.47191 0.4125,-0.0249 0.7569,7.94231 0.7653,17.70481 0.01,9.7625 0.3459,18.26713 0.75,18.89918 0.4041,0.63206 1.8597,1.35827 3.2347,1.61382 1.375,0.25555 -1.325,0.49039 -6,0.52187 -6.8517,0.0461 -7.962,-0.13911 -5.7257,-0.95526 z m -427.27431,-54.5808 -414.5,-0.2512 V 267.10737 54.126382 l 23,-0.267816 23,-0.267816 -0.30654,-6.680865 C 93.70522,32.479276 99.11131,17.836748 107.98517,10.025669 l 4.51652,-3.975599 2.42418,2.27034 c 6.16967,5.778138 14.24802,28.417839 14.24802,39.930303 v 5.840037 h 507.5 507.50001 v 213 213 l -43.25,0.0257 c -23.7875,0.0141 -83.75,0.12662 -133.25,0.25 -49.5,0.12338 -276.52501,0.11129 -504.50001,-0.0269 z m -272.23643,-3.17581 c 0.95504,-0.50985 2.52135,-1.16974 3.48071,-1.46642 2.04517,-0.63247 5.74659,-6.3317 5.75198,-8.85658 0.003,-1.56113 -1.18681,-1.75 -11.02764,-1.75 -12.97616,0 -13.9066,-0.73378 -9.26507,-7.30675 1.6286,-2.30629 3.2881,-4.75575 3.68779,-5.44325 0.57826,-0.99468 -12.6642,-1.25 -64.83232,-1.25 H 53.17389 v 13.5 13.5 h 68.01357 c 39.85639,0 68.73244,-0.38377 69.75,-0.927 z m 48.01546,-12.323 -0.27903,-13.25 h -12.5 -12.5 l -0.30479,4.75 -0.30479,4.75 h 4.99577 c 5.07003,0 7.50047,1.5076 4.99193,3.09649 -0.75797,0.48009 -3.29919,0.87978 -5.64717,0.8882 -4.14273,0.0149 -4.25017,0.0967 -3.63103,2.76531 0.87526,3.77259 3.17718,7.25347 5.20835,7.8759 0.93045,0.28512 2.36673,0.90947 3.19173,1.38744 0.825,0.47798 5.00056,0.89551 9.27903,0.92785 l 7.77902,0.0588 z m 26.22097,-0.25 v -13.5 h -6 -6 v 13.5 13.5 h 6 6 z m 231,-0.004 v -13.50428 l -113.25,0.25428 -113.25,0.254 -0.27903,13.25 -0.27902,13.25 h 113.52902 113.52903 v -13.50427 z m 16.77903,0.254 -0.27903,-13.25 -5.75,-0.2999 -5.75,-0.29991 v 13.54991 13.5499 h 6.02903 6.02902 z m 367.50258,0.88621 c 2.0451,-6.80008 3.7184,-12.87508 3.7184,-13.5 0,-0.84071 -26.0079,-1.13621 -100.00001,-1.13621 -68.26583,0 -100,0.32851 -100,1.03518 0,0.56935 0.72675,2.14435 1.61501,3.5 2.48815,3.7974 -0.1517,2.93881 -3.18281,-1.03518 l -2.66958,-3.5 H 603.5552 527.17389 v 13.5 13.5 H 701.95555 876.7372 Z m 95.5335,-0.0283 c 1.7517,-6.81558 3.1849,-12.89058 3.1849,-13.49995 0,-0.79398 -12.5886,-1.10796 -44.4225,-1.10796 H 890.329 l -1.0117,3.25 c -1.3787,4.42893 -6.1434,22.37214 -6.1434,23.13504 0,0.33823 20.1668,0.61496 44.8151,0.61496 h 44.8151 l 3.1849,-12.39204 z m 80,0 c 1.7517,-6.81563 3.1849,-12.89063 3.1849,-13.5 0,-0.79055 -10.5703,-1.10791 -36.9022,-1.10791 h -36.9023 l -2.621,11.25 c -1.4416,6.1875 -2.8881,12.2625 -3.2144,13.5 l -0.5934,2.25 h 36.9318 36.9318 l 3.1848,-12.39204 z m 57.1849,-1.10791 v -13.5 h -23.9022 -23.9023 l -2.621,11.25 c -1.4416,6.1875 -2.8881,12.2625 -3.2144,13.5 l -0.5934,2.25 h 27.1167 27.1166 z m 17,0 v -13.5 h -6 -6 v 13.5 13.5 h 6 6 z m -930.00001,-8.5 v -5 h -5.30383 c -4.70211,0 -5.644,0.36872 -8.30217,3.25 -6.54611,7.09558 -6.75006,6.75 3.98356,6.75 h 9.62244 z M 78.71822,444.06397 c 8.17327,-4.93689 22.10979,-15.6264 25.86066,-19.8355 l 1.90499,-2.13772 H 79.82888 53.17389 v 13.5 13.5 h 8.61112 c 8.5691,0 8.65174,-0.0245 16.93321,-5.02678 z m 109.32361,0.77678 c 2.54497,-5.28557 5.13206,-15.09548 5.13206,-19.4601 v -3.2899 h -36.59655 -36.59655 l -4.62223,4.06865 c -6.12718,5.39336 -15.56383,11.57511 -27.18467,17.80811 l -9.5,5.09546 53.66079,0.0139 53.6608,0.0139 2.04635,-4.25 z m 12.13206,1.91736 c 0,-1.49496 1.35282,-3.41978 3.76712,-5.35997 2.07192,-1.66504 4.64925,-4.66536 5.72741,-6.66737 1.07815,-2.00201 2.30795,-3.64002 2.73287,-3.64002 0.42493,0 0.7726,4.06344 0.7726,9.02988 v 9.02987 l 12.75,-0.27987 12.75,-0.27988 0.27903,-13.25 0.27902,-13.25 h -12.36758 -12.36758 l -8.91144,10.23226 c -4.9013,5.62775 -10.19557,11.70275 -11.76504,13.5 l -2.85359,3.26774 h 4.60359 c 4.15575,0 4.60359,-0.22692 4.60359,-2.33264 z m 65,-11.16736 v -13.5 h -6 -6 v 13.5 13.5 h 6 6 z m 231,0 v -13.5 h -113.5 -113.5 v 12.83333 c 0,7.05834 0.3,13.13334 0.66667,13.5 0.36666,0.36667 51.44166,0.66667 113.5,0.66667 h 112.83333 z m -212.54545,4.04545 c -2.83781,-2.8378 -3.09165,-5.19085 -0.89785,-8.32294 3.24237,-4.62914 11.46411,-1.85481 11.42799,3.85623 -0.0189,2.98146 -0.84892,4.28721 -3.66895,5.77156 -3.12167,1.64312 -4.09912,1.45723 -6.86119,-1.30485 z m 190,0 c -2.83781,-2.8378 -3.09165,-5.19085 -0.89785,-8.32294 3.24237,-4.62914 11.46411,-1.85481 11.42799,3.85623 -0.0189,2.98146 -0.84892,4.28721 -3.66895,5.77156 -3.12167,1.64312 -4.09912,1.45723 -6.86119,-1.30485 z m 39.54545,-4.04545 v -13.5 h -6 -6 v 13.5 13.5 h 6 6 z m 164.12436,9.25 c -5.60008,-13.18893 -2.5404,-17.18719 10.2149,-13.34841 5.21418,1.56923 5.20725,1.4207 -0.24018,-5.15159 l -3.5226,-4.25 h -78.28824 -78.28824 v 13.5 13.5 h 75.96446 75.96447 z M 784.55419,436.214 c 2.54083,-7.08222 4.6197,-13.15722 4.6197,-13.5 0,-0.34279 -22.05,-0.62325 -49,-0.62325 -39.09577,0 -49,0.25822 -49,1.27749 0,1.66467 2.24914,4.92546 8.1793,11.8583 4.49919,5.25991 5.85093,7.86996 4.0707,7.86002 -0.4125,-0.002 -2.96377,-1.1273 -5.66948,-2.5 -2.70571,-1.37269 -6.19321,-2.49581 -7.75,-2.49581 -3.91492,0 -6.83052,3.20136 -6.83052,7.5 v 3.5 h 48.3803 48.38029 z m 101.89071,9.56425 c 0.5155,-1.54688 0.7517,-2.99811 0.5249,-3.22496 -0.2269,-0.22686 -3.1574,0.098 -6.5123,0.7219 -4.8051,0.89361 -6.766,0.8584 -9.2388,-0.16589 -8.853,-3.66701 -6.8165,-16.41855 2.6221,-16.41855 3.9239,0 6.0748,2.03192 7.0157,6.62757 0.3071,1.50017 1.2058,3.26488 1.9971,3.92158 2.0791,1.72552 6.8183,-3.3223 9.3333,-9.94116 l 1.9859,-5.22649 -50.1199,0.25925 -50.11993,0.25925 -3.85839,13 c -2.12211,7.15 -3.86791,13.1167 -3.87954,13.25934 -0.0116,0.14263 22.32892,0.14263 49.64566,0 l 49.6668,-0.25934 z m 94.0524,2.5625 c 0.2428,-0.4125 0.7472,-2.17686 1.1211,-3.92081 l 0.6796,-3.17081 -4.8121,1.4848 c -9.5903,2.95917 -17.312,-0.44359 -17.312,-7.62893 0,-6.50691 6.5397,-10.85633 11.468,-7.62716 1.4138,0.92633 2.9054,3.28586 3.5199,5.56801 1.3136,4.8785 2.4394,5.65016 5.4066,3.70598 2.5206,-1.65154 5.0065,-6.32008 6.0817,-11.42143 l 0.6872,-3.26035 -44.8101,0.26035 -44.8101,0.26035 -3.2504,12 c -1.7877,6.6 -3.2599,12.5625 -3.2716,13.25 -0.017,0.98157 9.5223,1.25 44.4198,1.25 24.4425,0 44.6396,-0.3375 44.8824,-0.75 z m 80,0 c 0.2428,-0.4125 0.7473,-2.17686 1.1211,-3.92081 l 0.6796,-3.17081 -4.812,1.4848 c -9.5903,2.95917 -17.3121,-0.44359 -17.3121,-7.62893 0,-6.50691 6.5397,-10.85633 11.468,-7.62716 1.4138,0.92633 2.9054,3.28586 3.5199,5.56801 1.3137,4.8785 2.4394,5.65016 5.4066,3.70598 2.5188,-1.6504 5.0065,-6.31965 6.0795,-11.41108 l 0.6849,-3.25 h -37.5604 -37.5604 l -0.5192,2.25 c -0.2856,1.2375 -1.6436,6.975 -3.0178,12.75 -1.3742,5.775 -2.4991,10.8375 -2.4998,11.25 -7e-4,0.4125 16.6221,0.75 36.9397,0.75 20.3175,0 37.1396,-0.3375 37.3824,-0.75 z m 52.6766,-12.75 v -13.5 h -20.4809 c -20.419,0 -20.4826,0.007 -21.0002,2.25 -0.2856,1.2375 -1.6436,6.975 -3.0178,12.75 -1.3742,5.775 -2.4991,10.8375 -2.4998,11.25 -7e-4,0.4125 10.5737,0.75 23.4987,0.75 h 23.5 z m 17,0 v -13.5 h -6 -6 v 13.5 13.5 h 6 6 z m -1019.66896,-18.75 c 3.4357,-4.5897 5.76852,-9.45451 7.31286,-15.25 2.37678,-8.91949 2.87846,-8.5 -10.16535,-8.5 -11.10162,0 -11.5602,0.0851 -12.58521,2.33473 -1.42224,3.12147 -5.93829,5.66612 -10.04764,5.66153 -3.85303,-0.004 -9.21564,-2.95045 -10.81707,-5.94275 -0.99568,-1.86044 -2.03591,-2.05351 -11.06382,-2.05351 h -9.96482 v 13.5 13.5 H 80.623 108.07211 Z m 80.00081,1.82756 c 0.30021,-0.78234 1.5704,-1.56984 2.82263,-1.75 2.50498,-0.36039 6.84551,-6.05145 6.84551,-8.97544 0,-1.6909 -0.96027,-1.85212 -11.03138,-1.85212 -13.05264,0 -13.93926,-0.72804 -9.09739,-7.47023 1.72083,-2.3962 3.12877,-4.62066 3.12877,-4.94325 0,-0.32258 -11.19075,-0.58652 -24.86833,-0.58652 h -24.86833 l -0.54276,4.04657 c -0.53412,3.98213 -6.07342,16.29955 -9.3106,20.70343 l -1.65392,2.25 h 34.01498 c 28.48869,0 34.10366,-0.2311 34.56082,-1.42244 z m -49.83186,-7.77251 c -2.59428,-1.47112 -3.46584,-2.82174 -3.48469,-5.40006 -0.0365,-4.99179 7.54094,-7.30432 10.42799,-3.18248 2.2318,3.18634 1.93069,5.33815 -1.07816,7.70491 -3.02524,2.37966 -3.17646,2.40229 -5.86514,0.87763 z m 69.26791,8.48042 c -1.50265,-0.22817 -4.20265,-0.23276 -6,-0.0102 -1.79735,0.22256 -0.56791,0.40925 2.73209,0.41486 3.3,0.006 4.77056,-0.17648 3.26791,-0.40466 z m 29.01112,-13.03547 0.27902,-13.25 h -13.02902 -13.02903 v 4.5 4.5 h 4.94098 c 5.02298,0 7.43626,1.51357 4.93714,3.09649 -0.75797,0.48009 -3.29919,0.87978 -5.64717,0.8882 -4.13767,0.0148 -4.25006,0.0999 -3.65177,2.76531 0.89987,4.00887 3.79472,7.70159 6.3323,8.07756 1.21595,0.18016 2.46333,0.9856 2.77195,1.78987 0.43873,1.14331 2.22507,1.39906 8.18886,1.17243 l 7.62771,-0.28986 z m 26.22097,0.25 v -13.5 h -6 -6 v 13.5 13.5 h 6 6 z m 231,0 v -13.5 h -45.5 -45.5 v 8 8 h -22 -22 v -8 -8 h -46 -46 v 12.83333 c 0,7.05834 0.3,13.13334 0.66667,13.5 0.36666,0.36667 51.44166,0.66667 113.5,0.66667 h 112.83333 z m -211.082,5.14644 c -5.98684,-2.98477 -4.16468,-11.64644 2.45007,-11.64644 5.17644,0 8.50208,5.51068 5.84627,9.68744 -1.40854,2.21518 -5.73389,3.23652 -8.29634,1.959 z m 190,0 c -5.98684,-2.98477 -4.16468,-11.64644 2.45007,-11.64644 5.17644,0 8.50208,5.51068 5.84627,9.68744 -1.40854,2.21518 -5.73389,3.23652 -8.29634,1.959 z m 37.86103,-5.39644 0.27902,-13.25 h -6.02902 -6.02903 v 13.5499 13.54991 l 5.75,-0.29991 5.75,-0.2999 z m 50.43053,5.5 0.29044,-8.25 21.75,-0.2695 21.75,-0.2695 v 8.5195 8.5195 h 37 c 20.55828,0 37,-0.38996 37,-0.87756 0,-0.48265 -0.69957,-1.45814 -1.5546,-2.16775 -4.71883,-3.91628 -3.8939,-6.94776 3.76429,-13.83313 2.68039,-2.4099 5.54129,-5.67312 6.35756,-7.2516 l 1.48411,-2.86996 h -82.02568 -82.02568 v 13.5 13.5 h 17.95956 17.95956 z m 228.33268,4.15865 1.24321,-3.59134 -5.99529,1.38505 c -9.79925,2.26384 -15.99016,-0.97182 -15.99016,-8.35721 0,-4.4972 3.71861,-8.34515 8.06463,-8.34515 3.79545,0 5.84043,1.80469 7.35,6.48634 1.97614,6.12865 5.06183,5.66785 10.08682,-1.50633 1.11693,-1.59465 2.01425,-2.06431 2.67727,-1.40129 0.66302,0.66302 0.16841,3.66583 -1.47572,8.95927 -1.36014,4.37911 -2.47974,8.52451 -2.48799,9.21201 -0.0118,0.98338 10.5486,1.25 49.5097,1.25 h 49.5248 l 0.9752,-2.5651 c 1.8741,-4.9292 1.4781,-5.27592 -4.2747,-3.74295 -9.1548,2.43948 -16.15,-1.18647 -16.15,-8.37128 0,-6.61499 8.6799,-10.98378 12.7929,-6.43895 0.9367,1.03495 2.1526,3.50995 2.702,5.5 1.3501,4.88959 3.8371,4.70433 8.2556,-0.61496 1.934,-2.32828 3.8428,-3.90673 4.2419,-3.50768 0.3991,0.39906 -0.246,4.27065 -1.4334,8.60354 -1.1875,4.33288 -2.159,8.61133 -2.159,9.50767 0,1.48184 4.0334,1.62971 44.453,1.62971 h 44.453 l 1.0199,-3.69377 c 0.5609,-2.03158 0.919,-3.79468 0.7956,-3.91801 -0.1233,-0.12334 -2.6986,0.42129 -5.7229,1.21027 -6.2204,1.62283 -9.7581,1.16517 -13.4517,-1.74021 -5.5111,-4.33505 -1.791,-14.85828 5.2526,-14.85828 3.478,0 5.947,2.49821 7.2954,7.38172 0.7012,2.53938 1.5663,3.61828 2.9012,3.61828 2.0644,0 6.397,-5.13145 7.3878,-8.75 0.3389,-1.2375 0.8714,-3.15 1.1835,-4.25 0.5655,-1.99349 0.09,-2 -146.0567,-2 H 702.06048 l 1.55671,2.22251 c 2.63752,3.76559 1.87069,6.2101 -3.53391,11.26548 -5.16069,4.82722 -8.89885,9.97813 -8.90565,12.27135 -0.003,0.99905 10.25769,1.20573 49.64578,1 l 49.64951,-0.25934 z m 277.38367,0.39758 c 0.5609,-2.03158 0.919,-3.79468 0.7956,-3.91801 -0.1233,-0.12334 -2.6986,0.42129 -5.7228,1.21027 -6.2205,1.62283 -9.7582,1.16517 -13.4517,-1.74021 -5.5112,-4.33505 -1.7911,-14.85828 5.2526,-14.85828 3.478,0 5.947,2.49821 7.2954,7.38172 0.7011,2.53938 1.5662,3.61828 2.9011,3.61828 2.0645,0 6.397,-5.13145 7.3878,-8.75 0.3389,-1.2375 0.8714,-3.15 1.1835,-4.25 0.5603,-1.97489 0.09,-2 -37.4615,-2 H 999.251 l -0.9995,3.75 c -1.6293,6.11363 -5.0776,21.25004 -5.0776,22.28873 0,0.59792 14.1569,0.96127 37.453,0.96127 h 37.453 z m 44.0741,-9.80623 v -13.5 h -16.9615 -16.9614 l -0.9995,3.75 c -1.6293,6.11363 -5.0776,21.25004 -5.0776,22.28873 0,0.58299 7.8705,0.96127 20,0.96127 h 20 z m 16.779,-0.25 0.2791,-13.25 h -6.0291 -6.029 v 13.5499 13.54991 l 5.75,-0.29991 5.75,-0.2999 z m -929.77901,-8.75 v -4.5 h -5.81291 c -5.07175,0 -6.13002,0.35063 -8.30001,2.75 -5.93479,6.56212 -6.15904,6.25 4.49048,6.25 h 9.62244 z M 72.49174,385.05483 c 0.75928,-6.41092 4.99991,-14.22427 10.08029,-18.57288 l 3.96186,-3.3912 h -16.68 -16.68 v 13.5 13.5 h 9.36071 9.36071 z m 46.68215,2.21742 c 0,-4.62784 -2.78348,-12.58252 -5.91599,-16.90683 -7.80609,-10.776 -23.66389,-8.85915 -30.03571,3.63065 l -1.83387,3.59468 h 4.47482 c 3.80182,0 4.91911,0.49726 7.42905,3.30638 1.62484,1.8185 3.21918,4.631 3.54298,6.25 l 0.58872,2.94362 h 10.875 10.875 z m 68.86794,-1.4315 c 2.54497,-5.28557 5.13206,-15.09548 5.13206,-19.4601 v -3.2899 l -37.75,0.0525 c -35.81556,0.0498 -37.62401,0.13944 -35.29132,1.75 8.4606,5.84146 13.01365,13.16027 13.03155,20.94755 l 0.01,4.25 h 26.41079 26.4108 l 2.04635,-4.25 z m -49.16904,-5.53022 c -4.21958,-4.66258 0.7376,-11.70727 6.26627,-8.90506 3.82843,1.94045 4.77177,4.27833 3.00363,7.44391 -1.93358,3.46178 -6.76952,4.22404 -9.2699,1.46115 z m 61.3011,7.44758 c 0,-1.49496 1.35282,-3.41978 3.76712,-5.35997 2.07192,-1.66504 4.64925,-4.66536 5.72741,-6.66737 1.07815,-2.00201 2.30795,-3.64002 2.73287,-3.64002 0.42493,0 0.7726,4.05 0.7726,9 v 9 h 13.02903 13.02902 l -0.27902,-13.25 -0.27903,-13.25 -12.06301,-0.27928 -12.06301,-0.27928 -8.93699,10.26155 c -4.91535,5.64384 -10.22111,11.73202 -11.79058,13.52927 l -2.85359,3.26774 h 4.60359 c 4.15575,0 4.60359,-0.22692 4.60359,-2.33264 z m 65,-11.16736 v -13.5 h -6 -6 v 13.5 13.5 h 6 6 z m 231,-0.004 v -13.50428 l -113.25,0.25428 -113.25,0.254 -0.27903,13.25 -0.27902,13.25 h 113.52902 113.52903 v -13.50427 z m 16.77903,0.254 -0.27903,-13.25 -5.75,-0.2999 -5.75,-0.29991 v 13.54991 13.5499 h 6.02903 6.02902 z m 177.68423,11 c -0.69766,-2.33761 -1.92303,-4.33819 -5.51224,-8.99951 -1.89849,-2.46557 -1.9467,-2.81492 -0.46686,-3.38279 0.90765,-0.34829 1.98689,-0.23601 2.39831,0.24952 0.41142,0.48553 3.36113,3.92028 6.55491,7.63278 l 5.80686,6.75 H 847.7674 996.1167 l 0.878,-3.25 c 0.483,-1.7875 0.7438,-3.41453 0.5797,-3.61562 -0.1641,-0.20109 -1.7385,0.13641 -3.4987,0.75 -4.071,1.41915 -11.4318,1.43755 -14.0522,0.0351 -2.5026,-1.33936 -5.0504,-7.18415 -4.1907,-9.61361 1.2669,-3.57985 4.6324,-6.30619 7.7654,-6.29059 4.2851,0.0213 5.6915,1.16923 7.5297,6.14538 2.1164,5.72945 4.2607,5.98313 7.6233,0.90192 4.5727,-6.90989 5.615,-4.62986 2.9427,6.43739 -0.7968,3.3 -1.4648,6.5625 -1.4844,7.25 -0.028,0.97868 8.2064,1.25 37.9358,1.25 h 37.9714 l 0.878,-3.25 c 0.483,-1.7875 0.7438,-3.41453 0.5797,-3.61562 -0.1641,-0.20109 -1.7385,0.13641 -3.4987,0.75 -4.071,1.41915 -11.4318,1.43755 -14.0522,0.0351 -2.5026,-1.33936 -5.0504,-7.18415 -4.1907,-9.61361 1.2669,-3.57985 4.6324,-6.30619 7.7654,-6.29059 4.2851,0.0213 5.6915,1.16923 7.5297,6.14538 2.1165,5.72945 4.2607,5.98313 7.6233,0.90192 2.7256,-4.11871 6.025,-5.63361 5.0367,-2.31261 -0.869,2.92028 -3.614,15.31003 -3.614,16.31205 0,0.54604 6.8944,0.93795 16.5,0.93795 h 16.5 v -13.5 -13.5 h -293.00001 -293 v 13.5 13.5 h 82.06739 82.06739 l -0.67152,-2.25 z m 439.53675,-11.25 v -13.5 h -6 -6 v 13.5 13.5 h 6 6 z M 239.17389,267.10736 V 173.09075 H 182.3919 125.60991 l -0.11597,10.8751 c -0.15874,14.88662 -3.38733,22.18661 -12.54947,28.3749 -3.50048,2.36429 -5.07491,2.75 -11.22528,2.75 -6.1885,0 -7.77551,-0.39431 -11.76189,-2.9224 -8.13492,-5.15902 -12.48906,-16.05963 -9.38364,-23.49196 1.16295,-2.78332 2.63828,-4.15728 6.11579,-5.69555 6.89691,-3.05083 11.74618,-1.2215 15.35948,5.79417 3.47065,6.7387 -2.3977,15.25504 -10.57538,15.34734 l -2.79966,0.0316 2.76396,2.43244 c 4.14075,3.6441 9.86806,5.08099 14.60064,3.66307 5.494,-1.64604 8.81003,-4.58997 11.83545,-10.50736 2.22559,-4.35302 2.70529,-6.81733 3.0953,-15.90135 l 0.46155,-10.75 H 87.30234 53.17389 v 93.90987 93.90986 l 93,0.10675 93,0.10675 z m 26,78.98339 v -15 h -4 c -3.33333,0 -4,-0.33333 -4,-2 0,-1.66667 0.66667,-2 4,-2 h 4 v -77 -77 h -6 -6 v 94 94 h 6 6 z m 231,0.0695 c 0,-14.70147 -0.0344,-14.93535 -2.23978,-15.25 -3.32375,-0.47415 -3.61588,-3.8195 -0.33354,-3.8195 h 2.57332 v -77 -77 h -113.5 -113.5 v 77 c 0,50.66667 0.34199,77 1,77 0.55,0 1,0.9 1,2 0,1.1 -0.45,2 -1,2 -0.62222,0 -1,5.66667 -1,15 v 15 h 113.5 113.5 V 346.1603 Z m -150.50343,2.7933 c -5.80488,-5.09676 -8.70286,-11.01382 -9.26891,-18.92514 -0.69471,-9.70941 1.01568,-14.94863 7.02751,-21.52653 5.79065,-6.33589 8.57207,-7.36383 3.31877,-1.22653 -4.56961,5.33856 -5.56664,9.08036 -5.5464,20.81535 0.018,10.4586 1.80409,16.10772 6.7185,21.25 3.5592,3.72423 2.15859,3.48317 -2.24947,-0.38715 z m 68.63274,-0.57088 c 5.10415,-5.66845 6.38033,-10.07257 6.31463,-21.79197 -0.0617,-11.01225 -1.18638,-14.38514 -6.75206,-20.25 -1.69632,-1.7875 -2.54544,-3.25 -1.88694,-3.25 1.99703,0 8.92837,7.81765 11.33001,12.77878 2.65072,5.47565 3.08951,15.44583 0.95225,21.63708 -1.40561,4.07179 -7.9448,11.90806 -11.52455,13.81049 -1.32251,0.70284 -0.76034,-0.3501 1.56666,-2.93438 z m -28.86492,-6.81934 c -2.40992,-1.68797 -2.0399,-4.4766 0.5926,-4.46604 0.90365,0.004 2.99301,0.90066 4.64301,1.99341 3.99722,2.64726 5.12832,2.52552 8.57692,-0.92308 2.33572,-2.33571 2.92308,-3.79805 2.92308,-7.27749 0,-2.4092 -0.72927,-5.3956 -1.6325,-6.68514 -1.82982,-2.61244 -8.6846,-6.05882 -12.1175,-6.09233 -2.93554,-0.0286 -2.83973,-1.27206 0.66962,-8.69012 l 2.91804,-6.16815 7.5835,-0.33185 c 4.17092,-0.18251 7.58245,-0.24051 7.58117,-0.12889 -10e-4,0.11162 -0.52456,1.34912 -1.16285,2.75 -1.06496,2.33733 -1.67959,2.54705 -7.46481,2.54705 -5.20942,0 -6.48408,0.33593 -7.33949,1.93426 -1.46234,2.73242 -1.51547,2.67134 3.55953,4.09226 2.5271,0.70754 6.1271,2.73166 8,4.49804 3.15022,2.97103 3.40529,3.66829 3.40529,9.30872 0,5.38479 -0.36011,6.50727 -3.08227,9.60763 -4.53042,5.15988 -13.21195,7.14259 -17.65334,4.03172 z m -24.58701,-0.16885 c 4.04297,-0.78701 4.38908,-2.34383 4.09929,-18.43838 l -0.27667,-15.36535 -3,0.18913 c -2.82958,0.17839 -2.74437,0.0531 1.5,-2.20481 2.475,-1.31667 5.05257,-2.41428 5.72793,-2.43913 0.91912,-0.0338 1.29636,4.65921 1.5,18.66051 l 0.27207,18.70571 2.5,0.69461 c 1.42435,0.39576 -1.1572,0.67891 -6,0.65812 -4.675,-0.0201 -7.52018,-0.22724 -6.32262,-0.46036 z m -83.67738,-12.30373 c 0,-1.80952 0.66667,-2 7,-2 6.33333,0 7,0.19048 7,2 0,1.80952 -0.66667,2 -7,2 -6.33333,0 -7,-0.19048 -7,-2 z m 19,0 c 0,-1.80952 0.66667,-2 7,-2 6.33333,0 7,0.19048 7,2 0,1.80952 -0.66667,2 -7,2 -6.33333,0 -7,-0.19048 -7,-2 z m 20,0 c 0,-1.80952 0.66667,-2 7,-2 6.33333,0 7,0.19048 7,2 0,1.80952 -0.66667,2 -7,2 -6.33333,0 -7,-0.19048 -7,-2 z m 117,0 c 0,-1.80952 0.66667,-2 7,-2 6.33333,0 7,0.19048 7,2 0,1.80952 -0.66667,2 -7,2 -6.33333,0 -7,-0.19048 -7,-2 z m 19.70762,1.37429 c -0.38919,-0.38919 -0.70762,-1.30762 -0.70762,-2.04096 0,-0.99374 1.92889,-1.33333 7.57332,-1.33333 6.67314,0 7.53367,0.20801 7.23967,1.75 -0.27008,1.41652 -1.5784,1.80544 -6.8657,2.04096 -3.59263,0.16002 -6.85047,-0.0275 -7.23967,-0.41667 z m 19.29238,-1.37429 c 0,-1.80952 0.66667,-2 7,-2 6.33333,0 7,0.19048 7,2 0,1.80952 -0.66667,2 -7,2 -6.33333,0 -7,-0.19048 -7,-2 z M 337.31731,279.8809 c -6.41912,-6.4833 -8.6494,-11.86747 -8.61188,-20.79015 0.0384,-9.14004 2.66363,-15.29929 8.73637,-20.49733 5.68986,-4.8703 6.79499,-4.37944 1.95694,0.86922 -4.94214,5.36159 -6.72406,12.46165 -5.95424,23.72456 0.56743,8.30178 2.30925,12.67113 7.03751,17.65355 4.57303,4.81885 1.69148,3.94488 -3.1647,-0.95985 z m 39.98589,0.50182 c 5.10415,-5.66845 6.38033,-10.07257 6.31463,-21.79197 -0.0617,-11.01225 -1.18638,-14.38514 -6.75206,-20.25 -1.69632,-1.7875 -2.54544,-3.25 -1.88694,-3.25 1.99703,0 8.92837,7.81765 11.33001,12.77878 2.65072,5.47565 3.08951,15.44583 0.95225,21.63708 -1.40561,4.07179 -7.9448,11.90806 -11.52455,13.81049 -1.32251,0.70284 -0.76034,-0.3501 1.56666,-2.93438 z m -22.85498,-7.46236 2.77434,-1.0125 -0.27434,-16.15855 -0.27433,-16.15856 -2.5,0.22191 c -1.95059,0.17314 -1.51107,-0.3114 2,-2.20481 2.475,-1.3347 4.8375,-2.44706 5.25,-2.47191 0.4125,-0.0249 0.75689,7.94231 0.76531,17.70481 0.008,9.7625 0.34592,18.26713 0.75,18.89918 0.40408,0.63206 1.85969,1.35827 3.23469,1.61382 1.375,0.25555 -1.325,0.49039 -6,0.52187 -6.85167,0.0461 -7.962,-0.13911 -5.72567,-0.95526 z m -5.14259,-56.84127 c -6.71195,-1.4204 -12.78628,-4.76682 -16.47499,-9.07625 -3.09028,-3.6103 -3.74621,-3.91209 -8.50268,-3.91209 -4.4874,0 -5.15407,-0.2587 -5.15407,-2 0,-1.75866 0.66667,-2 5.52475,-2 4.95299,0 5.62181,-0.25527 6.46255,-2.4666 2.69352,-7.0845 16.30125,-12.02176 31.32278,-11.36477 8.08296,0.35352 10.36524,0.8594 15.34268,3.40075 3.78471,1.93238 6.69999,4.29855 8.26478,6.70804 2.29191,3.52913 2.69465,3.72258 7.75,3.72258 4.66579,0 5.33246,0.25004 5.33246,2 0,1.7524 -0.66667,2 -5.38499,2 -4.7619,0 -5.59203,0.31598 -7.17432,2.73086 -2.64471,4.03634 -5.31618,5.98398 -11.39727,8.30921 -6.24191,2.38673 -19.22643,3.36302 -25.91168,1.94827 z m 18.07895,-3.35164 c 0.94087,-0.71483 2.17837,-2.52981 2.75,-4.03329 2.1094,-5.54816 2.00626,-5.60341 -10.46069,-5.60341 -6.325,0 -11.5,0.29502 -11.5,0.65561 0,0.36058 1.09333,2.08904 2.42963,3.84101 4.2932,5.62868 12.73466,8.21432 16.78106,5.14008 z m 2.78931,-14.67542 c 0,-0.5713 -1.72757,-2.89077 -3.83904,-5.15438 -3.432,-3.67928 -4.43316,-4.16493 -9.44231,-4.58032 -5.48166,-0.45459 -5.64783,-0.39156 -7.65721,2.90437 -1.12968,1.85298 -2.05565,4.38155 -2.0577,5.61905 -0.004,2.20312 0.23589,2.25 11.49626,2.25 7.28581,0 11.5,-0.38064 11.5,-1.03872 z m 143,148.03872 c 0,-9.33333 -0.37778,-15 -1,-15 -0.55,0 -1,-0.9 -1,-2 0,-1.1 0.45,-2 1,-2 0.65801,0 1,-26.33333 1,-77 v -77 h -6 -6 v 77 77 h 2.57332 c 3.28234,0 2.99021,3.34535 -0.33354,3.81955 -2.20543,0.31465 -2.23978,0.54853 -2.23978,15.25 v 14.93045 h 6 6 z m 600.00001,-79 v -94 l -42.75,0.003 -42.75,0.003 -0.083,9.24747 c -0.1035,11.50136 -2.7393,19.24747 -6.5493,19.24747 -2.7709,0 -2.7658,-0.79966 0.053,-8.5 1.9411,-5.30165 2.7278,-15.14558 1.472,-18.41821 -0.4905,-1.2783 -2.3132,-1.58179 -9.5,-1.58179 h -8.893 v 13 13 h 5.5 c 4.8333,0 5.5,0.24242 5.5,2 0,1.7649 -0.6667,2 -5.6714,2 -5.4289,0 -5.8586,0.19539 -10.049,4.56871 -5.8493,6.10466 -13.0844,9.40892 -20.6296,9.42152 -5.3257,0.009 -6.1548,-0.29498 -9.25,-3.39023 -2.6074,-2.60741 -3.4,-4.23922 -3.4,-7 v -3.6 h -5.5 c -4.8333,0 -5.5,-0.24242 -5.5,-2 0,-1.782 0.6667,-2 6.1163,-2 6.0248,0 6.2051,-0.0821 12.0391,-5.48343 8.2112,-7.60213 17.2135,-10.11135 25.0946,-6.99466 1.5674,0.61987 1.75,-0.0494 1.75,-6.41492 v -7.10699 H 965.799 931.4244 l -0.4837,8.25 c -0.2661,4.5375 -1.3647,10.725 -2.4414,13.75 -1.6458,4.62408 -2.3453,5.5 -4.3917,5.5 -2.8446,0 -2.8457,-0.76316 -0.013,-8.5 1.2541,-3.4252 2.0261,-8.04634 2.0464,-12.25 l 0.033,-6.75094 h -9.5 -9.5 v 11.41821 c 0,6.28002 -0.2731,12.13002 -0.607,13 -0.5127,1.33597 0.3421,1.58179 5.5,1.58179 5.4403,0 6.107,0.21833 6.107,2 0,1.78395 -0.6667,2 -6.1714,2 -6.0226,0 -6.277,0.11019 -10.549,4.56871 -8.8986,9.28701 -22.8519,12.46602 -29.3256,6.68129 -2.2058,-1.97104 -3.2389,-3.95384 -3.6474,-7 l -0.5699,-4.25 h -5.3684 c -4.7016,0 -5.3683,-0.24837 -5.3683,-2 0,-1.782 0.6667,-2 6.1163,-2 6.0227,0 6.2069,-0.0838 12.0224,-5.46789 8.3032,-7.68738 16.943,-10.19611 24.3934,-7.08314 l 3.4679,1.44898 v -7.44898 -7.44897 h -35.4483 -35.4482 l -1.6788,5.98295 c -1.9112,6.81157 -3.6447,8.90927 -5.85,7.07902 -1.2259,-1.0174 -1.156,-1.96594 0.5,-6.779 1.0589,-3.07784 1.9253,-5.75062 1.9253,-5.93952 0,-0.1889 -4.05,-0.34345 -9,-0.34345 h -9 v 13 13 h 5.5 c 4.83333,0 5.5,0.24242 5.5,2 0,1.7649 -0.66667,2 -5.67142,2 -5.42887,0 -5.85863,0.19539 -10.04901,4.56871 -5.84929,6.10466 -13.08438,9.40892 -20.62957,9.42152 -5.32566,0.009 -6.15475,-0.29498 -9.25,-3.39023 -2.60741,-2.60741 -3.4,-4.23922 -3.4,-7 v -3.6 h -5.5 c -4.83333,0 -5.5,-0.24242 -5.5,-2 0,-1.782 0.66667,-2 6.11634,-2 6.02477,0 6.20503,-0.0821 12.03911,-5.48343 8.21121,-7.60213 17.21347,-10.11135 25.09455,-6.99466 1.56743,0.61987 1.75,-0.0494 1.75,-6.41492 v -7.10699 h -44.5 -44.5 v 11.41821 c 0,6.28002 -0.27314,12.13002 -0.60699,13 -0.51266,1.33597 0.34207,1.58179 5.5,1.58179 5.44032,0 6.10699,0.21833 6.10699,2 0,1.78395 -0.66667,2 -6.17142,2 -6.02257,0 -6.27699,0.11019 -10.54901,4.56871 -5.84929,6.10466 -13.08438,9.40892 -20.62957,9.42152 -5.32566,0.009 -6.15475,-0.29498 -9.25,-3.39023 -2.60741,-2.60741 -3.4,-4.23922 -3.4,-7 v -3.6 h -5.5 c -4.83333,0 -5.5,-0.24242 -5.5,-2 0,-1.782 0.66667,-2 6.11634,-2 6.02265,0 6.20682,-0.0838 12.02232,-5.46789 8.30329,-7.68738 16.94306,-10.19611 24.39346,-7.08314 l 3.46788,1.44898 v -7.44898 -7.44897 h -54.44441 -54.4444 l -0.3056,13.00175 -0.30559,13.00175 5.75,-0.002 c 5.08392,-0.002 5.75,0.22993 5.75,1.99825 0,1.80728 -0.66667,2 -6.91844,2 -6.87446,0 -6.93269,0.0231 -9.16043,3.62761 -1.62086,2.6226 -4.0676,4.48315 -8.83156,6.71569 -5.65252,2.64894 -7.75691,3.09295 -14.79857,3.12239 -10.18221,0.0426 -11.70912,-1.06896 -11.59788,-8.44273 l 0.0758,-5.02271 h -5.88445 c -5.21778,0 -5.88445,-0.22659 -5.88445,-2 0,-1.80505 0.66667,-2 6.83948,-2 6.24662,0 6.93416,-0.20778 7.93161,-2.39694 2.8802,-6.32135 13.02117,-10.7748 24.97766,-10.96905 l 8.24875,-0.13401 10e-4,-6.25 0.001,-6.25 h -36 -36 v 94 94 h 293 292.99998 v -94 z M 560.31731,278.8809 c -6.41912,-6.4833 -8.6494,-11.86747 -8.61188,-20.79015 0.0384,-9.14004 2.66363,-15.29929 8.73637,-20.49733 5.68986,-4.8703 6.79499,-4.37944 1.95694,0.86922 -4.94214,5.36159 -6.72406,12.46165 -5.95424,23.72456 0.56743,8.30178 2.30925,12.67113 7.03751,17.65355 4.57303,4.81885 1.69148,3.94488 -3.1647,-0.95985 z m 39.98589,0.50182 c 5.10415,-5.66845 6.38033,-10.07257 6.31463,-21.79197 -0.0617,-11.01225 -1.18638,-14.38514 -6.75206,-20.25 -1.69632,-1.7875 -2.54544,-3.25 -1.88694,-3.25 1.99703,0 8.92837,7.81765 11.33001,12.77878 2.65072,5.47565 3.08951,15.44583 0.95225,21.63708 -1.40561,4.07179 -7.9448,11.90806 -11.52455,13.81049 -1.32251,0.70284 -0.76034,-0.3501 1.56666,-2.93438 z m 72.91218,-0.25048 c -6.66885,-6.66885 -8.51749,-11.23572 -8.51749,-21.04149 0,-6.79759 0.43373,-9.3148 2.16558,-12.56821 2.29233,-4.30632 9.48264,-11.43179 11.53581,-11.43179 0.67079,0 0.22631,0.69575 -0.98775,1.5461 -1.21405,0.85036 -3.45168,3.66286 -4.9725,6.25 -2.6074,4.43555 -2.76455,5.38847 -2.7548,16.7039 0.0114,13.20384 0.99189,16.36431 6.74392,21.73751 1.62649,1.51937 2.45966,2.76249 1.8515,2.76249 -0.60817,0 -2.88709,-1.78133 -5.06427,-3.95851 z m 40.27362,-0.0965 c 4.67043,-5.45635 5.80768,-9.68441 5.77548,-21.47202 -0.0291,-10.64247 -1.44835,-15.17142 -6.33744,-20.22295 -1.73002,-1.7875 -2.7009,-3.25 -2.15752,-3.25 1.88192,0 9.30705,8.52017 11.32919,13 2.33499,5.17289 2.75226,15.00805 0.89916,21.19316 -1.23517,4.12265 -7.55507,12.05737 -11.12548,13.9682 -1.42596,0.76315 -0.90852,-0.26634 1.61661,-3.21639 z m 52.94094,-1.19499 c -11.54644,-11.7952 -11.64841,-29.57818 -0.23313,-40.65633 5.35014,-5.19213 7.35169,-5.3576 2.71413,-0.22438 -4.7804,5.29134 -6.19087,10.02165 -6.15158,20.63071 0.0396,10.70099 1.44805,15.42446 6.15158,20.63071 4.73573,5.24188 2.72026,4.93261 -2.481,-0.38071 z m 40.54234,-0.2583 c 4.60827,-5.23527 6.20161,-10.43875 6.20161,-20.25302 0,-9.03378 -2.24296,-16.29358 -6.39376,-20.69471 -1.83832,-1.94918 -2.96742,-3.54397 -2.50911,-3.54397 1.89275,0 7.70618,6.21633 10.45647,11.18115 2.5731,4.64496 2.9464,6.33243 2.9464,13.31885 0,6.98797 -0.37306,8.67345 -2.94896,13.32355 -2.57411,4.64687 -9.0181,11.17645 -11.02993,11.17645 -0.3801,0 1.09468,-2.02873 3.27728,-4.5083 z m 59.24312,-1.45021 c -6.6689,-6.66885 -8.5175,-11.23572 -8.5175,-21.04149 0,-6.79759 0.4337,-9.3148 2.1656,-12.56821 2.2923,-4.30632 9.4826,-11.43179 11.5358,-11.43179 0.6708,0 0.2263,0.69575 -0.9878,1.5461 -1.214,0.85036 -3.4517,3.66286 -4.9725,6.25 -2.6074,4.43555 -2.7645,5.38847 -2.7548,16.7039 0.011,13.20384 0.9919,16.36431 6.7439,21.73751 1.6265,1.51937 2.4597,2.76249 1.8515,2.76249 -0.6081,0 -2.887,-1.78133 -5.0642,-3.95851 z m 40.2736,-0.0965 c 4.6704,-5.45635 5.8077,-9.68441 5.7755,-21.47202 -0.029,-10.64247 -1.4484,-15.17142 -6.3375,-20.22295 -1.73,-1.7875 -2.7009,-3.25 -2.1575,-3.25 1.8819,0 9.3071,8.52017 11.3292,13 2.335,5.17289 2.7523,15.00805 0.8992,21.19316 -1.2352,4.12265 -7.5551,12.05737 -11.1255,13.9682 -1.426,0.76315 -0.9085,-0.26634 1.6166,-3.21639 z m 50.9409,-1.19499 c -11.5464,-11.7952 -11.6484,-29.57818 -0.2331,-40.65633 5.3501,-5.19213 7.3517,-5.3576 2.7141,-0.22438 -4.7804,5.29134 -6.1908,10.02165 -6.1515,20.63071 0.04,10.70099 1.448,15.42446 6.1515,20.63071 4.7358,5.24188 2.7203,4.93261 -2.481,-0.38071 z m 40.5424,-0.2583 c 4.6083,-5.23527 6.2016,-10.43875 6.2016,-20.25302 0,-9.03378 -2.243,-16.29358 -6.3938,-20.69471 -1.8383,-1.94918 -2.9674,-3.54397 -2.5091,-3.54397 1.8928,0 7.7062,6.21633 10.4565,11.18115 2.5731,4.64496 2.9464,6.33243 2.9464,13.31885 0,6.98797 -0.3731,8.67345 -2.949,13.32355 -2.5741,4.64687 -9.0181,11.17645 -11.0299,11.17645 -0.3801,0 1.0947,-2.02873 3.2773,-4.5083 z m -312.54841,-1.46988 c -1.2375,-0.52655 -2.25,-1.64687 -2.25,-2.4896 0,-1.93743 3.63789,-1.95418 7,-0.0322 3.53816,2.02259 5.49745,1.83634 8.5806,-0.81567 2.12888,-1.83118 2.69213,-3.19543 2.69213,-6.52058 0,-5.26408 -2.19238,-7.8253 -7.64664,-8.9331 -4.12171,-0.83716 -4.12344,-0.83945 -1.62609,-2.15931 4.71408,-2.49142 7,-5.29679 7,-8.59067 0,-6.80826 -6.61563,-8.51307 -12.61036,-3.24963 l -3.67995,3.23104 1.66596,-3.22162 c 2.24923,-4.34952 5.85068,-6.51319 10.84127,-6.51319 7.61194,0 11.23367,7.31222 6.40321,12.92797 l -2.37988,2.76677 2.80246,2.61789 c 5.67108,5.29757 4.31524,15.18653 -2.62956,19.17903 -3.76918,2.16687 -11.11125,3.10147 -14.16315,1.80289 z m -115.25,-0.81361 c 0,-0.43549 2.05846,-2.79799 4.57436,-5.25 10.0482,-9.79306 14.30444,-18.13884 12.25248,-24.02508 -1.1623,-3.33418 -3.48929,-4.93313 -7.17931,-4.93313 -3.90922,0 -5.59836,1.00515 -7.34571,4.37118 -0.89332,1.72085 -1.80401,2.59683 -2.02375,1.94661 -0.62194,-1.84027 2.49281,-7.12156 5.27533,-8.94474 4.06207,-2.66157 10.03623,-2.14039 13.49955,1.17768 2.4339,2.33182 2.94705,3.63164 2.94705,7.46492 0,5.49149 -3.14891,10.79993 -10.94241,18.44676 -2.78167,2.72932 -5.05759,5.36447 -5.05759,5.85588 0,0.49142 3.64004,0.72818 8.08899,0.52614 6.56968,-0.29835 8.35401,-0.72978 9.5,-2.29702 1.72752,-2.36252 1.80097,-1.26783 0.21012,3.13159 l -1.20089,3.321 H 581.473 c -6.21451,0 -11.29911,-0.35631 -11.29911,-0.79179 z m 221,-5.20821 v -5 h -8 c -7.25183,0 -8,-0.18149 -8,-1.94069 0,-2.37651 17.64232,-27.55931 19.30724,-27.55931 0.84632,0 1.27391,3.6848 1.47216,12.68641 l 0.2794,12.68642 2.71205,0.31358 c 1.62673,0.1881 2.84486,1.01392 3.04392,2.06359 0.25774,1.35905 -0.35471,1.75 -2.74145,1.75 -3.02132,0 -3.07332,0.0846 -3.07332,5 0,4.66667 -0.16667,5 -2.5,5 -2.33333,0 -2.5,-0.33333 -2.5,-5 z m 0,-18.63486 c 0,-9.49819 -0.0256,-9.60103 -1.80239,-7.25 -4.0002,5.29292 -11.19761,15.779 -11.19761,16.31405 0,0.31395 2.925,0.57081 6.5,0.57081 h 6.5 z m 86.26441,21.10749 c -2.4099,-1.68797 -2.0399,-4.4766 0.5926,-4.46604 0.9036,0.004 2.993,0.90066 4.643,1.99341 3.9972,2.64726 5.1283,2.52552 8.5769,-0.92308 2.3357,-2.33571 2.9231,-3.79805 2.9231,-7.27749 0,-2.4092 -0.7293,-5.3956 -1.6325,-6.68514 -1.8298,-2.61244 -8.6846,-6.05882 -12.1175,-6.09233 -2.9356,-0.0286 -2.8397,-1.27206 0.6696,-8.69012 l 2.918,-6.16815 7.5835,-0.33185 c 4.171,-0.18251 7.5825,-0.24051 7.5812,-0.12889 -10e-4,0.11162 -0.5245,1.34912 -1.1628,2.75 -1.065,2.33733 -1.6796,2.54705 -7.4648,2.54705 -5.2095,0 -6.4841,0.33593 -7.3395,1.93426 -1.4624,2.73242 -1.5155,2.67134 3.5595,4.09226 2.5271,0.70754 6.1271,2.73166 8,4.49804 3.1502,2.97103 3.4053,3.66829 3.4053,9.30872 0,5.38479 -0.3601,6.50727 -3.0823,9.60763 -4.5304,5.15988 -13.2119,7.14259 -17.6533,4.03172 z m 97.0341,-1.37589 c -4.8459,-3.03991 -6.7414,-7.42722 -6.7721,-15.67516 -0.023,-6.15365 0.3655,-7.70755 2.9736,-11.89392 3.3532,-5.38246 10.3601,-9.94048 17,-11.05854 l 4,-0.67355 -5.4499,2.85221 c -5.5424,2.90065 -10.2755,7.91491 -11.5664,12.25349 -0.6168,2.07275 -0.4593,2.29282 1.1509,1.60857 6.1731,-2.62324 12.4883,-1.10659 14.9125,3.58135 0.7991,1.54522 1.4529,5.08845 1.4529,7.87384 0,4.31968 -0.478,5.58589 -3.2506,8.61136 -4.1672,4.54714 -9.6857,5.50961 -14.4509,2.52035 z m 11.4705,-3.09674 c 1.87,-3.55624 1.1106,-13.37057 -1.2351,-15.96253 -2.3126,-2.55536 -8.6723,-2.7822 -10.6615,-0.38028 -2.8773,3.47431 -0.4305,17.10381 3.3565,18.69676 3.0245,1.27218 7.245,0.10884 8.5401,-2.35395 z m 144.231,2 v -94 h -6 -6 v 94 94 h 6 6 z M 579.03391,210.0617 c 3.10199,-1.66598 6.76498,-3.90597 8.13998,-4.97777 l 2.5,-1.94871 -9.92126,-0.0222 c -10.72692,-0.0241 -13.57874,1.11692 -13.57874,5.43272 0,5.31293 4.74805,5.87264 12.86002,1.51596 z m 18.75878,-13.51191 c 2.28223,-3.48313 0.57259,-7.45904 -3.20738,-7.45904 -2.68802,0 -11.91413,4.50124 -16.41142,8.00682 l -2.5,1.94871 10.22695,0.0222 c 9.86044,0.0214 10.28661,-0.0688 11.89185,-2.51872 z M 93.70361,168.90965 C 87.80957,165.80295 80.06514,157.2988 76.74002,150.28196 l -2.93387,-6.19121 H 63.49002 53.17389 v 13.5 13.5 l 22.25,-0.0442 22.25,-0.0442 -3.97028,-2.09271 z m 97.23385,1.2541 c 0.95504,-0.50985 2.52135,-1.16974 3.48071,-1.46642 2.04517,-0.63247 5.74659,-6.3317 5.75198,-8.85658 0.003,-1.56113 -1.18681,-1.75 -11.02764,-1.75 -12.97616,0 -13.9066,-0.73378 -9.26507,-7.30675 1.6286,-2.30629 3.2881,-4.75575 3.68779,-5.44325 0.5707,-0.98168 -3.36039,-1.25 -18.31327,-1.25 h -19.03997 l -0.5884,2.75 c -2.11255,9.87328 -6.50652,16.41301 -14.39548,21.42533 l -4.44578,2.82467 h 31.20935 c 17.25237,0 31.98589,-0.41456 32.94578,-0.927 z m 48.01546,-12.823 0.27902,-13.25 h -13.02902 -13.02903 v 5 5 h 4.94098 c 5.02298,0 7.43626,1.51357 4.93714,3.09649 -0.75797,0.48009 -3.29919,0.87978 -5.64717,0.8882 -4.14273,0.0149 -4.25017,0.0967 -3.63103,2.76531 0.87526,3.77259 3.17718,7.25347 5.20835,7.8759 0.93045,0.28512 2.36673,0.91932 3.19173,1.40933 0.825,0.49001 4.875,0.79504 9,0.67785 l 7.5,-0.21308 z m 26.22097,0.25 v -13.5 h -6 -6 v 13.5 13.5 h 6 6 z m 231,0 v -13.5 h -113.5 -113.5 v 12.83333 c 0,7.05834 0.3,13.13334 0.66667,13.5 0.36666,0.36667 51.44166,0.66667 113.5,0.66667 h 112.83333 z m 16.77903,-0.25 0.27902,-13.25 h -6.02902 -6.02903 v 13.5499 13.54991 l 5.75,-0.29991 5.75,-0.2999 z m 86.22097,0.25 v -13.5 h -36 -36 v 13.5 13.5 h 36 36 z m 113,0 v -13.5 h -54.5 -54.5 v 13.5 13.5 h 54.5 54.5 z m 93,0 v -13.5 h -44.5 -44.5 v 13.5 13.5 h 44.5 44.5 z m 22.48931,5 c -0.01,-6.59747 -0.4589,-8.87658 -2.5678,-13 l -2.55712,-5 -6.6822,-0.29569 -6.68219,-0.29569 v 13.58322 13.58321 l 9.25,-0.28752 9.25001,-0.28753 -0.011,-8 z m 75.5107,-5 v -13.5 h -37.107 c -34.9504,0 -37.0647,0.10171 -36.3798,1.75 2.3709,5.7055 3.4868,11.43719 3.4868,17.90893 v 7.34107 h 35 35 z m 21,12.69578 c 0,-2.65624 -13.9761,-20.19578 -16.0927,-20.19578 -0.499,0 -0.9073,4.725 -0.9073,10.5 v 10.5 h 8.5 c 4.675,0 8.5,-0.3619 8.5,-0.80422 z m 76,-12.69578 v -13.5 H 964.789 929.4042 l 0.5202,6.48071 c 0.2968,3.69809 0.01,8.32053 -0.6795,10.76565 -0.8573,3.06183 -0.903,5.06545 -0.1601,7.01929 l 1.0396,2.73435 h 35.0247 35.0248 z m 20,12.50301 c 0,-1.25289 -13.9428,-16.00301 -15.1271,-16.00301 -0.4801,0 -0.8729,3.825 -0.8729,8.5 v 8.5 h 8 c 4.6505,0 8,-0.41742 8,-0.99699 z m 35.1089,-9.70211 c 1.4904,-5.60951 3.0114,-11.57201 3.3799,-13.25 l 0.6701,-3.0509 h -17.1864 c -15.9856,0 -17.1344,0.12228 -16.4405,1.75 1.4368,3.37051 1.701,13.34604 0.4699,17.74312 -2.0974,7.49123 -1.8929,7.60429 13.1775,7.28605 l 13.2197,-0.27917 z m 57.8911,-2.8009 v -13.5 h -23.9326 c -21.9337,0 -23.9748,0.14616 -24.4381,1.75 -1.0316,3.57137 -5.6293,23.44281 -5.6293,24.33005 0,0.53722 11.2329,0.91995 27,0.91995 h 27 z m 17,0 v -13.5 h -6 -6 v 13.5 13.5 h 6 6 z m -1010.55107,9.58262 c 0.31183,-0.50456 -0.18928,-5.90456 -1.11359,-12 l -1.68055,-11.08262 h -8.86258 c -8.33522,0 -8.80326,0.11085 -7.86562,1.86286 0.54834,1.02457 2.58917,3.26082 4.53519,4.96944 3.74081,3.28448 4.63193,6.1677 1.90624,6.1677 -3.05888,0 -8.38025,-4.16471 -10.9719,-8.58703 l -2.58617,-4.41297 h -5.90498 c -7.07598,0 -7.38117,0.8935 -2.94629,8.62582 3.56145,6.20946 9.59396,11.17901 16.44487,13.54719 5.38589,1.86175 18.08216,2.46813 19.04538,0.90961 z m 9.22218,-3.02369 c 4.28307,-2.61161 8.38805,-9.8578 8.63255,-15.23836 l 0.19633,-4.32057 -8.37327,-0.29243 c -6.9219,-0.24175 -8.27835,-0.0451 -7.82562,1.13473 0.30121,0.78494 1.12835,5.75404 1.83808,11.04243 0.70974,5.2884 1.53127,9.61359 1.82562,9.61153 0.29436,-0.002 1.96219,-0.87385 3.70631,-1.93733 z m 893.43959,-5.80893 c 0.1885,-4.68414 -0.2545,-7.62358 -1.6578,-11 -1.2757,-3.06928 -1.6364,-3.25 -6.4852,-3.25 -2.8239,0 -4.9844,0.35954 -4.801,0.79898 0.808,1.93672 11.4081,16.1045 12.0833,16.15023 0.4125,0.0279 0.7998,-1.18671 0.8607,-2.69921 z m -97.4426,-9.01737 -1.1681,-4.73263 -4.8439,-0.30862 -4.8438,-0.30863 5.3217,7.62216 c 5.0314,7.20613 5.3595,7.48129 6.0121,5.04125 0.3796,-1.4195 0.1645,-4.71058 -0.478,-7.31353 z m -724.66811,-0.23263 v -5 h -5.30383 c -4.70211,0 -5.644,0.36872 -8.30217,3.25 -6.54611,7.09558 -6.75006,6.75 3.98356,6.75 h 9.62244 z M 72.47724,134.16917 c -0.5101,-6.08457 0.0994,-10.92241 2.30926,-18.32842 0.47523,-1.59271 -0.4726,-1.75 -10.54522,-1.75 H 53.17389 v 13.5 13.5 h 9.94182 9.94182 z m 19.71861,1.67158 c 0.0354,-8.45764 4.17519,-15.18777 12.57371,-20.44119 1.55818,-0.97467 0.21289,-1.20188 -7.40099,-1.25 l -9.30533,-0.0588 -2.39755,5.25 c -2.64082,5.7827 -5.4918,15.88511 -5.4918,19.4601 0,2.1321 0.41347,2.2899 6,2.2899 h 6 l 0.022,-5.25 z m 23.6143,3.5 c -0.27419,-0.9625 -1.02136,-4.38538 -1.66038,-7.6064 -1.1598,-5.84607 -1.16733,-5.85531 -4.26659,-5.23546 -6.03992,1.20799 -10.09983,5.29458 -11.31974,11.39413 l -0.63955,3.19773 h 9.19239 c 8.2779,0 9.14279,-0.1741 8.69387,-1.75 z m 19.17772,-2.40938 c -1.27269,-2.28766 -4.02754,-5.40763 -6.12189,-6.93327 -3.69317,-2.69029 -9.30171,-4.63106 -10.35096,-3.58182 -0.45865,0.45866 1.12596,10.18752 2.18654,13.42447 0.28287,0.86333 2.91373,1.25 8.50493,1.25 h 8.09537 z m 52.06887,2.80053 c 2.03473,-2.4517 5.19993,-13.01742 5.80906,-19.39115 l 0.5973,-6.25 h -33.34039 -33.34038 l 4.46544,2.8319 c 7.50251,4.75795 13.85105,14.00461 13.90416,20.25143 0.0121,1.42084 0.32196,2.88334 0.68863,3.25 0.36666,0.36667 9.53656,0.66667 20.37755,0.66667 15.39083,0 19.95806,-0.29782 20.83863,-1.35885 z m 13.11715,-0.47379 c 0,-1.00794 1.69521,-3.19493 3.76712,-4.85997 2.07192,-1.66504 4.64925,-4.66536 5.72741,-6.66737 1.07815,-2.00201 2.30795,-3.64002 2.73287,-3.64002 0.42493,0 0.7726,3.825 0.7726,8.5 v 8.5 h 13.02903 13.02902 l -0.27902,-13.25 -0.27903,-13.25 -11.83057,-0.28243 -11.83057,-0.28243 -2.16943,2.78067 c -1.82057,2.33353 -11.28741,13.29758 -19.02527,22.03419 l -1.99279,2.25 h 4.17432 c 3.38057,0 4.17431,-0.34847 4.17431,-1.83264 z m 65,-11.66736 v -13.5 h -6 -6 v 13.5 13.5 h 6 6 z m 231,-0.004 v -13.50428 l -113.25,0.25428 -113.25,0.254 -0.27903,13.25 -0.27902,13.25 h 113.52902 113.52903 v -13.50427 z m -213.4433,4.28176 c -3.16757,-4.52261 -0.5635,-9.77776 4.84502,-9.77776 5.68366,0 8.86191,6.59351 5.02685,10.42857 -2.39012,2.39012 -8.00092,2.02007 -9.87187,-0.65108 z m 190,0 c -3.16757,-4.52261 -0.5635,-9.77776 4.84502,-9.77776 5.68366,0 8.86191,6.59351 5.02685,10.42857 -2.39012,2.39012 -8.00092,2.02007 -9.87187,-0.65108 z m 40.22233,-4.02776 -0.27903,-13.25 -5.75,-0.2999 -5.75,-0.29991 v 13.54991 13.5499 h 6.02903 6.02902 z m 86.22097,-0.25 v -13.5 h -36 -36 v 13.5 13.5 h 36 36 z m 113,0 v -13.5 h -54.5 -54.5 v 13.5 13.5 h 54.5 54.5 z m 93,0 v -13.5 h -44.5 -44.5 v 13.5 13.5 h 44.5 44.5 z m 9.91871,7.5 c -2.87026,-3.3 -5.37616,-6 -5.56868,-6 -0.19252,0 -0.35003,2.7 -0.35003,6 v 6 h 5.56867 5.56868 z m 88.0813,-7.5 v -13.5 h -45.5134 -45.51345 l 1.35875,3.25 c 0.74731,1.7875 3.40587,6.44302 5.9079,10.34561 2.50203,3.90258 5.2832,8.51508 6.1803,10.25 l 1.6312,3.15439 h 37.9744 37.9743 z m 16.9865,11.47487 c -0.5961,-1.11382 -3.7948,-4.82632 -7.1084,-8.25 l -6.0246,-6.22487 0.5997,4.34177 c 0.3299,2.38797 1.497,6.10047 2.5936,8.25 1.8737,3.67281 2.2658,3.90823 6.5087,3.90823 4.2236,0 4.4449,-0.13062 3.431,-2.02513 z m 80.0135,-11.47487 v -13.5 h -44.5 c -24.475,0 -44.5,0.29075 -44.5,0.6461 0,0.35536 3.6,6.0241 8,12.59721 4.4,6.5731 8,12.35736 8,12.85389 0,0.52058 15.4533,0.9028 36.5,0.9028 h 36.5 z m 16,12.7187 c 0,-0.42972 -2.7542,-3.46722 -6.1205,-6.75 l -6.1204,-5.9687 0.5192,4 c 0.2856,2.2 1.0037,5.2375 1.5957,6.75 0.9537,2.43622 1.5928,2.75 5.6012,2.75 2.4887,0 4.5248,-0.35159 4.5248,-0.7813 z m 44.3234,0.0313 c 0.2428,-0.4125 0.7473,-2.17686 1.1211,-3.92081 l 0.6796,-3.17081 -4.812,1.4848 c -9.5903,2.95917 -17.3121,-0.44359 -17.3121,-7.62893 0,-6.50691 6.5397,-10.85633 11.468,-7.62716 1.4138,0.92633 2.9054,3.28586 3.5199,5.56801 1.3137,4.8785 2.4394,5.65016 5.4066,3.70598 2.5188,-1.6504 5.0065,-6.31965 6.0795,-11.41108 l 0.6849,-3.25 h -23.0439 -23.0439 l 2.165,4.75 c 1.6744,3.67358 2.1763,6.73288 2.2145,13.5 l 0.049,8.75 h 17.191 c 9.455,0 17.3896,-0.3375 17.6324,-0.75 z m 52.6766,-12.75 v -13.5 h -20.4809 c -20.419,0 -20.4826,0.007 -21.0002,2.25 -0.2856,1.2375 -1.6436,6.975 -3.0178,12.75 -1.3742,5.775 -2.4991,10.8375 -2.4998,11.25 -7e-4,0.4125 10.5737,0.75 23.4987,0.75 h 23.5 z m 17,0 v -13.5 h -6 -6 v 13.5 13.5 h 6 6 z m -112.1851,-6.4024 c -3.1176,-6.20495 -3.5381,-6.61607 -7.0649,-6.90797 -2.5827,-0.21375 -3.7505,0.0975 -3.7518,1 -9e-4,0.72071 3.0366,5.75399 6.75,11.18509 l 6.7518,9.87472 0.3149,-4.27713 c 0.2408,-3.26915 -0.4662,-5.83194 -3,-10.87471 z m -808.81491,-6.7111 c 0,-0.21257 -2.5875,-0.33326 -5.75,-0.26819 -4.39569,0.0905 -5.0434,0.273 -2.75,0.77504 2.8806,0.63057 8.5,0.29549 8.5,-0.50685 z M 79.75281,105.96083 c 2.04805,-3.37146 5.79314,-8.659359 8.32241,-11.750893 2.52927,-3.091534 5.21627,-6.408069 5.97111,-7.370079 1.2975,-1.653589 0.21895,-1.749108 -19.75,-1.749108 H 53.17389 v 13.5 13.5 h 11.4276 11.42759 z m 29.42108,4.94802 c 0,-0.65005 -0.97409,-4.79193 -2.16464,-9.20418 l -2.16465,-8.022277 -4.28289,4.867173 c -2.35559,2.676944 -5.68446,6.818824 -7.39749,9.204174 l -3.1146,4.33701 h 9.56213 c 6.6892,0 9.56214,-0.3551 9.56214,-1.1819 z m 81.76357,0.2549 c 0.95504,-0.50985 2.52135,-1.16974 3.48071,-1.46642 2.04517,-0.63247 5.74659,-6.3317 5.75198,-8.85658 0.003,-1.561134 -1.18681,-1.75 -11.02764,-1.75 -13.27476,0 -13.91709,-0.621907 -8.55412,-8.282094 l 3.65311,-5.217906 -35.70571,-0.262818 c -34.60605,-0.254723 -35.77176,-0.200763 -37.85044,1.752048 l -2.14472,2.014865 3.06663,11.490265 3.06663,11.49025 37.26357,0.008 c 20.98732,0.004 38.02202,-0.39721 39,-0.91931 z m 48.01546,-12.323 -0.27903,-13.25 -12.75,-0.279877 -12.75,-0.279877 v 5.029877 5.029877 h 4.94098 c 5.02298,0 7.43626,1.513571 4.93714,3.096491 -0.75797,0.480086 -3.29919,0.879774 -5.64717,0.888196 -4.14273,0.01486 -4.25017,0.09669 -3.63103,2.765313 0.87526,3.77259 3.17718,7.25347 5.20835,7.8759 0.93045,0.28512 2.36673,0.90947 3.19173,1.38744 0.825,0.47798 5.00056,0.89551 9.27903,0.92785 l 7.77902,0.0588 z m 26.22097,-0.25 v -13.5 h -6 -6 v 13.5 13.5 h 6 6 z m 231,-0.0043 V 85.082178 l -113.25,0.254299 -113.25,0.254273 -0.27903,13.25 -0.27902,13.25 H 382.64486 496.17389 V 98.586477 Z m -212.54545,4.04973 c -2.83781,-2.83781 -3.09165,-5.190859 -0.89785,-8.322951 3.24237,-4.629131 11.46411,-1.854808 11.42799,3.856235 -0.0189,2.981456 -0.84892,4.287206 -3.66895,5.771556 -3.12167,1.64312 -4.09912,1.45723 -6.86119,-1.30484 z m 190,0 c -2.83781,-2.83781 -3.09165,-5.190859 -0.89785,-8.322951 3.24237,-4.629131 11.46411,-1.854808 11.42799,3.856235 -0.0189,2.981456 -0.84892,4.287206 -3.66895,5.771556 -3.12167,1.64312 -4.09912,1.45723 -6.86119,-1.30484 z m 39.54545,-4.04543 v -13.5 h -6 -6 v 13.5 13.5 h 6 6 z m 86.20619,6.2606 c 0.2419,-5.960258 0.60302,-7.298393 2.04381,-7.573319 1.54201,-0.294242 1.75,0.566161 1.75,7.239399 v 7.57332 h 54.5 54.5 v -7.57332 c 0,-6.673238 0.20799,-7.533641 1.75,-7.239399 1.44079,0.274926 1.80191,1.613061 2.04381,7.573319 l 0.29381,7.2394 h 44.41238 44.41238 l 0.29381,-7.2394 c 0.2419,-5.960258 0.60302,-7.298393 2.04381,-7.573319 1.41903,-0.270775 1.75105,0.389158 1.75558,3.489399 0.003,2.10282 0.47422,5.51082 1.047,7.57332 l 1.04143,3.75 h 45.953 45.953 v -7.57332 c 0,-6.674274 0.2077,-7.533364 1.75,-7.236681 1.2853,0.247264 1.9143,1.679496 2.3689,5.394211 0.3405,2.78166 1.1438,6.03817 1.7852,7.23668 l 1.1663,2.17911 h 44.9648 44.9648 v -13.5 -13.5 h -236.50001 -236.5 v 13.5 13.5 h 35.95619 35.95619 z m 411.91502,5.4894 c -0.522,-0.9625 -2.3378,-3.07169 -4.0351,-4.68709 -3.2898,-3.13098 -3.6522,-2.64331 -2.4611,3.31209 0.5534,2.7669 1.0158,3.125 4.0352,3.125 2.9427,0 3.2801,-0.2399 2.461,-1.75 z m 57.8047,-1.94377 c 0.5609,-2.03158 0.919,-3.79468 0.7956,-3.91801 -0.1233,-0.12334 -2.6986,0.42129 -5.7228,1.21027 -6.2205,1.62283 -9.7582,1.16517 -13.4517,-1.74021 -5.5112,-4.335047 -1.7911,-14.85828 5.2526,-14.85828 3.478,0 5.947,2.498211 7.2954,7.381725 0.7011,2.539377 1.5662,3.618275 2.9011,3.618275 2.0645,0 6.397,-5.131448 7.3878,-8.75 0.3389,-1.2375 0.8714,-3.15 1.1835,-4.25 0.5596,-1.972765 0.09,-2 -34.5,-2 -23.6073,0 -35.0674,0.339822 -35.0674,1.039838 0,1.636382 3.7371,8.729256 9.3311,17.710162 l 5.1388,8.25 h 24.2181 24.218 z m 44.0741,-9.80623 v -13.5 h -16.9615 -16.9614 l -0.9995,3.75 c -1.6293,6.113634 -5.0776,21.25004 -5.0776,22.28873 0,0.58299 7.8705,0.96127 20,0.96127 h 20 z m 17,0 v -13.5 h -6 -6 v 13.5 13.5 h 6 6 z m -930.00001,-8.5 v -5 h -5.30383 c -4.70211,0 -5.644,0.368719 -8.30217,3.25 -6.54611,7.095578 -6.75006,6.75 3.98356,6.75 h 9.62244 z M 99.12531,81.649284 c 0.9426,-1.135762 0.60283,-3.998822 -1.60211,-13.5 L 94.72477,56.09075 H 73.94933 53.17389 v 13.5 13.5 h 22.37755 c 18.26735,0 22.59729,-0.264762 23.57387,-1.441466 z m 88.91652,-2.808534 c 2.54497,-5.285569 5.13206,-15.095484 5.13206,-19.460099 V 56.09075 h -32.37004 -32.37004 l -1.29462,4.623926 c -0.71204,2.543159 -3.58302,8.055659 -6.37996,12.25 -2.79694,4.194341 -5.4452,8.188574 -5.88503,8.876074 -0.63441,0.991652 6.63257,1.25 35.16079,1.25 h 35.96049 z m 12.13206,1.917365 c 0,-1.494961 1.35282,-3.419788 3.76712,-5.359978 2.07192,-1.665038 4.64925,-4.665352 5.72741,-6.667365 1.07815,-2.002012 2.29043,-3.640022 2.69394,-3.640022 0.40352,0 0.86368,3.9375 1.0226,8.75 l 0.28893,8.75 h 12.5 12.5 l 0.27903,-13.25 0.27902,-13.25 h -12.36758 -12.36758 l -8.91144,10.232264 c -4.9013,5.627745 -10.19557,11.702745 -11.76504,13.5 l -2.85359,3.267736 h 4.60359 c 4.15575,0 4.60359,-0.226921 4.60359,-2.332635 z m 65,-11.167365 v -13.5 h -6 -6 v 13.5 13.5 h 6 6 z m 231,0 v -13.5 h -113.5 -113.5 v 12.833333 c 0,7.058334 0.3,13.133334 0.66667,13.5 0.36666,0.366667 51.44166,0.666667 113.5,0.666667 h 112.83333 z m 16.77903,-0.25 0.27902,-13.25 h -6.02902 -6.02903 v 13.549904 13.549904 l 5.75,-0.299904 5.75,-0.299904 z m 487.41058,10.008317 c 0.2169,-2.614951 0.8374,-3.841551 2.0604,-4.073325 1.4345,-0.271856 1.75,0.402655 1.75,3.741684 v 4.073324 h 35.8784 35.8783 l 1.0395,-4.095141 c 1.0008,-3.943 0.9589,-4.069628 -1.1284,-3.408444 -4.4565,1.411699 -13.4003,1.717124 -15.6125,0.533163 -2.6738,-1.430977 -5.2862,-7.209038 -4.3964,-9.723681 1.2669,-3.579847 4.6324,-6.306182 7.7654,-6.290584 4.2851,0.02133 5.6915,1.16923 7.5297,6.145375 2.1165,5.729448 4.2607,5.983135 7.6233,0.901924 2.7256,-4.118715 6.025,-5.633611 5.0367,-2.312612 -1.0719,3.602152 -3.614,15.427763 -3.614,16.812053 0,1.192497 2.8165,1.437947 16.5,1.437947 h 16.5 v -13.5 -13.5 h -293.00001 -293 v 13.5 13.5 h 236.43963 236.43968 z m 129.8104,-9.758317 v -13.5 h -6 -6 v 13.5 13.5 h 6 6 z m -1017.06644,-6.5 4.19652,-6.5 -8.18926,-0.292449 c -4.5041,-0.160848 -8.43471,-0.047 -8.73471,0.252992 -0.52978,0.529783 2.52863,16.281756 3.45474,17.793255 0.60943,0.994625 4.09981,-3.24147 9.27271,-11.253798 z m 5.02518,-10.450299 c 2.31002,-2.783405 3.54055,-14.006321 2.31817,-21.142564 -0.62112,-3.626075 -1.34571,-6.809256 -1.61019,-7.073737 -1.03144,-1.031444 -6.63413,2.822663 -10.51888,7.235975 -4.49859,5.110663 -8.14785,13.606124 -8.14785,18.968138 v 3.462487 h 8.37756 c 6.09916,0 8.7049,-0.394428 9.58119,-1.450299 z M 30.51369,473.26277 C 21.51045,466.14175 12.34694,455.25013 8.15826,446.6914 2.78815,435.71866 1.07947,428.51511 1.01836,416.59075 0.93716,400.75245 2.8876,392.61945 14.26768,361.34219 22.76336,337.99247 25.2573,327.7117 25.36741,315.58577 25.5255,298.17685 21.06877,287.78727 7.88939,274.84075 L 0,267.09075 l 7.88939,-7.75 C 20.96365,246.49749 25.49051,236.04274 25.38979,218.92365 25.31739,206.61756 23.15947,197.85519 13.53422,170.78332 4.42322,145.15782 2.43879,138.01893 1.30117,126.77545 -0.2606,111.33998 2.00027,99.260337 9.00945,85.59075 14.9081,74.086986 35.74457,54.328097 38.7781,57.361626 c 0.28109,0.281089 -3.46842,4.497632 -8.33225,9.370097 -13.01523,13.038363 -17.27196,22.639841 -17.27196,38.958657 0,12.21241 2.20661,21.76629 11.46382,49.63445 4.61604,13.89626 9.10006,29.02813 9.96449,33.62639 3.17782,16.90413 1.48226,33.49502 -4.76355,46.61084 -4.1757,8.76871 -13.56181,20.62021 -21.00166,26.51802 -3.1147,2.46913 -5.6631,4.72801 -5.6631,5.01972 0,0.29172 2.2984,2.32152 5.10755,4.51067 12.33835,9.61519 23.43576,26.84602 26.3931,40.98028 1.91539,9.15438 1.88643,22.22002 -0.0723,32.63953 -0.86443,4.59826 -5.34845,19.73013 -9.96449,33.62639 -9.25721,27.86816 -11.46382,37.42204 -11.46382,49.63445 0,16.29735 4.25912,25.92231 17.21432,38.90173 4.83213,4.84115 8.78568,9.00365 8.78568,9.25 0,1.63443 -4.58063,-0.15339 -8.6602,-3.38008 z"
     id="path710"
     inkscape:connector-curvature="0" />
</svg>
