<?xml version="1.0" encoding="UTF-8" standalone="no"?>
<!-- Created with Inkscape (http://www.inkscape.org/) -->

<svg
   xmlns:dc="http://purl.org/dc/elements/1.1/"
   xmlns:cc="http://creativecommons.org/ns#"
   xmlns:rdf="http://www.w3.org/1999/02/22-rdf-syntax-ns#"
   xmlns:svg="http://www.w3.org/2000/svg"
   xmlns="http://www.w3.org/2000/svg"
   xmlns:sodipodi="http://sodipodi.sourceforge.net/DTD/sodipodi-0.dtd"
   xmlns:inkscape="http://www.inkscape.org/namespaces/inkscape"
   version="1.1"
   id="svg298"
   width="647"
   height="661"
   viewBox="0 0 647 661"
   sodipodi:docname="Score_1_4.svg"
   inkscape:version="0.92.1 r15371">
  <metadata
     id="metadata304">
    <rdf:RDF>
      <cc:Work
         rdf:about="">
        <dc:format>image/svg+xml</dc:format>
        <dc:type
           rdf:resource="http://purl.org/dc/dcmitype/StillImage" />
        <dc:title></dc:title>
      </cc:Work>
    </rdf:RDF>
  </metadata>
  <defs
     id="defs302" />
  <sodipodi:namedview
     pagecolor="#ffffff"
     bordercolor="#666666"
     borderopacity="1"
     objecttolerance="10"
     gridtolerance="10"
     guidetolerance="10"
     inkscape:pageopacity="0"
     inkscape:pageshadow="2"
     inkscape:window-width="731"
     inkscape:window-height="480"
     id="namedview300"
     showgrid="false"
     inkscape:zoom="0.3570348"
     inkscape:cx="323.5"
     inkscape:cy="330.5"
     inkscape:window-x="0"
     inkscape:window-y="27"
     inkscape:window-maximized="0"
     inkscape:current-layer="svg298" />
  <path
     style="fill:#000000"
     d="m 238.27426,657.00758 c -7.47656,-8.73469 -7.49854,-19.83988 -0.0556,-28.07836 1.9524,-2.16107 3.94745,-3.92922 4.43345,-3.92922 0.486,0 -0.0558,0.93944 -1.20401,2.08765 -3.36956,3.36959 -4.91232,8.36697 -4.91232,15.91235 0,7.54538 1.54276,12.54276 4.91235,15.91235 1.14821,1.14821 1.67272,2.08765 1.16557,2.08765 -0.50714,0 -2.45989,-1.79659 -4.33944,-3.99242 z m 54.6342,0.96137 c 6.21312,-7.38388 6.21312,-22.55402 0,-29.9379 C 291.5057,626.36397 290.80799,625 291.35799,625 c 1.45014,0 6.25749,5.96696 7.82933,9.71788 1.84532,4.40355 1.70522,13.67411 -0.2657,17.58178 -1.82456,3.61748 -6.3007,8.70034 -7.66182,8.70034 -0.496,0 0.2459,-1.36397 1.64866,-3.03105 z m 180.3658,-0.96137 c -7.47656,-8.73469 -7.49854,-19.83988 -0.0556,-28.07836 1.9524,-2.16107 3.94745,-3.92922 4.43345,-3.92922 0.486,0 -0.0558,0.93944 -1.20401,2.08765 -3.36956,3.36959 -4.91232,8.36697 -4.91232,15.91235 0,7.54538 1.54276,12.54276 4.91235,15.91235 1.14821,1.14821 1.67272,2.08765 1.16557,2.08765 -0.50714,0 -2.45989,-1.79659 -4.33944,-3.99242 z m 55.6342,0.96137 c 3.0196,-3.5886 4.61617,-8.76582 4.61617,-14.96895 0,-6.20313 -1.59657,-11.38035 -4.61617,-14.96895 C 527.5057,626.36397 526.80799,625 527.35799,625 c 1.45014,0 6.25749,5.96696 7.82933,9.71788 1.84532,4.40355 1.70522,13.67411 -0.2657,17.58178 -1.82456,3.61748 -6.3007,8.70034 -7.66182,8.70034 -0.496,0 0.2459,-1.36397 1.64866,-3.03105 z m -18.27628,-4.24084 c -1.32198,-0.67546 -3.34698,-2.49861 -4.5,-4.05144 -2.8965,-3.90087 -2.98461,-15.69412 -0.15229,-20.38429 6.17881,-10.23177 16.94933,-3.78784 16.91654,10.12105 -0.0254,10.78999 -5.8522,17.5909 -12.26425,14.31468 z m 6.55823,-3.32376 c 2.12337,-3.24067 2.42847,-16.4291 0.48773,-21.08249 -2.51673,-6.03447 -7.33581,-5.01776 -9.21974,1.94515 -1.32609,4.90116 -0.7636,16.29308 0.96387,19.52089 1.65358,3.08974 5.62069,2.89386 7.76814,-0.38355 z m -265.90463,2.88992 c 2.19076,-0.42196 2.25,-0.76374 2.25,-12.98045 0,-12.05475 -0.0785,-12.52656 -2,-12.02407 -3.13369,0.81948 -2.36135,-0.0648 2,-2.28975 l 4,-2.04065 v 14.05255 c 0,13.63838 0.0663,14.0792 2.25,14.95694 1.66619,0.66972 0.56343,0.8855 -4.25,0.83159 -3.575,-0.04 -5.4875,-0.26781 -4.25,-0.50616 z m 22,0 c 2.19076,-0.42196 2.25,-0.76374 2.25,-12.98045 0,-12.05475 -0.0785,-12.52656 -2,-12.02407 -3.13369,0.81948 -2.36135,-0.0648 2,-2.28975 l 4,-2.04065 v 14.05255 c 0,13.63838 0.0663,14.0792 2.25,14.95694 1.66619,0.66972 0.56343,0.8855 -4.25,0.83159 -3.575,-0.04 -5.4875,-0.26781 -4.25,-0.50616 z m 214,0 c 2.19076,-0.42196 2.25,-0.76374 2.25,-12.98045 0,-12.05475 -0.0785,-12.52656 -2,-12.02407 -3.13369,0.81948 -2.36135,-0.0648 2,-2.28975 l 4,-2.04065 v 14.05255 c 0,13.63838 0.0663,14.0792 2.25,14.95694 1.66619,0.66972 0.56343,0.8855 -4.25,0.83159 -3.575,-0.04 -5.4875,-0.26781 -4.25,-0.50616 z m -132.75,-45.72147 c 0,-1.65566 6.8364,-7.5728 8.74928,-7.5728 0.71148,0 1.8072,-1.12724 2.43494,-2.50498 1.00716,-2.21046 0.69989,-3.14596 -2.61331,-7.95659 -3.59773,-5.22375 -3.70344,-5.61016 -2.52908,-9.24502 0.67408,-2.08637 1.85198,-5.03091 2.61756,-6.54341 1.22434,-2.41882 1.20437,-2.75 -0.16583,-2.75 -5.95791,0 -12.78967,6.36186 -12.29224,11.44675 0.3786,3.87019 3.65948,4.19995 5.50441,0.55325 l 1.26479,-2.5 0.0147,2.61514 c 0.0181,3.2017 -3.48792,7.88486 -5.90285,7.88486 -0.97484,0 -2.51718,-0.82293 -3.42742,-1.82874 -5.13974,-5.67934 3.086,-17.26016 13.66328,-19.23621 10.86236,-2.02931 20.43455,5.72776 16.83008,13.63869 -1.50605,3.30544 -4.44346,3.05268 -7.55946,-0.65047 -3.08428,-3.66546 -3.45422,-6.01636 -0.53035,-3.3703 1.54133,1.3949 2.46855,1.60432 3.69048,0.83355 2.70523,-1.70642 2.56459,-3.22676 -0.59037,-6.38171 -4.38078,-4.38078 -7.52812,-4.03793 -9.56049,1.04146 -1.8138,4.53315 -1.42093,5.85161 3.55533,11.93157 3.40123,4.1556 3.53483,5.87738 0.73251,9.43996 -1.16271,1.47814 -1.95021,2.8004 -1.75,2.93835 0.2002,0.13795 2.26616,1.07794 4.59102,2.08885 5.42621,2.35946 7.27298,1.10697 7.27298,-4.93259 0,-6.67107 5.88664,-12.51123 9.54799,-9.47258 2.33916,1.94133 1.69526,4.68517 -2.08017,8.86411 l -3.53218,3.9097 2.35196,2.73432 c 2.31352,2.68964 2.39575,2.70562 5.03218,0.97817 2.14511,-1.40553 2.68022,-2.53122 2.68022,-5.63826 0,-3.01363 0.76391,-4.72766 3.41468,-7.66175 2.63021,-2.91132 3.19603,-4.17036 2.46292,-5.48036 -1.27564,-2.27944 -8.91902,-7.46707 -12.22408,-8.29659 -1.4594,-0.36629 -2.65348,-1.03093 -2.65348,-1.47697 0,-1.05745 6.5381,0.75685 11,3.05247 5.2912,2.72229 11.54419,8.495 13.37039,12.34344 0.89629,1.88878 1.62961,5.53826 1.62961,8.10994 0,3.83465 -0.52584,5.20164 -2.92308,7.59887 -3.83648,3.83649 -7.43928,3.81718 -11.06043,-0.0593 l -2.78592,-2.98234 -3.80024,3.02004 c -4.58058,3.6402 -6.4141,3.47111 -8.54382,-0.78788 -1.51041,-3.02052 -1.71375,-3.11616 -3.18291,-1.49706 -0.86318,0.95127 -2.9595,2.54836 -4.65849,3.5491 l -3.08907,1.81952 -1.46287,-3.50114 c -0.80458,-1.92563 -1.84656,-3.73827 -2.31551,-4.0281 -0.46896,-0.28983 -2.5921,1.2544 -4.7181,3.43162 -3.97384,4.06961 -6.45956,5.04372 -6.45956,2.53142 z m 49.39301,-3.15459 C 405.54323,600.21106 402.90097,588 400.37617,588 c -1.41291,0 -3.84039,6.476 -3.84039,10.24538 0,5.86035 5.68987,10.61114 7.39301,6.17283 z M 386.53578,591.7943 c 0,-2.50584 -2.79621,-3.42666 -4.68128,-1.54159 -1.08586,1.08586 -1.32384,2.44748 -0.82485,4.71936 l 0.70133,3.19317 2.4024,-2.25693 c 1.32132,-1.24132 2.4024,-3.09262 2.4024,-4.11401 z m 24.70124,16.5736 c -0.38568,-0.38568 -0.70124,-1.55753 -0.70124,-2.60412 0,-1.40137 0.59299,-1.81866 2.25,-1.58333 1.47091,0.2089 2.25,1.00733 2.25,2.30585 0,1.98361 -2.47222,3.20814 -3.79876,1.8816 z M 425.53578,606 c 0,-1.98519 0.66667,-2 90,-2 h 90 v -13 c 0,-12.33333 0.10256,-13 2,-13 1.91111,0 2,0.66667 2,15 v 15 h -92 c -91.33333,0 -92,-0.0145 -92,-2 z m -178,-6.35342 c 0,-1.33895 18.3819,-6.63383 29.5,-8.49744 4.69472,-0.78692 4.81683,-0.88021 2,-1.52795 -6.68294,-1.53676 -24.23804,-5.78023 -27.75,-6.70782 -2.1709,-0.57338 -3.75,-1.60587 -3.75,-2.45191 0,-0.8038 0.29292,-1.46146 0.65094,-1.46146 2.60939,0 37.14806,9.57859 38.2766,10.61522 1.75914,1.61589 3.36325,1.04358 -19.14358,6.83003 -19.78277,5.0861 -19.78396,5.08629 -19.78396,3.20133 z m 52.12923,-39.52586 c -9.02325,-8.42898 -9.47336,-22.77659 -0.98096,-31.26899 4.58733,-4.58733 6.40648,-4.48816 2.51459,0.13709 -6.26564,7.44629 -6.26564,22.57607 0,30.02236 3.43419,4.0813 2.4274,4.80969 -1.53363,1.10954 z m 30.84688,-0.94137 c 2.10746,-2.62245 3.36025,-5.60176 3.9947,-9.5 1.33363,-8.19412 -0.18356,-16.11624 -3.9947,-20.8587 -4.29846,-5.34885 -1.99786,-4.78832 2.82228,0.68765 3.66362,4.16209 6.21078,10.40438 6.19603,15.18452 -0.0135,4.37718 -2.4498,9.84589 -6.19769,13.91188 -4.97795,5.40044 -7.03561,5.81965 -2.82062,0.57465 z m -167.84688,-0.0586 c -9.02325,-8.42898 -9.47336,-22.77659 -0.98096,-31.26899 4.58733,-4.58733 6.40648,-4.48816 2.51459,0.13709 -6.26564,7.44629 -6.26564,22.57607 0,30.02236 3.43419,4.0813 2.4274,4.80969 -1.53363,1.10954 z m 30.84688,-0.94137 c 3.81114,-4.74246 5.32833,-12.66458 3.9947,-20.8587 -0.63445,-3.89824 -1.88724,-6.87755 -3.9947,-9.5 -4.29846,-5.34885 -1.99786,-4.78832 2.82228,0.68765 3.66362,4.16209 6.21078,10.40438 6.19603,15.18452 -0.0135,4.37718 -2.4498,9.84589 -6.19769,13.91188 -4.97795,5.40044 -7.03561,5.81965 -2.82062,0.57465 z m -19.97611,-5.53105 c 2.475,-1.26243 5.5125,-3.7913 6.75,-5.61971 2.76067,-4.07891 2.86552,-5.4284 0.31574,-4.0638 -3.26696,1.74842 -6.0891,1.16567 -9.14266,-1.8879 -3.33244,-3.33243 -3.81375,-7.45387 -1.41273,-12.09694 3.03617,-5.87131 9.96208,-6.82676 14.47401,-1.99672 4.77183,5.10826 4.81986,12.99625 0.1256,20.63023 -2.08006,3.38268 -9.27952,7.40343 -13.17568,7.35834 -1.99916,-0.0231 -1.62991,-0.43845 2.06572,-2.3235 z m 9.0045,-13.15375 c 1.3444,-1.6199 0.73322,-8.24762 -1.07153,-11.61982 -1.13029,-2.11197 -4.91633,-2.4914 -6.73297,-0.67476 -1.47201,1.47201 -1.57966,9.22208 -0.16482,11.86574 1.25479,2.3446 6.1603,2.60857 7.96932,0.42884 z M 317.53578,551.5 V 548 h -6.5 c -4.67892,0 -6.5,-0.36556 -6.5,-1.3048 0,-1.99624 13.80321,-21.1952 15.23843,-21.1952 0.9096,0 1.34142,2.72021 1.54778,9.75 0.26203,8.92624 0.45213,9.75 2.25,9.75 1.08009,0 1.96379,0.675 1.96379,1.5 0,0.83333 -0.88889,1.5 -2,1.5 -1.61905,0 -2,0.66667 -2,3.5 0,2.83333 -0.38095,3.5 -2,3.5 -1.61905,0 -2,-0.66667 -2,-3.5 z m 0,-13.7 c 0,-3.96 -0.37188,-6.7725 -0.82641,-6.25 -1.0782,1.23945 -7.64609,10.58541 -8.57358,12.2 -0.53417,0.9299 0.57747,1.25 4.34097,1.25 h 5.05902 z M 36.53577,358.5 V 198 h 17.37768 17.37768 l 0.4257,-8.75 c 0.50814,-10.44475 3.46564,-17.86822 9.42412,-23.65503 l 3.88377,-3.77187 2.77255,3.32106 c 4.00175,4.79345 8.777244,17.92997 9.454434,26.0074 L 97.825844,198 h 14.354976 c 12.0933,0 14.35496,-0.23633 14.35496,-1.5 0,-0.93333 -0.94444,-1.5 -2.5,-1.5 -2.24801,0 -2.5,-0.40127 -2.5,-3.98095 0,-3.39496 0.36206,-4.07182 2.45971,-4.59829 2.30708,-0.57904 2.47771,-1.08714 2.75,-8.1888 0.18977,-4.94982 0.72311,-7.71466 1.54029,-7.98504 0.92128,-0.30482 1.25,1.44917 1.25,6.66975 0,3.89583 0.30555,7.08333 0.679,7.08333 0.37345,0 2.17345,-0.5404 4,-1.20089 l 3.321,-1.20089 v -7.79911 c 0,-6.26588 0.29489,-7.79911 1.5,-7.79911 1.19175,0 1.5,1.45143 1.5,7.06286 0,6.75048 0.0995,7.04902 2.25,6.75 1.98218,-0.27562 2.2859,0.17858 2.55157,3.81579 0.27055,3.70396 0.0391,4.19452 -2.25,4.76905 -2.26053,0.56736 -2.55157,1.15151 -2.55157,5.12135 V 198 h 181.1135 181.1135 l -0.65019,-3.25 c -0.35761,-1.7875 -0.90035,-4.42337 -1.20608,-5.85748 -0.59253,-2.77933 1.32592,-4.32989 4.05939,-3.28096 1.72024,0.66012 3.56988,5.60182 3.56988,9.53766 V 198 h 65.5 65.5 V 358.5 519 h -301.5 H 36.53577 Z M 636.53578,507 v -10 h -298 -298.00001 v 10 10 h 298.00001 298 z m -341.5,4.51973 c -7.80785,-1.44977 -16.2826,-4.45117 -21.36278,-7.5658 -4.58603,-2.81167 -3.41043,-3.42862 2.06277,-1.08253 9.80223,4.20173 19.35969,5.60187 38.30001,5.61087 19.11221,0.009 29.03527,-1.41372 38.23187,-5.48181 5.60615,-2.47987 6.01878,-2.4874 3.83099,-0.0699 -2.59411,2.86646 -13.3976,6.85602 -23.18984,8.56364 -10.35425,1.80563 -28.22135,1.81769 -37.87302,0.0256 z M 62.92436,489.56753 c 4.46128,-2.98786 10.36141,-7.46769 13.11141,-9.95519 l 5,-4.52272 -20.25,-0.0448 -20.25,-0.0448 v 10 10 h 7.13859 c 6.97997,0 7.31879,-0.1207 15.25,-5.43247 z m 102.81744,3.28957 c -3.79478,-2.42987 -6.6583,-7.50724 -7.67408,-13.6071 L 157.35998,475 h -8.4121 -8.4121 v 3 c 0,2 -0.5,3 -1.5,3 -1,0 -1.5,-1 -1.5,-3 0,-2.83333 -0.22222,-3 -4,-3 h -4 v 5.08333 c 0,6.6079 -2.36952,6.26025 -2.80479,-0.4115 L 126.4262,475 H 108.95706 91.48791 l -7.22607,5.51604 c -3.97434,3.03383 -11.05107,7.51897 -15.72607,9.96699 l -8.5,4.45094 54.50001,0.0162 54.5,0.0162 -3.29398,-2.10921 z m 19.82147,0.42366 c 3.53586,-2.45864 5.74301,-5.29897 7.01759,-9.03076 1.35012,-3.95298 3.46758,-4.42873 2.49684,-0.56099 -0.74865,2.98286 -4.01844,8.13263 -6.38811,10.06099 -1.23583,1.00568 5.03221,1.25 32.0682,1.25 h 33.60426 l -1.0658,-2.82364 c -1.56903,-4.15682 -0.15771,-8.04227 4.67748,-12.87747 L 262.27262,475 h -46.49993 -46.49992 l 0.49303,7.68251 c 0.43573,6.78962 0.80617,7.95187 3.18727,10 3.26601,2.80931 9.03668,3.08308 12.6102,0.59825 z m 161.73298,-1.1044 c -1.56903,-4.15682 -0.15771,-8.04227 4.67748,-12.87747 L 356.27262,475 h -14.39897 -14.39897 l -3.21087,3.65698 c -5.71327,6.50705 -14.56911,9.02792 -20.65651,5.88001 -3.0625,-1.58369 -4.07152,-3.34788 -4.07152,-7.11878 0,-2.37849 -0.14784,-2.41821 -9,-2.41821 h -9 v 4.04966 c 0,5.05474 -1.87365,8.75421 -6.48371,12.8019 L 271.46619,495 h 38.44793 38.44793 z M 636.53578,485 v -10 h -130.5 -130.5 v 4.04966 c 0,5.05474 -1.87365,8.75421 -6.48371,12.8019 L 365.46619,495 h 135.53479 135.5348 z M 86.28577,466.09484 c 1.7875,-3.52284 3.25,-7.91034 3.25,-9.75 V 453 h -8.33102 c -7.81962,0 -8.41158,0.15053 -9.64337,2.45216 -2.72391,5.08967 -10.35991,5.31612 -14.47201,0.42917 C 54.83901,453.20692 54.15756,453 47.60033,453 h -7.06456 v 10.01989 10.01989 l 21.25,-0.26989 21.25,-0.26989 z m 40.25001,5.91695 c 0,-0.54352 -1.0125,-0.88102 -2.25,-0.75 -1.96777,0.20833 -2.28783,-0.27967 -2.55157,-3.89044 -0.27055,-3.70396 -0.0391,-4.19452 2.25,-4.76905 2.26053,-0.56736 2.55157,-1.15151 2.55157,-5.12135 V 453 h -12.76335 -12.76335 l -1.245156,5.25 c -0.68483,2.8875 -2.57273,7.3875 -4.19534,10 l -2.9502,4.75 h 16.958696 c 10.50425,0 16.9587,-0.37611 16.9587,-0.98821 z m -21.75702,-6.16881 c -2.86379,-2.86379 -0.31073,-7.28689 3.84985,-6.66974 3.0362,0.45036 4.72486,3.30305 3.30119,5.57676 -1.34526,2.1485 -5.46574,2.77828 -7.15104,1.09298 z M 137.53578,470 c 0,-3.46983 0.0331,-3.4585 -4.53212,-1.55103 -4.90116,2.04784 -4.60848,4.55103 0.53212,4.55103 3.77778,0 4,-0.16667 4,-3 z m 20.02196,0.25 c 0.0339,-4.24681 3.28121,-10.43099 7.35586,-14.00858 L 168.60537,453 h -14.03479 c -11.80871,0 -14.0348,0.23792 -14.0348,1.5 0,0.93333 0.94444,1.5 2.5,1.5 2.24801,0 2.5,0.40127 2.5,3.98095 0,3.41235 -0.35707,4.07057 -2.5,4.60841 -2.1309,0.53482 -2.5,1.20201 -2.5,4.51905 V 473 h 8.5 8.5 l 0.022,-2.75 z M 278.53578,463 v -10 h -45.08889 -45.0889 l 2.58919,3.07707 c 4.50895,5.35858 4.87894,12.48888 0.75418,14.53406 -3.05008,1.51232 -5.91997,0.69335 -7.84022,-2.23732 -2.11674,-3.23055 -0.97667,-7.00712 2.81058,-9.31029 l 3.08227,-1.87444 -2.50333,-1.64024 c -3.39615,-2.22525 -8.62433,-2.93725 -12.01325,-1.63603 -3.59905,1.3819 -5.70163,6.38059 -5.70163,13.55507 V 473 h 54.5 54.5 z m 25.27197,6.34302 c 5.34614,-6.08892 14.65802,-9.05641 19.79377,-6.30784 1.80406,0.96551 1.93426,0.6626 1.93426,-4.5 V 453 h -22 -22 v 10 10 h 9.53055 9.53055 z M 373.53578,463 v -10 h -22.5 -22.5 v 10 10 h 22.5 22.5 z m 49,3.5 V 460 h 16.5 16.5 v 6.5 6.5 h 90.5 90.5 v -10 -10 h -130.5 -130.5 v 10 10 h 23.5 23.5 z m -288.14922,-7.59783 c 2.35363,-0.82048 3.14922,-1.70469 3.14922,-3.5 0,-2.13587 -0.44344,-2.40217 -4,-2.40217 -3.90476,0 -4,0.0833 -4,3.5 0,3.85648 0.28049,3.99539 4.85078,2.40217 z M 54.93657,446.89503 c 0.88551,-5.5377 2.80334,-8.98907 7.08292,-12.74659 L 65.60537,431 h -12.5348 -12.5348 v 10 10 h 6.8722 6.87219 z m 34.47121,-0.55074 C 87.75359,437.48984 81.67498,431 75.03577,431 c -3.99621,0 -9.29537,3.48545 -11.78798,7.7534 L 61.35167,442 h 3.41774 c 3.67718,0 6.99923,2.72836 8.21882,6.75 0.6362,2.0979 1.24362,2.25 8.98583,2.25 h 8.3035 z m 37.128,3.15571 c 0,-0.93333 -0.94444,-1.5 -2.5,-1.5 -2.24801,0 -2.5,-0.40127 -2.5,-3.98095 0,-3.41235 0.35707,-4.07057 2.5,-4.60841 2.1309,-0.53482 2.5,-1.20201 2.5,-4.51905 V 431 l -19.25,0.004 c -19.1546,0.004 -19.23514,0.0129 -16.25001,1.85682 5.475284,3.38205 9.50001,9.99417 9.50001,15.60732 v 2.53212 h 13 c 10.88889,0 13,-0.24359 13,-1.5 z m -21.75702,-5.65702 c -2.86379,-2.86379 -0.31073,-7.28689 3.84985,-6.66974 3.0362,0.45036 4.72486,3.30305 3.30119,5.57676 -1.34526,2.1485 -5.46574,2.77828 -7.15104,1.09298 z M 137.53578,447.5 c 0,-3.85648 -0.28049,-3.99539 -4.85078,-2.40217 -2.35363,0.82048 -3.14922,1.70469 -3.14922,3.5 0,2.13587 0.44344,2.40217 4,2.40217 3.90476,0 4,-0.0833 4,-3.5 z m 141,-6.5 v -10 h -69 c -48.05381,0 -69,0.32265 -69,1.06286 0,0.58457 1.0125,0.92207 2.25,0.75 1.98218,-0.27562 2.2859,0.17858 2.55157,3.81579 0.27055,3.70396 0.0391,4.19452 -2.25,4.76905 -2.26053,0.56736 -2.55157,1.15151 -2.55157,5.12135 V 451 h 69 69 z m 47,0 v -10 h -22 -22 v 10 10 h 22 22 z m 48,0 v -10 h -22.5 -22.5 v 10 10 h 22.5 22.5 z m 263,0 v -10 h -130.5 -130.5 v 10 10 h 130.5 130.5 z m -502.321,-5.20089 c 4.97161,-1.79776 4.54697,-4.79911 -0.679,-4.79911 -3.77778,0 -4,0.16667 -4,3 0,3.39893 0.12349,3.44641 4.679,1.79911 z m -7.49542,-9.47199 c 0.46088,-3.89313 2.81642,-4.23642 2.81642,-0.41045 0,2.93055 0.1982,3.08333 4,3.08333 h 4 v -5 c 0,-3.77778 0.36667,-5 1.5,-5 1.13333,0 1.5,1.22222 1.5,5 v 5 h 69 69 v -10.5 c 0,-5.775 0.41595,-10.5 0.92434,-10.5 1.90884,0 44.67006,-5.05593 46.82566,-5.53649 2.24711,-0.50097 2.25,-0.48428 2.25,13.01744 V 429 h 22.5 22.5 v -8.5 c 0,-10.94591 1.82573,-11.15248 2.20956,-0.25 l 0.29044,8.25 130.25,0.25373 130.25,0.25373 V 357.9853 286.96314 l -23.25,0.26843 -23.25,0.26843 -0.28621,9.75 -0.28621,9.75 h 4.53621 c 3.28516,0 4.53621,0.39783 4.53621,1.4425 0,0.98216 -1.35629,1.54064 -4.25,1.75 l -4.25,0.3075 -0.28753,9.25 -0.28752,9.25 h 4.53752 c 3.28631,0 4.53753,0.39777 4.53753,1.4425 0,0.98216 -1.35629,1.54064 -4.25,1.75 l -4.25,0.3075 -0.28753,9.25 -0.28752,9.25 h 4.53752 c 3.28631,0 4.53753,0.39777 4.53753,1.4425 0,0.98216 -1.35629,1.54064 -4.25,1.75 l -4.25,0.3075 -0.28753,9.25 -0.28752,9.25 h 4.53752 c 3.28631,0 4.53753,0.39777 4.53753,1.4425 0,0.98216 -1.35629,1.54064 -4.25,1.75 -3.9147,0.28324 -4.27163,0.54418 -4.52421,3.3075 -0.51399,5.62348 -1.2539,7.46242 -4.48166,11.13864 -9.78821,11.14816 -27.33999,8.84021 -24.31865,-3.19775 0.35326,-1.4075 2.48436,-4.5575 4.73577,-7 L 569.7905,376 h -8.62736 c -7.0021,0 -8.62736,-0.28258 -8.62736,-1.5 0,-1.27631 2.61528,-1.5 17.53753,-1.5 h 17.53752 l -0.28752,-9.25 -0.28753,-9.25 -17.25,-0.27361 c -14.42049,-0.22874 -17.25,-0.51579 -17.25,-1.75 0,-1.24573 2.73995,-1.47639 17.53753,-1.47639 h 17.53752 l -0.28752,-9.25 -0.28753,-9.25 -17.25,-0.27361 c -14.42049,-0.22874 -17.25,-0.51579 -17.25,-1.75 0,-1.24573 2.73995,-1.47639 17.53753,-1.47639 h 17.53752 l -0.28752,-9.25 -0.28753,-9.25 -17.25,-0.27361 c -14.42049,-0.22874 -17.25,-0.51579 -17.25,-1.75 0,-1.24572 2.73979,-1.47639 17.53621,-1.47639 h 17.53621 l -0.28621,-9.75 -0.28621,-9.75 -15.35927,-0.27663 -15.35928,-0.27664 -4.36838,4.02664 c -3.73712,3.44475 -5.01157,4.02663 -8.8193,4.02663 -5.04531,0 -7.59377,-1.86976 -7.59377,-5.57143 V 287 h -42 -42 v 10 10 h 4 c 2.88889,0 4,0.41667 4,1.5 0,1.10098 -1.14487,1.5 -4.30383,1.5 -3.64536,0 -4.83109,0.55418 -7.75,3.62211 -6.29398,6.61532 -14.83833,9.03638 -20.87465,5.91488 -3.0625,-1.58369 -4.07152,-3.34788 -4.07152,-7.11878 0,-2.15458 -0.43608,-2.41821 -4,-2.41821 -2.88889,0 -4,-0.41667 -4,-1.5 0,-1.12556 1.20143,-1.5 4.81291,-1.5 4.09779,0 5.24931,-0.46448 7.75,-3.1261 5.35656,-5.70126 14.59292,-8.46642 19.50283,-5.83872 1.81303,0.97031 1.93426,0.65694 1.93426,-5 V 287 h -22.88342 -22.88343 l -0.49064,2.56662 c -0.47871,2.50424 -0.39041,2.54941 3.63343,1.85854 2.26823,-0.38944 4.79906,-0.75692 5.62406,-0.81662 1.29765,-0.0939 1.5,3.39878 1.5,25.89146 0,22.44444 -0.20513,26 -1.5,26 -1.18926,0 -1.56029,-1.71687 -1.79105,-8.28761 l -0.29105,-8.28761 -3.45036,0.64729 c -7.57428,1.42094 -6.91299,3.10986 -7.46754,-19.07207 l -0.5,-20 h -11 -11 l -0.26994,3.5 c -0.46586,6.0401 -1.16658,7.85811 -4.48593,11.63864 -9.88865,11.26255 -27.32184,8.829 -24.27519,-3.38864 0.37716,-1.5125 2.89945,-4.8875 5.60509,-7.5 l 4.91934,-4.75 h -9.03187 c -8.61967,0 -8.98462,0.0883 -7.99668,1.93426 1.74599,3.26241 1.19156,8.36814 -1.21979,11.23305 C 336.56898,303.38923 325.927,312 324.6569,312 c -1.65934,0 -2.12112,-3.06572 -2.12112,-14.08179 V 287 h -20.5 -20.5 v 10 10 h 4 c 2.88889,0 4,0.41667 4,1.5 0,1.10098 -1.14487,1.5 -4.30383,1.5 -3.64536,0 -4.83109,0.55418 -7.75,3.62211 -6.29398,6.61532 -14.83833,9.03638 -20.87465,5.91488 -3.0625,-1.58369 -4.07152,-3.34788 -4.07152,-7.11878 0,-2.15458 -0.43608,-2.41821 -4,-2.41821 -2.88889,0 -4,-0.41667 -4,-1.5 0,-1.12556 1.20143,-1.5 4.81291,-1.5 4.09779,0 5.24931,-0.46448 7.75,-3.1261 5.35656,-5.70126 14.59292,-8.46642 19.50283,-5.83872 1.81303,0.97031 1.93426,0.65694 1.93426,-5 V 287 h -20.5 c -17.922,0 -20.5,0.19654 -20.5,1.56286 0,1.04677 0.74299,1.45955 2.25,1.25 1.98218,-0.27562 2.2859,0.17858 2.55157,3.81579 0.27055,3.70396 0.0391,4.19452 -2.25,4.76905 -2.4306,0.61004 -2.55157,0.97137 -2.55157,7.62135 0,6.77968 0.0721,6.98095 2.5,6.98095 2.24801,0 2.5,0.40127 2.5,3.98095 0,3.41235 -0.35707,4.07057 -2.5,4.60841 -2.40246,0.60298 -2.5,0.93534 -2.5,8.51905 0,6.34808 -0.29338,7.89159 -1.5,7.89159 -1.19048,0 -1.5,-1.44444 -1.5,-7 0,-3.85 -0.23945,-7 -0.53212,-7 -0.29266,0 -2.09266,0.65204 -4,1.44897 l -3.46788,1.44898 v 7.63436 c 0,5.6611 -0.32309,7.5276 -1.25,7.22133 -0.79085,-0.26132 -1.35845,-2.8559 -1.54524,-7.06353 -0.27446,-6.18249 -0.45039,-6.6343 -2.5,-6.4203 -1.91331,0.19976 -2.24463,-0.31559 -2.50633,-3.89846 -0.27055,-3.70396 -0.0391,-4.19452 2.25,-4.76905 2.4306,-0.61004 2.55157,-0.97137 2.55157,-7.62135 0,-6.77968 -0.0721,-6.98095 -2.5,-6.98095 -2.24801,0 -2.5,-0.40127 -2.5,-3.98095 0,-3.41235 0.35707,-4.07057 2.5,-4.60841 2.1919,-0.55013 2.5,-1.16867 2.5,-5.01905 V 287 h -64.5 -64.500006 l -0.022,8.75 c -0.0254,10.10657 -1.85018,15.28174 -6.881214,19.51507 -10.91053,9.1806 -27.18016,2.01741 -27.06502,-11.9162 0.0347,-4.19651 1.28148,-6.39014 4.65245,-8.18553 5.7406,-3.05743 12.31578,0.77608 12.31578,7.18042 0,4.30673 -2.47962,7.29668 -7,8.44064 l -3.5,0.88573 3.5,2.21974 c 5.35563,3.3966 11.49878,2.45455 15.70204,-2.40791 3.68098,-4.25827 5.63547,-11.4636 5.1316,-18.91796 l -0.33364,-4.93599 -25.25,-0.42539 -25.25,-0.42539 V 357.88861 429 h 42.93358 42.93359 z m 365.5549,-5.31954 c -7.47656,-8.73469 -7.49854,-19.83988 -0.0556,-28.07836 1.9524,-2.16107 3.94745,-3.92922 4.43345,-3.92922 0.486,0 -0.0558,0.93944 -1.20401,2.08765 -3.36956,3.36959 -4.91232,8.36697 -4.91232,15.91235 0,7.54538 1.54276,12.54276 4.91235,15.91235 1.14821,1.14821 1.67272,2.08765 1.16557,2.08765 -0.50714,0 -2.45989,-1.79659 -4.33944,-3.99242 z m 54.6342,0.96137 c 3.0196,-3.5886 4.61617,-8.76582 4.61617,-14.96895 0,-6.20313 -1.59657,-11.38035 -4.61617,-14.96895 C 545.5057,390.36397 544.80799,389 545.35799,389 c 1.45014,0 6.25749,5.96696 7.82933,9.71788 1.84532,4.40355 1.70522,13.67411 -0.2657,17.58178 -1.82456,3.61748 -6.3007,8.70034 -7.66182,8.70034 -0.496,0 0.2459,-1.36397 1.64866,-3.03105 z m -22.12268,-3.99926 c -3.13156,-1.25992 -2.92759,-3.36996 0.25,-2.58627 1.375,0.33912 3.58096,0.88562 4.90213,1.21445 2.94648,0.73335 6.59787,-2.5182 6.59787,-5.87536 0,-3.03649 -2.68126,-6.72251 -4.89004,-6.72251 -3.13981,0 -3.18297,-1.27739 -0.10637,-3.14838 2.18724,-1.33014 2.99641,-2.58232 2.99641,-4.63692 0,-5.24288 -5.13696,-7.07774 -9,-3.2147 -2.35293,2.35293 -2.64345,1.36367 -0.49876,-1.69831 2.07057,-2.95614 6.94582,-3.89401 9.96356,-1.91671 3.47811,2.27894 4.11847,5.33483 1.78055,8.49704 l -1.96192,2.65363 2.35829,1.77886 c 3.56865,2.69184 3.29374,8.90388 -0.5648,12.76241 -1.60769,1.6077 -3.82088,2.92308 -4.91821,2.92308 -1.09732,0 -2.59444,0.19686 -3.32692,0.43747 -0.73249,0.24061 -2.34429,0.0301 -3.58179,-0.46778 z m -19.5,-0.67542 c 2.19076,-0.42196 2.25,-0.76374 2.25,-12.98045 0,-12.05475 -0.0785,-12.52656 -2,-12.02407 -3.13369,0.81948 -2.36135,-0.0648 2,-2.28975 l 4,-2.04065 v 14.05255 c 0,13.63838 0.0663,14.0792 2.25,14.95694 1.66619,0.66972 0.56343,0.8855 -4.25,0.83159 -3.575,-0.04 -5.4875,-0.26781 -4.25,-0.50616 z m 67.82143,-1.8657 c -3.36653,-3.36653 -0.73018,-8.1872 3.84893,-7.03791 3.25224,0.81625 4.26952,4.18955 2.01479,6.681 -2.11683,2.33907 -3.78031,2.44032 -5.86372,0.35691 z m -180.4422,-28.30785 c -9.02325,-8.42898 -9.47336,-22.77659 -0.98096,-31.26899 4.58733,-4.58733 6.40648,-4.48816 2.51459,0.13709 -6.26564,7.44629 -6.26564,22.57607 0,30.02236 3.43419,4.0813 2.4274,4.80969 -1.53363,1.10954 z m 31.84688,-0.94137 c 2.10746,-2.62245 3.36025,-5.60176 3.9947,-9.5 1.33363,-8.19412 -0.18356,-16.11624 -3.9947,-20.8587 -4.29846,-5.34885 -1.99786,-4.78832 2.82228,0.68765 3.66362,4.16209 6.21078,10.40438 6.19603,15.18452 -0.0135,4.37718 -2.4498,9.84589 -6.19769,13.91188 -4.97795,5.40044 -7.03561,5.81965 -2.82062,0.57465 z m -206.84688,-4.05863 c -9.02325,-8.42898 -9.47336,-22.77659 -0.98096,-31.26899 4.58733,-4.58733 6.40648,-4.48816 2.51459,0.13709 -6.26564,7.44629 -6.26564,22.57607 0,30.02236 3.43419,4.0813 2.4274,4.80969 -1.53363,1.10954 z m 30.84688,-0.94137 c 2.10746,-2.62245 3.36025,-5.60176 3.9947,-9.5 1.33363,-8.19412 -0.18356,-16.11624 -3.9947,-20.8587 -4.29846,-5.34885 -1.99786,-4.78832 2.82228,0.68765 3.66362,4.16209 6.21078,10.40438 6.19603,15.18452 -0.0135,4.37718 -2.4498,9.84589 -6.19769,13.91188 -4.97795,5.40044 -7.03561,5.81965 -2.82062,0.57465 z m 153.27389,1.15837 c -1.48289,-0.59836 -1.65625,-2.96861 -0.27937,-3.81957 0.53385,-0.32994 2.33791,0.10716 4.00903,0.97133 2.27286,1.17534 3.53427,1.30584 5.00645,0.51795 C 416.71564,376.69264 414.60147,368 407.60152,368 c -2.9716,0 -2.54283,-1.3006 0.93649,-2.84069 5.06812,-2.24337 5.37433,-8.52473 0.47551,-9.75425 -2.03054,-0.50963 -3.25766,-0.032 -5.54282,2.15729 -3.82408,3.6637 -3.8352,1.18409 -0.0118,-2.63927 3.50451,-3.50452 8.11156,-3.88844 11.07692,-0.92308 2.43524,2.43524 2.56966,5.71305 0.33553,8.18174 -1.56215,1.72616 -1.51928,1.99377 0.69749,4.35341 2.87525,3.06056 3.02502,8.6228 0.31415,11.66676 -3.27523,3.67765 -10.19874,5.70886 -14.09717,4.13581 z m -172.5,-6.36888 c 2.15953,-0.86803 2.25,-1.39089 2.25,-13.004 0,-11.64454 -0.0752,-12.07574 -2,-11.46484 -3.35743,1.06561 -2.23226,-0.34086 2,-2.5 l 4,-2.04065 v 14.05255 c 0,13.63838 0.0663,14.0792 2.25,14.95694 1.68478,0.6772 0.61713,0.90439 -4.25,0.90439 -4.86713,0 -5.93478,-0.22719 -4.25,-0.90439 z m 87.37923,-18.84812 c -9.02325,-8.42898 -9.47336,-22.77659 -0.98096,-31.26899 4.58733,-4.58733 6.40648,-4.48816 2.51459,0.13709 -6.26564,7.44629 -6.26564,22.57607 0,30.02236 3.43419,4.0813 2.4274,4.80969 -1.53363,1.10954 z m 31.84688,-0.94137 c 3.81114,-4.74246 5.32833,-12.66458 3.9947,-20.8587 -0.63445,-3.89824 -1.88724,-6.87755 -3.9947,-9.5 -4.29846,-5.34885 -1.99786,-4.78832 2.82228,0.68765 3.66362,4.16209 6.21078,10.40438 6.19603,15.18452 -0.0135,4.37718 -2.4498,9.84589 -6.19769,13.91188 -4.97795,5.40044 -7.03561,5.81965 -2.82062,0.57465 z M 327.17721,347.75 c 9.02841,-9.45593 11.63936,-15.14633 8.88115,-19.35589 -2.19406,-3.34856 -6.724,-3.2248 -9.464,0.25855 -2.64082,3.35725 -3.69065,2.47031 -1.67947,-1.41888 2.69774,-5.21686 10.09347,-6.61834 14.04946,-2.66235 4.2657,4.2657 2.6661,10.2058 -4.93724,18.33439 -2.47023,2.64087 -4.49133,5.09242 -4.49133,5.44788 0,1.23261 8.51384,0.62676 11.25,-0.80056 3.12744,-1.63143 3.1734,-1.5765 1.58948,1.89981 C 341.25614,351.90916 340.89208,352 332.16706,352 h -9.0477 z m 177.4878,-9.62928 c -9.02325,-8.42898 -9.47336,-22.77659 -0.98096,-31.26899 4.58733,-4.58733 6.40648,-4.48816 2.51459,0.13709 -6.26564,7.44629 -6.26564,22.57607 0,30.02236 3.43419,4.0813 2.4274,4.80969 -1.53363,1.10954 z m 31.84688,-0.94137 c 2.10746,-2.62245 3.36025,-5.60176 3.9947,-9.5 1.33363,-8.19412 -0.18356,-16.11624 -3.9947,-20.8587 -4.29846,-5.34885 -1.99786,-4.78832 2.82228,0.68765 3.66362,4.16209 6.21078,10.40438 6.19603,15.18452 -0.0135,4.37718 -2.4498,9.84589 -6.19769,13.91188 -4.97795,5.40044 -7.03561,5.81965 -2.82062,0.57465 z m -19.61203,-4.34894 c -2.20125,-1.06586 -4.36408,-4.76025 -4.36408,-7.45439 0,-0.84142 1.29171,-2.82157 2.87046,-4.40033 l 2.87046,-2.87046 -2.37046,-2.22693 c -2.35326,-2.21077 -3.18368,-7.11452 -1.60515,-9.4786 2.56635,-3.84345 9.89692,-4.45259 13.06038,-1.08525 2.88034,3.06598 2.74614,6.07438 -0.40114,8.99271 l -2.57545,2.38809 3.07545,3.07545 c 4.55723,4.55724 4.12329,10.11896 -0.99607,12.76629 -3.24713,1.67915 -6.49666,1.77884 -9.5644,0.29342 z M 525.33578,330.8 c 2.02916,-2.02916 1.34043,-5.29128 -1.7403,-8.24281 -3.48711,-3.34085 -5.60975,-2.88228 -6.55379,1.41588 -1.26134,5.74285 4.57458,10.54644 8.29409,6.82693 z m -0.85421,-17.23468 c 0.65487,-0.78907 1.04747,-2.92657 0.87244,-4.75 -0.27257,-2.83968 -0.74156,-3.36349 -3.26892,-3.65111 -1.96306,-0.22339 -3.38557,0.25896 -4.25,1.44113 -1.70708,2.33458 -1.66306,2.66251 0.77327,5.7598 2.3253,2.95613 4.11275,3.3214 5.87321,1.20018 z M 325.53578,421.5 c 0,-6.47156 -0.23997,-7.50167 -1.75,-7.51215 -2.27945,-0.0158 -37.06859,3.96766 -40,4.58014 -1.96926,0.41146 -2.25,1.09159 -2.25,5.45106 V 429 h 22 22 z m 83.63944,-103.89154 c 0.0767,-0.0596 0.30169,-4.15846 0.5,-9.10846 l 0.36056,-9 -3,0.28548 c -5.47555,0.52106 -5.5,0.56605 -5.5,10.12026 v 8.96852 l 3.75,-0.57867 c 2.0625,-0.31827 3.81275,-0.62748 3.88944,-0.68713 z m -177.78866,-1.70629 c 3.12208,-1.08836 3.14922,-1.1573 3.14922,-8 0,-3.79619 -0.38285,-6.90217 -0.85078,-6.90217 -0.46792,0 -2.26792,0.49402 -4,1.09783 -3.12208,1.08836 -3.14922,1.1573 -3.14922,8 0,3.79619 0.38285,6.90217 0.85078,6.90217 0.46792,0 2.26792,-0.49402 4,-1.09783 z M 334.22655,298.12032 C 336.13556,293.65365 334.46352,289 330.94964,289 c -3.3109,0 -4.41386,2.77906 -4.41386,11.12135 v 7.25283 l 3.12316,-2.93709 c 1.71774,-1.6154 3.77316,-4.45795 4.56761,-6.31677 z m -102.9705,-5.33613 c 2.51342,-0.90887 3.28874,-1.72937 3.071,-3.25 -0.22948,-1.60264 -1.03379,-2.03419 -3.79127,-2.03419 -3.21777,0 -3.52527,0.26207 -3.81336,3.25 -0.35189,3.64963 -0.16531,3.73335 4.53363,2.03419 z m -160.14107,-8.093 c -4.9795,-3.08806 -10.00504,-8.5918 -12.67513,-13.8812 L 55.50698,265 h -7.4856 -7.48561 v 10.5 10.5 l 16.25,-0.0588 c 12.99815,-0.047 15.86562,-0.29718 14.32921,-1.25 z m 152.60438,-1.36407 c 0.43413,-3.66724 2.59409,-4.12632 2.99428,-0.63641 0.2815,2.45493 0.79516,2.84844 4.07214,3.11966 l 3.75,0.31036 v -5.06036 c 0,-3.83144 0.36428,-5.06037 1.5,-5.06037 1.13333,0 1.5,1.22222 1.5,5 v 5 h 20.5 20.5 v -10.48646 -10.48646 l -84.13947,0.23646 -84.13947,0.23646 -1.1809,4.65138 c -1.53639,6.05158 -3.68033,9.21322 -8.72626,12.86847 L 96.235694,286 h 63.583626 63.58362 z m 98.6014,-7.57712 -0.28498,-10.25 -20.25,-0.27071 -20.25,-0.2707 V 275.47929 286 h 20.53498 20.53499 z m 51.00075,0.0678 -0.28573,-10.3178 -23.18095,-0.26826 -23.18095,-0.26826 -0.33186,9.76826 c -0.18253,5.37254 -0.24284,10.01547 -0.13404,10.31762 0.10881,0.30215 10.81815,0.67017 23.79855,0.81781 l 23.60071,0.26846 -0.28573,-10.31782 z m 24.21427,5.26553 c 0,-3.03412 0.47861,-5.08361 1.25,-5.35269 2.70843,-0.94476 3.75,0.54853 3.75,5.37635 V 286 h 23 23 v -10.51247 -10.51248 l -36.25,0.26248 -36.25,0.26247 -0.29142,8.92086 c -0.16029,4.90647 -0.0619,9.51897 0.21861,10.25 0.37955,0.9891 3.20436,1.32914 11.04143,1.32914 h 10.53138 z m 140.59265,2.81429 C 540.91187,280.82196 544.95102,279 548.98612,279 h 3.54966 v -7 -7 h -50.5 -50.5 v 10.5 10.5 h 42.34501 c 41.76238,0 42.37119,-0.0289 44.24764,-2.10238 z M 587.03578,275.5 v -10 l -15.75,-0.27539 -15.75,-0.2754 V 275.5 286.05079 l 15.75,-0.2754 15.75,-0.27539 z m 49.5,-0.0184 v -10.51843 l -23.25,0.26843 -23.25,0.26843 -0.29142,8.92086 c -0.16029,4.90647 -0.0619,9.51897 0.21861,10.25 0.4038,1.05228 5.3074,1.32914 23.54143,1.32914 L 636.53578,286 v -10.51843 z m -546.41903,7.168 c 0.28501,-0.74273 -0.0666,-4.90523 -0.78138,-9.25 l -1.2996,-7.8996 -6.25,-0.29772 c -7.28307,-0.34692 -7.9711,0.77462 -3.25,5.29772 5.04833,4.8366 3.17872,7.72915 -2.07739,3.21404 -1.41757,-1.21772 -3.58571,-3.67654 -4.8181,-5.46404 -1.90589,-2.76439 -2.84688,-3.25 -6.2976,-3.25 -3.99894,0 -4.04809,0.0441 -3.44007,3.08416 1.20213,6.01069 7.05244,11.86824 14.51823,14.53622 4.90572,1.75311 13.02774,1.77042 13.69591,0.0292 z m 9.364214,-4.09302 c 2.646496,-2.73049 3.438136,-4.49041 3.823406,-8.5 L 103.79024,265 h -6.235646 c -5.962044,0 -6.211624,0.0987 -5.688464,2.25 0.300954,1.2375 0.857864,5.0625 1.237574,8.5 0.41178,3.72774 1.16445,6.25 1.86507,6.25 0.64607,0 2.67655,-1.54955 4.51219,-3.44345 z M 55.13965,257.25 c -0.0571,-3.7125 0.2837,-8.4375 0.75741,-10.5 l 0.8613,-3.75 h -8.1113 -8.11129 v 10.5 10.5 h 7.35388 7.35388 z m 14.41809,3 c 0.0337,-5.75167 3.29781,-11.91553 7.68211,-14.50663 L 81.03577,243.5 75.14775,243.19598 c -3.23842,-0.16721 -6.48059,-0.0766 -7.20483,0.20128 -2.91954,1.12033 -8.27377,15.90198 -6.98065,19.27179 C 61.27055,263.47243 63.071,264 65.50439,264 c 3.98792,0 4.03162,-0.0404 4.05335,-3.75 z m 17.97803,2.79922 C 87.53577,260.14636 85.22623,252 84.40325,252 c -1.93734,0 -6.78532,3.04461 -8.30677,5.21679 -0.85839,1.22552 -1.56071,3.25309 -1.56071,4.50572 0,2.1364 0.40268,2.27749 6.5,2.27749 3.575,0 6.5,-0.42785 6.5,-0.95078 z m 14.56161,-1.9301 C 100.59532,258.21447 95.099924,253 93.540834,253 c -0.46282,0 -1.604864,-0.29293 -2.537874,-0.65097 -1.51757,-0.58234 -1.61955,-0.0816 -0.96746,4.75 0.40092,2.97054 0.92904,5.73847 1.17362,6.15097 0.24458,0.4125 3.129684,0.75 6.411354,0.75 h 5.966666 z m 62.78063,0.10398 c -3.91813,-3.3788 -5.93919,-7.35265 -6.85899,-13.48627 L 157.30869,243 l -30.63645,0.005 -30.636466,0.005 3,2.45907 c 1.650006,1.35249 3.328406,2.47526 3.729776,2.49504 1.21699,0.06 6.7508,10.38898 6.76085,12.61929 0.005,1.14584 0.30938,2.38334 0.67605,2.75 0.36666,0.36667 13.52916,0.65456 29.25,0.63977 l 28.58333,-0.0269 -3.15777,-2.7231 z m 18.99472,1.83889 c 3.3559,-1.27591 7.43983,-5.85561 8.74306,-9.80442 0.5913,-1.79166 1.53898,-3.25757 2.10595,-3.25757 1.6539,0 -0.0127,4.88786 -3.29158,9.65352 L 188.4397,264 h 45.04804 45.04804 V 253.5 243 h -54.62849 -54.62848 l 0.45989,7.9444 c 0.26977,4.6601 1.03201,8.63374 1.84377,9.61186 2.64764,3.19021 7.75249,4.23099 12.29026,2.50573 z M 321.72242,260.75 c 0.23901,-2.47888 0.7879,-3.25 2.31336,-3.25 1.52546,0 2.07435,0.77112 2.31336,3.25 l 0.31336,3.25 h 23.47162 23.47163 l -0.28499,-10.25 -0.28498,-10.25 -45.75,-0.26009 -45.75,-0.26009 V 253.48991 264 h 19.93664 19.93664 z m 126.81336,-7.26247 v -10.51248 l -36.25,0.26248 -36.25,0.26247 -0.29142,8.92086 c -0.16029,4.90647 -0.0619,9.51897 0.21861,10.25 0.41117,1.07149 7.49456,1.32914 36.54143,1.32914 h 36.03138 z m 104,0.0125 v -10.5 h -50.5 -50.5 v 10.5 10.5 h 50.5 50.5 z m 34.5,0 v -10 l -15.75,-0.27539 -15.75,-0.2754 v 10.55079 10.55079 l 15.75,-0.2754 15.75,-0.27539 z m 49.5,-0.0184 V 242.9632 l -23.25,0.26843 -23.25,0.26843 -0.29142,8.92086 c -0.16029,4.90647 -0.0619,9.51897 0.21861,10.25 0.4038,1.05228 5.3074,1.32914 23.54143,1.32914 L 636.53578,264 V 253.48157 Z M 59.62347,238.25 c 1.23795,-2.0625 4.66905,-6.7875 7.62466,-10.5 L 72.62198,221 H 56.57888 40.53577 v 10.5 10.5 h 8.41844 8.41844 z m 22.85121,2 c -0.0336,-0.9625 -0.82836,-4.19607 -1.76612,-7.18571 l -1.70504,-5.43571 -5.23387,6.5775 c -2.87863,3.61763 -5.23388,6.8512 -5.23388,7.18571 0,0.33452 3.15,0.60821 7,0.60821 6.02328,0 6.99148,-0.24418 6.93891,-1.75 z m 75.08306,-1 c 0.0358,-4.48485 3.41086,-10.60867 8.0222,-14.55581 L 169.89578,221 h -14.68 -14.68 v 3.5 c 0,4.6408 -2.74254,4.85596 -3.18664,0.25 -0.28809,-2.98793 -0.59559,-3.25 -3.81336,-3.25 h -3.5 l -0.30452,5.31516 c -0.3981,6.9486 -2.5824,6.46526 -2.99842,-0.6635 l -0.30295,-5.19113 -21.08892,0.26974 c -18.24729,0.23338 -21.22784,0.49014 -22.11989,1.9055 -0.74882,1.18811 -0.39743,3.9932 1.28399,10.25 L 86.82003,242 h 35.35788 35.35787 l 0.022,-2.75 z m 121.17814,-3 c 0.38863,-7.45117 2.21161,-7.44412 2.6001,0.0101 l 0.30021,5.76006 45.69979,-0.26006 45.6998,-0.2601 v -10 -10 l -92.85816,-0.2552 -92.85815,-0.2552 3.0937,3.52354 c 3.41212,3.88618 4.4464,6.79027 3.95069,11.09286 -0.61533,5.34088 -7.41197,6.48488 -10.50272,1.76781 -2.11674,-3.23055 -0.97667,-7.00712 2.81058,-9.31029 l 3.08227,-1.87444 -2.50333,-1.64024 c -3.39615,-2.22525 -8.62433,-2.93725 -12.01325,-1.63603 -3.59905,1.3819 -5.70163,6.38059 -5.70163,13.55507 V 242 h 54.4501 54.45009 z m 170,0.079 c 0.43055,-8.14141 2.7999,-8.49034 2.7999,-0.41233 V 242 h 50.44774 50.44774 l 0.30226,-5.25 c 0.39062,-6.78466 2.21261,-6.80387 2.60357,-0.0274 l 0.30131,5.22255 40.44869,0.0193 40.44869,0.0193 V 231.48817 220.9926 l -130.25,0.25373 -130.25,0.25373 -0.29142,8.92086 c -0.16029,4.90647 -0.0619,9.51897 0.21861,10.25 0.41115,1.07144 7.48616,1.32914 36.49152,1.32914 h 35.98148 l 0.29991,-5.671 z M 74.46734,219.06346 c 1.23278,-0.78013 1.18282,-2.06245 -0.35982,-9.23469 C 73.12226,205.24795 72.15468,200.9375 71.95734,200.25 71.69012,199.31906 67.63424,199 56.06716,199 H 40.53577 v 10.5 10.5 l 16.25,-0.0153 c 8.9375,-0.008 16.89421,-0.42298 17.68157,-0.92123 z m 52.06844,-0.0517 c 0,-0.54352 -1.0125,-0.88102 -2.25,-0.75 -1.96777,0.20833 -2.28783,-0.27967 -2.55157,-3.89044 -0.27055,-3.70396 -0.0391,-4.19452 2.25,-4.76905 2.31048,-0.5799 2.55157,-1.11356 2.55157,-5.64809 v -5.00768 l -14.60155,0.27674 -14.601566,0.27673 -1.79862,4.74162 c -0.98924,2.60789 -3.41854,6.99643 -5.398444,9.75232 -1.97991,2.75588 -3.59983,5.23465 -3.59983,5.50837 0,0.27373 9.000004,0.49769 20.00001,0.49769 12.50759,0 20,-0.3702 20,-0.98821 z m 11,-2.01179 c 0,-3.46983 0.0331,-3.4585 -4.53212,-1.55103 -5.18358,2.16584 -4.5553,4.55103 1.19879,4.55103 3.03703,0 3.33333,-0.26667 3.33333,-3 z m 499,-7.5025 v -10.4975 l -64.25,0.008 -64.25,0.008 -3.44809,6.49157 c -1.89645,3.57036 -4.03395,6.49156 -4.75,6.49156 -1.71263,0 -1.65985,-0.37806 0.69809,-5 1.1,-2.15618 2,-4.83825 2,-5.96016 v -2.03897 h -181 c -180.33333,0 -181,0.007 -181,2 0,1.46667 0.66667,2 2.5,2 2.24801,0 2.5,0.40127 2.5,3.98095 0,3.41235 -0.35707,4.07057 -2.5,4.60841 -2.13042,0.5347 -2.5,1.20224 -2.5,4.51554 v 3.88807 l 248,0.001 248,0.001 v -10.4975 z m -550.49226,-5.7475 2.61708,-4.75 h -6.60773 -6.60772 l 0.63994,3.75 c 0.35197,2.0625 1.08446,5.51086 1.62775,7.66303 l 0.98782,3.91302 2.36289,-2.91302 c 1.2996,-1.60217 3.54058,-5.05053 4.97997,-7.66303 z m 48.39816,2.13296 c 2.65426,-0.92528 3.15197,-1.56905 2.89923,-3.75 -0.26473,-2.28431 -0.76859,-2.63296 -3.80513,-2.63296 -3.3226,0 -3.51573,0.19007 -3.81037,3.75 -0.33939,4.10074 -0.0145,4.28211 4.71627,2.63296 z M 89.7501,195.75 c 1.55366,-2.72106 1.72009,-18.21558 0.21186,-19.72382 -1.44872,-1.44872 -8.93591,5.09248 -11.43419,9.9895 -1.06646,2.09043 -2.23345,5.64208 -2.59331,7.89255 L 75.28016,198 h 6.59262 c 5.78948,0 6.74913,-0.27411 7.87732,-2.25 z m 47.59904,-1.5 c 0.34489,-3.57701 -0.0518,-3.76005 -4.66414,-2.15217 -1.90086,0.66264 -3.14922,1.78578 -3.14922,2.83333 0,2.52719 1.04906,3.20076 4.46406,2.86623 2.61972,-0.25662 3.0789,-0.74295 3.3493,-3.54739 z M 17.54403,508.18861 C 11.46325,502.19705 8.7951002,498.64425 6.0912502,492.93861 -2.2607,475.3144 -1.4673,462.92029 10.06064,430.931 20.19547,402.80748 21.50289,392.04085 16.43547,378.434 14.73596,373.87056 12.58273,370.85303 7.1127702,365.36921 L 0,358.23842 6.1153702,352.30173 c 4.0076198,-3.89052 7.2807798,-8.30398 9.4966598,-12.80506 3.13413,-6.36632 3.37989,-7.56744 3.36228,-16.43251 C 18.95211,311.88284 17.77471,306.98228 9.5889402,284 0.58159,258.71109 -1.10518,247.58537 2.04342,234.23084 c 1.8161402,-7.70303 5.0162602,-14.13996 10.35846,-20.83571 4.6172,-5.78705 14.56401,-13.86537 15.98844,-12.98503 0.51955,0.3211 -2.07651,3.62269 -5.76903,7.33686 C 7.0379502,223.4217 5.9747202,236.64494 17.53537,271 c 7.32078,21.75534 8.91547,28.00478 9.63832,37.77156 1.16103,15.68743 -3.85208,28.36292 -16.24448,41.07361 l -8.1361898,8.34518 7.7219198,7.65482 c 9.2535,9.17309 14.34498,18.62407 16.17104,30.01721 1.78418,11.13187 0.003,21.63988 -7.62951,45.00969 -7.61562,23.31812 -8.24007,25.66357 -9.0950998,34.1612 -1.34749,13.39184 2.9035598,24.35093 13.4616198,34.7037 5.23133,5.12962 5.99465,6.26303 4.21797,6.26303 -1.36394,0 -5.11233,-2.8999 -10.09693,-7.81139 z m 230.14835,-329.91151 3.65659,-0.38669 4.57293,-13.19521 c 5.5376,-15.97879 5.53854,-15.98331 3.40143,-16.4519 -1.11174,-0.24377 -2.69028,1.03754 -4.5,3.65266 -3.58222,5.17647 -4.91729,5.25876 -2.30702,0.1422 3.88412,-7.61349 8.96872,-10.08891 12.81749,-6.24014 1.7292,1.7292 1.91098,1.7294 4.75,0.005 4.1283,-2.50713 8.07262,-2.27355 10.99743,0.65127 4.89233,4.89232 2.39512,15.11683 -4.78631,19.59693 -3.07238,1.91669 -4.2277,1.99756 -11.13968,0.77983 -1.47859,-0.2605 -2.27062,0.80119 -3.70557,4.96713 -1.35044,3.9206 -1.51152,5.39525 -0.61946,5.67077 0.66306,0.20478 1.88057,0.59746 2.70557,0.87261 0.825,0.27516 -3.225,0.46017 -9,0.41113 -5.775,-0.049 -8.85453,-0.26317 -6.8434,-0.47585 z m 22.78889,-14.24793 c 2.31527,-1.23909 5.05451,-8.04011 5.05451,-12.54941 0,-2.76941 -0.39346,-3.47976 -1.92742,-3.47976 -3.83543,0 -8.88823,9.61404 -7.64861,14.55311 0.66466,2.64819 1.6999,2.98615 4.52152,1.47606 z m 216.79299,6.97841 c -7.47656,-8.73469 -7.49854,-19.83988 -0.0556,-28.07836 1.9524,-2.16107 3.94745,-3.92922 4.43345,-3.92922 0.486,0 -0.0558,0.93944 -1.20401,2.08765 -3.36956,3.36959 -4.91232,8.36697 -4.91232,15.91235 0,7.54538 1.54276,12.54276 4.91235,15.91235 1.14821,1.14821 1.67272,2.08765 1.16557,2.08765 -0.50714,0 -2.45989,-1.79659 -4.33944,-3.99242 z m 33.6342,0.96137 c 3.0196,-3.5886 4.61617,-8.76582 4.61617,-14.96895 0,-6.20313 -1.59657,-11.38035 -4.61617,-14.96895 C 519.5057,140.36397 518.80799,139 519.35799,139 c 1.45014,0 6.25749,5.96696 7.82933,9.71788 1.84532,4.40355 1.70522,13.67411 -0.2657,17.58178 -1.82456,3.61748 -6.3007,8.70034 -7.66182,8.70034 -0.496,0 0.2459,-1.36397 1.64866,-3.03105 z m 26.14158,1.05412 c -1.52315,-2.46451 3.25563,-14.11523 9.05886,-22.08559 9.29004,-12.75927 27.651,-13.53117 38.04847,-1.59957 4.44343,5.09906 9.37738,15.23553 10.12346,20.79796 0.77891,5.80722 -1.41747,4.73961 -3.61721,-1.75825 -5.0387,-14.88389 -20.25441,-22.4319 -34.34996,-17.03987 -6.4395,2.46333 -13.28795,10.16912 -15.35402,17.27617 -1.51041,5.19562 -2.63776,6.46703 -3.9096,4.40915 z m 25.67112,0.29311 c -2.20753,-0.88314 -3.26456,-5.04828 -1.9907,-7.84412 2.42452,-5.32124 10.80532,-3.46285 10.80532,2.39601 0,4.57355 -4.32253,7.24521 -8.81462,5.44811 z m -68.90125,-5.11226 c -1.21872,-0.18374 -3.35622,-1.68932 -4.75,-3.34572 -2.05024,-2.43658 -2.53413,-4.07818 -2.53413,-8.59707 0,-9.54054 4.98823,-15.65561 14.5,-17.77552 2.52898,-0.56364 2.33656,-0.32573 -1.22555,1.51529 -3.93802,2.03531 -8.27445,7.22486 -8.27445,9.90232 0,0.86835 0.52702,0.88509 2.05865,0.0654 2.68223,-1.43549 7.24963,-0.39055 9.58766,2.19348 2.66613,2.94666 2.35586,10.14224 -0.5717,13.25849 -2.33447,2.48493 -5.05541,3.34647 -8.79048,2.78334 z m 5.84343,-2.85761 c 2.05612,-2.47748 1.74063,-9.72949 -0.53255,-12.24132 -2.10993,-2.33145 -5.54782,-2.75218 -7.39501,-0.90499 -1.71684,1.71684 -1.48334,9.95047 0.3567,12.57749 1.83533,2.6203 5.63156,2.90552 7.57086,0.56882 z M 147.66501,155.12072 c -9.02325,-8.42898 -9.47336,-22.77659 -0.98096,-31.26899 4.58733,-4.58733 6.40648,-4.48816 2.51459,0.13709 -6.26564,7.44629 -6.26564,22.57607 0,30.02236 3.43419,4.0813 2.4274,4.80969 -1.53363,1.10954 z m 31.84688,-0.94137 c 3.81114,-4.74246 5.32833,-12.66458 3.9947,-20.8587 -0.63445,-3.89824 -1.88724,-6.87755 -3.9947,-9.5 -4.29846,-5.34885 -1.99786,-4.78832 2.82228,0.68765 3.66362,4.16209 6.21078,10.40438 6.19603,15.18452 -0.0135,4.37718 -2.4498,9.84589 -6.19769,13.91188 -4.97795,5.40044 -7.03561,5.81965 -2.82062,0.57465 z m -17.97611,-4.39285 c 0,-0.7591 1.8,-6.73802 4,-13.2865 2.2,-6.54848 4,-12.0399 4,-12.20316 0,-0.16326 -2.45747,-0.29684 -5.46104,-0.29684 -4.33013,0 -5.8833,0.45323 -7.5,2.18856 -2.26376,2.42986 -2.65419,1.25583 -0.87844,-2.64151 1.10855,-2.43301 1.53388,-2.54705 9.5,-2.54705 4.58671,0 8.30352,0.3375 8.25957,0.75 -0.35342,3.3172 -9.69495,28.73673 -10.67009,29.03471 -0.6875,0.21007 -1.25,-0.23912 -1.25,-0.99821 z m 79.73848,-19.77892 c -7.47656,-8.73469 -7.49854,-19.83988 -0.0556,-28.07836 1.95243,-2.16107 3.94748,-3.929222 4.43348,-3.929222 0.486,0 -0.0558,0.939442 -1.20401,2.087652 -3.36959,3.36959 -4.91235,8.36697 -4.91235,15.91235 0,7.54538 1.54276,12.54276 4.91235,15.91235 1.14821,1.14821 1.67272,2.08765 1.16557,2.08765 -0.50714,0 -2.45989,-1.79659 -4.33944,-3.99242 z m 55.6342,0.96137 c 6.21312,-7.38388 6.21312,-22.55402 0,-29.9379 -1.40276,-1.66708 -2.10047,-3.031052 -1.55047,-3.031052 1.45014,0 6.25749,5.966952 7.82933,9.717882 1.84532,4.40355 1.70522,13.67411 -0.2657,17.58178 -1.82456,3.61748 -6.3007,8.70034 -7.66182,8.70034 -0.496,0 0.2459,-1.36397 1.64866,-3.03105 z m 264.36117,-1.73731 c -8.83662,-9.06857 -9.01024,-21.71995 -0.41602,-30.31418 4.38178,-4.38178 6.53988,-4.517592 2.49533,-0.15703 -3.34371,3.60496 -4.81316,8.25758 -4.81316,15.23957 0,6.98199 1.46945,11.6346 4.81316,15.23957 3.91595,4.2219 2.03535,4.21474 -2.07931,-0.008 z M 591.7265,130.25 c 3.52172,-3.77586 4.46553,-5.90947 5.27884,-11.93353 0.99587,-7.37623 -0.94134,-15.64527 -4.65654,-19.87665 -3.8357,-4.368622 -2.23978,-4.529855 1.87886,-0.189822 6.42171,6.766892 8.3078,13.799422 5.91158,22.042092 -1.15447,3.97125 -2.6815,6.44913 -5.59835,9.08433 -4.72212,4.26615 -6.4906,4.81509 -2.81439,0.87358 z m -336.44072,-3.95573 c 2.19076,-0.42196 2.25,-0.76374 2.25,-12.98045 0,-12.05475 -0.0785,-12.52656 -2,-12.02407 -3.13369,0.81948 -2.36135,-0.0648 2,-2.28975 l 4,-2.04065 v 14.05255 c 0,13.63838 0.0663,14.0792 2.25,14.95694 1.66619,0.66972 0.56343,0.8855 -4.25,0.83159 -3.575,-0.04 -5.4875,-0.26781 -4.25,-0.50616 z m 28.25,-2.79427 V 120 h -6 c -5.16467,0 -6,-0.25679 -6,-1.84446 0,-1.76174 11.95637,-19.39251 14.01313,-20.66366 0.62418,-0.385759 0.98687,3.08699 0.98687,9.4491 V 117 h 2.58333 c 3.13272,0 2.78984,2.34847 -0.41166,2.81955 -1.74475,0.25673 -2.17167,0.99392 -2.17167,3.75 0,2.38262 -0.45817,3.43045 -1.5,3.43045 -1.04762,0 -1.5,-1.05556 -1.5,-3.5 z m 0,-13.5 c 0,-3.85 -0.20226,-7 -0.44947,-7 -0.58372,0 -9.55053,12.55941 -9.55053,13.37699 0,0.34266 2.25,0.62301 5,0.62301 h 5 z m 285.44113,14.56732 c -1.57021,-1.15892 -1.69887,-1.67825 -0.67332,-2.71781 1.03178,-1.04587 1.90949,-0.93957 4.71443,0.57099 3.17281,1.70867 3.63787,1.73082 5.85396,0.27878 2.72844,-1.78774 3.88497,-5.98736 2.58817,-9.39821 -1.03927,-2.73347 -6.50621,-6.29207 -9.67437,-6.29733 -2.79181,-0.005 -2.80316,-0.81167 -0.09,-6.39624 2.15151,-4.428453 2.18309,-4.447302 8.00183,-4.776749 3.21298,-0.181914 5.83407,-0.105753 5.82465,0.169247 -0.064,1.869052 -2.19483,2.913902 -6.49685,3.185792 -6.68307,0.42237 -7.10598,2.66739 -0.97516,5.1767 6.96652,2.85137 9.33506,9.16017 5.91908,15.76595 -2.57381,4.97719 -10.91645,7.44724 -14.99245,4.43888 z M 151.80547,90.517411 c -9.86836,-4.290053 -9.84432,-22.400915 0.0397,-29.939863 3.72516,-2.841318 10.83683,-5.61999 14.06629,-5.495976 1.62943,0.06257 1.30895,0.433364 -1.37573,1.591743 -4.63357,1.99928 -6.81697,4.051091 -9.12673,8.576683 l -1.91392,3.75 h 4.09725 c 5.55414,0 9.9434,4.203223 9.9434,9.521948 0,5.277776 -2.6047,10.062585 -6.4784,11.900779 -4.00513,1.900556 -5.07275,1.911482 -9.25191,0.09469 z m 7.52037,-8.655927 c 0.23009,-6.059364 -0.0534,-7.981991 -1.37138,-9.299949 -3.28891,-3.288905 -4.89442,-1.586747 -5.21039,5.524008 -0.36964,8.318887 0.95809,12.171992 4.04332,11.733795 2.0768,-0.294969 2.27053,-0.902289 2.53845,-7.957854 z m 19.51717,8.694404 c -6.0567,-2.677081 -9.35249,-13.203933 -7.27183,-23.226414 2.89117,-13.926696 15.61514,-16.916844 21.05085,-4.946976 2.25993,4.976542 2.55097,16.186238 0.54263,20.899619 -2.88591,6.772926 -8.73447,9.743329 -14.32165,7.273771 z m 6.71752,-3.12099 c 0.53639,-1.410804 0.97525,-7.90651 0.97525,-14.4349 0,-6.52839 -0.43886,-13.024096 -0.97525,-14.4349 -1.15533,-3.038763 -3.53956,-3.340206 -4.98957,-0.630841 -1.34692,2.516748 -1.34692,27.614734 0,30.131482 1.45001,2.709365 3.83424,2.407922 4.98957,-0.630841 z M 68.28577,89.919899 c -0.9625,-0.560605 -1.73568,-2.009421 -1.71819,-3.219591 0.0613,-4.239845 4.49711,-7.70031 9.87072,-7.70031 h 3.034 l 0.31671,-11.75 0.3167,-11.75 0.21503,14.561439 c 0.20029,13.562724 0.0713,14.715745 -1.88099,16.81126 -1.88773,2.026239 -5.93809,4.175966 -7.71908,4.096892 -0.37669,-0.01672 -1.4724,-0.489085 -2.4349,-1.04969 z m 28.430454,-6.169901 c 0.31215,-2.197922 0.64938,-2.256422 14.569556,-2.527457 l 14.25,-0.277456 v 2.527456 2.527457 h -14.56955 c -14.537186,0 -14.568846,-0.005 -14.250006,-2.25 z m 0,-13 c 0.31215,-2.197922 0.64938,-2.256422 14.569556,-2.527457 l 14.25,-0.277456 v 2.527456 2.527457 h -14.56955 c -14.537186,0 -14.568846,-0.005 -14.250006,-2.25 z M 101.27426,41.007575 C 93.797694,32.27289 93.775714,21.1677 101.21866,12.929219 c 1.9524,-2.161072 3.94745,-3.929222 4.43345,-3.929222 0.486,0 -0.0558,0.939442 -1.20401,2.087649 -3.36959,3.369596 -4.912356,8.366972 -4.912356,15.912352 0,7.54538 1.542766,12.542755 4.912356,15.912351 1.14821,1.148207 1.67272,2.087649 1.16557,2.087649 -0.50714,0 -2.45989,-1.79659 -4.33944,-3.992423 z m 55.6342,0.961368 c 3.0196,-3.588594 4.61617,-8.765811 4.61617,-14.968945 0,-6.203134 -1.59657,-11.380352 -4.61617,-14.968946 -1.40276,-1.66708 -2.10047,-3.031055 -1.55047,-3.031055 1.45014,0 6.25749,5.966956 7.82933,9.717882 1.84532,4.403546 1.70522,13.674109 -0.2657,17.581779 -1.82456,3.617477 -6.3007,8.70034 -7.66182,8.70034 -0.496,0 0.2459,-1.363975 1.64866,-3.031055 z m -41.62268,-4.674678 c 2.19076,-0.421958 2.25,-0.763734 2.25,-12.980449 0,-12.054752 -0.0785,-12.526559 -2,-12.02407 -3.13369,0.819478 -2.36135,-0.06475 2,-2.289749 l 4,-2.0406467 V 22.011898 c 0,13.638379 0.0663,14.079203 2.25,14.956938 1.66619,0.669726 0.56343,0.885501 -4.25,0.831594 -3.575,-0.04004 -5.4875,-0.267812 -4.25,-0.506165 z m 21.45784,-5.073323 c 8.52608,-8.938699 10.86003,-15.062018 7.04216,-18.475703 -3.40157,-3.041457 -7.72651,-2.592448 -9.67803,1.004758 -1.01346,1.868108 -1.50473,2.206679 -1.53193,1.055764 -0.022,-0.93183 1.02664,-2.93433 2.33037,-4.45 3.98127,-4.6285077 11.50659,-3.4396697 13.63321,2.153754 1.41226,3.714529 -0.1074,7.305836 -6.12328,14.470696 l -5.89406,7.019787 h 5.67812 c 3.82505,0 6.26088,-0.527388 7.46378,-1.616002 1.6954,-1.534315 1.72621,-1.458491 0.6095,1.5 l -1.17616,3.116002 h -8.93298 -8.93298 z"
     id="path308"
     inkscape:connector-curvature="0" />
</svg>
