<?xml version="1.0" encoding="UTF-8" standalone="no"?>
<!-- Created with Inkscape (http://www.inkscape.org/) -->

<svg
   xmlns:dc="http://purl.org/dc/elements/1.1/"
   xmlns:cc="http://creativecommons.org/ns#"
   xmlns:rdf="http://www.w3.org/1999/02/22-rdf-syntax-ns#"
   xmlns:svg="http://www.w3.org/2000/svg"
   xmlns="http://www.w3.org/2000/svg"
   xmlns:sodipodi="http://sodipodi.sourceforge.net/DTD/sodipodi-0.dtd"
   xmlns:inkscape="http://www.inkscape.org/namespaces/inkscape"
   version="1.1"
   id="svg2"
   width="1100"
   height="750"
   viewBox="0 0 1100 750"
   sodipodi:docname="signature_orig.svg"
   inkscape:version="0.92.1 r15371">
  <metadata
     id="metadata8">
    <rdf:RDF>
      <cc:Work
         rdf:about="">
        <dc:format>image/svg+xml</dc:format>
        <dc:type
           rdf:resource="http://purl.org/dc/dcmitype/StillImage" />
        <dc:title></dc:title>
      </cc:Work>
    </rdf:RDF>
  </metadata>
  <defs
     id="defs6" />
  <sodipodi:namedview
     pagecolor="#ffffff"
     bordercolor="#666666"
     borderopacity="1"
     objecttolerance="10"
     gridtolerance="10"
     guidetolerance="10"
     inkscape:pageopacity="0"
     inkscape:pageshadow="2"
     inkscape:window-width="640"
     inkscape:window-height="480"
     id="namedview4"
     showgrid="false"
     inkscape:zoom="0.15181818"
     inkscape:cx="316.81355"
     inkscape:cy="365.0368"
     inkscape:window-x="0"
     inkscape:window-y="27"
     inkscape:window-maximized="0"
     inkscape:current-layer="svg2" />
  <path
     style="fill:#000000"
     d="m 891.8488,708.75257 c -8.1258,-11.75418 -15.2482,-25.06839 -24.81808,-46.39364 -19.7297,-43.96497 -31.82377,-96.94479 -37.18987,-162.91559 -2.73675,-33.64557 -3.6226,-53.14887 -3.84934,-84.74826 -0.12332,-17.18655 -0.56172,-31.24905 -0.97422,-31.25 -0.4125,-9.6e-4 -0.75,0.36718 -0.75,0.81809 0,1.66103 -18.20058,21.26682 -23.35587,25.1591 -4.38579,3.3113 -6.1209,4.02107 -9.83001,4.02107 -6.05751,0 -8.29332,-2.39062 -7.53355,-8.05518 0.30247,-2.25503 1.21118,-4.85262 2.01935,-5.77244 0.9352,-1.06437 1.90475,-6.0351 2.66681,-13.67238 1.0802,-10.82544 3.19303,-25.3221 4.55458,-31.25 0.72209,-3.14381 -0.57508,-2.85088 -8.61693,1.94586 -6.69068,3.9908 -7.22384,4.58946 -10.90966,12.25 -4.75302,9.8786 -10.58066,16.61502 -21.2964,24.61742 -9.72893,7.26547 -27.91204,16.34938 -35.88358,17.9267 -12.30738,2.43525 -22.34562,-2.6086 -25.98837,-13.05822 -1.08022,-3.09871 -1.19435,-3.14675 -6.2134,-2.61552 -2.81213,0.29764 -8.48797,1.06528 -12.61297,1.70586 -10.74098,1.66799 -44.64739,0.76959 -52.5,-1.39107 -17.42895,-4.7956 -33.90739,-17.20338 -42.22989,-31.79787 -10.21305,-17.90978 -14.559,-39.93817 -14.4678,-73.33316 0.10937,-40.0484 6.9631,-71.09955 22.73457,-103 19.07999,-38.59248 53.19196,-67.10352 102.79478,-85.91664 25.44798,-9.651786 41.61504,-12.959946 60.65637,-12.411696 10.94983,0.31527 13.19865,0.68447 18.01197,2.9571 11.56898,5.46234 17.09551,14.844236 17.35588,29.463526 0.15165,8.51536 -0.95504,11.40771 -4.36491,11.40771 -1.54361,0 -1.81633,-1.28127 -2.18169,-10.25 -0.47471,-11.65273 -2.46608,-16.87308 -8.05005,-21.10309 -17.69282,-13.402816 -69.35401,-2.999656 -114.01942,22.96039 -13.82375,8.03453 -21.13038,13.26742 -31.45292,22.52607 -25.81182,23.15155 -43.38669,58.41816 -50.70014,101.73744 -6.74926,39.97739 -3.36087,81.78983 8.59244,106.03014 5.88014,11.92441 17.00601,23.14889 28.20471,28.45466 14.03804,6.65102 17.56795,7.1555 49.37124,7.05592 15.54032,-0.0487 28.47288,-0.30622 28.73903,-0.57236 0.26614,-0.26614 0.92903,-4.72633 1.47309,-9.91153 2.0679,-19.70823 12.97247,-43.24322 25.30172,-54.60793 11.21191,-10.33477 20.60894,-11.18343 30.61394,-2.76477 1.71748,1.44516 5.37772,3.22243 8.13388,3.94949 10.59225,2.79418 17.69438,8.77516 21.47979,18.08896 1.31149,3.22684 2.83,6.01547 3.37448,6.19697 1.13432,0.3781 7.38948,-3.53047 14.53143,-9.08005 9.90776,-7.69872 11.2382,-3.89818 7.19584,20.55581 -2.81633,17.03722 -5.13963,39.52592 -4.18232,40.48324 1.39234,1.39233 17.65372,-16.66285 26.45923,-29.37794 3.38689,-4.89064 4.33159,-7.21359 4.67686,-11.5 0.23796,-2.95428 0.9171,-11.67142 1.5092,-19.37142 4.05229,-52.6986 19.15473,-111.76189 35.91566,-140.46056 6.9943,-11.9759 17.59124,-20.94842 24.82264,-21.01748 6.6466,-0.0635 12.7272,6.7246 14.3681,16.03964 4.2918,24.36541 -13.8488,74.48954 -52.45531,144.9384 -4.97317,9.075 -10.42154,18.45055 -12.1075,20.83455 -3.92111,5.54458 -4.44062,10.84061 -4.52861,46.16545 -0.17642,70.83028 7.60953,145.44838 20.47084,196.18593 3.01962,11.91232 10.26969,34.29561 13.78763,42.56684 1.34444,3.16098 3.87518,9.51559 5.62388,14.12136 1.74867,4.60577 3.58087,9.10577 4.07147,10 0.4906,0.89423 1.9964,4.10087 3.3462,7.12587 1.3498,3.025 3.8962,8.65 5.6586,12.5 3.6429,7.95765 8.0234,19.77502 7.5178,20.28065 -0.1858,0.1858 -1.5229,-1.37634 -2.9712,-3.47142 z M 719.26729,403.22045 c 11.31862,-3.41007 30.54558,-15.4214 39.11007,-24.43256 5.19056,-5.46128 9.81281,-12.34455 8.28959,-12.34455 -0.35843,0 -4.5791,1.57133 -9.37928,3.49184 -26.96213,10.78736 -46.92396,7.81133 -53.60546,-7.99184 l -1.69118,-4 -2.44425,7 c -1.5199,4.35279 -2.65619,10.33628 -3.00468,15.82211 l -0.56044,8.8221 3.39281,-0.51987 c 9.80462,-1.50231 12.01296,-1.62774 11.4074,-0.64793 -0.34794,0.56298 -1.22938,1.02359 -1.95876,1.02359 -0.72938,0 -3.62783,0.74336 -6.44099,1.65191 -5.59478,1.80691 -6.2491,3.25398 -3.70014,8.18311 2.94881,5.70238 10.15937,7.0832 20.58531,3.94209 z m 26.53852,-37.31631 c 4.81924,-1.39656 12.06958,-4.06728 16.11187,-5.93493 6.63569,-3.06588 7.34961,-3.67439 7.34961,-6.26446 0,-1.5778 -1.19107,-5.25889 -2.64682,-8.1802 -3.23856,-6.49894 -8.75859,-10.31054 -17.39159,-12.00899 -11.89005,-2.33922 -29.66349,2.40742 -35.98851,9.61122 -2.56867,2.92556 -2.97308,4.17745 -2.97308,9.20347 0,6.92339 2.64593,11.66154 8.01993,14.36154 5.29113,2.65835 16.75994,2.33008 27.51859,-0.78765 z m 118.93903,-65.4608 c 22.83306,-45.55 33.72596,-78.93478 32.29246,-98.9705 -0.8535,-11.9284 -5.0883,-15.37717 -13.1097,-10.67631 -15.49484,9.08057 -33.67889,58.94608 -43.2377,118.56923 -1.37357,8.56767 -2.74636,21.65258 -3.05064,29.07758 l -0.55323,13.5 9.69388,-17.5 c 5.33164,-9.625 13.41585,-24.925 17.96493,-34 z m -137.62189,27.60441 c 3.10438,-0.76758 6.97087,-1.69849 8.59219,-2.06871 2.27842,-0.52026 2.61905,-0.88112 1.5,-1.5891 -2.65471,-1.67949 -8.224,-0.97481 -12.60999,1.59555 -6.51567,3.81844 -6.06797,4.18513 2.5178,2.06226 z M 504.59987,617.91916 c -35.92096,-9.68029 -50.41408,-34.19105 -47.3347,-80.05247 1.6386,-24.40385 6.87465,-39.0311 23.4193,-65.42335 3.62021,-5.775 6.58233,-11.04888 6.58251,-11.71973 0.002,-6.07465 -7.16554,-43.83831 -8.93881,-47.09881 -0.47611,-0.87543 -2.02306,0.91454 -4.60315,5.3263 -2.18643,3.73863 -7.03114,9.63237 -11.07707,13.47561 -6.11249,5.80627 -8.01197,7.01448 -12.66476,8.05573 -5.06318,1.13309 -5.77086,1.05798 -9.43489,-1.00132 -6.25861,-3.51754 -7.67322,-6.85023 -8.11187,-19.1109 -0.44825,-12.52887 1.99722,-31.11827 5.01717,-38.13834 2.73849,-6.36579 8.27678,-11.19983 15.10604,-13.18515 9.26811,-2.69431 20.13316,-1.90825 21.03005,1.52149 0.9417,3.60104 -1.84317,4.88437 -10.25245,4.72456 -12.71602,-0.24166 -18.58007,4.05819 -21.05284,15.43711 -1.73319,7.97561 -3.00111,20.33181 -3.00952,29.32859 -0.006,6.70301 0.35306,8.57364 2.06499,10.75 2.7118,3.4475 7.58589,3.50682 12.89248,0.15692 8.31383,-5.24829 20.03494,-22.65113 20.03494,-29.74673 0,-1.80493 -0.9,-6.42883 -2,-10.27533 -2.3571,-8.24234 -2.48892,-10.84934 -0.62675,-12.39481 2.0448,-1.69703 4.08339,-0.462 6.08878,3.68877 3.463,7.16773 13.27619,48.46839 15.07739,63.45604 0.38006,3.1625 0.97668,5.74693 1.3258,5.74317 0.69977,-0.008 1.86571,-1.69576 11.59595,-16.79024 3.65075,-5.66339 6.88642,-10.94516 7.19038,-11.73727 0.34093,-0.88844 -2.45557,-4.66046 -7.29945,-9.84576 -13.45128,-14.39938 -22.29251,-31.69163 -26.39237,-51.6199 -2.94834,-14.331 -2.34889,-33.95365 1.46633,-48 7.80751,-28.7446 26.30405,-49.09537 44.69557,-49.17619 8.49225,-0.0373 13.87955,2.2714 19.25718,8.25263 5.22629,5.81289 8.97585,15.23335 11.25647,28.281 2.09998,12.01413 1.34504,34.74321 -1.51946,45.74651 -3.43872,13.20909 -16.8908,46.62138 -26.17447,65.01224 -1.69144,3.35072 -2.84212,6.7 -2.55707,7.44284 0.68566,1.7868 7.28306,5.10034 11.86736,5.96036 4.1564,0.77974 4.22603,0.64752 5.10567,-9.69432 1.22543,-14.40729 12.18208,-27.82507 22.7213,-27.82507 7.02743,0 8.32786,1.71673 7.55987,9.97997 -1.1783,12.67805 -6.48882,23.48386 -14.7506,30.01442 -2.65861,2.10151 -5.39687,4.00861 -6.08502,4.23799 -2.15656,0.71885 1.88518,14.83423 7.28371,25.43765 6.25188,12.27951 10.9927,18.61163 22.3905,29.9061 9.39077,9.30563 17.53296,15.7341 32.61137,25.74752 12.54412,8.33043 16.47764,13.0502 8.82372,10.58747 -20.16773,-6.4892 -51.14968,-30.72617 -64.32027,-50.31732 -6.04009,-8.98458 -11.73811,-20.52941 -13.49571,-27.3438 -3.37213,-13.07409 -2.96249,-12.25 -6.08924,-12.25 -1.60378,0 -5.97393,-1.15451 -9.71145,-2.56558 -3.73752,-1.41107 -7.4776,-2.786 -8.31129,-3.05539 -1.32537,-0.42827 -10.95951,13.29542 -24.26655,34.56736 -1.68882,2.69965 -1.70173,3.78603 -0.24602,20.70139 1.68938,19.63049 1.95791,22.03031 4.17963,37.35222 2.24041,15.45084 6.39033,31.04635 15.35552,57.70642 5.59007,16.62338 7.99322,25.21632 7.99322,28.58131 0,11.10744 -6.41829,14.75857 -19.66742,11.18809 z m 12.46614,-10.0462 c 0.22043,-3.0035 -1.93514,-10.75177 -8.22397,-29.56145 -12.10205,-36.19679 -15.07816,-49.75771 -18.24322,-83.12688 -1.10076,-11.60532 -2.17056,-18.63685 -2.8054,-18.43914 -2.02057,0.62926 -12.57551,19.38675 -16.4806,29.28818 -2.18878,5.54968 -4.66944,14.04613 -5.51257,18.88099 -1.76086,10.09755 -2.02229,32.84239 -0.48881,42.52868 2.76712,17.47869 11.60867,30.19323 26.13353,37.58114 7.18706,3.65563 18.98253,7.44263 22.32232,7.16671 2.74485,-0.22677 3.02541,-0.59404 3.29872,-4.31823 z m 39.09955,-188.96654 c 1.708,-1.9453 4.24672,-5.78909 5.64159,-8.54175 2.48641,-4.90668 4.66979,-13.37835 3.69834,-14.3498 -0.9048,-0.9048 -5.97059,2.32172 -8.65611,5.51328 -3.52068,4.1841 -5.46055,9.02973 -6.22759,15.55602 -0.77626,6.60476 0.86965,7.14578 5.54377,1.82225 z m -31.03038,-18.42415 c 12.79725,-26.86244 21.06428,-48.7111 23.67566,-62.57162 3.19228,-16.94373 0.65505,-41.34907 -5.64075,-54.25777 -7.39772,-15.16806 -22.85398,-15.79748 -37.53562,-1.52856 -7.76426,7.54599 -13.89626,19.21964 -18.11812,34.49193 -2.72065,9.84173 -2.3774,38.49261 0.59096,49.32709 2.66939,9.74327 7.62315,20.40519 13.6237,29.32215 4.60713,6.8463 14.80578,18.17785 16.36048,18.17785 0.47797,0 3.64763,-5.83248 7.04369,-12.96107 z M 134.59369,511.39896 c -7.62543,-1.50777 -14.13409,-5.79881 -16.92142,-11.15596 -0.84809,-1.63001 -1.40498,-5.72586 -1.40498,-10.33341 0,-13.83793 7.50568,-28.05542 22.94749,-43.46785 9.2188,-9.20125 24.24414,-19.7994 35.36267,-24.9431 9.03465,-4.17965 11.69084,-5.1527 11.68487,-4.28055 -0.0131,1.91551 -5.48275,6.58305 -15.49503,13.22277 -23.86716,15.82771 -39.92222,33.29039 -45.49269,49.48124 -3.13013,9.09787 -2.25139,19.32341 1.81256,21.09211 3.52464,1.53397 5.02447,1.71871 17.18013,2.11612 10.349,0.33834 14.651,-0.0119 25,-2.03558 31.53386,-6.16611 73.69506,-19.03362 107,-32.65619 9.625,-3.93687 20.51056,-8.30159 24.19013,-9.69937 3.67957,-1.39778 6.9275,-3.16001 7.21763,-3.91607 0.29013,-0.75606 1.2147,-8.4633 2.05461,-17.12721 0.83991,-8.66392 2.7027,-26.46684 4.13954,-39.56207 1.43684,-13.09522 2.35995,-24.06197 2.05136,-24.37056 -1.71225,-1.71225 -29.45953,-6.72206 -45.65327,-8.24276 -6.325,-0.59396 -25.8669,-1.76656 -43.42644,-2.60579 -46.43892,-2.21945 -62.98865,-5.08705 -80.56846,-13.96023 -17.95851,-9.06434 -28.92683,-22.26846 -34.06977,-41.01463 -1.89974,-6.92462 -2.11425,-9.73019 -1.71686,-22.45493 0.40783,-13.05899 0.78195,-15.51019 3.66939,-24.0416 4.47989,-13.23659 9.35116,-22.71001 17.43076,-33.89851 18.98274,-26.28701 39.04052,-46.18471 69.58577,-69.0304 23.63521,-17.67747 33.72367,-22.28092 57.09561,-26.05318 15.62663,-2.52216 17,-2.53613 17,-0.1729 0,3.82262 -3.56135,5.35961 -17.96064,7.75134 -19.52176,3.24259 -31.07364,8.16937 -47.03936,20.06193 -3.575,2.66295 -7.67418,5.59811 -9.10929,6.52258 -1.43512,0.92447 -4.62641,3.39947 -7.09178,5.5 -2.46536,2.10053 -6.44584,5.39414 -8.84551,7.31914 -11.72492,9.40564 -25.20738,22.87925 -34.48169,34.45905 -2.18445,2.72748 -4.69735,5.7031 -5.58422,6.61249 -3.05302,3.13055 -14.63858,21.44292 -18.6183,29.42846 -9.83701,19.73851 -12.43567,38.97858 -7.74017,57.30691 5.79632,22.62523 26.00242,37.7421 58.47096,43.74411 11.80314,2.18189 21.23622,2.93994 68,5.46455 29.42446,1.58852 47.24013,3.81608 69.62145,8.70503 1.78992,0.39099 2.23338,-0.13326 2.83772,-3.35462 0.39394,-2.09992 0.58465,-15.59669 0.42379,-29.99283 -0.31474,-28.16757 -0.11892,-29.37315 4.77087,-29.37315 2.96291,0 4.1836,2.66264 1.97044,4.29804 -1.45745,1.07698 -1.51471,2.60569 -0.55067,14.70196 0.61849,7.76049 0.79342,20.53055 0.41144,30.03669 l -0.66446,16.53669 6.33971,2.62902 c 4.81829,1.9981 6.61523,2.34927 7.48778,1.46331 0.63144,-0.64114 3.97452,-7.84825 7.42907,-16.01581 3.45454,-8.16755 6.87541,-15.0782 7.60192,-15.35699 0.72652,-0.27879 1.32094,-1.07864 1.32094,-1.77745 0,-0.69882 0.68344,-1.83778 1.51876,-2.53103 1.24134,-1.03022 1.86977,-0.94279 3.44044,0.47865 4.37874,3.9627 7.91156,22.13714 10.69685,55.02952 0.95255,11.24902 1.92415,20.26054 2.15909,20.02559 0.23495,-0.23494 1.28448,-5.70656 2.33229,-12.15916 1.04782,-6.45259 2.62053,-14.23557 3.49491,-17.2955 4.23114,-14.80696 14.18538,-29.90472 18.10785,-27.46447 5.07218,3.15551 8.48237,13.67332 13.74768,42.40094 6.00483,32.76249 10.57472,45.37298 19.19114,52.95746 4.78825,4.21479 5.49279,4.50228 13.6209,5.5582 5.19526,0.67491 5.74363,2.11111 1.61112,4.2196 -6.99215,3.56753 -19.00951,-0.76039 -25.02825,-9.01365 -7.56657,-10.37574 -10.35738,-19.1119 -17.85951,-55.9062 -2.76817,-13.57653 -5.51671,-25.95153 -6.10786,-27.5 -1.05395,-2.76074 -1.10467,-2.77657 -2.61204,-0.81541 -7.5055,9.765 -13.31337,37.95562 -13.31337,64.62132 0,7.56166 -0.43886,14.90278 -0.97525,16.31358 -1.04313,2.74363 -4.10198,3.44396 -5.74402,1.3151 -1.91417,-2.48167 -4.24814,-9.79393 -5.25183,-16.45385 -0.56332,-3.73788 -1.28107,-8.31412 -1.595,-10.16943 l -0.57078,-3.37327 -3.50917,5.37327 c -1.93005,2.95531 -5.38675,7.32771 -7.68156,9.71645 -3.93704,4.09819 -22.28023,16.90496 -29.46535,20.57201 -4.18513,2.13595 -4.81149,3.89281 -6.71265,18.82815 -1.9704,15.47933 -3.04519,19.4459 -5.64631,20.83797 -1.65045,0.8833 -2.41959,0.77465 -3.71474,-0.52475 -1.352,-1.35643 -1.63334,-4.00005 -1.63334,-15.34762 0,-11.59273 -0.23155,-13.68334 -1.5,-13.54316 -0.825,0.0912 -6.225,2.27119 -12,4.84447 -25.23464,11.24431 -54.31147,21.31861 -92,31.8754 -31.29273,8.76529 -54.15051,12.04617 -66.6736,9.56998 z m 198.43143,-70.70562 c 21.1328,-14.04323 28.4279,-25.21951 24.74063,-37.90328 -1.34511,-4.62702 -2.84854,-6.88198 -8.06885,-12.10229 -3.52865,-3.52865 -6.96701,-6.23196 -7.64081,-6.00736 -4.2078,1.4026 -22.02996,61.76293 -18.2363,61.76293 0.30388,0 4.44628,-2.5875 9.20533,-5.75 z m -12.88078,-17 c 0.73251,-3.1625 4.20983,-13.81832 7.72739,-23.6796 3.51756,-9.86128 6.39513,-18.41128 6.39461,-19 -0.001,-1.29908 -10.24717,-5.66047 -11.11167,-4.72986 -0.33694,0.3627 -1.58576,10.78446 -2.77516,23.15946 -1.18941,12.375 -2.38155,24.1875 -2.6492,26.25 -0.75448,5.81379 0.92683,4.42084 2.41403,-2 z m 41.75477,-40.50096 c -0.97555,-15.08945 -4.05381,-33.74904 -5.56754,-33.74904 -0.43666,0 -3.37804,6.14259 -6.5364,13.6502 -4.85083,11.53074 -5.50722,13.78186 -4.22741,14.49808 3.95378,2.21264 11.4606,8.88144 13.70307,12.17333 1.37305,2.0156 2.67524,3.6678 2.89374,3.67156 0.21851,0.004 0.099,-4.6061 -0.26546,-10.24413 z m 430.36818,-61.69772 c -6.02533,-3.20253 -7.98904,-6.12983 -9.16074,-13.65586 -1.67184,-10.73859 -0.69166,-20.509 2.54872,-25.40555 3.26875,-4.93942 7.98747,-7.98115 12.38915,-7.98617 5.0884,-0.006 16.66266,6.60288 22.22709,12.69126 11.39629,12.46936 8.12514,26.72552 -7.78273,33.91831 -6.57367,2.9723 -15.1057,3.15711 -20.22149,0.43801 z m 17.65547,-9.86801 c 8.05008,-4.12146 10.37791,-10.33604 6.34764,-16.94622 -2.48361,-4.07345 -6.45443,-5.81021 -15.88711,-6.9487 l -7.384,-0.89122 -1.48179,3.54641 c -2.09454,5.01294 -1.24742,17.2438 1.44399,20.84865 3.38102,4.5285 8.64302,4.64983 16.96127,0.39108 z M 301.76729,267.21191 c -17.77459,-6.36057 -26.70058,-32.29827 -14.93385,-43.39573 3.87207,-3.65183 10.26903,-4.99579 18.43385,-3.87284 3.99069,0.54886 5,1.06861 5,2.57479 0,2.27082 -3.72749,3.42971 -8.1722,2.54077 -4.31878,-0.86376 -10.54649,1.02548 -12.32424,3.73867 -2.19855,3.3554 -2.95399,10.96593 -1.57645,15.88147 1.86933,6.67043 7.14052,13.12079 13.18277,16.13177 7.02812,3.50226 11.16241,3.46682 13.70371,-0.11747 5.03519,-7.10173 7.86974,-22.99568 6.24194,-35 -0.89836,-6.62496 -1.48201,-8.14293 -4.02059,-10.45675 -2.66891,-2.43261 -3.50471,-2.65027 -8.25231,-2.14905 -5.85012,0.6176 -17.1322,4.16853 -23.24407,7.31585 -7.26984,3.74361 -8.83278,2.09673 -2.78856,-2.93834 2.0625,-1.71814 7.4307,-4.95871 11.92934,-7.20127 6.50903,-3.24473 9.57219,-4.16735 15,-4.51799 8.8199,-0.56977 12.79952,1.45099 16.32066,8.28726 2.29037,4.44674 2.5,5.94618 2.5,17.88201 0,16.89392 -2.46304,25.75447 -8.96716,32.2586 -4.00296,4.00296 -4.60586,4.26475 -9.65126,4.19073 -2.95987,-0.0434 -6.73158,-0.56204 -8.38158,-1.15248 z"
     id="path12"
     inkscape:connector-curvature="0" />
</svg>
