<?xml version="1.0" encoding="UTF-8" standalone="no"?>
<!-- Created with Inkscape (http://www.inkscape.org/) -->

<svg
   xmlns:dc="http://purl.org/dc/elements/1.1/"
   xmlns:cc="http://creativecommons.org/ns#"
   xmlns:rdf="http://www.w3.org/1999/02/22-rdf-syntax-ns#"
   xmlns:svg="http://www.w3.org/2000/svg"
   xmlns="http://www.w3.org/2000/svg"
   xmlns:sodipodi="http://sodipodi.sourceforge.net/DTD/sodipodi-0.dtd"
   xmlns:inkscape="http://www.inkscape.org/namespaces/inkscape"
   version="1.1"
   id="svg2"
   width="1100"
   height="750"
   viewBox="0 0 1100 750"
   sodipodi:docname="Signature_1.svg"
   inkscape:version="0.92.1 r15371">
  <metadata
     id="metadata8">
    <rdf:RDF>
      <cc:Work
         rdf:about="">
        <dc:format>image/svg+xml</dc:format>
        <dc:type
           rdf:resource="http://purl.org/dc/dcmitype/StillImage" />
        <dc:title></dc:title>
      </cc:Work>
    </rdf:RDF>
  </metadata>
  <defs
     id="defs6" />
  <sodipodi:namedview
     pagecolor="#ffffff"
     bordercolor="#666666"
     borderopacity="1"
     objecttolerance="10"
     gridtolerance="10"
     guidetolerance="10"
     inkscape:pageopacity="0"
     inkscape:pageshadow="2"
     inkscape:window-width="1366"
     inkscape:window-height="692"
     id="namedview4"
     showgrid="false"
     inkscape:zoom="0.60727272"
     inkscape:cx="650.38561"
     inkscape:cy="523.58324"
     inkscape:window-x="0"
     inkscape:window-y="27"
     inkscape:window-maximized="1"
     inkscape:current-layer="svg2" />
  <path
     style="fill:#000000;stroke-width:0.32313624"
     d="m 159.79396,701.32772 c -5.65667,-1.25361 -10.29863,-3.97876 -12.25058,-7.19206 -2.4339,-4.00655 -4.66683,-10.90054 -5.35034,-16.51847 -0.54144,-4.45042 -0.42961,-33.61606 0.1475,-38.46372 2.69296,-22.6205 19.8721,-51.81583 42.01177,-71.39752 3.60414,-3.18781 6.17348,-5.18375 6.67278,-5.18375 0.15106,0 0.27453,6.43446 0.27441,14.29878 v 14.29879 l -0.91842,1.93877 c -1.31175,2.76928 -4.56865,7.46106 -10.1887,14.6777 -9.41562,12.09049 -14.65603,19.96985 -19.47476,29.28175 -4.03956,7.80616 -6.41827,13.55713 -8.31239,20.09694 l -0.4898,1.69107 1.11175,2.22227 c 1.44385,2.88606 3.46372,5.04613 5.15136,5.50885 3.00524,0.82409 6.45345,0.25625 17.12623,-2.82049 13.94356,-4.01952 18.21185,-5.86403 32.45387,-14.0249 30.65483,-17.56567 64.38134,-41.26483 95.34651,-66.9987 5.06518,-4.20944 11.86785,-9.83157 15.1171,-12.49368 4.2873,-3.51252 5.86189,-4.98543 5.74064,-5.37 -0.23586,-0.74813 -1.90235,-8.21561 -6.31992,-28.31964 -4.43051,-20.16289 -5.84153,-26.29805 -7.00574,-30.46086 -0.73944,-2.64401 -0.93556,-3.01895 -1.67606,-3.20482 -1.99048,-0.4996 -20.57026,1.73733 -34.292,4.12853 -13.09827,2.28257 -26.60501,5.55701 -57.8414,14.0223 -42.84522,11.61142 -59.76681,14.74755 -77.06799,14.28299 -27.64148,-0.74226 -46.505316,-10.07553 -60.814384,-30.08934 -4.309666,-6.02792 -6.123651,-10.1227 -9.663791,-21.81473 -2.612127,-8.62706 -3.83377,-13.5694 -4.326276,-17.50265 -0.605516,-4.83575 -0.25447,-45.71359 0.438165,-51.02221 1.207911,-9.25791 3.010453,-16.84304 6.488787,-27.305 10.659154,-32.06011 24.250466,-57.92629 47.626349,-90.63971 13.15216,-18.40584 21.51671,-27.3723 32.53033,-34.87122 7.83864,-5.33715 26.84688,-15.29544 31.61918,-16.56507 1.50019,-0.39911 1.5939,-0.38447 2.18117,0.34079 0.58281,0.71974 0.61366,1.50166 0.61366,15.56116 v 14.80336 l -1.06426,1.39845 c -1.4373,1.88863 -6.22138,5.02739 -13.47687,8.84195 -7.80357,4.1027 -11.24269,6.11289 -16.15682,9.44374 -5.28764,3.584 -7.75452,5.59242 -12.39762,10.09348 -5.89243,5.71219 -10.70806,11.72594 -23.14737,28.90641 -2.98656,4.12488 -13.12129,19.95554 -16.97326,26.51263 -3.18156,5.41581 -9.567942,17.75087 -12.129376,23.42736 -2.699947,5.98346 -8.99027,21.51998 -10.204692,25.20462 -2.144444,6.50645 -5.92504,21.95469 -7.196215,29.40513 -0.571167,3.34761 -0.585617,3.88852 -0.167596,6.27498 2.622225,14.97022 9.627914,28.94569 18.991481,37.88561 9.726808,9.28671 22.055438,14.47969 38.666298,16.28664 5.65638,0.61524 17.68507,0.45639 24.6116,-0.32518 13.26741,-1.49696 23.46356,-3.76633 59.08068,-13.14975 33.78108,-8.8996 39.10835,-10.20268 53.31748,-13.04164 10.02359,-2.0027 16.34401,-3.04521 26.09418,-4.30396 3.24399,-0.41878 5.9711,-0.83436 6.06021,-0.92348 0.0891,-0.0891 -1.52187,-5.02057 -3.58002,-10.95878 -2.05815,-5.93821 -4.49341,-13.19603 -5.41167,-16.12849 l -1.66958,-5.33175 -0.0973,-15.69126 c -0.0956,-15.42079 -0.0858,-15.70585 0.5673,-16.5361 0.78718,-1.00076 3.47606,-1.97914 4.63782,-1.68754 1.63263,0.40977 1.83054,0.98998 1.93324,5.66764 l 0.0952,4.3352 2.35468,5.4933 c 5.00466,11.6756 9.03655,23.24211 13.78898,39.55735 1.67819,5.76125 3.09336,10.51714 3.14481,10.56862 0.26668,0.26668 9.36042,0.81665 11.89188,0.71923 2.37515,-0.0914 3.01256,-0.22415 3.36021,-0.69982 0.73287,-1.00271 1.15217,-4.28549 2.91729,-22.84036 0.69648,-7.32117 1.66511,-13.15565 2.38305,-14.35413 0.32778,-0.54716 0.61425,-1.61845 0.63659,-2.38067 0.0502,-1.71072 0.79382,-3.2133 1.82232,-3.68194 1.16554,-0.53105 3.9152,0.93427 5.96816,3.18056 5.7753,6.31908 13.76866,21.19575 25.06089,46.64157 l 5.80768,13.08703 0.19427,-16.15681 c 0.20663,-17.18342 0.42756,-20.12696 2.04943,-27.30502 1.5177,-6.71715 4.04641,-12.02355 6.06852,-12.73471 2.08003,-0.73151 5.87255,1.64206 9.60517,6.01145 4.53116,5.30407 9.66975,13.40246 19.23389,30.3122 11.82077,20.89957 17.96421,30.42085 24.37678,37.77985 1.83676,2.10792 7.00106,6.81292 7.47792,6.81292 0.14386,0 -0.3868,-1.92664 -1.17922,-4.2815 -2.8078,-8.3437 -5.4727,-20.66745 -6.28058,-29.04456 -0.22451,-2.32791 -0.30961,-9.64899 -0.23239,-19.99139 0.1362,-18.23848 0.0904,-17.82587 2.5357,-22.81445 1.57859,-3.22033 4.3947,-6.62203 7.30501,-8.82399 4.12326,-3.11973 12.38863,-6.75335 16.70874,-7.34548 1.22029,-0.16725 1.47755,-0.30973 1.31316,-0.72728 -1.74457,-4.43133 -4.43971,-14.6799 -5.48837,-20.87018 -1.26648,-7.47605 -1.54218,-14.40655 -1.35561,-34.0784 0.14594,-15.38854 0.25015,-18.20523 0.81973,-22.15397 2.36257,-16.37918 7.75382,-28.83661 16.11473,-37.23591 6.09715,-6.12513 13.09165,-9.33439 21.14775,-9.70315 2.5016,-0.11452 4.08746,-0.0126 5.81645,0.37356 5.33889,1.19262 10.96719,4.48999 15.71625,9.20752 2.66045,2.64278 7.35268,8.54402 9.09882,11.44331 0.40701,0.6758 0.7978,1.17097 0.86845,1.10035 0.0706,-0.0706 -0.30697,-1.95016 -0.83913,-4.17677 -3.16118,-13.22768 -4.97102,-24.53729 -6.00046,-37.49717 -0.7298,-9.1872 -0.52135,-55.24109 0.28481,-62.92781 2.1479,-20.48026 5.62724,-34.99247 12.16324,-50.73239 11.73586,-28.26204 31.64952,-53.79966 61.11824,-78.378889 15.76755,-13.151418 30.46784,-23.076609 43.02982,-29.052578 7.84,-3.729629 20.02857,-7.949176 28.64894,-9.917948 7.15654,-1.63445 16.17386,-0.378992 22.58361,3.144226 6.81279,3.744781 11.41738,9.431526 15.02564,18.556859 2.84238,7.188361 2.80065,6.833361 2.80065,23.827431 0,16.636129 0.0153,16.509279 -2.10376,17.394689 -2.07842,0.86841 -2.41538,0.39241 -6.00399,-8.481629 -4.8271,-11.93659 -7.57704,-15.71125 -13.3808,-18.36666 -19.09124,-8.73483 -60.40705,10.62269 -97.66024,45.756389 -11.03381,10.40602 -23.45596,24.37355 -29.9113,33.63243 -16.20524,23.24311 -24.78918,46.15226 -28.00951,74.75291 -0.77744,6.9044 -0.80287,9.03132 -0.18797,15.7139 4.65234,50.56168 26.02298,102.36824 50.74973,123.02736 8.3944,7.01352 20.59837,12.95367 30.53637,14.86324 8.17735,1.57124 18.10165,1.93913 23.91209,0.8864 7.96406,-1.44294 23.15654,-6.02982 48.38967,-14.60977 l 10.09796,-3.43359 v -18.81281 c 0,-22.81476 0.31991,-27.23897 2.75817,-38.1432 2.93362,-13.11974 9.09295,-24.58241 15.92801,-29.64247 5.78015,-4.27912 11.97365,-4.89542 20.39874,-2.02984 3.52006,1.19724 5.84238,1.51632 10.83125,1.48821 7.01289,-0.0395 10.78811,0.5641 15.93012,2.54706 4.09798,1.58035 7.18322,3.84145 12.22136,8.95673 2.96227,3.00763 4.78905,4.62388 5.22618,4.62388 0.36961,0 1.11346,-0.37147 1.65304,-0.8255 1.21224,-1.02001 5.20814,-5.77949 5.20814,-6.20334 0,-0.17042 -0.91759,-0.39554 -2.03915,-0.50026 -4.62331,-0.43173 -8.51832,-2.44187 -11.21307,-5.78684 -2.81514,-3.49439 -6.67513,-11.90242 -8.25934,-17.99092 -1.31927,-5.07039 -1.48235,-7.91582 -1.37249,-23.94945 l 0.10295,-15.02583 0.90155,-2.5496 c 1.14879,-3.24885 2.17678,-4.99061 4.2972,-7.28091 4.10088,-4.42946 8.83943,-5.09205 19.49577,-2.72611 8.88279,1.97218 15.0232,5.0419 19.90443,9.95073 2.93693,2.9535 4.76683,6.1392 5.50552,9.58455 0.56376,2.6293 0.66385,30.95402 0.11892,33.63981 -1.11811,5.51066 -4.79665,11.36445 -9.71192,15.45499 -1.01924,0.84822 -1.80453,1.59299 -1.74513,1.65506 0.30992,0.32385 1.99443,8.82726 3.55269,17.9342 3.53628,20.66695 7.808,39.78912 9.13444,40.88998 0.41353,0.34319 0.6436,0.22858 1.43628,-0.71533 2.49325,-2.969 10.74968,-21.42434 13.96588,-31.21755 l 0.54435,-1.65754 -1.44994,-5.77458 c -8.46396,-33.70877 -13.11421,-63.91403 -14.89322,-96.73745 -0.66989,-12.35961 -0.66768,-53.79238 0.004,-63.8194 1.07795,-16.10658 2.95747,-26.66242 6.16764,-34.63928 3.72549,-9.25744 9.14661,-16.410289 14.18812,-18.720419 4.76365,-2.18282 10.62714,-0.68166 15.70665,4.02116 3.01244,2.78906 4.79252,5.364559 6.76076,9.781889 2.98987,6.71025 4.89162,14.8519 6.16271,26.38294 0.59128,5.36425 0.68837,8.73317 0.84027,29.16895 0.22045,29.64685 -0.29701,41.43575 -2.83675,64.62724 -2.3799,21.73155 -8.21751,58.31099 -12.56389,78.72775 l -1.2569,5.90423 1.75994,5.75053 c 2.79955,9.14736 11.80224,35.8063 15.98496,47.33502 22.18319,61.14257 48.86214,118.03953 75.13569,160.23844 9.29915,14.93571 23.35619,33.99261 34.42771,46.67338 2.01938,2.31288 5.8528,6.81689 8.51865,10.00889 2.66591,3.192 6.73742,7.77318 9.04778,10.18041 15.20767,15.84467 24.98027,26.8752 27.92687,31.52134 l 0.9939,1.56726 v 13.34692 c 0,11.2225 -0.072,13.34684 -0.4523,13.34684 -0.6272,0 -3.1321,-1.72733 -7.9153,-5.45855 -17.01271,-13.27081 -40.51553,-37.55956 -58.03586,-59.97655 -27.95653,-35.76979 -51.85705,-78.47623 -76.67738,-137.00973 -11.05304,-26.06636 -17.53758,-42.98523 -28.11374,-73.35193 -7.4343,-21.34561 -11.30609,-31.66734 -11.8787,-31.66734 -0.15881,0 -0.38869,0.58165 -0.51083,1.29253 -0.3137,1.82572 -1.41568,4.63237 -4.50939,11.48534 -7.21047,15.97198 -12.11229,24.21356 -15.97276,26.85565 -3.25828,2.22994 -9.01402,3.08572 -11.03902,1.64134 -2.61714,-1.86675 -3.32365,-4.71346 -3.33014,-13.41788 l -0.005,-6.39543 -1.77475,-8.30726 c -2.29133,-10.72544 -3.85691,-19.17851 -4.86007,-26.24131 -1.02765,-7.23525 -0.99573,-7.10901 -1.79688,-7.10901 -0.81149,0 -3.66501,2.67971 -7.22599,6.78586 -5.16899,5.96033 -5.6313,6.9548 -6.81776,14.66652 -2.05137,13.33325 -5.28711,21.21343 -13.3,32.39059 -6.4993,9.06589 -18.81985,21.68819 -27.2255,27.89239 -8.62987,6.36972 -18.11207,8.1343 -26.19517,4.87472 -3.28205,-1.32349 -5.63735,-3.15099 -9.07766,-7.04339 -1.21233,-1.37162 -1.68854,-1.69084 -2.5226,-1.69084 -1.30649,0 -4.66094,1.39529 -12.78602,5.31849 -3.5545,1.71631 -8.06225,3.75251 -10.01721,4.52493 -11.10523,4.38774 -33.51711,10.95905 -43.59914,12.78355 -4.02748,0.72882 -11.94856,0.86812 -16.82736,0.29591 -11.74922,-1.37796 -23.62342,-5.30199 -32.67711,-10.79864 -1.31074,-0.79573 -2.38315,-1.37311 -2.38315,-1.283 0,0.0901 0.39913,2.0137 0.88701,4.2746 l 0.88696,4.11075 0.003,19.38818 c 0,18.97634 -0.0138,19.45865 -0.73257,22.70522 -0.40383,1.82441 -1.07727,4.26225 -1.49657,5.41745 l -0.76242,2.10037 2.43999,2.82253 c 4.57276,5.28977 11.79709,11.99881 17.51498,16.26565 4.85783,3.62504 11.02014,7.23458 19.55259,11.45273 13.38711,6.61819 21.85405,9.75249 40.88934,15.13661 11.96049,3.38299 17.22043,5.25123 18.71473,6.64713 l 0.98397,0.91919 v 13.21876 c 0,10.90626 -0.0802,13.32844 -0.45865,13.84598 -1.22686,1.67787 -15.1921,0.48319 -26.86571,-2.2983 -20.70849,-4.93422 -42.8912,-14.33795 -57.17577,-24.23791 -7.56129,-5.24047 -17.89841,-14.78205 -23.08391,-21.30742 -1.07378,-1.35124 -3.46379,-4.7395 -5.31117,-7.5293 -1.84733,-2.78996 -3.80143,-5.48954 -4.34239,-5.99929 -1.06659,-1.00492 -1.17832,-1.0095 -5.06947,-0.2061 -1.37714,0.28434 -4.39409,0.3564 -10.4141,0.24862 -7.54401,-0.13504 -8.52759,-0.0938 -8.95159,0.37464 -1.08865,1.20292 -3.95734,9.77172 -7.43403,22.20509 l -1.81982,6.50812 3.36472,7.70991 c 6.64147,15.21821 9.05978,20.43211 14.43253,31.1167 9.86989,19.6278 16.02743,29.08694 37.66599,57.86191 10.27113,13.65851 15.54047,21.16109 17.04909,24.27486 1.78388,3.68175 1.83099,4.23814 1.83099,21.62672 v 16.03734 l -0.95923,1.90961 c -1.4702,2.92698 -4.17999,4.73377 -8.96186,5.97547 -4.0816,1.05988 -13.98935,1.44826 -20.73299,0.81256 -22.08323,-2.08159 -37.46528,-11.75179 -48.78981,-30.67267 -8.02683,-13.41119 -14.80779,-34.09826 -17.40193,-53.08921 -0.49469,-3.62161 -0.56929,-6.95475 -0.57418,-25.65106 -0.004,-15.92765 0.10576,-22.40837 0.42467,-25.04306 0.75646,-6.24928 1.62989,-11.44792 3.17365,-18.88921 l 1.5054,-7.25633 -1.71753,-3.24559 c -5.224,-9.87157 -15.7446,-27.91592 -18.15295,-31.13487 -0.7058,-0.94332 -1.45397,-1.65993 -1.66258,-1.5923 -0.61931,0.20052 -1.37785,2.12365 -2.26043,5.73105 -2.52094,10.30354 -9.18805,24.02716 -13.64149,28.07974 l -1.11892,1.0182 v 10.67107 10.671 l -1.61867,1.61872 c -3.15906,3.15902 -7.99802,4.6698 -14.05345,4.38752 -8.2054,-0.3825 -14.54659,-3.48191 -22.25685,-10.8787 -7.17079,-6.87918 -12.74562,-15.13967 -30.09867,-44.59812 -14.0681,-23.88212 -16.6825,-27.87055 -17.64086,-26.91219 -0.19591,0.19591 -0.62715,1.33322 -0.95826,2.52734 -0.66322,2.39175 -0.60159,3.33818 0.70411,10.81313 1.77632,10.16904 3.98136,18.97027 7.58996,30.29445 1.34496,4.22074 2.94313,9.607 3.55147,11.96949 l 1.10615,4.29547 v 14.38169 c 0,15.46583 -0.0116,15.58087 -1.68575,16.75349 -3.52664,2.4702 -8.71174,-3.43986 -17.20885,-19.61475 -2.34682,-4.46737 -4.28423,-7.80494 -4.40169,-7.58273 -0.11542,0.21823 -0.6079,1.92297 -1.09442,3.78839 -1.94464,7.45579 -4.5473,13.86583 -7.41842,18.27053 -4.0897,6.27416 -12.93899,17.80276 -17.98692,23.43275 l -2.55624,2.85102 0.72917,4.1399 c 0.69555,3.94907 0.72917,4.92957 0.72917,21.26613 0,16.64334 -0.0187,17.15783 -0.65772,18.2458 -0.36175,0.61577 -1.12706,1.3936 -1.70071,1.7287 -1.03577,0.60494 -1.05368,0.60387 -2.57366,-0.15014 -1.33764,-0.66356 -1.68459,-1.06492 -2.75148,-3.18285 -0.67146,-1.33292 -2.65208,-6.58636 -4.40141,-11.67431 -3.4128,-9.92638 -4.71777,-12.97442 -5.62998,-13.15014 -0.60712,-0.11686 -4.02952,2.55096 -9.9132,7.72762 -24.52637,21.57909 -48.27603,39.44024 -82.5613,62.09089 -27.70045,18.3003 -46.6805,28.20995 -61.55747,32.13979 -3.888,1.02705 -4.88938,1.16438 -9.20938,1.26292 -3.54044,0.0807 -5.4568,-0.0244 -7.10901,-0.39082 z m 421.80053,-50.14735 c -0.0592,-0.13992 -3.17307,-4.32051 -6.91962,-9.29022 -22.64192,-30.034 -29.80197,-41.91701 -43.50917,-72.20894 -4.28558,-9.4709 -8.24276,-17.58376 -9.30313,-19.07286 -1.03166,-1.44887 -1.35186,-1.05392 -2.62583,3.23918 -1.60963,5.42412 -4.51064,20.75851 -4.5199,23.89174 -0.0177,5.9502 7.86135,31.36669 12.98354,41.88304 3.50233,7.19054 8.76413,14.30833 13.90779,18.81341 9.73061,8.52261 21.55258,12.68549 36.75494,12.9425 1.83652,0.0313 3.29063,-0.058 3.23138,-0.19785 z M 345.48105,543.10325 c 7.1156,-8.51506 12.62049,-16.18443 15.78415,-21.99037 l 1.3739,-2.52135 -1.42377,-1.84099 c -0.78307,-1.01255 -2.43632,-2.60706 -3.67384,-3.54351 -3.71197,-2.80874 -14.43906,-7.82998 -16.72759,-7.82998 -1.1298,0 -1.67535,1.85641 -2.13035,7.24901 -0.5226,6.19394 0.8818,25.41481 2.27613,31.15105 0.33982,1.39811 1.06806,2.63829 1.5492,2.63829 0.11241,0 1.44988,-1.49047 2.97217,-3.31215 z M 330.4174,503.82277 c -0.26619,-0.26625 -4.44151,-1.00614 -5.74932,-1.01889 -1.09998,-0.0107 -1.20155,0.0588 -1.04902,0.71516 0.0929,0.39991 0.54103,2.32662 0.99585,4.28157 0.45482,1.95496 1.76449,7.74746 2.91039,12.87213 1.14589,5.12467 2.26371,9.63242 2.48401,10.01721 0.32431,0.56639 0.41665,-1.9093 0.48492,-13.00319 0.0464,-7.53655 0.0119,-13.77537 -0.0768,-13.86399 z m 189.3213,-10.15942 c 0.52922,-1.4275 2.52628,-8.3811 2.9096,-10.13095 l 0.21957,-1.00232 -5.75084,-3.25656 c -3.16296,-1.79112 -6.84141,-3.98054 -8.17435,-4.86534 -1.33293,-0.8848 -2.46144,-1.57199 -2.50783,-1.52709 -0.0463,0.045 1.29488,2.50544 2.98054,5.46783 1.68568,2.9624 4.15804,7.5443 5.4941,10.18205 2.38308,4.70484 3.50342,6.50575 4.04716,6.50575 0.15012,0 0.50205,-0.61798 0.78205,-1.37337 z m -54.99701,-1.20789 c 4.90485,-1.84404 9.27271,-7.68197 12.86253,-17.19151 l 1.06005,-2.80808 -3.11013,-4.64861 c -4.53262,-6.77471 -4.86694,-7.5991 -5.06432,-12.48761 -0.14315,-3.54515 -0.21579,-3.94527 -0.62633,-3.4485 -0.74189,0.89779 -3.34448,2.07817 -8.32558,3.77604 -2.55146,0.86968 -5.39818,1.96247 -6.32608,2.42837 -3.98637,2.00168 -7.66503,5.31348 -7.66503,6.90056 0,0.91627 2.26495,9.91126 3.54166,14.06535 2.8605,9.30714 4.68134,12.29533 8.27147,13.57429 1.7835,0.63531 3.3932,0.58738 5.38176,-0.1603 z M 346.22153,469.18232 c -1.74041,-2.87896 -2.90062,-4.16245 -3.33751,-3.69214 -0.15464,0.16649 -0.44275,1.24787 -0.64024,2.40309 -0.2813,1.6454 -0.27194,2.13413 0.0431,2.25611 1.45566,0.56354 5.27179,1.77934 5.37794,1.71335 0.0708,-0.044 -0.57869,-1.25017 -1.4433,-2.68041 z m 207.72777,-15.06272 1.47341,-0.20198 0.14066,-12.64269 c 0.12747,-11.45851 0.20457,-12.90908 0.82312,-15.48645 1.43635,-5.98503 4.73336,-12.13159 8.15983,-15.2123 1.7715,-1.59271 5.48826,-3.60872 7.26899,-3.94278 0.60959,-0.11436 1.10629,-0.3008 1.10377,-0.41433 -0.003,-0.11351 -1.26016,-1.44238 -2.79481,-2.95306 -8.6169,-8.48237 -15.52779,-18.37514 -22.46074,-32.15204 -1.60987,-3.19904 -2.82461,-5.30751 -2.69939,-4.68549 0.12522,0.62205 0.30127,9.92837 0.39128,20.68074 0.20508,24.49967 -0.31663,38.63757 -2.16946,58.79398 -0.35042,3.81184 -0.6371,7.0341 -0.6371,7.16056 0,0.20276 2.4843,0.68768 5.33175,1.04074 1.73139,0.2147 4.56107,0.22173 6.06869,0.0153 z m -22.59512,-7.47254 c 2.32929,-10.36788 6.05813,-46.05267 5.5798,-53.39826 -0.97322,-14.94434 -9.74685,-37.39482 -19.85769,-50.81297 -6.02798,-7.99973 -11.75733,-11.86834 -18.49796,-12.49034 -5.93655,-0.54779 -11.2041,1.47401 -16.41849,6.30176 -6.82018,6.31444 -11.8069,15.94714 -14.11644,27.2683 l -0.82497,4.04392 1.33035,5.17017 c 3.56459,13.85293 10.4788,31.14424 15.42872,38.5846 5.98244,8.99243 17.02139,20.16475 26.25772,26.57493 6.63645,4.60581 18.15254,10.93905 19.89115,10.93905 0.64701,0 0.79807,-0.26833 1.22781,-2.18116 z m 192.76028,-69.92484 c 2.4146,-0.74482 6.2174,-2.62862 8.83104,-4.37463 1.94072,-1.29643 7.39524,-5.67118 7.25094,-5.8155 -0.0463,-0.0463 -1.45779,0.42916 -3.13676,1.05644 -4.62393,1.72763 -9.02607,2.6972 -13.31216,2.93202 l -3.79687,0.20804 v 3.49675 3.49675 l 1.05019,-0.18166 c 0.57762,-0.0999 1.97873,-0.46813 3.11362,-0.81821 z m -18.05865,-11.25813 c 0.40937,-0.26031 0.34813,-0.44518 -0.39414,-1.18966 -1.04447,-1.04759 -1.22116,-0.95138 -0.8405,0.45758 0.3024,1.11953 0.46953,1.2186 1.23464,0.73208 z m 23.14836,-31.00862 c 5.2975,-1.43463 10.76872,-3.85902 16.35962,-7.24924 3.95657,-2.39921 9.60871,-6.50832 9.60871,-6.98556 0,-0.17811 -0.0495,-0.3238 -0.10986,-0.3238 -0.0605,0 -1.26011,-0.29745 -2.66587,-0.661 -3.19925,-0.82731 -9.69351,-0.90066 -13.51698,-0.15263 -5.96193,1.16637 -13.384,4.3478 -19.10298,8.18842 -2.7362,1.8375 -6.34455,4.71293 -6.53953,5.21123 -0.11439,0.29237 2.61934,1.75655 4.25823,2.28068 3.14873,1.00702 7.251,0.89907 11.70866,-0.3081 z m 110.10651,-63.7561 c 8.21622,-42.58411 11.88279,-67.4227 13.964,-94.59814 0.6889,-8.99482 0.32212,-15.77556 -1.343,-24.83103 -2.92441,-15.90338 -9.06271,-26.30952 -14.79039,-25.07381 -8.00528,1.72707 -13.65039,14.65074 -16.01153,36.65626 -1.00154,9.33399 -1.08322,12.68056 -0.5285,21.65012 1.64189,26.54856 5.58585,54.57431 10.50449,74.64448 1.60965,6.56815 5.84335,21.32699 6.11784,21.32699 0.11063,0 1.04982,-4.39869 2.08709,-9.77487 z m -51.65778,-15.135 1.61048,-0.77176 -2.26194,-0.10386 c -2.399,-0.11017 -7.76873,0.51101 -7.42689,0.85914 1.17672,1.19839 5.59317,1.2074 8.07835,0.0165 z M 255.11915,400.03883 c -6.72423,-1.16717 -13.21076,-4.66933 -18.56471,-10.02323 -4.50753,-4.50755 -7.3901,-9.31853 -8.69981,-14.52005 -0.59343,-2.35678 -0.68676,-3.66305 -0.68676,-9.61328 0,-5.63336 -0.081,-6.88591 -0.44512,-6.88591 -0.24483,0 -0.64471,0.24226 -0.88864,0.53839 -0.97619,1.18507 -3.61708,3.0161 -4.35014,3.0161 h -0.77883 V 348.3248 334.09873 l 1.11298,-2.21004 c 1.5082,-2.99491 4.29828,-6.4448 9.52774,-11.78093 5.28454,-5.39234 8.49284,-7.88672 12.78666,-9.94138 4.90046,-2.34491 8.5997,-3.30317 12.10474,-3.13558 4.04312,0.1933 6.31144,1.35748 10.23207,5.25146 3.6194,3.59483 4.57161,5.44189 7.84019,15.20832 4.99111,14.91334 5.20276,16.43841 5.20208,37.48379 0,16.95292 -0.12117,18.98262 -1.34164,22.5745 -1.09465,3.22161 -3.44762,7.51527 -4.77624,8.71559 -3.05437,2.75942 -12.67468,4.74637 -18.27457,3.77437 z m 11.19928,-33.14368 c 1.47581,-0.52066 3.1803,-1.92381 3.1803,-2.618 0,-0.22813 -0.58516,-2.20032 -1.30037,-4.38268 -1.70325,-5.19738 -5.05165,-11.97859 -6.96624,-14.10807 -1.72242,-1.91574 -4.922,-3.60201 -7.00977,-3.69434 l -1.36515,-0.0604 -0.0877,6.20109 -0.0877,6.20111 -1.29588,1.10925 c -1.34408,1.15047 -2.96394,1.75102 -7.09183,2.62925 -3.43917,0.73169 -3.65331,0.93643 -2.26197,2.16254 1.69513,1.49381 5.28391,3.77718 7.55545,4.80712 5.21084,2.36272 12.76079,3.15383 16.73085,1.75308 z"
     id="path12"
     inkscape:connector-curvature="0" />
</svg>
