<?xml version="1.0" encoding="UTF-8" standalone="no"?>
<!-- Created with Inkscape (http://www.inkscape.org/) -->

<svg
   xmlns:dc="http://purl.org/dc/elements/1.1/"
   xmlns:cc="http://creativecommons.org/ns#"
   xmlns:rdf="http://www.w3.org/1999/02/22-rdf-syntax-ns#"
   xmlns:svg="http://www.w3.org/2000/svg"
   xmlns="http://www.w3.org/2000/svg"
   xmlns:sodipodi="http://sodipodi.sourceforge.net/DTD/sodipodi-0.dtd"
   xmlns:inkscape="http://www.inkscape.org/namespaces/inkscape"
   version="1.1"
   id="svg4802"
   width="720"
   height="720"
   viewBox="0 0 720 720"
   sodipodi:docname="Sounds_415.svg"
   inkscape:version="0.92.1 r15371">
  <metadata
     id="metadata4808">
    <rdf:RDF>
      <cc:Work
         rdf:about="">
        <dc:format>image/svg+xml</dc:format>
        <dc:type
           rdf:resource="http://purl.org/dc/dcmitype/StillImage" />
        <dc:title />
      </cc:Work>
    </rdf:RDF>
  </metadata>
  <defs
     id="defs4806" />
  <sodipodi:namedview
     pagecolor="#ffffff"
     bordercolor="#666666"
     borderopacity="1"
     objecttolerance="10"
     gridtolerance="10"
     guidetolerance="10"
     inkscape:pageopacity="0"
     inkscape:pageshadow="2"
     inkscape:window-width="1366"
     inkscape:window-height="692"
     id="namedview4804"
     showgrid="false"
     inkscape:zoom="10.488889"
     inkscape:cx="359.62304"
     inkscape:cy="476.70841"
     inkscape:window-x="0"
     inkscape:window-y="27"
     inkscape:window-maximized="1"
     inkscape:current-layer="svg4802" />
  <path
     style="fill:#000000;stroke-width:1.33333337"
     d="M 0,360 V 4e-6 H 360 720 V 360 720 H 360 0 Z m 680.55761,325.85735 c 1.91515,-0.73491 2.10906,-30.493 2.1091,-323.66667 l 4e-5,-322.857343 -322.19026,0.256884 C 183.27185,39.731508 37.849779,40.331508 37.316337,40.923555 36.782895,41.515601 36.718492,186.6 37.173221,363.33333 L 38,684.66667 l 261.33333,-0.3062 c 212.76502,-0.2493 367.79754,0.60133 377.55762,2.07156 0.85669,0.12906 2.50669,-0.1296 3.66666,-0.57468 z M 288.30495,481.43211 c -4.2637,-4.8438 -6.94583,-9.12011 -6.90524,-11.00947 0.0365,-1.69912 5.00908,-35.39415 11.05016,-74.87783 8.11678,-53.05022 11.49272,-72.06608 12.93362,-72.85188 1.07242,-0.58484 5.69984,-1.48892 10.28318,-2.00906 8.21794,-0.9326 8.33333,-0.90034 8.33333,2.33069 0,1.80201 -3,22.64547 -6.66667,46.31877 -3.66666,23.67331 -6.66666,44.38884 -6.66666,46.03451 0,1.80128 1.4593,3.93443 3.66666,5.35976 2.01667,1.3022 7.94607,5.5712 13.17644,9.48668 5.23038,3.91548 10.4136,7.11905 11.51828,7.11905 2.40943,0 1.4058,5.44218 12.41744,-67.33333 4.88226,-32.26667 9.34896,-59.18132 9.926,-59.81033 0.57704,-0.62902 5.07206,-1.46658 9.98891,-1.86126 l 8.93975,-0.7176 -0.83244,5.19459 c -0.80286,5.01 -12.50182,80.84599 -20.95887,135.86127 -3.05033,19.84321 -4.72341,27.34901 -6.53853,29.33333 -1.34162,1.46667 -2.85024,4.32233 -3.35251,6.34593 -0.50227,2.0236 -1.45191,4.01219 -2.11029,4.41911 -0.6584,0.40691 -10.01227,-6.49876 -20.78638,-15.34593 -10.7741,-8.84718 -20.34177,-16.08578 -21.26146,-16.08578 -1.79247,0 -2.38578,2.426 -4.86567,19.89566 -0.87669,6.17594 -2.20677,11.43021 -2.95572,11.67613 -0.74896,0.24593 -4.49896,-3.11693 -8.33333,-7.47301 z m -174.09965,5.56674 c -1.28901,-2.08566 -3.71216,-39.35886 -2.62408,-40.36382 0.597,-0.55139 10.38545,-2.91239 21.75211,-5.24667 C 159.31605,436.05251 164,434.83937 164,433.44575 c 0,-0.61498 -9.3378,-17.74656 -20.75065,-38.0702 -11.41286,-20.32364 -21.39509,-38.36646 -22.18273,-40.09514 -1.13507,-2.4912 -0.83525,-4.61357 1.44565,-10.23334 1.7919,-4.41495 3.24437,-11.86156 3.8494,-19.73534 l 0.97166,-12.64506 41.76772,-3.16562 c 25.98362,-1.96932 42.24002,-2.69332 43.0175,-1.91584 0.77749,0.7775 0.68634,2.86608 -0.24119,5.52682 -1.14357,3.28045 -1.10103,4.74688 0.18261,6.29356 2.48194,2.99056 4.52143,1.63244 5.27336,-3.51158 L 218,311.33333 245.33333,310.5964 c 15.03334,-0.40532 28.83334,-0.36392 30.66667,0.092 3.166,0.78729 3.35079,1.35976 3.68107,11.4036 0.19126,5.81608 1.06414,11.96485 1.93973,13.66392 1.282,2.48769 0.64107,12.35367 -3.29145,50.66667 -3.44906,33.60274 -4.54843,49.14397 -3.7429,52.91077 1.68622,7.88487 3.09667,36.30813 1.835,36.97865 -0.59846,0.31806 -13.68812,-1.38858 -29.08812,-3.79253 -34.09374,-5.32205 -34.55853,-5.34259 -36.2284,-1.60027 -0.79705,1.78626 -4.62774,4.33592 -9.87042,6.56964 -8.44506,3.59815 -8.57431,3.61086 -9.01935,0.88675 -0.24832,-1.52005 0.24275,-8.73533 1.09125,-16.03396 0.84851,-7.29863 1.15263,-13.66035 0.67582,-14.13716 -1.4268,-1.42681 -4.38452,3.65443 -7.39764,12.70884 -1.70022,5.10917 -3.98778,9.24187 -5.71052,10.31665 -1.58074,0.98616 -16.07407,4.89622 -32.2074,8.68899 -16.13334,3.79279 -30.33284,7.18701 -31.55446,7.54275 -1.22162,0.35572 -2.52973,0.14744 -2.90691,-0.46286 z m 137.49774,-53.45377 c 2.4646,-1.56404 9.89984,-80.1574 7.82633,-82.72736 -1.19844,-1.48537 -4.63268,-1.67144 -17.46513,-0.94621 -10.14263,0.5732 -16.34751,1.49146 -16.99837,2.51561 -0.56378,0.88708 -1.04372,4.61288 -1.06656,8.27955 -0.0228,3.66666 -1.51186,20.15684 -3.30892,36.64482 -2.2128,20.30235 -2.83011,30.41558 -1.9126,31.33334 0.74514,0.74534 7.77497,2.31666 15.62184,3.49181 7.84686,1.17515 14.56704,2.21596 14.9337,2.31292 0.36667,0.0969 1.43304,-0.31007 2.36971,-0.90448 z m -55.24828,-7.87841 c 1.34543,-2.1979 9.03723,-79.361 7.99608,-80.21559 -1.40433,-1.15271 -54.55973,1.54152 -55.84581,2.83059 -0.52039,0.52158 2.65116,6.52158 7.04785,13.33333 9.20912,14.26756 29.24584,48.31811 34.29147,58.27519 3.2437,6.40113 5.11284,8.05956 6.51041,5.77648 z m 329.76747,61.44444 c -0.4889,-0.48888 -0.89808,-2.13888 -0.90931,-3.66667 -0.0443,-6.02819 -1.45193,-6.49501 -28.878,-9.57707 -14.5392,-1.63388 -26.95441,-2.47294 -27.58935,-1.8646 -0.63492,0.60834 -1.83492,2.4483 -2.66666,4.0888 -1.5731,3.10276 -16.23478,10.297 -17.7984,8.73338 -0.78519,-0.78519 5.53736,-68.95267 11.23218,-121.10147 1.77387,-16.24365 1.8404,-19.97261 0.38756,-21.72317 -0.96464,-1.16234 -2.23372,-1.63351 -2.82014,-1.04708 -0.58644,0.58644 -5.33723,29.86186 -10.55732,65.0565 -5.2201,35.19466 -10.19571,64.66864 -11.05694,65.49776 -0.86121,0.82912 -5.37025,1.82716 -10.02008,2.21786 l -8.45422,0.71037 0.58248,-6.88453 c 0.43668,-5.1612 -1.70982,-17.39787 -8.57508,-48.88452 -9.47731,-43.4665 -11.0771,-49.25103 -13.0546,-47.20284 -0.63872,0.66156 -4.55596,25.20284 -8.70499,54.53617 -8.35895,59.0974 -8.61576,60.66667 -9.92793,60.66667 -0.50706,0 -4.02699,-4.44724 -7.82207,-9.88276 l -6.90015,-9.88276 11.35219,-80.29331 c 6.24371,-44.16132 11.65261,-80.7794 12.0198,-81.37353 0.3672,-0.59414 3.50364,-1.47716 6.96988,-1.9623 11.84276,-1.65749 11.21079,-1.9537 12.93212,6.06132 4.58732,21.35975 18.31028,80.69714 18.87365,81.6087 1.4199,2.29744 3.07638,0.8452 3.73599,-3.27536 0.38152,-2.38334 2.84215,-19.89474 5.46805,-38.91422 2.62591,-19.01948 5.04616,-35.02061 5.37832,-35.55808 1.03614,-1.67649 19.38094,-11.86104 21.36458,-11.86104 1.2786,0 1.88288,1.56594 1.88288,4.8793 v 4.8793 L 495,310.34457 c 17.78333,-0.41104 33.01727,-0.47874 33.8532,-0.15045 1.06689,0.41901 1.30833,4.74155 0.81009,14.50369 -0.62718,12.28878 -0.44454,14.00858 1.56976,14.78154 3.82659,1.4684 5.06558,-1.43656 5.95059,-13.95188 0.46689,-6.60244 1.14355,-12.29911 1.50369,-12.65924 0.52828,-0.52828 39.75588,-4.01014 75.31267,-6.68479 8.52468,-0.64124 10,-0.0453 10,4.03885 0,3.01283 -3.19703,17.35768 -6.67653,29.95722 l -1.33834,4.84617 -25.65924,0.91551 c -14.11257,0.50352 -26.70922,1.21317 -27.99256,1.577 -3.27449,0.92833 -2.92257,2.92557 1.72943,9.81514 2.22824,3.3 12.41995,19.88352 22.64823,36.85226 14.67648,24.34832 19.30226,31.0293 21.94294,31.69208 1.84034,0.46189 3.34607,1.3906 3.34607,2.0638 0,1.96406 -15.86625,41.62414 -17.38323,43.45198 -0.75814,0.91351 -3.60706,2.06588 -6.33094,2.56082 -2.72387,0.49494 -17.37274,3.8577 -32.55303,7.47281 -30.99472,7.38123 -28.32717,6.86744 -29.51057,5.68403 z m 27.1111,-48.4608 c 21.49404,-3.86207 21.33334,-3.8169 21.33334,-5.99699 0,-1.07941 -5.60931,-11.71797 -12.46515,-23.64127 -6.85583,-11.92329 -15.8896,-27.82872 -20.07505,-35.34538 C 537.941,366.15 533.96175,360 533.28367,360 c -1.71732,0 -2.35179,3.86333 -3.2846,20 -0.44512,7.7 -1.6948,23.9 -2.77708,36 l -1.96778,22 2.92534,2.39115 c 1.85328,1.51485 4.18878,2.13885 6.37289,1.7027 1.89616,-0.37864 10.34756,-1.92824 18.78089,-3.44354 z m -50.03297,-4.31698 c 1.23539,-3.74354 8.78803,-82.44496 8.02967,-83.67202 -0.92438,-1.49567 -14.42818,-1.76608 -23.8314,-0.47723 -4.91082,0.67311 -6.31503,1.43875 -6.72476,3.66667 -1.58923,8.64138 -7.56664,75.80365 -6.8147,76.56988 1.11378,1.13492 20.04975,5.23754 25.08267,5.43436 2.03969,0.0797 3.95603,-0.60499 4.25852,-1.52166 z M 279.39712,275.66667 c -0.35952,-1.65 -2.20765,-11.7 -4.10696,-22.33334 C 273.39087,242.7 264.66504,198.96959 255.89944,156.15463 235.77611,57.86362 234.58221,51.254497 236.50527,48.792231 c 1.90093,-2.433967 10.54509,-4.775172 17.6663,-4.784791 7.79871,-0.01053 6.67115,-3.654399 23.7401,76.71916 26.64542,125.46689 26.87238,125.76836 29.16294,125.36049 0.87563,-0.41362 2.91172,-0.38085 4.19505,-0.83352 2.70108,-0.95274 2.12206,4.26064 3.25498,-68.5869 l 0.80869,-52 13,-0.38162 13,-0.38162 0.16667,16.71496 c 0.0917,9.19321 0.31667,17.31494 0.5,18.04828 C 342.18333,159.4 342.40833,178.9 342.5,202 l 1.12006,41.14195 5.47019,1.04873 h 5.7562 l 4.97967,-0.99009 c 2.25563,-9.32016 0.78619,-19.38654 1.01322,-15.67656 0.16381,2.67669 0.21211,-19.16224 0.0756,-47.2386 -0.21451,-44.10882 0.0236,-51.21986 1.75175,-52.31291 2.59364,-1.64048 20.06822,-1.64332 22.66188,-0.004 1.68277,1.06381 2.14609,8.94233 2.95874,50.31292 1.10476,56.24108 1.45147,60.38492 5.05214,60.38492 1.38014,0 3.46581,-1.35 4.6348,-3 1.169,-1.65 9.64661,-26.1 18.83914,-54.33333 30.71162,-94.32561 41.88286,-127.448852 44.0062,-130.480351 1.72164,-2.457988 2.87518,-2.845305 6.31027,-2.118765 6.24879,1.321655 16.59351,5.954988 17.27799,7.738701 0.76676,1.998205 -3.19188,15.403265 -25.06008,84.860465 C 436.68355,213.3188 432,228.86439 432,232.10585 c 0,2.51615 0.91313,2.6036 23.55371,2.2559 L 479.1074,234 l 0.99869,3.67052 c 0.54927,2.01879 1.20011,7.09983 1.4463,11.29123 0.41241,7.02149 0.18552,7.74636 -2.88572,9.21873 -1.83334,0.87892 -15.63334,2.85679 -30.66667,4.39525 -118.09025,12.08507 -158.66151,16.09094 -162.96805,16.09094 -4.08306,0 -5.099,-0.5409 -5.63483,-3 z"
     id="path4812"
     inkscape:connector-curvature="0"
     sodipodi:nodetypes="ccccccccccscssscsccccsccssssssscscsscsccscccccsssssscscccccscscsccssscccccccccccccscsccscccssccsccssccscsccscssscsccccsscsscsccsscssccscsscscssccsscssscccccccccccccscssccscccccsccccssccsscsssccscccccssc" />
  <path
     style="fill:#000000;stroke-width:0.08781399"
     d="m 91.052987,643.57866 -1.729263,-0.0257 -0.05897,-0.39309 c -0.08459,-0.56423 -0.0079,-22.9342 0.07875,-23.02105 0.03973,-0.0398 3.428056,-0.0863 7.529293,-0.10329 l 7.456903,-0.0309 v 5.74723 5.74723 l 1.06754,0.0574 c 0.58717,0.0316 7.63095,0.0574 15.65285,0.0575 8.02191,6e-5 16.33388,0.0263 18.47105,0.0582 l 3.88577,0.0581 v 5.95705 5.95704 l -25.31234,-0.02 c -13.92184,-0.011 -26.090545,-0.0316 -27.041603,-0.0457 z m 59.720063,6e-5 -1.54703,-0.026 -0.0556,-0.40543 c -0.0731,-0.5341 -0.0713,-13.90267 0,-19.01945 l 0.0581,-4.01749 h 7.53769 7.53768 v 5.75182 5.75182 h 11.94443 11.94444 l 0.32758,-0.2035 c 0.18011,-0.11193 0.66898,-0.38824 1.08625,-0.61405 0.41732,-0.22579 0.78597,-0.47998 0.81922,-0.56487 0.0334,-0.0848 0.0832,-2.39688 0.11108,-5.13777 l 0.0505,-4.98345 h 7.53837 7.53838 v 8.27777 8.27779 l -0.90012,0.83678 c -0.49505,0.46023 -1.76943,1.62909 -2.83202,2.59747 -1.06255,0.96837 -2.3666,2.16153 -2.89784,2.65144 l -0.96598,0.89076 -22.87552,-0.0187 c -12.58153,-0.0103 -23.57173,-0.0305 -24.4226,-0.0448 z m 91.48986,0.005 c -0.14551,-0.038 -0.15301,-0.37726 -0.13173,-5.98312 l 0.0227,-5.94284 20.57043,-0.0221 20.57042,-0.0221 v -0.61451 -0.61451 h -19.393 c -10.66615,0 -19.93269,-0.0258 -20.59238,-0.0575 l -1.19938,-0.0575 v -5.06811 -5.06811 l 0.32933,-0.0545 c 0.18109,-0.03 12.84609,-0.0548 28.14436,-0.0553 l 27.8151,-7.3e-4 v 11.81093 11.81099 l -27.99074,-0.0102 c -15.3949,-0.006 -28.06011,-0.0283 -28.14499,-0.0506 z m 81.51393,-11.299 c 0,-6.24783 0.0249,-11.54078 0.055,-11.76217 l 0.055,-0.40249 1.8109,-0.0269 c 0.99599,-0.0148 4.36958,-0.0146 7.49684,0 l 5.68594,0.0271 v 11.76184 11.76186 h -7.55199 -7.55204 v -11.35965 z m 40.21882,-0.35786 c 0,-9.27834 0.0227,-11.73326 0.10978,-11.78952 0.0745,-0.0482 37.40201,-0.21645 39.97732,-0.18015 0.0482,9.9e-4 3.75296,0.0168 8.23255,0.0358 l 8.14472,0.0345 v 11.80836 11.80836 h -7.55198 -7.55199 v -6.62996 -6.62996 l -12.75497,7.3e-4 c -7.01525,7.4e-4 -12.90293,0.0254 -13.08374,0.0553 l -0.32876,0.0543 -0.0227,6.55271 -0.0227,6.55268 -7.574,0.0225 -7.57395,0.0224 z m 81.7556,0.41145 c 0,-6.21833 0.0255,-11.51351 0.0562,-11.76708 l 0.0556,-0.46102 h 7.49588 7.49588 v 11.76707 11.76708 h -7.552 -7.55205 v -11.30605 z m 40.37343,-0.43907 c 0.0233,-6.45982 0.0602,-11.76489 0.0824,-11.78903 0.0221,-0.0241 3.38947,-0.0579 7.48282,-0.075 l 7.4425,-0.0312 0.0582,2.97289 c 0.0745,3.81024 0.0746,11.8013 0,16.78164 l -0.0581,3.88576 h -7.52489 -7.52493 l 0.042,-11.74512 z m 27.54992,10.99167 c -0.43469,-0.40965 -2.14709,-1.97848 -3.80532,-3.48629 l -3.01505,-2.74147 0.0459,-8.24601 c 0.0368,-6.66521 0.0679,-8.2606 0.161,-8.32205 0.14842,-0.098 15.40029,-0.053 15.4973,0.0456 0.0403,0.041 -0.0593,0.18548 -0.22119,0.32122 l -0.29433,0.24677 -0.0442,4.50856 -0.0436,4.50856 0.9371,0.74643 c 0.51541,0.41052 1.05914,0.8452 1.20828,0.96595 l 0.27119,0.21953 10.74482,0.0255 10.74483,0.0255 1.17924,-0.9476 1.17924,-0.94759 0.006,-4.56632 0.006,-4.56633 -0.37137,-0.26344 -0.37131,-0.26345 0.52687,-0.0563 c 0.70785,-0.0757 11.90058,-0.0898 13.80877,-0.0173 l 1.51475,0.0574 v 8.27462 8.27463 l -1.11961,1.04937 c -0.61577,0.57716 -2.31887,2.14255 -3.78462,3.47864 l -2.66499,2.42925 -20.64962,-0.004 -20.64963,-0.004 -0.79033,-0.74481 z m 55.43757,-10.98933 c 0.0147,-6.45853 0.0477,-11.76359 0.0731,-11.78903 0.0255,-0.0254 3.40184,-0.0602 7.50314,-0.0771 l 7.45684,-0.0309 v 11.81989 11.8199 l -7.53003,10e-6 -7.53002,2e-5 z m 32.16226,11.66176 -0.56539,-0.0508 -0.40473,-0.57079 c -0.445,-0.62763 -11.60653,-17.42615 -13.7698,-20.7241 l -1.35358,-2.06363 0.38226,-0.0594 c 0.21025,-0.0326 4.12462,-0.0622 8.69855,-0.0659 l 8.31629,-0.007 3.80203,5.72578 3.80209,5.72578 0.0482,-5.70384 c 0.0266,-3.1371 0.0562,-5.7137 0.0659,-5.72577 0.0408,-0.05 13.64428,-0.0163 14.30959,0.0355 l 0.72451,0.0564 v 11.69605 11.69603 l -2.38526,0.058 c -2.8371,0.069 -20.85774,0.0499 -21.67043,-0.023 z M 327.64066,619.66611 c 0,-0.0512 0.0397,-0.0686 0.0878,-0.0388 0.0482,0.0298 0.0878,0.0717 0.0878,0.093 0,0.0213 -0.0397,0.0388 -0.0878,0.0388 -0.0482,0 -0.0878,-0.0419 -0.0878,-0.093 z m -14.22094,-0.85141 c -7.06301,-0.0176 -9.01092,-0.0459 -9.06544,-0.13173 -0.0813,-0.12797 -0.0961,-11.0167 -0.0158,-11.50322 l 0.0545,-0.3293 h 26.99128 26.99133 v 5.97135 5.97135 l -9.54976,0.006 c -5.25239,0.003 -13.34335,0.013 -17.9799,0.022 -4.63663,0.009 -12.4784,0.007 -17.4262,-0.006 z M 90.370608,618.7274 c -0.666661,-0.0187 -1.029464,-0.0641 -1.074396,-0.13491 -0.03745,-0.0587 -0.06844,-1.17608 -0.06918,-2.48307 v -2.37636 l 2.70029,-2.4629 c 1.485135,-1.35461 3.194202,-2.91307 3.797946,-3.46328 l 1.097663,-1.00036 23.292679,0.0263 23.29265,0.0263 v 5.96699 5.96698 l -26.0149,-0.0188 c -14.30819,-0.0104 -26.467815,-0.0315 -27.021464,-0.047 z m 60.624272,2e-5 -1.76421,-0.0256 -0.0579,-2.11997 c -0.0318,-1.16599 -0.0579,-3.83254 -0.0579,-5.92567 v -3.8057 h 28.2189 28.21897 l 0.0568,0.85619 c 0.0312,0.4709 0.0569,3.13403 0.0572,5.91805 0,4.53503 -0.0142,5.06741 -0.13848,5.11516 -0.13389,0.0514 -50.94097,0.0398 -54.53326,-0.0124 z m 91.11497,-2.51163 v -2.57735 l 0.50492,-0.43963 c 0.27776,-0.2418 0.72612,-0.65751 0.99638,-0.9238 0.27027,-0.26628 0.98153,-0.9141 1.58045,-1.43959 0.59899,-0.52547 1.64236,-1.46685 2.31861,-2.09194 0.6763,-0.62509 1.41563,-1.30673 1.64296,-1.51478 l 0.41335,-0.37827 h 24.45274 24.45279 l 0.0453,0.63665 c 0.0249,0.35015 0.0483,0.67617 0.0517,0.72446 0.006,0.0483 -0.0193,2.44892 -0.0505,5.3347 l -0.0567,5.24689 h -28.1761 -28.17601 z m 122.01806,2.4904 c -0.0295,-0.0478 -0.0775,-1.18725 -0.10654,-2.53211 l -0.0528,-2.44517 0.33869,-0.2999 c 0.39214,-0.34724 2.81545,-2.54724 4.47437,-4.06204 0.62786,-0.57333 1.15434,-1.09749 1.16994,-1.16479 0.0158,-0.0673 0.0749,-0.12249 0.13174,-0.12266 0.0568,0 0.40608,-0.27678 0.77609,-0.61469 l 0.67279,-0.6144 h 20.77244 20.77245 l 3.50049,3.23613 c 1.92528,1.77987 3.57659,3.27867 3.66957,3.33067 0.16015,0.0896 0.17049,0.23431 0.19477,2.73522 l 0.0255,2.64068 H 392.3246 c -18.47695,0 -28.16139,-0.0298 -28.19667,-0.0869 z m 62.10924,-5.11604 c -0.0136,-2.86164 -0.0125,-5.54875 0.006,-5.97135 l 0.0283,-0.76837 h 27.04024 27.04029 v 5.91337 5.91336 l -2.25352,0.058 c -1.23944,0.0319 -13.40898,0.058 -27.04342,0.058 H 426.2651 Z m 59.82015,1.2733 c 0,-2.16132 0.026,-4.84842 0.0579,-5.97134 l 0.0577,-2.04168 h 7.4805 7.48051 l 0.0794,1.08388 c 0.0438,0.59614 0.0528,1.25805 0.0198,1.47089 -0.0329,0.21285 -0.0623,2.4122 -0.0659,4.88747 l -0.007,4.50046 h -7.55198 -7.55199 v -3.92968 z m 20.8117,1.42298 c 0,-2.49499 0,-2.50758 0.20043,-2.70028 0.11024,-0.10647 0.90057,-0.8396 1.75626,-1.62917 0.85576,-0.78957 1.55589,-1.4725 1.55589,-1.51762 0,-0.0451 0.0745,-0.11039 0.16565,-0.14506 0.0912,-0.0346 1.00134,-0.82372 2.02274,-1.75345 l 1.85708,-1.69042 h 20.72223 20.72224 l 2.17229,1.99019 c 1.19472,1.0946 2.87361,2.63789 3.73089,3.4295 l 1.55872,1.43933 v 2.54183 2.54185 H 535.10123 506.869 Z m 62.17233,-3.46465 v -5.97135 h 12.38126 12.38122 l 2.47637,3.71014 c 1.36197,2.04058 3.123,4.69805 3.91328,5.90549 l 1.43698,2.19535 -0.86126,0.0555 c -0.47371,0.0306 -7.80625,0.0602 -16.29455,0.0659 l -15.4333,0.0104 z m 41.55793,5.90783 -0.28537,-0.0354 v -5.92189 -5.92188 h 5.8616 c 3.22387,0 6.60249,-0.0261 7.50803,-0.0578 l 1.64657,-0.0576 v 5.97148 5.97149 l -1.38306,0.0574 c -1.45275,0.0602 -12.85567,0.0555 -13.34777,-0.006 z"
     id="path12"
     inkscape:connector-curvature="0"
     sodipodi:nodetypes="ccccscccccccccsccccccccccccscccccccccsccscccscccccscccccscccccccccccccccccscccccccccccccccccsccccccccccccsccccccccccccscccccccccccccccccccccccccccccssscccccsccccccccccsccccccccssssscccccccccscccccccccccccsccsccsccccccscccccsccccccccccccccccccccccccccscscccccccscscccccccccccccsccsscccccccccccsccccscccsccccccsccccscc" />
</svg>
