<?xml version="1.0" encoding="UTF-8" standalone="no"?>
<!-- Created with Inkscape (http://www.inkscape.org/) -->

<svg
   xmlns:dc="http://purl.org/dc/elements/1.1/"
   xmlns:cc="http://creativecommons.org/ns#"
   xmlns:rdf="http://www.w3.org/1999/02/22-rdf-syntax-ns#"
   xmlns:svg="http://www.w3.org/2000/svg"
   xmlns="http://www.w3.org/2000/svg"
   xmlns:sodipodi="http://sodipodi.sourceforge.net/DTD/sodipodi-0.dtd"
   xmlns:inkscape="http://www.inkscape.org/namespaces/inkscape"
   version="1.1"
   id="svg1432"
   width="874"
   height="73"
   viewBox="0 0 874 73"
   sodipodi:docname="Station_4.svg"
   inkscape:version="0.92.1 r15371">
  <metadata
     id="metadata1438">
    <rdf:RDF>
      <cc:Work
         rdf:about="">
        <dc:format>image/svg+xml</dc:format>
        <dc:type
           rdf:resource="http://purl.org/dc/dcmitype/StillImage" />
        <dc:title />
      </cc:Work>
    </rdf:RDF>
  </metadata>
  <defs
     id="defs1436" />
  <sodipodi:namedview
     pagecolor="#ffffff"
     bordercolor="#666666"
     borderopacity="1"
     objecttolerance="10"
     gridtolerance="10"
     guidetolerance="10"
     inkscape:pageopacity="0"
     inkscape:pageshadow="2"
     inkscape:window-width="1366"
     inkscape:window-height="692"
     id="namedview1434"
     showgrid="false"
     inkscape:zoom="0.54044317"
     inkscape:cx="471.33361"
     inkscape:cy="-216.25311"
     inkscape:window-x="0"
     inkscape:window-y="27"
     inkscape:window-maximized="1"
     inkscape:current-layer="svg1432" />
  <path
     style="fill:#000000;stroke-width:0.11956932"
     d="m 76.181159,61.149818 -2.354594,-0.03507 -0.08026,-0.535228 c -0.115177,-0.768269 -0.01082,-31.227679 0.10722,-31.345945 0.05407,-0.05423 4.667708,-0.117525 10.25204,-0.140638 l 10.153471,-0.04202 v 7.825542 7.82555 l 1.453575,0.07817 c 0.799516,0.04295 10.390469,0.07823 21.313249,0.07831 10.92279,7.7e-5 22.24054,0.03577 25.15055,0.07927 l 5.29094,0.07912 v 8.111236 8.111221 l -34.4658,-0.02719 c -18.956259,-0.01499 -35.525405,-0.04303 -36.82039,-0.06226 z m 81.316061,8.5e-5 -2.10647,-0.03553 -0.0757,-0.552045 c -0.0996,-0.727251 -0.097,-18.930168 0,-25.897269 l 0.0791,-5.470298 h 10.26347 10.26347 v 7.831791 7.831792 h 16.26378 16.26379 l 0.44603,-0.277089 c 0.24526,-0.152394 0.91091,-0.528638 1.47907,-0.836093 0.56823,-0.307447 1.07019,-0.653549 1.11546,-0.769142 0.0456,-0.115571 0.11332,-3.263641 0.15125,-6.995699 l 0.0687,-6.78556 h 10.2644 10.2644 v 11.27119 11.271188 l -1.22562,1.139376 c -0.67406,0.626651 -2.40929,2.218199 -3.85614,3.536759 -1.44678,1.318569 -3.2224,2.943194 -3.94575,3.610269 l -1.3153,1.212877 -31.14777,-0.02549 C 173.61612,61.19695 158.65164,61.16945 157.49308,61.1499 Z m 124.57446,0.007 c -0.19814,-0.05176 -0.20834,-0.513683 -0.17937,-8.146732 l 0.0309,-8.091893 28.0091,-0.03013 28.00911,-0.03013 v -0.836735 -0.836734 h -26.4059 c -14.52324,0 -27.14076,-0.03523 -28.039,-0.07832 l -1.6331,-0.07833 v -6.90083 -6.900838 l 0.44842,-0.07416 c 0.24658,-0.04079 17.49149,-0.0747 38.32194,-0.07539 l 37.87359,-0.0015 v 16.082019 16.082074 l -38.11275,-0.0139 c -20.96201,-0.0077 -38.20723,-0.03855 -38.32279,-0.06875 z M 393.0627,45.771936 c 0,-8.507155 0.034,-15.714158 0.0749,-16.015595 l 0.0749,-0.548043 2.46575,-0.03662 c 1.35617,-0.02016 5.94972,-0.01993 10.20786,0 l 7.7421,0.037 v 16.01517 16.015177 H 403.34533 393.06231 V 45.771496 Z m 54.76277,-0.487249 c 0,-12.633587 0.0309,-15.976252 0.14948,-16.052851 0.1015,-0.06574 50.92734,-0.294732 54.43393,-0.245294 0.0657,0.0016 5.11011,0.02286 11.20961,0.04882 l 11.09002,0.04712 v 16.078505 16.078498 h -10.28294 -10.28294 v -9.027482 -9.027482 l -17.36742,0.0015 c -9.5521,0.0015 -17.56889,0.03461 -17.81508,0.07532 l -0.44765,0.074 -0.0309,8.922285 -0.0309,8.922286 -10.31291,0.03059 -10.31284,0.03051 z m 111.3201,0.560233 c 0,-8.467002 0.0348,-15.677032 0.0765,-16.022292 l 0.0757,-0.62774 h 10.20654 10.20654 V 45.21718 61.239464 H 569.42789 559.14488 V 45.84492 Z m 54.97328,-0.597853 c 0.0317,-8.795815 0.0819,-16.019295 0.11208,-16.052179 0.0301,-0.03291 4.61518,-0.07885 10.18878,-0.102145 l 10.13385,-0.04241 0.0792,4.047947 c 0.1015,5.188089 0.10158,16.068896 0,22.850208 l -0.0791,5.290944 h -10.24604 -10.24609 l 0.0572,-15.992397 z m 37.51253,14.96649 c -0.59187,-0.557784 -2.92352,-2.69393 -5.1814,-4.747003 l -4.10535,-3.732845 0.0626,-11.227944 c 0.0502,-9.075476 0.0925,-11.247789 0.21923,-11.331464 0.20208,-0.133399 20.96935,-0.07223 21.10144,0.06211 0.0548,0.05577 -0.0808,0.252555 -0.30119,0.437378 l -0.40076,0.336013 -0.0602,6.13895 -0.0595,6.138949 1.27598,1.016343 c 0.70179,0.558982 1.44214,1.150856 1.64522,1.315263 l 0.36925,0.298918 14.63038,0.03476 14.63037,0.03476 1.60568,-1.290264 1.60567,-1.290258 0.008,-6.217602 0.008,-6.217604 -0.50566,-0.358708 -0.50559,-0.358709 0.7174,-0.07671 c 0.96383,-0.103041 16.20407,-0.122237 18.80231,-0.02364 l 2.06252,0.07824 v 11.266903 11.266893 l -1.52449,1.428839 c -0.83845,0.785875 -3.15743,2.917339 -5.15321,4.736582 l -3.62872,3.307719 -28.11694,-0.0062 -28.11695,-0.0062 -1.07614,-1.014135 z m 75.48493,-14.963284 c 0.0201,-8.79407 0.0649,-16.017565 0.0996,-16.052203 0.0348,-0.03461 4.63202,-0.08188 10.21643,-0.104995 l 10.15339,-0.04202 v 16.094202 16.09421 l -10.25304,2.3e-5 -10.25304,1.6e-5 z m 43.79279,15.878881 -0.76985,-0.06906 -0.55109,-0.777199 C 768.98223,59.428308 753.78447,36.555112 750.83892,32.064541 l -1.84306,-2.809879 0.5205,-0.08082 c 0.28628,-0.04442 5.61616,-0.0848 11.84412,-0.08968 l 11.32362,-0.0089 5.17693,7.796342 5.177,7.796335 0.0657,-7.766447 c 0.0363,-4.271541 0.0765,-7.779896 0.0897,-7.796335 0.0556,-0.06813 18.57829,-0.02217 19.48425,0.04836 l 0.98646,0.07678 v 15.925567 15.925578 l -3.24781,0.07899 c -3.86302,0.09396 -28.40029,0.0679 -29.50687,-0.03129 z M 398.32375,28.58999 c 0,-0.06968 0.0541,-0.09337 0.11958,-0.05276 0.0657,0.04063 0.11958,0.09763 0.11958,0.126625 0,0.02897 -0.0541,0.05276 -0.11958,0.05276 -0.0657,0 -0.11958,-0.05701 -0.11958,-0.126625 z m -19.36352,-1.159306 c -9.61713,-0.02395 -12.26944,-0.06249 -12.34368,-0.179355 -0.11062,-0.174248 -0.13093,-15.000549 -0.0216,-15.66302 l 0.0742,-0.448385 h 36.75187 36.75196 v 8.130718 8.130711 l -13.00315,0.0077 c -7.15177,0.0039 -18.16857,0.01769 -24.48181,0.02989 -6.31332,0.01221 -16.99084,0.0085 -23.72787,-0.0083 z M 75.252021,27.311853 c -0.907741,-0.02541 -1.401741,-0.08744 -1.462922,-0.18368 -0.05098,-0.07992 -0.09316,-1.601381 -0.09417,-3.381012 V 20.51146 L 77.3717,17.157918 c 2.022197,-1.844449 4.349292,-3.966497 5.171364,-4.715656 l 1.494594,-1.36212 31.715772,0.03584 31.71576,0.03584 v 8.12477 8.12477 l -35.42242,-0.02556 C 92.564447,27.36174 76.007661,27.332926 75.253798,27.311838 Z m 82.547239,2.3e-5 -2.40218,-0.03492 -0.0789,-2.886609 c -0.0433,-1.587639 -0.0788,-5.218471 -0.0788,-8.068511 v -5.181909 h 38.42344 38.42352 l 0.0773,1.165803 c 0.0425,0.641189 0.0775,4.267355 0.0779,8.058137 0,6.174977 -0.0193,6.899888 -0.18856,6.964907 -0.1823,0.06999 -69.36225,0.05423 -74.25359,-0.01692 z m 124.064,-3.419883 v -3.509375 l 0.68751,-0.598609 c 0.37821,-0.329231 0.9887,-0.895266 1.3567,-1.25786 0.36801,-0.362578 1.33647,-1.244657 2.15198,-1.960167 0.81558,-0.715501 2.23625,-1.9973 3.15705,-2.848433 0.92087,-0.851126 1.92756,-1.779283 2.2371,-2.062567 l 0.56282,-0.515058 h 33.29534 33.29542 l 0.0618,0.866876 c 0.034,0.476782 0.0657,0.920688 0.0703,0.986449 0.008,0.06574 -0.0263,3.334493 -0.0687,7.263834 l -0.0772,7.14427 h -38.36515 -38.36504 z m 166.14228,3.390985 c -0.0402,-0.06512 -0.10552,-1.616591 -0.14507,-3.44777 l -0.0718,-3.329394 0.46117,-0.408341 c 0.53394,-0.472827 3.83358,-3.468387 6.09239,-5.530977 0.8549,-0.78066 1.57176,-1.494354 1.59301,-1.585993 0.0216,-0.09164 0.10204,-0.166786 0.17937,-0.16701 0.0774,0 0.55294,-0.376877 1.05675,-0.836989 l 0.91608,-0.83658 h 28.28419 28.28418 l 4.76635,4.406385 c 2.62149,2.423508 4.86995,4.464307 4.99656,4.53512 0.21807,0.121912 0.23213,0.319041 0.26519,3.724317 l 0.0348,3.595607 h -38.31993 c -25.15858,0 -38.34511,-0.04063 -38.39316,-0.118375 z m 84.56921,-6.966105 c -0.0185,-3.896464 -0.017,-7.555291 0.008,-8.130718 l 0.0386,-1.046231 h 36.81853 36.81862 v 8.051763 8.051748 l -3.06844,0.07896 c -1.68764,0.04341 -18.25794,0.07896 -36.82287,0.07896 h -33.75442 z m 81.45233,1.733753 c 0,-2.9429 0.0355,-6.601719 0.0789,-8.130711 l 0.0786,-2.779991 h 10.1856 10.18561 l 0.10815,1.475845 c 0.0595,0.811706 0.0718,1.712966 0.027,2.002785 -0.0448,0.289811 -0.0848,3.284513 -0.0897,6.654872 l -0.009,6.127927 H 624.3093 614.02636 v -5.350727 z m 28.33764,1.937556 c 0,-3.397233 0,-3.414383 0.27291,-3.676755 0.1501,-0.144979 1.22624,-1.143208 2.39137,-2.218322 1.16521,-1.075091 2.11852,-2.004986 2.11852,-2.066421 0,-0.06141 0.10151,-0.15031 0.22557,-0.197516 0.12406,-0.0472 1.36343,-1.121594 2.7542,-2.387533 l 2.52863,-2.301711 h 28.21582 28.21582 l 2.95783,2.709881 c 1.62676,1.490445 3.91276,3.591806 5.08005,4.669686 l 2.12239,1.959803 v 3.461025 3.461034 h -38.44152 -38.44159 z m 84.65511,-4.71754 v -8.130718 h 16.85859 16.85852 l 3.37187,5.051807 c 1.85449,2.778486 4.25234,6.396958 5.32841,8.041034 l 1.95661,2.989233 -1.1727,0.07563 c -0.64502,0.04164 -10.62916,0.08195 -22.187,0.08968 l -21.0143,0.01406 z m 56.58613,8.044216 -0.38856,-0.0482 v -8.063358 -8.06335 h 7.98126 c 4.3897,0 8.99012,-0.03561 10.22315,-0.07869 l 2.24197,-0.07835 v 8.130887 8.130904 l -1.88323,0.07811 c -1.97809,0.08204 -17.50454,0.07555 -18.17459,-0.0077 z"
     id="path12"
     inkscape:connector-curvature="0"
     sodipodi:nodetypes="ccccscccccccccsccccccccccccscccccccccsccscccscccccscccccscccccccccccccccccscccccccccccccccccsccccccccccccsccccccccccccscccccccccccccccccccccccccccccssscccccsccccccccccsccccccccssssscccccccccscccccccccccccsccsccsccccccscccccsccccccccccccccccccccccccccscscccccccscscccccccccccccsccsscccccccccccsccccscccsccccccsccccscc" />
</svg>
