<?xml version="1.0" encoding="UTF-8" standalone="no"?>
<!-- Created with Inkscape (http://www.inkscape.org/) -->

<svg
   xmlns:dc="http://purl.org/dc/elements/1.1/"
   xmlns:cc="http://creativecommons.org/ns#"
   xmlns:rdf="http://www.w3.org/1999/02/22-rdf-syntax-ns#"
   xmlns:svg="http://www.w3.org/2000/svg"
   xmlns="http://www.w3.org/2000/svg"
   xmlns:sodipodi="http://sodipodi.sourceforge.net/DTD/sodipodi-0.dtd"
   xmlns:inkscape="http://www.inkscape.org/namespaces/inkscape"
   version="1.1"
   id="svg2"
   width="5120"
   height="1405.3333"
   viewBox="0 0 5120 1405.3333"
   sodipodi:docname="Suspended_4_N.svg"
   inkscape:version="0.92.1 r15371">
  <metadata
     id="metadata8">
    <rdf:RDF>
      <cc:Work
         rdf:about="">
        <dc:format>image/svg+xml</dc:format>
        <dc:type
           rdf:resource="http://purl.org/dc/dcmitype/StillImage" />
        <dc:title></dc:title>
      </cc:Work>
    </rdf:RDF>
  </metadata>
  <defs
     id="defs6" />
  <sodipodi:namedview
     pagecolor="#ffffff"
     bordercolor="#666666"
     borderopacity="1"
     objecttolerance="10"
     gridtolerance="10"
     guidetolerance="10"
     inkscape:pageopacity="0"
     inkscape:pageshadow="2"
     inkscape:window-width="1366"
     inkscape:window-height="692"
     id="namedview4"
     showgrid="false"
     inkscape:zoom="0.13046875"
     inkscape:cx="2960.9196"
     inkscape:cy="14.872973"
     inkscape:window-x="0"
     inkscape:window-y="27"
     inkscape:window-maximized="1"
     inkscape:current-layer="svg2" />
  <path
     style="fill:#000000;stroke-width:5.41974068"
     d="m 273.53587,1363.3303 1.5829,-42.003 172.0017,-1.4309 172.0016,-1.431 8.8022,-13.4338 c 5.1351,-7.8373 7.4943,-18.6447 5.6629,-25.9418 -1.7266,-6.8793 -73.1539,-81.8927 -158.7273,-166.6965 -143.4109,-142.12094 -156.957,-157.15785 -173.0785,-192.12677 -32.0203,-69.45452 -32.115,-70.28082 -31.7049,-276.40678 0.3093,-155.42421 1.9907,-196.88875 9.3081,-229.53611 12.0861,-53.92361 23.5923,-72.39191 50.176,-80.53585 24.27,-7.43514 281.1537,-38.1467 361.5233,-43.22169 l 52.8425,-3.33677 v 46.06338 46.06338 l -20.3241,8.86 c -11.1782,4.87299 -84.8121,33.31631 -163.6309,63.20738 -78.8187,29.89107 -148.4773,57.73519 -154.7967,61.87582 -20.7019,13.56441 -29.7126,62.3333 -18.7856,101.67433 6.4896,23.36525 14.4145,35.21234 189.7177,283.61394 73.6283,104.33004 137.5528,197.00754 142.0545,205.95014 17.764,35.2879 25.7651,92.196 25.7651,183.2553 0,81.8119 -0.9049,90.1302 -11.2329,103.2601 l -11.2328,14.2802 h -224.7539 -224.7538 z"
     id="path55"
     inkscape:connector-curvature="0" />
  <path
     style="fill:#000000;stroke-width:5.41974068"
     d="m 838.13237,655.98612 c -9.2943,-6.37383 -22.0984,-19.1773 -28.4536,-28.45216 -11.1659,-16.29556 -11.555,-22.37259 -11.555,-180.47518 V 283.447 h 48.4578 c 26.6518,0 49.7457,2.08388 51.3198,4.63084 1.5741,2.54696 4.5224,65.3482 6.5517,139.55832 2.412,88.20428 5.7545,136.30632 9.6523,138.9093 3.2794,2.19 62.5226,4.01916 131.65163,4.0648 94.6751,0.0625 126.7711,-1.58867 130.0738,-6.69168 2.4116,-3.72607 5.1801,-68.44872 6.1524,-143.82811 l 1.7677,-137.05344 47.0099,1.55992 47.01,1.55993 1.4317,172.54197 1.4317,172.54197 -18.5039,18.50388 -18.5039,18.50389 -194.2977,-0.33685 C 860.00667,667.58351 854.59827,667.27812 838.13237,655.98612 Z"
     id="path57"
     inkscape:connector-curvature="0" />
  <path
     style="fill:#000000;stroke-width:5.41974068"
     d="M 1345.5176,622.24159 V 576.113 l 163.9471,-0.54024 c 90.1709,-0.29711 169.8636,-2.19357 177.0947,-4.2143 16.2052,-4.52851 26.2458,-29.76438 16.5098,-41.49548 -5.3659,-6.4655 -25.5158,-7.94739 -108.0641,-7.94739 -55.8076,0 -127.3789,-1.58535 -159.0473,-3.523 -55.1794,-3.37618 -58.3768,-4.25367 -76.7195,-21.05499 l -19.1405,-17.53199 0.1293,-64.30592 c 0.1499,-74.53453 5.0372,-100.92665 22.0418,-119.02718 l 12.2368,-13.02551 h 215.8449 215.8449 v 45.2645 45.26449 l -44.7129,3.48069 c -24.592,1.91438 -102.5801,3.49531 -173.3067,3.51317 l -128.5939,0.0325 -8.704,13.28398 c -4.7872,7.30619 -7.2301,17.9277 -5.4288,23.60336 4.3374,13.66593 47.7598,17.31006 206.2614,17.31006 134.5002,0 128.7712,-1.59104 147.0793,40.84641 7.0273,16.2889 9.3696,38.08571 9.6913,90.18397 0.3816,61.79993 -0.7236,70.24098 -10.9986,84.00598 l -11.4228,15.30262 -220.2711,1.41573 -220.2711,1.41573 z"
     id="path61"
     inkscape:connector-curvature="0" />
  <path
     style="fill:#000000;stroke-width:5.41974068"
     d="m 1874.6484,428.42507 c -1.7974,-6.70693 -3.3013,-60.36236 -3.342,-119.2343 l -0.074,-107.03987 h 158.7984 c 116.2835,0 160.5396,-1.74123 165.3021,-6.50369 8.4255,-8.42547 8.4022,-35.04119 -0.035,-40.25579 -3.5964,-2.2227 -77.3727,-5.41524 -163.9472,-7.09454 l -157.4082,-3.05326 -1.5733,-47.925224 -1.5733,-47.925224 203.9406,1.85743 203.9405,1.85743 10.3575,12.79484 c 9.2775,11.46056 10.3493,22.19899 10.2777,102.975068 -0.055,61.70651 -2.2403,94.45834 -6.9222,103.72958 l -6.8423,13.54936 -159.7294,4.51107 c -87.8512,2.48109 -160.7396,5.52118 -161.9742,6.75576 -1.2346,1.23458 -3.3898,33.95868 -4.7895,72.72023 l -2.5449,70.47554 h -39.2966 c -36.1705,0 -39.5565,-0.97006 -42.5645,-12.19441 z"
     id="path63"
     inkscape:connector-curvature="0" />
  <path
     style="fill:#000000;stroke-width:5.41974068"
     d="m 2401.7885,432.50662 c -7.7703,-4.22337 -18.7452,-14.49098 -24.3888,-22.8169 -9.4576,-13.95279 -10.261,-26.90603 -10.261,-165.43993 V 93.947902 l 20.4072,-20.41994 20.4073,-20.41993 169.2086,-1.77838 c 93.0648,-0.97811 179.6077,-0.21895 192.3176,1.68702 l 23.1089,3.4654 v 45.735708 45.73571 l -128.7188,0.63348 c -70.7954,0.34844 -144.5716,2.17758 -163.9472,4.06481 l -35.2283,3.43132 v 21.67896 21.67897 l 162.5922,3.07023 c 89.4257,1.68863 163.2019,3.51779 163.9472,4.06481 0.7452,0.54701 1.3549,19.28619 1.3549,41.64262 v 40.64806 l -77.2313,0.0179 c -42.4772,0.01 -115.7649,1.61621 -162.8616,3.5695 -77.6027,3.21851 -86.1654,4.5513 -91.3382,14.21686 -4.0177,7.50701 -3.9723,14.47483 0.1531,23.5292 l 5.8612,12.86396 h 129.3949 c 71.1672,0 144.386,1.56688 162.7084,3.48195 l 33.3135,3.48195 v 45.29571 45.29572 l -188.336,-0.21699 c -151.9232,-0.17504 -191.0674,-1.70162 -202.4638,-7.89587 z"
     id="path65"
     inkscape:connector-curvature="0" />
  <path
     style="fill:#000000;stroke-width:10.83948135"
     d="m 2859.661,256.09032 c 5.0623,-115.51008 12.4418,-184.458448 20.2847,-189.524938 24.2708,-15.67889 80.4099,-7.87864 111.131,15.44109 17.1987,13.055171 76.1708,66.710598 131.0491,119.234278 54.8783,52.5237 104.8754,95.49762 111.1047,95.49762 7.1885,0 11.3259,-43.55673 11.3259,-119.23429 V 58.269792 h 43.358 43.3579 V 236.73985 c 0,197.76015 -1.1731,200.91178 -74.7866,200.91178 -36.604,0 -65.2773,-21.77008 -203.9204,-154.82574 -48.9588,-46.98575 -94.0782,-82.30008 -100.2652,-78.47629 -6.6103,4.08542 -11.2491,53.62214 -11.2491,120.12719 v 113.17484 h -44.6735 -44.6735 z"
     id="path67"
     inkscape:connector-curvature="0" />
  <path
     style="fill:#000000;stroke-width:7.66467047"
     d="M 3396.2171,551.27222 V 436.30216 h 42.1557 42.1557 l 0.1046,51.73653 c 0.188,92.9211 -8.677,86.94663 125.3911,84.50592 l 115.9415,-2.11071 1.934,-84.31138 c 1.0637,-46.37126 -1.011,-88.85994 -4.6105,-94.41931 -4.9055,-7.57661 -46.1782,-11.23167 -164.8082,-14.59518 l -158.2639,-4.48726 v -45.17471 -45.17472 l 196.1244,2.28487 196.1243,2.28487 18.4864,21.50526 c 18.1168,21.07518 18.4865,24.37898 18.4865,165.20303 v 143.69778 l -25.2751,24.49756 -25.275,24.49757 h -189.3357 -189.3358 z"
     id="path69"
     inkscape:connector-curvature="0" />
  <path
     style="fill:#000000;stroke-width:7.66467047"
     d="m 3902.6417,646.04696 c -14.7949,-18.80875 -15.8856,-30.11468 -15.8856,-164.6695 V 336.90329 l 22.3533,-25.0311 22.3533,-25.03111 196.0898,-2.28487 196.0898,-2.28487 v 46.35673 46.35673 l -159.0419,0.11737 c -87.4731,0.0644 -163.6551,3.04143 -169.2934,6.6153 -16.7109,10.59231 -7.5118,41.78621 14.0838,47.75796 10.5389,2.91429 83.8323,5.64251 162.8743,6.06272 l 143.7125,0.76401 v 42.00326 42.00326 l -162.8742,2.06859 -162.8743,2.0686 v 22.99402 22.99401 l 164.7904,4.51542 c 90.6348,2.48349 165.6527,5.07031 166.7066,5.74851 1.0539,0.67819 1.9162,20.20313 1.9162,43.38876 v 42.15569 h -202.5575 -202.5574 z"
     id="path71"
     inkscape:connector-curvature="0" />
  <path
     style="fill:#000000;stroke-width:7.66467047"
     d="m 4379.1323,1059.0567 1.995,-342.99406 44.0719,-2.29866 44.0718,-2.29867 0.084,170.92142 c 0.047,94.00678 2.2223,183.85557 4.8352,199.66397 l 4.7509,28.7425 h 109.0672 109.0673 l 4.8333,-40.2395 c 7.7793,-64.7661 5.7257,-454.96939 -2.5084,-476.62682 l -7.475,-19.66065 h -157.4846 -157.4846 l 2.0853,-143.71257 2.0853,-143.71258 192.5334,-2.04567 192.5334,-2.04568 16.0151,37.22818 c 30.0909,69.94814 31.5927,94.64695 31.7847,522.71768 0.1719,383.53541 -0.9794,422.09791 -14.0044,469.07021 -7.8055,28.1489 -19.9568,59.9785 -27.003,70.7324 l -12.8114,19.5525 h -191.5189 -191.519 z"
     id="path73"
     inkscape:connector-curvature="0" />
</svg>
