<?xml version="1.0" encoding="UTF-8" standalone="no"?>
<!-- Created with Inkscape (http://www.inkscape.org/) -->

<svg
   xmlns:dc="http://purl.org/dc/elements/1.1/"
   xmlns:cc="http://creativecommons.org/ns#"
   xmlns:rdf="http://www.w3.org/1999/02/22-rdf-syntax-ns#"
   xmlns:svg="http://www.w3.org/2000/svg"
   xmlns="http://www.w3.org/2000/svg"
   xmlns:sodipodi="http://sodipodi.sourceforge.net/DTD/sodipodi-0.dtd"
   xmlns:inkscape="http://www.inkscape.org/namespaces/inkscape"
   version="1.1"
   id="svg1125"
   width="6900"
   height="1500"
   viewBox="0 0 6900 1500"
   sodipodi:docname="Waves.svg"
   inkscape:version="0.92.1 r15371">
  <metadata
     id="metadata1131">
    <rdf:RDF>
      <cc:Work
         rdf:about="">
        <dc:format>image/svg+xml</dc:format>
        <dc:type
           rdf:resource="http://purl.org/dc/dcmitype/StillImage" />
        <dc:title></dc:title>
      </cc:Work>
    </rdf:RDF>
  </metadata>
  <defs
     id="defs1129" />
  <sodipodi:namedview
     pagecolor="#ffffff"
     bordercolor="#666666"
     borderopacity="1"
     objecttolerance="10"
     gridtolerance="10"
     guidetolerance="10"
     inkscape:pageopacity="0"
     inkscape:pageshadow="2"
     inkscape:window-width="1366"
     inkscape:window-height="692"
     id="namedview1127"
     showgrid="false"
     inkscape:zoom="0.12623188"
     inkscape:cx="3450"
     inkscape:cy="750"
     inkscape:window-x="0"
     inkscape:window-y="27"
     inkscape:window-maximized="1"
     inkscape:current-layer="svg1125" />
  <path
     style="fill:#000000"
     d="m 2183.7585,1498.8994 c -18.2406,-1.9028 -36.5545,-7.0637 -47.1941,-13.2994 -7.7762,-4.5575 -14.6313,-12.181 -17.2521,-19.1859 -2.7039,-7.2267 -2.7577,-18.267 -0.1174,-24.0822 5.2264,-11.5109 21.5314,-20.2127 40.9837,-21.8725 10.8076,-0.9222 13.0799,-1.4442 13.0799,-3.0047 0,-0.8001 -0.6293,-1.4547 -1.3983,-1.4547 -0.7691,0 -5.3816,-1.998 -10.25,-4.4401 -15.2884,-7.6688 -23.3806,-17.8246 -24.1858,-30.3534 -0.5393,-8.3913 1.5945,-13.7733 7.7394,-19.5212 5.658,-5.2923 10.6735,-8.0041 21.5947,-11.676 4.6491,-1.563 8.1206,-3.3082 8.288,-4.1663 0.1927,-0.9877 -1.7968,-2.3038 -6.0092,-3.9751 -27.5478,-10.9298 -41.7788,-28.8832 -41.7788,-52.707 0,-22.7412 14.2097,-40.32 41.2871,-51.0763 13.7018,-5.443 25.8766,-7.3988 46.2129,-7.4237 15.7466,-0.019 19.5926,0.3134 30.7214,2.6585 12.4266,2.6185 13.5449,2.6806 48.25,2.6806 h 35.5286 v 9.5 9.5 h -20 c -13.9407,0 -20,0.335 -20,1.1056 0,0.6081 1.1499,2.4723 2.5554,4.1426 7.1912,8.5463 10.8105,20.434 10.2756,33.751 -0.3564,8.8723 -0.7293,10.4104 -4.2525,17.5392 -5.5254,11.1798 -14.1765,19.5529 -26.5785,25.724 -18.1231,9.018 -32.8121,11.7302 -63.5538,11.7348 h -19.0539 l -3.2128,3.3148 c -3.9972,4.1241 -5.3487,8.4885 -4.0665,13.1323 1.9498,7.0614 6.5852,9.3815 21.2007,10.6114 6.1525,0.5178 25.5863,1.5998 43.1863,2.4046 35.425,1.6198 40.4822,2.4812 53.7275,9.1515 12.99,6.5416 23.8822,19.2227 27.2741,31.7532 2.3374,8.635 1.7105,23.6974 -1.3357,32.0931 -7.6385,21.0526 -28.2112,36.0614 -60.1659,43.8938 -5.775,1.4155 -14.8698,3.0398 -20.2106,3.6095 -11.2385,1.1988 -49.5653,1.1583 -61.2894,-0.065 z m 62.2441,-15.2396 c 18.6811,-5.2568 27.3188,-16.0966 27.6186,-34.6598 0.2149,-13.3054 -3.8655,-19.4133 -16.3627,-24.4932 -3.934,-1.5991 -8.4713,-1.8866 -36.0717,-2.2855 l -31.5718,-0.4563 -4.1993,4.8675 c -6.5974,7.6471 -9.4255,14.2894 -9.9513,23.3718 -0.3908,6.7507 -0.1202,8.5032 2.0427,13.2275 1.3712,2.9952 4.4638,7.3454 6.8723,9.6672 5.1962,5.009 16.513,10.8545 23.4321,12.1033 7.1329,1.2875 31.9444,0.4153 38.1911,-1.3425 z m -23.4233,-148.7319 c 8.0426,-2.2333 14.956,-11.3261 18.3946,-24.1932 1.9659,-7.3566 2.2343,-31.4427 0.4336,-38.9194 -4.6027,-19.1113 -12.9127,-27.7714 -26.649,-27.7714 -15.5172,0 -24.2624,10.9449 -26.6053,33.2978 -2.9859,28.4859 5.5155,53.4616 19.6053,57.5973 4.22,1.2387 10.3364,1.2341 14.8208,-0.011 z m 1025.6792,158.7188 v -6.3532 l 7.3206,-0.6188 c 16.6038,-1.4036 23.1441,-4.6069 25.5067,-12.4927 1.248,-4.1653 1.752,-74.182 0.534,-74.182 -0.3513,0 -3.6138,2.4323 -7.25,5.405 -18.1152,14.81 -40.6675,20.425 -65.0007,16.1837 -17.5721,-3.0629 -30.4741,-9.7484 -42.6106,-22.0798 -11.9721,-12.1644 -18.9555,-25.1776 -23.708,-44.1787 -1.8902,-7.5575 -2.2146,-11.6407 -2.2503,-28.3302 -0.047,-22.1192 0.9258,-27.5608 7.4422,-41.6188 5.2125,-11.2449 10.4695,-18.5972 19.6559,-27.4904 16.7005,-16.1672 34.9994,-24.3187 60.542,-26.9692 23.4486,-2.4333 51.9249,2.6747 75.4141,13.5274 l 7.7654,3.5878 11.7953,-11.6501 11.7953,-11.65 4.2741,0.6828 c 2.3507,0.3756 4.6825,1.0909 5.1818,1.5895 0.5437,0.543 0.3757,8.0423 -0.4191,18.6988 -1.7521,23.4938 -2.6468,214.9965 -1.0394,222.4913 0.5935,2.7677 2.0445,6.3879 3.2244,8.0449 2.7977,3.929 10.7857,7.5136 21.6217,9.7028 l 8.7046,1.7585 0.2977,6.1474 0.2977,6.1473 h -64.5477 -64.5477 z m 13.53,-98.1965 c 6.4504,-1.6801 13.4108,-5.6914 17.7688,-10.2402 l 2.7516,-2.872 -0.2752,-54.419 -0.2752,-54.419 -3.1257,-6.5 c -4.2171,-8.7695 -9.281,-14.3159 -16.1501,-17.6891 -4.9925,-2.4516 -6.8745,-2.81 -14.7242,-2.8037 -10.6752,0.01 -15.0708,1.8655 -22.5212,9.5146 -16.498,16.9378 -24.4107,63.7033 -16.9446,100.1449 4.2655,20.8197 16.2554,36.3421 30.7003,39.7452 6.0359,1.4221 16.3665,1.2128 22.7955,-0.4617 z m -3157.53,28.9591 c -1.375,-0.2419 -6.775,-1.1583 -12,-2.0363 -11.542,-1.9396 -32.9383,-8.806 -42.5968,-13.67 l -7.0916,-3.5712 -6.4058,6.4689 -6.4058,6.4688 -7.5,-0.2847 -7.5,-0.2848 -0.645,-27 c -0.3548,-14.85 -0.9219,-35.8875 -1.2603,-46.75 L 12.2379,1324 h 8.0103 c 5.4848,0 8.0103,0.3718 8.0103,1.1791 0,2.2491 12.8187,27.3616 18.0295,35.3209 14.5032,22.1528 31.5022,36.7914 50.6952,43.6559 9.1328,3.2664 29.2653,3.7476 40.2779,0.9628 18.156,-4.5913 29.7361,-16.1365 33.0426,-32.943 2.683,-13.6375 -0.9953,-25.2108 -10.9387,-34.4166 -9.0201,-8.3511 -19.2323,-12.9751 -55.0543,-24.9284 -17.9037,-5.9742 -36.6243,-12.8777 -41.6012,-15.3412 -16.2323,-8.0345 -27.9936,-19.648 -35.4346,-34.9895 -5.0488,-10.4094 -6.9224,-17.7386 -7.6691,-30 -0.8046,-13.2141 1.1853,-23.0497 7.081,-35 8.3552,-16.9354 19.6122,-27.7367 38.2345,-36.6867 34.0102,-16.3454 75.8197,-15.2246 116.7108,3.1288 l 6.8736,3.0851 6.2801,-5.5136 6.2801,-5.5136 h 7.011 7.011 l 0.5501,7.25 c 0.3026,3.9875 0.7663,24.0125 1.0306,44.5 l 0.4805,37.25 h -7.7004 -7.7004 l -2.3965,-6.1804 c -3.6416,-9.3916 -14.661,-31.3033 -19.4723,-38.7203 -9.4252,-14.5299 -23.309,-26.0287 -36.415,-30.16 -8.5675,-2.7006 -20.9556,-3.5365 -29.74,-2.0068 -24.6838,4.2985 -40.3749,26.6698 -34.0254,48.5113 3.3629,11.5679 10.1988,18.6706 25.0594,26.0374 4.95,2.4539 23.175,9.2077 40.5,15.0084 34.7496,11.6349 49.4517,18.2013 59.9836,26.7907 12.5045,10.1979 20.2976,22.3492 24.128,37.6206 1.7864,7.1224 2.0378,10.4706 1.6522,22 -0.3991,11.9281 -0.8213,14.6025 -3.4361,21.7646 -8.7498,23.9663 -26.5546,40.9206 -53.7113,51.1455 -15.4993,5.8358 -24.606,7.3245 -47.1164,7.7025 -11,0.1846 -21.125,0.1378 -22.5,-0.1042 z m 2873.5259,-0.9365 c -16.3375,-2.6494 -36.3294,-8.8411 -48.7427,-15.0961 -2.5942,-1.3072 -5.3582,-2.3767 -6.1422,-2.3767 -0.7841,0 -3.9253,2.7 -6.9805,6 l -5.555,6 h -7.4915 -7.4915 l -0.5273,-4.25 c -0.2901,-2.3375 -0.7787,-19.55 -1.086,-38.25 -0.3072,-18.7 -0.8305,-37.9375 -1.1629,-42.75 l -0.6043,-8.75 7.879,0.014 7.879,0.014 4,9.1676 c 13.452,30.8305 34.2839,56.0452 54.9775,66.5441 10.3064,5.229 15.4161,6.4587 29.0658,6.9953 19.9777,0.7853 32.1648,-2.8934 43.1589,-13.0273 13.1992,-12.1666 16.0994,-35.0954 6.3089,-49.8765 -7.3478,-11.0931 -19.3755,-17.2841 -59.0111,-30.3747 -34.2891,-11.3248 -41.9875,-14.41 -51.8053,-20.7611 -14.2368,-9.2098 -23.641,-20.469 -29.2859,-35.0629 -8.2158,-21.2403 -7.6908,-41.061 1.5929,-60.1317 11.4945,-23.6122 33.2762,-38.9415 64.8982,-45.6734 13.2969,-2.8307 37.7408,-3.0386 51.0638,-0.4342 11.1502,2.1796 25.1757,6.6297 37.3781,11.8595 l 9.3418,4.0038 5.6872,-5.6279 5.6872,-5.6278 h 7.2524 c 4.93,0 7.3756,0.4003 7.6371,1.25 0.2116,0.6875 0.6429,20.7125 0.9584,44.5 l 0.5737,43.25 h -7.7449 -7.7449 l -2.394,-6.25 c -4.5515,-11.8827 -13.914,-30.3471 -20.0052,-39.4535 -9.8621,-14.7441 -22.6159,-25.0356 -37.0906,-29.9299 -7.7952,-2.6358 -27.2717,-2.6227 -35,0.024 -11.8797,4.0677 -20.9223,11.9145 -25.8042,22.3918 -2.2649,4.8608 -2.6643,7.0675 -2.6643,14.7181 0,7.5826 0.4071,9.8734 2.5853,14.5456 3.3998,7.2925 7.4865,11.8095 15.2762,16.8847 8.8591,5.7719 17.7911,9.3397 50.107,20.0147 40.9537,13.5283 54.3235,20.4165 67.4656,34.7588 11.4087,12.4505 17.225,28.7152 17.2709,48.2962 0.03,12.6727 -1.8594,21.2892 -7.1017,32.3924 -11.439,24.2278 -35.9201,41.7553 -68.0258,48.7038 -12.8112,2.7726 -45.2713,3.5354 -58.5831,1.3766 z m 2242.9741,0.3837 c -14.9671,-1.07 -38.2292,-7.8178 -48.2047,-13.983 l -3.3355,-2.0615 -3.0103,6.639 -3.0102,6.639 -6.7197,-0.295 -6.7196,-0.295 -0.636,-16 c -0.3498,-8.8 -0.9463,-24.2125 -1.3255,-34.25 l -0.6896,-18.25 h 6.3915 6.3916 l 2.2125,5.3382 c 3.7319,9.0037 12.0789,21.575 19.5461,29.438 18.9519,19.9564 41.3579,27.2391 63.5384,20.6522 12.266,-3.6426 19.2912,-17.005 16.048,-30.5242 -2.3409,-9.7579 -13.7187,-17.3615 -34.977,-23.3745 -16.7038,-4.7248 -34.3348,-10.694 -40.0066,-13.5449 -15.9493,-8.0168 -27.2768,-20.7401 -31.592,-35.4848 -2.6088,-8.9139 -2.3649,-24.1099 0.5206,-32.446 7.9907,-23.0842 31.7175,-38.0905 65.0328,-41.1307 18.7869,-1.7144 43.0392,1.5217 60.1537,8.0265 2.9653,1.1271 5.6358,2.0494 5.9344,2.0497 0.2986,3e-4 1.3842,-2.4745 2.4124,-5.4995 l 1.8695,-5.5 h 6.8376 6.8376 v 3.8653 c 0,4.4594 1.7593,42.3709 2.4309,52.3847 l 0.4527,6.75 h -6.2578 -6.2578 l -2.3002,-5.5497 c -3.5853,-8.6503 -11.106,-19.3668 -18.2921,-26.0652 -11.7727,-10.9738 -22.8725,-15.6561 -36.9681,-15.5946 -18.1874,0.079 -29.7308,8.6884 -29.7801,22.2095 -0.059,16.1512 8.3951,22.2592 45.5624,32.919 38.4032,11.0144 56.0715,24.3265 61.8789,46.6226 1.9426,7.4581 1.9398,20.0995 -0.01,28.3553 -7.6528,32.4653 -44.8839,51.4685 -93.9626,47.9596 z m 752.5,0.1207 c -16.2254,-2.2451 -35.8766,-8.0795 -49.9245,-14.8225 l -7.9628,-3.8222 -6.2775,6.3337 -6.2774,6.3338 h -7.6368 -7.6367 l -0.6366,-18.25 c -0.3502,-10.0375 -0.9311,-31.1875 -1.2909,-47 l -0.6542,-28.75 7.3987,0.014 7.3987,0.014 7.1768,14.7359 c 12.1099,24.8648 24.8032,41.6829 40.1544,53.2027 14.7316,11.0549 26.444,15.0449 44.0788,15.0159 18.3422,-0.03 29.581,-3.6848 39.307,-12.7823 8.9361,-8.3587 12.8385,-17.5239 12.8802,-30.25 0.036,-11.0864 -2.7578,-17.8294 -10.5736,-25.5176 -8.9017,-8.7565 -19.5312,-13.6275 -55.5413,-25.4521 -33.2105,-10.9054 -47.056,-16.9587 -57.1196,-24.9731 -18.2223,-14.5117 -27.8627,-35.0838 -27.8627,-59.4574 0,-13.5805 1.5099,-19.9876 7.6707,-32.5501 3.9552,-8.0651 6.0311,-10.8594 13.7441,-18.5 9.8384,-9.7461 17.5763,-14.7965 30.0544,-19.616 34.6628,-13.3879 72.3919,-11.2267 110.8295,6.3484 l 6.7987,3.1086 5.7303,-5.6705 5.7303,-5.6705 h 7.5602 7.5602 l 0.6588,27.75 c 0.3624,15.2625 0.6598,35.2875 0.6609,44.5 v 16.75 h -7.3813 -7.3814 l -3.7381,-8.75 c -5.6889,-13.3163 -14.2278,-30.0605 -18.7412,-36.75 -14.5049,-21.4985 -33.1601,-32.4597 -55.258,-32.4679 -18.6961,-0.01 -33.9742,8.1322 -41.5729,22.147 -3.312,6.1086 -3.4271,6.6903 -3.4271,17.3209 0,13.0663 1.629,17.3433 9.6672,25.3815 7.7337,7.7336 18.9096,12.8193 55.0704,25.0601 17.9324,6.0703 36.0578,12.6107 40.2786,14.5341 32.7644,14.9312 49.1768,40.9681 47.15,74.7994 -2.2543,37.6291 -30.9683,66.0221 -77.1662,76.3037 -8.3084,1.8491 -43.5802,2.771 -53.5,1.3984 z m -5233.5,-1.0634 c -15.8059,-2.1569 -34.5329,-9.0565 -46.1782,-17.0136 -16.5083,-11.2799 -28.9611,-29.1747 -34.1872,-49.1273 -7.98,-30.4665 -3.6239,-60.128 12.3761,-84.2729 12.792,-19.3036 32.1204,-32.7758 56.2835,-39.2302 8.6982,-2.3235 11.6264,-2.6019 28.2058,-2.6812 11.2031,-0.054 21.261,0.4196 25.5,1.2 26.678,4.9109 46.4901,18.5301 56.4821,38.8265 4.8944,9.9421 7.1219,20.1924 7.7439,35.6349 l 0.5537,13.75 h -62.7926 -62.7927 l 0.6155,10.7573 c 2.5755,45.014 22.4105,67.1527 60.23,67.2253 17.1149,0.033 29.5726,-5.3153 42.9081,-18.4207 4.5119,-4.4341 9.2944,-9.5438 10.6277,-11.355 l 2.4243,-3.2931 6.7154,4.6974 6.7154,4.6974 -1.6755,2.8363 c -3.2249,5.4594 -13.8433,17.3327 -20.4076,22.8196 -11.6403,9.7297 -25.8764,16.9942 -41.4393,21.1461 -9.1421,2.439 -35.8757,3.4452 -47.9084,1.8032 z m 36.394,-118.5788 5.3941,-0.6477 -0.6685,-12.504 c -1.5114,-28.2717 -8.0485,-42.7944 -20.8129,-46.2373 -15.7568,-4.2501 -29.8601,7.1809 -35.2293,28.554 -1.7295,6.8845 -3.5774,20.947 -3.5774,27.2238 V 1305 l 24.75,-0.01 c 13.6125,0 27.1773,-0.3001 30.144,-0.6563 z m 900.3817,118.2245 c -14.3057,-3.2715 -27.5629,-13.3036 -33.4897,-25.3426 -3.0098,-6.1138 -3.3158,-7.6125 -3.6403,-17.8312 -0.5591,-17.6076 3.3152,-27.9103 14.3926,-38.2727 10.1322,-9.4781 22.7941,-14.8602 62.9184,-26.7443 12.0761,-3.5768 25.4636,-7.8557 29.75,-9.5086 l 7.7933,-3.0055 v -14.2436 c 0,-25.1256 -3.5178,-35.0605 -14.5,-40.9511 -3.2376,-1.7366 -5.7153,-2.1469 -13,-2.1527 -7.8201,-0.01 -9.8194,0.3712 -15.25,2.8794 -7.3437,3.3916 -7.3724,3.5111 -3.75,15.6134 3.1667,10.58 3.1991,16.9567 0.1196,23.5701 -4.4662,9.5913 -15.144,14.0609 -31.5709,13.2151 -17.2009,-0.8856 -26.3604,-8.2442 -28.5526,-22.9386 -1.586,-10.6313 4.3553,-20.6054 17.4663,-29.3216 21.0562,-13.9981 52.8631,-19.9116 88.6139,-16.4749 26.0831,2.5073 42.426,10.207 51.8726,24.4389 9.2345,13.9123 10.1022,22.1489 8.5465,81.1248 -1.1034,41.8265 -1.0659,46.6318 0.403,51.6846 1.2009,4.1311 2.5794,6.362 5.3343,8.6328 3.955,3.26 5.3825,3.6361 17.5173,4.6145 l 7.75,0.6249 v 6.3169 c 0,6.218 -0.051,6.3353 -3.25,7.4967 -18.6495,6.7703 -34.2123,9.0331 -49.661,7.2206 -17.757,-2.0834 -27.1468,-7.0665 -33.0692,-17.5495 -1.6019,-2.8354 -3.2994,-5.7926 -3.7722,-6.5715 -0.6715,-1.1059 -2.5996,0.056 -8.8037,5.3039 -8.618,7.2903 -21.9675,14.43 -31.9439,17.0844 -8.5302,2.2697 -30.3411,2.8901 -38.2243,1.0874 z m 63.1913,-29.9995 c 2.8463,-1.3926 7.2806,-4.6078 9.854,-7.1449 l 4.679,-4.6128 v -31.4686 -31.4685 l -2.25,0.6818 c -4.8222,1.4613 -19.583,7.8038 -26.0713,11.2025 -9.6785,5.0698 -15.9884,11.1029 -19.88,19.0078 -2.9047,5.9002 -3.3039,7.7474 -3.6407,16.8453 -0.2811,7.5961 0.04,11.4771 1.2511,15.1236 1.9272,5.8023 7.426,11.5681 13.102,13.738 5.7676,2.205 16.3514,1.327 22.9559,-1.9042 z m 816.033,29.9166 c -36.0611,-5.8125 -63.1073,-25.937 -74.3632,-55.3322 -5.3753,-14.0376 -6.6439,-21.8885 -6.5679,-40.6444 0.083,-20.5183 1.6272,-27.3624 9.926,-44 6.2261,-12.482 14.4144,-22.977 23.7635,-30.4574 8.8062,-7.046 26.2035,-15.5744 38.2416,-18.7466 9.0472,-2.384 11.8104,-2.6422 29,-2.7097 26.5309,-0.1041 40.2608,3.0559 55.9877,12.8861 21.8084,13.6313 31.6136,32.7475 33.2261,64.7776 l 0.5915,11.75 h -62.486 c -34.3673,0 -62.6788,0.1928 -62.9145,0.4286 -0.2357,0.2357 -0.1277,5.53 0.2401,11.7652 2.5651,43.4922 22.8792,65.8062 59.9082,65.8062 10.0063,0 18.7342,-1.8451 25.8965,-5.4744 7.3829,-3.7413 18.2262,-12.7956 24.4843,-20.4448 l 5.8047,-7.0951 6.0789,4.3516 c 3.3433,2.3934 6.2251,4.7906 6.404,5.3272 0.4815,1.4444 -9.1295,13.7635 -16.1225,20.6656 -11.4486,11.2995 -29.3616,21.2817 -46.3364,25.8212 -10.2894,2.7517 -37.5046,3.4622 -50.7626,1.3253 z m 37.8068,-118.1336 6.8069,-0.6428 -0.6294,-10.6001 c -1.8622,-31.3611 -8.1867,-45.0997 -22.2054,-48.237 -4.1438,-0.9273 -6.5,-0.925 -10.5567,0.01 -13.1677,3.0365 -21.4276,15.0479 -25.1868,36.6264 -1.1226,6.444 -2.0031,18.8766 -1.6113,22.75 0.092,0.9138 43.8836,0.99 53.3827,0.093 z m 857.9195,118.5804 c -21.6649,-3.3471 -36.4833,-16.9657 -42.8965,-39.4234 -1.4869,-5.2068 -1.7872,-13.1391 -2.2716,-60 -0.5466,-52.8803 -0.603,-54.0829 -2.7166,-58 -4.3393,-8.0417 -12.0902,-12.8653 -22.6706,-14.1089 l -5.671,-0.6665 v -6.3623 c 0,-3.4993 0.1125,-6.3665 0.25,-6.3717 0.1375,-0.01 20.2574,-1.1157 44.7109,-2.4678 34.7022,-1.9188 44.6307,-2.1911 45.2347,-1.2406 0.4256,0.6698 0.7841,30.0178 0.7966,65.2178 0.014,39.5733 0.4214,66.4558 1.0669,70.4344 2.1165,13.0446 7.6281,20.8712 17.2988,24.5645 6.7293,2.5699 19.3816,1.6826 27.2278,-1.9095 6.3813,-2.9215 13.2119,-8.0086 18.1268,-13.5001 l 3.2124,-3.5893 0.028,-53.5 0.028,-53.5 -2.3485,-5 c -3.9153,-8.3357 -8.7397,-11.112 -21.13,-12.1593 l -7.502,-0.6342 v -6.3532 c 0,-3.4943 0.1125,-6.3647 0.25,-6.3786 0.1375,-0.014 20.0354,-1.1128 44.2176,-2.4419 31.2454,-1.7173 44.3387,-2.1086 45.25,-1.3522 1.0214,0.8477 1.2824,15.6819 1.2824,72.8926 0,46.2144 0.373,73.5675 1.046,76.7055 1.9685,9.1789 9.5922,15.5366 20.0589,16.728 10.3924,1.183 9.8951,0.8054 9.8951,7.5124 0,3.2895 -0.1125,6.0221 -0.25,6.0725 -0.1375,0.05 -19.825,1.344 -43.75,2.8746 -29.1947,1.8678 -43.9111,2.4551 -44.75,1.786 -0.879,-0.7011 -1.25,-4.671 -1.25,-13.3746 0,-7.9648 -0.3737,-12.3776 -1.0482,-12.3776 -0.5766,0 -5.2818,3.7692 -10.456,8.376 -10.2331,9.1108 -21.9632,15.8797 -33.8112,19.5106 -8.0467,2.4661 -27.7465,3.5372 -37.4583,2.0368 z m 234.2737,0.4988 c -1.1,-0.268 -4.025,-0.9943 -6.5,-1.6139 -12.8302,-3.2124 -25.6892,-13.369 -31.2645,-24.694 -2.891,-5.8724 -3.2551,-7.6156 -3.5813,-17.1439 -0.6083,-17.7726 3.5806,-28.8199 14.9262,-39.3644 9.4079,-8.7437 22.5476,-14.3013 60.9196,-25.767 12.925,-3.862 27.0358,-8.382 31.3574,-10.0445 l 7.8574,-3.0227 -0.3865,-18.1359 c -0.369,-17.316 -0.5121,-18.407 -3.1652,-24.133 -5.3894,-11.6316 -10.793,-14.9851 -24.1631,-14.9957 -7.8201,-0.01 -9.8194,0.3712 -15.25,2.8794 -4.3177,1.9941 -6.25,3.4488 -6.25,4.7053 0,1.0004 1.1768,5.9212 2.615,10.9352 4.4383,15.4728 2.2576,25.4127 -6.9446,31.6541 -5.9534,4.0378 -13.7464,5.6554 -24.7181,5.1309 -15.5333,-0.7427 -25.3877,-7.9584 -27.9904,-20.4957 -3.5548,-17.1231 9.9815,-32.0815 37.839,-41.8143 23.4808,-8.2037 62.2536,-9.7517 86.8348,-3.4668 19.398,4.9596 32.7834,16.2437 38.3046,32.2911 4.1135,11.9562 4.435,19.0448 3.1592,69.6539 -1.0714,42.5027 -1.0326,48.0661 0.3678,52.6947 2.6871,8.8819 7.6716,11.691 22.7827,12.8395 l 8.75,0.665 v 5.9458 5.9458 l -4.7297,2.0274 c -2.6014,1.115 -9.0139,3.1882 -14.25,4.6071 -8.0153,2.1718 -11.7335,2.5899 -23.5203,2.6447 -21.0979,0.098 -30.9094,-2.7099 -39.5476,-11.3184 -2.5011,-2.4925 -5.4261,-6.6677 -6.5,-9.2782 -1.0738,-2.6104 -2.3055,-4.7479 -2.737,-4.75 -0.4316,0 -4.2566,2.963 -8.5,6.5889 -8.3626,7.1455 -21.59,14.1854 -31.7154,16.8795 -5.8543,1.5577 -29.9405,2.9392 -34,1.9501 z m 58.5941,-30.6139 c 2.9733,-1.3646 7.5434,-4.5629 10.1559,-7.1074 l 4.75,-4.6263 v -31.5373 c 0,-17.3455 -0.242,-31.5373 -0.5377,-31.5373 -0.2957,0 -4.6106,1.5729 -9.5885,3.4954 -21.6647,8.3669 -33.4483,16.9649 -38.5636,28.1381 -2.0807,4.5449 -2.7303,7.7701 -3.0964,15.3738 -0.6352,13.1915 1.1893,19.4171 7.2556,24.7569 2.4534,2.1595 5.939,4.4272 7.7457,5.0392 5.2645,1.7832 15.7248,0.8294 21.879,-1.9951 z m 405.4059,30.1055 c -15.8059,-2.1569 -34.5329,-9.0565 -46.1782,-17.0136 -21.456,-14.6606 -34.1616,-37.6202 -37.3847,-67.556 -2.6559,-24.6675 3.5976,-49.3258 17.4228,-68.7001 13.1906,-18.4849 34.6668,-32.1478 58.6558,-37.3162 10.2805,-2.2149 38.5893,-2.5172 49.4843,-0.5285 41.8141,7.6326 64.5,35.1833 64.5,78.3316 V 1320 h -62.5 -62.5 l 0.01,6.25 c 0.01,8.5466 2.5642,24.8823 5.1246,32.75 8.5407,26.2441 26.5684,38.9272 55.4094,38.9826 17.0975,0.033 29.545,-5.3071 42.9388,-18.4207 4.5288,-4.4341 9.3538,-9.5642 10.7223,-11.4003 l 2.4882,-3.3385 6.5964,4.784 6.5965,4.7839 -1.6511,2.7951 c -3.2031,5.4223 -13.8398,17.309 -20.3833,22.7784 -11.6403,9.7297 -25.8764,16.9942 -41.4393,21.1461 -9.1421,2.439 -35.8757,3.4452 -47.9084,1.8032 z m 36.3964,-118.5791 5.3964,-0.648 -0.6142,-12.0933 c -1.4472,-28.4983 -8.0163,-43.1799 -20.8719,-46.6474 -11.772,-3.1752 -24.3126,3.3246 -30.7464,15.9357 -4.0628,7.9638 -8.0603,27.7234 -8.0603,39.8421 V 1305 l 24.75,-0.01 c 13.6125,0 27.1784,-0.3003 30.1464,-0.6566 z m 670.1036,118.1386 c -40.8153,-6.4005 -70.316,-32.0346 -80.625,-70.0578 -1.5473,-5.7068 -1.8632,-10.3237 -1.8074,-26.4155 0.063,-18.2154 0.2448,-20.079 2.7567,-28.2883 4.7534,-15.5346 11.4305,-26.8778 22.3794,-38.0191 20.5871,-20.9488 50.7206,-31.0283 87.7228,-29.343 21.2475,0.9678 34.3061,4.0732 50.0735,11.9078 23.9242,11.8875 39.8858,31.2314 46.45,56.2927 2.1668,8.2727 4.2074,25.9485 3.5736,30.9547 -0.2086,1.6474 -0.643,5.9721 -0.9655,9.6105 -2.3599,26.6303 -17.1351,51.3806 -39.8848,66.8123 -21.7441,14.7495 -58.2156,21.4789 -89.6733,16.5457 z m 37.4745,-15.4609 c 16.1398,-7.8132 24.1642,-29.191 26.0923,-69.5124 0.7066,-14.7778 -0.6976,-37.8826 -3.1588,-51.9717 -4.0731,-23.3174 -14.2497,-37.4852 -29.1463,-40.5778 -19.4486,-4.0375 -34.3512,5.9481 -41.8191,28.0214 -5.0276,14.8602 -7.2449,44.1491 -5.5319,73.072 1.8177,30.6896 8.4116,49.1033 20.7592,57.9708 2.6006,1.8676 6.7763,3.9769 9.2793,4.6873 6.394,1.8147 18.0095,0.9805 23.5253,-1.6896 z m 536.5255,16.3055 c -6.6223,-0.6851 -19.4158,-3.4645 -25.4526,-5.5296 -31.7902,-10.8752 -52.3401,-33.6089 -59.7651,-66.1161 -2.7386,-11.9901 -3.015,-35.5815 -0.5438,-46.4187 9.9903,-43.8109 46.1546,-72.8761 93.2615,-74.954 33.5819,-1.4813 57.3337,5.8715 74.9444,23.2005 13.1328,12.9227 19.3469,29.2159 20.3089,53.25 l 0.5303,13.25 h -62.6418 -62.6418 l 0.01,6.75 c 0.01,9.0432 2.4352,24.6477 5.044,32.426 8.8123,26.2749 26.6523,38.7512 55.49,38.8066 10.1316,0.019 17.976,-1.6922 25.7269,-5.6136 9.4481,-4.78 20.1547,-14.1269 27.7351,-24.2127 l 2.5019,-3.3288 6.7752,4.9394 6.7753,4.9394 -4.7082,6.3968 c -16.2674,22.1023 -39.724,36.8136 -66.0054,41.3967 -7.8271,1.365 -27.82,1.8029 -37.3407,0.8181 z m 31.8533,-118.9604 6.1467,-0.6424 v -5.8183 c 0,-10.4055 -2.1603,-26.2206 -4.6741,-34.2189 -4.3134,-13.7239 -13.5784,-20.749 -25.5075,-19.3409 -12.5035,1.4759 -21.7543,11.722 -26.262,29.0873 -1.8203,7.0129 -3.5564,20.095 -3.5564,26.7995 V 1305 h 23.8533 c 13.1193,0 26.6193,-0.2891 30,-0.6425 z m 709.4224,118.1984 c -13.2837,-3.0301 -27.5473,-13.2381 -32.6967,-23.4 -3.602,-7.1082 -4.6977,-12.3951 -4.67,-22.5338 0.043,-15.6694 4.4101,-26.073 15.0994,-35.9694 9.85,-9.1193 23.8041,-14.9633 63.8006,-26.7196 11.2642,-3.3109 24.0152,-7.383 28.3356,-9.0491 l 7.8554,-3.0294 v -14.2436 c 0,-16.3007 -1.1522,-24.0044 -4.6111,-30.8302 -2.7724,-5.4711 -8.7164,-10.2507 -14.793,-11.8951 -6.3059,-1.7064 -16.2556,-0.5993 -23.3906,2.6027 -7.1713,3.2183 -7.3426,3.7789 -4.177,13.6725 1.1156,3.4865 2.3009,9.317 2.6339,12.9567 0.523,5.7141 0.2654,7.3608 -1.8869,12.0621 -4.5723,9.9872 -15.0162,14.4659 -31.7266,13.6055 -14.8816,-0.7662 -24.2055,-6.8394 -27.4923,-17.9071 -1.9387,-6.5283 -1.9491,-9.1926 -0.061,-15.5505 5.8542,-19.7134 44.0213,-36.2997 83.5809,-36.3217 48.7314,-0.027 72.4337,12.3701 80.6833,42.2007 1.558,5.6338 1.688,10.2762 1.2404,44.2934 -0.8545,64.9386 -0.7446,71.5442 1.2511,75.1983 3.2549,5.9597 7.8939,8.5159 17.0428,9.3909 4.5134,0.4317 9.2186,0.8133 10.4561,0.8479 2.0916,0.058 2.25,0.512 2.25,6.441 v 6.378 l -5.75,2.1238 c -13.3747,4.9399 -21.1953,6.3504 -35.75,6.4475 -26.0241,0.1737 -38.3108,-5.0857 -45.5959,-19.5174 -1.6131,-3.1955 -3.1772,-5.81 -3.4759,-5.81 -0.2986,0 -4.0046,2.9458 -8.2356,6.5462 -8.3423,7.0991 -21.74,14.2635 -31.6926,16.9476 -8.4441,2.2773 -30.2421,2.883 -38.2243,1.0621 z m 62.9356,-29.9242 c 5.528,-2.7604 10.2671,-6.6213 13.1108,-10.6811 1.4823,-2.1164 1.6779,-5.9832 1.6779,-33.1731 0,-16.9276 -0.242,-30.7775 -0.5377,-30.7775 -1.6522,0 -19.7959,7.5926 -26.5883,11.1264 -10.7621,5.599 -17.0515,11.4573 -21.0753,19.6309 -2.9047,5.9002 -3.3039,7.7474 -3.6407,16.8453 -0.4575,12.3602 1.2059,18.428 6.5044,23.7265 4.8913,4.8913 10.2717,6.7156 18.5489,6.2892 4.73,-0.2437 8.2726,-1.1254 12,-2.9866 z m -1572.5056,7.1183 c -15.7902,-19.5222 -74.9562,-92.9202 -123.682,-153.433 -12.912,-16.0354 -23.8245,-28.9401 -24.25,-28.6771 -1.1085,0.685 -0.918,118.9964 0.2198,136.5597 2.1609,33.3543 7.4215,40.5622 34.8106,47.6961 l 10.6959,2.7859 0.2957,6.6592 0.2957,6.6592 h -56.0457 -56.0457 v -7 -7 h 3.1262 c 6.035,0 20.6433,-4.1082 26.0082,-7.314 6.31,-3.7707 11.0783,-10.9089 13.0724,-19.5695 1.0025,-4.3538 1.2932,-24.4009 1.2932,-89.1681 v -83.5517 l -3.7787,-7.6459 c -6.0321,-12.2055 -17.2078,-20.4104 -33.3186,-24.4615 -3.7965,-0.9546 -7.0726,-1.8426 -7.2802,-1.9733 -0.5703,-0.3591 -0.8409,-10.5649 -0.3332,-12.566 0.4152,-1.6366 3.5975,-1.75 49.117,-1.75 h 48.673 l 63.9604,79.0975 c 35.1781,43.5036 67.5603,83.6014 71.9603,89.1062 l 8,10.0087 0.301,-55.3562 c 0.3172,-58.3337 -0.3542,-72.7647 -3.8509,-82.7702 -4.4989,-12.8731 -11.1748,-18.0298 -30.0179,-23.1867 l -11.9322,-3.2656 V 1162.8168 1156 h 56 56 v 7 c 0,3.85 -0.3375,7.0018 -0.75,7.004 -0.4125,0 -4.9943,0.6924 -10.1818,1.5337 -20.0252,3.2475 -27.4791,9.7112 -31.6698,27.4623 -1.6235,6.8767 -1.8006,16.3715 -2.1307,114.25 l -0.3601,106.75 h -15.9115 -15.9115 z m 1752.7943,-16.4775 c -18.0939,-48.309 -44.0703,-114.7384 -46.8198,-119.7323 -3.042,-5.525 -10.891,-11.1889 -18.9302,-13.6601 l -6.75,-2.0749 V 1241.4026 1235 h 56.5 56.5 v 6.4547 6.4547 l -3.75,0.6161 c -8.9882,1.4766 -17.2504,4.5455 -18.8627,7.0062 -1.5407,2.3514 -1.4387,3.0268 2.0053,13.281 4.313,12.8417 32.0753,85.9886 32.9794,86.8926 0.3454,0.3454 0.8014,0.4405 1.0133,0.2114 0.2118,-0.2292 8.7881,-25.3917 19.0583,-55.9167 10.2703,-30.525 19.431,-57.6472 20.3572,-60.2716 l 1.684,-4.7716 17.9695,0.2716 17.9695,0.2716 21.7402,58.4805 c 11.9572,32.1642 22.4973,60.4627 23.4226,62.8854 1.334,3.4929 1.8678,4.0735 2.5782,2.804 1.3098,-2.3405 16.4587,-43.918 24.6557,-67.6699 7.5704,-21.936 8.7544,-26.5734 7.778,-30.4637 -1.3524,-5.3883 -9.2186,-9.8857 -21.8485,-12.4917 l -5.75,-1.1864 V 1241.4291 1235 h 38 38 v 6.4615 6.4614 l -4.2333,1.1399 c -10.1517,2.7336 -17.3796,8.3378 -21.7159,16.8376 -7.3173,14.3431 -47.1451,117.0522 -53.6482,138.3496 l -4.8092,15.75 h -17.6465 -17.6465 l -23.0706,-62.2235 c -12.6889,-34.2229 -23.444,-62.3391 -23.9002,-62.4804 -0.4563,-0.1413 -10.5048,27.7468 -22.3299,61.9735 l -21.5004,62.2304 -17.6132,0.2725 -17.6132,0.2725 z m -6157.5,28.3725 v -6.3549 l 7.1203,-0.597 c 8.2015,-0.6876 15.2374,-3.7648 18.3277,-8.0158 2.008,-2.7622 2.058,-4.1226 2.3331,-63.5 0.3167,-68.3588 0.564,-65.8392 -7.1603,-72.9592 -4.1474,-3.8229 -11.0591,-6.7419 -21.1208,-8.9198 l -4,-0.8659 -0.2977,-6.2162 c -0.1638,-3.4189 -0.1638,-6.2232 0,-6.2317 0.1637,-0.01 20.5343,-1.1064 45.268,-2.4396 31.369,-1.691 45.3501,-2.1089 46.2262,-1.3818 0.9837,0.8164 1.3153,17.7804 1.5297,78.2633 l 0.2738,77.2209 2.8144,4.2522 c 3.2032,4.8397 9.6752,8.3592 18.9356,10.2973 l 5.75,1.2034 v 6.2999 6.2999 h -58 -58 z m 134,-0.145 v -6.5 l 3.75,-0.016 c 5.2269,-0.022 14.6605,-2.3681 17.8051,-4.4285 1.4476,-0.9485 3.5035,-3.6947 4.5686,-6.1027 1.856,-4.1957 1.925,-6.8698 1.6565,-64.1657 -0.2771,-59.1191 -0.3044,-59.8322 -2.4426,-63.7875 -4.3922,-8.1248 -12.5621,-13.5615 -22.5876,-15.0309 l -4.75,-0.6962 v -6.3864 c 0,-3.5126 0.1125,-6.4 0.25,-6.4166 0.1375,-0.016 19.8066,-1.1186 43.709,-2.449 30.4971,-1.6974 43.8361,-2.1059 44.7232,-1.3697 0.8827,0.7326 1.3476,5.2847 1.541,15.0863 l 0.2768,14.0372 10.9598,-9.5776 c 6.0279,-5.2677 13.6779,-11.191 17,-13.1629 19.727,-11.7096 50.9456,-13.4186 71.0692,-3.8905 8.5735,4.0594 16.512,11.9381 21.2754,21.1151 7.6471,14.7325 7.4618,12.9795 8.1132,76.7412 0.5312,51.9835 0.7382,57.2852 2.353,60.2402 2.1319,3.9013 7.4582,6.7747 17.0764,9.2121 l 7.153,1.8127 0.2977,6.1175 0.2977,6.1175 h -55.5477 -55.5477 v -6.3554 -6.3554 l 6.6109,-0.6173 c 7.923,-0.7399 12.2808,-3.034 14.6376,-7.7059 1.5989,-3.1697 1.7485,-7.9998 1.75,-56.5059 0,-57.9286 -0.1946,-60.2743 -5.8091,-69.4337 -1.5886,-2.5915 -4.7342,-5.705 -7.4771,-7.4009 -13.4092,-8.2902 -36.8212,-1.8516 -50.1968,13.8047 l -4.5155,5.2854 v 53.4303 c 0,53.4217 4e-4,53.431 2.25,57.8881 2.6563,5.2626 7.5713,8.3825 16,10.1562 l 5.75,1.21 v 6.2999 6.2999 h -56 -56 v -6.5 z m 699,-0.2984 v -6.7984 l 11.25,-1.1674 c 6.1875,-0.642 12.9694,-1.6627 15.0708,-2.2681 5.218,-1.5033 11.0829,-7.0341 12.51,-11.7972 0.8606,-2.8724 1.1692,-32.0497 1.1692,-110.5365 V 1172 l -10.25,0.026 c -15.77,0.04 -29.4422,1.6468 -34.3909,4.0424 -5.1277,2.4823 -11.5937,9.4318 -18.4651,19.846 -5.0858,7.7078 -14.6206,25.9214 -16.666,31.8358 -1.1141,3.2216 -1.1812,3.25 -7.676,3.25 h -6.552 v -37.5 -37.5 h 126.5 126.5 v 37.5457 37.5457 l -6.653,-0.2957 -6.6531,-0.2957 -1.3403,-3.882 c -3.9587,-11.4659 -17.6689,-34.6652 -25.5192,-43.1819 -6.8895,-7.4742 -10.7658,-9.1995 -23.3498,-10.3928 -6.0415,-0.5729 -15.3721,-1.042 -20.7346,-1.0425 l -9.75,-8e-4 0.01,105.25 c 0,70.3584 0.3533,106.5022 1.0545,109.0273 1.406,5.0627 6.0473,10.1484 11.1108,12.1744 4.5501,1.8206 21.6418,5.5483 25.4392,5.5483 2.2923,0 2.3899,0.286 2.3899,7 v 7 h -72.5 -72.5 v -6.7984 z m 213.2023,0.5949 0.2977,-6.2035 8.1836,-1.1657 c 8.906,-1.2686 13.4509,-3.3762 16.7119,-7.75 2.0776,-2.7866 2.1081,-3.5984 2.3856,-63.5 0.3172,-68.4817 0.5767,-65.8722 -7.335,-73.7838 -3.1845,-3.1845 -5.9381,-4.774 -10.9552,-6.3236 -3.6859,-1.1384 -7.7792,-2.0699 -9.0962,-2.0699 -2.2806,0 -2.3947,-0.3096 -2.3947,-6.5 0,-3.575 0.1125,-6.5106 0.25,-6.5236 0.1375,-0.013 19.8058,-1.1156 43.7073,-2.4504 31.1009,-1.7368 43.8248,-2.1218 44.75,-1.354 0.9391,0.7794 1.2927,4.7325 1.2927,14.4504 0,7.8794 0.3945,13.3776 0.9599,13.3776 0.528,0 3.1053,-2.2935 5.7274,-5.0967 6.4487,-6.8942 18.859,-16.1074 26.8058,-19.9 12.6933,-6.058 28.4886,-7.4866 39.4111,-3.5646 23.6368,8.4873 30.7896,41.75 13.1039,60.9367 -6.4119,6.956 -11.74,9.1343 -22.0081,8.9974 -13.4055,-0.1787 -22.6772,-4.5644 -27.6947,-13.1004 -2.4795,-4.2181 -2.8053,-5.7596 -2.805,-13.2724 10e-5,-4.675 0.4063,-10.4825 0.9027,-12.9056 l 0.9024,-4.4056 -3.8067,0.6177 c -6.9501,1.1278 -17.8065,7.1144 -24.8494,13.7027 l -6.7134,6.2801 0.282,55.1053 c 0.3111,60.7657 0.1112,58.8553 6.6444,63.5073 3.5582,2.5337 12.4176,4.9176 21.3877,5.7551 l 6.75,0.6302 v 6.3564 6.3564 h -61.5477 -61.5477 z m 197.7977,-0.1519 v -6.3554 l 6.4254,-0.6 c 12.2383,-1.1428 18.7624,-5.6037 20.607,-14.0899 0.7614,-3.5027 1.0081,-23.1272 0.788,-62.679 l -0.3204,-57.5797 -3.0359,-4.9203 c -3.9194,-6.3521 -11.2598,-10.8105 -21.6405,-13.1437 l -7.8236,-1.7584 v -6.2591 c 0,-3.4425 0.1125,-6.2651 0.25,-6.2724 0.1375,-0.01 20.459,-1.1206 45.1588,-2.4739 42.4459,-2.3257 44.9806,-2.3661 46.2182,-0.7367 1.0518,1.3848 1.3156,16.63 1.3412,77.506 0.035,82.5275 -0.1748,79.4366 5.76,85.0126 3.1918,2.9988 15.0071,7.6496 19.5218,7.6842 2.7158,0.021 2.75,0.102 2.75,6.5211 v 6.5 h -58 -58 z m 360,-0.015 v -6.3708 l 6.8887,-0.6788 c 7.8923,-0.7777 14.5393,-3.7702 17.5528,-7.9023 2.0167,-2.7653 2.0642,-4.0556 2.3396,-63.5 0.3172,-68.4817 0.5767,-65.8722 -7.335,-73.7838 -3.1845,-3.1845 -5.9381,-4.774 -10.9552,-6.3236 -3.6859,-1.1384 -7.7792,-2.0699 -9.0962,-2.0699 -2.2806,0 -2.3947,-0.3096 -2.3947,-6.5 0,-3.575 0.1125,-6.511 0.25,-6.5243 0.1375,-0.013 19.8124,-1.1106 43.722,-2.4383 30.8024,-1.7104 43.8444,-2.1047 44.75,-1.3532 0.9193,0.763 1.278,4.7683 1.278,14.2716 0,7.266 0.2937,13.5046 0.6526,13.8635 0.359,0.3589 3.8465,-2.2021 7.75,-5.6913 22.6477,-20.2436 36.031,-25.9289 61.0974,-25.9547 26.163,-0.027 42.8707,9.1003 52.5288,28.6961 6.7542,13.7041 6.9343,15.6162 6.9538,73.8314 0.011,33.0212 0.4057,53.5113 1.0921,56.712 0.7877,3.6726 1.9852,5.8106 4.4831,8.0038 3.3822,2.9696 14.4444,7.0834 19.0475,7.0834 2.2806,0 2.3947,0.3096 2.3947,6.5 v 6.5 h -55.5 -55.5 v -6.0314 c 0,-3.9748 0.4262,-6.1487 1.25,-6.3756 0.6875,-0.1893 4.3432,-0.8193 8.1238,-1.4001 8.649,-1.3286 12.0498,-4.213 13.6689,-11.5936 0.7717,-3.5176 1.0063,-20.9188 0.7563,-56.0993 -0.3505,-49.3141 -0.4348,-51.2149 -2.5511,-57.5 -2.5881,-7.6865 -6.8659,-13.2155 -12.5946,-16.279 -3.4612,-1.8509 -5.7491,-2.221 -13.7294,-2.221 -9.2272,0 -9.8829,0.1521 -18,4.1751 -5.5612,2.7563 -10.2072,5.9847 -13.6714,9.5 -9.1532,9.2882 -8.3712,3.1581 -8.0437,63.0528 0.2722,49.7945 0.4139,53.5191 2.1713,57.0562 2.2624,4.5535 7.864,8.0335 15.8699,9.8593 l 5.75,1.3114 v 6.2726 6.2726 h -55.5 -55.5 z m 476.9352,6.1208 c -0.1146,-0.4424 -0.1494,-10.2113 -0.041,-11.3554 0.059,-0.6164 3.0585,-1.3812 6.7815,-1.7288 7.7342,-0.7223 14.798,-3.8976 17.7718,-7.9888 2.0355,-2.8004 2.0541,-3.6982 2.3194,-111.9342 0.3014,-122.9415 0.6873,-116.1472 -7.0502,-124.1235 -4.5666,-4.7076 -10.9783,-7.5863 -21.5127,-9.6588 l -6.2045,-1.2207 v -6.3699 -6.3699 l 4.25,-0.055 c 2.3375,-0.031 23.15,-1.0815 46.25,-2.3356 27.0349,-1.4676 42.4454,-1.9387 43.25,-1.322 0.9882,0.7574 1.2512,27.2664 1.2556,126.5855 0,85.9634 0.3426,126.8414 1.0731,129.472 1.6753,6.0334 6.4109,10.3552 14.4213,13.1613 3.85,1.3487 8.2375,2.4616 9.75,2.4732 2.7158,0.021 2.75,0.102 2.75,6.5211 v 6.5 h -57.5 c -31.625,0 -57.5291,-0.1125 -57.5648,-0.25 z M 3866.2585,1411.5 v -6.5 h 3.7899 c 5.7604,0 15.3996,-2.831 18.0431,-5.2993 5.3126,-4.9603 5.1677,-3.0381 5.1576,-68.401 l -0.01,-60.7997 -2.9318,-5.1116 c -1.6125,-2.8114 -4.3289,-6.2872 -6.0364,-7.724 -3.1783,-2.6744 -14.3252,-6.6644 -18.6183,-6.6644 -2.2806,0 -2.3947,-0.3096 -2.3947,-6.5 0,-3.575 0.1125,-6.5061 0.25,-6.5135 0.1375,-0.01 19.8014,-1.1138 43.6975,-2.4585 31.2961,-1.7612 43.8118,-2.1427 44.75,-1.3641 0.9497,0.7882 1.3025,4.6592 1.3025,14.2919 0,7.266 0.261,13.4719 0.5801,13.7909 0.319,0.3191 4.0628,-2.8684 8.3196,-7.0833 13.8012,-13.6653 27.5188,-21.2793 42.1893,-23.4176 18.8392,-2.7458 34.7228,4.8965 41.6874,20.0577 3.4539,7.5187 4.2762,20.6214 1.7841,28.4273 -5.3654,16.8059 -19.0139,25.5742 -35.7956,22.9965 -20.4469,-3.1406 -28.832,-15.8879 -24.3921,-37.0814 l 1.3312,-6.3542 -4.102,0.6197 c -7.0238,1.061 -18.0949,7.2038 -25.1526,13.9559 l -6.5313,6.2484 0.2909,54.4422 c 0.281,52.5775 0.3611,54.5791 2.3371,58.4421 2.93,5.7277 10.0621,9.0681 22.9539,10.7505 l 10,1.3051 0.2977,6.2222 0.2977,6.2222 h -61.5477 -61.5477 v -6.5 z m 1145.2023,0.25 0.2977,-6.25 7,-0.7691 c 8.0666,-0.8862 14.999,-3.9969 17.948,-8.0536 2.008,-2.7622 2.058,-4.1226 2.3331,-63.5 0.317,-68.4223 0.5735,-65.8304 -7.2279,-73.0215 -3.2154,-2.9638 -6.4576,-4.6704 -12.499,-6.5789 -4.4866,-1.4173 -9.0342,-2.5769 -10.1058,-2.5769 -1.7314,0 -1.9484,-0.7241 -1.9484,-6.5 0,-3.575 0.1125,-6.5134 0.25,-6.5298 0.1375,-0.016 20.2621,-1.1138 44.7213,-2.4388 30.9937,-1.6788 44.8516,-2.0933 45.7261,-1.3675 0.982,0.8149 1.3144,17.7061 1.5287,77.6887 0.27,75.5421 0.304,76.7051 2.3644,80.6474 2.6927,5.152 8.9658,9.0361 18.1874,11.261 l 7.208,1.739 0.01,6.25 0.01,6.25 h -58.0477 -58.0477 l 0.2977,-6.25 z M 304.6154,1199.0066 c -11.3944,-1.6884 -22.5685,-9.7058 -27.5081,-19.7367 -1.9067,-3.8722 -2.3488,-6.3696 -2.3488,-13.2699 0,-10.1731 2.1911,-15.5332 9.2247,-22.5668 17.3606,-17.3606 47.0805,-13.4635 58.809,7.7114 2.7044,4.8826 2.9663,6.1941 2.9663,14.8554 0,8.641 -0.2657,9.9796 -2.9381,14.8036 -6.0878,10.9892 -15.5129,16.7402 -30.5619,18.6482 -1.375,0.1743 -4.8144,-0.026 -7.6431,-0.4452 z m 1242.6431,-0.1803 c -8.0381,-1.2587 -15.1796,-5.1482 -20.8559,-11.359 -11.3689,-12.4394 -11.4325,-30.4256 -0.1512,-42.7691 14.5904,-15.9642 39.8473,-16.2672 54.4524,-0.6533 6.6816,7.1432 8.9584,12.731 8.9457,21.9551 -0.014,10.1422 -2.7572,16.2719 -10.4841,23.4257 -8.8409,8.1851 -19.5396,11.3372 -31.9069,9.4006 z m 3511.4448,0.1923 c -11.0369,-1.6434 -22.1029,-9.5645 -27.2404,-19.4988 -3.6,-6.9612 -3.7481,-18.6097 -0.3332,-26.2216 2.7856,-6.2094 11.2533,-14.581 17.5782,-17.3788 18.588,-8.2224 39.8061,-1.1028 48.4871,16.2694 5.572,11.1507 3.8313,24.8473 -4.3964,34.5924 -7.8599,9.3092 -21.3188,14.1399 -34.0953,12.2374 z M 4955.7585,920.85314 c -3.3,-2.78761 -6.3201,-5.80745 -6.7112,-6.71075 -0.3912,-0.9033 -3.4107,-14.69236 -6.71,-30.64236 -9.3676,-45.28651 -18.5408,-118.92121 -36.5634,-293.50001 -9.5545,-92.5511 -18.3619,-166.9845 -25.0555,-211.7489 -6.1574,-41.1787 -8.1596,-52.2511 -9.4482,-52.2511 -0.3155,0 -2.0346,5.5125 -3.8204,12.25 -6.7821,25.5879 -20.8791,116.6563 -37.1897,240.25 -18.3778,139.2583 -28.6135,203.8429 -37.0856,234 -2.7812,9.9 -5.51,19.4625 -6.0639,21.25 l -1.0072,3.25 -15.6725,-0.01 c -8.6198,0 -17.9781,-0.2857 -20.7961,-0.6243 l -5.1238,-0.6157 -5.577,-19.1256 c -8.6551,-29.682 -16.0847,-76.8563 -29.1559,-185.1263 -12.0517,-99.8258 -21.0035,-165.9823 -23.206,-171.4994 -1.7193,-4.3069 -11.8657,57.2842 -25.7814,156.5 -10.4558,74.5467 -16.4057,111.1336 -21.4593,131.9555 -3.71,15.2864 -3.9872,15.9751 -7.7106,19.1628 l -3.8623,3.3066 -14.7374,0.037 -14.7375,0.038 -3.4637,-6.878 c -6.165,-12.2422 -10.6952,-35.5622 -21.9754,-113.1237 -6.2808,-43.1861 -10.1308,-66.8764 -11.0113,-67.7569 -1.1612,-1.1612 -7.2152,27.13 -17.4956,81.7586 -10.6395,56.5374 -13.6445,70.3652 -18.5385,85.3057 -4.5109,13.7714 -8.1236,18.8076 -10.0028,13.9443 -2.7794,-7.193 -2.3557,-39.9735 0.9855,-76.25 6.4318,-69.832 18.0214,-128.7129 27.629,-140.3685 l 2.9933,-3.6315 15.1772,0.041 c 15.036,0.04 15.2064,0.066 18.3186,2.75 5.9583,5.1388 10.9541,28.6294 21.4049,100.6473 7.4507,51.3437 11.1955,74.5621 12.0258,74.5621 1.0148,0 7.1333,-39.2161 16.4602,-105.5 11.5328,-81.9617 17.5377,-120.5922 22.928,-147.5 3.9751,-19.8433 6.1419,-27.7982 12.189,-44.75 l 1.5161,-4.25 h 19.7007 19.7008 l 4.7086,17.75 c 7.0718,26.6586 14.8279,80.1728 29.2407,201.75 5.7046,48.1206 12.8251,99.5948 18.0194,130.2635 3.0054,17.745 5.4644,32.4825 5.4644,32.75 0,0.2676 0.4139,0.4865 0.9198,0.4865 3.208,0 16.7653,-86.7794 35.073,-224.5 20.144,-151.5345 30.2745,-214.6346 40.6179,-253 3.5588,-13.2 6.6773,-24.675 6.93,-25.5 0.2527,-0.825 3.5832,-3.4247 7.4011,-5.7771 l 6.9417,-4.2771 14.702,0.2771 14.7019,0.2771 6.3141,22 c 5.9115,20.5975 6.7289,24.7731 12.8216,65.5 6.906,46.1634 14.6435,111.3479 24.5713,207 11.2709,108.5932 19.0131,177.7477 25.048,223.7325 5.5026,41.929 10.2262,70.52634 11.9888,72.5824 1.3164,1.53551 2.861,-7.88811 9.886,-60.3149 7.6478,-57.0745 16.8016,-143.2082 28.5877,-269 23.1556,-247.1367 30.3045,-315.4031 40.4744,-386.5 6.7793,-47.3934 7.215,-49.7214 13.2883,-71 l 6.2791,-22 15.4767,-0.2653 15.4766,-0.2653 6.3318,8.0292 6.3318,8.0292 6.4294,33.2361 c 10.1869,52.6602 19.2523,129.11 39.3962,332.2361 18.5778,187.3335 29.5065,276.4019 40.4913,330 3.607,17.6 6.9472,33.125 7.4225,34.5 1.0604,3.0677 0.3327,4.8592 9.1398,-22.5 9.3073,-28.9127 18.9459,-70.8847 37.8915,-165 19.314,-95.9458 26.3939,-127.0324 34.3774,-150.9453 l 6.2638,-18.7616 5.4622,-2.3564 c 4.946,-2.1337 6.9274,-2.359 20.9623,-2.3835 l 15.5,-0.027 5.1382,10.8936 c 9.933,21.0591 16.5819,56.2025 32.3673,171.0802 3.8922,28.325 8.8582,62.692 11.0356,76.371 2.1774,13.679 3.9589,25.0415 3.9589,25.25 0,0.2085 0.3922,0.379 0.8716,0.379 1.1624,0 5.5613,-16.9477 14.1458,-54.5 12.433,-54.3875 18.7271,-74.6919 23.7446,-76.5996 1.3025,-0.4952 9.7254,-0.9004 18.7176,-0.9004 h 16.3494 l 2.6948,4.75 c 10.7195,18.8946 21.3151,94.4632 23.0998,164.75 0.4213,16.5902 0.2482,28.1107 -0.5145,34.2471 -1.1357,9.1379 -2.6597,14.2529 -4.2466,14.2529 -1.4271,0 -3.9541,-4.6835 -6.3534,-11.7752 -4.8515,-14.3398 -7.3719,-27.8536 -21.4902,-115.2248 -4.1734,-25.8268 -9.6842,-54.6493 -10.7913,-56.4408 -0.8166,-1.3211 -1.0719,-0.3404 -10.7892,41.4408 -14.7217,63.2989 -20.1881,81.0871 -27.0906,88.156 l -3.7537,3.844 h -15.1766 -15.1766 l -3.7659,-4.5958 c -3.3934,-4.1412 -4.1372,-6.1941 -7.5174,-20.75 -4.1735,-17.972 -9.855,-52.8779 -15.9761,-98.1542 -11.5019,-85.0767 -18.085,-126.752 -23.9958,-151.9103 -2.1852,-9.3007 -4.1544,-17.0917 -4.3761,-17.3134 -0.9744,-0.9744 -6.0733,17.2673 -11.6625,41.7237 -3.3309,14.575 -12.8026,60.025 -21.0482,101 -20.19,100.331 -28.827,137.8564 -39.1278,170 l -8.1718,25.5 -7.4829,9.25 -7.483,9.25 -15.5667,-0.035 -15.5667,-0.035 -7.1875,-9.746 -7.1876,-9.7461 -7.1099,-34.4687 c -11.7502,-56.9645 -20.2208,-125.4767 -40.5491,-327.9684 -14.7157,-146.584 -20.0418,-196.5976 -26.4636,-248.5 -5.5556,-44.9008 -13.4023,-93.5 -15.0963,-93.5 -1.0814,0 -1.2357,0.9579 -8.4575,52.5 -3.6219,25.85 -9.6837,76.025 -13.4707,111.5 -6.838,64.0566 -8.6887,83.0752 -26.0303,267.5 -12.5879,133.8704 -21.8223,220.8737 -29.4003,277 -6.041,44.74208 -6.9325,49.81563 -13.135,74.75001 l -6.6541,26.75 -15.129,-0.0393 -15.1291,-0.0392 -6,-5.0684 z m 1281,-30.03725 c -10.1574,-3.36948 -13.3436,-3.99187 -20.75,-4.05322 l -8.75,-0.0725 V 575.90412 c 0,-170.9323 -0.3375,-310.9704 -0.75,-311.1956 -0.4125,-0.2253 -8.175,4.189 -17.25,9.8094 -9.075,5.6205 -54.075,33.2963 -100,61.5017 -78.35,48.1198 -152.604,93.7402 -267.1422,164.1276 l -48.6421,29.8922 -42.3579,-0.2314 c -23.2968,-0.1273 -46.5969,-0.4737 -51.778,-0.7697 l -9.4201,-0.5383 25.9201,-16.6345 c 14.2561,-9.149 40.7702,-26.2069 58.9202,-37.9065 18.15,-11.6995 55.5,-35.7556 83,-53.4579 108.433,-69.8004 212.8471,-137.0333 271,-174.4986 33.55,-21.6148 72.1037,-46.4327 85.675,-55.151 l 24.6749,-15.8515 h 16.4669 16.4668 l 0.8632,4.75 0.8631,4.75 4.8554,0.3093 4.8554,0.3093 -0.8239,15.1907 c -0.9266,17.0825 -0.7733,186.8073 0.1722,190.6907 0.3347,1.375 0.8534,100.4875 1.1526,220.25 0.2993,119.7625 0.7578,217.75 1.0191,217.75 0.2612,0 14.0389,-9.3066 30.6171,-20.6813 16.5782,-11.3747 45.6672,-31.3267 64.6422,-44.3378 18.975,-13.0111 96.15,-65.9351 171.5,-117.6089 75.35,-51.6739 137.5578,-94.2955 138.2395,-94.7148 0.6818,-0.4193 14.1818,-3.1593 30,-6.0889 l 28.7605,-5.3266 36.9269,0.6292 36.9269,0.6291 -41.4269,26.6423 c -40.048,25.7554 -64.1529,41.2739 -171.9269,110.6843 -27.775,17.8882 -80.65,51.9332 -117.5,75.6556 -36.85,23.7224 -101.0315,65.0436 -142.6255,91.8247 -49.0762,31.59877 -76.4591,48.65741 -78,48.59141 -1.306,-0.0559 -7.7745,-1.89303 -14.3745,-4.08244 z m -2876.5,-97.64987 c 0,-49.9586 -0.2996,-169.2086 -0.6657,-265 l -0.6657,-174.166 h -231.3343 -231.3343 v 116 116 h -33.0033 -33.0033 l 0.2533,-148.75 0.2533,-148.75 297.2481,-0.2143 297.2482,-0.2144 0.2518,264.7144 0.2519,264.7143 231.75,0.2521 231.75,0.2522 v -116.0158 -116.0158 l 32.75,0.2637 32.75,0.2636 0.2533,148.75 0.2533,148.75001 h -297.5033 -297.5033 z m -1398.2507,72.63522 c -5.6606,-8.20122 -34.0373,-50.20662 -87.7112,-129.83702 -9.096,-13.4947 -56.5881,-83.8053 -105.5381,-156.2458 -101.0061,-149.4778 -122.7903,-181.7305 -189.9416,-281.2184 -61.3743,-90.929 -59.8116,-88.6653 -60.5878,-87.7655 -0.6205,0.7194 -37.7375,55.6946 -166.9435,247.2655 -29.8615,44.275 -54.9086,81.1589 -55.6603,81.9643 -1.1569,1.2395 -1.3668,-6.6783 -1.3668,-51.5678 v -53.0321 l 12.7907,-18.9322 c 7.0348,-10.4127 39.5402,-58.5322 72.2342,-106.9322 32.6939,-48.4 65.831,-97.45 73.6379,-109 7.807,-11.55 25.1056,-37.2 38.4413,-57 13.3358,-19.8 25.0086,-36.9978 25.9396,-38.2172 1.6671,-2.1838 2.3548,-1.2369 45.5745,62.7493 24.135,35.7316 49.1362,72.7294 55.5583,82.2172 6.4221,9.4879 29.45,43.5757 51.1731,75.7507 21.7231,32.175 47.705,70.65 57.7375,85.5 111.4084,164.9057 175.2352,259.435 203.4827,301.3639 18.6616,27.7001 34.6887,51.3251 35.6157,52.5 1.492,1.8909 1.8493,1.9639 3.1124,0.6361 0.7848,-0.825 24.3556,-35.475 52.3795,-77 126.3661,-187.2455 169.5231,-251 169.9083,-251 0.2279,0 0.4143,23.7748 0.4143,52.833 v 52.8329 l -77.6145,114.9171 c -114.7929,169.964 -117.6436,174.1852 -132.5144,196.2182 l -13.7019,20.30123 z M 588.1719,773.94882 c -25.1728,-1.8112 -55.3958,-10.3009 -79.9965,-22.4712 -44.9306,-22.2278 -79.4036,-56.5368 -101.8712,-101.3864 -14.7776,-29.4989 -21.0152,-54.4941 -23.6053,-94.5912 -2.321,-35.9315 -6.2368,-53.003 -17.1918,-74.9498 -8.38,-16.7882 -16.1767,-27.5763 -29.711,-41.1106 -22.763,-22.763 -48.5142,-36.762 -80.0376,-43.5105 -9.4664,-2.0266 -13.7883,-2.3556 -31,-2.3598 -17.1223,0 -21.5755,0.329 -30.9493,2.316 -41.6639,8.8312 -75.6219,31.5659 -99.8589,66.8547 -14.8562,21.6303 -24.2477,49.1023 -26.2909,76.9058 l -0.6721,9.1459 -19.6144,0.5988 c -10.7879,0.3294 -25.8601,0.8355 -33.4936,1.1247 L 0,551.04102 0.7248,536.77052 c 0.9343,-18.3969 5.7613,-42.613 12.0916,-60.6612 25.9417,-73.9626 89.4991,-129.5998 166.4421,-145.701 37.2259,-7.79 81.9403,-5.0115 117.3444,7.2914 57.1205,19.8494 101.6149,58.7938 128.8758,112.8003 14.7508,29.2229 20.7767,53.6365 23.8186,96.5 2.1155,29.8101 3.8387,40.0498 9.2582,55.0137 19.6251,54.1877 63.354,91.6845 120.203,103.0719 16.3376,3.2726 42.2831,3.0822 59,-0.4329 31.7154,-6.6689 57.5587,-20.574 80.0718,-43.0831 27.7922,-27.7871 43.2567,-61.3014 46.1754,-100.0696 l 0.7528,-10 33.3428,-0.8239 c 18.3385,-0.4531 33.4447,-0.6781 33.5694,-0.5 0.1247,0.1782 -0.1605,6.6239 -0.6338,14.3239 -5.5519,90.3334 -66.0664,169.1483 -152.2784,198.3295 -29.5188,9.9916 -57.8787,13.4727 -90.5866,11.1193 z"
     id="path1135"
     inkscape:connector-curvature="0" />
</svg>
