<?xml version="1.0" encoding="UTF-8" standalone="no"?>
<!-- Created with Inkscape (http://www.inkscape.org/) -->

<svg
   xmlns:dc="http://purl.org/dc/elements/1.1/"
   xmlns:cc="http://creativecommons.org/ns#"
   xmlns:rdf="http://www.w3.org/1999/02/22-rdf-syntax-ns#"
   xmlns:svg="http://www.w3.org/2000/svg"
   xmlns="http://www.w3.org/2000/svg"
   xmlns:sodipodi="http://sodipodi.sourceforge.net/DTD/sodipodi-0.dtd"
   xmlns:inkscape="http://www.inkscape.org/namespaces/inkscape"
   version="1.1"
   id="svg1230"
   width="3848"
   height="636"
   viewBox="0 0 3848 636"
   sodipodi:docname="Words.svg"
   inkscape:version="0.92.1 r15371">
  <metadata
     id="metadata1236">
    <rdf:RDF>
      <cc:Work
         rdf:about="">
        <dc:format>image/svg+xml</dc:format>
        <dc:type
           rdf:resource="http://purl.org/dc/dcmitype/StillImage" />
        <dc:title></dc:title>
      </cc:Work>
    </rdf:RDF>
  </metadata>
  <defs
     id="defs1234" />
  <sodipodi:namedview
     pagecolor="#ffffff"
     bordercolor="#666666"
     borderopacity="1"
     objecttolerance="10"
     gridtolerance="10"
     guidetolerance="10"
     inkscape:pageopacity="0"
     inkscape:pageshadow="2"
     inkscape:window-width="1366"
     inkscape:window-height="692"
     id="namedview1232"
     showgrid="false"
     inkscape:zoom="0.22635135"
     inkscape:cx="1924"
     inkscape:cy="318"
     inkscape:window-x="0"
     inkscape:window-y="27"
     inkscape:window-maximized="1"
     inkscape:current-layer="svg1230" />
  <path
     style="fill:#000000"
     d="m 58,356.99999 v -279 H 85.5 113 V 65.60532 c 0,-14.62284 1.84096,-21.96664 7.81565,-31.17746 3.71056,-5.72035 11.22893,-13.42787 13.09834,-13.42787 1.87223,0 6.55979,6.79527 10.69229,15.5 5.83804,12.29725 8.69823,23.09686 8.80608,33.25032 l 0.0876,8.25032 1204.09124,-0.002 1204.0911,-0.001 2.4479,-3.44041 c 3.1867,-4.47882 9.2334,-9.30768 14.8698,-11.87503 6.256,-2.84954 16.8942,-2.88388 20.7358,-0.0669 3.956,2.9009 6.4573,8.17733 5.7524,12.1348 l -0.5788,3.25 h 206.4303 206.4303 l 1.7644,-2.69282 c 8.9782,-13.70243 29.4934,-19.47684 38.2156,-10.7565 2.8171,2.81649 3.25,3.92867 3.25,8.34932 v 5.1 h 91 91 V 64.08188 c 0,-7.65502 0.2731,-14.63002 0.607,-15.5 0.5184,-1.35102 -0.4302,-1.58186 -6.5,-1.58186 -6.9141,0 -7.107,-0.0678 -7.107,-2.5 0,-2.43544 0.1872,-2.50038 7.25,-2.51458 l 7.25,-0.0146 5.2996,-5.42067 C 3257.4591,28.71558 3263.4616,26 3273.1196,26 c 6.8097,0 8.0842,0.30064 10.7369,2.53272 3.1079,2.61513 5.4905,7.984 4.9512,11.15704 -0.2678,1.57562 0.5671,1.84856 6.4423,2.10593 6.4195,0.28121 6.75,0.41586 6.75,2.75 0,2.38567 -0.2079,2.45431 -7.4348,2.45431 h -7.4348 l -5.3906,5.39058 c -7.9649,7.96496 -12.5071,10.02156 -22.2398,10.06978 -4.4,0.0218 -8.7875,-0.34601 -9.75,-0.81735 -1.5975,-0.78231 -1.75,-0.10694 -1.75,7.75 V 78 H 3543.5 3839 V 357 636 H 1948.5 58 Z m 167.76357,275.1076 c 0.95504,-0.49082 2.97496,-1.38164 4.48873,-1.97961 3.12797,-1.2356 6.73839,-6.52385 6.74396,-9.87799 0.004,-2.21158 -0.20626,-2.25 -12.29626,-2.25 -16.3916,0 -17.41313,-0.94299 -10.7,-9.87732 2.2,-2.92793 4,-5.73997 4,-6.24899 0,-0.5617 -30.36443,-0.81704 -77.25,-0.64959 l -77.25,0.2759 -0.275393,15.75 -0.275393,15.75 h 80.538966 c 45.25476,0 81.29969,-0.39096 82.27539,-0.8924 z m 1825.01183,-14.8576 -0.2754,-15.75 -898.75,-0.25055 L 253,600.99888 v 5.95065 5.95065 l 5.74028,0.29991 c 4.52807,0.23657 5.81061,0.66946 6.07333,2.0499 0.2882,1.51441 -0.50219,1.75 -5.87113,1.75 h -6.20416 l 0.58513,3.60577 c 0.76824,4.73407 3.14371,8.23401 6.47944,9.54659 1.48341,0.58371 3.37211,1.43675 4.19711,1.89565 0.825,0.45891 403.24893,0.86084 894.2754,0.89318 l 892.7754,0.0588 -0.2754,-15.75 z m 1785,0 -0.2754,-15.75 -889.75,-0.25056 -889.75,-0.25056 v 16.00056 16.00056 h 890.0254 890.0254 z M 237,606.99999 v -6 h -6.30927 -6.30928 l -4.69072,5.43325 c -2.5799,2.98828 -4.69073,5.68828 -4.69073,6 0,0.31171 4.95,0.56675 11,0.56675 h 11 z M 94.895905,593.04882 c 10.157135,-6.29387 23.304445,-16.45499 29.050265,-22.45201 l 3.44616,-3.59682 H 95.196175 63 v 15.33333 c 0,8.43334 0.3,15.63334 0.666667,16 0.366666,0.36667 5.38232,0.66667 11.145898,0.66667 h 10.479231 z m 128.170645,0.1713 C 225.79086,587.76767 229,575.19358 229,569.97157 v -2.97158 h -42.63716 -42.63717 l -6.61283,5.6672 c -8.48628,7.27275 -20.1736,14.87429 -31.86284,20.72392 -5.0875,2.54592 -9.249995,4.85284 -9.249995,5.12649 0,0.27364 27.996395,0.38162 62.214225,0.23996 l 62.21423,-0.25757 z M 237,595.96626 c 0,-2.39919 0.72217,-3.45981 3.45271,-5.07087 3.10263,-1.8306 9.54729,-9.97602 9.54729,-12.06684 0,-0.45571 0.65926,-0.82856 1.46502,-0.82856 1.17286,0 1.52184,2.04402 1.75,10.25 l 0.28498,10.25 h 898.5 898.5 l 0.2754,-15.75 0.2754,-15.75 -898.7754,0.0797 -898.7754,0.0796 -12,14.00352 c -16.631,19.4077 -15.78381,17.83718 -9.62197,17.83718 5.03706,0 5.12197,-0.0503 5.12197,-3.03373 z m 3598.7754,-13.21627 0.2754,-15.75 H 2946.0254 2056 v 16.00056 16.00056 l 889.75,-0.25056 889.75,-0.25056 z m -3703.97174,-21.5 c 3.60361,-5.10862 7.20269,-13.17808 8.6887,-19.48084 2.48159,-10.52549 3.3901,-9.77025 -11.74236,-9.76146 l -13.25,0.008 -2.20086,3.85504 c -2.36844,4.14827 -7.33757,7.12926 -11.88454,7.12926 -4.685855,0 -11.389802,-3.88015 -13.176154,-7.62616 l -1.608871,-3.37384 H 74.814788 63 v 16 16 h 33.431915 33.431895 z m 93.95991,1.8576 c 0.95504,-0.49082 2.97496,-1.38164 4.48873,-1.97961 3.12797,-1.2356 6.73839,-6.52385 6.74396,-9.87799 0.004,-2.21235 -0.20339,-2.25 -12.37382,-2.25 -10.11132,0 -12.61998,-0.29211 -13.70163,-1.59542 -1.4733,-1.77522 -1.23159,-2.31116 4.87723,-10.81403 l 3.29804,-4.59055 h -29.91793 -29.91794 l -1.1757,5.97595 c -1.38707,7.05038 -4.11015,13.54027 -8.71653,20.77405 l -3.34314,5.25 h 39.00115 c 21.45063,0 39.78254,-0.40158 40.73758,-0.8924 z M 165,552.99999 c -4.13473,-4.13473 -1.06605,-11.33333 4.83126,-11.33333 6.12428,0 9.17034,6.03064 5.61204,11.11082 -2.03506,2.90545 -7.64092,3.02489 -10.4433,0.22251 z m 1885.7754,-5.25 0.2754,-15.75 H 1617.5254 1184 v 10 10 h -26 -26 v -10 -10 H 692.5 253 v 5.9501 5.95009 l 5.74028,0.29991 c 4.52807,0.23657 5.81061,0.66946 6.07333,2.0499 0.2882,1.51441 -0.50219,1.75 -5.87113,1.75 h -6.20416 l 0.58513,3.60577 c 0.76824,4.73407 3.14371,8.23401 6.47944,9.54659 1.48341,0.58371 3.37211,1.4369 4.19711,1.89598 0.825,0.45908 403.125,0.74851 894,0.64318 l 892.5,-0.19152 z m 1785.2246,0.25 v -16 h -432 -432 v 10 10 h -26 -26 v -10 -10 h -432 -432 v 16 16 h 890 890 z m -3599,-10 v -6 h -6.30927 -6.30928 l -4.69072,5.43325 c -2.5799,2.98828 -4.69073,5.68828 -4.69073,6 0,0.31171 4.95,0.56675 11,0.56675 h 11 z M 86.432545,523.69358 c 1.19645,-9.57606 7.3987,-19.50825 15.567455,-24.92954 2.37064,-1.57329 1.42629,-1.66186 -18.25,-1.7116 L 63,496.99994 v 16 16 h 11.384777 11.384776 z m 55.140765,0.0564 c -1.36182,-10.44725 -8.18401,-21.31963 -15.29119,-24.36924 -8.32101,-3.57046 -19.25277,-0.31403 -24.65885,7.34554 -5.376595,7.61781 -5.346935,8.2737 0.37416,8.2737 6.44275,0 11.69084,4.19836 12.6359,10.10844 l 0.62229,3.89156 h 13.50102 13.50102 z m 81.73926,0 C 226.07616,517.84682 229,505.92133 229,500.55258 v -3.55259 l -45.75,0.009 -45.75,0.009 5.07784,2.91252 c 9.06012,5.19665 14.62194,13.55565 16.01704,24.07241 l 0.66278,4.9963 h 30.79855 30.79855 l 2.45781,-5.25 z m -55.9972,-3.75698 c -7.17062,-2.8891 -4.73822,-12.99301 3.12793,-12.99301 6.37823,0 8.9894,7.94128 3.92184,11.92742 -2.87061,2.25803 -3.75751,2.39208 -7.04977,1.0656 z M 237,526.46626 c 0,-1.82906 0.96024,-3.10028 3.45271,-4.57087 3.10263,-1.8306 9.54729,-9.97602 9.54729,-12.06684 0,-0.45571 0.675,-0.82856 1.5,-0.82856 1.23333,0 1.5,1.77778 1.5,10 v 10 h 899.0254 899.0254 l -0.2754,-15.75 -0.2754,-15.75 -898.6766,-0.25055 c -775.76499,-0.21629 -898.72077,-0.0563 -898.99997,1.16984 -0.17789,0.78122 -5.83593,7.74591 -12.57343,15.47711 -6.7375,7.73119 -12.25,14.29226 -12.25,14.58015 0,0.2879 2.025,0.52345 4.5,0.52345 4.14931,0 4.5,-0.19746 4.5,-2.53373 z m 3599,-13.46627 v -16 h -890 -890 v 16 16 h 890 890 z M 244.7277,497.27019 c -2.07477,-0.21647 -5.22477,-0.21284 -7,0.008 -1.77524,0.22091 -0.0777,0.39803 3.7723,0.39359 3.85,-0.004 5.30246,-0.18518 3.2277,-0.40166 z m 1806.0258,-140.5202 -0.2535,-137.25 -296.75,-0.25166 -296.75,-0.25167 v 16.48261 c 0,16.29009 -0.026,16.48799 -2.25,16.94272 -1.2375,0.25305 -51.525,4.10406 -111.75,8.55779 -60.225,4.45373 -112.0875,8.36338 -115.25,8.68812 l -5.75,0.59042 V 244.62916 218.99999 H 945.09878 668.19755 l -1.95701,3.31688 c -2.19278,3.71649 -8.94457,9.51382 -14.24054,12.22744 -2.08682,1.06927 -6.52825,1.96567 -11,2.22009 -6.64986,0.37834 -7.89508,0.15743 -10.98543,-1.94887 -4.60415,-3.13806 -6.1906,-6.36904 -5.67881,-11.56554 l 0.41857,-4.25 h -93.27839 -93.27839 l -1.95701,3.31688 c -2.19278,3.71649 -8.94457,9.51382 -14.24054,12.22744 -2.08682,1.06927 -6.52825,1.96567 -11,2.22009 -6.64986,0.37834 -7.89508,0.15743 -10.98543,-1.94887 -4.60415,-3.13806 -6.1906,-6.36904 -5.67881,-11.56554 l 0.41857,-4.25 H 271.73726 148.72019 l 0.53231,5.25 c 0.79882,7.87862 -0.7932,21.92325 -3.06803,27.06588 -8.14342,18.40954 -30.10192,23.43333 -43.56761,9.96765 -5.282815,-5.28282 -7.616855,-10.80718 -7.616855,-18.02805 0,-5.53262 0.31092,-6.44274 3.27444,-9.585 6.789745,-7.19922 17.033395,-6.76255 21.786875,0.92874 5.60748,9.07309 -0.28029,20.40078 -10.60367,20.40078 h -3.80628 l 2.2957,2.44366 c 4.97711,5.29789 14.32781,7.13964 21.35067,4.2053 4.08952,-1.70871 9.39399,-7.70914 12.02099,-13.59815 1.65541,-3.71098 2.044,-6.76537 2.10566,-16.55081 l 0.0756,-12 h -40 -40 l -0.253536,137.25 -0.253545,137.25 H 1057 2051.0071 Z m -851.7136,14.79804 c -0.6628,-0.79858 -1.0435,-2.26108 -0.8461,-3.25 0.2913,-1.45906 1.3569,-1.79804 5.6523,-1.79804 5.9195,0 7.3851,-1.20204 9.3136,-7.63861 1.0395,-3.46963 0.7248,-4.48586 -5.5799,-18.0192 -3.6748,-7.8882 -7.6085,-15.12969 -8.7414,-16.09219 -1.992,-1.69224 -1.8005,-1.74791 5.8008,-1.68661 5.7271,0.0462 7.2501,0.30887 5.6108,0.96777 -1.2375,0.49742 -2.25,1.33616 -2.25,1.86387 0,1.88546 8.7547,20.22255 9.6187,20.14681 0.8692,-0.0762 7.3813,-18.32123 7.3813,-20.68021 0,-0.66824 -0.7875,-1.42078 -1.75,-1.6723 -0.9625,-0.25153 0.6125,-0.50953 3.5,-0.57333 5.0473,-0.11152 5.1808,-0.0468 3.4576,1.67637 -0.9858,0.9858 -4.6479,9.4233 -8.1381,18.75 -7.4649,19.94846 -10.2287,25.75531 -13.2736,27.88802 -2.812,1.96961 -8.1655,2.03417 -9.756,0.11765 z M 420.07399,355.79365 c -6.31604,-3.27312 -8.27622,-7.38356 -7.86514,-16.49293 0.24175,-5.35685 0.85594,-7.91602 2.39997,-10 7.74463,-10.45294 22.27362,-9.58569 25.35635,1.51355 0.56302,2.02714 1.02619,4.02322 1.02925,4.43572 0.003,0.4125 -5.16942,0.75 -11.49442,0.75 H 418 v 3.09887 c 0,7.50332 5.27398,12.90113 12.60518,12.90113 3.02749,0 4.4072,-0.7387 7.54966,-4.04211 4.21663,-4.4326 5.1561,-3.19897 1.59176,2.09016 -4.70224,6.97766 -12.75614,9.32989 -19.67261,5.74561 z m 12.54507,-24.94835 c -0.91228,-4.56143 -2.37707,-5.84531 -6.66892,-5.84531 -2.91951,0 -4.2873,0.61317 -5.87756,2.63486 -1.13992,1.44917 -2.07258,3.47417 -2.07258,4.5 0,1.65711 0.85044,1.86514 7.625,1.86514 h 7.625 z M 454,356.94206 c -1.925,-0.46926 -4.2875,-0.61787 -5.25,-0.33025 -1.53314,0.45815 -1.75,-0.23622 -1.75,-5.60345 0,-6.31076 1.32173,-7.37302 2.49984,-2.00909 1.84357,8.3937 14.50016,9.65142 14.50016,1.44092 0,-3.11251 -0.51241,-3.78383 -4.74377,-6.21482 -2.60907,-1.49896 -6.49212,-4.41799 -8.629,-6.48673 -3.47817,-3.36728 -3.82381,-4.13986 -3.29897,-7.37403 1.10058,-6.7821 5.49079,-9.12732 14.71201,-7.85908 l 4.95973,0.68214 -0.0706,5.15616 -0.0706,5.15616 -1.893,-4.26092 c -2.27734,-5.12604 -5.78464,-6.91117 -9.80801,-4.99203 -3.30764,1.57774 -4.07472,5.90554 -1.4683,8.28405 0.99582,0.90873 4.71245,3.52349 8.25919,5.81057 7.66109,4.94019 9.2017,8.0229 6.66646,13.33936 -1.03612,2.17275 -2.90254,3.95896 -5.09313,4.87425 -3.8201,1.59614 -4.45517,1.62193 -9.52194,0.38679 z m 30.60432,0.0195 c -9.86408,-2.9518 -13.74763,-18.10222 -7.18297,-28.02208 5.97201,-9.02433 20.45463,-9.26724 24.15743,-0.40519 3.04698,7.29246 2.81311,7.4657 -10.07878,7.4657 -12.82576,0 -12.53897,-0.19982 -10.32397,7.19321 1.59815,5.33413 5.89533,8.80679 10.89781,8.80679 3.07587,0 4.75495,-0.75397 7.79448,-3.5 4.66661,-4.21601 5.661,-4.41506 3.74664,-0.75 -2.14087,4.09869 -6.82527,8.16313 -10.68363,9.2697 -3.91777,1.1236 -4.389,1.12031 -8.32701,-0.0581 z m 10.62261,-25.90832 c -0.574,-5.14313 -6.2492,-7.71725 -11.18749,-5.07436 -1.95094,1.04412 -4.2946,6.43262 -3.25147,7.47574 0.34356,0.34356 3.79431,0.49432 7.66834,0.33502 6.81304,-0.28017 7.03475,-0.36977 6.77062,-2.7364 z M 624.357,357.00841 c -2.60543,-1.05142 -5.357,-4.79103 -5.357,-7.28059 0,-5.25553 4.58304,-9.49366 14.26463,-13.19109 4.37524,-1.67092 4.73537,-2.06931 4.73537,-5.23834 0,-4.99366 -1.56422,-7.2984 -4.9534,-7.2984 -4.81355,0 -6.0466,0.9323 -6.0466,4.57181 0,4.19089 -2.9795,6.30583 -5.43055,3.85478 -2.15086,-2.15086 -2.00319,-2.9096 1.2819,-6.58625 2.47416,-2.76907 3.64086,-3.24832 8.81967,-3.62292 5.27568,-0.38161 6.30839,-0.13942 8.89865,2.08694 2.89774,2.49064 2.93589,2.66145 3.43033,15.35715 l 0.5,12.83849 2.75,-0.18826 c 3.16719,-0.21683 3.49788,0.73597 1,2.88127 -4.04318,3.47249 -8.45028,2.90204 -9.77284,-1.26498 -0.59728,-1.88187 -0.81547,-1.93184 -2.35432,-0.5392 -1.44609,1.3087 -8.491,4.7387 -9.34072,4.54778 -0.15517,-0.0349 -1.24647,-0.45255 -2.42512,-0.92819 z m 11.42049,-5.56512 c 1.90566,-1.33477 2.22251,-2.4753 2.22251,-8 0,-3.79344 -0.42764,-6.4433 -1.03984,-6.4433 -2.12133,0 -8.92794,4.07127 -9.92672,5.93752 -1.39632,2.60904 -1.30647,7.38945 0.16656,8.86248 1.67377,1.67377 5.93137,1.49671 8.57749,-0.3567 z m 55.86506,5.55971 c -6.42898,-1.99682 -9.87163,-7.69806 -9.95429,-16.48493 -0.0642,-6.81841 2.47752,-12.56108 7.05971,-15.95076 3.22662,-2.38689 11.80525,-3.15309 15.19729,-1.35735 2.67703,1.41721 5.45637,5.74053 6.45446,10.04003 l 0.63838,2.75 h -12.06436 -12.06437 l 0.67897,3.75 c 1.45096,8.01386 5.32397,12.25 11.19991,12.25 4.27377,0 7.03006,-1.41339 10.43485,-5.35087 3.20544,-3.70694 3.67027,-1.8307 0.72649,2.93243 -3.71123,6.0049 -12.0214,9.37374 -18.30704,7.42145 z M 703,332.43425 c 0,-1.92482 -1.9121,-5.67565 -3.3997,-6.66895 -4.148,-2.76969 -11.6003,1.03555 -11.6003,5.92325 0,2.20979 0.32982,2.31144 7.5,2.31144 6.13996,0 7.5,-0.28393 7.5,-1.56574 z m 587.3087,23.65865 c -10.6332,-4.92823 -11.3669,-23.93081 -1.2036,-31.16776 6.5224,-4.64432 17.4457,-3.19993 20.1156,2.65989 0.9279,2.03663 0.8258,2.79702 -0.5621,4.18495 -2.2437,2.24364 -4.6366,0.75667 -6.1748,-3.83691 -0.9486,-2.83301 -1.709,-3.4883 -4.3507,-3.74898 -2.5497,-0.2516 -3.9068,0.38961 -6.6672,3.15 -3.1196,3.11961 -3.4659,4.01891 -3.4659,9.0008 0,6.71847 1.1391,9.96273 4.6358,13.20341 4.1547,3.85041 9.3188,3.393 14.5448,-1.28831 l 4.1863,-3.75 -2.3953,4.29941 c -4.2863,7.69328 -11.6182,10.5586 -18.6629,7.2935 z M 1324,356.97755 c -1.925,-0.48878 -4.2875,-0.65336 -5.25,-0.36574 -1.5331,0.45815 -1.75,-0.23622 -1.75,-5.60345 0,-6.31076 1.3217,-7.37302 2.4998,-2.00909 1.8436,8.3937 14.5002,9.65142 14.5002,1.44092 0,-3.11251 -0.5124,-3.78383 -4.7438,-6.21482 -2.609,-1.49896 -6.4921,-4.41799 -8.629,-6.48673 -3.4781,-3.36728 -3.8238,-4.13986 -3.2989,-7.37403 1.1005,-6.7821 5.4907,-9.12732 14.712,-7.85908 l 4.9597,0.68214 -0.071,5.15616 -0.071,5.15616 -1.893,-4.26092 c -2.2773,-5.12604 -5.7846,-6.91117 -9.808,-4.99203 -3.3078,1.57782 -4.0712,5.89791 -1.4683,8.30872 0.9958,0.9223 4.632,3.41878 8.0805,5.54772 6.91,4.26603 8.9094,7.52472 7.5435,12.29474 -1.5751,5.50087 -8.256,8.37127 -15.3134,6.57933 z m 128.3154,0.037 c -2.8361,-1.17061 -4.3154,-4.03142 -4.3154,-8.34522 0,-4.35071 4.1932,-8.29787 12.3187,-11.59575 5.6357,-2.28736 5.6813,-2.33945 5.6813,-6.48972 0,-4.98817 -1.333,-6.58386 -5.5,-6.58386 -3.9924,0 -5.5,1.58063 -5.5,5.76642 0,3.0825 -0.2319,3.33974 -2.75,3.05 -2.3094,-0.26572 -2.75,-0.79069 -2.75,-3.27659 0,-4.18865 5.1407,-7.53983 11.5661,-7.53983 2.6237,0 5.4988,0.27953 6.3891,0.62118 3.3144,1.27186 4.5442,5.87796 4.5601,17.07916 0.017,11.81308 0.6432,13.88373 3.9394,13.02174 2.8275,-0.7394 2.2143,1.06258 -1.2389,3.64075 -2.2242,1.66062 -3.0708,1.79646 -5.1869,0.83229 -1.4996,-0.68328 -2.5289,-1.98075 -2.5289,-3.18787 0,-1.97325 -0.1149,-1.96045 -3.75,0.41769 -4.5408,2.9707 -8.0169,3.79393 -10.9346,2.58961 z m 11.1375,-5.17507 c 2.3681,-1.07894 2.5471,-1.64127 2.5471,-8 0,-3.76171 -0.2395,-6.83948 -0.5321,-6.83948 -1.7627,0 -7.5113,3.13023 -9.3263,5.07836 -2.5197,2.70463 -2.7896,7.13075 -0.5702,9.35021 1.8665,1.86645 4.3974,1.99841 7.8815,0.41091 z m 63.1897,5.14263 c -6.3024,-1.91139 -9.6426,-7.55527 -9.6426,-16.29272 0,-13.22863 11.1221,-22.29748 21.0497,-17.16372 l 2.9503,1.52568 v -6.09142 c 0,-7.10848 -1.2044,-9.92964 -4.2852,-10.03744 -2.1485,-0.0752 6.2894,-3.67336 9.0168,-3.845 0.9351,-0.0589 1.2961,5.51839 1.5,23.1725 l 0.2684,23.25 2.25,0.31955 c 3.4954,0.49643 2.6827,1.63028 -2.5,3.48785 -5.9802,2.14341 -6.25,2.12884 -6.25,-0.33734 0,-2.02082 -0.012,-2.02117 -2.75,-0.0788 -3.4165,2.42406 -7.866,3.22554 -11.6074,2.09083 z m 12.6074,-5.71501 c 1.4431,-1.30052 1.75,-3.31701 1.75,-11.49901 0,-9.63302 -0.085,-10.00705 -2.9231,-12.84501 -7.4605,-7.46054 -16.1178,0.70243 -14.7545,13.91201 1.1164,10.81625 9.4468,16.27241 15.9276,10.43201 z M 339,356.06641 c 0,-0.51347 1.2197,-1.07597 2.71045,-1.25 1.90096,-0.22192 2.91649,-1.06306 3.40032,-2.81642 0.37943,-1.375 0.73473,-11.3875 0.78955,-22.25 l 0.0997,-19.75 h -5.54545 c -4.55444,0 -5.98411,0.43865 -8,2.45455 -1.35,1.35 -2.45455,3.12344 -2.45455,3.94098 0,0.81754 -0.45,1.76455 -1,2.10447 -0.62784,0.38803 -1,-1.82295 -1,-5.94098 v -6.55902 h 21.5 21.5 v 6.5 c 0,3.66667 -0.4359,6.5 -1,6.5 -0.55,0 -1,-0.92045 -1,-2.04545 0,-1.125 -1.10455,-3.15 -2.45455,-4.5 -2.01589,-2.0159 -3.44556,-2.45455 -8,-2.45455 h -5.54545 v 19.9349 c 0,21.78772 0.57744,25.0651 4.41623,25.0651 1.35616,0 2.74385,0.45 3.08377,1 0.39779,0.64364 -3.32295,1 -10.44098,1 -6.18146,0 -11.05902,-0.41175 -11.05902,-0.93358 z m 37.5,-0.0664 c 0.33992,-0.55 1.24609,-1 2.0137,-1 2.15917,0 2.5977,-4.89986 2.27963,-25.4714 -0.28951,-18.72425 -0.32363,-18.98649 -2.61933,-20.1301 -2.23097,-1.11137 -2.13177,-1.22489 2.42814,-2.7786 2.61478,-0.89095 5.12398,-1.6199 5.576,-1.6199 0.45202,0 0.82186,5.22162 0.82186,11.60359 v 11.60359 l 3.5348,-3.10359 c 2.60702,-2.28899 4.51713,-3.10359 7.27749,-3.10359 8.04041,0 10.17337,4.42592 10.18213,21.12803 0.005,9.88673 0.16252,10.7375 2.25558,12.19755 2.12125,1.4797 1.7636,1.57023 -6.25,1.58193 -8.09406,0.0118 -8.36867,-0.0588 -5.75,-1.47948 l 2.75,-1.4919 V 341.5395 c 0,-9.93633 -0.31187,-12.70851 -1.57143,-13.96806 -2.16907,-2.16908 -6.06589,-1.96587 -9.5242,0.49666 -2.9003,2.0652 -2.90437,2.08329 -2.90437,12.91822 0,11.59561 0.43966,14.01369 2.54797,14.01369 0.7337,0 1.61211,0.45 1.95203,1 0.39264,0.6353 -2.34262,1 -7.5,1 -5.15738,0 -7.89264,-0.3647 -7.5,-1 z m 277,0 c 0.33992,-0.55 1.2579,-1 2.03996,-1 2.11261,0 2.57166,-3.26398 2.25025,-16 -0.27919,-11.06328 -0.37565,-11.51214 -2.54021,-11.81955 -3.43793,-0.48827 -2.69301,-1.73115 1.85409,-3.09349 2.25725,-0.67629 4.73225,-1.47066 5.5,-1.76528 1.02093,-0.39176 1.39591,0.35167 1.39591,2.7675 v 3.30315 l 3.37826,-3.27433 c 2.49243,-2.41576 4.10482,-3.18829 6.14914,-2.94617 3.85693,0.4568 5.47804,3.2513 3.20482,5.52452 -1.5986,1.5986 -1.94838,1.61041 -4.48305,0.15132 -5.66095,-3.25873 -8.24917,1.1404 -8.24917,14.02088 0,10.74667 0.38873,11.95745 4.39966,13.70351 2.89589,1.26065 2.48645,1.35224 -6.20868,1.3888 -5.96069,0.0251 -9.08672,-0.32055 -8.69098,-0.96086 z m 495.5,0 c 0,-0.55 1.1361,-1 2.5248,-1 1.79,0 2.8085,-0.74647 3.5,-2.5651 1.0587,-2.78473 1.3377,-37.47946 0.3316,-41.23589 -0.4036,-1.50671 -1.607,-2.49914 -3.4864,-2.875 -6.0712,-1.21425 -2.4278,-2.32401 7.63,-2.32401 6.3333,0 10.5,0.39683 10.5,1 0,0.55 -0.8745,1 -1.9433,1 -4.3966,0 -5.0567,3.13592 -5.0567,24.02251 0,13.8936 0.3484,19.92588 1.2,20.77749 1.7813,1.78131 14.9757,1.51362 19.7606,-0.4009 2.5142,-1.006 4.8223,-2.9298 6.2112,-5.17705 2.8401,-4.59533 3.3713,-2.89792 1.311,4.18918 l -1.6247,5.58877 h -20.4291 c -12.9527,0 -20.429,-0.36597 -20.429,-1 z m 83,0.47525 c 0,-0.28861 1.125,-0.95248 2.5,-1.47525 2.4966,-0.9492 2.5,-0.96898 2.5,-14.47525 0,-13.86141 -0.073,-14.1073 -4,-13.54816 -2.6455,0.37663 -0.053,-1.34673 4.796,-3.18841 6.1356,-2.33024 6.204,-2.31571 6.204,1.31758 v 3.10575 l 2.963,-3.17187 c 2.3676,-2.5346 3.6234,-3.10837 6.25,-2.85576 2.7496,0.26443 3.3388,0.76667 3.604,3.07181 0.4072,3.54019 -1.9643,4.53307 -5.4196,2.26906 -2.4836,-1.62736 -2.6833,-1.60479 -4.9923,0.56436 -2.2771,2.13928 -2.4051,2.88864 -2.4051,14.08234 v 11.82281 l 3.25,1.4213 c 3.1213,1.365 2.8836,1.42452 -6,1.50287 -5.0875,0.0449 -9.25,-0.15457 -9.25,-0.44318 z m 30.7789,-1.07149 3.2789,-1.4331 -0.2789,-13.22685 -0.2789,-13.22685 -3,-0.55525 c -2.8596,-0.52926 -2.7426,-0.64179 2.5,-2.40413 3.025,-1.01689 6.0625,-2.05649 6.75,-2.31023 0.9673,-0.35699 1.25,3.17431 1.25,15.61372 v 16.07506 l 2.75,1.4919 c 2.5973,1.40906 2.2225,1.48959 -6.75,1.45036 -9.1221,-0.0399 -9.3696,-0.0985 -6.2211,-1.47463 z m 219.9928,0.36605 c 3.0313,-1.46087 3.3591,-3.27909 3.0185,-16.74235 -0.275,-10.87119 -0.4121,-11.53322 -2.6162,-12.63011 -2.2306,-1.11011 -2.1311,-1.22396 2.4281,-2.77745 6.1336,-2.0899 6.2081,-2.07935 6.5815,0.93158 l 0.3164,2.55147 3.4443,-2.55147 c 4.6568,-3.44975 9.8719,-3.43942 13.1314,0.026 2.2764,2.42024 2.4443,3.39679 2.7519,16.00874 0.3266,13.38737 0.3364,13.43601 3,14.88249 2.5134,1.36487 2.1666,1.45227 -5.8276,1.46902 l -8.5,0.0178 2.5,-1.9222 c 2.419,-1.85991 2.5,-2.30791 2.5,-13.82536 0,-13.10882 -0.7574,-15.20797 -5.4876,-15.20797 -1.5085,0 -3.9284,0.93266 -5.3775,2.07258 -2.5827,2.03152 -2.6349,2.30826 -2.6349,13.96806 v 11.89549 l 2.75,1.4919 c 2.6174,1.41996 2.3401,1.49056 -5.75,1.46425 -6.8873,-0.0224 -8.069,-0.23536 -6.2283,-1.12247 z M 548,336.52821 v -2.52822 h 14.06955 c 14.01866,0 14.0684,0.008 13.75,2.25 -0.31145,2.19294 -0.66825,2.25706 -14.06955,2.52822 L 548,339.05643 Z m 369,-0.0282 v -2.5 h 14 14 v 2.5 2.5 h -14 -14 z m 893,0 v -2.5 h 13.5 13.5 v 2.5 2.5 h -13.5 -13.5 z m -430,-2 v -2.5 h 14 14 v 2.5 2.5 h -14 -14 z m -114.5351,-23.55684 c -0.3593,-0.58125 -0.3772,-2.15625 -0.04,-3.5 0.4412,-1.75778 1.2993,-2.44316 3.059,-2.44316 3.0784,0 5.2222,3.4443 3.463,5.56392 -1.3888,1.67343 -5.5324,1.91585 -6.482,0.37924 z m 2570.2886,45.80682 -0.2535,-137.25 H 3314 2792.5 l -0.3104,3.75 c -0.1711,2.06801 -0.8439,3.74408 -1.5,3.7368 -0.6543,-0.007 -11.0896,-1.67869 -23.1896,-3.71427 l -22,-3.70107 -344.75,-0.28422 L 2056,219.00301 V 356.5015 493.99999 h 890.0035 890.0036 z m -1644.7136,14.79804 c -0.6628,-0.79858 -1.0439,-2.26108 -0.847,-3.25 0.2806,-1.40949 1.3249,-1.79804 4.8325,-1.79804 5.6601,0 6.749,-0.73584 9.1624,-6.19162 l 1.9611,-4.43352 -7.2266,-15.47288 c -3.9746,-8.51009 -7.9456,-15.89325 -8.8244,-16.40703 -1.076,-0.62903 1.015,-0.89959 6.4021,-0.82836 4.4,0.0582 6.9875,0.30079 5.75,0.53914 -1.3715,0.26416 -2.25,1.15956 -2.25,2.29325 0,2.25637 8.8196,21.51474 9.5284,20.80599 0.5739,-0.57393 7.4716,-20.81765 7.4716,-21.92813 0,-0.40161 -0.7875,-0.93599 -1.75,-1.18751 -0.9625,-0.25153 0.4196,-0.50953 3.0714,-0.57333 4.1438,-0.0997 4.6237,0.0817 3.4147,1.29078 -0.7738,0.77374 -4.2435,8.98624 -7.7105,18.25 -7.3644,19.67756 -11.2631,27.86479 -13.9552,29.30557 -2.797,1.4969 -7.6283,1.27525 -9.0305,-0.41431 z m -83.7276,-14.53464 c -3.1496,-1.29983 -4.3003,-6.69543 -4.3067,-20.19385 -0.01,-10.67102 -0.1689,-11.70806 -1.8951,-12 -1.5686,-0.26527 -0.9741,-1.32376 3.5,-6.23144 L 2110,312.67621 v 5.16189 5.16189 h 4.059 c 2.4514,0 3.8143,0.39607 3.441,1 -0.3399,0.55 -2.1665,1 -4.059,1 H 2110 v 12.92857 c 0,10.41991 0.3049,13.23349 1.5714,14.5 1.9522,1.95218 2.438,1.95356 5.2061,0.0147 2.8923,-2.02582 2.8729,-0.399 -0.028,2.30826 -2.7494,2.56633 -6.5139,3.46853 -9.4377,2.26184 z m 58.0206,-0.0796 c -7.0907,-2.12245 -11.3993,-11.50754 -9.5096,-20.71423 1.3252,-6.45599 4.0404,-10.45248 8.5581,-12.59626 9.2632,-4.39566 19.6186,0.79143 19.6186,9.82705 v 2.54966 h -11.6113 -11.6113 l 0.697,3.71544 c 1.4864,7.92288 5.4633,12.28456 11.2011,12.28456 4.2373,0 7.9288,-1.74718 9.8335,-4.65413 2.5244,-3.85268 3.7917,-2.65321 1.5017,1.42131 -3.8287,6.81232 -11.7018,10.2547 -18.6778,8.1666 z m 10.894,-25.88053 c -0.574,-5.14313 -6.2492,-7.71725 -11.1875,-5.07436 -1.9509,1.04412 -4.2946,6.43262 -3.2514,7.47574 0.3435,0.34356 3.7943,0.49432 7.6683,0.33502 6.8131,-0.28017 7.0348,-0.36977 6.7706,-2.7364 z m 365.0885,25.9613 c -4.643,-1.91647 -5.7482,-8.9233 -2.1325,-13.51993 1.2006,-1.52631 5.5321,-4.3014 9.6256,-6.16687 l 7.4428,-3.39177 -0.5773,-3.55722 c -0.7794,-4.80306 -2.3045,-6.37878 -6.174,-6.37878 -3.7704,0 -5.9653,2.11275 -5.207,5.01226 0.2909,1.11261 -0.1372,2.68911 -0.9515,3.50335 -2.2515,2.25158 -5.5533,0.13613 -5.1514,-3.30057 0.7803,-6.67342 15.0947,-10.02112 20.3554,-4.76049 2.3265,2.32651 2.4553,3.06982 2.4698,14.25 0.01,6.4875 0.4124,12.42248 0.8977,13.18885 0.5273,0.83273 1.7512,1.16617 3.0417,0.82868 2.799,-0.73194 2.2252,1.0545 -1.1476,3.5726 -3.1683,2.36551 -6.5608,1.53492 -7.4008,-1.81198 l -0.5983,-2.38399 -3.654,2.38978 c -4.4496,2.91013 -7.9383,3.72321 -10.8386,2.52606 z m 11.0528,-5.13645 c 1.3543,-0.61704 2.7193,-2.07954 3.0334,-3.25 0.9613,-3.58204 0.6612,-11.6281 -0.4337,-11.6281 -2.5021,0 -7.8136,2.98836 -9.8,5.51368 -2.5705,3.2678 -2.7175,5.25658 -0.6112,8.26381 1.7238,2.461 4.0931,2.79483 7.8115,1.10061 z m 57.1005,5.05979 c -9.3258,-2.71267 -13.4246,-15.66304 -8.2187,-25.96793 5.8195,-11.51964 20.7866,-12.3067 25.3712,-1.33418 2.6436,6.3271 2.5846,6.3642 -10.1212,6.3642 H 2605 v 2.53212 c 0,7.21216 5.6912,13.46788 12.2525,13.46788 3.2931,0 4.6551,-0.67226 7.8651,-3.88235 2.4774,-2.47734 3.8824,-3.32577 3.8824,-2.34439 0,2.72901 -5.1526,8.39211 -9.3839,10.31362 -4.5279,2.0562 -5.6737,2.15229 -10.1474,0.85101 z M 2620,331.7225 c 0,-4.08055 -2.7124,-6.72251 -6.9017,-6.72251 -4.2151,0 -6.5454,1.90914 -7.6288,6.25 l -0.6863,2.75 h 7.6084 c 7.2507,0 7.6084,-0.10706 7.6084,-2.27749 z m 169.6838,24.86131 c -5.0001,-1.82603 -7.5592,-4.1973 -9.8031,-9.08382 -2.48,-5.40077 -2.3511,-11.15571 0.3693,-16.47957 3.41,-6.6736 6.5857,-8.52043 14.6512,-8.52043 5.8175,0 7.2515,0.37909 10.3374,2.7328 9.3063,7.09831 8.455,23.4906 -1.539,29.63283 -4.4702,2.74734 -9.507,3.3648 -14.0158,1.71819 z m 12.1929,-4.1542 c 4.5722,-5.81255 3.4964,-20.21038 -1.9143,-25.62111 -4.4841,-4.48408 -10.5136,-3.51077 -13.452,2.17147 -3.0709,5.9384 -1.0922,18.64295 3.6977,23.74155 3.0918,3.29106 8.9658,3.14411 11.6686,-0.29191 z m 179.4749,4.47793 c -12.8294,-3.71662 -13.761,-26.91129 -1.3317,-33.156 4.2388,-2.12963 10.1069,-2.25447 13.8949,-0.2956 2.9614,1.53137 6.0852,6.89342 6.0852,10.44518 0,2.01015 -0.4861,2.09887 -11.5,2.09887 -12.808,0 -12.5165,-0.20016 -10.4652,7.18572 1.4171,5.10194 6.0664,8.81428 11.039,8.81428 3.0759,0 4.755,-0.75397 7.7945,-3.5 4.6666,-4.21601 5.661,-4.41506 3.7467,-0.75 -2.1409,4.09869 -6.8253,8.16313 -10.6837,9.2697 -3.9261,1.12599 -4.3237,1.1208 -8.5797,-0.11215 z m 10.8055,-25.90755 c -0.5796,-4.22468 -3.0652,-6.13196 -7.556,-5.79781 -3.3042,0.24586 -4.3295,0.85991 -5.8777,3.52033 -1.0315,1.77238 -1.5779,3.70383 -1.2144,4.29209 0.3988,0.64526 3.5035,0.9537 7.826,0.77748 7.0038,-0.28552 7.1573,-0.34833 6.8221,-2.79209 z m 18.1641,25.81127 c -1.1984,-0.57936 -2.7118,-2.34017 -3.3633,-3.91291 -2.5753,-6.21725 1.8634,-12.09178 12.0008,-15.88291 5.8875,-2.20178 6.0413,-2.35316 6.0413,-5.94625 0,-5.41948 -1.7667,-7.28128 -6.5399,-6.89209 -3.7283,0.30399 -3.978,0.52774 -4.2661,3.82289 -0.3711,4.24594 -2.657,6.35774 -5.3321,4.92607 -2.4528,-1.31268 -2.3597,-4.01458 0.2341,-6.79877 4.5062,-4.83683 13.9467,-5.71497 18.5813,-1.72842 2.7214,2.34083 2.8014,2.70982 3.3058,15.25 0.5043,12.53732 0.5718,12.84918 2.7669,12.77172 4.4278,-0.15625 2.1163,3.82191 -2.9611,5.09626 -2.3021,0.57777 -2.9851,0.20893 -4.6341,-2.50269 -1.2807,-2.10591 -2.1819,-2.77926 -2.6678,-1.99313 -0.7867,1.27288 -8.3286,4.96514 -9.987,4.88932 -0.55,-0.0252 -1.9805,-0.51974 -3.1788,-1.09909 z m 12.4563,-5.36797 c 1.9056,-1.33477 2.2225,-2.4753 2.2225,-8 0,-3.83209 -0.4254,-6.4433 -1.0497,-6.4433 -1.4561,0 -7.0874,2.92302 -9.2003,4.77558 -2.0285,1.77854 -2.3804,8.19398 -0.55,10.02442 1.6738,1.67377 5.9314,1.49671 8.5775,-0.3567 z m 28.7225,5.82394 c -3.5052,-0.87763 -7.2002,-4.11571 -8.9825,-7.8717 -2.6991,-5.68783 -1.7979,-16.02805 1.809,-20.75695 3.5288,-4.62653 7.4348,-6.63958 12.8738,-6.63485 7.6658,0.007 14.1701,6.05446 10.48,9.74451 -2.1416,2.1416 -4.3282,0.96609 -6.4042,-3.44286 -2.0002,-4.24784 -4.068,-5.04844 -8.4024,-3.25309 -3.9443,1.63378 -6.2605,6.29132 -6.2033,12.47365 0.083,8.93994 4.5379,14.47405 11.6521,14.47405 3.0764,0 4.58,-0.70247 7.2775,-3.4 4.3317,-4.33169 4.4662,-1.88392 0.1656,3.01416 -4.5367,5.16708 -9.0553,6.95765 -14.2656,5.65308 z m 201.4136,-0.19175 C 3245.1492,354.6288 3241,348.48187 3241,339.42598 c 0,-10.5847 6.5713,-17.42599 16.7383,-17.42599 5.7942,0 10.415,2.63428 14.0744,8.0238 2.019,2.97358 2.3081,4.43198 1.999,10.08655 -0.2925,5.35124 -0.8902,7.30383 -3.1382,10.25106 -4.35,5.70319 -11.9046,8.55918 -17.7599,6.71408 z m 11.1321,-4.62419 c 1.932,-2.05649 2.4693,-3.87351 2.782,-9.40869 0.2132,-3.77299 -0.1408,-8.46135 -0.7868,-10.41857 -1.4747,-4.46859 -6.307,-8.62404 -10.0287,-8.62404 -3.4895,0 -7.4897,4.4015 -8.3974,9.2398 -1.2363,6.58996 2.2772,18.43303 6.1352,20.68009 3.2302,1.88142 7.7549,1.23602 10.2957,-1.46859 z m 17.4088,3.09415 c -2.373,-2.37305 -2.4545,-2.92087 -2.4545,-16.5 0,-13.37878 -0.095,-14.04545 -2,-14.04545 -1.1,0 -2,-0.45 -2,-1 0,-0.55 0.4395,-1 0.9767,-1 0.5373,0 2.7622,-2.25876 4.9445,-5.01948 l 3.9676,-5.01947 0.3056,4.76947 c 0.3029,4.72657 0.3393,4.77227 4.0556,5.07985 5.0573,0.41856 4.7908,2.18963 -0.3295,2.18963 h -4.0794 l 0.3294,13.08273 c 0.2911,11.55813 0.5549,13.24727 2.2633,14.49461 1.6717,1.22055 2.2428,1.20933 4.2148,-0.0827 3.0842,-2.02088 3.6288,-1.88154 2.3061,0.59005 -1.0335,1.93104 -6.4783,4.91534 -8.968,4.91534 -0.5927,0 -2.1822,-1.10455 -3.5322,-2.45455 z m 24.8971,1.3621 c -12.8294,-3.71662 -13.761,-26.91129 -1.3317,-33.156 4.2388,-2.12963 10.1069,-2.25447 13.8949,-0.2956 2.9614,1.53137 6.0852,6.89342 6.0852,10.44518 0,2.01015 -0.4861,2.09887 -11.5,2.09887 -12.808,0 -12.5165,-0.20016 -10.4652,7.18572 1.4171,5.10194 6.0664,8.81428 11.039,8.81428 3.0759,0 4.755,-0.75397 7.7945,-3.5 4.6666,-4.21601 5.661,-4.41506 3.7467,-0.75 -2.1409,4.09869 -6.8253,8.16313 -10.6837,9.2697 -3.9261,1.12599 -4.3237,1.1208 -8.5797,-0.11215 z m 10.8055,-25.90755 c -0.5796,-4.22468 -3.0652,-6.13196 -7.556,-5.79781 -3.3042,0.24586 -4.3295,0.85991 -5.8777,3.52033 -1.0315,1.77238 -1.5779,3.70383 -1.2144,4.29209 0.3988,0.64526 3.5035,0.9537 7.826,0.77748 7.0038,-0.28552 7.1573,-0.34833 6.8221,-2.79209 z m -1195.8881,24.41806 2.769,-1.50187 -0.269,-22.1636 -0.269,-22.1636 -2.3975,-0.56538 c -2.0095,-0.4739 -1.5099,-0.84518 3.0879,-2.2945 3.017,-0.95101 5.7833,-1.72911 6.1475,-1.72911 0.3642,0 0.6621,4.93644 0.6621,10.96986 v 10.96987 l 3.6395,-2.46987 c 3.5186,-2.38774 8.4146,-3.15378 11.8157,-1.84868 3.3784,1.29641 4.5448,5.85122 4.5448,17.74737 0,12.2035 0.4228,14.63145 2.548,14.63145 0.7337,0 1.6121,0.45 1.952,1 0.3936,0.63688 -2.3991,0.98896 -7.691,0.96959 -6.7137,-0.0246 -7.925,-0.24815 -6.309,-1.16454 3.2406,-1.83763 3.4686,-2.77553 3.4847,-14.33254 0.012,-8.38137 -0.3582,-11.5608 -1.5414,-13.25 -1.9886,-2.83918 -6.3057,-2.90517 -9.8084,-0.14993 -2.5827,2.03152 -2.6349,2.30826 -2.6349,13.96806 v 11.89549 l 2.75,1.4919 c 2.6096,1.41572 2.2905,1.49189 -6.25,1.49189 -8.5674,0 -8.8669,-0.0722 -6.231,-1.50186 z M 2570,356.47524 c 0,-0.28861 1.125,-0.95248 2.5,-1.47525 2.4966,-0.9492 2.5,-0.96898 2.5,-14.47525 0,-13.86141 -0.073,-14.1073 -4,-13.54816 -2.6455,0.37663 -0.053,-1.34673 4.796,-3.18841 6.1356,-2.33024 6.204,-2.31571 6.204,1.31758 v 3.10575 l 2.963,-3.17187 c 2.3676,-2.5346 3.6234,-3.10837 6.25,-2.85576 2.7496,0.26443 3.3388,0.76667 3.604,3.07181 0.4072,3.54019 -1.9643,4.53307 -5.4196,2.26906 -2.4836,-1.62736 -2.6833,-1.60479 -4.9923,0.56436 -2.2771,2.13928 -2.4051,2.88864 -2.4051,14.08234 v 11.82281 l 3.25,1.4213 c 3.1213,1.365 2.8836,1.42452 -6,1.50287 -5.0875,0.0449 -9.25,-0.15457 -9.25,-0.44318 z m 243.75,-1.14967 c 2.1435,-1.4952 2.25,-2.20456 2.25,-14.97978 0,-12.8819 -0.086,-13.44214 -2.1885,-14.21981 -1.9259,-0.71247 -1.6048,-1.00843 2.6782,-2.46778 6.3038,-2.14791 6.5103,-2.12006 6.5103,0.87784 v 2.53605 l 3.7321,-2.53605 c 3.968,-2.69631 8.1127,-3.22466 11.4183,-1.45556 3.5683,1.90969 4.8496,6.99984 4.8496,19.26542 0,10.70103 0.1398,11.50769 2.25,12.97967 2.1256,1.48273 1.8076,1.56952 -5.75,1.56952 -7.5576,0 -7.8756,-0.0868 -5.75,-1.56952 2.1201,-1.47894 2.25,-2.25887 2.25,-13.51329 0,-6.56908 -0.4658,-12.81419 -1.0352,-13.87803 -1.3798,-2.57812 -5.9629,-2.51017 -9.3299,0.13832 -2.5827,2.03152 -2.6349,2.30826 -2.6349,13.96806 v 11.89549 l 2.75,1.4919 c 2.6187,1.42065 2.3441,1.4913 -5.75,1.47948 -8.0136,-0.0117 -8.3712,-0.10223 -6.25,-1.58193 z m 260.75,0.67442 c 0.3399,-0.55 1.2579,-1 2.04,-1 2.2556,0 2.5443,-3.2114 2.2432,-24.95561 l -0.2832,-20.45561 -2.5,-0.63861 c -2.2777,-0.58182 -2.1165,-0.74633 1.8125,-1.84978 2.3719,-0.66614 4.9594,-1.45938 5.75,-1.76276 1.1968,-0.45925 1.4375,1.30814 1.4375,10.55538 0,6.10885 0.2725,11.10699 0.6056,11.10699 0.3331,0 1.9427,-1.125 3.5768,-2.5 4.1786,-3.5161 10.5467,-3.48058 13.8933,0.0775 2.2724,2.41603 2.4439,3.40261 2.7378,15.75 0.2893,12.15637 0.4821,13.3058 2.5,14.90028 2.1169,1.6728 1.9161,1.72735 -6.3135,1.71457 -7.6958,-0.012 -8.2683,-0.14151 -6.0511,-1.3694 3.3651,-1.86358 3.8997,-3.72438 3.9808,-13.85505 0.09,-11.26773 -1.5525,-15.71788 -5.8019,-15.71788 -1.7409,0 -4.2503,1.07361 -6.0511,2.58889 -3.066,2.57992 -3.0767,2.62434 -3.0767,12.80887 0,10.52648 0.548,12.28595 4.5,14.44751 1.5759,0.86192 0.1318,1.10036 -6.809,1.12432 -5.6253,0.0194 -8.5857,-0.33101 -8.191,-0.96959 z m 132.25,-0.67442 c 2.1435,-1.4952 2.25,-2.20456 2.25,-14.97978 0,-12.8819 -0.086,-13.44214 -2.1885,-14.21981 -1.9259,-0.71247 -1.6048,-1.00843 2.6782,-2.46778 6.3038,-2.14791 6.5103,-2.12006 6.5103,0.87784 v 2.53605 l 3.7321,-2.53605 c 3.968,-2.69631 8.1127,-3.22466 11.4183,-1.45556 3.5683,1.90969 4.8496,6.99984 4.8496,19.26542 0,10.70103 0.1398,11.50769 2.25,12.97967 2.1256,1.48273 1.8076,1.56952 -5.75,1.56952 -7.5576,0 -7.8756,-0.0868 -5.75,-1.56952 2.1201,-1.47894 2.25,-2.25887 2.25,-13.51329 0,-6.56908 -0.4658,-12.81419 -1.0352,-13.87803 -1.3798,-2.57812 -5.9629,-2.51017 -9.3299,0.13832 -2.5827,2.03152 -2.6349,2.30826 -2.6349,13.96806 v 11.89549 l 2.75,1.4919 c 2.6187,1.42065 2.3441,1.4913 -5.75,1.47948 -8.0136,-0.0117 -8.3712,-0.10223 -6.25,-1.58193 z M 2690,336.52821 v -2.52822 h 14.0696 c 14.0186,0 14.0683,0.008 13.75,2.25 -0.3115,2.19294 -0.6683,2.25706 -14.0696,2.52822 l -13.75,0.27822 z m 203.6667,1.80511 c -0.3667,-0.36666 -0.6667,-1.49166 -0.6667,-2.5 0,-1.69047 1.0909,-1.83333 14,-1.83333 h 14 v 2.5 2.5 h -13.3333 c -7.3334,0 -13.6334,-0.3 -14,-0.66667 z M 3142,336.52821 v -2.52822 h 14.0696 c 14.0186,0 14.0683,0.008 13.75,2.25 -0.3115,2.19294 -0.6683,2.25706 -14.0696,2.52822 l -13.75,0.27822 z m -777,-2.02822 v -2.5 h 13.5 13.5 v 2.5 2.5 h -13.5 -13.5 z m -1021.5,-90.81178 108,-8.19495 0.2904,-8.24663 0.2905,-8.24664 H 1339.5404 1227 v 16.5 16.5 l 4.25,-0.0584 c 2.3375,-0.0321 52.85,-3.74614 112.25,-8.25336 z M 117,216.5892 c 0,-0.22594 -2.1375,-1.43647 -4.75,-2.69007 -7.19829,-3.45409 -16.282765,-13.10554 -20.32439,-21.59286 L 88.5,185.11255 75.75,185.05625 63,184.99995 v 15.33333 c 0,8.43334 0.3,15.63334 0.666667,16 C 64.37235,217.03897 117,217.29145 117,216.58916 Z m 108.21103,-0.72231 c 0.20774,-0.6232 1.91715,-1.6357 3.79871,-2.25 3.82967,-1.25032 7.99026,-6.59528 7.99026,-10.26478 0,-2.34201 -0.0529,-2.35212 -12.3,-2.35212 -15.81226,0 -17.4775,-1.23578 -11.60545,-8.6125 6.34948,-7.97648 7.74943,-7.3875 -17.55937,-7.3875 H 173 v 2.46249 c 0,8.64187 -9.13558,21.49973 -18.54739,26.1045 -2.99893,1.46724 -5.45261,2.8399 -5.45261,3.05036 0,0.21046 17.0625,0.38265 37.91667,0.38265 27.35806,0 38.02184,-0.31553 38.29436,-1.1331 z m 22.53897,0.41685 c -1.5125,-0.22913 -3.9875,-0.22913 -5.5,0 -1.5125,0.22912 -0.275,0.41659 2.75,0.41659 3.025,0 4.2625,-0.18747 2.75,-0.41659 z m 150.37933,-2.72538 c 7.58572,-10.66142 22.55734,-16.74914 32.62067,-13.26412 l 4.25,1.47182 v -8.38304 -8.38303 h -91 -91 v 5.4501 5.45009 l 5.74028,0.29991 c 4.52807,0.23657 5.81061,0.66946 6.07333,2.0499 0.2882,1.51441 -0.50219,1.75 -5.87113,1.75 h -6.20416 l 0.60473,3.72655 c 0.80248,4.94511 3.59021,8.52294 7.70625,9.89035 1.84908,0.6143 3.53193,1.6268 3.73967,2.25 0.27623,0.8287 17.90878,1.1331 65.63465,1.1331 h 65.25696 z m 230,0 c 7.58572,-10.66142 22.55734,-16.74914 32.62067,-13.26412 l 4.25,1.47182 v -8.38304 -8.38303 H 551.94551 438.89102 l 0.27121,16 0.2712,16 H 532.557 625.68058 Z M 1222,200.99999 v -16 h -180 c -99,0 -179.98405,0.3375 -179.96456,0.75 0.0195,0.4125 0.67854,1.875 1.46456,3.25 3.1499,5.51017 0.76516,5.51017 -2.8813,0 l -2.64708,-4 H 763.98581 670 v 12.875 c 0,7.08125 -0.28125,14.28125 -0.625,16 l -0.625,3.125 H 945.375 1222 Z m 230,0 v -16 H 1339.5 1227 v 16 16 h 112.5 112.5 z m 598.7754,-0.25 0.2754,-15.75 h -180.5254 c -99.289,0 -180.5095,0.3375 -180.49,0.75 0.02,0.4125 0.6786,1.875 1.4646,3.25 1.6666,2.91539 1.8382,4 0.6329,4 -0.4769,0 -2.0583,-1.8 -3.5142,-4 l -2.6471,-4 H 1571.4858 1457 v 16.00166 16.00167 l 296.75,-0.25167 296.75,-0.25166 z m 54,0 0.2754,-15.75 H 2080.5254 2056 v 16.01778 16.01778 l 24.25,-0.26778 24.25,-0.26778 z M 2719.5,216.44024 c -0.82,-0.32951 -157.7664,-24.44025 -159.0914,-24.44025 -0.2247,0 -0.4086,-1.575 -0.4086,-3.5 v -3.5 h -217.4152 -217.4153 l -4.7247,6.25 c -6.0732,8.0338 -10.443,17.23867 -10.444,22 l -8e-4,3.75 305.25,-0.0789 c 167.8875,-0.0434 304.8,-0.25978 304.25,-0.4808 z m 1116.2754,-15.69025 0.2754,-15.75 h -178.5254 c -98.189,0 -178.5095,0.3375 -178.49,0.75 0.019,0.4125 0.6786,1.875 1.4646,3.25 3.1499,5.51017 0.7652,5.51017 -2.8813,0 l -2.6471,-4 h -207.0319 -207.0319 l -19.7039,2.98586 c -10.8371,1.64222 -20.9414,3.20597 -22.4539,3.475 -2.5663,0.45646 -2.75,0.25696 -2.75,-2.98586 v -3.475 h -112 -112 l 0.01,10.75 c 0,5.9125 0.2925,13.11293 0.6394,16.00095 l 0.6307,5.25095 521.1106,-0.25095 521.1093,-0.25095 z M 142.59717,211.73616 c 0.33054,-0.33054 -1.78772,-15.80079 -3.21583,-23.48617 l -0.60392,-3.25 h -9.88871 c -7.02015,0 -9.88871,0.34782 -9.88871,1.19904 0,0.65947 2.29894,3.3574 5.10876,5.99539 3.28323,3.08247 4.90244,5.334 4.53138,6.30096 -1.70153,4.43412 -9.68204,-1.11591 -16.95857,-11.7938 -1.02328,-1.50162 -2.40058,-1.74917 -8.34565,-1.5 l -7.120105,0.29841 1.96506,5.25826 c 3.546895,9.49105 15.148725,18.91668 26.174175,21.26458 3.75669,0.79999 17.36937,0.58607 18.24212,-0.28667 z m 12.47237,-5.41796 c 5.02537,-4.54012 7.85969,-9.92505 8.62497,-16.3866 l 0.58407,-4.93161 h -9.63929 c -6.97949,0 -9.63929,0.34059 -9.63929,1.23433 0,0.67888 0.75782,6.30388 1.68404,12.5 1.16291,7.77952 2.09036,11.26567 2.99711,11.26567 0.7222,0 3.14697,-1.6568 5.38839,-3.68179 z M 2788,196.99999 v -12 l -78.75,0.14983 c -43.3125,0.0824 -77.625,0.33198 -76.25,0.55461 23.2866,3.77037 150.2519,23.10524 152.25,23.18533 l 2.75,0.11023 z m -2551,-6.5 v -5.5 l -6.75,4.9e-4 -6.75,4.9e-4 -4.25,4.9351 c -2.3375,2.71431 -4.25,5.18909 -4.25,5.49951 0,0.31043 4.95,0.56441 11,0.56441 h 11 z M 86.621405,175.37023 c -0.944467,-6.31973 0.07199,-18.85045 1.916015,-23.62024 0.623232,-1.61207 -0.356515,-1.75 -12.430431,-1.75 H 63 v 16 16 h 12.306103 12.306103 z m 22.917455,-0.6678 c 0.0332,-6.22925 0.48435,-8.09438 3.08414,-12.74956 1.98426,-3.55303 4.7103,-6.58522 7.82415,-8.70288 l 4.77888,-3.25 h -10.47645 -10.47645 l -2.55061,5.75 c -3.693815,8.32721 -5.722515,15.92494 -5.722515,21.4315 v 4.8185 l 6.749995,-4.4e-4 6.75,-4.4e-4 0.0389,-7.29668 z m 28.3654,5.54756 c -0.0527,-0.9625 -0.84016,-5.125 -1.75,-9.25 -1.48878,-6.74975 -1.90434,-7.52575 -4.15426,-7.75739 -4.13688,-0.42592 -10.23943,3.74937 -12.75,8.7234 -1.2375,2.45177 -2.25,5.71242 -2.25,7.24588 v 2.78811 h 10.5 c 9.36981,0 10.48969,-0.18837 10.40426,-1.75 z M 163,181.20575 c 0,-0.43683 -1.46537,-3.24646 -3.25637,-6.24363 -3.57121,-5.97627 -11.97193,-11.96213 -16.78799,-11.96213 h -2.63284 l 1.80839,9.25 c 0.99461,5.0875 1.82198,9.3625 1.8386,9.5 0.0823,0.68113 19.03021,0.13925 19.03021,-0.54424 z m 60.06706,-4.98563 C 225.79105,170.76727 229,158.1928 229,152.97157 v -2.97158 h -38.19578 -38.19578 l 4.50519,2.85711 c 8.26972,5.2445 14.48014,14.9173 15.58902,24.28008 l 0.58014,4.89834 23.57335,-0.26777 23.57336,-0.26776 z M 237,178.96626 c 0,-2.39919 0.72217,-3.45981 3.45271,-5.07087 3.10263,-1.8306 9.54729,-9.97602 9.54729,-12.06684 0,-0.45571 0.675,-0.82856 1.5,-0.82856 1.2381,0 1.5,1.83333 1.5,10.5 v 10.5 h 91 91 v -16 -16 l -90.75,0.0796 -90.75,0.0796 -12,14.00352 c -16.631,19.4078 -15.78381,17.83728 -9.62197,17.83728 5.03706,0 5.12197,-0.0503 5.12197,-3.03373 z m 428,-12.96627 v -16 H 552 439 v 16 16 h 113 113 z m 190.99537,15.75 c -0.003,-0.1375 -1.11687,-2.95 -2.47627,-6.25 -3.32094,-8.06173 -3.31685,-12.93119 0.0127,-15.11279 2.32632,-1.52427 3.03645,-1.53293 8.75,-0.10672 3.42001,0.85369 7.10673,1.90173 8.1927,2.32898 2.22753,0.87635 2.65371,1.53961 -5.39186,-8.39131 l -3.41737,-4.21816 H 765.83264 670 v 16 16 h 93 c 51.15,0 92.99792,-0.1125 92.99537,-0.25 z M 1222,175.96787 c 0,-9.65369 3.161,-15.4186 12.1634,-22.18286 l 5.0374,-3.78502 h -184.1004 c -174.66905,0 -184.10013,0.0897 -184.09514,1.75 0.007,2.26505 2.17169,5.55761 9.24474,14.06037 3.1625,3.80175 5.75,7.42467 5.75,8.05095 0,1.75 -2.91239,1.35275 -5.60387,-0.76436 -3.86092,-3.03701 -11.67545,-4.55074 -15.08332,-2.92176 -2.97087,1.42011 -5.19011,7.09622 -3.99357,10.21433 0.565,1.47237 16.05553,1.61047 180.64936,1.61047 H 1222 Z m 230,-9.96788 v -16 h -94.5299 -94.53 l 2.28,3.08436 c 4.8834,6.60641 1.5581,16.82724 -8.0076,24.61237 l -5.2874,4.30327 H 1351.9625 1452 Z m 231.9954,15.75 c 0,-0.1375 -1.1169,-2.95 -2.4763,-6.25 -3.3209,-8.06173 -3.3168,-12.93119 0.013,-15.11279 2.3263,-1.52427 3.0364,-1.53293 8.75,-0.10672 3.42,0.85369 7.1067,1.90173 8.1927,2.32898 2.2275,0.87635 2.6537,1.53961 -5.3919,-8.39131 l -3.4176,-4.21816 H 1573.3326 1457 v 16 16 h 113.5 c 62.425,0 113.4979,-0.1125 113.4954,-0.25 z M 2051,165.99999 v -16 h -176 c -166.9544,0 -175.9997,0.0899 -175.9947,1.75 0.01,2.26505 2.1716,5.55761 9.2447,14.06037 3.1625,3.80175 5.75,7.42467 5.75,8.05095 0,1.75 -2.9124,1.35275 -5.6039,-0.76436 -3.8609,-3.03701 -11.6754,-4.55074 -15.0833,-2.92176 -2.9709,1.42011 -5.1901,7.09622 -3.9936,10.21433 0.565,1.4724 16.0959,1.61047 181.1494,1.61047 H 2051 Z m 54,0 v -16 h -24.5 -24.5 v 16 16 h 24.5 24.5 z m 14.6634,10.17886 c 10.0823,-7.48924 17.7049,-15.87672 19.6698,-21.64336 l 1.5454,-4.5355 H 2124.9393 2109 v 16 c 0,13.11988 0.2544,16 1.4134,16 0.7774,0 4.9399,-2.61951 9.25,-5.82114 z m 224.5227,1.07114 c 0.8623,-2.6125 3.3963,-9.8125 5.631,-16 l 4.0631,-11.25 h -103.7035 -103.7034 l -1.231,5.18239 c -1.2519,5.26987 -7.8199,17.39227 -10.7336,19.81037 -0.8811,0.73129 -2.5117,2.60708 -3.6235,4.16843 l -2.0214,2.83881 h 106.8772 106.8773 z M 2560,165.99999 v -16 h -100.5 c -55.275,0 -100.5,0.14218 -100.5,0.31595 0,0.17378 -2.025,7.2316 -4.5,15.68405 -2.475,8.45245 -4.5,15.51027 -4.5,15.68405 0,0.17377 47.25,0.31595 105,0.31595 h 105 z m 228,0 v -16 h -111.5299 -111.5299 l 0.2799,12.75 0.2799,12.75 20,3.12796 20,3.12796 91.25,0.12204 91.25,0.12204 z m 227.7754,-0.25 0.2754,-15.75 H 2904.0254 2792 v 16.00433 16.00433 l 111.75,-0.25433 111.75,-0.25433 z m 457.22,16 c 0,-0.1375 -1.1169,-2.95 -2.4763,-6.25 -3.3209,-8.06173 -3.3168,-12.93119 0.013,-15.11279 2.3263,-1.52427 3.0364,-1.53293 8.75,-0.10672 3.42,0.85369 7.1067,1.90173 8.1927,2.32898 2.2275,0.87635 2.6537,1.53961 -5.3919,-8.39131 l -3.4176,-4.21816 H 3363.3326 3248 v 3.28264 3.28265 l -38.25,5.79313 c -21.0375,3.18622 -58.05,8.86316 -82.25,12.61541 l -44,6.82227 194.75,0.10195 c 107.1125,0.0561 194.7479,-0.0106 194.7454,-0.14805 z M 3836,165.99999 v -16 h -174 c -165.0496,0 -173.9997,0.09 -173.9947,1.75 0.01,2.26505 2.1716,5.55761 9.2447,14.06037 3.1625,3.80175 5.75,7.42467 5.75,8.05095 0,1.75 -2.9124,1.35275 -5.6039,-0.76436 -3.8609,-3.03701 -11.6754,-4.55074 -15.0833,-2.92176 -2.9709,1.42011 -5.1901,7.09622 -3.9936,10.21433 0.565,1.4723 15.9346,1.61047 179.1494,1.61047 H 3836 Z m -737.5,-3.9856 c 40.15,-6.07181 73.675,-11.20677 74.5,-11.41103 0.825,-0.20425 -33.2625,-0.42357 -75.75,-0.48737 l -77.25,-0.116 v 12.07946 12.07945 l 2.75,-0.55243 c 1.5125,-0.30383 35.6,-5.52027 75.75,-11.59208 z M 94.634355,139.73937 c 2.2739,-3.98166 7.367785,-11.17688 11.319755,-15.98938 l 7.18541,-8.75 H 88.069759 63 v 16 16 l 13.75,-0.0106 13.75,-0.0106 4.134355,-7.23938 z m 34.281885,0.51062 c -0.99112,-3.7125 -2.30677,-8.70596 -2.92368,-11.09657 -1.1103,-4.30255 -1.14253,-4.32787 -3.18294,-2.5 -1.96745,1.76251 -13.68107,16.47711 -15.20191,19.09657 -0.56357,0.97067 1.93749,1.25 11.19241,1.25 h 11.91815 z m 96.84733,5.8576 c 0.95504,-0.49082 2.97496,-1.38164 4.48873,-1.97961 3.12797,-1.2356 6.73839,-6.52385 6.74396,-9.87799 0.004,-2.21158 -0.20626,-2.25 -12.29626,-2.25 -16.3916,0 -17.41313,-0.94299 -10.7,-9.87732 2.2,-2.92793 4,-5.72832 4,-6.22309 0,-0.51862 -17.92477,-0.89959 -42.32569,-0.89959 h -42.32568 l -2.08903,2.25 -2.08903,2.25 3.41471,12.42693 c 1.8781,6.83481 3.41472,13.02231 3.41472,13.75 0,1.07739 8.17294,1.32307 44.01357,1.32307 24.20746,0 44.79496,-0.40158 45.75,-0.8924 z M 435,130.99999 v -16 h -91 -91 v 5.9501 5.95009 l 5.74028,0.29991 c 4.52807,0.23657 5.81061,0.66946 6.07333,2.0499 0.2882,1.51441 -0.50219,1.75 -5.87113,1.75 h -6.20416 l 0.58513,3.60577 c 0.76824,4.73407 3.14371,8.23401 6.47944,9.54659 1.48341,0.58371 3.37211,1.43675 4.19711,1.89565 0.825,0.45891 39.6375,0.86084 86.25,0.89318 l 84.75,0.0588 z m 230,3.49571 v -12.50429 l -112.75,0.25429 -112.75,0.25429 -0.28078,12.25 -0.28078,12.25 H 551.96922 665 Z m 191.10359,8.96949 C 854.39662,141.52106 853,139.47371 853,138.91553 c 0,-2.44942 3.19134,-6.76381 8.00647,-10.82398 5.12987,-4.32557 8.98249,-9.40034 8.98979,-11.84156 0.003,-0.99169 -20.66093,-1.25 -99.99626,-1.25 H 670 v 16 16 h 94.60359 94.60359 z m 595.90201,-1.7152 c 0.011,-10.32501 3.072,-16.13803 12.0507,-22.88447 l 5.1445,-3.86553 H 1176.0862 882.97162 l 2.60281,3.93311 c 3.37069,5.09346 2.78256,6.7602 -4.69925,13.31739 C 874.6581,137.69925 871,142.55843 871,145.36802 c 0,1.50555 22.50411,1.63197 290.5,1.63197 H 1452 l 0.01,-5.25 z m 232.098,1.7152 c -1.707,-1.94413 -3.1036,-3.99148 -3.1036,-4.54966 0,-2.44942 3.1913,-6.76381 8.0065,-10.82398 5.1298,-4.32557 8.9825,-9.40034 8.9898,-11.84156 0,-0.9919 -21.167,-1.25 -102.5262,-1.25 h -102.53 l 2.28,3.08436 c 4.8834,6.60641 1.5581,16.82724 -8.0076,24.61237 l -5.2874,4.30327 h 102.641 102.6411 z m 366.6718,-12.2152 -0.2754,-15.75 -169.7661,-0.25288 -169.7661,-0.25288 2.6047,3.93598 c 3.3728,5.0966 2.7854,6.7623 -4.6973,13.32028 -6.2171,5.44876 -9.8752,10.30794 -9.8752,13.11753 0,1.50311 13.8988,1.63197 176.0254,1.63197 h 176.0254 z m 54.2246,-0.25 v -16 h -24.5 -24.5 v 16 16 h 24.5 24.5 z m 36,14.04922 c 0,-4.00813 -2.3299,-12.74389 -4.9505,-18.56117 -1.4895,-3.30658 -2.5225,-6.56908 -2.2955,-7.25 0.7625,-2.28756 4.7497,-1.34925 6.4248,1.51195 2.6628,4.54842 5.8212,16.13753 5.8212,21.35994 v 4.89927 l 104.6494,-0.2546 104.6494,-0.25461 1.3374,-3.86319 c 1.3129,-3.79222 1.2964,-3.85047 -0.8994,-3.17093 -1.2302,0.38074 -5.7024,0.93822 -9.9381,1.23885 -7.5625,0.53675 -7.7561,0.49169 -10.75,-2.50214 -2.5193,-2.51935 -3.0487,-3.85179 -3.0487,-7.67342 0,-6.16698 3.3602,-9.52917 9.5236,-9.52917 4.9435,0 6.3415,1.29927 8.4764,7.87786 2.1601,6.65613 4.7489,6.72036 9.6867,0.24034 3.7111,-4.87022 6.3133,-6.44677 6.3133,-3.82497 0,1.23777 -4.3497,16.84854 -5.6089,20.12998 -0.5485,1.42925 8.7621,1.57679 99.5019,1.57679 H 2560 V 130.996 114.992 l -225.5,0.0123 -225.5,0.0123 v 15.99166 15.99165 h 16 c 15.1988,0 16,-0.0977 16,-1.95078 z m 647,-12.46743 c 0,-7.93002 0.2731,-15.13002 0.607,-16 0.5513,-1.43659 -9.6839,-1.58179 -111.5,-1.58179 H 2565 v 16 16 h 111.5 111.5 z m 228,-1.58179 v -16 h -91.9012 -91.9012 l -1.9571,3.31688 c -2.1715,3.68047 -8.8657,9.44945 -14.2405,12.27224 -3.765,1.97735 -17.4026,2.60855 -21.75,1.00667 -2.2166,-0.81675 -2.25,-0.70865 -2.25,7.28758 v 8.11663 h 112 112 z m 201.2438,12.96851 c 11.1409,-1.66731 21.4937,-3.27807 23.0062,-3.57945 l 2.75,-0.54797 V 127.42053 114.99999 H 3131.5 3020 v 16 16 h 88.4938 88.4938 z m 255.8598,-0.50331 c -1.707,-1.94413 -3.1036,-3.99148 -3.1036,-4.54966 0,-2.44942 3.1913,-6.76381 8.0065,-10.82398 5.1298,-4.32557 8.9825,-9.40034 8.9898,-11.84156 0,-0.99305 -24.561,-1.25 -119.4963,-1.25 H 3248 v 16 16 h 114.1036 114.1036 z M 3836,130.99999 v -16 h -168.0142 -168.0142 l 2.6028,3.93311 c 3.3707,5.09346 2.7826,6.7602 -4.6992,13.31739 -6.2171,5.44876 -9.8752,10.30794 -9.8752,13.11753 0,1.50304 13.7466,1.63197 174,1.63197 h 174 z m -3599,-10 v -6 h -6.30927 -6.30928 l -4.69072,5.43325 c -2.5799,2.98828 -4.69073,5.68828 -4.69073,6 0,0.31171 4.95,0.56675 11,0.56675 h 11 z m -120.02655,-10.47174 2.32207,-2.47173 -2.73678,-11.77827 c -1.50523,-6.47804 -2.93227,-12.7986 -3.17119,-14.04568 L 112.95315,79.96515 88.226576,80.23257 63.5,80.49999 63.222087,95.45606 c -0.152853,8.22583 -0.05448,15.53833 0.218615,16.25 0.38815,1.0115 6.031265,1.29393 25.853599,1.29393 h 25.357069 z m 106.09321,-3.30813 C 225.90009,101.54905 229,89.13526 229,83.45968 v -3.48346 l -38.13986,0.26188 -38.13985,0.26189 -1.24363,4.21268 c -1.539,5.21327 -6.45132,14.11208 -11.58931,20.99441 -2.13804,2.8639 -3.88735,5.68129 -3.88735,6.26086 0,0.72582 13.13732,0.97258 42.21435,0.7929 l 42.21434,-0.26085 z M 237,109.96626 c 0,-2.39919 0.72217,-3.45981 3.45271,-5.07087 C 243.55534,103.06479 250,94.91937 250,92.82854 c 0,-0.4557 0.65926,-0.82855 1.46502,-0.82855 1.17286,0 1.52184,2.04402 1.75,10.25 l 0.28498,10.25 h 90.5 90.5 l 0.31061,-3.75412 0.31061,-3.75413 117.18939,0.25413 117.18939,0.25412 0.31037,3.75 0.31036,3.75 H 770.06037 870 v -2.06574 c 0,-2.55891 -1.42494,-5.33145 -5.24419,-10.20379 -2.71473,-3.46326 -3.14913,-6.73047 -0.89487,-6.73047 0.50804,0 4.2156,3.9375 8.23903,8.75 4.02344,4.8125 7.78439,9.08145 8.35768,9.48656 0.57329,0.40511 184.75485,0.73403 409.29235,0.73093 l 408.25,-0.006 v -2.04667 c 0,-2.54024 -1.4321,-5.32151 -5.2442,-10.18471 -2.7147,-3.4629 -3.1491,-6.73011 -0.8949,-6.73011 0.5081,0 4.2156,3.9375 8.2391,8.75 4.0234,4.8125 7.7844,9.08135 8.3577,9.48634 0.5732,0.40499 77.7673,0.62999 171.5423,0.5 l 170.5,-0.23634 v -16 -16 l -898,-0.20467 -898,-0.20468 -12.5,14.54738 c -17.20517,20.02321 -16.28941,18.36197 -10.12197,18.36197 5.03706,0 5.12197,-0.0503 5.12197,-3.03373 z m 1868.0608,-4.96627 c 0.763,-10.20309 2.9986,-14.10368 12.4471,-21.71647 l 3.9921,-3.21647 -32.75,-0.0335 -32.75,-0.0335 v 16.51778 16.51778 l 24.25,-0.26778 24.25,-0.26778 z m 455.1403,-7.75 c 0.1644,-8.6625 0.1598,-16.0875 -0.01,-16.5 -0.4041,-0.98076 -413.2008,-0.98076 -413.1592,0 0.017,0.4125 0.6925,1.62351 1.5,2.69113 2.0957,2.77074 1.8469,10.89628 -0.4729,15.44339 -1.8759,3.67702 -5.3153,7.19537 -11.5684,11.8338 l -2.9905,2.21832 213.2011,0.0317 213.2011,0.0317 0.2989,-15.75 z m 231.0555,13.05832 c 8.3227,-9.98577 16.8043,-14.67318 26.6967,-14.75408 9.9352,-0.0813 15.3358,4.37309 15.5478,12.82372 l 0.1034,4.12204 h 90.9478 90.9477 l 0.5,-15.83685 c 0.275,-8.71027 0.3125,-16.02277 0.083,-16.25 -0.2288,-0.22724 -92.9969,-0.41315 -206.1509,-0.41315 h -205.7345 l -1.9571,3.31688 c -2.1715,3.68047 -8.8657,9.44944 -14.2405,12.27224 -3.7794,1.98492 -17.917,2.68607 -21.25,1.05389 -1.5975,-0.78231 -1.75,-0.10694 -1.75,7.75 v 8.60699 h 112.0066 112.0066 z M 3243,96.49999 v -16.5 h -91.4012 -91.4012 l -1.9571,3.31688 c -2.1963,3.7226 -8.9574,9.5243 -14.2405,12.21984 -5.036,2.56947 -16.744,3.16416 -20.8179,1.05742 L 3020,94.94863 v 8.35901 c 0,4.59746 0.3,8.65902 0.6667,9.02568 0.3666,0.36667 50.5416,0.66667 111.5,0.66667 H 3243 Z m 244,14.43426 c 0,-2.55891 -1.4249,-5.33145 -5.2442,-10.20379 -2.7147,-3.46326 -3.1491,-6.73047 -0.8949,-6.73047 0.5081,0 4.2156,3.9375 8.2391,8.75 4.0234,4.8125 7.7844,9.08136 8.3577,9.48636 0.5732,0.405 76.8673,0.63 169.5423,0.5 l 168.5,-0.23636 v -16 -16 L 3541.75,80.24831 3248,79.99663 v 16.50168 16.50168 H 3367.5 3487 Z M 131.95847,91.9011 C 135.28131,86.9334 138,82.22341 138,81.43445 c 0,-1.13899 -1.84165,-1.43446 -8.94098,-1.43446 -4.91754,0 -9.17278,0.37505 -9.45608,0.83344 -0.56079,0.90738 2.81007,18.40777 3.87868,20.13681 1.02304,1.65533 2.00883,0.60066 8.47685,-9.06914 z M 243.75,80.28373 c -1.5125,-0.22912 -3.9875,-0.22912 -5.5,0 -1.5125,0.22913 -0.275,0.41659 2.75,0.41659 3.025,0 4.2625,-0.18746 2.75,-0.41659 z M 141.12804,75.24999 c 2.43415,-6.20646 3.28391,-16.2176 2.07854,-24.48762 -0.64648,-4.43551 -1.4252,-8.31433 -1.73048,-8.61961 -1.13608,-1.13608 -7.80394,3.43552 -12.49131,8.56425 -5.36998,5.87561 -8.84567,13.76262 -9.71403,22.04298 l -0.55057,5.25 h 10.66466 10.66465 z m -111.021308,545 C 14.121649,604.06759 6.9532318,591.16372 2.774532,571.04928 1.119854,563.08438 0.8821224,559.09419 1.341701,546.99999 2.036284,528.72146 4.2395668,518.96561 15.487228,484.36547 28.773286,443.4948 31.756794,427.91885 29.868246,409.28671 28.163744,392.47035 22.301277,380.57438 8.7499998,366.43413 3.9374998,361.41246 0,357.0527 0,356.74578 0,356.43885 3.19016,353.10799 7.0892448,349.34386 23.402503,333.59524 30.139636,317.89153 30.189653,295.49867 30.229695,277.57126 27.874498,267.16186 14.415368,225.78013 2.83542,190.17618 1.558162,183.81777 1.603397,161.99999 1.636887,145.8463 1.849733,143.81234 4.3700458,135.56163 9.8683158,117.56202 21.376609,99.87403 35.477618,87.74999 c 6.338167,-5.44956 9.683886,-6.91573 10.983338,-4.81318 0.318445,0.51526 -1.292208,2.42776 -3.579228,4.25 -10.95909,8.73196 -21.181406,24.37119 -24.745385,37.85825 -5.668702,21.45189 -3.219112,40.0561 11.383398,86.45493 11.345415,36.04956 14.11654,50.97476 13.18239,71 -1.227659,26.31713 -10.80281,46.77016 -31.312023,66.88414 l -7.5820702,7.43596 8.3958182,8.33995 c 19.83107,19.69911 29.318486,40.21795 30.520207,66.00737 0.9271,19.89593 -1.952107,35.49004 -13.078114,70.83258 -11.679443,37.10057 -13.994948,48.05163 -13.955111,66 0.03261,14.69081 1.594206,21.78742 7.371627,33.5 3.997067,8.10326 11.897388,18.12345 19.73658,25.03243 3.154352,2.78005 3.953152,4.00832 3,4.61293 -2.704343,1.71543 -4.394423,0.54199 -15.692313,-10.89536 z"
     id="path1240"
     inkscape:connector-curvature="0" />
</svg>
