<?xml version="1.0" standalone="no"?>
<!DOCTYPE svg PUBLIC "-//W3C//DTD SVG 20010904//EN"
 "http://www.w3.org/TR/2001/REC-SVG-20010904/DTD/svg10.dtd">
<svg version="1.0" xmlns="http://www.w3.org/2000/svg"
 width="989.000000pt" height="1280.000000pt" viewBox="0 0 989.000000 1280.000000"
 preserveAspectRatio="xMidYMid meet">
<g transform="translate(0.000000,1280.000000) scale(0.100000,-0.100000)"
fill="#000000" stroke="none">
<path d="M4755 12564 c-107 -12 -211 -45 -275 -88 -94 -62 -194 -221 -225
-361 -9 -38 -26 -97 -37 -130 -21 -61 -25 -112 -13 -198 5 -36 2 -64 -13 -110
-12 -34 -24 -87 -27 -118 -6 -49 -3 -63 25 -125 28 -62 32 -80 33 -169 3 -148
37 -264 97 -326 33 -35 57 -51 93 -59 47 -12 47 -13 47 -54 0 -32 -10 -56 -44
-107 -52 -78 -95 -105 -321 -201 -167 -71 -264 -98 -358 -98 -125 0 -261 -55
-354 -143 -52 -49 -176 -221 -257 -357 -63 -106 -142 -277 -184 -400 -22 -63
-53 -138 -70 -167 -105 -177 -368 -539 -459 -630 -94 -93 -127 -113 -195 -113
-73 0 -122 -24 -238 -115 -161 -128 -418 -287 -604 -374 -49 -22 -111 -54
-137 -71 -46 -28 -51 -29 -106 -19 -190 35 -600 39 -713 6 -74 -21 -81 -71
-11 -91 31 -9 43 -26 17 -26 -7 0 -20 -7 -27 -17 -8 -9 -38 -32 -68 -51 -45
-29 -58 -44 -86 -106 -28 -59 -31 -73 -20 -86 9 -11 11 -30 6 -68 -7 -47 -5
-55 12 -67 13 -9 26 -11 36 -5 12 6 18 1 26 -23 11 -35 44 -47 64 -24 6 8 14
37 17 64 9 72 41 105 113 114 40 6 68 4 99 -6 54 -19 98 -19 220 0 115 17 466
106 532 134 47 20 326 91 400 101 41 6 187 33 325 61 257 51 325 74 417 137
24 16 61 38 83 50 64 32 160 136 211 226 55 99 306 467 442 648 55 73 146 183
203 244 57 61 133 145 167 187 35 43 70 77 77 77 9 0 26 -38 45 -102 17 -57
47 -140 65 -186 19 -45 46 -137 60 -205 14 -67 36 -160 49 -207 13 -47 31
-122 40 -167 19 -96 83 -309 131 -440 44 -118 51 -177 30 -278 -9 -44 -20
-136 -25 -205 -18 -233 -19 -238 -50 -245 -44 -10 -57 -34 -65 -115 -4 -41
-14 -93 -22 -115 -28 -80 -49 -264 -42 -370 4 -55 7 -150 8 -212 1 -102 -2
-120 -30 -198 -17 -47 -53 -157 -79 -243 -26 -86 -72 -236 -103 -333 -71 -223
-199 -811 -227 -1043 -6 -49 -31 -173 -55 -275 -25 -102 -56 -257 -70 -345
-14 -87 -54 -298 -89 -470 -35 -171 -69 -351 -74 -401 -6 -49 -10 -229 -10
-400 1 -170 -2 -375 -6 -455 -6 -121 -4 -150 9 -174 8 -15 15 -37 15 -47 0
-21 16 -26 22 -7 3 7 8 -7 13 -32 8 -43 9 -42 20 55 14 118 13 114 25 94 5 -9
12 -53 16 -98 7 -86 23 -119 26 -54 0 21 5 -38 9 -132 4 -93 13 -199 19 -235
16 -91 24 -467 12 -638 -9 -139 -10 -143 -46 -202 -21 -33 -49 -89 -64 -125
-25 -60 -39 -77 -177 -203 -128 -117 -155 -146 -182 -202 -32 -66 -33 -78 -14
-155 9 -36 33 -65 53 -65 4 0 8 -7 8 -15 0 -20 43 -47 64 -39 11 4 16 1 16
-10 0 -21 37 -44 86 -52 55 -8 139 27 160 67 8 16 20 29 27 29 7 0 34 13 60
30 40 25 53 43 95 127 27 54 62 133 77 176 32 88 36 92 137 103 209 23 261
122 188 360 -59 192 -72 359 -50 649 5 66 14 188 20 270 12 168 33 288 60 355
11 25 24 72 31 105 19 98 31 101 26 5 l-5 -85 23 88 c36 136 45 132 20 -8 -8
-44 -14 -87 -14 -95 0 -30 31 68 55 171 49 221 113 847 91 896 -8 19 -6 35 11
76 52 130 158 481 291 968 27 97 74 226 142 385 56 131 114 274 130 317 29 77
77 159 103 174 7 4 41 42 74 84 33 41 94 105 135 142 l75 67 34 -28 c110 -88
328 -383 441 -597 41 -77 99 -209 130 -295 31 -85 101 -280 157 -433 55 -153
125 -337 155 -409 l55 -132 -12 -95 c-16 -120 -16 -493 0 -586 25 -146 86
-414 94 -409 4 3 8 1 8 -5 0 -6 7 -8 15 -5 9 4 15 0 15 -7 0 -11 3 -11 10 1 9
13 12 13 24 -2 7 -10 15 -15 18 -13 5 5 41 -108 52 -165 15 -69 46 -529 46
-672 0 -201 -9 -265 -56 -404 -66 -196 -50 -313 50 -367 38 -20 54 -22 241
-22 174 0 203 -2 225 -17 14 -10 68 -64 120 -120 52 -56 102 -109 111 -119 26
-26 124 -59 178 -59 35 0 53 -5 65 -19 23 -26 99 -51 150 -51 43 0 95 31 99
60 2 8 5 20 9 25 3 6 6 33 6 60 0 48 -11 77 -40 106 -8 8 -19 21 -24 30 -16
29 -128 121 -164 136 -78 32 -107 47 -145 77 -21 17 -55 38 -75 47 -36 16
-118 122 -201 258 -77 127 -108 476 -75 841 9 96 16 209 16 251 0 84 8 99 55
99 40 0 61 -23 71 -80 l8 -45 8 45 c17 97 24 251 17 365 -5 66 -4 198 1 295
34 645 34 649 -9 784 -10 34 -45 156 -76 271 -67 249 -191 685 -239 840 -19
61 -50 180 -70 265 -36 156 -148 505 -224 698 -23 57 -101 221 -175 365 l-134
262 -11 140 c-6 77 -16 203 -22 280 -6 77 -17 165 -25 195 -7 30 -16 91 -20
135 -6 78 -8 82 -41 104 l-34 24 0 176 c0 105 -6 216 -15 275 -20 135 -19 172
9 263 44 142 47 157 56 298 4 77 13 153 20 170 6 16 16 97 21 180 5 82 14 195
20 249 6 55 11 149 11 210 l1 110 22 -28 c70 -88 352 -613 390 -726 13 -41 32
-88 41 -105 53 -95 201 -305 282 -398 51 -60 143 -172 204 -250 61 -78 144
-180 183 -227 123 -146 361 -481 599 -842 20 -31 63 -81 95 -111 65 -60 88
-90 101 -136 7 -27 5 -33 -17 -51 -14 -11 -32 -20 -39 -20 -7 0 -20 -7 -28
-16 -47 -46 68 -159 141 -139 16 5 37 7 49 6 21 -2 52 24 41 35 -3 3 6 16 21
29 25 21 26 28 24 101 -1 64 1 74 9 54 6 -14 19 -44 30 -68 24 -53 24 -55 -3
-119 -19 -47 -25 -53 -50 -53 -16 0 -43 -7 -59 -16 -24 -12 -30 -21 -27 -42 3
-27 4 -27 68 -24 101 5 111 11 160 111 39 81 42 91 31 121 -17 51 -15 61 12
49 29 -14 67 -107 76 -189 11 -93 32 -126 67 -102 6 4 17 38 25 76 12 63 12
72 -8 130 -12 33 -24 74 -28 90 -3 16 -32 56 -64 90 -32 34 -75 84 -96 111
-36 48 -175 185 -233 228 -122 94 -201 170 -212 205 -13 38 -73 143 -165 287
-98 153 -306 573 -410 826 -94 230 -172 349 -313 476 -118 107 -215 265 -342
559 -72 164 -73 170 -100 346 -37 243 -93 406 -208 603 -72 125 -116 171 -199
211 -85 41 -168 57 -227 44 -157 -35 -249 -31 -416 18 -110 33 -157 61 -187
112 -72 121 -77 164 -42 328 22 103 75 252 89 252 52 0 179 233 187 344 3 34
1 71 -4 82 -7 12 -7 45 -1 94 12 92 -4 251 -34 348 -34 113 -71 172 -150 248
-63 60 -88 76 -178 113 -125 52 -193 61 -335 45z"/>
<path d="M5058 5582 c-4 -15 11 -37 61 -86 37 -36 70 -66 74 -66 14 0 -23 55
-77 113 -46 51 -54 56 -58 39z"/>
<path d="M3902 2330 c0 -14 2 -19 5 -12 2 6 2 18 0 25 -3 6 -5 1 -5 -13z"/>
</g>
</svg>
