<?xml version="1.0" standalone="no"?>
<!DOCTYPE svg PUBLIC "-//W3C//DTD SVG 20010904//EN"
 "http://www.w3.org/TR/2001/REC-SVG-20010904/DTD/svg10.dtd">
<svg version="1.0" xmlns="http://www.w3.org/2000/svg"
 width="640.000000pt" height="1280.000000pt" viewBox="0 0 640.000000 1280.000000"
 preserveAspectRatio="xMidYMid meet">
<g transform="translate(0.000000,1280.000000) scale(0.100000,-0.100000)"
fill="#000000" stroke="none">
<path d="M3885 12791 c-58 -16 -83 -30 -206 -113 -68 -47 -172 -107 -230 -135
-124 -59 -224 -125 -346 -227 -107 -89 -257 -244 -300 -309 -57 -87 -116 -264
-143 -428 l-12 -77 -34 14 c-18 8 -58 14 -87 14 -44 0 -62 -6 -95 -30 -49 -35
-57 -49 -70 -120 -7 -39 -6 -67 2 -101 16 -62 86 -168 146 -222 l47 -43 5 -90
c4 -83 6 -93 38 -136 44 -58 100 -95 158 -104 72 -11 254 4 399 33 l133 26 42
-29 c22 -16 64 -56 92 -89 99 -116 169 -179 239 -213 l67 -33 0 -77 c0 -41 -5
-102 -12 -133 l-12 -57 -71 -11 c-136 -20 -251 -89 -281 -167 -15 -41 -24 -48
-80 -74 -35 -15 -85 -49 -112 -74 -66 -62 -157 -96 -256 -96 -41 0 -89 6 -108
14 -60 26 -128 30 -184 11 -48 -15 -52 -20 -84 -86 -28 -58 -41 -72 -75 -89
-23 -11 -47 -30 -53 -43 -7 -13 -11 -70 -10 -142 2 -185 -33 -390 -107 -625
-70 -220 -87 -277 -105 -335 -10 -33 -34 -113 -54 -177 -20 -65 -36 -125 -36
-133 0 -8 -14 -28 -31 -43 -82 -71 -81 -70 -74 -115 4 -23 11 -46 16 -52 18
-19 8 -33 -46 -66 -50 -30 -60 -42 -100 -124 -25 -49 -53 -102 -62 -116 -16
-25 -16 -28 1 -53 9 -15 30 -29 46 -33 17 -3 30 -7 30 -8 0 -1 -13 -42 -29
-91 -47 -146 -87 -272 -227 -719 -56 -179 -61 -235 -25 -265 25 -21 81 -102
81 -118 0 -11 -25 -55 -55 -98 -99 -142 -155 -272 -155 -362 0 -18 -16 -79
-35 -135 -19 -56 -35 -116 -35 -134 0 -56 -21 -176 -41 -231 -21 -60 -26 -209
-9 -243 14 -25 62 -49 99 -49 26 0 35 7 61 53 26 45 30 62 30 130 0 42 4 77 9
77 5 0 15 -30 22 -66 30 -152 146 -228 194 -128 17 37 17 102 -1 149 -7 18 -6
18 20 -3 33 -26 88 -29 107 -6 7 9 13 43 13 80 1 52 4 65 19 70 21 7 47 54 47
87 0 25 -32 79 -81 135 -16 18 -29 35 -29 38 0 19 36 83 64 115 36 39 56 91
56 144 0 17 11 48 25 70 39 63 62 118 70 163 6 38 12 45 54 66 25 13 58 35 72
49 27 27 65 133 99 277 22 91 46 184 61 240 10 36 29 129 55 263 8 43 21 91
29 106 7 15 17 75 21 132 6 87 11 109 31 135 12 17 23 42 23 56 0 17 7 27 20
31 17 4 20 14 20 60 0 51 3 58 36 89 19 18 47 52 61 76 22 37 24 50 19 95 -7
51 -5 55 56 157 l63 105 3 -73 c2 -55 -4 -97 -24 -170 -45 -166 -53 -205 -54
-269 0 -34 -4 -65 -10 -68 -5 -3 -10 -17 -10 -29 0 -14 -10 -30 -25 -40 -27
-18 -44 -80 -28 -105 6 -9 11 -41 11 -70 2 -45 -4 -62 -29 -100 -25 -37 -29
-53 -25 -82 4 -28 1 -40 -13 -53 -11 -10 -36 -61 -57 -114 -21 -54 -52 -128
-71 -167 -18 -38 -33 -83 -33 -100 0 -16 -15 -93 -34 -170 -19 -77 -44 -183
-56 -235 -12 -52 -26 -108 -30 -125 -12 -42 -30 -257 -60 -730 -13 -192 -37
-455 -49 -530 -5 -27 -16 -99 -25 -160 -9 -60 -24 -144 -33 -185 -9 -41 -21
-103 -27 -138 -9 -50 -18 -69 -44 -93 -39 -36 -42 -80 -12 -140 12 -22 17 -45
13 -51 -3 -7 -33 -36 -65 -66 -39 -37 -72 -81 -103 -139 -43 -82 -44 -85 -30
-119 9 -23 13 -56 10 -97 -3 -34 -10 -147 -16 -252 -8 -132 -19 -222 -36 -295
-47 -202 -83 -366 -103 -460 -6 -30 -20 -93 -31 -140 -34 -144 -41 -176 -69
-322 -6 -32 -16 -60 -21 -63 -14 -9 -11 -52 6 -85 12 -24 25 -31 81 -43 36 -9
68 -18 71 -21 7 -7 5 -115 -3 -213 l-6 -72 -71 -48 c-78 -53 -138 -122 -175
-201 -25 -56 -51 -150 -52 -192 -1 -28 -87 -121 -298 -319 -73 -68 -143 -142
-157 -165 -13 -22 -43 -88 -66 -146 l-43 -105 0 -161 -1 -161 30 -39 c46 -60
75 -83 145 -117 57 -27 76 -30 155 -31 76 0 97 3 135 23 93 49 256 182 298
243 16 24 79 141 140 260 61 120 122 235 136 256 13 22 77 88 140 148 109 102
118 113 136 173 21 66 26 136 11 145 -5 3 -11 17 -14 31 -3 19 3 34 24 55 26
26 29 35 29 95 0 39 -9 98 -22 142 -19 66 -26 78 -51 87 -26 10 -28 14 -22 46
4 19 9 49 12 65 6 37 28 55 67 55 57 0 114 43 215 165 110 132 102 105 95 305
-6 180 9 698 25 875 5 55 16 145 25 200 8 55 17 188 21 295 3 107 8 223 11
256 5 60 7 63 49 90 50 31 80 83 70 121 -4 17 -1 29 9 37 10 7 21 46 30 106 7
52 20 120 28 150 18 66 35 154 68 365 33 203 84 421 165 700 39 135 191 583
223 660 l29 67 6 -39 c4 -21 7 -117 7 -213 0 -165 5 -215 40 -370 22 -100 100
-495 110 -560 7 -41 16 -97 20 -125 5 -27 4 -153 0 -280 -5 -126 -9 -292 -10
-368 0 -105 -4 -145 -16 -168 -14 -28 -14 -32 0 -48 15 -16 14 -19 -4 -36 -20
-18 -27 -50 -12 -59 5 -3 10 -97 11 -210 2 -193 -7 -347 -29 -461 -5 -27 -14
-104 -20 -170 -24 -263 -31 -336 -51 -485 -11 -85 -27 -178 -35 -206 -8 -28
-14 -56 -14 -62 0 -19 147 -121 217 -150 l66 -27 -36 -6 c-55 -9 -107 -40
-114 -69 -3 -14 -14 -36 -23 -50 -43 -64 -63 -158 -55 -265 12 -173 55 -243
190 -306 112 -53 131 -56 159 -30 13 13 30 19 39 15 19 -7 47 -85 47 -130 0
-43 46 -201 72 -244 12 -19 40 -55 62 -79 54 -57 240 -196 341 -254 95 -55
119 -63 315 -109 30 -7 104 -13 164 -13 l108 0 37 41 c81 91 112 196 100 334
-7 87 -37 146 -112 224 -64 65 -135 108 -236 141 -34 11 -65 30 -83 50 -15 18
-46 41 -67 51 -57 28 -116 108 -147 200 -9 27 -26 65 -38 84 -11 19 -28 64
-36 100 -15 65 -15 65 -61 79 -41 12 -48 19 -58 52 -7 22 -28 53 -54 76 -41
37 -42 39 -33 76 8 32 26 51 105 113 134 105 134 104 126 294 -4 85 -10 180
-15 210 -5 30 -14 96 -20 145 -25 209 -48 392 -61 475 -5 36 -16 115 -25 175
-9 61 -20 135 -25 165 -27 158 -19 285 27 403 19 50 20 43 -19 139 -9 22 -7
35 12 77 19 40 22 57 16 88 -5 21 -8 67 -8 103 1 36 1 117 0 180 -3 330 0 543
11 705 23 336 31 460 41 620 5 88 16 189 24 225 22 93 38 219 43 340 8 190 8
190 26 190 9 0 23 3 32 6 11 4 20 -10 36 -65 19 -60 21 -85 16 -164 -4 -50
-10 -166 -15 -257 -4 -91 -11 -175 -15 -187 -5 -13 -2 -32 7 -50 8 -15 19 -46
23 -68 8 -36 13 -41 55 -54 37 -12 48 -21 55 -46 8 -25 4 -37 -19 -71 -26 -36
-29 -52 -37 -161 -5 -79 -14 -132 -25 -153 -9 -18 -23 -50 -30 -71 -13 -35
-12 -40 7 -64 20 -26 20 -28 4 -103 -9 -45 -34 -113 -60 -162 -70 -137 -68
-166 13 -190 43 -12 76 1 129 53 71 69 92 114 92 196 0 69 14 121 33 121 5 0
6 -8 2 -17 -4 -10 -8 -52 -10 -93 -2 -41 -8 -86 -13 -100 -5 -14 -15 -49 -22
-77 -6 -29 -27 -88 -45 -130 -67 -160 -85 -229 -85 -323 0 -87 1 -89 34 -124
22 -24 42 -36 60 -36 18 0 26 -5 26 -18 0 -28 21 -42 63 -42 52 0 72 12 142
84 33 33 81 79 105 101 37 33 51 56 75 125 17 47 47 118 69 159 44 85 53 113
67 194 5 31 14 85 20 120 6 34 16 125 23 202 13 154 11 163 -58 368 l-27 78
21 26 c35 45 23 223 -16 223 -28 0 -12 26 43 70 92 75 105 109 84 231 -11 62
-25 220 -41 459 -15 227 -38 483 -50 555 -13 84 -2 193 24 228 17 24 19 32 9
58 -11 28 -10 31 22 52 18 12 41 34 50 50 16 27 16 30 0 47 -9 10 -31 22 -49
26 -34 7 -66 31 -66 49 0 7 -7 18 -15 25 -12 10 -15 45 -15 193 0 99 4 208 9
241 6 34 15 97 21 141 7 44 15 103 20 130 9 55 23 153 41 285 6 47 19 135 30
197 10 61 19 151 19 199 l0 87 -57 55 c-32 30 -86 82 -120 115 l-63 60 -97
-11 c-82 -10 -108 -10 -162 3 -73 18 -217 98 -226 126 -3 10 -22 28 -41 39
-19 12 -48 42 -65 66 -27 40 -44 51 -92 58 -19 2 -57 69 -57 98 0 10 -6 34
-14 53 -13 30 -22 36 -84 54 -38 12 -77 21 -86 21 -13 0 -16 11 -16 64 0 35 3
77 6 94 6 29 8 30 78 37 39 4 88 11 109 17 39 12 112 75 122 107 3 10 39 47
80 80 41 34 102 95 136 136 96 116 175 146 294 110 163 -50 321 -61 396 -28
52 24 150 118 174 170 27 56 16 141 -29 231 -37 74 -38 83 -5 112 3 3 38 43
78 89 64 75 72 89 69 120 -6 74 -119 105 -217 61 -24 -11 -44 -20 -45 -20 -1
0 -2 44 -2 98 0 68 -5 112 -17 147 -20 56 -152 303 -204 381 -45 70 -213 236
-348 347 -86 70 -115 100 -131 136 -39 86 -107 145 -199 173 -117 35 -401 58
-470 39z m-354 -1081 c22 -13 25 -52 5 -70 -8 -6 -25 -10 -38 -8 -30 4 -38 56
-12 75 21 16 20 16 45 3z m-119 -54 c-3 -39 1 -61 13 -80 17 -25 17 -26 -6
-26 -13 0 -60 9 -104 20 -107 27 -115 30 -115 40 0 12 63 49 129 76 83 35 87
34 83 -30z m307 -5 c12 -21 1 -38 -41 -64 -37 -23 -39 -22 -26 14 6 17 8 46 5
65 l-6 34 29 -15 c16 -8 34 -24 39 -34z m733 -40 c-2 -27 1 -59 8 -71 16 -30
11 -32 -38 -10 -36 16 -42 23 -42 49 0 21 9 37 33 55 17 14 34 26 37 26 3 0 3
-22 2 -49z m113 -1 c0 -32 -3 -35 -33 -38 -37 -4 -48 13 -38 54 6 21 11 25 39
22 29 -3 32 -6 32 -38z m204 -34 c42 -44 36 -53 -43 -62 l-58 -7 16 31 c9 17
16 45 16 62 0 26 3 29 18 21 9 -5 33 -25 51 -45z m-1149 14 c0 -5 -4 -10 -10
-10 -5 0 -10 5 -10 10 0 6 5 10 10 10 6 0 10 -4 10 -10z m1037 -66 c-9 -9 -28
6 -21 18 4 6 10 6 17 -1 6 -6 8 -13 4 -17z"/>
</g>
</svg>
