<?xml version="1.0" standalone="no"?>
<!DOCTYPE svg PUBLIC "-//W3C//DTD SVG 20010904//EN"
 "http://www.w3.org/TR/2001/REC-SVG-20010904/DTD/svg10.dtd">
<svg version="1.0" xmlns="http://www.w3.org/2000/svg"
 width="1179.000000pt" height="1280.000000pt" viewBox="0 0 1179.000000 1280.000000"
 preserveAspectRatio="xMidYMid meet">
<g transform="translate(0.000000,1280.000000) scale(0.100000,-0.100000)"
fill="#000000" stroke="none">
<path d="M7384 12765 c-139 -51 -155 -53 -195 -17 -33 30 -33 30 -44 8 -9 -19
-20 -21 -104 -24 -83 -2 -98 -6 -123 -27 -44 -38 -167 -62 -182 -36 -3 5 19
30 50 56 30 26 53 50 50 52 -3 3 -49 -4 -103 -16 -54 -11 -143 -28 -198 -36
-143 -23 -167 -30 -295 -90 -68 -32 -146 -61 -192 -70 -97 -20 -188 -58 -348
-146 -69 -37 -136 -70 -150 -71 -27 -3 -28 1 -15 60 7 28 5 32 -14 32 -35 0
-81 -28 -81 -49 0 -23 -19 -28 -146 -40 -114 -10 -170 -35 -289 -129 -135
-108 -179 -128 -370 -167 -195 -39 -272 -72 -386 -162 -94 -75 -132 -95 -163
-87 -45 11 -229 -101 -348 -213 -59 -55 -72 -63 -106 -63 -54 0 -97 -17 -109
-43 -15 -32 -66 -92 -248 -287 -410 -440 -594 -686 -775 -1034 -45 -86 -84
-156 -86 -156 -13 0 -327 204 -407 264 -259 195 -552 481 -685 668 -167 237
-199 237 -188 -2 10 -219 49 -491 88 -619 11 -36 60 -143 109 -237 49 -94 96
-199 105 -235 9 -35 37 -98 62 -139 66 -110 113 -218 119 -276 5 -45 3 -53
-18 -68 -14 -10 -43 -16 -74 -16 -95 0 -345 67 -561 150 -60 23 -198 73 -306
110 -180 62 -205 74 -277 128 -86 65 -237 160 -306 194 -36 18 -46 19 -59 8
-61 -50 34 -202 390 -621 367 -432 527 -575 873 -784 86 -51 214 -134 286
-184 119 -84 186 -122 257 -150 17 -6 28 -18 28 -29 0 -25 34 -54 100 -87 30
-15 73 -42 95 -60 22 -17 59 -44 82 -58 28 -18 45 -38 55 -64 19 -56 16 -347
-6 -498 -39 -259 -129 -527 -205 -608 -25 -27 -26 -34 -31 -170 -5 -148 -15
-187 -49 -187 -20 0 -60 33 -86 73 -31 48 -38 33 -33 -65 9 -158 64 -268 136
-268 l27 0 -40 -35 -40 -34 95 -1 c107 0 194 -19 255 -55 45 -26 60 -50 71
-110 l7 -40 23 53 c13 28 28 52 33 52 4 0 14 -20 21 -45 15 -54 68 -105 108
-105 38 0 69 -24 77 -60 9 -42 -19 -119 -61 -169 -38 -43 -156 -137 -234 -186
-57 -35 -104 -79 -140 -130 -47 -67 -208 -513 -270 -748 -39 -144 -78 -247
-194 -510 -103 -234 -111 -335 -34 -442 37 -52 136 -129 194 -151 44 -17 45
-17 147 14 56 17 194 55 307 84 188 48 215 52 320 53 104 0 120 -3 172 -27 86
-40 94 -59 101 -231 3 -78 10 -157 17 -175 19 -52 31 -56 365 -117 138 -25
215 -71 189 -113 -8 -12 -26 -17 -65 -18 -80 -2 -81 -2 -77 -25 3 -24 18 -35
62 -44 26 -6 28 -9 23 -43 -2 -20 -24 -80 -48 -132 -58 -129 -62 -179 -20
-265 36 -72 124 -196 211 -295 31 -36 65 -78 75 -94 18 -28 18 -29 0 -42 -10
-8 -26 -14 -36 -14 -9 0 -22 -7 -29 -15 -11 -13 -5 -32 33 -113 56 -116 58
-148 21 -277 -53 -188 -156 -350 -259 -410 -27 -16 -76 -31 -134 -40 -154 -25
-316 -101 -343 -161 -26 -55 31 -70 202 -50 57 6 72 6 64 -3 -27 -29 -444
-191 -511 -199 -68 -8 -167 -110 -150 -155 11 -30 103 -42 320 -42 114 0 207
-2 207 -5 0 -3 -39 -32 -86 -64 -99 -69 -146 -119 -142 -149 3 -20 9 -22 58
-21 30 0 136 8 235 18 99 9 216 16 260 14 l80 -3 -3 -68 c-2 -53 1 -69 13 -73
21 -8 74 28 172 119 138 127 163 133 243 52 35 -35 63 -55 77 -55 13 0 49 13
80 30 31 16 62 30 70 30 9 0 48 -32 88 -71 41 -39 78 -68 84 -64 6 3 20 24 31
45 24 46 49 62 92 58 35 -3 44 -16 53 -71 8 -47 41 -72 85 -62 17 4 63 31 102
61 64 48 77 54 120 54 39 0 68 10 153 55 58 30 112 55 120 55 28 0 28 -29 1
-91 -42 -97 -47 -179 -11 -193 21 -8 78 45 127 116 57 85 86 100 173 93 163
-15 397 74 505 191 41 45 42 47 35 99 -7 58 13 125 38 125 28 0 39 -45 113
-465 20 -116 39 -215 41 -222 4 -9 118 -11 466 -10 365 2 475 -1 525 -12 54
-12 73 -12 135 0 58 11 220 14 832 13 747 0 989 -8 1020 -34 10 -9 19 -4 36
19 32 43 46 45 99 11 51 -33 70 -37 70 -17 0 48 105 64 125 20 14 -32 52 -37
147 -18 70 13 225 17 1028 23 l944 7 68 115 c85 142 120 245 122 355 1 68 -3
87 -25 130 -30 58 -44 126 -59 285 -22 238 -53 339 -200 650 -78 167 -104 227
-172 410 -30 80 -116 233 -231 409 -55 85 -100 160 -101 165 -1 6 54 121 122
256 157 314 160 325 172 660 17 466 61 714 165 925 29 61 59 135 65 166 6 30
15 167 20 305 10 289 20 339 101 515 93 204 134 329 174 525 43 212 55 365 65
839 11 508 31 910 70 1395 34 413 34 420 22 553 -7 73 -21 173 -32 222 -58
265 -60 332 -21 495 35 144 33 152 -54 235 -52 50 -75 79 -75 96 -1 31 -26 62
-68 83 -38 20 -52 50 -41 88 4 16 3 30 -2 33 -5 4 -40 -4 -78 -16 -93 -30
-101 -26 -101 58 0 84 13 133 45 172 27 31 32 51 13 51 -7 0 -56 -14 -110 -32
-69 -23 -101 -29 -108 -22 -8 8 -6 45 6 127 21 136 16 151 -65 191 -107 55
-140 134 -101 241 12 33 29 80 37 104 11 30 28 52 59 74 79 56 28 60 -127 11
-112 -35 -113 -34 -106 79 8 114 38 208 78 241 16 14 29 27 29 30 0 14 -75 4
-147 -19 -81 -26 -133 -32 -133 -16 0 20 -31 39 -75 45 -25 4 -45 10 -45 14 0
4 14 25 30 46 17 22 30 43 30 48 0 15 -34 8 -128 -24 -66 -22 -96 -28 -104
-20 -7 7 -7 34 1 91 11 86 9 104 -21 137 -10 11 -32 56 -48 98 -35 89 -91 180
-128 204 -24 16 -26 15 -56 -21 -65 -77 -109 -21 -46 58 40 51 38 62 -12 70
-77 12 -192 46 -210 62 -10 9 -18 26 -18 39 0 32 -58 77 -175 134 -96 47 -195
80 -241 80 -25 0 -64 43 -64 70 0 35 -26 43 -132 41 -117 -2 -155 8 -223 59
-76 57 -109 64 -224 50 -104 -14 -131 -8 -160 32 -23 33 -62 40 -226 42 -167
2 -205 10 -205 45 0 10 -9 26 -20 36 -19 17 -28 18 -158 6 -152 -15 -197 -10
-205 20 -7 26 -33 24 -143 -11 -171 -55 -284 -60 -284 -13 0 9 26 41 57 70 31
29 50 53 42 52 -8 0 -55 -15 -105 -34z m-5934 -2255 c7 -69 60 -172 137 -265
64 -78 116 -106 190 -104 93 4 124 -17 233 -151 44 -54 80 -101 80 -103 0 -7
-171 23 -191 33 -20 11 -25 35 -9 45 6 3 10 19 10 34 0 21 -12 40 -46 70 -57
54 -74 45 -74 -38 0 -97 75 -224 213 -359 l63 -63 73 61 c75 62 100 75 81 41
-15 -29 -12 -51 14 -107 28 -61 67 -91 135 -104 27 -5 94 -32 148 -60 76 -38
115 -52 171 -59 54 -7 84 -17 118 -40 26 -17 65 -32 90 -36 24 -3 64 -7 88
-10 50 -7 81 -34 72 -63 -4 -11 -25 -32 -49 -47 -37 -25 -39 -29 -22 -36 11
-4 50 -8 86 -8 83 -1 204 -24 299 -56 118 -40 214 -56 395 -65 249 -12 272
-27 185 -115 -44 -44 -52 -58 -46 -78 8 -32 61 -58 186 -92 152 -40 173 -37
300 51 147 101 227 126 264 85 9 -10 20 -46 24 -83 10 -85 32 -118 75 -118 25
0 42 9 68 36 57 59 81 68 179 61 108 -8 129 -3 137 35 6 33 38 59 60 51 12 -5
14 -17 9 -57 -11 -85 43 -124 58 -42 9 49 66 86 66 43 0 -7 -21 -48 -47 -91
-49 -82 -48 -95 4 -96 43 0 53 -36 63 -222 6 -110 18 -214 34 -288 25 -119 61
-230 76 -230 4 0 11 24 15 53 13 111 45 217 65 217 6 0 10 -44 11 -107 2 -127
9 -168 29 -168 11 0 17 18 22 75 10 97 33 160 59 160 11 0 56 -25 100 -55 124
-85 167 -73 154 43 l-7 57 29 -45 c43 -66 146 -157 192 -170 39 -10 61 -40 61
-83 0 -34 33 -80 87 -123 86 -69 141 -135 190 -227 53 -102 102 -170 187 -267
81 -92 142 -195 162 -270 19 -74 27 -88 106 -189 67 -83 102 -148 112 -205 6
-32 24 -56 101 -131 51 -50 102 -109 113 -131 26 -50 40 -62 75 -62 34 1 80
-41 109 -96 40 -78 33 -257 -13 -348 -11 -21 -67 -91 -126 -155 -167 -185
-314 -364 -334 -408 -10 -22 -19 -58 -21 -80 l-3 -40 50 -3 c77 -5 131 15 189
70 56 53 84 65 114 49 30 -16 33 -14 20 13 -16 38 -5 52 71 91 124 62 241 192
241 267 0 25 21 50 52 61 10 3 20 19 23 34 11 53 47 111 117 189 107 119 168
262 168 391 -1 62 -12 86 -47 97 -17 5 -31 -2 -63 -30 -33 -30 -45 -36 -58
-28 -28 18 -25 34 12 68 20 18 36 38 36 45 0 6 -35 49 -78 95 -90 96 -131 162
-183 291 -98 243 -119 448 -66 638 38 139 89 251 150 331 67 88 106 155 107
182 0 29 47 92 144 195 104 110 165 189 181 236 10 29 24 44 60 63 101 55 285
235 285 280 0 13 14 27 39 39 96 49 383 306 480 429 77 97 102 140 148 252 87
210 143 239 213 109 74 -139 85 -225 50 -394 -32 -154 -41 -221 -49 -368 -18
-319 28 -609 109 -682 37 -34 52 -75 58 -161 6 -103 11 -113 47 -90 15 10 33
15 40 12 19 -7 49 -110 70 -234 13 -78 16 -144 13 -280 -4 -170 -13 -222 -38
-222 -5 0 -25 34 -44 75 -44 95 -72 135 -96 135 -33 0 -40 -33 -40 -188 0
-275 -50 -358 -234 -387 -93 -15 -193 -166 -242 -365 -25 -103 -45 -150 -64
-150 -13 0 -13 102 1 174 6 32 9 60 6 62 -9 10 -146 -139 -167 -180 -12 -25
-26 -47 -31 -47 -5 -1 -15 -2 -21 -3 -22 -2 -56 -87 -77 -191 -25 -130 -44
-326 -36 -376 9 -50 40 -89 71 -89 25 0 37 17 48 72 4 15 26 50 51 78 45 51
52 67 57 130 3 31 7 35 33 38 54 7 58 15 50 134 -9 131 -1 136 74 51 28 -31
53 -54 56 -52 2 3 7 37 11 77 9 91 29 124 96 156 29 14 89 53 133 86 59 45 86
59 102 56 26 -7 63 46 154 218 33 64 65 119 71 122 34 21 32 -93 -5 -205 -29
-92 -131 -288 -212 -412 -72 -108 -147 -190 -205 -224 -26 -15 -39 -32 -49
-65 -27 -86 -243 -267 -439 -367 -75 -38 -104 -48 -155 -50 -79 -5 -107 10
-121 62 -8 27 -20 44 -38 52 -23 12 -68 92 -68 122 0 19 -62 81 -81 81 -31 0
-42 -37 -36 -119 6 -89 37 -179 78 -226 68 -77 76 -145 83 -725 6 -467 16
-612 45 -669 25 -48 38 -125 51 -292 16 -220 40 -334 95 -468 19 -44 30 -94
35 -157 5 -53 20 -131 35 -179 27 -85 161 -372 170 -363 2 2 0 95 -6 207 -6
112 -8 219 -4 239 l7 37 12 -25 c22 -43 42 -202 66 -545 19 -259 45 -330 109
-295 17 9 23 6 36 -20 13 -25 20 -29 40 -24 20 5 27 1 35 -21 5 -14 10 -42 10
-61 0 -55 24 -100 69 -128 44 -28 57 -59 46 -103 -4 -16 -56 -76 -128 -148
-116 -114 -134 -127 -252 -182 -16 -7 -82 -57 -145 -110 -126 -105 -178 -141
-222 -154 -47 -13 -45 12 16 139 33 68 56 131 56 150 0 43 -41 123 -80 156
-76 63 -139 46 -290 -79 -68 -56 -151 -105 -178 -105 -25 0 -37 32 -22 60 8
15 21 20 50 20 34 0 41 4 46 25 4 14 3 45 0 67 -18 112 -69 81 -116 -71 -43
-136 -44 -138 -133 -142 -61 -4 -80 -9 -109 -31 -49 -37 -128 -59 -244 -65
-122 -7 -179 1 -224 30 -27 17 -50 22 -100 22 -77 0 -122 25 -140 79 -14 42
-44 56 -128 57 -96 0 -146 11 -150 31 -8 43 155 306 262 425 73 80 119 99 241
96 l90 -1 -35 16 c-26 13 -36 24 -38 45 -4 34 50 152 113 247 37 56 55 72 102
96 82 40 237 194 252 250 6 23 18 45 27 48 35 13 75 5 100 -19 14 -14 26 -25
27 -25 1 0 0 23 -1 50 -5 68 13 110 113 260 123 185 172 304 220 543 74 368
84 582 47 942 -12 116 -29 305 -37 421 -8 116 -22 249 -30 295 -35 188 -116
397 -181 465 -56 60 -81 39 -91 -74 -7 -90 24 -217 83 -341 105 -219 133 -377
72 -397 -34 -10 -54 24 -61 103 -12 124 -59 264 -94 277 -20 8 -43 -11 -43
-35 0 -12 11 -21 33 -27 l32 -8 -32 -32 c-17 -18 -40 -32 -51 -32 -38 0 -75
66 -87 158 -7 52 -28 87 -46 76 -35 -21 -67 -151 -79 -321 -7 -109 -12 -130
-34 -161 -38 -55 -55 -211 -62 -547 -7 -325 -5 -335 56 -335 35 0 40 -3 46
-27 9 -32 -4 -432 -15 -488 l-8 -40 -12 30 c-7 17 -19 59 -27 94 -17 74 -39
120 -57 122 -6 1 -28 1 -48 0 -23 -2 -42 4 -53 14 -15 15 -16 12 -16 -41 0
-32 5 -121 11 -197 15 -177 10 -191 -59 -181 l-49 6 -6 -103 c-12 -217 -72
-533 -111 -591 -30 -45 -81 -52 -96 -13 -6 15 -7 31 -4 36 9 14 -7 259 -16
259 -5 0 -18 -30 -30 -66 -14 -41 -26 -62 -32 -56 -19 19 -39 175 -32 247 6
66 38 192 53 207 3 4 6 -48 6 -116 0 -69 3 -127 7 -131 18 -19 109 85 134 155
19 51 31 294 19 357 l-8 38 -19 -62 c-14 -48 -23 -63 -37 -63 -28 0 -42 49
-50 185 -8 116 -28 195 -50 195 -17 0 -40 -55 -47 -113 -6 -46 -3 -61 15 -90
25 -41 26 -58 6 -97 -47 -91 -89 47 -67 216 12 92 7 135 -19 141 -22 6 -46 55
-55 113 -11 69 -52 105 -159 141 -53 18 -121 33 -166 36 -73 5 -76 5 -97 -22
-25 -32 -27 -53 -10 -142 19 -106 -11 -105 -140 6 -202 173 -529 374 -610 374
-42 0 -198 -24 -212 -33 -19 -12 -5 -39 25 -50 15 -6 47 -10 73 -10 91 -1 178
-45 532 -273 91 -58 198 -126 237 -152 53 -33 80 -58 100 -93 57 -99 73 -75
73 110 0 117 2 140 16 145 22 8 44 -17 55 -63 5 -21 13 -160 19 -309 9 -282
20 -357 57 -398 27 -29 39 -54 47 -100 5 -27 14 -40 31 -47 27 -10 39 -42 59
-161 25 -145 38 -382 34 -592 -5 -199 -18 -281 -40 -259 -10 10 -15 58 -38
362 -10 137 -24 210 -39 210 -17 0 -21 -33 -14 -135 7 -116 4 -121 -47 -79
-41 35 -60 74 -60 127 0 23 -5 48 -12 55 -16 16 -120 15 -142 -1 -10 -7 -21
-28 -25 -47 -3 -18 -12 -35 -19 -38 -18 -6 -15 79 4 128 18 45 35 50 84 23 30
-18 31 -18 50 5 23 27 57 117 66 170 5 32 2 43 -22 72 -25 29 -29 43 -34 122
-5 89 -16 113 -46 101 -19 -7 -41 -72 -59 -172 -39 -228 -153 -509 -202 -499
-42 8 -41 85 3 137 40 48 65 165 71 336 l5 150 -26 -27 c-32 -34 -50 -35 -70
-6 -36 50 -9 133 70 221 52 58 61 96 45 186 -29 157 -75 274 -117 293 -48 22
-58 -34 -24 -130 34 -95 41 -140 30 -181 -12 -44 -45 -80 -60 -65 -16 16 -69
178 -76 234 -4 28 -10 53 -15 55 -4 3 -20 -10 -36 -30 -34 -43 -43 -44 -43 -6
0 41 15 77 50 119 33 40 32 47 -10 55 -22 5 -31 13 -35 34 -10 47 -24 73 -41
80 -25 9 -43 -21 -35 -60 10 -46 -4 -101 -47 -176 l-37 -66 0 -152 c0 -141 -1
-153 -22 -182 -33 -44 -30 -53 15 -44 20 4 53 8 72 8 l35 0 -3 -45 c-3 -34 2
-52 17 -72 26 -33 27 -64 2 -78 -36 -19 -50 -12 -56 28 -4 20 -9 44 -11 53 -5
20 -46 39 -83 39 -54 0 -66 31 -91 235 -18 149 -74 241 -121 199 -10 -9 -19
-23 -19 -29 0 -7 -8 -23 -18 -35 l-19 -23 -24 34 c-13 18 -31 63 -39 98 -12
48 -23 70 -43 85 -68 51 -80 -32 -28 -198 17 -54 31 -117 31 -140 0 -84 -78
-341 -120 -396 l-19 -25 -23 23 c-14 12 -27 22 -31 22 -3 0 -9 -21 -13 -47 -9
-66 -22 -87 -109 -183 -42 -47 -95 -111 -117 -143 -23 -31 -43 -56 -45 -54 -6
7 28 91 62 153 36 63 37 94 5 94 -23 0 -43 -26 -64 -82 -10 -27 -21 -48 -25
-48 -5 0 -18 22 -29 50 -12 27 -25 50 -31 50 -6 0 -15 -19 -21 -42 -41 -160
-48 -172 -81 -142 -27 24 -45 12 -86 -57 -72 -122 -83 -140 -98 -145 -9 -4
-25 2 -35 11 -27 25 -51 13 -138 -69 -38 -36 -77 -66 -86 -66 -9 0 -34 18 -56
41 -40 42 -56 45 -74 16 -8 -13 -3 -24 28 -56 70 -71 11 -103 -65 -34 -35 31
-40 41 -37 72 l3 36 -46 -2 c-87 -2 -149 -52 -149 -118 0 -30 -16 -65 -39 -82
-23 -18 -114 -16 -163 4 -66 25 -173 99 -219 151 -39 44 -131 174 -126 178 1
0 40 -5 87 -12 121 -18 134 -17 170 13 18 14 84 46 148 70 140 53 216 94 302
164 36 28 88 62 115 75 28 13 61 37 73 53 14 20 67 53 151 96 300 152 386 237
531 520 74 146 77 175 29 264 -44 84 -78 111 -137 111 -26 0 -65 -5 -87 -11
-59 -16 -189 -81 -280 -139 -109 -70 -185 -108 -242 -120 -26 -6 -93 -32 -148
-57 -55 -25 -143 -63 -195 -85 -114 -46 -202 -98 -290 -168 -116 -93 -216
-130 -349 -130 -88 0 -153 26 -176 71 -47 90 31 150 235 179 101 15 135 26
202 67 46 29 64 34 95 31 40 -5 80 9 103 37 19 23 94 59 165 80 84 24 128 48
159 89 25 34 29 35 71 29 38 -5 50 -1 91 26 39 26 57 31 104 31 115 0 226 54
232 112 l3 33 106 -4 c102 -3 106 -2 137 24 25 21 39 26 62 21 37 -7 58 23 42
60 -32 70 -244 55 -445 -31 -136 -57 -220 -82 -353 -105 -148 -25 -184 -35
-230 -66 -25 -18 -61 -29 -107 -36 -79 -11 -177 -45 -325 -113 -175 -80 -274
-83 -297 -7 -15 52 -44 55 -420 50 -336 -4 -375 -3 -375 11 0 26 255 114 393
136 121 20 180 18 247 -5 80 -28 119 -26 169 10 71 52 99 121 67 165 -16 22
-104 33 -278 34 -146 1 -246 -14 -358 -56 -222 -82 -371 -188 -389 -277 -5
-20 -21 -42 -48 -62 -51 -39 -237 -113 -303 -121 l-48 -6 -7 47 c-10 62 6 97
76 171 31 33 64 75 73 92 19 38 31 129 46 339 18 266 55 382 153 470 57 51 69
45 47 -22 -7 -19 -10 -38 -7 -40 9 -9 87 96 87 116 0 11 -11 30 -25 44 -56 56
-17 205 69 268 30 22 49 28 71 25 42 -7 88 15 174 81 92 70 145 136 165 206
13 42 27 64 63 95 25 23 57 44 71 48 51 12 154 -9 352 -73 317 -102 390 -124
464 -140 76 -16 67 -18 186 51 36 20 175 89 310 152 423 198 457 227 489 421
7 42 18 73 35 93 45 54 60 150 29 188 -16 19 -22 20 -56 10 -22 -6 -41 -8 -44
-5 -3 3 11 24 31 48 49 57 47 92 -6 96 -47 4 -57 18 -65 83 -8 76 -20 95 -118
187 -158 150 -244 200 -380 220 -126 20 -461 34 -663 30 l-197 -5 -125 -40
c-69 -23 -139 -44 -157 -48 -67 -14 -146 -99 -228 -249 -53 -96 -71 -118 -116
-145 -44 -27 -88 -27 -130 2 -68 46 -102 136 -63 168 26 21 48 -2 64 -70 l15
-63 18 39 c16 38 28 47 88 71 48 19 89 147 89 278 0 28 3 54 6 57 4 4 25 -9
46 -29 29 -26 45 -33 61 -29 33 10 74 59 86 102 18 64 11 163 -11 163 -19 0
-40 -73 -34 -119 6 -42 -4 -71 -26 -71 -21 0 -39 77 -47 198 -8 125 -22 181
-49 190 -15 5 -39 -49 -48 -108 -6 -34 -3 -47 16 -72 22 -30 23 -34 9 -87 -8
-30 -19 -56 -26 -58 -7 -3 -22 15 -34 38 -19 37 -21 53 -16 128 3 47 9 100 12
116 6 23 -1 17 -31 -30 -21 -33 -46 -71 -56 -84 -17 -23 -18 -23 -18 -3 0 12
20 82 45 155 55 163 72 271 85 537 11 231 32 402 60 493 34 107 22 196 -31
246 -12 11 -31 21 -41 21 -54 0 -260 145 -397 279 -66 65 -81 85 -81 110 0 21
-10 41 -35 65 -44 45 -75 95 -75 123 0 34 -51 163 -123 313 -36 74 -71 155
-78 180 -17 59 -37 88 -134 190 -125 131 -198 265 -220 401 -5 34 -37 89 -120
203 -20 27 -34 56 -33 65 4 22 67 52 103 49 29 -3 30 -6 35 -58z m232 -158
c23 -17 66 -51 93 -76 l50 -45 -77 -1 c-42 0 -88 4 -103 10 -23 9 -25 14 -19
45 6 32 2 39 -32 71 l-39 36 42 -5 c23 -3 60 -18 85 -35z m8678 -38 c21 -21
22 -27 10 -34 -19 -12 -27 -12 -51 0 -19 10 -26 40 -12 53 12 13 30 7 53 -19z
m154 -271 c30 -29 29 -47 0 -51 -26 -4 -74 34 -74 59 0 28 42 24 74 -8z
m-1356 -125 c2 -9 -10 -31 -27 -50 -25 -27 -33 -31 -48 -22 -25 15 -28 52 -7
75 22 25 77 23 82 -3z m-8155 -652 c75 -22 108 -55 162 -157 53 -99 86 -129
143 -129 55 0 119 -21 143 -46 16 -18 33 -24 63 -24 48 0 71 -17 116 -83 47
-72 119 -109 134 -71 11 28 -12 52 -55 59 l-41 7 5 39 c7 53 62 169 81 169 16
0 31 -59 42 -170 9 -85 32 -128 109 -205 76 -76 136 -111 165 -95 25 13 25 22
0 45 -24 22 -26 62 -4 93 23 33 39 27 62 -25 36 -85 37 -108 7 -164 -30 -58
-44 -142 -26 -154 7 -4 33 10 63 36 65 54 119 74 156 57 61 -30 89 -140 72
-288 -11 -97 -31 -150 -56 -150 -8 0 -44 27 -79 60 -35 33 -73 60 -83 60 -18
0 -67 31 -366 233 -70 48 -167 108 -215 133 -180 97 -374 243 -580 440 -156
149 -206 210 -221 273 -19 80 -13 85 78 78 42 -3 99 -13 125 -21z m9362 -20
c16 -12 17 -18 8 -39 -7 -14 -24 -34 -39 -43 -26 -17 -27 -17 -44 4 -23 28
-15 58 19 77 33 18 33 18 56 1z m715 -45 c0 -24 -56 -74 -120 -106 -53 -27
-70 -31 -70 -15 0 17 64 83 109 112 53 33 81 36 81 9z m-9629 -32 l24 -13 -25
-7 c-40 -11 -181 -10 -225 2 -37 11 -38 12 -20 26 16 12 41 14 121 10 56 -3
112 -11 125 -18z m230 -17 c43 -38 32 -52 -41 -52 -34 0 -62 5 -66 12 -7 11
47 68 66 68 5 0 24 -13 41 -28z m-146 -86 c30 -22 12 -46 -35 -46 -44 0 -61
19 -40 45 16 19 50 19 75 1z m408 -135 c53 -20 34 -71 -27 -71 -64 0 -88 48
-34 70 30 12 32 12 61 1z m2367 -105 c0 -21 -40 -46 -73 -46 -38 0 -31 20 14
42 41 22 59 23 59 4z m3875 -31 c0 -5 -21 -11 -47 -13 -45 -3 -64 9 -35 22 20
8 82 2 82 -9z m-2737 -69 c0 -27 12 -71 32 -115 33 -76 42 -143 22 -163 -19
-19 -47 15 -75 91 -56 149 -56 231 -2 231 21 0 23 -4 23 -44z m230 -81 c49
-44 91 -120 76 -135 -9 -9 -17 -3 -33 19 -29 40 -41 39 -41 -3 0 -66 -20 -141
-42 -157 -20 -15 -20 -22 -14 -108 4 -50 4 -91 -1 -91 -12 0 -69 97 -83 143
-11 35 -10 40 8 58 27 25 40 72 53 193 5 55 12 103 15 108 9 15 23 8 62 -27z
m173 -271 c20 -21 24 -36 24 -84 0 -86 -18 -96 -45 -23 -45 118 -35 167 21
107z m1789 -44 c0 -55 -15 -76 -22 -30 -6 40 2 91 13 84 5 -3 9 -27 9 -54z
m-4332 -1762 c-6 -16 -41 -22 -76 -13 -20 5 -23 8 -11 16 22 14 91 11 87 -3z
m492 -24 c229 -57 439 -134 474 -173 24 -26 11 -27 -45 -2 -24 11 -93 27 -154
36 -231 36 -502 129 -480 165 11 17 59 11 205 -26z m-574 -158 c38 -13 92 -34
119 -46 112 -49 411 -167 585 -231 102 -37 185 -72 185 -77 0 -17 -158 -185
-203 -215 -22 -16 -59 -31 -81 -34 -23 -3 -41 -8 -41 -11 0 -4 12 -16 27 -28
17 -13 24 -26 20 -37 -7 -20 -198 -113 -249 -122 -74 -14 -70 12 17 105 74 79
85 98 85 150 0 33 -7 55 -25 79 -74 101 -346 234 -539 265 -81 12 -81 12 -78
41 2 17 -5 39 -17 56 -33 45 -25 75 29 112 34 23 84 21 166 -7z m5593 -150
c19 -23 -13 -46 -64 -46 -60 0 -65 16 -13 40 52 23 62 24 77 6z m1 -156 c8
-14 8 -26 -1 -41 l-11 -21 -24 23 c-13 12 -24 31 -24 41 0 25 46 24 60 -2z
m-6365 -95 c30 -29 32 -60 6 -75 -25 -13 -27 -13 -45 6 -9 8 -16 30 -16 48 0
53 17 60 55 21z m129 -36 c21 -17 24 -24 15 -35 -16 -20 -43 -17 -64 6 -19 21
-14 50 8 50 8 0 26 -9 41 -21z m6705 -121 c11 -17 17 -84 23 -268 4 -135 14
-285 22 -335 8 -49 26 -164 40 -255 37 -240 44 -268 82 -337 22 -40 37 -82 40
-115 7 -69 22 -106 44 -113 23 -7 36 -49 44 -140 15 -159 88 -341 178 -442 45
-51 58 -75 77 -139 28 -95 48 -137 96 -194 46 -55 76 -115 103 -205 19 -63 59
-125 81 -125 5 0 15 -15 22 -32 11 -25 14 -88 13 -258 -1 -203 -18 -532 -29
-570 -3 -8 -105 -65 -228 -127 l-224 -112 -6 167 c-5 157 -17 232 -38 232 -15
0 -37 54 -63 160 -27 108 -61 174 -96 185 -26 8 -46 47 -55 107 -7 43 -15 60
-58 120 -9 14 -21 58 -26 99 -8 61 -14 77 -35 94 -33 26 -43 81 -50 258 -3 88
-10 144 -18 154 -9 11 -23 13 -54 8 -31 -4 -43 -2 -47 8 -3 8 2 60 10 115 10
62 13 121 9 154 -8 59 -39 122 -59 115 -22 -7 -26 -104 -36 -852 -5 -407 -13
-753 -18 -770 -8 -27 -10 -28 -18 -10 -5 11 -10 377 -11 830 -3 967 -7 1065
-41 1023 -19 -22 -41 -112 -54 -215 -17 -140 -28 -147 -29 -18 -1 156 -17 408
-30 455 -10 38 -23 50 -34 32 -13 -21 -27 -203 -35 -457 -9 -274 -19 -354 -37
-310 -10 22 -12 417 -4 720 5 180 4 192 -16 230 -12 22 -32 49 -44 60 -26 23
-70 106 -70 132 0 11 -3 13 -9 8 -21 -21 -56 -384 -66 -690 -4 -99 -9 -191
-12 -204 -5 -22 -6 -22 -17 -5 -15 27 -21 672 -7 832 15 170 44 303 81 379 33
68 65 96 120 108 154 33 433 284 511 460 19 43 43 75 57 75 4 0 14 -10 21 -22z
m-1305 -300 c33 -58 41 -107 22 -133 -15 -20 -15 -20 -16 0 0 18 -20 106 -36
158 -9 30 4 19 30 -25z m1596 -453 c0 -51 -39 -82 -68 -53 -19 19 -14 47 12
73 32 32 56 23 56 -20z m-1760 -85 c48 -42 47 -52 -9 -67 -32 -8 -53 7 -64 47
-18 70 8 77 73 20z m-48 -167 c61 -68 73 -116 43 -186 -21 -51 -19 -101 10
-197 44 -147 28 -186 -28 -72 -39 76 -64 148 -75 213 -7 37 -11 44 -30 42 -19
-2 -22 2 -22 35 0 67 45 192 68 192 5 0 20 -12 34 -27z m338 -269 c0 -62 -13
-76 -34 -36 -23 45 -30 100 -15 118 22 27 49 -17 49 -82z m-90 -50 c5 -21 10
-66 10 -99 2 -81 10 -100 46 -100 22 0 30 -5 32 -22 6 -43 -77 -54 -111 -15
-22 24 -43 237 -28 276 11 26 13 28 27 14 9 -8 20 -33 24 -54z m630 -99 c0
-41 -4 -77 -10 -80 -6 -4 -10 25 -10 80 0 55 4 84 10 80 6 -3 10 -39 10 -80z
m-920 -182 c0 -126 -10 -162 -34 -130 -18 23 -29 99 -21 140 8 43 36 107 47
107 4 0 8 -53 8 -117z m708 -16 c-2 -17 -7 -32 -13 -32 -12 0 -19 60 -10 83 6
16 7 15 16 -1 6 -9 9 -32 7 -50z m212 -87 c0 -38 -4 -72 -10 -75 -6 -4 -10 23
-10 75 0 52 4 79 10 75 6 -3 10 -37 10 -75z m-590 -15 c26 -32 -13 -81 -47
-59 -35 22 -23 74 17 74 10 0 23 -7 30 -15z m-247 -237 c5 -72 -3 -172 -16
-184 -11 -11 -35 16 -48 53 -6 19 -8 53 -5 74 7 41 45 129 57 129 3 0 9 -33
12 -72z m78 45 c11 -31 4 -93 -11 -93 -6 0 -10 27 -10 60 0 66 5 74 21 33z
m129 -33 c0 -49 -13 -73 -24 -44 -14 36 -3 109 15 98 5 -3 9 -27 9 -54z
m-1321 -119 c6 -74 11 -179 11 -234 0 -97 -1 -100 -19 -83 -45 41 -68 215 -46
359 25 165 38 155 54 -42z m169 55 c5 -21 -60 -152 -95 -193 l-24 -28 5 73 c4
40 12 88 20 106 24 58 86 85 94 42z m816 -55 c7 -44 -2 -101 -15 -101 -5 0 -9
32 -9 70 0 76 14 94 24 31z m1225 -316 c29 -554 39 -1036 22 -1005 -37 66 -61
436 -61 961 0 334 8 458 21 329 4 -36 12 -164 18 -285z m-4165 289 c23 -9 20
-70 -5 -110 -41 -67 -154 -107 -193 -68 -21 21 -21 23 14 76 50 76 133 122
184 102z m4036 -181 c0 -77 -16 -118 -45 -118 -31 0 -31 49 0 122 15 34 31 63
36 63 5 0 9 -30 9 -67z m-132 -36 c-2 -17 -7 -32 -13 -32 -12 0 -19 60 -10 83
6 16 7 15 16 -1 6 -9 9 -32 7 -50z m-2625 8 c-3 -51 -29 -121 -60 -162 -43
-58 -60 -34 -38 52 22 82 62 157 83 153 13 -3 16 -13 15 -43z m-1589 19 c25
-10 19 -27 -21 -66 -78 -74 -179 -101 -217 -59 -17 18 -17 20 3 40 26 26 73
50 141 72 62 20 72 22 94 13z m2574 -187 c-2 -17 -7 -32 -13 -32 -12 0 -19 60
-10 83 6 16 7 15 16 -1 6 -9 9 -32 7 -50z m-930 -55 c0 -29 12 -77 32 -127 67
-169 44 -318 -78 -510 -14 -22 -46 -74 -70 -115 l-43 -75 3 98 c2 53 1 97 -2
97 -3 0 -41 -41 -84 -91 -81 -92 -142 -147 -152 -136 -15 15 11 60 72 126 74
79 143 126 173 116 13 -4 25 2 41 22 21 26 22 35 15 125 -6 91 -5 102 24 186
38 109 38 138 5 188 -38 55 -34 113 12 159 27 26 52 -4 52 -63z m-2025 48 c17
-13 29 -37 36 -70 16 -74 9 -84 -53 -76 -28 4 -70 10 -93 13 -54 7 -84 -11
-113 -71 -24 -50 -78 -103 -115 -112 -29 -7 -128 43 -133 67 -4 22 52 95 98
125 29 19 52 26 85 26 49 -1 65 14 65 62 0 31 12 39 75 47 94 12 121 10 148
-11z m4723 -84 c8 -32 2 -58 -13 -64 -9 -2 -13 10 -13 42 0 49 16 62 26 22z
m-4456 -30 c0 -17 -17 -42 -52 -76 -28 -27 -53 -48 -55 -46 -8 7 59 116 80
131 27 19 27 19 27 -9z m4841 -204 c17 -176 18 -507 3 -522 -15 -15 -21 10
-34 132 -18 172 -9 629 11 555 4 -16 13 -90 20 -165z m-3437 132 c30 -11 17
-43 -33 -81 -28 -21 -50 -41 -50 -44 -1 -12 67 -20 151 -18 75 2 83 0 101 -22
14 -17 18 -34 14 -59 -5 -36 -47 -144 -53 -137 -2 2 3 38 11 81 18 94 18 86 1
86 -36 0 -106 -84 -106 -128 0 -28 -26 -46 -72 -51 -13 -2 -36 -45 -43 -81
l-7 -35 25 28 c14 15 30 27 36 27 11 0 41 -28 41 -39 0 -4 -25 -55 -55 -115
-30 -59 -55 -114 -55 -122 0 -8 -4 -14 -9 -14 -14 0 -24 220 -18 400 9 260 44
354 121 324z m-1688 -116 l45 -42 -33 -17 c-65 -35 -98 -17 -98 54 0 61 23 63
86 5z m2826 -25 c27 -47 58 -163 58 -218 0 -97 -26 -78 -61 44 -45 157 -44
253 3 174z m-1384 4 c21 -24 42 -131 42 -206 0 -55 -5 -86 -21 -117 -20 -41
-89 -114 -109 -114 -17 0 -40 58 -40 103 0 29 11 68 31 111 20 44 34 93 40
142 4 41 11 79 14 84 9 14 31 12 43 -3z m-1647 -127 c25 -14 24 -32 -2 -56
-22 -20 -43 -13 -63 20 -9 13 -7 20 8 32 24 17 31 17 57 4z m-191 -98 c0 -19
-29 -52 -45 -52 -30 0 -24 62 7 73 20 6 38 -3 38 -21z m5704 -239 c16 -33 38
-137 66 -320 11 -72 23 -139 27 -150 11 -27 20 25 22 122 2 104 16 128 25 43
10 -91 34 -200 47 -212 7 -8 15 -5 25 8 10 15 13 45 12 116 -3 78 0 101 15
123 10 15 22 25 27 22 6 -4 10 -46 10 -94 0 -79 -3 -94 -32 -151 -43 -83 -86
-117 -167 -131 -36 -7 -72 -20 -82 -30 -11 -11 -21 -19 -23 -19 -1 0 3 33 10
73 31 173 9 365 -48 424 -26 27 -29 35 -18 48 7 8 18 15 25 15 7 0 18 6 24 14
10 11 5 20 -24 41 -42 33 -44 45 -7 67 38 24 49 22 66 -9z m-3339 -104 c0 -28
-36 -39 -61 -19 -20 18 -18 25 14 37 37 15 47 11 47 -18z m3191 -24 c3 -14 4
-38 1 -53 -10 -50 -48 -142 -59 -142 -14 0 -5 168 11 198 16 30 39 28 47 -3z
m-2910 -11 c-16 -61 -71 -103 -99 -75 -8 8 2 23 38 56 57 52 70 56 61 19z
m144 -38 c0 -8 -12 -28 -26 -45 -44 -52 -61 -34 -24 27 20 33 50 44 50 18z
m120 -5 c0 -20 -43 -71 -59 -71 -11 0 -2 30 19 71 14 24 40 25 40 0z m4224
-47 c19 -7 20 -33 5 -85 -14 -46 -1 -69 40 -69 55 0 64 -25 44 -121 -17 -85
-69 -203 -112 -258 -30 -38 -75 -66 -122 -75 -14 -3 -30 -16 -36 -29 -14 -30
-75 -47 -163 -47 -95 0 -123 -18 -166 -107 -34 -73 -36 -75 -50 -54 -21 29
-56 26 -93 -8 -23 -22 -31 -38 -31 -64 0 -51 -13 -53 -45 -7 -30 44 -45 44
-45 -1 0 -35 -6 -36 -37 -7 -17 16 -39 23 -83 26 -86 6 -119 -3 -175 -49 -52
-44 -351 -194 -445 -225 -30 -10 -80 -23 -110 -29 -45 -9 -57 -16 -68 -39 -15
-29 -15 -29 -77 -45 -28 -8 -45 -20 -57 -40 -12 -22 -27 -32 -55 -37 -53 -9
-68 -19 -92 -57 -22 -37 -70 -66 -149 -92 -35 -11 -58 -26 -69 -43 -23 -37
-43 -52 -70 -52 -38 0 -95 -34 -184 -110 -46 -38 -101 -77 -123 -86 -28 -10
-46 -25 -56 -47 -11 -23 -24 -33 -48 -38 -45 -9 -125 -52 -247 -132 -159 -104
-295 -166 -325 -147 -33 20 322 360 440 420 26 13 46 34 58 57 13 28 26 39 51
46 49 12 95 46 266 195 157 138 232 187 277 184 23 -2 29 3 33 25 13 58 24 72
64 83 22 6 67 32 101 58 96 74 122 92 136 92 7 0 26 -14 43 -32 l30 -32 -6 42
c-5 41 -4 44 49 95 29 28 93 81 142 116 48 35 96 77 107 95 17 28 24 31 67 31
78 0 266 102 283 153 3 8 27 18 54 23 37 7 56 17 73 40 40 50 255 147 364 163
61 9 72 24 64 86 -8 63 11 113 53 134 24 13 35 14 56 4 14 -6 25 -15 25 -19 0
-16 61 -40 93 -37 27 2 33 8 35 31 2 19 14 35 35 48 36 21 172 68 229 78 3 0
13 -2 22 -5z m-5356 -32 c4 -24 -41 -76 -61 -69 -23 7 -19 46 8 73 29 29 49
28 53 -4z m246 -87 c-1 -59 -37 -175 -54 -175 -15 0 -22 96 -11 155 12 64 26
87 50 83 13 -3 16 -16 15 -63z m154 33 c3 -28 -36 -116 -62 -137 -14 -12 -16
-9 -16 20 0 99 68 200 78 117z m148 -13 c7 -30 -10 -55 -38 -55 -29 0 -33 28
-8 56 30 30 38 30 46 -1z m-1980 -109 c6 -35 0 -56 -15 -56 -12 0 -19 34 -14
64 7 36 21 32 29 -8z m124 -32 c0 -58 -15 -74 -22 -24 -6 40 2 91 13 84 5 -3
9 -30 9 -60z m4328 -575 c4 -57 -17 -82 -40 -47 -34 52 -26 102 15 96 18 -2
22 -11 25 -49z m-1661 -127 c17 -9 42 -25 56 -35 14 -10 103 -38 199 -62 198
-49 224 -58 256 -87 35 -33 27 -60 -38 -138 -33 -39 -60 -76 -60 -81 0 -5 -29
-76 -64 -159 -70 -162 -109 -275 -132 -385 -25 -119 -54 -203 -79 -234 -40
-47 -93 -54 -413 -55 l-284 -1 -45 100 c-77 170 -113 266 -138 365 -13 52 -37
123 -53 158 -17 35 -28 72 -25 83 3 11 26 31 52 46 98 55 149 93 223 165 49
49 101 88 144 109 67 34 94 59 152 143 21 30 47 54 75 66 53 25 132 26 174 2z
m3972 -51 c21 -13 6 -40 -26 -46 -15 -4 -38 -8 -51 -11 -15 -3 -29 -17 -38
-39 -11 -26 -20 -35 -39 -35 -29 0 -39 14 -31 45 7 27 58 61 119 81 52 16 49
16 66 5z m289 -123 c7 -7 12 -29 12 -49 0 -106 14 -116 115 -74 103 42 132 30
171 -71 21 -54 14 -64 -59 -88 -119 -40 -290 -54 -363 -31 -17 5 -23 2 -28
-20 -7 -27 -39 -45 -80 -45 -12 0 -32 -11 -44 -24 -20 -24 -23 -25 -174 -23
-130 1 -165 -2 -231 -21 -107 -31 -142 -29 -161 6 -11 20 -15 22 -16 9 0 -29
-45 -67 -79 -67 -18 0 -38 -9 -51 -22 -20 -22 -31 -23 -193 -29 -171 -5 -173
-5 -292 -48 -66 -24 -205 -65 -310 -91 -313 -79 -638 -189 -826 -279 -131 -62
-368 -108 -419 -81 -52 28 7 118 91 139 72 18 131 45 140 63 5 10 13 26 17 35
7 13 32 20 103 29 161 20 249 52 329 119 39 33 47 35 86 29 34 -5 50 -2 77 15
38 23 199 69 459 131 97 23 201 54 230 67 35 17 69 25 98 24 36 -1 64 8 132
44 164 86 344 101 356 30 2 -11 7 -24 12 -28 10 -11 67 18 103 51 l28 26 -22
17 c-15 11 -19 22 -14 37 10 34 39 26 86 -23 24 -25 49 -45 57 -45 8 0 34 18
59 40 45 39 59 44 116 40 27 -2 28 0 21 34 -11 63 41 94 63 36 8 -20 18 -30
33 -30 30 0 70 44 70 78 0 15 6 37 14 48 15 19 15 19 36 -2 12 -11 28 -47 36
-80 27 -104 51 -123 108 -85 44 29 56 58 49 118 -4 40 -2 59 11 78 18 28 27
30 44 13z m-2878 -78 c42 -23 44 -47 5 -99 -53 -74 -330 -338 -536 -513 -214
-182 -279 -246 -312 -308 -28 -54 -76 -75 -141 -62 -33 6 -42 12 -44 32 -7 48
17 98 68 141 37 31 50 49 50 69 0 29 20 55 77 96 68 50 104 88 129 136 26 51
73 92 117 103 31 8 77 58 77 84 0 29 28 58 62 65 22 4 50 24 83 60 43 46 56
54 98 59 67 9 85 21 97 68 18 65 109 102 170 69z m-4736 -706 c24 -9 19 -22
-14 -39 -59 -31 -115 -10 -70 27 23 18 55 23 84 12z m7695 -116 c19 -7 22 -11
12 -21 -14 -14 -283 -17 -315 -4 -84 34 214 59 303 25z m-450 -106 c16 -30 -9
-67 -44 -67 -33 0 -63 40 -52 68 9 25 83 23 96 -1z m133 -12 c11 -15 20 -45
21 -70 2 -39 -1 -45 -20 -48 -28 -4 -79 23 -93 48 -13 25 -7 49 21 79 25 27
46 24 71 -9z m191 16 c6 -14 -26 -50 -53 -58 -38 -13 -66 32 -38 60 17 17 85
15 91 -2z m294 -2 c2 -7 -6 -24 -19 -39 l-23 -26 -24 25 c-33 35 -22 58 26 54
20 -2 38 -8 40 -14z"/>
<path d="M3613 8868 c-45 -50 -41 -117 10 -149 34 -20 97 -26 97 -9 0 6 -5 10
-10 10 -18 0 -50 64 -50 101 0 19 -6 43 -13 53 -12 16 -14 16 -34 -6z"/>
<path d="M8974 8659 c-54 -105 -67 -161 -67 -284 0 -130 13 -235 44 -359 26
-100 52 -152 87 -170 15 -8 33 -25 39 -38 6 -12 34 -71 62 -131 48 -100 121
-197 148 -197 17 0 75 44 97 73 17 23 21 43 21 109 l0 80 -48 42 c-41 36 -47
46 -42 68 8 32 -8 64 -76 148 -90 112 -125 210 -189 535 -33 166 -44 184 -76
124z"/>
<path d="M3217 8483 c-27 -26 17 -139 59 -149 54 -14 56 43 3 115 -28 39 -47
49 -62 34z"/>
<path d="M8681 8229 c-119 -24 -218 -69 -231 -105 -5 -13 -18 -27 -27 -30 -59
-17 -114 -58 -196 -144 -200 -211 -329 -448 -352 -646 -14 -121 41 -280 121
-354 54 -50 84 -52 129 -7 54 54 66 112 75 357 7 203 9 220 37 301 39 112 106
213 218 324 95 95 178 148 250 160 75 12 84 15 105 37 26 28 25 51 -2 82 -27
30 -66 38 -127 25z"/>
<path d="M4882 8085 c-66 -72 -98 -131 -82 -150 12 -15 35 -10 62 13 18 15 81
169 75 185 -1 5 -26 -16 -55 -48z"/>
<path d="M3198 8103 c-15 -16 -30 -40 -33 -55 -9 -34 9 -90 36 -114 20 -18 21
-18 35 1 22 29 17 195 -5 195 -4 0 -19 -12 -33 -27z"/>
<path d="M3529 8076 c-49 -17 -90 -44 -174 -111 -38 -31 -98 -69 -132 -86 -34
-16 -71 -41 -82 -55 -47 -59 -34 -162 26 -215 38 -32 56 -32 103 2 15 11 55
23 99 28 86 11 112 31 159 120 48 89 122 270 122 295 0 38 -52 47 -121 22z"/>
<path d="M4287 7857 c-31 -62 -49 -77 -92 -74 -37 3 -40 -12 -13 -53 34 -50
75 -77 96 -64 28 18 43 81 40 168 l-3 81 -28 -58z"/>
<path d="M8709 7879 c-83 -7 -200 -39 -236 -64 -13 -9 -23 -26 -23 -38 0 -27
-8 -38 -42 -60 -41 -26 -96 -147 -109 -242 -13 -92 -5 -256 16 -360 8 -38 31
-102 50 -141 40 -80 44 -129 20 -230 -19 -80 -51 -152 -107 -239 -56 -87 -75
-140 -58 -160 15 -18 96 -20 152 -3 22 6 66 34 97 62 32 28 72 59 89 68 37 20
56 77 72 213 16 144 4 183 -85 295 -103 127 -121 188 -86 293 30 90 101 186
241 327 139 140 184 213 157 254 -19 28 -47 33 -148 25z"/>
<path d="M4555 7861 c-44 -11 -71 -27 -94 -57 -26 -33 -27 -56 -1 -79 18 -16
25 -17 60 -6 70 21 166 110 142 133 -12 11 -76 17 -107 9z"/>
<path d="M5052 7823 c3 -50 21 -66 26 -24 5 31 -6 71 -19 71 -6 0 -9 -19 -7
-47z"/>
<path d="M4812 7818 c3 -38 0 -44 -25 -56 -29 -14 -62 -66 -52 -82 12 -19 70
-10 120 19 56 32 128 106 122 124 -4 15 -78 35 -130 36 l-39 1 4 -42z"/>
<path d="M5516 7636 c-20 -43 -21 -108 0 -147 13 -25 14 -54 9 -167 -6 -127
-5 -139 14 -170 27 -41 77 -72 119 -72 33 0 45 9 107 82 10 12 23 17 33 13
106 -43 208 34 232 172 8 50 8 82 0 116 -20 91 -62 127 -147 127 -55 0 -107
-22 -192 -79 -33 -23 -70 -42 -83 -44 -21 -2 -24 5 -43 95 -11 53 -23 99 -26
103 -4 3 -14 -10 -23 -29z m442 -208 c30 -30 0 -75 -43 -64 -19 5 -25 13 -25
35 0 38 41 56 68 29z"/>
<path d="M8886 7600 c-47 -36 -54 -37 -58 -8 -5 34 -24 32 -68 -8 -104 -94
-194 -399 -112 -377 23 6 62 -38 97 -107 28 -55 77 -100 109 -100 35 0 69 32
112 106 23 40 52 75 72 87 17 10 35 30 38 44 11 42 -15 130 -51 177 -48 63
-64 98 -73 157 -4 29 -12 54 -17 55 -6 2 -28 -10 -49 -26z"/>
<path d="M4442 7503 c-62 -58 -255 -276 -273 -310 -10 -18 -10 -26 -1 -35 21
-21 80 20 141 96 31 38 84 102 118 142 60 70 103 131 103 147 0 21 -42 2 -88
-40z"/>
<path d="M4145 7445 c-33 -73 -42 -134 -24 -146 20 -13 73 -11 87 3 15 15 16
110 1 161 -14 53 -36 47 -64 -18z"/>
<path d="M6265 7330 c-97 -80 -117 -126 -72 -167 32 -30 61 -36 99 -20 73 31
110 110 86 183 -18 55 -49 56 -113 4z"/>
<path d="M3892 7313 c-25 -35 -64 -113 -57 -113 21 0 115 109 115 135 0 17
-42 1 -58 -22z"/>
<path d="M3585 7289 c-10 -15 52 -137 76 -149 16 -9 25 -6 50 20 29 28 30 32
17 53 -17 25 -104 87 -124 87 -7 0 -16 -5 -19 -11z"/>
<path d="M4807 7219 c-13 -8 -15 -14 -7 -29 25 -48 135 -68 135 -26 0 35 -94
76 -128 55z"/>
<path d="M6005 7135 c-31 -35 -28 -50 11 -50 25 0 30 4 32 29 5 44 -12 53 -43
21z"/>
<path d="M6413 7109 c-43 -16 -23 -73 23 -67 23 2 30 9 32 30 4 32 -22 50 -55
37z"/>
<path d="M4577 6823 c-9 -2 -15 -9 -12 -14 8 -12 115 -12 115 0 0 17 -60 25
-103 14z"/>
<path d="M5695 6780 c-4 -6 1 -20 10 -30 20 -22 136 -84 196 -105 37 -14 45
-14 57 -1 8 8 12 21 9 29 -17 44 -254 137 -272 107z"/>
<path d="M5017 6773 c-25 -24 43 -115 97 -129 36 -9 81 23 81 57 0 19 -11 30
-54 52 -51 25 -109 35 -124 20z"/>
<path d="M5392 6400 c58 -67 93 -94 108 -85 29 18 -11 74 -84 115 -77 44 -83
37 -24 -30z"/>
<path d="M5634 6319 c-8 -13 50 -75 88 -95 35 -18 78 -18 78 0 0 19 -65 75
-106 92 -40 17 -51 17 -60 3z"/>
<path d="M6112 6090 c3 -8 17 -52 32 -97 45 -136 81 -173 166 -172 90 1 89 5
-27 119 -135 132 -177 169 -171 150z"/>
<path d="M5990 6015 c0 -18 -11 -40 -27 -57 -32 -34 -24 -46 48 -78 58 -24 79
-21 79 13 0 26 -45 102 -78 131 -22 19 -22 19 -22 -9z"/>
<path d="M5425 6000 c-30 -11 -48 -37 -41 -56 9 -22 122 -16 160 10 27 17 27
18 10 37 -18 20 -90 26 -129 9z"/>
<path d="M5163 5954 c-25 -26 -26 -27 -8 -40 22 -17 35 -17 70 -4 21 8 26 16
23 38 -4 39 -48 43 -85 6z"/>
<path d="M5317 5352 c-10 -10 -17 -25 -17 -33 0 -8 -7 -25 -16 -37 -13 -19
-24 -22 -78 -22 -91 0 -116 -21 -116 -100 0 -69 17 -94 58 -84 54 13 112 55
112 81 0 7 4 13 9 13 5 0 12 -39 16 -87 10 -144 32 -228 66 -263 33 -33 69
-39 89 -15 15 18 7 30 -55 88 -34 32 -36 37 -15 30 14 -4 44 -8 68 -8 37 0 42
-3 42 -23 0 -60 53 -87 67 -34 5 15 8 81 7 147 -1 134 -22 228 -53 245 -11 5
-25 27 -31 47 -19 59 -37 73 -90 73 -33 0 -52 -6 -63 -18z m89 -48 c7 -29 -1
-159 -11 -186 -9 -22 -31 -23 -39 -2 -10 26 -7 149 5 183 13 38 36 40 45 5z"/>
<path d="M2864 5156 c-7 -18 37 -128 54 -134 16 -5 17 87 0 123 -12 27 -45 34
-54 11z"/>
<path d="M5851 5045 c-2 -72 -27 -134 -67 -162 -16 -11 -58 -35 -94 -53 -133
-66 -170 -114 -149 -193 17 -65 56 -135 79 -142 26 -8 91 29 146 85 106 107
153 313 105 465 l-19 60 -1 -60z"/>
<path d="M4295 5060 c-94 -75 -107 -130 -46 -191 61 -61 126 -47 102 22 -9 25
-7 41 10 87 11 32 21 68 22 82 3 38 -39 39 -88 0z"/>
<path d="M4585 5056 c-54 -23 -115 -115 -101 -151 11 -29 56 -38 102 -20 53
20 83 53 91 98 4 29 1 40 -20 61 -30 30 -31 30 -72 12z"/>
<path d="M3478 5039 c-10 -5 -49 -55 -88 -109 -40 -56 -84 -107 -100 -115 -39
-20 -50 -43 -50 -104 0 -37 4 -51 14 -51 39 0 218 262 250 368 8 24 1 27 -26
11z"/>
<path d="M3035 5028 c-10 -25 -1 -81 13 -86 14 -4 17 65 2 88 -8 12 -10 12
-15 -2z"/>
<path d="M5730 4990 c-6 -11 -10 -33 -8 -48 2 -21 8 -27 28 -27 32 0 60 46 44
72 -16 27 -51 28 -64 3z"/>
<path d="M5640 4944 c0 -32 4 -44 13 -42 15 6 21 32 13 64 -10 40 -26 27 -26
-22z"/>
<path d="M4066 4939 c-28 -22 -34 -68 -9 -76 18 -6 64 48 61 71 -4 28 -21 30
-52 5z"/>
<path d="M3482 4844 c-12 -8 -22 -25 -22 -37 0 -26 61 -139 78 -145 28 -9 45
135 22 179 -13 23 -47 25 -78 3z"/>
<path d="M3712 4759 c3 -8 26 -27 52 -43 39 -25 49 -27 57 -15 12 19 11 22 -4
43 -17 23 -112 37 -105 15z"/>
<path d="M2540 4612 c-62 -40 -122 -108 -118 -135 2 -12 15 -28 29 -36 38 -21
102 0 151 48 41 42 55 81 42 120 -13 37 -49 38 -104 3z"/>
<path d="M2221 4589 c-35 -23 -65 -48 -68 -55 -7 -18 56 -133 80 -146 15 -8
24 -6 40 11 18 17 22 36 25 117 3 54 0 100 -5 105 -6 6 -32 -5 -72 -32z"/>
<path d="M4197 4600 c-35 -40 -89 -190 -70 -190 5 0 16 14 26 31 14 25 22 30
42 27 31 -6 50 14 64 69 13 46 1 93 -23 93 -8 0 -26 -13 -39 -30z"/>
<path d="M4505 4588 c-75 -27 -115 -82 -115 -158 0 -75 53 -140 116 -140 52 0
82 55 104 192 14 88 3 118 -42 117 -18 0 -46 -5 -63 -11z"/>
<path d="M3718 4413 c-27 -14 -48 -30 -48 -34 0 -12 44 -19 85 -12 53 8 78 29
64 54 -13 26 -45 23 -101 -8z"/>
<path d="M3404 4376 c-27 -60 -44 -156 -26 -156 6 0 20 26 32 57 22 60 38 153
26 153 -4 0 -18 -24 -32 -54z"/>
<path d="M3948 4331 c-18 -16 -30 -33 -26 -37 14 -14 105 -16 128 -4 l24 13
-32 28 c-40 36 -54 36 -94 0z"/>
<path d="M5451 3983 c-37 -71 -31 -138 12 -128 29 8 72 -24 129 -95 79 -96
126 -104 106 -17 -24 108 -144 257 -207 257 -19 0 -34 -7 -40 -17z"/>
<path d="M7232 3975 c-57 -48 -83 -166 -48 -220 39 -60 78 -35 107 71 40 145
14 211 -59 149z"/>
<path d="M5737 3953 c-4 -3 -7 -16 -7 -28 0 -27 29 -113 40 -120 18 -11 33 77
21 117 -11 36 -36 50 -54 31z"/>
<path d="M6390 3399 c-74 -75 -97 -138 -59 -162 49 -31 122 54 123 142 1 58
-19 64 -64 20z"/>
<path d="M7703 2614 c-18 -20 -45 -58 -59 -85 -22 -45 -23 -49 -6 -49 10 0 38
13 63 29 54 34 86 90 69 121 -15 28 -28 25 -67 -16z"/>
<path d="M4264 2489 c-8 -14 28 -64 47 -64 18 0 24 42 9 61 -15 17 -46 19 -56
3z"/>
<path d="M7854 2475 c-31 -31 -27 -51 12 -48 30 2 67 37 61 57 -7 22 -47 17
-73 -9z"/>
<path d="M8048 2355 c-20 -14 -70 -71 -112 -128 -103 -142 -135 -155 -171 -73
-13 30 -13 27 -14 -46 -1 -72 -3 -79 -27 -94 -25 -17 -54 -62 -54 -85 0 -26
83 -1 152 47 73 50 111 92 122 135 7 30 49 91 124 179 28 33 52 68 52 76 0 21
-31 17 -72 -11z"/>
<path d="M7571 2210 c-32 -61 -68 -98 -118 -120 -40 -18 -133 -95 -133 -110 0
-5 39 5 86 21 47 16 93 29 103 29 50 0 96 92 89 182 l-3 43 -24 -45z"/>
<path d="M8060 2174 c-45 -41 -70 -81 -70 -113 0 -22 51 -85 81 -101 40 -22
62 14 73 120 6 69 -5 124 -26 128 -9 2 -35 -14 -58 -34z"/>
<path d="M8363 2171 c-103 -81 -126 -133 -71 -159 66 -31 184 45 195 125 11
83 -44 98 -124 34z"/>
<path d="M7449 1960 c-25 -26 -40 -53 -44 -77 -18 -108 -68 -173 -135 -173
-31 0 -32 -1 -17 -18 33 -36 16 -68 -38 -74 -42 -4 -75 -64 -57 -103 11 -24
17 -27 45 -21 47 9 97 55 137 124 42 73 67 101 99 113 23 9 23 11 17 99 l-8
90 36 15 c28 12 36 21 36 40 0 37 -27 31 -71 -15z"/>
<path d="M6026 2934 c-31 -30 -8 -69 36 -62 26 3 37 41 18 64 -16 18 -35 18
-54 -2z"/>
<path d="M5686 2968 c-19 -27 -5 -58 27 -58 43 0 60 35 31 64 -21 22 -40 20
-58 -6z"/>
<path d="M6752 1154 c-44 -35 -86 -108 -78 -138 7 -28 -11 -46 -56 -55 -36 -7
-54 -34 -63 -91 -3 -22 -19 -50 -40 -72 -52 -56 -75 -173 -78 -398 -2 -140 5
-160 53 -160 33 0 87 55 121 122 25 51 57 88 75 88 26 0 37 46 45 197 9 159
16 218 49 391 30 155 28 160 -28 116z"/>
</g>
</svg>
