<?xml version="1.0" standalone="no"?>
<!DOCTYPE svg PUBLIC "-//W3C//DTD SVG 20010904//EN"
 "http://www.w3.org/TR/2001/REC-SVG-20010904/DTD/svg10.dtd">
<svg version="1.0" xmlns="http://www.w3.org/2000/svg"
 width="1280.000000pt" height="904.000000pt" viewBox="0 0 1280.000000 904.000000"
 preserveAspectRatio="xMidYMid meet">
<g transform="translate(0.000000,904.000000) scale(0.100000,-0.100000)"
fill="#000000" stroke="none">
<path d="M7780 9029 c-156 -5 -226 -14 -450 -54 l-265 -47 -367 -5 c-203 -3
-368 -8 -368 -11 0 -2 13 -18 30 -33 l30 -29 -226 0 c-216 0 -232 -1 -363 -31
-192 -43 -185 -39 -112 -60 35 -10 65 -20 67 -22 2 -2 -76 -14 -174 -26 -97
-13 -181 -27 -185 -31 -5 -4 23 -20 62 -35 39 -16 69 -30 67 -32 -2 -3 -69
-22 -148 -44 l-143 -40 -237 7 c-131 4 -238 4 -238 1 0 -2 42 -21 93 -42 50
-20 95 -40 100 -44 4 -4 -64 -20 -150 -35 -87 -15 -180 -33 -208 -39 -49 -12
-48 -12 68 -17 l118 -5 -228 -189 c-125 -104 -229 -192 -231 -197 -2 -5 51
-10 118 -11 l121 -3 -336 -269 c-184 -147 -335 -269 -335 -271 0 -1 75 21 168
50 92 29 168 51 170 49 2 -1 -138 -168 -311 -371 -174 -202 -314 -369 -313
-370 2 -2 92 46 201 107 110 60 201 108 203 106 1 -2 -53 -110 -121 -240 -69
-130 -123 -236 -120 -236 2 0 49 34 103 75 55 42 100 74 100 72 0 -2 -105
-175 -234 -383 -128 -208 -232 -381 -230 -383 2 -3 170 103 392 247 18 12 -9
-50 -112 -256 -75 -150 -136 -274 -136 -276 0 -3 38 -2 85 1 69 5 85 3 85 -8
0 -8 -14 -83 -30 -168 -17 -84 -29 -156 -26 -158 2 -2 23 21 47 51 24 31 46
56 49 56 3 0 -2 -80 -12 -177 -9 -98 -17 -194 -17 -213 0 -33 2 -31 38 40 l38
74 11 -49 c6 -28 39 -191 74 -362 34 -172 65 -313 68 -313 3 0 28 93 55 206
55 230 58 232 70 37 4 -65 11 -124 14 -131 5 -9 24 4 63 47 41 44 58 56 62 45
4 -11 -84 -322 -161 -564 -3 -8 50 68 117 170 136 206 128 195 135 188 3 -2
14 -134 24 -292 11 -159 22 -290 24 -292 2 -3 32 38 67 91 34 52 66 93 70 90
4 -2 33 -48 64 -100 l58 -96 79 105 c44 59 82 106 85 106 2 0 22 -9 44 -20 21
-11 74 -34 117 -51 43 -17 80 -32 82 -34 2 -3 -11 -40 -28 -83 l-32 -79 -97
-11 c-53 -7 -290 -34 -527 -61 -236 -28 -556 -64 -710 -81 -154 -17 -314 -35
-355 -41 -500 -68 -793 -230 -941 -520 -29 -56 -33 -76 -37 -159 -3 -83 17
-296 34 -352 4 -15 0 -17 -23 -12 -40 8 -116 -25 -263 -112 -131 -78 -256
-168 -320 -228 l-38 -36 -47 27 c-189 105 -406 -115 -417 -425 -3 -64 -5 -73
-23 -76 -11 -3 -58 -10 -105 -16 -150 -21 -177 -40 -277 -199 -107 -171 -116
-181 -211 -234 -142 -79 -138 -70 -134 -250 l3 -153 -77 -65 c-160 -133 -293
-311 -430 -573 l-76 -146 6397 0 6397 0 -89 88 c-115 112 -161 174 -297 396
-129 209 -172 269 -274 384 l-74 84 15 36 c24 58 28 90 17 133 -16 58 -68 110
-203 202 -139 94 -177 140 -177 217 0 26 18 135 39 242 22 108 45 243 52 300
25 226 -35 409 -164 496 -69 47 -558 318 -752 417 -545 276 -993 412 -1473
443 -67 5 -127 13 -131 18 -5 5 -45 113 -89 239 -44 127 -85 243 -91 258 -6
16 -7 26 -3 23 4 -2 39 -70 77 -150 37 -80 71 -146 74 -146 3 0 26 88 50 196
48 209 57 237 83 242 12 2 20 -14 33 -70 10 -40 21 -76 24 -80 4 -4 5 36 3 90
l-4 99 38 36 c22 20 41 37 44 37 3 0 20 -55 39 -122 43 -155 53 -174 47 -83
-21 277 -21 284 10 342 16 29 31 53 34 53 3 0 21 -45 39 -100 l33 -101 -16
-132 c-9 -73 -18 -145 -21 -162 -9 -56 11 -3 130 350 65 193 121 353 125 358
3 4 21 -24 40 -63 19 -38 36 -70 39 -70 3 0 3 168 0 372 -5 324 -10 399 -33
572 -14 110 -26 206 -26 215 0 9 37 -48 81 -127 45 -79 82 -142 84 -140 2 2
-3 28 -11 58 -185 710 -257 1034 -363 1642 l-58 333 -227 313 c-124 172 -226
315 -226 318 0 3 44 -30 98 -72 213 -169 155 -114 -136 126 -128 106 -232 193
-230 195 2 1 73 -3 158 -10 85 -7 156 -12 158 -11 1 2 -139 51 -310 111 -172
59 -317 111 -322 116 -6 5 17 9 55 10 35 0 84 4 109 7 l44 7 -59 18 c-56 17
-423 133 -454 143 -35 11 7 11 179 -1 102 -8 186 -12 187 -11 2 2 -156 49
-349 105 -194 56 -373 107 -397 115 l-45 13 97 58 c53 31 97 59 97 61 0 5 -87
3 -340 -7z"/>
</g>
</svg>
