<?xml version="1.0" standalone="no"?>
<!DOCTYPE svg PUBLIC "-//W3C//DTD SVG 20010904//EN"
 "http://www.w3.org/TR/2001/REC-SVG-20010904/DTD/svg10.dtd">
<svg version="1.0" xmlns="http://www.w3.org/2000/svg"
 width="1230.000000pt" height="1280.000000pt" viewBox="0 0 1230.000000 1280.000000"
 preserveAspectRatio="xMidYMid meet">
<g transform="translate(0.000000,1280.000000) scale(0.100000,-0.100000)"
fill="#000000" stroke="none">
<path d="M4645 12200 c-307 -28 -532 -60 -585 -83 -19 -8 -55 -23 -80 -33 -25
-10 -63 -25 -85 -34 -22 -9 -85 -34 -140 -56 -101 -39 -209 -92 -452 -222
-148 -79 -375 -245 -488 -357 -115 -114 -273 -295 -323 -370 -26 -38 -50 -74
-55 -80 -4 -5 -31 -46 -59 -90 -29 -44 -75 -116 -104 -160 -58 -89 -91 -185
-143 -410 -18 -77 -38 -156 -43 -175 -13 -40 -24 -133 -37 -305 -6 -66 -17
-196 -26 -290 -10 -93 -15 -192 -11 -220 24 -221 59 -468 80 -570 8 -38 19
-101 26 -140 62 -375 98 -511 194 -733 36 -84 44 -142 27 -202 -4 -16 3 -52
21 -105 22 -65 27 -98 28 -177 0 -97 0 -98 -25 -98 -26 0 -79 46 -130 114 -74
97 -101 123 -154 150 -92 47 -139 37 -243 -56 l-38 -33 -1 -105 c-1 -119 -1
-119 76 -295 69 -157 108 -268 141 -395 14 -52 32 -102 40 -111 8 -8 14 -21
14 -27 0 -6 15 -35 33 -64 19 -29 77 -136 129 -238 121 -234 155 -297 177
-329 35 -51 111 -201 144 -284 33 -83 77 -152 204 -321 61 -80 63 -82 153
-119 96 -39 123 -43 181 -27 31 9 40 18 58 60 12 27 24 76 28 110 11 107 35
83 157 -152 36 -70 76 -145 89 -165 13 -21 36 -67 51 -103 50 -112 117 -233
154 -280 150 -185 312 -356 395 -417 41 -30 87 -119 132 -258 55 -171 88 -447
88 -750 1 -293 -3 -324 -63 -576 -6 -26 -22 -57 -36 -70 -31 -29 -140 -90
-289 -161 -60 -29 -178 -88 -261 -130 -225 -114 -443 -193 -669 -242 -132 -29
-178 -41 -335 -87 -58 -17 -143 -34 -190 -39 -47 -4 -133 -13 -192 -21 -106
-13 -332 -7 -753 20 -150 10 -323 0 -386 -22 -24 -8 -80 -25 -124 -37 -44 -13
-98 -29 -120 -36 -22 -7 -74 -23 -115 -35 -98 -28 -177 -54 -220 -73 -42 -18
-271 -173 -398 -271 l-91 -70 -1 -672 0 -673 6150 0 6150 0 0 1191 0 1191 -27
-6 c-16 -4 -66 -13 -113 -21 -47 -8 -134 -23 -195 -35 -163 -31 -501 -67 -745
-80 -266 -15 -363 -15 -465 -1 -44 5 -138 17 -210 26 -71 9 -171 23 -221 31
-50 8 -107 14 -125 14 -43 0 -282 56 -408 96 -25 8 -55 14 -67 14 -95 0 -857
251 -1039 342 -66 33 -143 76 -171 94 -65 43 -136 118 -164 175 -13 24 -45 69
-73 99 -62 67 -101 128 -123 189 -36 101 -58 148 -91 195 -137 192 -283 521
-329 739 -8 40 -23 97 -33 127 -49 143 -33 270 50 394 28 42 49 85 49 100 0
15 12 48 26 74 33 58 68 172 99 322 13 63 37 169 52 235 l27 120 -3 470 c-1
268 1 480 7 494 8 23 11 20 40 -40 30 -61 116 -174 146 -191 26 -14 112 17
146 53 104 112 115 135 144 309 9 52 21 121 27 153 7 41 6 112 -3 245 -15 225
-15 199 -6 802 6 519 1 628 -44 885 -19 106 -27 129 -69 201 -27 45 -59 88
-73 97 -60 40 -157 30 -217 -22 -19 -16 -46 -40 -62 -53 -21 -18 -32 -42 -48
-108 -11 -47 -24 -99 -29 -116 -6 -17 -10 -41 -10 -55 0 -13 -11 -41 -24 -62
-23 -37 -24 -37 -44 -20 -29 24 -92 148 -92 181 0 32 -35 216 -54 287 -8 28
-24 104 -35 170 -28 155 -30 161 -89 350 -28 88 -58 196 -67 239 -9 44 -19 84
-22 89 -3 5 -9 23 -14 41 -4 17 -26 83 -48 146 -23 63 -63 181 -90 262 -28 81
-60 171 -72 200 -23 53 -29 63 -86 148 -16 25 -33 52 -36 60 -4 8 -25 42 -47
75 -35 52 -68 105 -113 180 -7 11 -24 36 -39 56 -16 20 -28 39 -28 42 0 12
-62 95 -117 158 -32 36 -78 89 -103 119 -45 54 -105 121 -171 192 -32 35 -64
56 -169 110 -25 13 -78 42 -118 66 -40 23 -74 42 -76 42 -3 0 -37 19 -78 43
-104 60 -108 62 -268 118 -80 28 -170 60 -200 71 -30 11 -75 24 -100 28 -199
34 -240 41 -280 50 -60 13 -512 20 -625 10z"/>
</g>
</svg>
