<?xml version="1.0" standalone="no"?>
<!DOCTYPE svg PUBLIC "-//W3C//DTD SVG 20010904//EN"
 "http://www.w3.org/TR/2001/REC-SVG-20010904/DTD/svg10.dtd">
<svg version="1.0" xmlns="http://www.w3.org/2000/svg"
 width="1280.000000pt" height="1280.000000pt" viewBox="0 0 1280.000000 1280.000000"
 preserveAspectRatio="xMidYMid meet">
<g transform="translate(0.000000,1280.000000) scale(0.100000,-0.100000)"
fill="#000000" stroke="none">
<path d="M5412 11389 c-233 -40 -335 -64 -575 -133 -278 -80 -302 -89 -500
-184 -186 -91 -227 -115 -395 -238 -103 -75 -205 -150 -227 -166 -50 -36 -450
-458 -492 -519 -17 -24 -87 -177 -157 -340 l-126 -296 -29 -171 c-17 -94 -48
-240 -70 -324 l-41 -154 -6 -299 c-7 -333 7 -852 31 -1135 9 -102 20 -243 24
-315 8 -124 7 -133 -17 -198 l-25 -68 23 -24 c24 -26 20 -47 -5 -30 -17 12
-205 301 -260 400 -21 39 -71 123 -111 187 -53 84 -104 189 -185 380 -61 145
-125 297 -143 339 -18 42 -69 135 -114 207 l-82 130 -78 31 c-42 17 -84 31
-92 31 -8 0 -38 -15 -65 -32 -69 -46 -77 -86 -36 -183 17 -38 58 -169 92 -290
201 -720 443 -1446 650 -1947 37 -91 78 -204 89 -250 12 -46 41 -144 65 -218
88 -272 112 -392 125 -624 l12 -208 78 -207 c45 -119 90 -263 109 -341 46
-197 66 -236 163 -305 l78 -56 56 10 c65 12 77 20 94 61 7 17 16 30 20 30 9 0
90 -268 90 -298 -1 -107 98 -404 267 -807 14 -32 84 -152 157 -265 166 -257
176 -274 176 -291 0 -28 -162 -255 -236 -331 -152 -156 -181 -176 -519 -357
-293 -158 -355 -186 -737 -342 -390 -159 -444 -178 -805 -285 -298 -87 -469
-132 -737 -189 l-348 -75 -299 0 -299 0 0 -350 0 -350 6240 0 6240 0 0 299 0
299 -102 65 c-126 78 -234 130 -629 302 -355 153 -343 151 -684 160 -208 6
-233 5 -459 -24 l-239 -31 -271 31 c-219 25 -322 42 -536 90 -236 54 -305 74
-635 191 -316 111 -409 149 -634 257 -190 91 -270 134 -285 154 -17 23 -22 46
-24 126 -4 114 1 127 130 336 41 66 144 251 230 410 147 274 158 298 192 425
115 435 149 593 161 750 7 93 37 265 48 277 4 3 12 -6 18 -21 13 -27 21 -30
95 -40 38 -5 45 -2 111 54 85 73 104 114 134 299 43 275 69 389 111 506 l44
120 -8 217 c-8 208 -7 225 17 370 14 84 37 200 50 258 14 58 33 161 44 230 11
69 38 184 61 255 143 458 352 1301 486 1960 25 121 54 253 66 293 18 62 19 78
9 113 -10 34 -20 44 -66 66 l-55 27 -79 -38 -78 -39 -76 -156 c-58 -120 -101
-233 -188 -496 l-112 -339 -166 -323 c-91 -177 -168 -323 -171 -323 -3 0 -23
53 -44 117 l-39 118 -8 365 c-4 201 -15 473 -23 605 -8 132 -18 312 -22 400
-4 88 -13 180 -21 205 -7 25 -18 81 -23 125 -5 45 -49 216 -100 390 l-90 310
-152 289 -152 288 -105 97 c-57 53 -172 160 -255 239 -145 137 -160 148 -386
284 -212 129 -257 151 -455 231 -220 87 -221 88 -535 152 -272 55 -349 67
-560 85 -135 11 -263 22 -285 25 -22 2 -164 -18 -323 -46z"/>
</g>
</svg>
