<?xml version="1.0" standalone="no"?>
<!DOCTYPE svg PUBLIC "-//W3C//DTD SVG 20010904//EN"
 "http://www.w3.org/TR/2001/REC-SVG-20010904/DTD/svg10.dtd">
<svg version="1.0" xmlns="http://www.w3.org/2000/svg"
 width="980.000000pt" height="1280.000000pt" viewBox="0 0 980.000000 1280.000000"
 preserveAspectRatio="xMidYMid meet">
<g transform="translate(0.000000,1280.000000) scale(0.100000,-0.100000)"
fill="#000000" stroke="none">
<path d="M7304 12128 c-716 -709 -1384 -1365 -2074 -2038 -228 -223 -713 -697
-1077 -1053 l-663 -648 -57 -9 c-170 -24 -262 -77 -353 -203 l-33 -47 -78 0
-78 0 -6 -57 c-11 -94 -43 -219 -70 -272 -20 -41 -41 -61 -115 -111 -49 -34
-90 -64 -90 -66 0 -2 8 -19 17 -39 15 -32 20 -35 49 -29 l33 6 -12 -32 c-7
-18 -21 -36 -32 -41 -24 -10 -280 -34 -585 -54 -366 -25 -487 -35 -635 -51
-255 -27 -501 -76 -665 -132 -96 -33 -91 -23 -67 -142 9 -41 19 -122 23 -180
6 -95 10 -108 34 -137 49 -55 55 -91 55 -303 0 -195 0 -195 -29 -254 -33 -68
-115 -153 -201 -211 -33 -22 -165 -94 -294 -160 l-234 -120 2 -111 c2 -105 1
-112 -18 -117 -17 -4 -21 -13 -21 -51 0 -34 -4 -46 -15 -46 -13 0 -15 -24 -15
-154 0 -114 3 -155 13 -159 6 -3 223 -91 482 -195 259 -105 501 -203 539 -219
l69 -29 2 -54 c2 -36 14 -81 34 -127 19 -45 31 -89 31 -117 0 -57 12 -88 55
-140 19 -24 35 -51 35 -61 0 -71 53 -148 133 -194 28 -17 63 -46 76 -66 14
-20 92 -100 174 -178 170 -161 229 -240 270 -365 29 -86 57 -240 57 -310 0
-50 -54 -165 -106 -226 -30 -35 -34 -46 -34 -98 0 -62 18 -111 45 -122 9 -3
31 -6 48 -6 18 0 54 -11 80 -24 75 -39 148 -52 199 -37 56 17 164 94 183 131
24 47 18 69 -33 121 l-48 48 3 308 4 308 -44 225 c-24 124 -43 227 -41 229 2
2 12 -3 22 -12 22 -20 65 -22 81 -3 6 7 23 51 39 97 21 66 27 102 26 166 l-1
81 26 -10 c14 -5 346 -126 736 -268 391 -142 718 -262 728 -265 17 -7 17 -22
12 -214 -3 -113 -8 -257 -11 -318 -5 -103 -8 -113 -25 -113 -27 0 -69 -44 -69
-72 0 -13 -7 -32 -15 -42 -39 -52 -6 -132 82 -195 l63 -46 0 -86 c0 -47 3
-113 6 -145 l6 -59 -43 -24 c-134 -73 -169 -110 -169 -179 0 -52 -86 -107
-186 -118 -47 -6 -57 -11 -65 -31 -15 -40 -11 -50 27 -57 l35 -7 -7 -127 c-3
-70 -8 -130 -10 -133 -2 -3 -28 -11 -59 -18 l-55 -12 0 -44 c0 -41 2 -44 38
-56 57 -18 57 -19 3 -50 -28 -16 -55 -38 -61 -50 -19 -34 5 -75 59 -101 58
-29 169 -30 288 -4 89 20 79 22 205 -32 l46 -21 -49 -49 c-50 -50 -63 -88 -36
-110 6 -6 42 -22 78 -35 82 -31 102 -24 142 50 l27 51 301 -140 c166 -77 309
-138 319 -135 13 3 632 369 649 383 2 2 -22 15 -53 31 l-56 27 0 116 c0 116 0
116 30 145 16 15 27 31 25 36 -3 4 -64 40 -135 80 -110 61 -130 76 -130 96 0
14 -5 34 -11 46 -18 34 -112 127 -129 127 -24 0 -60 29 -70 56 -14 36 15 295
33 306 8 4 29 31 47 60 18 29 42 66 52 81 20 30 20 42 0 135 -7 30 -23 57 -52
87 l-42 43 77 231 c42 127 80 231 84 231 7 0 79 -25 706 -242 143 -49 317
-109 386 -133 l127 -43 48 28 c64 36 222 96 419 161 88 28 165 54 171 56 12 5
22 -14 34 -64 9 -36 0 -87 -25 -148 -21 -49 -27 -40 -51 80 l-18 90 -14 -75
c-8 -47 -11 -111 -8 -173 5 -93 3 -105 -35 -230 -47 -157 -56 -217 -48 -317
11 -131 85 -298 202 -462 30 -41 57 -80 61 -87 5 -7 -8 -29 -32 -55 -58 -63
-75 -143 -52 -241 16 -64 49 -284 65 -427 27 -240 15 -461 -30 -588 -9 -25
-19 -76 -22 -115 -7 -88 13 -120 81 -130 41 -7 44 -9 50 -45 4 -28 17 -48 46
-73 40 -34 45 -35 170 -47 71 -7 146 -9 167 -6 62 11 136 52 158 88 11 18 32
53 47 78 48 78 31 145 -57 230 -44 43 -46 47 -40 88 8 55 -9 105 -46 137 l-31
25 -1 158 c-2 127 1 167 16 208 18 52 61 101 109 126 36 18 208 224 259 309
50 84 93 203 119 329 11 55 30 119 42 142 17 31 22 59 22 122 1 80 1 81 28 86
57 10 68 31 68 127 0 84 1 89 40 154 23 37 44 84 47 105 4 21 26 67 50 102 46
67 56 121 31 161 -10 17 -6 26 29 64 40 43 61 98 51 129 -3 7 8 40 24 73 29
63 37 130 18 166 -9 15 -5 26 19 57 31 38 53 110 50 165 -1 18 6 49 15 69 15
35 15 38 -2 47 -11 6 -33 6 -56 1 l-38 -8 5 37 c2 21 13 50 22 65 25 37 139
110 214 135 133 45 153 68 161 175 l5 71 123 64 c174 90 254 174 381 398 37
65 60 94 80 103 26 10 30 19 44 93 26 134 30 174 22 242 -6 64 -7 64 -41 71
l-35 7 5 71 c3 39 8 152 11 251 20 621 72 1308 106 1397 14 35 4 63 -41 112
l-38 41 -6 320 -7 320 32 20 c66 41 64 68 -7 117 -103 73 -349 127 -669 148
-88 6 -184 14 -213 18 l-53 7 -260 514 c-143 283 -256 517 -252 521 4 4 42 31
83 60 344 245 663 575 889 919 72 110 79 148 34 203 -80 96 -168 147 -581 339
-129 60 -270 130 -314 156 -131 78 -186 155 -145 205 6 8 140 118 297 243 643
515 969 797 1318 1139 l183 180 -78 23 c-417 126 -1057 302 -1483 408 -124 31
-232 58 -240 60 -11 4 -245 -221 -696 -667z m779 -3807 c125 -246 227 -450
227 -452 0 -3 -35 -2 -77 3 -294 29 -596 41 -1155 47 l-606 6 296 164 c524
290 813 469 1002 620 41 32 77 60 80 60 3 0 107 -201 233 -448z m-6433 -3895
c0 -29 -3 -56 -7 -60 -6 -6 -72 144 -73 167 0 5 18 -6 40 -23 38 -30 40 -35
40 -84z m2667 -871 l23 -5 0 -223 c0 -295 -13 -1118 -18 -1090 -2 13 -24 38
-51 57 -26 19 -67 63 -91 97 l-43 61 6 127 c4 76 10 127 17 129 28 10 70 57
84 95 9 23 19 73 24 110 8 62 7 72 -12 100 -17 25 -30 33 -58 35 -45 4 -44 3
-53 207 -3 77 -8 186 -11 241 l-7 101 83 -18 c46 -10 94 -20 107 -24z m196
-71 c57 -14 109 -29 116 -34 11 -6 12 -58 2 -286 -6 -154 -11 -302 -11 -330 0
-49 -2 -52 -45 -83 -51 -36 -69 -66 -80 -128 -10 -64 39 -135 123 -178 l34
-17 -7 -126 c-3 -70 -8 -139 -11 -153 -3 -14 -31 -51 -63 -83 l-58 -57 -54 14
-54 13 -5 737 c-3 405 -1 737 3 737 4 0 54 -12 110 -26z m3702 -141 c-57 -57
-127 -162 -174 -261 -19 -40 -38 -72 -41 -72 -4 0 -13 11 -20 25 -13 24 -11
28 28 68 23 24 42 49 42 58 0 8 -11 31 -25 51 l-24 36 122 70 c67 39 126 71
130 71 5 1 -12 -20 -38 -46z m-3272 -20 c15 -3 27 -8 27 -12 0 -10 -99 -263
-105 -269 -6 -6 3 214 11 266 4 27 9 32 22 27 9 -3 29 -9 45 -12z"/>
</g>
</svg>
