<?xml version="1.0" standalone="no"?>
<!DOCTYPE svg PUBLIC "-//W3C//DTD SVG 20010904//EN"
 "http://www.w3.org/TR/2001/REC-SVG-20010904/DTD/svg10.dtd">
<svg version="1.0" xmlns="http://www.w3.org/2000/svg"
 width="1280.000000pt" height="1280.000000pt" viewBox="0 0 1280.000000 1280.000000"
 preserveAspectRatio="xMidYMid meet">
<g transform="translate(0.000000,1280.000000) scale(0.100000,-0.100000)"
fill="#000000" stroke="none">
<path d="M3540 11820 c-7 -154 8 -235 70 -365 74 -156 238 -361 363 -455 153
-115 277 -163 550 -210 95 -16 215 -41 267 -54 287 -75 530 -198 692 -351 l52
-49 -62 -28 c-85 -38 -298 -111 -405 -137 l-88 -22 -68 25 c-158 61 -334 70
-491 26 -140 -40 -351 -161 -401 -232 -13 -17 -30 -58 -38 -92 l-16 -60 -95
-34 c-239 -86 -468 -124 -620 -104 -200 27 -399 140 -455 259 -26 54 -16 148
26 248 30 73 33 89 34 185 0 101 -2 109 -34 175 -54 109 -195 243 -401 379
-137 91 -252 173 -340 240 -19 15 42 -70 99 -137 25 -30 93 -98 151 -151 194
-179 283 -286 315 -379 24 -72 17 -103 -57 -228 -80 -135 -108 -218 -108 -317
0 -157 57 -281 193 -420 204 -209 431 -305 757 -319 185 -7 469 20 631 62 25
6 28 3 53 -59 15 -40 26 -86 26 -115 0 -61 17 -109 67 -191 22 -36 60 -106 85
-156 l46 -92 -44 -36 c-24 -20 -58 -58 -75 -84 -74 -110 -86 -117 -286 -162
-76 -17 -169 -40 -206 -51 -58 -17 -76 -19 -118 -10 -32 7 -232 11 -543 11
l-493 0 -28 78 c-49 136 -113 251 -159 283 -23 16 -66 49 -96 74 -181 146
-198 155 -220 116 -28 -54 4 -124 85 -189 28 -22 63 -54 79 -71 29 -30 29 -33
18 -79 -6 -26 -14 -61 -17 -79 -4 -20 -14 -35 -26 -38 -11 -4 -35 -19 -52 -34
-18 -15 -50 -33 -72 -39 -43 -14 -64 -6 -348 121 -81 36 -111 38 -127 7 -8
-14 -2 -29 25 -67 19 -26 50 -79 69 -118 68 -134 118 -184 257 -257 41 -21 56
-23 224 -23 175 0 182 -1 250 -29 55 -23 87 -29 150 -30 74 -2 94 -7 275 -77
251 -98 266 -103 449 -139 127 -26 170 -30 240 -26 47 3 205 9 351 14 322 12
432 33 624 120 l79 36 24 -29 c47 -58 95 -157 184 -377 92 -227 185 -417 244
-498 86 -116 213 -207 346 -248 82 -24 90 -29 140 -87 30 -34 72 -75 94 -91
22 -16 74 -61 115 -100 80 -76 179 -146 235 -164 28 -9 41 -25 75 -88 45 -84
92 -147 171 -232 l51 -55 -7 -60 c-3 -33 -26 -119 -50 -190 -76 -226 -113
-439 -122 -705 -8 -243 24 -596 74 -805 l26 -110 -18 -65 c-29 -103 -31 -290
-5 -430 45 -247 45 -268 11 -435 -61 -301 -63 -339 -59 -900 l3 -510 -33 -173
c-20 -106 -46 -207 -66 -260 -20 -51 -37 -116 -41 -157 -13 -128 -128 -346
-248 -469 -33 -34 -57 -56 -54 -50 5 8 -6 11 -36 9 -23 -2 -48 2 -55 7 -9 8
-11 7 -6 -7 5 -13 3 -16 -12 -13 -24 6 -74 -18 -74 -35 0 -7 -3 -8 -8 -2 -8
12 -44 16 -37 5 6 -9 -25 -23 -33 -15 -3 3 0 5 8 5 9 0 10 3 1 14 -9 11 -9 15
1 19 7 3 8 6 2 6 -5 1 -19 -6 -30 -14 -18 -15 -18 -15 0 -8 13 4 17 3 12 -5
-4 -7 -16 -12 -27 -12 -10 0 -19 -4 -19 -10 0 -5 -8 -10 -17 -10 -15 0 -16 2
-3 10 13 8 -4 8 -50 1 -3 -1 1 -5 8 -10 10 -6 7 -10 -12 -15 -23 -6 -31 -21
-27 -48 0 -4 -7 -5 -17 -2 -9 2 -3 -2 13 -10 l30 -14 -24 -10 c-15 -5 -20 -11
-13 -16 6 -4 9 -13 6 -20 -3 -8 0 -17 7 -22 7 -4 10 -3 7 2 -3 5 -2 18 2 29 6
16 8 14 7 -11 0 -17 4 -37 8 -44 5 -8 4 -11 -3 -6 -5 3 -12 3 -15 -1 -2 -5 -2
-1 0 7 3 12 1 12 -8 3 -17 -17 -20 -63 -4 -57 7 3 16 0 21 -7 4 -8 3 -10 -4
-5 -7 4 -12 3 -12 -2 0 -6 7 -12 15 -16 8 -3 15 -11 15 -17 0 -8 -4 -8 -15 1
-10 8 -15 9 -15 2 0 -10 26 -30 40 -30 3 0 17 -5 32 -11 14 -5 55 -13 90 -17
34 -3 94 -13 131 -20 38 -8 74 -11 79 -8 6 4 8 2 4 -4 -9 -14 53 -33 111 -34
137 -2 336 22 349 43 3 5 13 9 23 9 9 0 33 14 51 30 18 17 30 30 25 30 -4 0 0
9 10 20 10 11 25 20 33 20 32 0 83 46 107 95 29 60 65 270 64 370 -1 71 9 128
38 200 9 24 19 97 24 182 9 163 38 314 108 574 49 182 75 260 166 514 83 233
161 529 172 652 7 84 3 83 88 28 30 -19 157 -89 282 -156 126 -67 296 -159
378 -204 83 -45 229 -124 325 -175 213 -114 463 -262 548 -324 73 -54 97 -90
113 -166 6 -30 27 -120 47 -200 33 -129 37 -159 37 -272 l0 -127 -40 -43 c-50
-53 -80 -96 -90 -128 -31 -98 51 -201 148 -185 56 9 142 51 164 79 10 12 39
28 65 35 60 17 90 46 117 117 27 71 27 146 0 277 -15 74 -20 127 -17 192 5
100 12 118 111 281 90 149 115 258 82 369 -32 111 -100 148 -308 166 -66 5
-134 16 -151 23 -65 27 -223 130 -320 209 -137 111 -408 377 -464 457 -146
208 -196 257 -342 330 -161 81 -322 120 -493 120 l-78 0 6 38 c13 78 78 414
112 582 l36 175 131 184 c72 101 177 240 234 310 216 266 401 520 447 614 92
192 128 393 107 615 -26 281 -107 469 -273 634 -98 97 -204 147 -388 183 -77
16 -92 23 -163 76 -106 81 -135 125 -158 247 -11 53 -35 171 -55 262 -19 91
-38 177 -41 191 l-5 27 273 5 c270 5 373 15 542 53 91 21 131 42 182 96 78 83
104 137 104 218 0 79 -18 124 -92 227 -68 94 -123 153 -188 198 -61 42 -171
53 -321 32 -64 -10 -151 -17 -195 -17 -43 0 -117 -7 -164 -15 -129 -23 -193
-19 -306 16 -70 21 -134 33 -219 40 -65 5 -160 17 -210 28 -49 11 -128 22
-175 26 -47 4 -129 15 -183 26 -113 22 -162 23 -275 8 -80 -11 -81 -11 -177
25 -52 20 -137 43 -187 51 -75 12 -102 21 -143 49 -28 19 -58 48 -68 65 -25
42 -22 126 9 218 14 43 30 101 36 128 6 28 17 62 24 76 37 73 37 206 0 264 -8
11 -16 34 -19 50 -6 30 -6 30 141 102 353 172 526 339 564 541 22 119 -24 249
-128 362 -111 120 -374 268 -623 350 -229 77 -381 101 -825 130 -174 12 -233
21 -316 52 -128 46 -233 121 -374 268 -151 157 -207 255 -264 460 -10 35 -10
34 -12 -20z"/>
<path d="M5236 423 c-6 -14 -5 -15 5 -6 7 7 10 15 7 18 -3 3 -9 -2 -12 -12z"/>
<path d="M5240 385 c0 -8 2 -15 4 -15 2 0 6 7 10 15 3 8 1 15 -4 15 -6 0 -10
-7 -10 -15z"/>
</g>
</svg>
