<?xml version="1.0" standalone="no"?>
<!DOCTYPE svg PUBLIC "-//W3C//DTD SVG 20010904//EN"
 "http://www.w3.org/TR/2001/REC-SVG-20010904/DTD/svg10.dtd">
<svg version="1.0" xmlns="http://www.w3.org/2000/svg"
 width="1280.000000pt" height="1269.000000pt" viewBox="0 0 1280.000000 1269.000000"
 preserveAspectRatio="xMidYMid meet">
<g transform="translate(0.000000,1269.000000) scale(0.100000,-0.100000)"
fill="#000000" stroke="none">
<path d="M6115 12684 c-1310 -70 -2424 -466 -3435 -1223 -824 -618 -1570
-1512 -1977 -2371 -391 -824 -579 -1641 -599 -2605 -24 -1093 186 -2058 647
-2976 585 -1165 1643 -2233 2804 -2830 738 -380 1478 -585 2390 -661 195 -16
816 -16 1010 0 936 78 1708 299 2474 707 833 444 1651 1172 2235 1988 476 666
797 1386 980 2197 101 444 150 917 150 1430 0 683 -81 1264 -261 1870 -252
850 -692 1626 -1324 2335 -145 163 -505 516 -663 650 -328 280 -764 583 -1092
759 l-52 28 32 67 c28 60 31 74 31 166 0 87 -4 107 -27 158 -35 75 -118 162
-193 201 -57 29 -66 31 -175 31 -107 0 -119 -2 -173 -29 -73 -37 -160 -128
-194 -203 -14 -32 -27 -59 -28 -60 -1 -2 -69 20 -151 48 -476 160 -944 257
-1474 305 -166 15 -773 26 -935 18z m905 -39 c545 -46 1088 -158 1548 -321
l102 -36 0 -68 c0 -135 56 -248 161 -325 80 -59 144 -79 244 -79 101 1 169 26
253 94 34 27 64 50 66 50 2 0 55 -29 118 -64 391 -219 774 -495 1138 -822 152
-136 493 -482 611 -619 919 -1070 1401 -2245 1499 -3655 27 -385 10 -936 -40
-1324 -187 -1440 -820 -2668 -1912 -3712 -1024 -979 -2223 -1547 -3588 -1698
-374 -42 -927 -54 -1260 -27 -775 61 -1451 227 -2097 515 -1290 575 -2461
1702 -3103 2986 -348 695 -543 1402 -616 2235 -24 271 -24 869 0 1140 128
1451 662 2649 1654 3718 497 535 1087 997 1687 1319 799 429 1697 669 2670
712 168 7 688 -4 865 -19z"/>
<path d="M6220 12063 c-471 -14 -1006 -100 -1453 -234 -728 -218 -1397 -587
-2002 -1105 -194 -166 -526 -498 -689 -689 -645 -754 -1056 -1598 -1236 -2540
-71 -371 -91 -584 -97 -1039 -6 -397 2 -565 38 -861 168 -1384 827 -2594 1949
-3577 367 -321 786 -601 1215 -812 981 -483 2150 -661 3328 -505 1217 161
2308 709 3217 1619 1112 1112 1670 2460 1670 4035 0 939 -188 1758 -582 2545
-282 563 -627 1031 -1118 1520 l-197 195 20 45 c42 95 30 238 -27 329 -34 53
-101 110 -165 139 -46 21 -71 26 -136 26 -98 0 -151 -15 -208 -58 l-44 -34
-159 105 c-685 451 -1437 732 -2254 842 -203 28 -333 39 -570 51 -194 9 -278
10 -500 3z m845 -47 c943 -103 1738 -383 2478 -874 70 -47 130 -89 133 -94 3
-5 -3 -19 -14 -31 -45 -50 -66 -109 -70 -202 -5 -115 18 -181 89 -260 143
-155 369 -161 522 -14 l50 48 118 -110 c127 -119 356 -363 486 -519 482 -576
844 -1245 1048 -1935 335 -1134 312 -2435 -63 -3535 -145 -426 -356 -853 -617
-1245 -361 -544 -871 -1081 -1410 -1483 -825 -616 -1715 -959 -2775 -1068
-210 -21 -759 -30 -975 -15 -996 69 -1824 331 -2614 828 -718 451 -1404 1137
-1858 1858 -456 724 -710 1473 -810 2390 -25 230 -25 970 0 1200 62 571 171
1027 354 1490 264 670 642 1254 1172 1814 985 1043 2214 1645 3586 1760 72 6
148 13 170 15 22 2 222 2 445 1 288 -2 448 -8 555 -19z"/>
<path d="M5870 11283 c-893 -38 -1725 -304 -2439 -781 -472 -315 -925 -740
-1270 -1192 -496 -649 -807 -1389 -925 -2200 -67 -461 -65 -1072 5 -1540 119
-788 415 -1495 889 -2125 510 -677 1149 -1210 1865 -1556 815 -393 1784 -544
2755 -428 567 67 1078 219 1565 464 477 240 897 547 1295 945 1011 1009 1500
2267 1439 3702 -40 952 -300 1759 -809 2512 -332 492 -830 1000 -1304 1330
l-95 67 19 42 c11 23 20 62 20 87 l0 45 72 40 c83 47 168 119 168 144 0 9 -9
27 -20 39 -17 18 -32 22 -86 22 -36 0 -98 -7 -139 -15 l-74 -16 -45 35 c-72
55 -122 69 -223 64 -106 -5 -156 -28 -225 -100 l-47 -49 -128 57 c-691 307
-1446 442 -2263 407z m748 -38 c495 -48 941 -155 1367 -330 144 -59 265 -113
265 -119 0 -2 -7 -23 -15 -46 -8 -23 -15 -54 -15 -69 0 -22 -12 -32 -82 -71
-82 -45 -178 -125 -178 -149 0 -6 12 -24 26 -38 24 -24 30 -25 102 -20 43 3
105 11 140 18 l62 13 38 -36 c68 -66 114 -83 222 -83 112 0 154 17 235 96 l51
49 98 -70 c427 -306 836 -705 1150 -1124 481 -640 782 -1362 895 -2146 40
-274 46 -378 46 -765 0 -462 -19 -674 -95 -1046 -215 -1052 -805 -2011 -1690
-2751 -704 -588 -1528 -951 -2420 -1067 -256 -33 -421 -44 -700 -43 -794 0
-1469 149 -2127 467 -802 388 -1519 1025 -2026 1801 -130 199 -178 284 -283
497 -256 521 -405 1066 -459 1684 -19 220 -20 695 0 913 98 1108 506 2029
1267 2858 439 478 978 883 1513 1137 583 277 1187 424 1890 459 137 7 569 -5
723 -19z m2462 -394 c0 -23 -184 -150 -198 -137 -3 3 -15 31 -28 61 -15 39
-19 58 -11 60 58 21 237 32 237 16z m-856 -283 c3 -18 13 -46 21 -62 9 -16 14
-30 13 -32 -2 -1 -38 -9 -80 -18 -82 -17 -178 -21 -178 -8 0 16 55 61 130 106
41 25 78 46 81 46 4 0 10 -15 13 -32z"/>
<path d="M5475 10359 c-991 -74 -1857 -468 -2588 -1178 -588 -572 -979 -1238
-1162 -1982 -175 -713 -160 -1546 39 -2241 192 -668 537 -1244 1061 -1773 731
-738 1558 -1132 2590 -1237 155 -15 665 -15 820 0 1029 104 1855 498 2585
1231 723 728 1114 1558 1211 2576 17 167 17 622 1 790 -70 725 -272 1315 -649
1890 -172 261 -332 455 -580 703 l-183 184 20 38 c45 89 62 233 39 342 -31
148 -150 296 -290 363 -132 62 -282 67 -424 14 -58 -21 -161 -94 -194 -135
l-19 -24 -133 64 c-452 215 -924 336 -1464 376 -161 11 -518 11 -680 -1z m655
-19 c544 -38 1036 -163 1490 -379 123 -58 118 -50 82 -112 -46 -82 -65 -160
-65 -264 1 -111 27 -199 84 -284 200 -300 621 -323 850 -46 l39 47 182 -184
c339 -340 581 -663 778 -1041 414 -794 552 -1744 390 -2697 -73 -430 -239
-898 -449 -1266 -480 -841 -1282 -1545 -2137 -1878 -547 -212 -1161 -309
-1763 -277 -502 27 -915 113 -1336 278 -669 263 -1279 724 -1773 1342 -99 123
-289 403 -364 536 -269 475 -438 1023 -492 1594 -21 216 -21 663 -1 877 79
836 386 1574 921 2216 722 865 1641 1382 2689 1513 273 34 608 43 875 25z"/>
<path d="M5550 9279 c-610 -66 -1163 -299 -1621 -683 -151 -127 -397 -376
-504 -511 -370 -466 -585 -994 -646 -1585 -19 -183 -17 -563 5 -740 74 -611
299 -1133 689 -1600 129 -155 367 -387 512 -500 562 -439 1190 -650 1927 -650
379 0 674 47 1018 160 764 251 1466 877 1831 1635 321 664 383 1527 163 2270
-103 347 -278 683 -520 995 -111 144 -414 448 -559 563 -107 84 -111 88 -107
121 16 136 -132 238 -253 176 l-40 -21 -165 80 c-302 146 -542 220 -900 277
-123 19 -689 28 -830 13z m681 -19 c402 -40 809 -159 1115 -326 l82 -44 -19
-37 c-28 -54 -25 -120 8 -170 66 -102 199 -112 279 -20 l32 35 113 -91 c140
-111 419 -389 520 -517 400 -508 601 -1011 660 -1653 15 -163 6 -571 -16 -727
-58 -413 -181 -776 -380 -1117 -370 -632 -1008 -1165 -1667 -1391 -373 -129
-704 -178 -1123 -169 -516 12 -914 109 -1340 325 -302 154 -571 356 -835 629
-508 522 -788 1117 -861 1828 -16 156 -16 517 0 670 62 599 273 1121 641 1585
107 135 415 444 549 549 455 360 972 572 1546 636 147 16 555 19 696 5z"/>
<path d="M5590 8614 c-503 -58 -866 -198 -1238 -476 -123 -92 -360 -323 -465
-453 -289 -359 -461 -767 -518 -1230 -19 -150 -16 -494 5 -650 70 -519 292
-971 670 -1362 410 -425 880 -665 1456 -744 125 -17 525 -17 650 0 451 62 860
233 1195 501 202 162 431 412 568 620 86 131 204 372 251 510 135 401 168 836
95 1268 -97 584 -420 1111 -927 1514 -72 57 -78 64 -87 112 -13 66 -48 114
-99 137 -49 22 -95 24 -141 5 -33 -14 -38 -13 -127 28 -206 96 -435 166 -663
201 -105 17 -534 29 -625 19z m610 -39 c229 -35 462 -104 648 -191 53 -24 97
-46 99 -48 2 -2 -7 -21 -22 -41 -51 -76 -27 -185 54 -236 93 -59 195 -29 256
76 10 16 22 9 113 -64 376 -303 659 -701 801 -1126 89 -269 123 -492 123 -800
0 -395 -77 -740 -238 -1065 -122 -247 -251 -426 -458 -639 -403 -412 -876
-649 -1446 -723 -52 -6 -189 -12 -305 -12 -303 0 -521 33 -784 120 -596 195
-1136 671 -1426 1256 -115 231 -183 463 -220 741 -18 138 -20 479 -4 625 48
449 224 867 514 1227 99 123 338 354 460 446 361 271 760 425 1208 469 136 13
503 4 627 -15z"/>
<path d="M5656 7909 c-604 -78 -1130 -430 -1456 -973 -314 -523 -340 -1265
-64 -1832 100 -206 227 -377 415 -559 295 -285 612 -449 1009 -522 122 -22
554 -25 670 -5 420 75 746 242 1048 536 332 322 533 726 581 1168 14 124 14
351 0 476 -55 510 -317 971 -746 1313 -49 39 -77 68 -75 78 18 84 9 123 -41
170 -50 46 -169 34 -197 -20 -9 -17 -15 -16 -86 17 -159 72 -355 125 -567 154
-93 12 -393 11 -491 -1z m484 -20 c190 -22 400 -79 558 -149 l72 -33 0 -49 c0
-62 20 -100 65 -128 43 -27 123 -24 155 5 27 24 42 16 161 -84 456 -382 699
-900 699 -1491 0 -595 -241 -1108 -705 -1498 -293 -247 -640 -393 -1024 -433
-153 -16 -423 -6 -571 20 -288 51 -550 164 -787 339 -120 89 -362 335 -445
452 -167 236 -270 480 -324 772 -21 111 -30 456 -15 584 54 453 245 835 583
1160 317 305 663 474 1083 529 113 15 383 17 495 4z"/>
<path d="M5580 7383 c-318 -25 -618 -169 -865 -417 -219 -219 -340 -441 -396
-726 -29 -147 -31 -395 -5 -540 30 -164 103 -358 184 -484 144 -224 371 -431
597 -544 403 -200 940 -186 1323 35 129 75 199 129 317 248 208 208 329 428
391 715 27 122 27 458 0 579 -71 325 -242 606 -495 813 -84 69 -88 74 -80 101
10 36 -9 88 -42 111 -32 22 -91 20 -122 -4 -14 -11 -29 -20 -33 -20 -5 0 -44
16 -89 35 -190 81 -440 117 -685 98z m440 -47 c63 -13 163 -42 223 -65 98 -39
107 -44 101 -65 -8 -35 20 -92 55 -110 38 -20 64 -20 102 0 37 19 42 16 152
-80 140 -123 266 -289 348 -460 114 -240 155 -533 113 -813 -45 -308 -193
-589 -426 -808 -198 -186 -415 -300 -681 -357 -137 -29 -406 -31 -547 -4 -279
54 -498 169 -708 371 -224 214 -356 453 -412 740 -26 135 -28 386 -4 526 47
280 176 522 394 739 202 202 415 325 660 379 132 29 124 28 330 30 158 1 202
-3 300 -23z"/>
<path d="M5705 6346 l-18 -27 -23 22 -24 22 -11 -32 c-10 -29 -13 -31 -28 -17
-26 23 -41 19 -41 -10 0 -20 -4 -25 -17 -21 -47 13 -48 12 -48 -16 1 -27 -1
-28 -32 -22 -32 6 -33 5 -27 -24 6 -27 4 -30 -22 -33 -20 -2 -28 -8 -25 -18 8
-35 5 -45 -16 -48 -27 -4 -29 -19 -7 -43 14 -15 12 -18 -17 -28 l-32 -11 22
-24 22 -23 -23 -16 -23 -16 25 -22 25 -21 -22 -15 c-31 -21 -29 -30 8 -38 29
-7 30 -7 14 -31 -19 -30 -12 -44 21 -44 24 0 24 -1 10 -22 -23 -32 -20 -38 19
-38 33 0 34 -1 25 -26 -14 -36 -14 -37 23 -30 33 6 33 6 29 -25 -5 -34 0 -35
51 -14 14 6 17 2 17 -24 0 -36 2 -37 35 -15 24 15 25 15 35 -10 12 -32 23 -33
43 -3 l15 22 13 -27 c15 -35 26 -35 41 -3 14 30 19 31 36 5 17 -27 30 -25 38
5 7 29 12 30 38 10 24 -18 36 -11 36 22 0 20 4 24 18 18 37 -15 47 -11 44 18
-4 28 -2 29 28 22 32 -7 32 -6 28 24 -4 28 -2 31 24 31 30 0 34 10 18 41 -9
16 -7 19 14 19 32 0 42 17 22 39 -19 21 -20 31 -3 31 6 0 19 5 27 10 12 8 11
13 -8 33 l-22 24 25 11 c32 15 32 25 -1 42 l-26 14 21 17 c28 23 26 35 -5 43
-25 7 -25 8 -10 31 21 32 21 32 -14 39 -27 5 -30 8 -20 25 16 31 12 41 -18 41
-26 0 -28 3 -24 31 4 30 4 31 -28 24 -30 -7 -32 -6 -28 22 3 29 -7 33 -44 18
-14 -6 -18 -2 -18 17 0 34 -9 40 -34 23 -25 -18 -36 -19 -36 -2 0 6 -5 19 -10
27 -9 13 -13 11 -31 -10 -12 -14 -22 -20 -25 -14 -3 6 -11 19 -18 29 -13 17
-14 17 -31 -9z"/>
</g>
</svg>
