<?xml version="1.0" standalone="no"?>
<!DOCTYPE svg PUBLIC "-//W3C//DTD SVG 20010904//EN"
 "http://www.w3.org/TR/2001/REC-SVG-20010904/DTD/svg10.dtd">
<svg version="1.0" xmlns="http://www.w3.org/2000/svg"
 width="1077.000000pt" height="1280.000000pt" viewBox="0 0 1077.000000 1280.000000"
 preserveAspectRatio="xMidYMid meet">
<g transform="translate(0.000000,1280.000000) scale(0.100000,-0.100000)"
fill="#000000" stroke="none">
<path d="M5804 11835 c-23 -7 -51 -18 -63 -24 -32 -17 -242 -199 -272 -235
-68 -84 -118 -218 -149 -402 -12 -73 -33 -159 -50 -199 -67 -166 -109 -320
-135 -498 -14 -97 -35 -212 -47 -255 -11 -42 -23 -96 -27 -119 -10 -55 -23
-69 -71 -76 -30 -4 -56 -19 -102 -59 -89 -76 -103 -94 -148 -183 -65 -131
-100 -305 -100 -510 0 -55 -5 -120 -12 -145 -6 -25 -11 -88 -12 -140 -2 -72
-7 -103 -21 -130 -13 -23 -20 -57 -21 -100 -1 -61 -11 -156 -35 -315 -5 -38
-14 -104 -19 -145 -5 -41 -17 -102 -28 -135 -11 -33 -36 -130 -56 -215 -29
-125 -38 -190 -46 -338 -6 -100 -17 -219 -25 -265 -20 -112 -19 -289 1 -358
14 -45 15 -82 10 -218 l-7 -163 26 4 c22 5 25 2 25 -23 0 -33 0 -33 -34 -18
-35 16 -106 -5 -142 -42 -34 -36 -27 -54 32 -84 23 -13 53 -42 75 -75 l36 -53
-24 -86 c-24 -87 -25 -140 -2 -167 6 -8 30 -19 53 -25 26 -7 60 -29 93 -60 28
-27 56 -49 61 -49 5 0 21 10 36 21 15 12 28 20 29 18 2 -2 15 -21 31 -42 l28
-38 -12 -137 c-16 -173 -16 -528 0 -691 7 -83 8 -132 2 -145 -6 -12 -13 -29
-16 -38 -3 -10 -13 -18 -23 -18 -30 0 -153 -109 -153 -137 0 -4 -12 -19 -25
-32 -26 -24 -27 -43 -2 -22 16 13 48 4 133 -35 55 -25 79 -47 69 -63 -3 -6 6
-28 20 -49 33 -49 44 -90 51 -177 3 -38 9 -83 14 -100 20 -66 27 -660 17
-1395 -1 -95 2 -156 8 -157 5 -2 8 12 6 30 -5 33 -5 36 5 130 6 54 24 81 24
35 l0 -22 16 22 c35 50 40 32 104 -403 55 -366 38 -429 -167 -641 -51 -52
-102 -94 -148 -119 -87 -48 -202 -139 -220 -175 -8 -15 -15 -50 -16 -78 -2
-42 2 -57 25 -86 15 -21 36 -36 47 -36 12 0 32 -9 46 -20 45 -35 121 -22 167
29 10 11 22 18 26 16 4 -3 29 3 56 12 40 13 70 38 159 129 l110 112 79 11
c135 19 199 61 217 141 7 31 4 72 -11 163 -24 149 -25 277 -1 505 13 129 22
177 34 189 20 20 30 13 32 -24 1 -16 5 -59 9 -98 6 -60 4 -76 -13 -110 -30
-56 -27 -95 8 -129 19 -18 31 -24 36 -17 3 7 4 74 0 150 -4 92 -3 145 4 157 6
11 14 35 19 54 10 41 38 49 36 10 -1 -14 -3 -35 -5 -47 -2 -12 1 -22 6 -23 6
-1 11 7 13 17 7 41 11 46 27 33 25 -21 47 -72 35 -84 -5 -5 -10 -38 -10 -73 0
-71 11 -79 57 -43 14 11 32 20 40 20 18 0 11 23 -34 113 -50 101 -100 258
-119 377 -17 110 -16 199 6 377 14 113 -8 394 -41 534 -18 80 -20 100 -10 167
6 42 13 122 17 177 7 116 71 550 85 576 5 10 26 23 46 29 80 26 133 108 119
183 -4 19 -23 56 -43 82 l-36 48 22 101 c13 56 40 164 62 241 22 77 53 219 70
315 34 202 37 212 52 207 22 -7 85 -100 96 -141 5 -23 12 -147 15 -276 3 -131
12 -277 21 -330 16 -107 19 -289 5 -396 -5 -39 -14 -167 -20 -285 -6 -118 -18
-259 -26 -314 -20 -128 -20 -243 0 -372 19 -119 20 -187 6 -298 -8 -68 -19
-170 -47 -475 -3 -30 2 -97 11 -150 17 -95 34 -505 37 -870 1 -147 -2 -187
-19 -248 -11 -40 -16 -75 -11 -78 5 -3 9 0 9 5 0 6 5 11 11 11 6 0 10 -16 8
-37 -1 -21 -1 -54 0 -73 2 -30 5 -25 20 35 14 56 18 65 22 44 3 -15 -3 -53
-13 -85 -14 -43 -20 -94 -22 -185 -2 -70 -6 -130 -9 -135 -3 -5 -8 -45 -11
-89 -9 -118 -26 -195 -51 -240 -35 -62 -45 -107 -33 -157 6 -24 11 -69 12
-101 1 -74 26 -100 90 -95 36 3 43 7 57 38 l16 34 8 -34 c4 -19 12 -41 17 -47
15 -19 46 -16 65 6 12 14 24 18 47 14 22 -3 36 0 45 11 7 9 26 16 41 16 16 0
30 7 34 15 3 8 16 15 29 15 30 0 43 15 51 60 4 19 12 55 18 80 9 40 8 53 -15
110 -14 36 -31 101 -36 145 -5 45 -14 92 -19 105 -24 64 -23 124 3 210 24 79
25 90 14 153 -9 50 -10 77 -2 100 6 18 19 68 28 112 10 44 21 87 26 96 4 9 27
128 49 265 23 137 50 281 60 319 39 143 49 182 69 277 12 53 21 121 21 150 0
29 12 107 25 173 14 66 25 132 25 148 0 20 7 30 24 37 24 9 24 9 9 71 -11 49
-11 64 -2 70 13 8 20 57 11 73 -3 6 -6 24 -5 40 0 24 4 30 17 28 15 -3 15 0 4
20 -7 13 -17 26 -22 29 -4 4 -3 9 2 13 15 9 -2 63 -26 84 -25 22 -36 106 -16
123 8 6 14 8 14 3 0 -4 5 -3 12 4 8 8 8 15 -1 25 -9 12 -8 16 4 20 8 4 12 13
9 22 -4 8 -1 15 6 15 7 0 10 7 6 15 -3 8 0 18 7 22 23 15 77 213 77 286 0 9
-7 17 -15 17 -8 0 -15 5 -15 11 0 6 9 8 20 4 17 -5 20 -2 20 24 0 18 -5 31
-12 31 -10 0 -10 2 -2 8 7 4 15 43 18 87 16 190 59 585 71 650 7 38 35 162 61
275 28 119 49 234 51 275 1 39 2 73 3 76 0 9 108 55 171 74 86 24 92 35 100
183 4 70 14 159 22 197 9 39 19 99 23 135 3 36 13 73 22 83 12 13 17 55 22
175 5 107 12 170 24 200 10 28 16 70 15 125 -1 61 5 102 21 153 43 133 37 513
-12 758 -19 95 -20 118 -10 180 8 49 8 87 1 121 -14 72 -27 238 -38 480 -6
116 -15 237 -20 270 -21 121 -30 192 -40 306 -6 64 -25 190 -42 280 -16 90
-39 212 -49 272 -32 176 -70 226 -210 271 -45 14 -116 40 -157 57 -59 25 -73
35 -68 48 4 9 11 43 17 76 8 50 6 84 -15 210 -14 83 -37 204 -51 270 -14 66
-32 163 -40 217 -9 53 -30 140 -47 195 -37 115 -148 401 -180 464 -53 105
-163 221 -292 308 -137 92 -195 107 -293 76z m-1044 -4991 c0 -38 5 -50 32
-74 29 -27 32 -34 29 -82 -1 -29 -6 -78 -11 -108 -5 -30 -12 -91 -16 -135 l-6
-80 -23 52 c-13 28 -42 78 -64 112 -44 64 -49 81 -27 81 23 0 29 18 37 115 7
95 24 165 40 165 5 0 9 -21 9 -46z m2220 -943 c0 -6 -4 -13 -10 -16 -5 -3 -10
1 -10 9 0 9 5 16 10 16 6 0 10 -4 10 -9z m-14 -68 c-11 -11 -19 6 -11 24 8 17
8 17 12 0 3 -10 2 -21 -1 -24z m-315 -1586 c-8 -8 -11 -7 -11 4 0 20 13 34 18
19 3 -7 -1 -17 -7 -23z m-65 -134 c-11 -11 -19 6 -11 24 8 17 8 17 12 0 3 -10
2 -21 -1 -24z m-29 -185 c-3 -8 -6 -5 -6 6 -1 11 2 17 5 13 3 -3 4 -12 1 -19z
m53 -289 c0 -6 -4 -7 -10 -4 -5 3 -10 11 -10 16 0 6 5 7 10 4 6 -3 10 -11 10
-16z"/>
<path d="M6610 3691 c0 -6 5 -13 10 -16 6 -3 10 1 10 9 0 9 -4 16 -10 16 -5 0
-10 -4 -10 -9z"/>
<path d="M6630 3210 c0 -5 5 -10 10 -10 6 0 10 5 10 10 0 6 -4 10 -10 10 -5 0
-10 -4 -10 -10z"/>
</g>
</svg>
