<?xml version="1.0" standalone="no"?>
<!DOCTYPE svg PUBLIC "-//W3C//DTD SVG 20010904//EN"
 "http://www.w3.org/TR/2001/REC-SVG-20010904/DTD/svg10.dtd">
<svg version="1.0" xmlns="http://www.w3.org/2000/svg"
 width="845.000000pt" height="1280.000000pt" viewBox="0 0 845.000000 1280.000000"
 preserveAspectRatio="xMidYMid meet">
<g transform="translate(0.000000,1280.000000) scale(0.100000,-0.100000)"
fill="#000000" stroke="none">
<path d="M4252 11954 c-85 -18 -197 -78 -252 -135 -50 -51 -95 -133 -115 -210
-19 -70 -29 -293 -16 -349 13 -57 2 -69 -38 -41 -16 12 -55 33 -86 47 -43 20
-59 23 -70 14 -11 -9 -7 -24 26 -90 21 -44 48 -111 58 -150 12 -43 38 -98 65
-139 38 -57 52 -70 80 -75 28 -5 38 -14 54 -49 31 -68 40 -105 52 -221 10 -99
10 -110 -7 -129 -25 -28 -297 -240 -393 -307 -46 -32 -118 -70 -172 -90 -186
-70 -283 -161 -373 -353 -62 -131 -76 -207 -82 -442 -5 -200 -6 -216 -38 -330
-19 -66 -37 -142 -40 -170 -37 -345 -49 -393 -138 -573 -100 -200 -135 -314
-148 -481 -6 -69 -16 -155 -24 -191 -8 -36 -21 -139 -30 -230 -30 -318 -56
-522 -77 -598 -12 -42 -24 -120 -29 -172 -4 -55 -16 -116 -27 -145 -39 -97
-81 -185 -106 -222 -17 -24 -26 -51 -26 -75 0 -20 -4 -40 -10 -43 -17 -10 -12
-34 24 -108 21 -43 63 -104 106 -152 39 -44 73 -91 76 -105 12 -53 16 -61 38
-75 20 -13 31 -13 101 5 43 11 83 24 89 29 6 5 23 32 36 60 14 28 27 51 30 51
3 0 15 -23 27 -50 14 -33 30 -53 47 -60 57 -21 73 12 57 119 -6 38 -11 124
-11 190 0 106 -4 135 -31 229 -17 59 -51 148 -75 198 -26 53 -44 104 -44 125
0 19 11 84 24 144 42 190 98 339 216 568 38 75 81 165 95 200 39 97 125 452
135 556 10 96 46 245 82 336 30 79 162 355 169 355 13 0 40 -146 49 -260 5
-63 26 -191 45 -285 49 -227 56 -389 25 -555 -11 -63 -25 -158 -31 -210 -10
-97 -26 -143 -67 -194 -37 -46 -93 -167 -83 -180 16 -21 23 -84 9 -89 -10 -3
-9 -9 4 -23 17 -19 14 -47 -13 -139 -4 -16 -11 -100 -15 -185 -5 -117 -13
-174 -30 -232 -30 -102 -41 -183 -59 -433 -18 -249 -28 -339 -55 -500 -52
-315 -53 -329 -55 -815 -3 -454 -7 -543 -40 -800 -22 -175 -23 -184 -35 -216
-6 -15 -13 -55 -15 -88 -2 -38 -15 -89 -35 -136 -20 -47 -29 -83 -25 -98 7
-28 -10 -86 -36 -123 -29 -41 -52 -166 -40 -209 6 -19 13 -93 16 -165 8 -194
5 -867 -5 -954 -5 -46 -5 -97 1 -129 6 -29 9 -74 7 -100 -3 -42 -6 -47 -28
-50 -14 -2 -35 -13 -48 -25 -17 -16 -25 -18 -34 -9 -18 18 -36 15 -43 -7 -4
-13 -12 -17 -25 -14 -14 4 -20 0 -20 -10 0 -20 -47 -57 -71 -57 -11 0 -20 -6
-20 -12 -1 -7 -2 -20 -3 -28 -1 -10 -15 -15 -54 -15 -42 -1 -57 4 -74 22 -24
26 -40 28 -68 11 -15 -10 -22 -9 -38 5 -23 21 -39 22 -59 1 -9 -8 -22 -13 -29
-10 -8 3 -20 9 -28 12 -8 3 -16 -3 -19 -17 -5 -19 -8 -21 -22 -9 -15 12 -19
11 -36 -10 -10 -14 -19 -31 -19 -37 0 -15 16 -17 25 -3 10 15 35 12 35 -5 0
-8 -4 -15 -10 -15 -5 0 -10 -5 -10 -11 0 -6 -10 -19 -22 -29 -17 -14 -20 -21
-11 -31 9 -11 8 -18 -1 -32 -16 -21 -23 -21 -42 -2 -18 18 -38 20 -28 3 5 -8
0 -9 -14 -6 -12 4 -22 3 -22 -2 0 -4 -16 -11 -35 -14 -31 -6 -65 -37 -65 -58
0 -5 11 -6 24 -2 16 4 25 1 30 -11 5 -14 2 -16 -21 -11 -20 5 -24 4 -13 -3 21
-14 7 -23 -37 -24 -21 0 -43 -4 -50 -10 -8 -6 -24 -3 -44 7 -45 23 -57 20 -51
-9 3 -18 0 -25 -11 -25 -11 0 -13 6 -9 22 3 14 2 19 -6 14 -7 -4 -12 -14 -12
-22 0 -8 -5 -14 -12 -14 -6 0 -22 -10 -35 -22 -21 -20 -22 -23 -7 -40 14 -14
14 -20 4 -33 -10 -12 -10 -18 0 -30 21 -25 -4 -44 -33 -26 -22 14 -22 14 -4
-7 14 -15 16 -25 9 -39 -9 -16 -6 -21 19 -32 37 -16 37 -40 -1 -54 -19 -7 -28
-17 -25 -25 3 -8 5 -18 5 -24 0 -6 7 -7 16 -4 14 5 15 4 5 -8 -7 -8 -10 -20
-6 -26 10 -17 -5 -52 -21 -46 -8 3 -14 1 -14 -4 0 -6 6 -10 13 -10 14 0 57
-43 57 -58 0 -5 7 -12 15 -16 17 -6 20 -39 5 -66 -7 -14 -6 -21 4 -27 7 -4 15
-17 18 -28 3 -16 10 -19 39 -17 23 2 40 -2 49 -13 10 -12 24 -14 59 -9 65 8
88 -10 72 -56 -6 -18 -9 -35 -7 -37 6 -7 46 35 46 47 0 14 32 63 47 73 7 4 10
14 7 22 -4 8 -1 15 5 15 6 0 16 -12 21 -26 10 -26 48 -31 42 -5 -4 17 44 6 65
-14 18 -19 23 -19 52 1 12 9 35 18 49 19 15 1 36 6 46 11 13 5 21 3 24 -4 5
-17 27 -15 42 3 21 25 141 11 125 -15 -3 -5 6 -17 20 -26 14 -9 28 -26 31 -38
3 -12 18 -27 35 -35 16 -7 29 -19 29 -27 0 -16 12 -18 26 -4 7 7 18 5 35 -8
13 -11 30 -17 37 -14 7 2 16 -5 19 -17 6 -24 33 -29 33 -6 0 19 14 19 30 0 7
-8 17 -12 24 -8 6 4 16 8 21 9 24 3 31 5 49 19 20 15 20 15 0 29 -10 8 -16 18
-12 21 10 10 54 -2 72 -20 20 -20 26 -19 26 6 0 11 5 17 10 14 6 -4 8 -11 5
-16 -4 -5 4 -9 15 -9 13 0 24 -8 27 -19 3 -11 17 -22 32 -26 14 -3 31 -15 36
-27 11 -25 64 -43 79 -28 7 7 1 10 -16 10 -25 0 -38 16 -38 47 0 11 7 13 33 8
17 -4 38 -12 45 -18 11 -8 16 -7 23 6 6 9 15 17 21 17 6 0 19 7 29 16 11 10
37 16 74 16 44 1 58 5 66 19 15 29 57 25 69 -7 13 -34 15 -32 -25 -40 -19 -3
-33 -9 -31 -13 6 -10 75 -1 82 10 3 5 14 5 25 -1 11 -6 24 -8 29 -5 18 11 11
35 -12 44 -22 8 -22 9 -4 17 13 5 23 1 35 -14 11 -14 20 -19 30 -13 15 9 49 4
68 -12 9 -6 15 -4 19 7 3 9 11 16 18 16 20 -1 86 -70 86 -90 0 -14 7 -20 23
-20 13 0 33 -13 47 -30 l25 -29 717 -1 c596 0 716 2 712 13 -3 8 2 20 11 27 8
7 15 19 15 27 0 11 7 14 22 10 12 -4 28 -1 35 5 7 5 20 8 28 4 13 -4 14 -10 5
-26 -7 -13 -7 -20 0 -20 5 0 10 6 10 14 0 17 24 28 45 20 10 -4 15 0 15 11 0
9 7 23 15 31 17 17 48 5 59 -22 6 -16 8 -15 22 4 8 12 22 22 30 22 8 0 14 5
14 10 0 6 11 10 25 10 18 0 23 -4 18 -16 -4 -12 -2 -15 8 -12 8 3 14 11 15 19
3 35 18 56 52 71 22 10 29 17 19 17 -11 1 -15 6 -11 12 4 6 20 8 40 4 27 -5
34 -3 34 10 0 8 11 20 25 25 23 9 24 12 13 30 -11 17 -11 22 0 29 8 4 13 12
12 17 -1 5 4 10 10 12 6 2 11 -4 10 -14 -1 -11 2 -30 6 -44 8 -22 9 -20 15 20
4 32 3 47 -7 53 -18 10 -6 37 16 37 19 0 50 50 50 81 0 19 58 89 74 89 17 0
45 32 39 46 -3 8 1 14 11 14 9 0 19 6 22 14 4 11 20 14 58 11 54 -3 79 4 74
21 -1 5 8 24 22 42 18 24 31 32 50 30 25 -3 26 -1 29 49 l1 26 25 -23 25 -23
0 25 c0 17 7 27 20 31 22 6 27 36 8 56 -11 10 -8 16 11 30 l24 18 -27 7 c-14
3 -26 13 -26 21 0 11 5 12 24 5 21 -8 24 -6 22 16 -1 20 -3 22 -12 10 -6 -9
-15 -12 -20 -7 -5 5 -18 11 -29 13 -17 3 -15 6 12 18 17 8 34 22 36 31 4 14
-1 17 -30 14 -33 -3 -34 -3 -14 12 12 8 30 12 40 8 10 -3 23 1 30 8 9 11 7 20
-8 38 -17 21 -22 22 -40 11 -18 -10 -24 -9 -39 6 -25 25 -17 52 16 52 20 0 23
3 13 9 -9 6 -22 6 -33 0 -10 -6 -28 -7 -38 -4 -16 5 -20 2 -20 -14 0 -12 -4
-21 -9 -21 -14 0 -33 28 -26 40 4 6 -5 10 -23 10 -30 0 -51 24 -29 34 7 3 -1
3 -18 -1 -16 -3 -36 -10 -42 -16 -15 -11 -43 8 -43 29 0 8 -4 14 -9 14 -5 0
-13 9 -16 20 -4 11 -15 20 -26 20 -15 0 -19 5 -15 18 5 13 -3 20 -32 29 l-37
11 24 -19 c29 -24 10 -35 -40 -21 -27 7 -33 13 -32 30 2 17 -3 22 -21 22 -42
0 -56 10 -56 43 l0 30 25 -23 c31 -29 37 -24 20 18 -13 30 -16 31 -35 20 -18
-11 -23 -10 -41 12 -14 16 -19 19 -15 8 7 -25 -11 -23 -24 2 -14 26 -30 26
-37 -1 -5 -18 -11 -20 -47 -15 -23 3 -47 2 -55 -3 -10 -7 -18 -5 -26 5 -10 14
-14 14 -40 0 -17 -8 -38 -17 -47 -20 -10 -3 -18 -15 -18 -26 0 -14 -7 -20 -22
-22 -69 -4 -88 -2 -88 10 0 6 8 12 19 12 10 0 25 7 32 17 13 15 10 16 -35 10
-27 -4 -55 -7 -62 -7 -8 0 -14 -6 -14 -14 0 -7 -12 -21 -26 -31 -25 -16 -26
-16 -19 4 5 15 1 23 -12 28 -10 4 -21 11 -25 17 -4 6 -17 11 -30 11 -20 0 -23
5 -25 63 -1 34 -7 71 -13 82 -15 28 -12 199 6 357 8 76 17 181 18 233 2 53 8
111 14 130 12 39 32 139 62 310 11 63 25 138 31 166 7 29 9 65 5 80 -4 16 -11
47 -16 69 -5 22 -14 148 -19 280 -10 245 -21 307 -68 398 -8 15 -12 36 -9 45
18 56 29 201 36 467 4 165 15 359 24 430 8 72 20 252 26 400 6 149 16 286 21
305 8 28 7 43 -8 75 -16 35 -18 72 -18 315 -1 195 -7 326 -20 450 -10 96 -20
236 -21 310 -3 144 -17 269 -35 302 -6 11 -8 30 -5 43 4 17 0 30 -15 44 -21
19 -21 31 -4 74 6 13 2 17 -15 17 -21 0 -22 3 -16 46 5 39 3 47 -12 51 -10 2
-35 31 -57 64 -21 32 -41 59 -44 59 -3 0 -6 172 -6 383 0 276 3 393 12 422 42
135 90 381 95 485 l3 55 41 -80 c86 -165 124 -291 124 -405 0 -51 21 -132 87
-335 49 -152 107 -278 170 -371 148 -220 206 -358 259 -619 27 -133 27 -156
-1 -255 -10 -38 -15 -101 -15 -208 0 -149 1 -156 35 -259 20 -58 41 -129 46
-157 12 -54 33 -96 50 -96 5 0 21 11 34 25 21 20 25 34 25 82 0 32 -7 80 -15
107 -22 74 -20 118 9 145 28 27 60 23 109 -11 l28 -20 -20 -22 c-30 -32 -26
-48 24 -104 54 -60 58 -74 9 -37 -30 23 -41 26 -63 19 -39 -14 -36 -35 9 -87
l42 -47 72 0 c83 0 106 15 106 67 0 22 7 36 25 47 15 10 28 32 35 58 21 89 43
155 68 205 21 45 23 56 13 81 -7 16 -9 41 -6 55 6 21 0 32 -36 64 -111 99
-221 215 -234 247 -9 20 -18 61 -21 92 -2 31 -12 73 -20 93 -44 99 -69 210
-115 501 -11 69 -32 175 -46 235 -14 61 -33 166 -43 235 -30 217 -64 320 -164
497 -85 152 -90 172 -156 586 -27 170 -30 203 -24 325 16 325 -43 553 -190
731 -83 101 -151 139 -349 196 -48 14 -116 39 -150 56 -88 45 -233 144 -295
203 -43 41 -52 54 -47 74 3 13 12 88 19 166 8 79 22 169 32 200 16 51 22 59
60 75 25 12 45 28 49 42 4 13 20 43 35 68 18 29 31 68 35 106 6 49 37 152 68
225 4 8 3 21 -2 29 -8 13 -16 12 -52 -5 -24 -10 -65 -36 -91 -57 -52 -41 -66
-36 -55 21 8 41 -29 291 -53 355 -12 31 -40 82 -64 114 -67 92 -137 137 -267
173 -84 23 -146 24 -237 4z m-1498 -6033 c17 -18 21 -36 30 -137 l5 -52 -30
11 c-20 8 -28 16 -23 27 18 45 16 78 -5 92 -14 10 -19 21 -15 32 4 11 -1 22
-12 31 -18 14 -18 14 7 15 14 0 34 -8 43 -19z m1678 -121 c18 -11 41 -20 50
-20 12 0 19 -10 22 -32 19 -138 26 -217 26 -301 0 -53 7 -143 16 -200 11 -75
14 -136 9 -232 -7 -135 -6 -143 40 -298 22 -76 26 -115 34 -310 7 -193 11
-229 30 -276 19 -46 21 -65 15 -136 -6 -82 -6 -83 31 -150 59 -104 66 -160 43
-307 -42 -268 -34 -394 47 -793 18 -93 41 -237 51 -320 9 -82 20 -175 24 -205
5 -30 9 -95 9 -143 1 -52 7 -99 14 -115 8 -15 19 -54 26 -87 7 -33 18 -66 24
-73 6 -8 10 -49 9 -95 -1 -45 -2 -101 -3 -125 0 -33 -4 -42 -15 -38 -8 3 -14
1 -14 -5 0 -6 -12 -9 -27 -7 -20 2 -29 9 -31 26 -4 26 -22 20 -22 -9 0 -26
-35 -25 -57 1 -10 11 -25 20 -34 20 -9 0 -22 7 -29 15 -7 8 -16 15 -21 15 -5
0 -18 9 -29 20 -21 21 -70 28 -70 9 0 -6 -10 -9 -22 -7 -19 2 -22 8 -20 34 3
32 -29 100 -41 87 -4 -3 -7 1 -7 10 0 9 -6 17 -12 17 -7 0 -24 9 -38 20 -30
23 -60 26 -60 5 0 -18 -5 -18 -31 -5 -15 9 -21 7 -25 -5 -3 -8 -12 -15 -19
-15 -16 0 -27 27 -15 35 6 4 10 12 10 18 0 7 -9 1 -19 -12 -12 -15 -24 -22
-34 -18 -12 4 -21 -4 -33 -28 -9 -19 -20 -35 -24 -35 -5 0 -20 15 -34 32 -19
24 -26 28 -26 16 0 -10 -4 -18 -10 -18 -5 0 -6 -8 -3 -17 6 -16 5 -17 -12 -3
-14 11 -19 12 -22 3 -3 -7 -16 -13 -30 -13 -18 0 -24 4 -19 15 3 9 0 15 -9 15
-8 0 -15 -9 -15 -20 0 -11 -4 -20 -10 -20 -5 0 -10 -6 -10 -14 0 -8 -16 -20
-35 -27 -21 -8 -34 -18 -31 -26 4 -9 -3 -11 -24 -6 -24 4 -30 2 -30 -11 0 -22
-49 -41 -71 -27 -9 5 -26 7 -38 4 -25 -6 -30 24 -6 33 8 4 15 10 15 15 0 5 -9
4 -20 -3 -16 -10 -24 -10 -42 1 -16 10 -23 10 -26 2 -2 -6 -10 -11 -18 -11 -8
0 -14 -5 -14 -12 0 -8 -6 -7 -16 4 -9 9 -16 28 -16 42 0 29 0 28 -22 20 -9 -3
-16 -16 -16 -28 -1 -21 -1 -21 -12 -1 -6 11 -16 23 -21 27 -6 3 -8 34 -4 75 6
77 83 464 129 653 35 143 56 260 68 375 4 44 16 132 25 194 17 114 17 134 -5
264 l-12 67 39 68 c84 146 109 218 147 417 51 260 86 417 147 645 52 199 119
499 139 625 39 255 72 410 95 455 12 24 55 234 55 271 0 13 5 11 42 -11z
m-1768 -119 c3 -5 -1 -11 -9 -15 -15 -6 -29 7 -18 18 9 9 21 8 27 -3z m1836
-3941 c0 -5 -5 -10 -11 -10 -5 0 -7 5 -4 10 3 6 8 10 11 10 2 0 4 -4 4 -10z
m180 -156 c0 -2 -9 0 -20 6 -11 6 -20 13 -20 16 0 2 9 0 20 -6 11 -6 20 -13
20 -16z m1205 -74 c3 -5 1 -10 -4 -10 -6 0 -11 5 -11 10 0 6 2 10 4 10 3 0 8
-4 11 -10z m-75 -10 c0 -5 -2 -10 -4 -10 -3 0 -8 5 -11 10 -3 6 -1 10 4 10 6
0 11 -4 11 -10z m-240 -45 c0 -8 -4 -15 -10 -15 -5 0 -10 7 -10 15 0 8 5 15
10 15 6 0 10 -7 10 -15z m560 -77 c0 -12 -14 -10 -28 4 -19 19 -14 29 8 16 11
-7 20 -16 20 -20z m135 -58 c3 -6 -1 -7 -9 -4 -18 7 -21 14 -7 14 6 0 13 -4
16 -10z m-3741 -49 c3 -5 -1 -11 -9 -15 -9 -3 -15 0 -15 9 0 16 16 20 24 6z
m-154 -45 c0 -16 -18 -31 -27 -22 -8 8 5 36 17 36 5 0 10 -6 10 -14z m-360
-290 c0 -3 -4 -8 -10 -11 -5 -3 -10 -1 -10 4 0 6 5 11 10 11 6 0 10 -2 10 -4z
m60 -6 c0 -5 -4 -10 -10 -10 -5 0 -10 5 -10 10 0 6 5 10 10 10 6 0 10 -4 10
-10z m-100 -10 c0 -5 -4 -10 -10 -10 -5 0 -10 5 -10 10 0 6 5 10 10 10 6 0 10
-4 10 -10z m82 -32 c-6 -6 -15 -8 -19 -4 -4 4 -1 11 7 16 19 12 27 3 12 -12z
m4516 3 c3 -8 -1 -12 -9 -9 -7 2 -15 10 -17 17 -3 8 1 12 9 9 7 -2 15 -10 17
-17z m-153 -141 c3 -5 1 -10 -4 -10 -6 0 -11 5 -11 10 0 6 2 10 4 10 3 0 8 -4
11 -10z m-3965 -400 c0 -5 -4 -10 -10 -10 -5 0 -10 5 -10 10 0 6 5 10 10 10 6
0 10 -4 10 -10z"/>
<path d="M4190 1850 c20 -13 50 -13 50 0 0 6 -15 10 -32 10 -25 0 -29 -3 -18
-10z"/>
<path d="M3695 1740 c10 -11 23 -20 28 -20 6 0 2 9 -8 20 -10 11 -23 20 -28
20 -6 0 -2 -9 8 -20z"/>
<path d="M6256 1471 c-3 -5 1 -12 10 -15 27 -11 37 -7 24 9 -14 17 -26 19 -34
6z"/>
<path d="M6306 1433 c-7 -7 3 -55 15 -67 5 -6 9 -1 9 12 0 12 5 22 10 22 6 0
10 3 10 8 0 11 -37 32 -44 25z"/>
<path d="M6535 1300 l-20 -9 20 0 c11 0 29 4 40 9 l20 9 -20 0 c-11 0 -29 -4
-40 -9z"/>
<path d="M2196 1157 c3 -10 9 -15 12 -12 3 3 0 11 -7 18 -10 9 -11 8 -5 -6z"/>
<path d="M2106 1121 c-3 -5 5 -8 19 -8 14 0 22 3 19 8 -3 5 -11 9 -19 9 -8 0
-16 -4 -19 -9z"/>
<path d="M1955 1000 c3 -5 13 -10 21 -10 8 0 12 5 9 10 -3 6 -13 10 -21 10 -8
0 -12 -4 -9 -10z"/>
<path d="M1701 716 c-6 -16 -10 -31 -7 -33 7 -8 28 37 23 50 -3 7 -10 -1 -16
-17z"/>
<path d="M6462 703 c-6 -2 -10 -9 -6 -14 8 -14 21 -11 28 6 6 15 1 17 -22 8z"/>
<path d="M2570 320 c0 -5 7 -10 16 -10 8 0 12 5 9 10 -3 6 -10 10 -16 10 -5 0
-9 -4 -9 -10z"/>
<path d="M2199 273 c-13 -16 -12 -17 4 -4 16 13 21 21 13 21 -2 0 -10 -8 -17
-17z"/>
<path d="M1877 260 c4 -4 21 -11 37 -14 25 -6 28 -5 18 7 -7 8 -24 15 -38 15
-14 0 -22 -4 -17 -8z"/>
<path d="M2047 243 c-4 -3 -7 -11 -7 -17 0 -6 5 -5 12 2 6 6 9 14 7 17 -3 3
-9 2 -12 -2z"/>
<path d="M2160 219 c0 -11 5 -17 10 -14 6 3 10 13 10 21 0 8 -4 14 -10 14 -5
0 -10 -9 -10 -21z"/>
<path d="M5680 50 c20 -13 47 -13 55 0 4 6 -9 10 -32 10 -28 0 -34 -3 -23 -10z"/>
</g>
</svg>
