<?xml version="1.0" standalone="no"?>
<!DOCTYPE svg PUBLIC "-//W3C//DTD SVG 20010904//EN"
 "http://www.w3.org/TR/2001/REC-SVG-20010904/DTD/svg10.dtd">
<svg version="1.0" xmlns="http://www.w3.org/2000/svg"
 width="1170.000000pt" height="1280.000000pt" viewBox="0 0 1170.000000 1280.000000"
 preserveAspectRatio="xMidYMid meet">
<g transform="translate(0.000000,1280.000000) scale(0.100000,-0.100000)"
fill="#000000" stroke="none">
<path d="M2015 12449 c-467 -137 -867 -254 -888 -259 -35 -10 -37 -13 -33 -43
3 -18 8 -57 11 -88 l6 -56 126 -39 c69 -21 127 -43 129 -49 4 -12 194 -2026
194 -2060 0 -19 -10 -28 -45 -44 -37 -16 -45 -25 -45 -46 0 -41 16 -61 65 -79
25 -10 45 -20 45 -22 0 -3 22 -241 50 -531 27 -289 49 -527 47 -528 -1 -1
-283 -120 -627 -264 -344 -145 -652 -280 -685 -302 -104 -67 -168 -174 -186
-314 -8 -59 -3 -117 31 -375 23 -168 45 -309 50 -314 5 -5 141 -77 302 -161
l293 -151 59 -660 59 -660 -30 -64 c-17 -36 -33 -72 -36 -80 -3 -8 -91 -60
-196 -115 -152 -79 -191 -103 -191 -119 0 -11 14 -129 31 -261 23 -176 36
-244 48 -256 21 -22 383 -241 397 -242 7 0 326 176 711 391 l700 392 2664
-1461 c1465 -804 2665 -1462 2667 -1463 1 -2 -6 -103 -17 -225 l-20 -221 -45
-53 c-25 -30 -52 -69 -60 -87 -10 -24 -77 -87 -222 -210 -114 -96 -211 -182
-215 -190 -4 -8 -12 -143 -17 -300 -9 -261 -9 -286 6 -301 28 -26 606 -373
623 -373 9 -1 582 513 1272 1141 961 875 1257 1149 1261 1170 3 15 35 267 71
558 35 292 132 1077 215 1745 311 2522 384 3108 486 3930 57 465 114 924 125
1020 12 96 25 179 31 185 5 5 77 48 161 95 l152 86 14 97 c7 54 11 100 9 102
-2 3 -821 230 -1819 505 -998 276 -2637 729 -3644 1006 -3014 832 -3238 894
-3239 893 -1 -1 -383 -113 -851 -250z m-426 -6105 c176 -91 321 -171 321 -178
0 -7 7 -83 16 -170 8 -86 14 -168 12 -182 -3 -22 -36 -43 -268 -164 -146 -77
-267 -136 -271 -132 -3 4 -21 115 -38 247 -18 132 -48 349 -67 483 -35 252
-36 262 -30 262 2 0 148 -75 325 -166z"/>
</g>
</svg>
