<?xml version="1.0" standalone="no"?>
<!DOCTYPE svg PUBLIC "-//W3C//DTD SVG 20010904//EN"
 "http://www.w3.org/TR/2001/REC-SVG-20010904/DTD/svg10.dtd">
<svg version="1.0" xmlns="http://www.w3.org/2000/svg"
 width="1280.000000pt" height="731.000000pt" viewBox="0 0 1280.000000 731.000000"
 preserveAspectRatio="xMidYMid meet">
<g transform="translate(0.000000,731.000000) scale(0.100000,-0.100000)"
fill="#000000" stroke="none">
<path d="M4678 6848 c-24 -19 -31 -20 -72 -9 -25 6 -61 11 -80 11 -35 0 -35 0
-24 -31 16 -47 2 -54 -107 -52 -88 2 -96 0 -113 -22 -13 -16 -23 -21 -33 -14
-19 12 -58 11 -119 -2 -40 -8 -53 -16 -60 -35 -11 -28 -26 -30 -53 -6 -14 12
-21 14 -24 5 -12 -33 -44 -55 -114 -76 -42 -12 -77 -26 -78 -32 -1 -5 17 -11
39 -13 22 -2 40 -6 39 -10 0 -4 -10 -23 -23 -42 -21 -31 -33 -37 -118 -60 -53
-14 -97 -29 -99 -35 -2 -5 31 -15 73 -21 43 -5 80 -13 84 -16 12 -12 -6 -25
-51 -38 -58 -16 -63 -25 -26 -45 35 -17 132 -20 235 -5 38 6 77 8 86 5 19 -6
82 -94 135 -188 25 -46 40 -65 46 -56 6 10 11 10 24 -1 32 -26 38 -49 20 -77
-9 -13 -15 -26 -13 -27 2 -1 15 -10 31 -19 31 -20 33 -37 12 -98 -11 -29 -12
-46 -5 -53 13 -13 13 -53 -1 -61 -5 -4 -15 -19 -20 -33 -8 -22 -6 -29 16 -49
14 -13 25 -34 25 -46 0 -26 31 -80 69 -121 25 -27 119 -76 147 -76 21 0 54 51
54 84 0 48 43 128 89 168 23 20 68 45 101 57 49 18 63 28 82 63 32 58 67 75
199 99 145 26 199 39 199 50 0 4 -27 11 -60 15 -36 4 -60 11 -60 18 0 13 58
76 69 76 3 0 23 -9 44 -20 36 -19 38 -20 35 -3 -2 12 -26 27 -70 43 -61 23
-69 29 -83 65 -20 54 -20 55 20 55 22 0 38 6 41 15 8 21 42 19 87 -5 47 -25
49 -25 41 5 -5 19 -2 25 11 25 9 0 26 5 37 11 19 10 19 12 -10 30 -25 15 -72
82 -72 103 0 2 16 10 35 16 39 13 38 11 21 60 -13 34 -12 37 26 83 24 28 34
47 26 47 -8 0 -23 6 -33 14 -16 12 -6 18 103 60 174 68 166 75 -51 52 -96 -10
-125 -10 -155 1 -52 18 -69 17 -202 -17 -189 -48 -238 -36 -107 25 78 37 162
62 245 72 28 3 52 10 52 15 0 4 -11 6 -25 2 -18 -4 -30 1 -50 22 l-25 27 -118
-12 c-64 -6 -134 -14 -154 -17 -44 -7 -52 12 -15 36 21 14 21 15 -23 21 -80
13 -123 9 -152 -13z"/>
<path d="M3303 6850 c-12 -5 -29 -22 -37 -39 -15 -28 -25 -32 -136 -57 -66
-15 -120 -31 -120 -35 0 -5 16 -20 35 -34 24 -19 44 -26 67 -24 18 2 58 -3 88
-10 52 -12 60 -12 131 13 42 14 83 26 92 26 48 0 -14 -58 -90 -86 -21 -7 -71
-13 -110 -14 -96 0 -96 -18 -3 -56 38 -16 68 -33 67 -39 -7 -20 -58 -37 -94
-30 -36 6 -52 20 -112 94 -19 24 -56 53 -86 68 l-53 26 -56 -44 -56 -44 77
-26 c78 -26 78 -26 50 -39 -34 -17 -32 -41 6 -54 23 -8 37 -6 73 14 45 23 46
23 79 6 40 -22 75 -53 75 -66 0 -16 -52 -11 -72 7 -22 20 -33 12 -19 -15 6
-11 8 -27 5 -35 -4 -11 9 -16 57 -21 88 -9 219 -8 219 2 0 5 -18 17 -40 27
-22 10 -40 21 -40 24 0 4 27 12 61 18 55 11 158 63 134 69 -6 1 -22 5 -37 8
-39 9 -35 19 17 54 37 24 52 29 92 25 43 -3 56 1 121 40 l72 44 -26 12 c-15 6
-23 15 -18 20 5 4 54 27 109 50 55 24 104 47 109 51 10 10 -45 40 -73 40 -11
0 -57 9 -103 20 -67 16 -116 20 -258 19 -96 0 -185 -4 -197 -9z"/>
<path d="M7568 6648 c-16 -5 -28 -13 -28 -18 0 -11 91 -62 98 -55 3 3 -3 11
-13 19 -13 9 -16 20 -11 39 7 30 0 32 -46 15z"/>
<path d="M7669 6642 c-14 -6 -12 -13 17 -46 19 -22 37 -36 41 -33 3 4 -1 13
-11 20 -16 12 -16 14 9 25 22 10 30 9 48 -3 24 -17 74 -20 96 -6 12 8 8 11
-15 16 -16 4 -51 13 -78 21 -53 15 -81 17 -107 6z"/>
<path d="M6798 6603 c-9 -3 -24 -16 -33 -30 -14 -21 -15 -27 -4 -35 33 -22
146 19 121 44 -12 12 -64 25 -84 21z"/>
<path d="M9136 6561 l-29 -19 84 -26 c46 -15 92 -29 102 -32 14 -5 17 1 17 41
l0 45 -25 -16 c-24 -16 -27 -16 -49 5 -28 26 -62 27 -100 2z"/>
<path d="M6437 6563 c-12 -3 -15 -8 -8 -16 5 -7 11 -25 13 -42 3 -33 3 -33 96
-19 45 7 51 1 26 -27 -31 -34 -24 -119 10 -119 6 0 34 35 62 78 l50 77 -55 28
c-64 32 -82 33 -116 11 -28 -18 -45 -12 -45 17 0 19 -2 20 -33 12z"/>
<path d="M2520 6522 c0 -4 38 -27 85 -50 63 -31 83 -38 76 -25 -14 28 -43 51
-84 68 -39 16 -77 20 -77 7z"/>
<path d="M9386 6489 c-30 -35 -34 -54 -10 -45 9 4 37 11 63 18 62 15 69 23 33
42 -44 22 -57 20 -86 -15z"/>
<path d="M9059 6400 l-24 -19 70 0 70 0 -24 19 c-13 11 -33 20 -46 20 -13 0
-33 -9 -46 -20z"/>
<path d="M9443 6395 c-12 -9 -25 -31 -29 -50 -5 -27 -12 -36 -33 -41 -14 -3
-33 -8 -41 -10 -8 -2 -80 -11 -160 -19 -139 -15 -245 -36 -282 -56 -16 -9 -16
-12 4 -45 11 -19 19 -36 17 -38 -2 -1 -42 1 -89 4 -87 8 -127 -1 -113 -23 5
-7 26 -38 47 -70 36 -52 38 -59 24 -73 -14 -14 -17 -14 -29 1 -46 57 -79 85
-102 85 -54 0 -74 -24 -42 -50 25 -21 17 -32 -17 -25 -20 4 -46 21 -66 43 -32
36 -34 36 -48 18 -17 -24 -18 -47 -2 -97 9 -33 15 -39 38 -39 36 0 73 -30 104
-86 32 -57 32 -64 2 -64 -18 0 -31 11 -50 45 -15 25 -33 45 -40 45 -7 0 -35
-29 -61 -65 -48 -66 -70 -85 -99 -85 -16 0 -76 47 -76 59 0 5 22 6 49 3 29 -2
51 0 55 7 28 45 22 299 -7 328 -22 23 -61 -1 -106 -63 l-41 -57 30 -40 c38
-52 40 -87 5 -87 -14 0 -44 9 -65 20 -22 11 -59 23 -82 26 -36 5 -50 1 -82
-21 -28 -19 -49 -26 -75 -23 -20 1 -58 -6 -85 -16 -38 -16 -52 -17 -67 -8 -30
19 -50 15 -143 -34 -62 -31 -98 -44 -120 -42 -28 3 -31 6 -28 36 2 17 -1 32
-6 32 -6 0 -18 3 -27 6 -14 6 -15 0 -9 -43 7 -57 1 -65 -64 -83 -33 -8 -48
-20 -64 -46 -16 -28 -26 -34 -54 -34 -27 0 -34 -4 -34 -20 0 -29 -41 -26 -78
4 -16 14 -43 53 -62 87 l-33 62 29 -5 c16 -3 56 -11 89 -18 69 -15 99 -10 140
22 l28 22 -138 69 c-112 55 -146 68 -179 66 -61 -3 -66 -1 -76 25 -12 33 -116
53 -180 36 -80 -22 -213 -95 -233 -129 -10 -16 -58 -64 -107 -106 l-90 -76 0
-54 c0 -53 -8 -65 -46 -65 -7 0 -36 -14 -63 -30 -53 -33 -72 -68 -60 -110 4
-14 7 -41 8 -61 2 -66 29 -70 109 -17 l42 29 9 -23 c5 -13 23 -58 41 -100 l32
-77 34 14 c50 21 66 31 64 41 -1 5 13 33 30 61 28 45 31 59 26 95 -21 139 -25
122 47 191 36 35 72 80 81 101 16 38 17 38 58 32 23 -4 44 -9 46 -11 12 -12
-15 -70 -51 -111 -37 -43 -41 -52 -41 -100 0 -76 7 -81 106 -66 73 11 86 10
117 -6 58 -28 49 -38 -50 -50 -51 -6 -97 -16 -103 -22 -7 -7 -6 -21 2 -44 19
-51 8 -68 -42 -64 -39 3 -41 2 -44 -27 -7 -76 -38 -105 -112 -105 -22 0 -60
-10 -84 -22 -40 -19 -48 -20 -73 -8 -15 7 -42 12 -60 11 -48 -4 -76 29 -68 80
4 24 3 39 -4 39 -5 0 -13 -31 -17 -69 l-6 -69 -46 -12 c-33 -8 -58 -25 -98
-65 -45 -47 -97 -84 -253 -182 l-23 -15 30 -31 c37 -38 52 -75 52 -126 0 -74
-32 -87 -170 -69 -74 10 -85 2 -86 -69 -1 -32 -5 -73 -9 -91 -15 -72 40 -123
133 -121 72 1 113 20 142 66 31 51 96 135 135 178 36 38 165 83 196 68 9 -4
68 -52 129 -106 61 -54 113 -97 115 -95 9 11 15 48 7 48 -17 0 -152 176 -152
198 0 11 7 25 15 32 12 10 28 0 92 -55 91 -78 148 -146 164 -195 16 -47 27
-60 54 -60 38 0 48 -23 24 -54 l-20 -26 22 9 c37 13 45 34 26 74 -10 19 -14
42 -11 50 7 20 56 37 105 37 45 0 59 19 59 80 0 51 21 93 73 148 49 50 80 55
101 14 28 -55 72 -71 48 -18 -11 24 -9 26 43 45 63 24 90 19 80 -13 -19 -59
-18 -62 34 -108 67 -60 81 -91 55 -119 -17 -19 -25 -20 -79 -13 -33 5 -100 9
-150 9 -80 0 -98 -3 -160 -32 -78 -35 -87 -53 -66 -125 15 -48 31 -53 168 -51
62 1 115 -3 118 -8 6 -9 -30 -153 -51 -205 -23 -56 -33 -59 -157 -47 -74 8
-139 21 -190 40 -82 30 -101 28 -122 -14 -19 -37 -37 -53 -60 -53 -22 0 -194
85 -249 123 -26 19 -28 23 -23 69 7 59 1 77 -29 88 -32 13 -188 -6 -303 -37
-53 -14 -122 -29 -154 -33 -44 -6 -67 -15 -89 -37 -51 -48 -88 -104 -88 -135
0 -46 -24 -86 -105 -178 -112 -126 -125 -158 -137 -337 -5 -81 -10 -159 -11
-173 0 -31 135 -283 177 -328 17 -19 49 -43 71 -54 46 -24 106 -21 278 12 143
28 170 27 207 -10 24 -24 39 -30 74 -30 67 0 74 -13 78 -165 l3 -130 44 -80
c102 -186 109 -224 66 -350 -36 -104 -37 -172 -3 -246 14 -31 29 -82 33 -115
11 -87 50 -213 100 -323 30 -65 45 -112 45 -138 0 -62 14 -69 118 -53 123 18
187 44 242 99 52 53 86 118 102 199 9 42 22 67 56 105 48 54 46 43 26 167 -7
43 14 73 93 131 30 22 63 55 74 72 26 44 24 130 -6 246 -29 108 -31 167 -10
217 19 45 86 133 186 240 63 68 90 107 129 188 56 117 86 206 67 206 -7 -1
-41 -7 -77 -15 -133 -29 -139 -26 -255 150 -94 143 -119 194 -144 294 -12 46
-42 123 -71 177 -56 107 -64 150 -27 138 70 -21 106 -59 129 -139 7 -22 27
-67 45 -100 18 -33 39 -79 47 -103 8 -23 26 -57 39 -75 40 -52 58 -95 71 -165
18 -99 21 -99 193 -12 171 87 249 141 291 202 54 79 53 85 -19 149 l-63 57
-49 -24 c-44 -23 -51 -24 -70 -11 -12 8 -46 63 -76 122 -42 83 -52 111 -44
124 22 35 51 25 116 -42 56 -59 67 -66 112 -71 28 -4 70 -17 95 -30 28 -15 77
-28 131 -34 153 -19 279 -84 279 -144 l0 -30 35 21 c42 25 42 26 48 -84 7
-103 45 -233 108 -365 l51 -105 24 47 c14 27 29 81 35 125 5 43 14 92 19 108
6 18 61 81 132 152 115 114 127 123 183 137 32 8 60 14 60 13 1 -1 15 -20 32
-42 49 -65 74 -122 75 -176 1 -27 3 -49 5 -49 3 0 24 11 48 25 51 30 44 42 76
-122 l22 -112 21 31 c27 41 69 55 99 35 13 -8 38 -42 56 -76 18 -34 36 -61 40
-61 19 0 100 74 111 101 16 38 6 76 -56 201 -24 50 -44 101 -44 114 0 33 71
93 103 87 14 -3 53 6 89 19 35 14 85 33 111 42 68 25 97 54 156 153 l52 87
-10 75 c-5 43 -6 77 -1 79 5 2 -2 27 -16 55 -31 67 -30 79 6 120 17 19 30 37
30 41 0 3 -19 6 -43 6 -96 0 -103 53 -15 114 l58 40 23 -22 c13 -12 33 -22 46
-22 54 0 79 -34 107 -144 17 -68 22 -73 55 -56 26 14 24 50 -7 127 l-25 64 25
32 c13 18 49 58 79 90 46 50 58 57 80 52 44 -11 62 2 124 93 100 144 133 230
133 342 0 41 -26 73 -57 70 -41 -5 -60 1 -93 29 l-35 30 60 61 c61 63 150 136
195 161 32 17 249 22 308 7 43 -11 43 -11 90 34 70 68 121 98 164 98 40 0 45
-8 28 -41 -6 -10 -8 -19 -4 -19 16 0 71 41 92 69 12 17 31 31 42 31 11 0 20
-2 20 -5 0 -22 -72 -107 -157 -184 -124 -112 -147 -149 -146 -241 0 -55 23
-140 37 -140 2 0 22 28 45 63 22 35 54 78 70 96 48 53 64 97 58 153 -9 70 4
93 65 124 80 40 107 46 160 33 44 -12 48 -11 95 19 76 49 134 72 185 72 26 0
50 5 53 10 4 6 -14 35 -39 65 -25 29 -46 57 -46 62 0 5 29 21 66 37 86 38 139
33 219 -20 l56 -38 52 52 51 51 -49 22 c-51 23 -58 21 -80 -25 -3 -7 -7 -6
-12 4 -3 8 -27 36 -52 63 -49 53 -109 87 -181 105 -39 9 -241 42 -260 42 -4 0
-5 -10 -3 -22 7 -46 -9 -53 -74 -35 -32 9 -98 19 -146 22 -92 6 -137 18 -137
35 0 5 -9 19 -20 30 -17 17 -33 20 -117 20 -121 0 -166 12 -193 50 -24 34 -59
39 -100 15 -38 -22 -60 -19 -57 8 2 20 -2 22 -62 25 -62 3 -65 2 -103 -35
l-39 -38 -107 -5 c-60 -3 -117 -11 -130 -18 -27 -15 -44 -7 -124 62 l-48 41
33 17 32 17 -40 16 c-37 16 -45 16 -114 1 -64 -14 -92 -15 -200 -5 -69 6 -133
14 -141 18 -8 4 -21 20 -28 34 -9 20 -21 27 -40 27 l-27 -1 28 -17 c34 -21 35
-35 1 -22 -36 14 -41 13 -40 -12 1 -14 -8 -27 -24 -35 -40 -20 -130 -15 -130
7 0 5 50 35 110 66 86 45 112 63 117 82 8 33 -18 52 -71 52 -164 2 -210 16
-199 61 7 24 -22 26 -54 4z m-2367 -953 c10 -7 34 -45 34 -55 0 -10 -49 -13
-64 -5 -16 9 -22 49 -9 61 8 9 25 9 39 -1z m686 -753 c20 -11 19 -12 -9 -42
-45 -48 -47 -63 -16 -124 22 -42 34 -56 56 -60 36 -7 43 -19 18 -32 -17 -10
-19 -19 -14 -89 l6 -79 -32 -6 c-43 -9 -90 2 -102 24 -5 11 -7 46 -3 82 6 56
3 68 -21 116 -39 73 -44 137 -15 174 35 44 89 59 132 36z m266 -31 c17 -17 15
-42 -7 -69 -30 -36 -46 -14 -30 40 13 44 18 48 37 29z"/>
<path d="M2043 6347 c-40 -17 -73 -35 -73 -39 0 -4 9 -10 20 -13 14 -4 30 1
49 18 16 13 42 29 60 36 17 8 31 17 31 22 0 14 -9 11 -87 -24z"/>
<path d="M2630 6317 c0 -18 71 -75 88 -70 34 12 -6 68 -55 78 -25 5 -33 3 -33
-8z"/>
<path d="M2879 6316 c19 -7 47 -28 63 -47 28 -33 31 -34 121 -41 123 -8 252
-9 271 -2 42 16 2 23 -154 26 l-170 3 -23 27 c-25 32 -65 48 -110 47 l-32 -1
34 -12z"/>
<path d="M2383 6290 c-14 -37 -32 -38 -137 -5 -43 14 -81 23 -84 21 -2 -3 -2
-16 2 -30 5 -22 11 -25 47 -23 32 2 44 -2 53 -18 6 -11 12 -22 13 -24 2 -2 45
6 97 19 l93 24 -35 33 c-19 18 -35 33 -36 33 -1 0 -7 -13 -13 -30z"/>
<path d="M8110 6300 c-58 -11 -130 -27 -160 -37 -49 -16 -58 -23 -82 -67 -14
-27 -24 -54 -22 -60 2 -6 -14 -24 -37 -39 l-40 -29 34 -41 c37 -45 83 -64 73
-30 -19 63 -18 72 12 115 51 75 114 125 179 143 245 70 258 83 43 45z"/>
<path d="M10614 6285 c-14 -34 3 -46 63 -43 74 4 79 22 12 42 -65 20 -68 20
-75 1z"/>
<path d="M1942 6163 c-48 -69 -46 -126 5 -139 28 -7 206 115 192 132 -8 10
-124 34 -163 34 -8 0 -23 -12 -34 -27z"/>
<path d="M2883 6163 c-14 -5 -18 -79 -5 -87 5 -3 31 17 57 44 l49 50 -44 -1
c-25 0 -51 -3 -57 -6z"/>
<path d="M2703 6138 c-11 -13 -26 -33 -32 -45 -10 -21 -8 -25 21 -43 37 -22
60 -25 89 -10 18 10 18 13 4 40 -8 16 -15 40 -15 55 0 20 -5 25 -23 25 -13 0
-33 -10 -44 -22z"/>
<path d="M2467 6112 c-9 -15 -25 -38 -36 -52 l-19 -24 -29 28 c-25 26 -33 28
-78 23 -27 -4 -60 -9 -71 -12 -17 -5 -23 -1 -28 20 l-7 26 -39 -22 c-45 -25
-56 -48 -40 -79 8 -15 21 -20 53 -20 56 0 117 -18 117 -34 0 -9 -20 -16 -60
-20 -67 -8 -69 -16 -10 -46 50 -26 101 -25 170 1 54 21 119 22 177 4 16 -5 23
-2 28 16 6 19 1 29 -28 54 -38 32 -67 88 -67 129 0 36 -14 39 -33 8z"/>
<path d="M3072 6115 c-52 -44 -51 -127 1 -153 12 -6 76 -13 142 -17 140 -7
237 -25 293 -54 42 -21 85 -69 96 -108 4 -12 20 -26 36 -32 17 -6 30 -17 30
-27 0 -14 -7 -16 -50 -10 -50 7 -51 7 -65 -27 -13 -30 -20 -35 -61 -42 -96
-14 -100 -30 -8 -39 80 -8 110 -20 219 -86 45 -27 87 -50 92 -50 11 0 43 64
43 85 0 7 -15 33 -34 58 -51 67 -58 84 -46 107 15 29 37 25 88 -17 l45 -37 29
34 c15 19 28 38 28 43 0 5 -45 30 -100 55 l-101 47 3 40 3 39 -98 43 c-55 23
-114 56 -133 73 -38 33 -79 39 -110 15 -49 -37 -127 -4 -127 53 0 34 -9 38
-50 23 -18 -7 -26 -20 -31 -48 -14 -82 -18 -93 -31 -93 -18 0 -35 31 -35 64 0
27 14 35 24 14 3 -7 3 -2 0 12 -8 30 -32 60 -50 60 -7 0 -26 -11 -42 -25z"/>
<path d="M2838 5986 c-9 -21 -7 -29 16 -56 14 -17 26 -38 26 -45 0 -22 -22
-65 -34 -66 -6 -1 -36 -3 -66 -4 -30 -1 -87 -6 -127 -10 -68 -7 -75 -6 -140
25 -37 18 -71 35 -76 37 -4 2 -2 -7 4 -20 9 -20 6 -31 -18 -70 l-28 -46 -43
29 c-29 19 -61 31 -100 35 -31 3 -64 7 -72 8 -8 1 -17 16 -20 32 -5 28 -10 31
-90 53 -47 12 -116 24 -155 27 -38 2 -86 7 -106 11 -29 5 -51 -2 -129 -41 -73
-36 -95 -44 -101 -33 -5 7 -9 16 -9 21 0 4 -4 7 -9 7 -6 0 -7 -24 -4 -55 7
-68 -6 -72 -42 -11 -22 38 -34 47 -78 60 -84 26 -352 83 -498 107 l-137 23
-93 -46 c-52 -25 -122 -61 -157 -80 l-62 -35 85 -52 c87 -53 99 -72 63 -94
-11 -8 -28 -7 -56 2 -41 14 -92 6 -99 -16 -6 -18 57 -73 83 -73 14 0 40 6 59
14 39 16 45 13 45 -25 0 -28 -48 -79 -74 -79 -7 0 -25 -13 -41 -30 l-28 -29
27 -41 c15 -22 39 -46 54 -52 15 -7 40 -21 57 -32 21 -15 46 -21 86 -21 l57 0
-20 -53 c-11 -29 -18 -55 -16 -58 8 -8 84 53 115 92 17 22 42 63 57 92 20 40
32 52 50 52 33 0 37 -9 20 -42 -27 -53 -1 -55 42 -3 44 52 43 52 144 9 36 -15
114 -40 175 -56 120 -31 162 -54 201 -110 14 -20 39 -42 55 -48 31 -13 59 -55
59 -87 0 -44 88 -173 174 -254 97 -92 106 -116 48 -133 l-34 -9 4 -161 c3
-151 5 -165 31 -220 34 -74 117 -186 162 -221 39 -29 63 -71 90 -155 10 -30
29 -77 43 -105 30 -62 110 -175 123 -175 5 0 -22 63 -61 140 -69 138 -87 199
-54 186 9 -3 19 -6 24 -6 7 0 220 -331 249 -387 6 -12 11 -33 11 -48 0 -14 11
-37 24 -50 42 -42 202 -115 297 -135 98 -21 117 -30 226 -100 54 -36 81 -61
95 -88 24 -50 112 -122 147 -122 15 0 36 7 47 15 18 14 18 14 -8 15 -78 1
-113 55 -104 158 4 37 3 73 -2 80 -5 7 -36 17 -70 22 -34 4 -67 12 -73 16 -13
8 -8 65 15 157 l14 57 -34 0 c-37 0 -84 -36 -84 -64 0 -28 -50 -56 -100 -56
-98 0 -133 64 -132 242 1 127 9 155 60 193 29 21 90 25 168 10 37 -7 43 -5 49
14 13 42 99 65 148 40 43 -22 67 -53 92 -118 32 -84 41 -99 54 -86 6 7 3 38
-10 90 -33 139 -27 169 56 266 64 74 74 97 82 183 5 68 8 74 24 66 25 -14 24
-15 53 35 17 28 41 52 65 65 26 13 41 28 45 47 16 62 56 93 172 133 71 25 91
11 44 -29 -44 -38 -31 -39 29 -4 50 29 54 20 -36 83 -48 34 -54 60 -20 83 12
8 19 18 15 22 -10 10 -76 -13 -121 -42 -22 -13 -41 -22 -44 -19 -3 3 5 23 19
43 36 55 106 89 218 107 52 8 118 22 147 31 45 13 52 19 58 47 10 44 -14 61
-77 54 -57 -6 -61 5 -17 41 l31 26 -29 15 c-53 27 -96 77 -135 160 -21 45 -43
82 -47 82 -4 0 -16 -10 -27 -21 -29 -33 -78 -51 -108 -39 -38 14 -58 52 -51
93 6 33 4 38 -35 66 -56 41 -143 60 -179 40 -24 -13 -27 -22 -34 -99 -6 -69
-5 -96 9 -143 15 -50 16 -65 6 -100 -7 -23 -21 -82 -32 -131 -10 -49 -26 -96
-34 -104 -39 -40 -126 45 -126 123 0 51 -8 59 -96 89 -104 35 -147 60 -193
113 -24 26 -55 53 -71 59 -46 20 -46 44 2 131 56 102 97 147 150 162 43 13 68
28 68 40 0 4 -16 15 -36 24 -44 22 -36 37 21 37 54 0 65 -16 65 -90 0 -61 15
-71 58 -40 24 18 38 21 67 16 34 -7 36 -6 26 13 -6 11 -36 31 -66 46 -47 22
-96 68 -84 79 2 2 37 13 77 25 39 13 72 25 72 27 0 3 -7 21 -15 41 -8 19 -15
46 -15 58 0 29 -24 48 -49 40 -12 -3 -36 -33 -53 -66 -18 -32 -38 -59 -44 -59
-6 0 -24 30 -39 66 l-28 65 -31 -30 c-36 -35 -46 -38 -46 -15 0 9 -11 29 -25
46 -14 16 -25 40 -25 53 0 24 -37 55 -65 55 -8 0 -20 -11 -27 -24z m331 -1254
c38 -40 72 -65 106 -77 28 -10 51 -19 53 -20 5 -3 -43 -85 -50 -85 -4 0 -26
28 -49 62 l-42 62 -36 -94 -35 -94 -14 34 c-18 44 -9 85 28 131 l29 37 -79 12
c-44 7 -80 16 -80 20 0 12 82 70 98 70 8 0 40 -26 71 -58z m301 -159 c0 -8
-173 -105 -197 -111 -7 -2 -13 0 -13 5 0 10 179 112 198 113 6 0 12 -3 12 -7z"/>
<path d="M2726 5901 c-7 -11 27 -51 43 -51 13 0 57 37 51 43 -12 11 -88 18
-94 8z"/>
<path d="M5372 5695 c-43 -19 -92 -54 -92 -66 0 -17 65 -49 100 -49 39 0 128
38 149 63 11 14 11 21 -3 42 -14 22 -24 25 -69 25 -28 -1 -67 -7 -85 -15z"/>
<path d="M5868 5273 c-49 -51 -46 -90 8 -156 30 -35 31 -85 4 -120 l-21 -26
23 -12 c33 -17 33 -17 12 -40 l-19 -22 63 6 c47 4 70 11 87 27 l23 22 -45 77
c-24 42 -56 91 -70 109 -19 25 -23 39 -18 62 5 24 3 30 -10 30 -21 0 -29 24
-15 49 15 28 9 26 -22 -6z"/>
<path d="M5713 5035 c-19 -42 -34 -78 -32 -80 7 -6 83 31 102 49 20 20 23 76
5 94 -24 24 -40 11 -75 -63z"/>
<path d="M10752 5043 c-24 -43 -2 -205 29 -211 14 -3 15 6 3 85 -7 48 -14 102
-16 118 -3 29 -3 29 -16 8z"/>
<path d="M4085 4829 c-19 -17 -35 -39 -35 -50 0 -28 35 -43 72 -30 43 15 46
14 50 -11 2 -17 9 -22 23 -20 29 5 33 13 23 51 -7 26 -18 36 -49 49 -25 10
-38 20 -35 29 9 22 -11 15 -49 -18z"/>
<path d="M10714 4590 c-9 -22 -20 -40 -24 -40 -15 0 -21 -39 -11 -59 11 -20
12 -19 69 6 31 14 66 34 77 45 l20 19 -20 15 c-11 9 -37 24 -57 35 l-38 19
-16 -40z"/>
<path d="M10658 4363 c-20 -32 -39 -68 -42 -80 -4 -13 -13 -23 -19 -23 -26 1
-277 -136 -277 -150 0 -8 8 -41 18 -73 l18 -58 32 51 c21 33 42 55 62 61 34
12 38 24 13 38 -10 5 -15 13 -10 17 4 4 22 -1 40 -10 31 -18 35 -17 102 1 80
22 90 35 121 154 15 56 16 71 5 98 -8 17 -17 31 -21 31 -4 0 -23 -26 -42 -57z"/>
<path d="M3217 3634 c-14 -15 7 -24 54 -24 58 0 78 -9 138 -62 49 -42 58 -45
87 -23 19 14 18 15 -6 36 -55 45 -142 79 -206 79 -33 0 -64 -3 -67 -6z"/>
<path d="M3598 3489 c-10 -5 -18 -17 -18 -25 0 -13 10 -14 58 -8 31 3 59 8 61
10 3 3 -67 34 -78 34 -3 0 -14 -5 -23 -11z"/>
<path d="M10027 3443 c-12 -21 -17 -68 -11 -99 5 -27 19 -44 63 -78 84 -64 90
-65 41 -8 -75 88 -78 96 -56 136 10 19 15 39 12 45 -8 12 -43 15 -49 4z"/>
<path d="M3520 3128 c-57 -63 -70 -66 -135 -42 -17 6 -16 2 7 -22 35 -38 48
-74 48 -134 0 -38 -10 -67 -52 -146 -46 -88 -52 -105 -51 -157 1 -31 -3 -60
-8 -63 -16 -10 -9 -51 19 -116 16 -34 43 -106 61 -159 38 -115 73 -174 132
-220 23 -19 60 -51 81 -72 37 -37 38 -40 38 -111 0 -114 -29 -453 -46 -536 -9
-41 -27 -109 -40 -150 -27 -83 -32 -181 -15 -284 11 -60 8 -87 -11 -138 -12
-32 -12 -32 -39 -18 -30 16 -23 2 26 -52 43 -48 44 -50 26 -66 -14 -13 -20
-35 -23 -82 l-5 -65 48 -37 48 -38 81 136 80 136 -25 30 c-32 38 -31 46 5 97
47 64 65 118 52 153 -10 26 -8 29 21 45 18 9 54 36 81 59 26 24 53 44 60 44
26 0 86 22 101 36 23 23 18 54 -15 104 -16 24 -27 46 -25 48 2 2 26 -2 53 -9
41 -10 56 -10 81 0 56 24 154 198 166 296 4 33 11 68 16 77 16 30 146 115 194
127 76 19 116 105 133 287 9 85 14 100 71 209 33 64 61 129 61 144 0 19 -14
40 -47 73 -53 51 -82 68 -112 68 -57 0 -120 23 -165 60 -27 22 -52 40 -57 40
-4 0 -24 -13 -42 -30 -22 -19 -46 -30 -64 -30 -44 0 -47 10 -11 41 47 39 30
44 -26 9 -26 -17 -51 -28 -57 -25 -5 4 9 32 32 64 l41 58 -17 49 c-29 87 -37
93 -170 139 -38 14 -68 36 -125 96 l-75 78 -120 22 c-66 12 -122 26 -126 31
-3 4 -15 -12 -27 -37 -12 -25 -26 -45 -32 -45 -16 0 -28 34 -23 63 8 43 -15
32 -77 -35z"/>
<path d="M9315 3045 c4 -11 18 -54 31 -96 23 -73 79 -167 92 -155 11 12 1 78
-18 115 -22 43 -117 165 -105 136z"/>
<path d="M10150 3053 c-8 -3 -26 -10 -39 -15 l-23 -8 23 -19 c13 -10 34 -23
47 -30 21 -11 24 -9 36 21 20 46 1 68 -44 51z"/>
<path d="M9768 2853 c-141 -116 -144 -122 -108 -194 26 -51 99 -99 151 -99 42
0 51 9 69 65 7 22 23 60 36 84 29 53 30 88 4 116 l-20 21 30 36 30 36 -26 21
c-15 12 -29 21 -33 20 -3 0 -63 -48 -133 -106z"/>
<path d="M9230 2895 c0 -3 11 -22 24 -43 13 -20 47 -81 76 -134 52 -95 134
-208 156 -215 7 -2 19 18 28 44 l16 47 -54 51 c-30 27 -87 91 -126 140 -40 50
-79 96 -88 103 -16 12 -32 16 -32 7z"/>
<path d="M9983 2613 c4 -37 7 -83 7 -100 0 -18 5 -33 10 -33 6 0 10 24 10 54
0 30 5 58 10 61 6 4 20 -16 33 -44 12 -28 25 -51 30 -51 14 0 6 36 -18 79 -28
48 -31 67 -12 74 18 7 6 14 -37 21 l-39 7 6 -68z"/>
<path d="M10422 2649 c23 -17 26 -24 17 -41 -13 -24 -16 -22 51 -41 72 -21
122 -70 125 -124 2 -36 6 -39 56 -60 69 -28 81 -28 124 1 41 28 69 25 92 -11
18 -27 72 -68 80 -60 3 3 -4 18 -15 34 -10 15 -25 44 -31 65 -18 55 -55 85
-177 144 -115 56 -156 64 -190 39 -30 -23 -53 -18 -74 18 -28 48 -38 57 -63
57 -21 -1 -21 -2 5 -21z"/>
<path d="M11015 2520 c-31 -21 -39 -40 -18 -47 14 -5 63 40 63 57 0 15 -11 12
-45 -10z"/>
<path d="M9535 2450 c-4 -6 -5 -13 -4 -14 14 -11 249 -62 246 -53 -6 20 -71
46 -139 57 -37 5 -73 13 -81 16 -8 3 -18 0 -22 -6z"/>
<path d="M10172 2354 c-41 -35 -52 -54 -31 -54 19 0 96 65 91 78 -6 19 -15 15
-60 -24z"/>
<path d="M10414 2240 c-33 -13 -61 -55 -74 -111 -9 -36 -16 -49 -27 -45 -7 3
-39 13 -69 22 -63 18 -74 14 -105 -47 -10 -21 -27 -40 -38 -44 -11 -3 -24 -19
-29 -34 -15 -42 -45 -66 -165 -127 -124 -63 -137 -80 -113 -139 20 -48 20 -72
0 -83 -14 -8 -14 -13 4 -49 26 -51 49 -141 58 -225 8 -79 27 -104 70 -94 15 4
77 30 138 58 147 67 210 88 264 88 58 0 125 -32 160 -76 15 -19 32 -34 37 -34
6 0 20 16 33 36 27 42 42 37 42 -16 0 -25 5 -40 15 -44 9 -3 29 -34 46 -70 42
-91 57 -102 114 -86 39 11 48 10 70 -4 25 -16 28 -16 76 10 27 15 53 32 57 38
11 14 75 234 102 346 30 126 27 165 -12 204 -18 18 -38 35 -43 37 -6 2 -46 57
-90 121 -67 100 -85 136 -121 245 l-42 128 -15 -35 c-8 -19 -23 -64 -32 -100
-15 -59 -29 -93 -54 -129 -18 -27 -152 86 -154 131 0 12 3 44 7 69 8 46 7 47
-25 58 -37 13 -56 13 -85 1z"/>
<path d="M7593 2115 c-78 -71 -99 -111 -116 -215 -21 -130 -6 -212 39 -218 40
-6 68 45 103 189 29 117 56 297 47 306 -2 2 -35 -26 -73 -62z"/>
<path d="M11816 1149 c-2 -8 -9 -29 -15 -47 -9 -30 -8 -38 16 -69 l26 -34 33
53 c41 65 41 73 7 86 -16 5 -36 13 -45 17 -11 4 -19 2 -22 -6z"/>
<path d="M10836 981 c-6 -10 42 -81 55 -81 8 0 49 58 49 70 0 5 -8 10 -19 10
-10 0 -32 3 -49 6 -17 3 -32 1 -36 -5z"/>
<path d="M11721 953 c-11 -10 -52 -58 -91 -108 l-70 -90 31 -13 c57 -24 70
-15 121 83 55 107 67 145 45 145 -8 0 -24 -8 -36 -17z"/>
<path d="M3678 385 c-32 -52 -29 -56 48 -58 26 -1 49 3 51 9 2 6 -13 30 -34
52 l-38 42 -27 -45z"/>
</g>
</svg>
