<?xml version="1.0" standalone="no"?>
<!DOCTYPE svg PUBLIC "-//W3C//DTD SVG 20010904//EN"
 "http://www.w3.org/TR/2001/REC-SVG-20010904/DTD/svg10.dtd">
<svg version="1.0" xmlns="http://www.w3.org/2000/svg"
 width="640.000000pt" height="1280.000000pt" viewBox="0 0 640.000000 1280.000000"
 preserveAspectRatio="xMidYMid meet">
<g transform="translate(0.000000,1280.000000) scale(0.100000,-0.100000)"
fill="#000000" stroke="none">
<path d="M4315 12789 c-103 -12 -250 -52 -329 -89 -80 -38 -207 -132 -391
-290 -71 -61 -168 -136 -215 -167 -112 -74 -124 -86 -154 -147 -14 -28 -64
-99 -111 -156 -155 -191 -260 -333 -396 -540 -137 -206 -261 -374 -526 -705
-153 -191 -204 -268 -247 -377 -15 -37 -74 -256 -132 -485 -143 -568 -184
-706 -300 -1001 -119 -302 -234 -522 -348 -669 -218 -283 -429 -710 -496
-1008 -7 -27 -22 -110 -34 -183 l-23 -133 41 7 c81 13 133 37 246 113 63 42
138 90 165 105 58 33 105 74 105 92 0 48 426 522 624 695 106 93 179 134 275
154 40 8 76 15 81 15 20 0 28 -61 80 -620 84 -893 178 -1611 341 -2585 170
-1017 310 -1725 440 -2225 88 -335 227 -775 319 -1005 60 -150 312 -753 376
-900 117 -268 279 -558 352 -628 40 -39 108 -65 126 -47 5 5 9 55 9 112 0 98
-2 110 -47 233 -75 210 -252 780 -335 1087 -128 467 -157 648 -251 1563 -99
968 -123 1162 -179 1480 -36 205 -61 570 -81 1170 -17 526 -12 747 20 864 l11
43 26 -23 c36 -35 70 -95 338 -604 133 -253 292 -550 354 -659 122 -220 158
-305 201 -476 65 -259 110 -577 150 -1065 86 -1060 115 -1390 170 -1950 40
-400 106 -1012 131 -1210 32 -263 54 -320 133 -356 23 -10 46 -19 52 -19 8 0
13 68 18 213 51 1637 77 2241 111 2672 14 165 34 433 45 595 42 604 65 793 99
832 4 4 23 3 43 -2 43 -12 44 -13 58 -230 44 -685 40 -962 -20 -1445 -43 -345
-70 -675 -77 -951 -5 -213 -4 -248 11 -295 18 -55 60 -129 74 -129 4 0 40 164
80 363 107 533 162 761 285 1182 162 553 202 1045 132 1605 -19 151 -26 191
-95 550 -101 522 -130 717 -190 1255 -22 204 -54 467 -70 585 -16 118 -34 261
-39 318 -25 246 -59 1016 -86 1982 -8 294 -22 778 -30 1075 -40 1425 -53 1666
-101 1860 -22 89 -32 112 -90 201 -66 103 -165 208 -277 296 l-89 68 -146 -1
c-81 -1 -178 -5 -217 -10z m45 -5749 c60 -16 122 -78 168 -168 47 -91 133
-307 282 -707 219 -590 283 -806 298 -1015 5 -63 8 -116 6 -118 -3 -5 -85 38
-132 70 -59 41 -110 113 -185 263 -271 544 -465 1147 -492 1530 -3 50 -8 108
-12 129 -4 32 -3 38 10 33 9 -3 34 -11 57 -17z"/>
</g>
</svg>
