<?xml version="1.0" standalone="no"?>
<!DOCTYPE svg PUBLIC "-//W3C//DTD SVG 20010904//EN"
 "http://www.w3.org/TR/2001/REC-SVG-20010904/DTD/svg10.dtd">
<svg version="1.0" xmlns="http://www.w3.org/2000/svg"
 width="1280.000000pt" height="672.000000pt" viewBox="0 0 1280.000000 672.000000"
 preserveAspectRatio="xMidYMid meet">
<g transform="translate(0.000000,672.000000) scale(0.100000,-0.100000)"
fill="#000000" stroke="none">
<path d="M4145 6635 c-578 -251 -1015 -530 -1477 -942 -638 -569 -1028 -1150
-1138 -1697 -53 -264 -5 -558 128 -781 82 -139 222 -283 262 -270 37 12 22 45
-59 131 -129 136 -203 271 -252 460 -30 116 -32 317 -5 444 75 353 273 705
625 1115 376 437 749 771 1099 983 115 70 432 237 432 228 0 -3 -41 -57 -91
-119 -282 -348 -412 -632 -515 -1122 -35 -163 -39 -379 -11 -513 52 -244 164
-456 336 -636 153 -159 176 -179 466 -389 99 -71 196 -145 215 -163 39 -37 84
-45 94 -18 13 35 -44 91 -209 205 -176 120 -290 207 -385 294 -295 266 -441
545 -457 870 -15 323 87 646 329 1047 73 120 314 464 415 591 79 100 237 254
308 302 114 75 106 74 -110 -20z"/>
<path d="M8475 6704 c6 -5 37 -28 70 -49 71 -48 229 -202 308 -302 101 -127
342 -471 415 -591 242 -401 344 -724 329 -1047 -16 -325 -162 -604 -457 -870
-95 -87 -209 -174 -385 -294 -165 -114 -222 -170 -209 -205 10 -27 55 -19 94
18 19 18 116 92 215 163 290 210 313 230 466 389 172 180 284 392 336 636 28
134 24 350 -11 513 -103 490 -233 774 -515 1122 -50 62 -91 116 -91 119 0 9
317 -158 432 -228 350 -212 723 -546 1099 -983 352 -410 550 -762 625 -1115
27 -127 25 -328 -5 -444 -49 -189 -123 -324 -252 -460 -81 -86 -96 -119 -59
-131 40 -13 180 131 262 270 133 223 181 517 128 781 -110 547 -500 1128
-1138 1697 -464 413 -925 706 -1492 948 -170 72 -178 75 -165 63z"/>
<path d="M2528 5153 c-211 -270 -287 -380 -412 -601 -137 -241 -167 -338 -182
-580 -8 -125 8 -224 57 -351 53 -140 163 -283 268 -351 85 -54 252 -62 291
-15 7 9 11 17 9 18 -2 2 -23 16 -47 32 -76 51 -189 180 -227 260 -74 153 -113
392 -95 588 21 237 63 367 214 667 117 230 217 440 211 440 -1 0 -41 -48 -87
-107z"/>
<path d="M10232 5153 c27 -60 101 -209 164 -333 151 -300 193 -430 214 -667
18 -196 -21 -435 -95 -588 -38 -80 -151 -209 -227 -260 -24 -16 -45 -30 -47
-32 -2 -1 2 -9 9 -18 39 -47 206 -39 291 15 148 96 271 295 315 512 29 141 2
400 -56 545 -57 141 -242 450 -384 638 -87 116 -227 295 -231 295 -2 0 19 -48
47 -107z"/>
<path d="M12 1749 c28 -16 510 -180 775 -263 450 -142 858 -253 1148 -312 65
-13 123 -28 126 -32 4 -4 19 -52 33 -107 120 -474 428 -835 833 -973 147 -51
195 -57 438 -57 308 1 537 31 750 101 169 55 303 149 416 291 106 133 158 276
159 436 0 31 1 57 3 57 2 0 37 -11 78 -26 267 -91 609 -171 979 -228 91 -14
180 -28 198 -32 20 -3 32 -1 28 4 -3 5 -23 13 -43 17 -104 19 -351 122 -773
320 -345 163 -566 241 -760 270 -206 30 -405 36 -1185 33 -933 -4 -901 -6
-1500 103 -559 102 -684 131 -1140 260 -322 92 -539 149 -563 149 -16 -1 -16
-1 0 -11z"/>
<path d="M12650 1729 c-63 -16 -248 -67 -410 -114 -474 -134 -593 -162 -1155
-264 -599 -109 -567 -107 -1500 -103 -780 3 -979 -3 -1185 -33 -194 -29 -415
-107 -760 -270 -422 -198 -669 -301 -773 -320 -20 -4 -40 -12 -43 -17 -4 -5 8
-7 28 -4 18 4 107 18 198 32 370 57 712 137 979 228 41 15 76 26 78 26 2 0 3
-26 3 -57 2 -245 135 -472 370 -630 99 -67 210 -107 400 -147 184 -39 310 -51
555 -51 243 0 291 6 438 57 405 138 713 499 833 973 14 55 29 103 33 107 3 4
61 19 126 32 290 59 698 170 1148 312 265 83 747 247 775 263 32 19 -16 12
-138 -20z"/>
</g>
</svg>
