<?xml version="1.0" standalone="no"?>
<!DOCTYPE svg PUBLIC "-//W3C//DTD SVG 20010904//EN"
 "http://www.w3.org/TR/2001/REC-SVG-20010904/DTD/svg10.dtd">
<svg version="1.0" xmlns="http://www.w3.org/2000/svg"
 width="1144.000000pt" height="1280.000000pt" viewBox="0 0 1144.000000 1280.000000"
 preserveAspectRatio="xMidYMid meet">
<g transform="translate(0.000000,1280.000000) scale(0.100000,-0.100000)"
fill="#000000" stroke="none">
<path d="M3075 12789 c-35 -22 -44 -43 -45 -100 0 -102 84 -306 179 -431 95
-125 331 -356 488 -478 25 -19 37 -40 48 -85 9 -33 30 -81 46 -107 30 -47 101
-113 147 -137 13 -7 31 -31 41 -54 23 -54 64 -103 113 -133 l38 -24 -30 -60
c-72 -143 -114 -313 -125 -510 -12 -213 -41 -315 -220 -760 -165 -409 -229
-606 -279 -860 -22 -109 -56 -361 -56 -413 0 -17 -2 -17 -28 2 -53 38 -234
123 -318 149 -80 25 -84 28 -84 55 0 100 -104 171 -194 133 -38 -16 -40 -16
-85 13 -168 108 -392 151 -523 101 -66 -24 -148 -94 -172 -145 -39 -81 3 -155
78 -141 20 4 86 40 146 81 61 40 127 79 147 86 54 17 138 5 236 -37 l87 -36 0
-40 c0 -65 49 -133 104 -144 25 -5 36 -16 54 -54 30 -63 183 -223 387 -405
l165 -147 0 -76 c0 -202 34 -336 100 -396 49 -44 90 -55 215 -58 99 -3 100 -3
100 -28 0 -22 -9 -28 -85 -55 -226 -83 -378 -203 -460 -364 l-29 -58 -73 14
c-167 32 -301 46 -438 47 -158 0 -252 -17 -391 -74 -172 -70 -259 -148 -259
-235 0 -23 -5 -35 -14 -35 -24 0 -218 -104 -311 -166 -49 -33 -158 -110 -242
-171 -83 -61 -196 -139 -251 -174 -95 -61 -100 -65 -95 -94 7 -46 -14 -111
-50 -151 -17 -20 -76 -70 -132 -112 -55 -41 -118 -92 -140 -112 -29 -27 -55
-40 -97 -49 -45 -10 -64 -20 -89 -48 -27 -31 -31 -42 -26 -77 2 -23 11 -57 19
-76 l14 -35 34 63 c40 75 109 132 161 132 101 0 328 162 663 474 87 81 208
188 270 238 99 81 311 243 343 262 7 4 35 -9 65 -29 105 -71 231 -91 380 -60
40 9 147 40 238 69 173 56 307 92 315 84 3 -2 0 -31 -7 -64 -6 -32 -11 -126
-12 -209 0 -162 16 -272 89 -606 44 -199 100 -485 110 -555 l6 -51 -101 -139
c-193 -264 -397 -600 -516 -848 -155 -324 -212 -557 -167 -687 18 -55 18 -56
-1 -100 -51 -117 -56 -197 -30 -504 24 -279 15 -507 -25 -685 -17 -74 -31
-145 -31 -157 0 -16 -13 -31 -39 -47 -50 -32 -117 -110 -156 -182 -25 -46 -37
-59 -69 -70 -51 -17 -85 -42 -115 -85 -21 -31 -23 -42 -18 -132 2 -54 9 -103
14 -108 7 -7 25 11 57 55 43 60 45 67 40 110 -6 41 -4 48 24 75 25 25 36 30
60 25 18 -4 41 0 59 9 43 23 133 124 168 189 38 71 124 143 191 159 66 16 101
35 120 64 19 29 15 58 -51 395 -49 248 -70 374 -80 465 -10 97 21 344 64 502
19 70 308 422 566 688 l106 110 -5 -269 c-5 -288 7 -708 25 -871 30 -280 94
-580 169 -800 52 -154 170 -392 255 -520 225 -333 551 -577 960 -715 99 -34
122 -47 40 -23 -61 17 226 -160 357 -221 418 -195 977 -262 1543 -185 469 64
856 242 1141 525 131 131 205 232 361 491 70 117 130 208 134 202 4 -6 8 -3
11 8 3 10 20 65 36 123 79 270 129 657 133 1029 l1 123 80 -78 80 -79 -5 50
c-4 28 -8 84 -11 125 -4 60 -3 66 3 30 5 -25 12 -90 16 -145 9 -119 -3 -207
-76 -582 -27 -142 -52 -285 -56 -318 -8 -82 14 -109 110 -135 49 -14 81 -30
114 -59 25 -23 49 -41 53 -41 4 0 20 -25 35 -56 32 -65 128 -172 179 -199 32
-17 39 -18 58 -6 20 12 25 10 56 -24 31 -34 33 -40 27 -81 -6 -42 -3 -49 41
-111 55 -77 62 -73 71 37 8 96 -9 152 -60 196 -23 19 -58 40 -79 46 -33 10
-44 21 -70 71 -36 67 -108 151 -153 178 -28 18 -32 27 -63 176 -30 139 -34
182 -39 353 -3 135 0 251 11 377 25 289 20 369 -34 491 -15 33 -17 49 -10 63
6 10 15 44 21 74 27 148 -59 421 -250 792 -44 84 -78 153 -76 153 2 0 16 -19
30 -42 15 -24 24 -33 20 -22 -5 18 39 306 50 323 1 3 6 22 9 41 3 19 19 103
35 185 30 149 107 588 119 675 5 38 7 41 12 20 4 -14 7 24 8 83 l0 108 36 39
c37 41 48 62 21 40 -13 -11 -15 -3 -16 61 0 53 -8 98 -28 157 -23 69 -25 82
-11 82 9 0 5 5 -10 13 -17 8 -29 29 -41 67 -9 30 -18 48 -19 40 0 -8 -21 23
-44 70 -24 47 -42 88 -40 92 2 3 -19 14 -47 23 -27 9 -48 19 -46 21 2 2 21 -2
43 -10 94 -32 232 -58 319 -59 105 0 177 21 255 77 l49 35 138 -104 c184 -138
317 -249 514 -432 310 -288 507 -427 636 -451 67 -12 122 -56 159 -127 16 -30
32 -55 35 -55 4 0 14 25 24 56 15 48 16 60 3 92 -15 42 -80 82 -133 82 -22 0
-40 9 -61 31 -16 18 -78 69 -139 114 -60 45 -122 95 -137 111 -37 40 -58 94
-58 151 -1 48 -1 48 -58 83 -54 33 -134 88 -447 310 -78 56 -199 130 -272 167
-123 63 -133 69 -133 96 0 81 -106 173 -274 238 -131 50 -233 68 -401 70 -82
1 -135 4 -117 6 l32 4 0 81 0 81 73 86 c79 94 118 146 67 91 l-32 -35 25 50
c71 146 86 206 68 273 -7 26 -14 53 -14 60 0 7 -11 15 -24 19 -25 6 -119 -2
-147 -13 -14 -5 -16 18 -18 222 0 126 -4 209 -7 184 l-6 -45 -18 75 c-16 70
-46 233 -47 255 0 5 -19 -9 -42 -30 -41 -39 -41 -39 6 15 57 65 102 129 115
163 6 14 21 27 36 31 69 17 122 90 112 152 -5 32 -3 35 41 55 128 57 210 76
271 59 23 -6 92 -45 152 -86 132 -90 158 -101 200 -84 52 22 63 73 30 138 -20
38 -77 97 -122 124 -40 25 -128 48 -183 48 -106 0 -321 -72 -415 -139 -25 -18
-30 -19 -47 -6 -10 8 -39 14 -64 15 -80 0 -144 -57 -145 -131 0 -22 -5 -39
-11 -39 -6 0 -9 12 -6 28 6 41 -64 248 -190 562 -180 448 -218 575 -268 890
-57 359 -81 439 -176 580 -48 72 -232 265 -319 335 -28 22 -52 43 -55 46 -3 3
-23 17 -44 32 -38 25 -41 26 -60 9 -21 -17 -21 -17 -2 5 10 13 23 20 29 16 6
-3 7 -1 3 6 -4 6 -2 19 6 28 7 9 20 33 28 54 10 26 32 50 69 76 83 58 132 122
161 212 25 77 25 77 135 171 336 288 479 467 559 702 26 77 35 155 22 196 -4
12 -20 29 -36 37 -82 42 -210 -13 -270 -118 -44 -75 -60 -137 -70 -267 -6 -63
-16 -136 -24 -161 -55 -179 -239 -398 -328 -391 -26 2 -45 -11 -129 -94 l-98
-96 -27 21 c-15 11 -35 21 -45 21 -37 0 -98 -70 -146 -167 l-47 -93 -30 37
c-96 118 -240 247 -376 336 -147 96 -371 190 -550 231 -283 65 -652 64 -935
-4 -276 -65 -544 -207 -740 -389 -69 -65 -151 -153 -182 -196 -20 -28 -22 -29
-29 -10 -27 78 -88 186 -124 218 -46 42 -67 45 -104 16 l-27 -21 -98 96 c-85
83 -103 96 -129 94 -64 -5 -213 146 -285 289 -38 74 -55 146 -66 273 -16 185
-69 299 -165 355 -52 30 -140 42 -171 24z m5506 -9086 c13 -16 12 -17 -3 -4
-10 7 -18 15 -18 17 0 8 8 3 21 -13z m34 -43 c10 -11 16 -20 13 -20 -3 0 -13
9 -23 20 -10 11 -16 20 -13 20 3 0 13 -9 23 -20z m44 -64 c-3 -3 -11 5 -18 17
-13 21 -12 21 5 5 10 -10 16 -20 13 -22z m19 -71 c0 -16 -2 -15 -8 5 -11 34
-11 60 0 35 5 -11 8 -29 8 -40z m25 -110 c4 -31 3 -40 -2 -25 -11 36 -22 119
-12 95 5 -11 11 -42 14 -70z m-3730 -2262 c-7 -2 -19 -2 -25 0 -7 3 -2 5 12 5
14 0 19 -2 13 -5z"/>
<path d="M3182 5990 c0 -14 2 -19 5 -12 2 6 2 18 0 25 -3 6 -5 1 -5 -13z"/>
<path d="M3192 5940 c0 -14 2 -19 5 -12 2 6 2 18 0 25 -3 6 -5 1 -5 -13z"/>
<path d="M3201 5894 c0 -11 3 -14 6 -6 3 7 2 16 -1 19 -3 4 -6 -2 -5 -13z"/>
</g>
</svg>
