<?xml version="1.0" encoding="UTF-8" standalone="no"?>
<!-- Created with Inkscape (http://www.inkscape.org/) -->

<svg
   xmlns:dc="http://purl.org/dc/elements/1.1/"
   xmlns:cc="http://creativecommons.org/ns#"
   xmlns:rdf="http://www.w3.org/1999/02/22-rdf-syntax-ns#"
   xmlns:svg="http://www.w3.org/2000/svg"
   xmlns="http://www.w3.org/2000/svg"
   xmlns:sodipodi="http://sodipodi.sourceforge.net/DTD/sodipodi-0.dtd"
   xmlns:inkscape="http://www.inkscape.org/namespaces/inkscape"
   version="1.1"
   id="svg255"
   width="1087"
   height="1280"
   viewBox="0 0 1087 1280"
   sodipodi:docname="button-2792228_1280.svg"
   inkscape:version="0.92.1 r15371">
  <metadata
     id="metadata261">
    <rdf:RDF>
      <cc:Work
         rdf:about="">
        <dc:format>image/svg+xml</dc:format>
        <dc:type
           rdf:resource="http://purl.org/dc/dcmitype/StillImage" />
        <dc:title></dc:title>
      </cc:Work>
    </rdf:RDF>
  </metadata>
  <defs
     id="defs259" />
  <sodipodi:namedview
     pagecolor="#ffffff"
     bordercolor="#666666"
     borderopacity="1"
     objecttolerance="10"
     gridtolerance="10"
     guidetolerance="10"
     inkscape:pageopacity="0"
     inkscape:pageshadow="2"
     inkscape:window-width="1366"
     inkscape:window-height="692"
     id="namedview257"
     showgrid="false"
     inkscape:zoom="0.38828125"
     inkscape:cx="737.05775"
     inkscape:cy="693.36313"
     inkscape:window-x="0"
     inkscape:window-y="27"
     inkscape:window-maximized="1"
     inkscape:current-layer="svg255" />
  <path
     style="fill:#000000"
     d="m 130.51563,1278.7131 c -17.74874,-3.2504 -32.208118,-8.2374 -50.661938,-17.4732 -40.98327,-20.5113 -71.8169003,-52.6652 -78.2781003,-81.6297 -1.66869996,-7.4805 -2.11405996,-18.0154 -0.84022996,-19.8753 0.43893996,-0.6409 17.64132026,-2.389 42.73468026,-4.3428 39.37212,-3.0656 42.13561,-3.4052 44.16725,-5.4273 2.81847,-2.8054 105.318118,-136.4555 105.986048,-138.1961 0.59006,-1.5376 -6.57655,-16.18291 -10.32209,-21.09351 -1.6193,-2.123 -5.66638,-4.8782 -11.10516,-7.5601 -14.05857,-6.9325 -22.53415,-15.9057 -43.73953,-46.3075 -6.52166,-9.35 -15.87439,-22.586 -20.78385,-29.41324 C 93.390362,887.53276 77.773972,863.74597 70.051232,850.08957 41.979872,800.4499 28.357322,747.54599 19.766882,654.80758 c -1.97025,-21.26989 -1.66121,-83.88959 0.51079,-103.5 11.04377,-99.71125 46.16576,-176.0662 118.675648,-258 41.51888,-46.91498 129.82938,-125.46235 166.6389,-148.21619 25.59103,-15.81913 47.95922,-24.60604 98.37783,-38.64583 65.2704,-18.17548 75.13953,-19.67274 129,-19.57077 36.4789,0.0691 50.9894,1.00613 85.5,5.52148 90.0277,11.77919 173.6026,40.12377 203.3175,68.95545 5.8679,5.69358 11.1825,12.57869 11.1825,14.48718 0,0.67719 -1.9993,1.73467 -4.4428,2.34997 -10.4391,2.6286 -22.425,0.65 -45.2674,-7.47263 -8.3656,-2.97476 -15.7292,-5.40866 -16.3635,-5.40866 -1.5688,0 -0.3265,8.20847 2.071,13.6843 1.5665,3.57774 2.4606,4.3511 6.1674,5.3349 12.3006,3.26459 20.8387,6.38343 25.3353,9.25458 l 5,3.1926 -25.75,1.41551 c -29.3901,1.61561 -27.9398,0.95638 -23.3609,10.61811 3.0423,6.41941 5.4839,8.90364 11.905,12.11295 5.95,2.9739 10.2538,6.67986 12.2952,10.58739 1.9978,3.82411 1.7815,4.49425 -1.3393,4.1494 -16.2154,-1.79179 -36.5243,-3.40879 -36.9881,-2.945 -0.3207,0.32067 1.1616,4.29829 3.2939,8.83915 4.4465,9.46904 5.4203,16.98208 3.507,27.05837 -1.7506,9.21941 -1.9725,9.69774 -4.4992,9.69774 -4.6553,0 -20.3431,-3.18593 -39.945,-8.11216 -18.4592,-4.63908 -21.3558,-5.09951 -35.1186,-5.58232 -8.25,-0.28942 -16.575,-0.10624 -18.5,0.40706 l -3.5,0.93328 8.5216,4.05938 c 21.2144,10.10568 48.0873,16.33925 94.0542,21.8172 l 5.5757,0.66447 6.2967,-6.84345 c 19.65,-21.35626 55.1297,-69.62713 94.7016,-128.84346 14.9873,-22.42747 20.0545,-31.15803 34.7227,-59.82637 12.7477,-24.91462 19.6632,-36.8399 31.9956,-55.17363 14.4097,-21.42201 19.0481,-24.81748 48.9367,-35.8235945 l 14.8047,-5.45168499 -0.6235,2.83911499 c -1.2147,5.530191 -6.6759,18.5706445 -12.0034,28.6619745 -10.0614,19.05823 -21.982,35.51288 -51.8254,71.53706 -21.5194,25.97618 -29.2184,35.90474 -36.1453,46.6126 -5.9502,9.19818 -12.1278,22.30784 -13.6794,29.02974 l -1.1914,5.16168 4.9294,5.074 c 7.9849,8.21899 25.3177,22.93319 44.2492,37.56416 55.7765,43.10602 68.8657,58.73424 98.09415,117.12296 70.5687,140.97241 86.4722,282.56211 46.4639,413.67199 -32.0127,104.90795 -98.11035,197.24331 -196.87775,275.02892 -17.7864,14.008 -28.7872,21.3156 -48.9307,32.5039 -43.5841,24.2079 -103.1273,49.3684 -135.728,57.353 -24.8578,6.0883 -66.3977,10.3674 -109.3413,11.2637 -85.29651,1.7801 -166.58736,-10.8892 -223.5,-34.8329 -12.22882,-5.1447 -24.71365,-11.8442 -43.63569,-23.4154 -18.28676,-11.1826 -26.14268,-15.2123 -37.36431,-19.166 -10.23592,-3.6064 -23.49678,-6.6642 -24.96508,-5.7568 -0.58492,0.3615 -2.01198,2.5393 -3.17123,4.8394 -8.08142,16.0351 -34.62122,56.6876 -57.89575,88.6822 -26.76203,36.7887 -38.10777,55.9664 -41.63407,70.3739 -2.16644,8.8515 -1.05863,13.4092 5.69673,23.4369 2.70878,4.021 5.43722,9.196 6.06319,11.5 1.43943,5.2982 0.61131,16.3417 -1.81389,24.1892 l -1.85425,6 -5.96282,0.1811 c -3.27956,0.1 -9.54232,-0.4744 -13.91725,-1.2756 z m -30.545588,-39.9387 c 0,-0.2933 -1.1746,-2.8808 -2.61022,-5.75 -4.28203,-8.5581 -9.69621,-15.0219 -14.99107,-17.8975 -4.61825,-2.5081 -28.44464,-10.1067 -29.2296,-9.3217 -0.20031,0.2003 2.37248,3.9592 5.71733,8.3532 9.32395,12.2485 16.14376,17.1614 30.63168,22.0669 9.33306,3.16 10.48188,3.4394 10.48188,2.5491 z m 19.254678,-23.2168 c 1.38966,-2.0625 3.3136,-6.1925 4.27541,-9.1778 1.22262,-3.7948 18.83641,-31.3268 58.54421,-91.5101 54.27648,-82.2644 57.31285,-86.6363 68.4611,-98.5722 11.50191,-12.3146 29.43647,-36.26311 195.23598,-260.70389 19.30522,-26.13325 38.83585,-51.38818 46.28007,-59.84446 13.34071,-15.15443 17.79526,-21.18155 22.38493,-30.28746 3.81515,-7.56925 6.56363,-19.23096 6.56363,-27.84926 0,-7.33436 -0.0125,-7.36862 -2.25,-6.18501 -15.24181,8.06264 -57.39384,60.4037 -148.89026,184.88016 -45.5229,61.93172 -52.54973,71.35272 -72.34922,97 -9.978,12.92501 -35.50334,46.90001 -56.72298,75.50001 -85.15543,114.77321 -126.5429,164.73911 -158.787548,191.69981 -5.225,4.3687 -9.5,8.3726 -9.5,8.8975 0,1.0601 41.346788,29.6395 43.114008,29.8009 0.6127,0.056 2.251,-1.5857 3.64067,-3.6482 z m 488.19473,-105.3059 c -1.4999,-1.6574 -1.636,-2.4156 -0.7021,-3.9111 1.5285,-2.4475 1.6897,-2.3998 -17.1907,-5.0884 -15.495,-2.2065 -16.0245,-2.217 -29.4178,-0.5815 -16.892,2.0627 -25.28121,2.0833 -34.07308,0.084 -12.45156,-2.8321 -12.11563,-3.5253 4.06077,-8.3793 l 14.34021,-4.3031 32.0167,0.7042 c 50.1927,1.1039 73.3658,-0.7804 116.5166,-9.4747 25.2698,-5.0915 48.9991,-7.7823 58.0465,-6.5821 l 4.6294,0.6141 1.1904,-5.3192 c 2.8625,-12.791 10.9785,-24.2016 23.6337,-33.2278 3.3,-2.3537 15,-9.4163 26,-15.6948 24.3586,-13.9032 33.4213,-19.51111 46.3831,-28.70121 32.4048,-22.9755 69.5413,-59.0888 97.5198,-94.83291 2.6907,-3.4375 5.6762,-6.25 6.6345,-6.25 0.9584,0 6.1165,0.9 11.4626,2 5.3461,1.1 10.1156,2 10.5989,2 0.4833,0 2.7399,-3.7125 5.0146,-8.25 2.2747,-4.5375 8.7755,-15.92401 14.4462,-25.30336 13.59735,-22.48992 22.47805,-40.88572 33.52595,-69.44664 23.3514,-60.36773 26.0055,-69.83253 35.9826,-128.31871 l 4.2338,-24.81871 -2.8588,-5.98127 c -3.0592,-6.40056 -4.7601,-8.34226 -7.3288,-8.36624 -1.1455,-0.0107 -2.5373,-2.77456 -4.7915,-9.51507 -7.0427,-21.05921 -9.3022,-36.25456 -9.3148,-62.64405 0,-9.42922 -0.4771,-21.80422 -1.0502,-27.5 -3.7521,-37.28987 -18.6088,-77.0576 -50.69305,-135.69281 -22.9861,-42.00785 -29.461,-61.07389 -26.3661,-77.63759 1.8792,-10.05756 0.3793,-12.1198 -30.4777,-41.90517 -14.6059,-14.09896 -30.2383,-28.72298 -34.7387,-32.49812 -16.5755,-13.90446 -32.2839,-22.65155 -47.2438,-26.30724 l -8.4081,-2.05468 -8.0575,7.26373 c -4.4317,3.99504 -9.1262,9.1114 -10.4324,11.36968 -2.458,4.24964 -8.0613,21.41863 -7.2537,22.22615 0.2516,0.25164 5.5775,-1.92246 11.8353,-4.83134 10.96,-5.09467 11.6899,-5.28779 19.8778,-5.25974 6.6476,0.0228 10.1114,0.61118 15.8943,2.69996 15.0534,5.43737 32.1803,17.81639 49.6471,35.88407 9.6663,9.99884 20.2271,23.45165 19.2092,24.46954 -0.7558,0.75587 -10.4221,-3.26462 -18.7506,-7.79891 -8.2615,-4.49782 -18.3244,-11.06673 -39.5,-25.78505 -14.8057,-10.29083 -26.9651,-17.99873 -28.3936,-17.99873 -0.472,0 -1.6449,4.05 -2.6064,9 -0.9615,4.95 -2.1682,9 -2.6817,9 -0.5135,0 -7.3345,-2.7 -15.1578,-6 -7.8233,-3.3 -14.6925,-6 -15.265,-6 -1.4467,0 -16.0454,15.23336 -21.5626,22.5 -7.8184,10.29754 -14.8386,21.61163 -19.8554,32 -7.6313,15.80185 -8.4284,13.36921 8.7072,26.57012 50.1471,38.63227 78.07,65.37803 103.1308,98.78317 63.8471,85.10597 77.6195,199.29562 36.5021,302.64671 -33.4882,84.17467 -99.5312,155.4652 -185.8176,200.58181 -71.1267,37.1901 -156.235,54.3486 -225,45.3619 -43.19889,-5.6456 -71.54171,-15.8591 -130,-46.8461 -11,-5.8308 -23.06019,-11.8056 -26.80042,-13.2773 l -6.80041,-2.6758 -8.52731,8.4277 c -10.48489,10.3625 -19.86765,22.6331 -24.73198,32.344 -3.6989,7.3842 -8.96097,21.596 -8.25687,22.3001 0.20828,0.2083 5.35521,1.6844 11.43761,3.2802 6.0824,1.5957 12.89205,3.8366 15.13255,4.9796 4.11188,2.0977 8.61465,7.3839 12.15862,14.27391 1.61154,3.1331 1.68303,3.75 0.43457,3.75 -2.51694,0 -15.40224,-5.4789 -28.40972,-12.08001 -15.55724,-7.8951 -21.37623,-8.8343 -26.01223,-4.1983 -2.93938,2.9394 -4.42572,6.85101 -5.71257,15.03391 l -0.66925,4.2556 7.37871,3.4054 c 4.05828,1.8729 14.8037,5.9313 23.8787,9.0186 40.22276,13.6838 51.74686,18.5726 65.65713,27.8531 6.87036,4.5837 17.7408,14.6531 21.46492,19.8831 l 1.99524,2.8021 -3.30865,-0.6386 c -17.62575,-3.4018 -35.51537,-10.9868 -105.64771,-44.7935 -14.48649,-6.9831 -26.45691,-12.5492 -26.60093,-12.369 -0.72133,0.9024 2.12103,15.7492 3.28196,17.143 0.73807,0.8861 7.71307,5.0632 15.5,9.2824 7.78692,4.2192 21.6561,11.9176 30.82039,17.1075 18.86967,10.6863 28.85928,14.7222 50.35908,20.3458 51.54568,13.4825 131.04453,24.678 207.97857,29.2887 2.75,0.1649 10.5822,0.3808 17.405,0.48 l 12.405,0.1802 z m 180.5506,-51.0356 c 12.9624,-5.1076 40.1689,-18.9139 52.8009,-26.7945 28.0769,-17.516 52.1854,-39.65131 66.5016,-61.05881 2.0026,-2.9947 3.4871,-5.5989 3.2988,-5.7873 -0.1884,-0.1883 -2.9882,1.0928 -6.2219,2.847 -36.3448,19.7156 -88.2943,53.80831 -115.0018,75.47181 -9.271,7.5201 -22.3776,20.6535 -22.3776,22.4235 0,0.9534 3.9333,-0.3768 21,-7.1017 z M 219.15192,981.21479 c 10.55036,-5.3824 22.93953,-21.3207 31.30723,-40.276 l 2.59074,-5.8688 -3.78992,0.6944 c -2.08446,0.3818 -5.13992,1.5429 -6.78992,2.5801 -7.2291,4.5441 -10.56627,5.8738 -18.89062,7.527 -8.47489,1.6831 -8.89221,1.6821 -9.84666,-0.023 -0.54817,-0.9796 -5.14331,-7.2394 -10.2114,-13.9108 C 156.49071,870.02911 116.97103,798.42665 97.478822,739.80798 71.453712,661.54294 70.611042,592.95494 94.806062,522.26145 c 7.646848,-22.3427 12.842098,-34.13503 33.483098,-76.00093 21.08329,-42.76299 27.18424,-58.0882 29.24136,-73.45254 l 0.66945,-5 -4.72901,6 c -15.79445,20.03944 -34.75288,48.17891 -41.62418,61.78159 -5.67859,11.24154 -7.47241,16.19617 -11.37203,31.41014 -3.557308,13.87844 -7.340898,22.62052 -18.960348,43.80827 -6.70305,12.22285 -11.61261,26.93192 -14.70738,44.06338 -2.15537,11.93134 -2.33643,15.61756 -2.32998,47.43662 0.005,26.8459 0.51643,40.93388 2.30319,63.5 6.43261,81.24125 8.59102,90.13575 34.337598,141.5 8.68424,17.325 19.88914,41.4 24.89979,53.5 5.01065,12.1 10.29153,24.17472 11.7353,26.83272 3.38246,6.22715 7.48137,9.66395 11.54386,9.67915 10.16239,0.038 25.24591,7.50046 35.26554,17.44734 9.22059,9.1537 12.24344,15.6041 17.91406,38.2268 4.84465,19.3274 8.88425,30.314 11.14603,30.314 0.78502,0 3.27331,-0.9418 5.52951,-2.0928 z m 428.72943,-28.0045 c 51.3087,-10.3777 110.356,-41.475 146.1641,-76.97744 8.4328,-8.36084 21.491,-24.6922 20.5198,-25.66335 -0.7139,-0.7139 -12.3299,8.4841 -14.339,11.35421 -6.2603,8.94301 -11.8724,12.96942 -40.2562,28.88197 -26.4098,14.80586 -48.7837,26.13641 -77,38.99431 -24.7453,11.2762 -49.4631,23.5872 -51.5,25.6504 -1.1196,1.134 1.4909,0.7777 16.4113,-2.2401 z m -70.4113,-3.9039 c 37.048,-5.5351 76.8409,-18.1594 110.9286,-35.1922 8.9083,-4.4513 27.6125,-14.80944 61.5714,-34.09743 26.5869,-15.10081 41.5872,-29.01067 50.6131,-46.93373 1.8628,-3.69904 3.3869,-6.97331 3.3869,-7.27617 0,-1.37508 -7.4495,3.64226 -25.8127,17.38518 -37.2765,27.89755 -55.6191,39.58995 -82.6873,52.70871 -33.1588,16.0706 -61.3063,24.36174 -103,30.33964 -45.0944,6.4655 -95.38452,6.7028 -124.5,0.5874 -21.32197,-4.4785 -38.53641,-12.173 -48.00385,-21.45675 -3.12043,-3.0599 -6.19962,-6.55293 -6.84263,-7.76228 l -1.16911,-2.19882 5.60383,1.928 c 7.79993,2.68357 28.15338,7.64102 38.91176,9.47765 43.06271,7.3515 108.6495,5.21265 169.1758,-5.51708 65.5496,-11.62022 146.2165,-64.15816 194.6653,-126.78445 17.8468,-23.06921 34.0484,-52.79056 42.0048,-77.05624 10.1634,-30.99664 16.9478,-82.5773 14.6485,-111.36891 -1.8279,-22.88807 -4.8821,-34.99003 -22.3967,-88.7443 -4.7423,-14.55464 -8.4878,-26.86676 -8.3233,-27.36028 0.1645,-0.49351 3.9051,2.91217 8.3124,7.56819 9.6811,10.22741 13.584,17.32476 20.2226,36.77474 2.7183,7.96417 6.4607,17.63032 8.3165,21.48032 2.9805,6.18348 3.4116,6.67337 3.6954,4.19979 0.5178,-4.51353 -2.6145,-23.52716 -5.3047,-32.19979 -3.2819,-10.58033 -7.3058,-18.32482 -17.666,-34 -11.5071,-17.41051 -30.8347,-51.93553 -29.6638,-52.98863 0.1723,-0.15493 2.9736,0.5687 6.2253,1.60804 3.2516,1.03935 6.1108,1.69106 6.3536,1.44824 0.5609,-0.56095 -8.1784,-12.15724 -18.8917,-25.06765 -10.9585,-13.20586 -39.5603,-41.78813 -48.374,-48.34103 -3.85,-2.86243 -9.8572,-6.62795 -13.3492,-8.36782 -6.1721,-3.07511 -6.5292,-3.13255 -12.7997,-2.05847 -3.5478,0.60771 -7.1031,1.64656 -7.9008,2.30857 -1.8761,1.55704 -1.8484,6.07022 0.065,10.65065 2.5192,6.02941 12.7149,19.37067 17.1191,22.40089 2.2742,1.56469 5.3333,4.269 6.7979,6.00958 2.6584,3.15938 7.0217,10.89763 6.1447,10.89763 -0.9407,0 -8.1937,-4.46254 -11.8653,-7.30033 -2.0833,-1.61021 -4.6387,-4.59551 -5.6786,-6.634 -2.2008,-4.31392 -4.9558,-5.38949 -18.0335,-7.0405 l -8.5,-1.07309 -3.1798,3.73821 c -4.4974,5.28733 -7.5751,11.90649 -8.1062,17.43419 -0.6944,7.2269 2.3886,12.32411 16.6908,27.59485 23.7935,25.40473 32.7893,37.55831 44.2659,59.80412 14.4983,28.10311 24.6259,60.80989 27.7715,89.68714 5.9972,55.05588 -10.8814,126.85074 -39.9166,169.78941 -10.3122,15.25024 -34.8219,41.7221 -53.9085,58.22421 -58.7059,50.75674 -129.8521,77.72981 -194.11312,73.59249 -32.17474,-2.0715 -59.58322,-12.35176 -77.5709,-29.09495 -7.54628,-7.02419 -14.28188,-15.93883 -12.4933,-16.53502 0.56378,-0.18793 6.32046,2.46602 12.79262,5.89766 35.62963,18.89139 45.33939,22.87474 64.76757,26.57034 10.8332,2.06067 37.68523,2.3065 50.50003,0.46231 37.8972,-5.45386 80.1346,-19.42299 111.5,-36.87625 71.5419,-39.8096 113.1469,-100.97692 124.6373,-183.24079 2.2136,-15.84812 1.6708,-55.41299 -1.0014,-73 -6.8924,-45.36028 -21.8433,-84.29966 -44.9227,-117 -4.0038,-5.67288 -13.6357,-16.54995 -23.909,-27 l -17.204,-17.5 -6.12,6 c -8.3507,8.18689 -14.7281,16.90885 -27.4198,37.5 -5.9325,9.625 -12.6201,19.975 -14.8613,23 -3.7741,5.09382 -37.6616,47.47155 -46.5575,58.22204 -3.6978,4.46869 -6.394,11.71332 -8.7316,23.46168 -0.6098,3.06445 -0.4888,3.20838 3.2283,3.84191 2.1239,0.362 9.4137,1.99341 16.1994,3.62536 51.105,12.29057 79.5297,36.59376 76.814,65.67601 -1.6656,17.83692 -16.8341,34.98361 -33.7927,38.19973 -4.7913,0.90867 -5.475,0.75863 -11.8801,-2.60713 -8.3472,-4.38637 -13.9343,-9.06472 -16.4877,-13.806 -2.973,-5.52057 -6.7224,-6.77392 -20.8103,-6.95648 l -12.1253,-0.15712 -3.3092,5.5 c -7.9776,13.25892 -10.5031,29.85182 -9.2084,60.5 0.4182,9.9 0.3785,21.46084 -0.088,25.69076 -2.5342,22.96524 -16.7814,28.34545 -52.08845,19.67025 -6.9513,-1.70798 -13.06592,-3.38793 -13.58805,-3.73321 -0.52213,-0.34529 -3.10835,-9.4028 -5.74715,-20.1278 -2.6388,-10.725 -5.07418,-19.80618 -5.41195,-20.1804 -0.70785,-0.78422 -16.04061,4.01533 -20.84725,6.52572 -2.19357,1.14564 -5.8569,5.62186 -11.39347,13.92162 -8.87611,13.30601 -16.55945,23.24574 -40.22716,52.04074 -24.53315,29.84792 -37.6043,49.71938 -43.45274,66.05914 -4.88992,13.6618 -4.90802,13.09203 0.54243,17.07289 10.68836,7.8065 29.33427,15.42832 46.33368,18.93964 26.15241,5.40193 65.65465,4.8987 112.43041,-1.43227 63.7105,-8.62306 75.9569,-11.04242 103.2603,-20.39974 45.9797,-15.75804 80.2701,-39.33443 104.6443,-71.9483 28.7176,-38.42543 53.9219,-80.57928 65.9005,-110.21786 18.2087,-45.05337 19.9689,-81.90964 6.203,-129.88118 -4.4541,-15.52152 -11.2219,-34.41719 -28.2953,-79 -11.4236,-29.82956 -19.4636,-52.58254 -18.8113,-53.23487 0.2468,-0.24682 4.6748,3.75506 9.84,8.89305 17.3416,17.25026 32.0051,42.9942 42.2606,74.19487 18.4342,56.08246 20.1672,116.03021 5.0584,174.98057 -9.996,39.0019 -30.4535,79.778 -56.5251,112.66638 -10.3561,13.06386 -35.4144,38.2118 -48.0354,48.20737 -45.5819,36.09971 -98.3261,55.72234 -163.3953,60.78861 -16.4559,1.28126 -55.83804,1.27651 -74.60474,-0.009 -17.61974,-1.20694 -100.99254,-8.9295 -102.77211,-9.51945 -0.69966,-0.23195 -3.2954,-4.57881 -5.76832,-9.65969 -4.15575,-8.53844 -4.74092,-9.2652 -7.72789,-9.59768 -1.77742,-0.19785 -5.13561,-1.19698 -7.46262,-2.22028 -2.32702,-1.02331 -4.44008,-1.52219 -4.69567,-1.10862 -0.2556,0.41357 -1.38918,4.08792 -2.51906,8.16524 -2.371,8.55604 -2.63844,16.61976 -0.70471,21.24784 2.02751,4.85251 11.13723,12.57445 21.71615,18.4079 11.08983,6.11517 49.61816,24.03417 62.20655,28.93147 15.17656,5.9041 35.75875,10.491 57.22768,12.7535 10.30235,1.0857 47.49354,-0.3704 61.00004,-2.3884 z M 510.76821,837.77841 c -17.65115,-2.40718 -34.14177,-8.01534 -45.8827,-15.60387 -3.37943,-2.18423 -5.96979,-4.14596 -5.75636,-4.35939 0.38655,-0.38655 15.3383,2.67273 51.21044,10.47818 25.84664,5.62399 38.94866,7.35239 51.13046,6.74503 11.7682,-0.58673 8.6148,0.45468 -8.3012,2.74147 -13.44499,1.81755 -29.06643,1.81703 -42.40064,-10e-4 z m 96.24744,-16.78853 c 13.6841,-6.9415 29.3786,-16.35055 49.7357,-29.81715 16.7725,-11.09533 16.6918,-11.05188 10.7407,-5.77728 -2.7378,2.42667 -7.2378,6.88105 -10,9.89862 -9.0107,9.84412 -11.8964,12.11182 -21.022,16.52008 -7.5184,3.63189 -39.1011,15.49343 -41.253,15.49343 -0.3607,0 4.9487,-2.84297 11.7986,-6.3177 z M 511.0282,810.25543 c -13.02043,-1.63031 -30.39545,-7.44853 -32.52277,-10.89061 -0.3346,-0.54139 1.96343,-1.72779 5.12946,-2.64818 7.36325,-2.14056 17.73176,-1.41491 29.26313,2.04798 10.86749,3.26354 23.73607,4.85149 32.57203,4.01933 23.759,-2.23761 48.7202,-10.07661 85.1316,-26.73532 l 14.1315,-6.46539 -2.2236,5.11217 c -1.2231,2.81169 -2.7032,6.27961 -3.2892,7.70648 -0.9376,2.28286 -3.5677,3.44848 -21.9079,9.7093 -23.5387,8.03542 -30.9792,10.25611 -43.8424,13.08517 -21.655,4.76268 -47.85554,6.88546 -62.44185,5.05907 z m 137.97015,-48.44785 c 5.6752,-10.29782 13.1698,-20.56257 21.2545,-29.11055 7.4038,-7.82799 23.7334,-22.38945 25.1082,-22.38945 0.65,0 -42.5275,50.33812 -47.1763,55 -2.2526,2.2589 -2.1741,1.92136 0.8136,-3.5 z m 63.5644,-15.25 c 4.0848,-6.42751 16.0573,-23.93549 28.1302,-41.13617 12.7257,-18.13072 18.1069,-30.48029 20.2342,-46.43619 2.988,-22.41194 -1.5479,-53.60922 -16.5608,-113.90266 -9.9421,-39.92822 -14.3733,-52.94615 -26.3915,-77.53273 -6.0799,-12.43811 -9.2436,-19.90525 -8.1959,-19.34455 3.4276,1.83442 13.1655,12.99499 18.4907,21.1921 17.9413,27.61721 33.1751,70.28771 39.7746,111.4102 2.6645,16.60346 3.6951,50.63359 1.9853,65.55685 -5.0701,44.25111 -22.7558,78.10845 -52.4917,100.48945 -3.9852,2.99953 -7.5571,5.4537 -7.9376,5.4537 -0.3804,0 0.9527,-2.5875 2.9625,-5.75 z M 413.44956,933.14829 c -6.55412,-6.0887 -18.22951,-13.9926 -28.52054,-19.30774 -10.03608,-5.18343 -25.06678,-11.7585 -25.61861,-11.20667 -0.2052,0.2052 4.75746,5.34325 11.02812,11.41791 9.35233,9.06 12.90449,11.7856 19.76636,15.167 7.1037,3.5005 26.67177,9.5666 27.69117,8.5843 0.1793,-0.1728 -1.77662,-2.2675 -4.3465,-4.6548 z M 217.86002,900.67375 c -2.86607,-4.87639 -9.71303,-16.29117 -15.21547,-25.36617 -10.65603,-17.57464 -20.49987,-37.13229 -23.02709,-45.75 -0.84679,-2.8875 -1.31417,-5.25 -1.03864,-5.25 0.27553,0 3.10791,1.77034 6.29417,3.93409 8.74836,5.9409 14.09265,12.50719 18.01448,22.1336 4.08225,10.02017 8.88323,15.14859 20.67413,22.08419 7.37768,4.33967 29.55788,14.88076 30.19362,14.34945 0.6409,-0.53564 -4.41114,-12.79196 -10.30553,-25.00133 -7.67815,-15.90419 -16.31628,-30.28197 -35.44097,-58.98992 -18.6765,-28.03516 -23.69644,-36.43399 -31.53528,-52.76151 -23.08148,-48.07639 -30.46619,-104.41502 -23.95417,-182.74857 2.89655,-34.84285 5.97668,-54.57137 11.48755,-73.57873 3.47153,-11.97356 3.75629,-12.68772 14.52241,-36.42127 8.32455,-18.35119 15.87791,-38.00344 14.60391,-37.99627 -1.114,0.006 -9.59902,11.01026 -15.41885,19.99627 -18.37378,28.36973 -30.29093,65.04434 -36.8313,113.34703 -2.62674,19.39932 -3.75543,66.90021 -1.99023,83.75883 2.51007,23.97253 7.34901,46.91337 19.2779,91.39414 11.68935,43.58758 17.01157,68.45296 19.23497,89.86555 0.55573,5.35207 0.4539,5.79929 -1.16326,5.10857 -0.97478,-0.41634 -2.96555,-0.96291 -4.42394,-1.21461 -5.0778,-0.87635 -12.42342,-14.06243 -19.28752,-34.6229 -8.52176,-25.52576 -32.88689,-117.74531 -36.10048,-136.63661 -0.88967,-5.23001 -1.8522,-18.26472 -2.14146,-29 -0.61191,-22.70996 0.59991,-36.38607 6.70173,-75.63279 4.23117,-27.21481 7.00693,-48.15675 6.93708,-52.33735 -0.0313,-1.87512 -0.64476,-1.08031 -2.37024,3.07108 -7.0753,17.02266 -15.11786,45.23975 -18.49782,64.89906 -4.07969,23.72926 -4.56189,30.15739 -4.57586,61 -0.0144,31.84893 0.63596,40.59931 5.05418,68 7.5977,47.11897 25.46494,103.89852 48.68497,154.71389 12.37631,27.08468 18.52376,34.41882 39.86429,47.55968 6.81051,4.19371 15.50577,9.88725 19.32279,12.6523 3.81703,2.76506 7.10225,4.86517 7.3005,4.66692 0.19825,-0.19824 -1.98451,-4.35023 -4.85057,-9.22662 z m 53.52824,-42.97316 c 1.88602,-0.72373 2.21331,-9.60178 0.51833,-14.05991 -0.5849,-1.53841 -8.70955,-14.38194 -18.05479,-28.54117 -26.41098,-40.01605 -38.47859,-65.18237 -47.85164,-99.79193 -18.67473,-68.95556 -15.04228,-166.61844 8.77772,-236 5.8654,-17.08442 9.5954,-25.96034 17.21619,-40.96775 13.01011,-25.62045 22.91785,-37.44298 62.95976,-75.12754 21.15297,-19.90765 29.53877,-27.09989 38.75506,-33.23899 41.44653,-27.60814 127.1904,-57.27374 190.26116,-65.8264 5.32904,-0.72265 18.9395,-1.28097 31,-1.27167 19.4527,0.015 22.976,0.29274 37,2.91665 10.5419,1.97241 18.8587,2.91856 26,2.95788 9.6443,0.0531 10.767,-0.14249 13.7769,-2.40013 l 3.2769,-2.45796 -2.2769,-1.16036 c -3.9377,-2.00672 -21.8094,-6.23568 -33.7769,-7.99256 -14.3307,-2.1038 -47.9126,-3.15646 -71,-2.22556 -40.57993,1.6362 -85.65469,8.30722 -120.28145,17.80153 -26.54819,7.27925 -26.95762,7.49207 -76.45819,39.74398 l -45.23964,29.47572 -21.76036,26.48421 c -26.08112,31.74294 -38.42258,48.03563 -48.83009,64.46348 -29.12357,45.9704 -42.0911,88.75998 -45.52473,150.22005 -2.13495,38.21449 2.21479,94.23031 10.04786,129.39622 7.05052,31.65271 21.50122,66.29301 39.88922,95.61995 10.13483,16.16398 28.98735,42.41243 34.35976,47.83925 4.46851,4.51376 4.97422,4.75 10.16821,4.75 3.00621,0 6.17764,-0.27314 7.04762,-0.60699 z m 33.79218,-19.06502 c 8.7706,-8.49012 9.00461,-13.40149 1.32105,-27.72598 -5.71703,-10.65827 -8.87302,-20.42232 -8.34355,-25.81338 0.29481,-3.00171 0.99992,-2.26626 12.71937,13.26674 6.824,9.04455 12.82428,16.89463 13.33397,17.44463 1.33037,1.43559 8.14641,-6.5126 11.2981,-13.17472 3.0286,-6.40193 4.64378,-15.04641 3.88161,-20.77439 -0.29646,-2.22799 -1.48435,-8.4415 -2.63974,-13.8078 -1.1554,-5.36629 -1.84858,-10.00905 -1.5404,-10.31723 0.30818,-0.30818 2.89911,0.62482 5.75762,2.07334 5.04225,2.5551 5.25712,2.57948 7.20298,0.81723 1.54392,-1.39823 4.05394,-1.8969 10.90214,-2.16593 l 8.89646,-0.3495 -0.0439,3.8495 c -0.0241,2.11723 -0.68217,5.64189 -1.46229,7.83258 -1.54449,4.33715 -1.45457,4.59718 3.78419,10.94395 l 2.41603,2.92702 2.90298,-2.08445 c 4.34778,-3.12188 13.07398,-14.76065 20.59237,-27.46557 21.93719,-37.07043 27.41513,-44.54411 46.39962,-63.30403 7.79218,-7.7 14.9344,-15.51179 15.87161,-17.35953 1.59138,-3.13745 4.57347,-27.4995 3.48672,-28.48463 -0.87421,-0.79248 -16.69493,2.86757 -18.33833,4.24249 -3.45209,2.88811 -12.48116,19.10792 -18.52514,33.27852 -5.17412,12.13114 -7.21719,15.73469 -11.77902,20.77566 -3.03551,3.35436 -7.48009,7.44801 -9.87683,9.09702 l -4.35773,2.99819 -5.57843,-1.88327 c -4.86065,-1.64094 -6.16621,-2.69104 -10.14644,-8.16104 l -4.568,-6.27777 1.70473,-6.29777 c 0.9376,-3.46377 3.35018,-9.58954 5.36129,-13.61282 3.5323,-7.06647 4.01623,-7.55292 14.24075,-14.31505 5.8213,-3.85 12.46495,-8.50518 14.76366,-10.34485 l 4.17947,-3.34484 -5.18461,-5.65516 c -11.06298,-12.06706 -16.9677,-24.15567 -16.9677,-34.73764 0,-8.22106 2.80161,-13.97686 10.08569,-20.72063 7.4591,-6.90581 18.53629,-12.59458 36.53327,-18.76195 8.47375,-2.90385 22.72753,-9.03834 34.25872,-14.74413 10.86103,-5.37419 21.6524,-10.50153 23.98082,-11.3941 l 4.23351,-1.62285 0.26649,-26.83692 0.2665,-26.83693 10.5,-5.22849 c 11.08549,-5.52004 18.93645,-7.82957 38.5,-11.32558 l 12,-2.1444 11.5963,11.97393 11.5962,11.97392 5.9038,-1.37044 c 3.247,-0.75374 7.0541,-1.58406 8.4601,-1.84515 2.1558,-0.40032 3.0777,-1.81503 5.8833,-9.02764 1.8299,-4.70412 3.6669,-8.76303 4.0824,-9.0198 0.4155,-0.25677 1.9988,1.21625 3.5185,3.27339 1.5198,2.05714 4.3612,5.42776 6.3143,7.49026 6.49,6.85364 7.836,5.02659 9.09,-12.33824 1.3973,-19.35025 4.7554,-28.12733 15.1495,-39.59687 5.9973,-6.61777 9.3238,-11.9536 11.0885,-17.78642 1.3607,-4.49715 3.693,-17.96112 3.1993,-18.46814 -0.2355,-0.24181 -1.1184,0.54569 -1.9619,1.75 -0.8435,1.20432 -1.9971,2.18967 -2.5635,2.18967 -0.5664,0 -2.9034,1.33189 -5.1933,2.95975 -4.5664,3.24614 -10.6858,4.97807 -17.7224,5.0158 -6.234,0.0334 -7.6531,-1.36736 -8.1567,-8.05148 l -0.4201,-5.57594 6.8257,-5.42406 c 3.7541,-2.98324 9.1846,-6.70117 12.0678,-8.26208 6.644,-3.59692 9.4603,-3.28256 25.2444,2.81785 6.4863,2.5069 11.9157,4.43555 12.0654,4.28587 0.1497,-0.14967 -1.1107,-2.29569 -2.8009,-4.76892 -3.7726,-5.52035 -9.7552,-17.03241 -9.7618,-18.78436 -0.01,-2.36697 28.1514,-32.21137 30.4072,-32.22563 1.1484,-0.007 9.7379,-0.67304 19.0879,-1.4795 9.35,-0.80646 17.675,-1.47619 18.5,-1.48828 1.2259,-0.018 1.4943,-1.71196 1.4689,-9.2705 -0.017,-5.08669 -0.3854,-9.81784 -0.8184,-10.51367 -1.2818,-2.05983 -6.5347,-3.89839 -39.6505,-13.87793 -62.1799,-18.73807 -77.4626,-21.33629 -125.5,-21.33629 -51.64414,0 -93.41901,7.2729 -144.3116,25.12429 -36.14805,12.6795 -92.50558,40.11096 -103.04483,50.15603 -1.84604,1.75948 -6.02038,6.67554 -9.27632,10.92458 -3.25593,4.24905 -12.51169,14.82405 -20.56835,23.5 -35.97413,38.7394 -47.98248,54.86764 -60.88551,81.77447 -12.07295,25.17587 -23.38192,61.32012 -28.31603,90.5 -5.8732,34.73362 -5.19927,71.81087 2.00849,110.5 7.00127,37.58079 22.66031,82.5772 44.88107,128.96624 19.19774,40.07804 37.21492,55.45428 50.22347,42.86175 z m 65.28961,-95.33463 c -14.32219,-2.16873 -14.88145,-6.59864 -2.99832,-23.74965 0.50626,-0.73069 12.78124,7.41641 13.66661,9.07075 0.56975,1.06459 2.08816,5.02934 3.37424,8.81057 l 2.33832,6.87497 -5.69042,-0.12476 c -3.12974,-0.0686 -7.94043,-0.46546 -10.69043,-0.88188 z M 583.26725,465.5093 c -7.2615,-3.05008 -12.9671,-5.92678 -12.6792,-6.39267 0.9734,-1.57491 10.191,-5.75488 14.0522,-6.37231 5.8697,-0.93859 8.6858,1.81466 10.8377,10.59555 0.9519,3.88432 1.5645,7.20924 1.3614,7.38871 -0.2031,0.17948 -6.3105,-2.1692 -13.5721,-5.21928 z m 11.2028,-19.41475 c -1.65,-0.51998 -3.5884,-1.13059 -4.3076,-1.3569 -0.8792,-0.27669 -0.073,-1.88851 2.4618,-4.92077 3.7045,-4.43172 3.8732,-4.5093 9.8076,-4.50927 5.6546,3e-5 6.2086,0.21353 8.7199,3.36103 l 2.6818,3.361 -4.6818,2.07051 c -5.7829,2.55748 -10.7527,3.2326 -14.6817,1.9944 z m -5.25,-11.88771 c -1.7875,-0.52604 -3.25,-1.37774 -3.25,-1.89267 0,-1.61311 3.9547,-3.13973 7.2962,-2.8165 2.6681,0.25809 3.2038,0.72795 3.2038,2.80991 0,2.87171 -2.0875,3.41855 -7.25,1.89926 z m 60.25,-115.98802 -48,-13.95351 15,0.48195 c 28.9573,0.93041 52.0896,6.8624 69.7849,17.89547 5.8626,3.65534 13.4113,9.87962 11.6394,9.59723 -0.2334,-0.0372 -22.0243,-6.34671 -48.4243,-14.02114 z m 197.0083,461.77344 c 1.775,-2.53422 4.888,-11.6217 4.2125,-12.29722 -0.8036,-0.80355 -9.4812,10.70854 -12.8991,17.11254 l -3.2024,6 5.211,-4.36036 c 2.866,-2.3982 5.8711,-5.30294 6.678,-6.45496 z m -293.0969,-91.93701 c 0.8893,-26.76513 -0.2016,-34.64855 -6.4821,-46.84491 l -2.2672,-4.40276 -2.7359,6 c -4.24452,9.30853 -5.29835,16.00176 -4.61169,29.29064 0.59894,11.59133 2.49289,21.00244 5.33129,26.49123 1.6529,3.19636 8.1957,10.71813 9.3232,10.71813 0.405,0 1.054,-9.56355 1.4424,-21.25233 z m 363.5353,-2.58449 c 7.9039,-24.18706 11.3521,-48.36905 11.4307,-80.16318 0.083,-33.70532 -3.5981,-57.91671 -12.4446,-81.84562 -2.6521,-7.17359 -9.269,-20.3292 -12.8236,-25.49564 -3.737,-5.4315 -12.2286,-14.8727 -12.8331,-14.26819 -0.7418,0.74184 2.2424,13.02468 10.2309,42.10945 14.6245,53.24539 16.1341,61.63922 15.1624,84.30599 -0.4507,10.51219 -1.7971,21.23966 -4.7309,37.69401 -3.2393,18.16722 -4.2159,26.39827 -4.6475,39.1729 -0.3006,8.89509 -0.2039,17.44509 0.2148,19 0.7266,2.69816 0.9168,2.49467 4.1699,-4.46172 1.8747,-4.00886 4.6967,-11.23046 6.271,-16.048 z m -24.4848,-27.91919 c 6.398,-16.57975 8.6617,-27.79988 9.2591,-45.89381 0.6147,-18.6174 -0.925,-30.6316 -5.9403,-46.35018 -3.3903,-10.62589 -7.3116,-20 -8.3661,-20 -0.3825,0 -0.5198,27.65047 -0.305,61.44549 0.2147,33.79502 0.7032,61.13252 1.0854,60.75 0.3823,-0.38252 2.3024,-4.8607 4.2669,-9.9515 z M 478.48761,624.36728 c 38.61537,-8.39625 71.88444,-9.08295 116.98244,-2.41461 9.35,1.38252 22.5193,3.00963 29.2651,3.61579 l 12.2652,1.10212 3.4848,-3.37767 c 1.9167,-1.85771 3.4849,-3.63925 3.4849,-3.95897 0,-1.80427 -20.9871,-9.35774 -35,-12.59684 -24.9203,-5.76037 -48.0989,-5.53906 -103.5,0.98821 -15.95,1.87921 -33.275,3.73007 -38.5,4.11303 l -9.5,0.69629 4.5,-4.65995 c 5.22285,-5.40849 12.2125,-9.10611 20,-10.58027 3.025,-0.57262 13.825,-1.48964 24,-2.03782 10.175,-0.54818 26.70249,-1.88596 36.7277,-2.97285 19.7391,-2.14 40.6505,-2.52117 51.7723,-0.94368 3.85,0.54607 16.2925,3.46216 27.6499,6.48019 11.3575,3.01803 20.9315,5.48733 21.2757,5.48733 1.3497,0 -2.4625,-5.6891 -6.0932,-9.09314 -5.6907,-5.33542 -9.445,-7.65996 -17.013,-10.53395 -26.7495,-10.15821 -74.2397,-9.66214 -118.3194,1.23593 -23.68399,5.85552 -48.82401,16.28523 -60.5,25.0993 -5.91061,4.46185 -5.19181,4.81687 7,3.45735 4.4,-0.49065 8.1623,-0.75381 8.36066,-0.5848 0.19836,0.16901 0.59922,3.27933 0.8908,6.91183 0.52136,6.495 0.57343,6.59547 3.13935,6.05778 1.43505,-0.30071 3.28419,-0.10782 4.10919,0.42865 0.825,0.53646 2.1829,0.76354 3.01756,0.50461 0.83466,-0.25893 5.55966,-1.34967 10.5,-2.42386 z m 187.48244,-6.75847 c 0,-4.7867 -1.7471,-7.20577 -5.25,-7.26943 -2.1512,-0.0391 -2.2181,1.91216 -0.2286,6.67362 3.1835,7.61919 5.4786,7.86878 5.4786,0.59581 z m -97.9392,-81.30123 c -1.3455,-14.69202 -3.4622,-20.07492 -10.6176,-27 l -4.6496,-4.5 0.5587,3 c 0.3072,1.65 1.3427,12.3375 2.301,23.75 0.9584,11.4125 2.0483,20.75 2.4221,20.75 0.3739,0 1.2399,-0.675 1.9246,-1.5 1.6629,-2.00365 3.3003,-1.89004 6.1392,0.42597 2.3458,1.91376 2.363,1.91217 2.7136,-0.25 0.194,-1.19678 -0.1624,-7.80097 -0.792,-14.67597 z m -27.67938,5.90753 c 1.28198,-4.1541 1.2171,-5.58592 -0.67923,-15 -1.15305,-5.72414 -2.18163,-10.54392 -2.28573,-10.71061 -0.10411,-0.16669 -1.9279,1.29044 -4.05287,3.23806 l -3.86359,3.54115 0.23989,9.76193 c 0.34574,14.06981 1.0104,17.47597 3.27018,16.75874 1.00189,-0.31798 2.14862,-0.049 2.54829,0.59762 0.91117,1.47432 2.86526,-1.84263 4.82306,-8.18689 z M 141.72526,465.55758 c 3.37236,-7.0125 8.41902,-17.67928 11.2148,-23.70395 10.52923,-22.68957 12.78189,-25.32432 64.90196,-75.91047 36.99604,-35.90721 44.85907,-44.03466 50.17096,-51.85812 13.7622,-20.26922 30.48768,-33.1115 65.45707,-50.2597 55.26905,-27.10271 97.28405,-42.33447 140.5,-50.93568 21.18474,-4.21637 35.57824,-5.7397 59.54579,-6.302 38.44021,-0.90185 63.45961,2.304 121.45421,15.56249 26.9179,6.15385 59.5676,11.92312 60.7552,10.73555 0.7,-0.69997 -3.9207,-8.99603 -7.9529,-14.27888 -4.8085,-6.29998 -14.9338,-13.36583 -23.9924,-16.74287 -12.3285,-4.59608 -37.2442,-8.51609 -76.3099,-12.00586 -56.1732,-5.01801 -93.20606,-2.05949 -139,11.10459 -24.47759,7.03641 -123.69585,40.89024 -131.64282,44.91727 -2.67787,1.35698 -13.07872,7.99128 -23.11301,14.74289 -10.03429,6.75161 -26.37615,17.13431 -36.31524,23.07266 -24.55594,14.67154 -37.3808,24.42048 -53.99028,41.04121 -23.20804,23.22375 -32.52053,36.96735 -55.94896,82.57087 -8.33547,16.225 -18.13355,34.15141 -21.77352,39.83647 -3.63998,5.68505 -7.08327,11.76005 -7.65176,13.5 -1.59356,4.87727 -3.83637,17.66353 -3.09833,17.66353 0.36166,0 3.41677,-5.7375 6.78913,-12.75 z m 731.72019,-12.34503 c -1.9012,-7.33667 -3.3878,-10.45898 -7.0552,-14.81739 -3.0987,-3.68264 -15.2544,-12.58675 -16.0698,-11.77129 -0.3067,0.30665 1.4015,4.28866 3.796,8.84891 2.9624,5.64189 6.8786,10.93927 12.2555,16.5778 4.3461,4.55754 8.0838,8.10459 8.3061,7.88234 0.2222,-0.22225 -0.3324,-3.24642 -1.2326,-6.72037 z M 122.91657,389.04644 c 0.0989,-1.40734 -13.96723,9.42145 -16.37749,12.60821 -3.16331,4.18241 -4.34037,9.11572 -5.04698,21.15293 l -0.58702,10 10.97901,-21.5 c 6.03846,-11.825 11.00307,-21.84251 11.03248,-22.26114 z m 899.08263,1.01114 c -10.0227,-28.29134 -15.4096,-38.14474 -27.73525,-50.73169 -9.5292,-9.73125 -9.479,-9.83563 -3.7171,7.72084 3.8325,11.67743 9.63945,23.80643 15.92435,33.26085 4.7544,7.15203 18.1307,23 19.413,23 0.445,0 -1.3032,-5.9625 -3.885,-13.25 z m -885.75584,-13 c 5.67756,-5.6375 18.3923,-19.925 28.25498,-31.75 49.24149,-59.03876 79.79227,-88.64951 116.97171,-113.37255 29.5478,-19.64827 47.92436,-27.85419 104.5,-46.66371 47.49599,-15.79084 77.61678,-23.06522 112.5,-27.1695 17.45186,-2.05335 73.3794,-1.53999 117.0951,1.07482 29.0459,1.73734 38.5935,1.98842 44,1.15712 10.8202,-1.66368 12.4049,-2.10022 12.4049,-3.41707 0,-0.67759 0.9,-2.19802 2,-3.37874 1.1,-1.18071 2,-2.51617 2,-2.9677 0,-0.45152 -2.8255,-3.78898 -6.279,-7.41657 -5.0872,-5.3438 -7.0326,-6.71431 -10.25,-7.22099 -2.184,-0.34395 -34.346,-0.73511 -71.471,-0.86925 -70.95606,-0.25637 -76.65374,-0.006 -110,4.82646 -66.96895,9.70572 -128.35207,30.51478 -181.60341,61.56409 -30.53215,17.80241 -44.04916,28.37831 -71.94683,56.29225 -33.09833,33.11763 -62.91446,68.35672 -82.12452,97.06134 -10.09715,15.08765 -19.36254,32.5 -17.29377,32.5 0.50546,0 5.56429,-4.6125 11.24184,-10.25 z m 88.50162,3.96665 c 9.73439,-5.04039 14.2564,-9.3447 18.69882,-17.79864 2.04191,-3.88577 3.55814,-7.20678 3.36941,-7.38002 -0.18874,-0.17324 -7.31816,6.45204 -15.84316,14.72284 -8.525,8.27081 -15.05,14.85443 -14.5,14.63028 0.55,-0.22416 4.27372,-2.10267 8.27493,-4.17446 z m -32.19961,-43.86642 c 1.14143,-1.29262 4.17357,-5.34835 6.73809,-9.01273 2.56452,-3.66437 7.03062,-8.65624 9.92468,-11.09304 7.32517,-6.1678 128.58827,-78.02111 143.26191,-84.88849 23.75748,-11.1187 56.20349,-23.37676 84,-31.73509 5.5,-1.65383 23.725,-6.59812 40.5,-10.9873 30.39394,-7.95258 44.90573,-12.32006 52.5,-15.80042 l 4,-1.83316 -13.5,-0.31115 c -20.05356,-0.46219 -40.72995,2.37542 -71.78035,9.85106 -76.70073,18.46633 -159.12763,55.83138 -202.22605,91.67136 -13.25831,11.02541 -66.9936,68.3744 -66.9936,71.49893 0,1.33227 11.31841,-4.80409 13.57532,-7.35997 z m 129.23059,-38.85023 c 25.37762,-17.325 46.15305,-31.76502 46.16761,-32.08893 0.0489,-1.08637 -12.3972,1.23209 -19.97352,3.7207 -9.38751,3.08353 -22.98578,10.63009 -43.24292,23.9983 -12.20694,8.05567 -16.75178,11.67454 -20.23455,16.11195 -6.78632,8.64648 -13.81045,22.71638 -10.29126,20.61426 0.78843,-0.47095 22.19701,-15.03128 47.57464,-32.35628 z m 349.92499,-50.16246 c 2.3924,-0.60241 4.1951,-1.59981 4.006,-2.21642 -0.6086,-1.98452 -12.2489,-9.23131 -20.0331,-12.47188 -48.8531,-20.33763 -152.89888,-19.12086 -207.84636,2.43069 -10.41783,4.08609 -22.79854,10.60637 -21.17008,11.14919 0.58009,0.19336 15.62524,-1.44348 33.43367,-3.63744 44.50923,-5.48342 52.15049,-6.08435 77.41698,-6.08826 24.60139,-0.004 33.21669,0.86393 68.96199,6.94596 13.2,2.24597 28.05,4.49448 33,4.99668 10.2665,1.0416 25.8158,0.50681 32.2309,-1.10852 z m 21.1404,-60.77187 c 3.9375,-2.0088 10.0774,-9.45035 8.828,-10.6997 -0.3264,-0.32636 -11.9797,-1.4284 -25.8963,-2.44898 -13.9167,-1.02057 -26.7655,-2.00404 -28.553,-2.18549 -1.7875,-0.18144 -3.25,-0.2484 -3.25,-0.14879 0,0.0996 1.9125,2.20342 4.25,4.67514 4.4425,4.69758 16.9757,10.84502 25.9653,12.73579 6.1725,1.29824 13.8968,0.49998 18.656,-1.92797 z"
     id="path265"
     inkscape:connector-curvature="0" />
</svg>
