<?xml version="1.0" encoding="UTF-8" standalone="no"?>
<!-- Created with Inkscape (http://www.inkscape.org/) -->

<svg
   xmlns:dc="http://purl.org/dc/elements/1.1/"
   xmlns:cc="http://creativecommons.org/ns#"
   xmlns:rdf="http://www.w3.org/1999/02/22-rdf-syntax-ns#"
   xmlns:svg="http://www.w3.org/2000/svg"
   xmlns="http://www.w3.org/2000/svg"
   xmlns:sodipodi="http://sodipodi.sourceforge.net/DTD/sodipodi-0.dtd"
   xmlns:inkscape="http://www.inkscape.org/namespaces/inkscape"
   version="1.1"
   id="svg66"
   width="1130"
   height="1272"
   viewBox="0 0 1130 1272"
   sodipodi:docname="devil-2029551_1280.svg"
   inkscape:version="0.92.1 r15371">
  <metadata
     id="metadata72">
    <rdf:RDF>
      <cc:Work
         rdf:about="">
        <dc:format>image/svg+xml</dc:format>
        <dc:type
           rdf:resource="http://purl.org/dc/dcmitype/StillImage" />
        <dc:title></dc:title>
      </cc:Work>
    </rdf:RDF>
  </metadata>
  <defs
     id="defs70" />
  <sodipodi:namedview
     pagecolor="#ffffff"
     bordercolor="#666666"
     borderopacity="1"
     objecttolerance="10"
     gridtolerance="10"
     guidetolerance="10"
     inkscape:pageopacity="0"
     inkscape:pageshadow="2"
     inkscape:window-width="1366"
     inkscape:window-height="692"
     id="namedview68"
     showgrid="false"
     inkscape:zoom="0.39072327"
     inkscape:cx="565"
     inkscape:cy="636"
     inkscape:window-x="0"
     inkscape:window-y="27"
     inkscape:window-maximized="1"
     inkscape:current-layer="svg66" />
  <path
     style="fill:#000000"
     d="m 590.85666,1196.3578 c -0.9786,-2.1891 -6.7292,-15.9988 -12.7792,-30.6882 -10.3912,-25.2298 -11.1358,-26.6934 -13.4536,-26.4443 -2.8371,0.305 -3.0556,-0.1932 -7.999,-18.2362 -3.90196,-14.2417 -8.45421,-25.8232 -16.51556,-42.0176 -33.4045,-67.1061 -90.10581,-118.21807 -139.82804,-126.04457 -6.65274,-1.0471 -9.2928,-0.9805 -18,0.4544 -5.61209,0.9248 -11.4413,1.8786 -12.9538,2.1196 -2.19656,0.35 -2.75,0.052 -2.75,-1.4801 0,-1.0551 -0.93791,-2.5752 -2.08425,-3.3782 -1.89181,-1.325 -1.92969,-1.5463 -0.41031,-2.3966 1.5123,-0.8463 1.32158,-1.7971 -1.97517,-9.8468 -12.12725,-29.6113 -39.65646,-66.96978 -67.91377,-92.16239 -20.41498,-18.20082 -31.13144,-26.98847 -31.73933,-26.02667 -0.40075,0.63407 -1.38129,0.57952 -2.75,-0.15299 -2.68818,-1.43867 -2.69627,-0.87019 -0.12717,8.93194 2.4575,9.37632 2.4575,10 0,10 -1.80779,0 -2.00867,-0.69675 -2.09025,-7.25 l -0.0902,-7.25 -1.29897,7.15843 c -1.78084,9.81398 -4.06571,16.28256 -7.00855,19.84157 l -2.48061,3 0.23432,-60.25031 c 0.12887,-33.13767 0.009,-60.24923 -0.26569,-60.24792 -0.275,10e-4 -1.69367,3.93896 -3.1526,8.75031 -1.45893,4.81136 -5.65419,17.29792 -9.32278,27.74792 -9.51321,27.09837 -11.89107,37.33391 -11.96419,51.5 -0.0514,9.96776 0.2475,12.16619 2.24372,16.5 1.26669,2.75 3.51645,6.29442 4.99946,7.87648 2.88628,3.07904 11.50938,7.59766 14.52972,7.61375 5.69645,0.0303 -5.86547,7.97728 -12.73211,8.75125 -5.95288,0.67098 -8.88608,-0.17468 -12.93424,-3.72901 -7.5052,-6.58965 -11.11221,-21.78747 -8.75749,-36.8989 0.63304,-4.06254 1.02488,-7.51196 0.87075,-7.66539 -0.15413,-0.15343 -3.43024,2.09664 -7.28024,5.00015 -6.35674,4.79395 -32.07987,21.55167 -33.0819,21.55167 -0.22998,0 -0.41815,-6.075 -0.41815,-13.5 v -13.5 h -5.05902 c -2.95293,0 -4.81373,0.39688 -4.46982,0.95333 0.67921,1.099 2.62151,0.5533 -38.72116,10.87885 -17.4625,4.36136 -31.749995,7.74606 -31.749995,7.52157 0,-0.22449 6.93128,-10.66896 15.402835,-23.20992 15.76358,-23.33578 22.18458,-34.68248 26.11237,-46.14383 l 2.22754,-6.5 -17.62138,-17.97461 -17.621365,-17.9746 7.999995,-1.31503 c 4.4,-0.72327 13.175,-2.47104 19.5,-3.88394 6.325,-1.4129 13.75,-3.06656 16.5,-3.6748 2.75,-0.60824 5.22793,-1.42116 5.5065,-1.80649 0.27858,-0.38533 4.26924,-2.62983 8.86813,-4.98778 9.71603,-4.98161 18.39238,-12.9854 22.12537,-20.41028 2.0043,-3.98654 2.5,-6.46373 2.5,-12.4935 0,-10.18481 -3.22799,-16.5232 -17.49106,-34.34489 -6.10345,-7.62625 -12.42734,-16.50096 -14.0531,-19.72156 -2.90634,-5.75743 -4.89643,-15.25985 -4.93603,-23.5689 -0.018,-3.7757 0.17882,-4.10444 2.14886,-3.58926 1.59132,0.41614 2.02695,0.19154 1.63633,-0.84362 -0.29279,-0.77591 -1.576,-4.51212 -2.85158,-8.30271 l -2.31924,-6.89196 1.20091,-31.10804 c 1.67123,-43.29133 4.39134,-64.10536 9.77478,-74.79564 3.43185,-6.8149 10.92724,-13.79457 24.72459,-23.02344 21.93528,-14.67224 28.1053,-22.1628 39.74083,-48.24632 8.05368,-18.05404 10.29151,-21.90148 15.29301,-26.29285 7.54776,-6.62702 16.5248,-6.44894 30.83522,0.61169 l 7.79648,3.84672 v -17.52076 c 0,-9.63642 0.17663,-17.33326 0.39252,-17.1041 0.21588,0.22917 1.17963,7.84167 2.14167,16.91667 0.96203,9.075 2.04997,17.0789 2.41763,17.78644 0.36766,0.70754 1.43876,-9.64246 2.38021,-23 l 1.71175,-24.28644 5.5492,-17.5 c 7.89112,-24.88547 11.35554,-38.94703 12.56512,-51 0.63793,-6.35664 1.80115,-12.01706 2.94782,-14.3445 1.04174,-2.11448 1.89408,-4.38565 1.89408,-5.04705 0,-0.66141 1.8,-2.96021 4,-5.10845 2.2,-2.14824 4,-4.29459 4,-4.76967 0,-1.43255 5.1677,-7.74472 5.94647,-7.26341 0.39817,0.24608 1.51036,-1.20169 2.47152,-3.21727 0.96117,-2.01559 2.85727,-5.03382 4.21356,-6.70718 12.27909,-15.14966 22.36845,-29.50265 22.36845,-31.82104 0,-0.79844 0.85011,-2.53246 1.88914,-3.85337 1.03903,-1.3209 2.59012,-3.96909 3.44687,-5.88485 1.9388,-4.3353 3.13424,-5.71919 8.16399,-9.451 2.2,-1.63229 11.425,-10.19372 20.5,-19.02541 17.14906,-16.68926 26.73939,-23.91845 41.5,-31.28267 9.18201,-4.581 23.8637,-9.70625 30.77192,-10.7422 4.32585,-0.6487 4.72808,-0.94413 4.72808,-3.472642 0,-3.12185 -1.34699,-3.04931 18,-0.96939 5.225,0.56172 14.9,1.44938 21.5,1.972582 12.95825,1.02724 32.5,4.70582 32.5,6.11787 0,0.47831 1.13952,0.86965 2.53226,0.86965 3.71641,0 16.80684,5.29942 25.88584,10.47942 4.355,2.48471 7.9791,4.40582 8.0535,4.26912 0.074,-0.1367 0.9743,-2.17687 1.9996,-4.53372 2.0123,-4.62537 7.987,-10.63431 12.3311,-12.40157 1.4837,-0.60363 5.6227,-1.65809 9.1977,-2.34325 l 6.5,-1.24575 -7.25,-0.11212 c -7.0368,-0.10883 -7.25,-0.18566 -7.25,-2.612132 v -2.5 l 24.25,0.006 c 19.5572,0.005 24.8043,0.29525 27.1143,1.5 2.1143,1.10267 6.304,1.49567 16,1.50085 22.3385,0.0119 38.8426,5.085502 59.4623,18.279502 4.1956,2.68464 5.8798,4.27759 5,4.72915 -0.7296,0.3745 -7.6266,1.46671 -15.3266,2.42713 -16.3009,2.03322 -17.783,2.36824 -11,2.48647 15.9919,0.27874 32.7111,3.79756 44.9824,9.46728 17.0387,7.87235 50.5176,33.9249 50.5176,39.31169 0,0.34067 2.7,3.65739 6,7.37048 5.9375,6.68073 6.879,8.62639 5.0669,10.47129 -0.5814,0.59194 1.9086,5.66135 6.6063,13.45 4.1467,6.875 7.6775,12.64846 7.8463,12.8299 0.1688,0.18145 1.471,-0.43281 2.8937,-1.36501 1.4791,-0.96895 2.5868,-1.23115 2.5868,-0.61213 0,0.59543 2.4326,2.91926 5.4058,5.16406 5.3953,4.07349 5.4039,4.08868 4.3818,7.7824 -3.3484,12.10025 3.9468,34.85461 25.8016,80.47805 10.1918,21.2761 11.0755,22.75885 13.4108,22.5 2.142,-0.23743 2.4503,-0.70673 2.1527,-3.27711 -0.451,-3.89666 -0.096,-3.48066 6.5164,7.62953 8.8223,14.82387 17.7363,32.66966 21.3128,42.66801 1.8105,5.06135 3.5177,9.20246 3.7938,9.20246 0.2761,0 3.9411,-3.28563 8.1443,-7.3014 9.2231,-8.81164 14.6675,-12.65149 24.6803,-17.40654 7.6137,-3.61574 15.0953,-5.08724 19.8271,-3.89963 4.2626,1.06984 9.7724,6.7853 12.6359,13.10757 1.4946,3.3 4.8304,13.875 7.4129,23.5 2.5824,9.625 6.21,20.7788 8.0613,24.78622 4.116,8.91007 11.8617,17.30411 26.26814,28.46678 12.8958,9.99219 18.9017,15.81814 23.4886,22.78506 7.1628,10.87929 7.3188,19.63625 0.7202,40.41668 -2.2578,7.11017 -4.3939,14.97905 -4.747,17.48642 -0.555,3.94165 -0.7384,4.22038 -1.355,2.05884 -0.4245,-1.48849 -0.7534,1.26986 -0.8127,6.81739 -0.099,9.20318 -0.072,9.30963 2.1503,8.68449 1.6731,-0.47062 1.8805,-0.37841 0.8091,0.35959 -1.4553,1.00248 -0.8046,8.82164 3.091,37.13853 0.5675,4.125 0.8181,12.90254 0.557,19.50565 -0.3962,10.02024 -0.9999,13.57576 -3.6506,21.5 -6.1887,18.50125 -14.2574,29.83671 -40.46184,56.84327 -25.2978,26.07231 -35.6484,39.5163 -40.2273,52.24975 -0.9694,2.69573 -2.0749,4.90133 -2.4568,4.90133 -0.3818,0 -1.1538,-2.1375 -1.7156,-4.75 -0.9468,-4.40346 -1.0231,-4.02043 -1.0461,5.25 -0.039,15.54604 0.1524,14.5 -2.6489,14.5 -2.3333,0 -2.5,-0.33333 -2.5,-5 0,-4.88889 -0.067,-5 -3,-5 -2.8855,0 -3,0.17049 -3,4.46562 0,2.45609 -0.7058,9.52617 -1.5685,15.71128 -1.4247,10.21443 -1.4247,11.81828 0,17.4899 1.9963,7.94753 1.9764,8.3332 -0.4315,8.3332 -1.1998,0 -2.0402,-0.70015 -2.1005,-1.75 -0.2371,-4.1322 -1.8313,6.23559 -2.7293,17.75 -1.2382,15.87805 -0.178,27.26162 3.6989,39.71492 4.3511,13.97668 10.262,22.74541 19.7997,29.37273 l 4.1688,2.89671 1.1669,-5.24218 c 1.8317,-8.22835 2.385,-29.29331 1.0988,-41.82953 -1.4493,-14.12518 -4.1875,-28.92138 -8.1051,-43.79701 -1.649,-6.26139 -3.0431,-13.68639 -3.0979,-16.5 -0.055,-2.8136 -0.4771,-6.24064 -0.9385,-7.61564 -0.4843,-1.44321 -0.5936,2.67826 -0.2587,9.75 l 0.5802,12.25 h -2.6416 c -3.1227,0 -3.1119,0.11703 -1.1781,-12.75658 1.7583,-11.70622 3.2956,-18.63777 3.4359,-15.49342 0.069,1.54985 0.7229,2.25 2.1005,2.25 1.7725,0 2,0.66667 2,5.86045 0,4.57265 0.5392,6.65502 2.4538,9.47629 1.8894,2.78422 2.5219,5.17372 2.75,10.38954 l 0.2962,6.77372 3.1313,0.30451 3.1314,0.30451 -0.4885,12.69549 c -0.354,9.19745 0.092,17.7295 1.6186,30.96553 2.6639,23.09643 2.7394,36.24667 0.2399,41.72996 -2.5067,5.49873 -6.6282,10.15656 -9.6606,10.91765 -3.0327,0.76116 -10.0052,-3.62786 -13.9228,-8.7641 -7.1276,-9.34484 -16.3448,-37.61341 -19.061,-58.45934 -0.6604,-5.06851 -0.8154,-5.29211 -3.4648,-5 -2.3362,0.25757 -9.0873,8.18989 -42.8145,50.30579 -31.3228,39.11353 -41.0583,50.6284 -44.7136,52.88616 -3.9694,2.45171 -6.1271,2.9896 -14.3341,3.57335 -14.683,1.04438 -18.298,3.407 -34.3625,22.4575 -12.9608,15.37 -17.2116,18.8927 -46.7988,38.7829 -66.4912,44.69907 -84.3783,64.45177 -96.0299,106.04617 -4.0099,14.3149 -4.2121,16.3125 -2.3281,23.0039 0.3526,1.2522 -0.082,1.75 -1.5293,1.75 -1.5668,0 -2.1528,0.8444 -2.6025,3.75 -0.3192,2.0625 -1.4829,7.125 -2.5859,11.25 -1.1031,4.125 -2.1649,8.4 -2.3596,9.5 -0.1948,1.1 -2.6223,10.0239 -5.3947,19.8309 -5.4225,19.1822 -8.8771,26.0713 -17.1002,34.1009 l -4.0114,3.9171 z m 6.7991,-16.6187 c 0.043,-0.1375 2.4203,-17.4625 5.2827,-38.5 3.196,-23.4895 4.8058,-38.2339 4.1717,-38.2083 -2.2161,0.089 -23.6406,4.7329 -24.1396,5.2319 -0.2911,0.2911 0.8335,10.1361 2.4992,21.8778 2.2267,15.6968 2.7872,22.2752 2.117,24.8486 l -0.9115,3.5 0.1606,-3.5 c 0.4389,-9.5663 -3.0891,-29.7877 -6.2926,-36.067 -2.675,-5.2435 -8.894,-12.0954 -10.2292,-11.2702 -0.5751,0.3554 -0.756,0.1777 -0.4021,-0.395 0.3539,-0.5726 7e-4,-1.5746 -0.7848,-2.2266 -1.2137,-1.0072 -1.2962,-0.6862 -0.5495,2.1367 1.3806,5.2191 13.0533,48.1222 13.6231,50.0721 0.306,1.0469 1.4888,1.75 2.9441,1.75 2.2819,0 2.4326,0.3406 2.4326,5.5 0,4.7071 0.2697,5.5 1.8712,5.5 1.4903,0 2.0061,1.0177 2.5344,5 0.5928,4.4687 0.9253,5 3.1288,5 1.3561,0 2.5008,-0.1125 2.5439,-0.25 z m 4.8797,-139.2143 c -0.023,-0.02 -0.89,-3.4107 -1.9264,-7.5357 l -1.8844,-7.5 -0.074,7.5357 c -0.067,6.8936 0.097,7.5357 1.9264,7.5357 1.1,0 1.9811,-0.016 1.958,-0.036 z m -40.958,-21.365 c 0,-0.4561 2.25,-16.5079 5,-35.67067 2.75,-19.1628 5,-34.9896 5,-35.1707 0,-0.1811 1.3142,-0.3293 2.9204,-0.3293 3.3081,0 2.8688,-2.2102 5.1688,26 0.6054,7.425 1.5597,14.0584 2.1207,14.7409 0.5999,0.7299 0.7395,3.1107 0.339,5.7814 -0.3745,2.4973 -0.366,8.14977 0.019,12.56107 0.647,7.4165 0.8591,7.9979 2.816,7.7186 1.9642,-0.2803 2.2721,-1.5529 4.2832,-17.70207 3.1178,-25.0359 2.9242,-24.2821 6.1399,-23.9109 1.7359,0.2005 2.5806,0.8266 2.3764,1.7614 -2.5751,11.7894 -2.5079,24.6503 0.1242,23.7868 1.3613,-0.4466 3.3345,-9.1103 4.3034,-18.8949 l 0.6593,-6.6577 7.7774,-7.7318 7.7775,-7.7318 2.6116,5.1537 2.6116,5.1538 7.5572,-5.0996 c 4.1565,-2.8048 7.7437,-4.9132 7.9715,-4.6854 0.2278,0.2278 -1.8006,5.8912 -4.5077,12.5854 -2.707,6.6941 -4.5923,12.1711 -4.1897,12.1711 0.4027,0 3.5448,-0.9498 6.9823,-2.1107 3.4376,-1.1609 6.4522,-1.9087 6.6991,-1.6617 0.247,0.2469 -0.6782,5.9836 -2.0559,12.7482 -1.3777,6.7646 -2.505,12.39997 -2.505,12.52297 0,0.1231 1.125,0.01 2.5,-0.254 1.8601,-0.3556 2.5,-1.108 2.5,-2.9394 0,-2.58327 3.7107,-24.85137 4.5196,-27.12237 0.2722,-0.7643 1.5892,-1.1839 3.1384,-1 2.3307,0.2768 2.964,1.1927 4.9914,7.2193 1.2771,3.7963 2.4652,7.0456 2.6402,7.2206 0.3399,0.3399 7.7104,-12.1622 7.7104,-13.0786 0,-0.2994 -0.675,-0.5443 -1.5,-0.5443 -1.1333,0 -1.5,-1.2222 -1.5,-5 0,-2.75 0.3129,-5 0.6953,-5 0.3824,0 1.9574,1.2092 3.5,2.6871 1.5426,1.4779 2.8047,2.185 2.8047,1.5714 0,-0.6136 0.6156,-1.7313 1.3681,-2.4837 0.7524,-0.7525 1.6661,-2.3074 2.0305,-3.4554 0.5278,-1.6629 0.148,-2.2164 -1.8681,-2.7224 -1.3918,-0.3493 -2.5305,-1.0819 -2.5305,-1.628 0,-1.8053 9.246,-14.935 10.1318,-14.3876 0.4775,0.2952 0.8682,1.6351 0.8682,2.9776 0,1.3426 0.3375,2.4267 0.75,2.4091 0.4125,-0.017 3.5062,-4.855 6.875,-10.75 5.5689,-9.7451 6.4119,-10.7468 9.2856,-11.03413 2.8552,-0.28547 3.1073,-0.0922 2.6088,2.00003 -1.1834,4.967 -9.5194,47.2526 -9.5194,48.2888 0,0.6043 0.9529,1.0986 2.1176,1.0986 1.7842,0 4.867,-5.5161 19.5807,-35.0357 9.6048,-19.26964 17.8199,-35.40622 18.2558,-35.85906 0.7968,-0.82771 -13.5013,47.78166 -14.5571,49.49006 -1.6119,2.6081 14.5923,-3.6873 21.2093,-8.2398 11.679,-8.0354 16.8418,-15.686 27.4497,-40.67691 7.0968,-16.71929 7.4119,-17.25 10.24,-17.25 1.9145,0 2.7589,0.42989 2.4553,1.25 -3.0577,8.2615 -4.8181,16.3396 -4.5567,20.91 l 0.3054,5.34 12.1504,-12 c 22.2696,-21.99397 31.6976,-41.03903 45.4196,-91.75 3.1222,-11.53843 3.2312,-11.75 6.0547,-11.75 h 2.8753 l 0.011,11.75 c 0.014,15.2438 0.6679,19.25 3.1407,19.25 1.8238,0 1.8878,-1.44263 1.826,-41.17169 l -0.064,-41.17169 2.5432,-0.11133 c 1.9356,-0.0847 2.5431,0.37978 2.5431,1.9446 0,1.13077 1.1232,12.84563 2.496,26.03302 3.157,30.32609 3.1569,29.47709 0,29.47709 h -2.5 v 23 23 h 2.5 c 2.7733,0 2.8023,-0.19919 2.5071,-17.25 -0.074,-4.2625 0.2696,-7.75 0.7631,-7.75 0.4935,0 1.4382,-8.8875 2.0994,-19.75 0.6611,-10.8625 1.4755,-22.7875 1.8098,-26.5 0.5957,-6.61607 0.6645,-6.75 3.4642,-6.75 h 2.8564 v 18 c 0,17.75145 0.03,18 2.1498,18 2.1042,0 2.1369,-0.22793 1.5403,-10.75 -0.3353,-5.9125 -1.1309,-17.05 -1.7681,-24.75 -0.6372,-7.7 -0.9421,-20.17587 -0.6776,-27.72415 0.2656,-7.57787 0.095,-13.48537 -0.3817,-13.19098 -1.3297,0.82179 -1.0225,-0.91168 0.5626,-3.1747 0.7839,-1.11917 2.3631,-4.7068 3.5095,-7.97251 1.1463,-3.26571 3.7645,-8.37965 5.8181,-11.3643 4.3371,-6.30317 4.2498,-0.88134 0.7985,-49.57725 -2.1522,-30.36606 -2.4042,-32.27213 -4.9243,-37.24529 l -2.656,-5.2414 0.2644,-30.75471 0.2645,-30.75471 2.6932,-0.31095 c 2.3537,-0.27174 2.7658,0.10649 3.2682,3 0.7724,4.44813 3.4989,25.80102 3.6149,28.31095 0.051,1.1 1.3935,-1.825 2.9837,-6.5 l 2.8911,-8.5 -0.3902,13 c -0.2874,9.57397 -0.1826,11.28698 0.3975,6.5 0.4332,-3.575 0.6247,-16.175 0.4255,-28 -0.3212,-19.06962 -0.2158,-20.9348 0.933,-16.5 1.2772,4.93017 1.3055,4.79052 2.0268,-10 0.9263,-18.99244 1.7067,-26.58686 2.6709,-25.99098 0.9615,0.59426 4.7973,14.72208 6.047,22.27221 1.4326,8.65493 2.8612,31.29938 3.4477,54.6462 0.4774,19.00793 0.7533,21.55868 3.0082,27.8096 2.9853,8.27597 2.9581,7.76297 0.4105,7.76297 -1.932,0 -2.0275,0.38838 -1.4139,5.75 1.1374,9.93852 5.2687,27.00937 8.1087,33.50575 6.2574,14.31319 16.1783,26.05351 23.1158,27.35499 5.2096,0.97732 11.9286,-0.30652 17.5647,-3.35618 11.6354,-6.29592 29.9185,-26.83611 42.062,-47.25456 9.63404,-16.19895 11.92924,-23.37059 15.12214,-47.25 0.6145,-4.59562 0.5519,-4.75 -1.9261,-4.75 h -2.5613 V 570.14 c 0,-12.01702 -0.291,-25.29202 -0.6467,-29.5 -0.396,-4.68375 -0.2735,-7.65088 0.3158,-7.65088 0.5376,0 1.7574,10.25753 2.7624,23.22911 0.9899,12.77601 2.1069,25.26351 2.4822,27.75 0.6352,4.20779 0.7288,3.93222 1.3522,-3.97911 3.2884,-41.73187 3.3671,-70.27017 0.236,-85.5 -2.6521,-12.89947 -9.8272,-24.309 -28.92804,-46 -14.7006,-16.69413 -25.3962,-31.64199 -28.5205,-39.85966 -0.7923,-2.08366 -1.6192,-2.69912 -3.305,-2.45968 l -2.2484,0.31934 v 22.63692 22.63693 l 4.8494,-2.45416 c 2.6672,-1.34978 4.9926,-2.31099 5.1676,-2.136 0.175,0.17498 -0.081,3.69273 -0.5687,7.81723 -1.4923,12.61699 -2.8265,23.25961 -3.5526,28.33804 -0.6675,4.66826 -0.609,4.827 1.6582,4.5 2.0805,-0.30006 2.627,-1.45783 4.7627,-10.08896 2.3813,-9.62368 2.4513,-9.75 5.405,-9.75 2.0005,0 2.8225,0.41432 2.4799,1.25 -0.2818,0.6875 -6.5993,15.35683 -14.0389,32.59852 l -13.5264,31.34851 3.6707,-0.68862 c 2.0188,-0.37874 5.8132,-2.2614 8.4319,-4.18369 5.0962,-3.74098 5.7063,-3.69671 3.135,0.22749 -1.5413,2.35239 -1.5283,2.44747 0.25,1.82277 1.0319,-0.36249 -0.4324,1.76734 -3.2539,4.73297 -3.9804,4.18358 -18.3124,24.49145 -23.7759,33.68945 -0.4238,0.71357 12.7662,-5.47393 29.3112,-13.75 16.5451,-8.27607 30.3098,-15.0474 30.5883,-15.0474 0.2786,0 0.5026,1.2375 0.4979,2.75 -0.01,2.46947 -1.2573,3.45841 -12.25,9.69442 -6.7328,3.81943 -14.8419,8.46112 -18.0203,10.31487 l -5.779,3.37044 7.6708,5.00756 c 6.4013,4.17877 7.4405,5.21955 6.279,6.28848 -0.7656,0.7045 -10.2855,8.16586 -21.1554,16.58078 -10.8699,8.41493 -19.6303,15.43296 -19.4677,15.59562 0.8185,0.81843 53.2147,-22.68794 53.0923,-23.81864 -0.076,-0.70594 -0.4621,-2.07103 -0.857,-3.03353 -0.6491,-1.58181 0.061,-1.75 7.3889,-1.75 h 8.107 v 3.09362 c 0,2.23525 -0.5457,3.23633 -1.9669,3.60797 -1.0818,0.28289 -2.2371,1.36576 -2.5674,2.40638 -0.4449,1.40176 -1.5483,1.89203 -4.2583,1.89203 -2.0118,0 -6.7065,1.19609 -10.4326,2.65799 -5.4816,2.1506 -6.7748,3.07409 -6.7748,4.83785 v 2.17986 l 11.75,-2.31247 c 14.7316,-2.89926 14.2572,-2.91217 14.2141,0.38677 -0.032,2.43384 -2.9781,4.87688 -25.6271,21.25 -14.0751,10.175 -26.3214,19.05565 -27.214,19.73477 -1.2955,0.98563 6.7732,-2.06635 19.791,-7.48595 0.7954,-0.33111 1.146,-0.15486 0.8013,0.40279 -0.337,0.54532 -5.8108,4.03466 -12.164,7.7541 -6.3532,3.71943 -11.5513,7.21534 -11.5513,7.76867 0,2.03726 5.5554,8.78359 7.25,8.80427 1.273,0.0155 1.75,0.83901 1.75,3.02135 0,2.88889 -0.1667,3 -4.5,3 -2.475,0 -4.5,0.28673 -4.5,0.63717 0,0.35045 2.0605,3.76489 4.579,7.58766 2.5185,3.82277 4.4112,7.11828 4.2061,7.32336 -0.205,0.20507 -2.3664,-0.94696 -4.803,-2.56007 l -4.4303,-2.93293 -2.5806,2.47241 c -1.4194,1.35982 -2.8935,2.4724 -3.2759,2.4724 -1.5343,0 -0.5684,-3.97546 1.2805,-5.27053 1.9146,-1.34102 1.8657,-1.49011 -1.5754,-4.80671 -5.1773,-4.98983 -12.0393,-15.72518 -14.8864,-23.28924 -5.1618,-13.71384 -6.0082,-19.62813 -5.9577,-41.63352 0.026,-11.27974 0.5708,-23.19861 1.2116,-26.5 0.6405,-3.3 1.8865,-10.275 2.7689,-15.5 0.8823,-5.225 2.7416,-15.125 4.1318,-22 1.7287,-8.54959 2.4825,-15.34256 2.385,-21.49449 -0.09,-5.69221 0.2053,-8.62937 0.8048,-8 0.5211,0.54697 1.1322,1.89449 1.3579,2.99449 0.4544,2.21382 1.6948,-2.75791 4.9901,-20 1.8976,-9.92882 2.1422,-15.46459 2.512,-56.84726 l 0.4097,-45.84727 -5.0993,2.77539 c -13.7752,7.49737 -22.5077,22.46254 -26.4031,45.2476 -1.2217,7.146 -1.2295,10.69546 -0.055,25 1.8057,21.98658 1.9396,20.17154 -1.4877,20.17154 -1.6042,0 -3.1035,-0.56053 -3.3319,-1.24562 -0.2284,-0.68508 -0.6979,1.45895 -1.0434,4.76453 -0.3455,3.30558 -1.1334,8.3661 -1.751,11.24562 -1.0425,4.86087 -1.3316,5.23547 -4.04,5.23547 h -2.9171 v -7.5 c 0,-7.28308 -0.071,-7.5 -2.4387,-7.5 -2.1284,0 -2.5258,0.58016 -3.1225,4.55938 -0.376,2.50766 -0.3813,7.23266 -0.012,10.5 0.616,5.44484 0.5101,5.94062 -1.2691,5.94062 -1.2367,0 -2.169,0.90737 -2.5687,2.5 -0.4807,1.91528 -1.2765,2.5 -3.4023,2.5 -2.5934,0 -2.9518,-0.54339 -5.481,-8.30955 -3.5052,-10.76333 -3.442,-12.58489 0.5721,-16.47549 2.8547,-2.76689 3.2279,-3.70523 2.8886,-7.26329 -0.3082,-3.23136 -0.9028,-4.28102 -2.8433,-5.01879 -1.3496,-0.51308 -2.5413,-0.93288 -2.6483,-0.93288 -0.107,0 -0.1902,1.4625 -0.1849,3.25 0.01,2.79575 -0.337,3.25 -2.4707,3.25 -2.2996,0 -2.458,-0.30982 -2.1735,-4.25 0.1687,-2.3375 -0.065,-4.25614 -0.5196,-4.26365 -0.4546,-0.008 -1.7755,-0.26839 -2.9353,-0.57972 -1.8223,-0.48914 -2.3433,0.1581 -3.8341,4.76366 -0.9489,2.93134 -6.6897,17.80948 -12.7572,33.06253 l -11.032,27.73281 5.0781,5.5562 c 5.263,5.75866 7.3662,11.31021 5.4521,14.39141 -1.8996,3.05769 -7.4459,5.96122 -12.5986,6.59541 -2.8597,0.35197 -10.4879,0.49401 -16.9515,0.31565 -11.4767,-0.3167 -11.7519,-0.2737 -11.75,1.83611 0,2.34198 -0.1345,2.30175 30.002,8.82909 17.6704,3.82727 17.1713,3.55211 16.8046,9.26396 l -0.3046,4.74654 -15.75,0.27539 -15.75,0.2754 v 2.4746 2.47461 h 10.5 10.5 v 3 3 h -10.6135 -10.6135 l 0.6968,3.25 c 0.3832,1.7875 0.9262,5.87768 1.2068,9.08929 0.4432,5.0746 0.1128,6.64606 -2.5231,12 -3.9703,8.06433 -14.776,18.8673 -31.87,31.86193 -10.7015,8.13517 -13.2835,10.57563 -13.2835,12.55536 0,1.6654 0.4399,2.28859 1.3649,1.93364 0.7507,-0.28807 6.6171,-1.99384 13.0365,-3.79062 8.3595,-2.33979 11.5283,-3.64041 11.1665,-4.58323 -0.3799,-0.9899 0.8553,-1.31637 4.9803,-1.31637 h 5.4855 l -2.5337,5 c -1.3935,2.75 -2.1886,4.99466 -1.7669,4.98813 2.3921,-0.037 11.9362,-3.25659 19.7669,-6.66808 7.0041,-3.05137 9.0709,-4.40867 9.3195,-6.12047 0.2843,-1.95685 0.9189,-2.19958 5.75,-2.19958 5.2629,0 5.4298,0.0848 5.408,2.75 -0.019,2.31996 -2.4601,4.76968 -15.6106,15.66537 l -15.5882,12.91537 -25.4835,-1.73789 c -14.0159,-0.95583 -25.6819,-1.53952 -25.9243,-1.29708 -0.2424,0.24243 3.7374,0.79837 8.8441,1.23541 5.1068,0.43705 9.735,0.87778 10.285,0.97941 0.55,0.10163 4.6,0.26951 9,0.37306 l 8,0.18828 -3,2.46403 -3,2.46404 2.9279,2.34776 2.928,2.34776 -9.928,1.21519 c -5.4603,0.66835 -11.9529,1.60706 -14.4279,2.08601 -2.475,0.47895 -11.025,1.12996 -19,1.44669 -7.975,0.31673 -15.4748,0.83916 -16.6663,1.16097 -1.7135,0.4628 -11.3337,13.0132 -11.3337,14.78581 0,0.22779 1.3654,0.89014 3.0342,1.4719 2.0254,0.70606 2.8238,0.71723 2.4013,0.0336 -0.3481,-0.56327 2.0945,0.35268 5.4281,2.03545 5.5981,2.82594 13.6178,6.1375 25.3216,10.45601 l 4.6852,1.72877 -1.4406,4.08307 c -1.0786,3.05718 -1.1572,4.42452 -0.3128,5.44204 0.8708,1.04919 0.7624,1.35897 -0.4755,1.35897 -0.8819,0 -1.8872,1.13056 -2.234,2.51236 -0.5256,2.09446 0.443,3.71622 5.8234,9.75 26.504,29.72273 33.7585,38.08159 33.3791,38.46092 -0.2388,0.23888 -2.9252,-0.35087 -5.9696,-1.31054 -8.9973,-2.83614 -8.8131,-3.37569 -8.4489,24.75904 0.1697,13.10638 0.1522,23.82944 -0.039,23.829 -0.191,-4.3e-4 -2.3702,-2.25078 -4.8427,-5.00078 l -4.4954,-5 h -7.9073 c -4.3491,0 -7.8978,-0.3375 -7.886,-0.75 0.012,-0.4125 1.8117,-2.01668 4,-3.56485 2.1882,-1.54817 3.9786,-3.22168 3.9786,-3.7189 0,-0.49723 -5.4366,-6.99305 -12.0814,-14.43515 -9.2098,-10.31482 -12.6564,-13.5311 -14.5,-13.5311 -2.1998,0 -2.4186,0.40707 -2.4186,4.5 0,4.13333 0.2037,4.5 2.5,4.5 1.375,0 2.4989,0.3375 2.4975,0.75 -10e-4,0.4125 -1.1264,4.94497 -2.5,10.07216 -1.7284,6.45124 -2.4975,11.91767 -2.4975,17.75 v 8.42784 h -3 -3 v -18 -18 h -2.5 c -2.0584,0 -2.5016,0.48577 -2.5091,2.75 -0.024,7.23665 -7.3688,30.15135 -13.6414,42.55941 -9.0169,17.83651 -29.5937,40.87078 -46.4524,52.00004 -16.973,11.20472 -36.7663,19.38542 -56.5511,23.37296 -12.3655,2.4922 -42.2899,2.5 -54.6159,0.014 -35.14424,-7.08747 -66.39388,-26.10787 -83.36642,-50.74182 -7.32013,-10.62444 -13.96587,-24.35496 -23.72441,-49.01617 -4.68051,-11.8283 -10.03403,-24.68608 -11.89671,-28.57285 l -3.38671,-7.06686 -4.29444,26.10051 c -6.18562,37.5946 -5.72807,35.7756 -8.90655,35.40776 -3.00627,-0.34791 -2.90145,0.15191 -5.51916,-26.31713 l -1.38358,-13.99015 -0.12606,30.25 -0.12606,30.25 h -2.88337 c -3.00758,0 -4.07346,-1.77785 -4.10298,-6.84362 -0.009,-1.49558 -0.73735,-2.53287 -2.01365,-2.86663 -1.82321,-0.47678 -2,-1.36402 -2,-10.03705 0,-12.16195 -2.51379,-28.00346 -5.71303,-36.0027 -1.37481,-3.4375 -2.83184,-6.25 -3.23784,-6.25 -1.27516,0 -2.02603,29.72949 -0.96784,38.32013 1.27963,10.38843 5.24174,19.1067 11.33774,24.94769 2.68724,2.57483 4.58097,5.28699 4.58097,6.56076 0,2.59005 -0.4372,2.62201 -8.35566,0.61087 -14.3675,-3.64907 -13.64434,-3.32529 -13.64434,-6.10884 0,-2.40897 0.24996,-2.55173 3.53459,-2.01871 l 3.53458,0.57358 -4.05504,-4.60677 c -5.00269,-5.68335 -9.09418,-12.83069 -12.03789,-21.02871 -1.66322,-4.63195 -2.72731,-6.25 -4.11023,-6.25 -1.74109,0 -1.86601,-1.03766 -1.86601,-15.5 0,-15.41857 -0.0118,-15.5 -2.25548,-15.5 h -2.25548 l 0.70448,12.25 c 1.2221,21.25043 7.149,38.95917 18.85403,56.33318 2.9335,4.35425 10.43305,14.83961 16.66565,23.3008 6.23261,8.46119 12.09386,16.67369 13.02501,18.25 1.08409,1.83521 2.52147,2.86602 3.99645,2.86602 2.77531,0 2.82075,0.24521 -3.22932,-17.42839 -2.38808,-6.9761 -3.94549,-12.54607 -3.46092,-12.37771 0.48458,0.16835 7.25191,8.8561 15.03853,19.3061 7.78662,10.45 14.25482,19.11391 14.37377,19.25321 0.11896,0.1392 -1.95917,-7.2858 -4.61807,-16.50004 -2.65891,-9.21424 -4.83534,-17.09067 -4.83651,-17.50317 -0.001,-0.4125 1.24046,-0.75 2.75919,-0.75 2.59244,0 3.38734,1.2538 12.99685,20.5 8.20719,16.43761 10.63247,20.50001 12.23867,20.50001 1.10173,0 2.00315,-0.4717 2.00315,-1.0483 0,-0.5766 -2.025,-8.1029 -4.5,-16.72511 -2.475,-8.62225 -4.5,-16.25052 -4.5,-16.95171 0,-0.70119 1.12686,-1.27489 2.50413,-1.27489 2.23187,0 3.34404,1.68398 10.2296,15.48909 l 7.72547,15.48912 5.16695,-5.1028 5.16696,-5.10277 3.44439,5.36367 c 1.89441,2.95 13.78319,21.3387 26.41951,40.8637 12.63632,19.525 23.51408,36.39997 24.1728,37.49997 1.11215,1.8572 1.15763,1.8215 0.63698,-0.5 -0.30838,-1.375 -2.46963,-8.8 -4.80277,-16.49997 -3.71945,-12.2752 -4.52217,-14.0404 -6.51544,-14.3277 -2.00718,-0.2894 -2.18698,-0.6992 -1.5357,-3.5 0.90148,-3.8768 0.89491,-5.3177 -0.0418,-9.1723 l -0.72903,-3 1.93587,2.386 c 1.28608,1.5852 2.17154,2.0047 2.63798,1.25 0.87716,-1.4192 4.36327,-1.4575 8.28342,-0.091 2.5489,0.8886 3.24397,1.9305 4.64187,6.9585 0.90424,3.2524 3.22239,9.1565 5.15143,13.1202 4.01075,8.2412 4.02331,8.2883 2.00735,7.5147 -0.825,-0.3166 -1.5,-0.3404 -1.5,-0.053 0,1.0852 5.08803,19.01257 6.01503,21.19367 1.1624,2.7349 6.985,5.562 6.985,3.3915 z m 170.5407,-77.35307 c 0.9935,-9.5778 3.1631,-18.29954 5.8917,-23.68414 2.3817,-4.70004 11.6113,-14.09327 13.9257,-14.17261 0.6281,-0.0215 -0.2492,-0.64479 -1.9495,-1.38502 -3.0991,-1.34928 -3.9962,-4.49395 -1.843,-6.46038 0.9376,-0.85622 13.1176,-5.11546 14.6286,-5.11546 0.4432,0 0.8058,3.63032 0.8058,8.06739 0,7.91203 -0.043,8.05357 -2.25,7.35014 -1.2375,-0.39449 -2.8543,-0.76231 -3.5929,-0.81739 -0.82,-0.0611 -4.9799,8.07629 -10.6842,20.89986 -9.0954,20.44711 -9.4236,21.00841 -12.4644,21.31761 l -3.1231,0.3177 z m -155.5407,-6.3176 c 0,-1.415 0.5779,-2.5 1.3316,-2.5 1.7144,0 14.6684,4.0563 14.6684,4.5931 0,0.2238 -3.6,0.4069 -8,0.4069 -7.8667,0 -8,-0.042 -8,-2.5 z m 253.1977,-183.75001 0.3023,-5.25 5.25,-0.30226 5.25,-0.30226 v 5.55226 5.55226 h -5.5523 -5.5522 z m -51.1977,-15.45037 c 0,-7.99934 0.2989,-10.39921 1.25,-10.03526 0.6875,0.26309 3.8375,1.29342 7,2.28961 6.616,2.08405 7.4077,3.17357 2,2.75225 -3.0718,-0.23932 -2.4286,0.17719 3.5566,2.30299 6.7813,2.40859 7.2845,2.7855 7,5.24297 -0.2857,2.46689 -1.007,2.82933 -10.5566,5.30443 l -10.25,2.65661 z m 180,-85.38296 c 0,-2.07973 0.4069,-2.91262 1.25,-2.55885 0.6875,0.28847 4.2875,1.4948 8,2.68074 3.7125,1.18593 6.75,2.33741 6.75,2.55884 0,0.22143 -3.6,0.4026 -8,0.4026 h -8 z m -113,-90.83488 c 0,-3.25502 -0.2731,-6.63002 -0.607,-7.5 -0.3338,-0.86999 -0.1974,-1.58179 0.3032,-1.58179 0.7668,0 5.3038,12.25053 5.3038,14.32095 0,0.37348 -1.125,0.67905 -2.5,0.67905 -2.3851,0 -2.5,-0.27212 -2.5,-5.91821 z m -274.042,449.66819 c -0.023,-0.1375 -0.89,-3.625 -1.9264,-7.75 l -1.8844,-7.49997 -0.074,7.74997 c -0.067,7.1079 0.092,7.75 1.9264,7.75 1.1,0 1.9811,-0.1125 1.958,-0.25 z m 40.9222,-27.99997 2.494,-2.75 h -5.6871 -5.6871 v 6.5348 6.5348 l 3.1931,-3.7848 c 1.7563,-2.0816 4.3155,-5.0223 5.6871,-6.5348 z m 62.1198,-0.25 c 0,-8.1541 -1.3679,-10.0665 -2.3247,-3.25 -0.3282,2.3375 -0.8956,5.7125 -1.261,7.5 -0.5837,2.8555 -0.4064,3.25 1.4607,3.25 1.9778,0 2.125,-0.5196 2.125,-7.5 z m -0.307,-13.231 c -0.2536,-0.9729 -0.4777,-0.419 -0.4981,1.231 -0.02,1.65 0.1871,2.4461 0.461,1.769 0.274,-0.677 0.2906,-2.027 0.037,-3 z m -65.193,-52.67755 c 39.5295,-7.316 64.9936,-20.22081 72.8746,-36.9318 1.3384,-2.83781 2.6687,-6.81868 2.9562,-8.84638 l 0.5229,-3.68672 -8.5897,6.35158 c -21.0417,15.55897 -43.9465,25.17844 -68.0887,28.59551 -5.1511,0.72908 -14.6817,0.98161 -25,0.66241 -23.242,-0.719 -39.89022,-3.81981 -79.56948,-14.82019 -9.84179,-2.72847 -18.03739,-4.81764 -18.21243,-4.64259 -0.17504,0.17504 1.70715,2.89884 4.18265,6.05288 11.72964,14.94477 36.17371,26.45483 60.92396,28.68747 14.4321,1.30187 47.6875,0.48644 58,-1.42217 z m -52.5,-11.63677 c 0,-2.88109 0.1753,-3.01587 3.25,-2.49924 1.7875,0.30034 11.7756,1.45879 22.1957,2.57434 10.4201,1.11555 19.1576,2.24021 19.4167,2.49924 0.259,0.25903 -9.7291,0.47097 -22.1957,0.47097 h -22.6667 z m 0,-22.87569 v -9.92099 l -7.50233,-0.32901 c -4.12628,-0.18095 -7.50128,-0.15581 -7.5,0.0559 0.003,0.45249 14.38453,20.02808 14.75233,20.0799 0.1375,0.0194 0.25,-4.42922 0.25,-9.88577 z m 8.2944,5.171 c -2.1275,-6.37941 -2.2944,-6.40971 -2.2944,-0.41667 0,4.4461 0.2705,5.16667 1.9393,5.16667 1.8692,0 1.8821,-0.17164 0.3551,-4.75 z m 98.6855,-6.18686 c -0.011,-0.30973 -2.0361,-2.56523 -4.5,-5.01224 l -4.4799,-4.44909 v 5.24517 5.24517 l 4.5,-0.23293 c 2.475,-0.12812 4.491,-0.48636 4.4799,-0.79608 z m -23.9799,-17.2142 V 849.687 l -9.75,0.57802 c -5.3625,0.31791 -25.725,1.31821 -45.25,2.22287 -45.10076,2.0897 -44,1.96305 -44,5.0625 0,2.28937 0.33685,2.43873 5.5,2.43873 5.2,0 5.5,0.13636 5.5,2.5 v 2.5 h 23.875 c 13.1312,0 25.3937,0.28451 27.25,0.63224 2.1851,0.40933 3.0224,0.29095 2.375,-0.33576 -0.8562,-0.82881 -38.1979,-4.22084 -48.5,-4.40561 l -3.5,-0.0628 3,-0.94259 c 1.65,-0.51843 12.675,-0.97943 24.5,-1.02445 24.1125,-0.0918 32.269,1.07976 32.7936,4.71028 0.2367,1.63848 1.6889,2.35297 7.5,3.68989 5.9832,1.37654 7.7156,2.25526 10.2064,5.17705 2.0672,2.42492 3.855,3.52572 5.75,3.54041 l 2.75,0.0213 z m 25.9468,8.20424 c 6.0887,-6.08864 7.4898,-9.45067 7.5237,-18.05318 0.024,-6.15408 -0.4704,-8.56747 -2.756,-13.44838 -2.8366,-6.05752 -8.6058,-14.46468 -9.9645,-14.5207 -0.4125,-0.017 -0.75,11.21908 -0.75,24.96908 0,16 0.36,25 1,25 0.55,0 2.7761,-1.77607 4.9468,-3.94682 z m -159.4468,-3.05318 c 0.85325,-1.65 2.03795,-3 2.63267,-3 0.59472,0 0.83311,-0.64679 0.52976,-1.43732 -0.30336,-0.79053 1.63535,-6.50361 4.30824,-12.69574 l 4.85979,-11.25842 5.33477,0.29669 c 6.73815,0.37473 7.9485,0.50853 27.33477,3.02179 45.9649,5.95896 73.2896,2.85478 87.9162,-9.98761 3.6401,-3.19599 9.5838,-13.85355 9.5838,-17.18443 0,-1.78475 0.5303,-1.87706 7.25,-1.26207 24.0029,2.1968 42.9504,-10.66262 44.5199,-30.21508 l 0.5026,-6.26116 -19.3863,9.3341 c -24.88,11.97924 -41.0229,18.8558 -56.7767,24.18577 l -12.6091,4.26602 4.4998,0.57468 c 2.4749,0.31607 7.8748,0.97517 11.9998,1.46466 6.5656,0.7791 5.1951,0.90741 -11,1.02984 -10.175,0.0769 -21.2,0.60784 -24.5,1.1798 -23.4338,4.06163 -54.80637,2.15926 -73.25,-4.44173 l -4.25,-1.52107 v 9.95564 9.95564 h -3.35212 c -4.51394,0 -9.71876,3.65712 -12.11599,8.5132 -2.43898,4.94064 -3.14379,15.22231 -1.56486,22.82797 1.03445,4.98292 1.46184,5.65883 3.57819,5.65883 1.65905,0 2.88389,-0.92913 3.95478,-3 z m -0.30505,-14.5 c 0.0204,-1.65 0.2445,-2.20394 0.49804,-1.23097 0.25354,0.97297 0.23687,2.32297 -0.0371,3 -0.27393,0.67703 -0.48137,-0.11903 -0.46099,-1.76903 z m 328.72325,5.25 -0.082,-11.25 -1.8824,10.5 c -2.3284,12.98736 -2.3322,12 0.046,12 1.8863,0 1.9953,-0.63939 1.9181,-11.25 z m -341.81875,1 c -0.98605,-2.8875 -2.05129,-5.925 -2.36719,-6.75 -0.3159,-0.825 -0.60989,1.5375 -0.65331,5.25 -0.0762,6.51522 0.006,6.75 2.36719,6.75 h 2.44614 z m 186.90055,4.46161 c 0,-0.43361 -0.8838,-3.24611 -1.9639,-6.25 l -1.964,-5.46161 -0.036,6.25 c -0.032,5.59536 0.1735,6.25 1.964,6.25 1.1,0 2,-0.35477 2,-0.78839 z m -140.55,-5.15495 c -0.5225,-0.51884 -3.79337,-2.77898 -7.2686,-5.02253 l -6.31859,-4.07919 0.31859,2.66482 c 0.27458,2.29662 1.21671,2.97684 6.8186,4.92312 7.87272,2.73523 7.62045,2.67603 6.45,1.51378 z m 349.2586,-34.34191 c 12.1839,-18.64521 16.4694,-42.93947 10.7528,-60.95719 l -1.8219,-5.74244 -12.301,41.74244 c -6.7655,22.95834 -12.2891,42.19244 -12.2747,42.74244 0.046,1.75599 11.0489,-10.75196 15.6448,-17.78525 z m -565.32929,11.53525 c -0.36233,-1.5125 -2.8459,-10.80274 -5.51905,-20.64497 -2.67314,-9.84224 -4.86026,-18.57974 -4.86026,-19.41667 0,-0.83693 -0.24088,-1.28081 -0.5353,-0.9864 -0.4265,0.42651 4.93096,31.8927 7.07401,41.54804 0.31448,1.41687 1.23996,2.25 2.49939,2.25 1.67486,0 1.8929,-0.44707 1.34121,-2.75 z m 94.57231,-15 c -0.0613,-2.6125 -0.33885,-9.94107 -0.61679,-16.28571 -0.46094,-10.52188 -0.67363,-11.53572 -2.42009,-11.53572 -1.64701,0 -1.91474,0.74584 -1.91474,5.33412 0,4.9885 3.81783,27.23731 4.67385,27.23731 0.21407,0 0.33906,-2.1375 0.27777,-4.75 z m -53.58692,-8.75563 c 4.87559,-6.3219 9.02695,-11.49437 9.22525,-11.49437 0.1983,0 -0.0783,1.15429 -0.6147,2.5651 -1.47462,3.87854 -1.21038,4.59705 1.56347,4.25132 1.65084,-0.20576 11.29578,-8.18232 27.57783,-22.80743 l 25.03912,-22.49101 -3.82784,-0.83181 c -4.66371,-1.01345 -13.2618,-0.15842 -17.90161,1.78021 -1.88442,0.78736 -3.42622,1.23188 -3.42622,0.98782 0,-0.24406 3.60535,-5.05859 8.0119,-10.69897 l 8.0119,-10.25523 -5.52985,-1 -5.52984,-1 12.78185,-12.75 c 7.03002,-7.0125 13.04475,-12.75 13.36607,-12.75 0.32132,0 1.38721,1.78071 2.36864,3.95714 l 1.78442,3.95714 2.94851,-1.52474 c 1.62167,-0.8386 2.73693,-2.05681 2.47835,-2.70713 -13.2109,-33.2245 -12.56834,-31.91587 -18.76129,-38.20932 -3.26186,-3.31479 -5.93066,-6.43579 -5.93066,-6.93554 0,-0.49976 0.92285,-1.89098 2.05078,-3.0916 l 2.05077,-2.18295 -4.49359,-1.1315 c -5.31997,-1.33958 -6.87782,-1.35585 -4.10796,-0.0429 2.20003,1.04283 1.85473,1.00958 -17,-1.63711 -16.19029,-2.27268 -15.684,-2.10138 -15.31687,-5.18239 0.31489,-2.6426 0.20504,-2.68904 -17.56038,-7.42475 -9.83249,-2.62103 -18.03156,-4.91983 -18.22017,-5.10843 -0.4392,-0.4392 4.56017,-30.03201 5.17793,-30.64977 0.25485,-0.25485 2.49053,0.52151 4.96818,1.72524 3.92934,1.90902 9.45131,2.9547 9.45131,1.78977 0,-0.21936 -5.60563,-12.70686 -12.45696,-27.75 l -12.45695,-27.35116 -12.54305,-0.27988 -12.54304,-0.27987 v 28.02987 28.02988 h 2.33605 c 2.0025,0 2.57363,-0.85455 4,-5.9849 2.09318,-7.52876 2.08681,-7.67126 -0.37196,-8.31424 -1.90649,-0.49856 -2.01774,-1.18934 -1.75,-10.86663 l 0.28591,-10.33423 5.25,-0.30226 c 4.76178,-0.27415 5.25,-0.10708 5.25,1.79661 0,2.61166 -3.76607,37.32405 -4.53022,41.75565 -0.47791,2.77159 -0.26552,3.25 1.44284,3.25 1.80689,0 2.03188,-0.75967 2.29532,-7.75 0.28356,-7.52437 0.3681,-7.75882 2.90399,-8.0531 l 2.61193,-0.3031 -0.11193,8.55296 c -0.08,6.11593 -0.4681,8.553 -1.36193,8.5531 -1.68276,1.9e-4 -1.57657,3.82308 0.25,9.00014 2.04664,5.80079 1.93038,6.29016 -1.37893,5.80446 l -2.87892,-0.42253 -1.75558,9.55903 c -0.96556,5.25747 -2.08356,9.92505 -2.48444,10.37241 -0.40087,0.44735 -1.80285,-1.35265 -3.1155,-4 -1.63816,-3.30386 -3.09225,-4.91358 -4.63663,-5.13292 -2.16331,-0.30724 -2.25,-0.0279 -2.25,7.25 0,4.16325 -0.28789,7.56955 -0.63976,7.56955 -0.35186,0 -1.23755,-0.7875 -1.96819,-1.75 -1.11129,-1.46393 -1.33364,-1.49791 -1.36025,-0.20787 -0.0175,0.84817 -3.16501,13.62162 -6.99449,28.38545 -5.2366,20.18869 -6.71532,27.30555 -5.96482,28.70787 0.7671,1.43335 0.65176,1.86455 -0.49876,1.86455 -0.88671,0 -1.90027,1.52825 -2.48706,3.75 -1.92666,7.29485 -9.81943,37.78188 -10.35558,40 -0.46524,1.92476 -0.14143,2.25 2.24008,2.25 1.53117,0 3.32504,-0.65198 3.98638,-1.44885 0.66134,-0.79686 2.74144,-1.95676 4.62244,-2.57755 l 3.42001,-1.1287 0.13618,-16.67245 c 0.14206,-17.39243 0.29772,-17.88839 1.46639,-4.67245 l 0.70744,8 6.29661,-31 c 3.46314,-17.05 6.31839,-31.3375 6.345,-31.75 0.0266,-0.4125 1.44652,-0.75 3.15537,-0.75 2.56111,0 2.98304,0.30746 2.40154,1.75 -2.19383,5.44217 -4.48349,20.85429 -4.49403,30.25 -0.0141,12.58081 1.49095,21.67613 7.06397,42.68901 2.30636,8.69605 4.99098,19.33226 5.96583,23.63603 0.97485,4.30378 1.96688,8.01948 2.20452,8.25711 0.23763,0.23763 8.26636,-9.66891 17.84162,-22.01453 9.57526,-12.34563 17.52166,-22.13633 17.65867,-21.75711 0.1938,0.53642 -7.8993,27.49952 -19.34181,64.43949 -0.46463,1.49998 0.14617,1.7492 4.27531,1.74437 l 4.81739,-0.006 8.8647,-11.49437 z m 6.3853,-117.29916 -4.75,-0.30479 v -5.49747 -5.49747 l 5.25,0.30226 5.25,0.30226 0.31049,4.88951 c 0.17077,2.68923 -0.0542,5.16423 -0.5,5.5 -0.44577,0.33577 -2.94799,0.47333 -5.56049,0.3057 z m 134.25,126.80479 c 0,-0.55 -0.4132,-1 -0.91821,-1 -0.50502,0 -1.74252,-0.28554 -2.75,-0.63453 -1.60979,-0.55763 -1.5894,-0.44029 0.16821,0.96819 2.31801,1.85757 3.5,2.0826 3.5,0.66634 z m -10,-6.49374 c 0,-0.93143 -5.74085,-4.32052 -15.25,-9.00279 -8.3875,-4.12998 -14.575,-7.03731 -13.75,-6.46073 3.34185,2.33555 27.55295,16.79745 28.25,16.87443 0.4125,0.0456 0.75,-0.58935 0.75,-1.41091 z M 276.972,798.73912 c -0.31196,-2.3375 -2.09499,-16.85 -3.9623,-32.25 -3.48786,-28.76511 -3.53997,-28.19562 -1.25797,13.75 1.23153,22.63699 1.24898,22.75 3.51257,22.75 2.09866,0 2.23096,-0.32926 1.7077,-4.25 z m 316.60546,0.0807 c 16.6173,-6.5774 33.9187,-18.07964 49.2306,-32.72925 15.1982,-14.54087 23.7694,-28.97365 23.7694,-40.02478 0,-5.96129 -4.053,-14.22198 -8.75,-17.83383 l -3.25,-2.49917 v 5.23382 c 0,11.40737 -5.7271,25.75962 -16.0958,40.33641 -7.8024,10.96897 -24.912,27.56818 -36.065,34.98913 -8.6279,5.74081 -20.5012,11.69696 -23.3172,11.69696 -0.9706,0 -1.522,0.93762 -1.522,2.5879 0,2.48587 0.1675,2.56076 4.25,1.89967 2.3375,-0.37853 7.625,-2.02411 11.75,-3.65686 z m 286.9225,2.91929 c -0.043,-0.6875 -0.9078,-3.5 -1.9225,-6.25 l -1.845,-5 -0.078,6.25 c -0.069,5.60917 0.1276,6.25 1.9225,6.25 1.1,0 1.9651,-0.5625 1.9225,-1.25 z m -309.4907,-11.5 c -2.8091,-12.74028 -7.0675,-22.92461 -13.8541,-33.13307 -3.4402,-5.1748 -5.72287,-7.42109 -9.78248,-9.62648 -8.43654,-4.58316 -15.35067,-12.15344 -17.33534,-18.98046 -1.42103,-4.88818 -1.494,-6.65918 -0.48557,-11.78494 0.65273,-3.31775 2.32813,-8.55065 3.72311,-11.62866 l 2.53634,-5.59639 1.52457,3.5 1.52458,3.5 1.18163,-5.10026 c 0.64989,-2.80515 2.2233,-7.66678 3.49645,-10.80363 l 2.31483,-5.70337 -4.88791,-12.44381 c -2.68835,-6.84409 -5.39619,-12.44495 -6.01741,-12.44637 -1.97615,-0.004 -28.13323,11.68126 -33.60739,15.01419 -9.58447,5.83549 -15.86983,11.27442 -20.45579,17.70107 -6.94617,9.73417 -11.28063,24.40563 -11.29977,38.24783 -0.007,5.17483 0.24319,5.72022 4.70486,10.25 l 4.71241,4.78435 h 12.69969 12.69969 l 0.5593,-3.75 c 0.93536,-6.27139 1.07329,-9.7013 0.43234,-10.7506 -0.33576,-0.54967 0.18608,-5.7244 1.15965,-11.4994 0.97358,-5.775 2.07994,-12.6375 2.4586,-15.25 0.63512,-4.38199 0.90711,-4.75 3.51069,-4.75 2.74948,0 2.83999,0.17398 3.51153,6.75 2.05057,20.08014 7.71437,30.98102 29.99236,57.72508 6.40274,7.68629 13.75863,17.23524 16.34633,21.21988 3.5309,5.43689 5.2712,7.25233 6.974,7.27493 1.9599,0.026 2.1865,-0.34465 1.6628,-2.71989 z m 314.9759,-14 c -0.3088,-3.1625 -0.8765,-10.25 -1.2615,-15.75 l -0.7,-10 -0.7299,12.58121 c -0.4892,8.43196 -0.3656,13.62628 0.3747,15.75 1.748,5.01421 2.9299,3.69729 2.3167,-2.58121 z m -286.61,-9.39411 c 8.6102,-4.16815 13.7323,-15.92395 13.3351,-30.60589 -0.1623,-5.99966 0.1218,-9.25 0.8085,-9.25 0.5823,0 1.1104,1.0125 1.1737,2.25 0.4627,9.05207 3.8081,-31.62005 3.8714,-47.06642 0.012,-3.02515 0.2551,-3.28863 2.7629,-3 l 2.7494,0.31642 2.5006,30.76374 2.5007,30.76373 3.5402,-2.40721 c 4.1754,-2.83913 8.2543,-8.57043 9.9806,-14.0238 1.74,-5.49677 0.6655,-19.99199 -2.3423,-31.59646 -2.4242,-9.35327 -3.378,-10.56623 -1.7692,-2.25 0.8142,4.2088 0.7941,4.25 -2.0661,4.25 h -2.8883 l 0.2725,-18.223 0.2726,-18.22301 2.5,-10e-4 c 2.4851,-10e-4 2.5017,0.0596 2.785,10.22301 0.262,9.40009 0.4433,10.22412 2.25,10.22412 1.0807,0 1.9662,-0.3375 1.9677,-0.75 0,-1.24583 -15.1411,-106.73316 -15.3287,-106.76248 -0.096,-0.015 -2.7653,-1.76318 -5.9324,-3.88494 -10.1123,-6.77466 -15.7416,-15.00956 -15.7416,-23.02807 0,-5.80079 4.0592,-10.72534 10.7082,-12.99087 4.4436,-1.51409 11.2918,-2.15924 11.2918,-1.06378 0,0.28599 -2.0509,4.60355 -4.5575,9.59458 -2.5067,4.99102 -3.9692,8.71454 -3.25,8.27448 0.7191,-0.44007 17.8977,-12.6683 38.1746,-27.17386 l 36.867,-26.37374 25.633,-2.90184 c 14.0981,-1.59601 25.9025,-2.91033 26.2319,-2.92072 0.3295,-0.0104 13.1242,-10.59388 28.4328,-23.51888 22.481,-18.98069 28.3969,-23.5 30.7623,-23.5 2.8347,0 2.9073,0.12014 2.2687,3.75 -4.7176,26.81144 -23.5516,49.41557 -49.0347,58.85043 l -4.972,1.84081 3.222,0.92404 c 5.2846,1.51562 3.6799,2.63472 -3.7781,2.63472 -4.2946,0 -7,-0.41253 -7,-1.06739 0,-0.58706 -0.7875,-0.82284 -1.75,-0.52396 -0.9625,0.29888 -3.2125,0.64992 -5,0.78009 -3.17,0.23085 -3.25,0.35185 -3.25,4.91698 0,5.65714 0.4423,5.89428 10.9938,5.89428 33.716,0 53.4658,-16.82442 67.4981,-57.5 3.066,-8.88751 3.7344,-10.03552 6.0083,-10.31926 l 2.5585,-0.31925 -0.2793,-12.64716 -0.2794,-12.64717 -10.0928,-2.44774 -10.0927,-2.44775 -2.1734,-9.08584 c -2.743,-11.46733 -2.7568,-12.45296 -0.1411,-10.08583 1.981,1.79275 2,1.74663 2,-4.84501 0,-3.66025 0.3731,-6.65499 0.8291,-6.65499 0.4559,0 1.8377,2.15357 3.0705,4.78571 1.5392,3.28621 2.8461,4.78572 4.171,4.78572 2.4061,0 2.3757,-1.08183 -0.4076,-14.49504 -1.9391,-9.3448 -2.3932,-10.4399 -4.3872,-10.58098 -1.9237,-0.13611 -2.573,0.89006 -4.8064,7.59646 l -2.5823,7.75382 -4.6935,-2.39999 c -11.2359,-5.74527 -20.4265,-6.47291 -48.4461,-3.83556 -31.4637,2.96154 -38.3014,0.85581 -68.2475,-21.01759 -4.95,-3.6156 -14.85,-9.60621 -22,-13.31247 -22.2526,-11.53478 -25.7091,-17.56881 -19.1105,-33.3615 l 1.4894,-3.56449 -14.9426,-14.91766 c -8.2184,-8.20472 -14.8021,-15.33901 -14.6305,-15.85398 0.3081,-0.9242 23.019,-5.51328 27.5106,-5.55892 1.9177,-0.0195 2.262,-0.48279 2,-2.69157 -0.2793,-2.35529 -2.9811,-4.14293 -23.0482,-15.25 -21.0431,-11.64729 -22.7332,-12.78625 -22.75,-15.33196 -0.01,-1.5125 0.2463,-2.75 0.5697,-2.75 0.3233,0 5.7727,2.05065 12.1097,4.55699 6.3369,2.50635 11.7304,4.34831 11.9855,4.09326 1.0644,-1.06446 -5.319,-12.33877 -9.162,-16.18183 -12.3397,-12.33963 -38.1277,-9.38458 -68.5211,7.85184 -5.91853,3.35646 -7.56356,4.79265 -7.80142,6.81106 l -0.30142,2.55774 17.11282,-4.9498 c 9.41202,-2.72238 17.31392,-4.74864 17.55982,-4.50279 0.2458,0.24585 -1.1318,3.47591 -3.0614,7.17793 -1.9296,3.70201 -3.5084,7.63284 -3.5084,8.73519 0,2.99131 5.183,7.60651 9.4389,8.40493 l 3.7398,0.70159 -5.2575,5.32365 -5.2575,5.32365 5.1242,7.75892 c 2.8183,4.26741 5.0271,7.85597 4.9085,7.97457 -0.1751,0.17512 -39.96286,5.3631 -41.13076,5.3631 -0.18888,0 -0.28092,0.7875 -0.20453,1.75 0.12512,1.57652 1.92325,1.79957 18.13889,2.25 l 18,0.5 v 3 3 l -12.75,2.46748 c -11.8887,2.30079 -12.75,2.62167 -12.75,4.75 0,1.25538 0.35786,2.28252 0.79525,2.28252 0.67058,0 15.42095,2.92518 22.95475,4.55219 1.7175,0.37092 2.25,1.18686 2.25,3.44781 0,2.41034 -0.5121,3.08031 -2.75,3.59778 -1.5125,0.34974 -6.0042,1.48332 -9.9816,2.51906 -3.97741,1.03574 -7.60024,1.88316 -8.05075,1.88316 -0.45052,0 -1.78075,-1.97932 -2.95607,-4.39848 l -2.13694,-4.39848 -4.45259,1.60114 c -4.37994,1.57501 -4.42711,1.64001 -2.89139,3.98382 2.02727,3.09401 1.18347,3.60493 -8.64146,5.23241 -4.20156,0.69598 -8.3142,1.62347 -9.1392,2.06108 -0.825,0.43761 10.2,0.77873 24.5,0.75805 l 26,-0.0376 v 5.34903 5.34903 l -9.6096,0.68564 c -14.27476,1.01849 -29.08288,4.73223 -60.98503,15.2945 -34.06977,11.27992 -44.89587,13.47329 -57.21381,11.59154 -12.77767,-1.95198 -20.70898,-6.20865 -30.67624,-16.4637 -6.5447,-6.73366 -14.79217,-19.34939 -19.18648,-29.34856 -2.58516,-5.8825 -3.61243,-7.25942 -5.41594,-7.25942 -1.60364,0 -2.11516,0.48909 -1.83026,1.75 0.21747,0.9625 2.44403,10.0188 4.94793,20.12512 2.50389,10.10631 4.38592,18.54172 4.18229,18.74535 -0.20362,0.20363 -3.64983,-1.88905 -7.65823,-4.65039 -4.0084,-2.76135 -7.07146,-4.44676 -6.8068,-3.74536 0.72706,1.92681 9.75217,33.62182 9.75217,34.24833 0,0.29985 -4.55688,-1.74156 -10.12639,-4.53648 l -10.1264,-5.08166 2.00968,3.32254 c 10.41439,17.2178 33.22131,57.17768 32.84734,57.55166 -0.26206,0.26205 -3.45896,-0.51604 -7.10423,-1.72911 -3.64527,-1.21307 -6.77107,-2.04682 -6.94623,-1.85279 -0.17516,0.19404 0.31514,2.82779 1.08956,5.85279 4.60048,17.97031 15.76885,28.3109 35.62297,32.98268 4.52854,1.06559 15.6587,2.87496 24.7337,4.02083 21.60366,2.72783 32.46078,5.342 41.98541,10.10923 10.23574,5.12315 14.02183,9.51016 21.06126,24.40402 3.17171,6.71063 7.17851,13.80905 8.90399,15.77426 3.58228,4.08 10.38081,7.70898 14.44199,7.70898 3.64546,0 8.07951,-4.5062 9.67542,-9.83286 0.68668,-2.29193 1.75851,-4.16714 2.38186,-4.16714 0.91186,0 23.74587,7.38945 29.49497,9.54506 0.985,0.36933 -3.5505,5.54457 -14.25,16.25973 -10.90507,10.9211 -15.6949,16.40115 -15.6949,17.95658 0,2.13408 0.37861,2.23863 8.107,2.23863 6.9817,0 8.0227,0.21957 7.5,1.58179 -0.3339,0.86998 -0.607,6.71998 -0.607,13 v 11.41821 h -2.5 c -1.375,0 -2.5,0.27805 -2.5,0.61788 0,0.33984 -2.0568,10.67183 -4.57068,22.95998 l -4.57068,22.34208 4.32068,13.79003 c 3.43078,10.94969 4.38618,13.10812 4.63858,10.47933 0.1748,-1.82089 0.6248,-3.16049 1,-2.97689 9.3825,4.59174 10.2666,5.27813 9.9772,7.74577 -0.207,1.76467 -1.5279,3.19395 -4.424,4.78695 l -4.1289,2.27111 3.8789,12.11206 c 2.1334,6.66163 3.8789,12.66174 3.8789,13.33359 0,0.67184 -1.9125,1.78663 -4.25,2.47731 -13.70846,4.05051 -17.37294,15.89003 -9.77393,31.57842 2.65413,5.47963 3.46613,6.49813 3.77253,4.73238 0.343,-1.9763 0.9903,-2.25 5.3209,-2.25 2.7118,0 4.9305,0.31853 4.9305,0.70784 0,0.38931 -1.6656,2.41358 -3.7014,4.49837 l -3.7013,3.79053 5.5374,5.36338 c 12.5457,12.15155 24.8671,16.23786 34.663,11.49577 z m -1.7977,-218.52256 c 0,-4.21666 0.227,-7.4397 0.5044,-7.16229 0.2774,0.27741 1.6006,3.72741 2.9404,7.66667 l 2.436,7.16229 h -2.9404 -2.9404 z m -19.607,-40.83333 c 0.3339,-0.825 0.8469,-2.08827 1.14,-2.80727 0.373,-0.91464 -5.1083,-3.60973 -18.25,-8.9734 -17.21207,-7.02498 -74.64851,-30.40532 -105.533,-42.95877 -12.04697,-4.89667 -12.75,-5.33621 -12.75,-7.97149 0,-2.55629 0.31298,-2.78905 3.75,-2.78887 2.0625,1e-4 9.34399,0.91291 16.18108,2.02846 46.50806,7.58832 89.61209,27.01475 112.69672,50.79098 3.8921,4.00867 6.3199,5.84926 6.6069,5.0089 0.2495,-0.73069 1.6564,1.03396 3.1263,3.92146 l 2.6727,5.25 h -5.1238 c -4.1577,0 -5.0094,-0.28286 -4.5169,-1.5 z m 17.107,-6.12095 c 25.1044,-21.3306 69.5557,-44.04082 104,-53.13371 8.3034,-2.192 12.2394,-2.64883 23.1991,-2.69261 7.5454,-0.0301 13.6248,0.37561 14.1928,0.94727 1.1671,1.17463 -42.6744,25.71577 -65.0454,36.41045 -28.2753,13.51722 -54.6829,21.14889 -72.8465,21.05222 l -6.5,-0.0346 z m -7,-42.88673 c -11.2346,-2.07246 -18.4892,-4.17895 -38.32667,-11.12881 -10.27033,-3.5981 -27.44833,-9.46036 -38.17333,-13.02726 -10.725,-3.5669 -20.175,-6.85038 -21,-7.29662 -1.09359,-0.59153 -1.4118,-2.12714 -1.17446,-5.66771 0.17905,-2.67098 0.40405,-4.93463 0.5,-5.03032 0.38774,-0.38669 18.64886,4.29947 19.30288,4.95349 0.3877,0.3877 -2.85759,0.74515 -7.21175,0.79433 l -7.91667,0.0894 4.5,1.27607 c 23.00184,6.52264 93.6956,24.62941 98,25.10072 3.5212,0.38555 10.1771,-0.14189 18.5,-1.46603 7.15,-1.13753 24.4225,-3.88802 38.3834,-6.11218 13.9609,-2.22417 25.621,-3.80631 25.9115,-3.51587 0.9056,0.9056 -23.7683,12.12775 -34.7949,15.82537 -19.0306,6.38164 -39.7672,8.29213 -56.5,5.20541 z m 86.6836,-29.24232 c 0.2602,-2.2618 0.7602,-2.7074 2.8164,-2.51002 13.7279,1.31778 41.7152,4.42947 42.5,4.72525 0.55,0.20728 -9.4924,0.4124 -22.3164,0.45582 l -23.3164,0.079 0.3164,-2.75 z m -89.1836,-5.94655 c -16.036,-1.72489 -33.86163,-6.208 -49.75,-12.51201 -9.66539,-3.83493 -10.25,-4.23013 -10.25,-6.92916 0,-1.86274 0.51778,-2.86228 1.48271,-2.86228 1.28647,0 18.81637,3.35095 64.51729,12.33288 12.3988,2.43683 9.9387,2.45114 53,-0.30826 40.8875,-2.62009 41.8427,-2.48281 19.5,2.80254 -15.5286,3.67341 -21.847,4.81391 -37.2663,6.72669 -10.5586,1.3098 -32.3437,1.70584 -41.2337,0.7496 z m -200,-22.30345 c 0,-2.75 0.35442,-5 0.78759,-5 0.43318,0 3.00376,2.25 5.71241,5 l 4.92482,5 h -5.71241 -5.71241 z m 252.5,-10.59668 c -1.1,-0.17837 -20.675,-1.26731 -43.5,-2.41987 -22.825,-1.15257 -42.0625,-2.28122 -42.75,-2.50813 -0.6875,-0.2269 -1.25,-1.52613 -1.25,-2.88717 v -2.47461 l 9.25,0.40302 c 5.0875,0.22166 11.725,0.85687 14.75,1.41158 3.025,0.55471 16.75,2.15951 30.5,3.56621 34.2095,3.49984 41.7118,4.38411 42.3152,4.98757 0.5395,0.53946 -5.8354,0.48568 -9.3152,-0.0786 z m 15.5,-2.2725 c -8.858,-2.45642 -9.5214,-2.82017 -9.8164,-5.38264 -0.1741,-1.5115 -0.053,-2.74818 0.2681,-2.74818 1.0093,0 20.5483,9.99295 20.5483,10.50912 0,0.6628 -0.1526,0.62982 -11,-2.3783 z m -216,-5.23781 c 0,-2.51994 0.32294,-2.98306 1.7092,-2.4511 0.94006,0.36073 4.31444,1.42138 7.49862,2.35698 3.18417,0.93561 5.79003,2.03861 5.79079,2.45111 7.7e-4,0.4125 -3.37361,0.75 -7.49861,0.75 h -7.5 z m 447.2901,343.60699 c 0.3589,-7.86952 0.2566,-10.45107 -0.2973,-7.5 -0.8336,4.44161 -1.3417,20.72473 -0.6214,19.91667 0.2043,-0.22917 0.6177,-5.81667 0.9187,-12.41667 z m -615.60077,5.75 c -0.25153,-0.9625 -0.45733,-0.175 -0.45733,1.75 0,1.925 0.2058,2.7125 0.45733,1.75 0.25152,-0.9625 0.25152,-2.5375 0,-3.5 z m 427.15967,-17.41422 c -7.8919,-6.14032 -18.0659,-14.05608 -22.6087,-17.59056 -9.1937,-7.15308 -9.3574,-6.87349 -2.9805,5.0908 6.3567,11.9265 16.6611,19.18771 31.3802,22.11278 3.773,0.7498 7.2421,1.40555 7.709,1.45723 0.467,0.0517 -5.608,-4.92993 -13.5,-11.07025 z m 188.6617,-6.83578 1.9893,-2.5 -2.25,1.90499 c -1.2375,1.04774 -2.25,2.36024 -2.25,2.91666 0,0.55643 0.1173,0.82418 0.2607,0.59502 0.1433,-0.22917 1.1558,-1.54167 2.25,-2.91667 z m -427.5882,0.75 c -0.0426,-0.6875 -0.90775,-3.5 -1.9225,-6.25 l -1.84499,-5 -0.0775,6.25 c -0.0695,5.60917 0.12757,6.25 1.9225,6.25 1.1,0 1.96512,-0.5625 1.9225,-1.25 z m 274.0775,-6.11601 c 0,-1.97543 -0.9662,-2.71829 -5.8527,-4.5 -3.2189,-1.17369 -7.3814,-2.13894 -9.25,-2.145 -1.8685,-0.006 -5.1248,-0.29641 -7.2361,-0.64525 -3.3977,-0.56137 -3.7858,-0.91151 -3.3775,-3.04728 0.4268,-2.23298 -0.7807,-3.0348 -16.1821,-10.74557 -9.1538,-4.5829 -18.3602,-9.04992 -20.4587,-9.92672 l -3.8154,-1.59418 2.7082,4.73501 c 1.4896,2.60425 3.6659,5.73016 4.8363,6.94647 1.1704,1.2163 10.678,6.11726 21.128,10.89102 25.3963,11.60148 27.2391,12.29647 32.75,12.35074 4.3414,0.0428 4.75,-0.15673 4.75,-2.31924 z m -478.42358,-3.10084 c 16.52269,-4.90671 29.09956,-25.94056 39.38354,-65.86594 4.40644,-17.10709 6.03829,-25.50625 6.03922,-31.08388 4.5e-4,-2.70416 0.33832,-4.57744 0.75082,-4.16284 1.87016,1.87968 3.3589,-17.55363 4.16903,-54.42049 0.94812,-43.1466 0.4674,-51.26829 -4.49834,-76 -9.53362,-47.48187 -25.39804,-74.97918 -44.79252,-77.63749 -10.43167,-1.42982 -17.26059,4.78907 -23.59341,21.4858 -2.22202,5.85843 -5.61311,13.80169 -7.53575,17.65169 -8.05617,16.13209 -26.82178,32.84628 -50.28166,44.78498 -7.01755,3.57121 -8.20525,4.53129 -7.77596,6.28565 1.37964,5.63814 2.61571,32.64017 2.53738,55.42937 -0.0482,14.025 0.37295,28.875 0.93591,33 1.40538,10.29763 1.34813,13 -0.27539,13 -1.92881,0 -2.69407,8.07239 -1.59502,16.82526 1.25473,9.99269 4.45086,17.37735 18.25356,42.17474 16.71201,30.02416 23.44203,39.37049 35.20217,48.88707 12.32987,9.97762 22.23395,12.86595 33.07642,9.64608 z M 231.57746,689.0992 c 0,-0.92752 1.79529,-9.70588 6.94911,-33.97888 1.67799,-7.90284 3.08252,-17.12784 3.12118,-20.5 0.048,-4.18427 0.32912,-5.49611 0.88541,-4.1312 0.85766,2.10433 1.10237,1.50511 2.65453,-6.5 0.26661,-1.375 0.71109,-3.26353 0.98774,-4.19674 0.39572,-1.33486 -2.10357,-0.64267 -11.71863,3.24553 -6.72189,2.71825 -12.40385,4.76003 -12.62658,4.53731 -0.827,-0.82701 19.29446,-25.42161 20.49023,-25.04536 0.68365,0.21511 0.17607,-1.28105 -1.12795,-3.32481 -2.89578,-4.5385 -4.38408,-4.53619 -19.46735,0.0302 l -10.35231,3.13409 -1.64769,-2.18251 -1.64769,-2.18252 -0.14536,2.51085 c -0.20689,3.57358 -4.38284,8.61729 -10.54745,12.73921 -2.91896,1.95173 -5.43138,3.4288 -5.58317,3.28238 -0.15179,-0.14641 2.90016,-3.36702 6.78209,-7.1569 l 7.05807,-6.89069 -2.53209,-7.42515 c -1.39265,-4.08388 -2.53209,-7.64982 -2.53209,-7.92436 0,-0.27454 1.125,0.55772 2.5,1.84947 l 2.5,2.34863 v -2.55941 c 0,-2.48115 0.37456,-2.62988 12.25,-4.86432 6.7375,-1.26771 12.38834,-2.39525 12.55742,-2.50566 0.16908,-0.11041 -1.85592,-2.24846 -4.5,-4.75123 -3.1015,-2.93574 -4.45257,-4.87829 -3.80742,-5.47426 0.55,-0.50807 6.2875,-1.94301 12.75,-3.18876 10.97791,-2.11615 11.75,-2.41762 11.75,-4.58798 0,-1.77313 -0.7693,-2.5319 -3.25,-3.2055 -1.7875,-0.48538 -14.6125,-3.98518 -28.5,-7.77735 l -25.25,-6.89486 v -7.76965 c 0,-7.62096 -0.0478,-7.76965 -2.5,-7.76965 -2.36364,0 -2.5,-0.3 -2.5,-5.5 v -5.5 h 5.5 5.5 v 5.5 c 0,4.55542 -0.30055,5.50722 -1.75,5.54202 -0.9625,0.0231 10.175,4.44618 24.75,9.82905 14.575,5.38288 26.64566,9.68081 26.82369,9.55096 0.31945,-0.23299 -27.26415,-42.04328 -28.93505,-43.85879 -0.52111,-0.5662 -1.85632,-0.003 -3.3754,1.42432 l -2.51324,2.36107 v -5.17432 -5.17431 h 5.17431 5.17432 l -2.28984,2.43742 -2.28983,2.43742 19.9437,9.98135 19.94371,9.98136 -5.26037,-7.99563 c -2.8932,-4.39759 -5.96588,-10.0662 -6.82818,-12.59691 -2.22073,-6.51748 -2.00605,-15.06725 0.52509,-20.9121 l 2.09292,-4.83291 5.25363,10.42423 c 4.18192,8.29773 5.70947,10.45782 7.48815,10.58885 2.03737,0.1501 2.17662,-0.152 1.57839,-3.42423 -1.06836,-5.84374 -13.52871,-64.43335 -14.1084,-66.33885 -1.02445,-3.3675 1.29588,-1.69737 6.42538,4.62485 15.10101,18.61231 21.96636,38.3201 24.34153,69.87515 1.13219,15.04173 1.28145,15.75 3.31914,15.75 1.78828,0 2.49825,-1.21395 4.38631,-7.5 2.1388,-7.12085 2.40125,-7.5 5.19136,-7.5 3.55699,0 3.45718,-2.54001 1.43424,36.5 -1.83031,35.32223 -1.82293,46.84763 0.0333,52 0.79257,2.2 1.44782,4.1125 1.4561,4.25 0.008,0.1375 -0.82377,0.25 -1.84902,0.25 -1.45954,0 -2.00208,1.00687 -2.5,4.63957 -0.34975,2.55177 -0.63592,6.02893 -0.63592,7.72704 0,1.69811 -3.48033,13.5603 -7.73406,26.36043 -7.60695,22.89042 -7.77954,23.27296 -10.50002,23.27296 -1.52127,0 -2.76594,-0.37633 -2.76594,-0.83629 0,-0.45995 2.25,-10.88362 5,-23.16371 2.75,-12.28009 5,-22.47876 5,-22.66371 0,-0.18496 1.125,-0.33629 2.5,-0.33629 h 2.5 v -20 -20 l -2.25,-10e-4 c -2.23503,-10e-4 -2.25,0.10036 -2.25,15.25 v 15.25112 l -2.75,0.31642 c -3.33471,0.3837 -3.31873,0.69184 -0.71422,-13.77241 1.11968,-6.21818 1.90718,-11.42502 1.75,-11.57076 -0.15718,-0.14574 -9.06078,25.10885 -19.78578,56.1213 -19.39859,56.09304 -19.5143,56.38633 -22.25,56.39587 -1.5125,0.005 -2.75,-0.39088 -2.75,-0.88034 z m 28.86326,-83.67539 c -1.40141,-1.40141 -2.11963,-1.42046 -6.40827,-0.16995 l -4.82997,1.40835 3.91673,2.66149 3.91673,2.66149 2.49154,-2.49154 c 2.26964,-2.26964 2.35097,-2.63211 0.91324,-4.06984 z m -3.97384,-57.68469 -0.11058,-7.25 -1.23433,5 c -0.67887,2.75 -1.55944,6.0125 -1.9568,7.25 -0.59108,1.84076 -0.34646,2.25 1.3449,2.25 1.90992,0 2.05897,-0.55224 1.95681,-7.25 z m -4.4265,130.5 c 0.37229,-0.9625 1.52515,-5.29221 2.5619,-9.62158 1.03676,-4.32937 2.1303,-8.11687 2.4301,-8.41667 0.29979,-0.2998 0.54508,4.02992 0.54508,9.62158 v 10.16667 h -3.10699 c -2.55023,0 -2.98569,-0.31359 -2.43009,-1.75 z m -57.46292,-37.52004 c 0,-1.69122 2.35094,-4.04984 9.21987,-9.25 13.21924,-10.0077 13.42343,-9.88352 2.29889,1.39797 -5.48968,5.56714 -10.32718,10.12207 -10.75,10.12207 -0.42282,0 -0.76876,-1.02152 -0.76876,-2.27004 z m 31.40443,-159.72225 -5.09557,-12.92944 2.847,-2.72759 2.84699,-2.72759 4.23378,2.97561 c 9.57531,6.72978 10.96233,13.63493 4.6696,23.24717 -1.8558,2.83477 -3.60639,5.13999 -3.89021,5.1227 -0.28381,-0.0173 -2.80903,-5.84967 -5.61159,-12.96086 z m 15.59557,-56.50771 c 0,-4.125 0.20692,-7.5 0.45982,-7.5 0.48824,0 4.54018,12.58849 4.54018,14.10534 0,0.49206 -1.125,0.89466 -2.5,0.89466 -2.44444,0 -2.5,-0.16667 -2.5,-7.5 z m 18.18073,-1.75 c -1.21711,-5.0875 -2.18283,-9.7 -2.14603,-10.25 0.0691,-1.03328 9.82408,17.415 9.9145,18.75 0.0279,0.4125 -1.21063,0.75 -2.75237,0.75 -2.70938,0 -2.87722,-0.30951 -5.0161,-9.25 z M 753.07746,686.4522 c -0.55,-0.16835 -5.3875,-0.50371 -10.75,-0.74524 -6.7438,-0.30374 -9.7507,-0.0967 -9.7521,0.67151 0,0.76808 3.3143,0.99794 10.75,0.74523 5.9136,-0.20098 10.3021,-0.50316 9.7521,-0.6715 z M 410.30663,666.38495 c -0.33229,-0.33229 -1.1948,-0.36781 -1.91667,-0.0789 -0.79773,0.31922 -0.56078,0.55618 0.60417,0.60416 1.05416,0.0434 1.64479,-0.19293 1.3125,-0.52522 z m -5.22917,-1.32949 c -1.1,-0.44378 -3.575,-1.07258 -5.5,-1.39734 -3.45059,-0.58212 -3.44353,-0.57092 0.5,0.79342 4.29127,1.48465 8.41872,1.98318 5,0.60392 z m 315,-0.1749 c 35.8686,-4.39558 56.754,-22.16287 53.9951,-45.93381 l -0.7023,-6.05109 -9.1464,8.83116 c -17.6396,17.03161 -33.7372,26.24053 -58.1464,33.26362 -8.989,2.58634 -9.5956,2.90247 -6,3.12692 2.2,0.13734 -0.05,0.50216 -5,0.81073 -8.2811,0.51622 -9.0248,0.73513 -9.3103,2.74071 -0.2719,1.9097 0.2854,2.26006 4.5,2.82865 2.6456,0.35694 5.2603,0.80306 5.8103,0.99138 2.2328,0.7645 15.5527,0.42692 24,-0.60827 z m -231.5,-1.90161 c 4.125,-0.52163 10.5375,-1.68121 14.25,-2.57685 5.81346,-1.40248 6.75,-1.93597 6.75,-3.84504 0,-2.15222 -0.19613,-2.19241 -6.75,-1.38324 -3.7125,0.45837 -9.45,1.30512 -12.75,1.88168 -3.3,0.57655 -11.7375,1.31215 -18.75,1.63465 l -12.75,0.58637 v -3.1437 c 0,-3.01398 1.38221,-3.87282 5.25,-3.26212 0.4125,0.0651 0.75,-0.33158 0.75,-0.88158 0,-0.55 -0.60443,-1 -1.34317,-1 -3.2408,0 -16.36149,-10.90567 -28.2545,-23.4846 -7.09628,-7.50555 -17.17733,-17.25405 -22.40233,-21.66333 -9.13294,-7.70712 -9.51231,-7.91623 -9.81856,-5.41228 -0.46312,3.78646 2.3536,16.45569 5.23526,23.54749 11.52398,28.36069 43.26212,43.72204 80.5833,39.00255 z m -93.27083,-0.594 c -0.33229,-0.33229 -1.1948,-0.36781 -1.91667,-0.0789 -0.79773,0.31922 -0.56078,0.55618 0.60417,0.60416 1.05416,0.0434 1.64479,-0.19293 1.3125,-0.52522 z m 489.12403,-27.14583 c -1.0684,-4.2625 -2.1119,-8.2 -2.3189,-8.75 -0.207,-0.55 -0.4119,2.9375 -0.4554,7.75 -0.078,8.58922 -0.035,8.75 2.3189,8.75 h 2.3979 z m -390.8532,2.45821 c 0,-0.16049 -2.025,-2.27918 -4.5,-4.70821 l -4.5,-4.41642 v 4.70821 4.70821 h 4.5 c 2.475,0 4.5,-0.13131 4.5,-0.29179 z m 15.29969,-6.05028 c -2.96328,-4.97311 -13.8271,-18.51429 -14.36452,-17.90463 -0.56579,0.64184 -4.93517,17.20729 -4.93517,18.71051 0,0.29491 4.52236,0.53619 10.04969,0.53619 8.13804,0 9.89757,-0.25529 9.25,-1.34207 z m 170.20031,-0.65793 c -6.5236,-2.40721 -5.013,-2.40172 5.9493,0.0216 4.9222,1.0881 9.4137,1.97836 9.9813,1.97836 0.5675,0 -3.4512,-4.5 -8.9306,-10 -5.4794,-5.5 -10.2375,-10 -10.5736,-10 -0.6655,0 -5.9597,16.71404 -5.9391,18.75 0.01,0.89111 2.0943,1.22775 7.2627,1.1725 l 7.25,-0.0775 -5,-1.84499 z m 201.4225,-9.96429 c -0.043,-0.84464 -0.9078,-3.78571 -1.9225,-6.53571 l -1.845,-5 -0.078,6.53571 c -0.07,5.89489 0.1186,6.53572 1.9225,6.53572 1.1654,0 1.9677,-0.64083 1.9225,-1.53572 z m -210.3768,-15.36881 c 15.17,-18.54103 43.0263,-33.10873 76.2043,-39.8517 6.6174,-1.3449 11.25,-2.76802 11.25,-3.45598 0,-0.81305 1.7528,-1.0226 5.75,-0.68744 3.1625,0.26516 7.55,0.0836 9.75,-0.40351 l 4,-0.88563 -8.5,-2.41764 c -12.0477,-3.42669 -33.3346,-3.45376 -46.433,-0.0591 -29.2098,7.57035 -51.3973,24.98803 -59.5341,46.73574 -2.5565,6.83274 -2.5402,7.37705 0.2171,7.27521 1.49,-0.055 3.9543,-2.16608 7.2957,-6.25 z m -155.10558,-5.48524 c -11.68393,-23.64083 -39.30748,-36.5903 -82.19012,-38.5294 -10.00709,-0.45251 -10.25,-0.41183 -10.25,1.71644 0,1.75237 1.91231,3.15085 9.75,7.13022 l 9.75,4.95029 13.5,0.54118 c 11.23698,0.45045 12.66185,0.66963 8.5,1.30752 -14.30666,2.19276 -16.29119,0.47297 20.68607,17.9265 26.23293,12.38212 33.38735,15.38664 33.65934,14.13533 0.18997,-0.87398 -1.34241,-5.00412 -3.40529,-9.17808 z M 367.29635,596.4718 c -2.70105,-9.36191 -3.24863,-10.44932 -4.98446,-9.89839 -1.81325,0.5755 -1.90182,0.26819 -1.26242,-4.38076 0.57435,-4.17601 -0.014,-7.48558 -3.57125,-20.08921 -2.34239,-8.29924 -4.45402,-14.89439 -4.69251,-14.6559 -0.2385,0.23849 0.0462,2.59542 0.63269,5.2376 0.58648,2.64219 1.35175,6.71648 1.70059,9.05398 l 0.63427,4.25 h -5.17124 c -2.84417,0 -5.02123,0.35274 -4.83789,0.78387 0.18333,0.43113 4.83333,9.65185 10.33333,20.49049 8.25643,16.27063 10.3708,19.70827 12.12665,19.71613 2.11099,0.009 2.10431,-0.0679 -0.90776,-10.50781 z m 73.27843,-1.96854 c 1.30036,-6.86723 2.15738,-12.69277 1.90449,-12.94566 -0.53612,-0.53612 -24.25258,-5.34702 -24.70925,-5.01228 -0.43076,0.31574 19.17987,30.28635 19.87396,30.37304 0.31158,0.0389 1.63044,-5.54788 2.9308,-12.4151 z m 307.09548,-3.09269 c 2.699,-8.09942 4.9072,-14.86268 4.9072,-15.02947 0,-0.1668 -1.8912,0.364 -4.2027,1.17954 -3.1505,1.11157 -4.9404,1.22564 -7.1492,0.45564 -1.6206,-0.56494 -3.1044,-1.02716 -3.2973,-1.02716 -0.193,0 -0.3508,1.65644 -0.3508,3.68097 0,4.04146 4.1605,26.49184 4.7924,25.85997 0.2163,-0.21631 2.6015,-7.02008 5.3004,-15.11949 z m -326.0928,-20.12966 c 0,-0.16048 -2.025,-0.29179 -4.5,-0.29179 h -4.5 v 4.70821 4.70821 l 4.5,-4.41642 c 2.475,-2.42903 4.5,-4.54772 4.5,-4.70821 z m 96.92028,5.99853 c -2.14101,-5.63129 -8.0379,-14.11145 -13.22232,-19.01465 -8.42451,-7.96755 -19.05405,-12.79497 -34.69796,-15.75813 -4.675,-0.8855 -9.31399,-1.779 -10.30887,-1.98555 -1.43024,-0.29693 -1.74422,0.16455 -1.5,2.20464 0.26731,2.23301 4.27825,4.90589 29.80887,19.86458 16.225,9.50641 29.82636,17.31013 30.22525,17.34159 0.39889,0.0315 0.26165,-1.16215 -0.30497,-2.65248 z M 153.57746,553.71011 c 0,-3.82424 -4.01636,-38.07068 -4.52445,-38.57877 -0.26155,-0.26156 -0.47555,8.52445 -0.47555,19.52445 0,11 0.3,20.3 0.66667,20.66666 1.61272,1.61273 4.33333,0.60045 4.33333,-1.61234 z m 186,-11.22099 v -12.5 h 10.32394 10.32394 l 2.34988,-7.49285 c 1.29243,-4.12107 2.15916,-7.66103 1.92606,-7.86659 -0.2331,-0.20556 -4.47382,-2.44631 -9.42382,-4.97945 l -9,-4.60571 -0.29206,7.4723 c -0.16064,4.10977 -0.41932,7.4723 -0.57485,7.4723 -0.15553,0 -3.59042,-1.125 -7.63309,-2.5 -4.04267,-1.375 -7.40385,-2.5 -7.46929,-2.5 -0.0654,0 1.00787,9 2.38513,20 2.43507,19.44867 2.56723,20 4.79413,20 2.26457,0 2.29003,-0.13896 2.29003,-12.5 z m 371.5,5.04257 8,-1.33753 -11.25,-0.10252 c -10.6998,-0.0975 -11.25,-0.003 -11.25,1.94279 0,1.76503 0.4454,1.96237 3.25,1.44005 1.7875,-0.3329 6.85,-1.20716 11.25,-1.94279 z m -358.81689,-3.73007 c -0.31922,-0.79773 -0.55618,-0.56078 -0.60416,0.60417 -0.0434,1.05416 0.19293,1.64479 0.52522,1.3125 0.33229,-0.33229 0.36781,-1.1948 0.0789,-1.91667 z m 418.31689,-6.43893 c 11.4064,-2.51519 18.6509,-8.486 17.8201,-14.68702 -0.3161,-2.35879 -0.5428,-2.29371 -18.0701,5.18616 -15.8099,6.74699 -17.75,7.83159 -17.75,9.92307 0,2.26944 0.1927,2.32573 5.75,1.67961 3.1625,-0.36769 8.675,-1.31351 12.25,-2.10182 z m 25.6183,-0.35453 c 8.975,-4.06945 17.7503,-10.52016 25.3214,-18.61375 7.5895,-8.11315 18.0603,-23.71348 18.0603,-26.90774 0,-1.25597 0.6608,-2.53714 1.4684,-2.84705 2.0732,-0.79555 4.5316,-7.18227 4.5316,-11.77262 0,-3.08614 0.3723,-3.87788 1.8235,-3.87788 3.1387,0 10.7817,-26.82785 12.7488,-44.75 0.6721,-6.12327 0.6373,-6.25 -1.7173,-6.25 -2.2124,0 -2.804,1.21191 -7.4446,15.25 -5.0362,15.23511 -5.0443,15.25031 -8.2614,15.56602 -2.9001,0.2846 -3.1728,0.0858 -2.7433,-2 0.6898,-3.35021 1.7036,-9.72941 8.4333,-53.06602 l 1.8246,-11.75 h -2.2234 c -1.4794,0 -2.4146,0.76173 -2.7947,2.27629 -1.3336,5.31343 -14.6455,63.6175 -14.6455,64.14496 0,0.31831 -1.2393,0.57875 -2.754,0.57875 h -2.754 l -2.2799,14.25 c -1.2539,7.8375 -2.2646,17.21705 -2.246,20.84345 0.063,12.28262 -5.9484,24.37688 -16.6694,33.53607 -5.3802,4.59646 -5.5059,4.82237 -5.0302,9.04236 0.2683,2.38047 0.3023,4.32812 0.075,4.32812 -0.2268,0 -1.4841,-0.70221 -2.7939,-1.56046 -3.081,-2.0187 -6.1948,-0.29993 -6.7888,3.74725 -0.2271,1.54726 -0.256,2.81321 -0.064,2.81321 0.1918,0 3.3072,-1.34143 6.9231,-2.98096 z m -402.35287,-18.0891 2.42942,-9.56738 -17.84742,-22.89123 c -9.81609,-12.59018 -17.84743,-23.1237 -17.84743,-23.40782 0,-0.28412 3.49746,2.96035 7.77212,7.20995 5.02708,4.99759 8.559,7.72654 10,7.72654 1.22534,0 2.22788,-0.15133 2.22788,-0.33629 0,-0.18495 -2.25024,-10.38471 -5.00054,-22.66612 -2.7503,-12.28141 -4.76066,-22.56973 -4.46747,-22.86291 0.29319,-0.29319 2.54343,-0.40945 5.00054,-0.25835 2.45711,0.1511 4.43458,-0.0968 4.39438,-0.5508 -0.11507,-1.29978 -3.02122,-5.53129 -8.19291,-11.92936 -5.98342,-7.40228 -13.01722,-21.66076 -15.38629,-31.19013 -1.68256,-6.76792 -1.99151,-7.27275 -4.28396,-7 -2.24374,0.26696 -2.69329,1.1943 -4.89512,10.09778 l -2.42449,9.80381 -3.02752,-0.30381 c -2.90058,-0.29108 -3.33691,-1.01668 -10.40564,-17.30382 l -7.37811,-17 0.59267,6.5 c 1.03537,11.35504 3.3112,23.28069 6.01427,31.51553 3.47888,10.5983 13.48041,31.19465 22.23781,45.79474 3.89621,6.49565 6.71239,11.67065 6.25818,11.5 -0.45421,-0.17065 -9.2775,-9.86835 -19.60731,-21.55044 -10.32981,-11.6821 -18.91672,-21.10493 -19.08203,-20.93962 -0.80841,0.8084 14.28757,43.70911 15.55105,44.19395 0.80854,0.31027 2.80977,-0.77658 4.56828,-2.48101 1.72119,-1.66823 3.43792,-3.03315 3.81497,-3.03315 1.58291,0 5.84232,10.35005 5.5683,13.53055 -0.25453,2.95431 0.3005,3.79655 4.93207,7.48426 2.87038,2.28543 5.21887,4.34852 5.21887,4.58465 0,0.23613 -2.76245,-0.96515 -6.13879,-2.66952 -4.86752,-2.45712 -6.3117,-2.8225 -6.9738,-1.76439 -0.54228,0.86664 -0.15604,1.86029 1.10179,2.83445 1.66608,1.29033 1.80553,2.05911 0.99766,5.5 -1.58694,6.75909 -1.62406,6.71305 5.11042,6.33882 l 6.09728,-0.33882 15.11831,17.70107 c 8.31508,9.73559 15.20941,17.60999 15.32073,17.49866 0.11133,-0.11133 1.29566,-4.50774 2.63183,-9.76979 z m 552.64077,-41.1845 c -0.9365,-5.64001 -1.9123,-11.37751 -2.1683,-12.75 -0.2561,-1.37249 -0.5268,3.24206 -0.6017,10.25456 -0.1355,12.68429 -0.1243,12.75 2.1683,12.75 h 2.3045 z m -122.0226,-85.99544 -0.1163,-14.25 -1.8091,11.5 c -2.4426,15.52659 -2.439,17 0.042,17 1.9119,0 1.9948,-0.62788 1.8836,-14.25 z m -75.1641,-17.55549 c 0.7048,-0.44783 -5.4151,-2.40313 -14.5,-4.63269 -8.6457,-2.1218 -16.282,-4.06436 -16.9695,-4.31681 -0.8967,-0.32927 -1.25,0.98428 -1.25,4.648 v 5.10699 l 15.75,-0.0153 c 8.6625,-0.008 16.2988,-0.36401 16.9695,-0.79018 z m -4.907,-0.87762 c 0.7219,-0.28887 1.5844,-0.25335 1.9167,0.0789 0.3323,0.33229 -0.2584,0.56864 -1.3125,0.52522 -1.165,-0.048 -1.4019,-0.28494 -0.6042,-0.60416 z m -5,-1 c 0.7219,-0.28887 1.5844,-0.25335 1.9167,0.0789 0.3323,0.33229 -0.2584,0.56864 -1.3125,0.52522 -1.165,-0.048 -1.4019,-0.28494 -0.6042,-0.60416 z m 59.1875,0.0857 c 0,-4.22375 -4.0715,-43.80746 -4.5558,-44.29172 -0.2443,-0.24432 -0.4768,8.74329 -0.5166,19.97245 l -0.072,20.41667 -1.9497,-7.93877 c -1.0723,-4.36633 -2.1648,-8.15383 -2.4276,-8.41667 -0.2628,-0.26284 -0.4779,3.64711 -0.4779,8.68877 0,9.11111 0.015,9.16667 2.5,9.16667 2,0 2.5,0.5 2.5,2.5 0,2 0.5,2.5 2.5,2.5 2.025,0 2.5,-0.49351 2.5,-2.5974 z m -371,-7.9026 v -4.5 h -4.70821 -4.70821 l 4.41642,4.5 c 2.42903,2.475 4.54772,4.5 4.70821,4.5 0.16048,0 0.29179,-2.025 0.29179,-4.5 z m 46,-0.17905 c 0,-1.53672 -4.43835,-14.32095 -4.97186,-14.32095 -0.31801,0 -3.93067,3.375 -8.02814,7.5 l -7.44994,7.5 h 10.22497 c 5.62373,0 10.22497,-0.30557 10.22497,-0.67905 z m 234.9808,-7.40507 c 3.0144,-1.14571 5.9315,-2.36168 6.4824,-2.70215 0.5509,-0.34048 1.6845,-0.7023 2.5192,-0.80404 2.4031,-0.29295 33.0464,-11.71418 32.6074,-12.15327 -0.2173,-0.21727 -2.1576,0.13301 -4.3117,0.7784 -3.1898,0.9557 -5.0784,0.87579 -10.1781,-0.43069 -7.9531,-2.03748 -8.1,-2.02771 -8.1,0.53833 0,2.02809 0.3293,2.10803 6.169,1.49766 3.3929,-0.35463 5.9078,-0.38363 5.5886,-0.0644 -0.599,0.59905 -25.4773,7.62483 -27.2576,7.69772 -0.55,0.0225 -2.0125,-0.28511 -3.25,-0.68362 -1.7253,-0.55558 -2.25,-0.33453 -2.25,0.94786 0,1.34208 0.7735,1.59866 3.9159,1.29898 2.1537,-0.20539 3.676,0.0146 3.3829,0.48884 -0.2931,0.47425 -2.3927,0.66806 -4.6658,0.43068 -5.3822,-0.56204 -8.633,0.65011 -8.633,3.2191 0,2.54352 1.155,2.53493 7.9808,-0.0594 z m 46.4699,-10.70874 c -0.1117,-0.16107 -1.8338,0.48477 -3.8269,1.43521 -2.3172,1.10498 -3.6238,2.42426 -3.6238,3.65885 0,1.65768 0.5413,1.45468 3.8269,-1.43521 2.1047,-1.8513 3.7355,-3.49778 3.6238,-3.65885 z m -292.9877,-8.14727 c 0.96507,-1.56152 -5.31989,-7.85753 -9.08373,-9.09972 -4.03215,-1.33072 -10.02246,-0.20315 -16.51366,3.10841 -2.918,1.48865 -3.86561,2.57995 -3.86561,4.45176 v 2.47968 h 14.44098 c 7.94254,0 14.70245,-0.42306 15.02202,-0.94013 z m 27.23377,-0.30987 c -0.25845,-0.6875 -1.75686,-6.5375 -3.3298,-13 -2.29901,-9.44554 -3.20381,-11.75 -4.61344,-11.75 -2.19856,0 -2.19376,0.18331 0.33886,12.95136 2.71993,13.71241 2.44221,13.04864 5.45956,13.04864 1.67572,0 2.44597,-0.4489 2.14482,-1.25 z m -77.37864,-9.29673 c -2.53477,-4.9243 -4.77007,-9.14254 -4.96734,-9.37388 -0.19727,-0.23134 -1.49396,0.64594 -2.88154,1.9495 l -2.52286,2.3701 7.22272,7.27126 c 3.9725,3.99919 7.34309,7.15088 7.49021,7.00377 0.14711,-0.14712 -1.80642,-4.29646 -4.34119,-9.22075 z m 287.64937,-12.27782 c 2.1451,-7.48416 4.173,-12.68136 5.1634,-13.23305 1.1667,-0.6499 1.8306,-3.03954 2.3325,-8.39506 0.3858,-4.11761 1.561,-10.31274 2.6114,-13.76695 1.1143,-3.664 1.9614,-9.61317 2.0336,-14.28039 0.068,-4.4 0.3401,-7.1 0.6047,-6 0.8509,3.53763 2.0106,3.73133 3.1292,0.52265 0.9954,-2.85565 1.2901,-3.02569 3.3742,-1.94728 3.2944,1.70469 17.7835,12.14186 17.7835,12.81027 0,0.31029 -3.0375,3.67537 -6.75,7.47796 l -6.75,6.91378 10.4489,-7.82583 c 9.44,-7.07027 10.9259,-7.84726 15.3898,-8.04782 3.0412,-0.13664 5.9445,-0.96932 7.5511,-2.16576 2.5126,-1.87105 7,-10.68154 5.9667,-11.71483 -0.4768,-0.47676 -5.1015,-1.04062 -28.3565,-3.4573 -5.5,-0.57157 -11.6875,-1.30976 -13.75,-1.64042 l -3.75,-0.60122 v -15.4121 -15.4121 h -2.4638 c -2.4303,0 -2.4677,0.13233 -2.75,9.75 l -0.2862,9.75 -15,-55.15293 c -8.25,-30.33411 -15.1252,-55.03392 -15.2782,-54.88845 -0.5725,0.54421 13.8748,109.12396 14.7748,111.04138 0.5163,1.1 1.6182,10.74939 2.4488,21.44308 l 1.51,19.44308 -3.9597,21.05692 c -2.1779,11.58131 -4.1875,22.32379 -4.4658,23.87219 -0.4621,2.57093 -0.2712,2.78791 2.1996,2.5 2.551,-0.29726 2.9074,-1.01938 6.238,-12.63982 z m 54.652,10.20595 c 3.845,-1.89131 6.6997,-5.68053 7.8744,-10.45216 0.6035,-2.4513 -0.055,-2.22627 -14.1805,4.84212 -8.1474,4.0771 -15.0384,7.6548 -15.3134,7.95047 -0.275,0.29566 3.6163,0.31334 8.6473,0.0393 6.0792,-0.33116 10.4303,-1.12936 12.9722,-2.3797 z m -102.1195,-15.3814 c -6.5132,-2.40334 -7.5,-2.40334 -7.5,0 0,1.79493 0.6408,1.99205 6.25,1.9225 l 6.25,-0.0775 z m -179.47316,-39 c -3.85338,-15.125 -6.84785,-26.375 -6.6544,-25 0.19346,1.375 3.2263,16.675 6.73965,34 5.81659,28.68269 6.41174,30.91865 6.65439,25 0.21842,-5.32745 -0.99737,-11.4608 -6.73964,-34 z m -66.39815,21.29535 c -0.25509,-0.25508 -3.6509,0.56268 -7.54624,1.81726 -6.48148,2.0875 -7.08245,2.51184 -7.08245,5.00089 0,2.48713 0.62028,2.92689 7.25,5.13999 l 7.25,2.42016 0.29624,-6.95725 c 0.16293,-3.82649 0.0875,-7.16596 -0.16755,-7.42105 z m 356.53001,1.95465 c -0.029,-3.9875 -0.077,-7.39905 -0.1061,-7.58123 -0.029,-0.18218 -8.0401,1.97862 -17.8026,4.80177 -17.0929,4.94299 -17.7618,5.23374 -18.0686,7.85406 l -0.3187,2.72105 18.1747,-0.27283 18.1747,-0.27282 -0.053,-7.25 z m -321.1587,-8.92674 c -1.375,-0.22241 -5.51383,-1.06113 -9.19741,-1.86382 -8.77565,-1.91231 -9.80259,-1.85568 -9.80259,0.54056 0,1.88441 0.62127,1.99213 10.75,1.86382 5.9125,-0.0749 9.625,-0.31815 8.25,-0.54056 z m 310,-1.35489 c -9.3749,-2.35546 -9,-2.35678 -9,0.0316 0,1.84433 0.6421,1.99427 8.25,1.92638 l 8.25,-0.0736 -7.5,-1.8844 z m -8,0.1703 c 0,-0.47373 1.125,-0.64627 2.5,-0.38342 1.375,0.26285 2.5,0.65044 2.5,0.86133 0,0.21088 -1.125,0.38342 -2.5,0.38342 -1.375,0 -2.5,-0.3876 -2.5,-0.86133 z m -295,-8.13867 v -5 h -8 -8 v 5 5 h 8 8 z m 86.5,0.71474 c 1.1,-0.26551 -2.8375,-0.53494 -8.75,-0.59874 -10.67614,-0.1152 -10.75,-0.0997 -10.75,2.2546 v 2.37059 l 8.75,-1.77186 c 4.8125,-0.97452 9.65,-1.98909 10.75,-2.25459 z m -108.5,-26.17295 c 0,-0.023 -2.025,-0.0418 -4.5,-0.0418 h -4.5 v 4.45821 4.45821 l 4.5,-4.41641 c 2.475,-2.42903 4.5,-4.43522 4.5,-4.45821 z m -20,-3.04179 v -7.5 h -5 -5 v 7.5 7.5 h 5 5 z m 339.6484,1.03901 c -7.5559,-2.69388 -8.6484,-2.76437 -8.6484,-0.55806 0,1.81472 0.6325,2.01461 6.25,1.97516 l 6.25,-0.0439 z m -0.2868,-4.48274 c 4.8244,-1.11938 8.9841,-5.01762 10.4496,-9.79274 0.6181,-2.014 0.9693,-3.81637 0.7804,-4.00526 -0.1889,-0.18889 -5.9118,1.87436 -12.7175,4.58501 -11.0775,4.41203 -12.4073,5.20235 -12.6905,7.54258 -0.3067,2.5332 -0.1518,2.6134 5,2.59028 2.924,-0.0131 7.0541,-0.42706 9.178,-0.91987 z m 16.2784,-0.30627 c -0.2896,-0.6875 -1.0555,-3.1625 -1.702,-5.5 -1.6185,-5.85208 -2.5047,-5.32401 -2.0955,1.24864 0.2934,4.71149 0.6284,5.50136 2.3334,5.50136 1.2068,0 1.7834,-0.49224 1.4641,-1.25 z m 14.706,-0.20922 c 0.3079,-0.80257 -0.286,-3.84007 -1.32,-6.75 l -1.8799,-5.29078 -0.073,6.75 c -0.056,5.13789 0.2596,6.75 1.32,6.75 0.7661,0 1.645,-0.65665 1.9529,-1.45922 z m -334.82089,-19.93781 10.888,-4.37743 -10.09436,-5.06558 -10.09435,-5.06559 -2.50399,9.98586 c -2.2516,8.97934 -2.33159,9.93114 -0.79365,9.44301 0.94069,-0.29856 6.60994,-2.51268 12.59835,-4.92027 z m -35.12254,-14.41317 c -3.96039,-0.26321 -5.10186,0.10598 -7.53502,2.43709 -2.41372,2.31249 -2.86755,3.54461 -2.86755,7.78517 v 5.03788 l 7.53501,-7.47497 7.53501,-7.47497 z m 181.92863,5.44245 c 0.6428,-0.26415 -2.7687,-0.4381 -7.5812,-0.38655 -8.3113,0.089 -8.75,0.20367 -8.75,2.28648 v 2.19277 l 7.5812,-1.80621 c 4.1697,-0.99342 8.1072,-2.02234 8.75,-2.28649 z m -131.3312,-21.89423 c 0,-0.41909 -2.09681,-3.91529 -4.65958,-7.76934 l -4.65958,-7.00736 -4.83789,7.26934 c -2.66083,3.99814 -4.83902,7.49435 -4.84041,7.76935 -10e-4,0.275 4.27246,0.5 9.49746,0.5 5.225,0 9.5,-0.34289 9.5,-0.76199 z m 279,-9.7928 v -5.05479 l -4.75,0.30479 -4.75,0.30479 -0.1133,4.75 -0.1133,4.75 h 4.8633 4.8633 z m 20,-19.65342 c 0,-0.16048 -2.025,-0.29179 -4.5,-0.29179 h -4.5 v 4.70821 4.70821 l 4.5,-4.41642 c 2.475,-2.42903 4.5,-4.54772 4.5,-4.70821 z m -314,-0.79179 v -4.5 h -5 -5 v 4.5 4.5 h 5 5 z m 176,989.12498 c 0,-0.7562 0.2902,-2.8259 0.6448,-4.5992 l 0.6449,-3.2241 1.3401,3.8491 c 1.7583,5.0504 1.7231,5.3492 -0.6298,5.3492 -1.1,0 -2,-0.6187 -2,-1.375 z m 2.9847,-0.375 c -0.01,-0.4125 -0.4515,-1.425 -0.9847,-2.25 -0.7839,-1.213 -0.9723,-1.0694 -0.9847,0.75 -0.01,1.2375 0.4347,2.25 0.9847,2.25 0.55,0 0.9931,-0.3375 0.9847,-0.75 z M 164.73535,830.98912 c 0,-1.375 0.22698,-1.9375 0.50439,-1.25 0.27741,0.6875 0.27741,1.8125 0,2.5 -0.27741,0.6875 -0.50439,0.125 -0.50439,-1.25 z M 1023.032,543.53457 c -0.3825,-2.55081 -0.4704,-4.86284 -0.1954,-5.13784 0.275,-0.275 0.8129,1.58703 1.1954,4.13784 0.3826,2.55082 0.4705,4.86285 0.1955,5.13785 -0.275,0.275 -0.8129,-1.58703 -1.1955,-4.13785 z M 945.32746,358.32684 c 0.6875,-0.27741 1.8125,-0.27741 2.5,0 0.6875,0.27741 0.125,0.50439 -1.25,0.50439 -1.375,0 -1.9375,-0.22698 -1.25,-0.50439 z m 9,0 c 0.6875,-0.27741 1.8125,-0.27741 2.5,0 0.6875,0.27741 0.125,0.50439 -1.25,0.50439 -1.375,0 -1.9375,-0.22698 -1.25,-0.50439 z"
     id="path76"
     inkscape:connector-curvature="0" />
</svg>
