<?xml version="1.0" encoding="UTF-8" standalone="no"?>
<!-- Created with Inkscape (http://www.inkscape.org/) -->

<svg
   xmlns:dc="http://purl.org/dc/elements/1.1/"
   xmlns:cc="http://creativecommons.org/ns#"
   xmlns:rdf="http://www.w3.org/1999/02/22-rdf-syntax-ns#"
   xmlns:svg="http://www.w3.org/2000/svg"
   xmlns="http://www.w3.org/2000/svg"
   xmlns:sodipodi="http://sodipodi.sourceforge.net/DTD/sodipodi-0.dtd"
   xmlns:inkscape="http://www.inkscape.org/namespaces/inkscape"
   version="1.1"
   id="svg687"
   width="767"
   height="1280"
   viewBox="0 0 767 1280"
   sodipodi:docname="devil-311310_1280.svg"
   inkscape:version="0.92.1 r15371">
  <metadata
     id="metadata693">
    <rdf:RDF>
      <cc:Work
         rdf:about="">
        <dc:format>image/svg+xml</dc:format>
        <dc:type
           rdf:resource="http://purl.org/dc/dcmitype/StillImage" />
        <dc:title></dc:title>
      </cc:Work>
    </rdf:RDF>
  </metadata>
  <defs
     id="defs691" />
  <sodipodi:namedview
     pagecolor="#ffffff"
     bordercolor="#666666"
     borderopacity="1"
     objecttolerance="10"
     gridtolerance="10"
     guidetolerance="10"
     inkscape:pageopacity="0"
     inkscape:pageshadow="2"
     inkscape:window-width="1366"
     inkscape:window-height="692"
     id="namedview689"
     showgrid="false"
     inkscape:zoom="0.38828125"
     inkscape:cx="383.5"
     inkscape:cy="640"
     inkscape:window-x="0"
     inkscape:window-y="27"
     inkscape:window-maximized="1"
     inkscape:current-layer="svg687" />
  <path
     style="fill:#000000"
     d="m 306.25679,1278.562 c -8.30185,-2.5954 -28.10887,-14.2589 -36.03862,-21.2217 -1.77564,-1.5591 -4.58814,-3.8814 -6.25,-5.1608 -1.66186,-1.2793 -3.02156,-2.8558 -3.02156,-3.5032 0,-0.6475 -1.23995,-2.3475 -2.75545,-3.7779 -1.5155,-1.4304 -3.83187,-5.2539 -5.14748,-8.4968 -1.31561,-3.2428 -7.20497,-16.021 -13.08746,-28.396 -10.78999,-22.6989 -13.526,-29.0969 -16.60779,-38.8364 -0.9287,-2.935 -2.31507,-5.5768 -3.08082,-5.8707 -0.76576,-0.2938 -4.945,-5.7674 -9.28722,-12.1636 -4.34222,-6.3961 -10.66976,-14.9177 -14.0612,-18.9368 -3.76338,-4.4599 -7.10594,-9.7053 -8.57768,-13.4607 -1.32629,-3.3843 -7.0948,-14.962 -12.81893,-25.7283 -5.72412,-10.7663 -11.7466,-23.384 -13.38329,-28.0393 -6.22585,-17.7085 -20.55089,-53.6746 -26.75847,-67.18297 -3.55617,-7.7386 -7.87109,-18.6177 -9.58872,-24.1757 -3.41315,-11.0446 -19.30718,-51.4672 -20.83903,-52.9991 -1.85282,-1.8528 -5.903558,1.2568 -8.604988,6.6057 -4.269226,8.4533 -8.492193,14.4103 -11.457123,16.1617 -3.637465,2.1487 -15.065203,2.1451 -21.380534,-0.01 -3.603173,-1.2277 -5.556338,-2.7167 -7.870639,-6 -1.692997,-2.4016 -3.695319,-4.3668 -4.449603,-4.3668 -1.99337,0 -15.643245,-28.8714 -18.675739,-39.5018 -3.958856,-13.8778 -7.209285,-31.2497 -9.542209,-50.9982 -1.169501,-9.9 -3.035962,-21.375 -4.147692,-25.5 -1.111729,-4.125 -2.681984,-9.975 -3.489455,-13 -4.797259,-17.9718 -6.6596055,-36.1091 -6.7255675,-65.50001 -0.05277,-23.51157 0.371852,-28.46763 3.9839675,-46.5 2.876845,-14.36177 4.318317,-24.53946 4.335663,-30.6125 0.01512,-5.29284 -0.382636,-6.61594 -2.966217,-9.86696 C 9.1964405,645.52531 6.0396555,638.0888 2.8875395,625.43262 -0.03419346,613.70145 -0.05293546,613.43794 0.01638954,585.0635 c 0.07131,-29.18456 0.874253,-45.1423 2.89630196,-57.56088 1.42065,-8.72503 1.807921,-36.53668 0.703203,-50.5 -0.771583,-9.75259 -0.656562,-10.99827 1.61587,-17.5 l 2.446585,-7 5.2789845,0.29396 c 6.702938,0.37325 8.459392,1.38235 14.906684,8.564 5.900758,6.57287 12.452879,19.19232 14.008495,26.98052 0.567031,2.83883 1.727235,19.11152 2.578232,36.16152 0.850998,17.05 2.188925,35.10346 2.973173,40.11879 1.62827,10.41294 7.515009,29.49154 11.379767,36.88121 l 2.614972,5 0.679265,-26 c 1.442386,-55.20973 4.23125,-110.9894 6.399725,-128 1.157579,-9.08062 4.586436,-28.94846 8.025123,-46.5 1.215596,-6.20457 12.030407,-38.20255 16.290504,-48.19901 2.331014,-5.4698 4.133336,-11.29883 4.133336,-13.36792 0,-2.13316 -1.674345,-7.3874 -4,-12.55236 -2.2,-4.8859 -4,-9.27222 -4,-9.74739 0,-0.47516 -3.144828,-5.08705 -6.988506,-10.24863 -10.520764,-14.12507 -20.068039,-33.9953 -25.473667,-53.01398 -2.443718,-8.59776 -7.662922,-24.57276 -11.59823,-35.5 C 25.320186,169.044 20.338082,152.67452 14.491147,123.50562 7.2397195,87.330062 5.7964585,60.739902 9.0945195,24.079982 10.533358,8.0864422 10.851171,6.5013222 12.961622,4.7923822 c 2.290485,-1.85473 2.307563,-1.84864 4.392207,1.56596 1.15103,1.88536 4.223836,6.0575098 6.828459,9.2714498 2.604623,3.21394 5.385626,7.75101 6.180006,10.08239 0.79438,2.33138 3.458205,7.06365 5.919611,10.51615 2.461406,3.45251 5.646405,8.9287 7.077776,12.16931 1.628306,3.68648 5.126294,8.5714 9.344711,13.04983 3.70822,3.93679 10.002103,12.37708 13.986407,18.75622 3.984305,6.37913 11.184305,15.96961 16,21.312178 4.815696,5.34256 10.640235,12.02585 12.943419,14.85175 2.303184,2.8259 5.267922,6.263 6.588302,7.638 1.32038,1.375 2.97185,3.94754 3.66993,5.71675 0.69809,1.76921 2.13475,3.49144 3.19259,3.82719 1.05783,0.33574 5.31743,4.5132 9.46577,9.28325 7.84174,9.01698 21.74815,22.25877 36.37597,34.63746 12.54768,10.6184 38.21238,30.5751 40.51983,31.50794 1.1,0.44471 3.06047,2.25446 4.35659,4.02167 2.02975,2.76747 2.78368,3.12769 5.43595,2.59723 5.5447,-1.10894 19.01429,-9.50502 29.16505,-18.17962 10.99273,-9.39414 24.73644,-16.82417 48.59469,-26.27092 17.8152,-7.054 20.15638,-7.6165 52.47331,-12.60754 15.96408,-2.4655 30.81408,-5.10144 33,-5.85766 5.09764,-1.76353 6.98317,-5.04828 8.71125,-15.17575 1.61203,-9.44739 0.84311,-23.97728 -1.73889,-32.85905 -3.33766,-11.481158 -10.66586,-30.180178 -12.6628,-32.311078 -1.11853,-1.19357 -6.0347,-3.66857 -10.92481,-5.5 -4.89011,-1.83143 -8.89544,-3.79458 -8.90072,-4.36256 -0.0113,-1.21633 12.61435,-0.78715 18.10983,0.61559 5.29149,1.35067 7.87311,3.7861 14.65843,13.82836 4.28966,6.34869 6.28935,10.35425 6.77032,13.56159 0.87196,5.81465 2.04107,6.53006 2.92978,1.79282 0.79538,-4.23972 7.2354,-15.73071 11.6058,-20.70831 1.61792,-1.84272 4.76193,-4.07871 6.98668,-4.96888 4.94002,-1.9766 21.92954,-3.39136 21.92954,-1.82613 0,0.58402 -1.7577,1.35881 -3.90599,1.72176 -4.49376,0.75922 -17.71552,9.08893 -21.42564,13.49816 -3.03229,3.60367 -5.79207,10.76152 -9.72229,25.216028 -3.25017,11.95345 -3.43952,15.00648 -1.56916,25.3017 2.89218,15.91977 7.15632,18.866 32.62308,22.54031 19.56952,2.82346 45.44349,9.08801 66,15.97976 6.80199,2.28043 26.39322,11.88626 33.33981,16.34693 2.8381,1.82246 7.86019,5.63564 11.16019,8.47374 3.3,2.83811 9.39133,6.93273 13.53629,9.09916 4.14496,2.16644 9.26934,5.31623 11.3875,6.99954 2.11817,1.68331 4.21005,3.06056 4.64861,3.06056 2.7797,0 7.17934,-2.98385 13.82433,-9.37568 4.1818,-4.02248 9.71064,-8.73441 12.28631,-10.47094 2.57568,-1.73653 7.01526,-5.83873 9.86574,-9.116 3.15541,-3.62785 6.50867,-6.39628 8.57251,-7.07741 2.10714,-0.69542 5.56347,-3.59142 9.13426,-7.65344 3.74965,-4.26547 7.52266,-7.38262 10.86516,-8.97647 3.64763,-1.73934 6.66818,-4.36293 10.5,-9.12008 2.95861,-3.67308 11.51178,-13.24475 19.00705,-21.27038 7.49527,-8.02564 14.85492,-16.536 16.35477,-18.91193 1.49985,-2.37592 6.39696,-8.41661 10.88246,-13.423768 14.85833,-16.5863 21.02785,-25.05521 35.69043,-48.99236 3.34027,-5.45311 6.89652,-9.89781 9.20127,-11.5 3.00685,-2.09028 5.02838,-5.20636 10.12786,-15.61154 3.50415,-7.15 7.81828,-14.9667898 9.58697,-17.3706298 2.70625,-3.67810998 3.42698,-4.15345998 4.54864,-3 6.05551,6.22717 7.21333,60.8124198 1.9699,92.8706298 -4.20182,25.689778 -9.33463,48.996508 -17.06773,77.499998 -6.30886,23.25384 -10.94283,36.82013 -21.69035,63.5 -2.99103,7.425 -5.98886,15.975 -6.66183,19 -1.80803,8.127 -4.50735,14.6787 -13.59608,33 -4.50187,9.075 -9.47462,19.425 -11.05054,23 -1.57593,3.575 -5.46592,10.37779 -8.64443,15.1173 -5.10352,7.60993 -5.7791,9.19705 -5.7791,13.57657 0,5.73282 3.83332,20.07263 11.44294,42.80613 5.55719,16.60194 6.18874,19.41968 12.01137,53.59015 7.99789,46.93613 8.42454,52.27356 9.20524,115.15813 0.54759,44.1086 0.90932,53.75172 2.0163,53.75172 1.50885,0 7.27474,-8.55265 9.73413,-14.4388 3.89077,-9.31192 6.73127,-31.57274 8.62087,-67.5612 1.75676,-33.45835 3.75491,-42.55893 12.91032,-58.79999 6.49736,-11.52587 7.8086,-12.65183 14.7649,-12.67864 9.40666,-0.0363 9.27605,-0.48976 10.38847,36.0703 0.71045,23.34953 1.47478,34.20983 3.12536,44.40833 3.03701,18.76481 3.81845,68.9447 1.23026,79 -6.0385,23.45994 -9.63468,33.27285 -14.70888,40.13607 -1.84513,2.49567 -1.9729,3.7629 -1.46692,14.54886 0.30483,6.49829 1.48103,16.00321 2.61377,21.12205 4.59872,20.78158 5.43107,30.25021 5.52352,62.83374 0.0782,27.54949 -0.10119,31.35509 -1.55522,32.99999 -0.90396,1.0226 -2.40251,5.2343 -3.33011,9.3593 -0.9276,4.125 -2.80324,11.2548 -4.16808,15.8441 -1.44872,4.8713 -2.88399,13.1953 -3.4485,20 -2.20966,26.6356 -4.2826,38.9969 -8.91404,53.1559 -0.98949,3.025 -2.34803,8.2 -3.01897,11.5 -2.7116,13.3368 -13.9735,33.7471 -23.24028,42.1191 -5.00469,4.5215 -15.51016,9.3809 -20.28023,9.3809 -5.03626,0 -7.07858,-1.3721 -10.88587,-7.3136 -1.82789,-2.8525 -5.20245,-7.4364 -7.49903,-10.1864 -2.29658,-2.75 -4.43339,-6.2375 -4.74846,-7.75 -0.65908,-3.1639 -4.32286,-3.969 -4.32286,-0.95 0,0.99 -0.41494,2.2275 -0.92208,2.75 -0.50715,0.5225 -2.79722,6.0653 -5.08905,12.3172 -2.29183,6.252 -7.54588,19.527 -11.67565,29.5 -13.06801,31.558 -19.4503,47.82897 -22.86481,58.29147 -3.76002,11.5213 -11.57011,29.0921 -30.19635,67.9344 -7.09651,14.7988 -13.74035,28.8541 -14.76408,31.2341 -1.21512,2.8249 -4.4562,6.6438 -9.33554,11 -6.18526,5.5221 -8.06119,7.9571 -10.87793,14.12 -1.87205,4.0959 -6.56708,12.2985 -10.4334,18.228 -5.15583,7.9071 -7.76797,13.1558 -9.79934,19.6904 -4.45483,14.3305 -15.35506,34.4948 -31.39328,58.0743 -11.56432,17.002 -25.52174,29.4111 -37.96163,33.7507 -4.22297,1.4732 -8.06729,1.7852 -20.68686,1.6793 -14.01337,-0.1177 -16.65094,-0.436 -27.5,-3.319 -13.35952,-3.5501 -21.21583,-3.563 -29,-0.048 -2.7011,1.2198 -7.73435,2.0163 -15.5,2.4528 -17.62233,0.9905 -29.27134,2.4943 -31.71482,4.094 -2.936,1.9222 -29.83166,1.9269 -35.975,0.01 z m 109.18982,-21.5879 c 31.2803,-0.9969 50.89699,-3.0227 59.14159,-6.1074 9.89074,-3.7006 24.459,-22.704 30.03115,-39.1739 1.31535,-3.8878 3.72708,-9.0851 5.3594,-11.5494 1.63232,-2.4644 2.97037,-4.966 2.97344,-5.5592 0.0224,-4.3286 2.79333,-9.3908 8.41475,-15.3725 7.31472,-7.7837 8.9148,-10.5876 10.53899,-18.4684 0.96777,-4.6957 1.70497,-6.0299 3.98285,-7.2078 2.38956,-1.2357 2.86824,-2.205 3.29807,-6.6783 0.41045,-4.2716 1.08287,-5.7511 3.66065,-8.0544 3.46549,-3.0964 5.09612,-6.4863 5.10469,-10.6123 0.009,-4.5348 1.96168,-10.0317 3.68188,-10.367 1.23424,-0.2406 2.43385,-3.9663 4.93205,-15.3179 8.42368,-38.2765 8.41546,-56.8135 -0.0398,-89.7723 -3.58185,-13.96197 -4.9634,-17.72767 -6.50385,-17.72767 -0.46957,0 -1.64387,-2.9189 -2.60955,-6.4864 -1.54544,-5.7093 -2.57704,-7.3125 -8.61104,-13.3825 -5.96174,-5.9973 -6.85527,-7.3719 -6.85527,-10.5458 0,-4.6306 2.27034,-10.1244 4.72731,-11.4394 1.04314,-0.5582 5.00854,-1.7367 8.812,-2.6188 7.3327,-1.7006 29.75215,-8.7715 35.21069,-11.1053 2.03339,-0.8693 3.25,-2.0984 3.25,-3.2832 0,-2.4163 1.64978,-3.7258 5.81757,-4.6174 1.82466,-0.3904 3.55215,-1.3211 3.83887,-2.0683 0.28671,-0.7472 2.84381,-2.8297 5.68243,-4.6278 6.16996,-3.9084 10.648,-7.8692 24.8553,-21.9844 10.65329,-10.5843 18.75082,-21.491 21.19314,-28.5455 0.7005,-2.0233 2.13742,-4.155 3.19316,-4.737 2.69943,-1.4882 3.38666,-2.6578 3.40422,-5.7939 0.008,-1.5046 1.63817,-5.7796 3.62167,-9.5 3.40851,-6.3932 3.57298,-7.1317 2.99797,-13.461 -0.79294,-8.7281 -3.1793,-18.8933 -5.53402,-23.5733 -1.03219,-2.0515 -2.18883,-5.9741 -2.5703,-8.7168 -0.84993,-6.111 -2.65555,-9.7454 -6.57793,-13.2402 -2.42316,-2.1591 -3.82675,-2.6198 -7.32578,-2.4046 -3.35556,0.2063 -4.94547,-0.2647 -7.07435,-2.0959 -2.64776,-2.2775 -2.74729,-2.7189 -2.78112,-12.3324 -0.0244,-6.9457 0.42129,-10.8759 1.46923,-12.9553 2.37445,-4.7114 3.02398,-9.48481 1.29062,-9.48481 -2.31201,0 -4.7072,5.77631 -6.537,15.76501 -1.8969,10.3549 -1.45584,9.7204 -17.73552,25.5134 -11.36715,11.0273 -28.3595,33.7535 -33.74183,45.1275 -3.71654,7.8538 -5.32698,10.0136 -11.80805,15.8358 -4.12752,3.708 -8.62313,7.167 -9.99024,7.6868 -1.36712,0.5198 -10.2937,1.8839 -19.83685,3.0315 -24.68734,2.9685 -29.67499,3.9503 -31.2115,6.144 -0.71952,1.0273 -3.21282,2.5397 -5.54066,3.361 -2.32785,0.8214 -5.99902,3.0055 -8.15816,4.8536 -4.51164,3.8618 -10.69126,6.0331 -14.47068,5.0845 -1.93257,-0.485 -3.21271,-2.0251 -4.95152,-5.9568 -2.97798,-6.7338 -9.28397,-13.5931 -16.06127,-17.4707 -3.00424,-1.7188 -6.16125,-4.5034 -7.30652,-6.4445 -1.52805,-2.5898 -3.06252,-3.682 -6.33375,-4.508 -12.34988,-3.1187 -22.72673,-8.1172 -24.76759,-11.9305 -1.94875,-3.6413 -4.13618,-5.0337 -11.22377,-7.1445 -6.75841,-2.0127 -8.16007,-2.0697 -11.99117,-0.487 -2.83902,1.1728 0.14307,-8.6844 3.01353,-9.9611 2.4569,-1.0928 2.48964,-0.8074 -1.21788,-10.6174 -4.79064,-12.6758 -4.37348,-29.2136 0.84303,-33.4202 1.88265,-1.5182 2.52672,-2.9839 2.52672,-5.75 v -3.7124 h 5.25 5.25 l -0.32503,15.7514 c -0.17877,8.6632 -0.0302,17.7203 0.3301,20.1269 0.92185,6.157 4.14236,9.1244 9.90242,9.1244 6.177,0 9.32483,-1.6589 10.62537,-5.5995 0.59989,-1.8177 1.92118,-3.5685 2.9362,-3.8906 1.01501,-0.3222 3.78189,-3.5579 6.14861,-7.1905 3.72921,-5.7238 8.67134,-10.3034 11.13233,-10.3156 0.4125,0 0.75,2.4798 0.75,5.5153 v 5.519 l 2.75,-0.6813 c 8.23233,-2.0395 41.68038,-17.7874 53.18527,-25.0405 3.0606,-1.9295 8.71473,-6.5307 12.56473,-10.2249 3.85,-3.6942 9.14448,-8.41181 11.76552,-10.48366 2.62103,-2.07186 5.40164,-4.96867 6.17912,-6.43735 0.77749,-1.46869 2.79813,-3.57034 4.4903,-4.67034 1.69218,-1.1 3.3221,-2.76448 3.62203,-3.69885 0.29993,-0.93436 1.37202,-1.96123 2.38242,-2.28191 1.01039,-0.32069 3.00426,-2.34679 4.43081,-4.50246 2.00125,-3.02409 3.45444,-4.07451 6.36176,-4.59847 5.93316,-1.06929 6.5722,-2.01321 5.82632,-8.60592 -0.69413,-6.1353 0.4275,-9.81239 2.99308,-9.81239 0.81455,0 2.22348,-1.557 3.13096,-3.46001 0.9147,-1.91814 3.56014,-4.66741 5.93648,-6.16949 2.41336,-1.52547 4.41645,-3.61864 4.58386,-4.78999 0.17336,-1.21299 1.75675,-2.80456 3.79734,-3.81694 2.0484,-1.01626 4.03027,-3.01241 4.77856,-4.81296 0.80031,-1.92575 2.55147,-3.60839 4.68162,-4.49842 1.87168,-0.78204 3.68936,-1.88514 4.03929,-2.45133 0.34992,-0.56619 2.4871,-1.97368 4.74927,-3.12776 2.26217,-1.15407 4.81914,-2.89273 5.68215,-3.86368 1.15257,-1.29673 4.22375,-2.04325 11.56911,-2.81212 17.46106,-1.82772 29.20692,-7.18832 33.2995,-15.1973 1.92029,-3.75792 2.21903,-5.57189 1.81156,-11 -0.26836,-3.575 -0.99534,-15.94221 -1.61551,-27.48269 -0.62018,-11.54047 -1.28423,-21.13932 -1.47568,-21.33077 -0.7802,-0.7802 -6.51987,6.2477 -6.51987,7.98321 0,1.03022 -1.03927,2.34665 -2.30949,2.9254 -1.27022,0.57875 -3.40145,2.8191 -4.73607,4.97856 -1.33462,2.15946 -2.90165,3.92629 -3.4823,3.92629 -0.58065,0 -3.06192,2.05443 -5.51393,4.56539 -2.45202,2.51097 -6.637,6.22347 -9.29996,8.25 -2.66296,2.02654 -5.66757,5.28971 -6.67691,7.25151 -2.30719,4.48435 -4.1449,6.01463 -8.2251,6.84912 -2.27214,0.4647 -4.03689,1.86021 -5.9447,4.70086 l -2.71327,4.03996 -10.79913,1.71812 c -12.43598,1.97854 -22.08667,4.88347 -25.72098,7.74222 -1.39151,1.09456 -3.07004,3.79252 -3.73005,5.99546 -0.66002,2.20293 -2.13335,4.48655 -3.27407,5.0747 -1.14072,0.58816 -2.97404,2.05296 -4.07404,3.25512 -2.00279,2.18879 -10.70072,4.71422 -20.93145,6.07741 -3.50391,0.46688 -5.67497,1.43827 -7.5,3.35568 -1.4127,1.48422 -5.32759,4.80457 -8.69975,7.37855 -3.37216,2.57398 -8.84059,7.63678 -12.15206,11.25067 -3.31147,3.61389 -7.81129,7.86769 -9.99959,9.45289 -2.1883,1.5852 -5.36811,5.31056 -7.06625,8.27859 -3.91331,6.83975 -5.85769,8.57029 -11.55634,10.28533 l -4.59456,1.382 0.0692,-4.20217 c 0.0648,-3.93615 0.51307,-4.582 7.08093,-10.20217 3.85645,-3.3 7.64267,-7.42975 8.41382,-9.17722 0.77114,-1.74747 2.42223,-3.48669 3.66907,-3.86494 3.19385,-0.96888 6.64164,-4.3339 8.84754,-8.63513 1.03725,-2.02251 2.79482,-3.96577 3.90572,-4.31835 1.15148,-0.36547 3.11947,-2.96555 4.5777,-6.04801 2.3899,-5.05182 6.76266,-9.45635 9.38815,-9.45635 1.73072,0 6.04788,-5.04924 6.04788,-7.07344 0,-2.47919 4.4953,-5.76024 8.85145,-6.46055 9.75529,-1.56828 13.64654,-2.91614 17.04494,-5.90407 8.83578,-7.76852 22.57927,-14.57521 35.50758,-17.58571 10.21251,-2.3781 13.36595,-3.96512 21.36198,-10.75083 13.43801,-11.40395 19.57665,-17.98408 24.93228,-26.7254 3.03276,-4.95 7.91905,-11.25638 10.85841,-14.01417 4.40227,-4.13033 5.47057,-5.80378 6.06061,-9.49371 0.67444,-4.21771 2.18215,-6.30945 7.77126,-10.78155 0.88632,-0.70918 1.61149,-2.38085 1.61149,-3.71481 0,-1.39773 0.84303,-2.87657 1.98965,-3.49022 1.09431,-0.58566 2.66445,-2.36976 3.48921,-3.96467 0.82477,-1.59491 3.81129,-5.51907 6.63673,-8.72035 2.82544,-3.20129 5.74143,-7.23539 6.47998,-8.96467 0.73855,-1.72929 2.49871,-3.98617 3.91148,-5.01529 2.15001,-1.56618 2.79345,-3.25398 3.94797,-10.35585 0.75863,-4.66659 3.01353,-15.15216 5.0109,-23.30126 6.7097,-27.37516 6.90582,-45.34485 0.98424,-90.18345 -2.71664,-20.57057 -4.94982,-28.41162 -9.51549,-33.41038 -3.51392,-3.84725 -2.86175,-2.07422 -4.26298,-11.58962 l -1.17807,-8 -3.74681,-0.31037 c -2.76609,-0.22912 -3.74682,0.0733 -3.74682,1.15539 0,0.80616 -1.52072,3.28593 -3.37937,5.5106 -1.85866,2.22466 -3.68293,5.66295 -4.05395,7.64063 -0.45483,2.42444 -1.44937,3.94881 -3.05304,4.67949 -1.30815,0.59603 -2.8102,2.26283 -3.33789,3.70398 -0.52768,1.44115 -1.72031,4.75778 -2.65029,7.37028 -0.92998,2.6125 -2.26933,4.75 -2.97632,4.75 -0.707,0 -4.2164,2.26267 -7.79868,5.02815 -4.98195,3.84601 -7.57748,6.85978 -11.03995,12.81886 -5.82111,10.01845 -13.7047,18.60962 -20.00792,21.8037 -6.60592,3.34747 -20.97381,5.11455 -29.29134,3.60249 -13.81241,-2.511 -19.55701,-4.21164 -21.23774,-6.28725 -0.94178,-1.16305 -4.4035,-3.54367 -7.69272,-5.29029 -3.84236,-2.04034 -6.84862,-4.52228 -8.40894,-6.94236 -1.91954,-2.97722 -3.24449,-3.89718 -6.3215,-4.38921 -3.22885,-0.51631 -4.55751,-1.5221 -7.78868,-5.89598 -2.14266,-2.90041 -6.11368,-7.14366 -8.8245,-9.42946 -3.31732,-2.7972 -5.26134,-5.35958 -5.94601,-7.83732 -2.54603,-9.21377 -7.04737,-20.60302 -8.58816,-21.72967 -0.93181,-0.68136 -1.93456,-2.97422 -2.22833,-5.09525 -0.29377,-2.12102 -0.92217,-4.75641 -1.39644,-5.85641 -3.58479,-8.31439 -4.43427,-38.72285 -1.63953,-58.68957 1.65989,-11.85894 2.13464,-13.37601 7.25265,-23.17619 3.13317,-5.99953 6.95958,-11.78879 8.94257,-13.52988 1.90634,-1.67379 3.46608,-3.66226 3.46608,-4.41882 0,-0.75656 0.9,-2.19005 2,-3.18554 1.1,-0.99549 2,-2.36637 2,-3.04641 0,-0.68004 1.74737,-1.93559 3.88304,-2.79011 2.75382,-1.10186 4.19273,-2.44208 4.94798,-4.60858 0.91541,-2.62597 1.55899,-3.0549 4.58363,-3.0549 2.68802,0 4.34494,-0.82625 7.01868,-3.5 1.925,-1.925 4.1809,-3.5 5.0131,-3.5 0.8322,0 3.248,-0.69417 5.36844,-1.5426 6.5836,-2.63424 9.46328,-12.05206 4.93513,-16.14006 -6.70833,-6.05626 -28.15774,-18.31666 -32.04751,-18.31823 -1.25558,-5e-4 -3.87167,-1.72154 -6.08496,-4.00308 -6.26589,-6.45911 -17.26482,-11.97333 -25.67503,-12.87196 -3.90418,-0.41716 -7.40091,-1.22794 -7.77051,-1.80174 -3.03265,-4.70818 -23.70667,-9.00356 -57.17199,-11.87846 -20.85707,-1.79177 -32.8075,-1.78002 -50.79436,0.0499 -17.92717,1.82388 -54.90948,7.16549 -62.20564,8.9848 -3.025,0.75429 -7.3,1.832 -9.5,2.39491 -2.2,0.56291 -5.67303,1.28933 -7.71785,1.61427 -2.04482,0.32494 -4.42857,1.3015 -5.29721,2.17015 -0.86864,0.86864 -4.82061,2.79822 -8.78215,4.28794 -3.96153,1.48973 -11.47779,5.53292 -16.70279,8.98488 -10.74087,7.09607 -20.11651,12.00885 -27.58799,14.45593 -4.03487,1.32152 -5.48373,2.41181 -7,5.26759 -1.38044,2.59998 -3.16308,4.09061 -6.41201,5.36169 -3.79154,1.48336 -4.44525,2.13235 -4.15222,4.12229 0.19128,1.29897 0.41628,2.42198 0.5,2.49559 4.95017,4.35224 24.31637,18.03326 28.25426,19.9599 3.59829,1.76047 6.53334,4.1603 8.58898,7.02272 1.71751,2.3916 3.93399,4.60584 4.92551,4.92053 2.84064,0.90159 9.77695,11.41375 11.52273,17.46302 0.873,3.025 2.47451,6.46968 3.55892,7.65484 2.73966,2.99421 3.5508,7.41799 5.28832,28.84131 3.02487,37.29608 1.139,57.59021 -5.8941,63.42717 -0.84671,0.7027 -1.80008,2.91993 -2.11859,4.92716 -1.7814,11.22619 -2.54903,12.71916 -10.81441,21.03285 -2.17934,2.19208 -15.81728,14.92284 -19.84589,18.52577 -1.78904,1.6 -7.41247,4.5764 -12.4965,6.61422 -5.08403,2.03782 -10.80638,5.07718 -12.71632,6.75413 -7.41618,6.51149 -32.40977,9.31725 -43.10069,4.83843 -2.43642,-1.0207 -5.17001,-3.32535 -6.99315,-5.89581 -1.64623,-2.32104 -8.02586,-10.11093 -14.17694,-17.31087 -6.15108,-7.19993 -15.07473,-18.22493 -19.83032,-24.5 -4.75559,-6.27506 -9.94674,-12.44122 -11.53589,-13.70258 -1.83997,-1.46046 -3.13532,-3.63959 -3.5666,-6 -0.4152,-2.27243 -1.9773,-4.98276 -4.03717,-7.00476 -1.84796,-1.81395 -3.35993,-3.72645 -3.35993,-4.24998 0,-0.52352 -0.41066,-0.95186 -0.91258,-0.95186 -0.50191,0 -2.1384,3.2625 -3.63663,7.25 -1.498235,3.9875 -3.536836,8.1516 -4.530226,9.25356 -1.158101,1.28468 -2.534424,6.12856 -3.835843,13.5 -1.116325,6.32304 -2.699178,13.52144 -3.517451,15.99644 -0.818274,2.475 -2.518158,11.25 -3.77752,19.5 -1.926061,12.61749 -2.28975,18.97764 -2.28975,40.04277 v 25.04277 l 2.682338,5.1691 c 1.814222,3.49617 3.206902,8.66059 4.303152,15.95723 2.728727,18.1624 3.428979,20.85915 6.05763,23.32864 1.351284,1.26946 2.45688,2.92702 2.45688,3.68346 0,2.56089 2.86353,6.93181 12.74051,19.44722 10.62256,13.46017 24.18719,33.08104 28.7936,41.64918 1.57319,2.9262 3.6722,5.75486 4.66447,6.28591 0.99226,0.53104 2.89044,3.08687 4.21816,5.67963 1.39797,2.7299 5.71167,7.73981 10.24865,11.9027 20.26425,18.59336 18.07571,17.31039 36.33461,21.30005 14.65007,3.20111 15.84941,3.72786 17.78392,7.81059 1.37862,2.90956 2.59295,3.87476 6.17525,4.90833 2.70172,0.77951 6.08822,2.88537 8.59256,5.34319 3.53186,3.46626 5.01444,4.18116 10.18732,4.91234 7.16641,1.01297 9.89202,2.29915 10.77627,5.08517 0.38524,1.21377 2.77915,2.99166 5.86701,4.35726 6.32231,2.79603 11.90242,9.01542 17.26528,19.24328 2.11881,4.04093 4.54469,7.57316 5.39083,7.8494 0.84614,0.27625 3.23104,2.52715 5.29977,5.00202 2.06873,2.47487 4.34544,4.49976 5.05934,4.49976 0.71391,0 3.80832,2.6318 6.87649,5.84845 3.88813,4.0763 5.7887,6.96904 6.27225,9.54663 0.38158,2.034 0.46341,3.92856 0.18183,4.21013 -0.92666,0.92666 -7.13333,-2.22204 -12.94024,-6.5647 -3.87591,-2.89859 -6.07387,-5.37704 -6.8476,-7.72147 -0.70974,-2.15051 -2.13908,-3.88015 -3.78989,-4.5861 -1.45771,-0.62338 -6.92539,-5.44647 -12.15039,-10.71797 -10.33617,-10.42816 -16.63499,-14.38192 -28.5,-17.88939 -3.97975,-1.17648 -7.49136,-2.86171 -8.13882,-3.90584 -0.62635,-1.0101 -3.10135,-2.42407 -5.5,-3.14216 -3.07409,-0.9203 -6.16776,-3.1385 -10.48263,-7.51618 -5.4576,-5.53706 -6.83749,-6.38727 -12.7241,-7.83994 -11.79565,-2.91086 -34.05515,-14.98765 -42.15445,-22.8707 -2.75,-2.67657 -7.925,-7.25324 -11.5,-10.17037 -3.575,-2.91713 -8.4685,-8.12102 -10.87445,-11.5642 -2.40594,-3.44318 -5.33094,-6.63468 -6.5,-7.09222 -3.40652,-1.33326 -6.62555,-4.91485 -6.62555,-7.3718 0,-1.24845 -0.61576,-3.11202 -1.36836,-4.14126 -1.31628,-1.80012 -1.41605,-1.78227 -2.62083,0.4689 -0.927,1.73211 -1.20597,9.24659 -1.07355,28.91731 0.15654,23.25385 0.40596,27.09037 1.99477,30.68212 2.35373,5.32101 6.5741,8.23593 15.09941,10.42885 3.79082,0.97509 7.53352,2.41402 8.31713,3.19762 0.7836,0.7836 6.93996,2.64568 13.6808,4.13794 14.12529,3.12701 19.81874,5.99008 21.39917,10.76103 0.76988,2.32407 1.99046,3.54143 4.33646,4.32499 1.79575,0.59979 4.08483,2.43598 5.08685,4.08043 1.00202,1.64444 3.08332,3.66218 4.62512,4.48387 1.62062,0.86369 3.56401,3.26873 4.60651,5.70078 1.31545,3.06883 2.91151,4.77221 5.90018,6.29691 4.27224,2.17954 6.01634,5.08663 6.01634,10.02813 0,2.48294 -0.46894,2.97756 -3.33228,3.51472 -3.43638,0.64467 -26.93613,-0.95384 -36.66772,-2.49422 -11.51799,-1.82316 -14,-2.03814 -14,-1.21262 0,1.87007 6.1623,3.42423 20.47969,5.16505 8.26117,1.00446 18.84531,2.12283 23.52031,2.48526 13.05906,1.01242 13.95061,1.39787 25.5,11.02426 2.93544,2.44668 4.22831,3.69853 11.64425,11.27475 2.00435,2.04765 3.94717,4.73551 4.31739,5.97301 0.37023,1.2375 1.1554,2.25 1.74485,2.25 0.58944,0 3.82161,2.40061 7.18261,5.33461 10.99418,9.5975 30.49805,23.0597 37.84682,26.1231 2.05475,0.8566 5.96046,2.0344 8.67936,2.6175 3.28695,0.705 5.44949,1.8326 6.45365,3.3651 1.05162,1.605 3.57831,2.8485 8.32064,4.0949 3.74574,0.9846 7.56383,2.1645 8.48465,2.6221 1.3325,0.6621 1.90962,0.1187 2.82755,-2.6627 0.96414,-2.9214 1.62773,-3.4946 4.04531,-3.4946 2.4723,0 3.60383,1.0521 7.79738,7.25 5.29571,7.8268 7.5388,10.1696 10.65554,11.1291 1.1,0.3387 2.76657,1.9669 3.70349,3.6183 2.37181,4.1806 6.50536,4.0884 11.09255,-0.2474 6.18582,-5.8468 6.64539,-13.9973 2.01169,-35.6775 -1.57958,-7.3906 -1.57636,-7.4366 0.64855,-9.2382 2.19727,-1.7792 2.31226,-1.7482 6.63252,1.792 3.76467,3.0848 4.77644,4.7717 7.04038,11.7381 2.2147,6.8149 2.6548,10.0271 2.71106,19.7877 0.0412,7.146 -0.36127,12.1733 -1.04072,13 -0.60934,0.7413 -1.2635,2.4588 -1.4537,3.8166 -0.25449,1.8168 -1.68121,3.1373 -5.40223,5 -2.78103,1.3922 -6.26274,3.3254 -7.73714,4.2959 -2.87908,1.8952 -6.70645,8.4704 -6.70645,11.5212 0,3.1246 -4.26589,6.1337 -10.45852,7.3774 -3.5175,0.7064 -7.86828,2.5471 -10.94065,4.6286 -2.80546,1.9007 -7.04017,4.2956 -9.41047,5.322 -4.29713,1.8608 -12.26822,8.0897 -19.27545,15.0624 -2.10216,2.0918 -4.70944,6.2939 -6.04956,9.75 -2.35372,6.0701 -2.3577,6.0738 -6.48195,6.0738 -3.2843,0 -5.73515,-1.0532 -12.00509,-5.1588 -14.78176,-9.6792 -23.86483,-12.2515 -48.77332,-13.8124 -9.29225,-0.5823 -18.02575,-1.6145 -19.40776,-2.2938 -2.58141,-1.2688 -2.85839,-1.6647 -5.50416,-7.8685 -2.09727,-4.9177 -7.29681,-10.67 -9.99112,-11.0533 -1.72127,-0.2448 -2.68272,-1.7177 -4.4043,-6.7468 -1.21129,-3.5385 -2.94957,-6.8517 -3.86284,-7.3628 -2.90229,-1.6242 -5.43481,-4.644 -5.43481,-6.4805 0,-0.9773 -1.6875,-4.0797 -3.75,-6.8943 -2.0625,-2.8145 -6.39334,-8.7533 -9.6241,-13.1972 -3.23075,-4.4439 -8.22131,-9.8907 -11.09013,-12.104 -5.81722,-4.488 -9.64424,-10.7352 -11.52186,-18.8084 -0.93419,-4.0168 -2.01947,-5.8844 -4.53382,-7.8022 -2.41876,-1.8449 -3.61885,-3.8269 -4.47306,-7.3877 -0.64209,-2.6765 -1.79203,-5.6906 -2.55543,-6.69786 -1.31245,-1.73177 -1.38972,-1.7056 -1.4198,0.48076 -0.0175,1.2717 1.80986,9.0512 4.06077,17.2876 2.25092,8.2364 3.86027,15.5807 3.57635,16.3206 -0.3444,0.8975 -2.91172,1.4806 -7.71291,1.7519 -5.57829,0.3152 -7.57413,0.8475 -8.87517,2.3672 -0.92318,1.0783 -2.53753,2.4475 -3.58745,3.0428 -1.04991,0.5953 -2.30142,2.597 -2.78112,4.4483 -0.4797,1.8512 -1.46048,3.8391 -2.17952,4.4176 -0.71903,0.5785 -2.09474,3.5268 -3.05713,6.5518 -0.96239,3.025 -2.68218,7.3 -3.82177,9.5 -2.82722,5.458 -2.99025,24.0496 -0.22859,26.069 0.95355,0.6972 3.07414,5.4359 4.71242,10.5304 1.63829,5.0944 4.53904,12.4436 6.44613,16.3316 7.03492,14.342 26.48499,38.4463 33.33093,41.3067 1.95768,0.818 5.85261,3.8739 8.6554,6.7909 6.86103,7.1407 13.30963,11.056 23.17232,14.0694 4.53335,1.3851 9.48335,3.5539 11,4.8195 5.43837,4.5382 11.79082,6.6696 24.25754,8.1393 8.05302,0.9493 11.43341,2.8603 13.61423,7.6965 2.86462,6.3526 0.92023,12.3188 -5.18957,15.9236 -1.89818,1.12 -6.30073,5.8331 -9.78345,10.4735 -6.03703,8.0439 -6.39093,8.8318 -7.59163,16.90237 -0.69268,4.6559 -1.82151,8.7987 -2.50851,9.2062 -2.30653,1.3683 -3.34086,4.6897 -5.05946,16.247 -2.21012,14.8627 -1.5666,44.4225 1.38639,63.6831 2.61498,17.056 3.7388,21.042 6.70861,23.7943 1.60604,1.4884 3.00172,4.611 4.08469,9.1388 0.90479,3.7828 2.42054,7.7778 3.36833,8.8778 0.9478,1.1 2.01611,3.6441 2.37402,5.6534 0.35791,2.0094 1.31351,3.9078 2.12355,4.2187 0.81004,0.3108 1.4728,1.7008 1.4728,3.0888 0,1.531 1.15453,3.5524 2.9353,5.139 2.04343,1.8207 3.57293,4.7855 5.0339,9.7577 3.54492,12.0647 4.98541,15.2889 8.40305,18.8079 1.81101,1.8647 4.11741,5.6278 5.12534,8.3625 1.00794,2.7346 2.58238,5.647 3.49876,6.472 0.91638,0.825 2.24366,3.525 2.94951,6 0.70585,2.475 2.58899,6.1488 4.18475,8.1641 3.78855,4.7845 7.20786,12.4229 9.99861,22.3359 2.80618,9.9678 6.57536,14.4112 14.28637,16.8419 2.93945,0.9266 7.0246,2.8248 9.07811,4.2184 2.93422,1.9912 5.6899,2.7236 12.86998,3.4205 9.90165,0.9611 63.74854,0.4662 110.13632,-1.0123 z m -85,-123.4791 c -19.46648,-3.599 -47.84604,-19.9144 -69.14991,-39.7543 -5.11614,-4.7645 -8.30135,-2.441 -8.33644,6.0813 -0.0124,3.0147 -0.26027,3.2877 -2.7241,3 -1.90096,-0.2219 -2.91649,-1.063 -3.40032,-2.8164 -1.01521,-3.679 -0.99639,-13.2824 0.0292,-14.9023 0.49034,-0.7744 3.70595,-1.7876 7.18261,-2.2631 3.46214,-0.4735 9.0538,-2.2049 12.4259,-3.8477 6.92101,-3.3717 8.03452,-3.5721 8.79767,-1.5834 0.97689,2.5458 -0.53319,5.653 -3.49049,7.1823 l -2.91168,1.5057 3.57224,4.1733 c 9.41194,10.9958 25.00913,21.1454 41.81446,27.2102 2.64503,0.9546 5.64091,2.6284 6.65751,3.7196 1.52511,1.637 3.61347,2.0812 11.94086,2.5401 10.81924,0.5962 13.08728,-0.4566 6.71753,-3.118 -3.09245,-1.2921 -3.46545,-1.9239 -4.45598,-7.5472 -1.55662,-8.8371 -5.51079,-15.3686 -15.16906,-25.0562 -8.23951,-8.2646 -10.38657,-9.8435 -16.30002,-11.9869 -1.74543,-0.6327 -3.19865,-2.1584 -3.85842,-4.0511 -0.58212,-1.6698 -2.35961,-3.709 -3.94998,-4.5314 -1.96897,-1.0182 -2.89158,-2.2603 -2.89158,-3.8929 0,-1.3186 -1.2128,-3.8389 -2.6951,-5.6005 -2.41214,-2.8667 -2.77297,-4.3184 -3.43675,-13.8267 -0.40791,-5.8431 -0.77011,-14.0509 -0.8049,-18.2395 l -0.0632,-7.6158 -3.80686,0.6962 c -3.78256,0.6917 -5.36667,1.3826 -14.4124,6.286 -2.59559,1.407 -7.8425,3.085 -11.6598,3.7289 -6.26643,1.057 -7.05903,1.4567 -8.16045,4.1158 -0.67095,1.6198 -2.51808,4.0374 -4.10473,5.3725 -1.58666,1.3351 -3.14928,3.7497 -3.4725,5.3658 -0.75457,3.7728 -3.83757,5.1663 -11.43031,5.1663 h -5.95295 v -3.0897 c 0,-2.2902 1.28497,-4.5315 4.96552,-8.661 2.73104,-3.0641 5.85374,-7.4608 6.93935,-9.7703 3.85112,-8.1929 10.74613,-11.5637 32.82175,-16.0458 7.07595,-1.4366 12.36864,-3.0654 13.66204,-4.2045 1.16124,-1.0227 3.36933,-2.6413 4.90688,-3.597 1.53754,-0.9556 3.18401,-2.7262 3.65881,-3.93457 0.4748,-1.2084 1.43367,-3.7194 2.13081,-5.58 0.69715,-1.8605 2.35954,-4.6806 3.69421,-6.2668 1.33466,-1.5861 3.20464,-4.9334 4.15551,-7.4384 2.35677,-6.2086 8.98206,-15.1329 12.23602,-16.4818 5.10427,-2.116 6.343,-1.0322 6.20785,5.4314 -0.0879,4.2023 -0.70505,6.5886 -2.24157,8.6668 -5.3006,7.1695 -10.16117,26.58837 -10.12353,40.44547 0.0183,6.7296 0.82368,9.3398 3.10529,10.0639 1.04665,0.3322 2.5947,1.9417 3.44013,3.5765 0.84542,1.6349 2.67658,3.4917 4.06924,4.1262 1.39266,0.6346 3.42166,2.8974 4.5089,5.0286 1.26627,2.482 3.04888,4.2485 4.95954,4.9146 2.12418,0.7405 3.73124,2.5188 5.58309,6.1781 1.4302,2.8261 5.3192,9.4133 8.64224,14.6383 6.89094,10.835 13.19948,23.7928 14.18707,29.1404 0.71575,3.8756 4.63499,7.067 14.60551,11.893 l 4.61467,2.2336 -5.74381,8.6165 c -6.36311,9.5455 -10.08042,13.4584 -14.30062,15.0529 -3.67215,1.3874 -14.37949,1.181 -23.1849,-0.447 z m 80.26769,-2.5802 c -1.97744,-0.7701 -3.02431,-2.1485 -3.78926,-4.9893 -0.63034,-2.3409 -2.10524,-4.6121 -3.65413,-5.627 -1.42844,-0.9359 -3.21351,-3.1768 -3.96683,-4.9798 -0.81124,-1.9416 -2.3121,-3.5146 -3.68118,-3.8582 -1.85807,-0.4664 -2.23225,-1.1202 -1.90745,-3.3332 0.33486,-2.2816 1.14018,-2.95 4.70204,-3.9027 6.76566,-1.8095 11.25351,-7.8865 22.25203,-30.1316 11.58396,-23.4292 13.57909,-26.6484 17.32453,-27.9541 1.85415,-0.6464 3.38588,-2.2346 4.32675,-4.4864 0.80107,-1.9173 2.34328,-3.9605 3.42713,-4.5406 1.08385,-0.58 2.89507,-2.6214 4.02493,-4.5364 1.37966,-2.3383 3.14122,-3.7619 5.36402,-4.3349 3.29385,-0.849 3.3127,-0.8888 3.92903,-8.294 1.31456,-15.7948 1.03794,-21.47137 -1.18399,-24.29607 -1.21789,-1.5483 -2.49451,-5.3974 -3.11269,-9.3849 -0.57639,-3.718 -1.84658,-8.335 -2.82264,-10.26 -1.78691,-3.5242 -5.99998,-16.3293 -5.99998,-18.2362 0,-1.7603 7.12671,0.01 9.67216,2.3979 1.31196,1.2325 4.46679,6.0594 7.01075,10.7263 5.44203,9.9836 13.20148,23.139 16.62908,28.1932 1.77335,2.61487 4.01521,4.18557 8.30835,5.82097 3.23381,1.2318 7.67966,3.0963 9.87966,4.1432 2.2,1.0469 8.15652,2.5753 13.23671,3.3965 5.08019,0.8211 10.61374,2.2051 12.29678,3.0754 2.9541,1.5276 12.51068,13.5601 17.59765,22.1568 1.35849,2.2958 2.7311,5.7833 3.05026,7.75 l 0.58028,3.5759 -5.88084,-0.022 c -5.46247,-0.02 -5.98755,-0.2273 -7.38084,-2.912 -2.84725,-5.4862 -12.26217,-16.1595 -15.87571,-17.9975 -1.99336,-1.014 -6.60649,-2.7626 -10.25141,-3.8857 -3.64491,-1.1232 -10.56318,-4.1182 -15.37392,-6.6555 -4.81073,-2.5372 -8.9096,-4.4504 -9.10859,-4.2514 -0.19899,0.199 -0.82513,8.8583 -1.39141,19.2428 -0.56629,10.3846 -1.48082,20.4785 -2.0323,22.431 -1.69336,5.9951 -6.09015,11.3481 -11.54036,14.0499 -12.33034,6.1125 -20.46814,14.0873 -26.24995,25.7242 -2.64423,5.3219 -4.30172,7.4725 -6.29478,8.1672 -2.29794,0.8011 -2.88191,1.8217 -3.87712,6.7759 -0.64443,3.208 -1.42385,6.909 -1.73204,8.2244 l -0.56035,2.3917 8.00761,-0.6985 c 14.85169,-1.2956 20.34926,-3.7818 38.78033,-17.5381 7.15,-5.3365 14.9061,-11.0176 17.23578,-12.6248 2.32968,-1.6071 4.5045,-3.7315 4.83293,-4.721 0.8786,-2.6468 -2.01125,-6.37 -6.08879,-7.8444 -2.96802,-1.0733 -3.52095,-1.7188 -3.27537,-3.8239 0.3853,-3.3029 2.18863,-3.0534 15.79545,2.1858 11.38836,4.3851 16.62773,7.6722 18.00572,11.2965 1.48519,3.9064 3.41975,14.3929 2.77428,15.0383 -0.33479,0.3348 -1.5538,0.1029 -2.70892,-0.5153 -1.44531,-0.7735 -3.18708,-0.8239 -5.58565,-0.1616 -4.04702,1.1174 -4.49726,-0.019 -1.95508,-4.9351 1.68069,-3.2501 1.13014,-5.1286 -2.45363,-8.3719 -2.07495,-1.8778 -2.13165,-1.8776 -3.56082,0.011 -0.79876,1.0557 -1.4666,2.1932 -1.4841,2.5277 -0.0399,0.7631 -26.90738,19.7636 -36.99431,26.1621 -4.13616,2.6237 -10.89917,6.0612 -15.02889,7.6389 -15.63178,5.9718 -36.14997,9.372 -42.24091,6.9999 z m 4.57456,-118.4597 c -0.89485,-2.3319 0.31429,-22.41437 1.60567,-26.66847 1.42979,-4.71 5.65052,-9.781 8.14097,-9.781 2.34179,0 2.43257,2.211 0.43111,10.5 -0.79682,3.3 -1.4687,8.475 -1.49307,11.5 -0.0244,3.02497 -0.32808,7.86247 -0.67491,10.74997 -0.6219,5.1776 -0.67739,5.25 -4.0227,5.25 -2.14181,0 -3.61139,-0.5715 -3.98707,-1.5505 z M 701.5438,920.05653 c 0.49654,-1.072 2.44046,-2.9845 4.31981,-4.25 2.77833,-1.8709 3.75893,-3.5158 5.24645,-8.8009 2.32651,-8.2661 4.83655,-28.4342 4.83655,-38.8617 0,-7.1849 -0.26456,-8.3207 -2.5,-10.7328 -1.375,-1.4837 -2.5,-3.5216 -2.5,-4.5287 0,-4.1246 5.17143,-15.4702 8.41826,-18.4687 2.86234,-2.6435 6.58174,-11.1187 6.58174,-14.9976 0,-0.4299 0.88638,-1.7251 1.96973,-2.8783 1.08335,-1.1532 2.60786,-5.1409 3.3878,-8.8617 0.77994,-3.7208 2.10903,-7.5313 2.95354,-8.4678 4.23183,-4.6928 6.92561,-47.81431 4.75756,-76.15836 -1.44703,-18.91797 -3.10864,-26.5389 -6.53291,-29.96317 -3.29666,-3.29666 -5.16362,-2.27398 -8.53572,4.6757 -2.08802,4.30327 -2.95003,5.15981 -5.23095,5.19773 -3.2028,0.0532 -4.29281,-2.68618 -3.45967,-8.69487 0.87047,-6.27799 5.37146,-17.84967 7.94325,-20.42146 1.72363,-1.72363 2.61058,-4.01731 3.07217,-7.94477 0.68338,-5.8145 5.7955,-17.34196 8.07935,-18.21836 0.73882,-0.28351 1.66642,-2.2389 2.06133,-4.34531 0.39491,-2.10641 1.34497,-4.95484 2.11125,-6.32984 1.95864,-3.51454 10.95891,-31.28009 12.47986,-38.5 0.71317,-3.38538 1.22985,-12.31866 1.18567,-20.5 -0.0628,-11.62715 -0.5994,-16.96051 -2.70843,-26.91878 -2.95281,-13.94237 -4.76137,-28.06037 -6.60774,-51.58122 -0.6908,-8.8 -1.3872,-15.55 -1.54756,-15 -1.07629,3.69146 -3.46133,28.13742 -4.34158,44.5 -1.60984,29.92445 -2.89838,41.41791 -6.13923,54.76077 -3.78019,15.56334 -5.8169,20.24956 -11.56542,26.61067 -5.9875,6.62557 -8.34468,12.06342 -9.22524,21.28204 -0.60733,6.35822 -1.09905,7.7799 -3.33825,9.65155 -1.89357,1.58276 -2.95558,3.85162 -3.80767,8.13461 -0.64992,3.26679 -2.00043,7.09179 -3.00113,8.5 -1.0007,1.4082 -2.51351,6.72894 -3.36179,11.82388 -0.84828,5.09494 -2.08179,10.26994 -2.74114,11.5 -0.65935,1.23006 -1.76418,8.78094 -2.45518,16.77973 -1.31723,15.24776 -2.4801,19.52941 -5.57043,20.51024 -5.89091,1.8697 -8.84439,19.73284 -9.54886,57.75332 -0.57838,31.215 0.95535,61.285 3.38725,66.4099 1.33944,2.8226 1.46981,5.5015 0.83058,17.0658 -0.41703,7.5446 -0.72458,16.6425 -0.68343,20.2175 0.0951,8.2597 3.57878,24.0823 5.54445,25.1824 1.5097,0.8449 2.03224,2.6844 3.12607,11.0048 0.66525,5.0604 1.17281,5.3951 8.60966,5.6766 2.67419,0.1012 3.82883,-0.3639 4.5,-1.8129 z m -624.90982,-1.3009 c 2.624392,-2.9003 7.715511,-17.2642 9.304008,-26.25 1.349318,-7.6329 1.118412,-11.7878 -1.509363,-27.1595 l -1.736756,-10.1596 3.123294,-6.4111 c 4.545724,-9.3309 5.293968,-21.4285 4.095862,-66.2216 -1.352669,-50.57165 -2.51592,-58.27136 -9.087769,-60.15309 -2.001919,-0.57321 -3.861553,-1.97541 -4.56769,-3.44413 -0.655075,-1.3625 -1.737337,-8.54637 -2.405028,-15.96414 -1.512257,-16.80056 -6.967878,-44.53921 -9.096388,-46.24983 -0.846562,-0.68036 -2.108164,-4.16202 -2.80356,-7.73702 -0.695396,-3.575 -1.916533,-7.55125 -2.713638,-8.8361 -0.797105,-1.28486 -2.126979,-4.65986 -2.955275,-7.5 -1.87595,-6.43245 -5.172206,-12.19868 -10.477294,-18.32823 C 35.185304,602.0719 30.21847,578.74042 27.885898,530.17003 c -1.231042,-25.6336 -1.869582,-31.30784 -3.587614,-31.88052 -1.118029,-0.37268 -1.39298,1.49574 -4.888003,33.21611 -0.848404,7.7 -2.15085,16.025 -2.894326,18.5 -4.215994,14.03488 -1.767961,66.37138 3.326517,71.11761 1.102881,1.02749 2.557974,4.95897 3.539598,9.56356 0.916767,4.30036 2.993829,10.77972 4.615694,14.39859 1.621866,3.61886 2.948845,6.92288 2.948845,7.34227 0,0.41938 0.898419,1.90467 1.996488,3.30063 1.098068,1.39597 2.917905,5.63207 4.044081,9.41356 1.406749,4.7236 2.800423,7.36871 4.452992,8.45152 2.641146,1.73054 3.678635,4.3257 6.571579,16.438 2.479921,10.38304 2.54485,14.97426 0.211765,14.97426 -0.947702,0 -4.535397,-2.7873 -7.972656,-6.19401 -3.437258,-3.40671 -6.459541,-5.98403 -6.716184,-5.72739 -0.58774,0.58774 -4.210895,22.64937 -5.566562,33.89517 -2.490519,20.65984 -0.183794,67.97944 3.512975,72.06434 0.929454,1.027 2.330036,4.9261 3.112404,8.6646 0.976344,4.6654 2.184143,7.5049 3.850956,9.0536 1.335657,1.241 2.900446,4.166 3.477308,6.5 2.721986,11.0134 3.348073,12.3552 7.736527,16.5803 l 4.504233,4.3366 -0.389044,6.8851 c -0.311562,5.5139 -0.830958,7.2968 -2.607952,8.9524 -1.849595,1.7231 -2.21891,3.1425 -2.21891,8.5278 0,6.8836 2.031105,20.1779 4.959469,32.4615 3.726563,15.6317 7.114653,20 15.512241,20 4.101577,0 5.603432,-0.4683 7.215661,-2.25 z m 206.25017,-78.1935 c 0.87726,-0.7939 4.67505,-1.9355 8.43954,-2.5369 11.72978,-1.8738 14.64086,-6.1626 8.08812,-11.916 -1.94413,-1.707 -3.95248,-3.1036 -4.46298,-3.1036 -0.5105,0 -3.30734,0.9845 -6.2152,2.1878 -7.68853,3.1817 -25.79476,3.1615 -33.93881,-0.038 -7.6191,-2.993 -13.39596,-7.0141 -17.46594,-12.1573 -3.98939,-5.0414 -4.11917,-5.7489 -1.13227,-6.1731 1.44596,-0.2054 2.36419,-1.1236 2.56955,-2.5696 0.23129,-1.6285 0.99088,-2.25 2.75,-2.25 1.33675,0 2.43045,0.369 2.43045,0.82 0,0.451 1.58587,2.6728 3.52416,4.9372 4.55336,5.3196 12.17594,8.2694 23.22584,8.9881 7.40508,0.4817 8.25,0.3568 8.25,-1.2195 0,-4.4727 -14.23158,-13.9663 -27.70171,-18.4793 -10.96349,-3.6731 -12.0888,-3.7277 -13.26136,-0.6436 -2.06466,5.4305 -5.81243,4.4152 -10.44713,-2.83 -2.92363,-4.5703 -4.00687,-5.4405 -8.03577,-6.455 -2.56114,-0.6449 -5.08354,-0.9087 -5.60533,-0.5862 -2.9128,1.8002 1.69477,14.6504 9.41932,26.2698 5.8652,8.8225 16.98784,19.3423 24.38948,23.0675 4.98137,2.5071 7.95894,3.3817 18.7425,5.5052 5.25495,1.0348 14.92195,0.5539 16.43754,-0.8177 z m 231.06246,-5.6857 c 11.37738,-4.6779 17.05195,-9.1931 24.97325,-19.8708 9.11847,-12.2915 14.43188,-25.6207 12.18178,-30.5591 -0.92747,-2.0356 -1.82434,-2.4409 -5.4009,-2.4409 h -4.28875 l -2.39145,6.0208 c -2.43101,6.1203 -2.59317,6.247 -9.32393,7.2798 -3.53196,0.542 -3.67274,-1.6499 -0.25,-3.8926 3.49306,-2.2887 3.33908,-4.8034 -0.25,-4.083 -9.32721,1.8721 -11.66178,2.6845 -14.06813,4.8956 -1.57145,1.444 -5.03206,2.9664 -8.35802,3.677 -5.64051,1.2051 -10.8287,4.2882 -18.03769,10.7189 -3.44114,3.0697 -3.5935,3.4333 -2.07488,4.9519 1.37961,1.3796 2.99586,1.5322 10.21384,0.9643 12.49511,-0.9831 14.94673,-1.8695 20.75975,-7.5056 4.92842,-4.7785 8.4562,-6.2259 9.81513,-4.0271 0.33992,0.55 1.71648,1 3.05902,1 3.62431,0 3.41183,4.877 -0.31534,7.2379 -1.50903,0.9558 -5.89368,3.9902 -9.74368,6.743 -14.31881,10.2384 -25.89492,11.7626 -41.60321,5.4778 l -8.85119,-3.5413 -3.01979,3.2913 c -3.70238,4.0353 -4.78175,7.4842 -2.90546,9.2839 1.5346,1.472 14.64813,5.3275 22.37965,6.5799 8.42627,1.365 21.33979,0.3311 27.5,-2.2017 z M 200.82867,320.37921 c 2.25698,-0.4514 3.72639,-1.68387 5.25922,-4.41118 2.38381,-4.24141 6.36311,-7.54893 10.2584,-8.52659 2.58407,-0.64856 2.60032,-0.61513 2.60032,5.34878 0,4.22614 0.4148,6.16059 1.40223,6.53951 1.71551,0.6583 2.59777,-0.12409 2.59777,-2.30369 0,-0.90543 1.28547,-2.8778 2.85661,-4.38304 1.57113,-1.50524 3.41906,-4.61413 4.10651,-6.90864 0.68746,-2.2945 3.28622,-6.43463 5.77504,-9.20028 2.48882,-2.76565 5.45556,-6.94096 6.59275,-9.27846 1.81172,-3.724 2.47614,-4.25 5.36836,-4.25 h 3.30073 v 8.97432 c 0,8.8606 -0.0362,8.99304 -2.8575,10.45199 -2.33054,1.20517 -2.97598,2.34211 -3.5,6.16525 -1.54004,11.23586 -0.4517,12.88223 6.25429,9.4611 6.15224,-3.13864 7.4219,-6.87523 7.52127,-22.13487 l 0.0819,-12.58221 -3.65231,-5.50527 c -4.71061,-7.10049 -13.62057,-16.70792 -18.8665,-20.34334 -2.2662,-1.57048 -4.74817,-4.06946 -5.51548,-5.55328 -0.99764,-1.92923 -2.47357,-2.89562 -5.18042,-3.39196 -2.08191,-0.38175 -5.13529,-1.96524 -6.78529,-3.51887 -6.69331,-6.30238 -25.45612,-19.68826 -29.43946,-21.00288 -2.63017,-0.86804 -4.57088,-2.23209 -5.07967,-3.57031 -1.38087,-3.63196 -34.25701,-32.0723 -45.14366,-39.05267 -3.66453,-2.34965 -6.95975,-5.20774 -7.32271,-6.35131 -0.36296,-1.14358 -2.34345,-2.9381 -4.4011,-3.98784 -2.05765,-1.04973 -4.16243,-2.81928 -4.67729,-3.93232 -0.51486,-1.11305 -2.47446,-3.05913 -4.35466,-4.32463 -1.89631,-1.27633 -3.90232,-3.74799 -4.50497,-5.55068 -0.78292,-2.34191 -3.18027,-4.72515 -8.58145,-8.53092 -4.43238,-3.12313 -8.03878,-6.50163 -8.825714,-8.26799 -0.731877,-1.64278 -2.869377,-3.9955 -4.75,-5.22828 -2.052092,-1.34521 -3.419276,-3.06136 -3.419276,-4.29208 0,-1.12787 -2.178354,-4.38623 -4.840786,-7.24081 -2.662432,-2.85458 -8.364348,-9.69014 -12.670925,-15.19014 -4.306576,-5.5 -10.138565,-12.474998 -12.959974,-15.499998 -3.31207,-3.55107 -6.160547,-7.98046 -8.038564,-12.5 -1.599802,-3.85 -3.82696,-8.00152 -4.949241,-9.2256 -4.681845,-5.10653 -5.465427,-5.85419 -7.895554,-7.53361 -1.400065,-0.96756 -4.208693,-4.92412 -6.241395,-8.79236 -2.032703,-3.86824 -4.693973,-7.81831 -5.913934,-8.77793 -1.219961,-0.95963 -2.987383,-3.23238 -3.927605,-5.05057 -0.940222,-1.81819 -1.873225,-3.14207 -2.073339,-2.94195 -0.824583,0.82458 3.713559,35.39312 6.474972,49.32202 1.635567,8.25 3.48939,19.049998 4.119606,23.999998 0.630215,4.95 1.621316,9.9 2.202445,11 0.581131,1.1 1.590405,5.60896 2.242833,10.01991 1.494922,10.10691 4.682924,20.26235 8.783529,27.98009 2.491662,4.68955 4.194907,6.54602 7.798463,8.5 6.915609,3.7499 7.791794,4.78297 8.484326,10.00353 0.57481,4.33313 0.924294,4.8503 3.645451,5.39453 1.655331,0.33107 4.355292,0.60194 5.999915,0.60194 h 2.990224 l -0.702311,5.62111 c -0.386271,3.0916 -1.338122,7.42318 -2.115223,9.62572 -1.639534,4.64694 -1.822747,8.38184 -0.452701,9.22858 0.528117,0.32639 4.160108,-1.53434 8.071092,-4.13497 5.806149,-3.86083 7.278509,-4.46347 8.024475,-3.28443 1.823018,2.88138 1.388498,9.78061 -1.067149,16.94399 -1.036987,3.025 -2.021151,6.85 -2.187031,8.5 -0.294162,2.92603 -0.192695,3 4.115068,3 4.019504,0 4.506191,-0.26977 5.412229,-3 1.325989,-3.9957 3.403515,-5.42988 7.921104,-5.4682 2.74653,-0.0233 3.75,0.38621 3.75,1.53033 0,0.85917 -2.025,7.75814 -4.5,15.33103 -5.592194,17.11076 -5.647205,18.10684 -1,18.10684 1.925,0 3.5,-0.48418 3.5,-1.07596 0,-1.61314 8.53886,-12.39237 11.18939,-14.12518 1.27084,-0.83083 3.28263,-1.81793 4.47066,-2.19357 2.03405,-0.64313 2.12856,-0.43278 1.62022,3.60587 -0.29691,2.35886 -1.60069,7.66384 -2.89729,11.78884 -2.93376,9.33347 -3.03703,12 -0.46477,12 3.38079,0 5.08179,-1.15545 5.08179,-3.45195 0,-1.23089 1.8,-5.02293 4,-8.42676 2.2,-3.40382 4,-6.62359 4,-7.15503 0,-0.53144 1.85888,-0.96626 4.13084,-0.96626 4.12197,0 4.12968,0.007 3.59069,3.32859 -0.29709,1.83073 -2.38097,7.22156 -4.63084,11.97963 -3.75298,7.93683 -5.2642,14.69178 -3.28686,14.69178 0.44211,0 2.35461,-1.62995 4.25,-3.62211 3.47707,-3.65459 10.68375,-7.65811 12.15191,-6.75073 0.43684,0.26998 0.79426,6.05251 0.79426,12.85007 0,6.79756 0.27314,13.071 0.60699,13.94098 0.43989,1.14633 1.96385,1.58179 5.53573,1.58179 5.1658,0 4.97589,0.12512 11.64449,-7.67179 1.49203,-1.74448 3.78292,-3.48059 5.09086,-3.85803 l 2.37806,-0.68625 -0.70387,6.85804 c -0.38713,3.77191 -0.94355,7.87053 -1.23648,9.10803 -0.44186,1.86666 -0.1146,2.25 1.92082,2.25 3.24536,0 4.93735,-2.06344 8.79101,-10.72099 1.76782,-3.97154 3.94731,-7.45789 4.84331,-7.74743 0.89599,-0.28954 2.36605,-1.82602 3.26679,-3.4144 1.58856,-2.80128 8.25973,-6.05308 9.62244,-4.69036 0.34438,0.34438 -0.86822,5.67673 -2.69467,11.84966 -1.82644,6.17294 -3.54084,12.01102 -3.80978,12.97352 -0.39031,1.39692 0.13984,1.75 2.62767,1.75 2.10107,0 3.11663,-0.48786 3.11663,-1.49719 0,-2.0617 8.69451,-13.72541 11.34352,-15.21737 1.18606,-0.66802 2.97973,-1.23052 3.98594,-1.25 2.99901,-0.0581 1.24187,5.10207 -6.38696,18.75648 -6.54893,11.72155 -9.34693,19.20808 -7.17879,19.20808 0.54246,0 2.39572,-0.28189 4.11835,-0.62641 z m 321.11794,-3.29199 c 0,-1.05513 -1.8,-8.46195 -4,-16.45962 -2.2,-7.99766 -4,-15.23438 -4,-16.08159 0,-1.22399 1.28378,-1.53825 6.25,-1.52998 l 6.25,0.0104 2.66882,5.73959 c 1.46784,3.15678 2.98825,7.01343 3.37867,8.57035 0.39043,1.55692 1.37812,3.0872 2.19488,3.40062 0.81676,0.31342 2.68132,3.08958 4.14346,6.16924 3.27569,6.89944 7.05861,12.09938 8.80223,12.09938 1.76652,0 1.69439,-5.41136 -0.154,-11.5531 -1.13824,-3.78206 -1.19412,-5.04369 -0.25,-5.64362 2.23754,-1.42182 3.82572,-0.8267 6.52947,2.44672 7.21851,8.73941 11.56672,12.75 13.82331,12.75 1.29974,0 2.36316,-0.47795 2.36316,-1.0621 0,-3.07187 -3.53802,-11.69882 -5.51105,-13.4379 -2.66851,-2.35209 -7.92429,-12.53906 -8.97728,-17.40013 -0.63735,-2.94228 -0.50839,-3.31259 0.95769,-2.75 0.93182,0.35757 3.00741,0.65013 4.61243,0.65013 1.87382,0 2.91821,0.51557 2.91821,1.4406 0,0.79233 3.0375,4.76544 6.75,8.82914 3.7125,4.06369 7.5333,8.84457 8.49067,10.62418 1.71445,3.1869 3.75933,3.44067 3.75933,0.46653 0,-0.83683 -1.54332,-3.84778 -3.42961,-6.69098 -1.88628,-2.84321 -4.74415,-8.58488 -6.35082,-12.75927 -2.80478,-7.28724 -2.85741,-7.72211 -1.3204,-10.9091 1.8825,-3.90336 5.09689,-6.22098 5.82886,-4.20271 0.25899,0.71411 4.3215,6.49494 9.0278,12.84629 9.06383,12.23202 9.43605,12.39193 10.71947,4.60532 0.65544,-3.97664 0.90793,-4.25 3.92551,-4.25 2.27797,0 4.06902,0.88096 6.09919,3 2.41798,2.52383 3.64204,3 7.71184,3 4.27278,0 4.95154,-0.29952 5.81291,-2.5651 0.53639,-1.4108 0.97525,-7.4858 0.97525,-13.5 v -10.93489 l 2.75,0.0426 c 2.09202,0.0324 3.666,1.23035 6.5784,5.00677 2.10563,2.7303 4.64998,5.40388 5.65413,5.94128 1.59897,0.85574 1.97107,0.37124 2.99595,-3.90096 1.14729,-4.78242 1.10119,-4.97417 -2.35125,-9.77971 -4.44782,-6.19104 -6.08805,-10.23348 -4.36604,-10.7604 3.45102,-1.05599 8.73881,-1.31729 8.73881,-0.43184 0,3.24552 12.36608,17.88226 15.10811,17.88226 1.93056,0 2.09082,-3.16515 0.2684,-5.30088 -1.03208,-1.20952 -2.95154,-4.33662 -4.26547,-6.94912 -1.31393,-2.6125 -2.94518,-4.75 -3.625,-4.75 -1.25196,0 -2.48604,-4.2815 -2.48604,-8.625 0,-2.15477 0.42528,-2.375 4.58638,-2.375 4.26526,0 4.9654,0.39448 10,5.63426 2.97749,3.09885 5.41362,6.21309 5.41362,6.92055 0,1.31664 5.69485,3.08368 6.69969,2.07883 0.30618,-0.30618 -1.26464,-6.5365 -3.49071,-13.84516 -2.22607,-7.30866 -4.36141,-14.98972 -4.74521,-17.06901 l -0.69781,-3.78053 4.36702,0.62642 c 3.20414,0.45962 5.0894,1.46633 7.07981,3.78053 5.95227,6.92059 6.79096,7.65411 8.75148,7.65411 2.53218,0 2.53915,-1.16362 0.0536,-8.94409 -2.41269,-7.55237 -5.31716,-23.76261 -4.4958,-25.09161 0.72517,-1.17335 5.48551,-1.24605 7.27466,-0.11109 0.7132,0.45241 2.0632,2.35802 3,4.23468 1.3708,2.74606 2.28889,3.41211 4.70328,3.41211 2.66608,0 3.03542,-0.36902 3.31823,-3.31532 0.17503,-1.82343 -0.21394,-3.95656 -0.86437,-4.74028 -0.65043,-0.78372 -1.41235,-4.28714 -1.69316,-7.78537 -0.485,-6.04208 -0.39216,-6.39139 1.85494,-6.97902 1.6291,-0.42602 3.47472,0.15011 5.92868,1.8507 5.60605,3.885 5.93235,3.51828 5.26637,-5.91869 -0.64826,-9.18601 -1.06383,-8.48085 5.91163,-10.03118 1.49728,-0.33278 3.64392,-1.59426 4.7703,-2.8033 2.03595,-2.18533 5.59789,-12.63648 6.19495,-18.17668 0.17552,-1.62869 1.18886,-3.38155 2.31243,-4 2.96187,-1.6303 3.17159,-2.15745 3.87673,-9.74451 0.35594,-3.82975 1.3018,-7.96228 2.10191,-9.18341 0.8635,-1.31787 2.28317,-9.32312 3.49304,-19.69659 2.98423,-25.586918 3.96384,-32.192378 4.95293,-33.397188 1.1472,-1.39741 2.52138,-22.66608 1.68084,-26.01506 -0.35397,-1.41026 -1.03093,-2.5641 -1.50437,-2.5641 -1.08499,0 -8.22345,9.40215 -10.5408,13.8834 -0.95895,1.85442 -4.4449,6.03967 -7.74655,9.30055 -4.62994,4.57278 -7.01685,8.09848 -10.43554,15.41428 -2.4379,5.21697 -5.06879,9.72954 -5.84641,10.02794 -0.77763,0.29841 -5.34967,5.79209 -10.1601,12.208188 -4.81042,6.4161 -11.1249,14.16869 -14.03217,17.22797 -2.90727,3.05929 -6.23514,7.70814 -7.39527,10.33079 -1.4993,3.38942 -2.93207,5.05527 -4.95424,5.76021 -1.75294,0.61107 -3.22807,2.0908 -3.84309,3.85506 -0.54899,1.57483 -2.3419,3.5582 -3.98424,4.40749 -1.64235,0.84929 -3.86325,2.65929 -4.93533,4.02222 -1.07209,1.36294 -3.11241,3.00804 -4.53405,3.65578 -1.51369,0.68968 -3.22767,2.78437 -4.13613,5.05484 -0.88479,2.2113 -2.88451,4.68788 -4.65429,5.76415 -1.70664,1.03787 -3.94417,3.27025 -4.97228,4.96086 -1.02812,1.6906 -3.3456,3.7061 -5.14995,4.47889 -4.64028,1.9874 -16.12944,11.05031 -23.24068,18.33279 -6.34008,6.49274 -34.95826,29.80378 -44.78309,36.47821 -3.15871,2.14586 -7.7789,4.77419 -10.26707,5.84075 -2.91997,1.25164 -5.23655,3.14694 -6.53376,5.34555 -1.10539,1.87349 -4.82928,5.22975 -8.27531,7.45834 -10.17783,6.58214 -28.29055,24.47581 -31.78733,31.4029 -3.57441,7.08086 -4.5401,15.17674 -3.06162,25.66714 1.1092,7.87027 3.24906,11.24436 9.66821,15.24467 3.77919,2.35513 4.5,2.3485 4.5,-0.0414 z"
     id="path697"
     inkscape:connector-curvature="0" />
</svg>
