<?xml version="1.0" encoding="utf-8"?>
<!-- Svg Vector Icons : http://www.onlinewebfonts.com/icon -->
<!DOCTYPE svg PUBLIC "-//W3C//DTD SVG 1.1//EN" "http://www.w3.org/Graphics/SVG/1.1/DTD/svg11.dtd">
<svg version="1.1" xmlns="http://www.w3.org/2000/svg" xmlns:xlink="http://www.w3.org/1999/xlink" x="0px" y="0px" viewBox="0 0 1000 1000" enable-background="new 0 0 1000 1000" xml:space="preserve">
<metadata> Svg Vector Icons : http://www.onlinewebfonts.com/icon </metadata>
<g><g transform="translate(0.000000,511.000000) scale(0.100000,-0.100000)"><path d="M4413.5,4984.6c-250.2-68.6-341-145.3-550.9-452c-351.1-520.6-627.6-776.9-1065.4-994.8c-238.1-117-312.8-165.5-413.7-266.4c-209.9-207.9-316.8-472.2-286.5-716.4c20.2-171.5,117-439.9,260.3-724.4c145.3-284.5,173.5-371.3,173.5-518.6c0-119.1-58.5-371.3-129.1-556.9C2266.5,398,2230.2,46.8,2300.8-191.3c121.1-409.6,490.3-867.7,827.3-1027.1l102.9-48.4l34.3-224c20.2-123.1,66.6-316.8,104.9-431.8c72.6-222,171.5-637.7,209.9-902c52.5-343,109-441.9,393.5-704.3c262.3-240.1,448-518.6,534.7-789c44.4-139.2,163.5-351.1,236.1-413.7c76.7-66.6,137.2-76.7,203.8-28.3c40.4,28.3,50.4,28.3,102.9-4c155.4-90.8,294.6,58.5,466.1,502.4c117.1,308.7,296.7,559,546.9,768.8c197.7,163.4,341,405.6,341,571.1c0,111,143.3,750.7,220,984.7c42.4,133.2,94.8,337,113,454l34.3,213.9l135.2,68.6c347.1,179.6,734.5,700.2,811.2,1085.6c44.4,236.1,16.2,452-115,851.6c-113,339-117.1,361.2-119.1,567v213.9l149.3,300.7c250.2,504.5,308.7,724.4,256.2,976.7c-68.6,324.9-302.7,579.1-682,738.6C6827,3695.2,6457.7,4044.3,6106.6,4579c-143.3,215.9-240.1,300.7-427.8,379.4c-104.9,42.4-143.3,44.4-635.6,50.4C4633.5,5012.9,4494.3,5006.8,4413.5,4984.6z M3319.9,527.1c589.2-191.7,990.8-381.4,1128-528.7c157.4-171.5,256.3-448,276.5-774.9l12.1-191.7l-121.1,181.6C4423.6-496,4268.3-368.9,3856.6-161C3666.9-62.1,3451,54.9,3378.4,101.3c-244.2,159.4-413.7,379.4-363.2,474.2c12.1,22.2,24.2,40.4,28.2,40.4C3047.4,615.9,3172.5,575.5,3319.9,527.1z M6986.4,547.3c10.1-76.7-76.7-213.9-205.8-322.9c-127.1-109-375.3-256.3-669.9-395.5c-363.2-169.5-540.8-318.8-736.5-619.5c-56.5-86.8-106.9-161.4-113-167.5c-24.2-22.2,16.1,341,52.5,488.3c100.9,395.5,238.1,542.8,690.1,744.6c232.1,104.9,922.2,345.1,956.5,335C6972.2,605.8,6982.3,577.5,6986.4,547.3z M4506.4-1995.3c16.1-18.1,22.2-213.9,18.2-678c-6-643.7-6-651.8-50.4-680c-38.3-26.2-48.4-24.2-80.7,8.1c-30.3,30.3-54.5,161.4-125.1,678c-48.4,351.1-82.7,645.7-76.7,651.8C4236-1971.1,4474.1-1954.9,4506.4-1995.3z M4778.8-1999.3c28.2-28.3,32.3-111,28.2-678c-6-625.5-8.1-647.7-46.4-674c-36.3-24.2-48.4-22.2-86.8,4c-44.4,30.3-44.4,34.3-44.4,674c0,556.9,4,647.7,32.3,674C4702.1-1959,4738.4-1959,4778.8-1999.3z M5063.3-2021.5c16.2-30.3,22.2-254.3,22.2-672c-2-597.3-4-629.6-40.4-657.8c-50.4-36.3-62.6-36.3-100.9,4c-28.2,26.2-32.3,117-32.3,674c0,565,4,647.7,32.3,676C4986.6-1954.9,5037.1-1965,5063.3-2021.5z M5333.7-1995.3c16.2-18.1,22.2-217.9,18.2-690.1l-6.1-663.9h-70.6h-70.6l-6,663.9c-4,684.1-2,718.4,76.7,718.4C5295.4-1967,5321.6-1979.1,5333.7-1995.3z M5767.6-1999.3c18.2-6.1,32.3-36.3,32.3-64.6c0-111-165.4-1247.1-185.6-1269.3c-32.3-40.4-113-30.3-137.2,12.1c-12.1,24.2-20.2,272.4-20.2,665.9c0,724.4-6,702.2,173.6,680C5688.9-1981.2,5749.4-1993.3,5767.6-1999.3z"/></g></g>
</svg>