<?xml version="1.0" encoding="UTF-8" standalone="no"?>
<!-- Created with Inkscape (http://www.inkscape.org/) -->

<svg
   xmlns:dc="http://purl.org/dc/elements/1.1/"
   xmlns:cc="http://creativecommons.org/ns#"
   xmlns:rdf="http://www.w3.org/1999/02/22-rdf-syntax-ns#"
   xmlns:svg="http://www.w3.org/2000/svg"
   xmlns="http://www.w3.org/2000/svg"
   xmlns:sodipodi="http://sodipodi.sourceforge.net/DTD/sodipodi-0.dtd"
   xmlns:inkscape="http://www.inkscape.org/namespaces/inkscape"
   version="1.1"
   id="svg473"
   width="2916"
   height="3712"
   viewBox="0 0 2916 3712"
   sodipodi:docname="Fingers_1.svg"
   inkscape:version="0.92.1 r15371">
  <metadata
     id="metadata479">
    <rdf:RDF>
      <cc:Work
         rdf:about="">
        <dc:format>image/svg+xml</dc:format>
        <dc:type
           rdf:resource="http://purl.org/dc/dcmitype/StillImage" />
        <dc:title></dc:title>
      </cc:Work>
    </rdf:RDF>
  </metadata>
  <defs
     id="defs477" />
  <sodipodi:namedview
     pagecolor="#ffffff"
     bordercolor="#666666"
     borderopacity="1"
     objecttolerance="10"
     gridtolerance="10"
     guidetolerance="10"
     inkscape:pageopacity="0"
     inkscape:pageshadow="2"
     inkscape:window-width="731"
     inkscape:window-height="480"
     id="namedview475"
     showgrid="false"
     inkscape:zoom="0.063577586"
     inkscape:cx="1458"
     inkscape:cy="1856"
     inkscape:window-x="0"
     inkscape:window-y="27"
     inkscape:window-maximized="0"
     inkscape:current-layer="svg473" />
  <path
     style="fill:#000000"
     d="m 1075.9161,3596.1483 c 1.7303,-17.209 6.3316,-41.88 14.4075,-77.25 9.2508,-40.5157 13.1103,-62.4978 15.6616,-89.2011 1.4861,-15.5538 1.5267,-22.0636 0.4024,-64.5321 -1.6004,-60.4565 -0.9892,-70.9984 5.5683,-96.0401 3.8694,-14.7765 8.1802,-27.2241 17.3944,-50.2267 15.0929,-37.6785 20.5159,-58.2568 19.4034,-73.6287 -2.4765,-34.2191 -14.2285,-89.8412 -24.376,-115.3713 -6.4565,-16.2439 -21.3767,-35.1843 -53.1728,-67.5 -21.0198,-21.3632 -26.4275,-27.1858 -36.2212,-39 -11.9747,-14.4451 -14.4366,-18.3504 -32.151,-51 -5.55367,-10.2361 -14.64127,-25.1925 -24.29777,-39.9894 -45.144,-69.1752 -70.6618,-116.111 -88.0936,-162.0332 -3.3583,-8.8469 -7.4323,-17.5698 -9.9102,-21.2187 -12.7662,-18.799 -34.6536,-42.4287 -58.5945,-63.2587 -68.0019,-59.1657 -85.5906,-77.9795 -102.972,-110.1445 -8.3464,-15.4454 -12.3873,-29.0446 -18.193,-61.2268 -1.8725,-10.3793 -3.8815,-20.7293 -4.4645,-23 -6.3782,-24.8418 -19.1071,-50.4896 -41.753,-84.1287 -11.0441,-16.4055 -17.2985,-23.5824 -32.173,-36.9189 -21.0077,-18.8355 -30.8672,-28.5706 -35.5292,-35.0811 -2.363,-3.3 -8.0337,-13.65 -12.6015,-23 -7.8065,-15.9792 -8.7883,-17.4819 -16.3501,-25.0246 -11.4794,-11.4504 -14.4747,-13.3175 -65.778,-41.0017 -12.0999,-6.5293 -12.821,-7.0941 -14.5,-11.3588 -16.7086,-42.4391 -45.836,-75.0247 -96.7669,-108.256 -12.9982,-8.481 -24.7635,-15.5348 -53.5253,-32.0908 -39.0508,-22.4784 -52.929,-31.25 -72.2247,-45.6489 l -12.75,-9.5144 v -4.7669 c 0,-2.6219 0.8562,-9.184 1.9027,-14.5825 6.2514,-32.2486 23.7159,-54.0041 55.5973,-69.2573 23.8891,-11.4295 49.579,-17.4529 108.7822,-25.5055 l 11.7821,-1.6026 5.2179,2.9853 c 17.0766,9.7699 33.8702,13.8192 77.2178,18.6191 45.6988,5.0603 54.8937,7.8892 85.4446,26.2881 19.2452,11.5901 57.4425,37.2369 68.0554,45.6944 20.1674,16.0716 40.4635,38.5075 60.2488,66.6007 4.8118,6.8323 15.5637,22.3224 23.893,34.4224 39.7029,57.6762 51.1342,70.6479 157.7902,179.0528 16.2624,16.5291 36.5367,37.7916 45.054,47.25 8.5172,9.4585 16.1672,17.2025 17,17.209 2.2114,0.017 15.0284,3.4094 26.514,7.0173 8.581,2.6955 12.0047,3.2174 24.12767,3.6783 13.1714,0.5008 14.2626,0.4023 16.1201,-1.4552 1.8857,-1.8857 9.7511,-20.6949 14.1141,-33.7522 10.5426,-31.5511 12.0547,-57.9821 4.1984,-73.3819 l -1.9493,-3.8209 2.8731,-9.8986 c 7.5822,-26.1223 17.2594,-46.449 33.6945,-70.7749 2.9268,-4.332 5.3214,-8.2592 5.3214,-8.7272 0,-0.468 -1.0785,-3.7163 -2.3968,-7.2184 -13.6615,-36.2954 -16.7036,-91.1156 -11.1361,-200.6781 2.1038,-41.3991 3.8519,-102.3868 3.0821,-107.5207 -0.9597,-6.3994 -6.5869,-12.2155 -16.9997,-17.5703 -8.0376,-4.1334 -8.5495,-4.5884 -8.5495,-7.599 0,-1.8077 1.7798,-6.6011 4.0866,-11.0062 5.6864,-10.8586 7.2487,-16.465 6.425,-23.0571 -1.9854,-15.8907 -23.5687,-76.5183 -59.0054,-165.7467 -46.90987,-118.1173 -64.47437,-170.3069 -75.40187,-224.0427 -1.8632,-9.1621 -6.1268,-45.1037 -9.0699,-76.4573 -1.4707,-15.6685 -5.2851,-38.5456 -8.523,-51.1174 -4.3235,-16.7872 -10.9315,-35.3431 -26.3105,-73.8826 -20.4032,-51.1298 -26.9726,-71.0554 -32.6398,-99 -3.7619,-18.54929 -9.2145,-62.56709 -12.5732,-101.49999 -4.225,-48.97528 -9.4303,-87.21525 -15.4689,-113.64028 -1.4277,-6.24785 -2.8466,-12.53108 -3.153,-13.96272 -0.4691,-2.19163 0.3381,-3.4497 5.1081,-7.96098 9.3638,-8.85584 12.7479,-14.08458 27.7894,-42.93604 4.4444,-8.525 10.1373,-18.65 12.6508,-22.5 12.6512,-19.37766 30.1756,-29.36971 51.6757,-29.46438 12.6913,-0.0559 23.7184,3.31822 52.41,16.03648 5.225,2.31611 13.55,5.67056 18.5,7.45433 l 9,3.24323 6.99997,11.6293 c 5.8599,9.73525 22.0167,33.42635 42.3043,62.03199 2.3673,3.33798 7.465,11.36202 11.3281,17.83122 21.8411,36.57524 34.4622,74.51948 50.3415,151.34725 12.0443,58.27289 14.9776,71.68199 20.2107,92.39059 6.5131,25.774 15.7524,53.9717 21.3788,65.2471 2.2541,4.5174 8.504,15.6473 13.8887,24.7332 20.0764,33.8763 26.6257,50.2151 46.5061,116.0197 17.5252,58.0091 25.577,80.2157 48.0427,132.5 17.1353,39.879 28.7903,67.9407 36.9649,89 10.2034,26.2857 12.8616,32.6414 25.2312,60.3268 5.7323,12.8297 12.8515,29.5779 15.8206,37.2182 2.969,7.6403 6.1304,15.3072 7.0252,17.0376 2.49,4.8151 9.4066,11.8507 13.9124,14.1515 5.6931,2.9072 15.6578,3.4438 24.3583,1.3116 l 6.9818,-1.711 3.5343,-8.6673 c 15.0719,-36.962 21.0835,-72.917 21.0114,-125.6674 -0.044,-32.0711 -1.0181,-47.2644 -6.8934,-107.5 -6.1797,-63.357 -7.4115,-82.3175 -7.5071,-115.5531 -0.1322,-45.9387 0.5723,-51.7419 16.4431,-135.4469 5.0186,-26.4691 11.306,-72.4398 15.0448,-109.99999 3.931,-39.4918 10.0497,-111.1118 12.0887,-141.50002 0.2953,-4.4 1.636,-22.175 2.9795,-39.5 1.3434,-17.325 3.3608,-43.425 4.4831,-58 3.6835,-47.83735 6.9843,-85.06188 10.0202,-113 1.6435,-15.125 3.2466,-30.2 3.5625,-33.5 0.8411,-8.78641 6.1853,-48.24453 8.2618,-61 l 1.7908,-11 10.6233,-15 c 21.7213,-30.67028 27.4997,-38.11704 37.2618,-48.01984 14.4326,-14.64061 29.3107,-23.48841 45.5,-27.05816 16.1332,-3.55739 44.0297,-1.46416 55.1498,4.13822 8.5638,4.31445 26.6325,18.44958 35.8789,28.06796 14.884,15.48288 22.9126,34.79719 29.8756,71.87182 7.6353,40.6543 8.6082,74.40766 6.8022,236 -1.0901,97.54045 -2.6427,137.35422 -7.2338,185.50002 -0.8129,8.525 -1.7103,18.2 -1.9942,21.5 -1.2881,14.97199 -1.8004,19.76639 -5.1287,47.99999 -3.184,27.0088 -3.4807,31.695 -2.976,47 0.3083,9.35 1.2197,20.825 2.0254,25.5 3.4869,20.2327 7.6949,43.6167 8.0979,45 0.9943,3.4125 5.4502,42.6185 6.4784,57 1.2405,17.3518 2.9161,73.1085 2.4596,81.8405 -0.1628,3.1127 -0.6648,27.9345 -1.1155,55.1595 -1.1118,67.1471 -0.8648,129.5601 0.5798,146.5 3.6138,42.3795 11.0817,76.7596 22.536,103.75 1.9846,4.6763 3.8575,4.7925 12.3664,0.7672 4.6077,-2.1798 9.0435,-5.6709 16.5,-12.9859 5.9384,-5.8258 12.5434,-11.2577 15.8129,-13.0045 l 5.6146,-2.9998 2.594,-9.3504 c 10.6804,-38.4996 16.9948,-76.1789 27.1782,-162.1766 14.7029,-124.1655 20.3466,-146.2359 62.2659,-243.5 36.4305,-84.5286 47.0843,-125.1654 64.232,-244.99999 15.7444,-110.0278 19.074,-127.93573 34.49,-185.50002 14.5582,-54.36165 21.1544,-83.61842 23.5605,-104.5 0.6655,-5.775 1.342,-11.175 1.5035,-12 0.1615,-0.825 0.328,-1.76627 0.3701,-2.09171 0.042,-0.32544 1.989,-1.16404 4.3265,-1.86354 6.02,-1.80149 13.2363,-5.61904 28.897,-15.28693 25.845,-15.95499 42.3737,-18.42244 61.7642,-9.22036 22.0403,10.4595 51.7489,39.326 68.7359,66.78751 9.9319,16.05624 15.6121,33.4854 20.7516,63.67503 4.4819,26.3263 5.1056,36.67049 5.0347,83.5 -0.078,51.62256 -0.9393,62.16947 -9.4312,115.50002 -2.6459,16.6168 -12.8079,64.4369 -19.9754,93.99999 -16.3087,67.2666 -17.5904,73.865 -25.4458,131 -1.399,10.175 -3.9155,29.3 -5.5923,42.5 -3.6728,28.9132 -3.0646,24.9394 -13.4704,88 -4.6287,28.05 -11.1691,67.875 -14.5342,88.5 -9.1155,55.8684 -15.7913,91.3334 -25.1295,133.5 -7.3299,33.0979 -7.9084,36.166 -12.3493,65.5 -5.8427,38.5932 -10.9162,66.8769 -15.4265,86 -1.1026,4.675 -3.1114,14.575 -4.4639,22 -7.7118,42.3357 -4.5521,63.0278 12.0863,79.1499 8.8127,8.5393 24.7282,16.7968 29.4814,15.2959 4.2963,-1.3565 15.7358,-8.9016 23.4182,-15.4458 24.3142,-20.7118 41.6441,-52.7393 58.8072,-108.6812 3.0067,-9.8003 8.8434,-28.8562 12.9704,-42.3463 4.1269,-13.4901 9.0389,-28.7818 10.9155,-33.9816 l 3.412,-9.4541 21.1327,-16.0184 21.1327,-16.0184 15.0422,-22.5 c 8.2732,-12.375 18.7422,-27.7728 23.2643,-34.2173 33.182,-47.2872 49.6915,-72.1936 62.5128,-94.3071 7.6669,-13.2234 21.2227,-39.8848 27.4364,-53.9614 12.5151,-28.352 15.5323,-35.3983 20.9881,-49.0142 13.9741,-34.8747 23.411,-60.6867 42.7585,-116.9531 l 13.7381,-39.9532 6.3942,-3.8674 c 3.5167,-2.1271 10.5041,-6.9869 15.5275,-10.7996 12.7459,-9.6741 19.3008,-13.4158 26.8037,-15.3005 24.9725,-6.2729 53.435,5.4226 69.9957,28.7619 24.8401,35.0075 33.8706,98.2231 24.5038,171.5309 -3.6838,28.8304 -9.7932,47.9033 -30.4562,95.081 -8.1164,18.5313 -16.7287,42.5093 -17.9602,50.0035 -0.6189,3.7666 -1.9065,5.714 -7.9323,11.9965 -17.0076,17.7321 -28.2056,36.4391 -47.5886,79.5 -3.9611,8.8 -15.4307,32.875 -25.4878,53.5 -18.9125,38.7853 -27.4074,56.6636 -42.7634,90 -4.9403,10.725 -11.7984,25.575 -15.2402,33 -39.9783,86.2455 -43.793,94.4151 -52.9121,113.3169 -4.7277,9.7994 -8.5958,18.029 -8.5958,18.2881 0,0.6578 -39.978,80.552 -43.9815,87.895 l -3.2713,6 -0.1846,66.5 c -0.1884,67.8429 -0.4698,74.8082 -5.0786,125.7113 -1.9481,21.5164 -5.0659,47.5157 -7.5296,62.7887 -1.0646,6.6 -2.6297,16.7079 -3.4779,22.4619 -1.9194,13.0214 -3.6304,19.6732 -12.4853,48.5381 -11.0307,35.9577 -12.0578,45.2664 -12.4671,113 -0.1731,28.6435 -0.7826,54.0417 -1.427,59.4626 -3.504,29.4784 -10.9079,73.1832 -24.74,146.0374 -8.2083,43.2334 -13.7844,73.1582 -21.3358,114.5 -9.5987,52.5508 -16.4358,82.7934 -24.5025,108.3822 -8.0213,25.4449 -13.5066,37.4796 -28.3677,62.2392 -18.8969,31.4836 -24.9849,44.8232 -29.2149,64.014 -1.0769,4.8854 -3.0155,22.6896 -4.4645,41 -2.4998,31.5904 -5.5684,54.3878 -12.5673,93.3646 -6.6379,36.9671 -13.1788,59.1447 -27.4283,93 -22.9847,54.6089 -29.9925,75.5224 -33.6758,100.5 -1.4947,10.1364 -1.6435,42.3063 -0.414,89.5 1.0654,40.8925 0.8647,43.164 -8.0845,91.5 l -6.5726,35.5 -0.6689,31 c -0.6107,28.305 -0.8564,31.509 -2.8257,36.8546 -3.059,8.3037 -8.1344,14.7103 -14.3609,18.1275 l -2.6262,1.4413 -0.6153,-4.7117 c -1.7147,-13.131 -2.6326,-35.978 -2.6436,-65.7987 -0.013,-34.5285 0.4608,-46.2323 4.508,-111.413 1.3489,-21.725 2.921,-53.1616 3.4934,-69.8591 0.5724,-16.6974 1.7185,-34.871 2.5468,-40.3857 3.1858,-21.2107 9.7258,-43.4626 25.4979,-86.7552 16.8043,-46.1257 24.3757,-71.082 30.9456,-102 3.3119,-15.586 10.0933,-55.8833 12.9578,-77 5.8618,-43.2113 12.7938,-77.8217 21.4979,-107.3366 5.7976,-19.6589 9.5255,-29.976 24.0848,-66.6557 12.7703,-32.1723 15.2805,-39.003 21.5014,-58.5077 12.6247,-39.583 27.4288,-105.8205 37.8831,-169.5 16.7518,-102.0381 21.7416,-137.9363 29.6071,-213 3.8724,-36.9563 9.1041,-67.9147 23.9119,-141.5 17.0379,-84.6668 21.9356,-118.9039 23.2461,-162.5 1.8024,-59.957 -10.3409,-118.0856 -33.5291,-160.5 l -3.8269,-7 -4.6353,0.062 c -2.5495,0.034 -4.9509,0.3769 -5.3365,0.7625 -0.3856,0.3856 0.1102,2.383 1.1017,4.4386 4.6828,9.7087 3.7598,11.7328 -3.9992,8.7696 -8.1515,-3.1131 -11.9968,-10.9335 -13.1151,-26.673 l -0.614,-8.6408 -7.108,-5.8944 c -9.2411,-7.6633 -21.8536,-17.1884 -50.108,-37.842 -31.8385,-23.2735 -48.4814,-36.6364 -63.5,-50.9856 -3.575,-3.4156 -7.6126,-6.9496 -8.9725,-7.8533 -3.2938,-2.1889 -7.8639,-2.0726 -14.0275,0.3569 -2.7907,1.1 -7.0221,2 -9.403,2 h -4.329 l -2.2259,-6.25 c -2.9834,-8.3773 -6.9597,-14.2161 -18.3352,-26.9236 -5.2551,-5.8704 -10.0879,-11.6699 -10.7396,-12.8876 -2.1048,-3.9327 0.1261,-40.3353 4.0589,-66.2343 5.0596,-33.3191 7.9665,-46.3824 29.5301,-132.7045 20.8176,-83.3361 26.7271,-111.666 32.541,-156 1.906,-14.5347 2.0938,-19.4233 1.5763,-41.0432 -0.7992,-33.3899 0.5998,-42.9471 14.3393,-97.9568 18.6051,-74.4907 19.9459,-84.6566 16.9385,-128.4225 -1.386,-20.1683 -0.8249,-37.1684 1.5207,-46.0775 1.9492,-7.4037 7.7501,-19.7323 15.6746,-33.3132 14.6615,-25.12639 17.7868,-35.55409 17.889,-59.68679 0.1066,-25.1391 1.4931,-36.3175 9.4268,-76.00002 11.1165,-55.60197 12.9673,-68.65369 14.1807,-100 1.1353,-29.32708 -3.0485,-55.74215 -14.1079,-89.0726 -15.9886,-48.1858 -42.3758,-80.68531 -70.2007,-86.46173 -7.9272,-1.64569 -20.5265,-0.74789 -27.5813,1.96537 -10.6947,4.11317 -17.1522,11.54674 -28.2924,32.56896 -6.1839,11.66936 -10.1862,17.91784 -15.134,23.6278 -4.6696,5.38895 -5.2505,7.5112 -13.8969,50.77472 -5.4421,27.23056 -11.9805,67.23885 -16.9304,103.59748 -13.2433,97.27632 -21.673,146.30602 -31.3773,182.50001 -5.8483,21.8126 -16.5647,56.0983 -30.9906,99.1505 -7.1231,21.2577 -13.7172,41.9577 -14.6535,46 -7.0006,30.2209 -9.4319,37.8828 -19.4357,61.2502 -16.9508,39.5944 -26.0761,65.0563 -32.9978,92.0717 -5.9675,23.291 -10.1778,49.3824 -16.5446,102.5276 -11.6235,97.0245 -20.4796,140.106 -38.0298,185 -2.9027,7.425 -6.4402,16.0875 -7.8613,19.25 l -2.5838,5.75 h -15.0126 c -9.3417,0 -15.0126,0.3777 -15.0126,1 0,0.55 0.1643,1 0.3652,1 0.6447,0 42.522,14.6318 61.6348,21.535 10.175,3.6751 27.275,9.7256 38,13.4456 23.276,8.0735 30.3734,10.9941 39,16.049 10.3363,6.0568 19.077,15.7269 21.476,23.7595 0.5981,2.0029 0.3924,2.2257 -1.6462,1.7818 -22.4189,-4.8808 -42.9707,-11.6426 -88.049,-28.9691 -37.2588,-14.321 -67.5997,-22.5881 -82.9392,-22.5986 -4.5851,0 -4.8527,-0.1894 -17,-11.8317 -16.0492,-15.382 -25.1234,-23.5315 -30.5059,-27.3969 -3.0313,-2.1769 -4.6438,-4.2117 -5.3098,-6.7004 -4.2568,-15.9074 -7.3697,-34.8161 -10.2191,-62.0742 -1.8777,-17.9627 -1.6293,-101.0082 0.474,-158.4674 3.7836,-103.3647 1.0008,-152.513 -11.4677,-202.5326 l -4.1129,-16.5 1.6666,-16 c 3.9034,-37.473 6.1965,-71.7435 7.1597,-107 0.3005,-11 0.8249,-22.925 1.1653,-26.5 0.9968,-10.46779 1.1549,-410.77679 0.1698,-430.00001 -1.8232,-35.58058 -8.8638,-61.79123 -22.637,-84.2723 -4.758,-7.76622 -13.3542,-13.02039 -31.6203,-19.32687 -43.1472,-14.89687 -80.8021,12.08016 -105.5223,75.59917 -15.1028,38.8068 -23.1594,84.42936 -27.0189,153 -1.236,21.95941 -2.763,77.09845 -3.5586,128.5 -0.9473,61.20472 -3.4203,117.52522 -6.5643,149.50002 -0.5678,5.775 -3.4772,22.64999 -6.4652,37.49999 -2.988,14.85 -7.2591,38.025 -9.4913,51.5 -4.0069,24.1889 -5.3037,31.3765 -9.021,50 -2.6226,13.1393 -5.751,32.3145 -6.4443,39.5 -0.3184,3.3 -0.7889,7.35 -1.0455,9 -1.6828,10.819 -3.579,41.2841 -4.1079,66 -0.6749,31.534 0.2286,58.3027 4.1512,123 6.4979,107.1697 7.0971,124.3425 5.5312,158.5 -0.9706,21.1712 -4.1841,56.4046 -5.5635,61 -1.1295,3.7625 -3.3376,18.4785 -2.845,18.9609 1.2577,1.2319 27.2362,0.072 45.8611,-2.0468 14.9337,-1.6993 25.9529,-2.2933 43.5,-2.345 21.2347,-0.062 24.2939,0.1442 31.736,2.1432 4.5298,1.2168 10.7297,3.4334 13.7776,4.9258 5.7674,2.824 13.1304,9.8391 15.8528,15.1036 1.4765,2.8552 1.4529,3.2183 -0.3591,5.5219 -4.7792,6.0757 -14.8594,6.1343 -35.0073,0.2036 -6.875,-2.0237 -14.075,-4.1073 -16,-4.6302 -1.925,-0.5228 -5.3,-1.469 -7.5,-2.1026 -6.7729,-1.9505 -47.8811,-1.5702 -61.3703,0.5678 -23.8419,3.7789 -50.7555,11.6714 -70.6297,20.7125 -6.2702,2.8525 -7.6776,3.1267 -13.5,2.6306 -21.5791,-1.8385 -38.4068,-11.9272 -50.6926,-30.3916 -7.0616,-10.6129 -13.5856,-25.7176 -24.2969,-56.2537 -4.5337,-12.925 -9.0969,-25.1815 -10.1403,-27.2366 -1.0434,-2.0551 -4.822,-7.3299 -8.3969,-11.7219 -11.3934,-13.9975 -11.8777,-15.4269 -13.3993,-39.5415 -0.9815,-15.5551 -0.5015,-13.9466 -13.5796,-45.5 -4.2173,-10.175 -11.0056,-27.275 -15.0852,-38 -8.3928,-22.0645 -12.5732,-30.924 -25.008,-53 -15.981,-28.3716 -19.5913,-38.0021 -24.4774,-65.2954 -6.8569,-38.301 -8.4495,-42.4567 -43.1922,-112.7046 -27.3299,-55.2595 -31.8235,-65.4812 -42.2624,-96.1353 -15.1798,-44.5756 -20.1884,-66.27079 -30.0962,-130.36469 -1.7239,-11.1514 -6.2347,-30.0582 -9.2055,-38.5843 -3.5076,-10.0665 -9.0872,-20.2392 -17.0822,-31.14466 -4.3261,-5.90092 -10.3512,-14.90092 -13.3891,-20 -5.0332,-8.44884 -18.6963,-34.97278 -18.6963,-36.29538 0,-2.13197 -25.08657,-50.82529 -30.07217,-58.37033 -10.9217,-16.52865 -24.1899,-28.79386 -37.5313,-34.69406 -4.7341,-2.09364 -6.9724,-2.41179 -16.9672,-2.41179 -30.4311,0 -47.9668,10.41677 -57.2358,34 -10.1984,25.94786 -9.3978,74.3558 2.2981,138.95335 1.8656,10.30417 3.6402,19.81747 3.9435,21.14077 0.3032,1.3232 3.2787,14.3309 6.6122,28.9059 5.2225,22.8347 13.1063,54.0948 26.481,104.99999 24.7524,94.2101 33.4948,134.4208 39.8953,183.5 4.867,37.3202 9.7115,63.2201 14.1222,75.5 1.4816,4.125 8.6836,19.425 16.0044,34 7.3208,14.575 14.4622,30.2209 15.8698,34.7686 2.48667,8.0344 2.52777,8.615 1.45107,20.5 l -1.10807,12.2314 5.03407,14 c 6.8665,19.0961 22.6505,58.3478 29.9582,74.5 5.3335,11.7887 29.8883,70.6188 36.5882,87.6606 21.8946,55.6908 33.3195,95.3949 39.2319,136.3394 2.1176,14.6651 1.4294,43.5088 -1.4914,62.5 -7.8098,50.7812 -8.8348,62.0743 -9.3941,103.5 -0.4255,31.5151 0.6219,63.4849 4.1105,125.4606 l 2.6996,47.9607 3.5,0.8393 c 6.8974,1.6539 27.0532,1.2382 33.5,-0.691 13.1853,-3.9457 18.9124,-7.926 36.3859,-25.2881 l 16.3858,-16.2815 h 12.9064 c 21.1374,0 35.8395,-4.3451 42.6473,-12.6043 l 3.0341,-3.6808 30.8203,7.2401 c 69.4819,16.3221 115.3031,29.8248 151.8203,44.7386 16.264,6.6422 43.2287,19.8916 58.23,28.6118 7.2562,4.218 23.6729,12.8251 36.4815,19.1268 36.5735,17.9938 42.2778,22.3543 62.7041,47.9312 21.3205,26.6967 26.2114,30.7261 64.5844,53.2091 31.3264,18.3544 46.5452,31.2406 55.6489,47.1196 2.8333,4.9421 3.2507,5.2464 8.6639,6.3174 10.3825,2.0542 19.5667,5.2141 30.6872,10.5584 16.2335,7.8014 22.7788,12.3479 39.6088,27.5126 l 9.6088,8.6581 7.8912,0.6919 c 18.7296,1.6422 32.3731,5.0079 40.1171,9.8965 7.5281,4.7523 13.2741,14.2193 13.2741,21.8702 0,2.4335 -0.3227,2.7663 -2.25,2.321 -1.2375,-0.2859 -5.4,-1.23 -9.25,-2.0979 -23.4293,-5.2817 -46.5009,-15.5317 -91,-40.4284 -19.0712,-10.6701 -23.1051,-12.4819 -38.9572,-17.4967 -21.044,-6.6573 -22.0987,-7.4011 -34.0259,-23.9952 -8.5508,-11.8967 -8.3009,-11.6106 -13.7859,-15.7837 -3.1854,-2.4235 -8.4409,-4.8154 -15.8257,-7.2028 -19.7771,-6.3935 -21.2753,-7.4627 -24.7958,-17.6951 -3.8601,-11.2196 -4.6915,-12.0013 -28.4671,-26.7638 -15.6605,-9.7237 -20.0161,-12.8496 -39.1424,-28.092 -25.5386,-20.3525 -41.1791,-31.3779 -69,-48.64 -30.3414,-18.826 -46.2414,-27.0118 -71.5461,-36.8341 -7.9496,-3.0858 -17.3029,-7.2005 -20.785,-9.1438 -20.0778,-11.2051 -20.4843,-11.3003 -42.1968,-9.882 -14.8256,0.9684 -16.0314,0.5649 -25.6215,-8.575 -3.3821,-3.2234 -7.2944,-6.2961 -8.694,-6.8282 -4.3162,-1.641 -25.1901,-3.0366 -46.1566,-3.0859 -12.5407,-0.03 -22.6107,-0.5532 -27,-1.4041 l -7,-1.357 -8.5,4.6507 c -4.675,2.5579 -12.325,6.3928 -17,8.5221 -31.2833,14.248 -39.3827,18.9973 -49.2842,28.8988 -8.1086,8.1086 -14.3871,9.7683 -39.5695,10.4605 l -18.3536,0.5044 -5.2748,8.1255 c -14.0385,21.6252 -19.1221,38.865 -26.5759,90.1255 -3.8482,26.4642 -6.7144,40.7723 -11.5738,57.7753 -2.0081,7.0264 -3.4353,12.991 -3.1716,13.2548 1.1955,1.1954 12.038,-1.8813 19.3033,-5.4775 9.9424,-4.9214 17.2444,-11.7458 33.2261,-31.0526 6.6015,-7.975 13.3012,-15.6832 14.8883,-17.1294 5.2307,-4.7662 11.4149,-7.9683 16.5679,-8.5786 l 5.0474,-0.5978 -0.7333,5.4029 c -1.4507,10.6881 -5.971,20.2346 -15.5797,32.9029 -6.7136,8.8515 -13.9485,15.881 -34.9167,33.9259 -8.525,7.3365 -19.1,16.6091 -23.5,20.6058 -33.7056,30.6163 -49.809,38.6264 -77.5,38.5501 -17.84537,-0.049 -27.15447,-2.9609 -39.96097,-12.499 -13.2423,-9.8626 -62.4843,-58.2376 -83.539,-82.0681 -31.9848,-36.2017 -45.5626,-49.8471 -85.0133,-85.4368 -38.1719,-34.4361 -57.0546,-53.6986 -71.4867,-72.9241 -7.7016,-10.2597 -10.4216,-15.6563 -17.5309,-34.7821 -6.2159,-16.7222 -10.7868,-26.3878 -13.8148,-29.2128 -1.1849,-1.1054 -3.718,-2.1559 -5.6291,-2.3344 -3.1576,-0.2949 -3.6423,-0.7769 -5.3084,-5.2793 -4.9076,-13.2619 -19.6479,-27.6787 -45.7578,-44.7535 -8.4849,-5.5489 -38.968,-24.4724 -65.1161,-40.4233 -40.9446,-24.9771 -75.7255,-37.6259 -117.9174,-42.8833 l -13.5746,-1.6914 -9.4254,3.0114 c -35.8316,11.448 -60.5743,14.805 -102.5353,13.9116 l -26.1097,-0.5558 -9.1716,7.2011 c -5.0444,3.9606 -10.4972,9.2034 -12.1173,11.6507 -7.243,10.9406 -6.1138,27.6171 2.5654,37.8874 5.292,6.262 11.3779,9.4408 41.1206,21.4781 23.1357,9.3633 38.2272,18.7187 56.8711,35.2549 6.0232,5.3424 14.1013,12.4983 17.9513,15.902 11.9674,10.5802 25.7753,18.4649 32.3362,18.4649 2.4667,0 3.07,0.6767 5.1257,5.75 5.0347,12.4249 14.1816,25.785 34.2417,50.0137 11.225,13.5578 20.3456,26.4398 24.4393,34.5182 2.532,4.9968 4.6121,6.3485 10.4062,6.7623 10.5629,0.7545 13.5612,-1.6989 17.3812,-14.2226 2.7495,-9.0141 5.225,-12.3365 10.1596,-13.6353 4.7496,-1.2501 6.8295,-0.3439 9.5508,4.1615 5.9839,9.9067 6.193,18.46 0.7572,30.9746 -5.9387,13.6721 -8.8979,20.8886 -8.8979,21.6983 0,0.4475 2.3216,1.3115 5.159,1.92 10.7659,2.3089 20.1659,8.6767 24.3919,16.524 1.6504,3.0646 2.3953,3.5353 5.5947,3.5353 7.1737,0 8.848,-2.085 11.3941,-14.1887 0.8407,-3.9966 2.1608,-8.2314 2.9335,-9.4107 1.406,-2.1459 5.679,-3.6268 7.2122,-2.4996 0.448,0.3295 0.8464,6.224 0.8854,13.099 0.1637,28.9247 6.7144,40.4141 39.1603,68.6844 20.9518,18.2553 28.0116,26.9808 42.7334,52.8156 9.6442,16.9243 15.9764,26.0422 23.0587,33.2025 l 6.1349,6.2026 1.7302,9.7974 c 10.2981,58.3145 34.322,115.3926 68.5206,162.7975 7.0315,9.7468 21.2594,27.5743 27.1348,34 2.0117,2.2 6.7069,7.375 10.434,11.5 9.3569,10.356 10.7048,10.9747 23.5223,10.7964 7.3144,-0.1018 11.385,0.2862 13.4171,1.2788 2.2735,1.1105 7.872,9.6976 25.3775,38.9248 28.131,46.9677 80.2046,135.9675 97.7112,167 7.2915,12.925 18.093,32.05 24.0035,42.5 9.46077,16.7272 25.72077,46.229 52.85327,95.8959 4.6293,8.4741 9.6463,16.2833 11.6374,18.1142 1.925,1.7701 6.425,5.8251 10,9.0111 3.575,3.186 15.7314,14.8346 27.0141,25.8858 50.8956,49.8508 66.2869,62.4746 95.0607,77.9679 15.6616,8.433 40.0449,17.0787 58.2492,20.6538 4.5306,0.8898 5.6949,1.4801 5.2428,2.6581 -1.4165,3.6913 -5.5239,7.4964 -11.1846,10.3614 -8.2002,4.1502 -20.4029,5.0127 -34.9048,2.4672 -10.2687,-1.8024 -33.6786,-9.0469 -40.5311,-12.5428 -5.2212,-2.6637 -7.1213,-2.5823 -6.4792,0.2774 0.637,2.8364 5.1185,39.7848 6.5194,53.75 2.9274,29.1817 2.1308,65.4164 -1.9649,89.3735 -3.1238,18.2725 -7.2001,32.9502 -17.948,64.6265 -10.4031,30.6598 -14.8156,46.5123 -17.6753,63.5 -2.0253,12.031 -2.2095,42.6395 -0.4573,75.986 1.2344,23.4914 0.9831,30.0629 -1.9886,52.014 -6.0893,44.9786 -19.3733,88.5557 -38.4099,126 -7.0959,13.9575 -15.0702,27.5 -16.1928,27.5 -0.202,0 -0.107,-2.5875 0.211,-5.75 z m 1174.5066,-1704.488 c 4.9256,-11.7634 19.9619,-41.5402 36.7423,-72.762 22.471,-41.8099 28.5661,-55.8342 48.6764,-112 25.2563,-70.5384 28.6619,-77.4959 54.6256,-111.596 22.3462,-29.349 26.7959,-37.9614 40.7672,-78.904 5.4428,-15.95 10.8825,-31.475 12.0882,-34.5 5.4347,-13.6353 12.2997,-24.2352 28.4143,-43.8731 7.1399,-8.7009 11.1128,-14.8097 16.9093,-26 37.2484,-71.909 57.5294,-149.9483 53.7073,-206.6601 -1.1728,-17.4006 -4.5795,-35.139 -9.5114,-49.5252 -7.5631,-22.0608 -25.8989,-54.8856 -30.718,-54.9914 -1.2476,-0.027 -8.5208,-0.01 -16.1627,0.049 -13.2778,0.094 -13.975,0.201 -15.7161,2.4144 -1.002,1.2738 -3.0746,2.8463 -4.6057,3.4943 -1.8166,0.7688 -5.2712,4.8986 -9.942,11.8853 -16.5727,24.7895 -23.2772,39.4782 -39.805,87.2072 -35.9561,103.8343 -58.8063,159.5424 -79.7259,194.3696 -10.3143,17.1714 -13.7379,21.5224 -36.6366,46.56 -17.0422,18.6341 -24.4016,27.8351 -42.4482,53.0704 -8.0631,11.275 -19.2137,25.45 -24.7791,31.5 -17.4322,18.9502 -23.9768,28.605 -33.215,49 -6.5512,14.4628 -9.7867,23.3732 -23.2997,64.1657 -19.5406,58.9881 -28.3283,77.8028 -44.994,96.3337 -14.6646,16.306 -19.949,24.6983 -22.1839,35.231 -0.7165,3.377 -0.6819,5.119 0.1209,6.0887 2.4553,2.9656 49.7149,45.2156 67.9655,60.7611 1.5625,1.3309 17.5375,15.3028 35.5,31.0487 17.9625,15.7459 32.9449,28.4638 33.2942,28.262 0.3493,-0.2018 2.5687,-4.9848 4.9321,-10.6289 z m -19.5999,-35.7981 c -1.0134,-1.1198 -6.2176,-4.9579 -11.5648,-8.529 -12.6766,-8.466 -17.6691,-14.023 -20.2365,-22.5243 -0.264,-0.8742 -5.5844,-4.4083 -11.823,-7.8535 -14.9035,-8.2303 -23.9494,-15.0271 -30.3872,-22.8319 -5.7152,-6.9288 -10.2841,-14.7303 -9.2389,-15.7755 0.7294,-0.7293 21.9102,7.4012 35.1985,13.5114 13.543,6.2273 22.1833,11.6973 29.8162,18.876 12.7264,11.969 18.4222,23.6721 21.1286,43.4129 0.5793,4.2255 -0.2013,4.688 -2.8929,1.7139 z m 107.0327,-229.8856 c -3.3,-2.9002 -14.775,-11.9459 -25.5,-20.1015 -23.6771,-18.0048 -36.2299,-28.8842 -43.5082,-37.7079 -3.0205,-3.6619 -5.4918,-6.9533 -5.4918,-7.3141 0,-0.3609 2.2388,-0.3022 4.9751,0.1303 27.9571,4.4195 53.2285,19.4219 66.1483,39.2691 5.702,8.7593 10.5347,23.0976 9.7012,28.7829 -0.2974,2.0287 -0.8274,1.7724 -6.3246,-3.0588 z m 96.5453,-215.2773 c -6.7189,-1.1563 -13.9186,-5.0956 -23.7098,-12.9728 -7.6727,-6.1729 -14.109,-9.9788 -20.5855,-12.1726 -1.7786,-0.6025 -2.1725,-3.2896 -1.7621,-12.0204 0.1686,-3.5878 3.3342,-12.6352 4.4209,-12.6352 0.2639,0 2.1158,1.4987 4.1152,3.3304 1.9995,1.8317 9.337,6.8819 16.3057,11.2226 6.9687,4.3407 14.7433,9.9562 17.277,12.4787 5.2555,5.2324 9.1665,14.1955 8.6925,19.9212 l -0.2992,3.6148 z m -712.3166,1932.8399 c -3.7242,-1.2691 -8.0692,-3.551 -9.6556,-5.0709 -3.3104,-3.1716 -5.3534,-9.9184 -4.4187,-14.5921 l 0.6393,-3.1966 5.1032,0.6608 c 11.7339,1.5194 18.1578,7.8436 19.3104,19.0107 0.5518,5.3468 0.4862,5.5463 -1.8174,5.5214 -1.3144,-0.014 -5.437,-1.0642 -9.1612,-2.3333 z m -218.2287,-9.6169 c -8.6546,-2.225 -14.8585,-7.1509 -16.6854,-13.2483 -1.1548,-3.8545 -1.0844,-4.1469 1.5435,-6.4073 4.9014,-4.216 10.246,-2.9113 20.0709,4.8996 2.7891,2.2174 7.0151,4.8992 9.3913,5.9597 4.0892,1.8249 4.2451,2.0442 2.9158,4.1002 -3.0125,4.6589 -9.988,6.5595 -17.2361,4.6961 z m 234.5,-47.1862 c -14.0571,-1.6872 -21.7779,-1.4972 -32.25,0.7938 -3.594,0.7862 -3.5223,-0.6824 0.2427,-4.9705 10.4188,-11.8664 37.3437,-10.7607 45.6219,1.8734 0.8654,1.3208 1.4186,2.7709 1.2294,3.2225 -0.1892,0.4516 -6.869,0.038 -14.844,-0.9192 z m -262,-7.0649 c 0,-5.0405 3.6682,-9.7908 10.0275,-12.9857 9.9872,-5.0174 22.9859,-5.7467 38.9768,-2.1867 6.748,1.5023 17.4445,6.8643 16.5572,8.3 -1.0212,1.6523 -12.4198,4.0381 -26.5615,5.5596 -7.975,0.858 -18.5585,1.9959 -23.5189,2.5287 -4.9604,0.5328 -10.4729,1.2596 -12.25,1.615 -3.1459,0.6292 -3.2311,0.5545 -3.2311,-2.8309 z m 221.9978,-29.9042 c 0,-2.0915 5.351,-7.3318 9.4848,-9.2934 10.6921,-5.0738 29.9226,-6.2383 41.904,-2.5376 7.1197,2.199 14.6127,8.2043 14.6141,11.7123 6e-4,1.6169 -0.8668,1.6817 -11.4088,0.8512 -6.7498,-0.5317 -20.2281,-0.5317 -33.0028,0 -19.6679,0.8187 -21.5933,0.7533 -21.5913,-0.7325 z m -211.4518,-11.0767 c 1.6162,-5.2367 3.6522,-7.7117 8.1767,-9.9396 4.6539,-2.2916 5.3821,-2.3461 28.1876,-2.1088 12.8757,0.134 23.6757,0.5164 24,0.8497 0.3243,0.3334 -1.2882,2.2792 -3.5835,4.3241 -5.2174,4.6483 -13.3905,6.7918 -28.8268,7.56 -6.05,0.3011 -14.9738,0.7857 -19.8307,1.077 l -8.8308,0.5296 z m 262.2304,-11.2711 c -2.598,-0.7151 -7.098,-2.6381 -10,-4.2732 l -5.2764,-2.9729 -9,3.4755 c -11.946,4.6132 -18.9244,5.2632 -24.2674,2.2603 -2.2179,-1.2466 -4.9546,-3.9505 -6.1487,-6.0751 -2.0366,-3.6236 -2.0563,-3.8788 -0.3679,-4.7626 6.3691,-3.3341 25.4397,-4.1265 41.284,-1.7155 18.7728,2.8567 39,7.2584 39,8.487 0,1.2676 -4.433,4.897 -7.3151,5.989 -3.7018,1.4025 -12.0099,1.2112 -17.9085,-0.4125 z m -274.5264,-9.9461 c -3.6764,-1.6722 -3.879,-2.4577 -1.7141,-6.6442 3.2022,-6.1924 14.1104,-11.7882 28.3021,-14.5188 13.8564,-2.666 39.4378,-1.5828 52.912,2.2405 4.4401,1.2598 5.25,1.8557 5.25,3.8629 0,1.3053 -1.0318,3.5728 -2.2929,5.0389 -2.2114,2.5709 -2.6111,2.6546 -11.25,2.3549 -16.2475,-0.5637 -18.8222,-0.2566 -33.9571,4.0506 -17.2968,4.9225 -31.3724,6.2885 -37.25,3.6152 z m 264.25,-23.6686 c -3.3,-0.4674 -10.3947,-1.8354 -15.766,-3.0399 -10.9292,-2.4508 -10.7718,-2.1959 -6.3756,-10.3276 4.867,-9.0025 13.5515,-11.1548 29.2081,-7.2387 5.4634,1.3666 15.4601,4.3945 22.2149,6.7287 11.9369,4.125 12.2426,4.3033 10.8976,6.3577 -2.1864,3.3392 -7.3196,6.3708 -12.7648,7.5386 -5.7476,1.2326 -18.6419,1.2238 -27.4142,-0.019 z m -417.5,-19.4017 c -58.4765,-6.5713 -98.9578,-24.2582 -116.0507,-50.7042 -3.7574,-5.8133 -7.9494,-16.4215 -7.9494,-20.1164 0,-1.822 0.1235,-1.8372 2.25,-0.276 24.1208,17.7079 51.3201,30.6042 83.679,39.6755 29.935,8.3917 55.6345,12.3765 95.0141,14.7321 l 11.443,0.6845 -3.2785,3.7295 c -4.1035,4.6677 -13.4783,9.3354 -22.6075,11.2561 -10.4457,2.1978 -28.2183,2.6238 -42.5,1.0189 z m -2.5,-46.1398 c -1.1,-0.2219 -4.7,-0.9274 -8,-1.5679 -15.9357,-3.093 -29.3539,-11.4636 -37.6144,-23.4649 l -2.869,-4.1681 3.1939,-2.6875 c 4.7912,-4.0315 11.2494,-3.1899 25.2895,3.2955 6.05,2.7947 13.5126,5.5351 16.5835,6.09 13.1836,2.3818 35.9486,3.4135 61.9165,2.8059 35.3497,-0.8271 65.8896,-3.913 115.5,-11.6709 26.9518,-4.2146 38.5457,-5.5496 56.5,-6.5056 32.1805,-1.7135 56.9222,-3.8051 72.3637,-6.1173 12.065,-1.8067 23.0551,-2.7167 37.1363,-3.075 27.427,-0.6978 44.6832,1.0173 108.5,10.7841 45.5018,6.9639 55.8559,8.0813 80,8.6342 28.1076,0.6436 37.4382,-0.3464 50.3887,-5.3463 5.0112,-1.9347 11.3613,-4.1749 14.1113,-4.9783 4.9425,-1.4438 20.0356,-2.1903 21.1785,-1.0475 1.1427,1.1427 -2.0061,6.8028 -5.075,9.1224 -1.7069,1.2902 -6.8322,3.7768 -11.3894,5.5257 -5.389,2.0681 -9.4468,4.3752 -11.6065,6.599 l -3.3206,3.4191 -47.0124,0.568 c -25.8568,0.3124 -48.3089,0.718 -49.8935,0.9013 -5.5845,0.646 -41.9744,-1.4288 -49.3811,-2.8155 -4.125,-0.7723 -16.95,-3.6822 -28.5,-6.4663 -40.1841,-9.6865 -43.4821,-9.6381 -84.361,1.2389 -11.3515,3.0204 -24.5107,5.962 -29.2428,6.5369 -8.0505,0.9781 -9.1759,0.8755 -17.5,-1.5947 -4.8929,-1.452 -10.9212,-2.625 -13.3962,-2.6067 -2.475,0.018 -23.85,2.7943 -47.5,6.1688 -51.105,7.292 -71.015,9.0541 -102.4772,9.0695 -13.6176,0.01 -34.8922,0.8479 -50.5228,1.9977 -23.9086,1.7588 -57.4241,2.4799 -63,1.3555 z m 152.5,-154.1246 c -6.44,-0.4781 -10,-1.3218 -10,-2.3697 0,-0.5714 8.2125,-9.2224 18.25,-19.2244 19.2328,-19.1648 23.0986,-24.3132 27.2648,-36.3114 3.2789,-9.4426 4.5237,-20.7178 5.5018,-49.8346 1.2767,-38.0049 0.389,-76.8486 -3.0281,-132.5 -2.6668,-43.4317 -3.0706,-55.8187 -2.8852,-88.5 l 0.2157,-38 -2.7256,-5.7342 c -4.2167,-8.8713 -6.5242,-18.1695 -7.7594,-31.2658 -1.1884,-12.6006 -0.3608,-37.5 1.2464,-37.5 1.0909,0 4.9196,7.3624 4.9196,9.4602 0,2.9439 1.7382,1.5138 3.3777,-2.779 4.4028,-11.5288 5.0064,-18.4614 5.022,-57.6812 0.011,-28.7074 -0.3959,-41.4723 -1.7373,-54.4417 -1.8534,-17.9201 -2.6211,-20.6455 -10.7901,-38.3057 -6.67,-14.4197 -7.2178,-17.4693 -6.418,-35.7308 l 0.7053,-16.1031 -3.5185,-12.4594 c -13.2616,-46.9616 -34.2225,-88.1835 -64.6411,-127.1241 -8.7499,-11.2013 -34.5014,-36.967 -45,-45.025 -18.3202,-14.0611 -38.8819,-25.9951 -54.75,-31.7768 -6.5474,-2.3856 -7.4343,-3.6516 -4.4504,-6.3521 7.4398,-6.7328 29.9251,-5.9587 52.7004,1.8145 18.2532,6.2298 25.7808,12.4267 43.1426,35.5158 5.5784,7.4186 12.5534,15.9141 15.5,18.8788 5.4123,5.4456 15.4003,11.1073 19.5974,11.1088 3.9073,0 12.9268,19.8665 31.5555,69.5008 16.5003,43.9631 23.315,60.7605 31.7887,78.356 7.6513,15.8877 7.8485,16.4823 6.8877,20.7693 -0.5439,2.4273 -1.0116,10.1622 -1.0392,17.1887 -0.05,12.6343 1.0988,21.5304 6.0911,47.186 6.8586,35.2462 7.3432,41.2807 6.6651,82.9875 -0.3176,19.5319 -1.5236,49.2375 -2.68,66.0125 -2.6691,38.7169 -3.7015,100.0177 -2.0883,124 0.9922,14.7511 4.7863,56.201 6.5905,72 3.4976,30.6274 4.3302,70.3309 1.9687,93.8786 -6.2248,62.0713 -23.3806,104.4094 -47.1984,116.4788 -5.3456,2.7088 -12.7919,4.2903 -18.2814,3.8827 z m 639.5,-759.5998 c -28.1772,-13.1875 -58.0783,-35.5493 -71.4987,-53.4709 -3.6244,-4.84 -5.5678,-6.4401 -10,-8.2333 -9.8397,-3.9812 -14.0684,-5.9727 -46.0013,-21.6645 -52.6033,-25.8493 -63.8452,-30.0511 -98.4276,-36.7889 -25.6137,-4.9904 -32.2267,-6.7089 -44.0561,-11.4488 -9.1375,-3.6612 -29.9321,-14.0969 -39.5163,-19.8311 -56.0731,-33.5484 -63.3428,-36.9057 -94.5,-43.643 -23.5765,-5.098 -27.2113,-6.5287 -47,-18.4994 -23.2804,-14.0829 -31.4346,-17.8117 -55.5,-25.3791 -22.2663,-7.0016 -39.2456,-11.0575 -84.5,-20.1842 -29.6699,-5.9838 -53.0355,-11.4601 -68.7467,-16.1126 -2.8395,-0.8408 -6.7533,-8.5332 -6.7533,-13.2734 0,-3.8624 0.2887,-4.3338 3.4679,-5.6621 4.6013,-1.9226 20.2552,-1.8914 29.7167,0.059 9.5654,1.9719 20.509,7.4065 28.4075,14.107 l 6.3481,5.3852 6.7799,-0.9803 c 14.4182,-2.0849 29.8624,-0.8465 48.5632,3.8941 14.913,3.7803 26.8225,8.3291 53.2167,20.326 40.3079,18.3211 50.3918,22.693 60.7348,26.3317 9.8537,3.4665 10.646,3.5865 19.7652,2.9949 11.3983,-0.7395 12.6895,-0.1057 16.9404,8.3153 4.2909,8.5002 4.178,8.4521 17.881,7.6287 11.4626,-0.6887 12.0144,-0.6276 16.9591,1.878 10.2061,5.1719 22.9126,14.4362 44.8869,32.727 6.5342,5.4389 10.2683,7.8294 13,8.3222 26.4703,4.776 50.2929,11.1121 94.8326,25.2228 32.5795,10.3215 42.7362,13.3092 60.9307,17.9232 l 13.9307,3.5327 8.6104,8.1917 c 11.2251,10.6793 20.9645,17.2412 52.7311,35.5275 14.4116,8.296 28.5866,16.745 31.5,18.7757 21.42,14.93 35.6294,31.9617 41.9204,50.2469 1.0322,3.0001 1.8767,5.6093 1.8767,5.7982 0,0.7536 -1.7251,0.2185 -6.5,-2.0163 z m -606.9313,-489.5538 c -2.656,-2.9494 -13.7058,-10.1235 -22.1008,-14.3492 -10.8115,-5.442 -21.9178,-9.0029 -50.5377,-16.2035 -14.5366,-3.6573 -30.2552,-7.8014 -34.9302,-9.209 -15.4326,-4.6468 -33.303,-14.0307 -43.9208,-23.0633 -2.9268,-2.4898 -3.3981,-3.4916 -3.2631,-6.9364 0.087,-2.2145 1.3144,-6.5528 2.7281,-9.6406 l 2.5703,-5.6143 5.3961,4.3952 c 11.19,9.1144 26.3815,14.7574 68.4894,25.4408 15.125,3.8374 31.4899,8.3425 36.3665,10.0114 10.2123,3.4949 22.2884,9.7517 28.2744,14.6494 8.279,6.7739 13.791,18.4961 13.1659,27.9998 l -0.3068,4.6642 z m -370.3695,-22.0729 c -1.8155,-0.43 -3.543,-1.0239 -3.839,-1.3199 -0.7318,-0.7319 6.5109,-7.1732 13.9958,-12.4473 8.1117,-5.7157 26.2173,-14.4481 49.3477,-23.8006 24.2315,-9.7976 43.1377,-18.893 52.889,-25.4438 7.3727,-4.9528 7.9382,-5.1596 11.3336,-4.144 1.9655,0.588 7.8487,1.5519 13.0737,2.142 17.3984,1.965 20.8935,3.968 19.026,10.9035 -1.7334,6.4375 -4.4293,7.6525 -13.5262,6.0965 -4.0898,-0.6996 -8.982,-1.0212 -10.8714,-0.7146 -7.107,1.1534 -21.8431,8.5516 -49.6284,24.916 -33.2759,19.5981 -47.8287,24.8903 -67.9101,24.6962 -5.8245,-0.056 -12.0753,-0.4541 -13.8907,-0.884 z m 803.174,-37.6857 c -5.8237,-5.8607 -9.0236,-8.0959 -17.5,-12.2244 -11.57,-5.6353 -15.6856,-7.0504 -39.6791,-13.643 -25.0449,-6.8815 -34.793,-10.2276 -44.4421,-15.255 -7.9294,-4.1313 -19.752,-13.1988 -19.752,-15.149 0,-0.4309 2.1375,-0.4114 4.75,0.043 2.6125,0.4547 14.2,1.7717 25.75,2.9266 23.6786,2.3677 45.8409,5.9659 55.5,9.0108 24.7039,7.7877 39.2027,21.4958 42.0336,39.7415 1.9405,12.5069 1.5274,12.7891 -6.6604,4.5492 z m -1731.37327,-5.8279 c 0,-0.825 0.3375,-1.5034 0.75,-1.5076 3.3833,-0.034 14.0947,-2.3778 16.4622,-3.6021 6.3245,-3.2706 6.257,-2.5165 6.2732,-70.067 0.014,-60.5853 -0.01,-61.204 -2.0843,-64 -2.7066,-3.6408 -6.4885,-4.0131 -13.9883,-1.3771 -6.5599,2.3056 -8.7492,2.5632 -8.2171,0.9666 0.6267,-1.8801 42.527,-23.5235 43.5532,-22.4972 0.3382,0.3382 0.7456,34.5209 0.9052,75.9615 0.1855,48.145 0.6591,76.3164 1.3118,78.0331 1.3033,3.4279 5.5499,5.1747 14.7841,6.0811 5.2047,0.5109 7.25,1.1062 7.25,2.1102 0,1.1702 -5.4694,1.3985 -33.5,1.3985 -29.1111,0 -33.5,-0.1965 -33.5,-1.5 z m 1400.00007,-81.1142 c -4.125,-0.7688 -18.3,-3.0269 -31.5,-5.0181 -22.7637,-3.4338 -25.5197,-3.636 -53.5,-3.9254 l -29.5,-0.3051 -1.4025,-2.3857 c -1.2268,-2.0867 -1.1784,-2.9727 0.3858,-7.0686 l 1.7884,-4.6829 h 7.396 c 4.0677,0 16.4941,-0.7211 27.6141,-1.6025 51.0567,-4.0466 75.4027,1.4209 86.8745,19.51 4.8331,7.621 4.5088,7.8388 -8.1563,5.4783 z m -555.45,-195.5742 c 4.439,-14.1742 29.1979,-28.8034 56.4639,-33.3626 9.811,-1.6405 22.1247,-1.6657 23.6976,-0.049 1.1224,1.154 -10.6447,11.7302 -17.7801,15.9808 -14.8801,8.864 -32.2631,14.4615 -59.2684,19.085 -3.6631,0.6272 -3.8042,0.5522 -3.113,-1.6547 z m -2.3331,-33.925 c -5.7709,-0.9609 -12.4575,-3.9587 -15.9362,-7.1448 -2.6595,-2.4358 -2.1268,-3.7409 1.5282,-3.7443 5.8899,-0.01 22.9639,-5.5725 48.191,-15.7126 34.6236,-13.9171 39.4564,-15.3337 54.6074,-16.0064 6.659,-0.2956 12.8226,-0.1373 13.6968,0.352 1.2323,0.6896 -1.3753,2.7067 -11.6074,8.9785 -35.1922,21.5711 -56.2521,30.9606 -74.8623,33.3769 -8.3731,1.0872 -8.4959,1.0864 -15.6175,-0.099 z m 946.7831,-36.2428 c -7.032,-2.5034 -13.2875,-5.5389 -25,-12.1315 -7.2104,-4.0585 -7.9247,-4.2453 -18.5,-4.8361 -12.6003,-0.704 -15.8278,-1.4989 -34.8168,-8.5749 -7.5992,-2.8318 -17.1617,-5.6687 -21.25,-6.3043 l -7.4332,-1.1556 v -9.8881 c 0,-8.9559 0.165,-9.8373 1.75,-9.349 11.1363,3.4301 19.0294,5.5575 44.6511,12.0344 40.5448,10.2495 57.0924,15.6423 74.3489,24.2302 10.0054,4.9792 10.4177,5.6006 7.8288,11.7968 -2.7962,6.6921 -10.3881,8.162 -21.5788,4.1781 z m 18.5,-29.7692 c -22.0704,-14.6087 -52.9852,-26.8375 -86.659,-34.2794 -3.6403,-0.8045 -6.841,-7.5469 -6.841,-14.4109 0,-2.8514 0.1405,-5.1843 0.3122,-5.1843 0.1717,0 2.1525,0.8892 4.4019,1.976 5.3733,2.5961 18.9998,6.5342 33.2859,9.6197 43.7544,9.4502 57.8622,17.724 63.7793,37.4043 1.6188,5.3841 2.4,11.0094 1.516,10.9159 -0.4374,-0.046 -4.8453,-2.7649 -9.7953,-6.0413 z m -410.816,-47.9625 c -12.874,-3.4319 -24.3823,-4.0387 -63.184,-3.3319 -45.0312,0.8203 -53.3671,-0.079 -68,-7.3366 -5.2415,-2.5997 -13.5,-8.8172 -13.5,-10.1638 0,-0.4324 2.1375,-0.5888 4.75,-0.3476 4.7601,0.4396 14.4921,-0.9866 32.25,-4.7263 7.9121,-1.6662 13.7623,-2.0273 35,-2.1602 33.3273,-0.2086 46.645,1.5755 60.7444,8.1377 8.7608,4.0775 13.0243,7.604 17.4351,14.4216 5.5491,8.5768 5.648,8.4776 -5.4955,5.5071 z m -80.184,-39.2466 c -2.75,-0.7188 -6.3838,-2.0334 -8.0752,-2.9215 -3.552,-1.8649 -10.4248,-9.1406 -10.4248,-11.0359 0,-2.2767 33.4034,-5.9226 59,-6.4396 19.6842,-0.3976 23.6987,-0.2069 32.0783,1.5236 8.964,1.8512 19.9059,6.1839 21.7951,8.6302 1.2736,1.6492 -0.6702,7.3986 -2.9058,8.595 -1.5288,0.8182 -3.842,0.4776 -10.029,-1.4769 -4.423,-1.3972 -9.2561,-2.5381 -10.7402,-2.5353 -1.4841,0 -11.0234,1.3719 -21.1984,3.0426 -21.5897,3.5448 -41.8533,4.6165 -49.5,2.6178 z M 959.60543,1064.7032 c -2.8875,-0.5266 -5.25,-1.3832 -5.25,-1.9035 0,-0.5204 1.8011,-2.9001 4.0025,-5.2883 6.4107,-6.9547 12.9127,-9.2534 35.7221,-12.6291 27.65347,-4.0926 35.56637,-6.6957 40.98087,-13.4816 l 2.7945,-3.5023 20,0.036 20,0.036 -3,2.557 c -4.411,3.7597 -17.9949,12.6075 -25.8481,16.836 -14.525,7.8208 -36.9108,15.1914 -53.15187,17.5003 -8.6124,1.2244 -29.1556,1.1336 -36.25,-0.1603 z M 2045.8555,1002.866 c -32.7812,-5.04709 -48.0228,-10.58099 -59.1199,-21.46519 -4.0547,-3.977 -6.7187,-7.6129 -7.8944,-10.7748 -0.9759,-2.6248 -1.5777,-4.9691 -1.3371,-5.2096 0.2405,-0.2405 3.1179,0.395 6.3943,1.4122 3.2764,1.0172 14.7655,3.6989 25.5313,5.9594 18.3364,3.85 30.5067,7.2704 36.0508,10.132 6.1387,3.1685 13.0815,9.4091 15.8626,14.2584 1.6465,2.87089 2.9979,5.78239 3.003,6.46989 0.012,1.6467 -3.747,1.4877 -18.4906,-0.7823 z M 1628.9403,887.04173 c -7.6836,-3.71884 -23.3173,-8.10694 -37.6208,-10.5595 -14.8506,-2.54635 -36.5734,-3.69423 -65.464,-3.45925 l -28,0.22773 -0.2914,-7.05741 c -0.3431,-8.30971 -2.3135,-7.22915 18.7914,-10.30521 59.5927,-8.68567 101.3186,-0.5115 112.8322,22.10399 1.8423,3.61884 3.1963,7.45291 3.0087,8.52016 -0.3144,1.78941 -0.5678,1.83062 -3.2561,0.52949 z m 922.4152,-33.76696 c -13.626,-2.64792 -20.4029,-10.07308 -15.5359,-17.0218 3.4543,-4.93164 10.9145,-3.65348 22.9395,3.93023 7.0116,4.42194 8.9271,5.16205 14.2966,5.5239 7.9081,0.53294 13.4807,-1.99163 19.724,-8.9357 10.8063,-12.01926 12.5731,-32.8072 4.0251,-47.36043 -7.7926,-13.267 -26.9064,-23.14689 -48.6993,-25.17248 -4.2254,-0.39274 -6.75,-1.07519 -6.75,-1.82466 0,-1.17806 13.8825,-31.3969 19.9003,-43.31803 l 3.0783,-6.098 24.4077,-0.29976 c 22.3819,-0.27487 24.5829,-0.45833 26.5169,-2.21029 3.6318,-3.28997 3.3348,-1.13373 -1.1074,8.03965 l -4.2958,8.87089 -22.2485,0.26913 -22.2484,0.26912 -4.0016,7.95868 c -4.6657,9.27971 -4.9213,11.00307 -1.6315,11.00307 4.4702,0 23.1313,6.16411 30.9175,10.21265 18.0776,9.39972 25.6875,22.07894 25.6804,42.78735 -0.01,26.2062 -12.6069,43.33819 -37.4619,50.94512 -6.827,2.08941 -22.2501,3.45273 -27.506,2.43136 z M 826.36353,455.06496 c -2.0143,-0.66606 -0.8444,-2.36058 8.2419,-11.93733 38.0477,-40.10151 44.434,-47.30276 51.5484,-58.12641 6.9532,-10.57854 10.5538,-19.17454 12.7893,-30.53317 1.5027,-7.63497 1.584,-9.94243 0.5609,-15.90888 -3.05,-17.78632 -15.5829,-28.08215 -34.1486,-28.05331 -14.1869,0.022 -21.9901,5.74986 -30.3579,22.28389 -3.4404,6.79789 -4.7549,8.53596 -6.2494,8.26347 -1.041,-0.18979 -2.063,-0.51005 -2.2711,-0.71169 -0.9026,-0.87465 2.3526,-10.664 6.3835,-19.19664 7.4698,-15.81253 17.4639,-23.63071 34.4971,-26.98643 6.9762,-1.3744 9.344,-1.43762 15.3721,-0.41048 14.674,2.50032 27.0927,11.38264 33.0666,23.65031 2.359,4.84456 3.0069,7.69115 3.3642,14.78184 0.5886,11.67972 -1.0457,19.35848 -6.4505,30.30648 -7.303,14.79313 -13.3228,22.16635 -48.7899,59.7595 -7.1856,7.6163 -13.2147,14.2538 -13.398,14.75 -0.433,1.17172 -2.3185,1.11946 32.8238,0.90987 33.8481,-0.20186 34.8856,-0.37272 39.6345,-6.52704 6.1006,-7.90601 7.2209,-8.99612 8.2022,-7.98065 0.6268,0.64862 -0.252,3.81102 -2.501,9 -1.907,4.4 -4.8669,11.2625 -6.5775,15.25 l -3.1101,7.25 -13.0693,0.0602 c -7.1881,0.0331 -27.8032,0.14559 -45.8112,0.25 -18.0081,0.10442 -33.1956,0.0399 -33.75,-0.14348 z m 1405.76467,-73.37659 -0.2727,-18.29008 -30.971,-0.5 -30.971,-0.5 -0.1126,-5.5 c -0.062,-3.025 0.3373,-6.4 0.8873,-7.5 1.0115,-2.02319 5.3845,-8.28548 36.6609,-52.5 9.5319,-13.475 18.9148,-26.75 20.8507,-29.5 9.1377,-12.98 10.6669,-15.04961 11.6266,-15.73469 1.4929,-1.06579 7.3089,-0.93056 7.999,0.18599 0.3234,0.52321 0.6573,22.34243 0.7421,48.48715 0.085,26.14472 0.4254,47.97483 0.757,48.51136 0.3316,0.53652 5.3117,1.1048 11.0669,1.26284 l 10.4641,0.28735 0.2977,6.25 0.2977,6.25 h -11.0477 c -8.0699,0 -11.099,0.33693 -11.2382,1.25 -0.1048,0.6875 -0.2173,8.9 -0.25,18.25 l -0.059,17 -8.2273,0.29008 -8.2273,0.29007 -0.2727,-18.29007 z m -0.01,-66.59949 c 0.1448,-18.87017 -0.1011,-35.71534 -0.5464,-37.43369 -0.9105,-3.51397 3.5125,-9.37838 -36.5148,48.41394 -8.6361,12.46897 -15.702,22.93894 -15.702,23.26661 0,0.32767 11.8125,0.47579 26.25,0.32915 l 26.25,-0.2666 z m -692.6159,-52.19659 c -7.2647,-1.54355 -12.9054,-5.45637 -14.2275,-9.86913 -1.3871,-4.62977 -0.2402,-7.39046 3.9764,-9.57091 3.805,-1.96766 7.6224,-0.84756 21.2048,6.22195 10.0211,5.21587 11.1376,5.56715 17.3938,5.47228 11.5705,-0.17546 21.1056,-6.59305 26.5714,-17.88395 6.0433,-12.48368 3.3229,-34.36084 -5.2167,-41.95248 -6.5157,-5.79242 -17.3446,-9.86107 -29.1134,-10.93857 -4.2705,-0.39099 -8.007,-1.10324 -8.3033,-1.5828 -0.2964,-0.47955 0.9476,-1.51418 2.7644,-2.29917 25.3294,-10.944 32.6343,-17.58087 35.0325,-31.82842 2.2877,-13.59123 -3.3405,-24.39121 -15.0116,-28.80626 -7.0077,-2.65094 -16.3861,-2.23021 -24.0817,1.08032 -5.2972,2.27879 -12.6784,9.29255 -17.5896,16.71382 -2.6246,3.96604 -5.5463,5.63504 -5.5463,3.16829 0,-2.0623 7.1899,-15.44573 11.0707,-20.60725 2.1455,-2.85354 5.3945,-6.32754 7.2201,-7.71999 11.48,-8.75621 30.2738,-10.60021 43.9982,-4.31699 11.9035,5.44964 18.0607,14.70017 18.0219,27.07605 -0.035,11.23234 -4.1322,18.98515 -14.3734,27.1993 -3.2656,2.61928 -5.9241,5.02953 -5.9078,5.35611 0.016,0.32659 2.7395,2.1458 6.0514,4.0427 7.1076,4.07092 14.9903,11.35543 17.4659,16.14042 6.3823,12.33636 5.7137,35.56777 -1.3481,46.84325 -7.9724,12.72932 -21.6828,22.2251 -38.3197,26.54014 -7.5681,1.96291 -25.5881,2.82681 -31.7324,1.52129 z"
     id="path483"
     inkscape:connector-curvature="0" />
</svg>
