<?xml version="1.0" encoding="UTF-8" standalone="no"?>
<!-- Created with Inkscape (http://www.inkscape.org/) -->

<svg
   xmlns:dc="http://purl.org/dc/elements/1.1/"
   xmlns:cc="http://creativecommons.org/ns#"
   xmlns:rdf="http://www.w3.org/1999/02/22-rdf-syntax-ns#"
   xmlns:svg="http://www.w3.org/2000/svg"
   xmlns="http://www.w3.org/2000/svg"
   xmlns:sodipodi="http://sodipodi.sourceforge.net/DTD/sodipodi-0.dtd"
   xmlns:inkscape="http://www.inkscape.org/namespaces/inkscape"
   version="1.1"
   id="svg331"
   width="1280"
   height="640"
   viewBox="0 0 1280 640"
   sodipodi:docname="ght.svg"
   inkscape:version="0.92.1 r15371">
  <metadata
     id="metadata337">
    <rdf:RDF>
      <cc:Work
         rdf:about="">
        <dc:format>image/svg+xml</dc:format>
        <dc:type
           rdf:resource="http://purl.org/dc/dcmitype/StillImage" />
        <dc:title></dc:title>
      </cc:Work>
    </rdf:RDF>
  </metadata>
  <defs
     id="defs335" />
  <sodipodi:namedview
     pagecolor="#ffffff"
     bordercolor="#666666"
     borderopacity="1"
     objecttolerance="10"
     gridtolerance="10"
     guidetolerance="10"
     inkscape:pageopacity="0"
     inkscape:pageshadow="2"
     inkscape:window-width="1366"
     inkscape:window-height="692"
     id="namedview333"
     showgrid="false"
     inkscape:zoom="0.68046875"
     inkscape:cx="640"
     inkscape:cy="320"
     inkscape:window-x="0"
     inkscape:window-y="27"
     inkscape:window-maximized="1"
     inkscape:current-layer="svg331" />
  <path
     style="fill:#000000"
     d="m 1051.9984,538.50437 c -4.0606,-1.07506 -11.0356,-3.58298 -15.5,-5.57317 -4.4643,-1.99018 -9.692,-3.99782 -11.617,-4.46143 -1.925,-0.46361 -8.3377,-1.95537 -14.2504,-3.31503 -5.9127,-1.35966 -13.56266,-3.8827 -16.99996,-5.60676 -3.5803,-1.7958 -9.7396,-3.74737 -14.4206,-4.56919 -9.9743,-1.75115 -22.6728,-5.70867 -27.1392,-8.45804 -5.7172,-3.5193 -6.5468,-7.17449 -5.8317,-25.69589 0.344,-8.91113 1.2883,-20.61113 2.0985,-26 2.1728,-14.4534 8.9905,-47.08184 13.1502,-62.93479 2.0006,-7.62473 4.0707,-15.88815 4.6002,-18.36315 0.5294,-2.475 3.814,-14.625 7.299,-27 6.71,-23.82668 8.6707,-36.05232 6.2978,-39.26918 -2.3897,-3.23963 -71.5349,-21.08327 -107.8038,-27.81991 -71.1311,-13.21197 -123.6226,-19.21096 -191.50003,-21.88556 -108.61308,-4.27972 -226.06789,7.32293 -325,32.10478 -37.25942,9.33325 -57.61442,15.3925 -61.37492,18.27002 -1.98198,1.51661 -0.72864,14.3783 2.4171,24.80419 1.37665,4.56261 3.57699,12.34566 4.88964,17.29566 1.31266,4.95 3.52741,13.05 4.92169,18 4.0679,14.44203 13.29901,54.79172 16.01443,70 4.36748,24.46092 4.9321,29.64006 5.03318,46.16829 0.1135,18.55866 -0.42073,20.07386 -8.46149,23.99887 -4.51818,2.20551 -20.47153,6.81744 -28.8291,8.33418 -2.53579,0.46019 -8.43553,2.42482 -13.11053,4.36583 -4.92675,2.04554 -13.16242,4.3664 -19.59091,5.52084 -6.10001,1.09544 -12.62501,2.88398 -14.5,3.97454 -5.81908,3.38453 -24.07381,9.13745 -28.9943,9.13745 -5.60139,0 -10.12115,-2.97772 -17.29056,-11.39143 -4.10447,-4.81682 -12.31463,-16.55792 -16.14453,-23.08779 -0.95415,-1.6268 -1.27179,-1.63449 -4.89993,-0.11856 -2.1338,0.89156 -8.42133,2.54656 -13.9723,3.67777 -5.55096,1.13122 -11.44599,2.88212 -13.10007,3.89091 -4.06134,2.47692 -16.3677,6.0291 -20.88756,6.0291 -2.91862,0 -4.59868,-0.86107 -8.25391,-4.23035 -11.6473,-10.7361 -31.915188,-46.93354 -46.904818,-83.76965 -2.57382,-6.325 -5.07354,-12.4 -5.55494,-13.5 -0.4814,-1.1 -3.08999,-8.075 -5.79688,-15.5 -2.70688,-7.425 -5.21112,-14.2201 -5.56496,-15.10022 -0.55681,-1.38497 -3.40621,-0.74601 -21.18231,4.75 -11.29642,3.49262 -22.06704,6.35022 -23.93471,6.35022 -5.1555303,0 -9.48582032,-4.33949 -10.14231032,-10.16386 -0.77188,-6.84814 1.11264002,-11.32562 6.25635002,-14.86459 4.8107903,-3.30991 23.7318903,-12.9798 32.4398003,-16.57882 3.31411,-1.36973 5.38405,-2.80266 5.18142,-3.58685 -0.18559,-0.71823 -2.75197,-9.63088 -5.70306,-19.80588 -6.03374,-20.80359 -12.21306,-46.59309 -15.45459,-64.5 -1.19474,-6.6 -2.8096,-15.24353 -3.58859,-19.20784 -0.87621,-4.45911 -1.41633,-13.55271 -1.41633,-23.84563 0,-15.55543 0.14399,-16.84299 2.21329,-19.79216 1.2173,-1.7349 2.9048,-3.70193 3.75,-4.37118 2.4836,-1.96658 16.44088,-6.34965 23.32325,-7.32431 3.49611,-0.49511 8.34937,-2.00825 10.78502,-3.36254 2.43564,-1.35428 6.5175,-2.98371 9.0708,-3.62095 l 4.64236,-1.15861 -0.0944,-23.65839 -0.0944,-23.65839 2.95206,-4.15621 c 1.62363,-2.28592 4.16414,-4.88385 5.64557,-5.77317 4.50826,-2.70638 22.905158,-8.29731 29.806478,-9.05838 4.22142,-0.46553 8.25275,-1.69979 11.5,-3.52093 6.68144,-3.74712 23.82626,-8.99131 29.39526,-8.99131 3.11917,0 6.46357,-1.02251 11.03976,-3.37528 3.61074,-1.8564 9.12959,-4.11231 12.26409,-5.01314 3.13451,-0.90082 5.97357,-2.08194 6.30902,-2.62472 0.33545,-0.54277 4.07086,-0.96662 8.3009,-0.9419 l 7.69098,0.045 7,9.59527 c 8.43074,11.55645 9.22896,12.88654 18.79266,31.31481 13.92239,26.82698 30.42163,66.29131 45.15262,108 3.9822,11.275 8.32359,22.47123 9.64754,24.88051 1.32395,2.40928 3.17265,5.84247 4.10822,7.62931 2.53243,4.83666 5.10928,4.96986 17.96992,0.92889 133.45012,-41.93167 296.58294,-56.47768 464.32907,-41.40267 37.9275,3.40848 84.0656,10.1208 121,17.6035 16.0579,3.25326 66.9884,16.07486 73.1331,18.41106 7.041,2.67699 27.8561,8.0293 30.1559,7.75418 3.5834,-0.42865 10.2252,-11.45132 14.60212,-24.23321 3.181,-9.2897 10.8461,-30.35508 17.0782,-46.93467 7.397,-19.67875 19.1272,-46.48246 28.7249,-65.6369 11.4165,-22.78426 16.6098,-31.69814 22.7218,-39 2.0717,-2.475 4.3964,-5.5125 5.1659,-6.75 1.2509,-2.01151 2.2005,-2.25 8.9586,-2.25 4.1577,0 7.987,0.42431 8.5095,0.94291 1.0629,1.05492 25.4879,8.84627 65.95,21.03744 43.8201,13.20293 45.7614,13.84822 51.3046,17.05439 6.2274,3.60181 10.7863,10.05446 11.7785,16.67113 0.8274,5.51715 -0.7981,15.90306 -4.4746,28.59084 -1.7488,6.0351 -2.3953,9.70471 -1.7101,9.70705 0.6059,0.002 3.8016,1.35038 7.1016,2.99624 3.3,1.64586 7.4571,2.99417 9.238,2.99624 3.1075,0.004 20.4199,5.12842 23.0165,6.8133 0.6899,0.44771 2.3774,2.33614 3.75,4.19652 2.4174,3.27666 2.4953,3.88487 2.4887,19.43822 -0.01,12.66394 -0.5324,19.01323 -2.4946,30.05572 -1.3683,7.7 -2.9654,16.925 -3.5491,20.5 -1.9555,11.97626 -15.1093,62.69844 -19.4505,75.00278 l -1.3319,3.77517 11.8184,5.17461 c 14.7074,6.43952 27.7992,13.87852 30.2856,17.20876 1.1447,1.53322 2.1097,4.94629 2.4455,8.64992 0.5416,5.97243 0.4709,6.20126 -2.9809,9.6531 -2.6837,2.68364 -4.3686,3.53566 -6.9921,3.53566 -1.901,0 -12.3126,-2.74179 -23.1368,-6.09286 -10.8242,-3.35108 -20.2621,-5.86964 -20.9732,-5.5968 -0.711,0.27284 -2.9925,5.37713 -5.0701,11.34287 -2.0776,5.96573 -4.9015,13.54679 -6.2754,16.84679 -1.3739,3.3 -3.1093,7.575 -3.8566,9.5 -15.7398,40.54826 -35.8984,77.58537 -48.9428,89.9222 -4.5327,4.28685 -5.9624,5.07579 -9.1788,5.0649 -4.4316,-0.015 -14.3905,-2.96724 -20.4672,-6.06734 -2.3274,-1.18737 -8.4567,-3.02196 -13.6205,-4.07687 -5.1638,-1.0549 -12.3542,-3.10516 -15.9787,-4.55612 -7.6291,-3.05413 -5.6714,-4.38037 -15.2748,10.34809 -9.4337,14.46827 -18.4192,23.38153 -24.9687,24.76801 -1.375,0.29108 -5.8223,-0.35036 -9.883,-1.42542 z"
     id="path341"
     inkscape:connector-curvature="0" />
</svg>
