<?xml version="1.0" encoding="UTF-8" standalone="no"?>
<!-- Created with Inkscape (http://www.inkscape.org/) -->

<svg
   xmlns:dc="http://purl.org/dc/elements/1.1/"
   xmlns:cc="http://creativecommons.org/ns#"
   xmlns:rdf="http://www.w3.org/1999/02/22-rdf-syntax-ns#"
   xmlns:svg="http://www.w3.org/2000/svg"
   xmlns="http://www.w3.org/2000/svg"
   xmlns:sodipodi="http://sodipodi.sourceforge.net/DTD/sodipodi-0.dtd"
   xmlns:inkscape="http://www.inkscape.org/namespaces/inkscape"
   version="1.1"
   id="svg774"
   width="1280"
   height="640"
   viewBox="0 0 1280 640"
   sodipodi:docname="pulley-3183272_1280.svg"
   inkscape:version="0.92.1 r15371">
  <metadata
     id="metadata780">
    <rdf:RDF>
      <cc:Work
         rdf:about="">
        <dc:format>image/svg+xml</dc:format>
        <dc:type
           rdf:resource="http://purl.org/dc/dcmitype/StillImage" />
        <dc:title></dc:title>
      </cc:Work>
    </rdf:RDF>
  </metadata>
  <defs
     id="defs778" />
  <sodipodi:namedview
     pagecolor="#ffffff"
     bordercolor="#666666"
     borderopacity="1"
     objecttolerance="10"
     gridtolerance="10"
     guidetolerance="10"
     inkscape:pageopacity="0"
     inkscape:pageshadow="2"
     inkscape:window-width="1366"
     inkscape:window-height="692"
     id="namedview776"
     showgrid="false"
     inkscape:zoom="0.68046875"
     inkscape:cx="640"
     inkscape:cy="320"
     inkscape:window-x="0"
     inkscape:window-y="27"
     inkscape:window-maximized="1"
     inkscape:current-layer="svg774" />
  <path
     style="fill:#000000"
     d="m 925.64964,639.37283 c -7.26665,-1.52343 -12.95073,-4.90356 -17.91504,-10.65347 l -4.7167,-5.4631 -0.5,-82.64068 -0.5,-82.64067 -3.5,-0.74699 c -9.40064,-2.00632 -51.42956,-2.88499 -158,-3.30318 -64.075,-0.25143 -120.00895,-0.75888 -124.29767,-1.12767 l -7.79768,-0.67052 -1.97265,-3.86671 -1.97265,-3.86672 -7.72967,2e-4 c -8.41532,2.2e-4 -30.93212,1.63907 -75.22968,5.4755 -15.675,1.35754 -42.225,3.38403 -59,4.5033 -16.775,1.11928 -31.44238,2.24786 -32.59418,2.50797 -1.1518,0.2601 -4.3018,2.22314 -7,4.36229 -11.10097,8.80093 -20.24433,11.85007 -51.40582,17.14286 -12.925,2.19532 -28.675,4.9548 -35,6.13219 -8.76869,1.63227 -15.82841,2.17442 -29.72449,2.28269 -13.27022,0.10338 -18.57124,0.48838 -19.5,1.41623 -0.94678,0.94584 -1.43723,8.92888 -1.90303,30.9755 -1.17345,55.5411 -1.22633,65.69255 -0.40512,77.77119 l 0.82063,12.06992 -7.894,2.57887 c -14.31204,4.67558 -44.00011,8.7702 -63.64399,8.77787 l -8.75,0.003 -0.16336,-25.75 c -0.0898,-14.1625 -0.25716,-42.50344 -0.3718,-62.97987 -0.22523,-40.2291 -0.25244,-40.43592 -5.71484,-43.43518 -2.71447,-1.49044 -10.6012,-2.7712 -20.74808,-3.36936 -4.12395,-0.2431 -8.17395,-0.70558 -9,-1.02772 -0.82606,-0.32213 -13.65192,-0.8239 -28.50192,-1.11503 -30.51404,-0.59822 -42.176253,0.1848 -100.500008,6.74773 -33.1690503,3.73238 -40.00000032,4.09025 -40.00000032,2.09559 0,-1.28566 6.14803002,-3.8475 12.29679032,-5.12397 8.82363,-1.83178 7.2514,-3.69272 -4.0081103,-4.74415 -7.37267,-0.68847 -9.87567,-2.62392 -8.40291002,-6.49758 0.87726002,-2.30738 1.32058002,-2.44789 6.39530002,-2.02706 4.7805103,0.39644 70.5588923,-5.48847 71.6294693,-6.40838 0.788494,-0.67752 -3.454581,-4.63819 -9.054514,-8.45187 -6.538127,-4.45261 -9.439327,-9.45522 -10.439345,-18.00082 -0.51792,-4.42579 -0.23956,-6.5243 1.338664,-10.09214 2.342955,-5.29664 5.418572,-7.69725 14.539734,-11.34871 l 6.704925,-2.68416 0.214007,-4.64366 c 0.506862,-10.99822 -0.150534,-14.331 -3.574347,-18.12075 -3.634964,-4.02347 -5.964845,-10.86891 -5.467028,-16.06272 0.28663,-2.99046 0.847984,-3.60704 4.51097,-4.95477 2.300981,-0.84661 4.380434,-1.75667 4.621007,-2.02236 0.240572,-0.26568 0.743767,-8.80806 1.118212,-18.98306 l 0.680808,-18.5 -5.679627,-2.93951 c -6.465697,-3.34635 -10.416431,-8.13388 -16.059115,-19.46057 -6.77396,-13.59754 -5.26405,-20.16207 7.908208,-34.38191 5.698958,-6.15219 7.208416,-7.15594 16.254632,-10.8089 14.194628,-5.73193 35.534208,-12.78092 45.472278,-15.02061 5.66793,-1.27735 15.66346,-2.24045 30,-2.89059 20.91226,-0.94834 40.53864,-2.57761 44.40888,-3.68658 1.84346,-0.52821 1.88799,-1.63096 1.29948,-32.17914 -0.58082,-30.14845 0.51585,-78.04082 1.89892,-82.9274 1.20974,-4.27415 15.52818,-9.95321 27.39272,-10.86465 8.95396,-0.68785 30.97418,1.16606 37.74977,3.17819 5.17616,1.53715 9.48423,5.29077 11.15823,9.72213 0.63669,1.68542 0.96279,12.8501 0.84705,29 -0.13474,18.80121 0.18158,27.73361 1.11371,31.44948 1.02728,4.09517 1.08304,8.7386 0.26435,22.01283 -1.28836,20.8893 -0.73526,27.93727 2.24903,28.65878 5.47709,1.3242 19.93796,2.68471 38.99207,3.66845 33.66843,1.73827 48.55458,5.29192 71.89606,17.16319 14.66087,7.45638 22.92972,13.58992 26.49317,19.65168 2.40234,4.08659 2.73656,5.69325 2.73656,13.15513 0,10.39019 -1.56459,13.54943 -9.81648,19.82148 -8.65097,6.57539 -9.10794,7.87428 -9.51333,27.04058 -0.19034,8.99913 0.031,16.71532 0.49187,17.14707 1.26642,1.18642 32.69809,1.91623 107.33794,2.49228 37.125,0.28652 77.0625,0.78954 88.75,1.11782 l 21.25,0.59688 V 336.14046 308.6717 l -5.25,-0.6306 c -2.8875,-0.34683 -10.425,-0.66233 -16.75,-0.70111 -6.325,-0.0388 -14.875,-0.47683 -19,-0.97344 -4.125,-0.4966 -31.39578,-1.33777 -60.60173,-1.86926 -29.20595,-0.53149 -58.61277,-1.2887 -65.34848,-1.68268 -10.95691,-0.64089 -12.55233,-0.97347 -15.14827,-3.15781 -4.15456,-3.49583 -4.09804,-9.07909 0.12792,-12.635 5.1843,-4.3623 1.34568,-4.29275 89.47056,-1.62117 17.05,0.51689 38.70601,1.21531 48.12446,1.55205 l 17.12446,0.61226 0.70184,-7.48962 0.70183,-7.48961 12.67371,-0.73785 c 12.74179,-0.74181 149.70783,-0.0225 225.1737,1.18254 22.275,0.35569 44.87774,0.31654 50.22832,-0.087 l 9.72831,-0.73369 1.18779,-3.6583 c 0.83591,-2.57455 1.25088,-17.76296 1.40075,-51.26982 0.2327,-52.02672 0.19453,-51.68042 6.0744,-55.1039 9.66757,-5.62882 43.4108,-8.50529 51.66501,-4.40423 2.08151,1.03419 4.2796,2.80531 4.88463,3.93582 1.15601,2.16003 -0.098,3.74498 -6.20193,7.83848 -3.25374,2.18207 -1.65592,3.90931 4.19576,4.53558 4.24002,0.45379 4.40043,0.36194 7.17643,-4.10931 1.56171,-2.51541 3.23991,-4.82096 3.72933,-5.12344 1.52528,-0.94268 4.83359,1.45884 6.64295,4.82216 1.99286,3.70441 2.07449,7.67888 1.29968,63.28178 -0.61837,44.37626 -1.33473,42.68604 17.15577,40.47832 6.8483,-0.81768 14.6605,-0.83065 28.8614,-0.0479 11.446,0.63089 48.5289,0.95679 89.9714,0.7907 131.8216,-0.52828 152.1806,-0.39579 156.1629,1.01627 3.3785,1.19796 3.7153,1.68005 4.3383,6.20973 0.8751,6.36287 -0.125,10.69887 -2.8848,12.50714 -1.2153,0.79634 -5.7887,1.92924 -10.1631,2.51755 -12.3662,1.66315 -11.7358,1.19 -11.2728,8.45984 0.3245,5.09656 1.1035,7.42757 4.1099,12.29843 4.5831,7.4251 4.6704,10.50871 0.4596,16.2316 l -3.25,4.41709 -0.3201,28.34141 -0.32,28.34141 3.3936,4.1885 c 1.8665,2.30367 3.6854,4.97991 4.042,5.94718 0.984,2.66884 -0.879,6.4858 -5.3036,10.86642 -3.6644,3.62799 -3.9919,4.39038 -3.9919,9.29409 v 5.34191 l 10.563,0.71997 c 10.1804,0.6939 10.6039,0.81591 11.6929,3.36945 1.1606,2.72154 1.7003,18.52662 0.6678,19.55908 -3.6175,3.61756 -46.6288,4.65121 -169.9237,4.0836 -60.225,-0.27725 -110.46265,-0.50165 -111.63922,-0.49865 -1.17656,0.003 -3.17898,-0.8365 -4.4498,-1.86555 l -2.31058,-1.871 3.34912,-1.7319 c 3.09106,-1.59845 12.25668,-1.79641 118.94978,-2.56908 110.3103,-0.79886 137.8198,-1.28169 148.2648,-2.60222 5.1765,-0.65445 6.4618,-2.5783 4.743,-7.09908 l -0.9617,-2.52963 -14.2227,0.55258 c -7.8225,0.30391 -16.2477,1.1738 -18.7227,1.93309 -3.728,1.14369 -4.9503,1.15631 -7.1249,0.0736 -5.288,-2.63298 -14.0675,-3.54332 -26.3751,-2.73481 -6.6,0.43356 -13.8,0.74292 -16,0.68747 -2.2,-0.0555 -48.55,-0.33231 -103,-0.61523 -54.45,-0.28291 -139.725,-1.05572 -189.5,-1.71735 -90.87541,-1.20796 -157.94364,-0.87458 -163.46181,0.81253 -2.68339,0.82041 -2.77739,0.98576 -1,1.75893 2.74513,1.19415 73.55134,2.3171 153.46181,2.43383 63.8831,0.0933 98.45144,1.12331 101.86786,3.03524 3.49772,1.95742 -16.19691,2.30669 -95.84718,1.69977 -45.93637,-0.35006 -118.62068,-0.87973 -161.52068,-1.17708 -78.17296,-0.54183 -86.5,-0.78538 -86.5,-2.52993 0,-0.56375 11.88373,-0.94201 29.75,-0.94693 28.46239,-0.008 45.71702,-1.03452 49.08755,-2.92076 4.05207,-2.26766 -32.5255,-3.43601 -68.19182,-2.17817 -15.31985,0.54029 -27.98674,1.12291 -28.14865,1.29473 -0.16191,0.17182 -0.45248,2.33503 -0.64573,4.80712 l -0.35135,4.49473 4.5,0.75859 c 2.475,0.41723 70.875,0.97905 152,1.2485 131.18673,0.43571 197.95138,1.44922 204.54891,3.10509 1.96913,0.49422 2.21516,1.3968 2.78593,10.22023 0.34434,5.32298 0.20107,18.45314 -0.31837,29.17814 -0.51945,10.725 -0.89202,45.66591 -0.82794,77.64647 0.11224,56.02168 0.045,58.2689 -1.84008,61.49661 -2.2506,3.85356 -7.01606,7.34235 -12.23082,8.95419 -4.64179,1.43474 -33.26149,2.08254 -38.98589,0.88244 z m 17.86826,-10.27971 c 0,-2.74485 -1.73305,-4.7 -4.16607,-4.7 -2.15033,0 -8.83393,3.0913 -8.83393,4.08587 0,0.88252 6.52062,2.67062 10.25,2.81078 2.23286,0.0839 2.75,-0.32917 2.75,-2.19665 z m -15.5,-3.5934 c 4.8256,-2.77436 9.25741,-6.7222 8.41054,-7.49207 -0.2258,-0.20527 -3.44028,0.071 -7.1433,0.61394 -6.61597,0.97003 -6.75032,1.05034 -7.74443,4.62934 -0.55641,2.00321 -1.01417,3.97969 -1.01723,4.39219 -0.0107,1.43778 2.52872,0.71151 7.49442,-2.1434 z m 34.1771,0.29248 c 0.71792,-1.87087 -1.23302,-3.36203 -4.4271,-3.38377 -2.54071,-0.0173 -2.67549,0.32114 -1.21482,3.05043 1.25308,2.34139 4.79114,2.55043 5.64192,0.33334 z M 242.88646,611.60985 c -1.17228,-0.9442 -2.83569,-2.16673 -3.69645,-2.71673 -1.52321,-0.97328 -1.98819,-4.6153 -1.76485,-13.82332 0.0746,-3.07506 0.43524,-3.75835 1.84274,-3.49132 1.29634,0.24594 1.87962,1.60582 2.25,5.24578 0.275,2.70257 1.0625,5.09866 1.75,5.32465 0.9516,0.31279 1.25,-2.34819 1.25,-11.14678 v -11.55765 l -2.84644,-1.47195 c -2.72948,-1.41147 -2.8733,-1.85032 -3.5,-10.67931 -0.89585,-12.6207 -0.79472,-27.1293 0.20002,-28.69743 0.65879,-1.03853 1.07496,-0.9937 2.08618,0.22475 0.84239,1.01501 1.35625,5.94462 1.54247,14.79733 0.36213,17.21559 0.30433,16.65291 1.51777,14.77525 0.53316,-0.825 0.98316,-3.3 1,-5.5 0.0168,-2.2 0.41748,-4.61054 0.89031,-5.35676 2.00089,-3.15781 2.62174,2.3823 2.89764,25.85676 0.15837,13.475 0.50119,25.11318 0.76183,25.86262 0.4,1.15017 0.73062,1.15017 2.12049,0 1.50339,-1.2441 1.59858,-5.88542 1.09444,-53.36262 -0.53347,-50.23893 -0.1803,-64.4142 1.53868,-61.7591 1.69352,2.61577 2.5052,26.40821 2.35383,68.99757 -0.15933,44.83339 -0.12906,45.26502 3.17457,45.26064 0.36751,-4.8e-4 0.67381,-14.51298 0.68065,-32.25 0.0132,-34.20297 0.81034,-46.82881 2.8288,-44.80452 0.80711,0.80943 1.19685,8.50518 1.28426,25.35875 0.069,13.30816 0.18152,26.10916 0.25,28.44666 l 0.1245,4.25 2.23852,-2.23852 c 2.07467,-2.07467 2.26443,-2.10396 2.59255,-0.40013 0.64575,3.35308 -0.87733,8.54018 -3.38148,11.51619 -2.05229,2.439 -2.30383,3.37565 -1.48496,5.52943 1.44885,3.81076 6.03987,3.56483 9.46616,-0.50709 l 2.60858,-3.10012 -1.98691,-3.21488 c -1.91303,-3.09535 -1.92477,-3.40917 -0.3158,-8.44056 1.46221,-4.57243 1.49639,-5.62687 0.27348,-8.435 -0.7687,-1.76513 -1.56417,-7.54254 -1.76771,-12.83869 -0.35174,-9.15251 0.20861,-12.03677 3.49573,-17.99331 0.51185,-0.92751 -3.65608,-1.81915 -4.22215,-0.90323 -0.26729,0.43248 -0.523,8.24452 -0.56826,17.36008 -0.0766,15.43762 -0.21416,16.61561 -2.00607,17.18434 -4.05706,1.28766 -4.25098,0.14154 -3.45368,-20.41176 0.41832,-10.78371 0.6804,-28.46861 0.58241,-39.29978 -0.11394,-12.59348 0.24756,-21.24574 1.00275,-24 1.90191,-6.93648 2.77517,-2.31665 2.87187,15.19303 0.0471,8.525 0.45916,16.08902 0.91573,16.80894 0.46612,0.73498 1.14042,-8.19433 1.53776,-20.36359 0.3892,-11.91989 0.43087,-21.9493 0.0926,-22.28756 -0.33826,-0.33827 -6.32465,-0.5679 -13.30307,-0.51029 -9.54316,0.0788 -13.74146,0.53416 -16.93805,1.8372 -5.82228,2.37338 -5.3561,3.62606 0.75,2.0153 l 5,-1.31898 -0.0153,15.65949 c -0.0143,14.66163 -0.77005,19.68426 -2.68032,17.81408 -0.4424,-0.43313 -1.31025,-4.24509 -1.92854,-8.47104 l -1.12416,-7.68355 -0.12584,7.17857 c -0.0887,5.06018 -0.58956,7.6423 -1.69726,8.75 -2.96048,2.96049 -3.45212,1.66932 -3.18906,-8.37529 0.1683,-6.42661 -0.14185,-10.35022 -0.8764,-11.08689 -1.40391,-1.40796 -2.30115,23.89875 -2.63373,74.28424 l -0.22938,34.75063 5.5,-0.0339 c 5.36047,-0.033 5.44593,-0.0774 3.36856,-1.75063 z m 2.2183,-66.85097 c -0.9641,-2.51241 0.45235,-8.36576 2.02443,-8.36576 0.9141,0 1.38871,1.16822 1.38871,3.41821 0,5.77762 -1.98851,8.66008 -3.41314,4.94755 z m 15.50578,-23.19266 c -1.63904,-3.06257 -1.43209,-26.32662 0.25472,-28.63346 2.1908,-2.99611 2.65912,-0.62332 2.84191,14.39876 0.1746,14.34989 -0.75298,18.61384 -3.09663,14.2347 z m 700.14283,88.0769 c 2.19694,-5.09421 0.98232,-147.07772 -1.28153,-149.8055 -2.27409,-2.74012 -18.75923,-2.7698 -22.49177,-0.0405 -2.9659,2.16873 -3.41015,8.5183 -2.42049,34.596 1.03028,27.14795 1.43875,30.99948 3.28778,31.0009 0.88398,6.8e-4 0.98115,-6.42552 0.39693,-26.25 -0.42548,-14.43799 -0.51759,-27.7134 -0.20469,-29.5009 0.59218,-3.38283 1.78961,-4.14035 3.16143,-2 0.44064,0.6875 1.0297,32.60023 1.30902,70.91718 0.27932,38.31695 0.83172,69.99081 1.22755,70.38637 0.87927,0.87864 10.41823,3.24413 13.55505,3.3614 1.57155,0.0588 2.64137,-0.76506 3.46072,-2.66495 z M 938.37321,578.2278 c 0.37843,-29.92242 -0.33642,-44.51327 -2.03237,-41.48278 -0.54635,0.97628 -1.20889,17.34122 -1.51582,37.44122 -0.53218,34.85158 -0.50047,35.66411 1.32382,33.92149 1.72095,-1.64391 1.89722,-4.01173 2.22437,-29.87993 z m -7.99158,-38.96363 c -0.20005,-35.67868 -0.67091,-64.8705 -1.04634,-64.87069 -1.81902,-9.6e-4 -2.14118,8.01808 -2.10915,52.49964 0.0376,52.22409 0.8991,78.86071 2.5182,77.86005 0.65746,-0.40633 0.87618,-22.88239 0.63729,-65.489 z m 40.13627,60.62895 c 0,-0.825 -0.45,-1.5 -1,-1.5 -0.55,0 -1,0.675 -1,1.5 0,0.825 0.45,1.5 1,1.5 0.55,0 1,-0.675 1,-1.5 z m -2,-41.5 c 0,-1.1 -0.40186,-2 -0.89301,-2 -1.12404,0 -2.17254,2.60112 -1.37142,3.40223 1.20376,1.20377 2.26443,0.54696 2.26443,-1.40223 z M 41.767892,483.34054 c 2.0625,-0.57279 3.75,-1.45444 3.75,-1.95924 0,-2.97594 -11.92244,-4.04263 -17.5,-1.56571 l -3,1.33225 2.5,1.00197 c 5.8644,2.35035 9.10065,2.62078 14.25,1.19073 z m 40.750003,-4.92711 c 9.599419,-0.0575 12.128978,-0.96992 10.374016,-3.74184 -0.992374,-1.56744 -2.594292,-1.75437 -13.5,-1.57541 -13.747898,0.2256 -18.212156,1.10069 -18.706592,3.6669 -0.709563,3.68275 1.434659,4.54528 7.622465,3.06619 3.140561,-0.7507 9.535111,-1.38783 14.210111,-1.41584 z m 219.000005,0.48689 c 53.33956,-3.80972 91.01505,-10.01106 106.57066,-17.54141 4.53749,-2.19656 10.42243,-8.13476 8.64798,-8.72624 -0.55499,-0.185 -8.81873,1.89252 -18.36386,4.61671 -35.98341,10.26971 -54.77448,13.4153 -96.85478,16.21335 -21.57724,1.43474 -91.36976,1.43555 -110.5,10e-4 -35.25166,-2.64295 -63.53669,-6.84262 -98.10817,-14.56679 -1.788515,-0.3996 -2.036182,-0.0945 -1.633423,2.01244 0.299013,1.56418 1.150404,2.48345 2.300083,2.48345 1.003937,0 6.91398,1.51991 13.13343,3.37758 14.29438,4.26955 14.66579,4.35236 24.84105,5.53903 4.65687,0.5431 14.76703,1.93576 22.46703,3.09479 31.09407,4.6804 106.04416,6.45675 147.5,3.4958 z m -18,-9.51186 c 49.63331,-2.52422 77.70884,-6.35229 105.7204,-14.41486 12.97589,-3.73486 22.27952,-7.34289 28.88269,-11.20099 8.06209,-4.71051 8.95736,-7.62544 3.82335,-12.4486 -3.42795,-3.22039 -8.38718,-3.07349 -15.92644,0.47176 -18.19549,8.55624 -49.40602,15.46066 -86.1667,19.06187 -83.1501,8.14568 -194.18268,-1.14652 -229.833305,-19.23452 -12.231801,-6.20603 -18.478619,-4.46956 -20.086166,5.58349 -0.558342,3.49167 -0.32431,4.11215 2.231198,5.91542 11.666731,8.23256 33.234803,14.10517 72.354973,19.70099 46.88608,6.70667 93.20488,8.89447 139,6.56544 z m 646.15454,-4.07945 c -0.19,-1.87874 -0.43223,-3.50812 -0.53828,-3.62084 -0.10605,-0.11272 -1.7506,0.33728 -3.65454,1 -2.717,0.94573 -3.39468,1.67599 -3.15009,3.39447 0.21382,1.50239 1.15532,2.31591 3,2.59225 4.23834,0.6349 4.71051,0.26896 4.34291,-3.36588 z m -846.920322,-9.9452 c -1.932859,-1.75821 -4.37052,-2.97069 -5.972506,-2.97069 h -2.706729 l 2.192394,1.53561 c 2.103158,1.47311 8.212106,4.37548 9.252618,4.39593 0.275,0.005 -0.969599,-1.32698 -2.765777,-2.96085 z m 354.141932,-6.50854 c 0.32995,-0.85985 -0.038,-1.7789 -0.8346,-2.08458 -2.34832,-0.90114 -4.99651,0.0308 -5.35339,1.88391 -0.25727,1.33588 0.35219,1.73852 2.63153,1.73852 1.7467,0 3.20897,-0.6323 3.55646,-1.53785 z m 14.62385,-1.4391 c 0,-2.90513 -4.02493,-5.16806 -7.83629,-4.40579 -1.74004,0.34801 -3.15682,0.91399 -3.1484,1.25774 0.0432,1.7622 2.0824,3.40882 5.10543,4.1225 5.2627,1.24242 5.87926,1.14023 5.87926,-0.97445 z m -142.5,-2.05905 c 15.22634,-0.86989 37.25057,-4.44158 67.42945,-10.93509 5.1862,-1.1159 9.6862,-2.0472 10,-2.06955 0.3138,-0.0224 -0.83514,-1.25985 -2.5532,-2.75 -2.11995,-1.83873 -3.6553,-4.55708 -4.77793,-8.45936 -0.9098,-3.1625 -1.92951,-5.75 -2.26601,-5.75 -0.3365,0 -1.17524,0.77051 -1.86385,1.71225 -1.09378,1.49583 -1.46896,1.53223 -2.96823,0.28794 -1.96287,-1.62904 -3.74711,-1.79203 -27.00023,-2.46651 -69.27883,-2.00951 -112.30371,-2.55141 -126.90343,-1.59834 -8.74688,0.571 -16.14326,1.27802 -16.4364,1.57116 -0.99574,0.99574 -1.3753,22.97525 -0.45751,26.4935 0.81198,3.11264 1.32145,3.53434 4.60334,3.81026 3.60692,0.30324 3.66776,0.25092 2.69216,-2.3151 -1.50063,-3.94695 -1.25566,-14.03657 0.37363,-15.38876 1.10047,-0.91331 1.49604,-0.51723 2,2.00256 0.34552,1.72757 0.62821,5.30265 0.62821,7.94461 0,5.1419 1.98026,8.28673 4.87138,7.7362 1.26451,-0.24079 1.76377,-1.98461 2.23315,-7.79995 0.33249,-4.1194 0.94313,-8.27732 1.35699,-9.23982 1.44048,-3.35012 2.53848,-1.71419 2.53848,3.78212 0,5.24589 1.75662,11.26478 4.11807,14.11014 0.85702,1.03265 7.70368,1.18809 33.72861,0.76575 17.95933,-0.29146 39.85332,-0.94126 48.65332,-1.44401 z m -78.5,-14.40498 c 0,-9.38721 0.91993,-12.03952 3.33713,-9.62148 0.71041,0.71065 1.1632,4.64548 1.16371,10.11286 8.1e-4,8.61564 -0.0832,8.9496 -2.25,8.9496 -2.17551,0 -2.25084,-0.31596 -2.25084,-9.44098 z m 13.18045,7.26931 c 0.17575,-1.19442 0.88181,-2.35684 1.56902,-2.58316 1.81315,-0.59712 2.82109,2.77994 1.14625,3.84044 -2.25591,1.42843 -3.05595,1.05798 -2.71527,-1.25728 z m 12.81955,-1.40798 c 0,-1.76581 1.48307,-2.55594 3.40976,-1.81661 2.34672,0.90053 1.93446,2.0973 -0.90976,2.64101 -1.63154,0.31189 -2.5,0.0255 -2.5,-0.8244 z m 14.67013,0.16241 c -0.68966,-1.79722 2.40864,-3.07335 3.43394,-1.41438 0.42018,0.67987 0.5421,1.59511 0.27093,2.03387 -0.8021,1.29783 -3.11771,0.91063 -3.70487,-0.61949 z m -28.23016,-9.97193 c -2.82534,-4.03374 -1.06844,-7.43529 2.81003,-5.44052 2.30496,1.18548 2.46488,7.49636 0.18997,7.49636 -0.85802,0 -2.20802,-0.92513 -3,-2.05584 z m 12.56003,0.38881 -2.5,-1.91119 2.19019,-2.20664 2.19018,-2.20663 0.64837,2.58332 c 0.35661,1.42082 0.49602,3.27384 0.30982,4.11782 -0.28955,1.31236 -0.70049,1.25783 -2.83856,-0.37668 z m 118,0.50036 c -1.01957,-1.22851 -0.95124,-1.5 0.37756,-1.5 0.89234,0 1.62244,0.675 1.62244,1.5 0,0.825 -0.1699,1.5 -0.37756,1.5 -0.20765,0 -0.93775,-0.675 -1.62244,-1.5 z m -101.36383,-3.99426 c 0.31537,-0.82184 0.98359,-1.24074 1.48493,-0.9309 1.04858,0.64806 0.20682,2.42516 -1.14873,2.42516 -0.50028,0 -0.65157,-0.67242 -0.3362,-1.49426 z m 204.29953,22.55516 c 2.28552,-1.44621 -0.37489,-3.81688 -6.23703,-5.55774 -8.6408,-2.56605 -18.38085,-1.44447 -17.07218,1.96588 1.26388,3.29361 19.371,6.08385 23.30921,3.59186 z m -280.03867,-2.1796 c 1.64942,-1.53666 2.0771,-2.70418 1.55684,-4.25 -0.39452,-1.17221 -0.87091,-7.0813 -1.05864,-13.1313 -0.51158,-16.48692 -1.74096,-18.94654 -5.71823,-11.44045 -1.56382,2.95133 -1.75465,5.14644 -1.34225,15.44045 0.6452,16.10516 1.58393,18.01934 6.56228,13.3813 z m 299.40112,1.48722 c 1.09315,-1.09315 -1.23893,-4.28654 -4.27813,-5.85817 -2.80029,-1.44809 -12.02002,-2.14965 -12.02002,-0.91464 0,0.32764 0.76026,1.88272 1.68947,3.45575 1.48239,2.50949 2.37101,2.90357 7.25,3.2152 3.05829,0.19535 5.82303,0.44026 6.14386,0.54426 0.32084,0.10399 0.8675,-0.0951 1.21482,-0.4424 z m -309.78103,-3.42247 c 0.35855,-1.12968 0.33012,-7.44531 -0.0632,-14.03475 -0.6308,-10.56884 -0.96161,-12.15347 -2.80702,-13.44605 -2.17741,-1.52511 -10.88373,-1.96789 -16.52193,-0.84025 l -3.125,0.625 -0.0997,9.625 c -0.1047,10.10999 -1.09753,15.85573 -2.26792,13.125 -0.3536,-0.825 -0.97804,-6.21979 -1.38765,-11.98841 -0.59917,-8.43814 -1.05776,-10.54828 -2.34597,-10.79468 -1.29349,-0.24739 -1.72455,0.99962 -2.24289,6.48842 -0.35292,3.73707 -0.64487,10.03678 -0.64878,13.99936 l -0.007,7.20468 3.31718,0.62231 c 1.82445,0.34227 4.86195,0.47516 6.75,0.29531 l 3.43276,-0.32699 0.28623,-10.98623 c 0.15742,-6.04242 0.65602,-11.35602 1.10799,-11.80799 0.45196,-0.45196 1.05742,3.14184 1.34544,7.98623 0.52924,8.90132 1.96522,13.7889 4.31627,14.69108 0.9455,0.36282 1.46268,-1.53822 1.95739,-7.19499 0.3698,-4.22845 0.98767,-9.9381 1.37305,-12.6881 0.65698,-4.68819 0.77908,-4.85787 1.95788,-2.72096 0.69146,1.25348 1.48783,6.20348 1.76971,11 0.6098,10.37677 1.11271,13.22096 2.3377,13.22096 0.50246,0 1.20692,-0.92428 1.56546,-2.05395 z m 330.84451,0.55395 c 0.6833,-1.78066 5.89039,-1.96937 13.66374,-0.49519 2.91409,0.55265 5.51146,0.79169 5.77194,0.53121 1.05333,-1.05332 -3.17012,-5.79384 -6.34297,-7.11955 -4.64575,-1.94111 -11.07043,-1.85931 -11.84178,0.15079 -0.51779,1.34935 -2.06502,1.46921 -11.12852,0.86208 -10.04425,-0.67282 -10.49607,-0.61857 -9.85034,1.18275 1.76666,4.92826 4.45721,6.23628 13.00931,6.32452 4.58043,0.0473 6.28943,-0.31816 6.71862,-1.43661 z m 58.43526,-3.06906 c 29.02439,-1.84641 32.79427,-3.15995 21.45311,-7.47497 -5.51365,-2.09779 -6.30018,-2.14033 -19.13481,-1.03488 -7.36164,0.63406 -14.19455,1.5862 -15.18425,2.11587 -2.38253,1.27509 -6.68001,1.21657 -12.69971,-0.17294 -3.16596,-0.7308 -6.25734,-0.81997 -8.66692,-0.25 l -3.74558,0.88598 2.22875,2.83332 c 2.41843,3.07444 5.14161,4.50403 8.76866,4.60329 1.27388,0.0349 13.41521,-0.64269 26.98075,-1.50567 z M 460.0179,434.39332 c 7.15,-0.52968 19.075,-1.41643 26.5,-1.97055 7.425,-0.55412 26.1,-1.91747 41.5,-3.02965 15.4,-1.11218 33.85,-2.45863 41,-2.9921 7.15,-0.53347 19.3,-1.42748 27,-1.98669 24.2751,-1.76298 27.94295,-2.20611 30.25,-3.65462 5.4707,-3.43486 2.83584,-4.08736 -21.75,-5.38615 -12.71017,-0.67144 -43.69967,-0.75002 -89,-0.2257 -38.225,0.44244 -76.475,0.51357 -85,0.15808 -8.525,-0.3555 -16.54524,-0.255 -17.82276,0.22333 -3.67976,1.37776 -2.31154,4.15959 2.83368,5.76134 9.39902,2.92601 10.15494,3.37828 11.71994,7.01204 3.93527,9.13727 2.81049,8.40117 11.75162,7.69076 4.40964,-0.35037 13.86752,-1.07041 21.01752,-1.60009 z m 150.5,-1.80907 c 0,-0.99488 -0.61466,-2.64947 -1.36591,-3.67686 -1.21597,-1.66294 -1.70995,-1.72549 -4.5,-0.56981 -3.48701,1.44436 -4.03911,3.42903 -1.38409,4.97544 3.00475,1.75011 7.25,1.32338 7.25,-0.72877 z m 371.4652,-0.17621 4.63101,-1.98509 -0.29811,-6.23113 -0.2981,-6.23114 -3.84756,-0.90619 c -3.18804,-0.75086 -4.30222,-0.56804 -6.5,1.06654 -2.92393,2.17466 -3.64745,4.81991 -2.69987,9.87094 0.52656,2.80681 2.7928,6.40115 4.03595,6.40115 0.19012,0 2.42962,-0.89329 4.97668,-1.98508 z m 132.7482,0.34982 c 6.9076,-0.58391 7.652,-0.86687 9.2074,-3.5 2.1603,-3.6571 3.9043,-3.62124 6.5792,0.13526 2.524,3.54459 4.7452,3.77485 8.4328,0.87416 l 2.7026,-2.12584 1.489,2.12584 c 1.1385,1.62542 2.535,2.12584 5.9323,2.12584 3.8954,0 4.4433,-0.26813 4.4433,-2.17431 v -2.17432 l 2.3145,2.17432 c 1.2729,1.19587 3.5017,2.17431 4.9529,2.17431 2.1284,0 2.8099,-0.62837 3.5246,-3.25 0.4874,-1.7875 0.6827,-4.95107 0.4341,-7.03015 l -0.452,-3.78015 -6.137,0.13309 c -3.3754,0.0732 -7.7121,-0.37233 -9.6371,-0.99006 -3.1734,-1.01836 -3.6951,-0.90003 -5.5912,1.26822 l -2.0912,2.39138 -3.7925,-2.28883 c -2.9699,-1.79246 -4.2684,-2.07196 -5.9873,-1.28878 -1.4962,0.68171 -4.0798,0.63103 -8.1163,-0.1592 -15.0334,-2.94308 -76.0401,-2.0668 -92.1033,1.32293 -5.8883,1.24259 -6.3631,1.19479 -10,-1.00684 -4.8271,-2.92211 -7.0126,-2.9123 -11.3371,0.0509 l -3.4624,2.37251 -3.4915,-2.37251 c -2.1573,-1.46591 -4.94073,-2.37251 -7.28409,-2.37251 -3.21302,0 -3.95507,0.42026 -4.85565,2.75 -1.10003,2.84571 -0.72662,11.74418 0.54625,13.01704 0.39768,0.39769 7.51003,0.8886 15.80519,1.09092 14.7194,0.35901 15.1234,0.31324 16.7951,-1.90301 l 1.7129,-2.27087 1.7416,2.65796 1.7415,2.65796 h 39.2341 c 21.5788,0 42.616,-0.28587 46.7493,-0.63526 z m -160.4198,-6.95611 c 0.41018,-8.51007 -0.053,-8.7712 -16.40434,-9.24903 -18.18475,-0.53139 -21.93399,0.0956 -23.25656,3.88957 -1.35705,3.89283 -2.92882,3.75117 -3.31934,-0.29917 -0.28608,-2.9671 -0.63978,-3.27702 -4.06336,-3.56037 -3.54824,-0.29366 -3.75,-0.15322 -3.75,2.61043 0,1.60644 0.28617,5.0086 0.63592,7.56037 l 0.63593,4.63957 5.11407,-0.009 c 2.81275,-0.005 7.47732,-0.29255 10.36573,-0.63949 5.04774,-0.6063 5.29647,-0.78041 6.40615,-4.48416 0.91602,-3.05741 1.43208,-3.62299 2.49835,-2.73807 0.73912,0.61341 1.34385,2.14839 1.34385,3.41107 0,5.37951 0.38849,5.54411 12.36913,5.24098 l 11.13087,-0.28133 z m 228.6134,5.62674 c 4.1294,-1.56999 4.7043,-7.91204 1.1364,-12.53537 -1.5097,-1.9563 -1.5754,-1.95866 -3.0073,-0.10819 -0.8052,1.0405 -1.6185,2.35553 -1.8075,2.92231 -0.1889,0.56677 -1.7711,-0.025 -3.5159,-1.315 -3.084,-2.28008 -3.2288,-2.2945 -5.1926,-0.51732 -2.477,2.24169 -2.7399,8.65553 -0.4487,10.94677 1.7787,1.77867 8.8714,2.11398 12.8356,0.6068 z m 12.2785,-1.20968 c 1.273,-1.19588 2.3145,-3.25046 2.3145,-4.56575 0,-3.73489 -2.8131,-8.19257 -5.203,-8.24463 -1.3085,-0.0285 -2.6195,6.88944 -2.0749,10.94923 0.6142,4.57969 1.6545,4.96975 4.9634,1.86115 z m -322.06292,-0.31246 c 2.61774,-1.09376 4.07618,-1.20963 5.51733,-0.43835 1.07745,0.57663 3.17424,0.90818 4.65954,0.73677 2.37911,-0.27455 2.77187,-0.84615 3.29974,-4.80218 1.28517,-9.6316 -2.68138,-12.71814 -9.58111,-7.45546 -2.74659,2.09492 -3.51808,2.33611 -3.51808,1.09986 0,-2.33649 -3.55503,-3.82797 -7.40336,-3.10602 -1.85643,0.34827 -6.79343,0.0818 -10.9711,-0.59212 -8.4057,-1.35598 -9.95563,-0.83049 -11.80736,4.00317 l -0.97348,2.5411 -1.37407,-3.25 c -1.23219,-2.9144 -1.79724,-3.25 -5.47201,-3.25 h -4.09793 l 0.6281,6.25 c 0.34545,3.4375 0.80367,6.8125 1.01827,7.5 0.42742,1.36935 4.6624,1.59423 11.74392,0.62359 4.25348,-0.583 4.62951,-0.87747 5.42709,-4.25 1.12709,-4.76581 3.32496,-4.609 4.71245,0.33623 0.80693,2.87603 1.78957,4.1488 3.59024,4.65032 4.33702,1.20792 10.927,0.93853 14.60182,-0.59691 z m 24.25242,0.86177 c 2.99192,-0.59838 3.125,-0.83455 3.125,-5.54545 0,-3.89086 -0.51361,-5.43407 -2.45455,-7.375 -2.79702,-2.79703 -6.04336,-3.20537 -6.93846,-0.87276 -0.77522,2.02018 -0.76139,9.24015 0.0233,12.16821 0.64557,2.40894 1.3754,2.59886 6.24471,1.625 z m 72.71601,-1.88157 c 0.86303,-3.43859 -0.29028,-8.90047 -2.43994,-11.55519 -1.58556,-1.95809 -2.05701,-2.05958 -4.21807,-0.90802 -3.53683,1.88466 -4.86524,4.02344 -4.9012,7.89104 -0.0434,4.6709 2.37306,7.07874 7.10414,7.07874 3.24971,0 3.92071,-0.37753 4.45507,-2.50657 z m -343.1728,0.89958 c 0.86999,-0.33384 1.58179,-1.22527 1.58179,-1.98095 0,-1.96509 -4.0698,-2.71698 -7.53903,-1.39281 -2.84763,1.0869 -2.88667,1.18472 -1.01984,2.55545 2.0751,1.52367 4.42173,1.79889 6.97708,0.81831 z m 170.08179,-6.89301 c 0,-6.35728 -0.19351,-7.02763 -2.1076,-7.30089 -1.54721,-0.22089 -2.44361,0.51031 -3.37132,2.75 -1.56911,3.78816 -2.79021,3.90281 -3.20466,0.30089 -0.27235,-2.36699 -0.82055,-2.79214 -3.93604,-3.05259 -3.06009,-0.25582 -3.71494,0.0533 -4.23634,2 -0.90843,3.39166 -0.7755,7.32663 0.34726,10.27971 0.96536,2.53908 1.19437,2.59967 8.75,2.3151 l 7.7587,-0.29222 z m 28.96417,6.14986 c 2.58538,-1.89048 3.486,-12.07127 1.14724,-12.96873 -0.88627,-0.3401 -2.22546,-0.38273 -2.97596,-0.0947 -1.55424,0.59641 -3.63545,4.69573 -3.63545,7.16065 0,1.28876 -0.2653,1.38765 -1.20411,0.44884 -0.66226,-0.66226 -1.09816,-2.77726 -0.96867,-4.7 l 0.23543,-3.49592 h -4.4365 -4.43649 l 0.53812,6.25 c 0.29597,3.4375 0.9834,6.8125 1.52762,7.5 1.34161,1.69482 11.85535,1.62072 14.20877,-0.10014 z m 378.79153,-3.14697 c -0.2121,-3.40462 -2.5798,-7.71098 -3.5426,-6.44337 -0.1841,0.24227 -0.1497,2.8273 0.076,5.74452 0.3315,4.27945 0.7296,5.23785 2.0608,4.96142 1.2481,-0.25918 1.5903,-1.29707 1.4055,-4.26257 z m -470.2557,-2.3959 c 0,-4.40883 -0.3917,-6.04332 -1.55528,-6.48983 -1.09983,-0.42204 -1.97834,0.41573 -3,2.86089 -1.87785,4.49434 -1.83047,5.1362 0.55528,7.52195 3.18997,3.18997 4,2.4016 4,-3.89301 z m 30,-1.1135 c 0,-6.12688 -0.68272,-6.99349 -5.50953,-6.99349 -2.2485,0 -2.32475,0.2389 -1.8353,5.75 0.70258,7.91083 0.74827,7.99117 4.2522,7.4769 3.04775,-0.44731 3.09263,-0.53778 3.09263,-6.23341 z m 10.90217,3.85729 c 1.47126,-4.22045 1.38454,-8.07642 -0.23134,-10.28626 -1.11241,-1.52133 -1.69096,-1.62411 -3.54786,-0.63033 -4.59762,2.46057 -4.74516,10.42783 -0.24183,13.0591 2.47375,1.4454 2.83792,1.25136 4.02103,-2.14251 z m 32.89222,-3.47254 c 0.26894,-5.59264 0.10371,-6.17162 -1.91167,-6.69866 -4.32798,-1.13179 -5.88272,0.82816 -5.88272,7.41597 v 6.02518 l 3.75,-0.31036 3.75,-0.31037 z m 418.02361,4.12176 c 0.9969,-2.18795 0.9026,-2.5 -0.7561,-2.5 -2.0196,0 -3.0631,1.69566 -2.3076,3.75 0.7127,1.93801 1.8164,1.48772 3.0637,-1.25 z m -501.21005,-0.25 c 1.65735,-2.18328 1.72475,-4.4257 0.23153,-7.70295 -1.43347,-3.14613 -3.62974,-3.28825 -4.73285,-0.30627 -1.05096,2.84102 0.78658,9.75922 2.59214,9.75922 0.31941,0 1.17854,-0.7875 1.90918,-1.75 z m 27.78506,0.16821 c 1.4332,-3.73486 0.35191,-10.41821 -1.68555,-10.41821 -1.87214,0 -5.70746,4.26412 -5.70746,6.34557 0,4.30788 6.02839,7.62878 7.39301,4.07264 z m -11.39301,-4.70057 c 0,-4.46464 -0.18165,-4.83094 -2.25,-4.53719 -3.91392,0.55586 -3.66744,9.83969 0.25339,9.54434 1.70077,-0.12811 1.99661,-0.87003 1.99661,-5.00715 z m -39.88382,-0.31671 -0.91528,-3.90093 -0.10045,3.58333 c -0.0553,1.97084 0.19955,3.88334 0.56622,4.25 1.23017,1.23017 1.37124,-0.004 0.44951,-3.9324 z M 388.9501,408.89312 c 3.12366,-4.09533 6.28604,-4.50694 13.83595,-1.80087 4.68561,1.67943 4.8058,1.67137 6.94272,-0.46556 l 2.17458,-2.17457 -3.94273,-1.72787 c -3.04119,-1.33277 -7.65837,-1.82033 -20.19272,-2.13227 -14.73843,-0.36679 -16.25,-0.24747 -16.25,1.28267 0,1.10094 2.08762,2.60974 6.00879,4.34279 3.30484,1.46065 6.26016,3.44772 6.56739,4.4157 0.81349,2.56309 1.85986,2.18815 4.85602,-1.74002 z m 493.5678,0.57143 c 0,-2.95617 -9.07074,-6.81853 -13.04841,-5.55606 -1.59927,0.50758 -1.75856,0.97678 -0.88547,2.60819 0.58555,1.09409 2.04771,2.38535 3.24925,2.86946 2.93752,1.18355 10.68463,1.24041 10.68463,0.0784 z m 21.5,-1.07143 c 0,-2.58215 -6.45151,-5.15796 -11.77199,-4.70006 -5.41618,0.46614 -6.6289,1.19917 -4.87899,2.94908 3.20884,3.20884 16.65098,4.62238 16.65098,1.75098 z m 18.25517,-0.26745 c 0.69077,-0.54265 3.3887,-0.715 6,-0.3833 2.60966,0.33149 7.21983,0.90007 10.24483,1.26352 l 5.5,0.66082 -1.89991,-2.13118 c -3.06338,-3.43629 -7.90451,-4.22876 -18.56878,-3.03963 -5.24155,0.58447 -9.68396,1.21653 -9.87201,1.40459 -0.18805,0.18805 -0.0507,1.25954 0.3053,2.38109 0.53325,1.68012 1.20963,1.93273 3.8413,1.43465 1.75676,-0.3325 3.75893,-1.04824 4.44927,-1.59056 z m 44.74483,1.1354 c 6.31596,0.4648 70.1262,0.55853 77.5,0.11384 3.025,-0.18242 8.875,0.0451 13,0.50568 7.1796,0.80158 7.4359,0.75971 6,-0.97996 -3.8623,-4.67935 -14.8821,-5.49336 -48,-3.54566 -9.7912,0.57583 -16.04623,0.50149 -19.26141,-0.22893 -3.45754,-0.78548 -6.42519,-0.77227 -10.8371,0.0482 -4.48979,0.83496 -8.85897,0.83996 -16.73859,0.0191 -10.38623,-1.08187 -20.1629,-0.52229 -20.1629,1.1541 0,1.67189 7.44215,3.97948 10.5,3.25574 1.65,-0.39053 5.25,-0.54448 8,-0.34211 z m 115.9125,0.52727 c 3.974,-1.52498 -4.3003,-5.39522 -11.5346,-5.39522 -4.8682,0 -5.5248,0.43412 -4.0844,2.70019 1.6863,2.65278 11.3733,4.32425 15.619,2.69503 z m 23.1319,-0.94234 c 2.2244,-0.35351 8.9744,-0.14125 15,0.47168 8.2186,0.83602 13.8458,0.81952 22.5245,-0.066 8.0381,-0.8202 12.4649,-0.86807 14.5051,-0.15686 1.8562,0.64706 3.8531,0.68449 5.4284,0.10175 l 2.492,-0.92186 -2.4649,-1.85933 c -3.609,-2.72226 -7.5002,-3.17819 -12.5352,-1.46875 -3.927,1.33323 -5.0838,1.34087 -9.7257,0.0643 -7.5541,-2.07751 -50.2686,-0.90296 -50.2686,1.38227 0,1.74749 6.0822,4.12147 9,3.51283 1.1,-0.22946 3.82,-0.70643 6.0444,-1.05995 z m 82.4403,0.79712 c -0.032,-1.56362 -1.6146,-3.15878 -4.0542,-4.08634 -3.6184,-1.37571 -15.9365,-2.56126 -15.8987,-1.53016 0.074,2.01882 3.0903,4.65162 6.1625,5.37904 4.3489,1.02975 13.8099,1.19266 13.7904,0.23746 z m 45.0153,-0.17742 c 0,-1.51496 -4.8672,-4.88451 -8.0725,-5.58849 -1.7916,-0.39351 -5.1224,0.0202 -8.3585,1.03804 -5.2035,1.63669 -5.5633,1.62371 -10.9604,-0.3956 -4.1971,-1.57035 -6.2033,-1.85091 -8.0944,-1.13193 -4.0598,1.54354 -2.9452,3.7058 2.9858,5.79218 3.7392,1.31534 32.5,1.56826 32.5,0.2858 z m -371,-0.94944 c 0,-1.45504 -9.61956,-5.12314 -13.43538,-5.12314 -5.07696,0 -4.40966,1.53545 1.68538,3.87801 5.45869,2.09798 11.75,2.76467 11.75,1.24513 z m 386.9636,-0.57934 c 1.9003,-2.28966 0.2998,-3.5438 -4.5226,-3.5438 -5.0678,0 -5.6889,1.25912 -1.691,3.42803 3.5021,1.89992 4.7142,1.9225 6.2136,0.11577 z M 161.1027,407.25591 c 1.5905,-2.57348 -8.53339,-7.11619 -18.98368,-8.51821 l -4.89889,-0.65724 1.76537,2.98853 c 2.52778,4.27919 4.95726,5.46156 12.95696,6.30584 3.89149,0.4107 7.38638,0.80783 7.76642,0.88251 0.38004,0.0747 1.00726,-0.37597 1.39382,-1.00143 z m 41.38101,-0.32159 c 1.00231,-1.20771 0.72218,-1.56958 -1.62756,-2.10246 -1.56104,-0.35401 -5.81177,-1.49756 -9.44606,-2.5412 -7.27848,-2.09013 -17.33622,-2.45736 -23.14219,-0.84496 -3.9559,1.09861 -4.28322,1.55601 -2.79605,3.90715 1.00172,1.58368 10.49923,2.61108 26.67361,2.88544 6.92347,0.11744 9.4199,-0.19743 10.33825,-1.30397 z m 48.53419,-0.28076 c 10.27727,-0.30062 11.80642,-0.31517 36.5,-0.34736 7.975,-0.0104 16.6375,-0.0308 19.25,-0.0453 2.6125,-0.0145 7.675,-0.0329 11.25,-0.0408 3.575,-0.008 9.3125,-0.0679 12.75,-0.13337 3.4375,-0.0654 12.1,0.23042 19.25,0.65743 8.49103,0.50709 13.51737,0.42189 14.49164,-0.24566 2.06512,-1.41498 0.27967,-3.02257 -4.61938,-4.1592 -4.24331,-0.9845 -78.36964,-1.01623 -125.87226,-0.0539 -29.34641,0.59452 -29.9299,0.64608 -26.7825,2.36663 5.62096,3.07275 10.3501,3.70678 22.2825,2.9874 6.325,-0.38133 16,-0.82495 21.5,-0.98583 z m 218.61352,-2.04833 c -1.67358,-3.12711 -9.52182,-4.5013 -22.75459,-3.98424 -11.37314,0.4444 -13.94354,1.28809 -13.01537,4.27213 0.47356,1.52251 7.55353,1.81151 13.15644,0.53704 4.19556,-0.95435 6.36755,-0.82847 13.5,0.78238 8.94848,2.021 10.87362,1.68147 9.11352,-1.60731 z m 26.71664,1.88177 c 5.18805,-1.79174 5.4616,-1.79087 10.26072,0.0326 2.71182,1.03041 6.35994,1.87347 8.10694,1.87347 h 3.17636 l -2.83584,-2.95998 c -1.98567,-2.07259 -4.49958,-3.30538 -8.38539,-4.11207 -5.9874,-1.24298 -29.76872,-0.91309 -31.95151,0.44322 -2.05095,1.2744 0.36519,3.43066 5.67696,5.06636 6.21642,1.91427 9.62661,1.84081 15.95176,-0.34365 z m 42.95968,0.049 c 3.22777,-1.61561 4.10022,-1.68648 6.71016,-0.5451 6.55009,2.86449 11.96872,0.81963 7.47354,-2.82034 -2.04875,-1.65897 -3.42562,-1.82146 -10.90911,-1.2874 -4.71044,0.33617 -11.60193,0.21886 -15.31443,-0.26068 -3.7125,-0.47954 -6.75,-0.53913 -6.75,-0.13244 0,5.95594 11.04563,8.92222 18.78984,5.04596 z m 39.62837,1.25008 c 2.40445,-0.92267 1.90989,-2.17198 -1.57273,-3.97291 -3.50799,-1.81406 -15.1374,-2.49528 -15.70725,-0.9201 -0.19898,0.55 2.50102,1.99657 6,3.2146 6.7617,2.35381 8.74924,2.64955 11.27998,1.67841 z m 47,0 c 5.089,-1.95278 -2.26182,-5.39296 -11.52354,-5.39296 h -7.20465 l 1.90499,2.11803 c 1.04775,1.16492 2.80499,2.48639 3.90499,2.93661 2.38729,0.9771 10.68717,1.1945 12.91821,0.33837 z m 24.55617,-1.44088 c -1.48943,-2.78302 -5.01983,-3.95772 -11.78948,-3.92282 l -5.6849,0.0293 3.26578,2.97068 c 2.86216,2.60355 4.00971,2.97069 9.28518,2.97069 5.75643,0 5.97153,-0.0895 4.92342,-2.04787 z m 18.47888,0.70571 c 1.75259,-1.28153 1.72858,-1.41707 -0.53138,-3 -1.32359,-0.92703 -4.28468,-1.65779 -6.71771,-1.65779 -3.57664,0 -4.29187,0.30609 -4.01954,1.72019 0.19429,1.00889 1.98201,2.21762 4.32332,2.92315 5.18903,1.56365 4.82774,1.5629 6.94531,0.0145 z m 75.74122,-0.90779 c -2.12217,-2.1222 -3.07106,-2.25192 -16.70599,-2.28377 -8.04978,-0.0188 -14.07556,0.3467 -13.59747,0.82479 2.38419,2.38419 9.34575,3.6239 20.5812,3.66509 l 11.97222,0.0439 -2.24996,-2.25 z m 20.22373,1.64301 c 2.43887,-0.93588 1.88992,-2.08995 -1.56743,-3.29518 -4.39289,-1.53137 -6.80915,-1.36989 -7.52788,0.50309 -1.058,2.75711 4.63344,4.50427 9.09531,2.79209 z m 18.58179,-0.40832 c 1.33333,-0.87528 1.33333,-1.09678 0,-1.99353 -3.60996,-2.42791 -9,-2.42212 -9,0.01 0,2.25052 6.43351,3.66864 9,1.98385 z m 19.75,0.38502 c 3.0065,-0.80571 2.83718,-1.89465 -0.5,-3.21558 -4.43052,-1.7537 -12.25,-1.92035 -12.25,-0.26108 0,0.99372 6.6554,3.98257 9,4.04177 0.825,0.0208 2.5125,-0.23347 3.75,-0.56511 z m 36.25,-0.59025 c 0,-0.49056 -2.09649,-1.8193 -4.65886,-2.95275 -3.82152,-1.69044 -6.11979,-1.98416 -12.78737,-1.6342 -9.84158,0.51655 -11.76574,1.3736 -8.25124,3.6752 1.92006,1.25743 5.15704,1.65197 14.09497,1.71798 6.38138,0.0471 11.6025,-0.31567 11.6025,-0.80623 z m -412.5352,-2.8162 c -3.50784,-3.6614 -6.09078,-4.43616 -9.92702,-2.97762 -2.67087,1.01546 -2.76311,1.2176 -1.24731,2.7334 1.45722,1.45722 6.62069,2.79873 12.14662,3.15579 1.67388,0.10816 1.54177,-0.28746 -0.97229,-2.91157 z m 172.5352,2.00242 c 2.66785,-1.78513 -1.67112,-3.96568 -7.89113,-3.96568 -5.80282,0 -5.92255,0.67476 -0.60887,3.43136 3.45002,1.78978 6.35119,1.97215 8.5,0.53432 z m 88.5,-0.42412 c 0,-0.52714 -1.70846,-1.60868 -3.79658,-2.40342 -2.86057,-1.08874 -4.08001,-1.16155 -4.94625,-0.29531 -0.86624,0.86624 -0.66985,1.5192 0.79658,2.64853 2.08386,1.60482 7.94625,1.64186 7.94625,0.0502 z m 18.5,0.44226 c 0,-0.5589 -1.56308,-1.76156 -3.47351,-2.67258 -2.91573,-1.39042 -3.91752,-1.45411 -6.23845,-0.39662 l -2.76493,1.25979 2.48844,1.37736 c 2.90514,1.608 9.98845,1.91439 9.98845,0.43205 z m -572.4383,-2.08365 c 1.16228,-1.88062 -3.06197,-6.35166 -6.92652,-7.33118 -4.29517,-1.08866 -6.18293,0.12983 -5.16585,3.33439 1.22249,3.85172 10.32303,6.85965 12.09237,3.99679 z m -18.30895,-6.75152 c -2.73279,-3.39967 -10.52337,-7.21136 -11.90834,-5.82639 -1.15738,1.15737 4.13524,8.67614 7.06937,10.04286 7.56057,3.52171 9.61809,1.72887 4.83897,-4.21647 z m 1007.05835,-1.2869 c 2.3677,-3.02538 2.5402,-3.07933 4.795,-1.5 2.6719,1.87147 7.1071,2.12972 9.9987,0.58219 1.5992,-0.85589 2.5745,-0.55015 5.1451,1.61289 2.8646,2.41038 3.6956,2.6074 8.5778,2.0336 2.9733,-0.34945 7.6024,-1.58025 10.287,-2.73511 4.0899,-1.75944 5.3377,-1.91055 7.6993,-0.93238 2.0289,0.84041 3.5933,0.87269 5.5855,0.11525 2.2849,-0.86869 3.2122,-0.70222 5.3188,0.95485 2.5129,1.97665 8.3446,2.63464 12.7817,1.44214 1.9486,-0.5237 1.9908,-1.23021 1.6437,-27.48635 -0.3161,-23.90804 -0.1802,-26.94883 1.2047,-26.94883 2.1399,0 2.4562,2.86974 3.0744,27.89234 0.2907,11.76578 0.7645,21.62828 1.0529,21.91667 0.2884,0.28838 0.8618,0.18682 1.2743,-0.22568 0.9648,-0.9648 0.9853,-50.24727 0.022,-53.66834 -0.5293,-1.88022 -1.7878,-2.90265 -4.6161,-3.75 -4.3299,-1.29728 -13.0719,-1.53449 -14.7292,-0.39968 -3.2029,2.19314 -4.3592,12.71473 -3.408,31.0104 0.8876,17.07311 0.4576,20.79208 -2.18,18.85429 -1.499,-1.10127 -1.5864,-3.23206 -0.8964,-21.85689 0.9352,-25.24108 0.6273,-27.82842 -3.4482,-28.97355 -4.4647,-1.25447 -12.028,0.0259 -14.1645,2.39778 -1.597,1.77296 -1.7912,3.53812 -1.5256,13.86155 0.2471,9.59951 -0.016,12.44894 -1.3935,15.11349 l -1.6981,3.28362 -0.9218,-2.478 c -0.507,-1.3629 -0.7799,-8.92404 -0.6064,-16.80253 0.2912,-13.22679 0.1666,-14.43378 -1.6257,-15.75 -2.6053,-1.91317 -7.1924,-1.82299 -7.9519,0.15632 -0.3339,0.86998 -0.607,2.63318 -0.607,3.91821 0,3.43221 -1.0149,5.5 -2.6995,5.5 -1.1756,0 -1.4141,-1.14797 -1.143,-5.50136 l 0.3425,-5.50137 -4.143,10e-4 c -4.5795,10e-4 -5.357,0.95381 -5.357,6.56171 0,3.20899 -0.1308,3.33718 -2.366,2.31877 -2.081,-0.94818 -2.3079,-1.59272 -1.8842,-5.35199 l 0.4818,-4.27398 -15.3658,-0.62968 c -8.4512,-0.34632 -27.7408,-1.09118 -42.8658,-1.65524 -15.125,-0.56406 -37.8065,-1.46267 -50.4033,-1.9969 -12.5964,-0.53386 -26.83571,-0.97096 -31.64257,-0.97096 -9.81813,0 -9.95373,0.10283 -9.95373,7.54806 v 4.38449 l -3.4435,-2.03172 c -1.89393,-1.11744 -3.28287,-2.56476 -3.08654,-3.21627 0.19634,-0.65151 0.60041,-2.60082 0.89796,-4.33181 0.51217,-2.97961 0.34366,-3.1822 -3.16347,-3.80332 -2.03745,-0.36084 -4.55921,-0.90875 -5.60393,-1.21758 -1.66771,-0.493 -1.83271,-0.15095 -1.35232,2.80332 l 0.54715,3.36483 -4.89259,-0.34617 c -4.51964,-0.31978 -4.8492,-0.51904 -4.32341,-2.61395 0.44217,-1.76175 0.0676,-2.39894 -1.67863,-2.85559 -2.83256,-0.74073 -3.90072,-0.0904 -3.90072,2.37473 0,1.79159 -0.76777,1.94098 -9.97525,1.94098 h -9.97525 l 0.96406,-2.53568 c 1.08852,-2.86302 -0.18189,-3.86138 -4.19083,-3.2934 -1.79963,0.25497 -2.31385,0.9484 -2.28331,3.07908 0.034,2.36838 -0.3576,2.75 -2.82156,2.75 -2.53237,0 -2.82406,-0.31587 -2.53943,-2.75 0.30448,-2.60386 0.0639,-2.7796 -4.52795,-3.30701 l -4.84953,-0.55701 0.54629,3.3664 c 0.53216,3.27928 0.46356,3.35839 -2.65047,3.05701 -2.79854,-0.27085 -3.23581,-0.71425 -3.51013,-3.55939 -0.26873,-2.7871 -0.69602,-3.24782 -3,-3.23469 -4.28657,0.0244 -5.94558,1.50587 -4.42817,3.95418 1.23029,1.98504 1.06232,2.02772 -7.5,1.90575 -8.06013,-0.1148 -8.34794,-0.18485 -3.60965,-0.87845 6.852,-1.00301 7.91129,-1.72039 5.87035,-3.97561 -3.30698,-3.65417 -19.51917,-3.66646 -19.51917,-0.0148 0,2.00987 1.62466,3.5568 4.5,4.2847 1.1,0.27846 -1.6,0.51036 -6,0.51532 -9.54573,0.0107 -11.31082,0.59164 -12.16733,4.00425 -0.74459,2.96669 1.37032,14.5217 2.74959,15.02267 1.60893,0.58439 0.99663,1.68885 -1.87749,3.38664 -4.06847,2.4033 -5.42745,1.1302 -4.0182,-3.76427 1.5719,-5.4594 1.57439,-20.40299 0.004,-23.2057 -1.47164,-2.62625 -2.13124,-2.74499 -4.72263,-0.85012 -1.75478,1.28313 -1.88982,2.57016 -1.61908,15.43111 0.21083,10.01494 -0.0712,14.69497 -0.98519,16.35011 l -1.28058,2.3189 -0.67317,-3 c -0.37024,-1.65 -0.7264,-9.81004 -0.79148,-18.13342 l -0.11844,-15.13343 -2.74745,-0.5252 c -1.5111,-0.28887 -3.03931,-0.053 -3.39603,0.5242 -1.17209,1.89649 -2.14964,39.89831 -1.49887,58.26785 0.72564,20.4829 0.73301,20.5 8.83348,20.5 3.47554,0 5.3634,-0.55453 6.80887,-2 1.82835,-1.82835 2,-3.33333 2,-17.53518 0,-15.15901 0.0478,-15.5096 1.97472,-14.47835 1.81849,0.97323 1.99649,2.30112 2.25,16.78518 l 0.27528,15.72835 h 3 c 2.15196,0 3.27904,-0.63603 3.98713,-2.25 1.26531,-2.88407 1.92552,-2.83452 3.33092,0.25 2.60481,5.71694 7.38054,1.48414 7.33373,-6.5 -0.0256,-4.3716 1.6436,-11 2.77013,-11 1.25581,0 2.04735,3.809 2.07809,10 0.0429,8.63423 0.6734,10 4.61663,10 h 3.38337 v -9.95078 c 0,-5.47293 0.54777,-12.33543 1.21727,-15.25 l 1.21726,-5.29922 0.6742,6 c 0.37081,3.3 0.72304,10.1625 0.78274,15.25 l 0.10853,9.25 h 4.46421 4.46422 l -0.12247,-10.75 c -0.076,-6.67104 0.35609,-11.88831 1.13877,-13.75 l 1.26124,-3 0.92231,2.40549 c 0.50727,1.32302 0.82339,6.49802 0.70249,11.5 -0.29465,12.18965 0.30352,13.79138 5.00417,13.39981 l 3.66506,-0.3053 0.61441,-12 c 0.33793,-6.6 0.67543,-13.6875 0.75,-15.75 0.11706,-3.2374 0.45868,-3.75 2.49924,-3.75 h 2.36365 l -0.16785,14.1958 c -0.14965,12.65597 0.0345,14.39816 1.69784,16.06149 1.02613,1.02613 2.84587,1.72552 4.04386,1.5542 1.81554,-0.25963 2.31202,-1.22712 2.98224,-5.81149 0.44224,-3.025 0.6719,-10.11345 0.51034,-15.75211 l -0.29373,-10.25211 2.5,7e-4 2.5,7e-4 -0.32581,14.6256 c -0.21676,9.73038 0.0429,14.99427 0.77569,15.7271 0.60582,0.60582 5.76708,1.27421 11.46947,1.48529 l 10.36796,0.3838 1.10635,-5.15871 c 1.36115,-6.34684 1.39762,-12.7107 0.11764,-20.52735 -1.02851,-6.28097 -0.81839,-6.91413 2.64054,-7.95675 2.06764,-0.62325 2.11279,-0.48091 1.15371,3.63761 -1.0077,4.32729 -0.48431,23.37591 0.7566,27.53623 0.57702,1.93455 1.35576,2.25 5.55448,2.25 h 4.88337 l 0.006,-14.75 c 0.006,-14.78073 1.34981,-24.15324 3.03279,-21.14592 0.46007,0.8221 1.20215,9.3475 1.64906,18.94532 l 0.81215,17.4506 4.23717,0.30687 c 5.82252,0.42169 7.54827,-0.84694 8.81031,-6.47664 l 1.08281,-4.83023 0.76144,5.12457 0.76144,5.12458 4.56299,0.62542 c 2.50964,0.34399 5.85014,0.62543 7.42344,0.62543 2.7436,0 2.861,-0.19396 2.8757,-4.75 0.01,-2.6125 0.467,-5.425 1.019,-6.25 0.8688,-1.29833 1.2028,-1.23902 2.4847,0.44113 0.8146,1.06762 1.481,2.94332 1.481,4.16821 0,4.6955 0.9,5.39066 6.9792,5.39066 h 5.7652 l 0.6188,-3.87013 c 0.3404,-2.12857 1.2599,-4.40208 2.0433,-5.05224 1.1896,-0.98731 1.5633,-0.30835 2.2679,4.12013 l 0.8436,5.30224 39.991,0.51726 c 21.9951,0.28449 42.7709,0.62199 46.1685,0.75 5.8556,0.22061 6.3055,0.0692 8.6336,-2.90551 z M 839.6248,376.14312 c -0.28523,-19.33662 1.10856,-20.07139 2.69269,-1.41952 1.04013,12.24677 0.54863,17.66952 -1.60154,17.66952 -0.46829,0 -0.95931,-7.3125 -1.09115,-16.25 z m 100.41215,11.75 c -0.28548,-1.375 -0.75158,-3.62083 -1.03578,-4.99074 -0.57794,-2.78581 1.33119,-11.50926 2.51881,-11.50926 1.8033,0 2.52858,8.15633 1.35607,15.25 -0.71127,4.30318 -2.08007,4.90583 -2.8391,1.25 z m 213.16845,-0.14583 c -0.3781,-0.37813 -0.6875,-3.1205 -0.6875,-6.09416 0,-4.61092 0.2576,-5.35706 1.75,-5.06964 1.4092,0.27138 1.75,1.38936 1.75,5.73999 0,4.97345 -1.1142,7.12212 -2.8125,5.42381 z m 11.3125,-4.30712 c 0,-4.15483 1.7207,-9.04705 3.182,-9.04705 0.4735,0 1.339,1.04928 1.9233,2.33174 1.5841,3.47684 -0.5351,10.66826 -3.1438,10.66826 -1.6179,0 -1.9615,-0.69256 -1.9615,-3.95295 z m -41.6143,1.51556 c -1.1139,-2.90258 0.5267,-8.30645 2.6938,-8.87316 2.6003,-0.67998 4.5049,3.6198 3.2382,7.31055 -1.0027,2.92178 -5.0058,3.97627 -5.932,1.56261 z m 15.2213,-0.1444 c -0.913,-2.37915 -0.7331,-5.31416 0.4627,-7.54852 0.8543,-1.59618 1.3579,-1.75971 2.5,-0.81181 1.6759,1.39083 1.8667,5.25821 0.3951,8.00786 -1.2554,2.34573 -2.5411,2.48069 -3.3578,0.35247 z m 47.0445,-2.10871 c -1.6889,-10.2207 0.068,-39.40309 2.5165,-41.8095 0.6899,-0.67789 0.9054,6.15272 0.6691,21.20572 -0.2262,14.41338 -0.7359,22.59306 -1.4523,23.3095 -0.8051,0.80504 -1.2742,0.0727 -1.7333,-2.70572 z m -324.22274,-4.73733 c -0.76724,-3.0569 0.36691,-6.80515 1.9061,-6.2995 0.64083,0.21053 1.30351,2.2603 1.47264,4.55505 0.23743,3.22162 -0.043,4.17228 -1.23095,4.17228 -0.84615,0 -1.81265,-1.09252 -2.14779,-2.42783 z m 126.77124,1.22783 c -0.66,-0.66 -1.2,-2.04032 -1.2,-3.06739 0,-1.4748 0.47302,-1.72199 2.25,-1.17577 2.99729,0.92132 3.03342,0.97483 2.27392,3.3678 -0.75132,2.36721 -1.60679,2.59249 -3.32392,0.87536 z m 138.0071,-10.99286 c -1.642,-1.64206 -1.5188,-4.30357 0.268,-5.78645 1.2166,-1.00971 1.6857,-0.76187 2.6773,1.41449 0.9818,2.15481 0.9327,2.90831 -0.2679,4.1089 -1.1483,1.14833 -1.7345,1.20592 -2.6774,0.26306 z m 12.8082,-0.77864 c -1.6972,-3.17118 -1.2572,-9.00201 0.7347,-9.73694 0.9625,-0.35512 2.0806,-1.1285 2.4847,-1.71862 0.4041,-0.59012 0.7416,1.91642 0.75,5.57007 0.011,4.9624 -0.3603,6.78715 -1.4694,7.21276 -0.8639,0.33148 -1.9094,-0.2236 -2.5,-1.32727 z m -133.8328,-0.246 c -1.1966,-1.19659 -0.4793,-6.54913 1.1556,-8.6228 0.8652,-1.09741 1.2927,-1.01747 2.3593,0.44113 0.7164,0.97979 1.3026,2.93717 1.3026,4.34975 0,3.00995 -3.141,5.50838 -4.8175,3.83192 z m 160.9417,-1.85596 c -2.5104,-7.20131 -0.1094,-31.49992 2.5124,-25.42654 0.4749,1.1 0.8333,7.52011 0.7965,14.2669 -0.071,12.97538 -1.2681,17.01368 -3.3089,11.15964 z m -179.1242,-4.42654 c 0,-5.63403 0.24401,-6.5 1.83152,-6.5 2.75114,0 4.65399,8.78875 2.43573,11.25 -3.11491,3.45612 -4.26725,2.17342 -4.26725,-4.75 z m 37.5028,3.50895 c -0.7469,-2.35352 0.074,-4.00895 1.9888,-4.00895 1.5596,0 2.9575,3.46434 2.0139,4.99105 -1.0442,1.6896 -3.3329,1.12804 -4.0027,-0.9821 z m 0.182,-24.86521 c -1.7153,-0.67625 -1.7011,-0.81897 0.2561,-2.59025 2.3049,-2.08593 2.5154,-2.01402 3.5023,1.19651 0.7318,2.38087 -0.2919,2.76049 -3.7584,1.39374 z m -35.44614,-0.97508 c -1.01113,-0.64187 -0.99573,-1.56793 0.0776,-4.66815 1.46629,-4.23529 2.39743,-3.7039 3.71035,2.11744 0.62781,2.78361 0.47176,3.37934 -0.88191,3.36674 -0.90458,-0.008 -2.2123,-0.37564 -2.90603,-0.81603 z m 16.79314,0.0813 c 0.018,-0.4125 0.6182,-1.52184 1.3348,-2.4652 0.9918,-1.30559 1.5813,-1.43694 2.4682,-0.55 1.9527,1.95267 1.3101,3.7652 -1.3348,3.7652 -1.375,0 -2.4857,-0.3375 -2.4682,-0.75 z M 814.14841,396.863 c 1.17178,-0.24642 2.40313,-1.46547 2.73634,-2.70898 0.78022,-2.91171 0.58127,-60.06509 -0.24106,-69.25249 -0.57029,-6.37148 -0.87062,-7.10844 -3.38645,-8.30967 -4.15918,-1.98588 -11.40759,-0.6567 -12.13072,2.22447 -0.3066,1.22159 -0.59308,16.2511 -0.63663,33.39891 -0.0458,18.03556 -0.46328,31.17784 -0.9904,31.17784 -2.58313,0 -3.02757,-5.1382 -2.9518,-34.12577 0.0505,-19.31019 -0.28881,-30.53325 -0.94284,-31.18728 -0.65862,-0.65862 -1.76828,-0.68856 -3.12259,-0.0842 -2.06021,0.91929 -2.11116,1.60304 -2.63089,35.30311 -0.2915,18.90111 -0.24113,36.67772 0.11194,39.50357 l 0.64194,5.13791 10.70633,-0.31466 c 5.88847,-0.17307 11.66505,-0.51629 12.83683,-0.76271 z m -7.42047,-7.21988 c -0.47688,-2.0625 -0.77462,-10.95 -0.66164,-19.75 0.25915,-20.18606 0.27903,-20.5 1.29775,-20.5 1.02882,0 3.63123,41.41857 2.69735,42.92962 -1.25626,2.03267 -2.46939,1.05749 -3.33346,-2.67962 z m -180.31432,5.34501 c 2.56038,-2.31789 2.7185,-5.19845 0.35428,-6.45401 -3.11813,-1.65593 -149.18968,-4.24962 -182.42288,-3.23916 -19.02649,0.57851 -19.75723,0.67751 -22.24011,3.01318 -2.23277,2.1004 -2.90034,2.26325 -5.12417,1.25 -4.28904,-1.95422 -5.58703,-1.53028 -4.85278,1.58498 0.35648,1.5125 1.06246,3.2 1.56884,3.75 0.59472,0.64596 35.15684,1.19678 97.62089,1.55582 123.34513,0.70897 112.54779,0.84601 115.09593,-1.46081 z m -112.89572,-2.9352 c -2.92062,-0.96782 0.059,-1.21094 18,-1.46871 23.25841,-0.33417 39.87504,0.516 36.5,1.86747 -3.21067,1.28565 -50.46016,0.93994 -54.5,-0.39876 z m 250.36834,-4.40981 c 0.32125,-5.3625 0.48229,-22.59492 0.35787,-38.29426 -0.20133,-25.40427 -0.42125,-28.8419 -1.99926,-31.25 -2.23162,-3.40553 -3.07933,-3.39755 -4.70413,0.0443 -1.83746,3.8923 -2.22563,18.5893 -1.31326,49.72238 l 0.79044,26.97238 2.5,1.26288 c 1.375,0.69458 2.78896,1.26951 3.14213,1.27762 0.35317,0.008 0.90497,-4.37276 1.22621,-9.73526 z m 10.15346,-24.75 c 0.0207,-32.31891 0.645,-42.5 2.60601,-42.5 0.4797,0 0.87219,14.55899 0.87219,32.35331 0,17.79432 0.28911,35.11932 0.64246,38.5 0.63914,6.11495 0.65898,6.14669 3.84344,6.14669 h 3.20098 l 0.65323,-15.75 c 0.35927,-8.6625 0.65473,-26.86711 0.65656,-40.45469 l 0.003,-24.70468 -3.75,-0.73865 c -6.02733,-1.18721 -11.11263,-0.9185 -12.69369,0.67075 -2.55474,2.56797 -4.06318,26.11855 -2.7584,43.06549 0.61028,7.92648 0.84062,19.0126 0.51186,24.63583 -0.64759,11.07679 0.15615,13.63808 4.10272,13.07421 2.06941,-0.29567 2.0877,-0.59313 2.10931,-34.29826 z m 52.49036,32.48784 c 1.95399,-1.95399 2.00458,-3.08866 1.75,-39.25 -0.25685,-36.48379 -0.30266,-37.23784 -2.26216,-37.23784 -1.26912,0 -2.6113,1.22426 -3.67279,3.35012 -1.4801,2.96425 -1.6488,7.34123 -1.46458,38 0.11451,19.05744 0.55632,35.21238 0.9818,35.89988 1.09146,1.76359 2.34699,1.55858 4.66773,-0.76216 z m -75.8409,-0.64283 c 1.70954,-1.54711 1.82874,-4.09217 1.82874,-39.04545 v -37.39047 l -2.45455,-2.45454 c -3.44104,-3.44105 -8.68919,-3.35856 -11.47287,0.18031 -1.94042,2.46684 -2.0641,3.82186 -1.93961,21.25 0.0731,10.23833 0.41063,27.39014 0.75,38.11514 l 0.61703,19.5 3.09938,0.30212 3.09937,0.30213 -0.84359,-4.80213 c -0.46398,-2.64116 -1.13931,-20.43962 -1.50074,-39.55212 -0.64212,-33.95537 -0.38089,-37.7024 2.33555,-33.5 0.4444,0.6875 1.08829,17.9 1.43087,38.25 0.56886,33.79149 1.00904,40.5 2.65741,40.5 0.31035,0 1.3872,-0.74474 2.39301,-1.65499 z m 459.79814,-27.34501 c 0,-25.26332 -0.5858,-31.6437 -2.5097,-27.33385 -0.4502,1.00862 -1.0073,13.43415 -1.238,27.6123 -0.3217,19.77594 -0.1258,26.13212 0.8412,27.29733 1.0094,1.21624 1.4245,1.26038 2.0835,0.22155 0.4526,-0.71353 0.823,-13.22233 0.823,-27.79733 z m 6.9588,17.78941 c 1.1428,-10.35354 1.4475,-41.78564 0.4415,-45.53941 -0.6308,-2.35377 -3.3707,-3.16722 -3.3683,-1 8e-4,0.6875 -0.2324,13.13237 -0.5181,27.65526 -0.2857,14.5229 -0.2417,27.28069 0.098,28.35067 1.1292,3.55782 2.2636,0.34934 3.347,-9.46652 z M 176.5179,374.31773 c 0,-18.69255 -0.66404,-23.19798 -3.58426,-24.31857 -1.69164,-0.64914 -2.17102,1.12815 -2.93841,10.89396 -0.68061,8.66156 0.78763,27.4365 2.49724,31.93312 0.87955,2.31338 1.30946,2.57605 2.542,1.55313 1.21513,-1.00847 1.48343,-4.63687 1.48343,-20.06164 z m 207.19977,19.42154 c 0.38487,-0.22115 -0.23414,-1.98495 -1.37558,-3.91955 -1.65295,-2.80154 -1.92822,-4.3732 -1.35248,-7.72202 1.09197,-6.35157 1.18265,-24.89998 0.1342,-27.45052 -0.67496,-1.64195 -0.50146,-2.71764 0.64517,-4 0.86263,-0.96473 1.72153,-2.47172 1.90867,-3.34887 0.40124,-1.88066 -6.52553,-9.90519 -8.55016,-9.90519 -1.6678,0 -2.90827,2.69737 -1.60959,3.5 0.50196,0.31023 0.64848,1.25247 0.3256,2.09388 -0.47963,1.2499 -1.09788,1.04041 -3.37888,-1.14492 l -2.79183,-2.67475 -16.82744,2.18641 c -41.96628,5.45273 -49.39397,6.08442 -90.58972,7.70431 -36.45578,1.43351 -44.81059,1.48932 -56.65127,0.37847 -14.75336,-1.38412 -20.0526,-0.99405 -22.23598,1.63676 -3.07709,3.70767 -1.07431,43.31984 2.19024,43.31984 1.93211,0 2.27538,-3.1679 2.05681,-18.98146 -0.12651,-9.15335 0.0901,-17.91806 0.48144,-19.47715 l 0.71146,-2.8347 1.53777,2.89666 c 1.15111,2.16829 1.64879,7.21924 1.97928,20.08743 0.36397,14.17192 0.70819,17.29312 1.96014,17.77354 0.83525,0.32052 1.76074,0.34065 2.05664,0.0448 1.11938,-1.11937 2.03234,-11.46693 2.10274,-23.83239 0.0663,-11.65157 0.23291,-12.79276 1.823,-12.48882 1.559,0.298 1.80457,2.15615 2.25,17.02491 0.275,9.17972 0.95,17.10569 1.5,17.61327 0.55,0.50758 4.0375,1.2169 7.75,1.57627 l 6.75,0.65339 0.0153,-16.77785 c 0.014,-15.28908 0.75251,-20.84336 2.53458,-19.06129 0.36226,0.36225 1.09296,5.74922 1.62379,11.97104 1.94523,22.79988 1.72307,21.68508 4.64905,23.32809 2.34601,1.31734 12.26646,1.42474 80.17727,0.86796 42.625,-0.34947 77.8149,-0.81634 78.19977,-1.0375 z m -177.199,-6.59615 c -1.76937,-4.81257 -2.43222,-20.50628 -1.07704,-25.5 2.92073,-10.76258 5.05027,-0.16536 4.32048,21.5 -0.26348,7.82209 -1.34696,9.1583 -3.24344,4 z m 154.43992,0.15404 c -0.37254,-0.60278 -0.0229,-1.75036 0.77689,-2.55019 1.2723,-1.2723 1.62309,-1.25076 2.80402,0.17218 1.13751,1.37061 1.124,1.76928 -0.0859,2.53487 -1.89661,1.20013 -2.67802,1.16506 -3.49501,-0.15686 z m 10.6987,-0.23608 c -0.81924,-0.98713 -0.7373,-1.82869 0.31644,-3.25 1.29406,-1.74548 1.56563,-1.77655 3.0198,-0.3455 1.74319,1.71548 1.11729,4.92754 -0.96017,4.92754 -0.69882,0 -1.76805,-0.59942 -2.37607,-1.33204 z m -130.08151,-1.09822 c -0.94775,-1.14196 -0.78546,-1.64517 0.80511,-2.49642 1.95556,-1.04658 5.13701,-0.53027 5.13701,0.83367 0,1.11021 -2.29342,3.09301 -3.57756,3.09301 -0.64765,0 -1.71171,-0.64362 -2.36456,-1.43026 z m 13.52223,0.55988 c -0.30695,-0.49665 0.11196,-1.45909 0.9309,-2.13876 1.21067,-1.00476 1.48899,-0.94351 1.48899,0.32768 0,1.8669 -1.63099,3.08755 -2.41989,1.81108 z m 15.41989,-2.09444 c 0,-0.53065 0.9,-1.44648 2,-2.03518 1.69548,-0.90739 2,-0.76049 2,0.96482 0,1.36851 -0.65514,2.03518 -2,2.03518 -1.1,0 -2,-0.43417 -2,-0.96482 z m -41.33333,-0.70185 c -0.98142,-0.98141 -0.78255,-21.60211 0.22364,-23.19009 1.37808,-2.17489 1.9668,-0.0841 2.69592,9.57433 0.85712,11.35417 -0.20902,16.3263 -2.91956,13.61576 z m 11.75429,-8.67872 c -0.31356,-0.81712 -0.42405,-2.76118 -0.24553,-4.32014 0.2596,-2.26713 0.88722,-2.89898 3.1356,-3.15678 2.73715,-0.31384 2.80286,-0.20871 2.5,4 -0.25975,3.60962 -0.68276,4.3751 -2.5655,4.64245 -1.308,0.18573 -2.49381,-0.30358 -2.82457,-1.16553 z m 13.02017,-1.09694 c -1.90853,-1.41811 -1.90353,-1.48042 0.29776,-3.71111 2.48596,-2.51916 3.63018,-1.92788 4.65105,2.40344 0.52641,2.23343 0.3048,2.75 -1.17976,2.75 -1.00536,0 -2.70143,-0.64905 -3.76905,-1.44233 z m 105.66406,0.0691 c -1.66148,-2.00198 -0.26215,-4.62677 2.46662,-4.62677 2.83994,0 4.89593,3.13226 3.18139,4.8468 -1.55966,1.55966 -4.25824,1.45452 -5.64801,-0.22005 z m -90.10519,-2.00433 c 0,-1.30765 0.61796,-2.89041 1.37325,-3.51725 2.1868,-1.81488 4.62675,-0.23186 4.62675,3.0018 0,2.54779 -0.35799,2.89301 -3,2.89301 -2.49213,0 -3,-0.40249 -3,-2.37756 z m 101.9536,0.29087 c -1.51757,-2.83562 -0.80163,-7.33025 1.22893,-7.71509 2.15125,-0.40772 4.16133,3.29561 3.41113,6.28462 -0.79012,3.1481 -3.30575,3.92363 -4.64006,1.43047 z M 242.5179,358.86174 c 0,-2.35341 0.4633,-3.46862 1.44098,-3.46862 0.79254,0 1.67084,0.37191 1.95177,0.82646 0.82929,1.34182 -0.47459,4.99097 -1.99129,5.57298 -1.03595,0.39753 -1.40146,-0.36685 -1.40146,-2.93082 z m 117.45956,1.10669 c -1.94376,-1.43995 -1.94343,-1.46399 0.0404,-2.98168 2.69557,-2.06215 3.5,-1.96875 3.5,0.40637 0,1.1 0.0337,2.32625 0.075,2.725 0.14207,1.37334 -1.66025,1.29871 -3.61544,-0.14969 z m -89.45956,-2.07531 c 0,-1.02996 0.6554,-1.52043 1.75,-1.30963 2.10784,0.40593 1.97493,2.18068 -0.19718,2.63295 -0.90598,0.18865 -1.55282,-0.36259 -1.55282,-1.32332 z m -14.5,-0.5 c 0.33992,-0.55 0.81648,-1 1.05902,-1 0.24254,0 0.44098,0.45 0.44098,1 0,0.55 -0.47656,1 -1.05902,1 -0.58246,0 -0.7809,-0.45 -0.44098,-1 z m 116.16667,0.33333 c -0.96158,-0.96157 -0.82218,-6.33333 0.16435,-6.33333 1.31115,0 3.4782,4.69065 2.72791,5.90465 -0.76737,1.24163 -1.90996,1.41098 -2.89226,0.42868 z M 361.0179,347.39312 c -0.33992,-0.55 -0.16803,-1 0.38197,-1 0.55,0 1.27811,0.45 1.61803,1 0.33992,0.55 0.16803,1 -0.38197,1 -0.55,0 -1.27811,-0.45 -1.61803,-1 z m 371.91144,45.15762 c 0.74671,-2.53856 -0.0948,-71.27911 -0.91091,-74.40762 -0.94796,-3.63409 -2.10386,-3.48335 -2.87553,0.375 -0.79893,3.99465 -0.82445,75.34222 -0.0272,76.13943 0.96766,0.96767 3.28607,-0.3131 3.81367,-2.10681 z m -639.103759,-3.1566 c -3.089083,-5.5 -3.861508,-5.98216 -4.807686,-3.00102 -0.968522,3.05154 0.223009,5.50383 3.256887,6.703 4.414815,1.74499 4.498244,1.54584 1.550799,-3.70198 z M 1225.437,388.3349 c 1.1312,-5.27463 1.4952,-43.79411 0.4506,-47.69178 -0.3316,-1.2375 -1.2255,-2.25 -1.9863,-2.25 -1.145,0 -1.3834,4.83573 -1.3834,28.05902 0,27.73888 0.6378,32.52002 2.9191,21.88276 z m 7.302,-23.26597 c -0.02,-13.6533 -0.3028,-25.0908 -0.6286,-25.41667 -0.3259,-0.32586 -0.9012,-0.28377 -1.2785,0.0935 -0.9919,0.99191 -1.7065,44.56565 -0.825,50.30645 0.6907,4.49866 0.8148,4.66415 1.7558,2.34088 0.5927,-1.46352 0.9975,-12.79192 0.9763,-27.32419 z m -1066.44864,5.97661 c -0.41513,-18.22975 -0.96178,-22.65242 -2.79985,-22.65242 -2.48028,0 -2.39081,34.86096 0.10745,41.87378 2.33572,6.55652 3.14745,0.76147 2.6924,-19.22136 z m 557.39575,21.83398 c 1.07662,-0.41519 1.33179,-7.78142 1.33179,-38.44588 0,-37.91202 -0.31029,-41.51187 -3.41287,-39.59437 -1.78394,1.10254 -1.31494,78.55385 0.47569,78.55385 0.15048,0 0.87291,-0.23112 1.60539,-0.5136 z M 149.03747,377.82513 c -0.63031,-5.97824 -0.68173,-6.06182 -3.47674,-5.6516 -2.63718,0.38705 -2.88227,0.81439 -3.48023,6.06798 -0.3538,3.10839 -0.89824,6.94541 -1.20987,8.52672 -0.90486,4.59158 1.28355,2.23601 3.15375,-3.39463 2.00423,-6.03415 3.49352,-5.60923 3.49352,0.99675 0,2.67256 0.3375,5.6835 0.75,6.69098 1.08087,2.6399 1.56519,-5.69013 0.76957,-13.2362 z m 532.25455,-13.43201 -0.27412,-14.5 -1.29412,8.17755 c -1.52159,9.61491 -1.9192,28.74504 -0.67181,32.32245 1.41208,4.04975 2.55693,-9.23833 2.24005,-26 z m 23.08809,-33.92626 c 1.75007,-0.9366 1.86226,0.25503 2.46888,26.22253 0.64976,27.81432 1.2686,35.70373 2.80058,35.70373 0.47758,0 0.86833,-9.6199 0.86833,-21.37756 0,-18.58287 0.21414,-21.55527 1.63802,-22.73698 1.50416,-1.24834 1.57984,-0.66106 0.92615,7.18641 -0.7161,8.59669 0.7587,24.58827 2.42513,26.2963 0.73588,0.75424 1.98147,-67.15502 1.25279,-68.3015 -0.15148,-0.23834 -0.83042,0.12161 -1.50876,0.79987 -0.69095,0.69089 -1.2505,3.85137 -1.27237,7.18667 -0.0278,4.24543 -0.52991,6.44431 -1.75,7.66441 -1.61461,1.6146 -1.71096,1.27654 -1.71096,-6.00333 0,-4.24286 -0.36399,-7.71429 -0.80887,-7.71429 -0.44488,0 -1.68238,0.66069 -2.75,1.4682 -2.52094,1.90674 -4.44113,1.92049 -4.44113,0.0318 0,-0.825 -0.45,-1.5 -1,-1.5 -1.18801,0 -1.40342,61.26591 -0.25,71.10331 0.48773,4.1598 0.84246,-4.3468 1.01441,-24.32584 0.24628,-28.61537 0.39016,-30.78983 2.0978,-31.70373 z m 534.98299,35.17626 c -0.1135,-19.60974 -0.354,-24.48113 -0.9008,-18.25 -1.4063,16.02504 -0.9643,45 0.6864,45 0.2031,0 0.2995,-12.0375 0.2144,-26.75 z m -617.74228,12.46817 c -1.63106,-4.47169 -11.93871,-9.54905 -14.39637,-7.09139 -0.77285,0.77285 1.63598,5.58268 3.62087,7.22999 1.51422,1.25669 9.63934,3.08151 10.87858,2.44322 0.3883,-0.2 0.34192,-1.36182 -0.10308,-2.58182 z m -61.67668,1.30987 c 2.32902,-0.88549 2.45093,-1.20351 1.37041,-3.57499 -2.12743,-4.6692 -5.41685,-5.48551 -26.05215,-6.46518 -10.53594,-0.5002 -19.3663,-0.6994 -19.62303,-0.44267 -0.25673,0.25672 1.61117,2.45779 4.15088,4.89127 5.61221,5.37744 11.10922,6.66263 18.32988,4.28549 4.21676,-1.38821 4.99192,-1.36045 9.73958,0.34882 5.90528,2.12604 8.47493,2.32959 12.08443,0.95726 z m 24.40478,-0.55921 c 0.86422,-0.7768 -2.29704,-4.78218 -5.14484,-6.5186 -3.44239,-2.09897 -13.08111,-2.73827 -14.19171,-0.94128 -1.12755,1.82441 0.52285,4.75664 3.28878,5.84311 5.45012,2.14083 9.78327,2.97604 12.71675,2.45112 1.65,-0.29524 3.14896,-0.6707 3.33102,-0.83435 z m 22.26104,-1.21883 c -1.01367,-3.79283 -12.52285,-8.79711 -16.63579,-7.23338 -2.49081,0.94701 -2.57748,1.17342 -1.24439,3.25064 2.09127,3.25861 9.52873,6.73274 14.41353,6.73274 4.0951,0 4.18299,-0.0697 3.46665,-2.75 z m -90.09206,0.20455 c 0,-2.69114 -4.52301,-6.20199 -10.36063,-8.04214 -4.91545,-1.54946 -6.44786,-1.6222 -11.891,-0.56445 -4.54372,0.88296 -8.29448,0.94135 -13.74837,0.21401 -9.44562,-1.25969 -30.02532,-1.33162 -31.95379,-0.11169 -1.26086,0.79761 -1.26555,1.27135 -0.0354,3.57 2.92952,5.47384 11.77517,7.11308 19.48915,3.61164 3.86951,-1.75641 4.17638,-1.75555 9.40655,0.0262 2.9736,1.01302 7.5861,1.84186 10.25,1.84186 4.11534,0 4.84345,-0.28963 4.84345,-1.92668 0,-2.69706 2.9796,-3.06049 6.31968,-0.77082 1.55083,1.06311 5.15083,2.27382 8,2.69046 8.35034,1.22109 9.68032,1.14712 9.68032,-0.53841 z m -93.39301,-1.03634 c -0.33385,-0.86998 -0.60699,-1.98583 -0.60699,-2.47967 0,-1.23887 -7.46159,-4.93854 -9.96016,-4.93854 -1.56233,0 -2.03626,0.64376 -2.02453,2.75 0.0266,4.77778 1.48065,5.63546 10.34168,6.10017 2.22563,0.11672 2.72285,-0.19972 2.25,-1.43196 z m 24.21256,-0.64401 c -0.40579,-2.82649 -11.57836,-7.68739 -19.56335,-8.51152 l -5.46331,-0.56386 1.62048,3.13366 c 2.48834,4.81192 9.79044,7.76778 19.90618,8.05795 3.40362,0.0976 3.78475,-0.13281 3.5,-2.11623 z m 181.18045,0.36066 c 0,-0.47583 -0.93175,-2.04967 -2.07055,-3.49743 -1.73149,-2.20122 -2.40191,-2.45494 -4.094,-1.54936 -2.01035,1.0759 -2.00877,1.09854 0.24486,3.49742 2.19551,2.33701 5.91969,3.31175 5.91969,1.54937 z m 66.9037,-31.13486 c 0.0434,-11.825 -0.20485,-23.8625 -0.55168,-26.75 -0.59753,-4.97466 -0.78193,-5.25 -3.51606,-5.25 -3.80483,0 -4.43396,1.82472 -5.92012,17.1706 -1.23085,12.70959 -0.52354,31.8294 1.17748,31.8294 0.49868,0 0.90668,-0.45 0.90668,-1 0,-0.55 1.03129,-1 2.29175,-1 2.16019,0 2.29536,0.39383 2.35457,6.86018 0.0346,3.77309 0.46372,7.48559 0.95372,8.25 1.49975,2.33964 2.21907,-7.06218 2.30366,-30.11018 z m -6.56442,-10.75 c -1.8825,-9.39569 -0.48263,-18.16541 2.91072,-18.23469 0.88957,-0.0182 0.9897,16.48836 0.11971,19.73469 -0.9002,3.35909 -2.18421,2.72354 -3.03043,-1.5 z m -531.40957,22 c 0.0387,-3.9875 -0.26846,-7.25 -0.68248,-7.25 -0.41403,0 -0.85338,4.1625 -0.97633,9.25 -0.14907,6.16769 0.0784,8.58356 0.68248,7.25 0.49833,-1.1 0.93768,-5.2625 0.97633,-9.25 z m -22.81721,-10.5375 c -0.81667,-0.81667 -1.1125,-0.70476 -1.1125,0.42083 0,1.98786 1.3447,3.33256 1.84167,1.84167 0.21083,-0.6325 -0.1173,-1.65063 -0.72917,-2.2625 z m 151.8875,-3.73047 c 61.7307,-3.74158 111.45445,-16.41269 129.14281,-32.90948 2.94645,-2.74797 4.8802,-5.01346 4.29721,-5.03443 -0.58299,-0.021 -9.35799,4.05018 -19.5,9.04699 -23.99928,11.82407 -37.16033,15.33926 -72.44002,19.34803 -31.30931,3.55762 -42.44531,4.03987 -92.5,4.00578 -72.37016,-0.0493 -94.85381,-2.52882 -136.415207,-15.04414 -20.262797,-6.10171 -21.776213,-6.36876 -19.055579,-3.36249 10.109019,11.17034 62.088546,21.44505 122.970786,24.30745 16.06577,0.75534 68.86838,0.52913 83.5,-0.35771 z m 11,-11.4575 c 27.54865,-2.00502 48.23449,-4.86533 66,-9.12606 21.09555,-5.05938 41.61742,-13.9342 50.75,-21.94718 4.37616,-3.83967 5.25,-5.1652 5.25,-7.96374 0,-8.65977 -2.95799,-11.76172 -19.47229,-20.41991 -17.50911,-9.17976 -32.61227,-13.73802 -59.52771,-17.96594 -16.57505,-2.60363 -20.39301,-3.07759 -33.61329,-4.17275 -18.7194,-1.55069 -19.76616,-1.12672 -20.17881,8.17316 -0.19928,4.49103 0.11852,6.90536 1,7.59711 1.67904,1.31764 10.55914,2.89073 24.2921,4.30329 26.8034,2.75696 43.39614,5.96517 56.70189,10.96333 7.27894,2.73426 11.79811,6.8513 11.79811,10.74828 0,11.04097 -28.13553,18.82147 -88.5,24.47348 -18.75672,1.75622 -85.82091,1.76487 -102,0.0132 -31.20072,-3.37811 -63.62572,-11.00832 -71.1416,-16.74097 -2.00526,-1.52948 -3.7593,-4.06585 -4.4836,-6.48333 -1.46716,-4.89694 -0.39187,-6.35622 7.96614,-10.811 11.06957,-5.90002 24.12554,-8.21493 57.65906,-10.22336 9.9,-0.59294 19.93039,-1.55541 22.28975,-2.13881 l 4.28974,-1.06074 -0.28974,-7.62127 -0.28975,-7.62132 -6,-0.91112 c -7.98447,-1.21248 -31.31295,0.56223 -57.77126,4.39492 -17.13829,2.48261 -21.77324,3.51171 -26.5,5.88379 -3.15081,1.58121 -9.89558,4.06711 -14.98838,5.52422 -12.857468,3.6787 -17.505403,6.82319 -26.612607,18.00438 -5.28662,6.49054 -5.733931,9.27661 -2.372635,14.7779 3.93357,6.43791 9.158798,9.50037 25.744877,15.08884 19.815795,6.67669 32.208095,9.58366 52.000005,12.19813 29.6979,3.92302 112.60977,5.63922 148,3.06347 z m 939.25,-3.11131 c 2.6125,-0.35217 4.75,-1.06217 4.75,-1.57779 0,-3.53154 -16.6863,-5.40883 -26.5214,-2.98377 -4.4386,1.09445 -5.5411,1.01798 -9.5,-0.65888 -3.9342,-1.66642 -6.9401,-1.8846 -24.7286,-1.79489 -12.0564,0.0608 -20.2947,0.48897 -20.3605,1.05821 -0.061,0.52585 1.4017,1.79138 3.25,2.81229 2.7534,1.52088 4.5961,1.74208 10.2003,1.2245 4.2712,-0.39447 8.6621,-0.16464 11.6924,0.61201 4.1518,1.06405 5.4556,1.00686 9.0269,-0.39597 3.8949,-1.52996 4.3838,-1.52489 7.3075,0.0757 2.0711,1.13384 6.5235,1.91512 13.1334,2.30457 10.061,0.5928 13.02,0.50083 21.75,-0.67598 z m -298.25,-2.91322 c 0,-2.94195 -2.92129,-3.43586 -5.43776,-0.91938 -2.09223,2.09223 -1.12317,3.41938 2.49678,3.41938 2.47038,0 2.94098,-0.40004 2.94098,-2.5 z m 218,0.67431 c 0,-0.45412 -1.0125,-1.74789 -2.25,-2.87503 -5.0907,-4.6367 -9.3882,-5.39317 -15.1176,-2.66104 -3.3168,1.5817 -3.5499,1.5567 -6.7537,-0.7246 -2.9719,-2.11621 -4.4499,-2.37257 -14.1607,-2.45619 -9.9986,-0.0861 -10.926,0.0676 -11.9157,1.9746 -0.5903,1.13737 -1.2033,2.22147 -1.3623,2.40911 -0.1589,0.18764 -3.1787,-1.27486 -6.7106,-3.25 -6.7119,-3.75349 -8.2983,-4.14988 -10.6503,-2.66119 -1.2067,0.76373 -1.1573,1.30179 0.3278,3.56821 2.3287,3.55407 6.5463,5.16533 15.5931,5.95703 6.7423,0.59004 9.524,0.29622 19.2978,-2.03836 2.0646,-0.49315 3.1368,-0.20475 4.0912,1.10041 1.1163,1.52675 2.3752,1.68956 9.2021,1.19015 4.3499,-0.31821 10.1589,-0.21767 12.9089,0.2234 7.1546,1.14754 7.5,1.15876 7.5,0.2435 z m 95.5044,-0.18137 c 0.3423,-0.55389 -0.1006,-1.28448 -0.9841,-1.62354 -1.9147,-0.73472 -2.9818,0.0749 -2.0614,1.56407 0.8304,1.34358 2.2349,1.37101 3.0455,0.0595 z m -393.16069,-2.19927 c 0.74005,-2.82996 0.42644,-3.0773 -1.81949,-1.43504 -1.00637,0.73588 -1.50946,1.85623 -1.11798,2.48967 1.10818,1.79306 2.30516,1.36331 2.93747,-1.05463 z m 208.65629,-0.71675 c 0,-0.50769 -1.3675,-2.29058 -3.0389,-3.96198 -3.9892,-3.9892 -8.7986,-4.84663 -15.4409,-2.75284 -6.4444,2.03142 -6.1804,2.04546 -6.8099,-0.3621 -0.6121,-2.34057 -2.8251,-2.51244 -11.0588,-0.85887 -4.9181,0.98768 -5.926,0.92044 -7.4956,-0.5 -1.8366,-1.6621 -9.1559,-2.32419 -9.1559,-0.82822 0,1.40663 5.3777,6.01364 8.3151,7.12347 3.892,1.47049 8.1116,1.33002 12.2726,-0.40856 3.2131,-1.34255 3.8304,-1.3076 7.0107,0.39694 2.7664,1.48268 4.053,1.65564 6.223,0.83655 2.0342,-0.76781 4.2667,-0.63168 8.7071,0.53094 6.9515,1.8201 10.4715,2.08387 10.4715,0.78467 z m 16.3806,0.33052 c 1.3852,-0.53154 1.3875,-0.83176 0.022,-2.91521 -1.7614,-2.68816 -8.1041,-5.49223 -12.4232,-5.49223 -3.41,0 -3.6288,0.62836 -1.3515,3.87971 2.6757,3.82005 9.6299,6.10963 13.7523,4.52773 z M 681.50259,319.5841 c -0.008,-0.93004 -0.45153,-2.36598 -0.98469,-3.19098 -0.71959,-1.11348 -0.97332,-0.5185 -0.98469,2.30902 -0.009,2.28797 0.38402,3.56222 0.98469,3.19098 0.55,-0.33992 0.99311,-1.37898 0.98469,-2.30902 z m 331.47061,-1.11861 c 0.3153,-0.51019 -0.4605,-2.12946 -1.724,-3.59837 -1.6877,-1.96202 -3.549,-2.81184 -7.0143,-3.20243 -5.62703,-0.63425 -6.06373,0.53554 -1.7939,4.80535 2.1229,2.12289 3.8861,2.92308 6.441,2.92308 1.9348,0 3.7759,-0.41743 4.0912,-0.92763 z m -54.0204,-1.04762 c 3.4813,-1.32359 3.23115,-2.50005 -1.16703,-5.4887 -3.80003,-2.58218 -9.45967,-3.33365 -12.17241,-1.61621 -1.13267,0.71709 -0.89354,1.36279 1.23542,3.33585 1.45198,1.34564 4.10902,2.91767 5.90454,3.49338 1.79552,0.57571 3.34779,1.09269 3.44948,1.14884 0.1017,0.0562 1.3392,-0.33677 2.75,-0.87316 z m 21.18507,-0.20429 c 2.54448,-0.9201 4.10648,-0.90083 7.10146,0.0876 2.11173,0.69694 5.13332,1.11523 6.71466,0.92955 l 2.87516,-0.33761 -2.68266,-3.17648 c -3.26644,-3.86774 -7.44449,-4.98007 -11.3056,-3.00993 -2.41504,1.23227 -3.47329,1.24363 -7.32299,0.0786 -8.93742,-2.70472 -13.7513,-1.19205 -9.22944,2.90017 3.90676,3.53557 8.66254,4.4037 13.84941,2.5281 z m -38.61997,-2.24009 c 0,-2.01417 -0.83452,-2.69682 -4.98002,-4.07373 -4.62898,-1.5375 -9.01998,-1.35757 -9.01998,0.36962 0,2.38079 3.22182,4.56947 7.62569,5.18036 2.68087,0.37189 5.21181,0.73628 5.62431,0.80977 0.4125,0.0735 0.75,-0.95522 0.75,-2.28602 z m -17.97255,-1.52909 c -2.17851,-4.07058 -5.03941,-5.05128 -14.73561,-5.05128 -5.09472,0 -11.29197,-0.54263 -13.77165,-1.20584 -3.53486,-0.94543 -4.77186,-0.94249 -5.72798,0.0136 -0.95931,0.95931 -0.65383,1.78513 1.43182,3.87078 2.95051,2.95052 8.73776,3.91566 25.06115,4.17946 8.41831,0.13604 8.74163,0.0606 7.74227,-1.80675 z m 298.47255,-0.46491 c 3.4658,-0.0998 4.1052,-2.06518 3.0219,-9.28869 -0.5448,-3.63318 -0.9682,-4.29081 -2.458,-3.81798 -0.9898,0.31418 -2.9842,0.12091 -4.4318,-0.42948 l -2.6321,-1.00072 v 8.08224 c 0,7.32427 0.1641,8.00997 1.75,7.31162 0.9625,-0.42385 3.1,-0.80949 4.75,-0.85699 z m -925,-1.65978 c 15.3513,-2.17932 36.43829,-6.08049 52,-9.62019 9.42945,-2.14484 6.60346,-3.14497 -9.14405,-3.23611 -16.95061,-0.0981 -31.14866,1.53511 -42.85595,4.92976 -5.5,1.59478 -13.6,3.39814 -18,4.00746 -13.66466,1.89232 -17.79883,4.08694 -10,5.30849 3.94496,0.61791 19.18852,-0.1385 28,-1.38941 z m 586.47776,1.32341 c -0.0394,-1.32869 -3.41283,-4.98271 -5.66202,-6.13296 -1.20134,-0.61437 -5.47931,-1.11704 -9.5066,-1.11704 -4.02729,0 -8.81227,-0.42731 -10.63329,-0.94957 -2.11956,-0.60788 -4.2386,-0.59687 -5.88897,0.0306 l -2.57802,0.98016 2.33568,2.48622 c 1.28463,1.36743 4.07911,3.00857 6.20995,3.64698 3.24535,0.97233 4.32658,0.89358 6.66057,-0.48514 2.62154,-1.54858 3.01459,-1.52952 6.64706,0.32242 3.72308,1.89813 12.46122,2.75559 12.41564,1.21833 z m 311.98204,-3.045 c 1.6152,-5.81553 1.2812,-8.92282 -1.1416,-10.61982 -2.5673,-1.79816 -4.0116,-0.9466 -5.8267,3.43527 -1.4673,3.54243 -2.9915,2.99243 -2.9915,-1.07947 0,-1.61754 -0.4132,-2.94098 -0.9182,-2.94098 -0.505,0 -1.5532,-0.24367 -2.3293,-0.54148 -0.9757,-0.37441 -1.7847,0.70545 -2.6219,3.5 -0.666,2.22281 -1.6125,4.04148 -2.1034,4.04148 -1.0406,0 -2.5292,-3.92738 -2.1794,-5.75 0.1406,-0.73258 -0.8025,-1.25 -2.2783,-1.25 -1.8272,0 -2.9824,0.89169 -4.2101,3.25 l -1.692,3.25 -1.3523,-3.28852 c -0.7437,-1.80868 -1.9837,-3.53083 -2.7555,-3.827 -2.3219,-0.89098 -5.5938,1.53674 -6.2077,4.60598 -0.317,1.58492 -1.2652,3.14604 -2.1072,3.46915 -1.8945,0.72696 -1.7901,0.86981 -2.8941,-3.95961 -0.8385,-3.66749 -1.2135,-4.0252 -4.5113,-4.30314 -3.4019,-0.28671 -3.6325,-0.11249 -4.2568,3.21492 -0.9346,4.98175 -2.2244,5.22935 -2.9694,0.57004 -0.6297,-3.93812 -0.6847,-3.98182 -5.0084,-3.98182 h -4.3717 l -0.4644,6.75 c -0.2554,3.7125 -0.3699,6.87536 -0.2546,7.02857 0.8702,1.15564 12.9847,1.8004 36.695,1.95301 l 27.7218,0.17842 z m 7.6167,0.23912 c 0.612,-3.26246 0.06,-10.14127 -0.8906,-11.09156 -1.1251,-1.12513 -3.6859,1.17561 -3.6859,3.31161 0,3.58551 2.1013,11.33583 3.0734,11.33583 0.4598,0 1.1362,-1.60015 1.5031,-3.55588 z m 7.8165,1.97409 c 1.579,-4.11466 -0.6995,-14.11444 -2.5511,-11.19659 -0.9772,1.53985 -1.1165,11.17044 -0.1752,12.11171 1.095,1.09508 2.0821,0.76378 2.7263,-0.91512 z m -971.643,-0.0485 c 2.93596,-0.7868 2.88763,-2.99286 -0.0819,-3.73816 -1.28255,-0.3219 -6.79505,-1.07609 -12.25,-1.67599 -12.74379,-1.40146 -15.90254,-2.12669 -27.41811,-6.29508 -14.28597,-5.17121 -21.95694,-6.07612 -45.15997,-5.32736 -19.51806,0.62985 -20.06282,0.5925 -25.88881,-1.77481 -6.30074,-2.56022 -7.3893,-2.22188 -3.70122,1.1504 7.73628,7.07385 29.9129,12.45508 70.75,17.1677 8.78075,1.01331 40.47606,1.37069 43.75,0.4933 z m 885.3712,-1.59618 c 2.4631,-4.60231 2.7824,-8.67095 0.8663,-11.0386 l -1.8087,-2.23493 -56.3394,-0.72626 c -30.9867,-0.39945 -62.8644,-0.41948 -70.8394,-0.0445 -7.975,0.37496 -25.94141,0.70178 -39.92535,0.72627 l -25.42534,0.0445 -0.70661,2.63198 c -0.38864,1.4476 -0.40974,3.11233 -0.0469,3.6994 0.41469,0.67098 5.47756,1.05385 13.63195,1.03089 20.41004,-0.0575 76.86285,1.63474 77.99355,2.33791 1.6751,1.04176 71.4591,5.3922 90.6935,5.65399 10.1286,0.13785 10.78,0.024 11.9064,-2.08064 z m -277.65671,-1.18738 c -2.24,-3.41868 -7.42597,-5.58615 -13.36562,-5.58615 -5.43729,0 -6.1658,0.72446 -3.31912,3.30068 3.01273,2.72648 8.49292,4.61917 13.4933,4.66018 l 4.77306,0.0391 -1.58162,-2.41385 z m -36.70825,0.16385 c -0.83416,-2.54053 -6.98305,-5.60802 -13.52409,-6.74674 -7.66464,-1.33434 -19.40389,-1.01771 -19.91626,0.53718 -0.69501,2.10913 2.4487,4.71091 7.24945,5.99977 6.62947,1.77981 26.75934,1.94105 26.1909,0.20979 z m 16.24376,0.33889 c 0,-1.06965 -5.76611,-6.08889 -6.99494,-6.08889 -0.46282,0 -1.55329,-0.27314 -2.42327,-0.60699 -2.14988,-0.82498 -2.15797,3.88796 -0.0104,6.03556 1.675,1.675 9.42857,2.21801 9.42857,0.66032 z m -52,-2.46645 c 0,-1.64028 -1.73864,-3.18303 -6.20425,-5.50525 -1.81266,-0.94262 -4.24673,-2.32444 -5.40904,-3.07069 -1.88389,-1.20955 -2.51384,-1.05132 -5.8034,1.45775 -3.53512,2.69637 -3.90109,2.76589 -8.713,1.65517 -6.70228,-1.54707 -7.6728,-1.47074 -7.5092,0.59058 0.20938,2.63812 5.18768,4.08146 14.63889,4.24421 4.675,0.0805 9.4,0.5331 10.5,1.00579 3.28106,1.40992 8.5,1.1781 8.5,-0.37756 z m -58.93024,-2.49209 c -2.06702,-3.86226 -6.71313,-4.86788 -21.06976,-4.5604 -10.02344,0.21468 -14.73992,-0.10524 -18.31478,-1.24229 -2.64813,-0.84229 -5.09033,-1.25589 -5.4271,-0.91911 -0.33677,0.33677 0.67657,1.95762 2.25187,3.60188 l 2.86419,2.98957 16.56291,0.0703 c 9.1096,0.0386 17.46291,0.45702 18.56291,0.92971 1.1,0.47269 2.80333,0.89106 3.78518,0.92971 1.43905,0.0567 1.59118,-0.29222 0.78458,-1.79936 z m 20.93024,0.49209 c 0,-2.20814 -2.38752,-3.59957 -8.30691,-4.84117 -4.47512,-0.93867 -5.84151,-0.90298 -7.15469,0.18686 -1.1692,0.97035 -1.3193,1.65262 -0.53671,2.43949 3.1465,3.16365 15.99831,4.94287 15.99831,2.21482 z m -457.95386,-2.99961 c 4.70037,-0.85908 11.56287,-2.49374 15.25,-3.63258 l 6.70386,-2.07061 v -4.00527 c 0,-5.79519 -3.53895,-9.13632 -9.23768,-8.72131 l -4.21472,0.30694 -1.0238,5.89082 c -0.8141,4.68424 -1.48303,6.05961 -3.26588,6.71485 -5.89529,2.16667 -20.91227,3.8882 -33.94254,3.89114 -15.9316,0.004 -25.91202,-1.63323 -34.04416,-5.58333 -5.51481,-2.67875 -6.26629,-3.9992 -7.77603,-13.66348 -0.49536,-3.17098 -0.96979,-3.75 -3.07262,-3.75 -7.52461,0 -13.30527,6.47769 -10.11953,11.33975 3.91779,5.9793 17.48314,11.79035 33.1121,14.18438 11.49435,1.76069 39.76648,1.26716 51.631,-0.9013 z m 386.73265,0.12717 c -0.80583,-1.2375 -3.0665,-3.12988 -5.02372,-4.20528 -3.00599,-1.65166 -3.9708,-1.76746 -6.21321,-0.74575 -1.51326,0.68949 -2.36237,1.68243 -1.97488,2.30941 1.06606,1.72491 8.63069,4.84538 11.80499,4.86966 2.74691,0.021 2.80817,-0.076 1.40682,-2.22804 z m 259.63942,1.64301 c 1.63171,-0.62615 2.03711,-3.04289 0.9748,-5.81122 -1.08856,-2.83674 -9.39301,-1.77894 -9.39301,1.19646 0,3.70859 4.43871,6.14184 8.41821,4.61476 z M 647.4536,302.45402 c 1.11394,-0.70487 1.17318,-1.22478 0.26431,-2.3199 -1.57804,-1.90143 -8.22939,-4.01539 -11.25371,-3.57672 l -2.4463,0.35484 3.17308,3.24044 c 3.2274,3.29592 7.2613,4.2005 10.26262,2.30134 z m -20.05758,-0.96441 c 3.51551,-2.22669 -4.08126,-6.09649 -11.96797,-6.09649 -5.11943,0 -5.14408,0.0151 -3.66533,2.25 2.0511,3.09987 12.68229,5.71562 15.6333,3.84649 z m 244.92188,-1.29649 c 0.66,-0.66 1.2,-1.73254 1.2,-2.38342 0,-1.56414 -4.36432,-2.35183 -6.4777,-1.16912 -1.55173,0.86839 -1.54756,1.06715 0.0597,2.8431 1.99269,2.2019 3.51818,2.4093 5.21804,0.70944 z m 14.2,0.31078 c 0,-0.48906 -0.84842,-1.93697 -1.88538,-3.21756 -1.61636,-1.99611 -2.11578,-2.13714 -3.5,-0.98834 -1.92583,1.59829 -2.10134,3.73206 -0.36462,4.43284 2.11785,0.85457 5.75,0.71122 5.75,-0.22694 z m -301.08946,-1.72888 c 0.22579,-0.2033 -0.36613,-1.22783 -1.31537,-2.27674 -2.83211,-3.12945 -11.59517,-3.84686 -11.59517,-0.94928 0,1.52067 8.31681,4.8399 10.5,4.19054 1.1,-0.32718 2.18474,-0.76121 2.41054,-0.96452 z m 18.7837,-0.9135 c -2.20242,-1.9376 -3.90645,-2.4684 -7.92432,-2.4684 h -5.11855 l 2.34863,2.5 c 1.9703,2.09729 3.24678,2.49491 7.92431,2.4684 l 5.57569,-0.0316 z m 246.18388,1.62809 c 1.93822,-1.22765 0.52983,-3.01593 -1.87912,-2.38598 -2.04931,0.53591 -2.51079,1.44437 -1.33233,2.62282 0.87178,0.87179 1.5388,0.8226 3.21145,-0.23684 z m 11.12188,-2.52506 c 0,-0.82464 -1.28618,-0.67624 -2.87812,0.33208 -0.75796,0.48009 -1.06677,1.37665 -0.68624,1.99236 0.48903,0.79125 1.11297,0.69838 2.12812,-0.31677 0.78993,-0.78993 1.43624,-1.69339 1.43624,-2.00767 z m 50,2.86283 c 0,-0.31116 -0.44223,-1.39206 -0.98274,-2.402 -0.82125,-1.53454 -2.25556,-1.84125 -8.72901,-1.86664 -7.71279,-0.0302 -10.28825,0.8351 -10.28825,3.45682 0,1.07824 2.17282,1.37756 10,1.37756 5.5,0 10,-0.25458 10,-0.56574 z m -366.06289,-1.31418 2.43711,-0.68056 -2.62197,-2.06244 c -2.22047,-1.74662 -4.62841,-2.164 -15.72457,-2.72559 -7.20643,-0.36473 -14.85415,-0.38306 -16.99494,-0.0407 -2.14078,0.34233 -6.07655,0.0984 -8.74614,-0.54199 -5.86077,-1.40598 -9.75926,-0.4176 -7.95925,2.0179 2.84504,3.84948 9.37562,4.9567 16.90382,2.86596 2.92987,-0.81369 4.32579,-0.71371 6.5,0.46554 2.9143,1.58066 21.29599,2.07302 26.20594,0.70192 z m 20.87736,-0.84496 c -0.1827,-0.94869 -1.4532,-2.30338 -2.82333,-3.01044 -2.96138,-1.52821 -9.17418,-1.2593 -9.72572,0.42096 -0.57508,1.75199 4.6728,4.2284 9.0579,4.27432 3.09321,0.0324 3.75989,-0.28935 3.49115,-1.68484 z m 248.68798,-1.53369 c -0.89316,-0.49983 -2.38409,-0.614 -3.31319,-0.25369 -1.54238,0.59814 -1.52249,0.77784 0.2287,2.06673 1.4689,1.08113 2.24462,1.14053 3.31318,0.2537 1.18216,-0.9811 1.14723,-1.29673 -0.22869,-2.06674 z m -324.03987,1.35063 c 1.86928,-0.73089 1.84473,-0.84459 -0.51636,-2.39165 -3.03436,-1.98818 -10.54307,-4.70041 -13.01293,-4.70041 -2.5531,0 -3.44289,1.91897 -1.69859,3.66327 1.75042,1.75043 8.44507,4.25977 11.2653,4.22255 1.1,-0.0145 2.88316,-0.37171 3.96258,-0.79376 z m 335.03742,-0.0921 c 0.33992,-0.55 -0.11008,-1 -1,-1 -0.88992,0 -1.33992,0.45 -1,1 0.33992,0.55 0.78992,1 1,1 0.21008,0 0.66008,-0.45 1,-1 z m -355.03101,-1.94983 c 0.8243,-1.33375 -2.44311,-2.87921 -7.59375,-3.59178 l -4.37524,-0.60529 2.80576,2.57345 c 2.81017,2.57749 8.00485,3.49793 9.16323,1.62362 z m -210.92862,-3.30017 c -0.88604,-5.23327 -1.06543,-26.92439 -0.66366,-80.25 0.4709,-62.50213 -0.23894,-71.88049 -5.16779,-68.27642 -1.64974,1.20631 -1.79795,5.55735 -2.22371,65.28444 -0.25089,35.19559 -0.17516,68.80563 0.16829,74.68899 l 0.62445,10.697 3.11102,0.39296 c 1.71107,0.21613 3.46892,0.46497 3.90634,0.55299 0.43743,0.088 0.5477,-1.30246 0.24506,-3.08996 z m -13.54037,-10.25 c 0,-5.17595 -0.44831,-9.65904 -1,-10 -0.64268,-0.3972 -1,3.17595 -1,10 0,6.82405 0.35732,10.3972 1,10 0.55169,-0.34096 1,-4.82405 1,-10 z m 20.98469,-33.05887 c 0.0126,-33.08237 0.26353,-40.39693 1.44061,-42 1.37153,-1.86791 1.47422,-1.82797 2.72241,1.05887 0.94155,2.17765 1.24872,8.48234 1.12056,23 -0.12774,14.47215 0.11559,19.49008 0.8804,18.15508 1.23315,-2.15249 1.78244,-45.82532 0.7709,-61.293 -1.09013,-16.66938 -3.72169,-16.40418 -3.84928,0.38792 -0.0387,5.0875 -0.48454,9.25 -0.99083,9.25 -1.96212,0 -2.57946,-7.3982 -2.57946,-30.91224 0,-17.36125 -0.32879,-24.52311 -1.13835,-24.79611 -1.81256,-0.61124 -2.62649,33.85847 -2.21271,93.70835 0.20344,29.425 0.7594,54.11054 1.23547,54.85676 2.14903,3.36849 2.58582,-3.58841 2.60028,-41.41563 z m 100.4203,39.40781 c -3.91427,-4.41989 -18.74483,-9.41769 -36.48425,-12.29496 -6.86296,-1.11315 -32.4598,-3.51461 -37.67074,-3.53422 -8.44009,-0.0318 -6.75885,3.7813 4.54104,10.29907 4.30362,2.48232 8.41631,5.22608 9.13931,6.09724 1.14691,1.38195 5.20796,1.58393 31.84708,1.58393 h 30.53255 z m 897.04701,0.49826 c 3.6495,-2.1553 -8.578,-2.6608 -50.702,-2.09609 -24.6426,0.33036 -40.75,0.18128 -40.75,-0.37716 0,-2.41864 6.2479,-3.15319 25.2009,-2.9628 19.6572,0.19748 26.7991,-0.3415 26.7991,-2.02244 0,-1.19206 -41.5191,-1.08131 -51,0.13604 -4.125,0.52965 -8.7625,1.48072 -10.3056,2.11349 -2.1064,0.86375 -3.0909,0.86528 -3.95,0.006 -1.8222,-1.82216 -6.5734,-1.3307 -9.7353,1.00701 -2.8191,2.08427 -3.2364,2.11267 -13.3796,0.91058 -7.341,-0.87001 -12.5106,-0.95354 -17.2996,-0.27954 -5.2339,0.73664 -116.2071,0.7597 -147.8299,0.0307 -2.2,-0.0507 -12.13903,0.2628 -22.08673,0.69671 -20.24585,0.8831 -23.12414,0.54622 -23.59394,-2.7615 -0.29357,-2.06699 -0.88398,-2.26221 -7.31933,-2.42013 -6.70148,-0.16445 -6.84185,-0.12145 -3.29156,1.00845 7.42251,2.36223 6.86341,3.66333 -1.57418,3.66333 -4.27116,0 -8.7147,-0.50787 -9.87453,-1.12859 -2.05653,-1.10062 -2.03631,-1.16057 0.81574,-2.41878 2.67913,-1.18193 2.18279,-1.29701 -5.91518,-1.37141 -8.01256,-0.0736 -9.01025,0.12932 -10.6623,2.16878 l -1.82259,2.25 H 750.15778 c -102.5018,0 -136.82616,0.2901 -137.70152,1.16382 -3.6474,3.64058 32.2266,4.03852 354.56164,3.93304 221.5424,-0.0725 296.491,-0.38684 297.952,-1.24966 z M 170.4671,286.45449 c 10.68337,-0.76815 11.6031,-1.00213 13.75,-3.49806 5.51928,-6.41654 1.64963,-8.28649 -14.80307,-7.15333 -15.15421,1.04373 -31.96139,4.7236 -36.40088,7.96983 -1.8588,1.35919 -1.74492,1.47755 2.01738,2.09694 2.19305,0.36103 4.66237,0.79926 5.48737,0.97384 2.95051,0.62434 18.69906,0.41967 29.9492,-0.38922 z m 1083.0508,-5.06137 c -1.9833,-1.28168 -6.2921,-1.28168 -5.5,0 0.3399,0.55 2.054,0.99311 3.809,0.98469 2.4281,-0.0117 2.8324,-0.24708 1.691,-0.98469 z m -428.59552,-0.84545 c 0.53296,-0.86235 -22.78952,-2.16557 -38.31347,-2.1409 -12.66802,0.0201 -15.66581,1.35701 -4.59101,2.04738 14.99234,0.93457 42.34783,0.9942 42.90448,0.0935 z m 138.09455,-9.15299 c 0.33939,-0.54914 0.80043,-4.26164 1.02453,-8.25 0.3726,-6.63105 0.33027,-6.83341 -0.4947,-2.36491 -0.49618,2.68766 -1.32428,5.30877 -1.8402,5.82469 -1.92125,1.92125 -2.59106,-7.33415 -2.65678,-36.71134 -0.0792,-35.4094 -0.44506,-37.5 -6.56238,-37.5 -2.13147,0 -5.02157,0.52223 -6.42245,1.16052 -2.46509,1.12317 -2.5489,1.46907 -2.60468,10.75 -0.0726,12.08747 -0.99832,17.58948 -2.95933,17.58948 -0.99113,0 -1.86567,-1.8243 -2.63661,-5.5 l -1.15358,-5.5 -0.27348,6 c -0.15042,3.3 -0.17407,9.825 -0.0525,14.5 0.22956,8.83199 -0.043,9.77103 -3.36682,11.60128 -1.33066,0.73271 -2.10593,2.35697 -2.31652,4.8533 -0.31442,3.72703 -0.30128,3.74134 1.9725,2.14872 1.25897,-0.88182 2.6389,-1.6033 3.06653,-1.6033 0.42762,0 0.77749,4.275 0.77749,9.5 0,9.22917 -0.0652,9.5 -2.28571,9.5 -1.61905,0 -2.28572,0.58333 -2.28572,2 0,1.52137 0.66667,2 2.78572,2 h 2.78571 l 0.009,-16.25 c 0.0116,-21.63915 0.61186,-26.44403 3.3697,-26.97243 2.09445,-0.40129 2.11778,-0.22005 1.82225,14.15797 -0.20285,9.8696 0.1195,15.95706 1,18.88461 1.17082,3.8928 1.32222,2.16165 1.53048,-17.5 0.39623,-37.40761 0.77709,-43.7732 2.64117,-44.14347 1.47939,-0.29387 1.62771,2.94845 1.62771,35.58333 0,19.74866 0.3,36.20666 0.66667,36.57332 1.05924,1.05925 12.14988,0.77251 12.83236,-0.33177 z m -714.94127,-22.1621 c 0.39868,-4.21329 0.40414,-8.48829 0.0121,-9.5 -0.68463,-1.76691 -0.76909,-1.7629 -2.14132,0.10167 -1.59152,2.16252 -1.89874,12.15658 -0.69665,22.66218 l 0.73194,6.39669 0.68451,-6 c 0.37648,-3.3 1.0107,-9.44724 1.40938,-13.66054 z m 724.9572,13.12737 c 1.27141,-2.8195 1.5024,-4.34947 0.7676,-5.08427 -1.45191,-1.45191 -4.28256,2.7386 -4.28256,6.33995 0,3.94016 1.397,3.4411 3.51496,-1.25568 z m -1.2459,-16.21683 c -0.73287,-5.76125 -1.90325,-7.81317 -4.03431,-7.07302 -2.70278,0.9387 -4.23475,3.41586 -4.23475,6.84748 0,4.01192 0.52536,4.47554 5.07151,4.47554 h 3.73818 z m -732.26906,-16.75 c 0,-11.17376 -0.39687,-20 -0.89931,-20 -0.49461,0 -1.05711,1.93803 -1.25,4.30673 -0.37806,4.64286 1.1708,35.69327 1.78045,35.69327 0.20288,0 0.36886,-9 0.36886,-20 z m 9.40497,-44.33449 c 0.0772,-30.30761 -0.16763,-38.05357 -1.23053,-38.9357 -0.98618,-0.81846 -1.57913,-0.73257 -2.30931,0.33449 -1.21251,1.77192 -0.62999,77.88912 0.61146,79.89782 2.21148,3.57824 2.83656,-5.2368 2.92838,-41.29661 z M 937.5179,197.8341 c 0,-0.85746 -0.45,-1.2809 -1,-0.94098 -0.55,0.33992 -1,1.04148 -1,1.55902 0,0.51754 0.45,0.94098 1,0.94098 0.55,0 1,-0.70156 1,-1.55902 z M 238.2477,185.66542 c -0.21648,-2.07476 -0.39722,-0.6223 -0.40166,3.2277 -0.004,3.85 0.17268,5.54754 0.39359,3.7723 0.22091,-1.77523 0.22454,-4.92523 0.008,-7 z m 709.41796,-3.02092 7.64776,-0.49651 -1.50285,-3.62744 c -0.82658,-1.99509 -1.60402,-3.73838 -1.72766,-3.87399 -0.62016,-0.6802 -12.33146,5.81102 -14.06501,7.79582 l -2,2.28987 2,-0.79562 c 1.1,-0.43759 5.44149,-1.01905 9.64776,-1.29213 z m -24.17918,-7.57093 c 0.0173,-0.45075 -0.98108,-0.67575 -2.21858,-0.5 -1.48264,0.21057 -2.3639,1.12443 -2.58397,2.67957 -0.33326,2.35503 -0.32857,2.35609 2.21858,0.5 1.4039,-1.02301 2.56668,-2.22882 2.58397,-2.67957 z M 238.25689,155.64312 c -0.19845,-3.1625 -0.36082,-0.575 -0.36082,5.75 0,6.325 0.16237,8.9125 0.36082,5.75 0.19845,-3.1625 0.19845,-8.3375 0,-11.5 z m 6.34585,-21.39419 c 5.35004,-1.78819 8.44905,-2.11174 18.66516,-1.94875 6.7375,0.1075 12.25,-0.0411 12.25,-0.33013 0,-0.97403 -5.76222,-3.51517 -10.25298,-4.52157 -2.94248,-0.65943 -5.61088,-0.6636 -7.8521,-0.0123 -2.29777,0.66774 -6.47666,0.61699 -12.93079,-0.15703 -10.55597,-1.26595 -18.85784,-0.19719 -22.23934,2.86303 -1.78062,1.61143 -1.65907,1.77091 2.95916,3.88247 6.19335,2.83173 11.41896,2.89214 19.40089,0.22427 z m 748.60587,311.42221 c -3.72588,-0.5601 -2.91295,-2.55011 1.38279,-3.38496 5.6451,-1.0971 108.6476,-1.8005 118.2457,-0.80749 14.7382,1.5248 12.6137,2.49778 -4.5857,2.10017 -8.9284,-0.20641 -31.1359,0.34236 -49.35,1.21949 -30.8386,1.48507 -59.1202,1.86082 -65.69279,0.87279 z"
     id="path795"
     inkscape:connector-curvature="0" />
</svg>
