<?xml version="1.0" encoding="UTF-8" standalone="no"?>
<!-- Created with Inkscape (http://www.inkscape.org/) -->

<svg
   xmlns:dc="http://purl.org/dc/elements/1.1/"
   xmlns:cc="http://creativecommons.org/ns#"
   xmlns:rdf="http://www.w3.org/1999/02/22-rdf-syntax-ns#"
   xmlns:svg="http://www.w3.org/2000/svg"
   xmlns="http://www.w3.org/2000/svg"
   xmlns:sodipodi="http://sodipodi.sourceforge.net/DTD/sodipodi-0.dtd"
   xmlns:inkscape="http://www.inkscape.org/namespaces/inkscape"
   version="1.1"
   id="svg112"
   width="1752"
   height="1224"
   viewBox="0 0 1752 1224"
   sodipodi:docname="Percussion_4.svg"
   inkscape:version="0.92.1 r15371">
  <metadata
     id="metadata118">
    <rdf:RDF>
      <cc:Work
         rdf:about="">
        <dc:format>image/svg+xml</dc:format>
        <dc:type
           rdf:resource="http://purl.org/dc/dcmitype/StillImage" />
        <dc:title></dc:title>
      </cc:Work>
    </rdf:RDF>
  </metadata>
  <defs
     id="defs116" />
  <sodipodi:namedview
     pagecolor="#ffffff"
     bordercolor="#666666"
     borderopacity="1"
     objecttolerance="10"
     gridtolerance="10"
     guidetolerance="10"
     inkscape:pageopacity="0"
     inkscape:pageshadow="2"
     inkscape:window-width="1366"
     inkscape:window-height="692"
     id="namedview114"
     showgrid="false"
     inkscape:zoom="0.40604575"
     inkscape:cx="876"
     inkscape:cy="612"
     inkscape:window-x="0"
     inkscape:window-y="27"
     inkscape:window-maximized="1"
     inkscape:current-layer="svg112" />
  <path
     style="fill:#000000"
     d="m 251.05396,1203.2026 c -4.125,-0.1818 -14.25,-1.0668 -22.5,-1.9666 -55.66058,-6.0708 -96.25099,-24.6291 -102.06385,-46.6647 -1.86171,-7.0574 -0.0747,-13.9663 5.44725,-21.0602 2.22528,-2.8587 30.15608,-34.4477 62.06844,-70.1977 l 58.02248,-64.99999 0.0128,-248.10233 0.0128,-248.10237 -16.25,-0.7006 c -89.74812,-3.86937 -165.458731,-24.64277 -190.824039,-52.3581 -6.866005,-7.50212 -9.357177,-13.05236 -9.317334,-20.75865 0.06145,-11.88459 8.63833,-22.95733 26.093877,-33.68712 l 8.202509,-5.04202 -8.702509,-5.43859 C 33.359105,366.68931 27.989896,347.19354 46.013065,328.77436 c 19.788179,-20.22298 65.145065,-36.4757 126.540895,-45.34338 15.18331,-2.193 41.73594,-4.56295 69.75,-6.22553 l 9.75,-0.57865 -0.002,-75.65667 -0.002,-75.65668 9.13074,-22.25 c 5.0219,-12.237497 9.41026,-22.242307 9.75192,-22.232917 0.34165,0.009 4.56347,9.7969 9.38183,21.749997 l 8.76081,21.73292 -0.0106,76.23095 -0.0107,76.23095 2.25,0.45646 c 1.2375,0.25106 8.55,0.72342 16.25,1.04968 67.97044,2.88007 136.23478,19.36002 168.41319,40.65726 19.20952,12.71379 26.51858,28.28891 19.95541,42.52361 -3.05171,6.61875 -14.6738,17.83685 -24.19205,23.35109 -6.38246,3.69758 -7.47501,4.67832 -6.12705,5.5 24.02694,14.64619 32.64884,24.84126 32.58338,38.52859 -0.12486,26.1058 -44.55207,50.2862 -116.63288,63.47978 -23.73209,4.3439 -48.61447,7.12333 -81.25,9.07587 l -11.25,0.67307 v 251.24893 251.24891 l 34.63691,38.8724 c 19.0503,21.3798 42.3378,47.5374 51.75,58.1279 13.91655,15.6588 17.16636,18.8342 17.39828,17 0.5196,-4.1093 -13.83172,-326.20266 -14.56556,-326.90175 -0.3958,-0.37706 -15.50957,-4.97584 -33.58617,-10.2195 -18.07659,-5.24367 -33.02816,-9.69556 -33.2257,-9.8931 -0.82529,-0.8253 60.02337,-208.7411 61.0902,-208.7411 0.63195,0 25.86593,7.15556 56.07552,15.90125 30.20959,8.74569 68.42652,19.80465 84.92652,24.57546 89.16913,25.78241 113.02825,32.73102 113.30039,32.99707 0.16521,0.16151 -1.96497,8.07831 -4.73372,17.59289 -2.76876,9.51457 -4.88047,17.45287 -4.69268,17.64065 0.18778,0.18778 2.52403,-2.25704 5.19166,-5.43295 16.76505,-19.95933 33.20219,-35.89447 51.68435,-50.1059 l 9.75,-7.49704 v -92.78345 -92.78346 l 179.5,0.002 179.50004,0.002 5e-4,93.19529 5e-4,93.1953 8.7495,6.65455 c 17.5407,13.34082 35.0662,30.33598 51.6838,50.11982 2.6677,3.17591 5.0136,5.61106 5.2132,5.41146 0.1996,-0.1996 -1.9118,-8.13822 -4.6919,-17.64139 -2.7802,-9.50316 -4.9201,-17.41253 -4.7553,-17.57638 0.1649,-0.16386 30.8997,-9.15128 68.2997,-19.97206 37.4,-10.82077 94.2936,-27.28405 126.4301,-36.58507 32.1366,-9.30012 58.9452,-16.91004 59.5747,-16.91004 1.102,0 61.9022,207.92636 61.0495,208.77903 -0.2232,0.22323 -15.1768,4.66373 -33.2301,9.8678 -18.0533,5.20406 -33.1454,9.78112 -33.5379,10.17123 -0.7179,0.71347 -15.0957,323.02679 -14.5685,326.58829 0.1992,1.3459 16.2334,-15.9892 54.5322,-58.9565 l 54.25,-60.86299 V 709.58784 420.77535 l -2.25,0.50779 c -5.1653,1.16575 -27.4918,4.63339 -44.75,6.95034 -38.2888,5.14036 -52.0469,6.03183 -93,6.02602 -34.5825,-0.005 -39.8737,-0.225 -52,-2.16301 -31.8707,-5.09351 -49.346,-13.69287 -53.0674,-26.11365 -8.4187,-28.09909 63.7907,-70.60737 173.5674,-102.17578 16.8708,-4.85153 56.4576,-14.79386 66.5,-16.70167 l 4.5,-0.85489 0.5,-80.96852 0.5,-80.96853 8.958,-21.75 c 4.9268,-11.962497 9.2018,-21.749847 9.5,-21.749667 0.2981,1.8e-4 4.4795,9.64025 9.292,21.422357 l 8.75,21.42203 v 77.01863 c 0,42.36024 0.3669,77.24538 0.8153,77.52253 0.4485,0.27715 7.388,-0.57448 15.4211,-1.89252 34.1413,-5.60172 72.5367,-9.25275 106.7636,-10.15217 47.7904,-1.25585 86.8346,4.58668 103.5866,15.50059 6.9766,4.54523 8.8095,6.46871 10.8753,11.4127 2.292,5.48555 1.8865,9.7288 -1.5954,16.69674 -15.938,31.89475 -104.3025,72.69466 -213.3665,98.51615 -11,2.60431 -20.5625,4.90043 -21.25,5.10248 -0.9963,0.29283 -1.25,60.30117 -1.25,295.72333 v 295.35597 l 55.25,61.9461 c 30.3875,34.0704 57.1359,64.3248 59.4409,67.2319 22.7774,28.7272 -19.744,58.5276 -96.6909,67.764 -18.7687,2.253 -59.7252,2.2604 -78.5,0.014 -37.0474,-4.4321 -68.5789,-14.2531 -86.2381,-26.8603 l -6.2382,-4.4535 -86.7618,-0.6533 c -47.7191,-0.3594 -99.8965,-0.9388 -115.95,-1.2875 l -29.1881,-0.6341 2.3186,-6.1084 c 1.2753,-3.3596 22.434,-57.4084 47.0193,-120.1084 24.5854,-62.69999 53.4392,-136.28588 64.1195,-163.52423 10.6803,-27.23836 19.4188,-50.01467 19.4188,-50.61403 0,-0.62051 -11.5184,2.24442 -26.75,6.65345 l -26.75,7.7432 -0.6538,23.87083 c -0.885,32.31525 -3.6248,51.69039 -11.2238,79.37083 -5.2245,19.03096 -12.082,36.67526 -21.8535,56.22885 -47.3401,94.7314 -139.2904,158.0891 -245.76894,169.3458 -18.54806,1.9609 -53.90552,1.442 -71.87908,-1.0549 -103.24147,-14.3421 -191.03687,-77.3927 -236.61648,-169.92679 -10.69422,-21.7111 -16.83181,-38.0476 -22.51076,-59.9172 -6.9792,-26.87691 -10.16251,-52.71052 -9.93991,-80.6658 0.10249,-12.87113 -0.16335,-16.65196 -1.21123,-17.22677 -3.63917,-1.99621 -52.84254,-15.40234 -52.84254,-14.39767 0,0.62165 3.62068,10.35179 8.04595,21.62253 4.42527,11.27074 21.71694,55.36725 38.42594,97.99225 38.72245,98.78175 85.5682,218.17075 86.16842,219.60505 0.62422,1.4916 -34.24203,2.22 -144.14031,3.0112 l -88,0.6336 -6,4.2423 c -18.54824,13.1144 -49.20497,22.7062 -86,26.9074 -13.35993,1.5255 -43.19494,2.5761 -56.5,1.9896 z m 284.25,-68.0535 c 40.87737,-0.5914 45.74264,-0.8309 45.6809,-2.2488 -0.038,-0.8728 -23.78466,-69.3032 -52.77035,-152.06759 l -52.70125,-150.4808 -35.97965,-10.11889 c -19.78881,-5.56539 -36.25163,-9.84904 -36.58405,-9.51923 -0.44695,0.44344 10.46696,176.94872 20.05561,324.34961 0.0603,0.9265 51.46917,0.9658 112.29879,0.086 z m 768.13184,-5.5857 c 0.3381,-3.4375 2.883,-42.475 5.6553,-86.75 2.7722,-44.27499 7.2073,-114.47495 9.8556,-155.99995 2.6484,-41.525 4.5434,-75.76985 4.2113,-76.09966 -0.3322,-0.32981 -16.7931,3.95334 -36.5797,9.51813 l -35.9757,10.11778 -52.7084,150.48191 c -28.9897,82.76499 -52.7381,151.26279 -52.7743,152.21729 -0.073,1.9262 3.6641,2.0124 109.5676,2.5295 l 48.1335,0.235 z m -406.88184,-24.1803 c 97.8187,-14.2039 177.24274,-83.6177 203.12454,-177.52375 20.596,-74.72757 5.7668,-152.19522 -41.0694,-214.5459 -22.225,-29.58701 -52.6026,-54.5602 -87.05514,-71.56711 -34.85935,-17.20776 -69.94482,-25.33503 -109,-25.24896 -38.7569,0.0854 -73.24654,8.14743 -108,25.2452 -48.8627,24.03915 -87.04556,62.06675 -111.52437,111.07087 -34.6238,69.3134 -34.20493,150.38381 1.13926,220.49996 36.3993,72.20929 109.32949,123.33949 188.88511,132.42429 5.225,0.5966 11.075,1.2692 13,1.4946 6.91985,0.8101 40.70631,-0.4271 50.5,-1.8492 z m 8.53162,-178.5835 c -22.84736,-6.13902 -35.02823,-23.8425 -33.81012,-49.13906 0.40784,-8.46951 0.90386,-10.57864 4.04191,-17.18648 8.13961,-17.13971 23.53704,-27.3811 43.94675,-29.23058 13.12069,-1.18896 29.11333,2.79537 35.63421,8.87775 7.92063,7.388 8.20268,23.09872 0.48441,26.98298 -7.17094,3.60882 -17.09434,2.59894 -22.30665,-2.27009 -2.53283,-2.36601 -3.02213,-3.58322 -3.02213,-7.51797 0,-2.58219 0.73164,-7.21164 1.62586,-10.28766 1.60568,-5.52334 1.5981,-5.61527 -0.61078,-7.40391 -3.93773,-3.18859 -12.03188,-1.98604 -16.86407,2.50548 -6.48396,6.02687 -9.66085,17.65215 -9.61468,35.18339 0.0292,11.08394 0.36545,13.83199 2.28145,18.64482 5.15705,12.95408 12.38156,19.07505 23.23813,19.6885 9.52511,0.53821 15.57946,-1.65146 21.10759,-7.63397 2.38834,-2.58464 5.05257,-5.79662 5.92053,-7.13774 l 1.5781,-2.43839 3.18042,2.26466 3.18041,2.26466 -1.76148,3.06786 c -4.16094,7.24683 -11.37497,13.73896 -20.03515,18.03025 -8.35442,4.13978 -8.84572,4.25216 -19.64751,4.49409 -8.54492,0.19139 -12.78696,-0.21083 -18.5472,-1.75859 z m -259.03162,-3.87916 c 0,-3.23477 1.40463,-4.10699 6.61391,-4.10699 4.53615,0 9.95393,-2.32399 11.3056,-4.8496 1.46517,-2.73769 1.5098,-103.47971 0.0471,-106.21288 -1.40191,-2.61949 -7.98057,-5.84064 -13.46336,-6.59214 -4.32292,-0.59251 -4.50325,-0.75194 -4.50325,-3.9813 v -3.36408 h 36.06336 36.06336 l -0.31336,3.25 c -0.25387,2.63298 -0.78799,3.29769 -2.81336,3.5012 -7.80197,0.78394 -13.07285,2.52596 -14.98038,4.95098 -1.90317,2.4195 -2.01962,4.0012 -2.01962,27.43268 0,24.6706 0.0166,24.86514 2.12081,24.86514 2.53041,0 24.60979,-20.41229 35.69513,-33 15.85581,-18.0047 17.04023,-24 4.74141,-24 -3.8788,0 -5.99011,-2.06113 -5.07258,-4.95201 0.63505,-2.00087 1.30569,-2.04799 29.14598,-2.04799 h 28.49597 l -0.31336,3.24165 c -0.2989,3.09208 -0.55571,3.27627 -5.56604,3.99216 -7.459,1.06575 -15.30431,4.02157 -20.91517,7.88003 -5.07036,3.48678 -38.33215,35.58481 -38.33215,36.991 0,0.79178 25.6841,32.98737 42.81751,53.67269 9.56652,11.54974 17.33685,17.44646 25.21678,19.1364 6.2809,1.34702 8.46573,1.35263 13.21411,0.0339 6.71134,-1.86384 6.87274,-2.80028 6.54241,-37.95923 l -0.29081,-30.95283 -3.14789,-3.14655 c -1.92136,-1.92053 -5.03847,-3.62416 -8,-4.37233 -4.34858,-1.09857 -4.8838,-1.54113 -5.15751,-4.2646 l -0.3054,-3.03883 14.8054,-0.75829 c 8.14297,-0.41706 18.6304,-0.80259 23.3054,-0.85673 l 8.5,-0.0984 0.5,39.5 c 0.36886,29.14014 0.83032,40.0775 1.75943,41.70187 0.77413,1.35344 3.37508,2.86877 6.75,3.93262 4.94534,1.55888 5.49057,2.01053 5.49057,4.54813 v 2.81738 h -55.44972 -55.44972 l -7.30028,-10.7474 c -4.01515,-5.91107 -12.03309,-16.82357 -17.81764,-24.25 -20.20978,-25.9461 -20.24502,-25.98552 -23.23264,-25.99441 l -2.75,-0.008 v 23.06574 c 0,13.80934 0.4105,23.83277 1.02292,24.97708 1.34055,2.50485 4.3473,4.07253 10.47708,5.46262 4.6024,1.04371 5.02492,1.38678 5.31336,4.31422 l 0.31336,3.18034 h -34.56336 -34.56336 z m 324,-0.10699 c 0,-2.18835 0.47346,-3.00151 1.75,-3.00558 0.9625,-0.003 3.47345,-0.48414 5.57988,-1.06906 6.87971,-1.91036 6.77125,-0.84761 6.45236,-63.2204 -0.27381,-53.55647 -0.34337,-55.30947 -2.32953,-58.70496 -2.00626,-3.42987 -5.04812,-4.98155 -12.76577,-6.51193 -2.36494,-0.46897 -2.76318,-0.99033 -2.5,-3.27295 0.3066,-2.65906 0.49033,-2.72864 8.89849,-3.36989 4.72198,-0.36012 15.29697,-0.81012 23.49997,-1 l 14.91464,-0.34523 0.5,48.77328 0.5,48.77329 14.3739,-13.4969 c 14.3124,-13.43923 19.1261,-18.78012 19.1261,-21.2209 0,-1.80198 -3.8235,-4.0572 -8.25,-4.86608 -3.3097,-0.60482 -3.75,-1.02441 -3.75,-3.57398 v -2.88871 h 23.5 23.5 v 2.81738 c 0,2.55401 -0.5375,2.98602 -5.75,4.62145 -3.1625,0.99224 -8.2428,3.05809 -11.2895,4.59077 -5.528,2.7809 -20.4143,13.33884 -22.6298,16.04997 -0.9431,1.15411 1.5296,5.39483 12.7844,21.92564 23.6394,34.72097 21.9567,32.69646 28.8649,34.72656 5.4682,1.60689 6.0174,2.01915 6.0186,4.51823 v 2.75 h -21.8159 -21.8158 l -2.3331,-4.25 c -4.8142,-8.7696 -24.4098,-37.75 -25.5253,-37.75 -0.6387,0 -2.1397,1.0415 -3.3356,2.31445 -1.9923,2.12072 -2.1743,3.3577 -2.1743,14.77749 0,14.72475 0.6158,16.11219 7.9902,18.00219 4.5204,1.15854 5.0098,1.55858 5.0098,4.09492 v 2.81095 h -28.50004 -28.5 v -3 z M 819.51134,813.00751 c -10.03439,-6.30708 -12.20506,-16.85609 -5.12723,-24.9173 10.70164,-12.18849 31.66985,-5.62007 31.66985,9.92078 0,6.02527 -1.88383,9.84933 -6.63859,13.47597 -4.84537,3.69574 -15.18649,4.48574 -19.90403,1.52055 z m -273.56155,-2.44406 c 2.59211,-8.01605 46.07892,-159.10719 45.85512,-159.31958 -0.89863,-0.85278 -197.94108,-57.57362 -198.40238,-57.11232 -0.75043,0.75043 -47.27868,162.08512 -46.86421,162.4996 0.60614,0.60613 194.79545,56.95817 196.68809,57.07716 1.05017,0.066 2.06347,-1.1041 2.72338,-3.14486 z m -18.39583,-71.25626 c -0.55,-0.1916 -3.7,-1.109 -7,-2.03867 -4.96171,-1.3978 -5.63337,-1.82902 -3.88136,-2.49187 1.60757,-0.60821 2.63279,-2.70699 4.25,-8.70048 2.78201,-10.31025 2.75969,-13.09473 -0.11346,-14.15758 -3.85639,-1.42657 -7.60518,0.61599 -8.69581,4.73799 -0.53215,2.01128 -1.53602,5.81109 -2.2308,8.44403 -1.02394,3.88026 -1.01951,5.17745 0.0234,6.84737 0.70764,1.13313 1.12856,2.21829 0.93538,2.41148 -0.67586,0.67584 -14.78735,-3.86851 -14.78735,-4.76199 0,-0.49613 0.39901,-0.65545 0.88669,-0.35405 1.515,0.93632 3.10474,-1.93924 5.14758,-9.31106 2.47939,-8.94719 2.48618,-11.77001 0.0315,-13.08373 -5.10009,-2.72948 -7.66751,-0.30585 -10.56927,9.97733 -2.19352,7.77335 -2.2567,8.59495 -0.78589,10.22018 2.07506,2.29291 0.64914,2.33807 -6.77908,0.21471 -8.35651,-2.38872 -8.78167,-2.63087 -5.9315,-3.37825 2.16302,-0.56719 2.86818,-1.93026 5.23145,-10.11235 3.28112,-11.35998 3.22984,-10.49548 0.76852,-12.9568 -1.94712,-1.94712 -1.94914,-2 -0.0763,-2 1.05804,0 4.14925,0.51372 6.86935,1.14159 4.22182,0.97451 4.86888,1.43515 4.42113,3.14735 -0.46943,1.79508 -0.21937,1.91681 2.38065,1.1589 6.77774,-1.97572 13.99789,0.27874 15.16313,4.73462 0.3941,1.50705 1.02101,1.80969 2.62974,1.26951 1.16176,-0.39009 4.22827,-0.91835 6.81446,-1.1739 4.04704,-0.39991 5.05714,-0.10967 7.25,2.08319 3.09778,3.09778 3.19814,5.87109 0.54783,15.13874 -2.45112,8.57111 -2.48905,10.40827 -0.25,12.10795 1.39806,1.06129 1.44834,1.31896 0.25,1.2813 -0.825,-0.0259 -1.95,-0.20391 -2.5,-0.39551 z m -76.22555,-20.58693 c -5.33896,-2.64275 -8.27445,-7.26905 -8.27445,-13.04045 0,-9.6733 6.33482,-15.3473 16.22484,-14.53233 13.46586,1.10964 19.91165,11.60126 14.10617,22.96019 -3.36023,6.57459 -13.71723,8.7405 -22.05656,4.61259 z m 10.10404,-2.3702 c 2.48422,-2.68052 4.27556,-7.73348 5.24246,-14.7878 0.5159,-3.76387 0.26758,-4.86028 -1.50141,-6.62927 -4.73477,-4.73477 -8.99334,-1.63777 -12.18163,8.85896 -2.11973,6.97876 -2.04262,10.98548 0.26493,13.76591 1.69027,2.03664 5.72061,1.44124 8.17565,-1.2078 z m -44.07198,-7.42937 c -10.15397,-2.93887 -12.27373,-4.10724 -7.45174,-4.10724 2.35621,0 3.4376,-0.58711 4.14427,-2.25 1.37504,-3.23571 9.21072,-31.8747 8.82469,-32.25376 -0.17805,-0.17483 -1.96425,-0.62427 -3.96934,-0.99876 -3.25515,-0.60797 -4.08521,-0.28374 -7.75,3.02718 -2.25741,2.03943 -4.10439,3.17997 -4.10439,2.53452 0,-1.79134 2.18107,-10.05918 2.65363,-10.05918 0.87873,0 36.77817,10.09846 37.1221,10.4424 0.48595,0.48595 -1.91548,8.82865 -2.85494,9.91823 -0.40813,0.47335 -1.35327,-1.32665 -2.10032,-4 -1.09503,-3.9186 -2.0269,-5.19615 -4.80819,-6.59181 -1.89746,-0.95215 -3.80283,-1.37827 -4.23417,-0.94693 -0.43134,0.43134 -2.76453,7.91166 -5.18487,16.62295 l -4.40062,15.83869 2.40369,2.40369 c 4.04429,4.04429 4.20423,4.03619 -8.2898,0.42002 z m 807.19353,92.28887 c 18.15,-5.24298 39.75,-11.49399 48,-13.89115 8.25,-2.39716 35.475,-10.28271 60.5,-17.52344 25.025,-7.24074 45.6394,-13.30056 45.8097,-13.46628 0.7097,-0.69045 -46.3947,-161.50914 -47.3097,-161.51974 -1.0604,-0.0123 -195.7454,56.10742 -196.3612,56.60288 -0.3403,0.27387 45.6546,160.16001 46.4748,161.55412 0.2112,0.35888 2.522,0.005 5.1352,-0.7856 2.6131,-0.79096 19.6012,-5.72782 37.7512,-10.97079 z m -21.5,-64.27948 c 0,-0.61415 0.6199,-1.11663 1.3776,-1.11663 0.7576,0 1.9143,-0.64675 2.5703,-1.43723 0.9437,-1.13707 0.3186,-4.66193 -2.9931,-16.87802 -2.3023,-8.49244 -4.5451,-16.02192 -4.9841,-16.73218 -0.5931,-0.95965 -1.6552,-1.04882 -4.1344,-0.34715 -2.7982,0.79196 -3.59,1.70467 -4.9095,5.6593 -0.8653,2.59328 -1.8472,4.98899 -2.182,5.3238 -0.3348,0.33481 -1.3128,-1.76216 -2.1734,-4.65995 -0.8605,-2.89778 -1.4536,-5.3471 -1.318,-5.44292 0.1356,-0.0958 8.1216,-2.32876 17.7466,-4.96207 9.625,-2.63332 17.9983,-4.97691 18.6074,-5.20798 1.0052,-0.38136 4.5872,9.63682 3.7809,10.57464 -0.1845,0.21463 -2.1802,-1.2764 -4.4349,-3.31341 -3.5236,-3.1833 -4.5459,-3.60969 -7.2765,-3.03488 -1.7473,0.36781 -3.4894,0.95885 -3.8714,1.3134 -0.382,0.35456 1.418,8.06965 4,17.14465 l 4.6945,16.5 3.25,0.31336 c 1.7875,0.17235 3.25,0.64451 3.25,1.04926 0,0.40475 -3.9375,1.7832 -8.75,3.06324 -4.8125,1.28003 -9.5375,2.54784 -10.5,2.81736 -0.9625,0.26953 -1.75,-0.0124 -1.75,-0.62659 z m 39.0144,-11.13111 c -7.0214,-1.67052 -12.3272,-11.47752 -10.0094,-18.50062 3.083,-9.34151 17.4287,-14.36211 25.6485,-8.97627 6.1876,4.05424 8.2654,13.83167 4.3161,20.3094 -3.2123,5.26888 -13.0634,8.80719 -19.9552,7.16749 z m 12.1132,-3.63939 c 4.2411,-5.11084 -2.318,-24.34613 -8.3019,-24.34613 -2.7604,0 -5.8257,3.63634 -5.8257,6.91091 0,4.09261 3.5039,14.88339 5.5764,17.17351 2.1297,2.3533 6.6994,2.49315 8.5512,0.26171 z m 17.8724,-3.96684 c 0,-0.36234 0.7429,-1.20202 1.6509,-1.86594 1.524,-1.11438 1.4788,-1.8529 -0.5875,-9.61025 -2.6099,-9.79773 -4.3296,-12.9031 -7.1455,-12.9031 -3.4698,0 -1.1801,-1.73139 4.7612,-3.60014 5.2198,-1.64184 5.7576,-1.65462 6.7008,-0.15929 0.8999,1.42652 1.4914,1.20497 4.8257,-1.80738 4.0381,-3.64815 8.8765,-4.52998 12.9357,-2.35758 1.699,0.90928 2.5401,0.52953 5.4393,-2.45563 3.7925,-3.90504 8.984,-5.45857 12.3038,-3.68187 2.7065,1.4485 4.3997,4.90852 6.6365,13.56189 2.0783,8.04032 2.7983,9.24762 5.8017,9.7287 2.0647,0.33071 -3.1929,2.27576 -11.8226,4.37372 -2.7594,0.67083 -2.8856,0.59053 -1.574,-1.0011 1.2408,-1.5056 1.1889,-2.66403 -0.3992,-8.91588 -2.6566,-10.4583 -3.9785,-12.68544 -7.5294,-12.68544 -3.3583,0 -6.5008,3.73042 -5.645,6.70104 4.5603,15.82937 4.753,16.29896 6.6899,16.29896 3.98,0 1.7704,1.63165 -4.4564,3.29088 -8.1163,2.16266 -9.2343,2.19535 -7.5967,0.22211 1.3203,-1.59078 1.14,-2.78359 -2.0711,-13.70341 -2.0514,-6.97626 -3.8213,-8.60986 -7.9192,-7.30924 -3.926,1.24606 -4.3215,3.99002 -1.8978,13.16477 1.8968,7.18026 2.6545,8.6828 4.8245,9.56766 2.4739,1.00874 2.3598,1.11661 -2.9256,2.76421 -7.899,2.46237 -11,3.13396 -11,2.38231 z M 740.05396,577.48452 c 45.96058,-19.97022 97.0189,-28.55743 146.60478,-24.65664 35.61329,2.80161 73.95683,12.67777 105.28502,27.11832 4.6145,2.12699 8.78034,3.86725 9.25754,3.86725 0.4837,0 0.7537,-27.98645 0.6102,-63.25 l -0.2575,-63.25 h -138.00004 -138 l -0.2575,63.35987 c -0.20561,50.59418 -0.004,63.2473 1,62.8012 0.69163,-0.30726 6.8825,-3.00276 13.7575,-5.99 z m 43.11347,-55.21935 c -2.48468,-1.07852 -3.73797,-1.17832 -4.7062,-0.37476 -0.72581,0.60237 -1.78937,0.80492 -2.36347,0.45011 -1.27599,-0.7886 -1.40672,-13.52707 -0.13882,-13.52707 0.49774,0 2.10823,2.0532 3.57888,4.56267 4.64383,7.92409 12.39253,10.6822 17.88128,6.36475 3.13088,-2.46275 3.5144,-6.82148 0.81514,-9.26427 -1.00084,-0.90575 -4.30257,-2.50105 -7.33717,-3.5451 -8.74141,-3.00749 -11.45232,-4.77475 -13.30132,-8.67122 -4.98256,-10.49997 5.99672,-19.52865 19.49107,-16.02826 2.84357,0.73761 6.02445,1.1177 7.06863,0.84464 1.39191,-0.36399 1.89851,0.0311 1.89851,1.48059 0,1.08738 0.28617,4.06486 0.63592,6.61663 0.76161,5.55652 -0.78549,6.22325 -3.2244,1.38957 -3.09295,-6.12991 -6.3699,-8.75 -10.94362,-8.75 -4.761,0 -7.4679,2.23781 -7.4679,6.17375 0,3.41912 2.29647,5.24341 10.21884,8.11773 8.52227,3.09197 11.60638,5.12568 12.90662,8.51082 2.30775,6.00814 -1.14326,12.97171 -7.84334,15.82658 -4.1761,1.77941 -12.86777,1.68973 -17.16865,-0.17716 z m 74.34108,-0.90627 c -2.73916,-2.73915 -2.98964,-4.27694 -1.30051,-7.98418 1.08897,-2.39004 6.86462,-5.27293 14.30523,-7.1404 2.14322,-0.53792 2.53833,-1.20743 2.52542,-4.27928 -0.0207,-4.91896 -1.13411,-6.36654 -4.5932,-5.97167 -2.57502,0.29395 -2.89149,0.71315 -2.89149,3.83008 0,3.41667 -0.0952,3.5 -4,3.5 -3.62677,0 -4.02969,-0.25831 -4.31819,-2.76836 -0.27706,-2.41047 0.24006,-3.02171 4,-4.72804 7.84161,-3.55867 19.13331,-1.78805 20.2828,3.1805 0.29468,1.27375 0.6482,6.3659 0.78559,11.3159 0.22911,8.25456 0.43616,9.08176 2.4998,9.98713 1.2375,0.54292 2.25,1.27794 2.25,1.63337 0,0.35543 -1.0125,0.91758 -2.25,1.24921 -4.21033,1.12833 -7.74578,0.63451 -9.74086,-1.36057 -1.98686,-1.98686 -1.9974,-1.98687 -5.25,-0.004 -4.52323,2.75785 -9.26401,2.58064 -12.30459,-0.45995 z m 14.35005,-2.40352 c 0.88891,-0.5638 1.20754,-2.65378 1,-6.5593 l -0.3046,-5.73184 -3.5,2.3569 c -3.45235,2.32483 -4.88374,6.04694 -3.60596,9.37678 0.5937,1.54715 4.33694,1.87266 6.41056,0.55746 z m 57.66282,2.86035 c -5.17714,-2.5627 -7.46742,-6.47584 -7.46742,-12.75869 0,-9.4996 7.01662,-15.78288 16.62765,-14.88982 2.82021,0.26206 6.08285,1.07299 7.2503,1.80208 2.42609,1.51512 5.12205,6.64448 5.12205,9.74528 0,1.9919 -0.50964,2.09887 -10,2.09887 -8.31539,0 -10,0.2581 -10,1.53212 0,2.38981 2.51798,7.82506 4.31582,9.31603 2.62413,2.17621 8.28889,1.82021 11.74959,-0.73839 3.63463,-2.6872 5.08646,-2.05441 2.34513,1.02213 -4.45095,4.99518 -13.12775,6.24403 -19.94312,2.87039 z m 11.53258,-19.06802 c 0,-4.42374 -1.66042,-6.93426 -4.58621,-6.93426 -1.92559,0 -2.85579,0.81361 -3.96482,3.46788 -2.43963,5.83887 -2.06276,6.53212 3.55103,6.53212 4.91272,0 5,-0.0535 5,-3.06574 z m -125.21262,18.261 c 2.16244,-1.66411 2.27169,-2.33203 2,-12.22776 -0.26796,-9.76034 -0.43938,-10.53419 -2.53738,-11.45463 -3.93649,-1.72703 -2.45103,-2.51287 4.75,-2.51287 6.41016,0 7,0.17426 7,2.06809 v 2.0681 l 3.04683,-2.16953 c 1.67575,-1.19325 4.80403,-2.40523 6.95172,-2.69329 3.37888,-0.4532 4.31554,-0.11313 6.95318,2.52451 2.98942,2.98942 3.04827,3.24047 3.04827,13.00322 0,9.19195 0.17245,10.07525 2.25,11.52448 2.12154,1.47991 1.76471,1.5707 -6.25,1.59016 -7.27661,0.0177 -8.24813,-0.17055 -6.75,-1.30779 2.44085,-1.85287 2.58491,-19.63018 0.17857,-22.03652 -1.99183,-1.99183 -4.37639,-1.99671 -7.20606,-0.0147 -2.03076,1.4224 -2.22251,2.37414 -2.22251,11.03139 0,7.49945 0.31271,9.59468 1.5,10.05028 3.64312,1.398 0.86762,2.35993 -6.75,2.33939 -8.07692,-0.0218 -8.20201,-0.0592 -5.96262,-1.7825 z m 75.71262,0.60979 c 3.15596,-1.78963 3.46927,-2.81007 3.47103,-11.30505 0.002,-9.6865 -0.60319,-12.24848 -3.079,-13.03427 -3.93066,-1.24754 -1.6541,-2.46573 4.60797,-2.46573 5.83333,0 6.5,0.20513 6.5,2 0,2.51573 1.19485,2.54717 3.41861,0.0899 4.14114,-4.57588 11.58139,-2.82004 11.58139,2.73315 0,3.30957 -1.6232,5.17695 -4.5,5.17695 -2.74368,0 -4.5,-1.83438 -4.5,-4.7 0,-2.83606 -0.97575,-2.90289 -3.81144,-0.26104 -1.89372,1.76427 -2.18856,3.10043 -2.18856,9.91821 0,9.1378 0.52581,11.04283 3.04797,11.04283 1.0087,0 2.11211,0.45 2.45203,1 0.39644,0.64145 -2.89901,0.9891 -9.19098,0.96959 -7.83251,-0.0243 -9.40602,-0.25893 -7.80902,-1.16454 z m -603.5,-34.78949 c 75.85704,-3.1783 134.76221,-19.16137 155.45944,-42.18167 5.18383,-5.76567 8.13003,-13.79433 7.00914,-19.10054 -1.27105,-6.01701 -5.88261,-13.00259 -11.87865,-17.99376 -6.77174,-5.63687 -4.90344,-5.60687 -24.58993,-0.39475 -32.41238,8.5814 -67.64025,13.63713 -113.25,16.2531 l -11.75,0.67393 v 2.84101 c 0,1.84454 -0.78918,3.356 -2.25,4.30926 -3.10998,2.02942 -15.06245,3.78894 -20.63588,3.0378 -9.91989,-1.33692 -14.11412,-3.67799 -14.11412,-7.87801 0,-2.24577 -0.21032,-2.284 -16.25,-2.95391 -41.46762,-1.73193 -81.30042,-7.25713 -113.75,-15.77826 -21.77395,-5.71776 -19.80815,-5.6499 -25.827904,-0.89156 -44.354557,35.06026 28.401204,74.9643 145.827904,79.98162 9.625,0.41125 18.85,0.80864 20.5,0.88309 1.65,0.0745 13.125,-0.28885 25.5,-0.80735 z M 1386.054,415.38335 c 114.3952,-12.47971 233.5489,-51.1438 267.769,-86.88814 20.9859,-21.92063 9.0105,-36.88172 -34.7285,-43.3868 -15.9532,-2.37266 -60.7083,-2.33321 -85.0405,0.0749 -17.0459,1.68704 -51.2441,6.21545 -53.75,7.11741 -0.9585,0.345 -1.25,6.8197 -1.25,27.7657 v 27.31577 l -2.75,1.60998 c -7.7666,4.54691 -27.7481,8.23059 -32.0774,5.91361 -2.1477,-1.14936 -2.1726,-1.47208 -2.1726,-28.12751 0,-21.41164 -0.2668,-26.96482 -1.2956,-26.96482 -0.7126,0 -11.1896,2.4579 -23.2823,5.46201 -88.1368,21.89533 -153.5039,52.81636 -165.0724,78.08526 -4.0545,8.85615 -2.3787,14.33379 6.4609,21.11879 7.3043,5.60661 22.6267,10.04763 42.2833,12.25537 12.4766,1.40132 67.7349,0.52172 84.9061,-1.35153 z M 310.05396,407.75724 c 60.54185,-4.79561 109.03141,-18.78113 129.77294,-37.42955 30.80043,-27.69224 -6.54071,-58.25162 -87.92715,-71.95814 -14.85957,-2.50254 -40.42386,-5.20528 -54.34579,-5.74561 l -8,-0.31049 -0.5,30 -0.5,30 -3.92817,1.91748 c -4.77488,2.33079 -19.98468,2.75926 -25.83097,0.72768 -7.00431,-2.43399 -6.74086,-1.11625 -6.74086,-33.71659 v -29.42857 l -3.75,0.004 c -14.80308,0.0161 -52.42637,3.98317 -72.25,7.61826 -68.10113,12.48789 -104.057964,37.33957 -89.528158,61.87774 15.163418,25.60822 78.233278,44.36621 161.028158,47.89237 12.0517,0.51327 48.35511,-0.32815 62.5,-1.44858 z M 1376.7825,69.486603 c -2.0744,-0.64523 -5.3891,-2.4715 -7.3661,-4.05838 -9.4042,-7.54858 -10.1989,-24.85345 -1.5594,-33.956349 6.2185,-6.55194 16.9263,-9.135898 25.5667,-6.169619 3.4878,1.197368 5.1763,1.365224 5.95,0.591496 2.1851,-2.185074 2.6803,-0.906566 2.6803,6.919706 0,4.4 -0.3731,8 -0.8291,8 -0.4559,0 -1.9035,-2.294089 -3.2168,-5.097976 -3.1772,-6.783379 -6.0218,-8.902025 -11.9526,-8.902025 -8.4014,0 -12.4022,6.451608 -12.4026,20.000001 -4e-4,14.041096 5.3059,20.744036 15.6361,19.751446 4.1081,-0.39474 5.6037,-1.15814 9.2175,-4.70487 5.1675,-5.07149 7.0446,-3.8213 2.3281,1.55053 -5.8844,6.70196 -14.7995,8.95409 -24.0521,6.07604 z m 68.0776,-1.71321 c -2.5523,-2.55226 -2.9375,-3.55298 -2.4008,-6.23661 0.9006,-4.5026 2.3716,-5.62641 11.2574,-8.60034 7.4446,-2.49157 7.8528,-2.7835 8.1472,-5.82678 0.48,-4.962272 -1.3311,-7.472271 -5.1263,-7.104609 -2.8967,0.280605 -3.1621,0.591162 -2.9451,3.445506 0.2978,3.916731 -1.6199,5.594186 -5.9232,5.181128 -2.7078,-0.259917 -3.3698,-0.785905 -3.6126,-2.870407 -1.0068,-8.641413 22.0449,-11.170987 26.3277,-2.889067 1.0059,1.945183 1.4696,6.002914 1.4696,12.859649 0,9.9098 0.03,10.03336 2.75,11.46953 l 2.75,1.45181 -3,1.16096 c -3.7101,1.43576 -9.5886,0.59866 -11.1917,-1.59373 -1.0996,-1.5038 -1.558,-1.46452 -5.569,0.47717 -6.0914,2.9488 -9.2887,2.72032 -12.9332,-0.92421 z m 14.9714,-2.51664 c 1.8338,-1.28446 2.2225,-2.50867 2.2225,-7 0,-3.13388 -0.4453,-5.4433 -1.0497,-5.4433 -2.4338,0 -7.1068,3.28143 -7.9933,5.613 -1.331,3.50089 -1.2311,4.11295 1.043,6.387 2.4075,2.40751 2.9173,2.44663 5.7775,0.4433 z m 27.9611,4.12673 c -2.0778,-0.74142 -4.0065,-0.94558 -4.309,-0.4561 -1.4446,2.33739 -2.4266,0.34538 -2.3978,-4.86393 0.029,-5.32208 0.1425,-5.60116 1.5189,-3.75 5.4279,7.29983 9.5336,9.55474 14.3397,7.8756 1.9206,-0.67099 2.6885,-1.71353 2.9084,-3.94855 0.3323,-3.37687 -1.0128,-4.40305 -8.5854,-6.55016 -6.3009,-1.78653 -9.2134,-4.89363 -9.2134,-9.829137 0,-7.314801 7.5235,-11.370031 17.3277,-9.339829 2.9408,0.608967 5.3161,0.6873 5.5056,0.181565 0.964,-2.572237 2.1667,-0.267102 2.1667,4.152622 v 5.042107 l -3.8452,-4.042107 c -2.8253,-2.969994 -4.6408,-4.042107 -6.845,-4.042107 -2.8771,0 -6.3098,2.542652 -6.3098,4.673753 0,1.818846 3.3883,4.032919 8.9384,5.840713 6.7347,2.19365 10.0616,5.33679 10.0616,9.50582 0,4.56201 -1.6487,6.91695 -6.3307,9.04277 -4.8794,2.21545 -9.6855,2.37864 -14.9307,0.50697 z m -79.7386,-0.4534 c 0,-0.48585 0.9,-1.11872 2,-1.40638 1.8612,-0.4867 2,-1.36401 2,-12.63807 0,-11.952304 -0.034,-12.130356 -2.5,-13.25413 -4.2977,-1.958168 -2.772,-2.818046 5,-2.818046 6.8333,0 7.5,0.177778 7.5,2 0,2.531515 0.1524,2.514934 4.5951,-0.5 4.646,-3.152825 6.8466,-3.149165 10.0125,0.01665 2.5394,2.539433 2.5868,5.184465 0.1476,8.233351 -2.535,3.168515 -9.4255,-0.06264 -8.2218,-3.855372 0.8046,-2.534837 -2.6024,-2.58085 -4.8784,-0.06589 -1.2948,1.430704 -1.655,3.890218 -1.655,11.299997 0,9.76935 0.7436,11.87126 4.2,11.87126 0.99,0 1.8,0.45 1.8,1 0,0.6 -4,1 -10,1 -5.5,0 -10,-0.39751 -10,-0.88337 z m 105,0.1205 c 0,-0.41958 1.0125,-1.20708 2.25,-1.75 2.2071,-0.96829 2.2552,-1.35488 2.5217,-20.262356 0.2836,-20.119919 -0.2254,-23.224771 -3.8069,-23.224771 -1.0806,0 -1.9648,-0.389535 -1.9648,-0.865633 0,-0.907802 13.9508,-2.250924 15.25,-1.468198 0.4125,0.248526 0.75,5.150307 0.75,10.892849 0,5.742541 0.205,10.440983 0.4556,10.440983 0.2506,0 2.1134,-1.125 4.1395,-2.5 4.1802,-2.836729 8.2037,-3.172524 12.3461,-1.030385 3.8864,2.009709 5.0588,6.091487 5.0588,17.612221 0,8.90513 0.1795,9.84037 2,10.41816 4.4891,1.42479 1.4785,2.5 -7,2.5 -8.3758,0 -11.6546,-1.07253 -7,-2.28975 1.8344,-0.47971 2,-1.36401 2,-10.68237 0,-11.988757 -0.7821,-14.027876 -5.3802,-14.027876 -5.5837,0 -6.6198,2.178978 -6.6198,13.922356 0,9.42388 0.1639,10.30773 2,10.78789 4.7407,1.23973 1.3014,2.28975 -7.5,2.28975 -5.225,0 -9.5,-0.34329 -9.5,-0.76287 z M 272.05396,67.104023 c -3.35492,-1.23358 -5,-3.67047 -5,-7.4066 0,-5.05882 2.23226,-6.97746 11.49937,-9.88377 l 7.50063,-2.352314 v -4.201496 c 0,-4.881583 -1.67655,-6.728784 -5.68953,-6.268644 -2.55851,0.293367 -2.81047,0.680866 -2.81047,4.322258 0,3.798329 -0.16715,4.016044 -3.31532,4.318231 -6.62161,0.635593 -8.26057,-4.716903 -2.47586,-8.085598 4.17496,-2.431263 12.9808,-3.320201 17.64416,-1.781154 5.80003,1.914184 6.64702,3.990225 6.64702,16.292467 0,10.54844 0.058,10.82535 2.5,11.93801 3.42855,1.56215 3.13595,2.47616 -1.04371,3.26027 -3.92987,0.73724 -7.13568,0.0397 -9.55557,-2.07909 -1.38063,-1.20887 -2.20092,-1.12734 -6,0.59631 -4.40938,2.00056 -7.09726,2.36193 -9.90072,1.33112 z m 11.4349,-4.26582 c 2.36171,-0.89792 2.5651,-1.45295 2.5651,-7 0,-6.587838 -0.76667,-7.248561 -5.02749,-4.33271 -3.38256,2.31482 -3.93946,3.3011 -3.9572,7.00827 -0.01,2.00509 0.63826,3.58099 1.73469,4.21959 2.16874,1.26318 1.66776,1.25197 4.6849,0.10485 z m 29.84995,3.52281 c -3.88043,-1.71588 -4.21712,-2.94371 -4.53754,-16.547556 l -0.24731,-10.5 -2.75,-0.316422 c -3.84544,-0.442467 -3.63018,-3.183578 0.25,-3.183578 2.93333,0 3,-0.111111 3,-5.000001 v -5 h 4.5 4.5 v 5 5.000001 h 4.5 c 3.33333,0 4.5,0.388889 4.5,1.5 0,1.111111 -1.16667,1.5 -4.5,1.5 h -4.5 l 0.0147,9.75 c 0.0183,12.110916 1.06225,14.559006 6.50975,15.265826 3.55392,0.46112 3.76341,0.63438 1.97551,1.63387 -3.55693,1.9884 -9.79103,2.41196 -13.21515,0.89786 z m -106.28485,-0.54756 c 0,-0.55 0.81,-1 1.8,-1 3.83811,0 4.2,-1.77518 4.2,-20.602171 V 26.009106 l -3,-1.045805 c -6.03927,-2.105302 -3.22052,-3.149845 8.5,-3.149845 11.50171,0 14.13911,0.884352 8.5,2.850155 -2.99836,1.045235 -3,1.050205 -3,9.097826 v 8.05202 h 10.04206 10.04207 l -0.29207,-7.743966 c -0.28922,-7.668688 -0.32404,-7.759033 -3.58156,-9.293835 -1.80922,-0.852428 -2.97172,-1.867643 -2.58333,-2.256034 1.12657,-1.126568 23.37283,-0.846897 23.37283,0.293834 0,0.55 -0.675,1 -1.5,1 -0.825,0 -2.4,0.9 -3.5,2 -1.83838,1.838384 -2,3.333333 -2,18.500001 0,15.166666 0.16162,16.661616 2,18.499996 1.1,1.1 2.675,2 3.5,2 0.825,0 1.5,0.45 1.5,1 0,0.61111 -4.66667,1 -12,1 -12.08015,0 -14.75139,-0.7764 -8.75,-2.5432 l 3.25,-0.9568 0.28753,-9.25 0.28752,-9.249996 h -10.03752 -10.03753 v 9.086866 9.08686 l 3,1.13238 c 1.65,0.6228 3,1.48371 3,1.91313 0,0.42942 -5.175,0.78076 -11.5,0.78076 -7,0 -11.5,-0.3913 -11.5,-1 z"
     id="path122"
     inkscape:connector-curvature="0" />
</svg>
