<?xml version="1.0" encoding="UTF-8" standalone="no"?>
<!-- Created with Inkscape (http://www.inkscape.org/) -->

<svg
   xmlns:dc="http://purl.org/dc/elements/1.1/"
   xmlns:cc="http://creativecommons.org/ns#"
   xmlns:rdf="http://www.w3.org/1999/02/22-rdf-syntax-ns#"
   xmlns:svg="http://www.w3.org/2000/svg"
   xmlns="http://www.w3.org/2000/svg"
   xmlns:sodipodi="http://sodipodi.sourceforge.net/DTD/sodipodi-0.dtd"
   xmlns:inkscape="http://www.inkscape.org/namespaces/inkscape"
   version="1.1"
   id="svg371"
   width="5184"
   height="1422"
   viewBox="0 0 5184 1422"
   sodipodi:docname="Piano_Note_1_2.svg"
   inkscape:version="0.92.1 r15371">
  <metadata
     id="metadata377">
    <rdf:RDF>
      <cc:Work
         rdf:about="">
        <dc:format>image/svg+xml</dc:format>
        <dc:type
           rdf:resource="http://purl.org/dc/dcmitype/StillImage" />
        <dc:title></dc:title>
      </cc:Work>
    </rdf:RDF>
  </metadata>
  <defs
     id="defs375" />
  <sodipodi:namedview
     pagecolor="#ffffff"
     bordercolor="#666666"
     borderopacity="1"
     objecttolerance="10"
     gridtolerance="10"
     guidetolerance="10"
     inkscape:pageopacity="0"
     inkscape:pageshadow="2"
     inkscape:window-width="1366"
     inkscape:window-height="692"
     id="namedview373"
     showgrid="false"
     inkscape:zoom="0.091116383"
     inkscape:cx="2315.6357"
     inkscape:cy="371.06946"
     inkscape:window-x="0"
     inkscape:window-y="27"
     inkscape:window-maximized="1"
     inkscape:current-layer="svg371" />
  <path
     style="fill:#000000"
     d="m 0.28269219,1420.75 c -0.2608,-0.6875 -0.3591,-319.175 -0.2186,-707.75 L 0.31959219,6.50003 1259.0696,6.24963 2517.8196,5.99923 V 713.9996 1422 H 1259.2882 C 253.38269,1422 0.66169219,1421.7491 0.28269219,1420.75 Z m 355.04089781,-28 c 0.2981,-1.2375 0.4192,-132.3 0.269,-291.25 l -0.273,-289 -67.5,-0.5 -67.5,-0.5 -0.5,-388.99998 -0.5,-388.99999 h -96 -95.999998 L 27.064092,713 c -0.1406,373.725 -0.042,680.0625 0.2186,680.75 0.3766,0.993 34.0962,1.25 163.986498,1.25 h 163.5123 z m -108.004,-77.0721 c -11.692,-2.9928 -22.3219,-11.4793 -27.4062,-21.8802 -13.0443,-26.6843 1.8767,-56.5346 30.8887,-61.7947 11.2143,-2.0332 23.938,0.5607 33.7002,6.8703 7.2374,4.6777 10.7509,8.7638 14.727,17.1267 2.887,6.0724 3.0871,7.2235 3.0414,17.5 -0.04,9.0258 -0.4591,12.0377 -2.334,16.7823 -6.3204,15.9942 -20.4939,25.465 -39.3702,26.3074 -4.7156,0.2105 -10.3879,-0.1799 -13.2469,-0.9118 z m 21,-13.7985 c 6.3696,-1.6208 11.4885,-5.7844 15.0581,-12.2477 8.29,-15.01 3.8635,-32.9202 -10.1685,-41.1435 -6.356,-3.7249 -16.6639,-4.5543 -24.4522,-1.9674 -6.9196,2.2983 -13.9776,9.2142 -16.2702,15.9425 -3.8279,11.2344 -1.1183,25.8241 6.0764,32.7173 8.2965,7.9489 17.0766,9.9255 29.7564,6.6988 z m -185.257498,-49.5549 0.2575,-62.8245 23.499998,-0.1296 c 35.41,-0.1952 45.9863,1.365 60.5,8.9249 6.7822,3.5327 18.0438,14.4015 21.6867,20.9301 6.7492,12.0957 9.2892,22.9111 8.5557,36.4311 -1.478,27.2466 -17.4948,47.5264 -44.6675,56.5562 -6.0879,2.0231 -8.9269,2.2128 -38.3324,2.5606 l -31.757598,0.3757 z m 59.720498,46.6355 c 13.1327,-2.3339 26.5086,-12.0786 32.061,-23.3571 9.9601,-20.2318 7.0315,-42.6778 -7.4588,-57.1681 -10.5187,-10.5188 -20.7944,-13.5636 -47.2982,-14.0152 -15.1949,-0.2589 -18.4839,-0.06 -19.7383,1.1946 -1.297098,1.297 -1.499898,7.7572 -1.466798,46.7176 0.021,24.8668 0.3533,45.7195 0.7382,46.3394 0.384998,0.62 1.824898,1.285 3.199898,1.478 4.7413,0.6653 34.5131,-0.2206 39.963,-1.1892 z m 568.81,-193.46 c 0.1502,-158.95 0.03,-290.0093 -0.2673,-291.2429 l -0.5403,-2.243 -67.2327,-0.257 -67.2327,-0.2571 -0.5,-388.99998 -0.5,-388.99999 h -28.5 -28.5 l -0.5,388.99999 -0.5,388.99998 -67,0.5 -67,0.5 -0.256,290 c -0.1409,159.5 -0.042,290.5638 0.2197,291.253 0.3791,0.9984 33.7574,1.2016 164.2561,1 l 163.7802,-0.253 z m -116.0271,210.4143 c -10.3674,-2.4434 -20.2743,-10.1508 -24.6871,-19.2063 -4.6689,-9.581 -6.4082,-17.8309 -5.7478,-27.2625 1.6358,-23.3586 16.3253,-37.6321 38.8382,-37.7381 7.4643,-0.035 9.4226,0.3377 14.2944,2.7212 10.9505,5.3576 17.4023,15.2062 19.5887,29.9022 0.6927,4.6565 0.983,9.1869 0.645,10.0677 -0.5437,1.4169 -3.9038,1.6015 -29.1459,1.6015 h -28.5314 v 2.9715 c 0,4.123 4.1634,12.9871 7.6208,16.2249 9.7904,9.1687 29.373,9.495 44.217,0.7368 4.2374,-2.5001 5.1247,-1.5836 5.1469,5.3168 0.024,7.3541 -3.9055,10.3229 -18.1968,13.7491 -8.6573,2.0755 -17.6643,2.4183 -24.042,0.9152 z M 605.40139,1266 h 18.4182 l -0.01,-2.75 c -0.014,-3.9662 -4.28,-12.5462 -7.4955,-15.0755 -6.3191,-4.9706 -17.2463,-5.2682 -25.0706,-0.6829 -7.1552,4.1932 -13.4291,17.6084 -8.7895,18.794 1.026,0.2622 2.4647,0.3052 3.1972,0.096 0.7325,-0.2096 9.62,-0.3811 19.75,-0.3811 z m -146.5818,-13.4167 c 0,-46.8759 0.2922,-62.514 1.1736,-62.8078 0.6454,-0.2152 9.9829,-0.2444 20.75,-0.065 23.5241,0.3919 29.9882,1.844 38.323,8.6091 7.822,6.349 11.0502,12.9941 11.5715,23.8201 0.3042,6.3187 -0.033,9.991 -1.255,13.6705 -2.0077,6.0445 -7.9178,13.0357 -14.0659,16.6387 -2.4734,1.4495 -4.4972,2.7661 -4.4972,2.9257 0,0.1595 3.263,3.6281 7.2511,7.7078 3.988,4.0797 9.9505,11.6837 13.25,16.8978 3.2994,5.214 9.7114,15.0146 14.2489,21.7789 4.5375,6.7644 8.25,12.5109 8.25,12.77 0,0.259 -4.2396,0.471 -9.4213,0.471 h -9.4213 l -5.0089,-7.75 c -2.7549,-4.2625 -7.9278,-12.25 -11.4953,-17.75 -9.5966,-14.7951 -17.1799,-23.387 -23.6037,-26.7428 -4.6396,-2.4237 -6.3965,-2.7971 -11.9927,-2.5485 l -6.5568,0.2912 -0.2661,27.25 -0.266,27.25 h -8.484 -8.4839 z m 39,-8.659 c 10.2041,-2.3284 15.9368,-9.5102 15.9781,-20.017 0.031,-7.9832 -3.13,-13.5939 -9.5126,-16.8828 -4.4058,-2.2702 -6.061,-2.5245 -16.4324,-2.5245 h -11.5331 l -0.2729,18.9692 c -0.15,10.4331 -0.052,19.5456 0.2187,20.25 0.6088,1.5867 14.9032,1.7227 21.5542,0.2051 z M 1067.5921,716 c 0.1499,-373.17498 0.028,-679.51472 -0.2703,-680.75497 l -0.5428,-2.255 -96.22971,0.255 -96.2297,0.255 -0.5,388.99999 -0.5,388.99998 -67,0.5 -67,0.5 -0.256,290 c -0.1409,159.5 -0.042,290.5638 0.2197,291.253 0.3791,0.9984 33.7574,1.2016 164.2561,1 l 163.78021,-0.253 z m -243.31321,597.75 c -0.2629,-0.6875 -0.3613,-28.7 -0.2186,-62.25 l 0.2593,-61 5.5,-0.722 c 9.3291,-1.2248 9.9637,-0.8387 20.6202,12.5428 27.5389,34.5812 30.9414,38.6262 32.5228,38.6639 0.3537,0.01 7.7787,-8.8303 16.5,-19.6415 26.1797,-32.4531 24.5623,-30.7674 30.0725,-31.3432 2.6315,-0.275 6.247,-0.3383 8.0345,-0.1406 l 3.25,0.3594 V 1252.6094 1315 h -8 -8 l -0.015,-47.75 c -0.01,-26.2625 -0.3914,-48.3431 -0.851,-49.068 -1.1167,-1.7611 -2.5158,-0.2133 -22.8822,25.316 -9.2133,11.5489 -17.4415,21.1257 -18.2849,21.2816 -0.963,0.1781 -7.0844,-6.7042 -16.4528,-18.498 -19.1057,-24.0518 -22.7337,-28.2805 -24.2638,-28.2811 -0.9828,-4e-4 -1.25,10.3659 -1.25,48.4995 v 48.5 h -8.0314 c -5.5035,0 -8.1818,-0.3934 -8.5093,-1.25 z m 144.2362,0.5 c -0.3519,-0.6245 -0.1876,-69.7892 0.1864,-78.5 0.117,-2.7242 0.1832,-2.75 7.0507,-2.75 5.7467,0 7.0176,0.2994 7.4292,1.75 0.6445,2.2718 0.6394,76.2022 0,78.5 -0.4068,1.4493 -1.6722,1.75 -7.3648,1.75 -3.7804,0 -7.0637,-0.3375 -7.2962,-0.75 z m 3.0797,-99.7684 c -10.0074,-5.5792 -2.1139,-20.0024 8.68,-15.8604 2.0778,0.7973 4.5448,5.5597 4.5448,8.7734 0,5.9022 -7.8268,10.0965 -13.2248,7.087 z m 451.55411,179.1027 c 0.7201,-1.8766 0.7356,-576.4343 0.016,-579.3273 l -0.5582,-2.243 -67.1434,-0.257 -67.1433,-0.257 -0.5,-388.99998 -0.5,-388.99999 h -96 -96 L 1095.0693,714.25 1094.8185,1395 h 163.8938 c 140.424,0 163.9715,-0.2027 164.437,-1.4157 z m -138.6741,-77.9821 c -13.9726,-5.203 -17.0995,-24.319 -5.5655,-34.0242 4.3625,-3.6708 9.2213,-6.0279 21.7225,-10.5379 5.8783,-2.1207 11.4753,-4.1704 12.4378,-4.5549 2.1943,-0.8767 2.3954,-8.0048 0.3631,-12.8687 -2.3345,-5.5874 -6.2767,-7.618 -14.7675,-7.6067 -8.3301,0.011 -14.9093,2.4732 -21.0753,7.887 l -3.5989,3.1599 -0.5677,-2.7783 c -0.9643,-4.7197 -0.048,-12.1295 1.744,-14.1101 5.7591,-6.3638 21.6631,-10.3395 32.4533,-8.1129 9.8834,2.0396 15.6553,6.0974 19.8348,13.9446 1.6597,3.1161 1.8998,6.4599 2.1888,30.4874 0.2162,17.9736 0.6982,27.4376 1.4431,28.3352 1.0827,1.3046 3.5752,1.203 8.4823,-0.3457 2.0461,-0.6458 2.25,-0.3863 2.25,2.8643 0,3.1568 -0.5046,3.8702 -4.3186,6.1054 -8.5292,4.9984 -16.0298,4.6079 -21.2644,-1.1069 l -3.2047,-3.4988 -3.8562,2.365 c -8.7165,5.3458 -17.8063,6.9636 -24.7009,4.3963 z m 23.503,-11.184 c 6.4851,-3.3536 6.8418,-4.2685 6.8418,-17.549 v -12.1309 l -3.5522,0.5765 c -5.7787,0.9377 -17.3127,6.7673 -20.4428,10.3323 -3.9285,4.4743 -4.7239,9.2165 -2.3581,14.0594 3.3882,6.9359 11.4469,8.882 19.5113,4.7117 z m -114.1835,1.3318 c -0.139,-50.9244 0.1727,-115.2307 0.5605,-115.6185 0.6142,-0.6142 56.671,-0.8904 61.7148,-0.3041 l 3.75,0.4359 v 6.8684 6.8683 l -6.75,0.067 c -3.7125,0.037 -14.3708,0.051 -23.685,0.031 -10.8165,-0.023 -17.4101,0.3588 -18.25,1.0558 -0.9884,0.8204 -1.3112,5.0966 -1.2997,17.2189 0.01,8.8702 0.3673,16.6817 0.7975,17.359 0.5759,0.9065 7.1029,1.3023 24.7347,1.5 l 23.9525,0.2686 v 7 7 l -23.4202,0.2688 c -15.2255,0.1748 -23.8856,0.655 -24.75,1.3725 -1.0492,0.8707 -1.3298,7.0913 -1.3298,29.4811 v 28.3776 h -8 -8 l -0.025,-9.25 z m 585.3755,87.7798 c 0.8594,-2.2395 0.6528,-578.9069 -0.2079,-580.2995 -0.5753,-0.9308 -16.4506,-1.2763 -67.6969,-1.4731 l -66.9454,-0.2572 -0.5,-388.99998 -0.5,-388.99999 h -28.5 -28.5 l -0.5,388.99999 -0.5,388.99998 -66.4572,0.2572 c -36.5515,0.1415 -66.823,0.623 -67.27,1.07 -0.5596,0.5596 -1.3411,562.1844 -0.8083,580.9228 0.028,0.9948 33.4997,1.25 163.9285,1.25 143.2841,0 163.964,-0.1849 164.4572,-1.4702 z m -242.3502,-77.1895 c -8.5849,-1.3302 -20.7836,-6.2667 -24.3848,-9.868 -1.2457,-1.2457 -1.6152,-3.6576 -1.6152,-10.5437 0,-4.9107 0.275,-8.9286 0.6112,-8.9286 0.3362,0 2.6987,1.7295 5.25,3.8433 13.3664,11.0743 28.274,14.0964 39.3561,7.9783 8.2965,-4.5802 10.8758,-12.6159 6.8763,-21.4227 -2.7658,-6.0902 -7.3614,-10.1313 -22.1294,-19.4594 -20.8736,-13.1848 -27.8101,-20.5812 -29.9668,-31.9535 -2.7667,-14.5886 4.6744,-28.2627 18.949,-34.8215 4.9602,-2.2791 6.8357,-2.5543 17.5536,-2.5757 12.657,-0.025 18.5754,1.4805 25.6683,6.531 2.6927,1.9174 2.8317,2.3975 2.8317,9.7816 0,4.2709 -0.2978,8.0631 -0.6619,8.4271 -0.364,0.3641 -2.1706,-0.4888 -4.0145,-1.8953 -1.844,-1.4064 -5.9336,-3.7668 -9.0881,-5.2452 -4.9636,-2.3262 -7.0141,-2.688 -15.2355,-2.688 -8.2834,0 -9.9934,0.3067 -13.353,2.3952 -4.8794,3.0333 -7.6385,7.5288 -7.6433,12.4537 -0.01,8.4769 5.5774,14.6904 21.1257,23.5007 25.2269,14.2944 33.2831,24.4181 33.1446,41.6504 -0.1796,22.3402 -18.9766,36.605 -43.274,32.8403 z m 94,-0.047 c -18.197,-3.1579 -31.0172,-15.3667 -34.9611,-33.2938 -5.267,-23.9412 10.7406,-47.1651 35.1339,-50.9723 10.489,-1.637 24.1347,0.9666 32.3272,6.1681 18.5,11.7459 24.6247,34.6348 14.8289,55.4174 -7.6427,16.2147 -28.0992,26.0177 -47.3289,22.6806 z m 20.5,-15.7564 c 10.4198,-4.6684 15.475,-13.1661 15.4894,-26.0374 0.016,-13.9453 -6.506,-23.8949 -18.2743,-27.8798 -19.4133,-6.5735 -38.2004,6.4598 -38.0258,26.3798 0.072,8.2501 1.5096,13.46 5.2579,19.0592 3.8309,5.7227 8.8555,9.0486 15.9099,10.5315 7.0422,1.4803 13.1906,0.8376 19.6429,-2.0533 z m 52.1175,12.7126 c -0.2846,-0.9625 -0.498,-28.8422 -0.4743,-61.9548 0.033,-46.8062 0.3203,-60.435 1.2893,-61.2392 1.2066,-1.0014 12.0969,-0.86 13.1273,0.1705 0.5029,0.5029 0.6818,32.5424 0.522,93.5235 l -0.082,31.2505 h -6.9326 c -5.7388,0 -7.0217,-0.3014 -7.4499,-1.75 z m 431.7249,78.5 c 0.3107,-1.7875 0.5489,-132.488 0.5292,-290.4456 -0.029,-229.9297 -0.2873,-287.4045 -1.2974,-288.2428 -0.8442,-0.7006 -23.2426,-1.1323 -67.668,-1.3044 l -66.4062,-0.2567 -0.5,-388.99998 -0.5,-388.99999 h -28.5 -28.5 l -0.5,388.99999 -0.5,388.99998 -67.25,0.2571 -67.25,0.257 v 13.743 c -0.024,110.119 -0.042,561.8506 -0.023,564.9929 l 0.026,4.25 H 1970.7113 2134.6 l 0.565,-3.25 z m -139.3671,-77 c -2.6045,-1.3173 -5.6977,-4.049 -7.4619,-6.59 -2.6175,-3.7698 -3.0126,-5.2149 -3.0074,-11 0.01,-11.1642 5.454,-17.3441 20.2085,-22.9401 4.282,-1.6241 11.048,-4.1773 15.0355,-5.6738 l 7.25,-2.7209 v -4.8787 c 0,-2.6833 -0.7266,-6.4024 -1.6147,-8.2647 -2.4246,-5.0845 -5.9359,-6.6818 -14.688,-6.6818 -6.4255,0 -8.3287,0.4375 -13.3458,3.0678 -3.2183,1.6873 -7.089,4.2465 -8.6015,5.6871 l -2.75,2.6193 -0.1642,-2.9371 c -0.5662,-10.1286 -0.064,-12.8416 2.8206,-15.2474 7.1597,-5.9707 17.0646,-8.46 28.5227,-7.1684 8.6497,0.9751 13.8332,3.2537 18.5284,8.1448 5.7426,5.9823 6.2925,9.2394 6.2925,37.2685 0,30.6071 -0.1803,30.1073 9.75,27.0295 2.0438,-0.6334 2.25,-0.3697 2.25,2.8771 0,3.1568 -0.5046,3.8702 -4.3186,6.1054 -8.516,4.9907 -16.0308,4.6068 -21.2445,-1.0853 l -3.1849,-3.477 -4.7244,2.9961 c -8.4147,5.3364 -18.4475,6.4631 -25.5523,2.8696 z m 25.1829,-10.3318 c 6.4698,-3.3456 6.8418,-4.2896 6.8418,-17.3592 0,-6.5675 -0.4056,-12.1916 -0.9013,-12.498 -1.1973,-0.74 -14.2696,4.6246 -19.1675,7.8658 -7.1113,4.706 -9.4497,11.3033 -6.2291,17.5732 3.4105,6.6394 11.5753,8.4935 19.4561,4.4182 z m -118.4568,9.9499 c -0.3475,-0.3475 -0.6527,-28.2178 -0.6781,-61.9339 -0.036,-47.8777 0.2264,-61.4705 1.1989,-62.0715 1.6042,-0.9915 10.6097,-1.5704 13.5193,-0.8691 l 2.2414,0.5402 0.2586,54.7331 0.2585,54.7331 27.951,0.2662 c 20.8326,0.1984 28.1503,0.5804 28.7339,1.5 0.8363,1.318 0.9349,9.0808 0.1522,11.9838 -0.4384,1.6258 -3.0452,1.75 -36.7378,1.75 -19.9463,0 -36.5503,-0.2844 -36.8979,-0.6319 z m 588.4392,77.3819 c 0.1977,-1.7875 0.3516,-307.7728 0.342,-679.9674 -0.012,-466.16578 -0.3403,-677.04026 -1.0551,-677.75507 -0.706,-0.70598 -31.5458,-0.95613 -96.4826,-0.78258 l -95.4449,0.25558 -0.5,388.99999 -0.5,388.99998 -67.1499,0.257 -67.1498,0.257 -0.3506,4.4077 c -0.6948,8.7357 -0.1573,576.2715 0.5468,577.4108 0.5453,0.8823 40.6239,1.1675 164.0531,1.1675 h 163.3316 l 0.3594,-3.25 z m -195.6406,-76.1354 c -7.1685,-1.5734 -14.7878,-4.8335 -19.2489,-8.2361 -3.2412,-2.4722 -3.2511,-2.507 -3.2511,-11.4289 0,-10.2537 0.6026,-10.7928 6,-5.3675 17.3568,17.4467 48,13.8946 48,-5.5641 0,-9.5566 -5.7576,-16.0075 -24.7244,-27.7021 -23.197,-14.3027 -30.0018,-23.4643 -29.0659,-39.1326 0.9451,-15.8206 10.5814,-26.1611 27.2903,-29.2843 11.7534,-2.197 27.8698,0.6716 34.917,6.2149 2.4165,1.9008 2.583,2.5814 2.583,10.5574 v 8.5256 l -3.25,-2.17 c -1.7875,-1.1935 -6.175,-3.6002 -9.75,-5.3482 -5.837,-2.854 -7.418,-3.1782 -15.5,-3.1782 -10.3115,0 -14.699,1.6021 -18.5901,6.7881 -1.8309,2.4402 -2.398,4.4286 -2.3605,8.276 0.091,9.3524 4.7205,14.148 24.7497,25.6381 14.066,8.0692 21.6713,14.961 25.8283,23.405 2.8796,5.8494 3.2102,7.4409 3.2617,15.701 0.05,8.0836 -0.2783,9.8818 -2.7261,14.9154 -3.3875,6.9661 -10.1072,13.0071 -17.663,15.8791 -6.8501,2.6037 -18.4971,3.268 -26.5,1.5114 z m 67.5,-41.6141 v -41.0876 l 7.25,0.2938 7.25,0.2938 v 40.5 40.5 l -7.25,0.2938 -7.25,0.2938 z m 3,-59.294 c -5.5282,-2.7962 -6.2305,-10.8063 -1.2884,-14.6938 3.0283,-2.3821 6.3294,-2.5595 10.2169,-0.5492 3.2338,1.6723 4.0715,3.3244 4.0715,8.0299 0,2.4901 -0.7756,3.9819 -3.0767,5.9182 -3.3915,2.8537 -6.1339,3.2116 -9.9233,1.2949 z M 441.26029,725.25 c 2.8237,-2.6125 9.0144,-7.7511 13.7572,-11.4192 12.6835,-9.8096 17.1374,-19.2246 13.8322,-29.2396 -3.6904,-11.182 -13.8931,-15.2956 -26.2694,-10.5917 -2.8934,1.0997 -5.4154,1.9997 -5.6045,2 -0.1891,3e-4 -0.018,-13.6207 0.3803,-30.2689 0.812,-33.9496 0.9673,-33.1366 -6.2167,-32.5451 l -3.8198,0.3145 -0.3285,9.5 c -0.5539,16.0147 1.8638,103.1975 2.9164,105.1642 1.747,3.2643 5.7992,2.2241 11.3528,-2.9142 z m -2.8407,-10.8501 c -1.0055,-2.6202 -0.6683,-23.9055 0.4286,-27.0519 0.5657,-1.6228 2.3456,-3.7285 3.9554,-4.6795 6.1355,-3.6243 11.016,0.8373 11.016,10.0704 0,5.5413 -1.9872,9.9681 -7.4881,16.6813 -4.6596,5.6865 -7.0608,7.1978 -7.9119,4.9797 z m 353.338,10.3501 c 3.0904,-2.8875 8.85,-7.7522 12.7991,-10.8104 3.9491,-3.0582 8.5477,-7.2813 10.2192,-9.3846 5.8091,-7.3097 6.4147,-17.3738 1.4931,-24.8108 -5.8007,-8.7655 -14.0624,-10.0135 -27.8638,-4.2091 -1.8701,0.7864 -1.8987,0.1023 -1.2349,-29.4943 0.4949,-22.0661 0.3704,-30.6719 -0.458,-31.6701 -1.3146,-1.584 -8.4726,-1.8594 -9.3983,-0.3616 -0.738,1.1941 -0.7385,21.1053 0,62.9909 0.6597,37.493 1.3136,50.062 2.6905,51.7211 2.2113,2.6644 6.0356,1.3725 11.7546,-3.9711 z m -3.938,-22.2996 c 0,-15.2002 0.9153,-18.3442 5.947,-20.4284 8.0547,-3.3364 13.1522,8.9827 7.9426,19.1945 -2.1441,4.2027 -11.4732,14.7835 -13.0346,14.7835 -0.4703,0 -0.855,-6.0973 -0.855,-13.5496 z M 1515.3136,725.25 c 2.8529,-2.6125 9.0769,-7.7911 13.831,-11.5081 13.4694,-10.5309 17.531,-19.9708 13.1273,-30.5103 -4.3544,-10.4216 -13.7136,-13.7847 -25.6916,-9.2321 -2.8934,1.0997 -5.4165,1.9997 -5.607,2 -0.1904,3e-4 -0.015,-13.7716 0.3895,-30.6043 0.8069,-33.5676 1.0014,-32.3496 -5.1708,-32.3799 -5.9737,-0.029 -5.8133,-2.1202 -4.4665,58.2263 0.6911,30.9687 1.6546,55.9372 2.1976,56.9518 1.727,3.2269 5.8022,2.1738 11.3905,-2.9434 z m -2.8625,-9.9518 c -0.3473,-0.3473 -0.6315,-5.9474 -0.6315,-12.4446 0,-14.0607 1.4939,-19.1329 6.1089,-20.7417 6.1921,-2.1586 9.8383,1.6809 9.8651,10.3881 0.02,6.4811 -1.2748,9.3989 -7.6554,17.2512 -3.6162,4.4503 -6.6178,6.6163 -7.6871,5.547 z m 338.7877,11.6155 c 1.4283,-1.6974 5.8558,-5.5931 9.8389,-8.657 15.9203,-12.2465 20.0957,-17.9426 20.0076,-27.2942 -0.062,-6.6316 -2.5729,-11.9521 -7.5065,-15.9092 -4.3676,-3.503 -12.8136,-4.0075 -19.2711,-1.151 -2.6385,1.1671 -5.0423,1.8769 -5.3418,1.5773 -0.2996,-0.2995 -0.5675,-14.3675 -0.5955,-31.2621 l -0.051,-30.7175 -4.0865,-0.2995 c -2.577,-0.1889 -4.5102,0.2111 -5.2337,1.0829 -0.8575,1.0332 -0.9046,13.7358 -0.1865,50.2995 1.0814,55.062 1.4151,61.9993 3.0782,64.0033 2.0684,2.4922 6.5123,1.6971 9.3477,-1.6725 z m -1.4192,-25.2436 c 0,-12.8479 0.2139,-14.6723 1.9842,-16.9228 4.2779,-5.4386 10.7763,-4.0331 13.038,2.8199 2.2919,6.9445 -0.4387,14.7847 -7.9275,22.762 -7.11,7.5738 -7.0947,7.5925 -7.0947,-8.6591 z m 343.8281,23.3496 c 3.1195,-2.7392 9.2232,-7.8017 13.5636,-11.25 10.005,-7.9487 13.7371,-13.0546 14.372,-19.6627 0.264,-2.747 0.1779,-6.6045 -0.1912,-8.5722 -0.756,-4.0297 -5.4599,-9.9081 -9.6713,-12.0859 -3.9238,-2.0291 -10.9468,-1.8035 -17.1405,0.5506 -2.8934,1.0997 -5.3831,1.9997 -5.5327,2 -0.1496,3e-4 0.036,-13.7654 0.412,-30.5904 0.7507,-33.5805 0.9487,-32.3633 -5.2676,-32.3938 -5.74,-0.028 -5.7331,-0.077 -5.0176,35.7669 1.1281,56.5163 1.876,77.6607 2.8105,79.4678 1.6333,3.1582 5.656,2.044 11.6628,-3.2303 z m -3.4249,-11.5494 c -0.3553,-1.4156 -0.4547,-7.9401 -0.2208,-14.4987 0.3817,-10.7078 0.6573,-12.1721 2.7003,-14.3468 2.3291,-2.4791 6.4316,-3.8251 8.8409,-2.9006 4.0881,1.5687 5.7022,13.6153 2.623,19.5755 -2.0712,4.009 -9.2312,12.5682 -11.5532,13.8109 -1.4053,0.7521 -1.8698,0.4333 -2.3902,-1.6403 z M 399.09979,697.1724 c 3.6959,-1.6758 6.7619,-3.4127 6.8133,-3.8597 0.6068,-5.2738 0.2574,-10.6245 -0.718,-10.9988 -0.6499,-0.2494 -2.9127,0.4177 -5.0285,1.4824 -11.1017,5.5866 -22.6563,5.2039 -29.0169,-0.961 -3.3906,-3.2863 -5.9552,-9.0147 -4.8422,-10.8157 0.3941,-0.6376 8.1009,-1.0196 20.5711,-1.0196 15.2345,0 19.9639,-0.295 20.0379,-1.25 1.0595,-13.6688 -4.8895,-25.9344 -14.7732,-30.4593 -4.8119,-2.203 -6.5394,-2.4754 -13.1807,-2.0786 -9.2519,0.5527 -14.3055,2.8935 -19.8531,9.1959 -10.2589,11.6548 -9.6783,33.8353 1.1781,45.0057 7.3587,7.5715 13.0543,9.695 24.5622,9.1574 5.7351,-0.268 9.132,-1.0781 14.25,-3.3987 z m -32.7557,-36.1328 c -1.0763,-1.7415 2.6638,-8.1832 5.8955,-10.1539 1.9806,-1.2078 4.9593,-1.8795 8.3447,-1.8819 4.5529,0 5.7411,0.4356 8.7882,3.2462 2.3244,2.144 3.5955,4.271 3.7353,6.25 l 0.2118,3 -13.1734,0.2785 c -8.1592,0.1725 -13.4127,-0.1087 -13.8021,-0.7389 z m 998.41681,38.3852 c 10.7329,-3.1873 19.226,-15.8283 17.5501,-26.1212 -2.0113,-12.3531 -6.8719,-18.3486 -22.5589,-27.8265 -12.3146,-7.4404 -15.6534,-10.4724 -16.4997,-14.9839 -1.8662,-9.9474 11.7384,-14.885 24.5639,-8.9151 3.0233,1.4072 6.2574,3.2469 7.187,4.0882 2.7567,2.4948 3.8163,0.6339 3.8163,-6.7022 0,-6.0855 -0.2727,-7.0967 -2.2664,-8.403 -7.8171,-5.12194 -23.5838,-6.56276 -31.7336,-2.8999 -10.4308,4.688 -15.3741,11.8656 -15.2343,22.1196 0.1606,11.7721 4.0513,16.5832 23.9376,29.6004 5.6118,3.6734 11.0684,7.9029 12.1257,9.3989 6.7742,9.5849 1.0365,18.2524 -12.0469,18.198 -6.3203,-0.026 -12.0876,-2.4524 -17.5403,-7.3786 -2.1913,-1.9797 -4.4922,-3.5995 -5.113,-3.5995 -0.7435,0 -1.1288,2.7073 -1.1288,7.9319 0,7.6371 0.1093,8.0098 2.942,10.0268 8.8118,6.2746 21.8038,8.4938 31.9993,5.4661 z m 71.2874,-0.9583 c 5.7082,-1.9797 13.6321,-9.2279 16.9082,-15.4665 2.0266,-3.8592 2.3631,-5.9239 2.3631,-14.5 0,-9.2156 -0.2327,-10.42 -2.9664,-15.3555 -5.5446,-10.0105 -14.1432,-15.0971 -26.8345,-15.8742 -9.7368,-0.5963 -14.7615,0.5799 -21.3319,4.9933 -12.9229,8.6805 -17.8436,27.2456 -10.8209,40.8259 4.0695,7.8697 12.6936,14.7423 21.1882,16.8852 5.0192,1.2662 15.644,0.5207 21.4942,-1.5082 z m -18.1059,-10.4841 c -10.0304,-2.3221 -16.1751,-13.8599 -13.2352,-24.8518 1.6304,-6.096 4.3693,-9.5924 9.4351,-12.0447 9.394,-4.5476 21.6659,-0.81 26.2132,7.9836 2.2139,4.2811 1.8873,14.4249 -0.6319,19.6289 -3.4375,7.1009 -13.2131,11.2676 -21.7812,9.284 z m 376.2387,10.0687 c 4.0314,-1.9945 4.0695,-1.9948 6.1456,-0.044 3.1273,2.938 7.833,3.5171 12.8891,1.5862 2.3974,-0.9156 5.1227,-2.5087 6.0563,-3.5403 2.1097,-2.3313 1.7673,-7.7441 -0.4525,-7.1533 -0.825,0.2196 -2.7375,0.6082 -4.25,0.8635 l -2.75,0.4643 v -18.4643 c 0,-11.1224 -0.4517,-19.8159 -1.1361,-21.8635 -1.5155,-4.5346 -5.4775,-8.741 -10.3639,-11.0034 -5.5171,-2.5543 -17.4958,-2.5349 -23.1615,0.038 -7.0505,3.2012 -8.3385,5.1424 -8.3385,12.5665 0,3.575 0.3375,6.4875 0.75,6.4722 0.4125,-0.015 2.5413,-1.3829 4.7306,-3.0391 5.8618,-4.4344 13.1498,-6.329 18.1129,-4.7085 3.3285,1.0867 4.1066,1.9078 5.2589,5.5495 1.6408,5.1852 0.8909,6.3893 -5.0905,8.1736 -6.6573,1.9859 -16.9808,6.9108 -19.5865,9.3437 -3.5884,3.3505 -5.1754,7.1195 -5.1754,12.2909 0,6.0538 2.8124,10.6032 8.2744,13.385 5.0442,2.5689 11.7273,2.2304 18.0871,-0.9162 z m -8.6251,-7.7079 c -1.8562,-0.5211 -4.7364,-5.2136 -4.7364,-7.7168 0,-2.6923 4.8874,-7.3316 10.0742,-9.563 7.3194,-3.1487 8.0741,-2.5553 7.7199,6.0689 -0.2589,6.3043 -0.5933,7.3817 -2.7941,9.003 -2.6969,1.9867 -7.4269,3.0042 -10.2636,2.2079 z m 326.1771,9.0899 c 11.2684,-3.3464 18.9776,-14.9356 17.5833,-26.4331 -1.4141,-11.6607 -6.4912,-17.8612 -22.4968,-27.4743 -11.2063,-6.7306 -14.5709,-9.6955 -16.0342,-14.1294 -1.3645,-4.1345 0.7179,-8.6642 5.0015,-10.8793 6.0749,-3.1415 17.7711,-1.2421 24.6473,4.0026 1.7886,1.3643 3.732,2.4804 4.3187,2.4804 0.6597,0 1.0667,-2.8301 1.0667,-7.4184 0,-7.3008 -0.052,-7.4496 -3.25,-9.37874 -12.2238,-7.37295 -31.7659,-5.64342 -39.8148,3.52374 -4.3914,5.0016 -5.9352,9.1942 -5.9352,16.1192 0,11.3844 3.8737,16.3426 22.1647,28.37 6.3424,4.1705 12.4881,8.7987 13.6572,10.2849 4.6426,5.9022 3.3437,13.811 -2.7892,16.9824 -4.0904,2.1152 -12.9351,1.9163 -18.3695,-0.4131 -2.4764,-1.0615 -6.2807,-3.5365 -8.4541,-5.5 -2.1733,-1.9635 -4.4595,-3.57 -5.0803,-3.57 -0.7425,0 -1.1288,2.6849 -1.1288,7.845 0,8.5321 0.4485,9.3683 6.7301,12.5499 8.7409,4.427 19.5741,5.5949 28.1834,3.0382 z M 288.54679,699.1898 c 0.8825,-0.5606 1.3038,-6.1034 1.5,-19.7347 l 0.2728,-18.9551 2.381,-0.3367 c 8.7135,-1.2322 13.7692,3.0657 27.3106,23.2175 5.5879,8.3156 10.6432,15.4498 11.2341,15.8539 1.6968,1.1604 13.0547,0.8849 14.2862,-0.3466 0.8158,-0.8158 -0.1538,-3.0124 -3.6419,-8.25 -2.6145,-3.9259 -7.3957,-11.1881 -10.6249,-16.1381 -3.2291,-4.95 -7.8813,-11.1583 -10.3382,-13.7962 l -4.467,-4.7961 5.0838,-4.4472 c 5.9036,-5.1643 8.2763,-10.7382 8.2763,-19.4423 0,-10.7174 -6.1881,-19.0014 -17.368,-23.25051 -4.2647,-1.62085 -7.729,-1.95516 -20.4993,-1.97824 -11.5167,-0.0208 -15.5677,0.29642 -16.1669,1.26598 -1.2312,1.99205 -0.9966,89.19647 0.244,90.69457 1.1358,1.3716 10.5311,1.7017 12.5174,0.4398 z m 2.5228,-52.9233 c -0.913,-0.3164 -1.25,-3.9104 -1.25,-13.3308 v -12.8976 l 2.5532,-0.6408 c 3.2303,-0.8107 11.7816,0.2979 16.0482,2.0807 8.561,3.577 8.361,18.45 -0.3072,22.8401 -2.7869,1.4115 -14.6727,2.7702 -17.0442,1.9484 z m 361.6139,52.3976 c 0.7507,-0.9046 1.1939,-12.1181 1.3724,-34.7206 l 0.2637,-33.3845 7.2704,8.9705 c 3.9987,4.9338 9.3987,11.6354 12,14.8924 6.769,8.4753 7.9969,9.6047 9.7228,8.9424 0.8462,-0.3248 7.2591,-7.8097 14.2509,-16.6333 12.1005,-15.2708 12.7401,-15.9031 13.2884,-13.137 0.3168,1.5983 0.4843,16.5317 0.3723,33.1852 -0.2294,34.1188 -0.4209,33.2208 7.0849,33.2208 8.1835,0 7.5103,4.2222 7.5103,-47.107 v -45.89298 h -6.7912 -6.7912 l -11.4588,14.20888 c -6.3023,7.8148 -13.0715,15.9818 -15.0426,18.1488 l -3.5839,3.94 -13.5999,-16.9714 c -7.48,-9.3343 -14.2654,-17.52379 -15.0788,-18.19885 -0.9234,-0.76635 -3.8594,-1.11472 -7.8163,-0.92741 l -6.3373,0.29998 -0.2604,44.88498 c -0.1874,32.3079 0.057,45.2675 0.8725,46.25 1.5007,1.8084 11.2567,1.8306 12.7518,0.029 z m 102.0841,0.3893 c 1.1977,-0.7578 1.4937,-5.8103 1.7129,-29.2347 0.1457,-15.5753 0.02,-29.1267 -0.2798,-30.1143 -0.4609,-1.5191 -1.4943,-1.7501 -6.7129,-1.5 l -6.1682,0.2956 -0.2653,29.3791 c -0.1882,20.8424 0.065,29.7774 0.8724,30.75 1.2813,1.5438 8.6174,1.8309 10.8409,0.4243 z M 1480.141,698.75 c 1.568,-1.1504 1.6827,-4.8327 1.4411,-46.2457 l -0.2625,-44.99567 -4.2777,-0.90222 c -2.8821,-0.60788 -5.0842,-0.53472 -6.75,0.22426 l -2.4723,1.12647 v 44.82146 c 0,33.5278 0.3024,45.1238 1.2,46.0214 1.5754,1.5755 8.9512,1.5423 11.1214,-0.05 z m 282.0968,0.643 c 2.2701,-0.8711 2.2701,-11.9149 0,-12.786 -0.87,-0.3338 -10.095,-0.607 -20.5,-0.607 h -18.9182 v -38.9648 c 0,-44.39176 0.7197,-41.18253 -9,-40.13049 l -5.5,0.59531 -0.2604,44.88498 c -0.1874,32.3079 0.057,45.2675 0.8725,46.25 0.9025,1.0875 6.2754,1.365 26.4286,1.365 13.9126,0 26.0075,-0.2731 26.8775,-0.607 z m 391.4747,-0.7639 c 0.8071,-0.9726 1.0606,-9.9076 0.8724,-30.75 L 2154.3196,638.5 h -6.5 -6.5 l -0.2662,29.5 c -0.2423,26.8464 -0.1127,29.6125 1.4411,30.75 2.2904,1.6769 9.793,1.596 11.218,-0.1209 z M 753.78019,627.0211 c 2.538,-1.3583 4.1881,-6.4997 3.0483,-9.4977 -1.9412,-5.1058 -9.5337,-6.2142 -12.9363,-1.8885 -2.7494,3.4952 -2.6177,6.9109 0.382,9.9106 2.5587,2.5587 6.3753,3.1511 9.506,1.4756 z m 1399.58491,-1.4756 c 2.9996,-2.9997 3.1313,-6.4154 0.3819,-9.9106 -3.6537,-4.6449 -11.8953,-2.8831 -13.3344,2.8504 -0.6823,2.7189 1.4793,7.9777 3.636,8.8454 3.1626,1.2725 6.9926,0.5386 9.3165,-1.7852 z M 1473.5318,386.00002 c 1.2374,-5.775 2.4919,-11.5125 2.7878,-12.75 0.5221,-2.18314 0.9058,-2.25 12.9139,-2.25 h 12.3758 l -2.3588,10.75 c -3.3999,15.49422 -3.4393,15.25 2.4607,15.25 4.2526,0 4.9592,-0.2939 5.4095,-2.25 0.2848,-1.2375 1.5173,-7.0875 2.7387,-13 l 2.2209,-10.75 h 10.3697 10.3696 v -5 -5 h -9 c -10.2848,0 -9.7388,0.74116 -7.503,-10.18462 2.6863,-13.12779 1.6287,-11.81538 9.5221,-11.81538 h 6.9809 v -5 -5 h -6.0191 c -5.7263,0 -5.9942,-0.1094 -5.5091,-2.25 1.9754,-8.7168 4.5282,-21.37495 4.5282,-22.45318 0,-1.751 -9.6075,-1.79495 -10.2341,-0.0468 -0.2465,0.6875 -1.5197,6.5375 -2.8294,13 l -2.3812,11.75 h -12.2777 c -7.6551,0 -12.2776,-0.38289 -12.2776,-1.01698 0,-0.55935 1.125,-6.22035 2.5,-12.58001 1.375,-6.35966 2.5,-11.75201 2.5,-11.98301 0,-0.231 -2.3844,-0.42 -5.2987,-0.42 h -5.2987 l -2.2681,11.25 c -1.2475,6.1875 -2.4885,12.02204 -2.7578,12.96564 -0.4142,1.45137 -2.0598,1.75944 -10.6832,2 l -10.1935,0.28434 v 4.5 4.5 l 9.2176,0.2871 9.2176,0.28709 -0.6405,3.21291 c -0.3522,1.76709 -1.3501,6.5879 -2.2176,10.7129 l -1.5771,7.5 -7,0.5 -7,0.5 v 4.5 4.5 l 5.75,0.2999 c 3.1625,0.16495 5.75,0.69145 5.75,1.17 0,0.47855 -1.125,6.07345 -2.5,12.43311 -1.375,6.35966 -2.5,11.81918 -2.5,12.13227 0,0.31308 2.354,0.43322 5.2312,0.26698 l 5.2312,-0.30226 z m 5.5275,-26.8088 c 0.2602,-0.99484 1.3091,-5.94484 2.3309,-11 l 1.8579,-9.1912 h 12.2858 c 6.7571,0 12.2857,0.40046 12.2857,0.88992 0,0.48946 -0.9,5.26399 -2,10.61008 -1.1,5.34609 -2,9.89562 -2,10.11008 0,0.21446 -5.6775,0.38992 -12.6166,0.38992 -11.6798,0 -12.5815,-0.13432 -12.1437,-1.8088 z m 374.4964,26.8088 c 1.2509,-5.775 2.5056,-11.5125 2.7882,-12.75 0.4988,-2.18443 0.8744,-2.25 12.888,-2.25 h 12.3741 l -2.388,11.25 c -3.2656,15.38419 -3.3739,14.75 2.5187,14.75 h 4.9172 l 1.1068,-5.25 c 0.6088,-2.8875 1.8477,-8.7375 2.7532,-13 l 1.6463,-7.75 h 10.3297 10.3297 v -5 -5 h -9.1278 -9.1278 l 0.6762,-4.25 c 0.3719,-2.3375 1.3655,-7.2875 2.2079,-11 l 1.5318,-6.75 h 6.9199 6.9198 v -5 -5 h -6.0674 c -5.3045,0 -6.0038,-0.22003 -5.5615,-1.75 1.0158,-3.51393 4.6289,-21.25797 4.6289,-22.73255 0,-1.94749 -9.5425,-2.19686 -10.2341,-0.26745 -0.2465,0.6875 -1.5197,6.5375 -2.8294,13 l -2.3812,11.75 h -12.2777 c -7.6551,0 -12.2776,-0.38289 -12.2776,-1.01698 0,-0.55935 1.125,-6.22035 2.5,-12.58001 1.375,-6.35966 2.5,-11.77553 2.5,-12.03527 0,-0.25974 -2.354,-0.33624 -5.2312,-0.17 l -5.2312,0.30226 -2.2498,10.5 c -1.2374,5.775 -2.4919,11.5125 -2.7878,12.75 -0.5135,2.14711 -0.9945,2.25 -10.5191,2.25 h -9.9809 v 5 5 h 9 c 4.95,0 8.976,0.3375 8.9467,0.75 -0.029,0.4125 -1.0489,5.25 -2.266,10.75 l -2.2127,10 -6.734,0.29569 -6.734,0.29569 v 4.95431 4.95431 h 5.5 c 3.0612,0 5.5,0.45094 5.5,1.01698 0,0.55935 -1.125,6.22035 -2.5,12.58001 -1.375,6.35966 -2.5,11.77553 -2.5,12.03527 0,0.25974 2.3539,0.33624 5.2308,0.17 l 5.2308,-0.30226 z m 5.6418,-27.25 c 0.3361,-1.2375 1.3758,-6.1875 2.3105,-11 l 1.6994,-8.75 h 12.3061 c 13.6634,0 13.2785,-0.23689 11.3737,7 -0.5067,1.925 -1.436,6.0875 -2.0653,9.25 l -1.1441,5.75 h -12.5457 c -12.5248,0 -12.5447,-0.004 -11.9346,-2.25 z m 327.5823,27.5 c 1.2214,-5.9125 2.4539,-11.7625 2.7387,-13 0.5031,-2.18571 0.8751,-2.25 13.0179,-2.25 h 12.5 l -0.6474,2.57955 c -1.0334,4.11722 -4.5694,21.55253 -4.5694,22.53053 0,0.48946 2.2414,0.88992 4.9809,0.88992 5.6987,0 4.9319,1.40774 8.4427,-15.5 l 2.0764,-10 10.25,-0.28498 10.25,-0.28499 v -4.96501 -4.96502 h -9 c -4.95,0 -9.0045,-0.3375 -9.0099,-0.75 -0.01,-0.4125 0.9697,-5.3625 2.1669,-11 l 2.1769,-10.25 h 6.833 6.8331 v -5 -5 h -5.8566 -5.8566 l 2.7499,-13 2.7499,-13 h -5.263 -5.2629 l -2.2209,10.75 c -1.2214,5.9125 -2.4539,11.7625 -2.7387,13 -0.5028,2.18442 -0.8791,2.25 -12.9095,2.25 -6.8154,0 -12.3916,-0.189 -12.3916,-0.42 0,-0.231 1.125,-5.62335 2.5,-11.98301 1.375,-6.35966 2.5,-12.04418 2.5,-12.63227 0,-0.66067 -1.9872,-0.95374 -5.2006,-0.76698 l -5.2005,0.30226 -2.5495,12.5 -2.5494,12.5 -10.25,0.28498 -10.25,0.28499 v 4.96501 4.96502 h 9 c 4.95,0 9.0045,0.3375 9.0099,0.75 0.01,0.4125 -0.9697,5.3625 -2.1669,11 l -2.1769,10.25 h -6.833 -6.8331 v 5 5 h 5.8325 5.8325 l -2.6651,12.50067 c -1.4659,6.87537 -2.4405,12.72537 -2.1659,13 0.2746,0.27463 2.6157,0.49933 5.2023,0.49933 h 4.703 z m 6.0546,-27.5 c 0.013,-1.9418 0.6249,-4.99823 3.505,-17.5 0.5032,-2.18428 0.88,-2.25 12.9003,-2.25 h 12.382 l -1.884,8.75 c -1.0361,4.8125 -2.1252,9.7625 -2.4201,11 -0.519,2.1783 -0.9179,2.25 -12.5171,2.25 -11.7624,0 -11.9806,-0.041 -11.9661,-2.25 z M 430.31159,386.17516 c 0.9128,-4.22133 2.1879,-9.92514 2.8338,-12.67514 l 1.1742,-5 11.75,-0.28174 c 13.7375,-0.32939 12.7566,-1.76447 9.6062,14.05378 -1.18,5.92463 -1.93,10.98744 -1.6668,11.2507 0.95,0.95002 8.9038,0.78409 9.8943,-0.20641 0.5578,-0.55784 1.8998,-5.46972 2.9821,-10.91529 3.0191,-15.18974 2.168,-14.2782 13.6461,-14.61437 l 9.7881,-0.28667 0.3011,-4.65932 c 0.2839,-4.39291 0.1409,-4.69305 -2.5,-5.249 -1.5406,-0.32432 -5.3842,-0.51074 -8.5413,-0.41426 -3.1572,0.0965 -6.0309,-0.11522 -6.3861,-0.47045 -0.6308,-0.63077 0.7957,-9.50835 2.7174,-16.91188 l 0.9617,-3.70491 6.7236,-0.29509 6.7236,-0.29509 0.3145,-3.81979 c 0.4322,-5.24799 -1.0695,-6.68021 -7.0043,-6.68021 -4.229,0 -4.8742,-0.25338 -4.4563,-1.75 0.2688,-0.9625 1.4755,-6.41674 2.6814,-12.12052 2.4903,-11.77816 2.278,-12.33481 -4.5353,-11.89039 -4.4799,0.29221 -3.9213,-0.96144 -8.0246,18.01091 l -1.6761,7.75 h -11.8997 c -9.3696,0 -11.8996,-0.28932 -11.8996,-1.36076 0,-0.74841 0.9367,-5.95333 2.0815,-11.56648 1.1448,-5.61315 1.8339,-10.85081 1.5314,-11.63924 -0.7005,-1.82551 -7.954,-1.93234 -9.4423,-0.13907 -0.5909,0.71195 -1.9989,5.54945 -3.129,10.75 -1.13,5.20055 -2.2853,10.46805 -2.5672,11.70555 -0.4837,2.12381 -1.0055,2.25 -9.3023,2.25 -10.7216,0 -12.4513,0.94308 -11.995,6.53988 l 0.3229,3.96012 8.75,0.28893 8.75,0.28894 -0.041,2.71106 c -0.023,1.49109 -0.8261,6.08607 -1.7857,10.21107 l -1.7447,7.5 -6.3708,0.70653 c -3.504,0.3886 -6.7811,1.1168 -7.2826,1.61823 -0.5014,0.50142 -0.7684,2.65848 -0.5934,4.79346 l 0.3182,3.88178 5,0.31 c 2.75,0.17049 5.3297,0.63514 5.7326,1.03254 0.4029,0.3974 -0.361,5.8829 -1.6975,12.19 -1.3365,6.3071 -2.1162,11.77288 -1.7326,12.14616 0.8136,0.79169 7.1597,1.51905 8.8638,1.01593 0.6414,-0.18939 1.913,-3.79816 2.8257,-8.01949 z m 6.8345,-29.45491 c -0.57,-0.92352 2.59,-16.44379 3.8625,-18.97023 0.7584,-1.50581 2.4031,-1.75 11.7872,-1.75 6.1219,0 11.1743,0.43448 11.5179,0.99047 0.6666,1.07851 -2.2446,16.98787 -3.4719,18.97366 -0.8542,1.38209 -22.8756,2.08477 -23.6957,0.7561 z m 340.6194,25.07439 c 1.2343,-6.21204 2.7065,-11.85712 3.2716,-12.54462 1.1679,-1.42094 20.4105,-1.77282 22.5539,-0.41244 1.0058,0.63832 0.7512,3.19489 -1.2184,12.23469 -2.34,10.74028 -2.3864,11.50571 -0.7714,12.72371 2.002,1.5098 8.1319,0.96207 9.2366,-0.82532 0.4123,-0.66715 1.7468,-6.22097 2.9657,-12.34182 1.2188,-6.12085 2.7335,-11.45943 3.366,-11.86351 0.6326,-0.40408 5.3126,-0.74158 10.4001,-0.75 l 9.25,-0.0153 v -5 c 0,-2.75 -0.3375,-5.06268 -0.75,-5.1393 -0.4125,-0.0766 -4.2787,-0.26786 -8.5917,-0.42501 -4.3129,-0.15714 -8.03,-0.47406 -8.2602,-0.70427 -0.5393,-0.53934 2.4016,-15.52939 3.6259,-18.48142 0.8327,-2.00793 1.6348,-2.25 7.4546,-2.25 h 6.5214 l 0.1185,-3.25 c 0.2523,-6.92093 -0.4498,-7.71156 -6.8685,-7.73469 -2.3375,-0.008 -4.25,-0.46616 -4.25,-1.0172 0,-0.55103 0.9577,-5.7013 2.1281,-11.44503 1.1704,-5.74373 1.8596,-11.14288 1.5314,-11.99811 -0.7625,-1.98706 -7.9492,-2.11576 -9.563,-0.17126 -0.6316,0.76104 -1.8251,4.92354 -2.6523,9.25 -0.8272,4.32646 -1.9579,9.55379 -2.5126,11.61629 l -1.0087,3.75 h -11.9614 c -6.5788,0 -11.9502,-0.3375 -11.9365,-0.75 0.014,-0.4125 1.1046,-5.69511 2.424,-11.73914 2.7149,-12.43638 2.4337,-13.51086 -3.5362,-13.51086 -4.8103,0 -5.0846,0.5031 -8.0432,14.75 l -2.3363,11.25 h -8.6848 c -11.5488,0 -11.8485,0.15445 -11.8485,6.10699 v 4.89301 h 8.441 c 4.6425,0 8.7004,0.41968 9.0174,0.93261 0.54,0.87379 -3.078,19.02035 -3.9701,19.91246 -0.2256,0.22558 -2.5652,0.3627 -5.1992,0.30472 -7.6593,-0.1686 -8.2891,0.28103 -8.2891,5.9176 v 4.93261 h 5.0314 c 3.1657,0 5.2135,0.47467 5.5226,1.28009 0.2702,0.70404 -0.419,5.70358 -1.5314,11.11007 -2.7651,13.4387 -2.7669,13.42401 1.7274,13.81706 6.2745,0.54872 6.7474,-0.0896 9.1959,-12.4126 z m 9.3041,-24.60798 c -3.859,-0.37208 -3.98,-1.50867 -1.4042,-13.18664 l 1.6542,-7.5 11.4157,-0.2843 c 6.2786,-0.15637 11.7603,0.0686 12.1815,0.5 0.7749,0.79359 -2.7828,18.24448 -3.9597,19.4224 -0.7452,0.74594 -15.1494,1.50538 -19.8875,1.04854 z m 639.24741,27.36489 4.8364,-2.44848 2.9098,2.44848 c 3.7383,3.14558 9.5596,3.24906 14.8702,0.26433 3.4544,-1.94145 3.8862,-2.60815 3.8862,-6 0,-4.31931 -0.058,-4.35425 -3.9229,-2.35574 -1.5529,0.80306 -3.1056,1.17806 -3.4503,0.83333 -0.3447,-0.34473 -0.6378,-8.08928 -0.6512,-17.21012 -0.026,-17.82597 -0.8845,-23.74225 -4.0986,-28.25602 -6.4075,-8.99853 -26.2947,-10.23685 -35.8105,-2.22981 -2.8348,2.38533 -3.0665,3.06468 -3.0665,8.99139 0,3.52611 0.2211,6.41111 0.4913,6.41111 0.2703,0 2.5384,-1.56254 5.0404,-3.47231 11.1437,-8.50619 23.6536,-6.68405 23.8773,3.47787 l 0.091,4.13196 -10.217,3.78738 c -5.6193,2.08306 -11.8546,5.03644 -13.8561,6.56306 -8.6507,6.59822 -8.4136,19.30683 0.471,25.24211 4.7172,3.15129 12.1634,3.07981 18.5995,-0.17854 z m -10.0429,-9.00608 c -3.2737,-3.27373 -3.248,-7.84282 0.063,-11.15353 2.3253,-2.32531 12.2717,-7.39192 14.5113,-7.39192 0.5508,0 0.9715,3.60133 0.9715,8.31586 v 8.31586 l -3.8862,2.18414 c -5.0737,2.85159 -8.6195,2.76935 -11.6593,-0.27041 z m 297.8659,9.02679 c 8.8803,-4.33959 13.6227,-12.19614 13.6576,-22.6259 0.041,-12.30424 -5.4394,-19.4719 -22.2496,-29.09828 -11.1064,-6.36009 -15.3497,-10.31229 -16.2554,-15.14027 -1.4389,-7.67016 4.7969,-12.24341 15.6368,-11.46782 6.5559,0.46907 9.9995,1.91377 17.685,7.41952 l 2.2948,1.64394 -0.2948,-7.90171 -0.2948,-7.90172 -6,-3 c -10.9099,-5.45495 -27.3037,-3.69245 -35.3349,3.79885 -5.7012,5.31804 -8.1458,14.44449 -6.1252,22.86742 1.0343,4.31164 2.3219,6.34233 6.8666,10.83005 3.0764,3.03786 9.4185,7.8806 14.0935,10.76166 9.9062,6.10489 10.6175,6.65713 14.2561,11.06875 5.6998,6.91055 2.2621,16.04765 -6.7617,17.97225 -8.3573,1.78244 -16.3876,-0.89408 -24.1501,-8.04927 l -4.427,-4.08065 0.2914,8.88675 0.2913,8.88676 4,2.28486 c 6.8833,3.93184 12.4409,5.24726 21,4.97048 5.3339,-0.17248 9.2732,-0.8809 11.8204,-2.12567 z m 69.9694,-0.92562 c 6.0557,-2.96275 10.4281,-7.32593 13.9541,-13.92442 1.9096,-3.57373 2.2561,-5.75805 2.2561,-14.2222 0,-9.2025 -0.2352,-10.42456 -2.949,-15.32355 -3.3089,-5.97339 -8.0732,-10.16901 -15.2215,-13.40459 -7.3276,-3.31676 -19.9222,-3.17008 -27.3295,0.3183 -7.8132,3.67956 -11.4426,7.10672 -14.942,14.10963 -2.5507,5.10439 -3.0571,7.29594 -3.0524,13.20993 0.01,8.63239 1.0798,12.75653 4.8767,18.74369 6.0848,9.59469 15.6456,14.10773 28.7259,13.55971 6.3328,-0.26532 9.3287,-0.93679 13.6816,-3.0665 z m -19.9496,-8.61973 c -9.0524,-2.11252 -14.3402,-9.16244 -14.3402,-19.11907 0,-6.87429 1.1903,-10.40579 4.8136,-14.28098 5.194,-5.55506 14.3411,-7.26034 21.9319,-4.0887 4.7981,2.00477 7.0228,4.09096 9.4645,8.87514 2.8311,5.54702 2.2299,15.8615 -1.2176,20.89281 -4.2174,6.15488 -13.1124,9.48029 -20.6522,7.7208 z m 375.4102,9.50917 5.2504,-2.4444 2.4541,2.45417 c 3.1049,3.10483 9.0053,3.28035 14.5849,0.43385 3.6117,-1.84256 3.9602,-2.3705 3.9602,-6 0,-2.18883 -0.1736,-3.97968 -0.3857,-3.97968 -0.2121,0 -1.6424,0.65197 -3.1783,1.44882 -1.5359,0.79685 -3.1624,1.2203 -3.6143,0.94098 -0.4519,-0.27931 -0.8242,-8.46878 -0.8273,-18.19882 0,-9.81619 -0.4974,-19.4715 -1.1106,-21.69098 -2.1982,-7.95708 -11.0854,-13.5 -21.6451,-13.5 -5.8965,0 -13.6942,2.6889 -17.1445,5.91196 -2.8048,2.62008 -3.0942,3.46096 -3.0942,8.98925 0,3.35433 0.3762,6.09879 0.8359,6.09879 0.4597,0 2.8222,-1.547 5.25,-3.43778 11.4996,-8.95608 25.0744,-6.13398 23.7409,4.93556 -0.2906,2.41212 -1.2888,3.07391 -9.007,5.97158 -12.7992,4.8052 -17.651,7.94628 -19.8897,12.87663 -2.4729,5.44612 -2.4058,8.30259 0.3199,13.61813 4.1419,8.07736 13.4027,10.2731 23.5004,5.57194 z m -8.3863,-7.65797 c -2.1557,-1.09194 -4.3641,-4.81047 -4.3641,-7.34842 0,-3.62666 7.6842,-9.46499 15.75,-11.96661 2.2109,-0.68571 2.25,-0.55099 2.25,7.75454 0,7.98293 -0.1433,8.5463 -2.5808,10.14337 -3.2982,2.16109 -8.3164,2.80436 -11.0551,1.41712 z m -772.3641,-11.85502 v -20.97692 l 17.75,-0.27308 17.75,-0.27307 v -6 -6 l -17.75,-0.27307 -17.75,-0.27308 v -11.95385 -11.95385 l 17.75,-0.27308 17.75,-0.27307 v -6 -6 l -24.75,-0.26747 -24.75,-0.26747 v 46.01747 46.01747 h 7 7 z m 467.7601,-24.77307 -0.2601,-45.75 -6.25,-0.29772 -6.25,-0.29771 v 46.04771 46.04772 h 6.5101 6.5101 z m 283.2399,39.25 v -6.5 h -20.5 -20.5 v -39.54569 -39.54569 l -6.75,0.29569 -6.75,0.29569 -0.2608,44.5 c -0.1434,24.475 -0.045,45.0625 0.2186,45.75 0.3672,0.95735 6.8081,1.25 27.5108,1.25 h 27.0314 z m -1723.82271,3.49894 c 22.0089,-6.30108 28.9537,-37.37816 11.9146,-53.31624 -6.932,-6.48405 -14.3529,-8.98486 -25.0919,-8.45578 -9.8008,0.48285 -16.4827,3.28022 -22.4076,9.38094 -6.0433,6.22254 -8.0924,11.64575 -8.0924,21.41735 0,9.41374 1.6513,14.55061 6.8488,21.30579 7.6047,9.88382 22.4565,13.78261 36.8285,9.66794 z m -21.206,-13.09198 c -5.9959,-3.47845 -8.4193,-8.11724 -8.8179,-16.87921 -0.3341,-7.3437 -0.2247,-7.77989 3.0271,-12.07336 5.6186,-7.41864 12.6782,-9.57506 22.1024,-6.75148 15.4344,4.62424 17.1064,28.80114 2.5168,36.3921 -4.1475,2.15792 -14.5798,1.77668 -18.8284,-0.68805 z m 380.7078,11.57798 c 3.2015,-1.40391 6.3834,-3.29835 7.0709,-4.20988 2.1585,-2.86186 1.3815,-11.27506 -1.0412,-11.27506 -0.5926,0 -2.9597,0.91123 -5.2603,2.02496 -5.7372,2.77732 -14.2345,4.42536 -18.5973,3.6069 -6.9876,-1.31087 -15.3243,-9.33389 -14.6432,-14.09207 0.2814,-1.96551 1.0258,-2.04964 20.4429,-2.31018 16.4056,-0.22014 20.2531,-0.53713 20.7015,-1.70561 0.7538,-1.96433 -1.1078,-13.00291 -2.9273,-17.35748 -4.1038,-9.82174 -12.2406,-15.13968 -23.1908,-15.15675 -9.5854,-0.0149 -13.942,1.70918 -20.3954,8.07133 -6.5901,6.49698 -8.8422,12.32294 -8.8333,22.8504 0.01,8.20926 1.0868,12.14393 5.2262,19.04328 5.926,9.87716 15.4421,14.40677 28.4473,13.54077 4.6357,-0.30869 9.2413,-1.38236 13,-3.03061 z m -32.2003,-36.51926 c -0.3516,-0.56888 0.2283,-2.70638 1.2885,-4.75 4.9746,-9.58823 19.0433,-10.23518 24.1711,-1.11149 3.6528,6.49931 2.9716,6.89581 -11.848,6.89581 -7.8565,0 -13.2244,-0.4079 -13.6116,-1.03432 z m -423.5749,38.04795 c 13.7584,-1.95129 24.4664,-7.69145 32.0597,-17.18594 6.3085,-7.88814 9.1588,-15.41708 9.7776,-25.82769 1.4169,-23.83772 -12.4207,-42.43526 -35.7412,-48.03571 -8.0591,-1.9354 -47.7467,-1.98948 -48.936,-0.0667 -1.0568,1.70861 -0.834,89.11956 0.2315,90.80143 0.9606,1.51639 32.493,1.7492 42.6084,0.31458 z m -28.4089,-14.16619 c -0.2883,-0.75121 -0.4051,-15.5367 -0.2596,-32.85664 l 0.2646,-31.4908 15.5,0.0744 c 14.4249,0.0693 15.8902,0.25236 21.1251,2.63971 7.5597,3.4476 13.1454,8.70616 15.9802,15.04422 1.8885,4.2225 2.3492,6.99444 2.3695,14.25662 0.023,8.19518 -0.2735,9.62232 -3.2597,15.69362 -3.5839,7.28665 -7.9694,11.43402 -15.8856,15.02322 -4.1207,1.86834 -7.0661,2.24779 -20.07,2.58557 -12.233,0.31776 -15.3438,0.12635 -15.7645,-0.96995 z m 373.9232,14.54557 c 1.3672,-0.52462 1.5818,-3.2386 1.5818,-20 v -19.39301 l 4.75,0.004 c 2.9197,0.002 5.9643,0.74418 7.9014,1.92535 4.5237,2.75836 11.7518,11.83526 20.1436,25.29586 6.4097,10.28137 7.6883,11.7751 10.5369,12.30948 2.466,0.46264 9.7777,0.18459 12.4181,-0.47224 1.0407,-0.25889 -0.2538,-3.45758 -2.8494,-7.04069 -1.7046,-2.35322 -6.2359,-9.28324 -10.0694,-15.40004 -3.8336,-6.1168 -9.0224,-13.2214 -11.5308,-15.788 l -4.5608,-4.66654 5.4415,-5.33346 c 6.4642,-6.33589 8.3859,-11.64439 7.5504,-20.85794 -0.8484,-9.35624 -5.236,-15.56531 -14.3176,-20.26154 -7.041,-3.64096 -37.4367,-4.88934 -39.4822,-1.62156 -1.34,2.1407 -1.1324,88.96079 0.2166,90.58624 1.123,1.35314 9.3562,1.83247 12.2699,0.71435 z m 3.8033,-53.11376 c -2.2517,-0.42082 -2.2752,-0.58074 -2,-13.60254 l 0.2785,-13.17671 7.0902,0.12726 c 12.6584,0.22719 18.0999,4.83874 17.167,14.54847 -0.7356,7.65481 -5.0451,11.17022 -14.7572,12.03795 -3.025,0.27026 -6.5253,0.29977 -7.7785,0.0656 z M 2662.2828,1420.7504 c -0.2608,-0.6877 -0.3593,-319.1754 -0.2187,-707.7504 l 0.2555,-706.49997 h 1258.5 1258.5 V 714 1421.5 l -1258.2812,0.2504 c -1006.1023,0.2002 -1258.3763,-2e-4 -1258.7556,-1 z m 354.6821,-28.0004 c 0.3045,-1.8101 0.2467,-575.1139 -0.058,-579.5 -0.069,-0.9868 -14.2998,-1.25 -67.5857,-1.25 h -67.4988 l -0.2512,-389.24998 -0.2516,-389.24999 -95.5,-0.25852 c -88.6158,-0.23988 -95.5894,-0.13691 -96.7407,1.42848 -0.9848,1.33896 -1.241,141.50965 -1.2419,679.44801 -6e-4,372.7686 0.2684,678.4633 0.5978,679.3215 0.5392,1.4052 16.8974,1.5605 164.3752,1.5605 h 163.7764 z m -166.1453,-75.4759 c -2.475,-0.2071 -8.775,-1.2414 -14,-2.2984 -32.3071,-6.5357 -58.0739,-24.5451 -74.8541,-52.3183 -6.7369,-11.1503 -11.2042,-22.7889 -14.2623,-37.1574 -1.801,-8.4616 -1.4887,-33.1109 0.5383,-42.5 9.093,-42.1177 36.9008,-73.2649 77.0781,-86.3343 15.4844,-5.037 22.6035,-6.0384 43,-6.0487 15.8078,-0.01 20.6955,0.3571 29.0919,2.1734 9.857,2.1322 33.4053,9.5649 42.0675,13.2779 l 4.3406,1.8606 v 16.1189 c 0,8.8654 -0.3375,15.9645 -0.75,15.7759 -0.4125,-0.1886 -4.8,-2.3989 -9.75,-4.9117 -10.0442,-5.0989 -22.1966,-9.993 -30.5,-12.2831 -12.5157,-3.452 -17.9593,-4.0984 -34.5,-4.0969 -20.0089,0 -27.858,1.6741 -43.4472,9.2572 -20.035,9.7458 -33.5406,24.6152 -42.1146,46.3675 -6.0872,15.4434 -6.6345,40.2412 -1.2656,57.3433 4.8558,15.4679 14.3775,29.5391 26.3274,38.9068 33.7901,26.4885 86.6208,25.9085 132.75,-1.4574 l 5.25,-3.1145 0.1047,3.3326 c 0.6478,20.6125 0.3406,28.3872 -1.1818,29.9096 -2.5656,2.5656 -23.1695,10.8447 -33.7221,13.5502 -17.9407,4.5997 -40.2147,6.319 -60.2008,4.6468 z m 522.0217,47.4759 c 0.2228,-310.3518 -0.1147,-551.2429 -0.7731,-551.9014 -0.4588,-0.4588 -30.7399,-0.9499 -67.2914,-1.0914 l -66.4572,-0.2572 -0.5,-388.99998 -0.5,-388.99999 h -28.5 -28.5 l -0.5,388.99999 -0.5,388.99998 -66.4062,0.2572 c -45.1661,0.1749 -66.8169,0.5981 -67.6903,1.3229 -1.0399,0.8631 -1.2849,55.7546 -1.2886,288.7428 0,158.2224 0.2314,288.9146 0.5197,290.4271 l 0.5243,2.75 h 163.9206 163.9205 l 0.022,-30.25 z m -258.2855,-50.3471 c -0.4049,-0.4049 -0.7362,-50.4175 -0.7362,-111.139 v -110.4028 l 53.75,0.4462 c 49.4195,0.4103 54.4751,0.6097 62.75,2.4755 24.2106,5.4589 42.9112,15.5518 57.9172,31.2584 35.9027,37.579 40.2747,96.2656 10.404,139.6555 -13.2119,19.1914 -33.4347,34.1437 -56.3212,41.6427 -18.1449,5.9454 -17.7856,5.9147 -74.5138,6.3743 -28.8826,0.2339 -52.8451,0.094 -53.25,-0.3108 z m 94.2638,-27.3921 c 35.0707,-3.4615 60.6644,-21.7499 71.7574,-51.2756 5.2479,-13.9681 6.5898,-22.2693 5.9381,-36.7352 -0.7905,-17.5457 -4.6167,-29.9872 -13.2243,-43 -7.7483,-11.7138 -20.4452,-22.1183 -33.4822,-27.4369 -17.0786,-6.9673 -32.1382,-8.7926 -68.989,-8.3614 l -25.5,0.2983 -0.2583,82.5 c -0.142,45.375 -0.044,83.0625 0.2186,83.75 0.5856,1.5349 48.6322,1.7321 63.5397,0.2608 z m 520.0131,104.2392 c 0.4994,-143.1018 -0.1906,-1356.82744 -0.7716,-1357.4085 -0.4684,-0.4684 -43.8019,-0.73685 -96.2966,-0.59655 l -95.4449,0.25508 -0.5,388.99999 -0.5,388.99998 -66.9454,0.2572 c -51.9794,0.1996 -67.1168,0.5345 -67.7121,1.4977 -0.8583,1.3887 -1.0311,578.09 -0.1739,580.3238 0.4683,1.2204 23.7126,1.4213 164.4384,1.4213 h 163.893 l 0.013,-3.75 z m -224.5406,-77.4926 c -0.2587,-0.6916 -0.3584,-50.5324 -0.2214,-110.7574 l 0.2489,-109.5 62.7791,-0.2575 62.7791,-0.2575 -0.2791,13.2575 -0.2791,13.2575 -47,0.5 -47,0.5 -0.2633,33.7763 c -0.2065,26.4879 0.01,33.8783 1,34.2494 0.6948,0.2602 21.2883,0.5859 45.7633,0.7237 l 44.5,0.2506 0.2788,12.6037 c 0.2148,9.7114 -0.035,12.8643 -1.0898,13.7394 -0.9654,0.8013 -14.4517,1.2126 -45.7788,1.3964 l -44.4102,0.2605 v 35 35 l 48.5,0.5 48.5,0.5 v 13 13 l -63.7785,0.2574 c -50.4959,0.2038 -63.8765,0 -64.249,-1 z M 4084.8196,1140 c 0.275,-139.975 0.275,-270.925 0,-291 l -0.5,-36.5 -67,-0.5 -67,-0.5 -0.5,-388.99998 -0.5,-388.99999 -95.3914,-0.25508 c -68.8921,-0.18421 -95.7638,0.054 -96.7318,0.85736 -1.1182,0.92798 -1.337,113.59641 -1.3198,679.52429 0.011,373.1266 0.2768,679.0796 0.5899,679.8956 0.5007,1.3047 20.3147,1.4532 164.2112,1.2308 l 163.6419,-0.253 z m -220.5286,173.7769 c -0.2676,-0.7023 -0.3706,-50.5519 -0.2289,-110.7769 l 0.2575,-109.5 58.75,-0.258 58.75,-0.258 v 13.4974 13.4974 l -43.25,0.2606 -43.25,0.2606 -0.2647,30.9319 c -0.2061,24.0804 0.015,31.1097 1,31.7347 0.6956,0.4415 20.2772,0.8097 43.5147,0.8181 l 42.25,0.015 v 13.4894 13.4894 l -43.25,0.2606 -43.25,0.2606 -0.5,51.5 -0.5,51.5 -14.7711,0.2769 c -11.2666,0.2111 -14.8865,-0.026 -15.2575,-1 z M 4440.3196,1103.5 v -291 l -67,-0.5 -67,-0.5 -0.5032,-388.99998 c -0.2767,-213.95 -0.6142,-389.1195 -0.75,-389.26557 -0.1357,-0.14606 -12.9593,-0.14606 -28.4968,0 l -28.25,0.26558 -0.5,388.99999 -0.5,388.99998 -66.9454,0.2572 c -52.0321,0.1998 -67.1212,0.534 -67.7347,1.5 -0.9541,1.5024 -1.1037,580.1256 -0.1503,581.0791 0.3683,0.3683 74.2808,0.5558 164.25,0.4167 l 163.5804,-0.253 z m -160,213.924 c -13.7195,-1.917 -19.1749,-3.0153 -27.1081,-5.4573 -49.8833,-15.355 -81.1286,-60.5799 -78.0475,-112.9667 1.1147,-18.9519 4.6184,-31.9827 12.7718,-47.5009 16.3791,-31.1739 46.2471,-52.5434 83.3838,-59.658 10.782,-2.0657 40.7466,-1.779 52.4843,0.502 10.5758,2.0553 31.9432,8.9002 42.2657,13.5395 l 6.75,3.0338 v 14.9784 14.9783 l -9.4056,-4.4554 c -38.5894,-18.28 -80.1087,-21.3282 -108.3385,-7.9539 -20.297,9.616 -35.5429,26.1038 -43.2196,46.74 -6.7512,18.1485 -6.9747,42.6594 -0.5543,60.7962 15.4058,43.5194 62.0128,64.6807 115.7502,52.555 6.4527,-1.456 13.4277,-3.2344 15.5,-3.9518 l 3.7678,-1.3045 V 1257.8994 1234.5 l -21,-0.5 -21,-0.5 -0.2781,-13.1194 -0.2781,-13.1194 3.1935,-0.6387 c 3.8871,-0.7774 67.3819,-0.7442 69.4158,0.036 1.2333,0.4732 1.4469,7.3061 1.4469,46.2932 0,42.3129 -0.1311,45.8521 -1.75,47.2618 -4.2713,3.7191 -32.542,12.6282 -48.75,15.3627 -8.6317,1.4564 -40.7608,2.7193 -47,1.8475 z m 516,-213.924 v -291 l -67,-0.5 -67,-0.5 -0.5032,-388.99998 c -0.2767,-213.95 -0.6142,-389.1195 -0.75,-389.26557 -0.1357,-0.14606 -12.9593,-0.14606 -28.4968,0 l -28.25,0.26558 -0.5,388.99999 -0.5,388.99998 -66.9454,0.2572 c -52.0321,0.1998 -67.1212,0.534 -67.7347,1.5 -0.9541,1.5024 -1.1037,580.1256 -0.1503,581.0791 0.3683,0.3683 74.2808,0.5558 164.25,0.4167 l 163.5804,-0.253 z m -265.2252,210.276 c 0.2797,-0.7018 6.2375,-14.551 13.2395,-30.776 7.002,-16.225 13.7298,-31.975 14.9507,-35 1.2209,-3.025 7.6384,-18.1 14.2611,-33.5 6.6227,-15.4 17.093,-39.925 23.2674,-54.5 13.877,-32.7574 28.8688,-67.1957 29.5473,-67.8742 1.2164,-1.2164 19.0758,-1.1253 20.6961,0.1056 0.9185,0.6977 4.8489,8.4686 8.7342,17.2686 3.8853,8.8 8.3952,18.925 10.022,22.5 5.0427,11.0817 27.9408,62.6452 35.526,80 5.7647,13.1894 27.5276,62.1491 34.0049,76.5 5.8844,13.0376 11.476,25.7495 11.476,26.0896 0,0.2257 -6.9861,0.4104 -15.5248,0.4104 -15.1771,0 -15.544,-0.05 -16.3883,-2.25 -0.8974,-2.338 -3.5393,-8.1585 -12.6829,-27.9424 -2.9722,-6.4308 -5.404,-11.9271 -5.404,-12.214 0,-0.2868 -2.4599,-5.7171 -5.4665,-12.0673 l -5.4665,-11.5457 -47.7835,0.2597 -47.7835,0.2597 -2.2622,4.5 c -1.2442,2.475 -7.6266,17.1 -14.1831,32.5 l -11.9209,28 -15.6838,0.276 c -12.4011,0.2182 -15.5774,0.01 -15.1752,-1 z m 141.2889,-93.0814 c 0.2755,-0.718 -1.5764,-5.7805 -4.1154,-11.25 -2.539,-5.4695 -6.3625,-13.9946 -8.4968,-18.9446 -12.6307,-29.2942 -21.8995,-49.0364 -23.1392,-49.2856 -1.384,-0.2783 -5.195,8.316 -21.855,49.2856 -3.1311,7.7 -7.1182,17.3468 -8.8603,21.4373 -1.742,4.0905 -2.9406,8.028 -2.6635,8.75 0.7385,1.9245 68.3917,1.9317 69.1302,0.01 z M 5152.3196,714 V 33.50003 l -95.4449,-0.25508 c -52.4947,-0.1403 -95.8105,0.11047 -96.2573,0.55725 -0.4468,0.44679 -0.8157,175.16157 -0.8199,388.25508 0,213.09352 -0.3629,388.00202 -0.7973,388.68562 -0.6139,0.966 -15.7034,1.3001 -67.7352,1.5 l -66.9454,0.2571 -0.273,289 c -0.1502,158.95 -0.029,290.0138 0.2698,291.253 l 0.5428,2.253 163.7302,-0.253 163.7302,-0.253 z m -237.8662,600.2164 c -0.8765,-1.4181 -0.6015,-218.6506 0.2785,-220.0745 0.6178,-0.9996 9.2275,-1.1906 40.6857,-0.9028 37.812,0.3461 40.321,0.4837 47.902,2.6272 22.8333,6.4559 37.6914,21.4654 42.2035,42.6337 1.7062,8.0045 1.2324,19.1215 -1.1539,27.0741 -3.4673,11.5551 -14.3708,23.3548 -26.3829,28.5515 -2.3833,1.0311 -4.1637,2.3833 -3.9565,3.0049 0.2072,0.6216 4.3159,2.4141 9.1305,3.9833 12.1616,3.9639 21.2549,9.5469 28.5931,17.5553 9.9788,10.8901 14.3031,22.3164 14.2229,37.582 -0.1441,27.4191 -17.4053,47.4283 -48.1567,55.8232 -8.224,2.2451 -10.031,2.3322 -55.6529,2.6846 -27.5568,0.2128 -47.3859,-0.013 -47.7133,-0.5425 z m 86.7727,-27.6672 c 17.9374,-3.4319 28.1681,-11.3983 32.1269,-25.0163 4.5403,-15.6179 -2.4946,-31.9979 -16.7047,-38.8952 -11.188,-5.4305 -16.0503,-6.0939 -44.8287,-6.1167 l -26.5,-0.021 -0.2634,34.4939 c -0.1449,18.9716 -0.047,35.0591 0.2186,35.75 0.7284,1.8981 45.8334,1.7412 55.9513,-0.1947 z m -23.1691,-98.5667 c 25.4439,-2.9154 37.8634,-15.7313 36.5609,-37.7281 -0.7664,-12.9442 -5.6814,-20.6885 -16.3263,-25.7243 -7.6355,-3.6122 -16.1081,-4.6445 -35.472,-4.3217 l -17.5,0.2916 -0.2638,32.8809 c -0.188,23.4317 0.063,33.2743 0.8724,34.25 1.3902,1.675 18.9054,1.8667 32.1288,0.3516 z M 3084.6759,742.25 c 3.1265,-3.1625 10.9395,-9.7057 17.3622,-14.5405 12.099,-9.1077 15.8968,-13.0566 19.9174,-20.7095 3.3126,-6.3055 3.3403,-18.5473 0.056,-24.7709 -2.7342,-5.181 -7.0776,-9.4724 -11.9067,-11.764 -5.2218,-2.4779 -16.0645,-1.5963 -23.2224,1.8881 -2.9904,1.4558 -5.8603,2.6468 -6.3774,2.6468 -0.5777,0 -0.685,-7.6161 -0.2782,-19.75 0.3642,-10.8625 0.7322,-29.7955 0.8178,-42.0733 0.1753,-25.14106 0.4873,-24.13575 -7.4964,-24.16137 -4.1058,-0.0132 -4.9278,0.32786 -5.8922,2.44447 -0.8281,1.81733 -0.8211,17.29246 0.027,59.25 1.7488,86.5404 2.0471,93.2006 4.2752,95.4287 3.3372,3.3371 6.5439,2.3567 12.7179,-3.8885 z m -2.2248,-13.9518 c -0.3473,-0.3473 -0.6315,-8.671 -0.6315,-18.497 0,-20.1494 0.7676,-23.4697 6.1898,-26.7755 6.0881,-3.7118 10.5804,-2.3565 13.926,4.2013 1.759,3.4479 2.0432,5.3931 1.6603,11.3609 -0.5483,8.5429 -2.9481,13.2436 -11.4489,22.4254 -5.8126,6.2783 -8.6045,8.376 -9.6957,7.2849 z m 342.6437,13.9379 c 3.4237,-3.1702 10.9498,-9.4283 16.7248,-13.907 5.775,-4.4787 12.1571,-9.8724 14.1825,-11.986 10.9117,-11.3872 12.4402,-27.3153 3.6844,-38.3923 -5.0466,-6.3843 -10.2506,-8.9075 -18.3669,-8.9051 -5.548,0 -7.8568,0.6771 -19.3734,5.6678 -1.1587,0.5022 -1.2573,-5.9763 -0.6311,-41.4603 0.7372,-41.77107 0.7284,-42.063 -1.3109,-43.15437 -2.4934,-1.33442 -9.1328,-1.41714 -11.1539,-0.13897 -1.6936,1.07113 -1.6946,6.12025 -0.018,90.54014 1.2247,61.6555 1.3743,63.9573 4.2892,65.999 3.5227,2.4674 5.4433,1.7835 11.9732,-4.2629 z m -2.6393,-17.8756 c -0.8638,-6.3023 -0.6975,-25.7616 0.2706,-31.6459 0.9429,-5.7319 4.9519,-10.4098 9.6817,-11.2971 5.2052,-0.9765 7.3776,0.3124 9.9926,5.9286 4.0798,8.7624 2.9317,16.0456 -4.2344,26.862 -3.9967,6.0325 -12.4952,14.7919 -14.3513,14.7919 -0.3978,0 -1.0094,-2.0878 -1.3592,-4.6395 z m 720.7007,17.8281 c 3.3898,-3.1963 10.2134,-8.922 15.1634,-12.7237 13.31,-10.2226 18.3856,-15.2952 21.523,-21.5104 3.6815,-7.293 4.3682,-11.3866 3.0795,-18.3578 -1.3414,-7.2566 -5.2833,-13.1726 -11.628,-17.4515 -4.7781,-3.2223 -5.276,-3.3377 -12.6132,-2.9218 -5.6118,0.3181 -9.0877,1.1419 -13.0996,3.1048 -3.0036,1.4695 -5.813,2.6718 -6.2433,2.6718 -0.4302,0 -0.4521,-18.6862 -0.049,-41.525 0.5684,-32.17481 0.4579,-41.85718 -0.4906,-43.00002 -1.3735,-1.65493 -9.5731,-2.01757 -11.9284,-0.52755 -1.195,0.75603 -1.4157,4.30412 -1.2588,20.23469 0.2593,26.31518 1.241,75.77858 2.1381,107.72578 0.7254,25.8348 0.7909,26.4478 3.0165,28.25 3.6188,2.9303 5.8205,2.2249 12.39,-3.9693 z m -2.6948,-16.9386 c -0.8972,-5.428 -0.7002,-27.9967 0.2891,-33.1181 2.4958,-12.9208 17.2474,-14.4933 20.9215,-2.2302 3.1878,10.6401 -1.0971,21.3107 -13.4979,33.6128 -3.0413,3.017 -5.8813,5.4855 -6.3112,5.4855 -0.4299,0 -1.0605,-1.6875 -1.4015,-3.75 z m 367.2054,16.4142 c 3.6591,-3.4847 10.4778,-9.2055 15.1528,-12.713 18.3167,-13.7422 23.9901,-21.897 23.9683,-34.4512 -0.014,-8.1309 -1.9418,-13.0478 -7.3695,-18.7981 -4.5162,-4.7847 -9.0677,-6.7019 -15.9101,-6.7019 -5.2003,0 -16.1159,3.0272 -18.1115,5.0228 -0.5375,0.5375 -1.5917,0.9772 -2.3427,0.9772 -1.1056,0 -1.261,-2.1412 -0.8165,-11.25 0.3019,-6.1875 0.8191,-25.0514 1.1494,-41.9199 0.5883,-30.05039 0.5596,-30.69173 -1.4178,-31.74999 -3.1159,-1.66762 -9.766,-1.32083 -11.6968,0.60997 -1.7622,1.76223 -1.7571,9.91035 0.049,77.80992 0.2633,9.9 0.7552,30.3571 1.0931,45.4601 0.3379,15.103 0.9923,28.4542 1.4543,29.6693 0.9494,2.4972 3.5583,4.2951 6.298,4.3402 1.016,0.017 4.841,-2.8207 8.5,-6.3054 z m -3.8252,-30.9142 c 0.025,-21.1884 1.0435,-25.1296 7.2523,-28.0758 4.3899,-2.0832 6.6581,-2.1103 9.5089,-0.1135 6.1168,4.2844 7.5112,15.9696 3.0515,25.5711 -2.7359,5.8902 -15.9867,20.8682 -18.4618,20.8682 -1.1145,0 -1.3688,-3.4349 -1.3509,-18.25 z m 345.5739,35.9646 c 1.1527,-0.668 3.5936,-2.9382 5.424,-5.0448 1.8305,-2.1067 8.6037,-7.851 15.0514,-12.7651 13.403,-10.2151 17.7375,-14.6573 21.5825,-22.1188 6.7938,-13.1837 0.6862,-31.4354 -12.1611,-36.3418 -6.376,-2.435 -16.8475,-1.5816 -23.6039,1.9238 -2.7903,1.4476 -5.3237,2.6321 -5.6297,2.6321 -0.306,0 -0.2301,-18.8658 0.1686,-41.9239 0.7151,-41.34937 0.6975,-41.93873 -1.2856,-43.00003 -3.0511,-1.6329 -9.7593,-1.31596 -11.6245,0.54923 -1.4295,1.42945 -1.5588,3.98975 -1.0731,21.25 0.3037,10.7936 1.0064,42.7997 1.5616,71.1247 0.5552,28.325 1.2629,53.8594 1.5727,56.7431 0.7785,7.2454 4.7613,10.0172 10.0171,6.9715 z m 2.0344,-19.9646 c -0.9346,-3.4875 -0.691,-30.7828 0.3134,-35.1116 1.8344,-7.9059 10.1481,-12.7739 15.6543,-9.1662 6.5511,4.2925 8.0153,15.99 3.2662,26.0933 -2.1005,4.4687 -16.0707,20.4345 -17.8803,20.4345 -0.4128,0 -1.022,-1.0125 -1.3536,-2.25 z m -766.6303,-29.7906 c 6.7663,-1.0676 16.7941,-3.9491 23.2674,-6.686 l 3.7674,-1.5928 -0.2674,-24.0903 -0.2674,-24.0903 -18.4266,-0.2732 c -14.0728,-0.2087 -18.6176,0.028 -19.2347,1 -1.0284,1.6204 -1.0576,11.8806 -0.038,13.4844 0.4964,0.7811 4.3087,1.3138 10.7347,1.5 l 9.965,0.2888 0.2844,10.1964 c 0.337,12.0817 0.8724,11.5002 -12.7518,13.8513 -30.7302,5.3032 -55.0326,-12.5422 -55.0326,-40.4108 0,-15.8829 8.0436,-29.7604 21.2653,-36.68896 14.3284,-7.50841 33.7394,-6.90677 52.5652,1.62925 3.5454,1.60756 7.0589,2.92283 7.8078,2.92283 1.8452,0 1.9474,-15.30274 0.1117,-16.72057 -2.3057,-1.78081 -14.1808,-6.02093 -21.4474,-7.65797 -9.7687,-2.20073 -25.0846,-2.10802 -33.8954,0.20517 -27.3039,7.16841 -44.4072,29.00365 -44.4072,56.69315 0,16.1535 5.297,29.3434 16.1601,40.2402 7.1481,7.1703 18.9158,13.5735 28.8399,15.6929 7.8427,1.6749 22.1164,1.9081 31,0.5065 z m -1068.5,-2.8353 c 10.5724,-3.1578 17.2639,-6.9368 24.6934,-13.9453 8.0302,-7.5753 13.1273,-16.2026 15.8407,-26.8123 4.8565,-18.9886 0.033,-37.4903 -13.6193,-52.23566 -6.9927,-7.55273 -15.3534,-12.55262 -26.4148,-15.79659 -7.6335,-2.23868 -60.8058,-3.24802 -62.117,-1.17913 -1.3246,2.09003 -1.1156,108.54168 0.218,111.03358 1.0797,2.0176 1.6132,2.0472 27.75,1.5416 23.1711,-0.4482 27.5626,-0.7883 33.649,-2.6062 z m -44.0987,-14.5207 c -0.2337,-0.6091 -0.3071,-18.8815 -0.1631,-40.6054 l 0.2618,-39.49798 13.5,-0.28935 c 16.0198,-0.34336 24.6469,0.91649 32.8539,4.79777 12.0737,5.70997 18.7179,14.68596 21.1639,28.59136 1.5476,8.7983 0.3192,16.9885 -3.8698,25.802 -5.999,12.6217 -16.9468,19.7629 -33.1033,21.5932 -11.8365,1.3408 -30.068,1.1078 -30.6434,-0.3916 z m 406.7647,16.3078 c 1.4897,-0.7973 1.834,-2.201 1.834,-7.4777 0,-4.4663 -0.4135,-6.6549 -1.3233,-7.004 -0.7278,-0.2793 -11.6403,-0.6027 -24.25,-0.7186 L 3332.3196,680.5 V 664 647.5 l 22.5,-0.5 22.5,-0.5 0.3035,-6.4742 c 0.2456,-5.2367 -0.03,-6.7182 -1.4411,-7.75 -1.2853,-0.9399 -7.3556,-1.2758 -23.0535,-1.2758 h -21.3089 v -15.9815 -15.98162 l 23.25,-0.26843 23.25,-0.26843 v -7.5 -7.5 l -30.8799,-0.26464 c -21.9522,-0.18813 -31.276,0.0641 -32.25,0.87245 -1.9068,1.5825 -2.0487,109.81357 -0.1465,111.71587 1.5353,1.5352 61.085,1.6167 63.9424,0.088 z m 1001.7797,0.1435 c 0.7952,-0.5031 4.3969,-7.8087 8.0038,-16.2347 l 6.5581,-15.32 23.5494,-0.2676 23.5495,-0.2676 6.8576,15.2676 c 3.7717,8.3972 7.5702,15.8476 8.4411,16.5565 2.4142,1.9651 15.4751,1.2277 15.8801,-0.8965 0.4642,-2.4345 -48.0693,-110.91219 -50.1415,-112.07185 -0.9899,-0.55395 -3.9027,-0.69753 -6.6065,-0.32567 -4.7383,0.65169 -4.8863,0.77964 -7.327,6.33513 -18.0097,40.99309 -44.8209,105.43949 -44.3623,106.63459 0.4505,1.174 2.1857,1.5318 7.3706,1.5201 3.7298,-0.01 7.432,-0.4269 8.2271,-0.93 z m 22.7119,-48.8047 c -0.3682,-0.5998 8.0936,-22.1804 13.4295,-34.25 l 1.1052,-2.5 1.9565,3.8061 c 5.1511,10.0207 13.9149,31.0854 13.4437,32.3134 -0.4167,1.086 -3.6167,1.3805 -15.0021,1.3805 -7.9598,0 -14.6795,-0.3375 -14.9328,-0.75 z M 4793.1,693.9784 c 12.654,-4.2545 20.6209,-13.8665 21.4833,-25.9194 1.0215,-14.2768 -6.571,-25.5691 -20.2008,-30.0448 l -3.9371,-1.2928 2.4371,-1.9157 c 9.3992,-7.3886 11.883,-12.0497 11.9151,-22.3593 0.038,-12.34415 -6.5599,-21.76048 -18.5972,-26.53965 -5.5077,-2.18672 -7.2449,-2.33714 -27.3808,-2.3708 l -21.5,-0.0359 -0.2585,55.93575 c -0.2036,44.0552 0.01,56.1212 1,56.809 0.6922,0.4803 11.8335,0.6798 24.7585,0.4433 21.1305,-0.3867 24.1837,-0.6599 30.2804,-2.7097 z m -37.8591,-14.1057 c -0.9952,-1.6103 -1.3977,-18.7897 -0.6384,-27.244 l 0.5274,-5.8712 14.1247,0.4249 c 12.6572,0.3808 14.5852,0.6791 18.5562,2.8713 6.5983,3.6426 9.2895,8.169 8.7622,14.7378 -0.5257,6.5485 -2.8979,9.9765 -9.0336,13.0541 -3.9794,1.9961 -6.671,2.4241 -18.0632,2.8725 -10.6978,0.4211 -13.5575,0.2513 -14.2353,-0.8454 z m -0.5116,-49.989 c -0.1007,-1.5438 -0.078,-28.89141 0.025,-30.2443 0.125,-1.63989 21.3025,-0.18725 24.8598,1.7052 5.2244,2.77937 7.3835,7.10568 6.9462,13.9189 -0.6968,10.856 -6.2242,14.7752 -21.9029,15.5302 -7.9114,0.381 -9.8552,0.2028 -9.9278,-0.91 z M 3055.3589,395.69932 c 0.3176,-1.26538 2.0137,-9.02788 3.7691,-17.25 l 3.1916,-14.9493 16.25,-0.27477 c 15.2948,-0.25862 16.25,-0.16504 16.25,1.59198 0,1.02671 -1.3675,8.31782 -3.0388,16.20247 -1.6713,7.88464 -2.8105,14.93075 -2.5314,15.65802 0.3427,0.89297 2.4543,1.3223 6.5036,1.3223 4.6912,0 6.1978,-0.38087 6.9224,-1.75 0.5094,-0.9625 2.3478,-8.5 4.0853,-16.75 1.7375,-8.25 3.4824,-15.32328 3.8774,-15.71839 0.3951,-0.39512 6.56,-0.84512 13.6999,-1 l 12.9816,-0.28161 v -6.5 -6.5 l -11.75,-0.28174 c -10.9596,-0.26278 -11.75,-0.41527 -11.75,-2.26698 0,-2.94815 4.9501,-25.30142 5.7887,-26.13999 0.3974,-0.39738 4.545,-0.85498 9.2169,-1.0169 l 8.4944,-0.29439 v -6.5 -6.5 l -7.25,-0.29381 c -8.7356,-0.35401 -8.4562,0.87842 -4.2432,-18.71942 1.6537,-7.69272 2.7928,-14.54927 2.5313,-15.23677 -0.3073,-0.80817 -2.5948,-1.25 -6.4715,-1.25 -4.6912,0 -6.1978,0.38087 -6.9224,1.75 -0.5094,0.9625 -2.3372,8.44989 -4.0618,16.63864 -1.7247,8.18875 -3.3753,15.27625 -3.6681,15.75 -0.2928,0.47375 -7.7058,0.86136 -16.4733,0.86136 -14.4184,0 -15.941,-0.16453 -15.941,-1.72253 0,-0.9474 1.3809,-8.19222 3.0688,-16.09962 1.6878,-7.9074 2.8269,-15.00726 2.5313,-15.77747 -0.3787,-0.98708 -2.3237,-1.40038 -6.5902,-1.40038 -7.2822,0 -6.8402,-0.72984 -10.5973,17.5 -3.9872,19.34702 -2.0437,17.39316 -17.6267,17.72072 l -13.2859,0.27928 v 6.5 6.5 l 11.75,0.28174 c 10.3253,0.24757 11.7517,0.49008 11.7642,2 0.01,0.94504 -1.1847,7.43977 -2.6499,14.43272 l -2.664,12.71445 -9.1001,0.28555 -9.1002,0.28554 v 6.5 6.5 l 7.25,0.29381 c 8.7701,0.35541 8.5275,-0.75378 4.1908,19.15868 -1.6826,7.72573 -2.7811,14.49695 -2.441,15.04715 0.34,0.5502 3.5081,1.00036 7.0402,1.00036 5.8677,0 6.4717,-0.19855 6.9993,-2.3007 z m 10.4658,-48.4493 c 0.01,-2.22731 4.877,-25.25029 5.5835,-26.39336 0.2912,-0.47115 7.7029,-0.85664 16.4704,-0.85664 15.3191,0 15.941,0.0787 15.941,2.01698 0,2.42128 -4.7756,24.81086 -5.5642,26.08685 -0.3046,0.49289 -7.7273,0.89617 -16.4948,0.89617 -14.5172,0 -15.9405,-0.15631 -15.9359,-1.75 z m 353.3556,44 c 0.8669,-3.7125 2.5073,-11.2079 3.6454,-16.65645 1.1381,-5.44855 2.3039,-10.28605 2.5906,-10.75 0.2867,-0.46395 7.6948,-0.84355 16.4623,-0.84355 18.361,0 17.0911,-0.96874 14.4203,11 -3.7643,16.86895 -4.5676,21.3274 -4.0744,22.61271 0.3728,0.97162 2.3459,1.38729 6.5852,1.38729 7.2993,0 6.7123,1.00991 11.0426,-19 1.7259,-7.975 3.4453,-14.82328 3.821,-15.21839 0.3757,-0.39512 6.5248,-0.84512 13.6647,-1 l 12.9816,-0.28161 v -6.5 -6.5 l -12,-0.5 c -7.1565,-0.29819 -11.939,-0.90363 -11.8488,-1.5 0.869,-5.74796 4.6347,-23.49755 5.3486,-25.21049 0.837,-2.00827 1.7254,-2.23698 9.7108,-2.5 l 8.7894,-0.28951 v -6.5 -6.5 l -7.5,-0.5 c -5.9156,-0.39438 -7.4535,-0.81687 -7.2798,-2 0.1212,-0.825 1.5987,-7.99877 3.2835,-15.94171 1.6847,-7.94293 2.8372,-15.03043 2.5611,-15.75 -0.6687,-1.7426 -11.9455,-1.79207 -13.2872,-0.0583 -0.532,0.6875 -2.2389,7.55 -3.793,15.25 -4.198,20.79954 -1.6549,18.5 -20.4598,18.5 -14.8538,0 -16.0248,-0.13354 -16.0248,-1.82745 0,-1.0051 1.3672,-8.44518 3.0383,-16.53351 1.6711,-8.08833 2.7695,-15.14098 2.441,-15.67255 -0.3285,-0.53157 -3.2804,-0.96649 -6.5598,-0.96649 -7.2646,0 -6.8436,-0.72944 -10.948,18.97168 -1.6582,7.95942 -3.3509,14.8077 -3.7616,15.21839 -0.4107,0.4107 -6.5884,0.87344 -13.7283,1.02832 l -12.9816,0.28162 v 6.5 6.5 l 11.75,0.28174 c 10.6984,0.25651 11.75,0.44862 11.75,2.1464 0,2.96957 -4.9202,25.39207 -5.755,26.22686 -0.4159,0.41592 -4.5787,0.88869 -9.2506,1.05061 l -8.4944,0.29439 v 6.5 6.5 l 7.25,0.29381 c 6.3704,0.25816 7.25,0.52584 7.25,2.20637 0,1.05192 -1.3649,8.47602 -3.0332,16.49801 -1.6682,8.02198 -2.7667,15.01662 -2.441,15.54362 0.3257,0.527 3.4422,0.95819 6.9255,0.95819 h 6.3333 z m 9.6393,-44.14523 c 0,-2.31181 4.8445,-25.04408 5.5964,-26.26078 0.2869,-0.46419 7.7462,-0.84399 16.5762,-0.84399 h 16.0545 l -0.6439,4.25 c -0.3541,2.3375 -1.6427,8.75 -2.8635,14.25 l -2.2197,10 -16.25,0.27477 c -15.5237,0.26249 -16.25,0.18785 -16.25,-1.67 z m 677.6555,49.64523 c 0.4254,-0.6875 2.3645,-8.45 4.309,-17.25 l 3.5355,-16 16.3829,-0.27541 16.3829,-0.27541 -0.5744,4.27541 c -0.3159,2.35148 -1.7257,9.61964 -3.1329,16.15147 -1.4072,6.53183 -2.5585,12.49433 -2.5585,13.25 0,1.83312 12.3188,1.94447 13.7111,0.12394 0.5258,-0.6875 2.2283,-7.55 3.7834,-15.25 4.1719,-20.65733 2.0698,-18.5 18.0264,-18.5 h 13.5705 l -0.2957,-6.75 -0.2957,-6.75 -11.75,-0.28174 c -10.9596,-0.26278 -11.75,-0.41527 -11.75,-2.26698 0,-2.94815 4.9501,-25.30142 5.7887,-26.13999 0.3974,-0.39738 4.545,-0.85498 9.2169,-1.0169 l 8.4944,-0.29439 v -6.5 -6.5 l -7.25,-0.29381 c -6.3823,-0.25865 -7.25,-0.52374 -7.25,-2.21505 0,-1.05668 1.365,-8.32324 3.0334,-16.1479 1.6684,-7.82466 2.7992,-14.83701 2.513,-15.583 -0.7511,-1.95717 -12.5449,-1.31703 -13.6292,0.73976 -0.4349,0.825 -2.2817,8.475 -4.104,17 l -3.3132,15.5 -16.25,0.27477 c -19.0613,0.32231 -17.5526,1.97583 -13.7419,-15.06142 1.3794,-6.16734 2.6169,-13.01335 2.75,-15.21335 l 0.2419,-4 -6.1901,-0.29616 c -5.1246,-0.24519 -6.3544,0.013 -7.1442,1.5 -0.5248,0.98789 -2.1531,7.87116 -3.6184,15.29616 -3.8979,19.75043 -2.0854,17.89117 -17.7625,18.22073 l -13.2848,0.27927 v 6.5 6.5 l 11.75,0.28174 c 13.7063,0.32864 12.7704,-1.06322 9.6321,14.32394 -3.2352,15.86292 -2.3212,14.7665 -12.5923,15.10481 l -8.7898,0.28951 v 6.5 6.5 l 7.25,0.29381 c 8.746,0.35443 8.4816,-0.81836 4.2155,18.70019 -1.669,7.63601 -2.8081,14.47368 -2.5314,15.19483 0.6734,1.75498 12.1404,1.80804 13.2214,0.0612 z m 11.3496,-49.5 c 0.01,-2.22731 4.877,-25.25029 5.5835,-26.39336 0.2912,-0.47115 7.7029,-0.85664 16.4704,-0.85664 15.3191,0 15.941,0.0787 15.941,2.01698 0,2.42128 -4.7756,24.81086 -5.5642,26.08685 -0.3046,0.49289 -7.7273,0.89617 -16.4948,0.89617 -14.5172,0 -15.9405,-0.15631 -15.9359,-1.75 z m 370.7211,49.5 c 0.5342,-0.6875 2.2006,-7.50382 3.7033,-15.14738 4.0877,-20.79287 1.6531,-18.60262 20.6774,-18.60262 h 16.1564 l -0.5641,3.75 c -0.3104,2.0625 -1.7579,9.28814 -3.2168,16.05699 -1.459,6.76884 -2.4035,12.95634 -2.0989,13.75 0.3981,1.03742 2.255,1.44301 6.6066,1.44301 7.319,0 6.7749,0.93823 11.0132,-18.99256 1.695,-7.9709 3.4084,-14.81918 3.8077,-15.21839 0.3992,-0.39921 6.5675,-0.85256 13.7074,-1.00744 l 12.9816,-0.28161 v -6.5 -6.5 l -12,-0.5 c -9.9093,-0.41289 -11.9627,-0.76134 -11.7857,-2 0.7353,-5.14689 5.4774,-25.5917 6.0744,-26.18871 0.3974,-0.39738 4.545,-0.85498 9.2169,-1.0169 l 8.4944,-0.29439 v -6.5 -6.5 l -6.5,-0.2738 c -3.575,-0.15059 -7.0243,-0.4593 -7.665,-0.68601 -0.8515,-0.30127 -0.6424,-2.78438 0.777,-9.2262 4.0937,-18.57886 4.9585,-23.39083 4.3741,-24.3365 -0.893,-1.44484 -12.0487,-1.21544 -13.2523,0.27251 -0.5561,0.6875 -2.1881,7.1 -3.6267,14.25 -1.4386,7.15 -2.9831,14.35 -3.4323,16 l -0.8167,3 -16.3112,0.27541 -16.3113,0.2754 0.668,-5.03601 c 0.3675,-2.76981 1.785,-10.08575 3.1501,-16.25766 1.3651,-6.1719 2.2631,-11.79213 1.9956,-12.48939 -0.6545,-1.70556 -11.958,-1.72069 -13.2604,-0.0177 -0.5258,0.6875 -2.2283,7.55 -3.7834,15.25 -4.1487,20.54246 -2.1139,18.39269 -17.7196,18.72072 l -13.2859,0.27923 v 6.5 6.5 l 11.75,0.28174 11.75,0.28173 -0.08,2.71827 c -0.044,1.49504 -1.2817,7.89326 -2.75,14.21826 l -2.6696,11.5 -9,0.5 -9,0.5 v 6.5 6.5 l 7.25,0.29381 c 5.3007,0.21481 7.25,0.65934 7.25,1.65332 0,0.74773 -0.9168,5.79052 -2.0373,11.20619 -3.0553,14.76668 -3.9618,20.53914 -3.3745,21.48941 0.8403,1.35962 12.0367,1.02493 13.138,-0.39273 z m 11.2738,-49.74221 c 0,-2.43906 4.7709,-24.82812 5.5642,-26.11162 0.3046,-0.49289 7.7273,-0.89617 16.4948,-0.89617 18.717,0 17.1994,-1.91038 13.1079,16.5 l -2.6669,12 -16.25,0.27477 c -15.7838,0.26689 -16.25,0.2162 -16.25,-1.76698 z m 341.9548,47.24221 c 0.5693,-2.0625 2.2787,-9.825 3.7987,-17.25 l 2.7637,-13.5 16.2414,-0.27477 c 16.0203,-0.27103 16.2414,-0.24561 16.2414,1.86772 0,1.17838 -1.3536,8.65162 -3.0081,16.60721 -1.6544,7.95559 -2.7529,14.87761 -2.441,15.38227 0.3119,0.50466 3.4353,0.91757 6.9407,0.91757 5.1979,0 6.4732,-0.32281 6.9132,-1.75 0.2967,-0.9625 1.9321,-8.47913 3.6342,-16.70362 1.702,-8.22449 3.3161,-15.31199 3.5868,-15.75 0.2707,-0.43801 6.2257,-0.79638 13.2332,-0.79638 8.5763,0 13.1332,-0.39225 13.941,-1.2 1.4726,-1.4726 1.5751,-8.23058 0.1648,-10.86574 -0.931,-1.73968 -2.1885,-1.93426 -12.5,-1.93426 -9.0722,0 -11.4648,-0.28753 -11.4648,-1.37776 0,-1.82207 5.0744,-25.90804 5.6614,-26.87224 0.2512,-0.4125 4.4319,-0.75 9.2906,-0.75 9.742,0 10.048,-0.20246 10.048,-6.64753 0,-6.37561 -1.2004,-7.35247 -9.0352,-7.35247 -5.4315,0 -6.9648,-0.32061 -6.9648,-1.45638 0,-0.801 1.3741,-8.06375 3.0535,-16.13944 1.6794,-8.07568 2.8185,-15.29531 2.5314,-16.04362 -0.8403,-2.18979 -12.2596,-1.85819 -13.4111,0.38944 -0.4931,0.9625 -2.141,7.825 -3.6621,15.25 -4.1295,20.15833 -1.6729,18 -20.4869,18 -11.2939,0 -16.0248,-0.33532 -16.0248,-1.13581 0,-0.6247 1.3845,-7.86013 3.0768,-16.07875 1.6922,-8.21862 2.8313,-15.5825 2.5314,-16.36419 -0.3883,-1.01173 -2.2895,-1.42125 -6.5983,-1.42125 -7.2739,0 -6.7555,-0.88191 -10.5788,18 -1.5034,7.425 -3.1243,14.2745 -3.602,15.22111 -0.7443,1.47489 -2.7613,1.76101 -14.0988,2 l -13.2303,0.27889 v 6.5 6.5 l 11,0.26428 c 6.05,0.14536 11.5217,0.45307 12.1593,0.68381 0.8287,0.29989 0.3296,4.33332 -1.75,14.14342 -1.6001,7.54813 -2.9093,13.86103 -2.9093,14.02866 0,0.16763 -4.1625,0.43416 -9.25,0.5923 l -9.25,0.28753 v 6.5 6.5 l 6.5,0.2738 c 3.575,0.15059 7.0194,0.45744 7.6543,0.68188 0.8164,0.28865 0.1578,5.13775 -2.2507,16.5707 -1.8726,8.88945 -3.153,16.57011 -2.8452,17.06813 0.3078,0.49802 3.44,0.90549 6.9605,0.90549 h 6.4008 z m 10.5763,-49.5 c 0.3594,-2.3375 1.6328,-8.75 2.8295,-14.25 l 2.176,-10 15.4397,-0.27717 c 8.4919,-0.15244 15.9829,-0.0687 16.6467,0.18601 0.9155,0.35129 0.7711,2.4716 -0.5974,8.77717 -0.9925,4.57269 -2.3362,10.90149 -2.986,14.06399 l -1.1814,5.75 h -16.4904 -16.4903 z m -1855.9648,39.18217 c 8.3116,-1.49576 17.3879,-4.36853 23.3544,-7.39199 l 5.0793,-2.57387 v -9.48316 c 0,-11.01739 -0.1313,-11.11922 -8.3551,-6.47801 -9.7678,5.51261 -19.0856,8.11782 -31.1449,8.70794 -12.3195,0.60285 -19.2114,-0.46077 -27.3088,-4.21454 -17.1498,-7.95019 -26.0336,-23.60261 -24.9673,-43.98969 0.4407,-8.42452 0.9292,-10.42844 4.0923,-16.78765 3.9364,-7.9136 9.727,-14.4806 16.6838,-18.92082 15.3624,-9.80509 39.8128,-9.44699 60.3564,0.88398 3.771,1.89638 7.4835,3.20731 8.25,2.91318 1.0404,-0.39922 1.3936,-2.69136 1.3936,-9.0431 0,-10.21536 0.4224,-9.80135 -15.5262,-15.21869 -10.7609,-3.65525 -11.2745,-3.7286 -26.4738,-3.78165 -17.3574,-0.0606 -21.7646,0.85589 -35,7.27821 -10.8656,5.27239 -21.3281,15.84992 -26.8722,27.16769 -18.8048,38.38807 1.7768,81.3392 43.3552,90.47683 7.4562,1.63864 25.1544,1.88223 33.0833,0.45534 z m 1439.0595,-2.16487 c 5.0192,-1.33947 11.3192,-3.52258 14,-4.85135 l 4.8742,-2.41595 0.2676,-25.43245 c 0.1707,-16.23296 -0.1,-25.79957 -0.7474,-26.44738 -1.0308,-1.03077 -39.5141,-1.051 -41.1796,-0.0216 -1.4051,0.86837 -1.0019,14.02272 0.4672,15.24192 0.7192,0.59694 6.0067,1.21454 11.75,1.37244 l 10.4422,0.28707 0.2849,10.85548 c 0.1725,6.5745 -0.1312,11.35682 -0.7701,12.12675 -2.0811,2.50748 -16.9913,4.78743 -28.0911,4.29545 -12.1693,-0.53938 -17.9988,-2.29361 -26.4237,-7.95155 -9.515,-6.38999 -15.3447,-14.82611 -17.9853,-26.02655 -6.349,-26.93042 11.1748,-52.9896 38.0385,-56.56583 13.1272,-1.74756 29.4468,1.14255 44.244,7.83539 4.3776,1.97997 6.4121,2.47979 6.674,1.63956 1.0471,-3.35886 1.1524,-15.83244 0.1447,-17.12924 -0.6137,-0.78984 -6.7409,-3.33606 -13.6159,-5.65826 -11.1504,-3.76633 -13.7798,-4.2752 -24.3541,-4.71324 -13.834,-0.57309 -22.8734,0.76218 -32.7604,4.83924 -37.1326,15.31227 -51.07,61.09236 -28.7559,94.45469 8.6063,12.86737 21.0481,21.26721 37.8704,25.56732 10.7984,2.7603 32.7514,2.13388 45.6258,-1.30191 z m -1104.7419,1.11602 c 23.5485,-3.2753 40.6271,-14.94158 50.1456,-34.25425 6.6006,-13.39227 8.3543,-25.92013 5.5167,-39.40949 -5.1394,-24.43204 -21.2042,-41.26508 -45.5462,-47.72431 -8.5291,-2.26322 -64.0743,-3.50839 -66.5053,-1.49086 -1.2961,1.07564 -1.4947,9.26809 -1.4947,61.65026 v 60.40978 l 2.25,0.90086 c 3.1374,1.25615 46.4722,1.19229 55.6339,-0.082 z m -38.2277,-17.63332 c -0.2541,-0.4125 -0.3752,-20.325 -0.2691,-44.25 l 0.1927,-43.5 17.8436,-0.27362 c 19.5741,-0.30015 25.5304,0.61949 35.5766,5.49289 21.7241,10.53839 28.7792,42.18054 14.2793,64.04302 -6.3079,9.51086 -14.3024,14.8515 -26.5567,17.74093 -6.6045,1.55726 -40.1912,2.16803 -41.0664,0.74678 z m 737.5938,18.05906 c 1.6143,-0.40942 1.75,-2.60971 1.75,-28.37645 v -27.93261 h 22.8776 c 18.4474,0 23.1037,-0.27256 24.0456,-1.4075 0.7243,-0.87267 1.0558,-4.19756 0.8725,-8.75 l -0.2957,-7.3425 -23.5,-0.5 -23.5,-0.5 -0.2754,-15.75 -0.2754,-15.75 h 22.4436 c 12.344,0 23.1554,-0.27314 24.0254,-0.60699 1.255,-0.48158 1.5818,-2.21567 1.5818,-8.39301 0,-6.17734 -0.3268,-7.91143 -1.5818,-8.39301 -2.0647,-0.79231 -61.7717,-0.79231 -63.8364,0 -1.4186,0.54436 -1.5818,6.93275 -1.5818,61.91667 0,48.12117 0.2689,61.4145 1.25,61.79698 1.5465,0.60288 13.6117,0.59415 16,-0.0116 z m 685.7022,-0.28347 c 1.0573,-0.56588 4.8259,-8.06465 8.9886,-17.88587 6.5225,-15.38881 7.4191,-16.9617 9.9583,-17.46954 4.3077,-0.86154 43.237,-0.76184 46.464,0.11899 2.4812,0.67725 3.5853,2.37779 8.2759,12.74617 2.9771,6.58056 6.6386,14.43843 8.1369,17.46193 l 2.7241,5.49728 8.0998,0.28615 c 5.7123,0.2018 8.4171,-0.0961 9.1761,-1.01073 0.8022,-0.96653 -0.7516,-5.38747 -6.0998,-17.3557 -3.9468,-8.83235 -8.0425,-18.0513 -9.1014,-20.48655 -3.2109,-7.38399 -10.6206,-24.11709 -13.0312,-29.42772 -1.2483,-2.75 -3.7342,-8.375 -5.5243,-12.5 -1.7901,-4.125 -5.0017,-11.23911 -7.137,-15.80913 -2.1352,-4.57002 -3.8822,-8.50562 -3.8822,-8.74577 0,-0.53892 -6.6882,-15.38627 -7.8487,-17.42362 -1.101,-1.93291 -6.007,-2.89181 -10.8165,-2.11416 l -3.8348,0.62004 -8.7946,20.48632 c -4.837,11.26748 -11.9054,27.68632 -15.7076,36.48632 -22.3459,51.71864 -27.7269,65.04199 -26.7568,66.25 1.2093,1.50574 14.0179,1.71697 16.7112,0.27559 z m 25.0478,-54.03434 c 0,-1.98321 15.4406,-38.99125 16.2681,-38.99125 0.4644,0 1.7666,2.1375 2.8937,4.75 1.1271,2.6125 4.9268,11.15329 8.4438,18.97954 3.5169,7.82624 6.3944,14.68874 6.3944,15.25 0,0.65393 -6.1061,1.02046 -17,1.02046 -10.765,0 -17,-0.36998 -17,-1.00875 z"
     id="path383"
     inkscape:connector-curvature="0" />
</svg>
